<?xml version="1.0" encoding="UTF-8"?>
<svg width="56px" height="12px" viewBox="0 0 56 12" version="1.1" xmlns="http://www.w3.org/2000/svg" xmlns:xlink="http://www.w3.org/1999/xlink">
    <!-- Generator: Sketch 51.2 (57519) - http://www.bohemiancoding.com/sketch -->
    <title>Resume</title>
    <desc>Created with Sketch.</desc>
    <defs></defs>
    <g id="Page-1" stroke="none" stroke-width="1" fill="none" fill-rule="evenodd">
        <g id="Desktop-HD-Copy-13" transform="translate(-875.000000, -52.000000)" fill="#FFFFFF">
            <path d="M884.128,63 L881.696,63 L878.96,59.272 L877.376,59.272 L877.376,63 L875.216,63 L875.216,52.44 L879.184,52.44 C881.392,52.44 882.992,53.816 882.992,55.848 C882.992,57.192 882.288,58.28 881.136,58.856 L884.128,63 Z M877.376,54.344 L877.376,57.368 L879.184,57.368 C880.192,57.368 880.784,56.76 880.784,55.848 C880.784,54.952 880.16,54.344 879.184,54.344 L877.376,54.344 Z M884.606,63 L884.606,52.44 L891.71,52.44 L891.71,54.392 L886.766,54.392 L886.766,56.536 L890.398,56.536 L890.398,58.376 L886.766,58.376 L886.766,61.048 L891.902,61.048 L891.902,63 L884.606,63 Z M892.188,60.856 L893.676,59.736 C894.364,60.68 895.116,61.272 896.268,61.272 C897.212,61.272 897.772,60.824 897.772,60.104 C897.772,59.48 897.436,59.256 896.428,58.792 L895.292,58.28 C893.676,57.56 892.732,56.648 892.732,55.24 C892.732,53.432 894.236,52.248 896.236,52.248 C897.852,52.248 899.068,53.032 899.724,54.248 L898.252,55.384 C897.708,54.568 897.036,54.168 896.236,54.168 C895.484,54.168 894.924,54.536 894.924,55.192 C894.924,55.752 895.26,56.008 896.156,56.408 L897.356,56.936 C899.132,57.72 899.964,58.6 899.964,60.024 C899.964,61.96 898.38,63.192 896.268,63.192 C894.476,63.192 893.004,62.28 892.188,60.856 Z M900.922,58.632 L900.922,52.44 L903.082,52.44 L903.082,58.792 C903.082,60.328 904.042,61.192 905.402,61.192 C906.794,61.192 907.722,60.328 907.722,58.792 L907.722,52.44 L909.882,52.44 L909.882,58.632 C909.882,61.432 907.962,63.192 905.402,63.192 C902.81,63.192 900.922,61.432 900.922,58.632 Z M921,52.248 L921.704,52.248 L921.704,63 L919.544,63 L919.544,57.368 L916.888,60.696 L916.184,60.696 L913.528,57.368 L913.528,63 L911.368,63 L911.368,52.248 L912.072,52.248 L916.536,57.96 L921,52.248 Z M923.286,63 L923.286,52.44 L930.39,52.44 L930.39,54.392 L925.446,54.392 L925.446,56.536 L929.078,56.536 L929.078,58.376 L925.446,58.376 L925.446,61.048 L930.582,61.048 L930.582,63 L923.286,63 Z" id="Resume"></path>
        </g>
    </g>
</svg>
