<?xml version="1.0" encoding="UTF-8"?>
<svg width="692px" height="75px" viewBox="0 0 692 75" version="1.1" xmlns="http://www.w3.org/2000/svg" xmlns:xlink="http://www.w3.org/1999/xlink">
    <!-- Generator: Sketch 53.2 (72643) - https://sketchapp.com -->
    <title>Thisstudyonaudio/graphicsynchronizationanimatedthelogoforthefilmMid90s.</title>
    <desc>Created with Sketch.</desc>
    <g id="Page-1" stroke="none" stroke-width="1" fill="none" fill-rule="evenodd">
        <g id="Desktop-HD-Copy-33" transform="translate(-356.000000, -1209.000000)" fill="#404648" fill-rule="nonzero">
            <path d="M374.496368,1213.56 L374.496368,1215.94 L366.574368,1215.94 L366.574368,1236 L363.922368,1236 L363.922368,1215.94 L356.034368,1215.94 L356.034368,1213.56 L374.496368,1213.56 Z M385.573049,1219.068 C389.449049,1219.068 391.693049,1221.754 391.693049,1225.596 L391.693049,1236 L389.075049,1236 L389.075049,1225.936 C389.075049,1223.318 387.511049,1221.482 384.961049,1221.482 C382.411049,1221.482 380.609049,1223.352 380.609049,1225.936 L380.609049,1236 L377.991049,1236 L377.991049,1210.5 L380.609049,1210.5 L380.609049,1221.312 C381.697049,1219.918 383.431049,1219.068 385.573049,1219.068 Z M398.519729,1211.214 C399.573729,1211.214 400.457729,1212.064 400.457729,1213.118 C400.457729,1214.206 399.573729,1215.022 398.519729,1215.022 C397.397729,1215.022 396.547729,1214.206 396.547729,1213.118 C396.547729,1212.064 397.397729,1211.214 398.519729,1211.214 Z M399.811729,1219.442 L399.811729,1236 L397.193729,1236 L397.193729,1219.442 L399.811729,1219.442 Z M410.51441,1219.068 C412.89441,1219.068 414.76441,1220.088 416.05641,1221.686 L414.45841,1223.318 C413.37041,1222.196 411.94241,1221.482 410.37841,1221.482 C408.81441,1221.482 407.62441,1222.196 407.62441,1223.556 C407.62441,1224.678 408.47441,1225.222 410.31041,1225.97 L411.84041,1226.616 C414.83241,1227.874 416.22641,1229.166 416.22641,1231.512 C416.22641,1234.742 413.47241,1236.374 410.41241,1236.374 C407.48841,1236.374 405.27841,1234.912 403.95241,1233.144 L405.61841,1231.41 C406.97841,1232.838 408.37241,1233.96 410.37841,1233.96 C412.11241,1233.96 413.54041,1233.11 413.54041,1231.614 C413.54041,1230.186 412.31641,1229.642 410.65041,1228.962 L409.05241,1228.282 C406.53641,1227.228 404.93841,1226.072 404.93841,1223.692 C404.93841,1220.7 407.48841,1219.068 410.51441,1219.068 Z M435.387771,1219.068 C437.767771,1219.068 439.637771,1220.088 440.929771,1221.686 L439.331771,1223.318 C438.243771,1222.196 436.815771,1221.482 435.251771,1221.482 C433.687771,1221.482 432.497771,1222.196 432.497771,1223.556 C432.497771,1224.678 433.347771,1225.222 435.183771,1225.97 L436.713771,1226.616 C439.705771,1227.874 441.099771,1229.166 441.099771,1231.512 C441.099771,1234.742 438.345771,1236.374 435.285771,1236.374 C432.361771,1236.374 430.151771,1234.912 428.825771,1233.144 L430.491771,1231.41 C431.851771,1232.838 433.245771,1233.96 435.251771,1233.96 C436.985771,1233.96 438.413771,1233.11 438.413771,1231.614 C438.413771,1230.186 437.189771,1229.642 435.523771,1228.962 L433.925771,1228.282 C431.409771,1227.228 429.811771,1226.072 429.811771,1223.692 C429.811771,1220.7 432.361771,1219.068 435.387771,1219.068 Z M452.618451,1233.994 C453.264451,1233.994 453.978451,1233.926 454.828451,1233.79 L454.828451,1236 C453.978451,1236.204 453.128451,1236.374 452.074451,1236.374 C448.810451,1236.374 446.498451,1234.776 446.498451,1231.002 L446.498451,1221.788 L443.710451,1221.788 L443.710451,1219.442 L446.498451,1219.442 L446.498451,1214.92 L449.116451,1214.92 L449.116451,1219.442 L454.284451,1219.442 L454.284451,1221.788 L449.116451,1221.788 L449.116451,1230.832 C449.116451,1233.314 450.544451,1233.994 452.618451,1233.994 Z M472.195132,1219.442 L472.195132,1229.404 C472.195132,1233.654 469.169132,1236.374 465.361132,1236.374 C461.485132,1236.374 458.493132,1233.654 458.493132,1229.404 L458.493132,1219.442 L461.077132,1219.442 L461.077132,1229.574 C461.077132,1232.294 462.981132,1233.96 465.361132,1233.96 C467.673132,1233.96 469.577132,1232.294 469.577132,1229.574 L469.577132,1219.442 L472.195132,1219.442 Z M490.819812,1210.5 L493.437812,1210.5 L493.437812,1236 L490.955812,1236 L490.955812,1233.348 C489.663812,1235.252 487.317812,1236.374 484.699812,1236.374 C479.973812,1236.374 476.505812,1232.6 476.505812,1227.738 C476.505812,1222.842 479.973812,1219.068 484.699812,1219.068 C487.215812,1219.068 489.493812,1220.122 490.819812,1221.89 L490.819812,1210.5 Z M485.073812,1233.96 C487.929812,1233.96 490.853812,1232.09 490.853812,1227.738 C490.853812,1223.386 487.929812,1221.482 485.073812,1221.482 C481.707812,1221.482 479.191812,1224.1 479.191812,1227.704 C479.191812,1231.308 481.673812,1233.96 485.073812,1233.96 Z M510.906493,1219.442 L513.694493,1219.442 L505.534493,1238.312 C504.242493,1241.27 502.440493,1242.494 499.924493,1242.494 C499.108493,1242.494 498.156493,1242.358 497.374493,1242.154 L497.374493,1239.944 C498.156493,1240.046 498.802493,1240.114 499.380493,1240.114 C500.978493,1240.114 502.202493,1239.57 503.120493,1237.462 L504.004493,1235.456 L497.136493,1219.442 L499.958493,1219.442 L505.432493,1232.634 L510.906493,1219.442 Z M534.385854,1219.068 C539.179854,1219.068 543.055854,1222.842 543.055854,1227.704 C543.055854,1232.532 539.179854,1236.34 534.351854,1236.34 C529.557854,1236.306 525.715854,1232.566 525.715854,1227.704 C525.715854,1222.842 529.523854,1219.068 534.385854,1219.068 Z M534.385854,1221.482 C530.917854,1221.482 528.367854,1224.202 528.401854,1227.738 C528.401854,1231.24 530.917854,1233.926 534.351854,1233.926 C537.785854,1233.926 540.369854,1231.206 540.369854,1227.738 C540.369854,1224.168 537.785854,1221.482 534.385854,1221.482 Z M555.152535,1219.068 C559.062535,1219.068 561.306535,1221.754 561.306535,1225.596 L561.306535,1236 L558.688535,1236 L558.688535,1225.902 C558.688535,1223.284 557.124535,1221.482 554.574535,1221.482 C552.024535,1221.482 550.222535,1223.318 550.222535,1225.902 L550.222535,1236 L547.604535,1236 L547.604535,1219.442 L550.052535,1219.442 L550.052535,1221.244 C551.208535,1219.884 553.010535,1219.068 555.152535,1219.068 Z M582.235896,1219.068 C586.009896,1219.068 588.695896,1221.346 588.695896,1225.8 L588.695896,1236 L586.247896,1236 L586.247896,1233.858 C585.057896,1235.456 583.119896,1236.374 580.671896,1236.374 C577.339896,1236.374 574.891896,1234.606 574.891896,1231.716 C574.891896,1228.928 577.237896,1227.092 580.841896,1227.092 L586.077896,1227.092 L586.077896,1225.664 C586.077896,1222.876 584.513896,1221.482 582.065896,1221.482 C579.991896,1221.482 578.529896,1222.468 577.237896,1224.134 L575.503896,1222.706 C577.067896,1220.19 579.583896,1219.068 582.235896,1219.068 Z M581.011896,1234.198 C583.731896,1234.198 586.077896,1232.226 586.077896,1229.642 L586.077896,1229.234 L581.147896,1229.234 C578.835896,1229.234 577.577896,1230.016 577.577896,1231.58 C577.577896,1233.348 579.175896,1234.198 581.011896,1234.198 Z M607.694576,1219.442 L607.694576,1229.404 C607.694576,1233.654 604.668576,1236.374 600.860576,1236.374 C596.984576,1236.374 593.992576,1233.654 593.992576,1229.404 L593.992576,1219.442 L596.576576,1219.442 L596.576576,1229.574 C596.576576,1232.294 598.480576,1233.96 600.860576,1233.96 C603.172576,1233.96 605.076576,1232.294 605.076576,1229.574 L605.076576,1219.442 L607.694576,1219.442 Z M626.319257,1210.5 L628.937257,1210.5 L628.937257,1236 L626.455257,1236 L626.455257,1233.348 C625.163257,1235.252 622.817257,1236.374 620.199257,1236.374 C615.473257,1236.374 612.005257,1232.6 612.005257,1227.738 C612.005257,1222.842 615.473257,1219.068 620.199257,1219.068 C622.715257,1219.068 624.993257,1220.122 626.319257,1221.89 L626.319257,1210.5 Z M620.573257,1233.96 C623.429257,1233.96 626.353257,1232.09 626.353257,1227.738 C626.353257,1223.386 623.429257,1221.482 620.573257,1221.482 C617.207257,1221.482 614.691257,1224.1 614.691257,1227.704 C614.691257,1231.308 617.173257,1233.96 620.573257,1233.96 Z M635.967937,1211.214 C637.021937,1211.214 637.905937,1212.064 637.905937,1213.118 C637.905937,1214.206 637.021937,1215.022 635.967937,1215.022 C634.845937,1215.022 633.995937,1214.206 633.995937,1213.118 C633.995937,1212.064 634.845937,1211.214 635.967937,1211.214 Z M637.259937,1219.442 L637.259937,1236 L634.641937,1236 L634.641937,1219.442 L637.259937,1219.442 Z M650.444618,1219.068 C655.238618,1219.068 659.114618,1222.842 659.114618,1227.704 C659.114618,1232.532 655.238618,1236.34 650.410618,1236.34 C645.616618,1236.306 641.774618,1232.566 641.774618,1227.704 C641.774618,1222.842 645.582618,1219.068 650.444618,1219.068 Z M650.444618,1221.482 C646.976618,1221.482 644.426618,1224.202 644.460618,1227.738 C644.460618,1231.24 646.976618,1233.926 650.410618,1233.926 C653.844618,1233.926 656.428618,1231.206 656.428618,1227.738 C656.428618,1224.168 653.844618,1221.482 650.444618,1221.482 Z M680.187299,1209.48 L662.405299,1240.114 L659.311299,1240.114 L677.093299,1209.48 L680.187299,1209.48 Z M692.963979,1219.442 L695.445979,1219.442 L695.445979,1234.402 C695.445979,1239.502 692.215979,1242.494 687.387979,1242.494 C683.919979,1242.494 681.233979,1240.93 679.601979,1239.298 L681.131979,1237.462 C682.729979,1238.856 684.599979,1240.08 687.319979,1240.08 C690.685979,1240.08 692.827979,1238.21 692.827979,1234.538 L692.827979,1233.076 C691.467979,1234.81 689.155979,1235.83 686.673979,1235.83 C682.015979,1235.83 678.547979,1232.294 678.547979,1227.466 C678.547979,1222.672 682.015979,1219.068 686.673979,1219.068 C689.291979,1219.068 691.671979,1220.224 692.963979,1222.128 L692.963979,1219.442 Z M687.081979,1233.416 C689.971979,1233.416 692.861979,1231.614 692.861979,1227.466 C692.861979,1223.318 689.937979,1221.55 687.081979,1221.55 C683.715979,1221.55 681.199979,1223.998 681.199979,1227.5 C681.199979,1231.002 683.715979,1233.416 687.081979,1233.416 Z M708.73266,1219.306 C709.27666,1219.306 709.61666,1219.374 709.95666,1219.442 L709.95666,1221.754 L708.97066,1221.754 C706.28466,1221.754 703.76866,1223.454 703.76866,1226.616 L703.76866,1236 L701.15066,1236 L701.15066,1219.442 L703.59866,1219.442 L703.59866,1221.822 C704.82266,1220.19 706.76066,1219.306 708.73266,1219.306 Z M719.02734,1219.068 C722.80134,1219.068 725.48734,1221.346 725.48734,1225.8 L725.48734,1236 L723.03934,1236 L723.03934,1233.858 C721.84934,1235.456 719.91134,1236.374 717.46334,1236.374 C714.13134,1236.374 711.68334,1234.606 711.68334,1231.716 C711.68334,1228.928 714.02934,1227.092 717.63334,1227.092 L722.86934,1227.092 L722.86934,1225.664 C722.86934,1222.876 721.30534,1221.482 718.85734,1221.482 C716.78334,1221.482 715.32134,1222.468 714.02934,1224.134 L712.29534,1222.706 C713.85934,1220.19 716.37534,1219.068 719.02734,1219.068 Z M717.80334,1234.198 C720.52334,1234.198 722.86934,1232.226 722.86934,1229.642 L722.86934,1229.234 L717.93934,1229.234 C715.62734,1229.234 714.36934,1230.016 714.36934,1231.58 C714.36934,1233.348 715.96734,1234.198 717.80334,1234.198 Z M739.692021,1219.068 C744.452021,1219.068 747.886021,1222.842 747.886021,1227.704 C747.886021,1232.6 744.418021,1236.374 739.692021,1236.374 C737.244021,1236.374 734.932021,1235.354 733.606021,1233.586 L733.606021,1242.12 L730.988021,1242.12 L730.988021,1219.442 L733.436021,1219.442 L733.436021,1222.094 C734.728021,1220.19 737.074021,1219.068 739.692021,1219.068 Z M739.318021,1233.96 C742.684021,1233.96 745.200021,1231.342 745.200021,1227.738 C745.200021,1224.134 742.718021,1221.482 739.318021,1221.482 C736.462021,1221.482 733.572021,1223.352 733.572021,1227.704 C733.572021,1232.056 736.428021,1233.96 739.318021,1233.96 Z M760.016701,1219.068 C763.892701,1219.068 766.136701,1221.754 766.136701,1225.596 L766.136701,1236 L763.518701,1236 L763.518701,1225.936 C763.518701,1223.318 761.954701,1221.482 759.404701,1221.482 C756.854701,1221.482 755.052701,1223.352 755.052701,1225.936 L755.052701,1236 L752.434701,1236 L752.434701,1210.5 L755.052701,1210.5 L755.052701,1221.312 C756.140701,1219.918 757.874701,1219.068 760.016701,1219.068 Z M772.963382,1211.214 C774.017382,1211.214 774.901382,1212.064 774.901382,1213.118 C774.901382,1214.206 774.017382,1215.022 772.963382,1215.022 C771.841382,1215.022 770.991382,1214.206 770.991382,1213.118 C770.991382,1212.064 771.841382,1211.214 772.963382,1211.214 Z M774.255382,1219.442 L774.255382,1236 L771.637382,1236 L771.637382,1219.442 L774.255382,1219.442 Z M787.440063,1219.068 C790.432063,1219.068 792.812063,1220.496 794.274063,1222.672 L792.404063,1224.168 C791.180063,1222.536 789.616063,1221.482 787.474063,1221.482 C784.006063,1221.482 781.456063,1224.236 781.456063,1227.704 C781.456063,1231.206 784.006063,1233.96 787.474063,1233.96 C789.582063,1233.96 791.146063,1232.94 792.370063,1231.308 L794.240063,1232.77 C792.778063,1234.946 790.398063,1236.374 787.440063,1236.374 C782.612063,1236.374 778.770063,1232.566 778.770063,1227.704 C778.770063,1222.876 782.612063,1219.068 787.440063,1219.068 Z M813.129424,1219.068 C815.509424,1219.068 817.379424,1220.088 818.671424,1221.686 L817.073424,1223.318 C815.985424,1222.196 814.557424,1221.482 812.993424,1221.482 C811.429424,1221.482 810.239424,1222.196 810.239424,1223.556 C810.239424,1224.678 811.089424,1225.222 812.925424,1225.97 L814.455424,1226.616 C817.447424,1227.874 818.841424,1229.166 818.841424,1231.512 C818.841424,1234.742 816.087424,1236.374 813.027424,1236.374 C810.103424,1236.374 807.893424,1234.912 806.567424,1233.144 L808.233424,1231.41 C809.593424,1232.838 810.987424,1233.96 812.993424,1233.96 C814.727424,1233.96 816.155424,1233.11 816.155424,1231.614 C816.155424,1230.186 814.931424,1229.642 813.265424,1228.962 L811.667424,1228.282 C809.151424,1227.228 807.553424,1226.072 807.553424,1223.692 C807.553424,1220.7 810.103424,1219.068 813.129424,1219.068 Z M835.290104,1219.442 L838.078104,1219.442 L829.918104,1238.312 C828.626104,1241.27 826.824104,1242.494 824.308104,1242.494 C823.492104,1242.494 822.540104,1242.358 821.758104,1242.154 L821.758104,1239.944 C822.540104,1240.046 823.186104,1240.114 823.764104,1240.114 C825.362104,1240.114 826.586104,1239.57 827.504104,1237.462 L828.388104,1235.456 L821.520104,1219.442 L824.342104,1219.442 L829.816104,1232.634 L835.290104,1219.442 Z M849.358785,1219.068 C853.268785,1219.068 855.512785,1221.754 855.512785,1225.596 L855.512785,1236 L852.894785,1236 L852.894785,1225.902 C852.894785,1223.284 851.330785,1221.482 848.780785,1221.482 C846.230785,1221.482 844.428785,1223.318 844.428785,1225.902 L844.428785,1236 L841.810785,1236 L841.810785,1219.442 L844.258785,1219.442 L844.258785,1221.244 C845.414785,1219.884 847.216785,1219.068 849.358785,1219.068 Z M868.493465,1219.068 C871.485465,1219.068 873.865465,1220.496 875.327465,1222.672 L873.457465,1224.168 C872.233465,1222.536 870.669465,1221.482 868.527465,1221.482 C865.059465,1221.482 862.509465,1224.236 862.509465,1227.704 C862.509465,1231.206 865.059465,1233.96 868.527465,1233.96 C870.635465,1233.96 872.199465,1232.94 873.423465,1231.308 L875.293465,1232.77 C873.831465,1234.946 871.451465,1236.374 868.493465,1236.374 C863.665465,1236.374 859.823465,1232.566 859.823465,1227.704 C859.823465,1222.876 863.665465,1219.068 868.493465,1219.068 Z M887.288146,1219.068 C891.164146,1219.068 893.408146,1221.754 893.408146,1225.596 L893.408146,1236 L890.790146,1236 L890.790146,1225.936 C890.790146,1223.318 889.226146,1221.482 886.676146,1221.482 C884.126146,1221.482 882.324146,1223.352 882.324146,1225.936 L882.324146,1236 L879.706146,1236 L879.706146,1210.5 L882.324146,1210.5 L882.324146,1221.312 C883.412146,1219.918 885.146146,1219.068 887.288146,1219.068 Z M906.490826,1219.306 C907.034826,1219.306 907.374826,1219.374 907.714826,1219.442 L907.714826,1221.754 L906.728826,1221.754 C904.042826,1221.754 901.526826,1223.454 901.526826,1226.616 L901.526826,1236 L898.908826,1236 L898.908826,1219.442 L901.356826,1219.442 L901.356826,1221.822 C902.580826,1220.19 904.518826,1219.306 906.490826,1219.306 Z M918.315507,1219.068 C923.109507,1219.068 926.985507,1222.842 926.985507,1227.704 C926.985507,1232.532 923.109507,1236.34 918.281507,1236.34 C913.487507,1236.306 909.645507,1232.566 909.645507,1227.704 C909.645507,1222.842 913.453507,1219.068 918.315507,1219.068 Z M918.315507,1221.482 C914.847507,1221.482 912.297507,1224.202 912.331507,1227.738 C912.331507,1231.24 914.847507,1233.926 918.281507,1233.926 C921.715507,1233.926 924.299507,1231.206 924.299507,1227.738 C924.299507,1224.168 921.715507,1221.482 918.315507,1221.482 Z M939.082188,1219.068 C942.992188,1219.068 945.236188,1221.754 945.236188,1225.596 L945.236188,1236 L942.618188,1236 L942.618188,1225.902 C942.618188,1223.284 941.054188,1221.482 938.504188,1221.482 C935.954188,1221.482 934.152188,1223.318 934.152188,1225.902 L934.152188,1236 L931.534188,1236 L931.534188,1219.442 L933.982188,1219.442 L933.982188,1221.244 C935.138188,1219.884 936.940188,1219.068 939.082188,1219.068 Z M952.062868,1211.214 C953.116868,1211.214 954.000868,1212.064 954.000868,1213.118 C954.000868,1214.206 953.116868,1215.022 952.062868,1215.022 C950.940868,1215.022 950.090868,1214.206 950.090868,1213.118 C950.090868,1212.064 950.940868,1211.214 952.062868,1211.214 Z M953.354868,1219.442 L953.354868,1236 L950.736868,1236 L950.736868,1219.442 L953.354868,1219.442 Z M961.099549,1233.688 L970.687549,1233.688 L970.687549,1236 L957.087549,1236 L957.087549,1235.218 L966.539549,1221.788 L957.869549,1221.788 L957.869549,1219.442 L970.585549,1219.442 L970.585549,1220.224 L961.099549,1233.688 Z M980.404229,1219.068 C984.178229,1219.068 986.864229,1221.346 986.864229,1225.8 L986.864229,1236 L984.416229,1236 L984.416229,1233.858 C983.226229,1235.456 981.288229,1236.374 978.840229,1236.374 C975.508229,1236.374 973.060229,1234.606 973.060229,1231.716 C973.060229,1228.928 975.406229,1227.092 979.010229,1227.092 L984.246229,1227.092 L984.246229,1225.664 C984.246229,1222.876 982.682229,1221.482 980.234229,1221.482 C978.160229,1221.482 976.698229,1222.468 975.406229,1224.134 L973.672229,1222.706 C975.236229,1220.19 977.752229,1219.068 980.404229,1219.068 Z M979.180229,1234.198 C981.900229,1234.198 984.246229,1232.226 984.246229,1229.642 L984.246229,1229.234 L979.316229,1229.234 C977.004229,1229.234 975.746229,1230.016 975.746229,1231.58 C975.746229,1233.348 977.344229,1234.198 979.180229,1234.198 Z M999.19891,1233.994 C999.84491,1233.994 1000.55891,1233.926 1001.40891,1233.79 L1001.40891,1236 C1000.55891,1236.204 999.70891,1236.374 998.65491,1236.374 C995.39091,1236.374 993.07891,1234.776 993.07891,1231.002 L993.07891,1221.788 L990.29091,1221.788 L990.29091,1219.442 L993.07891,1219.442 L993.07891,1214.92 L995.69691,1214.92 L995.69691,1219.442 L1000.86491,1219.442 L1000.86491,1221.788 L995.69691,1221.788 L995.69691,1230.832 C995.69691,1233.314 997.12491,1233.994 999.19891,1233.994 Z M1006.60359,1211.214 C1007.65759,1211.214 1008.54159,1212.064 1008.54159,1213.118 C1008.54159,1214.206 1007.65759,1215.022 1006.60359,1215.022 C1005.48159,1215.022 1004.63159,1214.206 1004.63159,1213.118 C1004.63159,1212.064 1005.48159,1211.214 1006.60359,1211.214 Z M1007.89559,1219.442 L1007.89559,1236 L1005.27759,1236 L1005.27759,1219.442 L1007.89559,1219.442 Z M1021.08027,1219.068 C1025.87427,1219.068 1029.75027,1222.842 1029.75027,1227.704 C1029.75027,1232.532 1025.87427,1236.34 1021.04627,1236.34 C1016.25227,1236.306 1012.41027,1232.566 1012.41027,1227.704 C1012.41027,1222.842 1016.21827,1219.068 1021.08027,1219.068 Z M1021.08027,1221.482 C1017.61227,1221.482 1015.06227,1224.202 1015.09627,1227.738 C1015.09627,1231.24 1017.61227,1233.926 1021.04627,1233.926 C1024.48027,1233.926 1027.06427,1231.206 1027.06427,1227.738 C1027.06427,1224.168 1024.48027,1221.482 1021.08027,1221.482 Z M1041.84695,1219.068 C1045.75695,1219.068 1048.00095,1221.754 1048.00095,1225.596 L1048.00095,1236 L1045.38295,1236 L1045.38295,1225.902 C1045.38295,1223.284 1043.81895,1221.482 1041.26895,1221.482 C1038.71895,1221.482 1036.91695,1223.318 1036.91695,1225.902 L1036.91695,1236 L1034.29895,1236 L1034.29895,1219.442 L1036.74695,1219.442 L1036.74695,1221.244 C1037.90295,1219.884 1039.70495,1219.068 1041.84695,1219.068 Z M411.827069,1260.068 C415.601069,1260.068 418.287069,1262.346 418.287069,1266.8 L418.287069,1277 L415.839069,1277 L415.839069,1274.858 C414.649069,1276.456 412.711069,1277.374 410.263069,1277.374 C406.931069,1277.374 404.483069,1275.606 404.483069,1272.716 C404.483069,1269.928 406.829069,1268.092 410.433069,1268.092 L415.669069,1268.092 L415.669069,1266.664 C415.669069,1263.876 414.105069,1262.482 411.657069,1262.482 C409.583069,1262.482 408.121069,1263.468 406.829069,1265.134 L405.095069,1263.706 C406.659069,1261.19 409.175069,1260.068 411.827069,1260.068 Z M410.603069,1275.198 C413.323069,1275.198 415.669069,1273.226 415.669069,1270.642 L415.669069,1270.234 L410.739069,1270.234 C408.427069,1270.234 407.169069,1271.016 407.169069,1272.58 C407.169069,1274.348 408.767069,1275.198 410.603069,1275.198 Z M431.33575,1260.068 C435.24575,1260.068 437.48975,1262.754 437.48975,1266.596 L437.48975,1277 L434.87175,1277 L434.87175,1266.902 C434.87175,1264.284 433.30775,1262.482 430.75775,1262.482 C428.20775,1262.482 426.40575,1264.318 426.40575,1266.902 L426.40575,1277 L423.78775,1277 L423.78775,1260.442 L426.23575,1260.442 L426.23575,1262.244 C427.39175,1260.884 429.19375,1260.068 431.33575,1260.068 Z M444.31643,1252.214 C445.37043,1252.214 446.25443,1253.064 446.25443,1254.118 C446.25443,1255.206 445.37043,1256.022 444.31643,1256.022 C443.19443,1256.022 442.34443,1255.206 442.34443,1254.118 C442.34443,1253.064 443.19443,1252.214 444.31643,1252.214 Z M445.60843,1260.442 L445.60843,1277 L442.99043,1277 L442.99043,1260.442 L445.60843,1260.442 Z M469.469111,1260.068 C473.345111,1260.068 475.487111,1262.754 475.487111,1266.596 L475.487111,1277 L472.869111,1277 L472.869111,1266.936 C472.869111,1264.318 471.441111,1262.482 468.959111,1262.482 C466.443111,1262.482 464.709111,1264.386 464.709111,1266.698 L464.709111,1277 L462.091111,1277 L462.091111,1266.936 C462.091111,1264.318 460.595111,1262.482 458.147111,1262.482 C455.631111,1262.482 453.931111,1264.318 453.931111,1266.936 L453.931111,1277 L451.313111,1277 L451.313111,1260.442 L453.761111,1260.442 L453.761111,1262.176 C454.917111,1260.85 456.617111,1260.068 458.691111,1260.068 C461.173111,1260.068 462.873111,1261.19 463.791111,1262.924 C464.947111,1261.258 466.919111,1260.068 469.469111,1260.068 Z M486.937792,1260.068 C490.711792,1260.068 493.397792,1262.346 493.397792,1266.8 L493.397792,1277 L490.949792,1277 L490.949792,1274.858 C489.759792,1276.456 487.821792,1277.374 485.373792,1277.374 C482.041792,1277.374 479.593792,1275.606 479.593792,1272.716 C479.593792,1269.928 481.939792,1268.092 485.543792,1268.092 L490.779792,1268.092 L490.779792,1266.664 C490.779792,1263.876 489.215792,1262.482 486.767792,1262.482 C484.693792,1262.482 483.231792,1263.468 481.939792,1265.134 L480.205792,1263.706 C481.769792,1261.19 484.285792,1260.068 486.937792,1260.068 Z M485.713792,1275.198 C488.433792,1275.198 490.779792,1273.226 490.779792,1270.642 L490.779792,1270.234 L485.849792,1270.234 C483.537792,1270.234 482.279792,1271.016 482.279792,1272.58 C482.279792,1274.348 483.877792,1275.198 485.713792,1275.198 Z M505.732472,1274.994 C506.378472,1274.994 507.092472,1274.926 507.942472,1274.79 L507.942472,1277 C507.092472,1277.204 506.242472,1277.374 505.188472,1277.374 C501.924472,1277.374 499.612472,1275.776 499.612472,1272.002 L499.612472,1262.788 L496.824472,1262.788 L496.824472,1260.442 L499.612472,1260.442 L499.612472,1255.92 L502.230472,1255.92 L502.230472,1260.442 L507.398472,1260.442 L507.398472,1262.788 L502.230472,1262.788 L502.230472,1271.832 C502.230472,1274.314 503.658472,1274.994 505.732472,1274.994 Z M526.295153,1267.548 C526.295153,1268.432 526.159153,1269.214 526.091153,1269.52 L513.035153,1269.52 C513.375153,1272.818 515.823153,1274.96 519.087153,1274.96 C521.161153,1274.96 522.793153,1274.076 524.153153,1272.716 L525.683153,1274.484 C524.017153,1276.252 521.773153,1277.374 519.053153,1277.374 C514.055153,1277.374 510.281153,1273.6 510.281153,1268.738 C510.281153,1263.91 513.987153,1260.068 518.747153,1260.068 C522.997153,1260.068 526.295153,1263.128 526.295153,1267.548 Z M518.679153,1262.448 C515.891153,1262.448 513.681153,1264.352 513.137153,1267.208 L523.609153,1267.208 C523.575153,1264.148 521.331153,1262.448 518.679153,1262.448 Z M543.967833,1251.5 L546.585833,1251.5 L546.585833,1277 L544.103833,1277 L544.103833,1274.348 C542.811833,1276.252 540.465833,1277.374 537.847833,1277.374 C533.121833,1277.374 529.653833,1273.6 529.653833,1268.738 C529.653833,1263.842 533.121833,1260.068 537.847833,1260.068 C540.363833,1260.068 542.641833,1261.122 543.967833,1262.89 L543.967833,1251.5 Z M538.221833,1274.96 C541.077833,1274.96 544.001833,1273.09 544.001833,1268.738 C544.001833,1264.386 541.077833,1262.482 538.221833,1262.482 C534.855833,1262.482 532.339833,1265.1 532.339833,1268.704 C532.339833,1272.308 534.821833,1274.96 538.221833,1274.96 Z M568.603194,1274.994 C569.249194,1274.994 569.963194,1274.926 570.813194,1274.79 L570.813194,1277 C569.963194,1277.204 569.113194,1277.374 568.059194,1277.374 C564.795194,1277.374 562.483194,1275.776 562.483194,1272.002 L562.483194,1262.788 L559.695194,1262.788 L559.695194,1260.442 L562.483194,1260.442 L562.483194,1255.92 L565.101194,1255.92 L565.101194,1260.442 L570.269194,1260.442 L570.269194,1262.788 L565.101194,1262.788 L565.101194,1271.832 C565.101194,1274.314 566.529194,1274.994 568.603194,1274.994 Z M582.263875,1260.068 C586.139875,1260.068 588.383875,1262.754 588.383875,1266.596 L588.383875,1277 L585.765875,1277 L585.765875,1266.936 C585.765875,1264.318 584.201875,1262.482 581.651875,1262.482 C579.101875,1262.482 577.299875,1264.352 577.299875,1266.936 L577.299875,1277 L574.681875,1277 L574.681875,1251.5 L577.299875,1251.5 L577.299875,1262.312 C578.387875,1260.918 580.121875,1260.068 582.263875,1260.068 Z M608.708556,1267.548 C608.708556,1268.432 608.572556,1269.214 608.504556,1269.52 L595.448556,1269.52 C595.788556,1272.818 598.236556,1274.96 601.500556,1274.96 C603.574556,1274.96 605.206556,1274.076 606.566556,1272.716 L608.096556,1274.484 C606.430556,1276.252 604.186556,1277.374 601.466556,1277.374 C596.468556,1277.374 592.694556,1273.6 592.694556,1268.738 C592.694556,1263.91 596.400556,1260.068 601.160556,1260.068 C605.410556,1260.068 608.708556,1263.128 608.708556,1267.548 Z M601.092556,1262.448 C598.304556,1262.448 596.094556,1264.352 595.550556,1267.208 L606.022556,1267.208 C605.988556,1264.148 603.744556,1262.448 601.092556,1262.448 Z M625.353917,1251.5 L625.353917,1277 L622.735917,1277 L622.735917,1251.5 L625.353917,1251.5 Z M638.538597,1260.068 C643.332597,1260.068 647.208597,1263.842 647.208597,1268.704 C647.208597,1273.532 643.332597,1277.34 638.504597,1277.34 C633.710597,1277.306 629.868597,1273.566 629.868597,1268.704 C629.868597,1263.842 633.676597,1260.068 638.538597,1260.068 Z M638.538597,1262.482 C635.070597,1262.482 632.520597,1265.202 632.554597,1268.738 C632.554597,1272.24 635.070597,1274.926 638.504597,1274.926 C641.938597,1274.926 644.522597,1272.206 644.522597,1268.738 C644.522597,1265.168 641.938597,1262.482 638.538597,1262.482 Z M665.187278,1260.442 L667.669278,1260.442 L667.669278,1275.402 C667.669278,1280.502 664.439278,1283.494 659.611278,1283.494 C656.143278,1283.494 653.457278,1281.93 651.825278,1280.298 L653.355278,1278.462 C654.953278,1279.856 656.823278,1281.08 659.543278,1281.08 C662.909278,1281.08 665.051278,1279.21 665.051278,1275.538 L665.051278,1274.076 C663.691278,1275.81 661.379278,1276.83 658.897278,1276.83 C654.239278,1276.83 650.771278,1273.294 650.771278,1268.466 C650.771278,1263.672 654.239278,1260.068 658.897278,1260.068 C661.515278,1260.068 663.895278,1261.224 665.187278,1263.128 L665.187278,1260.442 Z M659.305278,1274.416 C662.195278,1274.416 665.085278,1272.614 665.085278,1268.466 C665.085278,1264.318 662.161278,1262.55 659.305278,1262.55 C655.939278,1262.55 653.423278,1264.998 653.423278,1268.5 C653.423278,1272.002 655.939278,1274.416 659.305278,1274.416 Z M680.853958,1260.068 C685.647958,1260.068 689.523958,1263.842 689.523958,1268.704 C689.523958,1273.532 685.647958,1277.34 680.819958,1277.34 C676.025958,1277.306 672.183958,1273.566 672.183958,1268.704 C672.183958,1263.842 675.991958,1260.068 680.853958,1260.068 Z M680.853958,1262.482 C677.385958,1262.482 674.835958,1265.202 674.869958,1268.738 C674.869958,1272.24 677.385958,1274.926 680.819958,1274.926 C684.253958,1274.926 686.837958,1272.206 686.837958,1268.738 C686.837958,1265.168 684.253958,1262.482 680.853958,1262.482 Z M710.045319,1253.506 C708.005319,1253.506 706.577319,1254.186 706.577319,1256.668 L706.577319,1260.442 L710.725319,1260.442 L710.725319,1262.788 L706.577319,1262.788 L706.577319,1277 L703.959319,1277 L703.959319,1262.788 L701.579319,1262.788 L701.579319,1260.442 L703.959319,1260.442 L703.959319,1256.498 C703.959319,1252.724 706.237319,1251.126 709.433319,1251.126 C710.249319,1251.126 710.895319,1251.228 711.507319,1251.398 L711.507319,1253.608 C710.963319,1253.54 710.487319,1253.506 710.045319,1253.506 Z M721.292,1260.068 C726.086,1260.068 729.962,1263.842 729.962,1268.704 C729.962,1273.532 726.086,1277.34 721.258,1277.34 C716.464,1277.306 712.622,1273.566 712.622,1268.704 C712.622,1263.842 716.43,1260.068 721.292,1260.068 Z M721.292,1262.482 C717.824,1262.482 715.274,1265.202 715.308,1268.738 C715.308,1272.24 717.824,1274.926 721.258,1274.926 C724.692,1274.926 727.276,1272.206 727.276,1268.738 C727.276,1265.168 724.692,1262.482 721.292,1262.482 Z M742.092681,1260.306 C742.636681,1260.306 742.976681,1260.374 743.316681,1260.442 L743.316681,1262.754 L742.330681,1262.754 C739.644681,1262.754 737.128681,1264.454 737.128681,1267.616 L737.128681,1277 L734.510681,1277 L734.510681,1260.442 L736.958681,1260.442 L736.958681,1262.822 C738.182681,1261.19 740.120681,1260.306 742.092681,1260.306 Z M763.090042,1274.994 C763.736042,1274.994 764.450042,1274.926 765.300042,1274.79 L765.300042,1277 C764.450042,1277.204 763.600042,1277.374 762.546042,1277.374 C759.282042,1277.374 756.970042,1275.776 756.970042,1272.002 L756.970042,1262.788 L754.182042,1262.788 L754.182042,1260.442 L756.970042,1260.442 L756.970042,1255.92 L759.588042,1255.92 L759.588042,1260.442 L764.756042,1260.442 L764.756042,1262.788 L759.588042,1262.788 L759.588042,1271.832 C759.588042,1274.314 761.016042,1274.994 763.090042,1274.994 Z M776.750722,1260.068 C780.626722,1260.068 782.870722,1262.754 782.870722,1266.596 L782.870722,1277 L780.252722,1277 L780.252722,1266.936 C780.252722,1264.318 778.688722,1262.482 776.138722,1262.482 C773.588722,1262.482 771.786722,1264.352 771.786722,1266.936 L771.786722,1277 L769.168722,1277 L769.168722,1251.5 L771.786722,1251.5 L771.786722,1262.312 C772.874722,1260.918 774.608722,1260.068 776.750722,1260.068 Z M803.195403,1267.548 C803.195403,1268.432 803.059403,1269.214 802.991403,1269.52 L789.935403,1269.52 C790.275403,1272.818 792.723403,1274.96 795.987403,1274.96 C798.061403,1274.96 799.693403,1274.076 801.053403,1272.716 L802.583403,1274.484 C800.917403,1276.252 798.673403,1277.374 795.953403,1277.374 C790.955403,1277.374 787.181403,1273.6 787.181403,1268.738 C787.181403,1263.91 790.887403,1260.068 795.647403,1260.068 C799.897403,1260.068 803.195403,1263.128 803.195403,1267.548 Z M795.579403,1262.448 C792.791403,1262.448 790.581403,1264.352 790.037403,1267.208 L800.509403,1267.208 C800.475403,1264.148 798.231403,1262.448 795.579403,1262.448 Z M823.716764,1253.506 C821.676764,1253.506 820.248764,1254.186 820.248764,1256.668 L820.248764,1260.442 L824.396764,1260.442 L824.396764,1262.788 L820.248764,1262.788 L820.248764,1277 L817.630764,1277 L817.630764,1262.788 L815.250764,1262.788 L815.250764,1260.442 L817.630764,1260.442 L817.630764,1256.498 C817.630764,1252.724 819.908764,1251.126 823.104764,1251.126 C823.920764,1251.126 824.566764,1251.228 825.178764,1251.398 L825.178764,1253.608 C824.634764,1253.54 824.158764,1253.506 823.716764,1253.506 Z M829.319444,1252.214 C830.373444,1252.214 831.257444,1253.064 831.257444,1254.118 C831.257444,1255.206 830.373444,1256.022 829.319444,1256.022 C828.197444,1256.022 827.347444,1255.206 827.347444,1254.118 C827.347444,1253.064 828.197444,1252.214 829.319444,1252.214 Z M830.611444,1260.442 L830.611444,1277 L827.993444,1277 L827.993444,1260.442 L830.611444,1260.442 Z M838.934125,1251.5 L838.934125,1277 L836.316125,1277 L836.316125,1251.5 L838.934125,1251.5 Z M862.794806,1260.068 C866.670806,1260.068 868.812806,1262.754 868.812806,1266.596 L868.812806,1277 L866.194806,1277 L866.194806,1266.936 C866.194806,1264.318 864.766806,1262.482 862.284806,1262.482 C859.768806,1262.482 858.034806,1264.386 858.034806,1266.698 L858.034806,1277 L855.416806,1277 L855.416806,1266.936 C855.416806,1264.318 853.920806,1262.482 851.472806,1262.482 C848.956806,1262.482 847.256806,1264.318 847.256806,1266.936 L847.256806,1277 L844.638806,1277 L844.638806,1260.442 L847.086806,1260.442 L847.086806,1262.176 C848.242806,1260.85 849.942806,1260.068 852.016806,1260.068 C854.498806,1260.068 856.198806,1261.19 857.116806,1262.924 C858.272806,1261.258 860.244806,1260.068 862.794806,1260.068 Z M903.716167,1254.186 L904.634167,1254.186 L904.634167,1277 L901.982167,1277 L901.982167,1260.884 L894.808167,1270.642 L893.856167,1270.642 L886.648167,1260.85 L886.648167,1277 L883.996167,1277 L883.996167,1254.186 L884.948167,1254.186 L894.298167,1267.174 L903.716167,1254.186 Z M911.732847,1252.214 C912.786847,1252.214 913.670847,1253.064 913.670847,1254.118 C913.670847,1255.206 912.786847,1256.022 911.732847,1256.022 C910.610847,1256.022 909.760847,1255.206 909.760847,1254.118 C909.760847,1253.064 910.610847,1252.214 911.732847,1252.214 Z M913.024847,1260.442 L913.024847,1277 L910.406847,1277 L910.406847,1260.442 L913.024847,1260.442 Z M931.853528,1251.5 L934.471528,1251.5 L934.471528,1277 L931.989528,1277 L931.989528,1274.348 C930.697528,1276.252 928.351528,1277.374 925.733528,1277.374 C921.007528,1277.374 917.539528,1273.6 917.539528,1268.738 C917.539528,1263.842 921.007528,1260.068 925.733528,1260.068 C928.249528,1260.068 930.527528,1261.122 931.853528,1262.89 L931.853528,1251.5 Z M926.107528,1274.96 C928.963528,1274.96 931.887528,1273.09 931.887528,1268.738 C931.887528,1264.386 928.963528,1262.482 926.107528,1262.482 C922.741528,1262.482 920.225528,1265.1 920.225528,1268.704 C920.225528,1272.308 922.707528,1274.96 926.107528,1274.96 Z M946.670208,1258.504 C950.886208,1258.504 954.286208,1261.734 954.286208,1266.052 C954.286208,1268.806 953.062208,1270.506 951.192208,1273.192 L945.718208,1281.114 L942.624208,1281.114 L948.234208,1273.056 C947.656208,1273.26 947.010208,1273.362 946.296208,1273.362 C942.352208,1273.362 938.986208,1270.2 938.986208,1266.052 C938.986208,1261.734 942.420208,1258.504 946.670208,1258.504 Z M946.636208,1271.152 C949.526208,1271.152 951.668208,1268.908 951.668208,1266.018 C951.668208,1263.094 949.526208,1260.884 946.636208,1260.884 C943.814208,1260.884 941.604208,1263.094 941.604208,1266.018 C941.604208,1268.908 943.814208,1271.152 946.636208,1271.152 Z M967.232889,1258.504 C972.536889,1258.504 976.820889,1262.686 976.820889,1267.956 C976.820889,1273.226 972.536889,1277.408 967.198889,1277.408 C961.894889,1277.408 957.678889,1273.226 957.678889,1267.956 C957.678889,1262.686 961.894889,1258.504 967.232889,1258.504 Z M967.232889,1260.918 C963.254889,1260.918 960.398889,1263.978 960.398889,1267.956 C960.398889,1271.9 963.254889,1274.994 967.232889,1274.994 C971.176889,1274.994 974.100889,1271.9 974.100889,1267.956 C974.100889,1263.978 971.176889,1260.918 967.232889,1260.918 Z M986.36757,1260.068 C988.74757,1260.068 990.61757,1261.088 991.90957,1262.686 L990.31157,1264.318 C989.22357,1263.196 987.79557,1262.482 986.23157,1262.482 C984.66757,1262.482 983.47757,1263.196 983.47757,1264.556 C983.47757,1265.678 984.32757,1266.222 986.16357,1266.97 L987.69357,1267.616 C990.68557,1268.874 992.07957,1270.166 992.07957,1272.512 C992.07957,1275.742 989.32557,1277.374 986.26557,1277.374 C983.34157,1277.374 981.13157,1275.912 979.80557,1274.144 L981.47157,1272.41 C982.83157,1273.838 984.22557,1274.96 986.23157,1274.96 C987.96557,1274.96 989.39357,1274.11 989.39357,1272.614 C989.39357,1271.186 988.16957,1270.642 986.50357,1269.962 L984.90557,1269.282 C982.38957,1268.228 980.79157,1267.072 980.79157,1264.692 C980.79157,1261.7 983.34157,1260.068 986.36757,1260.068 Z M998.46425,1273.09 C999.62025,1273.09 1000.60625,1273.974 1000.60625,1275.232 C1000.60625,1276.49 999.62025,1277.374 998.46425,1277.374 C997.30825,1277.374 996.32225,1276.49 996.32225,1275.232 C996.32225,1273.974 997.30825,1273.09 998.46425,1273.09 Z" id="Thisstudyonaudio/graphicsynchronizationanimatedthelogoforthefilmMid90s."></path>
        </g>
    </g>
</svg>