<?xml version="1.0" encoding="UTF-8"?>
<svg width="197px" height="53px" viewBox="0 0 197 53" version="1.1" xmlns="http://www.w3.org/2000/svg" xmlns:xlink="http://www.w3.org/1999/xlink">
    <!-- Generator: Sketch 53.2 (72643) - https://sketchapp.com -->
    <title>About</title>
    <desc>Created with Sketch.</desc>
    <defs>
        <linearGradient x1="74.000038%" y1="48.4002997%" x2="-16.1444198%" y2="55.2896315%" id="linearGradient-1">
            <stop stop-color="#FA8561" offset="0%"></stop>
            <stop stop-color="#D31CF7" offset="100%"></stop>
        </linearGradient>
    </defs>
    <g id="Page-1" stroke="none" stroke-width="1" fill="none" fill-rule="evenodd">
        <g id="Desktop-HD-Copy-37" transform="translate(-621.000000, -662.000000)" fill="url(#linearGradient-1)" fill-rule="nonzero">
            <path d="M654.795,714 L652.242,708.066 L633.612,708.066 L631.059,714 L621.054,714 L641.409,667.632 L644.514,667.632 L664.8,714 L654.795,714 Z M648.93,700.407 L642.927,685.089 L636.924,700.407 L648.93,700.407 Z M689.916,679.086 C699.576,679.086 706.476,686.676 706.476,696.957 C706.476,707.238 699.576,714.828 689.916,714.828 C685.224,714.828 681.291,712.965 678.945,709.722 L678.945,714 L670.389,714 L670.389,662.25 L679.704,662.25 L679.704,683.157 C682.05,680.535 685.638,679.086 689.916,679.086 Z M688.191,706.341 C693.09,706.341 697.023,702.684 697.023,696.888 C697.023,691.092 693.021,687.504 688.191,687.504 C683.844,687.504 679.566,690.471 679.566,696.957 C679.566,703.512 683.913,706.341 688.191,706.341 Z M730.143,679.086 C740.217,679.086 748.497,686.814 748.497,696.888 C748.497,707.031 740.217,714.759 730.074,714.759 C719.931,714.759 711.858,707.031 711.858,696.888 C711.858,686.814 719.931,679.086 730.143,679.086 Z M730.143,687.573 C724.968,687.573 721.311,691.575 721.311,696.957 C721.311,702.339 724.968,706.203 730.143,706.203 C735.18,706.203 738.975,702.27 738.975,696.957 C738.975,691.575 735.18,687.573 730.143,687.573 Z M786.861,679.845 L786.861,698.958 C786.861,708.618 780.099,714.828 771.198,714.828 C762.159,714.828 755.397,708.618 755.397,698.958 L755.397,679.845 L764.712,679.845 L764.712,699.717 C764.712,703.719 767.541,706.272 771.198,706.272 C774.717,706.272 777.546,703.719 777.546,699.717 L777.546,679.845 L786.861,679.845 Z M813.288,706.479 C814.392,706.479 815.91,706.341 817.704,706.203 L817.704,714 C815.772,714.483 813.702,714.828 811.287,714.828 C802.869,714.828 797.625,710.757 797.625,701.994 L797.625,687.711 L792.243,687.711 L792.243,679.845 L797.625,679.845 L797.625,671.22 L806.94,671.22 L806.94,679.845 L816.6,679.845 L816.6,687.711 L806.94,687.711 L806.94,701.166 C806.94,705.099 809.01,706.479 813.288,706.479 Z" id="About"></path>
        </g>
    </g>
</svg>