<?xml version="1.0" encoding="UTF-8"?>
<svg width="50px" height="11px" viewBox="0 0 50 11" version="1.1" xmlns="http://www.w3.org/2000/svg" xmlns:xlink="http://www.w3.org/1999/xlink">
    <!-- Generator: Sketch 51.2 (57519) - http://www.bohemiancoding.com/sketch -->
    <title>AboutActive</title>
    <desc>Created with Sketch.</desc>
    <defs>
        <linearGradient x1="74.000038%" y1="27.6221471%" x2="-16.1444198%" y2="123.99548%" id="linearGradient-1">
            <stop stop-color="#FA8561" offset="0%"></stop>
            <stop stop-color="#D31CF7" offset="100%"></stop>
        </linearGradient>
    </defs>
    <g id="Page-1" stroke="none" stroke-width="1" fill="none" fill-rule="evenodd">
        <g id="Desktop-HD-Copy-13" transform="translate(-691.000000, -108.000000)" fill="url(#linearGradient-1)">
            <path d="M698.824,118.753197 L698.232,117.377197 L693.912,117.377197 L693.32,118.753197 L691,118.753197 L695.72,108.001197 L696.44,108.001197 L701.144,118.753197 L698.824,118.753197 Z M697.48,115.601197 L696.072,112.033197 L694.664,115.601197 L697.48,115.601197 Z M709.91,115.649197 C709.91,117.473197 708.47,118.753197 706.438,118.753197 L701.734,118.753197 L701.734,108.193197 L705.478,108.193197 C707.43,108.193197 708.822,109.409197 708.822,111.137197 C708.822,111.905197 708.566,112.545197 708.038,113.041197 C709.206,113.473197 709.91,114.369197 709.91,115.649197 Z M705.302,110.049197 L703.814,110.049197 L703.814,112.465197 L705.302,112.465197 C706.182,112.465197 706.678,112.001197 706.678,111.249197 C706.678,110.497197 706.182,110.049197 705.302,110.049197 Z M707.782,115.569197 C707.782,114.753197 707.222,114.241197 706.278,114.241197 L703.814,114.241197 L703.814,116.897197 L706.278,116.897197 C707.222,116.897197 707.782,116.401197 707.782,115.569197 Z M710.212,113.473197 C710.164,110.449197 712.772,107.937197 715.812,108.001197 C718.852,107.937197 721.492,110.449197 721.444,113.473197 C721.492,116.497197 718.852,119.009197 715.812,118.945197 C712.772,119.009197 710.164,116.497197 710.212,113.473197 Z M719.22,113.473197 C719.22,111.473197 717.764,110.001197 715.828,110.001197 C713.876,110.001197 712.436,111.441197 712.436,113.473197 C712.436,115.505197 713.876,116.945197 715.828,116.945197 C717.764,116.945197 719.22,115.505197 719.22,113.473197 Z M722.322,114.385197 L722.322,108.193197 L724.482,108.193197 L724.482,114.545197 C724.482,116.081197 725.442,116.945197 726.802,116.945197 C728.194,116.945197 729.122,116.081197 729.122,114.545197 L729.122,108.193197 L731.282,108.193197 L731.282,114.385197 C731.282,117.185197 729.362,118.945197 726.802,118.945197 C724.21,118.945197 722.322,117.185197 722.322,114.385197 Z M735.152,118.753197 L735.152,110.145197 L731.776,110.145197 L731.776,108.193197 L740.704,108.193197 L740.704,110.145197 L737.312,110.145197 L737.312,118.753197 L735.152,118.753197 Z" id="AboutActive"></path>
        </g>
    </g>
</svg>