<svg id="Layer_1" data-name="Layer 1" xmlns="http://www.w3.org/2000/svg" viewBox="0 0 684 239"><defs><style>.cls-1{isolation:isolate;}.cls-2{fill:#404648;}</style></defs><title>Artboard 1</title><g id="Page-1"><g id="Desktop-HD-Copy-26"><g id="This-project-focused" class="cls-1"><g class="cls-1"><path class="cls-2" d="M91,9.88H80.3V5.32h26.45V9.88H96V37H91Z"/><path class="cls-2" d="M131.71,37h-5V23c0-3.26-2-5.47-5.14-5.47A5.22,5.22,0,0,0,116.16,23V37h-5V1h5V15.78A8.65,8.65,0,0,1,123,12.9c5.38,0,8.74,3.79,8.74,9.36Z"/><path class="cls-2" d="M141.21,1.29a3.38,3.38,0,0,1,3.41,3.36,3.44,3.44,0,0,1-6.87,0A3.39,3.39,0,0,1,141.21,1.29Zm-2.54,12.14h5V37h-5Z"/><path class="cls-2" d="M151.63,29.8c2.06,2.16,4.12,3.36,6.62,3.36,2.16,0,3.79-.91,3.79-2.64,0-1.39-1-2-3.31-2.93l-2.4-1c-4.18-1.73-6.14-3.55-6.14-6.86,0-4.23,3.5-6.82,8.3-6.82a10.07,10.07,0,0,1,8.16,3.65l-2.73,3.12a7.68,7.68,0,0,0-5.53-2.4c-2,0-3.21.77-3.21,2.26,0,1.2.81,1.82,3.12,2.78l2.25.91C165,25.09,167,27,167,30.33a6.36,6.36,0,0,1-2.5,5.33,10.18,10.18,0,0,1-6.24,1.87,11.85,11.85,0,0,1-9.5-4.56Z"/><path class="cls-2" d="M199.05,37.53a10.2,10.2,0,0,1-7.87-3.41V45.64h-5V13.43h4.7v3.31a9.81,9.81,0,0,1,8.21-3.84c6.67,0,11.57,5.33,11.57,12.29S205.72,37.53,199.05,37.53Zm-.82-20c-3.69,0-7.1,2.54-7.1,7.68s3.41,7.73,7.1,7.73c4,0,7.2-3.17,7.2-7.68S202.31,17.51,198.23,17.51Z"/><path class="cls-2" d="M229.87,17.89h-1.54c-4,0-6.91,2.36-6.91,6.53V37h-5V13.43h4.7V16.5A8.73,8.73,0,0,1,228,13.19a8,8,0,0,1,1.92.24Z"/><path class="cls-2" d="M244.79,12.9a12.32,12.32,0,1,1-12.43,12.29A12.33,12.33,0,0,1,244.79,12.9Zm.05,4.61a7.41,7.41,0,0,0-7.34,7.73,7.33,7.33,0,1,0,14.64,0A7.43,7.43,0,0,0,244.84,17.51Z"/><path class="cls-2" d="M256.46,41.46a15.85,15.85,0,0,0,2.06.15c3,0,4.51-1.15,4.51-4.08V13.43h5V38c0,5.52-3.16,8.21-8.35,8.21a10.73,10.73,0,0,1-3.26-.43Zm9.12-40.17A3.38,3.38,0,0,1,269,4.65a3.44,3.44,0,0,1-6.87,0A3.39,3.39,0,0,1,265.58,1.29Z"/><path class="cls-2" d="M279,26.87c.62,3.84,3.65,6.19,7.68,6.19a10.15,10.15,0,0,0,6.86-2.78l2.4,3.46a13.19,13.19,0,0,1-9.4,3.79c-7.2,0-12.68-5.33-12.68-12.29A12.16,12.16,0,0,1,286,12.9a10.6,10.6,0,0,1,10.89,10.8,15,15,0,0,1-.38,3.17Zm12.91-3.94a5.7,5.7,0,0,0-6.05-5.76,6.91,6.91,0,0,0-6.77,5.76Z"/><path class="cls-2" d="M313.62,12.9a11.25,11.25,0,0,1,9.94,5.47L320,21.16a7.5,7.5,0,0,0-6.34-3.6,7.39,7.39,0,0,0-7.39,7.63,7.4,7.4,0,0,0,7.39,7.68A7.69,7.69,0,0,0,320,29.32l3.55,2.74a11.41,11.41,0,0,1-9.94,5.47,12.32,12.32,0,1,1,0-24.63Z"/><path class="cls-2" d="M343.1,37a20.47,20.47,0,0,1-4.18.53c-5.42,0-8.69-2.69-8.69-8.21V17.8h-3.84V13.43h3.84V7.24h5.09v6.19h7V17.8h-7V28.89c0,3,1.58,4.08,4.66,4.08.72,0,1.72-.1,3.12-.24Z"/><path class="cls-2" d="M367.43,13.43H373V17.8h-5.57V37h-5V17.8H359V13.43h3.36V8.68c0-5.52,3.22-8.21,8.4-8.21a10.76,10.76,0,0,1,3.27.43V5.17A17.75,17.75,0,0,0,372,5c-3.07,0-4.61,1-4.61,4.08Z"/><path class="cls-2" d="M387.88,12.9a12.32,12.32,0,1,1-12.43,12.29A12.34,12.34,0,0,1,387.88,12.9Zm.05,4.61a7.41,7.41,0,0,0-7.35,7.73,7.33,7.33,0,1,0,14.64,0A7.42,7.42,0,0,0,387.93,17.51Z"/><path class="cls-2" d="M417.11,12.9a11.26,11.26,0,0,1,9.94,5.47l-3.55,2.79a7.51,7.51,0,0,0-6.34-3.6,7.39,7.39,0,0,0-7.39,7.63,7.4,7.4,0,0,0,7.39,7.68,7.69,7.69,0,0,0,6.34-3.55l3.55,2.74a11.42,11.42,0,0,1-9.94,5.47,12.32,12.32,0,1,1,0-24.63Z"/><path class="cls-2" d="M432.33,13.43h5V27.5a5.26,5.26,0,1,0,10.51,0V13.43h5V27.11c0,6.34-4.46,10.42-10.22,10.42s-10.32-4.08-10.32-10.42Z"/><path class="cls-2" d="M460.55,29.8c2.06,2.16,4.13,3.36,6.62,3.36,2.16,0,3.8-.91,3.8-2.64,0-1.39-1-2-3.32-2.93l-2.4-1c-4.17-1.73-6.14-3.55-6.14-6.86,0-4.23,3.5-6.82,8.3-6.82a10.11,10.11,0,0,1,8.17,3.65l-2.74,3.12a7.67,7.67,0,0,0-5.52-2.4c-2,0-3.22.77-3.22,2.26,0,1.2.82,1.82,3.12,2.78l2.26.91c4.46,1.87,6.43,3.8,6.43,7.11a6.38,6.38,0,0,1-2.49,5.33,10.23,10.23,0,0,1-6.25,1.87,11.85,11.85,0,0,1-9.5-4.56Z"/><path class="cls-2" d="M485.32,26.87c.62,3.84,3.65,6.19,7.68,6.19a10.15,10.15,0,0,0,6.86-2.78l2.4,3.46a13.2,13.2,0,0,1-9.41,3.79c-7.2,0-12.67-5.33-12.67-12.29a12.16,12.16,0,0,1,12.2-12.34,10.6,10.6,0,0,1,10.89,10.8,15,15,0,0,1-.38,3.17Zm12.91-3.94a5.7,5.7,0,0,0-6.05-5.76,6.91,6.91,0,0,0-6.77,5.76Z"/><path class="cls-2" d="M532,1V37h-4.71V33.64A9.88,9.88,0,0,1,519,37.53c-6.62,0-11.52-5.33-11.52-12.29s5-12.48,11.52-12.34a10,10,0,0,1,7.88,3.41V1Zm-12.1,16.51c-4,0-7.25,3.17-7.25,7.68s3.07,7.73,7.25,7.73c3.69,0,7.1-2.54,7.1-7.68S523.53,17.51,519.88,17.51Z"/><path class="cls-2" d="M563.56,12.9a12.32,12.32,0,1,1-12.44,12.29A12.35,12.35,0,0,1,563.56,12.9Zm.05,4.61a7.41,7.41,0,0,0-7.35,7.73,7.33,7.33,0,1,0,14.64,0A7.42,7.42,0,0,0,563.61,17.51Z"/><path class="cls-2" d="M602.39,37h-5V22.93c0-3.26-2.06-5.47-5.14-5.47a5.22,5.22,0,0,0-5.37,5.47V37h-5V13.43h4.7v2.3a9.31,9.31,0,0,1,7.06-2.83c5.52,0,8.83,3.75,8.83,9.36Z"/></g><g class="cls-1"><path class="cls-2" d="M25.35,49V85h-4.7V81.64a9.88,9.88,0,0,1-8.26,3.89C5.77,85.53.87,80.2.87,73.24s5-12.48,11.52-12.34a10,10,0,0,1,7.87,3.41V49ZM13.26,65.51c-4,0-7.25,3.17-7.25,7.68s3.07,7.73,7.25,7.73c3.69,0,7.1-2.54,7.1-7.68S16.9,65.51,13.26,65.51Z"/><path class="cls-2" d="M36.25,74.87c.62,3.84,3.65,6.19,7.68,6.19a10.15,10.15,0,0,0,6.86-2.78l2.4,3.46a13.23,13.23,0,0,1-9.41,3.79c-7.2,0-12.67-5.33-12.67-12.29A12.16,12.16,0,0,1,43.3,60.9,10.61,10.61,0,0,1,54.2,71.7a15,15,0,0,1-.38,3.17Zm12.91-3.94a5.7,5.7,0,0,0-6-5.76,6.91,6.91,0,0,0-6.77,5.76Z"/><path class="cls-2" d="M80.75,61.43,69.37,85.53H67.64L56.21,61.43h5.38L68.5,77l6.87-15.6Z"/><path class="cls-2" d="M87.94,74.87c.63,3.84,3.65,6.19,7.68,6.19a10.17,10.17,0,0,0,6.87-2.78l2.4,3.46a13.23,13.23,0,0,1-9.41,3.79c-7.2,0-12.67-5.33-12.67-12.29A12.15,12.15,0,0,1,95,60.9a10.61,10.61,0,0,1,10.9,10.8,15,15,0,0,1-.39,3.17Zm12.92-3.94a5.7,5.7,0,0,0-6-5.76A6.91,6.91,0,0,0,88,70.93Z"/><path class="cls-2" d="M111.61,49h5V85h-5Z"/><path class="cls-2" d="M134.84,60.9a12.32,12.32,0,1,1-12.43,12.29A12.35,12.35,0,0,1,134.84,60.9Zm0,4.61a7.41,7.41,0,0,0-7.35,7.73,7.33,7.33,0,1,0,14.64,0A7.42,7.42,0,0,0,134.89,65.51Z"/><path class="cls-2" d="M166,85.53a10.21,10.21,0,0,1-7.87-3.41V93.64h-5V61.43h4.7v3.31A9.83,9.83,0,0,1,166,60.9c6.67,0,11.57,5.33,11.57,12.29S172.66,85.53,166,85.53Zm-.81-20c-3.7,0-7.11,2.54-7.11,7.68s3.41,7.73,7.11,7.73c4,0,7.2-3.17,7.2-7.68S169.26,65.51,165.18,65.51Z"/><path class="cls-2" d="M185.86,49.29a3.38,3.38,0,0,1,3.41,3.36,3.43,3.43,0,0,1-6.86,0A3.38,3.38,0,0,1,185.86,49.29Zm-2.54,12.14h5V85h-5Z"/><path class="cls-2" d="M216.2,85h-5V70.93c0-3.26-2.06-5.47-5.14-5.47a5.22,5.22,0,0,0-5.37,5.47V85h-5V61.43h4.7v2.3a9.31,9.31,0,0,1,7.06-2.83c5.52,0,8.83,3.75,8.83,9.36Z"/><path class="cls-2" d="M246.3,61.43V82.55c0,7.44-4.66,11.62-11.81,11.62a16.37,16.37,0,0,1-11.33-4.47l2.78-3.5c2.64,2.11,5,3.36,8.26,3.36,4.27,0,7.06-2.3,7.06-6.72V81.16a10.18,10.18,0,0,1-8,3.36c-6.58,0-11.48-4.94-11.48-11.81s4.95-11.81,11.48-11.81a9.94,9.94,0,0,1,8.35,3.89V61.43Zm-12.1,4a7,7,0,0,0-7.2,7.3,7.24,7.24,0,0,0,2.06,5.38,7.07,7.07,0,0,0,5.14,2,7,7,0,0,0,5-1.92,7.16,7.16,0,0,0,2.11-5.52C241.3,67.86,238.09,65.41,234.2,65.41Z"/><path class="cls-2" d="M285.65,85H281V82.36a9.45,9.45,0,0,1-7.54,3.17c-4.94,0-8.2-2.74-8.2-6.82S268.56,72,273.89,72h6.68V70.46c0-3.27-1.83-5-5-5-2.64,0-4.56,1.16-6.53,3.51l-2.93-3a11.54,11.54,0,0,1,9.94-5c5.8,0,9.64,3.51,9.64,9.84Zm-5.08-9.36h-6.05c-2.69,0-4.18,1-4.18,2.88s1.68,3.12,4.13,3.12c3.41,0,6.1-2.35,6.1-5.57Z"/><path class="cls-2" d="M318.92,85.53a10.2,10.2,0,0,1-7.87-3.41V93.64H306V61.43h4.71v3.31a9.81,9.81,0,0,1,8.21-3.84c6.67,0,11.57,5.33,11.57,12.29S325.59,85.53,318.92,85.53Zm-.82-20c-3.69,0-7.1,2.54-7.1,7.68s3.41,7.73,7.1,7.73c4,0,7.2-3.17,7.2-7.68S322.18,65.51,318.1,65.51Z"/><path class="cls-2" d="M347.19,60.9a12.32,12.32,0,1,1-12.43,12.29A12.35,12.35,0,0,1,347.19,60.9Zm.05,4.61a7.41,7.41,0,0,0-7.35,7.73,7.33,7.33,0,1,0,14.64,0A7.42,7.42,0,0,0,347.24,65.51Z"/><path class="cls-2" d="M378.92,65.89h-1.54c-4,0-6.91,2.36-6.91,6.53V85h-5V61.43h4.7V64.5A8.73,8.73,0,0,1,377,61.19a8,8,0,0,1,1.92.24Z"/><path class="cls-2" d="M397.4,85a20.47,20.47,0,0,1-4.18.53c-5.42,0-8.69-2.69-8.69-8.21V65.8h-3.84V61.43h3.84V55.24h5.09v6.19h7V65.8h-7V76.89c0,3,1.58,4.08,4.66,4.08.72,0,1.72-.1,3.12-.24Z"/><path class="cls-2" d="M408.34,61.43h5.57V65.8h-5.57V85h-5V65.8h-3.36V61.43h3.36V56.68c0-5.52,3.22-8.21,8.4-8.21a10.64,10.64,0,0,1,3.26.43v4.27a17.59,17.59,0,0,0-2-.14c-3.07,0-4.61,1-4.61,4.08Z"/><path class="cls-2" d="M428.79,60.9a12.32,12.32,0,1,1-12.43,12.29A12.35,12.35,0,0,1,428.79,60.9Zm0,4.61a7.41,7.41,0,0,0-7.35,7.73,7.33,7.33,0,1,0,14.64,0A7.42,7.42,0,0,0,428.84,65.51Z"/><path class="cls-2" d="M447,49h5V85h-5Z"/><path class="cls-2" d="M461.86,49.29a3.38,3.38,0,0,1,3.41,3.36,3.44,3.44,0,0,1-6.87,0A3.39,3.39,0,0,1,461.86,49.29Zm-2.55,12.14h5V85h-5Z"/><path class="cls-2" d="M482.55,60.9a12.32,12.32,0,1,1-12.44,12.29A12.35,12.35,0,0,1,482.55,60.9Zm.05,4.61a7.41,7.41,0,0,0-7.35,7.73,7.33,7.33,0,1,0,14.64,0A7.42,7.42,0,0,0,482.6,65.51Z"/><path class="cls-2" d="M549.17,61.43l-10.46,24.1H537l-7.39-15.7-7.39,15.7h-1.73L510,61.43h5.38l6.19,15.41,7.15-15.94h1.73l7.25,15.75,6.1-15.22Z"/><path class="cls-2" d="M556.37,74.87c.62,3.84,3.65,6.19,7.68,6.19a10.19,10.19,0,0,0,6.87-2.78l2.4,3.46a13.23,13.23,0,0,1-9.41,3.79c-7.2,0-12.68-5.33-12.68-12.29a12.16,12.16,0,0,1,12.2-12.34,10.6,10.6,0,0,1,10.89,10.8,15,15,0,0,1-.38,3.17Zm12.91-3.94c0-3.6-2.73-5.76-6-5.76a6.9,6.9,0,0,0-6.76,5.76Z"/><path class="cls-2" d="M593,85.53a10,10,0,0,1-8.25-3.79V85H580V49h5V64.31A10,10,0,0,1,593,60.9c6.67,0,11.57,5.33,11.57,12.34S599.57,85.53,593,85.53Zm-.86-20c-3.7,0-7.1,2.54-7.1,7.73s3.4,7.68,7.1,7.68c4.08,0,7.2-3.22,7.2-7.73S596.16,65.51,592.13,65.51Z"/><path class="cls-2" d="M611,77.8c2.06,2.16,4.12,3.36,6.62,3.36,2.16,0,3.79-.91,3.79-2.64,0-1.39-1-2-3.31-2.93l-2.4-1c-4.18-1.73-6.15-3.55-6.15-6.86,0-4.23,3.51-6.82,8.31-6.82A10.07,10.07,0,0,1,626,64.55l-2.74,3.12a7.64,7.64,0,0,0-5.52-2.4c-2,0-3.21.77-3.21,2.26,0,1.2.81,1.82,3.12,2.78l2.25.91c4.47,1.87,6.44,3.8,6.44,7.11a6.36,6.36,0,0,1-2.5,5.33,10.18,10.18,0,0,1-6.24,1.87,11.85,11.85,0,0,1-9.5-4.56Z"/><path class="cls-2" d="M634.61,49.29A3.38,3.38,0,0,1,638,52.65a3.44,3.44,0,0,1-6.87,0A3.39,3.39,0,0,1,634.61,49.29Zm-2.55,12.14h5V85h-5Z"/><path class="cls-2" d="M658.37,85a20.47,20.47,0,0,1-4.18.53c-5.42,0-8.69-2.69-8.69-8.21V65.8h-3.84V61.43h3.84V55.24h5.09v6.19h7V65.8h-7V76.89c0,3,1.59,4.08,4.66,4.08.72,0,1.73-.1,3.12-.24Z"/><path class="cls-2" d="M666.58,74.87c.62,3.84,3.64,6.19,7.68,6.19a10.15,10.15,0,0,0,6.86-2.78l2.4,3.46a13.23,13.23,0,0,1-9.41,3.79c-7.2,0-12.67-5.33-12.67-12.29A12.16,12.16,0,0,1,673.63,60.9a10.61,10.61,0,0,1,10.9,10.8,15,15,0,0,1-.38,3.17Zm12.91-3.94a5.7,5.7,0,0,0-6-5.76,6.91,6.91,0,0,0-6.77,5.76Z"/></g><g class="cls-1"><path class="cls-2" d="M72.44,109.43H78v4.37H72.44V133h-5V113.8H64v-4.37H67.4v-4.75c0-5.52,3.21-8.21,8.4-8.21a10.69,10.69,0,0,1,3.26.43v4.27a17.74,17.74,0,0,0-2-.14c-3.08,0-4.61,1-4.61,4.08Z"/><path class="cls-2" d="M92.89,108.9a12.32,12.32,0,1,1-12.44,12.29A12.35,12.35,0,0,1,92.89,108.9Zm0,4.61a7.41,7.41,0,0,0-7.34,7.73,7.33,7.33,0,1,0,14.64,0A7.43,7.43,0,0,0,92.93,113.51Z"/><path class="cls-2" d="M124.61,113.89h-1.53c-4,0-6.91,2.36-6.91,6.53V133h-5V109.43h4.71v3.07a8.72,8.72,0,0,1,6.86-3.31,7.93,7.93,0,0,1,1.92.24Z"/><path class="cls-2" d="M156.49,133a20.47,20.47,0,0,1-4.18.53c-5.42,0-8.69-2.69-8.69-8.21V113.8h-3.84v-4.37h3.84v-6.19h5.09v6.19h7v4.37h-7v11.09c0,3,1.58,4.08,4.66,4.08.72,0,1.72-.1,3.12-.24Z"/><path class="cls-2" d="M182.12,133h-5V119c0-3.26-2-5.47-5.14-5.47a5.22,5.22,0,0,0-5.38,5.47v14h-5V97h5v14.78a8.69,8.69,0,0,1,6.82-2.88c5.38,0,8.74,3.79,8.74,9.36Z"/><path class="cls-2" d="M192.73,122.87c.62,3.84,3.64,6.19,7.68,6.19a10.17,10.17,0,0,0,6.86-2.78l2.4,3.46a13.23,13.23,0,0,1-9.41,3.79c-7.2,0-12.67-5.33-12.67-12.29a12.15,12.15,0,0,1,12.19-12.34,10.61,10.61,0,0,1,10.9,10.8,15,15,0,0,1-.39,3.17Zm12.91-3.94a5.7,5.7,0,0,0-6-5.76,6.91,6.91,0,0,0-6.77,5.76Z"/><path class="cls-2" d="M243.8,133a20.47,20.47,0,0,1-4.18.53c-5.42,0-8.69-2.69-8.69-8.21V113.8h-3.84v-4.37h3.84v-6.19H236v6.19h7v4.37h-7v11.09c0,3,1.58,4.08,4.66,4.08.72,0,1.73-.1,3.12-.24Z"/><path class="cls-2" d="M267.56,133h-4.71v-2.64a9.44,9.44,0,0,1-7.53,3.17c-4.95,0-8.21-2.74-8.21-6.82s3.36-6.72,8.69-6.72h6.67v-1.53c0-3.27-1.82-5-5-5-2.64,0-4.56,1.16-6.53,3.51l-2.93-3a11.54,11.54,0,0,1,9.94-5c5.81,0,9.65,3.51,9.65,9.84Zm-5.09-9.36h-6.05c-2.69,0-4.18,1-4.18,2.88s1.68,3.12,4.13,3.12c3.41,0,6.1-2.35,6.1-5.57Z"/><path class="cls-2" d="M274.52,97h5v36h-5Z"/><path class="cls-2" d="M290.45,122.87c.63,3.84,3.65,6.19,7.68,6.19a10.19,10.19,0,0,0,6.87-2.78l2.4,3.46a13.23,13.23,0,0,1-9.41,3.79c-7.2,0-12.68-5.33-12.68-12.29a12.17,12.17,0,0,1,12.2-12.34,10.6,10.6,0,0,1,10.89,10.8,15,15,0,0,1-.38,3.17Zm12.91-3.94a5.69,5.69,0,0,0-6-5.76,6.91,6.91,0,0,0-6.77,5.76Z"/><path class="cls-2" d="M334.71,133h-5V118.93c0-3.26-2.07-5.47-5.14-5.47a5.22,5.22,0,0,0-5.37,5.47V133h-5.05V109.43h4.71v2.3a9.31,9.31,0,0,1,7.06-2.83c5.52,0,8.83,3.75,8.83,9.36Z"/><path class="cls-2" d="M355.68,133a20.29,20.29,0,0,1-4.17.53c-5.43,0-8.69-2.69-8.69-8.21V113.8H339v-4.37h3.84v-6.19h5.09v6.19h7v4.37h-7v11.09c0,3,1.58,4.08,4.65,4.08.72,0,1.73-.1,3.12-.24Z"/><path class="cls-2" d="M363.89,122.87c.62,3.84,3.65,6.19,7.68,6.19a10.19,10.19,0,0,0,6.87-2.78l2.4,3.46a13.23,13.23,0,0,1-9.41,3.79c-7.2,0-12.68-5.33-12.68-12.29A12.16,12.16,0,0,1,371,108.9a10.6,10.6,0,0,1,10.89,10.8,15,15,0,0,1-.38,3.17Zm12.91-3.94c0-3.6-2.73-5.76-6.05-5.76a6.9,6.9,0,0,0-6.76,5.76Z"/><path class="cls-2" d="M410.55,97v36h-4.71v-3.36a9.86,9.86,0,0,1-8.25,3.89c-6.63,0-11.52-5.33-11.52-12.29s5-12.48,11.52-12.34a10,10,0,0,1,7.87,3.41V97Zm-12.1,16.51c-4,0-7.25,3.17-7.25,7.68s3.07,7.73,7.25,7.73c3.7,0,7.11-2.54,7.11-7.68S402.1,113.51,398.45,113.51Z"/><path class="cls-2" d="M454.18,97v36h-4.71v-3.36a9.86,9.86,0,0,1-8.25,3.89c-6.63,0-11.52-5.33-11.52-12.29s5-12.48,11.52-12.34a10,10,0,0,1,7.87,3.41V97Zm-12.1,16.51c-4,0-7.25,3.17-7.25,7.68s3.08,7.73,7.25,7.73c3.7,0,7.11-2.54,7.11-7.68S445.73,113.51,442.08,113.51Z"/><path class="cls-2" d="M465.07,122.87c.63,3.84,3.65,6.19,7.68,6.19a10.17,10.17,0,0,0,6.87-2.78l2.4,3.46a13.23,13.23,0,0,1-9.41,3.79c-7.2,0-12.67-5.33-12.67-12.29a12.15,12.15,0,0,1,12.19-12.34A10.61,10.61,0,0,1,483,119.7a15,15,0,0,1-.39,3.17ZM478,118.93a5.7,5.7,0,0,0-6.05-5.76,6.91,6.91,0,0,0-6.77,5.76Z"/><path class="cls-2" d="M489.41,125.8c2.06,2.16,4.13,3.36,6.62,3.36,2.16,0,3.8-.91,3.8-2.64,0-1.39-1-2-3.32-2.93l-2.4-1c-4.17-1.73-6.14-3.55-6.14-6.86,0-4.23,3.5-6.82,8.3-6.82a10.07,10.07,0,0,1,8.16,3.65l-2.73,3.12a7.67,7.67,0,0,0-5.52-2.4c-2,0-3.22.77-3.22,2.26,0,1.2.82,1.82,3.12,2.78l2.26.91c4.46,1.87,6.43,3.8,6.43,7.11a6.36,6.36,0,0,1-2.5,5.33,10.18,10.18,0,0,1-6.24,1.87,11.85,11.85,0,0,1-9.5-4.56Z"/><path class="cls-2" d="M513.07,97.29a3.38,3.38,0,0,1,3.41,3.36,3.43,3.43,0,0,1-6.86,0A3.38,3.38,0,0,1,513.07,97.29Zm-2.54,12.14h5V133h-5Z"/><path class="cls-2" d="M546,109.43v21.12c0,7.44-4.65,11.62-11.81,11.62a16.36,16.36,0,0,1-11.32-4.47l2.78-3.5c2.64,2.11,5,3.36,8.26,3.36,4.27,0,7-2.3,7-6.72v-1.68a10.15,10.15,0,0,1-8,3.36c-6.57,0-11.47-4.94-11.47-11.81s4.95-11.81,11.47-11.81a10,10,0,0,1,8.36,3.89v-3.36Zm-12.09,4a7,7,0,0,0-7.2,7.3,7.24,7.24,0,0,0,2.06,5.38,7.07,7.07,0,0,0,5.14,2,7,7,0,0,0,5-1.92,7.16,7.16,0,0,0,2.11-5.52C541,115.86,537.74,113.41,533.86,113.41Z"/><path class="cls-2" d="M573.79,133h-5V118.93c0-3.26-2.06-5.47-5.13-5.47a5.22,5.22,0,0,0-5.38,5.47V133h-5V109.43h4.7v2.3A9.31,9.31,0,0,1,565,108.9c5.52,0,8.83,3.75,8.83,9.36Z"/><path class="cls-2" d="M584.4,122.87c.62,3.84,3.65,6.19,7.68,6.19a10.15,10.15,0,0,0,6.86-2.78l2.4,3.46a13.19,13.19,0,0,1-9.4,3.79c-7.2,0-12.68-5.33-12.68-12.29a12.16,12.16,0,0,1,12.2-12.34,10.6,10.6,0,0,1,10.89,10.8,15,15,0,0,1-.38,3.17Zm12.91-3.94a5.7,5.7,0,0,0-6-5.76,6.9,6.9,0,0,0-6.76,5.76Z"/><path class="cls-2" d="M621.55,113.89H620c-4,0-6.92,2.36-6.92,6.53V133h-5V109.43h4.71v3.07a8.71,8.71,0,0,1,6.86-3.31,7.93,7.93,0,0,1,1.92.24Z"/></g><g class="cls-1"><path class="cls-2" d="M72.34,175.72H58.09L55.83,181H50.41l14-32.21H66.1l14,32.21H74.6Zm-7.1-17.47-5.33,13.1H70.52Z"/><path class="cls-2" d="M83.76,157.43h5V171.5a5.26,5.26,0,1,0,10.51,0V157.43h5v13.68c0,6.34-4.46,10.42-10.22,10.42-5.91,0-10.33-4.08-10.33-10.42Z"/><path class="cls-2" d="M134.31,145v36h-4.7v-3.36a9.89,9.89,0,0,1-8.26,3.89c-6.63,0-11.52-5.33-11.52-12.29s5-12.48,11.52-12.34a10,10,0,0,1,7.87,3.41V145Zm-12.1,16.51c-4,0-7.25,3.17-7.25,7.68s3.08,7.73,7.25,7.73c3.7,0,7.11-2.54,7.11-7.68S125.86,161.51,122.21,161.51Z"/><path class="cls-2" d="M155.05,161.89h-1.54c-4,0-6.91,2.36-6.91,6.53V181h-5V157.43h4.7v3.07a8.73,8.73,0,0,1,6.87-3.31,8,8,0,0,1,1.92.24Z"/><path class="cls-2" d="M162.68,170.87c.62,3.84,3.65,6.19,7.68,6.19a10.15,10.15,0,0,0,6.86-2.78l2.4,3.46a13.23,13.23,0,0,1-9.41,3.79c-7.2,0-12.67-5.33-12.67-12.29a12.16,12.16,0,0,1,12.19-12.34,10.61,10.61,0,0,1,10.9,10.8,15,15,0,0,1-.38,3.17Zm12.91-3.94a5.7,5.7,0,0,0-6.05-5.76,6.91,6.91,0,0,0-6.77,5.76Z"/><path class="cls-2" d="M207.85,157.43l-11.48,26.26c-2,4.46-4.61,6.48-8.64,6.48a15.75,15.75,0,0,1-3.89-.48v-4.27c1.49.14,2.4.19,2.79.19,2.35,0,4-.82,5.13-3.46l1-2.21-9.4-22.51h5.42l6.77,17.14,7-17.14Z"/><path class="cls-2" d="M239.67,181H226.08V149.32h11.09c5.72,0,9.51,3.55,9.51,8.45a7.55,7.55,0,0,1-2.64,5.95,8.14,8.14,0,0,1,5.9,8.06C249.94,177.11,245.86,181,239.67,181Zm-8.59-27.22v8.55h5.61c3.12,0,4.9-1.68,4.9-4.32s-1.78-4.23-4.9-4.23Zm8.16,12.91h-8.16v9.85h8.16c3.5,0,5.57-1.88,5.57-4.9S242.74,166.69,239.24,166.69Z"/><path class="cls-2" d="M268.85,161.89h-1.53c-4,0-6.92,2.36-6.92,6.53V181h-5V157.43h4.71v3.07a8.72,8.72,0,0,1,6.86-3.31,7.93,7.93,0,0,1,1.92.24Z"/><path class="cls-2" d="M283.78,156.9a12.32,12.32,0,1,1-12.43,12.29A12.34,12.34,0,0,1,283.78,156.9Zm.05,4.61a7.41,7.41,0,0,0-7.35,7.73,7.33,7.33,0,1,0,14.65,0A7.43,7.43,0,0,0,283.83,161.51Z"/><path class="cls-2" d="M337.5,157.43,327,181.53H325.3l-7.39-15.7-7.39,15.7h-1.73l-10.47-24.1h5.38l6.19,15.41,7.16-15.94h1.72L326,172.65l6.1-15.22Z"/><path class="cls-2" d="M362.6,181h-5V166.93c0-3.26-2.07-5.47-5.14-5.47a5.22,5.22,0,0,0-5.38,5.47V181h-5V157.43h4.71v2.3a9.29,9.29,0,0,1,7.05-2.83c5.53,0,8.84,3.75,8.84,9.36Z"/><path class="cls-2" d="M372.68,174.09a3.72,3.72,0,0,1,0,7.44,3.72,3.72,0,1,1,0-7.44Z"/><path class="cls-2" d="M398,171.93c2.11,3.07,4.66,5,8.31,5,3.26,0,5.47-1.73,5.47-4.42,0-2.26-1.35-3.22-4.66-4.75l-3.5-1.63c-4.61-2.12-7.4-4.56-7.4-8.79,0-5.18,4.52-8.59,10-8.59a11.62,11.62,0,0,1,10.22,5.66l-3.55,2.74a7.89,7.89,0,0,0-6.67-3.84c-2.69,0-4.8,1.34-4.8,3.84.19,2.5,1.29,2.93,4.41,4.51l3.56,1.63c5.13,2.36,7.58,4.85,7.58,9,0,5.52-4.51,9.17-10.61,9.17a13.44,13.44,0,0,1-11.95-6.87Z"/><path class="cls-2" d="M443.72,181h-5V167c0-3.26-2-5.47-5.14-5.47a5.22,5.22,0,0,0-5.38,5.47v14h-5V145h5v14.78A8.69,8.69,0,0,1,435,156.9c5.38,0,8.74,3.79,8.74,9.36Z"/><path class="cls-2" d="M454.32,170.87c.63,3.84,3.65,6.19,7.68,6.19a10.17,10.17,0,0,0,6.87-2.78l2.4,3.46a13.23,13.23,0,0,1-9.41,3.79c-7.2,0-12.67-5.33-12.67-12.29a12.15,12.15,0,0,1,12.19-12.34,10.61,10.61,0,0,1,10.9,10.8,15,15,0,0,1-.39,3.17Zm12.92-3.94a5.7,5.7,0,0,0-6.05-5.76,6.91,6.91,0,0,0-6.77,5.76Z"/><path class="cls-2" d="M512,181h-5V167c0-3.26-2-5.47-5.13-5.47a5.22,5.22,0,0,0-5.38,5.47v14h-5V145h5v14.78a8.66,8.66,0,0,1,6.82-2.88c5.37,0,8.73,3.79,8.73,9.36Z"/><path class="cls-2" d="M522.58,170.87c.62,3.84,3.65,6.19,7.68,6.19a10.15,10.15,0,0,0,6.86-2.78l2.4,3.46a13.19,13.19,0,0,1-9.4,3.79c-7.2,0-12.68-5.33-12.68-12.29a12.16,12.16,0,0,1,12.2-12.34,10.6,10.6,0,0,1,10.89,10.8,15,15,0,0,1-.38,3.17Zm12.91-3.94a5.7,5.7,0,0,0-6-5.76,6.91,6.91,0,0,0-6.77,5.76Z"/><path class="cls-2" d="M559.73,161.89H558.2c-4,0-6.92,2.36-6.92,6.53V181h-5V157.43H551v3.07a8.71,8.71,0,0,1,6.86-3.31,7.93,7.93,0,0,1,1.92.24Z"/><path class="cls-2" d="M564.87,173.8c2.06,2.16,4.12,3.36,6.62,3.36,2.16,0,3.79-.91,3.79-2.64,0-1.39-1-2-3.31-2.93l-2.4-1c-4.18-1.73-6.14-3.55-6.14-6.86,0-4.23,3.5-6.82,8.3-6.82a10.07,10.07,0,0,1,8.16,3.65l-2.73,3.12a7.68,7.68,0,0,0-5.53-2.4c-2,0-3.21.77-3.21,2.26,0,1.2.81,1.82,3.12,2.78l2.25.91c4.47,1.87,6.44,3.8,6.44,7.11a6.36,6.36,0,0,1-2.5,5.33,10.18,10.18,0,0,1-6.24,1.87A11.85,11.85,0,0,1,562,177Z"/><path class="cls-2" d="M589.63,170.87c.63,3.84,3.65,6.19,7.69,6.19a10.17,10.17,0,0,0,6.86-2.78l2.4,3.46a13.23,13.23,0,0,1-9.41,3.79c-7.2,0-12.67-5.33-12.67-12.29a12.15,12.15,0,0,1,12.19-12.34,10.61,10.61,0,0,1,10.9,10.8,15,15,0,0,1-.39,3.17Zm12.92-3.94a5.7,5.7,0,0,0-6-5.76,6.91,6.91,0,0,0-6.77,5.76Z"/><path class="cls-2" d="M613.3,145h5v36h-5Z"/><path class="cls-2" d="M631.49,157.43h5.57v4.37h-5.57V181h-5V161.8h-3.36v-4.37h3.36v-4.75c0-5.52,3.22-8.21,8.4-8.21a10.64,10.64,0,0,1,3.26.43v4.27a17.59,17.59,0,0,0-2-.14c-3.07,0-4.61,1.05-4.61,4.08Z"/></g><g class="cls-1"><path class="cls-2" d="M120.61,193v36h-4.7v-3.36a9.89,9.89,0,0,1-8.26,3.89c-6.62,0-11.52-5.33-11.52-12.29s5-12.48,11.52-12.34a10,10,0,0,1,7.87,3.41V193Zm-12.1,16.51c-4,0-7.24,3.17-7.24,7.68s3.07,7.73,7.24,7.73c3.7,0,7.11-2.54,7.11-7.68S112.16,209.51,108.51,209.51Z"/><path class="cls-2" d="M131.5,218.87c.63,3.84,3.65,6.19,7.69,6.19a10.17,10.17,0,0,0,6.86-2.78l2.4,3.46a13.23,13.23,0,0,1-9.41,3.79c-7.2,0-12.67-5.33-12.67-12.29a12.15,12.15,0,0,1,12.19-12.34,10.61,10.61,0,0,1,10.9,10.8,15,15,0,0,1-.39,3.17Zm12.92-3.94a5.7,5.7,0,0,0-6-5.76,6.91,6.91,0,0,0-6.77,5.76Z"/><path class="cls-2" d="M155.84,221.8c2.06,2.16,4.13,3.36,6.62,3.36,2.16,0,3.8-.91,3.8-2.64,0-1.39-1-2-3.32-2.93l-2.4-1c-4.17-1.73-6.14-3.55-6.14-6.86,0-4.23,3.5-6.82,8.31-6.82a10.1,10.1,0,0,1,8.16,3.65l-2.74,3.12a7.67,7.67,0,0,0-5.52-2.4c-2,0-3.22.77-3.22,2.26,0,1.2.82,1.82,3.12,2.78l2.26.91c4.46,1.87,6.43,3.8,6.43,7.11a6.35,6.35,0,0,1-2.49,5.33,10.21,10.21,0,0,1-6.25,1.87A11.85,11.85,0,0,1,153,225Z"/><path class="cls-2" d="M179.5,193.29a3.37,3.37,0,0,1,3.41,3.36,3.43,3.43,0,0,1-6.86,0A3.38,3.38,0,0,1,179.5,193.29ZM177,205.43h5V229h-5Z"/><path class="cls-2" d="M212.38,205.43v21.12c0,7.44-4.65,11.62-11.8,11.62a16.37,16.37,0,0,1-11.33-4.47l2.78-3.5c2.64,2.11,5,3.36,8.26,3.36,4.27,0,7.05-2.3,7.05-6.72v-1.68a10.15,10.15,0,0,1-8,3.36c-6.58,0-11.48-4.94-11.48-11.81s4.95-11.81,11.48-11.81a9.94,9.94,0,0,1,8.35,3.89v-3.36Zm-12.09,4a7,7,0,0,0-7.2,7.3,7.24,7.24,0,0,0,2.06,5.38,7.07,7.07,0,0,0,5.14,2,7,7,0,0,0,5-1.92,7.16,7.16,0,0,0,2.11-5.52C207.39,211.86,204.18,209.41,200.29,209.41Z"/><path class="cls-2" d="M240.22,229h-5V214.93c0-3.26-2.06-5.47-5.13-5.47a5.22,5.22,0,0,0-5.38,5.47V229h-5V205.43h4.7v2.3a9.31,9.31,0,0,1,7.06-2.83c5.52,0,8.83,3.75,8.83,9.36Z"/><path class="cls-2" d="M250.83,218.87c.63,3.84,3.65,6.19,7.68,6.19a10.19,10.19,0,0,0,6.87-2.78l2.4,3.46a13.23,13.23,0,0,1-9.41,3.79c-7.2,0-12.68-5.33-12.68-12.29a12.16,12.16,0,0,1,12.2-12.34,10.6,10.6,0,0,1,10.89,10.8,15,15,0,0,1-.38,3.17Zm12.91-3.94a5.69,5.69,0,0,0-6-5.76,6.9,6.9,0,0,0-6.77,5.76Z"/><path class="cls-2" d="M297.49,193v36h-4.71v-3.36a9.86,9.86,0,0,1-8.25,3.89c-6.63,0-11.52-5.33-11.52-12.29s5-12.48,11.52-12.34a10,10,0,0,1,7.87,3.41V193Zm-12.1,16.51c-4,0-7.25,3.17-7.25,7.68s3.07,7.73,7.25,7.73c3.7,0,7.11-2.54,7.11-7.68S289,209.51,285.39,209.51Z"/><path class="cls-2" d="M332.14,229a20.29,20.29,0,0,1-4.17.53c-5.43,0-8.69-2.69-8.69-8.21V209.8h-3.84v-4.37h3.84v-6.19h5.09v6.19h7v4.37h-7v11.09c0,3,1.58,4.08,4.65,4.08.72,0,1.73-.1,3.12-.24Z"/><path class="cls-2" d="M357.78,229h-5V215c0-3.26-2-5.47-5.13-5.47a5.22,5.22,0,0,0-5.38,5.47v14h-5V193h5v14.78A8.69,8.69,0,0,1,349,204.9c5.38,0,8.74,3.79,8.74,9.36Z"/><path class="cls-2" d="M368.38,218.87c.63,3.84,3.65,6.19,7.68,6.19a10.19,10.19,0,0,0,6.87-2.78l2.4,3.46a13.23,13.23,0,0,1-9.41,3.79c-7.2,0-12.67-5.33-12.67-12.29a12.15,12.15,0,0,1,12.19-12.34,10.6,10.6,0,0,1,10.89,10.8,15,15,0,0,1-.38,3.17Zm12.91-3.94a5.69,5.69,0,0,0-6-5.76,6.91,6.91,0,0,0-6.77,5.76Z"/><path class="cls-2" d="M440.43,205.43,430,229.53h-1.73l-7.39-15.7-7.4,15.7h-1.72l-10.47-24.1h5.38l6.19,15.41L420,204.9h1.73L429,220.65l6.1-15.22Z"/><path class="cls-2" d="M447.63,218.87c.62,3.84,3.65,6.19,7.68,6.19a10.15,10.15,0,0,0,6.86-2.78l2.41,3.46a13.23,13.23,0,0,1-9.41,3.79c-7.2,0-12.68-5.33-12.68-12.29a12.16,12.16,0,0,1,12.2-12.34,10.6,10.6,0,0,1,10.89,10.8,15,15,0,0,1-.38,3.17Zm12.91-3.94c0-3.6-2.73-5.76-6.05-5.76a6.9,6.9,0,0,0-6.76,5.76Z"/><path class="cls-2" d="M484.25,229.53a10,10,0,0,1-8.25-3.79V229h-4.71V193h5v15.31a10,10,0,0,1,7.88-3.41c6.67,0,11.57,5.33,11.57,12.34S490.83,229.53,484.25,229.53Zm-.86-20c-3.7,0-7.1,2.54-7.1,7.73s3.4,7.68,7.1,7.68c4.08,0,7.2-3.22,7.2-7.73S487.42,209.51,483.39,209.51Z"/><path class="cls-2" d="M502.21,221.8c2.06,2.16,4.12,3.36,6.62,3.36,2.16,0,3.79-.91,3.79-2.64,0-1.39-1-2-3.31-2.93l-2.4-1c-4.18-1.73-6.15-3.55-6.15-6.86,0-4.23,3.51-6.82,8.31-6.82a10.07,10.07,0,0,1,8.16,3.65l-2.74,3.12a7.64,7.64,0,0,0-5.52-2.4c-2,0-3.21.77-3.21,2.26,0,1.2.81,1.82,3.12,2.78l2.25.91c4.47,1.87,6.44,3.8,6.44,7.11a6.36,6.36,0,0,1-2.5,5.33,10.18,10.18,0,0,1-6.24,1.87,11.85,11.85,0,0,1-9.5-4.56Z"/><path class="cls-2" d="M525.87,193.29a3.38,3.38,0,0,1,3.41,3.36,3.44,3.44,0,0,1-6.87,0A3.39,3.39,0,0,1,525.87,193.29Zm-2.55,12.14h5V229h-5Z"/><path class="cls-2" d="M549.63,229a20.47,20.47,0,0,1-4.18.53c-5.42,0-8.69-2.69-8.69-8.21V209.8h-3.84v-4.37h3.84v-6.19h5.09v6.19h7v4.37h-7v11.09c0,3,1.59,4.08,4.66,4.08.72,0,1.73-.1,3.12-.24Z"/><path class="cls-2" d="M557.84,218.87c.62,3.84,3.64,6.19,7.68,6.19a10.17,10.17,0,0,0,6.86-2.78l2.4,3.46a13.23,13.23,0,0,1-9.41,3.79c-7.2,0-12.67-5.33-12.67-12.29a12.16,12.16,0,0,1,12.19-12.34,10.61,10.61,0,0,1,10.9,10.8,15,15,0,0,1-.38,3.17Zm12.91-3.94a5.7,5.7,0,0,0-6-5.76,6.91,6.91,0,0,0-6.77,5.76Z"/><path class="cls-2" d="M584.62,222.09a3.72,3.72,0,0,1,0,7.44,3.72,3.72,0,1,1,0-7.44Z"/></g></g></g></g></svg>