<?xml version="1.0" encoding="UTF-8"?>
<svg width="741px" height="274px" viewBox="0 0 741 274" version="1.1" xmlns="http://www.w3.org/2000/svg" xmlns:xlink="http://www.w3.org/1999/xlink">
    <!-- Generator: Sketch 53.2 (72643) - https://sketchapp.com -->
    <title>audio1</title>
    <desc>Created with Sketch.</desc>
    <g id="Page-1" stroke="none" stroke-width="1" fill="none" fill-rule="evenodd">
        <g id="Desktop-HD-Copy-28" transform="translate(-349.000000, -155.000000)" fill="#404648" fill-rule="nonzero">
            <path d="M375.848,160.32 L375.848,163.68 L364.664,163.68 L364.664,192 L360.92,192 L360.92,163.68 L349.784,163.68 L349.784,160.32 L375.848,160.32 Z M390.284,168.096 C395.756,168.096 398.924,171.888 398.924,177.312 L398.924,192 L395.228,192 L395.228,177.792 C395.228,174.096 393.02,171.504 389.42,171.504 C385.82,171.504 383.276,174.144 383.276,177.792 L383.276,192 L379.58,192 L379.58,156 L383.276,156 L383.276,171.264 C384.812,169.296 387.26,168.096 390.284,168.096 Z M407.36,157.008 C408.848,157.008 410.096,158.208 410.096,159.696 C410.096,161.232 408.848,162.384 407.36,162.384 C405.776,162.384 404.576,161.232 404.576,159.696 C404.576,158.208 405.776,157.008 407.36,157.008 Z M409.184,168.624 L409.184,192 L405.488,192 L405.488,168.624 L409.184,168.624 Z M423.092,168.096 C426.452,168.096 429.092,169.536 430.916,171.792 L428.66,174.096 C427.124,172.512 425.108,171.504 422.9,171.504 C420.692,171.504 419.012,172.512 419.012,174.432 C419.012,176.016 420.212,176.784 422.804,177.84 L424.964,178.752 C429.188,180.528 431.156,182.352 431.156,185.664 C431.156,190.224 427.268,192.528 422.948,192.528 C418.82,192.528 415.7,190.464 413.828,187.968 L416.18,185.52 C418.1,187.536 420.068,189.12 422.9,189.12 C425.348,189.12 427.364,187.92 427.364,185.808 C427.364,183.792 425.636,183.024 423.284,182.064 L421.028,181.104 C417.476,179.616 415.22,177.984 415.22,174.624 C415.22,170.4 418.82,168.096 423.092,168.096 Z M461.036,168.096 C467.756,168.096 472.604,173.424 472.604,180.288 C472.604,187.2 467.708,192.528 461.036,192.528 C457.58,192.528 454.316,191.088 452.444,188.592 L452.444,200.64 L448.748,200.64 L448.748,168.624 L452.204,168.624 L452.204,172.368 C454.028,169.68 457.34,168.096 461.036,168.096 Z M460.508,189.12 C465.26,189.12 468.812,185.424 468.812,180.336 C468.812,175.248 465.308,171.504 460.508,171.504 C456.476,171.504 452.396,174.144 452.396,180.288 C452.396,186.432 456.428,189.12 460.508,189.12 Z M488.528,168.432 C489.296,168.432 489.776,168.528 490.256,168.624 L490.256,171.888 L488.864,171.888 C485.072,171.888 481.52,174.288 481.52,178.752 L481.52,192 L477.824,192 L477.824,168.624 L481.28,168.624 L481.28,171.984 C483.008,169.68 485.744,168.432 488.528,168.432 Z M504.02,168.096 C510.788,168.096 516.26,173.424 516.26,180.288 C516.26,187.104 510.788,192.48 503.972,192.48 C497.204,192.432 491.78,187.152 491.78,180.288 C491.78,173.424 497.156,168.096 504.02,168.096 Z M504.02,171.504 C499.124,171.504 495.524,175.344 495.572,180.336 C495.572,185.28 499.124,189.072 503.972,189.072 C508.82,189.072 512.468,185.232 512.468,180.336 C512.468,175.296 508.82,171.504 504.02,171.504 Z M523.352,157.008 C524.84,157.008 526.088,158.208 526.088,159.696 C526.088,161.232 524.84,162.384 523.352,162.384 C521.768,162.384 520.568,161.232 520.568,159.696 C520.568,158.208 521.768,157.008 523.352,157.008 Z M525.176,168.624 L525.176,193.584 C525.176,198.912 521.96,201.168 517.496,201.168 C516.296,201.168 515.384,201.024 514.52,200.784 L514.52,197.664 C515.336,197.76 515.912,197.808 516.68,197.808 C519.512,197.808 521.48,196.8 521.48,193.344 L521.48,168.624 L525.176,168.624 Z M552.956,178.656 C552.956,179.904 552.764,181.008 552.668,181.44 L534.236,181.44 C534.716,186.096 538.172,189.12 542.78,189.12 C545.708,189.12 548.012,187.872 549.932,185.952 L552.092,188.448 C549.74,190.944 546.572,192.528 542.732,192.528 C535.676,192.528 530.348,187.2 530.348,180.336 C530.348,173.52 535.58,168.096 542.3,168.096 C548.3,168.096 552.956,172.416 552.956,178.656 Z M542.204,171.456 C538.268,171.456 535.148,174.144 534.38,178.176 L549.164,178.176 C549.116,173.856 545.948,171.456 542.204,171.456 Z M568.736,168.096 C572.96,168.096 576.32,170.112 578.384,173.184 L575.744,175.296 C574.016,172.992 571.808,171.504 568.784,171.504 C563.888,171.504 560.288,175.392 560.288,180.288 C560.288,185.232 563.888,189.12 568.784,189.12 C571.76,189.12 573.968,187.68 575.696,185.376 L578.336,187.44 C576.272,190.512 572.912,192.528 568.736,192.528 C561.92,192.528 556.496,187.152 556.496,180.288 C556.496,173.472 561.92,168.096 568.736,168.096 Z M593.012,189.168 C593.924,189.168 594.932,189.072 596.132,188.88 L596.132,192 C594.932,192.288 593.732,192.528 592.244,192.528 C587.636,192.528 584.372,190.272 584.372,184.944 L584.372,171.936 L580.436,171.936 L580.436,168.624 L584.372,168.624 L584.372,162.24 L588.068,162.24 L588.068,168.624 L595.364,168.624 L595.364,171.936 L588.068,171.936 L588.068,184.704 C588.068,188.208 590.084,189.168 593.012,189.168 Z M621.74,158.832 C618.86,158.832 616.844,159.792 616.844,163.296 L616.844,168.624 L622.7,168.624 L622.7,171.936 L616.844,171.936 L616.844,192 L613.148,192 L613.148,171.936 L609.788,171.936 L609.788,168.624 L613.148,168.624 L613.148,163.056 C613.148,157.728 616.364,155.472 620.876,155.472 C622.028,155.472 622.94,155.616 623.804,155.856 L623.804,158.976 C623.036,158.88 622.364,158.832 621.74,158.832 Z M636.416,168.096 C643.184,168.096 648.656,173.424 648.656,180.288 C648.656,187.104 643.184,192.48 636.368,192.48 C629.6,192.432 624.176,187.152 624.176,180.288 C624.176,173.424 629.552,168.096 636.416,168.096 Z M636.416,171.504 C631.52,171.504 627.92,175.344 627.968,180.336 C627.968,185.28 631.52,189.072 636.368,189.072 C641.216,189.072 644.864,185.232 644.864,180.336 C644.864,175.296 641.216,171.504 636.416,171.504 Z M664.436,168.096 C668.66,168.096 672.02,170.112 674.084,173.184 L671.444,175.296 C669.716,172.992 667.508,171.504 664.484,171.504 C659.588,171.504 655.988,175.392 655.988,180.288 C655.988,185.232 659.588,189.12 664.484,189.12 C667.46,189.12 669.668,187.68 671.396,185.376 L674.036,187.44 C671.972,190.512 668.612,192.528 664.436,192.528 C657.62,192.528 652.196,187.152 652.196,180.288 C652.196,173.472 657.62,168.096 664.436,168.096 Z M698.12,168.624 L698.12,182.688 C698.12,188.688 693.848,192.528 688.472,192.528 C683,192.528 678.776,188.688 678.776,182.688 L678.776,168.624 L682.424,168.624 L682.424,182.928 C682.424,186.768 685.112,189.12 688.472,189.12 C691.736,189.12 694.424,186.768 694.424,182.928 L694.424,168.624 L698.12,168.624 Z M711.74,168.096 C715.1,168.096 717.74,169.536 719.564,171.792 L717.308,174.096 C715.772,172.512 713.756,171.504 711.548,171.504 C709.34,171.504 707.66,172.512 707.66,174.432 C707.66,176.016 708.86,176.784 711.452,177.84 L713.612,178.752 C717.836,180.528 719.804,182.352 719.804,185.664 C719.804,190.224 715.916,192.528 711.596,192.528 C707.468,192.528 704.348,190.464 702.476,187.968 L704.828,185.52 C706.748,187.536 708.716,189.12 711.548,189.12 C713.996,189.12 716.012,187.92 716.012,185.808 C716.012,183.792 714.284,183.024 711.932,182.064 L709.676,181.104 C706.124,179.616 703.868,177.984 703.868,174.624 C703.868,170.4 707.468,168.096 711.74,168.096 Z M746.144,178.656 C746.144,179.904 745.952,181.008 745.856,181.44 L727.424,181.44 C727.904,186.096 731.36,189.12 735.968,189.12 C738.896,189.12 741.2,187.872 743.12,185.952 L745.28,188.448 C742.928,190.944 739.76,192.528 735.92,192.528 C728.864,192.528 723.536,187.2 723.536,180.336 C723.536,173.52 728.768,168.096 735.488,168.096 C741.488,168.096 746.144,172.416 746.144,178.656 Z M735.392,171.456 C731.456,171.456 728.336,174.144 727.568,178.176 L742.352,178.176 C742.304,173.856 739.136,171.456 735.392,171.456 Z M769.892,156 L773.588,156 L773.588,192 L770.084,192 L770.084,188.256 C768.26,190.944 764.948,192.528 761.252,192.528 C754.58,192.528 749.684,187.2 749.684,180.336 C749.684,173.424 754.58,168.096 761.252,168.096 C764.804,168.096 768.02,169.584 769.892,172.08 L769.892,156 Z M761.78,189.12 C765.812,189.12 769.94,186.48 769.94,180.336 C769.94,174.192 765.812,171.504 761.78,171.504 C757.028,171.504 753.476,175.2 753.476,180.288 C753.476,185.376 756.98,189.12 761.78,189.12 Z M803.18,168.096 C809.948,168.096 815.42,173.424 815.42,180.288 C815.42,187.104 809.948,192.48 803.132,192.48 C796.364,192.432 790.94,187.152 790.94,180.288 C790.94,173.424 796.316,168.096 803.18,168.096 Z M803.18,171.504 C798.284,171.504 794.684,175.344 794.732,180.336 C794.732,185.28 798.284,189.072 803.132,189.072 C807.98,189.072 811.628,185.232 811.628,180.336 C811.628,175.296 807.98,171.504 803.18,171.504 Z M831.296,168.096 C836.816,168.096 839.984,171.888 839.984,177.312 L839.984,192 L836.288,192 L836.288,177.744 C836.288,174.048 834.08,171.504 830.48,171.504 C826.88,171.504 824.336,174.096 824.336,177.744 L824.336,192 L820.64,192 L820.64,168.624 L824.096,168.624 L824.096,171.168 C825.728,169.248 828.272,168.096 831.296,168.096 Z M877.256,156 L880.952,156 L880.952,192 L877.448,192 L877.448,188.256 C875.624,190.944 872.312,192.528 868.616,192.528 C861.944,192.528 857.048,187.2 857.048,180.336 C857.048,173.424 861.944,168.096 868.616,168.096 C872.168,168.096 875.384,169.584 877.256,172.08 L877.256,156 Z M869.144,189.12 C873.176,189.12 877.304,186.48 877.304,180.336 C877.304,174.192 873.176,171.504 869.144,171.504 C864.392,171.504 860.84,175.2 860.84,180.288 C860.84,185.376 864.344,189.12 869.144,189.12 Z M908.732,178.656 C908.732,179.904 908.54,181.008 908.444,181.44 L890.012,181.44 C890.492,186.096 893.948,189.12 898.556,189.12 C901.484,189.12 903.788,187.872 905.708,185.952 L907.868,188.448 C905.516,190.944 902.348,192.528 898.508,192.528 C891.452,192.528 886.124,187.2 886.124,180.336 C886.124,173.52 891.356,168.096 898.076,168.096 C904.076,168.096 908.732,172.416 908.732,178.656 Z M897.98,171.456 C894.044,171.456 890.924,174.144 890.156,178.176 L904.94,178.176 C904.892,173.856 901.724,171.456 897.98,171.456 Z M929.6,168.624 L933.536,168.624 L922.544,192.528 L921.2,192.528 L910.16,168.624 L914.096,168.624 L921.872,186.24 L929.6,168.624 Z M957.572,178.656 C957.572,179.904 957.38,181.008 957.284,181.44 L938.852,181.44 C939.332,186.096 942.788,189.12 947.396,189.12 C950.324,189.12 952.628,187.872 954.548,185.952 L956.708,188.448 C954.356,190.944 951.188,192.528 947.348,192.528 C940.292,192.528 934.964,187.2 934.964,180.336 C934.964,173.52 940.196,168.096 946.916,168.096 C952.916,168.096 957.572,172.416 957.572,178.656 Z M946.82,171.456 C942.884,171.456 939.764,174.144 938.996,178.176 L953.78,178.176 C953.732,173.856 950.564,171.456 946.82,171.456 Z M966.488,156 L966.488,192 L962.792,192 L962.792,156 L966.488,156 Z M983.9,168.096 C990.668,168.096 996.14,173.424 996.14,180.288 C996.14,187.104 990.668,192.48 983.852,192.48 C977.084,192.432 971.66,187.152 971.66,180.288 C971.66,173.424 977.036,168.096 983.9,168.096 Z M983.9,171.504 C979.004,171.504 975.404,175.344 975.452,180.336 C975.452,185.28 979.004,189.072 983.852,189.072 C988.7,189.072 992.348,185.232 992.348,180.336 C992.348,175.296 988.7,171.504 983.9,171.504 Z M1013.648,168.096 C1020.368,168.096 1025.216,173.424 1025.216,180.288 C1025.216,187.2 1020.32,192.528 1013.648,192.528 C1010.192,192.528 1006.928,191.088 1005.056,188.592 L1005.056,200.64 L1001.36,200.64 L1001.36,168.624 L1004.816,168.624 L1004.816,172.368 C1006.64,169.68 1009.952,168.096 1013.648,168.096 Z M1013.12,189.12 C1017.872,189.12 1021.424,185.424 1021.424,180.336 C1021.424,175.248 1017.92,171.504 1013.12,171.504 C1009.088,171.504 1005.008,174.144 1005.008,180.288 C1005.008,186.432 1009.04,189.12 1013.12,189.12 Z M1032.308,157.008 C1033.796,157.008 1035.044,158.208 1035.044,159.696 C1035.044,161.232 1033.796,162.384 1032.308,162.384 C1030.724,162.384 1029.524,161.232 1029.524,159.696 C1029.524,158.208 1030.724,157.008 1032.308,157.008 Z M1034.132,168.624 L1034.132,192 L1030.436,192 L1030.436,168.624 L1034.132,168.624 Z M1051.64,168.096 C1057.16,168.096 1060.328,171.888 1060.328,177.312 L1060.328,192 L1056.632,192 L1056.632,177.744 C1056.632,174.048 1054.424,171.504 1050.824,171.504 C1047.224,171.504 1044.68,174.096 1044.68,177.744 L1044.68,192 L1040.984,192 L1040.984,168.624 L1044.44,168.624 L1044.44,171.168 C1046.072,169.248 1048.616,168.096 1051.64,168.096 Z M1085.852,168.624 L1089.356,168.624 L1089.356,189.744 C1089.356,196.944 1084.796,201.168 1077.98,201.168 C1073.084,201.168 1069.292,198.96 1066.988,196.656 L1069.148,194.064 C1071.404,196.032 1074.044,197.76 1077.884,197.76 C1082.636,197.76 1085.66,195.12 1085.66,189.936 L1085.66,187.872 C1083.74,190.32 1080.476,191.76 1076.972,191.76 C1070.396,191.76 1065.5,186.768 1065.5,179.952 C1065.5,173.184 1070.396,168.096 1076.972,168.096 C1080.668,168.096 1084.028,169.728 1085.852,172.416 L1085.852,168.624 Z M1077.548,188.352 C1081.628,188.352 1085.708,185.808 1085.708,179.952 C1085.708,174.096 1081.58,171.6 1077.548,171.6 C1072.796,171.6 1069.244,175.056 1069.244,180 C1069.244,184.944 1072.796,188.352 1077.548,188.352 Z M408.668,225.096 C413.996,225.096 417.788,228.312 417.788,234.6 L417.788,249 L414.332,249 L414.332,245.976 C412.652,248.232 409.916,249.528 406.46,249.528 C401.756,249.528 398.3,247.032 398.3,242.952 C398.3,239.016 401.612,236.424 406.7,236.424 L414.092,236.424 L414.092,234.408 C414.092,230.472 411.884,228.504 408.428,228.504 C405.5,228.504 403.436,229.896 401.612,232.248 L399.164,230.232 C401.372,226.68 404.924,225.096 408.668,225.096 Z M406.94,246.456 C410.78,246.456 414.092,243.672 414.092,240.024 L414.092,239.448 L407.132,239.448 C403.868,239.448 402.092,240.552 402.092,242.76 C402.092,245.256 404.348,246.456 406.94,246.456 Z M435.008,225.096 C440.528,225.096 443.696,228.888 443.696,234.312 L443.696,249 L440,249 L440,234.744 C440,231.048 437.792,228.504 434.192,228.504 C430.592,228.504 428.048,231.096 428.048,234.744 L428.048,249 L424.352,249 L424.352,225.624 L427.808,225.624 L427.808,228.168 C429.44,226.248 431.984,225.096 435.008,225.096 Z M470.84,225.096 C476.168,225.096 479.96,228.312 479.96,234.6 L479.96,249 L476.504,249 L476.504,245.976 C474.824,248.232 472.088,249.528 468.632,249.528 C463.928,249.528 460.472,247.032 460.472,242.952 C460.472,239.016 463.784,236.424 468.872,236.424 L476.264,236.424 L476.264,234.408 C476.264,230.472 474.056,228.504 470.6,228.504 C467.672,228.504 465.608,229.896 463.784,232.248 L461.336,230.232 C463.544,226.68 467.096,225.096 470.84,225.096 Z M469.112,246.456 C472.952,246.456 476.264,243.672 476.264,240.024 L476.264,239.448 L469.304,239.448 C466.04,239.448 464.264,240.552 464.264,242.76 C464.264,245.256 466.52,246.456 469.112,246.456 Z M505.58,225.624 L505.58,239.688 C505.58,245.688 501.308,249.528 495.932,249.528 C490.46,249.528 486.236,245.688 486.236,239.688 L486.236,225.624 L489.884,225.624 L489.884,239.928 C489.884,243.768 492.572,246.12 495.932,246.12 C499.196,246.12 501.884,243.768 501.884,239.928 L501.884,225.624 L505.58,225.624 Z M530.672,213 L534.368,213 L534.368,249 L530.864,249 L530.864,245.256 C529.04,247.944 525.728,249.528 522.032,249.528 C515.36,249.528 510.464,244.2 510.464,237.336 C510.464,230.424 515.36,225.096 522.032,225.096 C525.584,225.096 528.8,226.584 530.672,229.08 L530.672,213 Z M522.56,246.12 C526.592,246.12 530.72,243.48 530.72,237.336 C530.72,231.192 526.592,228.504 522.56,228.504 C517.808,228.504 514.256,232.2 514.256,237.288 C514.256,242.376 517.76,246.12 522.56,246.12 Z M543.092,214.008 C544.58,214.008 545.828,215.208 545.828,216.696 C545.828,218.232 544.58,219.384 543.092,219.384 C541.508,219.384 540.308,218.232 540.308,216.696 C540.308,215.208 541.508,214.008 543.092,214.008 Z M544.916,225.624 L544.916,249 L541.22,249 L541.22,225.624 L544.916,225.624 Z M562.328,225.096 C569.096,225.096 574.568,230.424 574.568,237.288 C574.568,244.104 569.096,249.48 562.28,249.48 C555.512,249.432 550.088,244.152 550.088,237.288 C550.088,230.424 555.464,225.096 562.328,225.096 Z M562.328,228.504 C557.432,228.504 553.832,232.344 553.88,237.336 C553.88,242.28 557.432,246.072 562.28,246.072 C567.128,246.072 570.776,242.232 570.776,237.336 C570.776,232.296 567.128,228.504 562.328,228.504 Z M607.136,225.624 L611.072,225.624 L600.08,249.528 L598.736,249.528 L587.696,225.624 L591.632,225.624 L599.408,243.24 L607.136,225.624 Z M617.012,214.008 C618.5,214.008 619.748,215.208 619.748,216.696 C619.748,218.232 618.5,219.384 617.012,219.384 C615.428,219.384 614.228,218.232 614.228,216.696 C614.228,215.208 615.428,214.008 617.012,214.008 Z M618.836,225.624 L618.836,249 L615.14,249 L615.14,225.624 L618.836,225.624 Z M632.744,225.096 C636.104,225.096 638.744,226.536 640.568,228.792 L638.312,231.096 C636.776,229.512 634.76,228.504 632.552,228.504 C630.344,228.504 628.664,229.512 628.664,231.432 C628.664,233.016 629.864,233.784 632.456,234.84 L634.616,235.752 C638.84,237.528 640.808,239.352 640.808,242.664 C640.808,247.224 636.92,249.528 632.6,249.528 C628.472,249.528 625.352,247.464 623.48,244.968 L625.832,242.52 C627.752,244.536 629.72,246.12 632.552,246.12 C635,246.12 637.016,244.92 637.016,242.808 C637.016,240.792 635.288,240.024 632.936,239.064 L630.68,238.104 C627.128,236.616 624.872,234.984 624.872,231.624 C624.872,227.4 628.472,225.096 632.744,225.096 Z M665.276,225.624 L665.276,239.688 C665.276,245.688 661.004,249.528 655.628,249.528 C650.156,249.528 645.932,245.688 645.932,239.688 L645.932,225.624 L649.58,225.624 L649.58,239.928 C649.58,243.768 652.268,246.12 655.628,246.12 C658.892,246.12 661.58,243.768 661.58,239.928 L661.58,225.624 L665.276,225.624 Z M680.24,225.096 C685.568,225.096 689.36,228.312 689.36,234.6 L689.36,249 L685.904,249 L685.904,245.976 C684.224,248.232 681.488,249.528 678.032,249.528 C673.328,249.528 669.872,247.032 669.872,242.952 C669.872,239.016 673.184,236.424 678.272,236.424 L685.664,236.424 L685.664,234.408 C685.664,230.472 683.456,228.504 680,228.504 C677.072,228.504 675.008,229.896 673.184,232.248 L670.736,230.232 C672.944,226.68 676.496,225.096 680.24,225.096 Z M678.512,246.456 C682.352,246.456 685.664,243.672 685.664,240.024 L685.664,239.448 L678.704,239.448 C675.44,239.448 673.664,240.552 673.664,242.76 C673.664,245.256 675.92,246.456 678.512,246.456 Z M699.62,213 L699.62,249 L695.924,249 L695.924,213 L699.62,213 Z M708.344,214.008 C709.832,214.008 711.08,215.208 711.08,216.696 C711.08,218.232 709.832,219.384 708.344,219.384 C706.76,219.384 705.56,218.232 705.56,216.696 C705.56,215.208 706.76,214.008 708.344,214.008 Z M710.168,225.624 L710.168,249 L706.472,249 L706.472,225.624 L710.168,225.624 Z M719.9,245.736 L733.436,245.736 L733.436,249 L714.236,249 L714.236,247.896 L727.58,228.936 L715.34,228.936 L715.34,225.624 L733.292,225.624 L733.292,226.728 L719.9,245.736 Z M758.48,235.656 C758.48,236.904 758.288,238.008 758.192,238.44 L739.76,238.44 C740.24,243.096 743.696,246.12 748.304,246.12 C751.232,246.12 753.536,244.872 755.456,242.952 L757.616,245.448 C755.264,247.944 752.096,249.528 748.256,249.528 C741.2,249.528 735.872,244.2 735.872,237.336 C735.872,230.52 741.104,225.096 747.824,225.096 C753.824,225.096 758.48,229.416 758.48,235.656 Z M747.728,228.456 C743.792,228.456 740.672,231.144 739.904,235.176 L754.688,235.176 C754.64,230.856 751.472,228.456 747.728,228.456 Z M774.404,225.432 C775.172,225.432 775.652,225.528 776.132,225.624 L776.132,228.888 L774.74,228.888 C770.948,228.888 767.396,231.288 767.396,235.752 L767.396,249 L763.7,249 L763.7,225.624 L767.156,225.624 L767.156,228.984 C768.884,226.68 771.62,225.432 774.404,225.432 Z M801.644,246.168 C802.556,246.168 803.564,246.072 804.764,245.88 L804.764,249 C803.564,249.288 802.364,249.528 800.876,249.528 C796.268,249.528 793.004,247.272 793.004,241.944 L793.004,228.936 L789.068,228.936 L789.068,225.624 L793.004,225.624 L793.004,219.24 L796.7,219.24 L796.7,225.624 L803.996,225.624 L803.996,228.936 L796.7,228.936 L796.7,241.704 C796.7,245.208 798.716,246.168 801.644,246.168 Z M819.728,225.096 C825.2,225.096 828.368,228.888 828.368,234.312 L828.368,249 L824.672,249 L824.672,234.792 C824.672,231.096 822.464,228.504 818.864,228.504 C815.264,228.504 812.72,231.144 812.72,234.792 L812.72,249 L809.024,249 L809.024,213 L812.72,213 L812.72,228.264 C814.256,226.296 816.704,225.096 819.728,225.096 Z M843.332,225.096 C848.66,225.096 852.452,228.312 852.452,234.6 L852.452,249 L848.996,249 L848.996,245.976 C847.316,248.232 844.58,249.528 841.124,249.528 C836.42,249.528 832.964,247.032 832.964,242.952 C832.964,239.016 836.276,236.424 841.364,236.424 L848.756,236.424 L848.756,234.408 C848.756,230.472 846.548,228.504 843.092,228.504 C840.164,228.504 838.1,229.896 836.276,232.248 L833.828,230.232 C836.036,226.68 839.588,225.096 843.332,225.096 Z M841.604,246.456 C845.444,246.456 848.756,243.672 848.756,240.024 L848.756,239.448 L841.796,239.448 C838.532,239.448 836.756,240.552 836.756,242.76 C836.756,245.256 839.012,246.456 841.604,246.456 Z M868.664,246.168 C869.576,246.168 870.584,246.072 871.784,245.88 L871.784,249 C870.584,249.288 869.384,249.528 867.896,249.528 C863.288,249.528 860.024,247.272 860.024,241.944 L860.024,228.936 L856.088,228.936 L856.088,225.624 L860.024,225.624 L860.024,219.24 L863.72,219.24 L863.72,225.624 L871.016,225.624 L871.016,228.936 L863.72,228.936 L863.72,241.704 C863.72,245.208 865.736,246.168 868.664,246.168 Z M906.752,213 L910.448,213 L910.448,249 L906.944,249 L906.944,245.256 C905.12,247.944 901.808,249.528 898.112,249.528 C891.44,249.528 886.544,244.2 886.544,237.336 C886.544,230.424 891.44,225.096 898.112,225.096 C901.664,225.096 904.88,226.584 906.752,229.08 L906.752,213 Z M898.64,246.12 C902.672,246.12 906.8,243.48 906.8,237.336 C906.8,231.192 902.672,228.504 898.64,228.504 C893.888,228.504 890.336,232.2 890.336,237.288 C890.336,242.376 893.84,246.12 898.64,246.12 Z M938.228,235.656 C938.228,236.904 938.036,238.008 937.94,238.44 L919.508,238.44 C919.988,243.096 923.444,246.12 928.052,246.12 C930.98,246.12 933.284,244.872 935.204,242.952 L937.364,245.448 C935.012,247.944 931.844,249.528 928.004,249.528 C920.948,249.528 915.62,244.2 915.62,237.336 C915.62,230.52 920.852,225.096 927.572,225.096 C933.572,225.096 938.228,229.416 938.228,235.656 Z M927.476,228.456 C923.54,228.456 920.42,231.144 919.652,235.176 L934.436,235.176 C934.388,230.856 931.22,228.456 927.476,228.456 Z M953.096,246.168 C954.008,246.168 955.016,246.072 956.216,245.88 L956.216,249 C955.016,249.288 953.816,249.528 952.328,249.528 C947.72,249.528 944.456,247.272 944.456,241.944 L944.456,228.936 L940.52,228.936 L940.52,225.624 L944.456,225.624 L944.456,219.24 L948.152,219.24 L948.152,225.624 L955.448,225.624 L955.448,228.936 L948.152,228.936 L948.152,241.704 C948.152,245.208 950.168,246.168 953.096,246.168 Z M980.924,235.656 C980.924,236.904 980.732,238.008 980.636,238.44 L962.204,238.44 C962.684,243.096 966.14,246.12 970.748,246.12 C973.676,246.12 975.98,244.872 977.9,242.952 L980.06,245.448 C977.708,247.944 974.54,249.528 970.7,249.528 C963.644,249.528 958.316,244.2 958.316,237.336 C958.316,230.52 963.548,225.096 970.268,225.096 C976.268,225.096 980.924,229.416 980.924,235.656 Z M970.172,228.456 C966.236,228.456 963.116,231.144 962.348,235.176 L977.132,235.176 C977.084,230.856 973.916,228.456 970.172,228.456 Z M996.704,225.096 C1000.928,225.096 1004.288,227.112 1006.352,230.184 L1003.712,232.296 C1001.984,229.992 999.776,228.504 996.752,228.504 C991.856,228.504 988.256,232.392 988.256,237.288 C988.256,242.232 991.856,246.12 996.752,246.12 C999.728,246.12 1001.936,244.68 1003.664,242.376 L1006.304,244.44 C1004.24,247.512 1000.88,249.528 996.704,249.528 C989.888,249.528 984.464,244.152 984.464,237.288 C984.464,230.472 989.888,225.096 996.704,225.096 Z M1020.98,246.168 C1021.892,246.168 1022.9,246.072 1024.1,245.88 L1024.1,249 C1022.9,249.288 1021.7,249.528 1020.212,249.528 C1015.604,249.528 1012.34,247.272 1012.34,241.944 L1012.34,228.936 L1008.404,228.936 L1008.404,225.624 L1012.34,225.624 L1012.34,219.24 L1016.036,219.24 L1016.036,225.624 L1023.332,225.624 L1023.332,228.936 L1016.036,228.936 L1016.036,241.704 C1016.036,245.208 1018.052,246.168 1020.98,246.168 Z M1035.416,225.096 C1038.776,225.096 1041.416,226.536 1043.24,228.792 L1040.984,231.096 C1039.448,229.512 1037.432,228.504 1035.224,228.504 C1033.016,228.504 1031.336,229.512 1031.336,231.432 C1031.336,233.016 1032.536,233.784 1035.128,234.84 L1037.288,235.752 C1041.512,237.528 1043.48,239.352 1043.48,242.664 C1043.48,247.224 1039.592,249.528 1035.272,249.528 C1031.144,249.528 1028.024,247.464 1026.152,244.968 L1028.504,242.52 C1030.424,244.536 1032.392,246.12 1035.224,246.12 C1037.672,246.12 1039.688,244.92 1039.688,242.808 C1039.688,240.792 1037.96,240.024 1035.608,239.064 L1033.352,238.104 C1029.8,236.616 1027.544,234.984 1027.544,231.624 C1027.544,227.4 1031.144,225.096 1035.416,225.096 Z M395.768,270 L399.464,270 L399.464,306 L395.96,306 L395.96,302.256 C394.136,304.944 390.824,306.528 387.128,306.528 C380.456,306.528 375.56,301.2 375.56,294.336 C375.56,287.424 380.456,282.096 387.128,282.096 C390.68,282.096 393.896,283.584 395.768,286.08 L395.768,270 Z M387.656,303.12 C391.688,303.12 395.816,300.48 395.816,294.336 C395.816,288.192 391.688,285.504 387.656,285.504 C382.904,285.504 379.352,289.2 379.352,294.288 C379.352,299.376 382.856,303.12 387.656,303.12 Z M408.188,271.008 C409.676,271.008 410.924,272.208 410.924,273.696 C410.924,275.232 409.676,276.384 408.188,276.384 C406.604,276.384 405.404,275.232 405.404,273.696 C405.404,272.208 406.604,271.008 408.188,271.008 Z M410.012,282.624 L410.012,306 L406.316,306 L406.316,282.624 L410.012,282.624 Z M426.032,272.832 C423.152,272.832 421.136,273.792 421.136,277.296 L421.136,282.624 L426.992,282.624 L426.992,285.936 L421.136,285.936 L421.136,306 L417.44,306 L417.44,285.936 L414.08,285.936 L414.08,282.624 L417.44,282.624 L417.44,277.056 C417.44,271.728 420.656,269.472 425.168,269.472 C426.32,269.472 427.232,269.616 428.096,269.856 L428.096,272.976 C427.328,272.88 426.656,272.832 426.032,272.832 Z M437.876,272.832 C434.996,272.832 432.98,273.792 432.98,277.296 L432.98,282.624 L438.836,282.624 L438.836,285.936 L432.98,285.936 L432.98,306 L429.284,306 L429.284,285.936 L425.924,285.936 L425.924,282.624 L429.284,282.624 L429.284,277.056 C429.284,271.728 432.5,269.472 437.012,269.472 C438.164,269.472 439.076,269.616 439.94,269.856 L439.94,272.976 C439.172,272.88 438.5,272.832 437.876,272.832 Z M462.92,292.656 C462.92,293.904 462.728,295.008 462.632,295.44 L444.2,295.44 C444.68,300.096 448.136,303.12 452.744,303.12 C455.672,303.12 457.976,301.872 459.896,299.952 L462.056,302.448 C459.704,304.944 456.536,306.528 452.696,306.528 C445.64,306.528 440.312,301.2 440.312,294.336 C440.312,287.52 445.544,282.096 452.264,282.096 C458.264,282.096 462.92,286.416 462.92,292.656 Z M452.168,285.456 C448.232,285.456 445.112,288.144 444.344,292.176 L459.128,292.176 C459.08,287.856 455.912,285.456 452.168,285.456 Z M478.844,282.432 C479.612,282.432 480.092,282.528 480.572,282.624 L480.572,285.888 L479.18,285.888 C475.388,285.888 471.836,288.288 471.836,292.752 L471.836,306 L468.14,306 L468.14,282.624 L471.596,282.624 L471.596,285.984 C473.324,283.68 476.06,282.432 478.844,282.432 Z M504.704,292.656 C504.704,293.904 504.512,295.008 504.416,295.44 L485.984,295.44 C486.464,300.096 489.92,303.12 494.528,303.12 C497.456,303.12 499.76,301.872 501.68,299.952 L503.84,302.448 C501.488,304.944 498.32,306.528 494.48,306.528 C487.424,306.528 482.096,301.2 482.096,294.336 C482.096,287.52 487.328,282.096 494.048,282.096 C500.048,282.096 504.704,286.416 504.704,292.656 Z M493.952,285.456 C490.016,285.456 486.896,288.144 486.128,292.176 L500.912,292.176 C500.864,287.856 497.696,285.456 493.952,285.456 Z M520.58,282.096 C526.1,282.096 529.268,285.888 529.268,291.312 L529.268,306 L525.572,306 L525.572,291.744 C525.572,288.048 523.364,285.504 519.764,285.504 C516.164,285.504 513.62,288.096 513.62,291.744 L513.62,306 L509.924,306 L509.924,282.624 L513.38,282.624 L513.38,285.168 C515.012,283.248 517.556,282.096 520.58,282.096 Z M545.48,303.168 C546.392,303.168 547.4,303.072 548.6,302.88 L548.6,306 C547.4,306.288 546.2,306.528 544.712,306.528 C540.104,306.528 536.84,304.272 536.84,298.944 L536.84,285.936 L532.904,285.936 L532.904,282.624 L536.84,282.624 L536.84,276.24 L540.536,276.24 L540.536,282.624 L547.832,282.624 L547.832,285.936 L540.536,285.936 L540.536,298.704 C540.536,302.208 542.552,303.168 545.48,303.168 Z M575.744,282.432 C576.512,282.432 576.992,282.528 577.472,282.624 L577.472,285.888 L576.08,285.888 C572.288,285.888 568.736,288.288 568.736,292.752 L568.736,306 L565.04,306 L565.04,282.624 L568.496,282.624 L568.496,285.984 C570.224,283.68 572.96,282.432 575.744,282.432 Z M589.076,282.096 C594.404,282.096 598.196,285.312 598.196,291.6 L598.196,306 L594.74,306 L594.74,302.976 C593.06,305.232 590.324,306.528 586.868,306.528 C582.164,306.528 578.708,304.032 578.708,299.952 C578.708,296.016 582.02,293.424 587.108,293.424 L594.5,293.424 L594.5,291.408 C594.5,287.472 592.292,285.504 588.836,285.504 C585.908,285.504 583.844,286.896 582.02,289.248 L579.572,287.232 C581.78,283.68 585.332,282.096 589.076,282.096 Z M587.348,303.456 C591.188,303.456 594.5,300.672 594.5,297.024 L594.5,296.448 L587.54,296.448 C584.276,296.448 582.5,297.552 582.5,299.76 C582.5,302.256 584.756,303.456 587.348,303.456 Z M615.416,282.096 C620.936,282.096 624.104,285.888 624.104,291.312 L624.104,306 L620.408,306 L620.408,291.744 C620.408,288.048 618.2,285.504 614.6,285.504 C611,285.504 608.456,288.096 608.456,291.744 L608.456,306 L604.76,306 L604.76,282.624 L608.216,282.624 L608.216,285.168 C609.848,283.248 612.392,282.096 615.416,282.096 Z M649.628,282.624 L653.132,282.624 L653.132,303.744 C653.132,310.944 648.572,315.168 641.756,315.168 C636.86,315.168 633.068,312.96 630.764,310.656 L632.924,308.064 C635.18,310.032 637.82,311.76 641.66,311.76 C646.412,311.76 649.436,309.12 649.436,303.936 L649.436,301.872 C647.516,304.32 644.252,305.76 640.748,305.76 C634.172,305.76 629.276,300.768 629.276,293.952 C629.276,287.184 634.172,282.096 640.748,282.096 C644.444,282.096 647.804,283.728 649.628,286.416 L649.628,282.624 Z M641.324,302.352 C645.404,302.352 649.484,299.808 649.484,293.952 C649.484,288.096 645.356,285.6 641.324,285.6 C636.572,285.6 633.02,289.056 633.02,294 C633.02,298.944 636.572,302.352 641.324,302.352 Z M680.912,292.656 C680.912,293.904 680.72,295.008 680.624,295.44 L662.192,295.44 C662.672,300.096 666.128,303.12 670.736,303.12 C673.664,303.12 675.968,301.872 677.888,299.952 L680.048,302.448 C677.696,304.944 674.528,306.528 670.688,306.528 C663.632,306.528 658.304,301.2 658.304,294.336 C658.304,287.52 663.536,282.096 670.256,282.096 C676.256,282.096 680.912,286.416 680.912,292.656 Z M670.16,285.456 C666.224,285.456 663.104,288.144 662.336,292.176 L677.12,292.176 C677.072,287.856 673.904,285.456 670.16,285.456 Z M693.188,282.096 C696.548,282.096 699.188,283.536 701.012,285.792 L698.756,288.096 C697.22,286.512 695.204,285.504 692.996,285.504 C690.788,285.504 689.108,286.512 689.108,288.432 C689.108,290.016 690.308,290.784 692.9,291.84 L695.06,292.752 C699.284,294.528 701.252,296.352 701.252,299.664 C701.252,304.224 697.364,306.528 693.044,306.528 C688.916,306.528 685.796,304.464 683.924,301.968 L686.276,299.52 C688.196,301.536 690.164,303.12 692.996,303.12 C695.444,303.12 697.46,301.92 697.46,299.808 C697.46,297.792 695.732,297.024 693.38,296.064 L691.124,295.104 C687.572,293.616 685.316,291.984 685.316,288.624 C685.316,284.4 688.916,282.096 693.188,282.096 Z M729.404,282.096 C736.172,282.096 741.644,287.424 741.644,294.288 C741.644,301.104 736.172,306.48 729.356,306.48 C722.588,306.432 717.164,301.152 717.164,294.288 C717.164,287.424 722.54,282.096 729.404,282.096 Z M729.404,285.504 C724.508,285.504 720.908,289.344 720.956,294.336 C720.956,299.28 724.508,303.072 729.356,303.072 C734.204,303.072 737.852,299.232 737.852,294.336 C737.852,289.296 734.204,285.504 729.404,285.504 Z M756.032,272.832 C753.152,272.832 751.136,273.792 751.136,277.296 L751.136,282.624 L756.992,282.624 L756.992,285.936 L751.136,285.936 L751.136,306 L747.44,306 L747.44,285.936 L744.08,285.936 L744.08,282.624 L747.44,282.624 L747.44,277.056 C747.44,271.728 750.656,269.472 755.168,269.472 C756.32,269.472 757.232,269.616 758.096,269.856 L758.096,272.976 C757.328,272.88 756.656,272.832 756.032,272.832 Z M780.056,272.832 C777.176,272.832 775.16,273.792 775.16,277.296 L775.16,282.624 L781.016,282.624 L781.016,285.936 L775.16,285.936 L775.16,306 L771.464,306 L771.464,285.936 L768.104,285.936 L768.104,282.624 L771.464,282.624 L771.464,277.056 C771.464,271.728 774.68,269.472 779.192,269.472 C780.344,269.472 781.256,269.616 782.12,269.856 L782.12,272.976 C781.352,272.88 780.68,272.832 780.056,272.832 Z M794.876,282.432 C795.644,282.432 796.124,282.528 796.604,282.624 L796.604,285.888 L795.212,285.888 C791.42,285.888 787.868,288.288 787.868,292.752 L787.868,306 L784.172,306 L784.172,282.624 L787.628,282.624 L787.628,285.984 C789.356,283.68 792.092,282.432 794.876,282.432 Z M820.736,292.656 C820.736,293.904 820.544,295.008 820.448,295.44 L802.016,295.44 C802.496,300.096 805.952,303.12 810.56,303.12 C813.488,303.12 815.792,301.872 817.712,299.952 L819.872,302.448 C817.52,304.944 814.352,306.528 810.512,306.528 C803.456,306.528 798.128,301.2 798.128,294.336 C798.128,287.52 803.36,282.096 810.08,282.096 C816.08,282.096 820.736,286.416 820.736,292.656 Z M809.984,285.456 C806.048,285.456 802.928,288.144 802.16,292.176 L816.944,292.176 C816.896,287.856 813.728,285.456 809.984,285.456 Z M844.676,282.624 L848.18,282.624 L848.18,314.64 L844.484,314.64 L844.484,302.592 C842.564,305.088 839.3,306.528 835.844,306.528 C829.172,306.528 824.276,301.2 824.276,294.288 C824.276,287.424 829.172,282.096 835.844,282.096 C839.54,282.096 842.852,283.728 844.676,286.368 L844.676,282.624 Z M836.372,303.12 C840.404,303.12 844.532,300.432 844.532,294.288 C844.532,288.144 840.404,285.504 836.372,285.504 C831.572,285.504 828.068,289.296 828.068,294.336 C828.068,299.424 831.62,303.12 836.372,303.12 Z M874.088,282.624 L874.088,296.688 C874.088,302.688 869.816,306.528 864.44,306.528 C858.968,306.528 854.744,302.688 854.744,296.688 L854.744,282.624 L858.392,282.624 L858.392,296.928 C858.392,300.768 861.08,303.12 864.44,303.12 C867.704,303.12 870.392,300.768 870.392,296.928 L870.392,282.624 L874.088,282.624 Z M901.58,292.656 C901.58,293.904 901.388,295.008 901.292,295.44 L882.86,295.44 C883.34,300.096 886.796,303.12 891.404,303.12 C894.332,303.12 896.636,301.872 898.556,299.952 L900.716,302.448 C898.364,304.944 895.196,306.528 891.356,306.528 C884.3,306.528 878.972,301.2 878.972,294.336 C878.972,287.52 884.204,282.096 890.924,282.096 C896.924,282.096 901.58,286.416 901.58,292.656 Z M890.828,285.456 C886.892,285.456 883.772,288.144 883.004,292.176 L897.788,292.176 C897.74,287.856 894.572,285.456 890.828,285.456 Z M917.456,282.096 C922.976,282.096 926.144,285.888 926.144,291.312 L926.144,306 L922.448,306 L922.448,291.744 C922.448,288.048 920.24,285.504 916.64,285.504 C913.04,285.504 910.496,288.096 910.496,291.744 L910.496,306 L906.8,306 L906.8,282.624 L910.256,282.624 L910.256,285.168 C911.888,283.248 914.432,282.096 917.456,282.096 Z M943.268,282.096 C947.492,282.096 950.852,284.112 952.916,287.184 L950.276,289.296 C948.548,286.992 946.34,285.504 943.316,285.504 C938.42,285.504 934.82,289.392 934.82,294.288 C934.82,299.232 938.42,303.12 943.316,303.12 C946.292,303.12 948.5,301.68 950.228,299.376 L952.868,301.44 C950.804,304.512 947.444,306.528 943.268,306.528 C936.452,306.528 931.028,301.152 931.028,294.288 C931.028,287.472 936.452,282.096 943.268,282.096 Z M959.768,271.008 C961.256,271.008 962.504,272.208 962.504,273.696 C962.504,275.232 961.256,276.384 959.768,276.384 C958.184,276.384 956.984,275.232 956.984,273.696 C956.984,272.208 958.184,271.008 959.768,271.008 Z M961.592,282.624 L961.592,306 L957.896,306 L957.896,282.624 L961.592,282.624 Z M989.372,292.656 C989.372,293.904 989.18,295.008 989.084,295.44 L970.652,295.44 C971.132,300.096 974.588,303.12 979.196,303.12 C982.124,303.12 984.428,301.872 986.348,299.952 L988.508,302.448 C986.156,304.944 982.988,306.528 979.148,306.528 C972.092,306.528 966.764,301.2 966.764,294.336 C966.764,287.52 971.996,282.096 978.716,282.096 C984.716,282.096 989.372,286.416 989.372,292.656 Z M978.62,285.456 C974.684,285.456 971.564,288.144 970.796,292.176 L985.58,292.176 C985.532,287.856 982.364,285.456 978.62,285.456 Z M1001.648,282.096 C1005.008,282.096 1007.648,283.536 1009.472,285.792 L1007.216,288.096 C1005.68,286.512 1003.664,285.504 1001.456,285.504 C999.248,285.504 997.568,286.512 997.568,288.432 C997.568,290.016 998.768,290.784 1001.36,291.84 L1003.52,292.752 C1007.744,294.528 1009.712,296.352 1009.712,299.664 C1009.712,304.224 1005.824,306.528 1001.504,306.528 C997.376,306.528 994.256,304.464 992.384,301.968 L994.736,299.52 C996.656,301.536 998.624,303.12 1001.456,303.12 C1003.904,303.12 1005.92,301.92 1005.92,299.808 C1005.92,297.792 1004.192,297.024 1001.84,296.064 L999.584,295.104 C996.032,293.616 993.776,291.984 993.776,288.624 C993.776,284.4 997.376,282.096 1001.648,282.096 Z M1035.704,282.096 C1041.032,282.096 1044.824,285.312 1044.824,291.6 L1044.824,306 L1041.368,306 L1041.368,302.976 C1039.688,305.232 1036.952,306.528 1033.496,306.528 C1028.792,306.528 1025.336,304.032 1025.336,299.952 C1025.336,296.016 1028.648,293.424 1033.736,293.424 L1041.128,293.424 L1041.128,291.408 C1041.128,287.472 1038.92,285.504 1035.464,285.504 C1032.536,285.504 1030.472,286.896 1028.648,289.248 L1026.2,287.232 C1028.408,283.68 1031.96,282.096 1035.704,282.096 Z M1033.976,303.456 C1037.816,303.456 1041.128,300.672 1041.128,297.024 L1041.128,296.448 L1034.168,296.448 C1030.904,296.448 1029.128,297.552 1029.128,299.76 C1029.128,302.256 1031.384,303.456 1033.976,303.456 Z M1058.444,282.096 C1061.804,282.096 1064.444,283.536 1066.268,285.792 L1064.012,288.096 C1062.476,286.512 1060.46,285.504 1058.252,285.504 C1056.044,285.504 1054.364,286.512 1054.364,288.432 C1054.364,290.016 1055.564,290.784 1058.156,291.84 L1060.316,292.752 C1064.54,294.528 1066.508,296.352 1066.508,299.664 C1066.508,304.224 1062.62,306.528 1058.3,306.528 C1054.172,306.528 1051.052,304.464 1049.18,301.968 L1051.532,299.52 C1053.452,301.536 1055.42,303.12 1058.252,303.12 C1060.7,303.12 1062.716,301.92 1062.716,299.808 C1062.716,297.792 1060.988,297.024 1058.636,296.064 L1056.38,295.104 C1052.828,293.616 1050.572,291.984 1050.572,288.624 C1050.572,284.4 1054.172,282.096 1058.444,282.096 Z M453.446,339.624 L457.382,339.624 L447.542,363.528 L446.198,363.528 L438.23,345.864 L430.31,363.528 L429.014,363.528 L419.078,339.624 L423.014,339.624 L429.734,356.904 L437.558,339.096 L438.95,339.096 L446.822,356.808 L453.446,339.624 Z M481.466,349.656 C481.466,350.904 481.274,352.008 481.178,352.44 L462.746,352.44 C463.226,357.096 466.682,360.12 471.29,360.12 C474.218,360.12 476.522,358.872 478.442,356.952 L480.602,359.448 C478.25,361.944 475.082,363.528 471.242,363.528 C464.186,363.528 458.858,358.2 458.858,351.336 C458.858,344.52 464.09,339.096 470.81,339.096 C476.81,339.096 481.466,343.416 481.466,349.656 Z M470.714,342.456 C466.778,342.456 463.658,345.144 462.89,349.176 L477.674,349.176 C477.626,344.856 474.458,342.456 470.714,342.456 Z M490.382,327 L490.382,363 L486.686,363 L486.686,327 L490.382,327 Z M500.93,327 L500.93,363 L497.234,363 L497.234,327 L500.93,327 Z M528.362,339.096 C533.69,339.096 537.482,342.312 537.482,348.6 L537.482,363 L534.026,363 L534.026,359.976 C532.346,362.232 529.61,363.528 526.154,363.528 C521.45,363.528 517.994,361.032 517.994,356.952 C517.994,353.016 521.306,350.424 526.394,350.424 L533.786,350.424 L533.786,348.408 C533.786,344.472 531.578,342.504 528.122,342.504 C525.194,342.504 523.13,343.896 521.306,346.248 L518.858,344.232 C521.066,340.68 524.618,339.096 528.362,339.096 Z M526.634,360.456 C530.474,360.456 533.786,357.672 533.786,354.024 L533.786,353.448 L526.826,353.448 C523.562,353.448 521.786,354.552 521.786,356.76 C521.786,359.256 524.042,360.456 526.634,360.456 Z M551.102,339.096 C554.462,339.096 557.102,340.536 558.926,342.792 L556.67,345.096 C555.134,343.512 553.118,342.504 550.91,342.504 C548.702,342.504 547.022,343.512 547.022,345.432 C547.022,347.016 548.222,347.784 550.814,348.84 L552.974,349.752 C557.198,351.528 559.166,353.352 559.166,356.664 C559.166,361.224 555.278,363.528 550.958,363.528 C546.83,363.528 543.71,361.464 541.838,358.968 L544.19,356.52 C546.11,358.536 548.078,360.12 550.91,360.12 C553.358,360.12 555.374,358.92 555.374,356.808 C555.374,354.792 553.646,354.024 551.294,353.064 L549.038,352.104 C545.486,350.616 543.23,348.984 543.23,345.624 C543.23,341.4 546.83,339.096 551.102,339.096 Z M595.286,327 L598.982,327 L598.982,363 L595.478,363 L595.478,359.256 C593.654,361.944 590.342,363.528 586.646,363.528 C579.974,363.528 575.078,358.2 575.078,351.336 C575.078,344.424 579.974,339.096 586.646,339.096 C590.198,339.096 593.414,340.584 595.286,343.08 L595.286,327 Z M587.174,360.12 C591.206,360.12 595.334,357.48 595.334,351.336 C595.334,345.192 591.206,342.504 587.174,342.504 C582.422,342.504 578.87,346.2 578.87,351.288 C578.87,356.376 582.374,360.12 587.174,360.12 Z M607.706,328.008 C609.194,328.008 610.442,329.208 610.442,330.696 C610.442,332.232 609.194,333.384 607.706,333.384 C606.122,333.384 604.922,332.232 604.922,330.696 C604.922,329.208 606.122,328.008 607.706,328.008 Z M609.53,339.624 L609.53,363 L605.834,363 L605.834,339.624 L609.53,339.624 Z M625.55,329.832 C622.67,329.832 620.654,330.792 620.654,334.296 L620.654,339.624 L626.51,339.624 L626.51,342.936 L620.654,342.936 L620.654,363 L616.958,363 L616.958,342.936 L613.598,342.936 L613.598,339.624 L616.958,339.624 L616.958,334.056 C616.958,328.728 620.174,326.472 624.686,326.472 C625.838,326.472 626.75,326.616 627.614,326.856 L627.614,329.976 C626.846,329.88 626.174,329.832 625.55,329.832 Z M637.394,329.832 C634.514,329.832 632.498,330.792 632.498,334.296 L632.498,339.624 L638.354,339.624 L638.354,342.936 L632.498,342.936 L632.498,363 L628.802,363 L628.802,342.936 L625.442,342.936 L625.442,339.624 L628.802,339.624 L628.802,334.056 C628.802,328.728 632.018,326.472 636.53,326.472 C637.682,326.472 638.594,326.616 639.458,326.856 L639.458,329.976 C638.69,329.88 638.018,329.832 637.394,329.832 Z M662.438,349.656 C662.438,350.904 662.246,352.008 662.15,352.44 L643.718,352.44 C644.198,357.096 647.654,360.12 652.262,360.12 C655.19,360.12 657.494,358.872 659.414,356.952 L661.574,359.448 C659.222,361.944 656.054,363.528 652.214,363.528 C645.158,363.528 639.83,358.2 639.83,351.336 C639.83,344.52 645.062,339.096 651.782,339.096 C657.782,339.096 662.438,343.416 662.438,349.656 Z M651.686,342.456 C647.75,342.456 644.63,345.144 643.862,349.176 L658.646,349.176 C658.598,344.856 655.43,342.456 651.686,342.456 Z M678.362,339.432 C679.13,339.432 679.61,339.528 680.09,339.624 L680.09,342.888 L678.698,342.888 C674.906,342.888 671.354,345.288 671.354,349.752 L671.354,363 L667.658,363 L667.658,339.624 L671.114,339.624 L671.114,342.984 C672.842,340.68 675.578,339.432 678.362,339.432 Z M704.222,349.656 C704.222,350.904 704.03,352.008 703.934,352.44 L685.502,352.44 C685.982,357.096 689.438,360.12 694.046,360.12 C696.974,360.12 699.278,358.872 701.198,356.952 L703.358,359.448 C701.006,361.944 697.838,363.528 693.998,363.528 C686.942,363.528 681.614,358.2 681.614,351.336 C681.614,344.52 686.846,339.096 693.566,339.096 C699.566,339.096 704.222,343.416 704.222,349.656 Z M693.47,342.456 C689.534,342.456 686.414,345.144 685.646,349.176 L700.43,349.176 C700.382,344.856 697.214,342.456 693.47,342.456 Z M720.098,339.096 C725.618,339.096 728.786,342.888 728.786,348.312 L728.786,363 L725.09,363 L725.09,348.744 C725.09,345.048 722.882,342.504 719.282,342.504 C715.682,342.504 713.138,345.096 713.138,348.744 L713.138,363 L709.442,363 L709.442,339.624 L712.898,339.624 L712.898,342.168 C714.53,340.248 717.074,339.096 720.098,339.096 Z M744.998,360.168 C745.91,360.168 746.918,360.072 748.118,359.88 L748.118,363 C746.918,363.288 745.718,363.528 744.23,363.528 C739.622,363.528 736.358,361.272 736.358,355.944 L736.358,342.936 L732.422,342.936 L732.422,339.624 L736.358,339.624 L736.358,333.24 L740.054,333.24 L740.054,339.624 L747.35,339.624 L747.35,342.936 L740.054,342.936 L740.054,355.704 C740.054,359.208 742.07,360.168 744.998,360.168 Z M776.846,339.096 C783.518,339.096 788.414,344.424 788.414,351.336 C788.414,358.2 783.566,363.528 776.894,363.528 C773.246,363.528 769.838,361.944 768.014,359.256 L768.014,363 L764.558,363 L764.558,327 L768.254,327 L768.254,343.08 C770.078,340.632 773.294,339.096 776.846,339.096 Z M776.318,360.12 C781.118,360.12 784.622,356.376 784.622,351.288 C784.622,346.2 781.07,342.504 776.318,342.504 C772.238,342.504 768.206,345.192 768.206,351.336 C768.206,357.48 772.286,360.12 776.318,360.12 Z M814.562,349.656 C814.562,350.904 814.37,352.008 814.274,352.44 L795.842,352.44 C796.322,357.096 799.778,360.12 804.386,360.12 C807.314,360.12 809.618,358.872 811.538,356.952 L813.698,359.448 C811.346,361.944 808.178,363.528 804.338,363.528 C797.282,363.528 791.954,358.2 791.954,351.336 C791.954,344.52 797.186,339.096 803.906,339.096 C809.906,339.096 814.562,343.416 814.562,349.656 Z M803.81,342.456 C799.874,342.456 796.754,345.144 795.986,349.176 L810.77,349.176 C810.722,344.856 807.554,342.456 803.81,342.456 Z M828.182,339.096 C833.51,339.096 837.302,342.312 837.302,348.6 L837.302,363 L833.846,363 L833.846,359.976 C832.166,362.232 829.43,363.528 825.974,363.528 C821.27,363.528 817.814,361.032 817.814,356.952 C817.814,353.016 821.126,350.424 826.214,350.424 L833.606,350.424 L833.606,348.408 C833.606,344.472 831.398,342.504 827.942,342.504 C825.014,342.504 822.95,343.896 821.126,346.248 L818.678,344.232 C820.886,340.68 824.438,339.096 828.182,339.096 Z M826.454,360.456 C830.294,360.456 833.606,357.672 833.606,354.024 L833.606,353.448 L826.646,353.448 C823.382,353.448 821.606,354.552 821.606,356.76 C821.606,359.256 823.862,360.456 826.454,360.456 Z M853.514,360.168 C854.426,360.168 855.434,360.072 856.634,359.88 L856.634,363 C855.434,363.288 854.234,363.528 852.746,363.528 C848.138,363.528 844.874,361.272 844.874,355.944 L844.874,342.936 L840.938,342.936 L840.938,339.624 L844.874,339.624 L844.874,333.24 L848.57,333.24 L848.57,339.624 L855.866,339.624 L855.866,342.936 L848.57,342.936 L848.57,355.704 C848.57,359.208 850.586,360.168 853.514,360.168 Z M867.95,339.096 C871.31,339.096 873.95,340.536 875.774,342.792 L873.518,345.096 C871.982,343.512 869.966,342.504 867.758,342.504 C865.55,342.504 863.87,343.512 863.87,345.432 C863.87,347.016 865.07,347.784 867.662,348.84 L869.822,349.752 C874.046,351.528 876.014,353.352 876.014,356.664 C876.014,361.224 872.126,363.528 867.806,363.528 C863.678,363.528 860.558,361.464 858.686,358.968 L861.038,356.52 C862.958,358.536 864.926,360.12 867.758,360.12 C870.206,360.12 872.222,358.92 872.222,356.808 C872.222,354.792 870.494,354.024 868.142,353.064 L865.886,352.104 C862.334,350.616 860.078,348.984 860.078,345.624 C860.078,341.4 863.678,339.096 867.95,339.096 Z M883.826,357.48 C885.458,357.48 886.85,358.728 886.85,360.504 C886.85,362.28 885.458,363.528 883.826,363.528 C882.194,363.528 880.802,362.28 880.802,360.504 C880.802,358.728 882.194,357.48 883.826,357.48 Z M909.338,331.32 L909.338,363 L905.594,363 L905.594,331.32 L909.338,331.32 Z M925.886,360.168 C926.798,360.168 927.806,360.072 929.006,359.88 L929.006,363 C927.806,363.288 926.606,363.528 925.118,363.528 C920.51,363.528 917.246,361.272 917.246,355.944 L917.246,342.936 L913.31,342.936 L913.31,339.624 L917.246,339.624 L917.246,333.24 L920.942,333.24 L920.942,339.624 L928.238,339.624 L928.238,342.936 L920.942,342.936 L920.942,355.704 C920.942,359.208 922.958,360.168 925.886,360.168 Z M975.542,339.624 L979.478,339.624 L969.638,363.528 L968.294,363.528 L960.326,345.864 L952.406,363.528 L951.11,363.528 L941.174,339.624 L945.11,339.624 L951.83,356.904 L959.654,339.096 L961.046,339.096 L968.918,356.808 L975.542,339.624 Z M991.034,339.096 C996.362,339.096 1000.154,342.312 1000.154,348.6 L1000.154,363 L996.698,363 L996.698,359.976 C995.018,362.232 992.282,363.528 988.826,363.528 C984.122,363.528 980.666,361.032 980.666,356.952 C980.666,353.016 983.978,350.424 989.066,350.424 L996.458,350.424 L996.458,348.408 C996.458,344.472 994.25,342.504 990.794,342.504 C987.866,342.504 985.802,343.896 983.978,346.248 L981.53,344.232 C983.738,340.68 987.29,339.096 991.034,339.096 Z M989.306,360.456 C993.146,360.456 996.458,357.672 996.458,354.024 L996.458,353.448 L989.498,353.448 C986.234,353.448 984.458,354.552 984.458,356.76 C984.458,359.256 986.714,360.456 989.306,360.456 Z M1013.774,339.096 C1017.134,339.096 1019.774,340.536 1021.598,342.792 L1019.342,345.096 C1017.806,343.512 1015.79,342.504 1013.582,342.504 C1011.374,342.504 1009.694,343.512 1009.694,345.432 C1009.694,347.016 1010.894,347.784 1013.486,348.84 L1015.646,349.752 C1019.87,351.528 1021.838,353.352 1021.838,356.664 C1021.838,361.224 1017.95,363.528 1013.63,363.528 C1009.502,363.528 1006.382,361.464 1004.51,358.968 L1006.862,356.52 C1008.782,358.536 1010.75,360.12 1013.582,360.12 C1016.03,360.12 1018.046,358.92 1018.046,356.808 C1018.046,354.792 1016.318,354.024 1013.966,353.064 L1011.71,352.104 C1008.158,350.616 1005.902,348.984 1005.902,345.624 C1005.902,341.4 1009.502,339.096 1013.774,339.096 Z M411.536,396.624 L415.472,396.624 L405.632,420.528 L404.288,420.528 L396.32,402.864 L388.4,420.528 L387.104,420.528 L377.168,396.624 L381.104,396.624 L387.824,413.904 L395.648,396.096 L397.04,396.096 L404.912,413.808 L411.536,396.624 Z M430.292,396.432 C431.06,396.432 431.54,396.528 432.02,396.624 L432.02,399.888 L430.628,399.888 C426.836,399.888 423.284,402.288 423.284,406.752 L423.284,420 L419.588,420 L419.588,396.624 L423.044,396.624 L423.044,399.984 C424.772,397.68 427.508,396.432 430.292,396.432 Z M437.576,385.008 C439.064,385.008 440.312,386.208 440.312,387.696 C440.312,389.232 439.064,390.384 437.576,390.384 C435.992,390.384 434.792,389.232 434.792,387.696 C434.792,386.208 435.992,385.008 437.576,385.008 Z M439.4,396.624 L439.4,420 L435.704,420 L435.704,396.624 L439.4,396.624 Z M455.9,417.168 C456.812,417.168 457.82,417.072 459.02,416.88 L459.02,420 C457.82,420.288 456.62,420.528 455.132,420.528 C450.524,420.528 447.26,418.272 447.26,412.944 L447.26,399.936 L443.324,399.936 L443.324,396.624 L447.26,396.624 L447.26,390.24 L450.956,390.24 L450.956,396.624 L458.252,396.624 L458.252,399.936 L450.956,399.936 L450.956,412.704 C450.956,416.208 452.972,417.168 455.9,417.168 Z M471.488,417.168 C472.4,417.168 473.408,417.072 474.608,416.88 L474.608,420 C473.408,420.288 472.208,420.528 470.72,420.528 C466.112,420.528 462.848,418.272 462.848,412.944 L462.848,399.936 L458.912,399.936 L458.912,396.624 L462.848,396.624 L462.848,390.24 L466.544,390.24 L466.544,396.624 L473.84,396.624 L473.84,399.936 L466.544,399.936 L466.544,412.704 C466.544,416.208 468.56,417.168 471.488,417.168 Z M499.316,406.656 C499.316,407.904 499.124,409.008 499.028,409.44 L480.596,409.44 C481.076,414.096 484.532,417.12 489.14,417.12 C492.068,417.12 494.372,415.872 496.292,413.952 L498.452,416.448 C496.1,418.944 492.932,420.528 489.092,420.528 C482.036,420.528 476.708,415.2 476.708,408.336 C476.708,401.52 481.94,396.096 488.66,396.096 C494.66,396.096 499.316,400.416 499.316,406.656 Z M488.564,399.456 C484.628,399.456 481.508,402.144 480.74,406.176 L495.524,406.176 C495.476,401.856 492.308,399.456 488.564,399.456 Z M515.192,396.096 C520.712,396.096 523.88,399.888 523.88,405.312 L523.88,420 L520.184,420 L520.184,405.744 C520.184,402.048 517.976,399.504 514.376,399.504 C510.776,399.504 508.232,402.096 508.232,405.744 L508.232,420 L504.536,420 L504.536,396.624 L507.992,396.624 L507.992,399.168 C509.624,397.248 512.168,396.096 515.192,396.096 Z M544.496,385.008 C545.984,385.008 547.232,386.208 547.232,387.696 C547.232,389.232 545.984,390.384 544.496,390.384 C542.912,390.384 541.712,389.232 541.712,387.696 C541.712,386.208 542.912,385.008 544.496,385.008 Z M546.32,396.624 L546.32,420 L542.624,420 L542.624,396.624 L546.32,396.624 Z M563.828,396.096 C569.348,396.096 572.516,399.888 572.516,405.312 L572.516,420 L568.82,420 L568.82,405.744 C568.82,402.048 566.612,399.504 563.012,399.504 C559.412,399.504 556.868,402.096 556.868,405.744 L556.868,420 L553.172,420 L553.172,396.624 L556.628,396.624 L556.628,399.168 C558.26,397.248 560.804,396.096 563.828,396.096 Z M605.948,387.792 C611.708,387.792 616.46,390.576 619.1,394.608 L616.316,396.816 C613.964,393.36 610.412,391.248 605.996,391.248 C598.844,391.248 593.372,396.768 593.372,404.16 C593.372,411.552 598.844,417.072 605.996,417.072 C610.412,417.072 613.964,414.96 616.316,411.504 L619.1,413.712 C616.556,417.744 611.708,420.528 605.948,420.528 C596.78,420.528 589.484,413.424 589.484,404.16 C589.484,394.896 596.78,387.792 605.948,387.792 Z M643.904,406.512 L635.12,406.512 L635.12,415.776 L631.472,415.776 L631.472,406.512 L622.448,406.512 L622.448,403.248 L631.472,403.248 L631.472,394.128 L635.12,394.128 L635.12,403.248 L643.904,403.248 L643.904,406.512 Z M664.292,406.512 L655.508,406.512 L655.508,415.776 L651.86,415.776 L651.86,406.512 L642.836,406.512 L642.836,403.248 L651.86,403.248 L651.86,394.128 L655.508,394.128 L655.508,403.248 L664.292,403.248 L664.292,406.512 Z M695.576,382.56 L670.472,425.808 L666.104,425.808 L691.208,382.56 L695.576,382.56 Z M709.532,387.792 C718.604,387.792 725.996,394.896 725.996,404.16 C725.996,413.424 718.604,420.528 709.532,420.528 C700.364,420.528 693.116,413.376 693.116,404.16 C693.116,394.896 700.412,387.792 709.532,387.792 Z M709.58,391.248 C702.332,391.248 697.004,396.768 697.004,404.112 C697.004,411.504 702.332,417.072 709.58,417.072 C716.732,417.072 722.108,411.504 722.108,404.112 C722.108,396.816 716.732,391.248 709.58,391.248 Z M743.408,396.096 C750.128,396.096 754.976,401.424 754.976,408.288 C754.976,415.2 750.08,420.528 743.408,420.528 C739.952,420.528 736.688,419.088 734.816,416.592 L734.816,428.64 L731.12,428.64 L731.12,396.624 L734.576,396.624 L734.576,400.368 C736.4,397.68 739.712,396.096 743.408,396.096 Z M742.88,417.12 C747.632,417.12 751.184,413.424 751.184,408.336 C751.184,403.248 747.68,399.504 742.88,399.504 C738.848,399.504 734.768,402.144 734.768,408.288 C734.768,414.432 738.8,417.12 742.88,417.12 Z M781.124,406.656 C781.124,407.904 780.932,409.008 780.836,409.44 L762.404,409.44 C762.884,414.096 766.34,417.12 770.948,417.12 C773.876,417.12 776.18,415.872 778.1,413.952 L780.26,416.448 C777.908,418.944 774.74,420.528 770.9,420.528 C763.844,420.528 758.516,415.2 758.516,408.336 C758.516,401.52 763.748,396.096 770.468,396.096 C776.468,396.096 781.124,400.416 781.124,406.656 Z M770.372,399.456 C766.436,399.456 763.316,402.144 762.548,406.176 L777.332,406.176 C777.284,401.856 774.116,399.456 770.372,399.456 Z M797,396.096 C802.52,396.096 805.688,399.888 805.688,405.312 L805.688,420 L801.992,420 L801.992,405.744 C801.992,402.048 799.784,399.504 796.184,399.504 C792.584,399.504 790.04,402.096 790.04,405.744 L790.04,420 L786.344,420 L786.344,396.624 L789.8,396.624 L789.8,399.168 C791.432,397.248 793.976,396.096 797,396.096 Z M821.42,386.832 C818.54,386.832 816.524,387.792 816.524,391.296 L816.524,396.624 L822.38,396.624 L822.38,399.936 L816.524,399.936 L816.524,420 L812.828,420 L812.828,399.936 L809.468,399.936 L809.468,396.624 L812.828,396.624 L812.828,391.056 C812.828,385.728 816.044,383.472 820.556,383.472 C821.708,383.472 822.62,383.616 823.484,383.856 L823.484,386.976 C822.716,386.88 822.044,386.832 821.42,386.832 Z M836.24,396.432 C837.008,396.432 837.488,396.528 837.968,396.624 L837.968,399.888 L836.576,399.888 C832.784,399.888 829.232,402.288 829.232,406.752 L829.232,420 L825.536,420 L825.536,396.624 L828.992,396.624 L828.992,399.984 C830.72,397.68 833.456,396.432 836.24,396.432 Z M849.572,396.096 C854.9,396.096 858.692,399.312 858.692,405.6 L858.692,420 L855.236,420 L855.236,416.976 C853.556,419.232 850.82,420.528 847.364,420.528 C842.66,420.528 839.204,418.032 839.204,413.952 C839.204,410.016 842.516,407.424 847.604,407.424 L854.996,407.424 L854.996,405.408 C854.996,401.472 852.788,399.504 849.332,399.504 C846.404,399.504 844.34,400.896 842.516,403.248 L840.068,401.232 C842.276,397.68 845.828,396.096 849.572,396.096 Z M847.844,417.456 C851.684,417.456 854.996,414.672 854.996,411.024 L854.996,410.448 L848.036,410.448 C844.772,410.448 842.996,411.552 842.996,413.76 C842.996,416.256 845.252,417.456 847.844,417.456 Z M890.888,396.096 C896.36,396.096 899.384,399.888 899.384,405.312 L899.384,420 L895.688,420 L895.688,405.792 C895.688,402.096 893.672,399.504 890.168,399.504 C886.616,399.504 884.168,402.192 884.168,405.456 L884.168,420 L880.472,420 L880.472,405.792 C880.472,402.096 878.36,399.504 874.904,399.504 C871.352,399.504 868.952,402.096 868.952,405.792 L868.952,420 L865.256,420 L865.256,396.624 L868.712,396.624 L868.712,399.072 C870.344,397.2 872.744,396.096 875.672,396.096 C879.176,396.096 881.576,397.68 882.872,400.128 C884.504,397.776 887.288,396.096 890.888,396.096 Z M926.876,406.656 C926.876,407.904 926.684,409.008 926.588,409.44 L908.156,409.44 C908.636,414.096 912.092,417.12 916.7,417.12 C919.628,417.12 921.932,415.872 923.852,413.952 L926.012,416.448 C923.66,418.944 920.492,420.528 916.652,420.528 C909.596,420.528 904.268,415.2 904.268,408.336 C904.268,401.52 909.5,396.096 916.22,396.096 C922.22,396.096 926.876,400.416 926.876,406.656 Z M916.124,399.456 C912.188,399.456 909.068,402.144 908.3,406.176 L923.084,406.176 C923.036,401.856 919.868,399.456 916.124,399.456 Z M962.672,396.624 L966.608,396.624 L956.768,420.528 L955.424,420.528 L947.456,402.864 L939.536,420.528 L938.24,420.528 L928.304,396.624 L932.24,396.624 L938.96,413.904 L946.784,396.096 L948.176,396.096 L956.048,413.808 L962.672,396.624 Z M980.324,396.096 C987.092,396.096 992.564,401.424 992.564,408.288 C992.564,415.104 987.092,420.48 980.276,420.48 C973.508,420.432 968.084,415.152 968.084,408.288 C968.084,401.424 973.46,396.096 980.324,396.096 Z M980.324,399.504 C975.428,399.504 971.828,403.344 971.876,408.336 C971.876,413.28 975.428,417.072 980.276,417.072 C985.124,417.072 988.772,413.232 988.772,408.336 C988.772,403.296 985.124,399.504 980.324,399.504 Z M1008.488,396.432 C1009.256,396.432 1009.736,396.528 1010.216,396.624 L1010.216,399.888 L1008.824,399.888 C1005.032,399.888 1001.48,402.288 1001.48,406.752 L1001.48,420 L997.784,420 L997.784,396.624 L1001.24,396.624 L1001.24,399.984 C1002.968,397.68 1005.704,396.432 1008.488,396.432 Z M1013.9,420 L1013.9,384 L1017.596,384 L1017.596,420 L1013.9,420 Z M1022.444,406.896 L1033.484,420 L1028.732,420 L1017.98,406.848 L1027.724,396.624 L1032.572,396.624 L1022.444,406.896 Z M1043.984,396.096 C1047.344,396.096 1049.984,397.536 1051.808,399.792 L1049.552,402.096 C1048.016,400.512 1046,399.504 1043.792,399.504 C1041.584,399.504 1039.904,400.512 1039.904,402.432 C1039.904,404.016 1041.104,404.784 1043.696,405.84 L1045.856,406.752 C1050.08,408.528 1052.048,410.352 1052.048,413.664 C1052.048,418.224 1048.16,420.528 1043.84,420.528 C1039.712,420.528 1036.592,418.464 1034.72,415.968 L1037.072,413.52 C1038.992,415.536 1040.96,417.12 1043.792,417.12 C1046.24,417.12 1048.256,415.92 1048.256,413.808 C1048.256,411.792 1046.528,411.024 1044.176,410.064 L1041.92,409.104 C1038.368,407.616 1036.112,405.984 1036.112,402.624 C1036.112,398.4 1039.712,396.096 1043.984,396.096 Z M1059.86,414.48 C1061.492,414.48 1062.884,415.728 1062.884,417.504 C1062.884,419.28 1061.492,420.528 1059.86,420.528 C1058.228,420.528 1056.836,419.28 1056.836,417.504 C1056.836,415.728 1058.228,414.48 1059.86,414.48 Z" id="audio1"></path>
        </g>
    </g>
</svg>