<?xml version="1.0" encoding="UTF-8"?>
<svg width="572px" height="189px" viewBox="0 0 572 189" version="1.1" xmlns="http://www.w3.org/2000/svg" xmlns:xlink="http://www.w3.org/1999/xlink">
    <!-- Generator: Sketch 53.2 (72643) - https://sketchapp.com -->
    <title>AudioVisualizer</title>
    <desc>Created with Sketch.</desc>
    <defs>
        <linearGradient x1="74.000038%" y1="49.7327924%" x2="-16.1444198%" y2="50.8835591%" id="linearGradient-1">
            <stop stop-color="#FA8561" offset="0%"></stop>
            <stop stop-color="#D31CF7" offset="100%"></stop>
        </linearGradient>
    </defs>
    <g id="Page-1" stroke="none" stroke-width="1" fill="none" fill-rule="evenodd">
        <g id="Desktop-HD-Copy-27" transform="translate(-2334.000000, -290.000000)">
            <g id="AudioVisualizer" transform="translate(2334.000000, 290.000000)">
                <rect id="Rectangle-Copy-7" fill="#000000" x="0" y="0" width="572" height="189" rx="16"></rect>
                <path d="M55.164,122.684 L52.352,116.148 L31.832,116.148 L29.02,122.684 L18,122.684 L40.42,71.612 L43.84,71.612 L66.184,122.684 L55.164,122.684 Z M48.704,107.712 L42.092,90.84 L35.48,107.712 L48.704,107.712 Z M103.706137,85.064 L103.706137,106.116 C103.706137,116.756 96.258137,123.596 86.454137,123.596 C76.498137,123.596 69.050137,116.756 69.050137,106.116 L69.050137,85.064 L79.310137,85.064 L79.310137,106.952 C79.310137,111.36 82.426137,114.172 86.454137,114.172 C90.330137,114.172 93.446137,111.36 93.446137,106.952 L93.446137,85.064 L103.706137,85.064 Z M139.100274,65.684 L149.360274,65.684 L149.360274,122.684 L139.936274,122.684 L139.936274,117.972 C137.352274,121.544 133.096274,123.596 127.852274,123.596 C117.212274,123.596 109.612274,115.236 109.612274,103.912 C109.612274,92.588 117.212274,84.228 127.852274,84.228 C132.564274,84.228 136.516274,85.824 139.100274,88.712 L139.100274,65.684 Z M129.752274,114.248 C134.464274,114.248 139.252274,111.132 139.252274,103.912 C139.252274,96.768 134.464274,93.5 129.752274,93.5 C124.432274,93.5 120.024274,97.452 120.024274,103.836 C120.024274,110.22 124.356274,114.248 129.752274,114.248 Z M162.866411,65 C166.514411,65 169.478411,67.736 169.478411,71.384 C169.478411,74.956 166.514411,77.692 162.866411,77.692 C159.218411,77.692 156.330411,74.956 156.330411,71.384 C156.330411,67.736 159.218411,65 162.866411,65 Z M168.034411,85.064 L168.034411,122.684 L157.774411,122.684 L157.774411,85.064 L168.034411,85.064 Z M194.460548,84.228 C205.556548,84.228 214.676548,92.74 214.676548,103.836 C214.676548,115.008 205.556548,123.52 194.384548,123.52 C183.212548,123.52 174.320548,115.008 174.320548,103.836 C174.320548,92.74 183.212548,84.228 194.460548,84.228 Z M194.460548,93.576 C188.760548,93.576 184.732548,97.984 184.732548,103.912 C184.732548,109.84 188.760548,114.096 194.460548,114.096 C200.008548,114.096 204.188548,109.764 204.188548,103.912 C204.188548,97.984 200.008548,93.576 194.460548,93.576 Z M269.124822,72.524 L280.676822,72.524 L258.332822,123.596 L254.912822,123.596 L232.492822,72.524 L244.120822,72.524 L256.660822,102.924 L269.124822,72.524 Z M290.154959,65 C293.802959,65 296.766959,67.736 296.766959,71.384 C296.766959,74.956 293.802959,77.692 290.154959,77.692 C286.506959,77.692 283.618959,74.956 283.618959,71.384 C283.618959,67.736 286.506959,65 290.154959,65 Z M295.322959,85.064 L295.322959,122.684 L285.062959,122.684 L285.062959,85.064 L295.322959,85.064 Z M316.505096,84.152 C321.977096,84.152 326.613096,86.052 330.033096,89.852 L324.865096,96.16 C322.433096,93.88 319.469096,92.588 316.429096,92.588 C313.997096,92.588 312.401096,93.424 312.401096,95.248 C312.401096,96.768 313.617096,97.528 316.353096,98.592 L320.001096,100.112 C326.765096,102.848 330.565096,105.736 330.565096,111.588 C330.565096,119.34 324.105096,123.596 315.897096,123.596 C309.209096,123.596 303.661096,120.708 300.317096,116.3 L305.485096,110.068 C308.525096,113.184 312.021096,115.16 316.049096,115.16 C318.633096,115.16 320.837096,114.172 320.837096,112.044 C320.837096,110.296 319.241096,109.612 316.961096,108.624 L312.933096,106.952 C306.549096,104.368 302.673096,101.404 302.673096,95.476 C302.673096,88.256 308.525096,84.152 316.505096,84.152 Z M370.823233,85.064 L370.823233,106.116 C370.823233,116.756 363.375233,123.596 353.571233,123.596 C343.615233,123.596 336.167233,116.756 336.167233,106.116 L336.167233,85.064 L346.427233,85.064 L346.427233,106.952 C346.427233,111.36 349.543233,114.172 353.571233,114.172 C357.447233,114.172 360.563233,111.36 360.563233,106.952 L360.563233,85.064 L370.823233,85.064 Z M394.28537,84.228 C403.86137,84.228 410.39737,89.624 410.39737,100.34 L410.39737,122.684 L400.97337,122.684 L400.97337,119.036 C398.31337,121.848 394.36137,123.596 389.49737,123.596 C381.28937,123.596 376.50137,118.732 376.50137,112.348 C376.50137,105.508 382.04937,101.404 390.71337,101.404 L400.13737,101.404 L400.13737,99.732 C400.13737,95.628 397.78137,93.12 393.14537,93.12 C389.11737,93.12 386.30537,95.02 383.18937,98.288 L377.86937,91.98 C382.27737,86.736 387.67337,84.228 394.28537,84.228 Z M392.23337,116.072 C396.56537,116.072 400.13737,113.032 400.13737,108.624 L400.13737,108.168 L392.08137,108.168 C388.73737,108.168 386.83737,109.46 386.83737,111.968 C386.83737,114.552 389.04137,116.072 392.23337,116.072 Z M428.767507,65.684 L428.767507,122.684 L418.507507,122.684 L418.507507,65.684 L428.767507,65.684 Z M442.273644,65 C445.921644,65 448.885644,67.736 448.885644,71.384 C448.885644,74.956 445.921644,77.692 442.273644,77.692 C438.625644,77.692 435.737644,74.956 435.737644,71.384 C435.737644,67.736 438.625644,65 442.273644,65 Z M447.441644,85.064 L447.441644,122.684 L437.181644,122.684 L437.181644,85.064 L447.441644,85.064 Z M467.103781,114.02 L485.115781,114.02 L485.115781,122.684 L452.055781,122.684 L452.055781,119.948 L469.991781,93.728 L453.803781,93.728 L453.803781,85.064 L484.963781,85.064 L484.963781,87.8 L467.103781,114.02 Z M524.917918,101.708 C524.917918,103.836 524.537918,106.04 524.233918,107.332 L497.785918,107.332 C499.077918,112.12 503.029918,114.78 508.425918,114.78 C512.529918,114.78 515.873918,113.336 518.913918,110.98 L523.169918,117.972 C518.913918,121.544 513.897918,123.596 508.121918,123.596 C496.189918,123.596 487.525918,115.008 487.525918,103.912 C487.525918,92.816 496.113918,84.228 507.209918,84.228 C517.773918,84.228 524.917918,91.98 524.917918,101.708 Z M506.829918,92.512 C502.497918,92.512 499.001918,95.4 497.785918,100.112 L514.961918,100.112 C514.885918,95.324 511.161918,92.512 506.829918,92.512 Z M550.888055,84.608 C552.256055,84.608 553.244055,84.76 554.232055,85.064 L554.232055,94.108 L551.496055,94.108 C545.568055,94.108 541.388055,97.148 541.388055,103.912 L541.388055,122.684 L531.128055,122.684 L531.128055,85.064 L540.552055,85.064 L540.552055,89.624 C543.060055,86.356 546.784055,84.608 550.888055,84.608 Z" fill="url(#linearGradient-1)" fill-rule="nonzero"></path>
            </g>
        </g>
    </g>
</svg>