<?xml version="1.0" encoding="UTF-8"?>
<svg width="572px" height="189px" viewBox="0 0 572 189" version="1.1" xmlns="http://www.w3.org/2000/svg" xmlns:xlink="http://www.w3.org/1999/xlink">
    <!-- Generator: Sketch 59 (86127) - https://sketch.com -->
    <title>AudioVisualizer</title>
    <desc>Created with Sketch.</desc>
    <defs>
        <linearGradient x1="74.000038%" y1="49.4464476%" x2="-16.1444198%" y2="51.8303978%" id="linearGradient-1">
            <stop stop-color="#FA8561" offset="0%"></stop>
            <stop stop-color="#D31CF7" offset="100%"></stop>
        </linearGradient>
    </defs>
    <g id="Page-1" stroke="none" stroke-width="1" fill="none" fill-rule="evenodd">
        <g id="Desktop-HD-Copy-27" transform="translate(-2334.000000, -479.000000)">
            <g id="AudioVisualizer" transform="translate(2334.000000, 479.000000)">
                <g id="AudioVisualizer-Copy-2" fill="#000000">
                    <rect id="Rectangle-Copy-7" x="0" y="0" width="572" height="189" rx="16"></rect>
                </g>
                <g id="AudioVisualizer-Copy" transform="translate(100.000000, 65.000000)" fill="url(#linearGradient-1)" fill-rule="nonzero">
                    <path d="M10.26,7.524 L-2.04636308e-12,7.524 L-2.04636308e-12,57.684 L10.26,57.684 L10.26,7.524 Z M39.346137,19.228 C34.710137,19.228 30.910137,20.9 28.326137,23.484 L28.326137,20.064 L18.902137,20.064 L18.902137,57.684 L29.162137,57.684 L29.162137,35.72 C29.162137,31.388 32.126137,28.424 36.306137,28.424 C40.486137,28.424 43.298137,31.388 43.298137,35.72 L43.298137,57.684 L53.482137,57.684 L53.482137,34.352 C53.482137,25.308 48.162137,19.228 39.346137,19.228 Z M88.952274,0.684 L88.952274,23.712 C86.368274,20.824 82.416274,19.228 77.704274,19.228 C67.064274,19.228 59.464274,27.588 59.464274,38.912 C59.464274,50.236 67.064274,58.596 77.704274,58.596 C82.948274,58.596 87.204274,56.544 89.788274,52.972 L89.788274,57.684 L99.212274,57.684 L99.212274,0.684 L88.952274,0.684 Z M79.604274,49.248 C74.208274,49.248 69.876274,45.22 69.876274,38.836 C69.876274,32.452 74.284274,28.5 79.604274,28.5 C84.316274,28.5 89.104274,31.768 89.104274,38.912 C89.104274,46.132 84.316274,49.248 79.604274,49.248 Z M141.902411,20.064 L131.642411,20.064 L131.642411,41.952 C131.642411,46.36 128.526411,49.172 124.650411,49.172 C120.622411,49.172 117.506411,46.36 117.506411,41.952 L117.506411,20.064 L107.246411,20.064 L107.246411,41.116 C107.246411,51.756 114.694411,58.596 124.650411,58.596 C134.454411,58.596 141.902411,51.756 141.902411,41.116 L141.902411,20.064 Z M162.704548,19.152 C154.724548,19.152 148.872548,23.256 148.872548,30.476 C148.872548,36.1884364 152.471782,39.148517 158.446127,41.6684774 L163.160548,43.624 L163.868727,43.9327846 C165.764227,44.7707857 167.036548,45.4832857 167.036548,47.044 C167.036548,49.172 164.832548,50.16 162.248548,50.16 C158.220548,50.16 154.724548,48.184 151.684548,45.068 L146.516548,51.3 C149.860548,55.708 155.408548,58.596 162.096548,58.596 C170.304548,58.596 176.764548,54.34 176.764548,46.588 C176.764548,40.736 172.964548,37.848 166.200548,35.112 L162.552548,33.592 L162.008068,33.3758508 C159.654607,32.4195577 158.600548,31.6631724 158.600548,30.248 C158.600548,28.424 160.196548,27.588 162.628548,27.588 C165.668548,27.588 168.632548,28.88 171.064548,31.16 L176.232548,24.852 C172.812548,21.052 168.176548,19.152 162.704548,19.152 Z M202.050685,49.4 C197.338685,49.4 195.058685,47.88 195.058685,43.548 L195.058685,28.728 L205.698685,28.728 L205.698685,20.064 L195.058685,20.064 L195.058685,10.564 L184.798685,10.564 L184.798685,20.064 L178.870685,20.064 L178.870685,28.728 L184.798685,28.728 L184.798685,44.46 C184.798685,54.112 190.574685,58.596 199.846685,58.596 C202.506685,58.596 204.786685,58.216 206.914685,57.684 L206.914685,49.096 L204.387901,49.2915175 C203.492436,49.355929 202.705454,49.4 202.050685,49.4 Z M232.352822,19.608 C228.248822,19.608 224.524822,21.356 222.016822,24.624 L222.016822,20.064 L212.592822,20.064 L212.592822,57.684 L222.852822,57.684 L222.852822,38.912 C222.852822,32.148 227.032822,29.108 232.960822,29.108 L235.696822,29.108 L235.696822,20.064 C234.708822,19.76 233.720822,19.608 232.352822,19.608 Z M245.402959,-2.27373675e-13 C241.754959,-2.27373675e-13 238.866959,2.736 238.866959,6.384 C238.866959,9.956 241.754959,12.692 245.402959,12.692 C249.050959,12.692 252.014959,9.956 252.014959,6.384 C252.014959,2.736 249.050959,-2.27373675e-13 245.402959,-2.27373675e-13 Z M250.570959,20.064 L240.310959,20.064 L240.310959,57.684 L250.570959,57.684 L250.570959,20.064 Z M276.997096,19.228 C265.749096,19.228 256.857096,27.74 256.857096,38.836 C256.857096,50.008 265.749096,58.52 276.921096,58.52 C288.093096,58.52 297.213096,50.008 297.213096,38.836 C297.213096,27.74 288.093096,19.228 276.997096,19.228 Z M276.997096,28.576 C282.545096,28.576 286.725096,32.984 286.725096,38.912 C286.725096,44.764 282.545096,49.096 276.997096,49.096 C271.297096,49.096 267.269096,44.84 267.269096,38.912 C267.269096,32.984 271.297096,28.576 276.997096,28.576 Z M337.699233,20.064 L327.439233,20.064 L327.439233,41.952 C327.439233,46.36 324.323233,49.172 320.447233,49.172 C316.419233,49.172 313.303233,46.36 313.303233,41.952 L313.303233,20.064 L303.043233,20.064 L303.043233,41.116 C303.043233,51.756 310.491233,58.596 320.447233,58.596 C330.251233,58.596 337.699233,51.756 337.699233,41.116 L337.699233,20.064 Z M358.50137,19.152 C363.97337,19.152 368.60937,21.052 372.02937,24.852 L366.86137,31.16 C364.42937,28.88 361.46537,27.588 358.42537,27.588 C355.99337,27.588 354.39737,28.424 354.39737,30.248 C354.39737,31.768 355.61337,32.528 358.34937,33.592 L361.99737,35.112 C368.76137,37.848 372.56137,40.736 372.56137,46.588 C372.56137,54.34 366.10137,58.596 357.89337,58.596 C351.20537,58.596 345.65737,55.708 342.31337,51.3 L347.48137,45.068 C350.52137,48.184 354.01737,50.16 358.04537,50.16 C360.62937,50.16 362.83337,49.172 362.83337,47.044 C362.83337,45.296 361.23737,44.612 358.95737,43.624 L354.242949,41.6684774 C348.268604,39.148517 344.66937,36.1884364 344.66937,30.476 C344.66937,23.256 350.52137,19.152 358.50137,19.152 Z" id="Industrious"></path>
                </g>
            </g>
        </g>
    </g>
</svg>