<?xml version="1.0" encoding="UTF-8"?>
<svg width="679px" height="185px" viewBox="0 0 679 185" version="1.1" xmlns="http://www.w3.org/2000/svg" xmlns:xlink="http://www.w3.org/1999/xlink">
    <!-- Generator: Sketch 53.2 (72643) - https://sketchapp.com -->
    <title>Whendeveloping,makingsurethesite’slayoutwasmobilefriendlywasattheforefrontofeverydecision.Navigatingtoprojects,aswellaswithin,arehandledwithasimpleswipe.</title>
    <desc>Created with Sketch.</desc>
    <g id="Page-1" stroke="none" stroke-width="1" fill="none" fill-rule="evenodd">
        <g id="Desktop-HD-Copy-30" transform="translate(-381.000000, -2228.000000)" fill="#404648" fill-rule="nonzero">
            <path d="M433.206729,2231.56 L436.096729,2231.56 L427.596729,2254.374 L426.644729,2254.374 L419.538729,2236.558 L412.432729,2254.374 L411.480729,2254.374 L402.946729,2231.56 L405.870729,2231.56 L412.058729,2248.662 L419.062729,2231.186 L420.014729,2231.186 L427.018729,2248.662 L433.206729,2231.56 Z M448.09141,2237.068 C451.96741,2237.068 454.21141,2239.754 454.21141,2243.596 L454.21141,2254 L451.59341,2254 L451.59341,2243.936 C451.59341,2241.318 450.02941,2239.482 447.47941,2239.482 C444.92941,2239.482 443.12741,2241.352 443.12741,2243.936 L443.12741,2254 L440.50941,2254 L440.50941,2228.5 L443.12741,2228.5 L443.12741,2239.312 C444.21541,2237.918 445.94941,2237.068 448.09141,2237.068 Z M474.53609,2244.548 C474.53609,2245.432 474.40009,2246.214 474.33209,2246.52 L461.27609,2246.52 C461.61609,2249.818 464.06409,2251.96 467.32809,2251.96 C469.40209,2251.96 471.03409,2251.076 472.39409,2249.716 L473.92409,2251.484 C472.25809,2253.252 470.01409,2254.374 467.29409,2254.374 C462.29609,2254.374 458.52209,2250.6 458.52209,2245.738 C458.52209,2240.91 462.22809,2237.068 466.98809,2237.068 C471.23809,2237.068 474.53609,2240.128 474.53609,2244.548 Z M466.92009,2239.448 C464.13209,2239.448 461.92209,2241.352 461.37809,2244.208 L471.85009,2244.208 C471.81609,2241.148 469.57209,2239.448 466.92009,2239.448 Z M486.632771,2237.068 C490.542771,2237.068 492.786771,2239.754 492.786771,2243.596 L492.786771,2254 L490.168771,2254 L490.168771,2243.902 C490.168771,2241.284 488.604771,2239.482 486.054771,2239.482 C483.504771,2239.482 481.702771,2241.318 481.702771,2243.902 L481.702771,2254 L479.084771,2254 L479.084771,2237.442 L481.532771,2237.442 L481.532771,2239.244 C482.688771,2237.884 484.490771,2237.068 486.632771,2237.068 Z M520.890132,2228.5 L523.508132,2228.5 L523.508132,2254 L521.026132,2254 L521.026132,2251.348 C519.734132,2253.252 517.388132,2254.374 514.770132,2254.374 C510.044132,2254.374 506.576132,2250.6 506.576132,2245.738 C506.576132,2240.842 510.044132,2237.068 514.770132,2237.068 C517.286132,2237.068 519.564132,2238.122 520.890132,2239.89 L520.890132,2228.5 Z M515.144132,2251.96 C518.000132,2251.96 520.924132,2250.09 520.924132,2245.738 C520.924132,2241.386 518.000132,2239.482 515.144132,2239.482 C511.778132,2239.482 509.262132,2242.1 509.262132,2245.704 C509.262132,2249.308 511.744132,2251.96 515.144132,2251.96 Z M544.036812,2244.548 C544.036812,2245.432 543.900812,2246.214 543.832812,2246.52 L530.776812,2246.52 C531.116812,2249.818 533.564812,2251.96 536.828812,2251.96 C538.902812,2251.96 540.534812,2251.076 541.894812,2249.716 L543.424812,2251.484 C541.758812,2253.252 539.514812,2254.374 536.794812,2254.374 C531.796812,2254.374 528.022812,2250.6 528.022812,2245.738 C528.022812,2240.91 531.728812,2237.068 536.488812,2237.068 C540.738812,2237.068 544.036812,2240.128 544.036812,2244.548 Z M536.420812,2239.448 C533.632812,2239.448 531.422812,2241.352 530.878812,2244.208 L541.350812,2244.208 C541.316812,2241.148 539.072812,2239.448 536.420812,2239.448 Z M559.669493,2237.442 L562.457493,2237.442 L554.671493,2254.374 L553.719493,2254.374 L545.899493,2237.442 L548.687493,2237.442 L554.195493,2249.92 L559.669493,2237.442 Z M580.334174,2244.548 C580.334174,2245.432 580.198174,2246.214 580.130174,2246.52 L567.074174,2246.52 C567.414174,2249.818 569.862174,2251.96 573.126174,2251.96 C575.200174,2251.96 576.832174,2251.076 578.192174,2249.716 L579.722174,2251.484 C578.056174,2253.252 575.812174,2254.374 573.092174,2254.374 C568.094174,2254.374 564.320174,2250.6 564.320174,2245.738 C564.320174,2240.91 568.026174,2237.068 572.786174,2237.068 C577.036174,2237.068 580.334174,2240.128 580.334174,2244.548 Z M572.718174,2239.448 C569.930174,2239.448 567.720174,2241.352 567.176174,2244.208 L577.648174,2244.208 C577.614174,2241.148 575.370174,2239.448 572.718174,2239.448 Z M587.500854,2228.5 L587.500854,2254 L584.882854,2254 L584.882854,2228.5 L587.500854,2228.5 Z M600.685535,2237.068 C605.479535,2237.068 609.355535,2240.842 609.355535,2245.704 C609.355535,2250.532 605.479535,2254.34 600.651535,2254.34 C595.857535,2254.306 592.015535,2250.566 592.015535,2245.704 C592.015535,2240.842 595.823535,2237.068 600.685535,2237.068 Z M600.685535,2239.482 C597.217535,2239.482 594.667535,2242.202 594.701535,2245.738 C594.701535,2249.24 597.217535,2251.926 600.651535,2251.926 C604.085535,2251.926 606.669535,2249.206 606.669535,2245.738 C606.669535,2242.168 604.085535,2239.482 600.685535,2239.482 Z M622.608215,2237.068 C627.368215,2237.068 630.802215,2240.842 630.802215,2245.704 C630.802215,2250.6 627.334215,2254.374 622.608215,2254.374 C620.160215,2254.374 617.848215,2253.354 616.522215,2251.586 L616.522215,2260.12 L613.904215,2260.12 L613.904215,2237.442 L616.352215,2237.442 L616.352215,2240.094 C617.644215,2238.19 619.990215,2237.068 622.608215,2237.068 Z M622.234215,2251.96 C625.600215,2251.96 628.116215,2249.342 628.116215,2245.738 C628.116215,2242.134 625.634215,2239.482 622.234215,2239.482 C619.378215,2239.482 616.488215,2241.352 616.488215,2245.704 C616.488215,2250.056 619.344215,2251.96 622.234215,2251.96 Z M636.676896,2229.214 C637.730896,2229.214 638.614896,2230.064 638.614896,2231.118 C638.614896,2232.206 637.730896,2233.022 636.676896,2233.022 C635.554896,2233.022 634.704896,2232.206 634.704896,2231.118 C634.704896,2230.064 635.554896,2229.214 636.676896,2229.214 Z M637.968896,2237.442 L637.968896,2254 L635.350896,2254 L635.350896,2237.442 L637.968896,2237.442 Z M651.221576,2237.068 C655.131576,2237.068 657.375576,2239.754 657.375576,2243.596 L657.375576,2254 L654.757576,2254 L654.757576,2243.902 C654.757576,2241.284 653.193576,2239.482 650.643576,2239.482 C648.093576,2239.482 646.291576,2241.318 646.291576,2243.902 L646.291576,2254 L643.673576,2254 L643.673576,2237.442 L646.121576,2237.442 L646.121576,2239.244 C647.277576,2237.884 649.079576,2237.068 651.221576,2237.068 Z M676.306257,2237.442 L678.788257,2237.442 L678.788257,2252.402 C678.788257,2257.502 675.558257,2260.494 670.730257,2260.494 C667.262257,2260.494 664.576257,2258.93 662.944257,2257.298 L664.474257,2255.462 C666.072257,2256.856 667.942257,2258.08 670.662257,2258.08 C674.028257,2258.08 676.170257,2256.21 676.170257,2252.538 L676.170257,2251.076 C674.810257,2252.81 672.498257,2253.83 670.016257,2253.83 C665.358257,2253.83 661.890257,2250.294 661.890257,2245.466 C661.890257,2240.672 665.358257,2237.068 670.016257,2237.068 C672.634257,2237.068 675.014257,2238.224 676.306257,2240.128 L676.306257,2237.442 Z M670.424257,2251.416 C673.314257,2251.416 676.204257,2249.614 676.204257,2245.466 C676.204257,2241.318 673.280257,2239.55 670.424257,2239.55 C667.058257,2239.55 664.542257,2241.998 664.542257,2245.5 C664.542257,2249.002 667.058257,2251.416 670.424257,2251.416 Z M688.028937,2250.94 L686.634937,2260.086 L684.492937,2260.086 L684.934937,2250.94 L688.028937,2250.94 Z M721.266299,2237.068 C725.142299,2237.068 727.284299,2239.754 727.284299,2243.596 L727.284299,2254 L724.666299,2254 L724.666299,2243.936 C724.666299,2241.318 723.238299,2239.482 720.756299,2239.482 C718.240299,2239.482 716.506299,2241.386 716.506299,2243.698 L716.506299,2254 L713.888299,2254 L713.888299,2243.936 C713.888299,2241.318 712.392299,2239.482 709.944299,2239.482 C707.428299,2239.482 705.728299,2241.318 705.728299,2243.936 L705.728299,2254 L703.110299,2254 L703.110299,2237.442 L705.558299,2237.442 L705.558299,2239.176 C706.714299,2237.85 708.414299,2237.068 710.488299,2237.068 C712.970299,2237.068 714.670299,2238.19 715.588299,2239.924 C716.744299,2238.258 718.716299,2237.068 721.266299,2237.068 Z M738.734979,2237.068 C742.508979,2237.068 745.194979,2239.346 745.194979,2243.8 L745.194979,2254 L742.746979,2254 L742.746979,2251.858 C741.556979,2253.456 739.618979,2254.374 737.170979,2254.374 C733.838979,2254.374 731.390979,2252.606 731.390979,2249.716 C731.390979,2246.928 733.736979,2245.092 737.340979,2245.092 L742.576979,2245.092 L742.576979,2243.664 C742.576979,2240.876 741.012979,2239.482 738.564979,2239.482 C736.490979,2239.482 735.028979,2240.468 733.736979,2242.134 L732.002979,2240.706 C733.566979,2238.19 736.082979,2237.068 738.734979,2237.068 Z M737.510979,2252.198 C740.230979,2252.198 742.576979,2250.226 742.576979,2247.642 L742.576979,2247.234 L737.646979,2247.234 C735.334979,2247.234 734.076979,2248.016 734.076979,2249.58 C734.076979,2251.348 735.674979,2252.198 737.510979,2252.198 Z M750.69566,2254 L750.69566,2228.5 L753.31366,2228.5 L753.31366,2254 L750.69566,2254 Z M756.74766,2244.718 L764.56766,2254 L761.20166,2254 L753.58566,2244.684 L760.48766,2237.442 L763.92166,2237.442 L756.74766,2244.718 Z M769.18434,2229.214 C770.23834,2229.214 771.12234,2230.064 771.12234,2231.118 C771.12234,2232.206 770.23834,2233.022 769.18434,2233.022 C768.06234,2233.022 767.21234,2232.206 767.21234,2231.118 C767.21234,2230.064 768.06234,2229.214 769.18434,2229.214 Z M770.47634,2237.442 L770.47634,2254 L767.85834,2254 L767.85834,2237.442 L770.47634,2237.442 Z M783.729021,2237.068 C787.639021,2237.068 789.883021,2239.754 789.883021,2243.596 L789.883021,2254 L787.265021,2254 L787.265021,2243.902 C787.265021,2241.284 785.701021,2239.482 783.151021,2239.482 C780.601021,2239.482 778.799021,2241.318 778.799021,2243.902 L778.799021,2254 L776.181021,2254 L776.181021,2237.442 L778.629021,2237.442 L778.629021,2239.244 C779.785021,2237.884 781.587021,2237.068 783.729021,2237.068 Z M808.813701,2237.442 L811.295701,2237.442 L811.295701,2252.402 C811.295701,2257.502 808.065701,2260.494 803.237701,2260.494 C799.769701,2260.494 797.083701,2258.93 795.451701,2257.298 L796.981701,2255.462 C798.579701,2256.856 800.449701,2258.08 803.169701,2258.08 C806.535701,2258.08 808.677701,2256.21 808.677701,2252.538 L808.677701,2251.076 C807.317701,2252.81 805.005701,2253.83 802.523701,2253.83 C797.865701,2253.83 794.397701,2250.294 794.397701,2245.466 C794.397701,2240.672 797.865701,2237.068 802.523701,2237.068 C805.141701,2237.068 807.521701,2238.224 808.813701,2240.128 L808.813701,2237.442 Z M802.931701,2251.416 C805.821701,2251.416 808.711701,2249.614 808.711701,2245.466 C808.711701,2241.318 805.787701,2239.55 802.931701,2239.55 C799.565701,2239.55 797.049701,2241.998 797.049701,2245.5 C797.049701,2249.002 799.565701,2251.416 802.931701,2251.416 Z M831.477063,2237.068 C833.857063,2237.068 835.727063,2238.088 837.019063,2239.686 L835.421063,2241.318 C834.333063,2240.196 832.905063,2239.482 831.341063,2239.482 C829.777063,2239.482 828.587063,2240.196 828.587063,2241.556 C828.587063,2242.678 829.437063,2243.222 831.273063,2243.97 L832.803063,2244.616 C835.795063,2245.874 837.189063,2247.166 837.189063,2249.512 C837.189063,2252.742 834.435063,2254.374 831.375063,2254.374 C828.451063,2254.374 826.241063,2252.912 824.915063,2251.144 L826.581063,2249.41 C827.941063,2250.838 829.335063,2251.96 831.341063,2251.96 C833.075063,2251.96 834.503063,2251.11 834.503063,2249.614 C834.503063,2248.186 833.279063,2247.642 831.613063,2246.962 L830.015063,2246.282 C827.499063,2245.228 825.901063,2244.072 825.901063,2241.692 C825.901063,2238.7 828.451063,2237.068 831.477063,2237.068 Z M855.371743,2237.442 L855.371743,2247.404 C855.371743,2251.654 852.345743,2254.374 848.537743,2254.374 C844.661743,2254.374 841.669743,2251.654 841.669743,2247.404 L841.669743,2237.442 L844.253743,2237.442 L844.253743,2247.574 C844.253743,2250.294 846.157743,2251.96 848.537743,2251.96 C850.849743,2251.96 852.753743,2250.294 852.753743,2247.574 L852.753743,2237.442 L855.371743,2237.442 Z M868.454424,2237.306 C868.998424,2237.306 869.338424,2237.374 869.678424,2237.442 L869.678424,2239.754 L868.692424,2239.754 C866.006424,2239.754 863.490424,2241.454 863.490424,2244.616 L863.490424,2254 L860.872424,2254 L860.872424,2237.442 L863.320424,2237.442 L863.320424,2239.822 C864.544424,2238.19 866.482424,2237.306 868.454424,2237.306 Z M887.623104,2244.548 C887.623104,2245.432 887.487104,2246.214 887.419104,2246.52 L874.363104,2246.52 C874.703104,2249.818 877.151104,2251.96 880.415104,2251.96 C882.489104,2251.96 884.121104,2251.076 885.481104,2249.716 L887.011104,2251.484 C885.345104,2253.252 883.101104,2254.374 880.381104,2254.374 C875.383104,2254.374 871.609104,2250.6 871.609104,2245.738 C871.609104,2240.91 875.315104,2237.068 880.075104,2237.068 C884.325104,2237.068 887.623104,2240.128 887.623104,2244.548 Z M880.007104,2239.448 C877.219104,2239.448 875.009104,2241.352 874.465104,2244.208 L884.937104,2244.208 C884.903104,2241.148 882.659104,2239.448 880.007104,2239.448 Z M908.484465,2251.994 C909.130465,2251.994 909.844465,2251.926 910.694465,2251.79 L910.694465,2254 C909.844465,2254.204 908.994465,2254.374 907.940465,2254.374 C904.676465,2254.374 902.364465,2252.776 902.364465,2249.002 L902.364465,2239.788 L899.576465,2239.788 L899.576465,2237.442 L902.364465,2237.442 L902.364465,2232.92 L904.982465,2232.92 L904.982465,2237.442 L910.150465,2237.442 L910.150465,2239.788 L904.982465,2239.788 L904.982465,2248.832 C904.982465,2251.314 906.410465,2251.994 908.484465,2251.994 Z M922.145146,2237.068 C926.021146,2237.068 928.265146,2239.754 928.265146,2243.596 L928.265146,2254 L925.647146,2254 L925.647146,2243.936 C925.647146,2241.318 924.083146,2239.482 921.533146,2239.482 C918.983146,2239.482 917.181146,2241.352 917.181146,2243.936 L917.181146,2254 L914.563146,2254 L914.563146,2228.5 L917.181146,2228.5 L917.181146,2239.312 C918.269146,2237.918 920.003146,2237.068 922.145146,2237.068 Z M948.589826,2244.548 C948.589826,2245.432 948.453826,2246.214 948.385826,2246.52 L935.329826,2246.52 C935.669826,2249.818 938.117826,2251.96 941.381826,2251.96 C943.455826,2251.96 945.087826,2251.076 946.447826,2249.716 L947.977826,2251.484 C946.311826,2253.252 944.067826,2254.374 941.347826,2254.374 C936.349826,2254.374 932.575826,2250.6 932.575826,2245.738 C932.575826,2240.91 936.281826,2237.068 941.041826,2237.068 C945.291826,2237.068 948.589826,2240.128 948.589826,2244.548 Z M940.973826,2239.448 C938.185826,2239.448 935.975826,2241.352 935.431826,2244.208 L945.903826,2244.208 C945.869826,2241.148 943.625826,2239.448 940.973826,2239.448 Z M967.615188,2237.068 C969.995188,2237.068 971.865188,2238.088 973.157188,2239.686 L971.559188,2241.318 C970.471188,2240.196 969.043188,2239.482 967.479188,2239.482 C965.915188,2239.482 964.725188,2240.196 964.725188,2241.556 C964.725188,2242.678 965.575188,2243.222 967.411188,2243.97 L968.941188,2244.616 C971.933188,2245.874 973.327188,2247.166 973.327188,2249.512 C973.327188,2252.742 970.573188,2254.374 967.513188,2254.374 C964.589188,2254.374 962.379188,2252.912 961.053188,2251.144 L962.719188,2249.41 C964.079188,2250.838 965.473188,2251.96 967.479188,2251.96 C969.213188,2251.96 970.641188,2251.11 970.641188,2249.614 C970.641188,2248.186 969.417188,2247.642 967.751188,2246.962 L966.153188,2246.282 C963.637188,2245.228 962.039188,2244.072 962.039188,2241.692 C962.039188,2238.7 964.589188,2237.068 967.615188,2237.068 Z M979.337868,2229.214 C980.391868,2229.214 981.275868,2230.064 981.275868,2231.118 C981.275868,2232.206 980.391868,2233.022 979.337868,2233.022 C978.215868,2233.022 977.365868,2232.206 977.365868,2231.118 C977.365868,2230.064 978.215868,2229.214 979.337868,2229.214 Z M980.629868,2237.442 L980.629868,2254 L978.011868,2254 L978.011868,2237.442 L980.629868,2237.442 Z M993.168549,2251.994 C993.814549,2251.994 994.528549,2251.926 995.378549,2251.79 L995.378549,2254 C994.528549,2254.204 993.678549,2254.374 992.624549,2254.374 C989.360549,2254.374 987.048549,2252.776 987.048549,2249.002 L987.048549,2239.788 L984.260549,2239.788 L984.260549,2237.442 L987.048549,2237.442 L987.048549,2232.92 L989.666549,2232.92 L989.666549,2237.442 L994.834549,2237.442 L994.834549,2239.788 L989.666549,2239.788 L989.666549,2248.832 C989.666549,2251.314 991.094549,2251.994 993.168549,2251.994 Z M1013.73123,2244.548 C1013.73123,2245.432 1013.59523,2246.214 1013.52723,2246.52 L1000.47123,2246.52 C1000.81123,2249.818 1003.25923,2251.96 1006.52323,2251.96 C1008.59723,2251.96 1010.22923,2251.076 1011.58923,2249.716 L1013.11923,2251.484 C1011.45323,2253.252 1009.20923,2254.374 1006.48923,2254.374 C1001.49123,2254.374 997.717229,2250.6 997.717229,2245.738 C997.717229,2240.91 1001.42323,2237.068 1006.18323,2237.068 C1010.43323,2237.068 1013.73123,2240.128 1013.73123,2244.548 Z M1006.11523,2239.448 C1003.32723,2239.448 1001.11723,2241.352 1000.57323,2244.208 L1011.04523,2244.208 C1011.01123,2241.148 1008.76723,2239.448 1006.11523,2239.448 Z M1021.78191,2231.56 L1020.31991,2240.298 L1018.24591,2240.298 L1018.72191,2231.56 L1021.78191,2231.56 Z M1032.07659,2237.068 C1034.45659,2237.068 1036.32659,2238.088 1037.61859,2239.686 L1036.02059,2241.318 C1034.93259,2240.196 1033.50459,2239.482 1031.94059,2239.482 C1030.37659,2239.482 1029.18659,2240.196 1029.18659,2241.556 C1029.18659,2242.678 1030.03659,2243.222 1031.87259,2243.97 L1033.40259,2244.616 C1036.39459,2245.874 1037.78859,2247.166 1037.78859,2249.512 C1037.78859,2252.742 1035.03459,2254.374 1031.97459,2254.374 C1029.05059,2254.374 1026.84059,2252.912 1025.51459,2251.144 L1027.18059,2249.41 C1028.54059,2250.838 1029.93459,2251.96 1031.94059,2251.96 C1033.67459,2251.96 1035.10259,2251.11 1035.10259,2249.614 C1035.10259,2248.186 1033.87859,2247.642 1032.21259,2246.962 L1030.61459,2246.282 C1028.09859,2245.228 1026.50059,2244.072 1026.50059,2241.692 C1026.50059,2238.7 1029.05059,2237.068 1032.07659,2237.068 Z M435.03541,2266.5 L435.03541,2292 L432.41741,2292 L432.41741,2266.5 L435.03541,2266.5 Z M446.69009,2275.068 C450.46409,2275.068 453.15009,2277.346 453.15009,2281.8 L453.15009,2292 L450.70209,2292 L450.70209,2289.858 C449.51209,2291.456 447.57409,2292.374 445.12609,2292.374 C441.79409,2292.374 439.34609,2290.606 439.34609,2287.716 C439.34609,2284.928 441.69209,2283.092 445.29609,2283.092 L450.53209,2283.092 L450.53209,2281.664 C450.53209,2278.876 448.96809,2277.482 446.52009,2277.482 C444.44609,2277.482 442.98409,2278.468 441.69209,2280.134 L439.95809,2278.706 C441.52209,2276.19 444.03809,2275.068 446.69009,2275.068 Z M445.46609,2290.198 C448.18609,2290.198 450.53209,2288.226 450.53209,2285.642 L450.53209,2285.234 L445.60209,2285.234 C443.29009,2285.234 442.03209,2286.016 442.03209,2287.58 C442.03209,2289.348 443.63009,2290.198 445.46609,2290.198 Z M470.414771,2275.442 L473.202771,2275.442 L465.042771,2294.312 C463.750771,2297.27 461.948771,2298.494 459.432771,2298.494 C458.616771,2298.494 457.664771,2298.358 456.882771,2298.154 L456.882771,2295.944 C457.664771,2296.046 458.310771,2296.114 458.888771,2296.114 C460.486771,2296.114 461.710771,2295.57 462.628771,2293.462 L463.512771,2291.456 L456.644771,2275.442 L459.466771,2275.442 L464.940771,2288.634 L470.414771,2275.442 Z M483.735451,2275.068 C488.529451,2275.068 492.405451,2278.842 492.405451,2283.704 C492.405451,2288.532 488.529451,2292.34 483.701451,2292.34 C478.907451,2292.306 475.065451,2288.566 475.065451,2283.704 C475.065451,2278.842 478.873451,2275.068 483.735451,2275.068 Z M483.735451,2277.482 C480.267451,2277.482 477.717451,2280.202 477.751451,2283.738 C477.751451,2287.24 480.267451,2289.926 483.701451,2289.926 C487.135451,2289.926 489.719451,2287.206 489.719451,2283.738 C489.719451,2280.168 487.135451,2277.482 483.735451,2277.482 Z M510.452132,2275.442 L510.452132,2285.404 C510.452132,2289.654 507.426132,2292.374 503.618132,2292.374 C499.742132,2292.374 496.750132,2289.654 496.750132,2285.404 L496.750132,2275.442 L499.334132,2275.442 L499.334132,2285.574 C499.334132,2288.294 501.238132,2289.96 503.618132,2289.96 C505.930132,2289.96 507.834132,2288.294 507.834132,2285.574 L507.834132,2275.442 L510.452132,2275.442 Z M522.786812,2289.994 C523.432812,2289.994 524.146812,2289.926 524.996812,2289.79 L524.996812,2292 C524.146812,2292.204 523.296812,2292.374 522.242812,2292.374 C518.978812,2292.374 516.666812,2290.776 516.666812,2287.002 L516.666812,2277.788 L513.878812,2277.788 L513.878812,2275.442 L516.666812,2275.442 L516.666812,2270.92 L519.284812,2270.92 L519.284812,2275.442 L524.452812,2275.442 L524.452812,2277.788 L519.284812,2277.788 L519.284812,2286.832 C519.284812,2289.314 520.712812,2289.994 522.786812,2289.994 Z M559.662174,2275.442 L562.450174,2275.442 L555.480174,2292.374 L554.528174,2292.374 L548.884174,2279.862 L543.274174,2292.374 L542.356174,2292.374 L535.318174,2275.442 L538.106174,2275.442 L542.866174,2287.682 L548.408174,2275.068 L549.394174,2275.068 L554.970174,2287.614 L559.662174,2275.442 Z M571.486854,2275.068 C575.260854,2275.068 577.946854,2277.346 577.946854,2281.8 L577.946854,2292 L575.498854,2292 L575.498854,2289.858 C574.308854,2291.456 572.370854,2292.374 569.922854,2292.374 C566.590854,2292.374 564.142854,2290.606 564.142854,2287.716 C564.142854,2284.928 566.488854,2283.092 570.092854,2283.092 L575.328854,2283.092 L575.328854,2281.664 C575.328854,2278.876 573.764854,2277.482 571.316854,2277.482 C569.242854,2277.482 567.780854,2278.468 566.488854,2280.134 L564.754854,2278.706 C566.318854,2276.19 568.834854,2275.068 571.486854,2275.068 Z M570.262854,2290.198 C572.982854,2290.198 575.328854,2288.226 575.328854,2285.642 L575.328854,2285.234 L570.398854,2285.234 C568.086854,2285.234 566.828854,2286.016 566.828854,2287.58 C566.828854,2289.348 568.426854,2290.198 570.262854,2290.198 Z M588.445535,2275.068 C590.825535,2275.068 592.695535,2276.088 593.987535,2277.686 L592.389535,2279.318 C591.301535,2278.196 589.873535,2277.482 588.309535,2277.482 C586.745535,2277.482 585.555535,2278.196 585.555535,2279.556 C585.555535,2280.678 586.405535,2281.222 588.241535,2281.97 L589.771535,2282.616 C592.763535,2283.874 594.157535,2285.166 594.157535,2287.512 C594.157535,2290.742 591.403535,2292.374 588.343535,2292.374 C585.419535,2292.374 583.209535,2290.912 581.883535,2289.144 L583.549535,2287.41 C584.909535,2288.838 586.303535,2289.96 588.309535,2289.96 C590.043535,2289.96 591.471535,2289.11 591.471535,2287.614 C591.471535,2286.186 590.247535,2285.642 588.581535,2284.962 L586.983535,2284.282 C584.467535,2283.228 582.869535,2282.072 582.869535,2279.692 C582.869535,2276.7 585.419535,2275.068 588.445535,2275.068 Z M626.476896,2275.068 C630.352896,2275.068 632.494896,2277.754 632.494896,2281.596 L632.494896,2292 L629.876896,2292 L629.876896,2281.936 C629.876896,2279.318 628.448896,2277.482 625.966896,2277.482 C623.450896,2277.482 621.716896,2279.386 621.716896,2281.698 L621.716896,2292 L619.098896,2292 L619.098896,2281.936 C619.098896,2279.318 617.602896,2277.482 615.154896,2277.482 C612.638896,2277.482 610.938896,2279.318 610.938896,2281.936 L610.938896,2292 L608.320896,2292 L608.320896,2275.442 L610.768896,2275.442 L610.768896,2277.176 C611.924896,2275.85 613.624896,2275.068 615.698896,2275.068 C618.180896,2275.068 619.880896,2276.19 620.798896,2277.924 C621.954896,2276.258 623.926896,2275.068 626.476896,2275.068 Z M645.475576,2275.068 C650.269576,2275.068 654.145576,2278.842 654.145576,2283.704 C654.145576,2288.532 650.269576,2292.34 645.441576,2292.34 C640.647576,2292.306 636.805576,2288.566 636.805576,2283.704 C636.805576,2278.842 640.613576,2275.068 645.475576,2275.068 Z M645.475576,2277.482 C642.007576,2277.482 639.457576,2280.202 639.491576,2283.738 C639.491576,2287.24 642.007576,2289.926 645.441576,2289.926 C648.875576,2289.926 651.459576,2287.206 651.459576,2283.738 C651.459576,2280.168 648.875576,2277.482 645.475576,2277.482 Z M667.398257,2275.068 C672.124257,2275.068 675.592257,2278.842 675.592257,2283.738 C675.592257,2288.6 672.158257,2292.374 667.432257,2292.374 C664.848257,2292.374 662.434257,2291.252 661.142257,2289.348 L661.142257,2292 L658.694257,2292 L658.694257,2266.5 L661.312257,2266.5 L661.312257,2277.89 C662.604257,2276.156 664.882257,2275.068 667.398257,2275.068 Z M667.024257,2289.96 C670.424257,2289.96 672.906257,2287.308 672.906257,2283.704 C672.906257,2280.1 670.390257,2277.482 667.024257,2277.482 C664.134257,2277.482 661.278257,2279.386 661.278257,2283.738 C661.278257,2288.09 664.168257,2289.96 667.024257,2289.96 Z M681.466937,2267.214 C682.520937,2267.214 683.404937,2268.064 683.404937,2269.118 C683.404937,2270.206 682.520937,2271.022 681.466937,2271.022 C680.344937,2271.022 679.494937,2270.206 679.494937,2269.118 C679.494937,2268.064 680.344937,2267.214 681.466937,2267.214 Z M682.758937,2275.442 L682.758937,2292 L680.140937,2292 L680.140937,2275.442 L682.758937,2275.442 Z M691.081618,2266.5 L691.081618,2292 L688.463618,2292 L688.463618,2266.5 L691.081618,2266.5 Z M711.610299,2282.548 C711.610299,2283.432 711.474299,2284.214 711.406299,2284.52 L698.350299,2284.52 C698.690299,2287.818 701.138299,2289.96 704.402299,2289.96 C706.476299,2289.96 708.108299,2289.076 709.468299,2287.716 L710.998299,2289.484 C709.332299,2291.252 707.088299,2292.374 704.368299,2292.374 C699.370299,2292.374 695.596299,2288.6 695.596299,2283.738 C695.596299,2278.91 699.302299,2275.068 704.062299,2275.068 C708.312299,2275.068 711.610299,2278.128 711.610299,2282.548 Z M703.994299,2277.448 C701.206299,2277.448 698.996299,2279.352 698.452299,2282.208 L708.924299,2282.208 C708.890299,2279.148 706.646299,2277.448 703.994299,2277.448 Z M732.13166,2268.506 C730.09166,2268.506 728.66366,2269.186 728.66366,2271.668 L728.66366,2275.442 L732.81166,2275.442 L732.81166,2277.788 L728.66366,2277.788 L728.66366,2292 L726.04566,2292 L726.04566,2277.788 L723.66566,2277.788 L723.66566,2275.442 L726.04566,2275.442 L726.04566,2271.498 C726.04566,2267.724 728.32366,2266.126 731.51966,2266.126 C732.33566,2266.126 732.98166,2266.228 733.59366,2266.398 L733.59366,2268.608 C733.04966,2268.54 732.57366,2268.506 732.13166,2268.506 Z M743.48034,2275.306 C744.02434,2275.306 744.36434,2275.374 744.70434,2275.442 L744.70434,2277.754 L743.71834,2277.754 C741.03234,2277.754 738.51634,2279.454 738.51634,2282.616 L738.51634,2292 L735.89834,2292 L735.89834,2275.442 L738.34634,2275.442 L738.34634,2277.822 C739.57034,2276.19 741.50834,2275.306 743.48034,2275.306 Z M749.491021,2267.214 C750.545021,2267.214 751.429021,2268.064 751.429021,2269.118 C751.429021,2270.206 750.545021,2271.022 749.491021,2271.022 C748.369021,2271.022 747.519021,2270.206 747.519021,2269.118 C747.519021,2268.064 748.369021,2267.214 749.491021,2267.214 Z M750.783021,2275.442 L750.783021,2292 L748.165021,2292 L748.165021,2275.442 L750.783021,2275.442 Z M771.311701,2282.548 C771.311701,2283.432 771.175701,2284.214 771.107701,2284.52 L758.051701,2284.52 C758.391701,2287.818 760.839701,2289.96 764.103701,2289.96 C766.177701,2289.96 767.809701,2289.076 769.169701,2287.716 L770.699701,2289.484 C769.033701,2291.252 766.789701,2292.374 764.069701,2292.374 C759.071701,2292.374 755.297701,2288.6 755.297701,2283.738 C755.297701,2278.91 759.003701,2275.068 763.763701,2275.068 C768.013701,2275.068 771.311701,2278.128 771.311701,2282.548 Z M763.695701,2277.448 C760.907701,2277.448 758.697701,2279.352 758.153701,2282.208 L768.625701,2282.208 C768.591701,2279.148 766.347701,2277.448 763.695701,2277.448 Z M783.408382,2275.068 C787.318382,2275.068 789.562382,2277.754 789.562382,2281.596 L789.562382,2292 L786.944382,2292 L786.944382,2281.902 C786.944382,2279.284 785.380382,2277.482 782.830382,2277.482 C780.280382,2277.482 778.478382,2279.318 778.478382,2281.902 L778.478382,2292 L775.860382,2292 L775.860382,2275.442 L778.308382,2275.442 L778.308382,2277.244 C779.464382,2275.884 781.266382,2275.068 783.408382,2275.068 Z M808.187063,2266.5 L810.805063,2266.5 L810.805063,2292 L808.323063,2292 L808.323063,2289.348 C807.031063,2291.252 804.685063,2292.374 802.067063,2292.374 C797.341063,2292.374 793.873063,2288.6 793.873063,2283.738 C793.873063,2278.842 797.341063,2275.068 802.067063,2275.068 C804.583063,2275.068 806.861063,2276.122 808.187063,2277.89 L808.187063,2266.5 Z M802.441063,2289.96 C805.297063,2289.96 808.221063,2288.09 808.221063,2283.738 C808.221063,2279.386 805.297063,2277.482 802.441063,2277.482 C799.075063,2277.482 796.559063,2280.1 796.559063,2283.704 C796.559063,2287.308 799.041063,2289.96 802.441063,2289.96 Z M819.127743,2266.5 L819.127743,2292 L816.509743,2292 L816.509743,2266.5 L819.127743,2266.5 Z M836.596424,2275.442 L839.384424,2275.442 L831.224424,2294.312 C829.932424,2297.27 828.130424,2298.494 825.614424,2298.494 C824.798424,2298.494 823.846424,2298.358 823.064424,2298.154 L823.064424,2295.944 C823.846424,2296.046 824.492424,2296.114 825.070424,2296.114 C826.668424,2296.114 827.892424,2295.57 828.810424,2293.462 L829.694424,2291.456 L822.826424,2275.442 L825.648424,2275.442 L831.122424,2288.634 L836.596424,2275.442 Z M873.913785,2275.442 L876.701785,2275.442 L869.731785,2292.374 L868.779785,2292.374 L863.135785,2279.862 L857.525785,2292.374 L856.607785,2292.374 L849.569785,2275.442 L852.357785,2275.442 L857.117785,2287.682 L862.659785,2275.068 L863.645785,2275.068 L869.221785,2287.614 L873.913785,2275.442 Z M885.738465,2275.068 C889.512465,2275.068 892.198465,2277.346 892.198465,2281.8 L892.198465,2292 L889.750465,2292 L889.750465,2289.858 C888.560465,2291.456 886.622465,2292.374 884.174465,2292.374 C880.842465,2292.374 878.394465,2290.606 878.394465,2287.716 C878.394465,2284.928 880.740465,2283.092 884.344465,2283.092 L889.580465,2283.092 L889.580465,2281.664 C889.580465,2278.876 888.016465,2277.482 885.568465,2277.482 C883.494465,2277.482 882.032465,2278.468 880.740465,2280.134 L879.006465,2278.706 C880.570465,2276.19 883.086465,2275.068 885.738465,2275.068 Z M884.514465,2290.198 C887.234465,2290.198 889.580465,2288.226 889.580465,2285.642 L889.580465,2285.234 L884.650465,2285.234 C882.338465,2285.234 881.080465,2286.016 881.080465,2287.58 C881.080465,2289.348 882.678465,2290.198 884.514465,2290.198 Z M902.697146,2275.068 C905.077146,2275.068 906.947146,2276.088 908.239146,2277.686 L906.641146,2279.318 C905.553146,2278.196 904.125146,2277.482 902.561146,2277.482 C900.997146,2277.482 899.807146,2278.196 899.807146,2279.556 C899.807146,2280.678 900.657146,2281.222 902.493146,2281.97 L904.023146,2282.616 C907.015146,2283.874 908.409146,2285.166 908.409146,2287.512 C908.409146,2290.742 905.655146,2292.374 902.595146,2292.374 C899.671146,2292.374 897.461146,2290.912 896.135146,2289.144 L897.801146,2287.41 C899.161146,2288.838 900.555146,2289.96 902.561146,2289.96 C904.295146,2289.96 905.723146,2289.11 905.723146,2287.614 C905.723146,2286.186 904.499146,2285.642 902.833146,2284.962 L901.235146,2284.282 C898.719146,2283.228 897.121146,2282.072 897.121146,2279.692 C897.121146,2276.7 899.671146,2275.068 902.697146,2275.068 Z M928.522507,2275.068 C932.296507,2275.068 934.982507,2277.346 934.982507,2281.8 L934.982507,2292 L932.534507,2292 L932.534507,2289.858 C931.344507,2291.456 929.406507,2292.374 926.958507,2292.374 C923.626507,2292.374 921.178507,2290.606 921.178507,2287.716 C921.178507,2284.928 923.524507,2283.092 927.128507,2283.092 L932.364507,2283.092 L932.364507,2281.664 C932.364507,2278.876 930.800507,2277.482 928.352507,2277.482 C926.278507,2277.482 924.816507,2278.468 923.524507,2280.134 L921.790507,2278.706 C923.354507,2276.19 925.870507,2275.068 928.522507,2275.068 Z M927.298507,2290.198 C930.018507,2290.198 932.364507,2288.226 932.364507,2285.642 L932.364507,2285.234 L927.434507,2285.234 C925.122507,2285.234 923.864507,2286.016 923.864507,2287.58 C923.864507,2289.348 925.462507,2290.198 927.298507,2290.198 Z M947.317188,2289.994 C947.963188,2289.994 948.677188,2289.926 949.527188,2289.79 L949.527188,2292 C948.677188,2292.204 947.827188,2292.374 946.773188,2292.374 C943.509188,2292.374 941.197188,2290.776 941.197188,2287.002 L941.197188,2277.788 L938.409188,2277.788 L938.409188,2275.442 L941.197188,2275.442 L941.197188,2270.92 L943.815188,2270.92 L943.815188,2275.442 L948.983188,2275.442 L948.983188,2277.788 L943.815188,2277.788 L943.815188,2286.832 C943.815188,2289.314 945.243188,2289.994 947.317188,2289.994 Z M969.708549,2289.994 C970.354549,2289.994 971.068549,2289.926 971.918549,2289.79 L971.918549,2292 C971.068549,2292.204 970.218549,2292.374 969.164549,2292.374 C965.900549,2292.374 963.588549,2290.776 963.588549,2287.002 L963.588549,2277.788 L960.800549,2277.788 L960.800549,2275.442 L963.588549,2275.442 L963.588549,2270.92 L966.206549,2270.92 L966.206549,2275.442 L971.374549,2275.442 L971.374549,2277.788 L966.206549,2277.788 L966.206549,2286.832 C966.206549,2289.314 967.634549,2289.994 969.708549,2289.994 Z M983.369229,2275.068 C987.245229,2275.068 989.489229,2277.754 989.489229,2281.596 L989.489229,2292 L986.871229,2292 L986.871229,2281.936 C986.871229,2279.318 985.307229,2277.482 982.757229,2277.482 C980.207229,2277.482 978.405229,2279.352 978.405229,2281.936 L978.405229,2292 L975.787229,2292 L975.787229,2266.5 L978.405229,2266.5 L978.405229,2277.312 C979.493229,2275.918 981.227229,2275.068 983.369229,2275.068 Z M1009.81391,2282.548 C1009.81391,2283.432 1009.67791,2284.214 1009.60991,2284.52 L996.55391,2284.52 C996.89391,2287.818 999.34191,2289.96 1002.60591,2289.96 C1004.67991,2289.96 1006.31191,2289.076 1007.67191,2287.716 L1009.20191,2289.484 C1007.53591,2291.252 1005.29191,2292.374 1002.57191,2292.374 C997.57391,2292.374 993.79991,2288.6 993.79991,2283.738 C993.79991,2278.91 997.50591,2275.068 1002.26591,2275.068 C1006.51591,2275.068 1009.81391,2278.128 1009.81391,2282.548 Z M1002.19791,2277.448 C999.40991,2277.448 997.19991,2279.352 996.65591,2282.208 L1007.12791,2282.208 C1007.09391,2279.148 1004.84991,2277.448 1002.19791,2277.448 Z M407.904708,2306.506 C405.864708,2306.506 404.436708,2307.186 404.436708,2309.668 L404.436708,2313.442 L408.584708,2313.442 L408.584708,2315.788 L404.436708,2315.788 L404.436708,2330 L401.818708,2330 L401.818708,2315.788 L399.438708,2315.788 L399.438708,2313.442 L401.818708,2313.442 L401.818708,2309.498 C401.818708,2305.724 404.096708,2304.126 407.292708,2304.126 C408.108708,2304.126 408.754708,2304.228 409.366708,2304.398 L409.366708,2306.608 C408.822708,2306.54 408.346708,2306.506 407.904708,2306.506 Z M419.151389,2313.068 C423.945389,2313.068 427.821389,2316.842 427.821389,2321.704 C427.821389,2326.532 423.945389,2330.34 419.117389,2330.34 C414.323389,2330.306 410.481389,2326.566 410.481389,2321.704 C410.481389,2316.842 414.289389,2313.068 419.151389,2313.068 Z M419.151389,2315.482 C415.683389,2315.482 413.133389,2318.202 413.167389,2321.738 C413.167389,2325.24 415.683389,2327.926 419.117389,2327.926 C422.551389,2327.926 425.135389,2325.206 425.135389,2321.738 C425.135389,2318.168 422.551389,2315.482 419.151389,2315.482 Z M439.952069,2313.306 C440.496069,2313.306 440.836069,2313.374 441.176069,2313.442 L441.176069,2315.754 L440.190069,2315.754 C437.504069,2315.754 434.988069,2317.454 434.988069,2320.616 L434.988069,2330 L432.370069,2330 L432.370069,2313.442 L434.818069,2313.442 L434.818069,2315.822 C436.042069,2314.19 437.980069,2313.306 439.952069,2313.306 Z M459.12075,2320.548 C459.12075,2321.432 458.98475,2322.214 458.91675,2322.52 L445.86075,2322.52 C446.20075,2325.818 448.64875,2327.96 451.91275,2327.96 C453.98675,2327.96 455.61875,2327.076 456.97875,2325.716 L458.50875,2327.484 C456.84275,2329.252 454.59875,2330.374 451.87875,2330.374 C446.88075,2330.374 443.10675,2326.6 443.10675,2321.738 C443.10675,2316.91 446.81275,2313.068 451.57275,2313.068 C455.82275,2313.068 459.12075,2316.128 459.12075,2320.548 Z M451.50475,2315.448 C448.71675,2315.448 446.50675,2317.352 445.96275,2320.208 L456.43475,2320.208 C456.40075,2317.148 454.15675,2315.448 451.50475,2315.448 Z M470.16343,2306.506 C468.12343,2306.506 466.69543,2307.186 466.69543,2309.668 L466.69543,2313.442 L470.84343,2313.442 L470.84343,2315.788 L466.69543,2315.788 L466.69543,2330 L464.07743,2330 L464.07743,2315.788 L461.69743,2315.788 L461.69743,2313.442 L464.07743,2313.442 L464.07743,2309.498 C464.07743,2305.724 466.35543,2304.126 469.55143,2304.126 C470.36743,2304.126 471.01343,2304.228 471.62543,2304.398 L471.62543,2306.608 C471.08143,2306.54 470.60543,2306.506 470.16343,2306.506 Z M481.512111,2313.306 C482.056111,2313.306 482.396111,2313.374 482.736111,2313.442 L482.736111,2315.754 L481.750111,2315.754 C479.064111,2315.754 476.548111,2317.454 476.548111,2320.616 L476.548111,2330 L473.930111,2330 L473.930111,2313.442 L476.378111,2313.442 L476.378111,2315.822 C477.602111,2314.19 479.540111,2313.306 481.512111,2313.306 Z M493.336792,2313.068 C498.130792,2313.068 502.006792,2316.842 502.006792,2321.704 C502.006792,2326.532 498.130792,2330.34 493.302792,2330.34 C488.508792,2330.306 484.666792,2326.566 484.666792,2321.704 C484.666792,2316.842 488.474792,2313.068 493.336792,2313.068 Z M493.336792,2315.482 C489.868792,2315.482 487.318792,2318.202 487.352792,2321.738 C487.352792,2325.24 489.868792,2327.926 493.302792,2327.926 C496.736792,2327.926 499.320792,2325.206 499.320792,2321.738 C499.320792,2318.168 496.736792,2315.482 493.336792,2315.482 Z M514.103472,2313.068 C518.013472,2313.068 520.257472,2315.754 520.257472,2319.596 L520.257472,2330 L517.639472,2330 L517.639472,2319.902 C517.639472,2317.284 516.075472,2315.482 513.525472,2315.482 C510.975472,2315.482 509.173472,2317.318 509.173472,2319.902 L509.173472,2330 L506.555472,2330 L506.555472,2313.442 L509.003472,2313.442 L509.003472,2315.244 C510.159472,2313.884 511.961472,2313.068 514.103472,2313.068 Z M532.592153,2327.994 C533.238153,2327.994 533.952153,2327.926 534.802153,2327.79 L534.802153,2330 C533.952153,2330.204 533.102153,2330.374 532.048153,2330.374 C528.784153,2330.374 526.472153,2328.776 526.472153,2325.002 L526.472153,2315.788 L523.684153,2315.788 L523.684153,2313.442 L526.472153,2313.442 L526.472153,2308.92 L529.090153,2308.92 L529.090153,2313.442 L534.258153,2313.442 L534.258153,2315.788 L529.090153,2315.788 L529.090153,2324.832 C529.090153,2327.314 530.518153,2327.994 532.592153,2327.994 Z M555.629514,2313.068 C560.423514,2313.068 564.299514,2316.842 564.299514,2321.704 C564.299514,2326.532 560.423514,2330.34 555.595514,2330.34 C550.801514,2330.306 546.959514,2326.566 546.959514,2321.704 C546.959514,2316.842 550.767514,2313.068 555.629514,2313.068 Z M555.629514,2315.482 C552.161514,2315.482 549.611514,2318.202 549.645514,2321.738 C549.645514,2325.24 552.161514,2327.926 555.595514,2327.926 C559.029514,2327.926 561.613514,2325.206 561.613514,2321.738 C561.613514,2318.168 559.029514,2315.482 555.629514,2315.482 Z M575.342194,2306.506 C573.302194,2306.506 571.874194,2307.186 571.874194,2309.668 L571.874194,2313.442 L576.022194,2313.442 L576.022194,2315.788 L571.874194,2315.788 L571.874194,2330 L569.256194,2330 L569.256194,2315.788 L566.876194,2315.788 L566.876194,2313.442 L569.256194,2313.442 L569.256194,2309.498 C569.256194,2305.724 571.534194,2304.126 574.730194,2304.126 C575.546194,2304.126 576.192194,2304.228 576.804194,2304.398 L576.804194,2306.608 C576.260194,2306.54 575.784194,2306.506 575.342194,2306.506 Z M602.391556,2320.548 C602.391556,2321.432 602.255556,2322.214 602.187556,2322.52 L589.131556,2322.52 C589.471556,2325.818 591.919556,2327.96 595.183556,2327.96 C597.257556,2327.96 598.889556,2327.076 600.249556,2325.716 L601.779556,2327.484 C600.113556,2329.252 597.869556,2330.374 595.149556,2330.374 C590.151556,2330.374 586.377556,2326.6 586.377556,2321.738 C586.377556,2316.91 590.083556,2313.068 594.843556,2313.068 C599.093556,2313.068 602.391556,2316.128 602.391556,2320.548 Z M594.775556,2315.448 C591.987556,2315.448 589.777556,2317.352 589.233556,2320.208 L599.705556,2320.208 C599.671556,2317.148 597.427556,2315.448 594.775556,2315.448 Z M618.024236,2313.442 L620.812236,2313.442 L613.026236,2330.374 L612.074236,2330.374 L604.254236,2313.442 L607.042236,2313.442 L612.550236,2325.92 L618.024236,2313.442 Z M638.688917,2320.548 C638.688917,2321.432 638.552917,2322.214 638.484917,2322.52 L625.428917,2322.52 C625.768917,2325.818 628.216917,2327.96 631.480917,2327.96 C633.554917,2327.96 635.186917,2327.076 636.546917,2325.716 L638.076917,2327.484 C636.410917,2329.252 634.166917,2330.374 631.446917,2330.374 C626.448917,2330.374 622.674917,2326.6 622.674917,2321.738 C622.674917,2316.91 626.380917,2313.068 631.140917,2313.068 C635.390917,2313.068 638.688917,2316.128 638.688917,2320.548 Z M631.072917,2315.448 C628.284917,2315.448 626.074917,2317.352 625.530917,2320.208 L636.002917,2320.208 C635.968917,2317.148 633.724917,2315.448 631.072917,2315.448 Z M650.819597,2313.306 C651.363597,2313.306 651.703597,2313.374 652.043597,2313.442 L652.043597,2315.754 L651.057597,2315.754 C648.371597,2315.754 645.855597,2317.454 645.855597,2320.616 L645.855597,2330 L643.237597,2330 L643.237597,2313.442 L645.685597,2313.442 L645.685597,2315.822 C646.909597,2314.19 648.847597,2313.306 650.819597,2313.306 Z M667.268278,2313.442 L670.056278,2313.442 L661.896278,2332.312 C660.604278,2335.27 658.802278,2336.494 656.286278,2336.494 C655.470278,2336.494 654.518278,2336.358 653.736278,2336.154 L653.736278,2333.944 C654.518278,2334.046 655.164278,2334.114 655.742278,2334.114 C657.340278,2334.114 658.564278,2333.57 659.482278,2331.462 L660.366278,2329.456 L653.498278,2313.442 L656.320278,2313.442 L661.794278,2326.634 L667.268278,2313.442 Z M696.391639,2304.5 L699.009639,2304.5 L699.009639,2330 L696.527639,2330 L696.527639,2327.348 C695.235639,2329.252 692.889639,2330.374 690.271639,2330.374 C685.545639,2330.374 682.077639,2326.6 682.077639,2321.738 C682.077639,2316.842 685.545639,2313.068 690.271639,2313.068 C692.787639,2313.068 695.065639,2314.122 696.391639,2315.89 L696.391639,2304.5 Z M690.645639,2327.96 C693.501639,2327.96 696.425639,2326.09 696.425639,2321.738 C696.425639,2317.386 693.501639,2315.482 690.645639,2315.482 C687.279639,2315.482 684.763639,2318.1 684.763639,2321.704 C684.763639,2325.308 687.245639,2327.96 690.645639,2327.96 Z M719.538319,2320.548 C719.538319,2321.432 719.402319,2322.214 719.334319,2322.52 L706.278319,2322.52 C706.618319,2325.818 709.066319,2327.96 712.330319,2327.96 C714.404319,2327.96 716.036319,2327.076 717.396319,2325.716 L718.926319,2327.484 C717.260319,2329.252 715.016319,2330.374 712.296319,2330.374 C707.298319,2330.374 703.524319,2326.6 703.524319,2321.738 C703.524319,2316.91 707.230319,2313.068 711.990319,2313.068 C716.240319,2313.068 719.538319,2316.128 719.538319,2320.548 Z M711.922319,2315.448 C709.134319,2315.448 706.924319,2317.352 706.380319,2320.208 L716.852319,2320.208 C716.818319,2317.148 714.574319,2315.448 711.922319,2315.448 Z M731.567,2313.068 C734.559,2313.068 736.939,2314.496 738.401,2316.672 L736.531,2318.168 C735.307,2316.536 733.743,2315.482 731.601,2315.482 C728.133,2315.482 725.583,2318.236 725.583,2321.704 C725.583,2325.206 728.133,2327.96 731.601,2327.96 C733.709,2327.96 735.273,2326.94 736.497,2325.308 L738.367,2326.77 C736.905,2328.946 734.525,2330.374 731.567,2330.374 C726.739,2330.374 722.897,2326.566 722.897,2321.704 C722.897,2316.876 726.739,2313.068 731.567,2313.068 Z M744.105681,2305.214 C745.159681,2305.214 746.043681,2306.064 746.043681,2307.118 C746.043681,2308.206 745.159681,2309.022 744.105681,2309.022 C742.983681,2309.022 742.133681,2308.206 742.133681,2307.118 C742.133681,2306.064 742.983681,2305.214 744.105681,2305.214 Z M745.397681,2313.442 L745.397681,2330 L742.779681,2330 L742.779681,2313.442 L745.397681,2313.442 Z M756.100361,2313.068 C758.480361,2313.068 760.350361,2314.088 761.642361,2315.686 L760.044361,2317.318 C758.956361,2316.196 757.528361,2315.482 755.964361,2315.482 C754.400361,2315.482 753.210361,2316.196 753.210361,2317.556 C753.210361,2318.678 754.060361,2319.222 755.896361,2319.97 L757.426361,2320.616 C760.418361,2321.874 761.812361,2323.166 761.812361,2325.512 C761.812361,2328.742 759.058361,2330.374 755.998361,2330.374 C753.074361,2330.374 750.864361,2328.912 749.538361,2327.144 L751.204361,2325.41 C752.564361,2326.838 753.958361,2327.96 755.964361,2327.96 C757.698361,2327.96 759.126361,2327.11 759.126361,2325.614 C759.126361,2324.186 757.902361,2323.642 756.236361,2322.962 L754.638361,2322.282 C752.122361,2321.228 750.524361,2320.072 750.524361,2317.692 C750.524361,2314.7 753.074361,2313.068 756.100361,2313.068 Z M767.823042,2305.214 C768.877042,2305.214 769.761042,2306.064 769.761042,2307.118 C769.761042,2308.206 768.877042,2309.022 767.823042,2309.022 C766.701042,2309.022 765.851042,2308.206 765.851042,2307.118 C765.851042,2306.064 766.701042,2305.214 767.823042,2305.214 Z M769.115042,2313.442 L769.115042,2330 L766.497042,2330 L766.497042,2313.442 L769.115042,2313.442 Z M782.299722,2313.068 C787.093722,2313.068 790.969722,2316.842 790.969722,2321.704 C790.969722,2326.532 787.093722,2330.34 782.265722,2330.34 C777.471722,2330.306 773.629722,2326.566 773.629722,2321.704 C773.629722,2316.842 777.437722,2313.068 782.299722,2313.068 Z M782.299722,2315.482 C778.831722,2315.482 776.281722,2318.202 776.315722,2321.738 C776.315722,2325.24 778.831722,2327.926 782.265722,2327.926 C785.699722,2327.926 788.283722,2325.206 788.283722,2321.738 C788.283722,2318.168 785.699722,2315.482 782.299722,2315.482 Z M803.066403,2313.068 C806.976403,2313.068 809.220403,2315.754 809.220403,2319.596 L809.220403,2330 L806.602403,2330 L806.602403,2319.902 C806.602403,2317.284 805.038403,2315.482 802.488403,2315.482 C799.938403,2315.482 798.136403,2317.318 798.136403,2319.902 L798.136403,2330 L795.518403,2330 L795.518403,2313.442 L797.966403,2313.442 L797.966403,2315.244 C799.122403,2313.884 800.924403,2313.068 803.066403,2313.068 Z M816.421083,2326.09 C817.577083,2326.09 818.563083,2326.974 818.563083,2328.232 C818.563083,2329.49 817.577083,2330.374 816.421083,2330.374 C815.265083,2330.374 814.279083,2329.49 814.279083,2328.232 C814.279083,2326.974 815.265083,2326.09 816.421083,2326.09 Z M848.774444,2307.56 L851.426444,2307.56 L851.426444,2330.374 L850.474444,2330.374 L836.194444,2313.136 L836.194444,2330 L833.542444,2330 L833.542444,2307.186 L834.494444,2307.186 L848.774444,2324.458 L848.774444,2307.56 Z M863.149125,2313.068 C866.923125,2313.068 869.609125,2315.346 869.609125,2319.8 L869.609125,2330 L867.161125,2330 L867.161125,2327.858 C865.971125,2329.456 864.033125,2330.374 861.585125,2330.374 C858.253125,2330.374 855.805125,2328.606 855.805125,2325.716 C855.805125,2322.928 858.151125,2321.092 861.755125,2321.092 L866.991125,2321.092 L866.991125,2319.664 C866.991125,2316.876 865.427125,2315.482 862.979125,2315.482 C860.905125,2315.482 859.443125,2316.468 858.151125,2318.134 L856.417125,2316.706 C857.981125,2314.19 860.497125,2313.068 863.149125,2313.068 Z M861.925125,2328.198 C864.645125,2328.198 866.991125,2326.226 866.991125,2323.642 L866.991125,2323.234 L862.061125,2323.234 C859.749125,2323.234 858.491125,2324.016 858.491125,2325.58 C858.491125,2327.348 860.089125,2328.198 861.925125,2328.198 Z M886.193806,2313.442 L888.981806,2313.442 L881.195806,2330.374 L880.243806,2330.374 L872.423806,2313.442 L875.211806,2313.442 L880.719806,2325.92 L886.193806,2313.442 Z M894.040486,2305.214 C895.094486,2305.214 895.978486,2306.064 895.978486,2307.118 C895.978486,2308.206 895.094486,2309.022 894.040486,2309.022 C892.918486,2309.022 892.068486,2308.206 892.068486,2307.118 C892.068486,2306.064 892.918486,2305.214 894.040486,2305.214 Z M895.332486,2313.442 L895.332486,2330 L892.714486,2330 L892.714486,2313.442 L895.332486,2313.442 Z M914.467167,2313.442 L916.949167,2313.442 L916.949167,2328.402 C916.949167,2333.502 913.719167,2336.494 908.891167,2336.494 C905.423167,2336.494 902.737167,2334.93 901.105167,2333.298 L902.635167,2331.462 C904.233167,2332.856 906.103167,2334.08 908.823167,2334.08 C912.189167,2334.08 914.331167,2332.21 914.331167,2328.538 L914.331167,2327.076 C912.971167,2328.81 910.659167,2329.83 908.177167,2329.83 C903.519167,2329.83 900.051167,2326.294 900.051167,2321.466 C900.051167,2316.672 903.519167,2313.068 908.177167,2313.068 C910.795167,2313.068 913.175167,2314.224 914.467167,2316.128 L914.467167,2313.442 Z M908.585167,2327.416 C911.475167,2327.416 914.365167,2325.614 914.365167,2321.466 C914.365167,2317.318 911.441167,2315.55 908.585167,2315.55 C905.219167,2315.55 902.703167,2317.998 902.703167,2321.5 C902.703167,2325.002 905.219167,2327.416 908.585167,2327.416 Z M928.603847,2313.068 C932.377847,2313.068 935.063847,2315.346 935.063847,2319.8 L935.063847,2330 L932.615847,2330 L932.615847,2327.858 C931.425847,2329.456 929.487847,2330.374 927.039847,2330.374 C923.707847,2330.374 921.259847,2328.606 921.259847,2325.716 C921.259847,2322.928 923.605847,2321.092 927.209847,2321.092 L932.445847,2321.092 L932.445847,2319.664 C932.445847,2316.876 930.881847,2315.482 928.433847,2315.482 C926.359847,2315.482 924.897847,2316.468 923.605847,2318.134 L921.871847,2316.706 C923.435847,2314.19 925.951847,2313.068 928.603847,2313.068 Z M927.379847,2328.198 C930.099847,2328.198 932.445847,2326.226 932.445847,2323.642 L932.445847,2323.234 L927.515847,2323.234 C925.203847,2323.234 923.945847,2324.016 923.945847,2325.58 C923.945847,2327.348 925.543847,2328.198 927.379847,2328.198 Z M947.398528,2327.994 C948.044528,2327.994 948.758528,2327.926 949.608528,2327.79 L949.608528,2330 C948.758528,2330.204 947.908528,2330.374 946.854528,2330.374 C943.590528,2330.374 941.278528,2328.776 941.278528,2325.002 L941.278528,2315.788 L938.490528,2315.788 L938.490528,2313.442 L941.278528,2313.442 L941.278528,2308.92 L943.896528,2308.92 L943.896528,2313.442 L949.064528,2313.442 L949.064528,2315.788 L943.896528,2315.788 L943.896528,2324.832 C943.896528,2327.314 945.324528,2327.994 947.398528,2327.994 Z M954.803208,2305.214 C955.857208,2305.214 956.741208,2306.064 956.741208,2307.118 C956.741208,2308.206 955.857208,2309.022 954.803208,2309.022 C953.681208,2309.022 952.831208,2308.206 952.831208,2307.118 C952.831208,2306.064 953.681208,2305.214 954.803208,2305.214 Z M956.095208,2313.442 L956.095208,2330 L953.477208,2330 L953.477208,2313.442 L956.095208,2313.442 Z M969.347889,2313.068 C973.257889,2313.068 975.501889,2315.754 975.501889,2319.596 L975.501889,2330 L972.883889,2330 L972.883889,2319.902 C972.883889,2317.284 971.319889,2315.482 968.769889,2315.482 C966.219889,2315.482 964.417889,2317.318 964.417889,2319.902 L964.417889,2330 L961.799889,2330 L961.799889,2313.442 L964.247889,2313.442 L964.247889,2315.244 C965.403889,2313.884 967.205889,2313.068 969.347889,2313.068 Z M994.43257,2313.442 L996.91457,2313.442 L996.91457,2328.402 C996.91457,2333.502 993.68457,2336.494 988.85657,2336.494 C985.38857,2336.494 982.70257,2334.93 981.07057,2333.298 L982.60057,2331.462 C984.19857,2332.856 986.06857,2334.08 988.78857,2334.08 C992.15457,2334.08 994.29657,2332.21 994.29657,2328.538 L994.29657,2327.076 C992.93657,2328.81 990.62457,2329.83 988.14257,2329.83 C983.48457,2329.83 980.01657,2326.294 980.01657,2321.466 C980.01657,2316.672 983.48457,2313.068 988.14257,2313.068 C990.76057,2313.068 993.14057,2314.224 994.43257,2316.128 L994.43257,2313.442 Z M988.55057,2327.416 C991.44057,2327.416 994.33057,2325.614 994.33057,2321.466 C994.33057,2317.318 991.40657,2315.55 988.55057,2315.55 C985.18457,2315.55 982.66857,2317.998 982.66857,2321.5 C982.66857,2325.002 985.18457,2327.416 988.55057,2327.416 Z M1018.93193,2327.994 C1019.57793,2327.994 1020.29193,2327.926 1021.14193,2327.79 L1021.14193,2330 C1020.29193,2330.204 1019.44193,2330.374 1018.38793,2330.374 C1015.12393,2330.374 1012.81193,2328.776 1012.81193,2325.002 L1012.81193,2315.788 L1010.02393,2315.788 L1010.02393,2313.442 L1012.81193,2313.442 L1012.81193,2308.92 L1015.42993,2308.92 L1015.42993,2313.442 L1020.59793,2313.442 L1020.59793,2315.788 L1015.42993,2315.788 L1015.42993,2324.832 C1015.42993,2327.314 1016.85793,2327.994 1018.93193,2327.994 Z M1032.15061,2313.068 C1036.94461,2313.068 1040.82061,2316.842 1040.82061,2321.704 C1040.82061,2326.532 1036.94461,2330.34 1032.11661,2330.34 C1027.32261,2330.306 1023.48061,2326.566 1023.48061,2321.704 C1023.48061,2316.842 1027.28861,2313.068 1032.15061,2313.068 Z M1032.15061,2315.482 C1028.68261,2315.482 1026.13261,2318.202 1026.16661,2321.738 C1026.16661,2325.24 1028.68261,2327.926 1032.11661,2327.926 C1035.55061,2327.926 1038.13461,2325.206 1038.13461,2321.738 C1038.13461,2318.168 1035.55061,2315.482 1032.15061,2315.482 Z M390.354687,2351.068 C395.114687,2351.068 398.548687,2354.842 398.548687,2359.704 C398.548687,2364.6 395.080687,2368.374 390.354687,2368.374 C387.906687,2368.374 385.594687,2367.354 384.268687,2365.586 L384.268687,2374.12 L381.650687,2374.12 L381.650687,2351.442 L384.098687,2351.442 L384.098687,2354.094 C385.390687,2352.19 387.736687,2351.068 390.354687,2351.068 Z M389.980687,2365.96 C393.346687,2365.96 395.862687,2363.342 395.862687,2359.738 C395.862687,2356.134 393.380687,2353.482 389.980687,2353.482 C387.124687,2353.482 384.234687,2355.352 384.234687,2359.704 C384.234687,2364.056 387.090687,2365.96 389.980687,2365.96 Z M410.679368,2351.306 C411.223368,2351.306 411.563368,2351.374 411.903368,2351.442 L411.903368,2353.754 L410.917368,2353.754 C408.231368,2353.754 405.715368,2355.454 405.715368,2358.616 L405.715368,2368 L403.097368,2368 L403.097368,2351.442 L405.545368,2351.442 L405.545368,2353.822 C406.769368,2352.19 408.707368,2351.306 410.679368,2351.306 Z M422.504049,2351.068 C427.298049,2351.068 431.174049,2354.842 431.174049,2359.704 C431.174049,2364.532 427.298049,2368.34 422.470049,2368.34 C417.676049,2368.306 413.834049,2364.566 413.834049,2359.704 C413.834049,2354.842 417.642049,2351.068 422.504049,2351.068 Z M422.504049,2353.482 C419.036049,2353.482 416.486049,2356.202 416.520049,2359.738 C416.520049,2363.24 419.036049,2365.926 422.470049,2365.926 C425.904049,2365.926 428.488049,2363.206 428.488049,2359.738 C428.488049,2356.168 425.904049,2353.482 422.504049,2353.482 Z M437.048729,2343.214 C438.102729,2343.214 438.986729,2344.064 438.986729,2345.118 C438.986729,2346.206 438.102729,2347.022 437.048729,2347.022 C435.926729,2347.022 435.076729,2346.206 435.076729,2345.118 C435.076729,2344.064 435.926729,2343.214 437.048729,2343.214 Z M438.340729,2351.442 L438.340729,2369.122 C438.340729,2372.896 436.062729,2374.494 432.900729,2374.494 C432.050729,2374.494 431.404729,2374.392 430.792729,2374.222 L430.792729,2372.012 C431.370729,2372.08 431.778729,2372.114 432.322729,2372.114 C434.328729,2372.114 435.722729,2371.4 435.722729,2368.952 L435.722729,2351.442 L438.340729,2351.442 Z M458.86941,2358.548 C458.86941,2359.432 458.73341,2360.214 458.66541,2360.52 L445.60941,2360.52 C445.94941,2363.818 448.39741,2365.96 451.66141,2365.96 C453.73541,2365.96 455.36741,2365.076 456.72741,2363.716 L458.25741,2365.484 C456.59141,2367.252 454.34741,2368.374 451.62741,2368.374 C446.62941,2368.374 442.85541,2364.6 442.85541,2359.738 C442.85541,2354.91 446.56141,2351.068 451.32141,2351.068 C455.57141,2351.068 458.86941,2354.128 458.86941,2358.548 Z M451.25341,2353.448 C448.46541,2353.448 446.25541,2355.352 445.71141,2358.208 L456.18341,2358.208 C456.14941,2355.148 453.90541,2353.448 451.25341,2353.448 Z M470.89809,2351.068 C473.89009,2351.068 476.27009,2352.496 477.73209,2354.672 L475.86209,2356.168 C474.63809,2354.536 473.07409,2353.482 470.93209,2353.482 C467.46409,2353.482 464.91409,2356.236 464.91409,2359.704 C464.91409,2363.206 467.46409,2365.96 470.93209,2365.96 C473.04009,2365.96 474.60409,2364.94 475.82809,2363.308 L477.69809,2364.77 C476.23609,2366.946 473.85609,2368.374 470.89809,2368.374 C466.07009,2368.374 462.22809,2364.566 462.22809,2359.704 C462.22809,2354.876 466.07009,2351.068 470.89809,2351.068 Z M488.944771,2365.994 C489.590771,2365.994 490.304771,2365.926 491.154771,2365.79 L491.154771,2368 C490.304771,2368.204 489.454771,2368.374 488.400771,2368.374 C485.136771,2368.374 482.824771,2366.776 482.824771,2363.002 L482.824771,2353.788 L480.036771,2353.788 L480.036771,2351.442 L482.824771,2351.442 L482.824771,2346.92 L485.442771,2346.92 L485.442771,2351.442 L490.610771,2351.442 L490.610771,2353.788 L485.442771,2353.788 L485.442771,2362.832 C485.442771,2365.314 486.870771,2365.994 488.944771,2365.994 Z M500.021451,2351.068 C502.401451,2351.068 504.271451,2352.088 505.563451,2353.686 L503.965451,2355.318 C502.877451,2354.196 501.449451,2353.482 499.885451,2353.482 C498.321451,2353.482 497.131451,2354.196 497.131451,2355.556 C497.131451,2356.678 497.981451,2357.222 499.817451,2357.97 L501.347451,2358.616 C504.339451,2359.874 505.733451,2361.166 505.733451,2363.512 C505.733451,2366.742 502.979451,2368.374 499.919451,2368.374 C496.995451,2368.374 494.785451,2366.912 493.459451,2365.144 L495.125451,2363.41 C496.485451,2364.838 497.879451,2365.96 499.885451,2365.96 C501.619451,2365.96 503.047451,2365.11 503.047451,2363.614 C503.047451,2362.186 501.823451,2361.642 500.157451,2360.962 L498.559451,2360.282 C496.043451,2359.228 494.445451,2358.072 494.445451,2355.692 C494.445451,2352.7 496.995451,2351.068 500.021451,2351.068 Z M513.954132,2364.94 L512.560132,2374.086 L510.418132,2374.086 L510.860132,2364.94 L513.954132,2364.94 Z M534.985493,2351.068 C538.759493,2351.068 541.445493,2353.346 541.445493,2357.8 L541.445493,2368 L538.997493,2368 L538.997493,2365.858 C537.807493,2367.456 535.869493,2368.374 533.421493,2368.374 C530.089493,2368.374 527.641493,2366.606 527.641493,2363.716 C527.641493,2360.928 529.987493,2359.092 533.591493,2359.092 L538.827493,2359.092 L538.827493,2357.664 C538.827493,2354.876 537.263493,2353.482 534.815493,2353.482 C532.741493,2353.482 531.279493,2354.468 529.987493,2356.134 L528.253493,2354.706 C529.817493,2352.19 532.333493,2351.068 534.985493,2351.068 Z M533.761493,2366.198 C536.481493,2366.198 538.827493,2364.226 538.827493,2361.642 L538.827493,2361.234 L533.897493,2361.234 C531.585493,2361.234 530.327493,2362.016 530.327493,2363.58 C530.327493,2365.348 531.925493,2366.198 533.761493,2366.198 Z M551.944174,2351.068 C554.324174,2351.068 556.194174,2352.088 557.486174,2353.686 L555.888174,2355.318 C554.800174,2354.196 553.372174,2353.482 551.808174,2353.482 C550.244174,2353.482 549.054174,2354.196 549.054174,2355.556 C549.054174,2356.678 549.904174,2357.222 551.740174,2357.97 L553.270174,2358.616 C556.262174,2359.874 557.656174,2361.166 557.656174,2363.512 C557.656174,2366.742 554.902174,2368.374 551.842174,2368.374 C548.918174,2368.374 546.708174,2366.912 545.382174,2365.144 L547.048174,2363.41 C548.408174,2364.838 549.802174,2365.96 551.808174,2365.96 C553.542174,2365.96 554.970174,2365.11 554.970174,2363.614 C554.970174,2362.186 553.746174,2361.642 552.080174,2360.962 L550.482174,2360.282 C547.966174,2359.228 546.368174,2358.072 546.368174,2355.692 C546.368174,2352.7 548.918174,2351.068 551.944174,2351.068 Z M593.137535,2351.442 L595.925535,2351.442 L588.955535,2368.374 L588.003535,2368.374 L582.359535,2355.862 L576.749535,2368.374 L575.831535,2368.374 L568.793535,2351.442 L571.581535,2351.442 L576.341535,2363.682 L581.883535,2351.068 L582.869535,2351.068 L588.445535,2363.614 L593.137535,2351.442 Z M613.836215,2358.548 C613.836215,2359.432 613.700215,2360.214 613.632215,2360.52 L600.576215,2360.52 C600.916215,2363.818 603.364215,2365.96 606.628215,2365.96 C608.702215,2365.96 610.334215,2365.076 611.694215,2363.716 L613.224215,2365.484 C611.558215,2367.252 609.314215,2368.374 606.594215,2368.374 C601.596215,2368.374 597.822215,2364.6 597.822215,2359.738 C597.822215,2354.91 601.528215,2351.068 606.288215,2351.068 C610.538215,2351.068 613.836215,2354.128 613.836215,2358.548 Z M606.220215,2353.448 C603.432215,2353.448 601.222215,2355.352 600.678215,2358.208 L611.150215,2358.208 C611.116215,2355.148 608.872215,2353.448 606.220215,2353.448 Z M621.002896,2342.5 L621.002896,2368 L618.384896,2368 L618.384896,2342.5 L621.002896,2342.5 Z M629.325576,2342.5 L629.325576,2368 L626.707576,2368 L626.707576,2342.5 L629.325576,2342.5 Z M650.458937,2351.068 C654.232937,2351.068 656.918937,2353.346 656.918937,2357.8 L656.918937,2368 L654.470937,2368 L654.470937,2365.858 C653.280937,2367.456 651.342937,2368.374 648.894937,2368.374 C645.562937,2368.374 643.114937,2366.606 643.114937,2363.716 C643.114937,2360.928 645.460937,2359.092 649.064937,2359.092 L654.300937,2359.092 L654.300937,2357.664 C654.300937,2354.876 652.736937,2353.482 650.288937,2353.482 C648.214937,2353.482 646.752937,2354.468 645.460937,2356.134 L643.726937,2354.706 C645.290937,2352.19 647.806937,2351.068 650.458937,2351.068 Z M649.234937,2366.198 C651.954937,2366.198 654.300937,2364.226 654.300937,2361.642 L654.300937,2361.234 L649.370937,2361.234 C647.058937,2361.234 645.800937,2362.016 645.800937,2363.58 C645.800937,2365.348 647.398937,2366.198 649.234937,2366.198 Z M667.417618,2351.068 C669.797618,2351.068 671.667618,2352.088 672.959618,2353.686 L671.361618,2355.318 C670.273618,2354.196 668.845618,2353.482 667.281618,2353.482 C665.717618,2353.482 664.527618,2354.196 664.527618,2355.556 C664.527618,2356.678 665.377618,2357.222 667.213618,2357.97 L668.743618,2358.616 C671.735618,2359.874 673.129618,2361.166 673.129618,2363.512 C673.129618,2366.742 670.375618,2368.374 667.315618,2368.374 C664.391618,2368.374 662.181618,2366.912 660.855618,2365.144 L662.521618,2363.41 C663.881618,2364.838 665.275618,2365.96 667.281618,2365.96 C669.015618,2365.96 670.443618,2365.11 670.443618,2363.614 C670.443618,2362.186 669.219618,2361.642 667.553618,2360.962 L665.955618,2360.282 C663.439618,2359.228 661.841618,2358.072 661.841618,2355.692 C661.841618,2352.7 664.391618,2351.068 667.417618,2351.068 Z M708.610979,2351.442 L711.398979,2351.442 L704.428979,2368.374 L703.476979,2368.374 L697.832979,2355.862 L692.222979,2368.374 L691.304979,2368.374 L684.266979,2351.442 L687.054979,2351.442 L691.814979,2363.682 L697.356979,2351.068 L698.342979,2351.068 L703.918979,2363.614 L708.610979,2351.442 Z M716.49166,2343.214 C717.54566,2343.214 718.42966,2344.064 718.42966,2345.118 C718.42966,2346.206 717.54566,2347.022 716.49166,2347.022 C715.36966,2347.022 714.51966,2346.206 714.51966,2345.118 C714.51966,2344.064 715.36966,2343.214 716.49166,2343.214 Z M717.78366,2351.442 L717.78366,2368 L715.16566,2368 L715.16566,2351.442 L717.78366,2351.442 Z M730.32234,2365.994 C730.96834,2365.994 731.68234,2365.926 732.53234,2365.79 L732.53234,2368 C731.68234,2368.204 730.83234,2368.374 729.77834,2368.374 C726.51434,2368.374 724.20234,2366.776 724.20234,2363.002 L724.20234,2353.788 L721.41434,2353.788 L721.41434,2351.442 L724.20234,2351.442 L724.20234,2346.92 L726.82034,2346.92 L726.82034,2351.442 L731.98834,2351.442 L731.98834,2353.788 L726.82034,2353.788 L726.82034,2362.832 C726.82034,2365.314 728.24834,2365.994 730.32234,2365.994 Z M743.983021,2351.068 C747.859021,2351.068 750.103021,2353.754 750.103021,2357.596 L750.103021,2368 L747.485021,2368 L747.485021,2357.936 C747.485021,2355.318 745.921021,2353.482 743.371021,2353.482 C740.821021,2353.482 739.019021,2355.352 739.019021,2357.936 L739.019021,2368 L736.401021,2368 L736.401021,2342.5 L739.019021,2342.5 L739.019021,2353.312 C740.107021,2351.918 741.841021,2351.068 743.983021,2351.068 Z M756.929701,2343.214 C757.983701,2343.214 758.867701,2344.064 758.867701,2345.118 C758.867701,2346.206 757.983701,2347.022 756.929701,2347.022 C755.807701,2347.022 754.957701,2346.206 754.957701,2345.118 C754.957701,2344.064 755.807701,2343.214 756.929701,2343.214 Z M758.221701,2351.442 L758.221701,2368 L755.603701,2368 L755.603701,2351.442 L758.221701,2351.442 Z M771.474382,2351.068 C775.384382,2351.068 777.628382,2353.754 777.628382,2357.596 L777.628382,2368 L775.010382,2368 L775.010382,2357.902 C775.010382,2355.284 773.446382,2353.482 770.896382,2353.482 C768.346382,2353.482 766.544382,2355.318 766.544382,2357.902 L766.544382,2368 L763.926382,2368 L763.926382,2351.442 L766.374382,2351.442 L766.374382,2353.244 C767.530382,2351.884 769.332382,2351.068 771.474382,2351.068 Z M786.665063,2364.94 L785.271063,2374.086 L783.129063,2374.086 L783.571063,2364.94 L786.665063,2364.94 Z M807.696424,2351.068 C811.470424,2351.068 814.156424,2353.346 814.156424,2357.8 L814.156424,2368 L811.708424,2368 L811.708424,2365.858 C810.518424,2367.456 808.580424,2368.374 806.132424,2368.374 C802.800424,2368.374 800.352424,2366.606 800.352424,2363.716 C800.352424,2360.928 802.698424,2359.092 806.302424,2359.092 L811.538424,2359.092 L811.538424,2357.664 C811.538424,2354.876 809.974424,2353.482 807.526424,2353.482 C805.452424,2353.482 803.990424,2354.468 802.698424,2356.134 L800.964424,2354.706 C802.528424,2352.19 805.044424,2351.068 807.696424,2351.068 Z M806.472424,2366.198 C809.192424,2366.198 811.538424,2364.226 811.538424,2361.642 L811.538424,2361.234 L806.608424,2361.234 C804.296424,2361.234 803.038424,2362.016 803.038424,2363.58 C803.038424,2365.348 804.636424,2366.198 806.472424,2366.198 Z M827.239104,2351.306 C827.783104,2351.306 828.123104,2351.374 828.463104,2351.442 L828.463104,2353.754 L827.477104,2353.754 C824.791104,2353.754 822.275104,2355.454 822.275104,2358.616 L822.275104,2368 L819.657104,2368 L819.657104,2351.442 L822.105104,2351.442 L822.105104,2353.822 C823.329104,2352.19 825.267104,2351.306 827.239104,2351.306 Z M846.407785,2358.548 C846.407785,2359.432 846.271785,2360.214 846.203785,2360.52 L833.147785,2360.52 C833.487785,2363.818 835.935785,2365.96 839.199785,2365.96 C841.273785,2365.96 842.905785,2365.076 844.265785,2363.716 L845.795785,2365.484 C844.129785,2367.252 841.885785,2368.374 839.165785,2368.374 C834.167785,2368.374 830.393785,2364.6 830.393785,2359.738 C830.393785,2354.91 834.099785,2351.068 838.859785,2351.068 C843.109785,2351.068 846.407785,2354.128 846.407785,2358.548 Z M838.791785,2353.448 C836.003785,2353.448 833.793785,2355.352 833.249785,2358.208 L843.721785,2358.208 C843.687785,2355.148 841.443785,2353.448 838.791785,2353.448 Z M868.017146,2351.068 C871.893146,2351.068 874.137146,2353.754 874.137146,2357.596 L874.137146,2368 L871.519146,2368 L871.519146,2357.936 C871.519146,2355.318 869.955146,2353.482 867.405146,2353.482 C864.855146,2353.482 863.053146,2355.352 863.053146,2357.936 L863.053146,2368 L860.435146,2368 L860.435146,2342.5 L863.053146,2342.5 L863.053146,2353.312 C864.141146,2351.918 865.875146,2351.068 868.017146,2351.068 Z M885.587826,2351.068 C889.361826,2351.068 892.047826,2353.346 892.047826,2357.8 L892.047826,2368 L889.599826,2368 L889.599826,2365.858 C888.409826,2367.456 886.471826,2368.374 884.023826,2368.374 C880.691826,2368.374 878.243826,2366.606 878.243826,2363.716 C878.243826,2360.928 880.589826,2359.092 884.193826,2359.092 L889.429826,2359.092 L889.429826,2357.664 C889.429826,2354.876 887.865826,2353.482 885.417826,2353.482 C883.343826,2353.482 881.881826,2354.468 880.589826,2356.134 L878.855826,2354.706 C880.419826,2352.19 882.935826,2351.068 885.587826,2351.068 Z M884.363826,2366.198 C887.083826,2366.198 889.429826,2364.226 889.429826,2361.642 L889.429826,2361.234 L884.499826,2361.234 C882.187826,2361.234 880.929826,2362.016 880.929826,2363.58 C880.929826,2365.348 882.527826,2366.198 884.363826,2366.198 Z M905.096507,2351.068 C909.006507,2351.068 911.250507,2353.754 911.250507,2357.596 L911.250507,2368 L908.632507,2368 L908.632507,2357.902 C908.632507,2355.284 907.068507,2353.482 904.518507,2353.482 C901.968507,2353.482 900.166507,2355.318 900.166507,2357.902 L900.166507,2368 L897.548507,2368 L897.548507,2351.442 L899.996507,2351.442 L899.996507,2353.244 C901.152507,2351.884 902.954507,2351.068 905.096507,2351.068 Z M929.875188,2342.5 L932.493188,2342.5 L932.493188,2368 L930.011188,2368 L930.011188,2365.348 C928.719188,2367.252 926.373188,2368.374 923.755188,2368.374 C919.029188,2368.374 915.561188,2364.6 915.561188,2359.738 C915.561188,2354.842 919.029188,2351.068 923.755188,2351.068 C926.271188,2351.068 928.549188,2352.122 929.875188,2353.89 L929.875188,2342.5 Z M924.129188,2365.96 C926.985188,2365.96 929.909188,2364.09 929.909188,2359.738 C929.909188,2355.386 926.985188,2353.482 924.129188,2353.482 C920.763188,2353.482 918.247188,2356.1 918.247188,2359.704 C918.247188,2363.308 920.729188,2365.96 924.129188,2365.96 Z M940.815868,2342.5 L940.815868,2368 L938.197868,2368 L938.197868,2342.5 L940.815868,2342.5 Z M961.344549,2358.548 C961.344549,2359.432 961.208549,2360.214 961.140549,2360.52 L948.084549,2360.52 C948.424549,2363.818 950.872549,2365.96 954.136549,2365.96 C956.210549,2365.96 957.842549,2365.076 959.202549,2363.716 L960.732549,2365.484 C959.066549,2367.252 956.822549,2368.374 954.102549,2368.374 C949.104549,2368.374 945.330549,2364.6 945.330549,2359.738 C945.330549,2354.91 949.036549,2351.068 953.796549,2351.068 C958.046549,2351.068 961.344549,2354.128 961.344549,2358.548 Z M953.728549,2353.448 C950.940549,2353.448 948.730549,2355.352 948.186549,2358.208 L958.658549,2358.208 C958.624549,2355.148 956.380549,2353.448 953.728549,2353.448 Z M979.017229,2342.5 L981.635229,2342.5 L981.635229,2368 L979.153229,2368 L979.153229,2365.348 C977.861229,2367.252 975.515229,2368.374 972.897229,2368.374 C968.171229,2368.374 964.703229,2364.6 964.703229,2359.738 C964.703229,2354.842 968.171229,2351.068 972.897229,2351.068 C975.413229,2351.068 977.691229,2352.122 979.017229,2353.89 L979.017229,2342.5 Z M973.271229,2365.96 C976.127229,2365.96 979.051229,2364.09 979.051229,2359.738 C979.051229,2355.386 976.127229,2353.482 973.271229,2353.482 C969.905229,2353.482 967.389229,2356.1 967.389229,2359.704 C967.389229,2363.308 969.871229,2365.96 973.271229,2365.96 Z M1018.13659,2351.442 L1020.92459,2351.442 L1013.95459,2368.374 L1013.00259,2368.374 L1007.35859,2355.862 L1001.74859,2368.374 L1000.83059,2368.374 L993.79259,2351.442 L996.58059,2351.442 L1001.34059,2363.682 L1006.88259,2351.068 L1007.86859,2351.068 L1013.44459,2363.614 L1018.13659,2351.442 Z M1026.01727,2343.214 C1027.07127,2343.214 1027.95527,2344.064 1027.95527,2345.118 C1027.95527,2346.206 1027.07127,2347.022 1026.01727,2347.022 C1024.89527,2347.022 1024.04527,2346.206 1024.04527,2345.118 C1024.04527,2344.064 1024.89527,2343.214 1026.01727,2343.214 Z M1027.30927,2351.442 L1027.30927,2368 L1024.69127,2368 L1024.69127,2351.442 L1027.30927,2351.442 Z M1039.84795,2365.994 C1040.49395,2365.994 1041.20795,2365.926 1042.05795,2365.79 L1042.05795,2368 C1041.20795,2368.204 1040.35795,2368.374 1039.30395,2368.374 C1036.03995,2368.374 1033.72795,2366.776 1033.72795,2363.002 L1033.72795,2353.788 L1030.93995,2353.788 L1030.93995,2351.442 L1033.72795,2351.442 L1033.72795,2346.92 L1036.34595,2346.92 L1036.34595,2351.442 L1041.51395,2351.442 L1041.51395,2353.788 L1036.34595,2353.788 L1036.34595,2362.832 C1036.34595,2365.314 1037.77395,2365.994 1039.84795,2365.994 Z M1053.50863,2351.068 C1057.38463,2351.068 1059.62863,2353.754 1059.62863,2357.596 L1059.62863,2368 L1057.01063,2368 L1057.01063,2357.936 C1057.01063,2355.318 1055.44663,2353.482 1052.89663,2353.482 C1050.34663,2353.482 1048.54463,2355.352 1048.54463,2357.936 L1048.54463,2368 L1045.92663,2368 L1045.92663,2342.5 L1048.54463,2342.5 L1048.54463,2353.312 C1049.63263,2351.918 1051.36663,2351.068 1053.50863,2351.068 Z M608.439896,2389.068 C612.213896,2389.068 614.899896,2391.346 614.899896,2395.8 L614.899896,2406 L612.451896,2406 L612.451896,2403.858 C611.261896,2405.456 609.323896,2406.374 606.875896,2406.374 C603.543896,2406.374 601.095896,2404.606 601.095896,2401.716 C601.095896,2398.928 603.441896,2397.092 607.045896,2397.092 L612.281896,2397.092 L612.281896,2395.664 C612.281896,2392.876 610.717896,2391.482 608.269896,2391.482 C606.195896,2391.482 604.733896,2392.468 603.441896,2394.134 L601.707896,2392.706 C603.271896,2390.19 605.787896,2389.068 608.439896,2389.068 Z M607.215896,2404.198 C609.935896,2404.198 612.281896,2402.226 612.281896,2399.642 L612.281896,2399.234 L607.351896,2399.234 C605.039896,2399.234 603.781896,2400.016 603.781896,2401.58 C603.781896,2403.348 605.379896,2404.198 607.215896,2404.198 Z M634.877257,2389.068 C637.257257,2389.068 639.127257,2390.088 640.419257,2391.686 L638.821257,2393.318 C637.733257,2392.196 636.305257,2391.482 634.741257,2391.482 C633.177257,2391.482 631.987257,2392.196 631.987257,2393.556 C631.987257,2394.678 632.837257,2395.222 634.673257,2395.97 L636.203257,2396.616 C639.195257,2397.874 640.589257,2399.166 640.589257,2401.512 C640.589257,2404.742 637.835257,2406.374 634.775257,2406.374 C631.851257,2406.374 629.641257,2404.912 628.315257,2403.144 L629.981257,2401.41 C631.341257,2402.838 632.735257,2403.96 634.741257,2403.96 C636.475257,2403.96 637.903257,2403.11 637.903257,2401.614 C637.903257,2400.186 636.679257,2399.642 635.013257,2398.962 L633.415257,2398.282 C630.899257,2397.228 629.301257,2396.072 629.301257,2393.692 C629.301257,2390.7 631.851257,2389.068 634.877257,2389.068 Z M646.599937,2381.214 C647.653937,2381.214 648.537937,2382.064 648.537937,2383.118 C648.537937,2384.206 647.653937,2385.022 646.599937,2385.022 C645.477937,2385.022 644.627937,2384.206 644.627937,2383.118 C644.627937,2382.064 645.477937,2381.214 646.599937,2381.214 Z M647.891937,2389.442 L647.891937,2406 L645.273937,2406 L645.273937,2389.442 L647.891937,2389.442 Z M671.752618,2389.068 C675.628618,2389.068 677.770618,2391.754 677.770618,2395.596 L677.770618,2406 L675.152618,2406 L675.152618,2395.936 C675.152618,2393.318 673.724618,2391.482 671.242618,2391.482 C668.726618,2391.482 666.992618,2393.386 666.992618,2395.698 L666.992618,2406 L664.374618,2406 L664.374618,2395.936 C664.374618,2393.318 662.878618,2391.482 660.430618,2391.482 C657.914618,2391.482 656.214618,2393.318 656.214618,2395.936 L656.214618,2406 L653.596618,2406 L653.596618,2389.442 L656.044618,2389.442 L656.044618,2391.176 C657.200618,2389.85 658.900618,2389.068 660.974618,2389.068 C663.456618,2389.068 665.156618,2390.19 666.074618,2391.924 C667.230618,2390.258 669.202618,2389.068 671.752618,2389.068 Z M691.975299,2389.068 C696.735299,2389.068 700.169299,2392.842 700.169299,2397.704 C700.169299,2402.6 696.701299,2406.374 691.975299,2406.374 C689.527299,2406.374 687.215299,2405.354 685.889299,2403.586 L685.889299,2412.12 L683.271299,2412.12 L683.271299,2389.442 L685.719299,2389.442 L685.719299,2392.094 C687.011299,2390.19 689.357299,2389.068 691.975299,2389.068 Z M691.601299,2403.96 C694.967299,2403.96 697.483299,2401.342 697.483299,2397.738 C697.483299,2394.134 695.001299,2391.482 691.601299,2391.482 C688.745299,2391.482 685.855299,2393.352 685.855299,2397.704 C685.855299,2402.056 688.711299,2403.96 691.601299,2403.96 Z M707.335979,2380.5 L707.335979,2406 L704.717979,2406 L704.717979,2380.5 L707.335979,2380.5 Z M727.86466,2396.548 C727.86466,2397.432 727.72866,2398.214 727.66066,2398.52 L714.60466,2398.52 C714.94466,2401.818 717.39266,2403.96 720.65666,2403.96 C722.73066,2403.96 724.36266,2403.076 725.72266,2401.716 L727.25266,2403.484 C725.58666,2405.252 723.34266,2406.374 720.62266,2406.374 C715.62466,2406.374 711.85066,2402.6 711.85066,2397.738 C711.85066,2392.91 715.55666,2389.068 720.31666,2389.068 C724.56666,2389.068 727.86466,2392.128 727.86466,2396.548 Z M720.24866,2391.448 C717.46066,2391.448 715.25066,2393.352 714.70666,2396.208 L725.17866,2396.208 C725.14466,2393.148 722.90066,2391.448 720.24866,2391.448 Z M746.890021,2389.068 C749.270021,2389.068 751.140021,2390.088 752.432021,2391.686 L750.834021,2393.318 C749.746021,2392.196 748.318021,2391.482 746.754021,2391.482 C745.190021,2391.482 744.000021,2392.196 744.000021,2393.556 C744.000021,2394.678 744.850021,2395.222 746.686021,2395.97 L748.216021,2396.616 C751.208021,2397.874 752.602021,2399.166 752.602021,2401.512 C752.602021,2404.742 749.848021,2406.374 746.788021,2406.374 C743.864021,2406.374 741.654021,2404.912 740.328021,2403.144 L741.994021,2401.41 C743.354021,2402.838 744.748021,2403.96 746.754021,2403.96 C748.488021,2403.96 749.916021,2403.11 749.916021,2401.614 C749.916021,2400.186 748.692021,2399.642 747.026021,2398.962 L745.428021,2398.282 C742.912021,2397.228 741.314021,2396.072 741.314021,2393.692 C741.314021,2390.7 743.864021,2389.068 746.890021,2389.068 Z M779.454701,2389.442 L782.242701,2389.442 L775.272701,2406.374 L774.320701,2406.374 L768.676701,2393.862 L763.066701,2406.374 L762.148701,2406.374 L755.110701,2389.442 L757.898701,2389.442 L762.658701,2401.682 L768.200701,2389.068 L769.186701,2389.068 L774.762701,2401.614 L779.454701,2389.442 Z M787.335382,2381.214 C788.389382,2381.214 789.273382,2382.064 789.273382,2383.118 C789.273382,2384.206 788.389382,2385.022 787.335382,2385.022 C786.213382,2385.022 785.363382,2384.206 785.363382,2383.118 C785.363382,2382.064 786.213382,2381.214 787.335382,2381.214 Z M788.627382,2389.442 L788.627382,2406 L786.009382,2406 L786.009382,2389.442 L788.627382,2389.442 Z M803.036063,2389.068 C807.796063,2389.068 811.230063,2392.842 811.230063,2397.704 C811.230063,2402.6 807.762063,2406.374 803.036063,2406.374 C800.588063,2406.374 798.276063,2405.354 796.950063,2403.586 L796.950063,2412.12 L794.332063,2412.12 L794.332063,2389.442 L796.780063,2389.442 L796.780063,2392.094 C798.072063,2390.19 800.418063,2389.068 803.036063,2389.068 Z M802.662063,2403.96 C806.028063,2403.96 808.544063,2401.342 808.544063,2397.738 C808.544063,2394.134 806.062063,2391.482 802.662063,2391.482 C799.806063,2391.482 796.916063,2393.352 796.916063,2397.704 C796.916063,2402.056 799.772063,2403.96 802.662063,2403.96 Z M830.602743,2396.548 C830.602743,2397.432 830.466743,2398.214 830.398743,2398.52 L817.342743,2398.52 C817.682743,2401.818 820.130743,2403.96 823.394743,2403.96 C825.468743,2403.96 827.100743,2403.076 828.460743,2401.716 L829.990743,2403.484 C828.324743,2405.252 826.080743,2406.374 823.360743,2406.374 C818.362743,2406.374 814.588743,2402.6 814.588743,2397.738 C814.588743,2392.91 818.294743,2389.068 823.054743,2389.068 C827.304743,2389.068 830.602743,2392.128 830.602743,2396.548 Z M822.986743,2391.448 C820.198743,2391.448 817.988743,2393.352 817.444743,2396.208 L827.916743,2396.208 C827.882743,2393.148 825.638743,2391.448 822.986743,2391.448 Z M836.851424,2402.09 C838.007424,2402.09 838.993424,2402.974 838.993424,2404.232 C838.993424,2405.49 838.007424,2406.374 836.851424,2406.374 C835.695424,2406.374 834.709424,2405.49 834.709424,2404.232 C834.709424,2402.974 835.695424,2402.09 836.851424,2402.09 Z" id="Whendeveloping,makingsurethesite’slayoutwasmobilefriendlywasattheforefrontofeverydecision.Navigatingtoprojects,aswellaswithin,arehandledwithasimpleswipe."></path>
        </g>
    </g>
</svg>