<?xml version="1.0" encoding="UTF-8"?>
<svg width="296px" height="34px" viewBox="0 0 296 34" version="1.1" xmlns="http://www.w3.org/2000/svg" xmlns:xlink="http://www.w3.org/1999/xlink">
    <!-- Generator: Sketch 53.2 (72643) - https://sketchapp.com -->
    <title>audreybrown.com</title>
    <desc>Created with Sketch.</desc>
    <g id="Page-1" stroke="none" stroke-width="1" fill="none" fill-rule="evenodd">
        <g id="Desktop-HD-Copy-30" transform="translate(-572.000000, -5651.000000)" fill="#FFFFFF">
            <path d="M588.066666,5667.4586 L588.066666,5678.07006 L583.5997,5678.07006 L583.5997,5676.33758 C582.30284,5677.67304 580.429596,5678.50318 578.160089,5678.50318 C574.377578,5678.50318 572,5676.30149 572,5673.16136 C572,5669.94904 574.593722,5667.96391 578.736472,5667.96391 L583.203437,5667.96391 L583.203437,5667.16985 C583.203437,5665.18471 582.050672,5664.02972 579.889237,5664.02972 C578.052018,5664.02972 576.755157,5664.78769 575.170104,5666.48408 L572.64843,5663.48832 C574.701794,5661.03397 577.295515,5659.80679 580.429596,5659.80679 C585.076681,5659.80679 588.066666,5662.5138 588.066666,5667.4586 Z M583.203437,5671.39278 L583.203437,5671.17622 L579.384902,5671.17622 C577.79985,5671.17622 576.899252,5671.78981 576.899252,5672.98089 C576.899252,5674.17197 577.907922,5674.92994 579.45695,5674.92994 C581.582361,5674.92994 583.203437,5673.45011 583.203437,5671.39278 Z M591.825411,5670.2017 L591.825411,5660.20382 L596.68864,5660.20382 L596.68864,5670.59873 C596.68864,5672.65605 598.093572,5674.0276 600.074888,5674.0276 C601.948131,5674.0276 603.389088,5672.65605 603.389088,5670.59873 L603.389088,5660.20382 L608.252316,5660.20382 L608.252316,5670.2017 C608.252316,5675.18259 604.721973,5678.50318 600.074888,5678.50318 C595.319731,5678.50318 591.825411,5675.18259 591.825411,5670.2017 Z M625.123766,5651 L629.986995,5651 L629.986995,5678.07006 L625.520029,5678.07006 L625.520029,5675.86837 C624.33124,5677.56476 622.241853,5678.50318 619.792227,5678.50318 C614.820927,5678.50318 611.146487,5674.53291 611.146487,5669.15499 C611.146487,5663.77707 614.820927,5659.80679 619.792227,5659.80679 C622.061734,5659.80679 623.826905,5660.52866 625.123766,5661.93631 L625.123766,5651 Z M625.195814,5669.15499 C625.195814,5665.97877 623.142451,5664.21019 620.692825,5664.21019 C618.099103,5664.21019 616.081764,5666.19533 616.081764,5669.1189 C616.081764,5672.11465 618.063079,5674.06369 620.692825,5674.06369 C623.142451,5674.06369 625.195814,5672.3673 625.195814,5669.15499 Z M645.021225,5660.20382 L645.021225,5664.49894 L643.724364,5664.49894 C640.806427,5664.49894 638.933184,5666.08705 638.933184,5669.15499 L638.933184,5678.07006 L634.069955,5678.07006 L634.069955,5660.20382 L638.536921,5660.20382 L638.536921,5662.33333 C639.72571,5660.8535 641.454858,5659.98726 643.436173,5659.98726 C644.04858,5659.98726 644.552914,5660.05945 645.021225,5660.20382 Z M663.333632,5670.77919 L650.833334,5670.77919 C651.409716,5673.05308 653.246936,5674.31635 655.840658,5674.31635 C657.60583,5674.31635 659.26293,5673.70276 660.811958,5672.51168 L662.829297,5675.83227 C660.703886,5677.60085 658.326308,5678.50318 655.696562,5678.50318 C650.184903,5678.61146 645.826009,5674.31635 645.934081,5669.15499 C645.826009,5663.99363 650.112855,5659.69851 655.264275,5659.80679 C660.199551,5659.80679 663.657847,5663.45223 663.657847,5668.10828 C663.657847,5668.97452 663.549775,5669.87686 663.333632,5670.77919 Z M650.833334,5667.35032 L658.938714,5667.35032 C658.90269,5665.14862 657.209566,5663.74098 655.084156,5663.74098 C653.030792,5663.74098 651.373692,5665.14862 650.833334,5667.35032 Z M678.692078,5660.20382 L683.807474,5660.20382 L675.269806,5679.62208 C673.64873,5683.3397 671.487295,5685 668.173095,5685 C667.164425,5685 666.119732,5684.85563 665.039014,5684.56688 L665.039014,5680.48832 C666.155755,5680.5966 666.84021,5680.6327 667.128401,5680.6327 C668.857549,5680.6327 670.010314,5680.0913 670.838864,5678.21444 L671.379223,5676.98726 L664.534679,5660.20382 L669.686099,5660.20382 L674.044993,5671.93418 L678.692078,5660.20382 Z M704.749626,5669.15499 C704.749626,5674.53291 701.075187,5678.50318 696.103887,5678.50318 C693.65426,5678.50318 691.636921,5677.56476 690.376084,5675.86837 L690.376084,5678.07006 L685.909119,5678.07006 L685.909119,5651 L690.772347,5651 L690.772347,5661.93631 C692.069208,5660.52866 693.83438,5659.80679 696.103887,5659.80679 C701.075187,5659.80679 704.749626,5663.77707 704.749626,5669.15499 Z M699.81435,5669.1189 C699.81435,5666.19533 697.797011,5664.21019 695.203289,5664.21019 C692.717639,5664.21019 690.700299,5665.97877 690.700299,5669.15499 C690.700299,5672.3673 692.753662,5674.06369 695.203289,5674.06369 C697.833034,5674.06369 699.81435,5672.11465 699.81435,5669.1189 Z M718.775187,5660.20382 L718.775187,5664.49894 L717.478326,5664.49894 C714.560389,5664.49894 712.687145,5666.08705 712.687145,5669.15499 L712.687145,5678.07006 L707.823917,5678.07006 L707.823917,5660.20382 L712.290882,5660.20382 L712.290882,5662.33333 C713.479671,5660.8535 715.208819,5659.98726 717.190135,5659.98726 C717.802541,5659.98726 718.306876,5660.05945 718.775187,5660.20382 Z M719.688043,5669.1189 C719.579971,5664.02972 724.010913,5659.69851 729.23438,5659.80679 C734.457848,5659.73461 738.924813,5664.02972 738.816742,5669.1189 C738.924813,5674.20807 734.421824,5678.57537 729.198356,5678.46709 C723.974889,5678.57537 719.579971,5674.20807 719.688043,5669.1189 Z M733.845441,5669.15499 C733.845441,5666.3758 731.864126,5664.24628 729.23438,5664.24628 C726.532587,5664.24628 724.623319,5666.30361 724.623319,5669.15499 C724.623319,5671.93418 726.532587,5673.99151 729.23438,5673.99151 C731.864126,5673.99151 733.845441,5671.93418 733.845441,5669.15499 Z M764.04574,5660.20382 L769.161136,5660.20382 L760.875635,5678.50318 L759.290583,5678.50318 L754.175187,5668.10828 L749.023767,5678.50318 L747.438715,5678.50318 L739.153215,5660.20382 L744.268611,5660.20382 L748.483409,5670.38217 L753.346637,5659.80679 L754.967713,5659.80679 L759.90299,5670.16561 L764.04574,5660.20382 Z M787.653662,5666.98938 L787.653662,5678.07006 L782.826457,5678.07006 L782.826457,5667.63907 C782.826457,5665.58174 781.493573,5664.1741 779.512257,5664.1741 C777.530942,5664.1741 776.126009,5665.58174 776.126009,5667.63907 L776.126009,5678.07006 L771.262781,5678.07006 L771.262781,5660.20382 L775.729746,5660.20382 L775.729746,5661.82803 C776.990583,5660.56476 778.827803,5659.80679 780.953214,5659.80679 C785.095964,5659.80679 787.653662,5662.65817 787.653662,5666.98938 Z M790.872049,5675.1465 C790.872049,5673.26964 792.349029,5671.78981 794.258296,5671.78981 C796.13154,5671.78981 797.572497,5673.26964 797.572497,5675.1465 C797.572497,5677.05945 796.167564,5678.50318 794.258296,5678.50318 C792.349029,5678.50318 790.872049,5677.05945 790.872049,5675.1465 Z M799.56607,5669.1189 C799.56607,5663.88535 803.816892,5659.80679 809.112407,5659.80679 C812.606727,5659.80679 815.308521,5661.46709 816.857549,5664.21019 L813.471301,5666.84501 C812.35456,5665.22081 811.057699,5664.24628 809.184455,5664.24628 C806.446638,5664.24628 804.501346,5666.3397 804.501346,5669.1189 C804.501346,5671.97028 806.446638,5674.0276 809.184455,5674.0276 C811.021675,5674.0276 812.318536,5673.08917 813.471301,5671.46497 L816.857549,5674.06369 C815.308521,5676.80679 812.570703,5678.50318 809.112407,5678.50318 C803.88894,5678.61146 799.494022,5674.28025 799.56607,5669.1189 Z M818.346788,5669.1189 C818.238716,5664.02972 822.669657,5659.69851 827.893125,5659.80679 C833.116593,5659.73461 837.583558,5664.02972 837.475486,5669.1189 C837.583558,5674.20807 833.080569,5678.57537 827.857101,5678.46709 C822.633633,5678.57537 818.238716,5674.20807 818.346788,5669.1189 Z M832.504186,5669.15499 C832.504186,5666.3758 830.522871,5664.24628 827.893125,5664.24628 C825.191331,5664.24628 823.282064,5666.30361 823.282064,5669.15499 C823.282064,5671.93418 825.191331,5673.99151 827.893125,5673.99151 C830.522871,5673.99151 832.504186,5671.93418 832.504186,5669.15499 Z M868,5666.98938 L868,5678.07006 L863.136772,5678.07006 L863.136772,5667.67516 C863.136772,5665.54565 861.875935,5664.21019 859.966667,5664.21019 C858.0574,5664.21019 856.688491,5665.58174 856.688491,5667.56688 L856.688491,5678.07006 L851.825262,5678.07006 L851.825262,5667.67516 C851.825262,5665.54565 850.564425,5664.21019 848.655158,5664.21019 C846.673843,5664.21019 845.376982,5665.54565 845.376982,5667.67516 L845.376982,5678.07006 L840.513753,5678.07006 L840.513753,5660.20382 L844.980719,5660.20382 L844.980719,5661.79193 C846.169508,5660.52866 847.970704,5659.80679 850.024067,5659.80679 C852.365621,5659.80679 854.130793,5660.67304 855.319582,5662.36943 C856.724515,5660.78132 858.813902,5659.80679 861.263528,5659.80679 C865.442302,5659.80679 868,5662.65817 868,5666.98938 Z" id="audreybrown.com"></path>
        </g>
    </g>
</svg>