<?xml version="1.0" encoding="UTF-8"?>
<svg width="572px" height="189px" viewBox="0 0 572 189" version="1.1" xmlns="http://www.w3.org/2000/svg" xmlns:xlink="http://www.w3.org/1999/xlink">
    <!-- Generator: Sketch 53.2 (72643) - https://sketchapp.com -->
    <title>AudreyBrown</title>
    <desc>Created with Sketch.</desc>
    <defs>
        <linearGradient x1="74.000038%" y1="49.5042387%" x2="-16.1444198%" y2="51.6393035%" id="linearGradient-1">
            <stop stop-color="#FA8561" offset="0%"></stop>
            <stop stop-color="#D31CF7" offset="100%"></stop>
        </linearGradient>
    </defs>
    <g id="Page-1" stroke="none" stroke-width="1" fill="none" fill-rule="evenodd">
        <g id="Desktop-HD-Copy-27" transform="translate(-1119.000000, -496.000000)">
            <g id="AudreyBrown" transform="translate(1119.000000, 496.000000)">
                <rect id="Rectangle-Copy-2" fill="#000000" x="0" y="0" width="572" height="189" rx="16"></rect>
                <path d="M83.164,116 L80.352,109.464 L59.832,109.464 L57.02,116 L46,116 L68.42,64.928 L71.84,64.928 L94.184,116 L83.164,116 Z M76.704,101.028 L70.092,84.156 L63.48,101.028 L76.704,101.028 Z M131.706137,78.38 L131.706137,99.432 C131.706137,110.072 124.258137,116.912 114.454137,116.912 C104.498137,116.912 97.050137,110.072 97.050137,99.432 L97.050137,78.38 L107.310137,78.38 L107.310137,100.268 C107.310137,104.676 110.426137,107.488 114.454137,107.488 C118.330137,107.488 121.446137,104.676 121.446137,100.268 L121.446137,78.38 L131.706137,78.38 Z M167.100274,59 L177.360274,59 L177.360274,116 L167.936274,116 L167.936274,111.288 C165.352274,114.86 161.096274,116.912 155.852274,116.912 C145.212274,116.912 137.612274,108.552 137.612274,97.228 C137.612274,85.904 145.212274,77.544 155.852274,77.544 C160.564274,77.544 164.516274,79.14 167.100274,82.028 L167.100274,59 Z M157.752274,107.564 C162.464274,107.564 167.252274,104.448 167.252274,97.228 C167.252274,90.084 162.464274,86.816 157.752274,86.816 C152.432274,86.816 148.024274,90.768 148.024274,97.152 C148.024274,103.536 152.356274,107.564 157.752274,107.564 Z M205.534411,77.924 C206.902411,77.924 207.890411,78.076 208.878411,78.38 L208.878411,87.424 L206.142411,87.424 C200.214411,87.424 196.034411,90.464 196.034411,97.228 L196.034411,116 L185.774411,116 L185.774411,78.38 L195.198411,78.38 L195.198411,82.94 C197.706411,79.672 201.430411,77.924 205.534411,77.924 Z M247.996548,95.024 C247.996548,97.152 247.616548,99.356 247.312548,100.648 L220.864548,100.648 C222.156548,105.436 226.108548,108.096 231.504548,108.096 C235.608548,108.096 238.952548,106.652 241.992548,104.296 L246.248548,111.288 C241.992548,114.86 236.976548,116.912 231.200548,116.912 C219.268548,116.912 210.604548,108.324 210.604548,97.228 C210.604548,86.132 219.192548,77.544 230.288548,77.544 C240.852548,77.544 247.996548,85.296 247.996548,95.024 Z M229.908548,85.828 C225.576548,85.828 222.080548,88.716 220.864548,93.428 L238.040548,93.428 C237.964548,88.64 234.240548,85.828 229.908548,85.828 Z M279.210685,78.38 L290.002685,78.38 L271.990685,119.268 C268.570685,127.02 264.086685,130.592 257.018685,130.592 C254.890685,130.592 252.382685,130.212 250.406685,129.68 L250.406685,121.092 C252.154685,121.244 253.598685,121.396 254.814685,121.396 C258.082685,121.396 260.742685,120.56 262.642685,116.304 L263.782685,113.796 L249.342685,78.38 L260.210685,78.38 L269.406685,103.08 L279.210685,78.38 Z M344.374959,88.868 C349.922959,90.844 353.266959,95.176 353.266959,101.256 C353.266959,109.92 346.502959,116 336.774959,116 L314.430959,116 L314.430959,65.84 L332.214959,65.84 C341.486959,65.84 348.098959,71.54 348.098959,79.824 C348.098959,83.548 346.730959,86.588 344.374959,88.868 Z M331.378959,74.656 L324.310959,74.656 L324.310959,86.132 L331.378959,86.132 C335.634959,86.132 337.914959,83.776 337.914959,80.356 C337.914959,76.86 335.634959,74.656 331.378959,74.656 Z M336.014959,107.184 C340.498959,107.184 343.158959,104.828 343.158959,100.876 C343.158959,97 340.498959,94.568 336.014959,94.568 L324.310959,94.568 L324.310959,107.184 L336.014959,107.184 Z M378.933096,77.924 C380.301096,77.924 381.289096,78.076 382.277096,78.38 L382.277096,87.424 L379.541096,87.424 C373.613096,87.424 369.433096,90.464 369.433096,97.228 L369.433096,116 L359.173096,116 L359.173096,78.38 L368.597096,78.38 L368.597096,82.94 C371.105096,79.672 374.829096,77.924 378.933096,77.924 Z M404.143233,77.544 C415.239233,77.544 424.359233,86.056 424.359233,97.152 C424.359233,108.324 415.239233,116.836 404.067233,116.836 C392.895233,116.836 384.003233,108.324 384.003233,97.152 C384.003233,86.056 392.895233,77.544 404.143233,77.544 Z M404.143233,86.892 C398.443233,86.892 394.415233,91.3 394.415233,97.228 C394.415233,103.156 398.443233,107.412 404.143233,107.412 C409.691233,107.412 413.871233,103.08 413.871233,97.228 C413.871233,91.3 409.691233,86.892 404.143233,86.892 Z M477.38537,78.38 L488.17737,78.38 L470.69737,116.912 L467.35337,116.912 L456.48537,95.024 L445.69337,116.912 L442.34937,116.912 L424.86937,78.38 L435.66137,78.38 L444.62937,99.812 L454.81337,77.544 L458.23337,77.544 L468.64537,99.356 L477.38537,78.38 Z M512.855507,77.544 C521.671507,77.544 526.991507,83.624 526.991507,92.668 L526.991507,116 L516.807507,116 L516.807507,94.036 C516.807507,89.704 513.995507,86.74 509.815507,86.74 C505.635507,86.74 502.671507,89.704 502.671507,94.036 L502.671507,116 L492.411507,116 L492.411507,78.38 L501.835507,78.38 L501.835507,81.8 C504.419507,79.216 508.219507,77.544 512.855507,77.544 Z" fill="url(#linearGradient-1)" fill-rule="nonzero"></path>
            </g>
        </g>
    </g>
</svg>