<?xml version="1.0" encoding="UTF-8"?>
<svg width="637px" height="74px" viewBox="0 0 637 74" version="1.1" xmlns="http://www.w3.org/2000/svg" xmlns:xlink="http://www.w3.org/1999/xlink">
    <!-- Generator: Sketch 53.2 (72643) - https://sketchapp.com -->
    <title>ThesitewascreatedusingHTML5,CSS3,VanillaJS,andSwiperJS.</title>
    <desc>Created with Sketch.</desc>
    <g id="Page-1" stroke="none" stroke-width="1" fill="none" fill-rule="evenodd">
        <g id="Desktop-HD-Copy-30" transform="translate(-401.000000, -1167.000000)" fill="#404648" fill-rule="nonzero">
            <path d="M419.589729,1170.56 L419.589729,1172.94 L411.667729,1172.94 L411.667729,1193 L409.015729,1193 L409.015729,1172.94 L401.127729,1172.94 L401.127729,1170.56 L419.589729,1170.56 Z M430.66641,1176.068 C434.54241,1176.068 436.78641,1178.754 436.78641,1182.596 L436.78641,1193 L434.16841,1193 L434.16841,1182.936 C434.16841,1180.318 432.60441,1178.482 430.05441,1178.482 C427.50441,1178.482 425.70241,1180.352 425.70241,1182.936 L425.70241,1193 L423.08441,1193 L423.08441,1167.5 L425.70241,1167.5 L425.70241,1178.312 C426.79041,1176.918 428.52441,1176.068 430.66641,1176.068 Z M457.11109,1183.548 C457.11109,1184.432 456.97509,1185.214 456.90709,1185.52 L443.85109,1185.52 C444.19109,1188.818 446.63909,1190.96 449.90309,1190.96 C451.97709,1190.96 453.60909,1190.076 454.96909,1188.716 L456.49909,1190.484 C454.83309,1192.252 452.58909,1193.374 449.86909,1193.374 C444.87109,1193.374 441.09709,1189.6 441.09709,1184.738 C441.09709,1179.91 444.80309,1176.068 449.56309,1176.068 C453.81309,1176.068 457.11109,1179.128 457.11109,1183.548 Z M449.49509,1178.448 C446.70709,1178.448 444.49709,1180.352 443.95309,1183.208 L454.42509,1183.208 C454.39109,1180.148 452.14709,1178.448 449.49509,1178.448 Z M476.136451,1176.068 C478.516451,1176.068 480.386451,1177.088 481.678451,1178.686 L480.080451,1180.318 C478.992451,1179.196 477.564451,1178.482 476.000451,1178.482 C474.436451,1178.482 473.246451,1179.196 473.246451,1180.556 C473.246451,1181.678 474.096451,1182.222 475.932451,1182.97 L477.462451,1183.616 C480.454451,1184.874 481.848451,1186.166 481.848451,1188.512 C481.848451,1191.742 479.094451,1193.374 476.034451,1193.374 C473.110451,1193.374 470.900451,1191.912 469.574451,1190.144 L471.240451,1188.41 C472.600451,1189.838 473.994451,1190.96 476.000451,1190.96 C477.734451,1190.96 479.162451,1190.11 479.162451,1188.614 C479.162451,1187.186 477.938451,1186.642 476.272451,1185.962 L474.674451,1185.282 C472.158451,1184.228 470.560451,1183.072 470.560451,1180.692 C470.560451,1177.7 473.110451,1176.068 476.136451,1176.068 Z M487.859132,1168.214 C488.913132,1168.214 489.797132,1169.064 489.797132,1170.118 C489.797132,1171.206 488.913132,1172.022 487.859132,1172.022 C486.737132,1172.022 485.887132,1171.206 485.887132,1170.118 C485.887132,1169.064 486.737132,1168.214 487.859132,1168.214 Z M489.151132,1176.442 L489.151132,1193 L486.533132,1193 L486.533132,1176.442 L489.151132,1176.442 Z M501.689812,1190.994 C502.335812,1190.994 503.049812,1190.926 503.899812,1190.79 L503.899812,1193 C503.049812,1193.204 502.199812,1193.374 501.145812,1193.374 C497.881812,1193.374 495.569812,1191.776 495.569812,1188.002 L495.569812,1178.788 L492.781812,1178.788 L492.781812,1176.442 L495.569812,1176.442 L495.569812,1171.92 L498.187812,1171.92 L498.187812,1176.442 L503.355812,1176.442 L503.355812,1178.788 L498.187812,1178.788 L498.187812,1187.832 C498.187812,1190.314 499.615812,1190.994 501.689812,1190.994 Z M522.252493,1183.548 C522.252493,1184.432 522.116493,1185.214 522.048493,1185.52 L508.992493,1185.52 C509.332493,1188.818 511.780493,1190.96 515.044493,1190.96 C517.118493,1190.96 518.750493,1190.076 520.110493,1188.716 L521.640493,1190.484 C519.974493,1192.252 517.730493,1193.374 515.010493,1193.374 C510.012493,1193.374 506.238493,1189.6 506.238493,1184.738 C506.238493,1179.91 509.944493,1176.068 514.704493,1176.068 C518.954493,1176.068 522.252493,1179.128 522.252493,1183.548 Z M514.636493,1178.448 C511.848493,1178.448 509.638493,1180.352 509.094493,1183.208 L519.566493,1183.208 C519.532493,1180.148 517.288493,1178.448 514.636493,1178.448 Z M557.597854,1176.442 L560.385854,1176.442 L553.415854,1193.374 L552.463854,1193.374 L546.819854,1180.862 L541.209854,1193.374 L540.291854,1193.374 L533.253854,1176.442 L536.041854,1176.442 L540.801854,1188.682 L546.343854,1176.068 L547.329854,1176.068 L552.905854,1188.614 L557.597854,1176.442 Z M569.422535,1176.068 C573.196535,1176.068 575.882535,1178.346 575.882535,1182.8 L575.882535,1193 L573.434535,1193 L573.434535,1190.858 C572.244535,1192.456 570.306535,1193.374 567.858535,1193.374 C564.526535,1193.374 562.078535,1191.606 562.078535,1188.716 C562.078535,1185.928 564.424535,1184.092 568.028535,1184.092 L573.264535,1184.092 L573.264535,1182.664 C573.264535,1179.876 571.700535,1178.482 569.252535,1178.482 C567.178535,1178.482 565.716535,1179.468 564.424535,1181.134 L562.690535,1179.706 C564.254535,1177.19 566.770535,1176.068 569.422535,1176.068 Z M568.198535,1191.198 C570.918535,1191.198 573.264535,1189.226 573.264535,1186.642 L573.264535,1186.234 L568.334535,1186.234 C566.022535,1186.234 564.764535,1187.016 564.764535,1188.58 C564.764535,1190.348 566.362535,1191.198 568.198535,1191.198 Z M586.381215,1176.068 C588.761215,1176.068 590.631215,1177.088 591.923215,1178.686 L590.325215,1180.318 C589.237215,1179.196 587.809215,1178.482 586.245215,1178.482 C584.681215,1178.482 583.491215,1179.196 583.491215,1180.556 C583.491215,1181.678 584.341215,1182.222 586.177215,1182.97 L587.707215,1183.616 C590.699215,1184.874 592.093215,1186.166 592.093215,1188.512 C592.093215,1191.742 589.339215,1193.374 586.279215,1193.374 C583.355215,1193.374 581.145215,1191.912 579.819215,1190.144 L581.485215,1188.41 C582.845215,1189.838 584.239215,1190.96 586.245215,1190.96 C587.979215,1190.96 589.407215,1190.11 589.407215,1188.614 C589.407215,1187.186 588.183215,1186.642 586.517215,1185.962 L584.919215,1185.282 C582.403215,1184.228 580.805215,1183.072 580.805215,1180.692 C580.805215,1177.7 583.355215,1176.068 586.381215,1176.068 Z M613.736576,1176.068 C616.728576,1176.068 619.108576,1177.496 620.570576,1179.672 L618.700576,1181.168 C617.476576,1179.536 615.912576,1178.482 613.770576,1178.482 C610.302576,1178.482 607.752576,1181.236 607.752576,1184.704 C607.752576,1188.206 610.302576,1190.96 613.770576,1190.96 C615.878576,1190.96 617.442576,1189.94 618.666576,1188.308 L620.536576,1189.77 C619.074576,1191.946 616.694576,1193.374 613.736576,1193.374 C608.908576,1193.374 605.066576,1189.566 605.066576,1184.704 C605.066576,1179.876 608.908576,1176.068 613.736576,1176.068 Z M632.531257,1176.306 C633.075257,1176.306 633.415257,1176.374 633.755257,1176.442 L633.755257,1178.754 L632.769257,1178.754 C630.083257,1178.754 627.567257,1180.454 627.567257,1183.616 L627.567257,1193 L624.949257,1193 L624.949257,1176.442 L627.397257,1176.442 L627.397257,1178.822 C628.621257,1177.19 630.559257,1176.306 632.531257,1176.306 Z M651.699937,1183.548 C651.699937,1184.432 651.563937,1185.214 651.495937,1185.52 L638.439937,1185.52 C638.779937,1188.818 641.227937,1190.96 644.491937,1190.96 C646.565937,1190.96 648.197937,1190.076 649.557937,1188.716 L651.087937,1190.484 C649.421937,1192.252 647.177937,1193.374 644.457937,1193.374 C639.459937,1193.374 635.685937,1189.6 635.685937,1184.738 C635.685937,1179.91 639.391937,1176.068 644.151937,1176.068 C648.401937,1176.068 651.699937,1179.128 651.699937,1183.548 Z M644.083937,1178.448 C641.295937,1178.448 639.085937,1180.352 638.541937,1183.208 L649.013937,1183.208 C648.979937,1180.148 646.735937,1178.448 644.083937,1178.448 Z M662.198618,1176.068 C665.972618,1176.068 668.658618,1178.346 668.658618,1182.8 L668.658618,1193 L666.210618,1193 L666.210618,1190.858 C665.020618,1192.456 663.082618,1193.374 660.634618,1193.374 C657.302618,1193.374 654.854618,1191.606 654.854618,1188.716 C654.854618,1185.928 657.200618,1184.092 660.804618,1184.092 L666.040618,1184.092 L666.040618,1182.664 C666.040618,1179.876 664.476618,1178.482 662.028618,1178.482 C659.954618,1178.482 658.492618,1179.468 657.200618,1181.134 L655.466618,1179.706 C657.030618,1177.19 659.546618,1176.068 662.198618,1176.068 Z M660.974618,1191.198 C663.694618,1191.198 666.040618,1189.226 666.040618,1186.642 L666.040618,1186.234 L661.110618,1186.234 C658.798618,1186.234 657.540618,1187.016 657.540618,1188.58 C657.540618,1190.348 659.138618,1191.198 660.974618,1191.198 Z M680.993299,1190.994 C681.639299,1190.994 682.353299,1190.926 683.203299,1190.79 L683.203299,1193 C682.353299,1193.204 681.503299,1193.374 680.449299,1193.374 C677.185299,1193.374 674.873299,1191.776 674.873299,1188.002 L674.873299,1178.788 L672.085299,1178.788 L672.085299,1176.442 L674.873299,1176.442 L674.873299,1171.92 L677.491299,1171.92 L677.491299,1176.442 L682.659299,1176.442 L682.659299,1178.788 L677.491299,1178.788 L677.491299,1187.832 C677.491299,1190.314 678.919299,1190.994 680.993299,1190.994 Z M701.555979,1183.548 C701.555979,1184.432 701.419979,1185.214 701.351979,1185.52 L688.295979,1185.52 C688.635979,1188.818 691.083979,1190.96 694.347979,1190.96 C696.421979,1190.96 698.053979,1190.076 699.413979,1188.716 L700.943979,1190.484 C699.277979,1192.252 697.033979,1193.374 694.313979,1193.374 C689.315979,1193.374 685.541979,1189.6 685.541979,1184.738 C685.541979,1179.91 689.247979,1176.068 694.007979,1176.068 C698.257979,1176.068 701.555979,1179.128 701.555979,1183.548 Z M693.939979,1178.448 C691.151979,1178.448 688.941979,1180.352 688.397979,1183.208 L698.869979,1183.208 C698.835979,1180.148 696.591979,1178.448 693.939979,1178.448 Z M719.22866,1167.5 L721.84666,1167.5 L721.84666,1193 L719.36466,1193 L719.36466,1190.348 C718.07266,1192.252 715.72666,1193.374 713.10866,1193.374 C708.38266,1193.374 704.91466,1189.6 704.91466,1184.738 C704.91466,1179.842 708.38266,1176.068 713.10866,1176.068 C715.62466,1176.068 717.90266,1177.122 719.22866,1178.89 L719.22866,1167.5 Z M713.48266,1190.96 C716.33866,1190.96 719.26266,1189.09 719.26266,1184.738 C719.26266,1180.386 716.33866,1178.482 713.48266,1178.482 C710.11666,1178.482 707.60066,1181.1 707.60066,1184.704 C707.60066,1188.308 710.08266,1190.96 713.48266,1190.96 Z M750.528021,1176.442 L750.528021,1186.404 C750.528021,1190.654 747.502021,1193.374 743.694021,1193.374 C739.818021,1193.374 736.826021,1190.654 736.826021,1186.404 L736.826021,1176.442 L739.410021,1176.442 L739.410021,1186.574 C739.410021,1189.294 741.314021,1190.96 743.694021,1190.96 C746.006021,1190.96 747.910021,1189.294 747.910021,1186.574 L747.910021,1176.442 L750.528021,1176.442 Z M761.026701,1176.068 C763.406701,1176.068 765.276701,1177.088 766.568701,1178.686 L764.970701,1180.318 C763.882701,1179.196 762.454701,1178.482 760.890701,1178.482 C759.326701,1178.482 758.136701,1179.196 758.136701,1180.556 C758.136701,1181.678 758.986701,1182.222 760.822701,1182.97 L762.352701,1183.616 C765.344701,1184.874 766.738701,1186.166 766.738701,1188.512 C766.738701,1191.742 763.984701,1193.374 760.924701,1193.374 C758.000701,1193.374 755.790701,1191.912 754.464701,1190.144 L756.130701,1188.41 C757.490701,1189.838 758.884701,1190.96 760.890701,1190.96 C762.624701,1190.96 764.052701,1190.11 764.052701,1188.614 C764.052701,1187.186 762.828701,1186.642 761.162701,1185.962 L759.564701,1185.282 C757.048701,1184.228 755.450701,1183.072 755.450701,1180.692 C755.450701,1177.7 758.000701,1176.068 761.026701,1176.068 Z M772.749382,1168.214 C773.803382,1168.214 774.687382,1169.064 774.687382,1170.118 C774.687382,1171.206 773.803382,1172.022 772.749382,1172.022 C771.627382,1172.022 770.777382,1171.206 770.777382,1170.118 C770.777382,1169.064 771.627382,1168.214 772.749382,1168.214 Z M774.041382,1176.442 L774.041382,1193 L771.423382,1193 L771.423382,1176.442 L774.041382,1176.442 Z M787.294063,1176.068 C791.204063,1176.068 793.448063,1178.754 793.448063,1182.596 L793.448063,1193 L790.830063,1193 L790.830063,1182.902 C790.830063,1180.284 789.266063,1178.482 786.716063,1178.482 C784.166063,1178.482 782.364063,1180.318 782.364063,1182.902 L782.364063,1193 L779.746063,1193 L779.746063,1176.442 L782.194063,1176.442 L782.194063,1178.244 C783.350063,1176.884 785.152063,1176.068 787.294063,1176.068 Z M812.378743,1176.442 L814.860743,1176.442 L814.860743,1191.402 C814.860743,1196.502 811.630743,1199.494 806.802743,1199.494 C803.334743,1199.494 800.648743,1197.93 799.016743,1196.298 L800.546743,1194.462 C802.144743,1195.856 804.014743,1197.08 806.734743,1197.08 C810.100743,1197.08 812.242743,1195.21 812.242743,1191.538 L812.242743,1190.076 C810.882743,1191.81 808.570743,1192.83 806.088743,1192.83 C801.430743,1192.83 797.962743,1189.294 797.962743,1184.466 C797.962743,1179.672 801.430743,1176.068 806.088743,1176.068 C808.706743,1176.068 811.086743,1177.224 812.378743,1179.128 L812.378743,1176.442 Z M806.496743,1190.416 C809.386743,1190.416 812.276743,1188.614 812.276743,1184.466 C812.276743,1180.318 809.352743,1178.55 806.496743,1178.55 C803.130743,1178.55 800.614743,1180.998 800.614743,1184.5 C800.614743,1188.002 803.130743,1190.416 806.496743,1190.416 Z M848.132104,1170.56 L848.132104,1193 L845.480104,1193 L845.480104,1182.188 L832.900104,1182.188 L832.900104,1193 L830.248104,1193 L830.248104,1170.56 L832.900104,1170.56 L832.900104,1179.808 L845.480104,1179.808 L845.480104,1170.56 L848.132104,1170.56 Z M870.292785,1170.56 L870.292785,1172.94 L862.370785,1172.94 L862.370785,1193 L859.718785,1193 L859.718785,1172.94 L851.830785,1172.94 L851.830785,1170.56 L870.292785,1170.56 Z M893.711465,1170.186 L894.629465,1170.186 L894.629465,1193 L891.977465,1193 L891.977465,1176.884 L884.803465,1186.642 L883.851465,1186.642 L876.643465,1176.85 L876.643465,1193 L873.991465,1193 L873.991465,1170.186 L874.943465,1170.186 L884.293465,1183.174 L893.711465,1170.186 Z M903.428146,1170.56 L903.428146,1190.62 L914.070146,1190.62 L914.070146,1193 L900.776146,1193 L900.776146,1170.56 L903.428146,1170.56 Z M923.786826,1183.106 C927.730826,1183.106 931.436826,1185.316 931.436826,1190.042 C931.436826,1194.7 927.662826,1197.522 923.514826,1197.522 C919.672826,1197.522 917.122826,1195.346 915.762826,1192.898 L917.598826,1191.538 C918.788826,1193.408 920.556826,1195.108 923.480826,1195.108 C926.472826,1195.108 928.716826,1193.068 928.716826,1190.042 C928.716826,1187.118 926.642826,1185.418 923.004826,1185.418 L917.904826,1185.418 L917.904826,1174.878 L929.532826,1174.878 L929.532826,1177.292 L920.522826,1177.292 L920.522826,1183.378 C921.542826,1183.208 922.562826,1183.106 923.786826,1183.106 Z M939.657507,1189.94 L938.263507,1199.086 L936.121507,1199.086 L936.563507,1189.94 L939.657507,1189.94 Z M965.142868,1170.186 C969.222868,1170.186 972.588868,1172.158 974.458868,1175.014 L972.486868,1176.578 C970.820868,1174.13 968.304868,1172.634 965.176868,1172.634 C960.110868,1172.634 956.234868,1176.544 956.234868,1181.78 C956.234868,1187.016 960.110868,1190.926 965.176868,1190.926 C968.304868,1190.926 970.820868,1189.43 972.486868,1186.982 L974.458868,1188.546 C972.656868,1191.402 969.222868,1193.374 965.142868,1193.374 C958.648868,1193.374 953.480868,1188.342 953.480868,1181.78 C953.480868,1175.218 958.648868,1170.186 965.142868,1170.186 Z M985.705549,1170.186 C988.765549,1170.186 991.349549,1171.784 992.743549,1173.994 L990.805549,1175.456 C989.615549,1173.654 987.711549,1172.634 985.671549,1172.634 C983.597549,1172.634 981.693549,1173.688 981.693549,1175.898 C981.693549,1177.938 983.257549,1178.686 985.297549,1179.672 L987.779549,1180.862 C991.043549,1182.426 993.015549,1184.092 993.015549,1187.118 C993.015549,1190.892 989.921549,1193.374 985.773549,1193.374 C982.203549,1193.374 979.245549,1191.504 977.511549,1188.546 L979.483549,1187.084 C980.843549,1189.158 982.849549,1190.926 985.739549,1190.926 C988.391549,1190.926 990.261549,1189.464 990.261549,1187.186 C990.261549,1185.112 988.731549,1184.296 986.521549,1183.242 L984.005549,1182.052 C981.387549,1180.794 978.939549,1179.196 978.939549,1176.034 C978.939549,1172.464 982.067549,1170.186 985.705549,1170.186 Z M1004.46623,1170.186 C1007.52623,1170.186 1010.11023,1171.784 1011.50423,1173.994 L1009.56623,1175.456 C1008.37623,1173.654 1006.47223,1172.634 1004.43223,1172.634 C1002.35823,1172.634 1000.45423,1173.688 1000.45423,1175.898 C1000.45423,1177.938 1002.01823,1178.686 1004.05823,1179.672 L1006.54023,1180.862 C1009.80423,1182.426 1011.77623,1184.092 1011.77623,1187.118 C1011.77623,1190.892 1008.68223,1193.374 1004.53423,1193.374 C1000.96423,1193.374 998.006229,1191.504 996.272229,1188.546 L998.244229,1187.084 C999.604229,1189.158 1001.61023,1190.926 1004.50023,1190.926 C1007.15223,1190.926 1009.02223,1189.464 1009.02223,1187.186 C1009.02223,1185.112 1007.49223,1184.296 1005.28223,1183.242 L1002.76623,1182.052 C1000.14823,1180.794 997.700229,1179.196 997.700229,1176.034 C997.700229,1172.464 1000.82823,1170.186 1004.46623,1170.186 Z M1023.15891,1183.174 C1026.25291,1183.48 1029.61891,1185.724 1029.61891,1190.076 C1029.61891,1194.7 1025.81091,1197.522 1021.66291,1197.522 C1017.95691,1197.522 1015.40691,1195.346 1014.04691,1192.898 L1015.91691,1191.538 C1017.14091,1193.408 1018.84091,1195.108 1021.62891,1195.108 C1024.68891,1195.108 1026.89891,1193.068 1026.89891,1190.076 C1026.89891,1187.186 1024.82491,1185.418 1021.15291,1185.418 L1019.11291,1185.418 L1019.11291,1184.636 L1024.82491,1177.292 L1015.54291,1177.292 L1015.54291,1174.878 L1029.04091,1174.878 L1029.04091,1175.66 L1023.15891,1183.174 Z M1037.80559,1189.94 L1036.41159,1199.086 L1034.26959,1199.086 L1034.71159,1189.94 L1037.80559,1189.94 Z M546.702153,1211.56 L549.626153,1211.56 L539.902153,1234.374 L538.916153,1234.374 L529.192153,1211.56 L532.116153,1211.56 L539.426153,1229.104 L546.702153,1211.56 Z M557.302833,1217.068 C561.076833,1217.068 563.762833,1219.346 563.762833,1223.8 L563.762833,1234 L561.314833,1234 L561.314833,1231.858 C560.124833,1233.456 558.186833,1234.374 555.738833,1234.374 C552.406833,1234.374 549.958833,1232.606 549.958833,1229.716 C549.958833,1226.928 552.304833,1225.092 555.908833,1225.092 L561.144833,1225.092 L561.144833,1223.664 C561.144833,1220.876 559.580833,1219.482 557.132833,1219.482 C555.058833,1219.482 553.596833,1220.468 552.304833,1222.134 L550.570833,1220.706 C552.134833,1218.19 554.650833,1217.068 557.302833,1217.068 Z M556.078833,1232.198 C558.798833,1232.198 561.144833,1230.226 561.144833,1227.642 L561.144833,1227.234 L556.214833,1227.234 C553.902833,1227.234 552.644833,1228.016 552.644833,1229.58 C552.644833,1231.348 554.242833,1232.198 556.078833,1232.198 Z M576.811514,1217.068 C580.721514,1217.068 582.965514,1219.754 582.965514,1223.596 L582.965514,1234 L580.347514,1234 L580.347514,1223.902 C580.347514,1221.284 578.783514,1219.482 576.233514,1219.482 C573.683514,1219.482 571.881514,1221.318 571.881514,1223.902 L571.881514,1234 L569.263514,1234 L569.263514,1217.442 L571.711514,1217.442 L571.711514,1219.244 C572.867514,1217.884 574.669514,1217.068 576.811514,1217.068 Z M589.792194,1209.214 C590.846194,1209.214 591.730194,1210.064 591.730194,1211.118 C591.730194,1212.206 590.846194,1213.022 589.792194,1213.022 C588.670194,1213.022 587.820194,1212.206 587.820194,1211.118 C587.820194,1210.064 588.670194,1209.214 589.792194,1209.214 Z M591.084194,1217.442 L591.084194,1234 L588.466194,1234 L588.466194,1217.442 L591.084194,1217.442 Z M599.406875,1208.5 L599.406875,1234 L596.788875,1234 L596.788875,1208.5 L599.406875,1208.5 Z M607.729556,1208.5 L607.729556,1234 L605.111556,1234 L605.111556,1208.5 L607.729556,1208.5 Z M619.384236,1217.068 C623.158236,1217.068 625.844236,1219.346 625.844236,1223.8 L625.844236,1234 L623.396236,1234 L623.396236,1231.858 C622.206236,1233.456 620.268236,1234.374 617.820236,1234.374 C614.488236,1234.374 612.040236,1232.606 612.040236,1229.716 C612.040236,1226.928 614.386236,1225.092 617.990236,1225.092 L623.226236,1225.092 L623.226236,1223.664 C623.226236,1220.876 621.662236,1219.482 619.214236,1219.482 C617.140236,1219.482 615.678236,1220.468 614.386236,1222.134 L612.652236,1220.706 C614.216236,1218.19 616.732236,1217.068 619.384236,1217.068 Z M618.160236,1232.198 C620.880236,1232.198 623.226236,1230.226 623.226236,1227.642 L623.226236,1227.234 L618.296236,1227.234 C615.984236,1227.234 614.726236,1228.016 614.726236,1229.58 C614.726236,1231.348 616.324236,1232.198 618.160236,1232.198 Z M646.535597,1211.56 L646.535597,1228.798 C646.535597,1232.708 644.121597,1234.374 640.687597,1234.374 C639.599597,1234.374 638.613597,1234.204 637.729597,1234 L637.729597,1231.722 C638.647597,1231.858 639.429597,1231.926 640.177597,1231.926 C642.387597,1231.926 643.883597,1231.246 643.883597,1228.56 L643.883597,1211.56 L646.535597,1211.56 Z M659.142278,1211.186 C662.202278,1211.186 664.786278,1212.784 666.180278,1214.994 L664.242278,1216.456 C663.052278,1214.654 661.148278,1213.634 659.108278,1213.634 C657.034278,1213.634 655.130278,1214.688 655.130278,1216.898 C655.130278,1218.938 656.694278,1219.686 658.734278,1220.672 L661.216278,1221.862 C664.480278,1223.426 666.452278,1225.092 666.452278,1228.118 C666.452278,1231.892 663.358278,1234.374 659.210278,1234.374 C655.640278,1234.374 652.682278,1232.504 650.948278,1229.546 L652.920278,1228.084 C654.280278,1230.158 656.286278,1231.926 659.176278,1231.926 C661.828278,1231.926 663.698278,1230.464 663.698278,1228.186 C663.698278,1226.112 662.168278,1225.296 659.958278,1224.242 L657.442278,1223.052 C654.824278,1221.794 652.376278,1220.196 652.376278,1217.034 C652.376278,1213.464 655.504278,1211.186 659.142278,1211.186 Z M674.910958,1230.94 L673.516958,1240.086 L671.374958,1240.086 L671.816958,1230.94 L674.910958,1230.94 Z M695.942319,1217.068 C699.716319,1217.068 702.402319,1219.346 702.402319,1223.8 L702.402319,1234 L699.954319,1234 L699.954319,1231.858 C698.764319,1233.456 696.826319,1234.374 694.378319,1234.374 C691.046319,1234.374 688.598319,1232.606 688.598319,1229.716 C688.598319,1226.928 690.944319,1225.092 694.548319,1225.092 L699.784319,1225.092 L699.784319,1223.664 C699.784319,1220.876 698.220319,1219.482 695.772319,1219.482 C693.698319,1219.482 692.236319,1220.468 690.944319,1222.134 L689.210319,1220.706 C690.774319,1218.19 693.290319,1217.068 695.942319,1217.068 Z M694.718319,1232.198 C697.438319,1232.198 699.784319,1230.226 699.784319,1227.642 L699.784319,1227.234 L694.854319,1227.234 C692.542319,1227.234 691.284319,1228.016 691.284319,1229.58 C691.284319,1231.348 692.882319,1232.198 694.718319,1232.198 Z M715.451,1217.068 C719.361,1217.068 721.605,1219.754 721.605,1223.596 L721.605,1234 L718.987,1234 L718.987,1223.902 C718.987,1221.284 717.423,1219.482 714.873,1219.482 C712.323,1219.482 710.521,1221.318 710.521,1223.902 L710.521,1234 L707.903,1234 L707.903,1217.442 L710.351,1217.442 L710.351,1219.244 C711.507,1217.884 713.309,1217.068 715.451,1217.068 Z M740.229681,1208.5 L742.847681,1208.5 L742.847681,1234 L740.365681,1234 L740.365681,1231.348 C739.073681,1233.252 736.727681,1234.374 734.109681,1234.374 C729.383681,1234.374 725.915681,1230.6 725.915681,1225.738 C725.915681,1220.842 729.383681,1217.068 734.109681,1217.068 C736.625681,1217.068 738.903681,1218.122 740.229681,1219.89 L740.229681,1208.5 Z M734.483681,1231.96 C737.339681,1231.96 740.263681,1230.09 740.263681,1225.738 C740.263681,1221.386 737.339681,1219.482 734.483681,1219.482 C731.117681,1219.482 728.601681,1222.1 728.601681,1225.704 C728.601681,1229.308 731.083681,1231.96 734.483681,1231.96 Z M764.729042,1211.186 C767.789042,1211.186 770.373042,1212.784 771.767042,1214.994 L769.829042,1216.456 C768.639042,1214.654 766.735042,1213.634 764.695042,1213.634 C762.621042,1213.634 760.717042,1214.688 760.717042,1216.898 C760.717042,1218.938 762.281042,1219.686 764.321042,1220.672 L766.803042,1221.862 C770.067042,1223.426 772.039042,1225.092 772.039042,1228.118 C772.039042,1231.892 768.945042,1234.374 764.797042,1234.374 C761.227042,1234.374 758.269042,1232.504 756.535042,1229.546 L758.507042,1228.084 C759.867042,1230.158 761.873042,1231.926 764.763042,1231.926 C767.415042,1231.926 769.285042,1230.464 769.285042,1228.186 C769.285042,1226.112 767.755042,1225.296 765.545042,1224.242 L763.029042,1223.052 C760.411042,1221.794 757.963042,1220.196 757.963042,1217.034 C757.963042,1213.464 761.091042,1211.186 764.729042,1211.186 Z M798.619722,1217.442 L801.407722,1217.442 L794.437722,1234.374 L793.485722,1234.374 L787.841722,1221.862 L782.231722,1234.374 L781.313722,1234.374 L774.275722,1217.442 L777.063722,1217.442 L781.823722,1229.682 L787.365722,1217.068 L788.351722,1217.068 L793.927722,1229.614 L798.619722,1217.442 Z M806.500403,1209.214 C807.554403,1209.214 808.438403,1210.064 808.438403,1211.118 C808.438403,1212.206 807.554403,1213.022 806.500403,1213.022 C805.378403,1213.022 804.528403,1212.206 804.528403,1211.118 C804.528403,1210.064 805.378403,1209.214 806.500403,1209.214 Z M807.792403,1217.442 L807.792403,1234 L805.174403,1234 L805.174403,1217.442 L807.792403,1217.442 Z M822.201083,1217.068 C826.961083,1217.068 830.395083,1220.842 830.395083,1225.704 C830.395083,1230.6 826.927083,1234.374 822.201083,1234.374 C819.753083,1234.374 817.441083,1233.354 816.115083,1231.586 L816.115083,1240.12 L813.497083,1240.12 L813.497083,1217.442 L815.945083,1217.442 L815.945083,1220.094 C817.237083,1218.19 819.583083,1217.068 822.201083,1217.068 Z M821.827083,1231.96 C825.193083,1231.96 827.709083,1229.342 827.709083,1225.738 C827.709083,1222.134 825.227083,1219.482 821.827083,1219.482 C818.971083,1219.482 816.081083,1221.352 816.081083,1225.704 C816.081083,1230.056 818.937083,1231.96 821.827083,1231.96 Z M849.767764,1224.548 C849.767764,1225.432 849.631764,1226.214 849.563764,1226.52 L836.507764,1226.52 C836.847764,1229.818 839.295764,1231.96 842.559764,1231.96 C844.633764,1231.96 846.265764,1231.076 847.625764,1229.716 L849.155764,1231.484 C847.489764,1233.252 845.245764,1234.374 842.525764,1234.374 C837.527764,1234.374 833.753764,1230.6 833.753764,1225.738 C833.753764,1220.91 837.459764,1217.068 842.219764,1217.068 C846.469764,1217.068 849.767764,1220.128 849.767764,1224.548 Z M842.151764,1219.448 C839.363764,1219.448 837.153764,1221.352 836.609764,1224.208 L847.081764,1224.208 C847.047764,1221.148 844.803764,1219.448 842.151764,1219.448 Z M861.898444,1217.306 C862.442444,1217.306 862.782444,1217.374 863.122444,1217.442 L863.122444,1219.754 L862.136444,1219.754 C859.450444,1219.754 856.934444,1221.454 856.934444,1224.616 L856.934444,1234 L854.316444,1234 L854.316444,1217.442 L856.764444,1217.442 L856.764444,1219.822 C857.988444,1218.19 859.926444,1217.306 861.898444,1217.306 Z M881.773806,1211.56 L881.773806,1228.798 C881.773806,1232.708 879.359806,1234.374 875.925806,1234.374 C874.837806,1234.374 873.851806,1234.204 872.967806,1234 L872.967806,1231.722 C873.885806,1231.858 874.667806,1231.926 875.415806,1231.926 C877.625806,1231.926 879.121806,1231.246 879.121806,1228.56 L879.121806,1211.56 L881.773806,1211.56 Z M894.380486,1211.186 C897.440486,1211.186 900.024486,1212.784 901.418486,1214.994 L899.480486,1216.456 C898.290486,1214.654 896.386486,1213.634 894.346486,1213.634 C892.272486,1213.634 890.368486,1214.688 890.368486,1216.898 C890.368486,1218.938 891.932486,1219.686 893.972486,1220.672 L896.454486,1221.862 C899.718486,1223.426 901.690486,1225.092 901.690486,1228.118 C901.690486,1231.892 898.596486,1234.374 894.448486,1234.374 C890.878486,1234.374 887.920486,1232.504 886.186486,1229.546 L888.158486,1228.084 C889.518486,1230.158 891.524486,1231.926 894.414486,1231.926 C897.066486,1231.926 898.936486,1230.464 898.936486,1228.186 C898.936486,1226.112 897.406486,1225.296 895.196486,1224.242 L892.680486,1223.052 C890.062486,1221.794 887.614486,1220.196 887.614486,1217.034 C887.614486,1213.464 890.742486,1211.186 894.380486,1211.186 Z M908.313167,1230.09 C909.469167,1230.09 910.455167,1230.974 910.455167,1232.232 C910.455167,1233.49 909.469167,1234.374 908.313167,1234.374 C907.157167,1234.374 906.171167,1233.49 906.171167,1232.232 C906.171167,1230.974 907.157167,1230.09 908.313167,1230.09 Z" id="ThesitewascreatedusingHTML5,CSS3,VanillaJS,andSwiperJS."></path>
        </g>
    </g>
</svg>