<?xml version="1.0" encoding="UTF-8"?>
<svg width="176px" height="53px" viewBox="0 0 176 53" version="1.1" xmlns="http://www.w3.org/2000/svg" xmlns:xlink="http://www.w3.org/1999/xlink">
    <!-- Generator: Sketch 53.2 (72643) - https://sketchapp.com -->
    <title>BMW</title>
    <desc>Created with Sketch.</desc>
    <defs>
        <linearGradient x1="74.000038%" y1="48.0318777%" x2="-16.1444198%" y2="56.5078698%" id="linearGradient-1">
            <stop stop-color="#FA8561" offset="0%"></stop>
            <stop stop-color="#D31CF7" offset="100%"></stop>
        </linearGradient>
    </defs>
    <g id="Page-1" stroke="none" stroke-width="1" fill="none" fill-rule="evenodd">
        <g id="Desktop-HD-Copy-25" transform="translate(-1368.000000, -691.000000)" fill="url(#linearGradient-1)" fill-rule="nonzero">
            <path d="M1398.62279,715.868 C1404.17079,717.844 1407.51479,722.176 1407.51479,728.256 C1407.51479,736.92 1400.75079,743 1391.02279,743 L1368.67879,743 L1368.67879,692.84 L1386.46279,692.84 C1395.73479,692.84 1402.34679,698.54 1402.34679,706.824 C1402.34679,710.548 1400.97879,713.588 1398.62279,715.868 Z M1385.62679,701.656 L1378.55879,701.656 L1378.55879,713.132 L1385.62679,713.132 C1389.88279,713.132 1392.16279,710.776 1392.16279,707.356 C1392.16279,703.86 1389.88279,701.656 1385.62679,701.656 Z M1390.26279,734.184 C1394.74679,734.184 1397.40679,731.828 1397.40679,727.876 C1397.40679,724 1394.74679,721.568 1390.26279,721.568 L1378.55879,721.568 L1378.55879,734.184 L1390.26279,734.184 Z M1459.85693,691.928 L1463.20093,691.928 L1463.20093,743 L1452.94093,743 L1452.94093,716.172 L1440.32493,732.056 L1436.98093,732.056 L1424.36493,716.172 L1424.36493,743 L1414.10493,743 L1414.10493,691.928 L1417.44893,691.928 L1438.65293,719.136 L1459.85693,691.928 Z M1532.56707,692.84 L1543.96707,692.84 L1523.90307,743.912 L1520.55907,743.912 L1506.57507,712.524 L1492.51507,743.912 L1489.17107,743.912 L1469.10707,692.84 L1480.50707,692.84 L1491.67907,722.404 L1504.82707,691.928 L1508.24707,691.928 L1521.39507,722.404 L1532.56707,692.84 Z" id="BMW"></path>
        </g>
    </g>
</svg>