<?xml version="1.0" encoding="UTF-8"?>
<svg width="572px" height="189px" viewBox="0 0 572 189" version="1.1" xmlns="http://www.w3.org/2000/svg" xmlns:xlink="http://www.w3.org/1999/xlink">
    <!-- Generator: Sketch 53.2 (72643) - https://sketchapp.com -->
    <title>Group</title>
    <desc>Created with Sketch.</desc>
    <defs>
        <linearGradient x1="74.000038%" y1="48.0318777%" x2="-16.1444198%" y2="56.5078698%" id="linearGradient-1">
            <stop stop-color="#FA8561" offset="0%"></stop>
            <stop stop-color="#D31CF7" offset="100%"></stop>
        </linearGradient>
    </defs>
    <g id="Page-1" stroke="none" stroke-width="1" fill="none" fill-rule="evenodd">
        <g id="Desktop-HD-Copy-27" transform="translate(-741.000000, -713.000000)">
            <g id="Group" transform="translate(741.000000, 713.000000)">
                <rect id="Rectangle-Copy-2" fill="#000000" x="0" y="0" width="572" height="189" rx="16"></rect>
                <path d="M227.944,92.94 C233.492,94.916 236.836,99.248 236.836,105.328 C236.836,113.992 230.072,120.072 220.344,120.072 L198,120.072 L198,69.912 L215.784,69.912 C225.056,69.912 231.668,75.612 231.668,83.896 C231.668,87.62 230.3,90.66 227.944,92.94 Z M214.948,78.728 L207.88,78.728 L207.88,90.204 L214.948,90.204 C219.204,90.204 221.484,87.848 221.484,84.428 C221.484,80.932 219.204,78.728 214.948,78.728 Z M219.584,111.256 C224.068,111.256 226.728,108.9 226.728,104.948 C226.728,101.072 224.068,98.64 219.584,98.64 L207.88,98.64 L207.88,111.256 L219.584,111.256 Z M289.178137,69 L292.522137,69 L292.522137,120.072 L282.262137,120.072 L282.262137,93.244 L269.646137,109.128 L266.302137,109.128 L253.686137,93.244 L253.686137,120.072 L243.426137,120.072 L243.426137,69 L246.770137,69 L267.974137,96.208 L289.178137,69 Z M361.888274,69.912 L373.288274,69.912 L353.224274,120.984 L349.880274,120.984 L335.896274,89.596 L321.836274,120.984 L318.492274,120.984 L298.428274,69.912 L309.828274,69.912 L321.000274,99.476 L334.148274,69 L337.568274,69 L350.716274,99.476 L361.888274,69.912 Z" id="BMW" fill="url(#linearGradient-1)" fill-rule="nonzero"></path>
            </g>
        </g>
    </g>
</svg>