<?xml version="1.0" encoding="UTF-8"?>
<svg width="948px" height="218px" viewBox="0 0 948 218" version="1.1" xmlns="http://www.w3.org/2000/svg" xmlns:xlink="http://www.w3.org/1999/xlink">
    <!-- Generator: Sketch 53.2 (72643) - https://sketchapp.com -->
    <title>ThisprojectfocusesoncontributingtotheUIdesignoftheBMWandMiniConnectedApp.Myworkprimarilyfocusesonframeworktopicsandwebdevelopmentformarketing.</title>
    <desc>Created with Sketch.</desc>
    <g id="Page-1" stroke="none" stroke-width="1" fill="none" fill-rule="evenodd">
        <g id="Desktop-HD-Copy-35" transform="translate(-245.000000, -675.000000)" fill="#404648" fill-rule="nonzero">
            <path d="M271.86,680.32 L271.86,683.68 L260.676,683.68 L260.676,712 L256.932,712 L256.932,683.68 L245.796,683.68 L245.796,680.32 L271.86,680.32 Z M286.296,688.096 C291.768,688.096 294.936,691.888 294.936,697.312 L294.936,712 L291.24,712 L291.24,697.792 C291.24,694.096 289.032,691.504 285.432,691.504 C281.832,691.504 279.288,694.144 279.288,697.792 L279.288,712 L275.592,712 L275.592,676 L279.288,676 L279.288,691.264 C280.824,689.296 283.272,688.096 286.296,688.096 Z M303.372,677.008 C304.86,677.008 306.108,678.208 306.108,679.696 C306.108,681.232 304.86,682.384 303.372,682.384 C301.788,682.384 300.588,681.232 300.588,679.696 C300.588,678.208 301.788,677.008 303.372,677.008 Z M305.196,688.624 L305.196,712 L301.5,712 L301.5,688.624 L305.196,688.624 Z M319.104,688.096 C322.464,688.096 325.104,689.536 326.928,691.792 L324.672,694.096 C323.136,692.512 321.12,691.504 318.912,691.504 C316.704,691.504 315.024,692.512 315.024,694.432 C315.024,696.016 316.224,696.784 318.816,697.84 L320.976,698.752 C325.2,700.528 327.168,702.352 327.168,705.664 C327.168,710.224 323.28,712.528 318.96,712.528 C314.832,712.528 311.712,710.464 309.84,707.968 L312.192,705.52 C314.112,707.536 316.08,709.12 318.912,709.12 C321.36,709.12 323.376,707.92 323.376,705.808 C323.376,703.792 321.648,703.024 319.296,702.064 L317.04,701.104 C313.488,699.616 311.232,697.984 311.232,694.624 C311.232,690.4 314.832,688.096 319.104,688.096 Z M357.048,688.096 C363.768,688.096 368.616,693.424 368.616,700.288 C368.616,707.2 363.72,712.528 357.048,712.528 C353.592,712.528 350.328,711.088 348.456,708.592 L348.456,720.64 L344.76,720.64 L344.76,688.624 L348.216,688.624 L348.216,692.368 C350.04,689.68 353.352,688.096 357.048,688.096 Z M356.52,709.12 C361.272,709.12 364.824,705.424 364.824,700.336 C364.824,695.248 361.32,691.504 356.52,691.504 C352.488,691.504 348.408,694.144 348.408,700.288 C348.408,706.432 352.44,709.12 356.52,709.12 Z M384.54,688.432 C385.308,688.432 385.788,688.528 386.268,688.624 L386.268,691.888 L384.876,691.888 C381.084,691.888 377.532,694.288 377.532,698.752 L377.532,712 L373.836,712 L373.836,688.624 L377.292,688.624 L377.292,691.984 C379.02,689.68 381.756,688.432 384.54,688.432 Z M400.032,688.096 C406.8,688.096 412.272,693.424 412.272,700.288 C412.272,707.104 406.8,712.48 399.984,712.48 C393.216,712.432 387.792,707.152 387.792,700.288 C387.792,693.424 393.168,688.096 400.032,688.096 Z M400.032,691.504 C395.136,691.504 391.536,695.344 391.584,700.336 C391.584,705.28 395.136,709.072 399.984,709.072 C404.832,709.072 408.48,705.232 408.48,700.336 C408.48,695.296 404.832,691.504 400.032,691.504 Z M419.364,677.008 C420.852,677.008 422.1,678.208 422.1,679.696 C422.1,681.232 420.852,682.384 419.364,682.384 C417.78,682.384 416.58,681.232 416.58,679.696 C416.58,678.208 417.78,677.008 419.364,677.008 Z M421.188,688.624 L421.188,713.584 C421.188,718.912 417.972,721.168 413.508,721.168 C412.308,721.168 411.396,721.024 410.532,720.784 L410.532,717.664 C411.348,717.76 411.924,717.808 412.692,717.808 C415.524,717.808 417.492,716.8 417.492,713.344 L417.492,688.624 L421.188,688.624 Z M448.968,698.656 C448.968,699.904 448.776,701.008 448.68,701.44 L430.248,701.44 C430.728,706.096 434.184,709.12 438.792,709.12 C441.72,709.12 444.024,707.872 445.944,705.952 L448.104,708.448 C445.752,710.944 442.584,712.528 438.744,712.528 C431.688,712.528 426.36,707.2 426.36,700.336 C426.36,693.52 431.592,688.096 438.312,688.096 C444.312,688.096 448.968,692.416 448.968,698.656 Z M438.216,691.456 C434.28,691.456 431.16,694.144 430.392,698.176 L445.176,698.176 C445.128,693.856 441.96,691.456 438.216,691.456 Z M464.748,688.096 C468.972,688.096 472.332,690.112 474.396,693.184 L471.756,695.296 C470.028,692.992 467.82,691.504 464.796,691.504 C459.9,691.504 456.3,695.392 456.3,700.288 C456.3,705.232 459.9,709.12 464.796,709.12 C467.772,709.12 469.98,707.68 471.708,705.376 L474.348,707.44 C472.284,710.512 468.924,712.528 464.748,712.528 C457.932,712.528 452.508,707.152 452.508,700.288 C452.508,693.472 457.932,688.096 464.748,688.096 Z M489.024,709.168 C489.936,709.168 490.944,709.072 492.144,708.88 L492.144,712 C490.944,712.288 489.744,712.528 488.256,712.528 C483.648,712.528 480.384,710.272 480.384,704.944 L480.384,691.936 L476.448,691.936 L476.448,688.624 L480.384,688.624 L480.384,682.24 L484.08,682.24 L484.08,688.624 L491.376,688.624 L491.376,691.936 L484.08,691.936 L484.08,704.704 C484.08,708.208 486.096,709.168 489.024,709.168 Z M517.752,678.832 C514.872,678.832 512.856,679.792 512.856,683.296 L512.856,688.624 L518.712,688.624 L518.712,691.936 L512.856,691.936 L512.856,712 L509.16,712 L509.16,691.936 L505.8,691.936 L505.8,688.624 L509.16,688.624 L509.16,683.056 C509.16,677.728 512.376,675.472 516.888,675.472 C518.04,675.472 518.952,675.616 519.816,675.856 L519.816,678.976 C519.048,678.88 518.376,678.832 517.752,678.832 Z M532.428,688.096 C539.196,688.096 544.668,693.424 544.668,700.288 C544.668,707.104 539.196,712.48 532.38,712.48 C525.612,712.432 520.188,707.152 520.188,700.288 C520.188,693.424 525.564,688.096 532.428,688.096 Z M532.428,691.504 C527.532,691.504 523.932,695.344 523.98,700.336 C523.98,705.28 527.532,709.072 532.38,709.072 C537.228,709.072 540.876,705.232 540.876,700.336 C540.876,695.296 537.228,691.504 532.428,691.504 Z M560.448,688.096 C564.672,688.096 568.032,690.112 570.096,693.184 L567.456,695.296 C565.728,692.992 563.52,691.504 560.496,691.504 C555.6,691.504 552,695.392 552,700.288 C552,705.232 555.6,709.12 560.496,709.12 C563.472,709.12 565.68,707.68 567.408,705.376 L570.048,707.44 C567.984,710.512 564.624,712.528 560.448,712.528 C553.632,712.528 548.208,707.152 548.208,700.288 C548.208,693.472 553.632,688.096 560.448,688.096 Z M594.132,688.624 L594.132,702.688 C594.132,708.688 589.86,712.528 584.484,712.528 C579.012,712.528 574.788,708.688 574.788,702.688 L574.788,688.624 L578.436,688.624 L578.436,702.928 C578.436,706.768 581.124,709.12 584.484,709.12 C587.748,709.12 590.436,706.768 590.436,702.928 L590.436,688.624 L594.132,688.624 Z M607.752,688.096 C611.112,688.096 613.752,689.536 615.576,691.792 L613.32,694.096 C611.784,692.512 609.768,691.504 607.56,691.504 C605.352,691.504 603.672,692.512 603.672,694.432 C603.672,696.016 604.872,696.784 607.464,697.84 L609.624,698.752 C613.848,700.528 615.816,702.352 615.816,705.664 C615.816,710.224 611.928,712.528 607.608,712.528 C603.48,712.528 600.36,710.464 598.488,707.968 L600.84,705.52 C602.76,707.536 604.728,709.12 607.56,709.12 C610.008,709.12 612.024,707.92 612.024,705.808 C612.024,703.792 610.296,703.024 607.944,702.064 L605.688,701.104 C602.136,699.616 599.88,697.984 599.88,694.624 C599.88,690.4 603.48,688.096 607.752,688.096 Z M642.156,698.656 C642.156,699.904 641.964,701.008 641.868,701.44 L623.436,701.44 C623.916,706.096 627.372,709.12 631.98,709.12 C634.908,709.12 637.212,707.872 639.132,705.952 L641.292,708.448 C638.94,710.944 635.772,712.528 631.932,712.528 C624.876,712.528 619.548,707.2 619.548,700.336 C619.548,693.52 624.78,688.096 631.5,688.096 C637.5,688.096 642.156,692.416 642.156,698.656 Z M631.404,691.456 C627.468,691.456 624.348,694.144 623.58,698.176 L638.364,698.176 C638.316,693.856 635.148,691.456 631.404,691.456 Z M654.432,688.096 C657.792,688.096 660.432,689.536 662.256,691.792 L660,694.096 C658.464,692.512 656.448,691.504 654.24,691.504 C652.032,691.504 650.352,692.512 650.352,694.432 C650.352,696.016 651.552,696.784 654.144,697.84 L656.304,698.752 C660.528,700.528 662.496,702.352 662.496,705.664 C662.496,710.224 658.608,712.528 654.288,712.528 C650.16,712.528 647.04,710.464 645.168,707.968 L647.52,705.52 C649.44,707.536 651.408,709.12 654.24,709.12 C656.688,709.12 658.704,707.92 658.704,705.808 C658.704,703.792 656.976,703.024 654.624,702.064 L652.368,701.104 C648.816,699.616 646.56,697.984 646.56,694.624 C646.56,690.4 650.16,688.096 654.432,688.096 Z M690.648,688.096 C697.416,688.096 702.888,693.424 702.888,700.288 C702.888,707.104 697.416,712.48 690.6,712.48 C683.832,712.432 678.408,707.152 678.408,700.288 C678.408,693.424 683.784,688.096 690.648,688.096 Z M690.648,691.504 C685.752,691.504 682.152,695.344 682.2,700.336 C682.2,705.28 685.752,709.072 690.6,709.072 C695.448,709.072 699.096,705.232 699.096,700.336 C699.096,695.296 695.448,691.504 690.648,691.504 Z M718.764,688.096 C724.284,688.096 727.452,691.888 727.452,697.312 L727.452,712 L723.756,712 L723.756,697.744 C723.756,694.048 721.548,691.504 717.948,691.504 C714.348,691.504 711.804,694.096 711.804,697.744 L711.804,712 L708.108,712 L708.108,688.624 L711.564,688.624 L711.564,691.168 C713.196,689.248 715.74,688.096 718.764,688.096 Z M756.756,688.096 C760.98,688.096 764.34,690.112 766.404,693.184 L763.764,695.296 C762.036,692.992 759.828,691.504 756.804,691.504 C751.908,691.504 748.308,695.392 748.308,700.288 C748.308,705.232 751.908,709.12 756.804,709.12 C759.78,709.12 761.988,707.68 763.716,705.376 L766.356,707.44 C764.292,710.512 760.932,712.528 756.756,712.528 C749.94,712.528 744.516,707.152 744.516,700.288 C744.516,693.472 749.94,688.096 756.756,688.096 Z M781.464,688.096 C788.232,688.096 793.704,693.424 793.704,700.288 C793.704,707.104 788.232,712.48 781.416,712.48 C774.648,712.432 769.224,707.152 769.224,700.288 C769.224,693.424 774.6,688.096 781.464,688.096 Z M781.464,691.504 C776.568,691.504 772.968,695.344 773.016,700.336 C773.016,705.28 776.568,709.072 781.416,709.072 C786.264,709.072 789.912,705.232 789.912,700.336 C789.912,695.296 786.264,691.504 781.464,691.504 Z M809.58,688.096 C815.1,688.096 818.268,691.888 818.268,697.312 L818.268,712 L814.572,712 L814.572,697.744 C814.572,694.048 812.364,691.504 808.764,691.504 C805.164,691.504 802.62,694.096 802.62,697.744 L802.62,712 L798.924,712 L798.924,688.624 L802.38,688.624 L802.38,691.168 C804.012,689.248 806.556,688.096 809.58,688.096 Z M834.48,709.168 C835.392,709.168 836.4,709.072 837.6,708.88 L837.6,712 C836.4,712.288 835.2,712.528 833.712,712.528 C829.104,712.528 825.84,710.272 825.84,704.944 L825.84,691.936 L821.904,691.936 L821.904,688.624 L825.84,688.624 L825.84,682.24 L829.536,682.24 L829.536,688.624 L836.832,688.624 L836.832,691.936 L829.536,691.936 L829.536,704.704 C829.536,708.208 831.552,709.168 834.48,709.168 Z M852.564,688.432 C853.332,688.432 853.812,688.528 854.292,688.624 L854.292,691.888 L852.9,691.888 C849.108,691.888 845.556,694.288 845.556,698.752 L845.556,712 L841.86,712 L841.86,688.624 L845.316,688.624 L845.316,691.984 C847.044,689.68 849.78,688.432 852.564,688.432 Z M859.848,677.008 C861.336,677.008 862.584,678.208 862.584,679.696 C862.584,681.232 861.336,682.384 859.848,682.384 C858.264,682.384 857.064,681.232 857.064,679.696 C857.064,678.208 858.264,677.008 859.848,677.008 Z M861.672,688.624 L861.672,712 L857.976,712 L857.976,688.624 L861.672,688.624 Z M880.812,688.096 C887.484,688.096 892.38,693.424 892.38,700.336 C892.38,707.2 887.532,712.528 880.86,712.528 C877.212,712.528 873.804,710.944 871.98,708.256 L871.98,712 L868.524,712 L868.524,676 L872.22,676 L872.22,692.08 C874.044,689.632 877.26,688.096 880.812,688.096 Z M880.284,709.12 C885.084,709.12 888.588,705.376 888.588,700.288 C888.588,695.2 885.036,691.504 880.284,691.504 C876.204,691.504 872.172,694.192 872.172,700.336 C872.172,706.48 876.252,709.12 880.284,709.12 Z M916.656,688.624 L916.656,702.688 C916.656,708.688 912.384,712.528 907.008,712.528 C901.536,712.528 897.312,708.688 897.312,702.688 L897.312,688.624 L900.96,688.624 L900.96,702.928 C900.96,706.768 903.648,709.12 907.008,709.12 C910.272,709.12 912.96,706.768 912.96,702.928 L912.96,688.624 L916.656,688.624 Z M932.868,709.168 C933.78,709.168 934.788,709.072 935.988,708.88 L935.988,712 C934.788,712.288 933.588,712.528 932.1,712.528 C927.492,712.528 924.228,710.272 924.228,704.944 L924.228,691.936 L920.292,691.936 L920.292,688.624 L924.228,688.624 L924.228,682.24 L927.924,682.24 L927.924,688.624 L935.22,688.624 L935.22,691.936 L927.924,691.936 L927.924,704.704 C927.924,708.208 929.94,709.168 932.868,709.168 Z M942.12,677.008 C943.608,677.008 944.856,678.208 944.856,679.696 C944.856,681.232 943.608,682.384 942.12,682.384 C940.536,682.384 939.336,681.232 939.336,679.696 C939.336,678.208 940.536,677.008 942.12,677.008 Z M943.944,688.624 L943.944,712 L940.248,712 L940.248,688.624 L943.944,688.624 Z M961.452,688.096 C966.972,688.096 970.14,691.888 970.14,697.312 L970.14,712 L966.444,712 L966.444,697.744 C966.444,694.048 964.236,691.504 960.636,691.504 C957.036,691.504 954.492,694.096 954.492,697.744 L954.492,712 L950.796,712 L950.796,688.624 L954.252,688.624 L954.252,691.168 C955.884,689.248 958.428,688.096 961.452,688.096 Z M995.664,688.624 L999.168,688.624 L999.168,709.744 C999.168,716.944 994.608,721.168 987.792,721.168 C982.896,721.168 979.104,718.96 976.8,716.656 L978.96,714.064 C981.216,716.032 983.856,717.76 987.696,717.76 C992.448,717.76 995.472,715.12 995.472,709.936 L995.472,707.872 C993.552,710.32 990.288,711.76 986.784,711.76 C980.208,711.76 975.312,706.768 975.312,699.952 C975.312,693.184 980.208,688.096 986.784,688.096 C990.48,688.096 993.84,689.728 995.664,692.416 L995.664,688.624 Z M987.36,708.352 C991.44,708.352 995.52,705.808 995.52,699.952 C995.52,694.096 991.392,691.6 987.36,691.6 C982.608,691.6 979.056,695.056 979.056,700 C979.056,704.944 982.608,708.352 987.36,708.352 Z M1027.848,709.168 C1028.76,709.168 1029.768,709.072 1030.968,708.88 L1030.968,712 C1029.768,712.288 1028.568,712.528 1027.08,712.528 C1022.472,712.528 1019.208,710.272 1019.208,704.944 L1019.208,691.936 L1015.272,691.936 L1015.272,688.624 L1019.208,688.624 L1019.208,682.24 L1022.904,682.24 L1022.904,688.624 L1030.2,688.624 L1030.2,691.936 L1022.904,691.936 L1022.904,704.704 C1022.904,708.208 1024.92,709.168 1027.848,709.168 Z M1045.308,688.096 C1052.076,688.096 1057.548,693.424 1057.548,700.288 C1057.548,707.104 1052.076,712.48 1045.26,712.48 C1038.492,712.432 1033.068,707.152 1033.068,700.288 C1033.068,693.424 1038.444,688.096 1045.308,688.096 Z M1045.308,691.504 C1040.412,691.504 1036.812,695.344 1036.86,700.336 C1036.86,705.28 1040.412,709.072 1045.26,709.072 C1050.108,709.072 1053.756,705.232 1053.756,700.336 C1053.756,695.296 1050.108,691.504 1045.308,691.504 Z M1084.596,709.168 C1085.508,709.168 1086.516,709.072 1087.716,708.88 L1087.716,712 C1086.516,712.288 1085.316,712.528 1083.828,712.528 C1079.22,712.528 1075.956,710.272 1075.956,704.944 L1075.956,691.936 L1072.02,691.936 L1072.02,688.624 L1075.956,688.624 L1075.956,682.24 L1079.652,682.24 L1079.652,688.624 L1086.948,688.624 L1086.948,691.936 L1079.652,691.936 L1079.652,704.704 C1079.652,708.208 1081.668,709.168 1084.596,709.168 Z M1102.68,688.096 C1108.152,688.096 1111.32,691.888 1111.32,697.312 L1111.32,712 L1107.624,712 L1107.624,697.792 C1107.624,694.096 1105.416,691.504 1101.816,691.504 C1098.216,691.504 1095.672,694.144 1095.672,697.792 L1095.672,712 L1091.976,712 L1091.976,676 L1095.672,676 L1095.672,691.264 C1097.208,689.296 1099.656,688.096 1102.68,688.096 Z M1138.812,698.656 C1138.812,699.904 1138.62,701.008 1138.524,701.44 L1120.092,701.44 C1120.572,706.096 1124.028,709.12 1128.636,709.12 C1131.564,709.12 1133.868,707.872 1135.788,705.952 L1137.948,708.448 C1135.596,710.944 1132.428,712.528 1128.588,712.528 C1121.532,712.528 1116.204,707.2 1116.204,700.336 C1116.204,693.52 1121.436,688.096 1128.156,688.096 C1134.156,688.096 1138.812,692.416 1138.812,698.656 Z M1128.06,691.456 C1124.124,691.456 1121.004,694.144 1120.236,698.176 L1135.02,698.176 C1134.972,693.856 1131.804,691.456 1128.06,691.456 Z M1181.22,680.32 L1181.22,699.424 C1181.22,707.872 1175.844,712.528 1168.692,712.528 C1161.396,712.528 1156.068,707.872 1156.068,699.424 L1156.068,680.32 L1159.812,680.32 L1159.812,699.664 C1159.812,706.048 1163.748,709.072 1168.692,709.072 C1173.588,709.072 1177.476,706.048 1177.476,699.664 L1177.476,680.32 L1181.22,680.32 Z M1192.056,680.32 L1192.056,712 L1188.312,712 L1188.312,680.32 L1192.056,680.32 Z M270.774,733 L274.47,733 L274.47,769 L270.966,769 L270.966,765.256 C269.142,767.944 265.83,769.528 262.134,769.528 C255.462,769.528 250.566,764.2 250.566,757.336 C250.566,750.424 255.462,745.096 262.134,745.096 C265.686,745.096 268.902,746.584 270.774,749.08 L270.774,733 Z M262.662,766.12 C266.694,766.12 270.822,763.48 270.822,757.336 C270.822,751.192 266.694,748.504 262.662,748.504 C257.91,748.504 254.358,752.2 254.358,757.288 C254.358,762.376 257.862,766.12 262.662,766.12 Z M302.25,755.656 C302.25,756.904 302.058,758.008 301.962,758.44 L283.53,758.44 C284.01,763.096 287.466,766.12 292.074,766.12 C295.002,766.12 297.306,764.872 299.226,762.952 L301.386,765.448 C299.034,767.944 295.866,769.528 292.026,769.528 C284.97,769.528 279.642,764.2 279.642,757.336 C279.642,750.52 284.874,745.096 291.594,745.096 C297.594,745.096 302.25,749.416 302.25,755.656 Z M291.498,748.456 C287.562,748.456 284.442,751.144 283.674,755.176 L298.458,755.176 C298.41,750.856 295.242,748.456 291.498,748.456 Z M314.526,745.096 C317.886,745.096 320.526,746.536 322.35,748.792 L320.094,751.096 C318.558,749.512 316.542,748.504 314.334,748.504 C312.126,748.504 310.446,749.512 310.446,751.432 C310.446,753.016 311.646,753.784 314.238,754.84 L316.398,755.752 C320.622,757.528 322.59,759.352 322.59,762.664 C322.59,767.224 318.702,769.528 314.382,769.528 C310.254,769.528 307.134,767.464 305.262,764.968 L307.614,762.52 C309.534,764.536 311.502,766.12 314.334,766.12 C316.782,766.12 318.798,764.92 318.798,762.808 C318.798,760.792 317.07,760.024 314.718,759.064 L312.462,758.104 C308.91,756.616 306.654,754.984 306.654,751.624 C306.654,747.4 310.254,745.096 314.526,745.096 Z M329.874,734.008 C331.362,734.008 332.61,735.208 332.61,736.696 C332.61,738.232 331.362,739.384 329.874,739.384 C328.29,739.384 327.09,738.232 327.09,736.696 C327.09,735.208 328.29,734.008 329.874,734.008 Z M331.698,745.624 L331.698,769 L328.002,769 L328.002,745.624 L331.698,745.624 Z M357.51,745.624 L361.014,745.624 L361.014,766.744 C361.014,773.944 356.454,778.168 349.638,778.168 C344.742,778.168 340.95,775.96 338.646,773.656 L340.806,771.064 C343.062,773.032 345.702,774.76 349.542,774.76 C354.294,774.76 357.318,772.12 357.318,766.936 L357.318,764.872 C355.398,767.32 352.134,768.76 348.63,768.76 C342.054,768.76 337.158,763.768 337.158,756.952 C337.158,750.184 342.054,745.096 348.63,745.096 C352.326,745.096 355.686,746.728 357.51,749.416 L357.51,745.624 Z M349.206,765.352 C353.286,765.352 357.366,762.808 357.366,756.952 C357.366,751.096 353.238,748.6 349.206,748.6 C344.454,748.6 340.902,752.056 340.902,757 C340.902,761.944 344.454,765.352 349.206,765.352 Z M378.522,745.096 C384.042,745.096 387.21,748.888 387.21,754.312 L387.21,769 L383.514,769 L383.514,754.744 C383.514,751.048 381.306,748.504 377.706,748.504 C374.106,748.504 371.562,751.096 371.562,754.744 L371.562,769 L367.866,769 L367.866,745.624 L371.322,745.624 L371.322,748.168 C372.954,746.248 375.498,745.096 378.522,745.096 Z M416.514,745.096 C423.282,745.096 428.754,750.424 428.754,757.288 C428.754,764.104 423.282,769.48 416.466,769.48 C409.698,769.432 404.274,764.152 404.274,757.288 C404.274,750.424 409.65,745.096 416.514,745.096 Z M416.514,748.504 C411.618,748.504 408.018,752.344 408.066,757.336 C408.066,762.28 411.618,766.072 416.466,766.072 C421.314,766.072 424.962,762.232 424.962,757.336 C424.962,752.296 421.314,748.504 416.514,748.504 Z M443.142,735.832 C440.262,735.832 438.246,736.792 438.246,740.296 L438.246,745.624 L444.102,745.624 L444.102,748.936 L438.246,748.936 L438.246,769 L434.55,769 L434.55,748.936 L431.19,748.936 L431.19,745.624 L434.55,745.624 L434.55,740.056 C434.55,734.728 437.766,732.472 442.278,732.472 C443.43,732.472 444.342,732.616 445.206,732.856 L445.206,735.976 C444.438,735.88 443.766,735.832 443.142,735.832 Z M467.646,766.168 C468.558,766.168 469.566,766.072 470.766,765.88 L470.766,769 C469.566,769.288 468.366,769.528 466.878,769.528 C462.27,769.528 459.006,767.272 459.006,761.944 L459.006,748.936 L455.07,748.936 L455.07,745.624 L459.006,745.624 L459.006,739.24 L462.702,739.24 L462.702,745.624 L469.998,745.624 L469.998,748.936 L462.702,748.936 L462.702,761.704 C462.702,765.208 464.718,766.168 467.646,766.168 Z M485.73,745.096 C491.202,745.096 494.37,748.888 494.37,754.312 L494.37,769 L490.674,769 L490.674,754.792 C490.674,751.096 488.466,748.504 484.866,748.504 C481.266,748.504 478.722,751.144 478.722,754.792 L478.722,769 L475.026,769 L475.026,733 L478.722,733 L478.722,748.264 C480.258,746.296 482.706,745.096 485.73,745.096 Z M521.862,755.656 C521.862,756.904 521.67,758.008 521.574,758.44 L503.142,758.44 C503.622,763.096 507.078,766.12 511.686,766.12 C514.614,766.12 516.918,764.872 518.838,762.952 L520.998,765.448 C518.646,767.944 515.478,769.528 511.638,769.528 C504.582,769.528 499.254,764.2 499.254,757.336 C499.254,750.52 504.486,745.096 511.206,745.096 C517.206,745.096 521.862,749.416 521.862,755.656 Z M511.11,748.456 C507.174,748.456 504.054,751.144 503.286,755.176 L518.07,755.176 C518.022,750.856 514.854,748.456 511.11,748.456 Z M556.398,751.576 C560.382,752.728 562.638,755.848 562.638,759.88 C562.638,765.112 558.894,769 552.606,769 L539.55,769 L539.55,737.32 L550.446,737.32 C556.062,737.32 559.47,740.728 559.47,745.336 C559.47,747.976 558.366,750.136 556.398,751.576 Z M550.062,740.68 L543.294,740.68 L543.294,750.52 L550.062,750.52 C553.758,750.52 555.63,748.504 555.63,745.576 C555.63,742.648 553.758,740.68 550.062,740.68 Z M552.222,765.64 C556.494,765.64 558.798,763.24 558.798,759.784 C558.798,756.376 556.494,753.928 552.222,753.928 L543.294,753.928 L543.294,765.64 L552.222,765.64 Z M595.698,736.792 L596.994,736.792 L596.994,769 L593.25,769 L593.25,746.248 L583.122,760.024 L581.778,760.024 L571.602,746.2 L571.602,769 L567.858,769 L567.858,736.792 L569.202,736.792 L582.402,755.128 L595.698,736.792 Z M644.982,737.32 L649.062,737.32 L637.062,769.528 L635.718,769.528 L625.686,744.376 L615.654,769.528 L614.31,769.528 L602.262,737.32 L606.39,737.32 L615.126,761.464 L625.014,736.792 L626.358,736.792 L636.246,761.464 L644.982,737.32 Z M672.27,745.096 C677.598,745.096 681.39,748.312 681.39,754.6 L681.39,769 L677.934,769 L677.934,765.976 C676.254,768.232 673.518,769.528 670.062,769.528 C665.358,769.528 661.902,767.032 661.902,762.952 C661.902,759.016 665.214,756.424 670.302,756.424 L677.694,756.424 L677.694,754.408 C677.694,750.472 675.486,748.504 672.03,748.504 C669.102,748.504 667.038,749.896 665.214,752.248 L662.766,750.232 C664.974,746.68 668.526,745.096 672.27,745.096 Z M670.542,766.456 C674.382,766.456 677.694,763.672 677.694,760.024 L677.694,759.448 L670.734,759.448 C667.47,759.448 665.694,760.552 665.694,762.76 C665.694,765.256 667.95,766.456 670.542,766.456 Z M698.61,745.096 C704.13,745.096 707.298,748.888 707.298,754.312 L707.298,769 L703.602,769 L703.602,754.744 C703.602,751.048 701.394,748.504 697.794,748.504 C694.194,748.504 691.65,751.096 691.65,754.744 L691.65,769 L687.954,769 L687.954,745.624 L691.41,745.624 L691.41,748.168 C693.042,746.248 695.586,745.096 698.61,745.096 Z M732.39,733 L736.086,733 L736.086,769 L732.582,769 L732.582,765.256 C730.758,767.944 727.446,769.528 723.75,769.528 C717.078,769.528 712.182,764.2 712.182,757.336 C712.182,750.424 717.078,745.096 723.75,745.096 C727.302,745.096 730.518,746.584 732.39,749.08 L732.39,733 Z M724.278,766.12 C728.31,766.12 732.438,763.48 732.438,757.336 C732.438,751.192 728.31,748.504 724.278,748.504 C719.526,748.504 715.974,752.2 715.974,757.288 C715.974,762.376 719.478,766.12 724.278,766.12 Z M783.246,736.792 L784.542,736.792 L784.542,769 L780.798,769 L780.798,746.248 L770.67,760.024 L769.326,760.024 L759.15,746.2 L759.15,769 L755.406,769 L755.406,736.792 L756.75,736.792 L769.95,755.128 L783.246,736.792 Z M793.362,734.008 C794.85,734.008 796.098,735.208 796.098,736.696 C796.098,738.232 794.85,739.384 793.362,739.384 C791.778,739.384 790.578,738.232 790.578,736.696 C790.578,735.208 791.778,734.008 793.362,734.008 Z M795.186,745.624 L795.186,769 L791.49,769 L791.49,745.624 L795.186,745.624 Z M812.694,745.096 C818.214,745.096 821.382,748.888 821.382,754.312 L821.382,769 L817.686,769 L817.686,754.744 C817.686,751.048 815.478,748.504 811.878,748.504 C808.278,748.504 805.734,751.096 805.734,754.744 L805.734,769 L802.038,769 L802.038,745.624 L805.494,745.624 L805.494,748.168 C807.126,746.248 809.67,745.096 812.694,745.096 Z M829.818,734.008 C831.306,734.008 832.554,735.208 832.554,736.696 C832.554,738.232 831.306,739.384 829.818,739.384 C828.234,739.384 827.034,738.232 827.034,736.696 C827.034,735.208 828.234,734.008 829.818,734.008 Z M831.642,745.624 L831.642,769 L827.946,769 L827.946,745.624 L831.642,745.624 Z M865.362,736.792 C871.122,736.792 875.874,739.576 878.514,743.608 L875.73,745.816 C873.378,742.36 869.826,740.248 865.41,740.248 C858.258,740.248 852.786,745.768 852.786,753.16 C852.786,760.552 858.258,766.072 865.41,766.072 C869.826,766.072 873.378,763.96 875.73,760.504 L878.514,762.712 C875.97,766.744 871.122,769.528 865.362,769.528 C856.194,769.528 848.898,762.424 848.898,753.16 C848.898,743.896 856.194,736.792 865.362,736.792 Z M893.814,745.096 C900.582,745.096 906.054,750.424 906.054,757.288 C906.054,764.104 900.582,769.48 893.766,769.48 C886.998,769.432 881.574,764.152 881.574,757.288 C881.574,750.424 886.95,745.096 893.814,745.096 Z M893.814,748.504 C888.918,748.504 885.318,752.344 885.366,757.336 C885.366,762.28 888.918,766.072 893.766,766.072 C898.614,766.072 902.262,762.232 902.262,757.336 C902.262,752.296 898.614,748.504 893.814,748.504 Z M921.93,745.096 C927.45,745.096 930.618,748.888 930.618,754.312 L930.618,769 L926.922,769 L926.922,754.744 C926.922,751.048 924.714,748.504 921.114,748.504 C917.514,748.504 914.97,751.096 914.97,754.744 L914.97,769 L911.274,769 L911.274,745.624 L914.73,745.624 L914.73,748.168 C916.362,746.248 918.906,745.096 921.93,745.096 Z M947.838,745.096 C953.358,745.096 956.526,748.888 956.526,754.312 L956.526,769 L952.83,769 L952.83,754.744 C952.83,751.048 950.622,748.504 947.022,748.504 C943.422,748.504 940.878,751.096 940.878,754.744 L940.878,769 L937.182,769 L937.182,745.624 L940.638,745.624 L940.638,748.168 C942.27,746.248 944.814,745.096 947.838,745.096 Z M984.018,755.656 C984.018,756.904 983.826,758.008 983.73,758.44 L965.298,758.44 C965.778,763.096 969.234,766.12 973.842,766.12 C976.77,766.12 979.074,764.872 980.994,762.952 L983.154,765.448 C980.802,767.944 977.634,769.528 973.794,769.528 C966.738,769.528 961.41,764.2 961.41,757.336 C961.41,750.52 966.642,745.096 973.362,745.096 C979.362,745.096 984.018,749.416 984.018,755.656 Z M973.266,748.456 C969.33,748.456 966.21,751.144 965.442,755.176 L980.226,755.176 C980.178,750.856 977.01,748.456 973.266,748.456 Z M999.798,745.096 C1004.022,745.096 1007.382,747.112 1009.446,750.184 L1006.806,752.296 C1005.078,749.992 1002.87,748.504 999.846,748.504 C994.95,748.504 991.35,752.392 991.35,757.288 C991.35,762.232 994.95,766.12 999.846,766.12 C1002.822,766.12 1005.03,764.68 1006.758,762.376 L1009.398,764.44 C1007.334,767.512 1003.974,769.528 999.798,769.528 C992.982,769.528 987.558,764.152 987.558,757.288 C987.558,750.472 992.982,745.096 999.798,745.096 Z M1024.074,766.168 C1024.986,766.168 1025.994,766.072 1027.194,765.88 L1027.194,769 C1025.994,769.288 1024.794,769.528 1023.306,769.528 C1018.698,769.528 1015.434,767.272 1015.434,761.944 L1015.434,748.936 L1011.498,748.936 L1011.498,745.624 L1015.434,745.624 L1015.434,739.24 L1019.13,739.24 L1019.13,745.624 L1026.426,745.624 L1026.426,748.936 L1019.13,748.936 L1019.13,761.704 C1019.13,765.208 1021.146,766.168 1024.074,766.168 Z M1051.902,755.656 C1051.902,756.904 1051.71,758.008 1051.614,758.44 L1033.182,758.44 C1033.662,763.096 1037.118,766.12 1041.726,766.12 C1044.654,766.12 1046.958,764.872 1048.878,762.952 L1051.038,765.448 C1048.686,767.944 1045.518,769.528 1041.678,769.528 C1034.622,769.528 1029.294,764.2 1029.294,757.336 C1029.294,750.52 1034.526,745.096 1041.246,745.096 C1047.246,745.096 1051.902,749.416 1051.902,755.656 Z M1041.15,748.456 C1037.214,748.456 1034.094,751.144 1033.326,755.176 L1048.11,755.176 C1048.062,750.856 1044.894,748.456 1041.15,748.456 Z M1075.65,733 L1079.346,733 L1079.346,769 L1075.842,769 L1075.842,765.256 C1074.018,767.944 1070.706,769.528 1067.01,769.528 C1060.338,769.528 1055.442,764.2 1055.442,757.336 C1055.442,750.424 1060.338,745.096 1067.01,745.096 C1070.562,745.096 1073.778,746.584 1075.65,749.08 L1075.65,733 Z M1067.538,766.12 C1071.57,766.12 1075.698,763.48 1075.698,757.336 C1075.698,751.192 1071.57,748.504 1067.538,748.504 C1062.786,748.504 1059.234,752.2 1059.234,757.288 C1059.234,762.376 1062.738,766.12 1067.538,766.12 Z M1118.25,769 L1115.514,762.568 L1100.058,762.568 L1097.322,769 L1093.386,769 L1107.114,736.792 L1108.506,736.792 L1122.234,769 L1118.25,769 Z M1114.122,759.208 L1107.786,743.656 L1101.45,759.208 L1114.122,759.208 Z M1138.83,745.096 C1145.55,745.096 1150.398,750.424 1150.398,757.288 C1150.398,764.2 1145.502,769.528 1138.83,769.528 C1135.374,769.528 1132.11,768.088 1130.238,765.592 L1130.238,777.64 L1126.542,777.64 L1126.542,745.624 L1129.998,745.624 L1129.998,749.368 C1131.822,746.68 1135.134,745.096 1138.83,745.096 Z M1138.302,766.12 C1143.054,766.12 1146.606,762.424 1146.606,757.336 C1146.606,752.248 1143.102,748.504 1138.302,748.504 C1134.27,748.504 1130.19,751.144 1130.19,757.288 C1130.19,763.432 1134.222,766.12 1138.302,766.12 Z M1167.906,745.096 C1174.626,745.096 1179.474,750.424 1179.474,757.288 C1179.474,764.2 1174.578,769.528 1167.906,769.528 C1164.45,769.528 1161.186,768.088 1159.314,765.592 L1159.314,777.64 L1155.618,777.64 L1155.618,745.624 L1159.074,745.624 L1159.074,749.368 C1160.898,746.68 1164.21,745.096 1167.906,745.096 Z M1167.378,766.12 C1172.13,766.12 1175.682,762.424 1175.682,757.336 C1175.682,752.248 1172.178,748.504 1167.378,748.504 C1163.346,748.504 1159.266,751.144 1159.266,757.288 C1159.266,763.432 1163.298,766.12 1167.378,766.12 Z M1186.614,763.48 C1188.246,763.48 1189.638,764.728 1189.638,766.504 C1189.638,768.28 1188.246,769.528 1186.614,769.528 C1184.982,769.528 1183.59,768.28 1183.59,766.504 C1183.59,764.728 1184.982,763.48 1186.614,763.48 Z M328.836,793.792 L330.132,793.792 L330.132,826 L326.388,826 L326.388,803.248 L316.26,817.024 L314.916,817.024 L304.74,803.2 L304.74,826 L300.996,826 L300.996,793.792 L302.34,793.792 L315.54,812.128 L328.836,793.792 Z M353.928,802.624 L357.864,802.624 L346.344,829.264 C344.52,833.44 341.976,835.168 338.424,835.168 C337.272,835.168 335.928,834.976 334.824,834.688 L334.824,831.568 C335.928,831.712 336.84,831.808 337.656,831.808 C339.912,831.808 341.64,831.04 342.936,828.064 L344.184,825.232 L334.488,802.624 L338.472,802.624 L346.2,821.248 L353.928,802.624 Z M404.208,802.624 L408.144,802.624 L398.304,826.528 L396.96,826.528 L388.992,808.864 L381.072,826.528 L379.776,826.528 L369.84,802.624 L373.776,802.624 L380.496,819.904 L388.32,802.096 L389.712,802.096 L397.584,819.808 L404.208,802.624 Z M421.86,802.096 C428.628,802.096 434.1,807.424 434.1,814.288 C434.1,821.104 428.628,826.48 421.812,826.48 C415.044,826.432 409.62,821.152 409.62,814.288 C409.62,807.424 414.996,802.096 421.86,802.096 Z M421.86,805.504 C416.964,805.504 413.364,809.344 413.412,814.336 C413.412,819.28 416.964,823.072 421.812,823.072 C426.66,823.072 430.308,819.232 430.308,814.336 C430.308,809.296 426.66,805.504 421.86,805.504 Z M450.024,802.432 C450.792,802.432 451.272,802.528 451.752,802.624 L451.752,805.888 L450.36,805.888 C446.568,805.888 443.016,808.288 443.016,812.752 L443.016,826 L439.32,826 L439.32,802.624 L442.776,802.624 L442.776,805.984 C444.504,803.68 447.24,802.432 450.024,802.432 Z M455.436,826 L455.436,790 L459.132,790 L459.132,826 L455.436,826 Z M463.98,812.896 L475.02,826 L470.268,826 L459.516,812.848 L469.26,802.624 L474.108,802.624 L463.98,812.896 Z M502.932,802.096 C509.652,802.096 514.5,807.424 514.5,814.288 C514.5,821.2 509.604,826.528 502.932,826.528 C499.476,826.528 496.212,825.088 494.34,822.592 L494.34,834.64 L490.644,834.64 L490.644,802.624 L494.1,802.624 L494.1,806.368 C495.924,803.68 499.236,802.096 502.932,802.096 Z M502.404,823.12 C507.156,823.12 510.708,819.424 510.708,814.336 C510.708,809.248 507.204,805.504 502.404,805.504 C498.372,805.504 494.292,808.144 494.292,814.288 C494.292,820.432 498.324,823.12 502.404,823.12 Z M530.424,802.432 C531.192,802.432 531.672,802.528 532.152,802.624 L532.152,805.888 L530.76,805.888 C526.968,805.888 523.416,808.288 523.416,812.752 L523.416,826 L519.72,826 L519.72,802.624 L523.176,802.624 L523.176,805.984 C524.904,803.68 527.64,802.432 530.424,802.432 Z M537.708,791.008 C539.196,791.008 540.444,792.208 540.444,793.696 C540.444,795.232 539.196,796.384 537.708,796.384 C536.124,796.384 534.924,795.232 534.924,793.696 C534.924,792.208 536.124,791.008 537.708,791.008 Z M539.532,802.624 L539.532,826 L535.836,826 L535.836,802.624 L539.532,802.624 Z M572.016,802.096 C577.488,802.096 580.512,805.888 580.512,811.312 L580.512,826 L576.816,826 L576.816,811.792 C576.816,808.096 574.8,805.504 571.296,805.504 C567.744,805.504 565.296,808.192 565.296,811.456 L565.296,826 L561.6,826 L561.6,811.792 C561.6,808.096 559.488,805.504 556.032,805.504 C552.48,805.504 550.08,808.096 550.08,811.792 L550.08,826 L546.384,826 L546.384,802.624 L549.84,802.624 L549.84,805.072 C551.472,803.2 553.872,802.096 556.8,802.096 C560.304,802.096 562.704,803.68 564,806.128 C565.632,803.776 568.416,802.096 572.016,802.096 Z M595.476,802.096 C600.804,802.096 604.596,805.312 604.596,811.6 L604.596,826 L601.14,826 L601.14,822.976 C599.46,825.232 596.724,826.528 593.268,826.528 C588.564,826.528 585.108,824.032 585.108,819.952 C585.108,816.016 588.42,813.424 593.508,813.424 L600.9,813.424 L600.9,811.408 C600.9,807.472 598.692,805.504 595.236,805.504 C592.308,805.504 590.244,806.896 588.42,809.248 L585.972,807.232 C588.18,803.68 591.732,802.096 595.476,802.096 Z M593.748,823.456 C597.588,823.456 600.9,820.672 600.9,817.024 L600.9,816.448 L593.94,816.448 C590.676,816.448 588.9,817.552 588.9,819.76 C588.9,822.256 591.156,823.456 593.748,823.456 Z M621.864,802.432 C622.632,802.432 623.112,802.528 623.592,802.624 L623.592,805.888 L622.2,805.888 C618.408,805.888 614.856,808.288 614.856,812.752 L614.856,826 L611.16,826 L611.16,802.624 L614.616,802.624 L614.616,805.984 C616.344,803.68 619.08,802.432 621.864,802.432 Z M629.148,791.008 C630.636,791.008 631.884,792.208 631.884,793.696 C631.884,795.232 630.636,796.384 629.148,796.384 C627.564,796.384 626.364,795.232 626.364,793.696 C626.364,792.208 627.564,791.008 629.148,791.008 Z M630.972,802.624 L630.972,826 L627.276,826 L627.276,802.624 L630.972,802.624 Z M641.52,790 L641.52,826 L637.824,826 L637.824,790 L641.52,790 Z M664.98,802.624 L668.916,802.624 L657.396,829.264 C655.572,833.44 653.028,835.168 649.476,835.168 C648.324,835.168 646.98,834.976 645.876,834.688 L645.876,831.568 C646.98,831.712 647.892,831.808 648.708,831.808 C650.964,831.808 652.692,831.04 653.988,828.064 L655.236,825.232 L645.54,802.624 L649.524,802.624 L657.252,821.248 L664.98,802.624 Z M694.332,792.832 C691.452,792.832 689.436,793.792 689.436,797.296 L689.436,802.624 L695.292,802.624 L695.292,805.936 L689.436,805.936 L689.436,826 L685.74,826 L685.74,805.936 L682.38,805.936 L682.38,802.624 L685.74,802.624 L685.74,797.056 C685.74,791.728 688.956,789.472 693.468,789.472 C694.62,789.472 695.532,789.616 696.396,789.856 L696.396,792.976 C695.628,792.88 694.956,792.832 694.332,792.832 Z M709.008,802.096 C715.776,802.096 721.248,807.424 721.248,814.288 C721.248,821.104 715.776,826.48 708.96,826.48 C702.192,826.432 696.768,821.152 696.768,814.288 C696.768,807.424 702.144,802.096 709.008,802.096 Z M709.008,805.504 C704.112,805.504 700.512,809.344 700.56,814.336 C700.56,819.28 704.112,823.072 708.96,823.072 C713.808,823.072 717.456,819.232 717.456,814.336 C717.456,809.296 713.808,805.504 709.008,805.504 Z M737.028,802.096 C741.252,802.096 744.612,804.112 746.676,807.184 L744.036,809.296 C742.308,806.992 740.1,805.504 737.076,805.504 C732.18,805.504 728.58,809.392 728.58,814.288 C728.58,819.232 732.18,823.12 737.076,823.12 C740.052,823.12 742.26,821.68 743.988,819.376 L746.628,821.44 C744.564,824.512 741.204,826.528 737.028,826.528 C730.212,826.528 724.788,821.152 724.788,814.288 C724.788,807.472 730.212,802.096 737.028,802.096 Z M770.712,802.624 L770.712,816.688 C770.712,822.688 766.44,826.528 761.064,826.528 C755.592,826.528 751.368,822.688 751.368,816.688 L751.368,802.624 L755.016,802.624 L755.016,816.928 C755.016,820.768 757.704,823.12 761.064,823.12 C764.328,823.12 767.016,820.768 767.016,816.928 L767.016,802.624 L770.712,802.624 Z M784.332,802.096 C787.692,802.096 790.332,803.536 792.156,805.792 L789.9,808.096 C788.364,806.512 786.348,805.504 784.14,805.504 C781.932,805.504 780.252,806.512 780.252,808.432 C780.252,810.016 781.452,810.784 784.044,811.84 L786.204,812.752 C790.428,814.528 792.396,816.352 792.396,819.664 C792.396,824.224 788.508,826.528 784.188,826.528 C780.06,826.528 776.94,824.464 775.068,821.968 L777.42,819.52 C779.34,821.536 781.308,823.12 784.14,823.12 C786.588,823.12 788.604,821.92 788.604,819.808 C788.604,817.792 786.876,817.024 784.524,816.064 L782.268,815.104 C778.716,813.616 776.46,811.984 776.46,808.624 C776.46,804.4 780.06,802.096 784.332,802.096 Z M818.736,812.656 C818.736,813.904 818.544,815.008 818.448,815.44 L800.016,815.44 C800.496,820.096 803.952,823.12 808.56,823.12 C811.488,823.12 813.792,821.872 815.712,819.952 L817.872,822.448 C815.52,824.944 812.352,826.528 808.512,826.528 C801.456,826.528 796.128,821.2 796.128,814.336 C796.128,807.52 801.36,802.096 808.08,802.096 C814.08,802.096 818.736,806.416 818.736,812.656 Z M807.984,805.456 C804.048,805.456 800.928,808.144 800.16,812.176 L814.944,812.176 C814.896,807.856 811.728,805.456 807.984,805.456 Z M831.012,802.096 C834.372,802.096 837.012,803.536 838.836,805.792 L836.58,808.096 C835.044,806.512 833.028,805.504 830.82,805.504 C828.612,805.504 826.932,806.512 826.932,808.432 C826.932,810.016 828.132,810.784 830.724,811.84 L832.884,812.752 C837.108,814.528 839.076,816.352 839.076,819.664 C839.076,824.224 835.188,826.528 830.868,826.528 C826.74,826.528 823.62,824.464 821.748,821.968 L824.1,819.52 C826.02,821.536 827.988,823.12 830.82,823.12 C833.268,823.12 835.284,821.92 835.284,819.808 C835.284,817.792 833.556,817.024 831.204,816.064 L828.948,815.104 C825.396,813.616 823.14,811.984 823.14,808.624 C823.14,804.4 826.74,802.096 831.012,802.096 Z M867.228,802.096 C873.996,802.096 879.468,807.424 879.468,814.288 C879.468,821.104 873.996,826.48 867.18,826.48 C860.412,826.432 854.988,821.152 854.988,814.288 C854.988,807.424 860.364,802.096 867.228,802.096 Z M867.228,805.504 C862.332,805.504 858.732,809.344 858.78,814.336 C858.78,819.28 862.332,823.072 867.18,823.072 C872.028,823.072 875.676,819.232 875.676,814.336 C875.676,809.296 872.028,805.504 867.228,805.504 Z M895.344,802.096 C900.864,802.096 904.032,805.888 904.032,811.312 L904.032,826 L900.336,826 L900.336,811.744 C900.336,808.048 898.128,805.504 894.528,805.504 C890.928,805.504 888.384,808.096 888.384,811.744 L888.384,826 L884.688,826 L884.688,802.624 L888.144,802.624 L888.144,805.168 C889.776,803.248 892.32,802.096 895.344,802.096 Z M931.944,792.832 C929.064,792.832 927.048,793.792 927.048,797.296 L927.048,802.624 L932.904,802.624 L932.904,805.936 L927.048,805.936 L927.048,826 L923.352,826 L923.352,805.936 L919.992,805.936 L919.992,802.624 L923.352,802.624 L923.352,797.056 C923.352,791.728 926.568,789.472 931.08,789.472 C932.232,789.472 933.144,789.616 934.008,789.856 L934.008,792.976 C933.24,792.88 932.568,792.832 931.944,792.832 Z M946.764,802.432 C947.532,802.432 948.012,802.528 948.492,802.624 L948.492,805.888 L947.1,805.888 C943.308,805.888 939.756,808.288 939.756,812.752 L939.756,826 L936.06,826 L936.06,802.624 L939.516,802.624 L939.516,805.984 C941.244,803.68 943.98,802.432 946.764,802.432 Z M960.096,802.096 C965.424,802.096 969.216,805.312 969.216,811.6 L969.216,826 L965.76,826 L965.76,822.976 C964.08,825.232 961.344,826.528 957.888,826.528 C953.184,826.528 949.728,824.032 949.728,819.952 C949.728,816.016 953.04,813.424 958.128,813.424 L965.52,813.424 L965.52,811.408 C965.52,807.472 963.312,805.504 959.856,805.504 C956.928,805.504 954.864,806.896 953.04,809.248 L950.592,807.232 C952.8,803.68 956.352,802.096 960.096,802.096 Z M958.368,823.456 C962.208,823.456 965.52,820.672 965.52,817.024 L965.52,816.448 L958.56,816.448 C955.296,816.448 953.52,817.552 953.52,819.76 C953.52,822.256 955.776,823.456 958.368,823.456 Z M1001.412,802.096 C1006.884,802.096 1009.908,805.888 1009.908,811.312 L1009.908,826 L1006.212,826 L1006.212,811.792 C1006.212,808.096 1004.196,805.504 1000.692,805.504 C997.14,805.504 994.692,808.192 994.692,811.456 L994.692,826 L990.996,826 L990.996,811.792 C990.996,808.096 988.884,805.504 985.428,805.504 C981.876,805.504 979.476,808.096 979.476,811.792 L979.476,826 L975.78,826 L975.78,802.624 L979.236,802.624 L979.236,805.072 C980.868,803.2 983.268,802.096 986.196,802.096 C989.7,802.096 992.1,803.68 993.396,806.128 C995.028,803.776 997.812,802.096 1001.412,802.096 Z M1037.4,812.656 C1037.4,813.904 1037.208,815.008 1037.112,815.44 L1018.68,815.44 C1019.16,820.096 1022.616,823.12 1027.224,823.12 C1030.152,823.12 1032.456,821.872 1034.376,819.952 L1036.536,822.448 C1034.184,824.944 1031.016,826.528 1027.176,826.528 C1020.12,826.528 1014.792,821.2 1014.792,814.336 C1014.792,807.52 1020.024,802.096 1026.744,802.096 C1032.744,802.096 1037.4,806.416 1037.4,812.656 Z M1026.648,805.456 C1022.712,805.456 1019.592,808.144 1018.824,812.176 L1033.608,812.176 C1033.56,807.856 1030.392,805.456 1026.648,805.456 Z M1073.196,802.624 L1077.132,802.624 L1067.292,826.528 L1065.948,826.528 L1057.98,808.864 L1050.06,826.528 L1048.764,826.528 L1038.828,802.624 L1042.764,802.624 L1049.484,819.904 L1057.308,802.096 L1058.7,802.096 L1066.572,819.808 L1073.196,802.624 Z M1090.848,802.096 C1097.616,802.096 1103.088,807.424 1103.088,814.288 C1103.088,821.104 1097.616,826.48 1090.8,826.48 C1084.032,826.432 1078.608,821.152 1078.608,814.288 C1078.608,807.424 1083.984,802.096 1090.848,802.096 Z M1090.848,805.504 C1085.952,805.504 1082.352,809.344 1082.4,814.336 C1082.4,819.28 1085.952,823.072 1090.8,823.072 C1095.648,823.072 1099.296,819.232 1099.296,814.336 C1099.296,809.296 1095.648,805.504 1090.848,805.504 Z M1119.012,802.432 C1119.78,802.432 1120.26,802.528 1120.74,802.624 L1120.74,805.888 L1119.348,805.888 C1115.556,805.888 1112.004,808.288 1112.004,812.752 L1112.004,826 L1108.308,826 L1108.308,802.624 L1111.764,802.624 L1111.764,805.984 C1113.492,803.68 1116.228,802.432 1119.012,802.432 Z M1124.424,826 L1124.424,790 L1128.12,790 L1128.12,826 L1124.424,826 Z M1132.968,812.896 L1144.008,826 L1139.256,826 L1128.504,812.848 L1138.248,802.624 L1143.096,802.624 L1132.968,812.896 Z M271.326,880.168 C272.238,880.168 273.246,880.072 274.446,879.88 L274.446,883 C273.246,883.288 272.046,883.528 270.558,883.528 C265.95,883.528 262.686,881.272 262.686,875.944 L262.686,862.936 L258.75,862.936 L258.75,859.624 L262.686,859.624 L262.686,853.24 L266.382,853.24 L266.382,859.624 L273.678,859.624 L273.678,862.936 L266.382,862.936 L266.382,875.704 C266.382,879.208 268.398,880.168 271.326,880.168 Z M288.786,859.096 C295.554,859.096 301.026,864.424 301.026,871.288 C301.026,878.104 295.554,883.48 288.738,883.48 C281.97,883.432 276.546,878.152 276.546,871.288 C276.546,864.424 281.922,859.096 288.786,859.096 Z M288.786,862.504 C283.89,862.504 280.29,866.344 280.338,871.336 C280.338,876.28 283.89,880.072 288.738,880.072 C293.586,880.072 297.234,876.232 297.234,871.336 C297.234,866.296 293.586,862.504 288.786,862.504 Z M318.534,859.096 C325.254,859.096 330.102,864.424 330.102,871.288 C330.102,878.2 325.206,883.528 318.534,883.528 C315.078,883.528 311.814,882.088 309.942,879.592 L309.942,891.64 L306.246,891.64 L306.246,859.624 L309.702,859.624 L309.702,863.368 C311.526,860.68 314.838,859.096 318.534,859.096 Z M318.006,880.12 C322.758,880.12 326.31,876.424 326.31,871.336 C326.31,866.248 322.806,862.504 318.006,862.504 C313.974,862.504 309.894,865.144 309.894,871.288 C309.894,877.432 313.926,880.12 318.006,880.12 Z M337.194,848.008 C338.682,848.008 339.93,849.208 339.93,850.696 C339.93,852.232 338.682,853.384 337.194,853.384 C335.61,853.384 334.41,852.232 334.41,850.696 C334.41,849.208 335.61,848.008 337.194,848.008 Z M339.018,859.624 L339.018,883 L335.322,883 L335.322,859.624 L339.018,859.624 Z M356.43,859.096 C360.654,859.096 364.014,861.112 366.078,864.184 L363.438,866.296 C361.71,863.992 359.502,862.504 356.478,862.504 C351.582,862.504 347.982,866.392 347.982,871.288 C347.982,876.232 351.582,880.12 356.478,880.12 C359.454,880.12 361.662,878.68 363.39,876.376 L366.03,878.44 C363.966,881.512 360.606,883.528 356.43,883.528 C349.614,883.528 344.19,878.152 344.19,871.288 C344.19,864.472 349.614,859.096 356.43,859.096 Z M378.114,859.096 C381.474,859.096 384.114,860.536 385.938,862.792 L383.682,865.096 C382.146,863.512 380.13,862.504 377.922,862.504 C375.714,862.504 374.034,863.512 374.034,865.432 C374.034,867.016 375.234,867.784 377.826,868.84 L379.986,869.752 C384.21,871.528 386.178,873.352 386.178,876.664 C386.178,881.224 382.29,883.528 377.97,883.528 C373.842,883.528 370.722,881.464 368.85,878.968 L371.202,876.52 C373.122,878.536 375.09,880.12 377.922,880.12 C380.37,880.12 382.386,878.92 382.386,876.808 C382.386,874.792 380.658,874.024 378.306,873.064 L376.05,872.104 C372.498,870.616 370.242,868.984 370.242,865.624 C370.242,861.4 373.842,859.096 378.114,859.096 Z M412.17,859.096 C417.498,859.096 421.29,862.312 421.29,868.6 L421.29,883 L417.834,883 L417.834,879.976 C416.154,882.232 413.418,883.528 409.962,883.528 C405.258,883.528 401.802,881.032 401.802,876.952 C401.802,873.016 405.114,870.424 410.202,870.424 L417.594,870.424 L417.594,868.408 C417.594,864.472 415.386,862.504 411.93,862.504 C409.002,862.504 406.938,863.896 405.114,866.248 L402.666,864.232 C404.874,860.68 408.426,859.096 412.17,859.096 Z M410.442,880.456 C414.282,880.456 417.594,877.672 417.594,874.024 L417.594,873.448 L410.634,873.448 C407.37,873.448 405.594,874.552 405.594,876.76 C405.594,879.256 407.85,880.456 410.442,880.456 Z M438.51,859.096 C444.03,859.096 447.198,862.888 447.198,868.312 L447.198,883 L443.502,883 L443.502,868.744 C443.502,865.048 441.294,862.504 437.694,862.504 C434.094,862.504 431.55,865.096 431.55,868.744 L431.55,883 L427.854,883 L427.854,859.624 L431.31,859.624 L431.31,862.168 C432.942,860.248 435.486,859.096 438.51,859.096 Z M472.29,847 L475.986,847 L475.986,883 L472.482,883 L472.482,879.256 C470.658,881.944 467.346,883.528 463.65,883.528 C456.978,883.528 452.082,878.2 452.082,871.336 C452.082,864.424 456.978,859.096 463.65,859.096 C467.202,859.096 470.418,860.584 472.29,863.08 L472.29,847 Z M464.178,880.12 C468.21,880.12 472.338,877.48 472.338,871.336 C472.338,865.192 468.21,862.504 464.178,862.504 C459.426,862.504 455.874,866.2 455.874,871.288 C455.874,876.376 459.378,880.12 464.178,880.12 Z M525.114,859.624 L529.05,859.624 L519.21,883.528 L517.866,883.528 L509.898,865.864 L501.978,883.528 L500.682,883.528 L490.746,859.624 L494.682,859.624 L501.402,876.904 L509.226,859.096 L510.618,859.096 L518.49,876.808 L525.114,859.624 Z M553.134,869.656 C553.134,870.904 552.942,872.008 552.846,872.44 L534.414,872.44 C534.894,877.096 538.35,880.12 542.958,880.12 C545.886,880.12 548.19,878.872 550.11,876.952 L552.27,879.448 C549.918,881.944 546.75,883.528 542.91,883.528 C535.854,883.528 530.526,878.2 530.526,871.336 C530.526,864.52 535.758,859.096 542.478,859.096 C548.478,859.096 553.134,863.416 553.134,869.656 Z M542.382,862.456 C538.446,862.456 535.326,865.144 534.558,869.176 L549.342,869.176 C549.294,864.856 546.126,862.456 542.382,862.456 Z M570.642,859.096 C577.314,859.096 582.21,864.424 582.21,871.336 C582.21,878.2 577.362,883.528 570.69,883.528 C567.042,883.528 563.634,881.944 561.81,879.256 L561.81,883 L558.354,883 L558.354,847 L562.05,847 L562.05,863.08 C563.874,860.632 567.09,859.096 570.642,859.096 Z M570.114,880.12 C574.914,880.12 578.418,876.376 578.418,871.288 C578.418,866.2 574.866,862.504 570.114,862.504 C566.034,862.504 562.002,865.192 562.002,871.336 C562.002,877.48 566.082,880.12 570.114,880.12 Z M618.138,847 L621.834,847 L621.834,883 L618.33,883 L618.33,879.256 C616.506,881.944 613.194,883.528 609.498,883.528 C602.826,883.528 597.93,878.2 597.93,871.336 C597.93,864.424 602.826,859.096 609.498,859.096 C613.05,859.096 616.266,860.584 618.138,863.08 L618.138,847 Z M610.026,880.12 C614.058,880.12 618.186,877.48 618.186,871.336 C618.186,865.192 614.058,862.504 610.026,862.504 C605.274,862.504 601.722,866.2 601.722,871.288 C601.722,876.376 605.226,880.12 610.026,880.12 Z M649.614,869.656 C649.614,870.904 649.422,872.008 649.326,872.44 L630.894,872.44 C631.374,877.096 634.83,880.12 639.438,880.12 C642.366,880.12 644.67,878.872 646.59,876.952 L648.75,879.448 C646.398,881.944 643.23,883.528 639.39,883.528 C632.334,883.528 627.006,878.2 627.006,871.336 C627.006,864.52 632.238,859.096 638.958,859.096 C644.958,859.096 649.614,863.416 649.614,869.656 Z M638.862,862.456 C634.926,862.456 631.806,865.144 631.038,869.176 L645.822,869.176 C645.774,864.856 642.606,862.456 638.862,862.456 Z M670.482,859.624 L674.418,859.624 L663.426,883.528 L662.082,883.528 L651.042,859.624 L654.978,859.624 L662.754,877.24 L670.482,859.624 Z M698.454,869.656 C698.454,870.904 698.262,872.008 698.166,872.44 L679.734,872.44 C680.214,877.096 683.67,880.12 688.278,880.12 C691.206,880.12 693.51,878.872 695.43,876.952 L697.59,879.448 C695.238,881.944 692.07,883.528 688.23,883.528 C681.174,883.528 675.846,878.2 675.846,871.336 C675.846,864.52 681.078,859.096 687.798,859.096 C693.798,859.096 698.454,863.416 698.454,869.656 Z M687.702,862.456 C683.766,862.456 680.646,865.144 679.878,869.176 L694.662,869.176 C694.614,864.856 691.446,862.456 687.702,862.456 Z M707.37,847 L707.37,883 L703.674,883 L703.674,847 L707.37,847 Z M724.782,859.096 C731.55,859.096 737.022,864.424 737.022,871.288 C737.022,878.104 731.55,883.48 724.734,883.48 C717.966,883.432 712.542,878.152 712.542,871.288 C712.542,864.424 717.918,859.096 724.782,859.096 Z M724.782,862.504 C719.886,862.504 716.286,866.344 716.334,871.336 C716.334,876.28 719.886,880.072 724.734,880.072 C729.582,880.072 733.23,876.232 733.23,871.336 C733.23,866.296 729.582,862.504 724.782,862.504 Z M754.53,859.096 C761.25,859.096 766.098,864.424 766.098,871.288 C766.098,878.2 761.202,883.528 754.53,883.528 C751.074,883.528 747.81,882.088 745.938,879.592 L745.938,891.64 L742.242,891.64 L742.242,859.624 L745.698,859.624 L745.698,863.368 C747.522,860.68 750.834,859.096 754.53,859.096 Z M754.002,880.12 C758.754,880.12 762.306,876.424 762.306,871.336 C762.306,866.248 758.802,862.504 754.002,862.504 C749.97,862.504 745.89,865.144 745.89,871.288 C745.89,877.432 749.922,880.12 754.002,880.12 Z M796.95,859.096 C802.422,859.096 805.446,862.888 805.446,868.312 L805.446,883 L801.75,883 L801.75,868.792 C801.75,865.096 799.734,862.504 796.23,862.504 C792.678,862.504 790.23,865.192 790.23,868.456 L790.23,883 L786.534,883 L786.534,868.792 C786.534,865.096 784.422,862.504 780.966,862.504 C777.414,862.504 775.014,865.096 775.014,868.792 L775.014,883 L771.318,883 L771.318,859.624 L774.774,859.624 L774.774,862.072 C776.406,860.2 778.806,859.096 781.734,859.096 C785.238,859.096 787.638,860.68 788.934,863.128 C790.566,860.776 793.35,859.096 796.95,859.096 Z M832.938,869.656 C832.938,870.904 832.746,872.008 832.65,872.44 L814.218,872.44 C814.698,877.096 818.154,880.12 822.762,880.12 C825.69,880.12 827.994,878.872 829.914,876.952 L832.074,879.448 C829.722,881.944 826.554,883.528 822.714,883.528 C815.658,883.528 810.33,878.2 810.33,871.336 C810.33,864.52 815.562,859.096 822.282,859.096 C828.282,859.096 832.938,863.416 832.938,869.656 Z M822.186,862.456 C818.25,862.456 815.13,865.144 814.362,869.176 L829.146,869.176 C829.098,864.856 825.93,862.456 822.186,862.456 Z M848.814,859.096 C854.334,859.096 857.502,862.888 857.502,868.312 L857.502,883 L853.806,883 L853.806,868.744 C853.806,865.048 851.598,862.504 847.998,862.504 C844.398,862.504 841.854,865.096 841.854,868.744 L841.854,883 L838.158,883 L838.158,859.624 L841.614,859.624 L841.614,862.168 C843.246,860.248 845.79,859.096 848.814,859.096 Z M873.714,880.168 C874.626,880.168 875.634,880.072 876.834,879.88 L876.834,883 C875.634,883.288 874.434,883.528 872.946,883.528 C868.338,883.528 865.074,881.272 865.074,875.944 L865.074,862.936 L861.138,862.936 L861.138,859.624 L865.074,859.624 L865.074,853.24 L868.77,853.24 L868.77,859.624 L876.066,859.624 L876.066,862.936 L868.77,862.936 L868.77,875.704 C868.77,879.208 870.786,880.168 873.714,880.168 Z M902.442,849.832 C899.562,849.832 897.546,850.792 897.546,854.296 L897.546,859.624 L903.402,859.624 L903.402,862.936 L897.546,862.936 L897.546,883 L893.85,883 L893.85,862.936 L890.49,862.936 L890.49,859.624 L893.85,859.624 L893.85,854.056 C893.85,848.728 897.066,846.472 901.578,846.472 C902.73,846.472 903.642,846.616 904.506,846.856 L904.506,849.976 C903.738,849.88 903.066,849.832 902.442,849.832 Z M917.118,859.096 C923.886,859.096 929.358,864.424 929.358,871.288 C929.358,878.104 923.886,883.48 917.07,883.48 C910.302,883.432 904.878,878.152 904.878,871.288 C904.878,864.424 910.254,859.096 917.118,859.096 Z M917.118,862.504 C912.222,862.504 908.622,866.344 908.67,871.336 C908.67,876.28 912.222,880.072 917.07,880.072 C921.918,880.072 925.566,876.232 925.566,871.336 C925.566,866.296 921.918,862.504 917.118,862.504 Z M945.282,859.432 C946.05,859.432 946.53,859.528 947.01,859.624 L947.01,862.888 L945.618,862.888 C941.826,862.888 938.274,865.288 938.274,869.752 L938.274,883 L934.578,883 L934.578,859.624 L938.034,859.624 L938.034,862.984 C939.762,860.68 942.498,859.432 945.282,859.432 Z M988.506,859.096 C993.978,859.096 997.002,862.888 997.002,868.312 L997.002,883 L993.306,883 L993.306,868.792 C993.306,865.096 991.29,862.504 987.786,862.504 C984.234,862.504 981.786,865.192 981.786,868.456 L981.786,883 L978.09,883 L978.09,868.792 C978.09,865.096 975.978,862.504 972.522,862.504 C968.97,862.504 966.57,865.096 966.57,868.792 L966.57,883 L962.874,883 L962.874,859.624 L966.33,859.624 L966.33,862.072 C967.962,860.2 970.362,859.096 973.29,859.096 C976.794,859.096 979.194,860.68 980.49,863.128 C982.122,860.776 984.906,859.096 988.506,859.096 Z M1011.966,859.096 C1017.294,859.096 1021.086,862.312 1021.086,868.6 L1021.086,883 L1017.63,883 L1017.63,879.976 C1015.95,882.232 1013.214,883.528 1009.758,883.528 C1005.054,883.528 1001.598,881.032 1001.598,876.952 C1001.598,873.016 1004.91,870.424 1009.998,870.424 L1017.39,870.424 L1017.39,868.408 C1017.39,864.472 1015.182,862.504 1011.726,862.504 C1008.798,862.504 1006.734,863.896 1004.91,866.248 L1002.462,864.232 C1004.67,860.68 1008.222,859.096 1011.966,859.096 Z M1010.238,880.456 C1014.078,880.456 1017.39,877.672 1017.39,874.024 L1017.39,873.448 L1010.43,873.448 C1007.166,873.448 1005.39,874.552 1005.39,876.76 C1005.39,879.256 1007.646,880.456 1010.238,880.456 Z M1038.354,859.432 C1039.122,859.432 1039.602,859.528 1040.082,859.624 L1040.082,862.888 L1038.69,862.888 C1034.898,862.888 1031.346,865.288 1031.346,869.752 L1031.346,883 L1027.65,883 L1027.65,859.624 L1031.106,859.624 L1031.106,862.984 C1032.834,860.68 1035.57,859.432 1038.354,859.432 Z M1043.766,883 L1043.766,847 L1047.462,847 L1047.462,883 L1043.766,883 Z M1052.31,869.896 L1063.35,883 L1058.598,883 L1047.846,869.848 L1057.59,859.624 L1062.438,859.624 L1052.31,869.896 Z M1086.762,869.656 C1086.762,870.904 1086.57,872.008 1086.474,872.44 L1068.042,872.44 C1068.522,877.096 1071.978,880.12 1076.586,880.12 C1079.514,880.12 1081.818,878.872 1083.738,876.952 L1085.898,879.448 C1083.546,881.944 1080.378,883.528 1076.538,883.528 C1069.482,883.528 1064.154,878.2 1064.154,871.336 C1064.154,864.52 1069.386,859.096 1076.106,859.096 C1082.106,859.096 1086.762,863.416 1086.762,869.656 Z M1076.01,862.456 C1072.074,862.456 1068.954,865.144 1068.186,869.176 L1082.97,869.176 C1082.922,864.856 1079.754,862.456 1076.01,862.456 Z M1101.63,880.168 C1102.542,880.168 1103.55,880.072 1104.75,879.88 L1104.75,883 C1103.55,883.288 1102.35,883.528 1100.862,883.528 C1096.254,883.528 1092.99,881.272 1092.99,875.944 L1092.99,862.936 L1089.054,862.936 L1089.054,859.624 L1092.99,859.624 L1092.99,853.24 L1096.686,853.24 L1096.686,859.624 L1103.982,859.624 L1103.982,862.936 L1096.686,862.936 L1096.686,875.704 C1096.686,879.208 1098.702,880.168 1101.63,880.168 Z M1110.882,848.008 C1112.37,848.008 1113.618,849.208 1113.618,850.696 C1113.618,852.232 1112.37,853.384 1110.882,853.384 C1109.298,853.384 1108.098,852.232 1108.098,850.696 C1108.098,849.208 1109.298,848.008 1110.882,848.008 Z M1112.706,859.624 L1112.706,883 L1109.01,883 L1109.01,859.624 L1112.706,859.624 Z M1130.214,859.096 C1135.734,859.096 1138.902,862.888 1138.902,868.312 L1138.902,883 L1135.206,883 L1135.206,868.744 C1135.206,865.048 1132.998,862.504 1129.398,862.504 C1125.798,862.504 1123.254,865.096 1123.254,868.744 L1123.254,883 L1119.558,883 L1119.558,859.624 L1123.014,859.624 L1123.014,862.168 C1124.646,860.248 1127.19,859.096 1130.214,859.096 Z M1164.426,859.624 L1167.93,859.624 L1167.93,880.744 C1167.93,887.944 1163.37,892.168 1156.554,892.168 C1151.658,892.168 1147.866,889.96 1145.562,887.656 L1147.722,885.064 C1149.978,887.032 1152.618,888.76 1156.458,888.76 C1161.21,888.76 1164.234,886.12 1164.234,880.936 L1164.234,878.872 C1162.314,881.32 1159.05,882.76 1155.546,882.76 C1148.97,882.76 1144.074,877.768 1144.074,870.952 C1144.074,864.184 1148.97,859.096 1155.546,859.096 C1159.242,859.096 1162.602,860.728 1164.426,863.416 L1164.426,859.624 Z M1156.122,879.352 C1160.202,879.352 1164.282,876.808 1164.282,870.952 C1164.282,865.096 1160.154,862.6 1156.122,862.6 C1151.37,862.6 1147.818,866.056 1147.818,871 C1147.818,875.944 1151.37,879.352 1156.122,879.352 Z M1177.182,877.48 C1178.814,877.48 1180.206,878.728 1180.206,880.504 C1180.206,882.28 1178.814,883.528 1177.182,883.528 C1175.55,883.528 1174.158,882.28 1174.158,880.504 C1174.158,878.728 1175.55,877.48 1177.182,877.48 Z" id="ThisprojectfocusesoncontributingtotheUIdesignoftheBMWandMiniConnectedApp.Myworkprimarilyfocusesonframeworktopicsandwebdevelopmentformarketing."></path>
        </g>
    </g>
</svg>