<?xml version="1.0" encoding="UTF-8"?>
<svg width="688px" height="191px" viewBox="0 0 688 191" version="1.1" xmlns="http://www.w3.org/2000/svg" xmlns:xlink="http://www.w3.org/1999/xlink">
    <!-- Generator: Sketch 54.1 (76490) - https://sketchapp.com -->
    <title>TheframeworktopicsarebasedonrefactoringthedesignofthecomponentsintheapptoadheretothelatesttrendsandUXinsights.TwoexamplescomponentsIworkedonincludetextfieldsandcards.</title>
    <desc>Created with Sketch.</desc>
    <g id="Page-1" stroke="none" stroke-width="1" fill="none" fill-rule="evenodd">
        <g id="Desktop-HD-Copy-32" transform="translate(-444.000000, -1492.000000)" fill="#404648" fill-rule="nonzero">
            <path d="M529.777,1495.56 L529.777,1497.94 L521.855,1497.94 L521.855,1518 L519.203,1518 L519.203,1497.94 L511.315,1497.94 L511.315,1495.56 L529.777,1495.56 Z M540.895,1501.068 C544.771,1501.068 547.015,1503.754 547.015,1507.596 L547.015,1518 L544.397,1518 L544.397,1507.936 C544.397,1505.318 542.833,1503.482 540.283,1503.482 C537.733,1503.482 535.931,1505.352 535.931,1507.936 L535.931,1518 L533.313,1518 L533.313,1492.5 L535.931,1492.5 L535.931,1503.312 C537.019,1501.918 538.753,1501.068 540.895,1501.068 Z M567.381,1508.548 C567.381,1509.432 567.245,1510.214 567.177,1510.52 L554.121,1510.52 C554.461,1513.818 556.909,1515.96 560.173,1515.96 C562.247,1515.96 563.879,1515.076 565.239,1513.716 L566.769,1515.484 C565.103,1517.252 562.859,1518.374 560.139,1518.374 C555.141,1518.374 551.367,1514.6 551.367,1509.738 C551.367,1504.91 555.073,1501.068 559.833,1501.068 C564.083,1501.068 567.381,1504.128 567.381,1508.548 Z M559.765,1503.448 C556.977,1503.448 554.767,1505.352 554.223,1508.208 L564.695,1508.208 C564.661,1505.148 562.417,1503.448 559.765,1503.448 Z M587.985,1494.506 C585.945,1494.506 584.517,1495.186 584.517,1497.668 L584.517,1501.442 L588.665,1501.442 L588.665,1503.788 L584.517,1503.788 L584.517,1518 L581.899,1518 L581.899,1503.788 L579.519,1503.788 L579.519,1501.442 L581.899,1501.442 L581.899,1497.498 C581.899,1493.724 584.177,1492.126 587.373,1492.126 C588.189,1492.126 588.835,1492.228 589.447,1492.398 L589.447,1494.608 C588.903,1494.54 588.427,1494.506 587.985,1494.506 Z M599.375,1501.306 C599.919,1501.306 600.259,1501.374 600.599,1501.442 L600.599,1503.754 L599.613,1503.754 C596.927,1503.754 594.411,1505.454 594.411,1508.616 L594.411,1518 L591.793,1518 L591.793,1501.442 L594.241,1501.442 L594.241,1503.822 C595.465,1502.19 597.403,1501.306 599.375,1501.306 Z M609.711,1501.068 C613.485,1501.068 616.171,1503.346 616.171,1507.8 L616.171,1518 L613.723,1518 L613.723,1515.858 C612.533,1517.456 610.595,1518.374 608.147,1518.374 C604.815,1518.374 602.367,1516.606 602.367,1513.716 C602.367,1510.928 604.713,1509.092 608.317,1509.092 L613.553,1509.092 L613.553,1507.664 C613.553,1504.876 611.989,1503.482 609.541,1503.482 C607.467,1503.482 606.005,1504.468 604.713,1506.134 L602.979,1504.706 C604.543,1502.19 607.059,1501.068 609.711,1501.068 Z M608.487,1516.198 C611.207,1516.198 613.553,1514.226 613.553,1511.642 L613.553,1511.234 L608.623,1511.234 C606.311,1511.234 605.053,1512.016 605.053,1513.58 C605.053,1515.348 606.651,1516.198 608.487,1516.198 Z M639.869,1501.068 C643.745,1501.068 645.887,1503.754 645.887,1507.596 L645.887,1518 L643.269,1518 L643.269,1507.936 C643.269,1505.318 641.841,1503.482 639.359,1503.482 C636.843,1503.482 635.109,1505.386 635.109,1507.698 L635.109,1518 L632.491,1518 L632.491,1507.936 C632.491,1505.318 630.995,1503.482 628.547,1503.482 C626.031,1503.482 624.331,1505.318 624.331,1507.936 L624.331,1518 L621.713,1518 L621.713,1501.442 L624.161,1501.442 L624.161,1503.176 C625.317,1501.85 627.017,1501.068 629.091,1501.068 C631.573,1501.068 633.273,1502.19 634.191,1503.924 C635.347,1502.258 637.319,1501.068 639.869,1501.068 Z M666.253,1508.548 C666.253,1509.432 666.117,1510.214 666.049,1510.52 L652.993,1510.52 C653.333,1513.818 655.781,1515.96 659.045,1515.96 C661.119,1515.96 662.751,1515.076 664.111,1513.716 L665.641,1515.484 C663.975,1517.252 661.731,1518.374 659.011,1518.374 C654.013,1518.374 650.239,1514.6 650.239,1509.738 C650.239,1504.91 653.945,1501.068 658.705,1501.068 C662.955,1501.068 666.253,1504.128 666.253,1508.548 Z M658.637,1503.448 C655.849,1503.448 653.639,1505.352 653.095,1508.208 L663.567,1508.208 C663.533,1505.148 661.289,1503.448 658.637,1503.448 Z M692.501,1501.442 L695.289,1501.442 L688.319,1518.374 L687.367,1518.374 L681.723,1505.862 L676.113,1518.374 L675.195,1518.374 L668.157,1501.442 L670.945,1501.442 L675.705,1513.682 L681.247,1501.068 L682.233,1501.068 L687.809,1513.614 L692.501,1501.442 Z M705.897,1501.068 C710.691,1501.068 714.567,1504.842 714.567,1509.704 C714.567,1514.532 710.691,1518.34 705.863,1518.34 C701.069,1518.306 697.227,1514.566 697.227,1509.704 C697.227,1504.842 701.035,1501.068 705.897,1501.068 Z M705.897,1503.482 C702.429,1503.482 699.879,1506.202 699.913,1509.738 C699.913,1513.24 702.429,1515.926 705.863,1515.926 C709.297,1515.926 711.881,1513.206 711.881,1509.738 C711.881,1506.168 709.297,1503.482 705.897,1503.482 Z M726.739,1501.306 C727.283,1501.306 727.623,1501.374 727.963,1501.442 L727.963,1503.754 L726.977,1503.754 C724.291,1503.754 721.775,1505.454 721.775,1508.616 L721.775,1518 L719.157,1518 L719.157,1501.442 L721.605,1501.442 L721.605,1503.822 C722.829,1502.19 724.767,1501.306 726.739,1501.306 Z M731.465,1518 L731.465,1492.5 L734.083,1492.5 L734.083,1518 L731.465,1518 Z M737.517,1508.718 L745.337,1518 L741.971,1518 L734.355,1508.684 L741.257,1501.442 L744.691,1501.442 L737.517,1508.718 Z M765.023,1515.994 C765.669,1515.994 766.383,1515.926 767.233,1515.79 L767.233,1518 C766.383,1518.204 765.533,1518.374 764.479,1518.374 C761.215,1518.374 758.903,1516.776 758.903,1513.002 L758.903,1503.788 L756.115,1503.788 L756.115,1501.442 L758.903,1501.442 L758.903,1496.92 L761.521,1496.92 L761.521,1501.442 L766.689,1501.442 L766.689,1503.788 L761.521,1503.788 L761.521,1512.832 C761.521,1515.314 762.949,1515.994 765.023,1515.994 Z M778.283,1501.068 C783.077,1501.068 786.953,1504.842 786.953,1509.704 C786.953,1514.532 783.077,1518.34 778.249,1518.34 C773.455,1518.306 769.613,1514.566 769.613,1509.704 C769.613,1504.842 773.421,1501.068 778.283,1501.068 Z M778.283,1503.482 C774.815,1503.482 772.265,1506.202 772.299,1509.738 C772.299,1513.24 774.815,1515.926 778.249,1515.926 C781.683,1515.926 784.267,1513.206 784.267,1509.738 C784.267,1506.168 781.683,1503.482 778.283,1503.482 Z M800.247,1501.068 C805.007,1501.068 808.441,1504.842 808.441,1509.704 C808.441,1514.6 804.973,1518.374 800.247,1518.374 C797.799,1518.374 795.487,1517.354 794.161,1515.586 L794.161,1524.12 L791.543,1524.12 L791.543,1501.442 L793.991,1501.442 L793.991,1504.094 C795.283,1502.19 797.629,1501.068 800.247,1501.068 Z M799.873,1515.96 C803.239,1515.96 805.755,1513.342 805.755,1509.738 C805.755,1506.134 803.273,1503.482 799.873,1503.482 C797.017,1503.482 794.127,1505.352 794.127,1509.704 C794.127,1514.056 796.983,1515.96 799.873,1515.96 Z M814.357,1493.214 C815.411,1493.214 816.295,1494.064 816.295,1495.118 C816.295,1496.206 815.411,1497.022 814.357,1497.022 C813.235,1497.022 812.385,1496.206 812.385,1495.118 C812.385,1494.064 813.235,1493.214 814.357,1493.214 Z M815.649,1501.442 L815.649,1518 L813.031,1518 L813.031,1501.442 L815.649,1501.442 Z M828.875,1501.068 C831.867,1501.068 834.247,1502.496 835.709,1504.672 L833.839,1506.168 C832.615,1504.536 831.051,1503.482 828.909,1503.482 C825.441,1503.482 822.891,1506.236 822.891,1509.704 C822.891,1513.206 825.441,1515.96 828.909,1515.96 C831.017,1515.96 832.581,1514.94 833.805,1513.308 L835.675,1514.77 C834.213,1516.946 831.833,1518.374 828.875,1518.374 C824.047,1518.374 820.205,1514.566 820.205,1509.704 C820.205,1504.876 824.047,1501.068 828.875,1501.068 Z M845.127,1501.068 C847.507,1501.068 849.377,1502.088 850.669,1503.686 L849.071,1505.318 C847.983,1504.196 846.555,1503.482 844.991,1503.482 C843.427,1503.482 842.237,1504.196 842.237,1505.556 C842.237,1506.678 843.087,1507.222 844.923,1507.97 L846.453,1508.616 C849.445,1509.874 850.839,1511.166 850.839,1513.512 C850.839,1516.742 848.085,1518.374 845.025,1518.374 C842.101,1518.374 839.891,1516.912 838.565,1515.144 L840.231,1513.41 C841.591,1514.838 842.985,1515.96 844.991,1515.96 C846.725,1515.96 848.153,1515.11 848.153,1513.614 C848.153,1512.186 846.929,1511.642 845.263,1510.962 L843.665,1510.282 C841.149,1509.228 839.551,1508.072 839.551,1505.692 C839.551,1502.7 842.101,1501.068 845.127,1501.068 Z M871.035,1501.068 C874.809,1501.068 877.495,1503.346 877.495,1507.8 L877.495,1518 L875.047,1518 L875.047,1515.858 C873.857,1517.456 871.919,1518.374 869.471,1518.374 C866.139,1518.374 863.691,1516.606 863.691,1513.716 C863.691,1510.928 866.037,1509.092 869.641,1509.092 L874.877,1509.092 L874.877,1507.664 C874.877,1504.876 873.313,1503.482 870.865,1503.482 C868.791,1503.482 867.329,1504.468 866.037,1506.134 L864.303,1504.706 C865.867,1502.19 868.383,1501.068 871.035,1501.068 Z M869.811,1516.198 C872.531,1516.198 874.877,1514.226 874.877,1511.642 L874.877,1511.234 L869.947,1511.234 C867.635,1511.234 866.377,1512.016 866.377,1513.58 C866.377,1515.348 867.975,1516.198 869.811,1516.198 Z M890.619,1501.306 C891.163,1501.306 891.503,1501.374 891.843,1501.442 L891.843,1503.754 L890.857,1503.754 C888.171,1503.754 885.655,1505.454 885.655,1508.616 L885.655,1518 L883.037,1518 L883.037,1501.442 L885.485,1501.442 L885.485,1503.822 C886.709,1502.19 888.647,1501.306 890.619,1501.306 Z M909.829,1508.548 C909.829,1509.432 909.693,1510.214 909.625,1510.52 L896.569,1510.52 C896.909,1513.818 899.357,1515.96 902.621,1515.96 C904.695,1515.96 906.327,1515.076 907.687,1513.716 L909.217,1515.484 C907.551,1517.252 905.307,1518.374 902.587,1518.374 C897.589,1518.374 893.815,1514.6 893.815,1509.738 C893.815,1504.91 897.521,1501.068 902.281,1501.068 C906.531,1501.068 909.829,1504.128 909.829,1508.548 Z M902.213,1503.448 C899.425,1503.448 897.215,1505.352 896.671,1508.208 L907.143,1508.208 C907.109,1505.148 904.865,1503.448 902.213,1503.448 Z M932.643,1501.068 C937.369,1501.068 940.837,1504.842 940.837,1509.738 C940.837,1514.6 937.403,1518.374 932.677,1518.374 C930.093,1518.374 927.679,1517.252 926.387,1515.348 L926.387,1518 L923.939,1518 L923.939,1492.5 L926.557,1492.5 L926.557,1503.89 C927.849,1502.156 930.127,1501.068 932.643,1501.068 Z M932.269,1515.96 C935.669,1515.96 938.151,1513.308 938.151,1509.704 C938.151,1506.1 935.635,1503.482 932.269,1503.482 C929.379,1503.482 926.523,1505.386 926.523,1509.738 C926.523,1514.09 929.413,1515.96 932.269,1515.96 Z M951.377,1501.068 C955.151,1501.068 957.837,1503.346 957.837,1507.8 L957.837,1518 L955.389,1518 L955.389,1515.858 C954.199,1517.456 952.261,1518.374 949.813,1518.374 C946.481,1518.374 944.033,1516.606 944.033,1513.716 C944.033,1510.928 946.379,1509.092 949.983,1509.092 L955.219,1509.092 L955.219,1507.664 C955.219,1504.876 953.655,1503.482 951.207,1503.482 C949.133,1503.482 947.671,1504.468 946.379,1506.134 L944.645,1504.706 C946.209,1502.19 948.725,1501.068 951.377,1501.068 Z M950.153,1516.198 C952.873,1516.198 955.219,1514.226 955.219,1511.642 L955.219,1511.234 L950.289,1511.234 C947.977,1511.234 946.719,1512.016 946.719,1513.58 C946.719,1515.348 948.317,1516.198 950.153,1516.198 Z M968.377,1501.068 C970.757,1501.068 972.627,1502.088 973.919,1503.686 L972.321,1505.318 C971.233,1504.196 969.805,1503.482 968.241,1503.482 C966.677,1503.482 965.487,1504.196 965.487,1505.556 C965.487,1506.678 966.337,1507.222 968.173,1507.97 L969.703,1508.616 C972.695,1509.874 974.089,1511.166 974.089,1513.512 C974.089,1516.742 971.335,1518.374 968.275,1518.374 C965.351,1518.374 963.141,1516.912 961.815,1515.144 L963.481,1513.41 C964.841,1514.838 966.235,1515.96 968.241,1515.96 C969.975,1515.96 971.403,1515.11 971.403,1513.614 C971.403,1512.186 970.179,1511.642 968.513,1510.962 L966.915,1510.282 C964.399,1509.228 962.801,1508.072 962.801,1505.692 C962.801,1502.7 965.351,1501.068 968.377,1501.068 Z M993.639,1508.548 C993.639,1509.432 993.503,1510.214 993.435,1510.52 L980.379,1510.52 C980.719,1513.818 983.167,1515.96 986.431,1515.96 C988.505,1515.96 990.137,1515.076 991.497,1513.716 L993.027,1515.484 C991.361,1517.252 989.117,1518.374 986.397,1518.374 C981.399,1518.374 977.625,1514.6 977.625,1509.738 C977.625,1504.91 981.331,1501.068 986.091,1501.068 C990.341,1501.068 993.639,1504.128 993.639,1508.548 Z M986.023,1503.448 C983.235,1503.448 981.025,1505.352 980.481,1508.208 L990.953,1508.208 C990.919,1505.148 988.675,1503.448 986.023,1503.448 Z M1011.353,1492.5 L1013.971,1492.5 L1013.971,1518 L1011.489,1518 L1011.489,1515.348 C1010.197,1517.252 1007.851,1518.374 1005.233,1518.374 C1000.507,1518.374 997.039,1514.6 997.039,1509.738 C997.039,1504.842 1000.507,1501.068 1005.233,1501.068 C1007.749,1501.068 1010.027,1502.122 1011.353,1503.89 L1011.353,1492.5 Z M1005.607,1515.96 C1008.463,1515.96 1011.387,1514.09 1011.387,1509.738 C1011.387,1505.386 1008.463,1503.482 1005.607,1503.482 C1002.241,1503.482 999.725,1506.1 999.725,1509.704 C999.725,1513.308 1002.207,1515.96 1005.607,1515.96 Z M1036.717,1501.068 C1041.511,1501.068 1045.387,1504.842 1045.387,1509.704 C1045.387,1514.532 1041.511,1518.34 1036.683,1518.34 C1031.889,1518.306 1028.047,1514.566 1028.047,1509.704 C1028.047,1504.842 1031.855,1501.068 1036.717,1501.068 Z M1036.717,1503.482 C1033.249,1503.482 1030.699,1506.202 1030.733,1509.738 C1030.733,1513.24 1033.249,1515.926 1036.683,1515.926 C1040.117,1515.926 1042.701,1513.206 1042.701,1509.738 C1042.701,1506.168 1040.117,1503.482 1036.717,1503.482 Z M1057.525,1501.068 C1061.435,1501.068 1063.679,1503.754 1063.679,1507.596 L1063.679,1518 L1061.061,1518 L1061.061,1507.902 C1061.061,1505.284 1059.497,1503.482 1056.947,1503.482 C1054.397,1503.482 1052.595,1505.318 1052.595,1507.902 L1052.595,1518 L1049.977,1518 L1049.977,1501.442 L1052.425,1501.442 L1052.425,1503.244 C1053.581,1501.884 1055.383,1501.068 1057.525,1501.068 Z M470.413,1542.306 C470.957,1542.306 471.297,1542.374 471.637,1542.442 L471.637,1544.754 L470.651,1544.754 C467.965,1544.754 465.449,1546.454 465.449,1549.616 L465.449,1559 L462.831,1559 L462.831,1542.442 L465.279,1542.442 L465.279,1544.822 C466.503,1543.19 468.441,1542.306 470.413,1542.306 Z M489.623,1549.548 C489.623,1550.432 489.487,1551.214 489.419,1551.52 L476.363,1551.52 C476.703,1554.818 479.151,1556.96 482.415,1556.96 C484.489,1556.96 486.121,1556.076 487.481,1554.716 L489.011,1556.484 C487.345,1558.252 485.101,1559.374 482.381,1559.374 C477.383,1559.374 473.609,1555.6 473.609,1550.738 C473.609,1545.91 477.315,1542.068 482.075,1542.068 C486.325,1542.068 489.623,1545.128 489.623,1549.548 Z M482.007,1544.448 C479.219,1544.448 477.009,1546.352 476.465,1549.208 L486.937,1549.208 C486.903,1546.148 484.659,1544.448 482.007,1544.448 Z M500.707,1535.506 C498.667,1535.506 497.239,1536.186 497.239,1538.668 L497.239,1542.442 L501.387,1542.442 L501.387,1544.788 L497.239,1544.788 L497.239,1559 L494.621,1559 L494.621,1544.788 L492.241,1544.788 L492.241,1542.442 L494.621,1542.442 L494.621,1538.498 C494.621,1534.724 496.899,1533.126 500.095,1533.126 C500.911,1533.126 501.557,1533.228 502.169,1533.398 L502.169,1535.608 C501.625,1535.54 501.149,1535.506 500.707,1535.506 Z M510.465,1542.068 C514.239,1542.068 516.925,1544.346 516.925,1548.8 L516.925,1559 L514.477,1559 L514.477,1556.858 C513.287,1558.456 511.349,1559.374 508.901,1559.374 C505.569,1559.374 503.121,1557.606 503.121,1554.716 C503.121,1551.928 505.467,1550.092 509.071,1550.092 L514.307,1550.092 L514.307,1548.664 C514.307,1545.876 512.743,1544.482 510.295,1544.482 C508.221,1544.482 506.759,1545.468 505.467,1547.134 L503.733,1545.706 C505.297,1543.19 507.813,1542.068 510.465,1542.068 Z M509.241,1557.198 C511.961,1557.198 514.307,1555.226 514.307,1552.642 L514.307,1552.234 L509.377,1552.234 C507.065,1552.234 505.807,1553.016 505.807,1554.58 C505.807,1556.348 507.405,1557.198 509.241,1557.198 Z M529.947,1542.068 C532.939,1542.068 535.319,1543.496 536.781,1545.672 L534.911,1547.168 C533.687,1545.536 532.123,1544.482 529.981,1544.482 C526.513,1544.482 523.963,1547.236 523.963,1550.704 C523.963,1554.206 526.513,1556.96 529.981,1556.96 C532.089,1556.96 533.653,1555.94 534.877,1554.308 L536.747,1555.77 C535.285,1557.946 532.905,1559.374 529.947,1559.374 C525.119,1559.374 521.277,1555.566 521.277,1550.704 C521.277,1545.876 525.119,1542.068 529.947,1542.068 Z M548.035,1556.994 C548.681,1556.994 549.395,1556.926 550.245,1556.79 L550.245,1559 C549.395,1559.204 548.545,1559.374 547.491,1559.374 C544.227,1559.374 541.915,1557.776 541.915,1554.002 L541.915,1544.788 L539.127,1544.788 L539.127,1542.442 L541.915,1542.442 L541.915,1537.92 L544.533,1537.92 L544.533,1542.442 L549.701,1542.442 L549.701,1544.788 L544.533,1544.788 L544.533,1553.832 C544.533,1556.314 545.961,1556.994 548.035,1556.994 Z M561.295,1542.068 C566.089,1542.068 569.965,1545.842 569.965,1550.704 C569.965,1555.532 566.089,1559.34 561.261,1559.34 C556.467,1559.306 552.625,1555.566 552.625,1550.704 C552.625,1545.842 556.433,1542.068 561.295,1542.068 Z M561.295,1544.482 C557.827,1544.482 555.277,1547.202 555.311,1550.738 C555.311,1554.24 557.827,1556.926 561.261,1556.926 C564.695,1556.926 567.279,1554.206 567.279,1550.738 C567.279,1547.168 564.695,1544.482 561.295,1544.482 Z M582.137,1542.306 C582.681,1542.306 583.021,1542.374 583.361,1542.442 L583.361,1544.754 L582.375,1544.754 C579.689,1544.754 577.173,1546.454 577.173,1549.616 L577.173,1559 L574.555,1559 L574.555,1542.442 L577.003,1542.442 L577.003,1544.822 C578.227,1543.19 580.165,1542.306 582.137,1542.306 Z M588.189,1534.214 C589.243,1534.214 590.127,1535.064 590.127,1536.118 C590.127,1537.206 589.243,1538.022 588.189,1538.022 C587.067,1538.022 586.217,1537.206 586.217,1536.118 C586.217,1535.064 587.067,1534.214 588.189,1534.214 Z M589.481,1542.442 L589.481,1559 L586.863,1559 L586.863,1542.442 L589.481,1542.442 Z M602.775,1542.068 C606.685,1542.068 608.929,1544.754 608.929,1548.596 L608.929,1559 L606.311,1559 L606.311,1548.902 C606.311,1546.284 604.747,1544.482 602.197,1544.482 C599.647,1544.482 597.845,1546.318 597.845,1548.902 L597.845,1559 L595.227,1559 L595.227,1542.442 L597.675,1542.442 L597.675,1544.244 C598.831,1542.884 600.633,1542.068 602.775,1542.068 Z M627.901,1542.442 L630.383,1542.442 L630.383,1557.402 C630.383,1562.502 627.153,1565.494 622.325,1565.494 C618.857,1565.494 616.171,1563.93 614.539,1562.298 L616.069,1560.462 C617.667,1561.856 619.537,1563.08 622.257,1563.08 C625.623,1563.08 627.765,1561.21 627.765,1557.538 L627.765,1556.076 C626.405,1557.81 624.093,1558.83 621.611,1558.83 C616.953,1558.83 613.485,1555.294 613.485,1550.466 C613.485,1545.672 616.953,1542.068 621.611,1542.068 C624.229,1542.068 626.609,1543.224 627.901,1545.128 L627.901,1542.442 Z M622.019,1556.416 C624.909,1556.416 627.799,1554.614 627.799,1550.466 C627.799,1546.318 624.875,1544.55 622.019,1544.55 C618.653,1544.55 616.137,1546.998 616.137,1550.5 C616.137,1554.002 618.653,1556.416 622.019,1556.416 Z M652.483,1556.994 C653.129,1556.994 653.843,1556.926 654.693,1556.79 L654.693,1559 C653.843,1559.204 652.993,1559.374 651.939,1559.374 C648.675,1559.374 646.363,1557.776 646.363,1554.002 L646.363,1544.788 L643.575,1544.788 L643.575,1542.442 L646.363,1542.442 L646.363,1537.92 L648.981,1537.92 L648.981,1542.442 L654.149,1542.442 L654.149,1544.788 L648.981,1544.788 L648.981,1553.832 C648.981,1556.314 650.409,1556.994 652.483,1556.994 Z M666.185,1542.068 C670.061,1542.068 672.305,1544.754 672.305,1548.596 L672.305,1559 L669.687,1559 L669.687,1548.936 C669.687,1546.318 668.123,1544.482 665.573,1544.482 C663.023,1544.482 661.221,1546.352 661.221,1548.936 L661.221,1559 L658.603,1559 L658.603,1533.5 L661.221,1533.5 L661.221,1544.312 C662.309,1542.918 664.043,1542.068 666.185,1542.068 Z M692.671,1549.548 C692.671,1550.432 692.535,1551.214 692.467,1551.52 L679.411,1551.52 C679.751,1554.818 682.199,1556.96 685.463,1556.96 C687.537,1556.96 689.169,1556.076 690.529,1554.716 L692.059,1556.484 C690.393,1558.252 688.149,1559.374 685.429,1559.374 C680.431,1559.374 676.657,1555.6 676.657,1550.738 C676.657,1545.91 680.363,1542.068 685.123,1542.068 C689.373,1542.068 692.671,1545.128 692.671,1549.548 Z M685.055,1544.448 C682.267,1544.448 680.057,1546.352 679.513,1549.208 L689.985,1549.208 C689.951,1546.148 687.707,1544.448 685.055,1544.448 Z M719.905,1533.5 L722.523,1533.5 L722.523,1559 L720.041,1559 L720.041,1556.348 C718.749,1558.252 716.403,1559.374 713.785,1559.374 C709.059,1559.374 705.591,1555.6 705.591,1550.738 C705.591,1545.842 709.059,1542.068 713.785,1542.068 C716.301,1542.068 718.579,1543.122 719.905,1544.89 L719.905,1533.5 Z M714.159,1556.96 C717.015,1556.96 719.939,1555.09 719.939,1550.738 C719.939,1546.386 717.015,1544.482 714.159,1544.482 C710.793,1544.482 708.277,1547.1 708.277,1550.704 C708.277,1554.308 710.759,1556.96 714.159,1556.96 Z M743.093,1549.548 C743.093,1550.432 742.957,1551.214 742.889,1551.52 L729.833,1551.52 C730.173,1554.818 732.621,1556.96 735.885,1556.96 C737.959,1556.96 739.591,1556.076 740.951,1554.716 L742.481,1556.484 C740.815,1558.252 738.571,1559.374 735.851,1559.374 C730.853,1559.374 727.079,1555.6 727.079,1550.738 C727.079,1545.91 730.785,1542.068 735.545,1542.068 C739.795,1542.068 743.093,1545.128 743.093,1549.548 Z M735.477,1544.448 C732.689,1544.448 730.479,1546.352 729.935,1549.208 L740.407,1549.208 C740.373,1546.148 738.129,1544.448 735.477,1544.448 Z M752.681,1542.068 C755.061,1542.068 756.931,1543.088 758.223,1544.686 L756.625,1546.318 C755.537,1545.196 754.109,1544.482 752.545,1544.482 C750.981,1544.482 749.791,1545.196 749.791,1546.556 C749.791,1547.678 750.641,1548.222 752.477,1548.97 L754.007,1549.616 C756.999,1550.874 758.393,1552.166 758.393,1554.512 C758.393,1557.742 755.639,1559.374 752.579,1559.374 C749.655,1559.374 747.445,1557.912 746.119,1556.144 L747.785,1554.41 C749.145,1555.838 750.539,1556.96 752.545,1556.96 C754.279,1556.96 755.707,1556.11 755.707,1554.614 C755.707,1553.186 754.483,1552.642 752.817,1551.962 L751.219,1551.282 C748.703,1550.228 747.105,1549.072 747.105,1546.692 C747.105,1543.7 749.655,1542.068 752.681,1542.068 Z M764.445,1534.214 C765.499,1534.214 766.383,1535.064 766.383,1536.118 C766.383,1537.206 765.499,1538.022 764.445,1538.022 C763.323,1538.022 762.473,1537.206 762.473,1536.118 C762.473,1535.064 763.323,1534.214 764.445,1534.214 Z M765.737,1542.442 L765.737,1559 L763.119,1559 L763.119,1542.442 L765.737,1542.442 Z M784.913,1542.442 L787.395,1542.442 L787.395,1557.402 C787.395,1562.502 784.165,1565.494 779.337,1565.494 C775.869,1565.494 773.183,1563.93 771.551,1562.298 L773.081,1560.462 C774.679,1561.856 776.549,1563.08 779.269,1563.08 C782.635,1563.08 784.777,1561.21 784.777,1557.538 L784.777,1556.076 C783.417,1557.81 781.105,1558.83 778.623,1558.83 C773.965,1558.83 770.497,1555.294 770.497,1550.466 C770.497,1545.672 773.965,1542.068 778.623,1542.068 C781.241,1542.068 783.621,1543.224 784.913,1545.128 L784.913,1542.442 Z M779.031,1556.416 C781.921,1556.416 784.811,1554.614 784.811,1550.466 C784.811,1546.318 781.887,1544.55 779.031,1544.55 C775.665,1544.55 773.149,1546.998 773.149,1550.5 C773.149,1554.002 775.665,1556.416 779.031,1556.416 Z M800.689,1542.068 C804.599,1542.068 806.843,1544.754 806.843,1548.596 L806.843,1559 L804.225,1559 L804.225,1548.902 C804.225,1546.284 802.661,1544.482 800.111,1544.482 C797.561,1544.482 795.759,1546.318 795.759,1548.902 L795.759,1559 L793.141,1559 L793.141,1542.442 L795.589,1542.442 L795.589,1544.244 C796.745,1542.884 798.547,1542.068 800.689,1542.068 Z M829.385,1542.068 C834.179,1542.068 838.055,1545.842 838.055,1550.704 C838.055,1555.532 834.179,1559.34 829.351,1559.34 C824.557,1559.306 820.715,1555.566 820.715,1550.704 C820.715,1545.842 824.523,1542.068 829.385,1542.068 Z M829.385,1544.482 C825.917,1544.482 823.367,1547.202 823.401,1550.738 C823.401,1554.24 825.917,1556.926 829.351,1556.926 C832.785,1556.926 835.369,1554.206 835.369,1550.738 C835.369,1547.168 832.785,1544.482 829.385,1544.482 Z M849.139,1535.506 C847.099,1535.506 845.671,1536.186 845.671,1538.668 L845.671,1542.442 L849.819,1542.442 L849.819,1544.788 L845.671,1544.788 L845.671,1559 L843.053,1559 L843.053,1544.788 L840.673,1544.788 L840.673,1542.442 L843.053,1542.442 L843.053,1538.498 C843.053,1534.724 845.331,1533.126 848.527,1533.126 C849.343,1533.126 849.989,1533.228 850.601,1533.398 L850.601,1535.608 C850.057,1535.54 849.581,1535.506 849.139,1535.506 Z M868.281,1556.994 C868.927,1556.994 869.641,1556.926 870.491,1556.79 L870.491,1559 C869.641,1559.204 868.791,1559.374 867.737,1559.374 C864.473,1559.374 862.161,1557.776 862.161,1554.002 L862.161,1544.788 L859.373,1544.788 L859.373,1542.442 L862.161,1542.442 L862.161,1537.92 L864.779,1537.92 L864.779,1542.442 L869.947,1542.442 L869.947,1544.788 L864.779,1544.788 L864.779,1553.832 C864.779,1556.314 866.207,1556.994 868.281,1556.994 Z M881.983,1542.068 C885.859,1542.068 888.103,1544.754 888.103,1548.596 L888.103,1559 L885.485,1559 L885.485,1548.936 C885.485,1546.318 883.921,1544.482 881.371,1544.482 C878.821,1544.482 877.019,1546.352 877.019,1548.936 L877.019,1559 L874.401,1559 L874.401,1533.5 L877.019,1533.5 L877.019,1544.312 C878.107,1542.918 879.841,1542.068 881.983,1542.068 Z M908.469,1549.548 C908.469,1550.432 908.333,1551.214 908.265,1551.52 L895.209,1551.52 C895.549,1554.818 897.997,1556.96 901.261,1556.96 C903.335,1556.96 904.967,1556.076 906.327,1554.716 L907.857,1556.484 C906.191,1558.252 903.947,1559.374 901.227,1559.374 C896.229,1559.374 892.455,1555.6 892.455,1550.738 C892.455,1545.91 896.161,1542.068 900.921,1542.068 C905.171,1542.068 908.469,1545.128 908.469,1549.548 Z M900.853,1544.448 C898.065,1544.448 895.855,1546.352 895.311,1549.208 L905.783,1549.208 C905.749,1546.148 903.505,1544.448 900.853,1544.448 Z M930.059,1542.068 C933.051,1542.068 935.431,1543.496 936.893,1545.672 L935.023,1547.168 C933.799,1545.536 932.235,1544.482 930.093,1544.482 C926.625,1544.482 924.075,1547.236 924.075,1550.704 C924.075,1554.206 926.625,1556.96 930.093,1556.96 C932.201,1556.96 933.765,1555.94 934.989,1554.308 L936.859,1555.77 C935.397,1557.946 933.017,1559.374 930.059,1559.374 C925.231,1559.374 921.389,1555.566 921.389,1550.704 C921.389,1545.876 925.231,1542.068 930.059,1542.068 Z M948.453,1542.068 C953.247,1542.068 957.123,1545.842 957.123,1550.704 C957.123,1555.532 953.247,1559.34 948.419,1559.34 C943.625,1559.306 939.783,1555.566 939.783,1550.704 C939.783,1545.842 943.591,1542.068 948.453,1542.068 Z M948.453,1544.482 C944.985,1544.482 942.435,1547.202 942.469,1550.738 C942.469,1554.24 944.985,1556.926 948.419,1556.926 C951.853,1556.926 954.437,1554.206 954.437,1550.738 C954.437,1547.168 951.853,1544.482 948.453,1544.482 Z M979.869,1542.068 C983.745,1542.068 985.887,1544.754 985.887,1548.596 L985.887,1559 L983.269,1559 L983.269,1548.936 C983.269,1546.318 981.841,1544.482 979.359,1544.482 C976.843,1544.482 975.109,1546.386 975.109,1548.698 L975.109,1559 L972.491,1559 L972.491,1548.936 C972.491,1546.318 970.995,1544.482 968.547,1544.482 C966.031,1544.482 964.331,1546.318 964.331,1548.936 L964.331,1559 L961.713,1559 L961.713,1542.442 L964.161,1542.442 L964.161,1544.176 C965.317,1542.85 967.017,1542.068 969.091,1542.068 C971.573,1542.068 973.273,1543.19 974.191,1544.924 C975.347,1543.258 977.319,1542.068 979.869,1542.068 Z M1000.133,1542.068 C1004.893,1542.068 1008.327,1545.842 1008.327,1550.704 C1008.327,1555.6 1004.859,1559.374 1000.133,1559.374 C997.685,1559.374 995.373,1558.354 994.047,1556.586 L994.047,1565.12 L991.429,1565.12 L991.429,1542.442 L993.877,1542.442 L993.877,1545.094 C995.169,1543.19 997.515,1542.068 1000.133,1542.068 Z M999.759,1556.96 C1003.125,1556.96 1005.641,1554.342 1005.641,1550.738 C1005.641,1547.134 1003.159,1544.482 999.759,1544.482 C996.903,1544.482 994.013,1546.352 994.013,1550.704 C994.013,1555.056 996.869,1556.96 999.759,1556.96 Z M1020.397,1542.068 C1025.191,1542.068 1029.067,1545.842 1029.067,1550.704 C1029.067,1555.532 1025.191,1559.34 1020.363,1559.34 C1015.569,1559.306 1011.727,1555.566 1011.727,1550.704 C1011.727,1545.842 1015.535,1542.068 1020.397,1542.068 Z M1020.397,1544.482 C1016.929,1544.482 1014.379,1547.202 1014.413,1550.738 C1014.413,1554.24 1016.929,1556.926 1020.363,1556.926 C1023.797,1556.926 1026.381,1554.206 1026.381,1550.738 C1026.381,1547.168 1023.797,1544.482 1020.397,1544.482 Z M1041.205,1542.068 C1045.115,1542.068 1047.359,1544.754 1047.359,1548.596 L1047.359,1559 L1044.741,1559 L1044.741,1548.902 C1044.741,1546.284 1043.177,1544.482 1040.627,1544.482 C1038.077,1544.482 1036.275,1546.318 1036.275,1548.902 L1036.275,1559 L1033.657,1559 L1033.657,1542.442 L1036.105,1542.442 L1036.105,1544.244 C1037.261,1542.884 1039.063,1542.068 1041.205,1542.068 Z M1067.725,1549.548 C1067.725,1550.432 1067.589,1551.214 1067.521,1551.52 L1054.465,1551.52 C1054.805,1554.818 1057.253,1556.96 1060.517,1556.96 C1062.591,1556.96 1064.223,1556.076 1065.583,1554.716 L1067.113,1556.484 C1065.447,1558.252 1063.203,1559.374 1060.483,1559.374 C1055.485,1559.374 1051.711,1555.6 1051.711,1550.738 C1051.711,1545.91 1055.417,1542.068 1060.177,1542.068 C1064.427,1542.068 1067.725,1545.128 1067.725,1549.548 Z M1060.109,1544.448 C1057.321,1544.448 1055.111,1546.352 1054.567,1549.208 L1065.039,1549.208 C1065.005,1546.148 1062.761,1544.448 1060.109,1544.448 Z M1079.863,1542.068 C1083.773,1542.068 1086.017,1544.754 1086.017,1548.596 L1086.017,1559 L1083.399,1559 L1083.399,1548.902 C1083.399,1546.284 1081.835,1544.482 1079.285,1544.482 C1076.735,1544.482 1074.933,1546.318 1074.933,1548.902 L1074.933,1559 L1072.315,1559 L1072.315,1542.442 L1074.763,1542.442 L1074.763,1544.244 C1075.919,1542.884 1077.721,1542.068 1079.863,1542.068 Z M1098.393,1556.994 C1099.039,1556.994 1099.753,1556.926 1100.603,1556.79 L1100.603,1559 C1099.753,1559.204 1098.903,1559.374 1097.849,1559.374 C1094.585,1559.374 1092.273,1557.776 1092.273,1554.002 L1092.273,1544.788 L1089.485,1544.788 L1089.485,1542.442 L1092.273,1542.442 L1092.273,1537.92 L1094.891,1537.92 L1094.891,1542.442 L1100.059,1542.442 L1100.059,1544.788 L1094.891,1544.788 L1094.891,1553.832 C1094.891,1556.314 1096.319,1556.994 1098.393,1556.994 Z M1109.511,1542.068 C1111.891,1542.068 1113.761,1543.088 1115.053,1544.686 L1113.455,1546.318 C1112.367,1545.196 1110.939,1544.482 1109.375,1544.482 C1107.811,1544.482 1106.621,1545.196 1106.621,1546.556 C1106.621,1547.678 1107.471,1548.222 1109.307,1548.97 L1110.837,1549.616 C1113.829,1550.874 1115.223,1552.166 1115.223,1554.512 C1115.223,1557.742 1112.469,1559.374 1109.409,1559.374 C1106.485,1559.374 1104.275,1557.912 1102.949,1556.144 L1104.615,1554.41 C1105.975,1555.838 1107.369,1556.96 1109.375,1556.96 C1111.109,1556.96 1112.537,1556.11 1112.537,1554.614 C1112.537,1553.186 1111.313,1552.642 1109.647,1551.962 L1108.049,1551.282 C1105.533,1550.228 1103.935,1549.072 1103.935,1546.692 C1103.935,1543.7 1106.485,1542.068 1109.511,1542.068 Z M477.043,1575.214 C478.097,1575.214 478.981,1576.064 478.981,1577.118 C478.981,1578.206 478.097,1579.022 477.043,1579.022 C475.921,1579.022 475.071,1578.206 475.071,1577.118 C475.071,1576.064 475.921,1575.214 477.043,1575.214 Z M478.335,1583.442 L478.335,1600 L475.717,1600 L475.717,1583.442 L478.335,1583.442 Z M491.629,1583.068 C495.539,1583.068 497.783,1585.754 497.783,1589.596 L497.783,1600 L495.165,1600 L495.165,1589.902 C495.165,1587.284 493.601,1585.482 491.051,1585.482 C488.501,1585.482 486.699,1587.318 486.699,1589.902 L486.699,1600 L484.081,1600 L484.081,1583.442 L486.529,1583.442 L486.529,1585.244 C487.685,1583.884 489.487,1583.068 491.629,1583.068 Z M519.679,1597.994 C520.325,1597.994 521.039,1597.926 521.889,1597.79 L521.889,1600 C521.039,1600.204 520.189,1600.374 519.135,1600.374 C515.871,1600.374 513.559,1598.776 513.559,1595.002 L513.559,1585.788 L510.771,1585.788 L510.771,1583.442 L513.559,1583.442 L513.559,1578.92 L516.177,1578.92 L516.177,1583.442 L521.345,1583.442 L521.345,1585.788 L516.177,1585.788 L516.177,1594.832 C516.177,1597.314 517.605,1597.994 519.679,1597.994 Z M533.381,1583.068 C537.257,1583.068 539.501,1585.754 539.501,1589.596 L539.501,1600 L536.883,1600 L536.883,1589.936 C536.883,1587.318 535.319,1585.482 532.769,1585.482 C530.219,1585.482 528.417,1587.352 528.417,1589.936 L528.417,1600 L525.799,1600 L525.799,1574.5 L528.417,1574.5 L528.417,1585.312 C529.505,1583.918 531.239,1583.068 533.381,1583.068 Z M559.867,1590.548 C559.867,1591.432 559.731,1592.214 559.663,1592.52 L546.607,1592.52 C546.947,1595.818 549.395,1597.96 552.659,1597.96 C554.733,1597.96 556.365,1597.076 557.725,1595.716 L559.255,1597.484 C557.589,1599.252 555.345,1600.374 552.625,1600.374 C547.627,1600.374 543.853,1596.6 543.853,1591.738 C543.853,1586.91 547.559,1583.068 552.319,1583.068 C556.569,1583.068 559.867,1586.128 559.867,1590.548 Z M552.251,1585.448 C549.463,1585.448 547.253,1587.352 546.709,1590.208 L557.181,1590.208 C557.147,1587.148 554.903,1585.448 552.251,1585.448 Z M579.927,1583.068 C583.701,1583.068 586.387,1585.346 586.387,1589.8 L586.387,1600 L583.939,1600 L583.939,1597.858 C582.749,1599.456 580.811,1600.374 578.363,1600.374 C575.031,1600.374 572.583,1598.606 572.583,1595.716 C572.583,1592.928 574.929,1591.092 578.533,1591.092 L583.769,1591.092 L583.769,1589.664 C583.769,1586.876 582.205,1585.482 579.757,1585.482 C577.683,1585.482 576.221,1586.468 574.929,1588.134 L573.195,1586.706 C574.759,1584.19 577.275,1583.068 579.927,1583.068 Z M578.703,1598.198 C581.423,1598.198 583.769,1596.226 583.769,1593.642 L583.769,1593.234 L578.839,1593.234 C576.527,1593.234 575.269,1594.016 575.269,1595.58 C575.269,1597.348 576.867,1598.198 578.703,1598.198 Z M600.633,1583.068 C605.393,1583.068 608.827,1586.842 608.827,1591.704 C608.827,1596.6 605.359,1600.374 600.633,1600.374 C598.185,1600.374 595.873,1599.354 594.547,1597.586 L594.547,1606.12 L591.929,1606.12 L591.929,1583.442 L594.377,1583.442 L594.377,1586.094 C595.669,1584.19 598.015,1583.068 600.633,1583.068 Z M600.259,1597.96 C603.625,1597.96 606.141,1595.342 606.141,1591.738 C606.141,1588.134 603.659,1585.482 600.259,1585.482 C597.403,1585.482 594.513,1587.352 594.513,1591.704 C594.513,1596.056 597.369,1597.96 600.259,1597.96 Z M622.121,1583.068 C626.881,1583.068 630.315,1586.842 630.315,1591.704 C630.315,1596.6 626.847,1600.374 622.121,1600.374 C619.673,1600.374 617.361,1599.354 616.035,1597.586 L616.035,1606.12 L613.417,1606.12 L613.417,1583.442 L615.865,1583.442 L615.865,1586.094 C617.157,1584.19 619.503,1583.068 622.121,1583.068 Z M621.747,1597.96 C625.113,1597.96 627.629,1595.342 627.629,1591.738 C627.629,1588.134 625.147,1585.482 621.747,1585.482 C618.891,1585.482 616.001,1587.352 616.001,1591.704 C616.001,1596.056 618.857,1597.96 621.747,1597.96 Z M651.259,1597.994 C651.905,1597.994 652.619,1597.926 653.469,1597.79 L653.469,1600 C652.619,1600.204 651.769,1600.374 650.715,1600.374 C647.451,1600.374 645.139,1598.776 645.139,1595.002 L645.139,1585.788 L642.351,1585.788 L642.351,1583.442 L645.139,1583.442 L645.139,1578.92 L647.757,1578.92 L647.757,1583.442 L652.925,1583.442 L652.925,1585.788 L647.757,1585.788 L647.757,1594.832 C647.757,1597.314 649.185,1597.994 651.259,1597.994 Z M664.519,1583.068 C669.313,1583.068 673.189,1586.842 673.189,1591.704 C673.189,1596.532 669.313,1600.34 664.485,1600.34 C659.691,1600.306 655.849,1596.566 655.849,1591.704 C655.849,1586.842 659.657,1583.068 664.519,1583.068 Z M664.519,1585.482 C661.051,1585.482 658.501,1588.202 658.535,1591.738 C658.535,1595.24 661.051,1597.926 664.485,1597.926 C667.919,1597.926 670.503,1595.206 670.503,1591.738 C670.503,1588.168 667.919,1585.482 664.519,1585.482 Z M693.249,1583.068 C697.023,1583.068 699.709,1585.346 699.709,1589.8 L699.709,1600 L697.261,1600 L697.261,1597.858 C696.071,1599.456 694.133,1600.374 691.685,1600.374 C688.353,1600.374 685.905,1598.606 685.905,1595.716 C685.905,1592.928 688.251,1591.092 691.855,1591.092 L697.091,1591.092 L697.091,1589.664 C697.091,1586.876 695.527,1585.482 693.079,1585.482 C691.005,1585.482 689.543,1586.468 688.251,1588.134 L686.517,1586.706 C688.081,1584.19 690.597,1583.068 693.249,1583.068 Z M692.025,1598.198 C694.745,1598.198 697.091,1596.226 697.091,1593.642 L697.091,1593.234 L692.161,1593.234 C689.849,1593.234 688.591,1594.016 688.591,1595.58 C688.591,1597.348 690.189,1598.198 692.025,1598.198 Z M718.375,1574.5 L720.993,1574.5 L720.993,1600 L718.511,1600 L718.511,1597.348 C717.219,1599.252 714.873,1600.374 712.255,1600.374 C707.529,1600.374 704.061,1596.6 704.061,1591.738 C704.061,1586.842 707.529,1583.068 712.255,1583.068 C714.771,1583.068 717.049,1584.122 718.375,1585.89 L718.375,1574.5 Z M712.629,1597.96 C715.485,1597.96 718.409,1596.09 718.409,1591.738 C718.409,1587.386 715.485,1585.482 712.629,1585.482 C709.263,1585.482 706.747,1588.1 706.747,1591.704 C706.747,1595.308 709.229,1597.96 712.629,1597.96 Z M734.321,1583.068 C738.197,1583.068 740.441,1585.754 740.441,1589.596 L740.441,1600 L737.823,1600 L737.823,1589.936 C737.823,1587.318 736.259,1585.482 733.709,1585.482 C731.159,1585.482 729.357,1587.352 729.357,1589.936 L729.357,1600 L726.739,1600 L726.739,1574.5 L729.357,1574.5 L729.357,1585.312 C730.445,1583.918 732.179,1583.068 734.321,1583.068 Z M760.807,1590.548 C760.807,1591.432 760.671,1592.214 760.603,1592.52 L747.547,1592.52 C747.887,1595.818 750.335,1597.96 753.599,1597.96 C755.673,1597.96 757.305,1597.076 758.665,1595.716 L760.195,1597.484 C758.529,1599.252 756.285,1600.374 753.565,1600.374 C748.567,1600.374 744.793,1596.6 744.793,1591.738 C744.793,1586.91 748.499,1583.068 753.259,1583.068 C757.509,1583.068 760.807,1586.128 760.807,1590.548 Z M753.191,1585.448 C750.403,1585.448 748.193,1587.352 747.649,1590.208 L758.121,1590.208 C758.087,1587.148 755.843,1585.448 753.191,1585.448 Z M772.979,1583.306 C773.523,1583.306 773.863,1583.374 774.203,1583.442 L774.203,1585.754 L773.217,1585.754 C770.531,1585.754 768.015,1587.454 768.015,1590.616 L768.015,1600 L765.397,1600 L765.397,1583.442 L767.845,1583.442 L767.845,1585.822 C769.069,1584.19 771.007,1583.306 772.979,1583.306 Z M792.189,1590.548 C792.189,1591.432 792.053,1592.214 791.985,1592.52 L778.929,1592.52 C779.269,1595.818 781.717,1597.96 784.981,1597.96 C787.055,1597.96 788.687,1597.076 790.047,1595.716 L791.577,1597.484 C789.911,1599.252 787.667,1600.374 784.947,1600.374 C779.949,1600.374 776.175,1596.6 776.175,1591.738 C776.175,1586.91 779.881,1583.068 784.641,1583.068 C788.891,1583.068 792.189,1586.128 792.189,1590.548 Z M784.573,1585.448 C781.785,1585.448 779.575,1587.352 779.031,1590.208 L789.503,1590.208 C789.469,1587.148 787.225,1585.448 784.573,1585.448 Z M813.133,1597.994 C813.779,1597.994 814.493,1597.926 815.343,1597.79 L815.343,1600 C814.493,1600.204 813.643,1600.374 812.589,1600.374 C809.325,1600.374 807.013,1598.776 807.013,1595.002 L807.013,1585.788 L804.225,1585.788 L804.225,1583.442 L807.013,1583.442 L807.013,1578.92 L809.631,1578.92 L809.631,1583.442 L814.799,1583.442 L814.799,1585.788 L809.631,1585.788 L809.631,1594.832 C809.631,1597.314 811.059,1597.994 813.133,1597.994 Z M826.393,1583.068 C831.187,1583.068 835.063,1586.842 835.063,1591.704 C835.063,1596.532 831.187,1600.34 826.359,1600.34 C821.565,1600.306 817.723,1596.566 817.723,1591.704 C817.723,1586.842 821.531,1583.068 826.393,1583.068 Z M826.393,1585.482 C822.925,1585.482 820.375,1588.202 820.409,1591.738 C820.409,1595.24 822.925,1597.926 826.359,1597.926 C829.793,1597.926 832.377,1595.206 832.377,1591.738 C832.377,1588.168 829.793,1585.482 826.393,1585.482 Z M856.007,1597.994 C856.653,1597.994 857.367,1597.926 858.217,1597.79 L858.217,1600 C857.367,1600.204 856.517,1600.374 855.463,1600.374 C852.199,1600.374 849.887,1598.776 849.887,1595.002 L849.887,1585.788 L847.099,1585.788 L847.099,1583.442 L849.887,1583.442 L849.887,1578.92 L852.505,1578.92 L852.505,1583.442 L857.673,1583.442 L857.673,1585.788 L852.505,1585.788 L852.505,1594.832 C852.505,1597.314 853.933,1597.994 856.007,1597.994 Z M869.709,1583.068 C873.585,1583.068 875.829,1585.754 875.829,1589.596 L875.829,1600 L873.211,1600 L873.211,1589.936 C873.211,1587.318 871.647,1585.482 869.097,1585.482 C866.547,1585.482 864.745,1587.352 864.745,1589.936 L864.745,1600 L862.127,1600 L862.127,1574.5 L864.745,1574.5 L864.745,1585.312 C865.833,1583.918 867.567,1583.068 869.709,1583.068 Z M896.195,1590.548 C896.195,1591.432 896.059,1592.214 895.991,1592.52 L882.935,1592.52 C883.275,1595.818 885.723,1597.96 888.987,1597.96 C891.061,1597.96 892.693,1597.076 894.053,1595.716 L895.583,1597.484 C893.917,1599.252 891.673,1600.374 888.953,1600.374 C883.955,1600.374 880.181,1596.6 880.181,1591.738 C880.181,1586.91 883.887,1583.068 888.647,1583.068 C892.897,1583.068 896.195,1586.128 896.195,1590.548 Z M888.579,1585.448 C885.791,1585.448 883.581,1587.352 883.037,1590.208 L893.509,1590.208 C893.475,1587.148 891.231,1585.448 888.579,1585.448 Z M912.923,1574.5 L912.923,1600 L910.305,1600 L910.305,1574.5 L912.923,1574.5 Z M924.619,1583.068 C928.393,1583.068 931.079,1585.346 931.079,1589.8 L931.079,1600 L928.631,1600 L928.631,1597.858 C927.441,1599.456 925.503,1600.374 923.055,1600.374 C919.723,1600.374 917.275,1598.606 917.275,1595.716 C917.275,1592.928 919.621,1591.092 923.225,1591.092 L928.461,1591.092 L928.461,1589.664 C928.461,1586.876 926.897,1585.482 924.449,1585.482 C922.375,1585.482 920.913,1586.468 919.621,1588.134 L917.887,1586.706 C919.451,1584.19 921.967,1583.068 924.619,1583.068 Z M923.395,1598.198 C926.115,1598.198 928.461,1596.226 928.461,1593.642 L928.461,1593.234 L923.531,1593.234 C921.219,1593.234 919.961,1594.016 919.961,1595.58 C919.961,1597.348 921.559,1598.198 923.395,1598.198 Z M943.455,1597.994 C944.101,1597.994 944.815,1597.926 945.665,1597.79 L945.665,1600 C944.815,1600.204 943.965,1600.374 942.911,1600.374 C939.647,1600.374 937.335,1598.776 937.335,1595.002 L937.335,1585.788 L934.547,1585.788 L934.547,1583.442 L937.335,1583.442 L937.335,1578.92 L939.953,1578.92 L939.953,1583.442 L945.121,1583.442 L945.121,1585.788 L939.953,1585.788 L939.953,1594.832 C939.953,1597.314 941.381,1597.994 943.455,1597.994 Z M964.059,1590.548 C964.059,1591.432 963.923,1592.214 963.855,1592.52 L950.799,1592.52 C951.139,1595.818 953.587,1597.96 956.851,1597.96 C958.925,1597.96 960.557,1597.076 961.917,1595.716 L963.447,1597.484 C961.781,1599.252 959.537,1600.374 956.817,1600.374 C951.819,1600.374 948.045,1596.6 948.045,1591.738 C948.045,1586.91 951.751,1583.068 956.511,1583.068 C960.761,1583.068 964.059,1586.128 964.059,1590.548 Z M956.443,1585.448 C953.655,1585.448 951.445,1587.352 950.901,1590.208 L961.373,1590.208 C961.339,1587.148 959.095,1585.448 956.443,1585.448 Z M973.647,1583.068 C976.027,1583.068 977.897,1584.088 979.189,1585.686 L977.591,1587.318 C976.503,1586.196 975.075,1585.482 973.511,1585.482 C971.947,1585.482 970.757,1586.196 970.757,1587.556 C970.757,1588.678 971.607,1589.222 973.443,1589.97 L974.973,1590.616 C977.965,1591.874 979.359,1593.166 979.359,1595.512 C979.359,1598.742 976.605,1600.374 973.545,1600.374 C970.621,1600.374 968.411,1598.912 967.085,1597.144 L968.751,1595.41 C970.111,1596.838 971.505,1597.96 973.511,1597.96 C975.245,1597.96 976.673,1597.11 976.673,1595.614 C976.673,1594.186 975.449,1593.642 973.783,1592.962 L972.185,1592.282 C969.669,1591.228 968.071,1590.072 968.071,1587.692 C968.071,1584.7 970.621,1583.068 973.647,1583.068 Z M990.919,1597.994 C991.565,1597.994 992.279,1597.926 993.129,1597.79 L993.129,1600 C992.279,1600.204 991.429,1600.374 990.375,1600.374 C987.111,1600.374 984.799,1598.776 984.799,1595.002 L984.799,1585.788 L982.011,1585.788 L982.011,1583.442 L984.799,1583.442 L984.799,1578.92 L987.417,1578.92 L987.417,1583.442 L992.585,1583.442 L992.585,1585.788 L987.417,1585.788 L987.417,1594.832 C987.417,1597.314 988.845,1597.994 990.919,1597.994 Z M1013.393,1597.994 C1014.039,1597.994 1014.753,1597.926 1015.603,1597.79 L1015.603,1600 C1014.753,1600.204 1013.903,1600.374 1012.849,1600.374 C1009.585,1600.374 1007.273,1598.776 1007.273,1595.002 L1007.273,1585.788 L1004.485,1585.788 L1004.485,1583.442 L1007.273,1583.442 L1007.273,1578.92 L1009.891,1578.92 L1009.891,1583.442 L1015.059,1583.442 L1015.059,1585.788 L1009.891,1585.788 L1009.891,1594.832 C1009.891,1597.314 1011.319,1597.994 1013.393,1597.994 Z M1027.095,1583.306 C1027.639,1583.306 1027.979,1583.374 1028.319,1583.442 L1028.319,1585.754 L1027.333,1585.754 C1024.647,1585.754 1022.131,1587.454 1022.131,1590.616 L1022.131,1600 L1019.513,1600 L1019.513,1583.442 L1021.961,1583.442 L1021.961,1585.822 C1023.185,1584.19 1025.123,1583.306 1027.095,1583.306 Z M1046.305,1590.548 C1046.305,1591.432 1046.169,1592.214 1046.101,1592.52 L1033.045,1592.52 C1033.385,1595.818 1035.833,1597.96 1039.097,1597.96 C1041.171,1597.96 1042.803,1597.076 1044.163,1595.716 L1045.693,1597.484 C1044.027,1599.252 1041.783,1600.374 1039.063,1600.374 C1034.065,1600.374 1030.291,1596.6 1030.291,1591.738 C1030.291,1586.91 1033.997,1583.068 1038.757,1583.068 C1043.007,1583.068 1046.305,1586.128 1046.305,1590.548 Z M1038.689,1585.448 C1035.901,1585.448 1033.691,1587.352 1033.147,1590.208 L1043.619,1590.208 C1043.585,1587.148 1041.341,1585.448 1038.689,1585.448 Z M1058.443,1583.068 C1062.353,1583.068 1064.597,1585.754 1064.597,1589.596 L1064.597,1600 L1061.979,1600 L1061.979,1589.902 C1061.979,1587.284 1060.415,1585.482 1057.865,1585.482 C1055.315,1585.482 1053.513,1587.318 1053.513,1589.902 L1053.513,1600 L1050.895,1600 L1050.895,1583.442 L1053.343,1583.442 L1053.343,1585.244 C1054.499,1583.884 1056.301,1583.068 1058.443,1583.068 Z M1083.263,1574.5 L1085.881,1574.5 L1085.881,1600 L1083.399,1600 L1083.399,1597.348 C1082.107,1599.252 1079.761,1600.374 1077.143,1600.374 C1072.417,1600.374 1068.949,1596.6 1068.949,1591.738 C1068.949,1586.842 1072.417,1583.068 1077.143,1583.068 C1079.659,1583.068 1081.937,1584.122 1083.263,1585.89 L1083.263,1574.5 Z M1077.517,1597.96 C1080.373,1597.96 1083.297,1596.09 1083.297,1591.738 C1083.297,1587.386 1080.373,1585.482 1077.517,1585.482 C1074.151,1585.482 1071.635,1588.1 1071.635,1591.704 C1071.635,1595.308 1074.117,1597.96 1077.517,1597.96 Z M1096.625,1583.068 C1099.005,1583.068 1100.875,1584.088 1102.167,1585.686 L1100.569,1587.318 C1099.481,1586.196 1098.053,1585.482 1096.489,1585.482 C1094.925,1585.482 1093.735,1586.196 1093.735,1587.556 C1093.735,1588.678 1094.585,1589.222 1096.421,1589.97 L1097.951,1590.616 C1100.943,1591.874 1102.337,1593.166 1102.337,1595.512 C1102.337,1598.742 1099.583,1600.374 1096.523,1600.374 C1093.599,1600.374 1091.389,1598.912 1090.063,1597.144 L1091.729,1595.41 C1093.089,1596.838 1094.483,1597.96 1096.489,1597.96 C1098.223,1597.96 1099.651,1597.11 1099.651,1595.614 C1099.651,1594.186 1098.427,1593.642 1096.761,1592.962 L1095.163,1592.282 C1092.647,1591.228 1091.049,1590.072 1091.049,1587.692 C1091.049,1584.7 1093.599,1583.068 1096.625,1583.068 Z M452.104,1624.068 C455.878,1624.068 458.564,1626.346 458.564,1630.8 L458.564,1641 L456.116,1641 L456.116,1638.858 C454.926,1640.456 452.988,1641.374 450.54,1641.374 C447.208,1641.374 444.76,1639.606 444.76,1636.716 C444.76,1633.928 447.106,1632.092 450.71,1632.092 L455.946,1632.092 L455.946,1630.664 C455.946,1627.876 454.382,1626.482 451.934,1626.482 C449.86,1626.482 448.398,1627.468 447.106,1629.134 L445.372,1627.706 C446.936,1625.19 449.452,1624.068 452.104,1624.068 Z M450.88,1639.198 C453.6,1639.198 455.946,1637.226 455.946,1634.642 L455.946,1634.234 L451.016,1634.234 C448.704,1634.234 447.446,1635.016 447.446,1636.58 C447.446,1638.348 449.044,1639.198 450.88,1639.198 Z M471.654,1624.068 C475.564,1624.068 477.808,1626.754 477.808,1630.596 L477.808,1641 L475.19,1641 L475.19,1630.902 C475.19,1628.284 473.626,1626.482 471.076,1626.482 C468.526,1626.482 466.724,1628.318 466.724,1630.902 L466.724,1641 L464.106,1641 L464.106,1624.442 L466.554,1624.442 L466.554,1626.244 C467.71,1624.884 469.512,1624.068 471.654,1624.068 Z M496.474,1615.5 L499.092,1615.5 L499.092,1641 L496.61,1641 L496.61,1638.348 C495.318,1640.252 492.972,1641.374 490.354,1641.374 C485.628,1641.374 482.16,1637.6 482.16,1632.738 C482.16,1627.842 485.628,1624.068 490.354,1624.068 C492.87,1624.068 495.148,1625.122 496.474,1626.89 L496.474,1615.5 Z M490.728,1638.96 C493.584,1638.96 496.508,1637.09 496.508,1632.738 C496.508,1628.386 493.584,1626.482 490.728,1626.482 C487.362,1626.482 484.846,1629.1 484.846,1632.704 C484.846,1636.308 487.328,1638.96 490.728,1638.96 Z M532.072,1618.56 L532.072,1632.092 C532.072,1638.076 528.264,1641.374 523.198,1641.374 C518.03,1641.374 514.256,1638.076 514.256,1632.092 L514.256,1618.56 L516.908,1618.56 L516.908,1632.262 C516.908,1636.784 519.696,1638.926 523.198,1638.926 C526.666,1638.926 529.42,1636.784 529.42,1632.262 L529.42,1618.56 L532.072,1618.56 Z M554.24,1641 L551.146,1641 L545.094,1631.752 L539.008,1641 L535.914,1641 L543.632,1629.508 L536.458,1618.56 L539.518,1618.56 L545.128,1627.298 L550.636,1618.56 L553.696,1618.56 L546.624,1629.542 L554.24,1641 Z M568.996,1616.214 C570.05,1616.214 570.934,1617.064 570.934,1618.118 C570.934,1619.206 570.05,1620.022 568.996,1620.022 C567.874,1620.022 567.024,1619.206 567.024,1618.118 C567.024,1617.064 567.874,1616.214 568.996,1616.214 Z M570.288,1624.442 L570.288,1641 L567.67,1641 L567.67,1624.442 L570.288,1624.442 Z M583.582,1624.068 C587.492,1624.068 589.736,1626.754 589.736,1630.596 L589.736,1641 L587.118,1641 L587.118,1630.902 C587.118,1628.284 585.554,1626.482 583.004,1626.482 C580.454,1626.482 578.652,1628.318 578.652,1630.902 L578.652,1641 L576.034,1641 L576.034,1624.442 L578.482,1624.442 L578.482,1626.244 C579.638,1624.884 581.44,1624.068 583.582,1624.068 Z M600.276,1624.068 C602.656,1624.068 604.526,1625.088 605.818,1626.686 L604.22,1628.318 C603.132,1627.196 601.704,1626.482 600.14,1626.482 C598.576,1626.482 597.386,1627.196 597.386,1628.556 C597.386,1629.678 598.236,1630.222 600.072,1630.97 L601.602,1631.616 C604.594,1632.874 605.988,1634.166 605.988,1636.512 C605.988,1639.742 603.234,1641.374 600.174,1641.374 C597.25,1641.374 595.04,1639.912 593.714,1638.144 L595.38,1636.41 C596.74,1637.838 598.134,1638.96 600.14,1638.96 C601.874,1638.96 603.302,1638.11 603.302,1636.614 C603.302,1635.186 602.078,1634.642 600.412,1633.962 L598.814,1633.282 C596.298,1632.228 594.7,1631.072 594.7,1628.692 C594.7,1625.7 597.25,1624.068 600.276,1624.068 Z M612.04,1616.214 C613.094,1616.214 613.978,1617.064 613.978,1618.118 C613.978,1619.206 613.094,1620.022 612.04,1620.022 C610.918,1620.022 610.068,1619.206 610.068,1618.118 C610.068,1617.064 610.918,1616.214 612.04,1616.214 Z M613.332,1624.442 L613.332,1641 L610.714,1641 L610.714,1624.442 L613.332,1624.442 Z M632.508,1624.442 L634.99,1624.442 L634.99,1639.402 C634.99,1644.502 631.76,1647.494 626.932,1647.494 C623.464,1647.494 620.778,1645.93 619.146,1644.298 L620.676,1642.462 C622.274,1643.856 624.144,1645.08 626.864,1645.08 C630.23,1645.08 632.372,1643.21 632.372,1639.538 L632.372,1638.076 C631.012,1639.81 628.7,1640.83 626.218,1640.83 C621.56,1640.83 618.092,1637.294 618.092,1632.466 C618.092,1627.672 621.56,1624.068 626.218,1624.068 C628.836,1624.068 631.216,1625.224 632.508,1627.128 L632.508,1624.442 Z M626.626,1638.416 C629.516,1638.416 632.406,1636.614 632.406,1632.466 C632.406,1628.318 629.482,1626.55 626.626,1626.55 C623.26,1626.55 620.744,1628.998 620.744,1632.5 C620.744,1636.002 623.26,1638.416 626.626,1638.416 Z M648.318,1624.068 C652.194,1624.068 654.438,1626.754 654.438,1630.596 L654.438,1641 L651.82,1641 L651.82,1630.936 C651.82,1628.318 650.256,1626.482 647.706,1626.482 C645.156,1626.482 643.354,1628.352 643.354,1630.936 L643.354,1641 L640.736,1641 L640.736,1615.5 L643.354,1615.5 L643.354,1626.312 C644.442,1624.918 646.176,1624.068 648.318,1624.068 Z M666.814,1638.994 C667.46,1638.994 668.174,1638.926 669.024,1638.79 L669.024,1641 C668.174,1641.204 667.324,1641.374 666.27,1641.374 C663.006,1641.374 660.694,1639.776 660.694,1636.002 L660.694,1626.788 L657.906,1626.788 L657.906,1624.442 L660.694,1624.442 L660.694,1619.92 L663.312,1619.92 L663.312,1624.442 L668.48,1624.442 L668.48,1626.788 L663.312,1626.788 L663.312,1635.832 C663.312,1638.314 664.74,1638.994 666.814,1638.994 Z M677.932,1624.068 C680.312,1624.068 682.182,1625.088 683.474,1626.686 L681.876,1628.318 C680.788,1627.196 679.36,1626.482 677.796,1626.482 C676.232,1626.482 675.042,1627.196 675.042,1628.556 C675.042,1629.678 675.892,1630.222 677.728,1630.97 L679.258,1631.616 C682.25,1632.874 683.644,1634.166 683.644,1636.512 C683.644,1639.742 680.89,1641.374 677.83,1641.374 C674.906,1641.374 672.696,1639.912 671.37,1638.144 L673.036,1636.41 C674.396,1637.838 675.79,1638.96 677.796,1638.96 C679.53,1638.96 680.958,1638.11 680.958,1636.614 C680.958,1635.186 679.734,1634.642 678.068,1633.962 L676.47,1633.282 C673.954,1632.228 672.356,1631.072 672.356,1628.692 C672.356,1625.7 674.906,1624.068 677.932,1624.068 Z M690.07,1637.09 C691.226,1637.09 692.212,1637.974 692.212,1639.232 C692.212,1640.49 691.226,1641.374 690.07,1641.374 C688.914,1641.374 687.928,1640.49 687.928,1639.232 C687.928,1637.974 688.914,1637.09 690.07,1637.09 Z M721.588,1618.56 L721.588,1620.94 L713.666,1620.94 L713.666,1641 L711.014,1641 L711.014,1620.94 L703.126,1620.94 L703.126,1618.56 L721.588,1618.56 Z M745.388,1624.442 L748.176,1624.442 L741.206,1641.374 L740.254,1641.374 L734.61,1628.862 L729,1641.374 L728.082,1641.374 L721.044,1624.442 L723.832,1624.442 L728.592,1636.682 L734.134,1624.068 L735.12,1624.068 L740.696,1636.614 L745.388,1624.442 Z M758.784,1624.068 C763.578,1624.068 767.454,1627.842 767.454,1632.704 C767.454,1637.532 763.578,1641.34 758.75,1641.34 C753.956,1641.306 750.114,1637.566 750.114,1632.704 C750.114,1627.842 753.922,1624.068 758.784,1624.068 Z M758.784,1626.482 C755.316,1626.482 752.766,1629.202 752.8,1632.738 C752.8,1636.24 755.316,1638.926 758.75,1638.926 C762.184,1638.926 764.768,1636.206 764.768,1632.738 C764.768,1629.168 762.184,1626.482 758.784,1626.482 Z M796.388,1631.548 C796.388,1632.432 796.252,1633.214 796.184,1633.52 L783.128,1633.52 C783.468,1636.818 785.916,1638.96 789.18,1638.96 C791.254,1638.96 792.886,1638.076 794.246,1636.716 L795.776,1638.484 C794.11,1640.252 791.866,1641.374 789.146,1641.374 C784.148,1641.374 780.374,1637.6 780.374,1632.738 C780.374,1627.91 784.08,1624.068 788.84,1624.068 C793.09,1624.068 796.388,1627.128 796.388,1631.548 Z M788.772,1626.448 C785.984,1626.448 783.774,1628.352 783.23,1631.208 L793.702,1631.208 C793.668,1628.148 791.424,1626.448 788.772,1626.448 Z M813.932,1641 L810.906,1641 L806.18,1634.302 L801.488,1641 L798.428,1641 L804.684,1632.364 L798.938,1624.442 L801.964,1624.442 L806.18,1630.46 L810.43,1624.442 L813.456,1624.442 L807.642,1632.364 L813.932,1641 Z M823.316,1624.068 C827.09,1624.068 829.776,1626.346 829.776,1630.8 L829.776,1641 L827.328,1641 L827.328,1638.858 C826.138,1640.456 824.2,1641.374 821.752,1641.374 C818.42,1641.374 815.972,1639.606 815.972,1636.716 C815.972,1633.928 818.318,1632.092 821.922,1632.092 L827.158,1632.092 L827.158,1630.664 C827.158,1627.876 825.594,1626.482 823.146,1626.482 C821.072,1626.482 819.61,1627.468 818.318,1629.134 L816.584,1627.706 C818.148,1625.19 820.664,1624.068 823.316,1624.068 Z M822.092,1639.198 C824.812,1639.198 827.158,1637.226 827.158,1634.642 L827.158,1634.234 L822.228,1634.234 C819.916,1634.234 818.658,1635.016 818.658,1636.58 C818.658,1638.348 820.256,1639.198 822.092,1639.198 Z M853.474,1624.068 C857.35,1624.068 859.492,1626.754 859.492,1630.596 L859.492,1641 L856.874,1641 L856.874,1630.936 C856.874,1628.318 855.446,1626.482 852.964,1626.482 C850.448,1626.482 848.714,1628.386 848.714,1630.698 L848.714,1641 L846.096,1641 L846.096,1630.936 C846.096,1628.318 844.6,1626.482 842.152,1626.482 C839.636,1626.482 837.936,1628.318 837.936,1630.936 L837.936,1641 L835.318,1641 L835.318,1624.442 L837.766,1624.442 L837.766,1626.176 C838.922,1624.85 840.622,1624.068 842.696,1624.068 C845.178,1624.068 846.878,1625.19 847.796,1626.924 C848.952,1625.258 850.924,1624.068 853.474,1624.068 Z M873.738,1624.068 C878.498,1624.068 881.932,1627.842 881.932,1632.704 C881.932,1637.6 878.464,1641.374 873.738,1641.374 C871.29,1641.374 868.978,1640.354 867.652,1638.586 L867.652,1647.12 L865.034,1647.12 L865.034,1624.442 L867.482,1624.442 L867.482,1627.094 C868.774,1625.19 871.12,1624.068 873.738,1624.068 Z M873.364,1638.96 C876.73,1638.96 879.246,1636.342 879.246,1632.738 C879.246,1629.134 876.764,1626.482 873.364,1626.482 C870.508,1626.482 867.618,1628.352 867.618,1632.704 C867.618,1637.056 870.474,1638.96 873.364,1638.96 Z M889.14,1615.5 L889.14,1641 L886.522,1641 L886.522,1615.5 L889.14,1615.5 Z M909.71,1631.548 C909.71,1632.432 909.574,1633.214 909.506,1633.52 L896.45,1633.52 C896.79,1636.818 899.238,1638.96 902.502,1638.96 C904.576,1638.96 906.208,1638.076 907.568,1636.716 L909.098,1638.484 C907.432,1640.252 905.188,1641.374 902.468,1641.374 C897.47,1641.374 893.696,1637.6 893.696,1632.738 C893.696,1627.91 897.402,1624.068 902.162,1624.068 C906.412,1624.068 909.71,1627.128 909.71,1631.548 Z M902.094,1626.448 C899.306,1626.448 897.096,1628.352 896.552,1631.208 L907.024,1631.208 C906.99,1628.148 904.746,1626.448 902.094,1626.448 Z M919.298,1624.068 C921.678,1624.068 923.548,1625.088 924.84,1626.686 L923.242,1628.318 C922.154,1627.196 920.726,1626.482 919.162,1626.482 C917.598,1626.482 916.408,1627.196 916.408,1628.556 C916.408,1629.678 917.258,1630.222 919.094,1630.97 L920.624,1631.616 C923.616,1632.874 925.01,1634.166 925.01,1636.512 C925.01,1639.742 922.256,1641.374 919.196,1641.374 C916.272,1641.374 914.062,1639.912 912.736,1638.144 L914.402,1636.41 C915.762,1637.838 917.156,1638.96 919.162,1638.96 C920.896,1638.96 922.324,1638.11 922.324,1636.614 C922.324,1635.186 921.1,1634.642 919.434,1633.962 L917.836,1633.282 C915.32,1632.228 913.722,1631.072 913.722,1628.692 C913.722,1625.7 916.272,1624.068 919.298,1624.068 Z M946.736,1624.068 C949.728,1624.068 952.108,1625.496 953.57,1627.672 L951.7,1629.168 C950.476,1627.536 948.912,1626.482 946.77,1626.482 C943.302,1626.482 940.752,1629.236 940.752,1632.704 C940.752,1636.206 943.302,1638.96 946.77,1638.96 C948.878,1638.96 950.442,1637.94 951.666,1636.308 L953.536,1637.77 C952.074,1639.946 949.694,1641.374 946.736,1641.374 C941.908,1641.374 938.066,1637.566 938.066,1632.704 C938.066,1627.876 941.908,1624.068 946.736,1624.068 Z M965.13,1624.068 C969.924,1624.068 973.8,1627.842 973.8,1632.704 C973.8,1637.532 969.924,1641.34 965.096,1641.34 C960.302,1641.306 956.46,1637.566 956.46,1632.704 C956.46,1627.842 960.268,1624.068 965.13,1624.068 Z M965.13,1626.482 C961.662,1626.482 959.112,1629.202 959.146,1632.738 C959.146,1636.24 961.662,1638.926 965.096,1638.926 C968.53,1638.926 971.114,1636.206 971.114,1632.738 C971.114,1629.168 968.53,1626.482 965.13,1626.482 Z M996.546,1624.068 C1000.422,1624.068 1002.564,1626.754 1002.564,1630.596 L1002.564,1641 L999.946,1641 L999.946,1630.936 C999.946,1628.318 998.518,1626.482 996.036,1626.482 C993.52,1626.482 991.786,1628.386 991.786,1630.698 L991.786,1641 L989.168,1641 L989.168,1630.936 C989.168,1628.318 987.672,1626.482 985.224,1626.482 C982.708,1626.482 981.008,1628.318 981.008,1630.936 L981.008,1641 L978.39,1641 L978.39,1624.442 L980.838,1624.442 L980.838,1626.176 C981.994,1624.85 983.694,1624.068 985.768,1624.068 C988.25,1624.068 989.95,1625.19 990.868,1626.924 C992.024,1625.258 993.996,1624.068 996.546,1624.068 Z M1016.81,1624.068 C1021.57,1624.068 1025.004,1627.842 1025.004,1632.704 C1025.004,1637.6 1021.536,1641.374 1016.81,1641.374 C1014.362,1641.374 1012.05,1640.354 1010.724,1638.586 L1010.724,1647.12 L1008.106,1647.12 L1008.106,1624.442 L1010.554,1624.442 L1010.554,1627.094 C1011.846,1625.19 1014.192,1624.068 1016.81,1624.068 Z M1016.436,1638.96 C1019.802,1638.96 1022.318,1636.342 1022.318,1632.738 C1022.318,1629.134 1019.836,1626.482 1016.436,1626.482 C1013.58,1626.482 1010.69,1628.352 1010.69,1632.704 C1010.69,1637.056 1013.546,1638.96 1016.436,1638.96 Z M1037.074,1624.068 C1041.868,1624.068 1045.744,1627.842 1045.744,1632.704 C1045.744,1637.532 1041.868,1641.34 1037.04,1641.34 C1032.246,1641.306 1028.404,1637.566 1028.404,1632.704 C1028.404,1627.842 1032.212,1624.068 1037.074,1624.068 Z M1037.074,1626.482 C1033.606,1626.482 1031.056,1629.202 1031.09,1632.738 C1031.09,1636.24 1033.606,1638.926 1037.04,1638.926 C1040.474,1638.926 1043.058,1636.206 1043.058,1632.738 C1043.058,1629.168 1040.474,1626.482 1037.074,1626.482 Z M1057.882,1624.068 C1061.792,1624.068 1064.036,1626.754 1064.036,1630.596 L1064.036,1641 L1061.418,1641 L1061.418,1630.902 C1061.418,1628.284 1059.854,1626.482 1057.304,1626.482 C1054.754,1626.482 1052.952,1628.318 1052.952,1630.902 L1052.952,1641 L1050.334,1641 L1050.334,1624.442 L1052.782,1624.442 L1052.782,1626.244 C1053.938,1624.884 1055.74,1624.068 1057.882,1624.068 Z M1084.402,1631.548 C1084.402,1632.432 1084.266,1633.214 1084.198,1633.52 L1071.142,1633.52 C1071.482,1636.818 1073.93,1638.96 1077.194,1638.96 C1079.268,1638.96 1080.9,1638.076 1082.26,1636.716 L1083.79,1638.484 C1082.124,1640.252 1079.88,1641.374 1077.16,1641.374 C1072.162,1641.374 1068.388,1637.6 1068.388,1632.738 C1068.388,1627.91 1072.094,1624.068 1076.854,1624.068 C1081.104,1624.068 1084.402,1627.128 1084.402,1631.548 Z M1076.786,1626.448 C1073.998,1626.448 1071.788,1628.352 1071.244,1631.208 L1081.716,1631.208 C1081.682,1628.148 1079.438,1626.448 1076.786,1626.448 Z M1096.54,1624.068 C1100.45,1624.068 1102.694,1626.754 1102.694,1630.596 L1102.694,1641 L1100.076,1641 L1100.076,1630.902 C1100.076,1628.284 1098.512,1626.482 1095.962,1626.482 C1093.412,1626.482 1091.61,1628.318 1091.61,1630.902 L1091.61,1641 L1088.992,1641 L1088.992,1624.442 L1091.44,1624.442 L1091.44,1626.244 C1092.596,1624.884 1094.398,1624.068 1096.54,1624.068 Z M1115.07,1638.994 C1115.716,1638.994 1116.43,1638.926 1117.28,1638.79 L1117.28,1641 C1116.43,1641.204 1115.58,1641.374 1114.526,1641.374 C1111.262,1641.374 1108.95,1639.776 1108.95,1636.002 L1108.95,1626.788 L1106.162,1626.788 L1106.162,1624.442 L1108.95,1624.442 L1108.95,1619.92 L1111.568,1619.92 L1111.568,1624.442 L1116.736,1624.442 L1116.736,1626.788 L1111.568,1626.788 L1111.568,1635.832 C1111.568,1638.314 1112.996,1638.994 1115.07,1638.994 Z M1126.188,1624.068 C1128.568,1624.068 1130.438,1625.088 1131.73,1626.686 L1130.132,1628.318 C1129.044,1627.196 1127.616,1626.482 1126.052,1626.482 C1124.488,1626.482 1123.298,1627.196 1123.298,1628.556 C1123.298,1629.678 1124.148,1630.222 1125.984,1630.97 L1127.514,1631.616 C1130.506,1632.874 1131.9,1634.166 1131.9,1636.512 C1131.9,1639.742 1129.146,1641.374 1126.086,1641.374 C1123.162,1641.374 1120.952,1639.912 1119.626,1638.144 L1121.292,1636.41 C1122.652,1637.838 1124.046,1638.96 1126.052,1638.96 C1127.786,1638.96 1129.214,1638.11 1129.214,1636.614 C1129.214,1635.186 1127.99,1634.642 1126.324,1633.962 L1124.726,1633.282 C1122.21,1632.228 1120.612,1631.072 1120.612,1628.692 C1120.612,1625.7 1123.162,1624.068 1126.188,1624.068 Z M470.923,1659.56 L470.923,1682 L468.271,1682 L468.271,1659.56 L470.923,1659.56 Z M507.711,1665.442 L510.499,1665.442 L503.529,1682.374 L502.577,1682.374 L496.933,1669.862 L491.323,1682.374 L490.405,1682.374 L483.367,1665.442 L486.155,1665.442 L490.915,1677.682 L496.457,1665.068 L497.443,1665.068 L503.019,1677.614 L507.711,1665.442 Z M521.107,1665.068 C525.901,1665.068 529.777,1668.842 529.777,1673.704 C529.777,1678.532 525.901,1682.34 521.073,1682.34 C516.279,1682.306 512.437,1678.566 512.437,1673.704 C512.437,1668.842 516.245,1665.068 521.107,1665.068 Z M521.107,1667.482 C517.639,1667.482 515.089,1670.202 515.123,1673.738 C515.123,1677.24 517.639,1679.926 521.073,1679.926 C524.507,1679.926 527.091,1677.206 527.091,1673.738 C527.091,1670.168 524.507,1667.482 521.107,1667.482 Z M541.949,1665.306 C542.493,1665.306 542.833,1665.374 543.173,1665.442 L543.173,1667.754 L542.187,1667.754 C539.501,1667.754 536.985,1669.454 536.985,1672.616 L536.985,1682 L534.367,1682 L534.367,1665.442 L536.815,1665.442 L536.815,1667.822 C538.039,1666.19 539.977,1665.306 541.949,1665.306 Z M546.675,1682 L546.675,1656.5 L549.293,1656.5 L549.293,1682 L546.675,1682 Z M552.727,1672.718 L560.547,1682 L557.181,1682 L549.565,1672.684 L556.467,1665.442 L559.901,1665.442 L552.727,1672.718 Z M578.023,1672.548 C578.023,1673.432 577.887,1674.214 577.819,1674.52 L564.763,1674.52 C565.103,1677.818 567.551,1679.96 570.815,1679.96 C572.889,1679.96 574.521,1679.076 575.881,1677.716 L577.411,1679.484 C575.745,1681.252 573.501,1682.374 570.781,1682.374 C565.783,1682.374 562.009,1678.6 562.009,1673.738 C562.009,1668.91 565.715,1665.068 570.475,1665.068 C574.725,1665.068 578.023,1668.128 578.023,1672.548 Z M570.407,1667.448 C567.619,1667.448 565.409,1669.352 564.865,1672.208 L575.337,1672.208 C575.303,1669.148 573.059,1667.448 570.407,1667.448 Z M595.737,1656.5 L598.355,1656.5 L598.355,1682 L595.873,1682 L595.873,1679.348 C594.581,1681.252 592.235,1682.374 589.617,1682.374 C584.891,1682.374 581.423,1678.6 581.423,1673.738 C581.423,1668.842 584.891,1665.068 589.617,1665.068 C592.133,1665.068 594.411,1666.122 595.737,1667.89 L595.737,1656.5 Z M589.991,1679.96 C592.847,1679.96 595.771,1678.09 595.771,1673.738 C595.771,1669.386 592.847,1667.482 589.991,1667.482 C586.625,1667.482 584.109,1670.1 584.109,1673.704 C584.109,1677.308 586.591,1679.96 589.991,1679.96 Z M621.101,1665.068 C625.895,1665.068 629.771,1668.842 629.771,1673.704 C629.771,1678.532 625.895,1682.34 621.067,1682.34 C616.273,1682.306 612.431,1678.566 612.431,1673.704 C612.431,1668.842 616.239,1665.068 621.101,1665.068 Z M621.101,1667.482 C617.633,1667.482 615.083,1670.202 615.117,1673.738 C615.117,1677.24 617.633,1679.926 621.067,1679.926 C624.501,1679.926 627.085,1677.206 627.085,1673.738 C627.085,1670.168 624.501,1667.482 621.101,1667.482 Z M641.909,1665.068 C645.819,1665.068 648.063,1667.754 648.063,1671.596 L648.063,1682 L645.445,1682 L645.445,1671.902 C645.445,1669.284 643.881,1667.482 641.331,1667.482 C638.781,1667.482 636.979,1669.318 636.979,1671.902 L636.979,1682 L634.361,1682 L634.361,1665.442 L636.809,1665.442 L636.809,1667.244 C637.965,1665.884 639.767,1665.068 641.909,1665.068 Z M664.451,1657.214 C665.505,1657.214 666.389,1658.064 666.389,1659.118 C666.389,1660.206 665.505,1661.022 664.451,1661.022 C663.329,1661.022 662.479,1660.206 662.479,1659.118 C662.479,1658.064 663.329,1657.214 664.451,1657.214 Z M665.743,1665.442 L665.743,1682 L663.125,1682 L663.125,1665.442 L665.743,1665.442 Z M679.037,1665.068 C682.947,1665.068 685.191,1667.754 685.191,1671.596 L685.191,1682 L682.573,1682 L682.573,1671.902 C682.573,1669.284 681.009,1667.482 678.459,1667.482 C675.909,1667.482 674.107,1669.318 674.107,1671.902 L674.107,1682 L671.489,1682 L671.489,1665.442 L673.937,1665.442 L673.937,1667.244 C675.093,1665.884 676.895,1665.068 679.037,1665.068 Z M698.213,1665.068 C701.205,1665.068 703.585,1666.496 705.047,1668.672 L703.177,1670.168 C701.953,1668.536 700.389,1667.482 698.247,1667.482 C694.779,1667.482 692.229,1670.236 692.229,1673.704 C692.229,1677.206 694.779,1679.96 698.247,1679.96 C700.355,1679.96 701.919,1678.94 703.143,1677.308 L705.013,1678.77 C703.551,1680.946 701.171,1682.374 698.213,1682.374 C693.385,1682.374 689.543,1678.566 689.543,1673.704 C689.543,1668.876 693.385,1665.068 698.213,1665.068 Z M712.085,1656.5 L712.085,1682 L709.467,1682 L709.467,1656.5 L712.085,1656.5 Z M731.329,1665.442 L731.329,1675.404 C731.329,1679.654 728.303,1682.374 724.495,1682.374 C720.619,1682.374 717.627,1679.654 717.627,1675.404 L717.627,1665.442 L720.211,1665.442 L720.211,1675.574 C720.211,1678.294 722.115,1679.96 724.495,1679.96 C726.807,1679.96 728.711,1678.294 728.711,1675.574 L728.711,1665.442 L731.329,1665.442 Z M749.995,1656.5 L752.613,1656.5 L752.613,1682 L750.131,1682 L750.131,1679.348 C748.839,1681.252 746.493,1682.374 743.875,1682.374 C739.149,1682.374 735.681,1678.6 735.681,1673.738 C735.681,1668.842 739.149,1665.068 743.875,1665.068 C746.391,1665.068 748.669,1666.122 749.995,1667.89 L749.995,1656.5 Z M744.249,1679.96 C747.105,1679.96 750.029,1678.09 750.029,1673.738 C750.029,1669.386 747.105,1667.482 744.249,1667.482 C740.883,1667.482 738.367,1670.1 738.367,1673.704 C738.367,1677.308 740.849,1679.96 744.249,1679.96 Z M773.183,1672.548 C773.183,1673.432 773.047,1674.214 772.979,1674.52 L759.923,1674.52 C760.263,1677.818 762.711,1679.96 765.975,1679.96 C768.049,1679.96 769.681,1679.076 771.041,1677.716 L772.571,1679.484 C770.905,1681.252 768.661,1682.374 765.941,1682.374 C760.943,1682.374 757.169,1678.6 757.169,1673.738 C757.169,1668.91 760.875,1665.068 765.635,1665.068 C769.885,1665.068 773.183,1668.128 773.183,1672.548 Z M765.567,1667.448 C762.779,1667.448 760.569,1669.352 760.025,1672.208 L770.497,1672.208 C770.463,1669.148 768.219,1667.448 765.567,1667.448 Z M794.127,1679.994 C794.773,1679.994 795.487,1679.926 796.337,1679.79 L796.337,1682 C795.487,1682.204 794.637,1682.374 793.583,1682.374 C790.319,1682.374 788.007,1680.776 788.007,1677.002 L788.007,1667.788 L785.219,1667.788 L785.219,1665.442 L788.007,1665.442 L788.007,1660.92 L790.625,1660.92 L790.625,1665.442 L795.793,1665.442 L795.793,1667.788 L790.625,1667.788 L790.625,1676.832 C790.625,1679.314 792.053,1679.994 794.127,1679.994 Z M814.731,1672.548 C814.731,1673.432 814.595,1674.214 814.527,1674.52 L801.471,1674.52 C801.811,1677.818 804.259,1679.96 807.523,1679.96 C809.597,1679.96 811.229,1679.076 812.589,1677.716 L814.119,1679.484 C812.453,1681.252 810.209,1682.374 807.489,1682.374 C802.491,1682.374 798.717,1678.6 798.717,1673.738 C798.717,1668.91 802.423,1665.068 807.183,1665.068 C811.433,1665.068 814.731,1668.128 814.731,1672.548 Z M807.115,1667.448 C804.327,1667.448 802.117,1669.352 801.573,1672.208 L812.045,1672.208 C812.011,1669.148 809.767,1667.448 807.115,1667.448 Z M832.275,1682 L829.249,1682 L824.523,1675.302 L819.831,1682 L816.771,1682 L823.027,1673.364 L817.281,1665.442 L820.307,1665.442 L824.523,1671.46 L828.773,1665.442 L831.799,1665.442 L825.985,1673.364 L832.275,1682 Z M842.713,1679.994 C843.359,1679.994 844.073,1679.926 844.923,1679.79 L844.923,1682 C844.073,1682.204 843.223,1682.374 842.169,1682.374 C838.905,1682.374 836.593,1680.776 836.593,1677.002 L836.593,1667.788 L833.805,1667.788 L833.805,1665.442 L836.593,1665.442 L836.593,1660.92 L839.211,1660.92 L839.211,1665.442 L844.379,1665.442 L844.379,1667.788 L839.211,1667.788 L839.211,1676.832 C839.211,1679.314 840.639,1679.994 842.713,1679.994 Z M864.847,1658.506 C862.807,1658.506 861.379,1659.186 861.379,1661.668 L861.379,1665.442 L865.527,1665.442 L865.527,1667.788 L861.379,1667.788 L861.379,1682 L858.761,1682 L858.761,1667.788 L856.381,1667.788 L856.381,1665.442 L858.761,1665.442 L858.761,1661.498 C858.761,1657.724 861.039,1656.126 864.235,1656.126 C865.051,1656.126 865.697,1656.228 866.309,1656.398 L866.309,1658.608 C865.765,1658.54 865.289,1658.506 864.847,1658.506 Z M870.491,1657.214 C871.545,1657.214 872.429,1658.064 872.429,1659.118 C872.429,1660.206 871.545,1661.022 870.491,1661.022 C869.369,1661.022 868.519,1660.206 868.519,1659.118 C868.519,1658.064 869.369,1657.214 870.491,1657.214 Z M871.783,1665.442 L871.783,1682 L869.165,1682 L869.165,1665.442 L871.783,1665.442 Z M892.353,1672.548 C892.353,1673.432 892.217,1674.214 892.149,1674.52 L879.093,1674.52 C879.433,1677.818 881.881,1679.96 885.145,1679.96 C887.219,1679.96 888.851,1679.076 890.211,1677.716 L891.741,1679.484 C890.075,1681.252 887.831,1682.374 885.111,1682.374 C880.113,1682.374 876.339,1678.6 876.339,1673.738 C876.339,1668.91 880.045,1665.068 884.805,1665.068 C889.055,1665.068 892.353,1668.128 892.353,1672.548 Z M884.737,1667.448 C881.949,1667.448 879.739,1669.352 879.195,1672.208 L889.667,1672.208 C889.633,1669.148 887.389,1667.448 884.737,1667.448 Z M899.561,1656.5 L899.561,1682 L896.943,1682 L896.943,1656.5 L899.561,1656.5 Z M918.431,1656.5 L921.049,1656.5 L921.049,1682 L918.567,1682 L918.567,1679.348 C917.275,1681.252 914.929,1682.374 912.311,1682.374 C907.585,1682.374 904.117,1678.6 904.117,1673.738 C904.117,1668.842 907.585,1665.068 912.311,1665.068 C914.827,1665.068 917.105,1666.122 918.431,1667.89 L918.431,1656.5 Z M912.685,1679.96 C915.541,1679.96 918.465,1678.09 918.465,1673.738 C918.465,1669.386 915.541,1667.482 912.685,1667.482 C909.319,1667.482 906.803,1670.1 906.803,1673.704 C906.803,1677.308 909.285,1679.96 912.685,1679.96 Z M931.793,1665.068 C934.173,1665.068 936.043,1666.088 937.335,1667.686 L935.737,1669.318 C934.649,1668.196 933.221,1667.482 931.657,1667.482 C930.093,1667.482 928.903,1668.196 928.903,1669.556 C928.903,1670.678 929.753,1671.222 931.589,1671.97 L933.119,1672.616 C936.111,1673.874 937.505,1675.166 937.505,1677.512 C937.505,1680.742 934.751,1682.374 931.691,1682.374 C928.767,1682.374 926.557,1680.912 925.231,1679.144 L926.897,1677.41 C928.257,1678.838 929.651,1679.96 931.657,1679.96 C933.391,1679.96 934.819,1679.11 934.819,1677.614 C934.819,1676.186 933.595,1675.642 931.929,1674.962 L930.331,1674.282 C927.815,1673.228 926.217,1672.072 926.217,1669.692 C926.217,1666.7 928.767,1665.068 931.793,1665.068 Z M957.701,1665.068 C961.475,1665.068 964.161,1667.346 964.161,1671.8 L964.161,1682 L961.713,1682 L961.713,1679.858 C960.523,1681.456 958.585,1682.374 956.137,1682.374 C952.805,1682.374 950.357,1680.606 950.357,1677.716 C950.357,1674.928 952.703,1673.092 956.307,1673.092 L961.543,1673.092 L961.543,1671.664 C961.543,1668.876 959.979,1667.482 957.531,1667.482 C955.457,1667.482 953.995,1668.468 952.703,1670.134 L950.969,1668.706 C952.533,1666.19 955.049,1665.068 957.701,1665.068 Z M956.477,1680.198 C959.197,1680.198 961.543,1678.226 961.543,1675.642 L961.543,1675.234 L956.613,1675.234 C954.301,1675.234 953.043,1676.016 953.043,1677.58 C953.043,1679.348 954.641,1680.198 956.477,1680.198 Z M977.251,1665.068 C981.161,1665.068 983.405,1667.754 983.405,1671.596 L983.405,1682 L980.787,1682 L980.787,1671.902 C980.787,1669.284 979.223,1667.482 976.673,1667.482 C974.123,1667.482 972.321,1669.318 972.321,1671.902 L972.321,1682 L969.703,1682 L969.703,1665.442 L972.151,1665.442 L972.151,1667.244 C973.307,1665.884 975.109,1665.068 977.251,1665.068 Z M1002.071,1656.5 L1004.689,1656.5 L1004.689,1682 L1002.207,1682 L1002.207,1679.348 C1000.915,1681.252 998.569,1682.374 995.951,1682.374 C991.225,1682.374 987.757,1678.6 987.757,1673.738 C987.757,1668.842 991.225,1665.068 995.951,1665.068 C998.467,1665.068 1000.745,1666.122 1002.071,1667.89 L1002.071,1656.5 Z M996.325,1679.96 C999.181,1679.96 1002.105,1678.09 1002.105,1673.738 C1002.105,1669.386 999.181,1667.482 996.325,1667.482 C992.959,1667.482 990.443,1670.1 990.443,1673.704 C990.443,1677.308 992.925,1679.96 996.325,1679.96 Z M1027.435,1665.068 C1030.427,1665.068 1032.807,1666.496 1034.269,1668.672 L1032.399,1670.168 C1031.175,1668.536 1029.611,1667.482 1027.469,1667.482 C1024.001,1667.482 1021.451,1670.236 1021.451,1673.704 C1021.451,1677.206 1024.001,1679.96 1027.469,1679.96 C1029.577,1679.96 1031.141,1678.94 1032.365,1677.308 L1034.235,1678.77 C1032.773,1680.946 1030.393,1682.374 1027.435,1682.374 C1022.607,1682.374 1018.765,1678.566 1018.765,1673.704 C1018.765,1668.876 1022.607,1665.068 1027.435,1665.068 Z M1044.639,1665.068 C1048.413,1665.068 1051.099,1667.346 1051.099,1671.8 L1051.099,1682 L1048.651,1682 L1048.651,1679.858 C1047.461,1681.456 1045.523,1682.374 1043.075,1682.374 C1039.743,1682.374 1037.295,1680.606 1037.295,1677.716 C1037.295,1674.928 1039.641,1673.092 1043.245,1673.092 L1048.481,1673.092 L1048.481,1671.664 C1048.481,1668.876 1046.917,1667.482 1044.469,1667.482 C1042.395,1667.482 1040.933,1668.468 1039.641,1670.134 L1037.907,1668.706 C1039.471,1666.19 1041.987,1665.068 1044.639,1665.068 Z M1043.415,1680.198 C1046.135,1680.198 1048.481,1678.226 1048.481,1675.642 L1048.481,1675.234 L1043.551,1675.234 C1041.239,1675.234 1039.981,1676.016 1039.981,1677.58 C1039.981,1679.348 1041.579,1680.198 1043.415,1680.198 Z M1064.223,1665.306 C1064.767,1665.306 1065.107,1665.374 1065.447,1665.442 L1065.447,1667.754 L1064.461,1667.754 C1061.775,1667.754 1059.259,1669.454 1059.259,1672.616 L1059.259,1682 L1056.641,1682 L1056.641,1665.442 L1059.089,1665.442 L1059.089,1667.822 C1060.313,1666.19 1062.251,1665.306 1064.223,1665.306 Z M1081.733,1656.5 L1084.351,1656.5 L1084.351,1682 L1081.869,1682 L1081.869,1679.348 C1080.577,1681.252 1078.231,1682.374 1075.613,1682.374 C1070.887,1682.374 1067.419,1678.6 1067.419,1673.738 C1067.419,1668.842 1070.887,1665.068 1075.613,1665.068 C1078.129,1665.068 1080.407,1666.122 1081.733,1667.89 L1081.733,1656.5 Z M1075.987,1679.96 C1078.843,1679.96 1081.767,1678.09 1081.767,1673.738 C1081.767,1669.386 1078.843,1667.482 1075.987,1667.482 C1072.621,1667.482 1070.105,1670.1 1070.105,1673.704 C1070.105,1677.308 1072.587,1679.96 1075.987,1679.96 Z M1095.095,1665.068 C1097.475,1665.068 1099.345,1666.088 1100.637,1667.686 L1099.039,1669.318 C1097.951,1668.196 1096.523,1667.482 1094.959,1667.482 C1093.395,1667.482 1092.205,1668.196 1092.205,1669.556 C1092.205,1670.678 1093.055,1671.222 1094.891,1671.97 L1096.421,1672.616 C1099.413,1673.874 1100.807,1675.166 1100.807,1677.512 C1100.807,1680.742 1098.053,1682.374 1094.993,1682.374 C1092.069,1682.374 1089.859,1680.912 1088.533,1679.144 L1090.199,1677.41 C1091.559,1678.838 1092.953,1679.96 1094.959,1679.96 C1096.693,1679.96 1098.121,1679.11 1098.121,1677.614 C1098.121,1676.186 1096.897,1675.642 1095.231,1674.962 L1093.633,1674.282 C1091.117,1673.228 1089.519,1672.072 1089.519,1669.692 C1089.519,1666.7 1092.069,1665.068 1095.095,1665.068 Z M1107.233,1678.09 C1108.389,1678.09 1109.375,1678.974 1109.375,1680.232 C1109.375,1681.49 1108.389,1682.374 1107.233,1682.374 C1106.077,1682.374 1105.091,1681.49 1105.091,1680.232 C1105.091,1678.974 1106.077,1678.09 1107.233,1678.09 Z" id="TheframeworktopicsarebasedonrefactoringthedesignofthecomponentsintheapptoadheretothelatesttrendsandUXinsights.TwoexamplescomponentsIworkedonincludetextfieldsandcards."></path>
        </g>
    </g>
</svg>