<?xml version="1.0" encoding="UTF-8"?>
<svg width="767px" height="185px" viewBox="0 0 767 185" version="1.1" xmlns="http://www.w3.org/2000/svg" xmlns:xlink="http://www.w3.org/1999/xlink">
    <!-- Generator: Sketch 53.2 (72643) - https://sketchapp.com -->
    <title>bmw5</title>
    <desc>Created with Sketch.</desc>
    <g id="Page-1" stroke="none" stroke-width="1" fill="none" fill-rule="evenodd">
        <g id="Desktop-HD-Copy-35" transform="translate(-337.000000, -1349.000000)" fill="#404648" fill-rule="nonzero">
            <path d="M361.291667,1375 L359.353667,1370.444 L348.405667,1370.444 L346.467667,1375 L343.679667,1375 L353.403667,1352.186 L354.389667,1352.186 L364.113667,1375 L361.291667,1375 Z M358.367667,1368.064 L353.879667,1357.048 L349.391667,1368.064 L358.367667,1368.064 Z M373.014347,1358.068 C375.394347,1358.068 377.264347,1359.088 378.556347,1360.686 L376.958347,1362.318 C375.870347,1361.196 374.442347,1360.482 372.878347,1360.482 C371.314347,1360.482 370.124347,1361.196 370.124347,1362.556 C370.124347,1363.678 370.974347,1364.222 372.810347,1364.97 L374.340347,1365.616 C377.332347,1366.874 378.726347,1368.166 378.726347,1370.512 C378.726347,1373.742 375.972347,1375.374 372.912347,1375.374 C369.988347,1375.374 367.778347,1373.912 366.452347,1372.144 L368.118347,1370.41 C369.478347,1371.838 370.872347,1372.96 372.878347,1372.96 C374.612347,1372.96 376.040347,1372.11 376.040347,1370.614 C376.040347,1369.186 374.816347,1368.642 373.150347,1367.962 L371.552347,1367.282 C369.036347,1366.228 367.438347,1365.072 367.438347,1362.692 C367.438347,1359.7 369.988347,1358.068 373.014347,1358.068 Z M384.737028,1350.214 C385.791028,1350.214 386.675028,1351.064 386.675028,1352.118 C386.675028,1353.206 385.791028,1354.022 384.737028,1354.022 C383.615028,1354.022 382.765028,1353.206 382.765028,1352.118 C382.765028,1351.064 383.615028,1350.214 384.737028,1350.214 Z M386.029028,1358.442 L386.029028,1375 L383.411028,1375 L383.411028,1358.442 L386.029028,1358.442 Z M404.857708,1349.5 L407.475708,1349.5 L407.475708,1375 L404.993708,1375 L404.993708,1372.348 C403.701708,1374.252 401.355708,1375.374 398.737708,1375.374 C394.011708,1375.374 390.543708,1371.6 390.543708,1366.738 C390.543708,1361.842 394.011708,1358.068 398.737708,1358.068 C401.253708,1358.068 403.531708,1359.122 404.857708,1360.89 L404.857708,1349.5 Z M399.111708,1372.96 C401.967708,1372.96 404.891708,1371.09 404.891708,1366.738 C404.891708,1362.386 401.967708,1360.482 399.111708,1360.482 C395.745708,1360.482 393.229708,1363.1 393.229708,1366.704 C393.229708,1370.308 395.711708,1372.96 399.111708,1372.96 Z M428.004389,1365.548 C428.004389,1366.432 427.868389,1367.214 427.800389,1367.52 L414.744389,1367.52 C415.084389,1370.818 417.532389,1372.96 420.796389,1372.96 C422.870389,1372.96 424.502389,1372.076 425.862389,1370.716 L427.392389,1372.484 C425.726389,1374.252 423.482389,1375.374 420.762389,1375.374 C415.764389,1375.374 411.990389,1371.6 411.990389,1366.738 C411.990389,1361.91 415.696389,1358.068 420.456389,1358.068 C424.706389,1358.068 428.004389,1361.128 428.004389,1365.548 Z M420.388389,1360.448 C417.600389,1360.448 415.390389,1362.352 414.846389,1365.208 L425.318389,1365.208 C425.284389,1362.148 423.040389,1360.448 420.388389,1360.448 Z M448.52575,1351.506 C446.48575,1351.506 445.05775,1352.186 445.05775,1354.668 L445.05775,1358.442 L449.20575,1358.442 L449.20575,1360.788 L445.05775,1360.788 L445.05775,1375 L442.43975,1375 L442.43975,1360.788 L440.05975,1360.788 L440.05975,1358.442 L442.43975,1358.442 L442.43975,1354.498 C442.43975,1350.724 444.71775,1349.126 447.91375,1349.126 C448.72975,1349.126 449.37575,1349.228 449.98775,1349.398 L449.98775,1351.608 C449.44375,1351.54 448.96775,1351.506 448.52575,1351.506 Z M459.87443,1358.306 C460.41843,1358.306 460.75843,1358.374 461.09843,1358.442 L461.09843,1360.754 L460.11243,1360.754 C457.42643,1360.754 454.91043,1362.454 454.91043,1365.616 L454.91043,1375 L452.29243,1375 L452.29243,1358.442 L454.74043,1358.442 L454.74043,1360.822 C455.96443,1359.19 457.90243,1358.306 459.87443,1358.306 Z M471.699111,1358.068 C476.493111,1358.068 480.369111,1361.842 480.369111,1366.704 C480.369111,1371.532 476.493111,1375.34 471.665111,1375.34 C466.871111,1375.306 463.029111,1371.566 463.029111,1366.704 C463.029111,1361.842 466.837111,1358.068 471.699111,1358.068 Z M471.699111,1360.482 C468.231111,1360.482 465.681111,1363.202 465.715111,1366.738 C465.715111,1370.24 468.231111,1372.926 471.665111,1372.926 C475.099111,1372.926 477.683111,1370.206 477.683111,1366.738 C477.683111,1363.168 475.099111,1360.482 471.699111,1360.482 Z M503.073792,1358.068 C506.949792,1358.068 509.091792,1360.754 509.091792,1364.596 L509.091792,1375 L506.473792,1375 L506.473792,1364.936 C506.473792,1362.318 505.045792,1360.482 502.563792,1360.482 C500.047792,1360.482 498.313792,1362.386 498.313792,1364.698 L498.313792,1375 L495.695792,1375 L495.695792,1364.936 C495.695792,1362.318 494.199792,1360.482 491.751792,1360.482 C489.235792,1360.482 487.535792,1362.318 487.535792,1364.936 L487.535792,1375 L484.917792,1375 L484.917792,1358.442 L487.365792,1358.442 L487.365792,1360.176 C488.521792,1358.85 490.221792,1358.068 492.295792,1358.068 C494.777792,1358.068 496.477792,1359.19 497.395792,1360.924 C498.551792,1359.258 500.523792,1358.068 503.073792,1358.068 Z M530.565153,1351.506 C528.525153,1351.506 527.097153,1352.186 527.097153,1354.668 L527.097153,1358.442 L531.245153,1358.442 L531.245153,1360.788 L527.097153,1360.788 L527.097153,1375 L524.479153,1375 L524.479153,1360.788 L522.099153,1360.788 L522.099153,1358.442 L524.479153,1358.442 L524.479153,1354.498 C524.479153,1350.724 526.757153,1349.126 529.953153,1349.126 C530.769153,1349.126 531.415153,1349.228 532.027153,1349.398 L532.027153,1351.608 C531.483153,1351.54 531.007153,1351.506 530.565153,1351.506 Z M541.913833,1358.306 C542.457833,1358.306 542.797833,1358.374 543.137833,1358.442 L543.137833,1360.754 L542.151833,1360.754 C539.465833,1360.754 536.949833,1362.454 536.949833,1365.616 L536.949833,1375 L534.331833,1375 L534.331833,1358.442 L536.779833,1358.442 L536.779833,1360.822 C538.003833,1359.19 539.941833,1358.306 541.913833,1358.306 Z M552.208514,1358.068 C555.982514,1358.068 558.668514,1360.346 558.668514,1364.8 L558.668514,1375 L556.220514,1375 L556.220514,1372.858 C555.030514,1374.456 553.092514,1375.374 550.644514,1375.374 C547.312514,1375.374 544.864514,1373.606 544.864514,1370.716 C544.864514,1367.928 547.210514,1366.092 550.814514,1366.092 L556.050514,1366.092 L556.050514,1364.664 C556.050514,1361.876 554.486514,1360.482 552.038514,1360.482 C549.964514,1360.482 548.502514,1361.468 547.210514,1363.134 L545.476514,1361.706 C547.040514,1359.19 549.556514,1358.068 552.208514,1358.068 Z M550.984514,1373.198 C553.704514,1373.198 556.050514,1371.226 556.050514,1368.642 L556.050514,1368.234 L551.120514,1368.234 C548.808514,1368.234 547.550514,1369.016 547.550514,1370.58 C547.550514,1372.348 549.148514,1373.198 550.984514,1373.198 Z M582.325194,1358.068 C586.201194,1358.068 588.343194,1360.754 588.343194,1364.596 L588.343194,1375 L585.725194,1375 L585.725194,1364.936 C585.725194,1362.318 584.297194,1360.482 581.815194,1360.482 C579.299194,1360.482 577.565194,1362.386 577.565194,1364.698 L577.565194,1375 L574.947194,1375 L574.947194,1364.936 C574.947194,1362.318 573.451194,1360.482 571.003194,1360.482 C568.487194,1360.482 566.787194,1362.318 566.787194,1364.936 L566.787194,1375 L564.169194,1375 L564.169194,1358.442 L566.617194,1358.442 L566.617194,1360.176 C567.773194,1358.85 569.473194,1358.068 571.547194,1358.068 C574.029194,1358.068 575.729194,1359.19 576.647194,1360.924 C577.803194,1359.258 579.775194,1358.068 582.325194,1358.068 Z M608.667875,1365.548 C608.667875,1366.432 608.531875,1367.214 608.463875,1367.52 L595.407875,1367.52 C595.747875,1370.818 598.195875,1372.96 601.459875,1372.96 C603.533875,1372.96 605.165875,1372.076 606.525875,1370.716 L608.055875,1372.484 C606.389875,1374.252 604.145875,1375.374 601.425875,1375.374 C596.427875,1375.374 592.653875,1371.6 592.653875,1366.738 C592.653875,1361.91 596.359875,1358.068 601.119875,1358.068 C605.369875,1358.068 608.667875,1361.128 608.667875,1365.548 Z M601.051875,1360.448 C598.263875,1360.448 596.053875,1362.352 595.509875,1365.208 L605.981875,1365.208 C605.947875,1362.148 603.703875,1360.448 601.051875,1360.448 Z M634.874556,1358.442 L637.662556,1358.442 L630.692556,1375.374 L629.740556,1375.374 L624.096556,1362.862 L618.486556,1375.374 L617.568556,1375.374 L610.530556,1358.442 L613.318556,1358.442 L618.078556,1370.682 L623.620556,1358.068 L624.606556,1358.068 L630.182556,1370.614 L634.874556,1358.442 Z M648.229236,1358.068 C653.023236,1358.068 656.899236,1361.842 656.899236,1366.704 C656.899236,1371.532 653.023236,1375.34 648.195236,1375.34 C643.401236,1375.306 639.559236,1371.566 639.559236,1366.704 C639.559236,1361.842 643.367236,1358.068 648.229236,1358.068 Z M648.229236,1360.482 C644.761236,1360.482 642.211236,1363.202 642.245236,1366.738 C642.245236,1370.24 644.761236,1372.926 648.195236,1372.926 C651.629236,1372.926 654.213236,1370.206 654.213236,1366.738 C654.213236,1363.168 651.629236,1360.482 648.229236,1360.482 Z M669.029917,1358.306 C669.573917,1358.306 669.913917,1358.374 670.253917,1358.442 L670.253917,1360.754 L669.267917,1360.754 C666.581917,1360.754 664.065917,1362.454 664.065917,1365.616 L664.065917,1375 L661.447917,1375 L661.447917,1358.442 L663.895917,1358.442 L663.895917,1360.822 C665.119917,1359.19 667.057917,1358.306 669.029917,1358.306 Z M673.714597,1375 L673.714597,1349.5 L676.332597,1349.5 L676.332597,1375 L673.714597,1375 Z M679.766597,1365.718 L687.586597,1375 L684.220597,1375 L676.604597,1365.684 L683.506597,1358.442 L686.940597,1358.442 L679.766597,1365.718 Z M707.189958,1372.994 C707.835958,1372.994 708.549958,1372.926 709.399958,1372.79 L709.399958,1375 C708.549958,1375.204 707.699958,1375.374 706.645958,1375.374 C703.381958,1375.374 701.069958,1373.776 701.069958,1370.002 L701.069958,1360.788 L698.281958,1360.788 L698.281958,1358.442 L701.069958,1358.442 L701.069958,1353.92 L703.687958,1353.92 L703.687958,1358.442 L708.855958,1358.442 L708.855958,1360.788 L703.687958,1360.788 L703.687958,1369.832 C703.687958,1372.314 705.115958,1372.994 707.189958,1372.994 Z M720.408639,1358.068 C725.202639,1358.068 729.078639,1361.842 729.078639,1366.704 C729.078639,1371.532 725.202639,1375.34 720.374639,1375.34 C715.580639,1375.306 711.738639,1371.566 711.738639,1366.704 C711.738639,1361.842 715.546639,1358.068 720.408639,1358.068 Z M720.408639,1360.482 C716.940639,1360.482 714.390639,1363.202 714.424639,1366.738 C714.424639,1370.24 716.940639,1372.926 720.374639,1372.926 C723.808639,1372.926 726.392639,1370.206 726.392639,1366.738 C726.392639,1363.168 723.808639,1360.482 720.408639,1360.482 Z M742.331319,1358.068 C747.091319,1358.068 750.525319,1361.842 750.525319,1366.704 C750.525319,1371.6 747.057319,1375.374 742.331319,1375.374 C739.883319,1375.374 737.571319,1374.354 736.245319,1372.586 L736.245319,1381.12 L733.627319,1381.12 L733.627319,1358.442 L736.075319,1358.442 L736.075319,1361.094 C737.367319,1359.19 739.713319,1358.068 742.331319,1358.068 Z M741.957319,1372.96 C745.323319,1372.96 747.839319,1370.342 747.839319,1366.738 C747.839319,1363.134 745.357319,1360.482 741.957319,1360.482 C739.101319,1360.482 736.211319,1362.352 736.211319,1366.704 C736.211319,1371.056 739.067319,1372.96 741.957319,1372.96 Z M756.4,1350.214 C757.454,1350.214 758.338,1351.064 758.338,1352.118 C758.338,1353.206 757.454,1354.022 756.4,1354.022 C755.278,1354.022 754.428,1353.206 754.428,1352.118 C754.428,1351.064 755.278,1350.214 756.4,1350.214 Z M757.692,1358.442 L757.692,1375 L755.074,1375 L755.074,1358.442 L757.692,1358.442 Z M770.876681,1358.068 C773.868681,1358.068 776.248681,1359.496 777.710681,1361.672 L775.840681,1363.168 C774.616681,1361.536 773.052681,1360.482 770.910681,1360.482 C767.442681,1360.482 764.892681,1363.236 764.892681,1366.704 C764.892681,1370.206 767.442681,1372.96 770.910681,1372.96 C773.018681,1372.96 774.582681,1371.94 775.806681,1370.308 L777.676681,1371.77 C776.214681,1373.946 773.834681,1375.374 770.876681,1375.374 C766.048681,1375.374 762.206681,1371.566 762.206681,1366.704 C762.206681,1361.876 766.048681,1358.068 770.876681,1358.068 Z M787.087361,1358.068 C789.467361,1358.068 791.337361,1359.088 792.629361,1360.686 L791.031361,1362.318 C789.943361,1361.196 788.515361,1360.482 786.951361,1360.482 C785.387361,1360.482 784.197361,1361.196 784.197361,1362.556 C784.197361,1363.678 785.047361,1364.222 786.883361,1364.97 L788.413361,1365.616 C791.405361,1366.874 792.799361,1368.166 792.799361,1370.512 C792.799361,1373.742 790.045361,1375.374 786.985361,1375.374 C784.061361,1375.374 781.851361,1373.912 780.525361,1372.144 L782.191361,1370.41 C783.551361,1371.838 784.945361,1372.96 786.951361,1372.96 C788.685361,1372.96 790.113361,1372.11 790.113361,1370.614 C790.113361,1369.186 788.889361,1368.642 787.223361,1367.962 L785.625361,1367.282 C783.109361,1366.228 781.511361,1365.072 781.511361,1362.692 C781.511361,1359.7 784.061361,1358.068 787.087361,1358.068 Z M801.020042,1371.94 L799.626042,1381.086 L797.484042,1381.086 L797.926042,1371.94 L801.020042,1371.94 Z M818.957403,1352.56 L818.957403,1375 L816.305403,1375 L816.305403,1352.56 L818.957403,1352.56 Z M840.294764,1358.068 C844.068764,1358.068 846.754764,1360.346 846.754764,1364.8 L846.754764,1375 L844.306764,1375 L844.306764,1372.858 C843.116764,1374.456 841.178764,1375.374 838.730764,1375.374 C835.398764,1375.374 832.950764,1373.606 832.950764,1370.716 C832.950764,1367.928 835.296764,1366.092 838.900764,1366.092 L844.136764,1366.092 L844.136764,1364.664 C844.136764,1361.876 842.572764,1360.482 840.124764,1360.482 C838.050764,1360.482 836.588764,1361.468 835.296764,1363.134 L833.562764,1361.706 C835.126764,1359.19 837.642764,1358.068 840.294764,1358.068 Z M839.070764,1373.198 C841.790764,1373.198 844.136764,1371.226 844.136764,1368.642 L844.136764,1368.234 L839.206764,1368.234 C836.894764,1368.234 835.636764,1369.016 835.636764,1370.58 C835.636764,1372.348 837.234764,1373.198 839.070764,1373.198 Z M854.873444,1349.5 L854.873444,1375 L852.255444,1375 L852.255444,1349.5 L854.873444,1349.5 Z M865.576125,1358.068 C867.956125,1358.068 869.826125,1359.088 871.118125,1360.686 L869.520125,1362.318 C868.432125,1361.196 867.004125,1360.482 865.440125,1360.482 C863.876125,1360.482 862.686125,1361.196 862.686125,1362.556 C862.686125,1363.678 863.536125,1364.222 865.372125,1364.97 L866.902125,1365.616 C869.894125,1366.874 871.288125,1368.166 871.288125,1370.512 C871.288125,1373.742 868.534125,1375.374 865.474125,1375.374 C862.550125,1375.374 860.340125,1373.912 859.014125,1372.144 L860.680125,1370.41 C862.040125,1371.838 863.434125,1372.96 865.440125,1372.96 C867.174125,1372.96 868.602125,1372.11 868.602125,1370.614 C868.602125,1369.186 867.378125,1368.642 865.712125,1367.962 L864.114125,1367.282 C861.598125,1366.228 860.000125,1365.072 860.000125,1362.692 C860.000125,1359.7 862.550125,1358.068 865.576125,1358.068 Z M883.452806,1358.068 C888.246806,1358.068 892.122806,1361.842 892.122806,1366.704 C892.122806,1371.532 888.246806,1375.34 883.418806,1375.34 C878.624806,1375.306 874.782806,1371.566 874.782806,1366.704 C874.782806,1361.842 878.590806,1358.068 883.452806,1358.068 Z M883.452806,1360.482 C879.984806,1360.482 877.434806,1363.202 877.468806,1366.738 C877.468806,1370.24 879.984806,1372.926 883.418806,1372.926 C886.852806,1372.926 889.436806,1370.206 889.436806,1366.738 C889.436806,1363.168 886.852806,1360.482 883.452806,1360.482 Z M913.630167,1358.068 C918.424167,1358.068 922.300167,1361.842 922.300167,1366.704 C922.300167,1371.532 918.424167,1375.34 913.596167,1375.34 C908.802167,1375.306 904.960167,1371.566 904.960167,1366.704 C904.960167,1361.842 908.768167,1358.068 913.630167,1358.068 Z M913.630167,1360.482 C910.162167,1360.482 907.612167,1363.202 907.646167,1366.738 C907.646167,1370.24 910.162167,1372.926 913.596167,1372.926 C917.030167,1372.926 919.614167,1370.206 919.614167,1366.738 C919.614167,1363.168 917.030167,1360.482 913.630167,1360.482 Z M934.328847,1358.068 C937.320847,1358.068 939.700847,1359.496 941.162847,1361.672 L939.292847,1363.168 C938.068847,1361.536 936.504847,1360.482 934.362847,1360.482 C930.894847,1360.482 928.344847,1363.236 928.344847,1366.704 C928.344847,1370.206 930.894847,1372.96 934.362847,1372.96 C936.470847,1372.96 938.034847,1371.94 939.258847,1370.308 L941.128847,1371.77 C939.666847,1373.946 937.286847,1375.374 934.328847,1375.374 C929.500847,1375.374 925.658847,1371.566 925.658847,1366.704 C925.658847,1361.876 929.500847,1358.068 934.328847,1358.068 Z M952.681528,1358.068 C955.673528,1358.068 958.053528,1359.496 959.515528,1361.672 L957.645528,1363.168 C956.421528,1361.536 954.857528,1360.482 952.715528,1360.482 C949.247528,1360.482 946.697528,1363.236 946.697528,1366.704 C946.697528,1370.206 949.247528,1372.96 952.715528,1372.96 C954.823528,1372.96 956.387528,1371.94 957.611528,1370.308 L959.481528,1371.77 C958.019528,1373.946 955.639528,1375.374 952.681528,1375.374 C947.853528,1375.374 944.011528,1371.566 944.011528,1366.704 C944.011528,1361.876 947.853528,1358.068 952.681528,1358.068 Z M969.844208,1358.068 C973.618208,1358.068 976.304208,1360.346 976.304208,1364.8 L976.304208,1375 L973.856208,1375 L973.856208,1372.858 C972.666208,1374.456 970.728208,1375.374 968.280208,1375.374 C964.948208,1375.374 962.500208,1373.606 962.500208,1370.716 C962.500208,1367.928 964.846208,1366.092 968.450208,1366.092 L973.686208,1366.092 L973.686208,1364.664 C973.686208,1361.876 972.122208,1360.482 969.674208,1360.482 C967.600208,1360.482 966.138208,1361.468 964.846208,1363.134 L963.112208,1361.706 C964.676208,1359.19 967.192208,1358.068 969.844208,1358.068 Z M968.620208,1373.198 C971.340208,1373.198 973.686208,1371.226 973.686208,1368.642 L973.686208,1368.234 L968.756208,1368.234 C966.444208,1368.234 965.186208,1369.016 965.186208,1370.58 C965.186208,1372.348 966.784208,1373.198 968.620208,1373.198 Z M986.802889,1358.068 C989.182889,1358.068 991.052889,1359.088 992.344889,1360.686 L990.746889,1362.318 C989.658889,1361.196 988.230889,1360.482 986.666889,1360.482 C985.102889,1360.482 983.912889,1361.196 983.912889,1362.556 C983.912889,1363.678 984.762889,1364.222 986.598889,1364.97 L988.128889,1365.616 C991.120889,1366.874 992.514889,1368.166 992.514889,1370.512 C992.514889,1373.742 989.760889,1375.374 986.700889,1375.374 C983.776889,1375.374 981.566889,1373.912 980.240889,1372.144 L981.906889,1370.41 C983.266889,1371.838 984.660889,1372.96 986.666889,1372.96 C988.400889,1372.96 989.828889,1372.11 989.828889,1370.614 C989.828889,1369.186 988.604889,1368.642 986.938889,1367.962 L985.340889,1367.282 C982.824889,1366.228 981.226889,1365.072 981.226889,1362.692 C981.226889,1359.7 983.776889,1358.068 986.802889,1358.068 Z M998.52557,1350.214 C999.57957,1350.214 1000.46357,1351.064 1000.46357,1352.118 C1000.46357,1353.206 999.57957,1354.022 998.52557,1354.022 C997.40357,1354.022 996.55357,1353.206 996.55357,1352.118 C996.55357,1351.064 997.40357,1350.214 998.52557,1350.214 Z M999.81757,1358.442 L999.81757,1375 L997.19957,1375 L997.19957,1358.442 L999.81757,1358.442 Z M1013.00225,1358.068 C1017.79625,1358.068 1021.67225,1361.842 1021.67225,1366.704 C1021.67225,1371.532 1017.79625,1375.34 1012.96825,1375.34 C1008.17425,1375.306 1004.33225,1371.566 1004.33225,1366.704 C1004.33225,1361.842 1008.14025,1358.068 1013.00225,1358.068 Z M1013.00225,1360.482 C1009.53425,1360.482 1006.98425,1363.202 1007.01825,1366.738 C1007.01825,1370.24 1009.53425,1372.926 1012.96825,1372.926 C1016.40225,1372.926 1018.98625,1370.206 1018.98625,1366.738 C1018.98625,1363.168 1016.40225,1360.482 1013.00225,1360.482 Z M1033.76893,1358.068 C1037.67893,1358.068 1039.92293,1360.754 1039.92293,1364.596 L1039.92293,1375 L1037.30493,1375 L1037.30493,1364.902 C1037.30493,1362.284 1035.74093,1360.482 1033.19093,1360.482 C1030.64093,1360.482 1028.83893,1362.318 1028.83893,1364.902 L1028.83893,1375 L1026.22093,1375 L1026.22093,1358.442 L1028.66893,1358.442 L1028.66893,1360.244 C1029.82493,1358.884 1031.62693,1358.068 1033.76893,1358.068 Z M1051.37361,1358.068 C1055.14761,1358.068 1057.83361,1360.346 1057.83361,1364.8 L1057.83361,1375 L1055.38561,1375 L1055.38561,1372.858 C1054.19561,1374.456 1052.25761,1375.374 1049.80961,1375.374 C1046.47761,1375.374 1044.02961,1373.606 1044.02961,1370.716 C1044.02961,1367.928 1046.37561,1366.092 1049.97961,1366.092 L1055.21561,1366.092 L1055.21561,1364.664 C1055.21561,1361.876 1053.65161,1360.482 1051.20361,1360.482 C1049.12961,1360.482 1047.66761,1361.468 1046.37561,1363.134 L1044.64161,1361.706 C1046.20561,1359.19 1048.72161,1358.068 1051.37361,1358.068 Z M1050.14961,1373.198 C1052.86961,1373.198 1055.21561,1371.226 1055.21561,1368.642 L1055.21561,1368.234 L1050.28561,1368.234 C1047.97361,1368.234 1046.71561,1369.016 1046.71561,1370.58 C1046.71561,1372.348 1048.31361,1373.198 1050.14961,1373.198 Z M1065.95229,1349.5 L1065.95229,1375 L1063.33429,1375 L1063.33429,1349.5 L1065.95229,1349.5 Z M1074.27497,1349.5 L1074.27497,1375 L1071.65697,1375 L1071.65697,1349.5 L1074.27497,1349.5 Z M1091.74365,1358.442 L1094.53165,1358.442 L1086.37165,1377.312 C1085.07965,1380.27 1083.27765,1381.494 1080.76165,1381.494 C1079.94565,1381.494 1078.99365,1381.358 1078.21165,1381.154 L1078.21165,1378.944 C1078.99365,1379.046 1079.63965,1379.114 1080.21765,1379.114 C1081.81565,1379.114 1083.03965,1378.57 1083.95765,1376.462 L1084.84165,1374.456 L1077.97365,1358.442 L1080.79565,1358.442 L1086.26965,1371.634 L1091.74365,1358.442 Z M363.311007,1387.5 L363.311007,1413 L360.693007,1413 L360.693007,1387.5 L363.311007,1387.5 Z M376.495687,1396.068 C381.289687,1396.068 385.165687,1399.842 385.165687,1404.704 C385.165687,1409.532 381.289687,1413.34 376.461687,1413.34 C371.667687,1413.306 367.825687,1409.566 367.825687,1404.704 C367.825687,1399.842 371.633687,1396.068 376.495687,1396.068 Z M376.495687,1398.482 C373.027687,1398.482 370.477687,1401.202 370.511687,1404.738 C370.511687,1408.24 373.027687,1410.926 376.461687,1410.926 C379.895687,1410.926 382.479687,1408.206 382.479687,1404.738 C382.479687,1401.168 379.895687,1398.482 376.495687,1398.482 Z M397.194368,1396.068 C401.988368,1396.068 405.864368,1399.842 405.864368,1404.704 C405.864368,1409.532 401.988368,1413.34 397.160368,1413.34 C392.366368,1413.306 388.524368,1409.566 388.524368,1404.704 C388.524368,1399.842 392.332368,1396.068 397.194368,1396.068 Z M397.194368,1398.482 C393.726368,1398.482 391.176368,1401.202 391.210368,1404.738 C391.210368,1408.24 393.726368,1410.926 397.160368,1410.926 C400.594368,1410.926 403.178368,1408.206 403.178368,1404.738 C403.178368,1401.168 400.594368,1398.482 397.194368,1398.482 Z M410.413049,1413 L410.413049,1387.5 L413.031049,1387.5 L413.031049,1413 L410.413049,1413 Z M416.465049,1403.718 L424.285049,1413 L420.919049,1413 L413.303049,1403.684 L420.205049,1396.442 L423.639049,1396.442 L416.465049,1403.718 Z M443.00441,1396.068 C446.77841,1396.068 449.46441,1398.346 449.46441,1402.8 L449.46441,1413 L447.01641,1413 L447.01641,1410.858 C445.82641,1412.456 443.88841,1413.374 441.44041,1413.374 C438.10841,1413.374 435.66041,1411.606 435.66041,1408.716 C435.66041,1405.928 438.00641,1404.092 441.61041,1404.092 L446.84641,1404.092 L446.84641,1402.664 C446.84641,1399.876 445.28241,1398.482 442.83441,1398.482 C440.76041,1398.482 439.29841,1399.468 438.00641,1401.134 L436.27241,1399.706 C437.83641,1397.19 440.35241,1396.068 443.00441,1396.068 Z M441.78041,1411.198 C444.50041,1411.198 446.84641,1409.226 446.84641,1406.642 L446.84641,1406.234 L441.91641,1406.234 C439.60441,1406.234 438.34641,1407.016 438.34641,1408.58 C438.34641,1410.348 439.94441,1411.198 441.78041,1411.198 Z M461.79909,1410.994 C462.44509,1410.994 463.15909,1410.926 464.00909,1410.79 L464.00909,1413 C463.15909,1413.204 462.30909,1413.374 461.25509,1413.374 C457.99109,1413.374 455.67909,1411.776 455.67909,1408.002 L455.67909,1398.788 L452.89109,1398.788 L452.89109,1396.442 L455.67909,1396.442 L455.67909,1391.92 L458.29709,1391.92 L458.29709,1396.442 L463.46509,1396.442 L463.46509,1398.788 L458.29709,1398.788 L458.29709,1407.832 C458.29709,1410.314 459.72509,1410.994 461.79909,1410.994 Z M490.480451,1387.5 L493.098451,1387.5 L493.098451,1413 L490.616451,1413 L490.616451,1410.348 C489.324451,1412.252 486.978451,1413.374 484.360451,1413.374 C479.634451,1413.374 476.166451,1409.6 476.166451,1404.738 C476.166451,1399.842 479.634451,1396.068 484.360451,1396.068 C486.876451,1396.068 489.154451,1397.122 490.480451,1398.89 L490.480451,1387.5 Z M484.734451,1410.96 C487.590451,1410.96 490.514451,1409.09 490.514451,1404.738 C490.514451,1400.386 487.590451,1398.482 484.734451,1398.482 C481.368451,1398.482 478.852451,1401.1 478.852451,1404.704 C478.852451,1408.308 481.334451,1410.96 484.734451,1410.96 Z M500.129132,1388.214 C501.183132,1388.214 502.067132,1389.064 502.067132,1390.118 C502.067132,1391.206 501.183132,1392.022 500.129132,1392.022 C499.007132,1392.022 498.157132,1391.206 498.157132,1390.118 C498.157132,1389.064 499.007132,1388.214 500.129132,1388.214 Z M501.421132,1396.442 L501.421132,1413 L498.803132,1413 L498.803132,1396.442 L501.421132,1396.442 Z M513.619812,1389.506 C511.579812,1389.506 510.151812,1390.186 510.151812,1392.668 L510.151812,1396.442 L514.299812,1396.442 L514.299812,1398.788 L510.151812,1398.788 L510.151812,1413 L507.533812,1413 L507.533812,1398.788 L505.153812,1398.788 L505.153812,1396.442 L507.533812,1396.442 L507.533812,1392.498 C507.533812,1388.724 509.811812,1387.126 513.007812,1387.126 C513.823812,1387.126 514.469812,1387.228 515.081812,1387.398 L515.081812,1389.608 C514.537812,1389.54 514.061812,1389.506 513.619812,1389.506 Z M522.860493,1389.506 C520.820493,1389.506 519.392493,1390.186 519.392493,1392.668 L519.392493,1396.442 L523.540493,1396.442 L523.540493,1398.788 L519.392493,1398.788 L519.392493,1413 L516.774493,1413 L516.774493,1398.788 L514.394493,1398.788 L514.394493,1396.442 L516.774493,1396.442 L516.774493,1392.498 C516.774493,1388.724 519.052493,1387.126 522.248493,1387.126 C523.064493,1387.126 523.710493,1387.228 524.322493,1387.398 L524.322493,1389.608 C523.778493,1389.54 523.302493,1389.506 522.860493,1389.506 Z M541.451174,1403.548 C541.451174,1404.432 541.315174,1405.214 541.247174,1405.52 L528.191174,1405.52 C528.531174,1408.818 530.979174,1410.96 534.243174,1410.96 C536.317174,1410.96 537.949174,1410.076 539.309174,1408.716 L540.839174,1410.484 C539.173174,1412.252 536.929174,1413.374 534.209174,1413.374 C529.211174,1413.374 525.437174,1409.6 525.437174,1404.738 C525.437174,1399.91 529.143174,1396.068 533.903174,1396.068 C538.153174,1396.068 541.451174,1399.128 541.451174,1403.548 Z M533.835174,1398.448 C531.047174,1398.448 528.837174,1400.352 528.293174,1403.208 L538.765174,1403.208 C538.731174,1400.148 536.487174,1398.448 533.835174,1398.448 Z M553.581854,1396.306 C554.125854,1396.306 554.465854,1396.374 554.805854,1396.442 L554.805854,1398.754 L553.819854,1398.754 C551.133854,1398.754 548.617854,1400.454 548.617854,1403.616 L548.617854,1413 L545.999854,1413 L545.999854,1396.442 L548.447854,1396.442 L548.447854,1398.822 C549.671854,1397.19 551.609854,1396.306 553.581854,1396.306 Z M572.750535,1403.548 C572.750535,1404.432 572.614535,1405.214 572.546535,1405.52 L559.490535,1405.52 C559.830535,1408.818 562.278535,1410.96 565.542535,1410.96 C567.616535,1410.96 569.248535,1410.076 570.608535,1408.716 L572.138535,1410.484 C570.472535,1412.252 568.228535,1413.374 565.508535,1413.374 C560.510535,1413.374 556.736535,1409.6 556.736535,1404.738 C556.736535,1399.91 560.442535,1396.068 565.202535,1396.068 C569.452535,1396.068 572.750535,1399.128 572.750535,1403.548 Z M565.134535,1398.448 C562.346535,1398.448 560.136535,1400.352 559.592535,1403.208 L570.064535,1403.208 C570.030535,1400.148 567.786535,1398.448 565.134535,1398.448 Z M584.847215,1396.068 C588.757215,1396.068 591.001215,1398.754 591.001215,1402.596 L591.001215,1413 L588.383215,1413 L588.383215,1402.902 C588.383215,1400.284 586.819215,1398.482 584.269215,1398.482 C581.719215,1398.482 579.917215,1400.318 579.917215,1402.902 L579.917215,1413 L577.299215,1413 L577.299215,1396.442 L579.747215,1396.442 L579.747215,1398.244 C580.903215,1396.884 582.705215,1396.068 584.847215,1396.068 Z M603.335896,1410.994 C603.981896,1410.994 604.695896,1410.926 605.545896,1410.79 L605.545896,1413 C604.695896,1413.204 603.845896,1413.374 602.791896,1413.374 C599.527896,1413.374 597.215896,1411.776 597.215896,1408.002 L597.215896,1398.788 L594.427896,1398.788 L594.427896,1396.442 L597.215896,1396.442 L597.215896,1391.92 L599.833896,1391.92 L599.833896,1396.442 L605.001896,1396.442 L605.001896,1398.788 L599.833896,1398.788 L599.833896,1407.832 C599.833896,1410.314 601.261896,1410.994 603.335896,1410.994 Z M625.387257,1389.506 C623.347257,1389.506 621.919257,1390.186 621.919257,1392.668 L621.919257,1396.442 L626.067257,1396.442 L626.067257,1398.788 L621.919257,1398.788 L621.919257,1413 L619.301257,1413 L619.301257,1398.788 L616.921257,1398.788 L616.921257,1396.442 L619.301257,1396.442 L619.301257,1392.498 C619.301257,1388.724 621.579257,1387.126 624.775257,1387.126 C625.591257,1387.126 626.237257,1387.228 626.849257,1387.398 L626.849257,1389.608 C626.305257,1389.54 625.829257,1389.506 625.387257,1389.506 Z M643.977937,1403.548 C643.977937,1404.432 643.841937,1405.214 643.773937,1405.52 L630.717937,1405.52 C631.057937,1408.818 633.505937,1410.96 636.769937,1410.96 C638.843937,1410.96 640.475937,1410.076 641.835937,1408.716 L643.365937,1410.484 C641.699937,1412.252 639.455937,1413.374 636.735937,1413.374 C631.737937,1413.374 627.963937,1409.6 627.963937,1404.738 C627.963937,1399.91 631.669937,1396.068 636.429937,1396.068 C640.679937,1396.068 643.977937,1399.128 643.977937,1403.548 Z M636.361937,1398.448 C633.573937,1398.448 631.363937,1400.352 630.819937,1403.208 L641.291937,1403.208 C641.257937,1400.148 639.013937,1398.448 636.361937,1398.448 Z M654.476618,1396.068 C658.250618,1396.068 660.936618,1398.346 660.936618,1402.8 L660.936618,1413 L658.488618,1413 L658.488618,1410.858 C657.298618,1412.456 655.360618,1413.374 652.912618,1413.374 C649.580618,1413.374 647.132618,1411.606 647.132618,1408.716 C647.132618,1405.928 649.478618,1404.092 653.082618,1404.092 L658.318618,1404.092 L658.318618,1402.664 C658.318618,1399.876 656.754618,1398.482 654.306618,1398.482 C652.232618,1398.482 650.770618,1399.468 649.478618,1401.134 L647.744618,1399.706 C649.308618,1397.19 651.824618,1396.068 654.476618,1396.068 Z M653.252618,1411.198 C655.972618,1411.198 658.318618,1409.226 658.318618,1406.642 L658.318618,1406.234 L653.388618,1406.234 C651.076618,1406.234 649.818618,1407.016 649.818618,1408.58 C649.818618,1410.348 651.416618,1411.198 653.252618,1411.198 Z M673.271299,1410.994 C673.917299,1410.994 674.631299,1410.926 675.481299,1410.79 L675.481299,1413 C674.631299,1413.204 673.781299,1413.374 672.727299,1413.374 C669.463299,1413.374 667.151299,1411.776 667.151299,1408.002 L667.151299,1398.788 L664.363299,1398.788 L664.363299,1396.442 L667.151299,1396.442 L667.151299,1391.92 L669.769299,1391.92 L669.769299,1396.442 L674.937299,1396.442 L674.937299,1398.788 L669.769299,1398.788 L669.769299,1407.832 C669.769299,1410.314 671.197299,1410.994 673.271299,1410.994 Z M692.847979,1396.442 L692.847979,1406.404 C692.847979,1410.654 689.821979,1413.374 686.013979,1413.374 C682.137979,1413.374 679.145979,1410.654 679.145979,1406.404 L679.145979,1396.442 L681.729979,1396.442 L681.729979,1406.574 C681.729979,1409.294 683.633979,1410.96 686.013979,1410.96 C688.325979,1410.96 690.229979,1409.294 690.229979,1406.574 L690.229979,1396.442 L692.847979,1396.442 Z M705.93066,1396.306 C706.47466,1396.306 706.81466,1396.374 707.15466,1396.442 L707.15466,1398.754 L706.16866,1398.754 C703.48266,1398.754 700.96666,1400.454 700.96666,1403.616 L700.96666,1413 L698.34866,1413 L698.34866,1396.442 L700.79666,1396.442 L700.79666,1398.822 C702.02066,1397.19 703.95866,1396.306 705.93066,1396.306 Z M725.09934,1403.548 C725.09934,1404.432 724.96334,1405.214 724.89534,1405.52 L711.83934,1405.52 C712.17934,1408.818 714.62734,1410.96 717.89134,1410.96 C719.96534,1410.96 721.59734,1410.076 722.95734,1408.716 L724.48734,1410.484 C722.82134,1412.252 720.57734,1413.374 717.85734,1413.374 C712.85934,1413.374 709.08534,1409.6 709.08534,1404.738 C709.08534,1399.91 712.79134,1396.068 717.55134,1396.068 C721.80134,1396.068 725.09934,1399.128 725.09934,1403.548 Z M717.48334,1398.448 C714.69534,1398.448 712.48534,1400.352 711.94134,1403.208 L722.41334,1403.208 C722.37934,1400.148 720.13534,1398.448 717.48334,1398.448 Z M734.646021,1396.068 C737.026021,1396.068 738.896021,1397.088 740.188021,1398.686 L738.590021,1400.318 C737.502021,1399.196 736.074021,1398.482 734.510021,1398.482 C732.946021,1398.482 731.756021,1399.196 731.756021,1400.556 C731.756021,1401.678 732.606021,1402.222 734.442021,1402.97 L735.972021,1403.616 C738.964021,1404.874 740.358021,1406.166 740.358021,1408.512 C740.358021,1411.742 737.604021,1413.374 734.544021,1413.374 C731.620021,1413.374 729.410021,1411.912 728.084021,1410.144 L729.750021,1408.41 C731.110021,1409.838 732.504021,1410.96 734.510021,1410.96 C736.244021,1410.96 737.672021,1410.11 737.672021,1408.614 C737.672021,1407.186 736.448021,1406.642 734.782021,1405.962 L733.184021,1405.282 C730.668021,1404.228 729.070021,1403.072 729.070021,1400.692 C729.070021,1397.7 731.620021,1396.068 734.646021,1396.068 Z M746.742701,1409.09 C747.898701,1409.09 748.884701,1409.974 748.884701,1411.232 C748.884701,1412.49 747.898701,1413.374 746.742701,1413.374 C745.586701,1413.374 744.600701,1412.49 744.600701,1411.232 C744.600701,1409.974 745.586701,1409.09 746.742701,1409.09 Z M778.178063,1390.56 L778.178063,1392.94 L770.256063,1392.94 L770.256063,1413 L767.604063,1413 L767.604063,1392.94 L759.716063,1392.94 L759.716063,1390.56 L778.178063,1390.56 Z M789.254743,1396.068 C793.130743,1396.068 795.374743,1398.754 795.374743,1402.596 L795.374743,1413 L792.756743,1413 L792.756743,1402.936 C792.756743,1400.318 791.192743,1398.482 788.642743,1398.482 C786.092743,1398.482 784.290743,1400.352 784.290743,1402.936 L784.290743,1413 L781.672743,1413 L781.672743,1387.5 L784.290743,1387.5 L784.290743,1398.312 C785.378743,1396.918 787.112743,1396.068 789.254743,1396.068 Z M802.201424,1388.214 C803.255424,1388.214 804.139424,1389.064 804.139424,1390.118 C804.139424,1391.206 803.255424,1392.022 802.201424,1392.022 C801.079424,1392.022 800.229424,1391.206 800.229424,1390.118 C800.229424,1389.064 801.079424,1388.214 802.201424,1388.214 Z M803.493424,1396.442 L803.493424,1413 L800.875424,1413 L800.875424,1396.442 L803.493424,1396.442 Z M814.196104,1396.068 C816.576104,1396.068 818.446104,1397.088 819.738104,1398.686 L818.140104,1400.318 C817.052104,1399.196 815.624104,1398.482 814.060104,1398.482 C812.496104,1398.482 811.306104,1399.196 811.306104,1400.556 C811.306104,1401.678 812.156104,1402.222 813.992104,1402.97 L815.522104,1403.616 C818.514104,1404.874 819.908104,1406.166 819.908104,1408.512 C819.908104,1411.742 817.154104,1413.374 814.094104,1413.374 C811.170104,1413.374 808.960104,1411.912 807.634104,1410.144 L809.300104,1408.41 C810.660104,1409.838 812.054104,1410.96 814.060104,1410.96 C815.794104,1410.96 817.222104,1410.11 817.222104,1408.614 C817.222104,1407.186 815.998104,1406.642 814.332104,1405.962 L812.734104,1405.282 C810.218104,1404.228 808.620104,1403.072 808.620104,1400.692 C808.620104,1397.7 811.170104,1396.068 814.196104,1396.068 Z M848.895465,1403.548 C848.895465,1404.432 848.759465,1405.214 848.691465,1405.52 L835.635465,1405.52 C835.975465,1408.818 838.423465,1410.96 841.687465,1410.96 C843.761465,1410.96 845.393465,1410.076 846.753465,1408.716 L848.283465,1410.484 C846.617465,1412.252 844.373465,1413.374 841.653465,1413.374 C836.655465,1413.374 832.881465,1409.6 832.881465,1404.738 C832.881465,1399.91 836.587465,1396.068 841.347465,1396.068 C845.597465,1396.068 848.895465,1399.128 848.895465,1403.548 Z M841.279465,1398.448 C838.491465,1398.448 836.281465,1400.352 835.737465,1403.208 L846.209465,1403.208 C846.175465,1400.148 843.931465,1398.448 841.279465,1398.448 Z M866.398146,1413 L863.372146,1413 L858.646146,1406.302 L853.954146,1413 L850.894146,1413 L857.150146,1404.364 L851.404146,1396.442 L854.430146,1396.442 L858.646146,1402.46 L862.896146,1396.442 L865.922146,1396.442 L860.108146,1404.364 L866.398146,1413 Z M875.740826,1396.068 C879.514826,1396.068 882.200826,1398.346 882.200826,1402.8 L882.200826,1413 L879.752826,1413 L879.752826,1410.858 C878.562826,1412.456 876.624826,1413.374 874.176826,1413.374 C870.844826,1413.374 868.396826,1411.606 868.396826,1408.716 C868.396826,1405.928 870.742826,1404.092 874.346826,1404.092 L879.582826,1404.092 L879.582826,1402.664 C879.582826,1399.876 878.018826,1398.482 875.570826,1398.482 C873.496826,1398.482 872.034826,1399.468 870.742826,1401.134 L869.008826,1399.706 C870.572826,1397.19 873.088826,1396.068 875.740826,1396.068 Z M874.516826,1411.198 C877.236826,1411.198 879.582826,1409.226 879.582826,1406.642 L879.582826,1406.234 L874.652826,1406.234 C872.340826,1406.234 871.082826,1407.016 871.082826,1408.58 C871.082826,1410.348 872.680826,1411.198 874.516826,1411.198 Z M905.857507,1396.068 C909.733507,1396.068 911.875507,1398.754 911.875507,1402.596 L911.875507,1413 L909.257507,1413 L909.257507,1402.936 C909.257507,1400.318 907.829507,1398.482 905.347507,1398.482 C902.831507,1398.482 901.097507,1400.386 901.097507,1402.698 L901.097507,1413 L898.479507,1413 L898.479507,1402.936 C898.479507,1400.318 896.983507,1398.482 894.535507,1398.482 C892.019507,1398.482 890.319507,1400.318 890.319507,1402.936 L890.319507,1413 L887.701507,1413 L887.701507,1396.442 L890.149507,1396.442 L890.149507,1398.176 C891.305507,1396.85 893.005507,1396.068 895.079507,1396.068 C897.561507,1396.068 899.261507,1397.19 900.179507,1398.924 C901.335507,1397.258 903.307507,1396.068 905.857507,1396.068 Z M926.080188,1396.068 C930.840188,1396.068 934.274188,1399.842 934.274188,1404.704 C934.274188,1409.6 930.806188,1413.374 926.080188,1413.374 C923.632188,1413.374 921.320188,1412.354 919.994188,1410.586 L919.994188,1419.12 L917.376188,1419.12 L917.376188,1396.442 L919.824188,1396.442 L919.824188,1399.094 C921.116188,1397.19 923.462188,1396.068 926.080188,1396.068 Z M925.706188,1410.96 C929.072188,1410.96 931.588188,1408.342 931.588188,1404.738 C931.588188,1401.134 929.106188,1398.482 925.706188,1398.482 C922.850188,1398.482 919.960188,1400.352 919.960188,1404.704 C919.960188,1409.056 922.816188,1410.96 925.706188,1410.96 Z M941.440868,1387.5 L941.440868,1413 L938.822868,1413 L938.822868,1387.5 L941.440868,1387.5 Z M961.969549,1403.548 C961.969549,1404.432 961.833549,1405.214 961.765549,1405.52 L948.709549,1405.52 C949.049549,1408.818 951.497549,1410.96 954.761549,1410.96 C956.835549,1410.96 958.467549,1410.076 959.827549,1408.716 L961.357549,1410.484 C959.691549,1412.252 957.447549,1413.374 954.727549,1413.374 C949.729549,1413.374 945.955549,1409.6 945.955549,1404.738 C945.955549,1399.91 949.661549,1396.068 954.421549,1396.068 C958.671549,1396.068 961.969549,1399.128 961.969549,1403.548 Z M954.353549,1398.448 C951.565549,1398.448 949.355549,1400.352 948.811549,1403.208 L959.283549,1403.208 C959.249549,1400.148 957.005549,1398.448 954.353549,1398.448 Z M997.31491,1396.442 L1000.10291,1396.442 L993.13291,1413.374 L992.18091,1413.374 L986.53691,1400.862 L980.92691,1413.374 L980.00891,1413.374 L972.97091,1396.442 L975.75891,1396.442 L980.51891,1408.682 L986.06091,1396.068 L987.04691,1396.068 L992.62291,1408.614 L997.31491,1396.442 Z M1009.13959,1396.068 C1012.91359,1396.068 1015.59959,1398.346 1015.59959,1402.8 L1015.59959,1413 L1013.15159,1413 L1013.15159,1410.858 C1011.96159,1412.456 1010.02359,1413.374 1007.57559,1413.374 C1004.24359,1413.374 1001.79559,1411.606 1001.79559,1408.716 C1001.79559,1405.928 1004.14159,1404.092 1007.74559,1404.092 L1012.98159,1404.092 L1012.98159,1402.664 C1012.98159,1399.876 1011.41759,1398.482 1008.96959,1398.482 C1006.89559,1398.482 1005.43359,1399.468 1004.14159,1401.134 L1002.40759,1399.706 C1003.97159,1397.19 1006.48759,1396.068 1009.13959,1396.068 Z M1007.91559,1411.198 C1010.63559,1411.198 1012.98159,1409.226 1012.98159,1406.642 L1012.98159,1406.234 L1008.05159,1406.234 C1005.73959,1406.234 1004.48159,1407.016 1004.48159,1408.58 C1004.48159,1410.348 1006.07959,1411.198 1007.91559,1411.198 Z M1026.09827,1396.068 C1028.47827,1396.068 1030.34827,1397.088 1031.64027,1398.686 L1030.04227,1400.318 C1028.95427,1399.196 1027.52627,1398.482 1025.96227,1398.482 C1024.39827,1398.482 1023.20827,1399.196 1023.20827,1400.556 C1023.20827,1401.678 1024.05827,1402.222 1025.89427,1402.97 L1027.42427,1403.616 C1030.41627,1404.874 1031.81027,1406.166 1031.81027,1408.512 C1031.81027,1411.742 1029.05627,1413.374 1025.99627,1413.374 C1023.07227,1413.374 1020.86227,1411.912 1019.53627,1410.144 L1021.20227,1408.41 C1022.56227,1409.838 1023.95627,1410.96 1025.96227,1410.96 C1027.69627,1410.96 1029.12427,1410.11 1029.12427,1408.614 C1029.12427,1407.186 1027.90027,1406.642 1026.23427,1405.962 L1024.63627,1405.282 C1022.12027,1404.228 1020.52227,1403.072 1020.52227,1400.692 C1020.52227,1397.7 1023.07227,1396.068 1026.09827,1396.068 Z M1051.92363,1396.068 C1055.69763,1396.068 1058.38363,1398.346 1058.38363,1402.8 L1058.38363,1413 L1055.93563,1413 L1055.93563,1410.858 C1054.74563,1412.456 1052.80763,1413.374 1050.35963,1413.374 C1047.02763,1413.374 1044.57963,1411.606 1044.57963,1408.716 C1044.57963,1405.928 1046.92563,1404.092 1050.52963,1404.092 L1055.76563,1404.092 L1055.76563,1402.664 C1055.76563,1399.876 1054.20163,1398.482 1051.75363,1398.482 C1049.67963,1398.482 1048.21763,1399.468 1046.92563,1401.134 L1045.19163,1399.706 C1046.75563,1397.19 1049.27163,1396.068 1051.92363,1396.068 Z M1050.69963,1411.198 C1053.41963,1411.198 1055.76563,1409.226 1055.76563,1406.642 L1055.76563,1406.234 L1050.83563,1406.234 C1048.52363,1406.234 1047.26563,1407.016 1047.26563,1408.58 C1047.26563,1410.348 1048.86363,1411.198 1050.69963,1411.198 Z M1071.43231,1396.068 C1075.34231,1396.068 1077.58631,1398.754 1077.58631,1402.596 L1077.58631,1413 L1074.96831,1413 L1074.96831,1402.902 C1074.96831,1400.284 1073.40431,1398.482 1070.85431,1398.482 C1068.30431,1398.482 1066.50231,1400.318 1066.50231,1402.902 L1066.50231,1413 L1063.88431,1413 L1063.88431,1396.442 L1066.33231,1396.442 L1066.33231,1398.244 C1067.48831,1396.884 1069.29031,1396.068 1071.43231,1396.068 Z M353.556667,1441.548 C353.556667,1442.432 353.420667,1443.214 353.352667,1443.52 L340.296667,1443.52 C340.636667,1446.818 343.084667,1448.96 346.348667,1448.96 C348.422667,1448.96 350.054667,1448.076 351.414667,1446.716 L352.944667,1448.484 C351.278667,1450.252 349.034667,1451.374 346.314667,1451.374 C341.316667,1451.374 337.542667,1447.6 337.542667,1442.738 C337.542667,1437.91 341.248667,1434.068 346.008667,1434.068 C350.258667,1434.068 353.556667,1437.128 353.556667,1441.548 Z M345.940667,1436.448 C343.152667,1436.448 340.942667,1438.352 340.398667,1441.208 L350.870667,1441.208 C350.836667,1438.148 348.592667,1436.448 345.940667,1436.448 Z M364.055347,1434.068 C367.829347,1434.068 370.515347,1436.346 370.515347,1440.8 L370.515347,1451 L368.067347,1451 L368.067347,1448.858 C366.877347,1450.456 364.939347,1451.374 362.491347,1451.374 C359.159347,1451.374 356.711347,1449.606 356.711347,1446.716 C356.711347,1443.928 359.057347,1442.092 362.661347,1442.092 L367.897347,1442.092 L367.897347,1440.664 C367.897347,1437.876 366.333347,1436.482 363.885347,1436.482 C361.811347,1436.482 360.349347,1437.468 359.057347,1439.134 L357.323347,1437.706 C358.887347,1435.19 361.403347,1434.068 364.055347,1434.068 Z M362.831347,1449.198 C365.551347,1449.198 367.897347,1447.226 367.897347,1444.642 L367.897347,1444.234 L362.967347,1444.234 C360.655347,1444.234 359.397347,1445.016 359.397347,1446.58 C359.397347,1448.348 360.995347,1449.198 362.831347,1449.198 Z M383.598028,1434.306 C384.142028,1434.306 384.482028,1434.374 384.822028,1434.442 L384.822028,1436.754 L383.836028,1436.754 C381.150028,1436.754 378.634028,1438.454 378.634028,1441.616 L378.634028,1451 L376.016028,1451 L376.016028,1434.442 L378.464028,1434.442 L378.464028,1436.822 C379.688028,1435.19 381.626028,1434.306 383.598028,1434.306 Z M390.900708,1425.5 L390.900708,1451 L388.282708,1451 L388.282708,1425.5 L390.900708,1425.5 Z M408.369389,1434.442 L411.157389,1434.442 L402.997389,1453.312 C401.705389,1456.27 399.903389,1457.494 397.387389,1457.494 C396.571389,1457.494 395.619389,1457.358 394.837389,1457.154 L394.837389,1454.944 C395.619389,1455.046 396.265389,1455.114 396.843389,1455.114 C398.441389,1455.114 399.665389,1454.57 400.583389,1452.462 L401.467389,1450.456 L394.599389,1434.442 L397.421389,1434.442 L402.895389,1447.634 L408.369389,1434.442 Z M439.19275,1441.548 C439.19275,1442.432 439.05675,1443.214 438.98875,1443.52 L425.93275,1443.52 C426.27275,1446.818 428.72075,1448.96 431.98475,1448.96 C434.05875,1448.96 435.69075,1448.076 437.05075,1446.716 L438.58075,1448.484 C436.91475,1450.252 434.67075,1451.374 431.95075,1451.374 C426.95275,1451.374 423.17875,1447.6 423.17875,1442.738 C423.17875,1437.91 426.88475,1434.068 431.64475,1434.068 C435.89475,1434.068 439.19275,1437.128 439.19275,1441.548 Z M431.57675,1436.448 C428.78875,1436.448 426.57875,1438.352 426.03475,1441.208 L436.50675,1441.208 C436.47275,1438.148 434.22875,1436.448 431.57675,1436.448 Z M456.69543,1451 L453.66943,1451 L448.94343,1444.302 L444.25143,1451 L441.19143,1451 L447.44743,1442.364 L441.70143,1434.442 L444.72743,1434.442 L448.94343,1440.46 L453.19343,1434.442 L456.21943,1434.442 L450.40543,1442.364 L456.69543,1451 Z M468.962111,1434.068 C473.722111,1434.068 477.156111,1437.842 477.156111,1442.704 C477.156111,1447.6 473.688111,1451.374 468.962111,1451.374 C466.514111,1451.374 464.202111,1450.354 462.876111,1448.586 L462.876111,1457.12 L460.258111,1457.12 L460.258111,1434.442 L462.706111,1434.442 L462.706111,1437.094 C463.998111,1435.19 466.344111,1434.068 468.962111,1434.068 Z M468.588111,1448.96 C471.954111,1448.96 474.470111,1446.342 474.470111,1442.738 C474.470111,1439.134 471.988111,1436.482 468.588111,1436.482 C465.732111,1436.482 462.842111,1438.352 462.842111,1442.704 C462.842111,1447.056 465.698111,1448.96 468.588111,1448.96 Z M484.322792,1425.5 L484.322792,1451 L481.704792,1451 L481.704792,1425.5 L484.322792,1425.5 Z M497.507472,1434.068 C502.301472,1434.068 506.177472,1437.842 506.177472,1442.704 C506.177472,1447.532 502.301472,1451.34 497.473472,1451.34 C492.679472,1451.306 488.837472,1447.566 488.837472,1442.704 C488.837472,1437.842 492.645472,1434.068 497.507472,1434.068 Z M497.507472,1436.482 C494.039472,1436.482 491.489472,1439.202 491.523472,1442.738 C491.523472,1446.24 494.039472,1448.926 497.473472,1448.926 C500.907472,1448.926 503.491472,1446.206 503.491472,1442.738 C503.491472,1439.168 500.907472,1436.482 497.507472,1436.482 Z M518.308153,1434.306 C518.852153,1434.306 519.192153,1434.374 519.532153,1434.442 L519.532153,1436.754 L518.546153,1436.754 C515.860153,1436.754 513.344153,1438.454 513.344153,1441.616 L513.344153,1451 L510.726153,1451 L510.726153,1434.442 L513.174153,1434.442 L513.174153,1436.822 C514.398153,1435.19 516.336153,1434.306 518.308153,1434.306 Z M528.602833,1434.068 C532.376833,1434.068 535.062833,1436.346 535.062833,1440.8 L535.062833,1451 L532.614833,1451 L532.614833,1448.858 C531.424833,1450.456 529.486833,1451.374 527.038833,1451.374 C523.706833,1451.374 521.258833,1449.606 521.258833,1446.716 C521.258833,1443.928 523.604833,1442.092 527.208833,1442.092 L532.444833,1442.092 L532.444833,1440.664 C532.444833,1437.876 530.880833,1436.482 528.432833,1436.482 C526.358833,1436.482 524.896833,1437.468 523.604833,1439.134 L521.870833,1437.706 C523.434833,1435.19 525.950833,1434.068 528.602833,1434.068 Z M527.378833,1449.198 C530.098833,1449.198 532.444833,1447.226 532.444833,1444.642 L532.444833,1444.234 L527.514833,1444.234 C525.202833,1444.234 523.944833,1445.016 523.944833,1446.58 C523.944833,1448.348 525.542833,1449.198 527.378833,1449.198 Z M547.397514,1448.994 C548.043514,1448.994 548.757514,1448.926 549.607514,1448.79 L549.607514,1451 C548.757514,1451.204 547.907514,1451.374 546.853514,1451.374 C543.589514,1451.374 541.277514,1449.776 541.277514,1446.002 L541.277514,1436.788 L538.489514,1436.788 L538.489514,1434.442 L541.277514,1434.442 L541.277514,1429.92 L543.895514,1429.92 L543.895514,1434.442 L549.063514,1434.442 L549.063514,1436.788 L543.895514,1436.788 L543.895514,1445.832 C543.895514,1448.314 545.323514,1448.994 547.397514,1448.994 Z M554.802194,1426.214 C555.856194,1426.214 556.740194,1427.064 556.740194,1428.118 C556.740194,1429.206 555.856194,1430.022 554.802194,1430.022 C553.680194,1430.022 552.830194,1429.206 552.830194,1428.118 C552.830194,1427.064 553.680194,1426.214 554.802194,1426.214 Z M556.094194,1434.442 L556.094194,1451 L553.476194,1451 L553.476194,1434.442 L556.094194,1434.442 Z M569.278875,1434.068 C574.072875,1434.068 577.948875,1437.842 577.948875,1442.704 C577.948875,1447.532 574.072875,1451.34 569.244875,1451.34 C564.450875,1451.306 560.608875,1447.566 560.608875,1442.704 C560.608875,1437.842 564.416875,1434.068 569.278875,1434.068 Z M569.278875,1436.482 C565.810875,1436.482 563.260875,1439.202 563.294875,1442.738 C563.294875,1446.24 565.810875,1448.926 569.244875,1448.926 C572.678875,1448.926 575.262875,1446.206 575.262875,1442.738 C575.262875,1439.168 572.678875,1436.482 569.278875,1436.482 Z M590.045556,1434.068 C593.955556,1434.068 596.199556,1436.754 596.199556,1440.596 L596.199556,1451 L593.581556,1451 L593.581556,1440.902 C593.581556,1438.284 592.017556,1436.482 589.467556,1436.482 C586.917556,1436.482 585.115556,1438.318 585.115556,1440.902 L585.115556,1451 L582.497556,1451 L582.497556,1434.442 L584.945556,1434.442 L584.945556,1436.244 C586.101556,1434.884 587.903556,1434.068 590.045556,1434.068 Z M618.658917,1434.068 C623.452917,1434.068 627.328917,1437.842 627.328917,1442.704 C627.328917,1447.532 623.452917,1451.34 618.624917,1451.34 C613.830917,1451.306 609.988917,1447.566 609.988917,1442.704 C609.988917,1437.842 613.796917,1434.068 618.658917,1434.068 Z M618.658917,1436.482 C615.190917,1436.482 612.640917,1439.202 612.674917,1442.738 C612.674917,1446.24 615.190917,1448.926 618.624917,1448.926 C622.058917,1448.926 624.642917,1446.206 624.642917,1442.738 C624.642917,1439.168 622.058917,1436.482 618.658917,1436.482 Z M639.425597,1434.068 C643.335597,1434.068 645.579597,1436.754 645.579597,1440.596 L645.579597,1451 L642.961597,1451 L642.961597,1440.902 C642.961597,1438.284 641.397597,1436.482 638.847597,1436.482 C636.297597,1436.482 634.495597,1438.318 634.495597,1440.902 L634.495597,1451 L631.877597,1451 L631.877597,1434.442 L634.325597,1434.442 L634.325597,1436.244 C635.481597,1434.884 637.283597,1434.068 639.425597,1434.068 Z M668.140958,1434.068 C672.016958,1434.068 674.260958,1436.754 674.260958,1440.596 L674.260958,1451 L671.642958,1451 L671.642958,1440.936 C671.642958,1438.318 670.078958,1436.482 667.528958,1436.482 C664.978958,1436.482 663.176958,1438.352 663.176958,1440.936 L663.176958,1451 L660.558958,1451 L660.558958,1425.5 L663.176958,1425.5 L663.176958,1436.312 C664.264958,1434.918 665.998958,1434.068 668.140958,1434.068 Z M687.241639,1434.068 C692.035639,1434.068 695.911639,1437.842 695.911639,1442.704 C695.911639,1447.532 692.035639,1451.34 687.207639,1451.34 C682.413639,1451.306 678.571639,1447.566 678.571639,1442.704 C678.571639,1437.842 682.379639,1434.068 687.241639,1434.068 Z M687.241639,1436.482 C683.773639,1436.482 681.223639,1439.202 681.257639,1442.738 C681.257639,1446.24 683.773639,1448.926 687.207639,1448.926 C690.641639,1448.926 693.225639,1446.206 693.225639,1442.738 C693.225639,1439.168 690.641639,1436.482 687.241639,1436.482 Z M722.118319,1434.442 L724.906319,1434.442 L717.936319,1451.374 L716.984319,1451.374 L711.340319,1438.862 L705.730319,1451.374 L704.812319,1451.374 L697.774319,1434.442 L700.562319,1434.442 L705.322319,1446.682 L710.864319,1434.068 L711.850319,1434.068 L717.426319,1446.614 L722.118319,1434.442 Z M744.985681,1448.994 C745.631681,1448.994 746.345681,1448.926 747.195681,1448.79 L747.195681,1451 C746.345681,1451.204 745.495681,1451.374 744.441681,1451.374 C741.177681,1451.374 738.865681,1449.776 738.865681,1446.002 L738.865681,1436.788 L736.077681,1436.788 L736.077681,1434.442 L738.865681,1434.442 L738.865681,1429.92 L741.483681,1429.92 L741.483681,1434.442 L746.651681,1434.442 L746.651681,1436.788 L741.483681,1436.788 L741.483681,1445.832 C741.483681,1448.314 742.911681,1448.994 744.985681,1448.994 Z M758.204361,1434.068 C762.998361,1434.068 766.874361,1437.842 766.874361,1442.704 C766.874361,1447.532 762.998361,1451.34 758.170361,1451.34 C753.376361,1451.306 749.534361,1447.566 749.534361,1442.704 C749.534361,1437.842 753.342361,1434.068 758.204361,1434.068 Z M758.204361,1436.482 C754.736361,1436.482 752.186361,1439.202 752.220361,1442.738 C752.220361,1446.24 754.736361,1448.926 758.170361,1448.926 C761.604361,1448.926 764.188361,1446.206 764.188361,1442.738 C764.188361,1439.168 761.604361,1436.482 758.204361,1436.482 Z M785.899722,1434.068 C788.279722,1434.068 790.149722,1435.088 791.441722,1436.686 L789.843722,1438.318 C788.755722,1437.196 787.327722,1436.482 785.763722,1436.482 C784.199722,1436.482 783.009722,1437.196 783.009722,1438.556 C783.009722,1439.678 783.859722,1440.222 785.695722,1440.97 L787.225722,1441.616 C790.217722,1442.874 791.611722,1444.166 791.611722,1446.512 C791.611722,1449.742 788.857722,1451.374 785.797722,1451.374 C782.873722,1451.374 780.663722,1449.912 779.337722,1448.144 L781.003722,1446.41 C782.363722,1447.838 783.757722,1448.96 785.763722,1448.96 C787.497722,1448.96 788.925722,1448.11 788.925722,1446.614 C788.925722,1445.186 787.701722,1444.642 786.035722,1443.962 L784.437722,1443.282 C781.921722,1442.228 780.323722,1441.072 780.323722,1438.692 C780.323722,1435.7 782.873722,1434.068 785.899722,1434.068 Z M803.776403,1434.068 C808.570403,1434.068 812.446403,1437.842 812.446403,1442.704 C812.446403,1447.532 808.570403,1451.34 803.742403,1451.34 C798.948403,1451.306 795.106403,1447.566 795.106403,1442.704 C795.106403,1437.842 798.914403,1434.068 803.776403,1434.068 Z M803.776403,1436.482 C800.308403,1436.482 797.758403,1439.202 797.792403,1442.738 C797.792403,1446.24 800.308403,1448.926 803.742403,1448.926 C807.176403,1448.926 809.760403,1446.206 809.760403,1442.738 C809.760403,1439.168 807.176403,1436.482 803.776403,1436.482 Z M819.613083,1425.5 L819.613083,1451 L816.995083,1451 L816.995083,1425.5 L819.613083,1425.5 Z M837.081764,1434.442 L839.869764,1434.442 L832.083764,1451.374 L831.131764,1451.374 L823.311764,1434.442 L826.099764,1434.442 L831.607764,1446.92 L837.081764,1434.442 Z M857.746444,1441.548 C857.746444,1442.432 857.610444,1443.214 857.542444,1443.52 L844.486444,1443.52 C844.826444,1446.818 847.274444,1448.96 850.538444,1448.96 C852.612444,1448.96 854.244444,1448.076 855.604444,1446.716 L857.134444,1448.484 C855.468444,1450.252 853.224444,1451.374 850.504444,1451.374 C845.506444,1451.374 841.732444,1447.6 841.732444,1442.738 C841.732444,1437.91 845.438444,1434.068 850.198444,1434.068 C854.448444,1434.068 857.746444,1437.128 857.746444,1441.548 Z M850.130444,1436.448 C847.342444,1436.448 845.132444,1438.352 844.588444,1441.208 L855.060444,1441.208 C855.026444,1438.148 852.782444,1436.448 850.130444,1436.448 Z M878.607806,1448.994 C879.253806,1448.994 879.967806,1448.926 880.817806,1448.79 L880.817806,1451 C879.967806,1451.204 879.117806,1451.374 878.063806,1451.374 C874.799806,1451.374 872.487806,1449.776 872.487806,1446.002 L872.487806,1436.788 L869.699806,1436.788 L869.699806,1434.442 L872.487806,1434.442 L872.487806,1429.92 L875.105806,1429.92 L875.105806,1434.442 L880.273806,1434.442 L880.273806,1436.788 L875.105806,1436.788 L875.105806,1445.832 C875.105806,1448.314 876.533806,1448.994 878.607806,1448.994 Z M892.268486,1434.068 C896.144486,1434.068 898.388486,1436.754 898.388486,1440.596 L898.388486,1451 L895.770486,1451 L895.770486,1440.936 C895.770486,1438.318 894.206486,1436.482 891.656486,1436.482 C889.106486,1436.482 887.304486,1438.352 887.304486,1440.936 L887.304486,1451 L884.686486,1451 L884.686486,1425.5 L887.304486,1425.5 L887.304486,1436.312 C888.392486,1434.918 890.126486,1434.068 892.268486,1434.068 Z M918.713167,1441.548 C918.713167,1442.432 918.577167,1443.214 918.509167,1443.52 L905.453167,1443.52 C905.793167,1446.818 908.241167,1448.96 911.505167,1448.96 C913.579167,1448.96 915.211167,1448.076 916.571167,1446.716 L918.101167,1448.484 C916.435167,1450.252 914.191167,1451.374 911.471167,1451.374 C906.473167,1451.374 902.699167,1447.6 902.699167,1442.738 C902.699167,1437.91 906.405167,1434.068 911.165167,1434.068 C915.415167,1434.068 918.713167,1437.128 918.713167,1441.548 Z M911.097167,1436.448 C908.309167,1436.448 906.099167,1438.352 905.555167,1441.208 L916.027167,1441.208 C915.993167,1438.148 913.749167,1436.448 911.097167,1436.448 Z M941.444528,1434.068 C946.204528,1434.068 949.638528,1437.842 949.638528,1442.704 C949.638528,1447.6 946.170528,1451.374 941.444528,1451.374 C938.996528,1451.374 936.684528,1450.354 935.358528,1448.586 L935.358528,1457.12 L932.740528,1457.12 L932.740528,1434.442 L935.188528,1434.442 L935.188528,1437.094 C936.480528,1435.19 938.826528,1434.068 941.444528,1434.068 Z M941.070528,1448.96 C944.436528,1448.96 946.952528,1446.342 946.952528,1442.738 C946.952528,1439.134 944.470528,1436.482 941.070528,1436.482 C938.214528,1436.482 935.324528,1438.352 935.324528,1442.704 C935.324528,1447.056 938.180528,1448.96 941.070528,1448.96 Z M961.769208,1434.306 C962.313208,1434.306 962.653208,1434.374 962.993208,1434.442 L962.993208,1436.754 L962.007208,1436.754 C959.321208,1436.754 956.805208,1438.454 956.805208,1441.616 L956.805208,1451 L954.187208,1451 L954.187208,1434.442 L956.635208,1434.442 L956.635208,1436.822 C957.859208,1435.19 959.797208,1434.306 961.769208,1434.306 Z M973.593889,1434.068 C978.387889,1434.068 982.263889,1437.842 982.263889,1442.704 C982.263889,1447.532 978.387889,1451.34 973.559889,1451.34 C968.765889,1451.306 964.923889,1447.566 964.923889,1442.704 C964.923889,1437.842 968.731889,1434.068 973.593889,1434.068 Z M973.593889,1436.482 C970.125889,1436.482 967.575889,1439.202 967.609889,1442.738 C967.609889,1446.24 970.125889,1448.926 973.559889,1448.926 C976.993889,1448.926 979.577889,1446.206 979.577889,1442.738 C979.577889,1439.168 976.993889,1436.482 973.593889,1436.482 Z M995.51657,1434.068 C1000.24257,1434.068 1003.71057,1437.842 1003.71057,1442.738 C1003.71057,1447.6 1000.27657,1451.374 995.55057,1451.374 C992.96657,1451.374 990.55257,1450.252 989.26057,1448.348 L989.26057,1451 L986.81257,1451 L986.81257,1425.5 L989.43057,1425.5 L989.43057,1436.89 C990.72257,1435.156 993.00057,1434.068 995.51657,1434.068 Z M995.14257,1448.96 C998.54257,1448.96 1001.02457,1446.308 1001.02457,1442.704 C1001.02457,1439.1 998.50857,1436.482 995.14257,1436.482 C992.25257,1436.482 989.39657,1438.386 989.39657,1442.738 C989.39657,1447.09 992.28657,1448.96 995.14257,1448.96 Z M1010.87725,1425.5 L1010.87725,1451 L1008.25925,1451 L1008.25925,1425.5 L1010.87725,1425.5 Z M1031.40593,1441.548 C1031.40593,1442.432 1031.26993,1443.214 1031.20193,1443.52 L1018.14593,1443.52 C1018.48593,1446.818 1020.93393,1448.96 1024.19793,1448.96 C1026.27193,1448.96 1027.90393,1448.076 1029.26393,1446.716 L1030.79393,1448.484 C1029.12793,1450.252 1026.88393,1451.374 1024.16393,1451.374 C1019.16593,1451.374 1015.39193,1447.6 1015.39193,1442.738 C1015.39193,1437.91 1019.09793,1434.068 1023.85793,1434.068 C1028.10793,1434.068 1031.40593,1437.128 1031.40593,1441.548 Z M1023.78993,1436.448 C1021.00193,1436.448 1018.79193,1438.352 1018.24793,1441.208 L1028.71993,1441.208 C1028.68593,1438.148 1026.44193,1436.448 1023.78993,1436.448 Z M1054.11061,1434.068 C1057.98661,1434.068 1060.12861,1436.754 1060.12861,1440.596 L1060.12861,1451 L1057.51061,1451 L1057.51061,1440.936 C1057.51061,1438.318 1056.08261,1436.482 1053.60061,1436.482 C1051.08461,1436.482 1049.35061,1438.386 1049.35061,1440.698 L1049.35061,1451 L1046.73261,1451 L1046.73261,1440.936 C1046.73261,1438.318 1045.23661,1436.482 1042.78861,1436.482 C1040.27261,1436.482 1038.57261,1438.318 1038.57261,1440.936 L1038.57261,1451 L1035.95461,1451 L1035.95461,1434.442 L1038.40261,1434.442 L1038.40261,1436.176 C1039.55861,1434.85 1041.25861,1434.068 1043.33261,1434.068 C1045.81461,1434.068 1047.51461,1435.19 1048.43261,1436.924 C1049.58861,1435.258 1051.56061,1434.068 1054.11061,1434.068 Z M1082.58797,1434.068 C1087.38197,1434.068 1091.25797,1437.842 1091.25797,1442.704 C1091.25797,1447.532 1087.38197,1451.34 1082.55397,1451.34 C1077.75997,1451.306 1073.91797,1447.566 1073.91797,1442.704 C1073.91797,1437.842 1077.72597,1434.068 1082.58797,1434.068 Z M1082.58797,1436.482 C1079.11997,1436.482 1076.56997,1439.202 1076.60397,1442.738 C1076.60397,1446.24 1079.11997,1448.926 1082.55397,1448.926 C1085.98797,1448.926 1088.57197,1446.206 1088.57197,1442.738 C1088.57197,1439.168 1085.98797,1436.482 1082.58797,1436.482 Z M1102.30065,1427.506 C1100.26065,1427.506 1098.83265,1428.186 1098.83265,1430.668 L1098.83265,1434.442 L1102.98065,1434.442 L1102.98065,1436.788 L1098.83265,1436.788 L1098.83265,1451 L1096.21465,1451 L1096.21465,1436.788 L1093.83465,1436.788 L1093.83465,1434.442 L1096.21465,1434.442 L1096.21465,1430.498 C1096.21465,1426.724 1098.49265,1425.126 1101.68865,1425.126 C1102.50465,1425.126 1103.15065,1425.228 1103.76265,1425.398 L1103.76265,1427.608 C1103.21865,1427.54 1102.74265,1427.506 1102.30065,1427.506 Z M408.573389,1472.442 L408.573389,1482.404 C408.573389,1486.654 405.547389,1489.374 401.739389,1489.374 C397.863389,1489.374 394.871389,1486.654 394.871389,1482.404 L394.871389,1472.442 L397.455389,1472.442 L397.455389,1482.574 C397.455389,1485.294 399.359389,1486.96 401.739389,1486.96 C404.051389,1486.96 405.955389,1485.294 405.955389,1482.574 L405.955389,1472.442 L408.573389,1472.442 Z M419.072069,1472.068 C421.452069,1472.068 423.322069,1473.088 424.614069,1474.686 L423.016069,1476.318 C421.928069,1475.196 420.500069,1474.482 418.936069,1474.482 C417.372069,1474.482 416.182069,1475.196 416.182069,1476.556 C416.182069,1477.678 417.032069,1478.222 418.868069,1478.97 L420.398069,1479.616 C423.390069,1480.874 424.784069,1482.166 424.784069,1484.512 C424.784069,1487.742 422.030069,1489.374 418.970069,1489.374 C416.046069,1489.374 413.836069,1487.912 412.510069,1486.144 L414.176069,1484.41 C415.536069,1485.838 416.930069,1486.96 418.936069,1486.96 C420.670069,1486.96 422.098069,1486.11 422.098069,1484.614 C422.098069,1483.186 420.874069,1482.642 419.208069,1481.962 L417.610069,1481.282 C415.094069,1480.228 413.496069,1479.072 413.496069,1476.692 C413.496069,1473.7 416.046069,1472.068 419.072069,1472.068 Z M444.29275,1479.548 C444.29275,1480.432 444.15675,1481.214 444.08875,1481.52 L431.03275,1481.52 C431.37275,1484.818 433.82075,1486.96 437.08475,1486.96 C439.15875,1486.96 440.79075,1486.076 442.15075,1484.716 L443.68075,1486.484 C442.01475,1488.252 439.77075,1489.374 437.05075,1489.374 C432.05275,1489.374 428.27875,1485.6 428.27875,1480.738 C428.27875,1475.91 431.98475,1472.068 436.74475,1472.068 C440.99475,1472.068 444.29275,1475.128 444.29275,1479.548 Z M436.67675,1474.448 C433.88875,1474.448 431.67875,1476.352 431.13475,1479.208 L441.60675,1479.208 C441.57275,1476.148 439.32875,1474.448 436.67675,1474.448 Z M456.42343,1472.306 C456.96743,1472.306 457.30743,1472.374 457.64743,1472.442 L457.64743,1474.754 L456.66143,1474.754 C453.97543,1474.754 451.45943,1476.454 451.45943,1479.616 L451.45943,1489 L448.84143,1489 L448.84143,1472.442 L451.28943,1472.442 L451.28943,1474.822 C452.51343,1473.19 454.45143,1472.306 456.42343,1472.306 Z M466.106111,1472.068 C468.486111,1472.068 470.356111,1473.088 471.648111,1474.686 L470.050111,1476.318 C468.962111,1475.196 467.534111,1474.482 465.970111,1474.482 C464.406111,1474.482 463.216111,1475.196 463.216111,1476.556 C463.216111,1477.678 464.066111,1478.222 465.902111,1478.97 L467.432111,1479.616 C470.424111,1480.874 471.818111,1482.166 471.818111,1484.512 C471.818111,1487.742 469.064111,1489.374 466.004111,1489.374 C463.080111,1489.374 460.870111,1487.912 459.544111,1486.144 L461.210111,1484.41 C462.570111,1485.838 463.964111,1486.96 465.970111,1486.96 C467.704111,1486.96 469.132111,1486.11 469.132111,1484.614 C469.132111,1483.186 467.908111,1482.642 466.242111,1481.962 L464.644111,1481.282 C462.128111,1480.228 460.530111,1479.072 460.530111,1476.692 C460.530111,1473.7 463.080111,1472.068 466.106111,1472.068 Z M493.529472,1472.068 C497.439472,1472.068 499.683472,1474.754 499.683472,1478.596 L499.683472,1489 L497.065472,1489 L497.065472,1478.902 C497.065472,1476.284 495.501472,1474.482 492.951472,1474.482 C490.401472,1474.482 488.599472,1476.318 488.599472,1478.902 L488.599472,1489 L485.981472,1489 L485.981472,1472.442 L488.429472,1472.442 L488.429472,1474.244 C489.585472,1472.884 491.387472,1472.068 493.529472,1472.068 Z M512.664153,1472.068 C517.458153,1472.068 521.334153,1475.842 521.334153,1480.704 C521.334153,1485.532 517.458153,1489.34 512.630153,1489.34 C507.836153,1489.306 503.994153,1485.566 503.994153,1480.704 C503.994153,1475.842 507.802153,1472.068 512.664153,1472.068 Z M512.664153,1474.482 C509.196153,1474.482 506.646153,1477.202 506.680153,1480.738 C506.680153,1484.24 509.196153,1486.926 512.630153,1486.926 C516.064153,1486.926 518.648153,1484.206 518.648153,1480.738 C518.648153,1477.168 516.064153,1474.482 512.664153,1474.482 Z M532.716833,1486.994 C533.362833,1486.994 534.076833,1486.926 534.926833,1486.79 L534.926833,1489 C534.076833,1489.204 533.226833,1489.374 532.172833,1489.374 C528.908833,1489.374 526.596833,1487.776 526.596833,1484.002 L526.596833,1474.788 L523.808833,1474.788 L523.808833,1472.442 L526.596833,1472.442 L526.596833,1467.92 L529.214833,1467.92 L529.214833,1472.442 L534.382833,1472.442 L534.382833,1474.788 L529.214833,1474.788 L529.214833,1483.832 C529.214833,1486.314 530.642833,1486.994 532.716833,1486.994 Z M548.274194,1489 L548.274194,1463.5 L550.892194,1463.5 L550.892194,1489 L548.274194,1489 Z M554.326194,1479.718 L562.146194,1489 L558.780194,1489 L551.164194,1479.684 L558.066194,1472.442 L561.500194,1472.442 L554.326194,1479.718 Z M572.984875,1472.068 C576.894875,1472.068 579.138875,1474.754 579.138875,1478.596 L579.138875,1489 L576.520875,1489 L576.520875,1478.902 C576.520875,1476.284 574.956875,1474.482 572.406875,1474.482 C569.856875,1474.482 568.054875,1476.318 568.054875,1478.902 L568.054875,1489 L565.436875,1489 L565.436875,1472.442 L567.884875,1472.442 L567.884875,1474.244 C569.040875,1472.884 570.842875,1472.068 572.984875,1472.068 Z M592.119556,1472.068 C596.913556,1472.068 600.789556,1475.842 600.789556,1480.704 C600.789556,1485.532 596.913556,1489.34 592.085556,1489.34 C587.291556,1489.306 583.449556,1485.566 583.449556,1480.704 C583.449556,1475.842 587.257556,1472.068 592.119556,1472.068 Z M592.119556,1474.482 C588.651556,1474.482 586.101556,1477.202 586.135556,1480.738 C586.135556,1484.24 588.651556,1486.926 592.085556,1486.926 C595.519556,1486.926 598.103556,1484.206 598.103556,1480.738 C598.103556,1477.168 595.519556,1474.482 592.119556,1474.482 Z M626.996236,1472.442 L629.784236,1472.442 L622.814236,1489.374 L621.862236,1489.374 L616.218236,1476.862 L610.608236,1489.374 L609.690236,1489.374 L602.652236,1472.442 L605.440236,1472.442 L610.200236,1484.682 L615.742236,1472.068 L616.728236,1472.068 L622.304236,1484.614 L626.996236,1472.442 Z M634.876917,1464.214 C635.930917,1464.214 636.814917,1465.064 636.814917,1466.118 C636.814917,1467.206 635.930917,1468.022 634.876917,1468.022 C633.754917,1468.022 632.904917,1467.206 632.904917,1466.118 C632.904917,1465.064 633.754917,1464.214 634.876917,1464.214 Z M636.168917,1472.442 L636.168917,1489 L633.550917,1489 L633.550917,1472.442 L636.168917,1472.442 Z M649.421597,1472.068 C653.331597,1472.068 655.575597,1474.754 655.575597,1478.596 L655.575597,1489 L652.957597,1489 L652.957597,1478.902 C652.957597,1476.284 651.393597,1474.482 648.843597,1474.482 C646.293597,1474.482 644.491597,1476.318 644.491597,1478.902 L644.491597,1489 L641.873597,1489 L641.873597,1472.442 L644.321597,1472.442 L644.321597,1474.244 C645.477597,1472.884 647.279597,1472.068 649.421597,1472.068 Z M674.506278,1472.442 L676.988278,1472.442 L676.988278,1487.402 C676.988278,1492.502 673.758278,1495.494 668.930278,1495.494 C665.462278,1495.494 662.776278,1493.93 661.144278,1492.298 L662.674278,1490.462 C664.272278,1491.856 666.142278,1493.08 668.862278,1493.08 C672.228278,1493.08 674.370278,1491.21 674.370278,1487.538 L674.370278,1486.076 C673.010278,1487.81 670.698278,1488.83 668.216278,1488.83 C663.558278,1488.83 660.090278,1485.294 660.090278,1480.466 C660.090278,1475.672 663.558278,1472.068 668.216278,1472.068 C670.834278,1472.068 673.214278,1473.224 674.506278,1475.128 L674.506278,1472.442 Z M668.624278,1486.416 C671.514278,1486.416 674.404278,1484.614 674.404278,1480.466 C674.404278,1476.318 671.480278,1474.55 668.624278,1474.55 C665.258278,1474.55 662.742278,1476.998 662.742278,1480.5 C662.742278,1484.002 665.258278,1486.416 668.624278,1486.416 Z M713.489639,1472.442 L716.277639,1472.442 L709.307639,1489.374 L708.355639,1489.374 L702.711639,1476.862 L697.101639,1489.374 L696.183639,1489.374 L689.145639,1472.442 L691.933639,1472.442 L696.693639,1484.682 L702.235639,1472.068 L703.221639,1472.068 L708.797639,1484.614 L713.489639,1472.442 Z M727.626319,1472.068 C731.502319,1472.068 733.746319,1474.754 733.746319,1478.596 L733.746319,1489 L731.128319,1489 L731.128319,1478.936 C731.128319,1476.318 729.564319,1474.482 727.014319,1474.482 C724.464319,1474.482 722.662319,1476.352 722.662319,1478.936 L722.662319,1489 L720.044319,1489 L720.044319,1463.5 L722.662319,1463.5 L722.662319,1474.312 C723.750319,1472.918 725.484319,1472.068 727.626319,1472.068 Z M754.071,1479.548 C754.071,1480.432 753.935,1481.214 753.867,1481.52 L740.811,1481.52 C741.151,1484.818 743.599,1486.96 746.863,1486.96 C748.937,1486.96 750.569,1486.076 751.929,1484.716 L753.459,1486.484 C751.793,1488.252 749.549,1489.374 746.829,1489.374 C741.831,1489.374 738.057,1485.6 738.057,1480.738 C738.057,1475.91 741.763,1472.068 746.523,1472.068 C750.773,1472.068 754.071,1475.128 754.071,1479.548 Z M746.455,1474.448 C743.667,1474.448 741.457,1476.352 740.913,1479.208 L751.385,1479.208 C751.351,1476.148 749.107,1474.448 746.455,1474.448 Z M766.167681,1472.068 C770.077681,1472.068 772.321681,1474.754 772.321681,1478.596 L772.321681,1489 L769.703681,1489 L769.703681,1478.902 C769.703681,1476.284 768.139681,1474.482 765.589681,1474.482 C763.039681,1474.482 761.237681,1476.318 761.237681,1478.902 L761.237681,1489 L758.619681,1489 L758.619681,1472.442 L761.067681,1472.442 L761.067681,1474.244 C762.223681,1472.884 764.025681,1472.068 766.167681,1472.068 Z M794.135042,1486.994 C794.781042,1486.994 795.495042,1486.926 796.345042,1486.79 L796.345042,1489 C795.495042,1489.204 794.645042,1489.374 793.591042,1489.374 C790.327042,1489.374 788.015042,1487.776 788.015042,1484.002 L788.015042,1474.788 L785.227042,1474.788 L785.227042,1472.442 L788.015042,1472.442 L788.015042,1467.92 L790.633042,1467.92 L790.633042,1472.442 L795.801042,1472.442 L795.801042,1474.788 L790.633042,1474.788 L790.633042,1483.832 C790.633042,1486.314 792.061042,1486.994 794.135042,1486.994 Z M807.795722,1472.068 C811.671722,1472.068 813.915722,1474.754 813.915722,1478.596 L813.915722,1489 L811.297722,1489 L811.297722,1478.936 C811.297722,1476.318 809.733722,1474.482 807.183722,1474.482 C804.633722,1474.482 802.831722,1476.352 802.831722,1478.936 L802.831722,1489 L800.213722,1489 L800.213722,1463.5 L802.831722,1463.5 L802.831722,1474.312 C803.919722,1472.918 805.653722,1472.068 807.795722,1472.068 Z M834.240403,1479.548 C834.240403,1480.432 834.104403,1481.214 834.036403,1481.52 L820.980403,1481.52 C821.320403,1484.818 823.768403,1486.96 827.032403,1486.96 C829.106403,1486.96 830.738403,1486.076 832.098403,1484.716 L833.628403,1486.484 C831.962403,1488.252 829.718403,1489.374 826.998403,1489.374 C822.000403,1489.374 818.226403,1485.6 818.226403,1480.738 C818.226403,1475.91 821.932403,1472.068 826.692403,1472.068 C830.942403,1472.068 834.240403,1475.128 834.240403,1479.548 Z M826.624403,1474.448 C823.836403,1474.448 821.626403,1476.352 821.082403,1479.208 L831.554403,1479.208 C831.520403,1476.148 829.276403,1474.448 826.624403,1474.448 Z M840.115083,1464.214 C841.169083,1464.214 842.053083,1465.064 842.053083,1466.118 C842.053083,1467.206 841.169083,1468.022 840.115083,1468.022 C838.993083,1468.022 838.143083,1467.206 838.143083,1466.118 C838.143083,1465.064 838.993083,1464.214 840.115083,1464.214 Z M841.407083,1472.442 L841.407083,1489 L838.789083,1489 L838.789083,1472.442 L841.407083,1472.442 Z M854.693764,1472.306 C855.237764,1472.306 855.577764,1472.374 855.917764,1472.442 L855.917764,1474.754 L854.931764,1474.754 C852.245764,1474.754 849.729764,1476.454 849.729764,1479.616 L849.729764,1489 L847.111764,1489 L847.111764,1472.442 L849.559764,1472.442 L849.559764,1474.822 C850.783764,1473.19 852.721764,1472.306 854.693764,1472.306 Z M879.601125,1472.442 L882.389125,1472.442 L874.603125,1489.374 L873.651125,1489.374 L865.831125,1472.442 L868.619125,1472.442 L874.127125,1484.92 L879.601125,1472.442 Z M900.265806,1479.548 C900.265806,1480.432 900.129806,1481.214 900.061806,1481.52 L887.005806,1481.52 C887.345806,1484.818 889.793806,1486.96 893.057806,1486.96 C895.131806,1486.96 896.763806,1486.076 898.123806,1484.716 L899.653806,1486.484 C897.987806,1488.252 895.743806,1489.374 893.023806,1489.374 C888.025806,1489.374 884.251806,1485.6 884.251806,1480.738 C884.251806,1475.91 887.957806,1472.068 892.717806,1472.068 C896.967806,1472.068 900.265806,1475.128 900.265806,1479.548 Z M892.649806,1474.448 C889.861806,1474.448 887.651806,1476.352 887.107806,1479.208 L897.579806,1479.208 C897.545806,1476.148 895.301806,1474.448 892.649806,1474.448 Z M912.396486,1472.068 C916.272486,1472.068 918.516486,1474.754 918.516486,1478.596 L918.516486,1489 L915.898486,1489 L915.898486,1478.936 C915.898486,1476.318 914.334486,1474.482 911.784486,1474.482 C909.234486,1474.482 907.432486,1476.352 907.432486,1478.936 L907.432486,1489 L904.814486,1489 L904.814486,1463.5 L907.432486,1463.5 L907.432486,1474.312 C908.520486,1472.918 910.254486,1472.068 912.396486,1472.068 Z M925.343167,1464.214 C926.397167,1464.214 927.281167,1465.064 927.281167,1466.118 C927.281167,1467.206 926.397167,1468.022 925.343167,1468.022 C924.221167,1468.022 923.371167,1467.206 923.371167,1466.118 C923.371167,1465.064 924.221167,1464.214 925.343167,1464.214 Z M926.635167,1472.442 L926.635167,1489 L924.017167,1489 L924.017167,1472.442 L926.635167,1472.442 Z M939.819847,1472.068 C942.811847,1472.068 945.191847,1473.496 946.653847,1475.672 L944.783847,1477.168 C943.559847,1475.536 941.995847,1474.482 939.853847,1474.482 C936.385847,1474.482 933.835847,1477.236 933.835847,1480.704 C933.835847,1484.206 936.385847,1486.96 939.853847,1486.96 C941.961847,1486.96 943.525847,1485.94 944.749847,1484.308 L946.619847,1485.77 C945.157847,1487.946 942.777847,1489.374 939.819847,1489.374 C934.991847,1489.374 931.149847,1485.566 931.149847,1480.704 C931.149847,1475.876 934.991847,1472.068 939.819847,1472.068 Z M953.650528,1463.5 L953.650528,1489 L951.032528,1489 L951.032528,1463.5 L953.650528,1463.5 Z M974.179208,1479.548 C974.179208,1480.432 974.043208,1481.214 973.975208,1481.52 L960.919208,1481.52 C961.259208,1484.818 963.707208,1486.96 966.971208,1486.96 C969.045208,1486.96 970.677208,1486.076 972.037208,1484.716 L973.567208,1486.484 C971.901208,1488.252 969.657208,1489.374 966.937208,1489.374 C961.939208,1489.374 958.165208,1485.6 958.165208,1480.738 C958.165208,1475.91 961.871208,1472.068 966.631208,1472.068 C970.881208,1472.068 974.179208,1475.128 974.179208,1479.548 Z M966.563208,1474.448 C963.775208,1474.448 961.565208,1476.352 961.021208,1479.208 L971.493208,1479.208 C971.459208,1476.148 969.215208,1474.448 966.563208,1474.448 Z M1009.52457,1472.442 L1012.31257,1472.442 L1005.34257,1489.374 L1004.39057,1489.374 L998.74657,1476.862 L993.13657,1489.374 L992.21857,1489.374 L985.18057,1472.442 L987.96857,1472.442 L992.72857,1484.682 L998.27057,1472.068 L999.25657,1472.068 L1004.83257,1484.614 L1009.52457,1472.442 Z M1021.34925,1472.068 C1025.12325,1472.068 1027.80925,1474.346 1027.80925,1478.8 L1027.80925,1489 L1025.36125,1489 L1025.36125,1486.858 C1024.17125,1488.456 1022.23325,1489.374 1019.78525,1489.374 C1016.45325,1489.374 1014.00525,1487.606 1014.00525,1484.716 C1014.00525,1481.928 1016.35125,1480.092 1019.95525,1480.092 L1025.19125,1480.092 L1025.19125,1478.664 C1025.19125,1475.876 1023.62725,1474.482 1021.17925,1474.482 C1019.10525,1474.482 1017.64325,1475.468 1016.35125,1477.134 L1014.61725,1475.706 C1016.18125,1473.19 1018.69725,1472.068 1021.34925,1472.068 Z M1020.12525,1487.198 C1022.84525,1487.198 1025.19125,1485.226 1025.19125,1482.642 L1025.19125,1482.234 L1020.26125,1482.234 C1017.94925,1482.234 1016.69125,1483.016 1016.69125,1484.58 C1016.69125,1486.348 1018.28925,1487.198 1020.12525,1487.198 Z M1038.30793,1472.068 C1040.68793,1472.068 1042.55793,1473.088 1043.84993,1474.686 L1042.25193,1476.318 C1041.16393,1475.196 1039.73593,1474.482 1038.17193,1474.482 C1036.60793,1474.482 1035.41793,1475.196 1035.41793,1476.556 C1035.41793,1477.678 1036.26793,1478.222 1038.10393,1478.97 L1039.63393,1479.616 C1042.62593,1480.874 1044.01993,1482.166 1044.01993,1484.512 C1044.01993,1487.742 1041.26593,1489.374 1038.20593,1489.374 C1035.28193,1489.374 1033.07193,1487.912 1031.74593,1486.144 L1033.41193,1484.41 C1034.77193,1485.838 1036.16593,1486.96 1038.17193,1486.96 C1039.90593,1486.96 1041.33393,1486.11 1041.33393,1484.614 C1041.33393,1483.186 1040.10993,1482.642 1038.44393,1481.962 L1036.84593,1481.282 C1034.32993,1480.228 1032.73193,1479.072 1032.73193,1476.692 C1032.73193,1473.7 1035.28193,1472.068 1038.30793,1472.068 Z M421.894069,1510.068 C424.886069,1510.068 427.266069,1511.496 428.728069,1513.672 L426.858069,1515.168 C425.634069,1513.536 424.070069,1512.482 421.928069,1512.482 C418.460069,1512.482 415.910069,1515.236 415.910069,1518.704 C415.910069,1522.206 418.460069,1524.96 421.928069,1524.96 C424.036069,1524.96 425.600069,1523.94 426.824069,1522.308 L428.694069,1523.77 C427.232069,1525.946 424.852069,1527.374 421.894069,1527.374 C417.066069,1527.374 413.224069,1523.566 413.224069,1518.704 C413.224069,1513.876 417.066069,1510.068 421.894069,1510.068 Z M440.24675,1510.068 C445.04075,1510.068 448.91675,1513.842 448.91675,1518.704 C448.91675,1523.532 445.04075,1527.34 440.21275,1527.34 C435.41875,1527.306 431.57675,1523.566 431.57675,1518.704 C431.57675,1513.842 435.38475,1510.068 440.24675,1510.068 Z M440.24675,1512.482 C436.77875,1512.482 434.22875,1515.202 434.26275,1518.738 C434.26275,1522.24 436.77875,1524.926 440.21275,1524.926 C443.64675,1524.926 446.23075,1522.206 446.23075,1518.738 C446.23075,1515.168 443.64675,1512.482 440.24675,1512.482 Z M461.01343,1510.068 C464.92343,1510.068 467.16743,1512.754 467.16743,1516.596 L467.16743,1527 L464.54943,1527 L464.54943,1516.902 C464.54943,1514.284 462.98543,1512.482 460.43543,1512.482 C457.88543,1512.482 456.08343,1514.318 456.08343,1516.902 L456.08343,1527 L453.46543,1527 L453.46543,1510.442 L455.91343,1510.442 L455.91343,1512.244 C457.06943,1510.884 458.87143,1510.068 461.01343,1510.068 Z M480.216111,1510.068 C484.126111,1510.068 486.370111,1512.754 486.370111,1516.596 L486.370111,1527 L483.752111,1527 L483.752111,1516.902 C483.752111,1514.284 482.188111,1512.482 479.638111,1512.482 C477.088111,1512.482 475.286111,1514.318 475.286111,1516.902 L475.286111,1527 L472.668111,1527 L472.668111,1510.442 L475.116111,1510.442 L475.116111,1512.244 C476.272111,1510.884 478.074111,1510.068 480.216111,1510.068 Z M506.694792,1517.548 C506.694792,1518.432 506.558792,1519.214 506.490792,1519.52 L493.434792,1519.52 C493.774792,1522.818 496.222792,1524.96 499.486792,1524.96 C501.560792,1524.96 503.192792,1524.076 504.552792,1522.716 L506.082792,1524.484 C504.416792,1526.252 502.172792,1527.374 499.452792,1527.374 C494.454792,1527.374 490.680792,1523.6 490.680792,1518.738 C490.680792,1513.91 494.386792,1510.068 499.146792,1510.068 C503.396792,1510.068 506.694792,1513.128 506.694792,1517.548 Z M499.078792,1512.448 C496.290792,1512.448 494.080792,1514.352 493.536792,1517.208 L504.008792,1517.208 C503.974792,1514.148 501.730792,1512.448 499.078792,1512.448 Z M518.723472,1510.068 C521.715472,1510.068 524.095472,1511.496 525.557472,1513.672 L523.687472,1515.168 C522.463472,1513.536 520.899472,1512.482 518.757472,1512.482 C515.289472,1512.482 512.739472,1515.236 512.739472,1518.704 C512.739472,1522.206 515.289472,1524.96 518.757472,1524.96 C520.865472,1524.96 522.429472,1523.94 523.653472,1522.308 L525.523472,1523.77 C524.061472,1525.946 521.681472,1527.374 518.723472,1527.374 C513.895472,1527.374 510.053472,1523.566 510.053472,1518.704 C510.053472,1513.876 513.895472,1510.068 518.723472,1510.068 Z M536.770153,1524.994 C537.416153,1524.994 538.130153,1524.926 538.980153,1524.79 L538.980153,1527 C538.130153,1527.204 537.280153,1527.374 536.226153,1527.374 C532.962153,1527.374 530.650153,1525.776 530.650153,1522.002 L530.650153,1512.788 L527.862153,1512.788 L527.862153,1510.442 L530.650153,1510.442 L530.650153,1505.92 L533.268153,1505.92 L533.268153,1510.442 L538.436153,1510.442 L538.436153,1512.788 L533.268153,1512.788 L533.268153,1521.832 C533.268153,1524.314 534.696153,1524.994 536.770153,1524.994 Z M544.174833,1502.214 C545.228833,1502.214 546.112833,1503.064 546.112833,1504.118 C546.112833,1505.206 545.228833,1506.022 544.174833,1506.022 C543.052833,1506.022 542.202833,1505.206 542.202833,1504.118 C542.202833,1503.064 543.052833,1502.214 544.174833,1502.214 Z M545.466833,1510.442 L545.466833,1527 L542.848833,1527 L542.848833,1510.442 L545.466833,1510.442 Z M558.719514,1510.068 C562.629514,1510.068 564.873514,1512.754 564.873514,1516.596 L564.873514,1527 L562.255514,1527 L562.255514,1516.902 C562.255514,1514.284 560.691514,1512.482 558.141514,1512.482 C555.591514,1512.482 553.789514,1514.318 553.789514,1516.902 L553.789514,1527 L551.171514,1527 L551.171514,1510.442 L553.619514,1510.442 L553.619514,1512.244 C554.775514,1510.884 556.577514,1510.068 558.719514,1510.068 Z M583.804194,1510.442 L586.286194,1510.442 L586.286194,1525.402 C586.286194,1530.502 583.056194,1533.494 578.228194,1533.494 C574.760194,1533.494 572.074194,1531.93 570.442194,1530.298 L571.972194,1528.462 C573.570194,1529.856 575.440194,1531.08 578.160194,1531.08 C581.526194,1531.08 583.668194,1529.21 583.668194,1525.538 L583.668194,1524.076 C582.308194,1525.81 579.996194,1526.83 577.514194,1526.83 C572.856194,1526.83 569.388194,1523.294 569.388194,1518.466 C569.388194,1513.672 572.856194,1510.068 577.514194,1510.068 C580.132194,1510.068 582.512194,1511.224 583.804194,1513.128 L583.804194,1510.442 Z M577.922194,1524.416 C580.812194,1524.416 583.702194,1522.614 583.702194,1518.466 C583.702194,1514.318 580.778194,1512.55 577.922194,1512.55 C574.556194,1512.55 572.040194,1514.998 572.040194,1518.5 C572.040194,1522.002 574.556194,1524.416 577.922194,1524.416 Z M608.949556,1510.068 C613.743556,1510.068 617.619556,1513.842 617.619556,1518.704 C617.619556,1523.532 613.743556,1527.34 608.915556,1527.34 C604.121556,1527.306 600.279556,1523.566 600.279556,1518.704 C600.279556,1513.842 604.087556,1510.068 608.949556,1510.068 Z M608.949556,1512.482 C605.481556,1512.482 602.931556,1515.202 602.965556,1518.738 C602.965556,1522.24 605.481556,1524.926 608.915556,1524.926 C612.349556,1524.926 614.933556,1522.206 614.933556,1518.738 C614.933556,1515.168 612.349556,1512.482 608.949556,1512.482 Z M629.750236,1510.306 C630.294236,1510.306 630.634236,1510.374 630.974236,1510.442 L630.974236,1512.754 L629.988236,1512.754 C627.302236,1512.754 624.786236,1514.454 624.786236,1517.616 L624.786236,1527 L622.168236,1527 L622.168236,1510.442 L624.616236,1510.442 L624.616236,1512.822 C625.840236,1511.19 627.778236,1510.306 629.750236,1510.306 Z M651.393597,1510.068 C654.385597,1510.068 656.765597,1511.496 658.227597,1513.672 L656.357597,1515.168 C655.133597,1513.536 653.569597,1512.482 651.427597,1512.482 C647.959597,1512.482 645.409597,1515.236 645.409597,1518.704 C645.409597,1522.206 647.959597,1524.96 651.427597,1524.96 C653.535597,1524.96 655.099597,1523.94 656.323597,1522.308 L658.193597,1523.77 C656.731597,1525.946 654.351597,1527.374 651.393597,1527.374 C646.565597,1527.374 642.723597,1523.566 642.723597,1518.704 C642.723597,1513.876 646.565597,1510.068 651.393597,1510.068 Z M669.746278,1510.068 C674.540278,1510.068 678.416278,1513.842 678.416278,1518.704 C678.416278,1523.532 674.540278,1527.34 669.712278,1527.34 C664.918278,1527.306 661.076278,1523.566 661.076278,1518.704 C661.076278,1513.842 664.884278,1510.068 669.746278,1510.068 Z M669.746278,1512.482 C666.278278,1512.482 663.728278,1515.202 663.762278,1518.738 C663.762278,1522.24 666.278278,1524.926 669.712278,1524.926 C673.146278,1524.926 675.730278,1522.206 675.730278,1518.738 C675.730278,1515.168 673.146278,1512.482 669.746278,1512.482 Z M690.512958,1510.068 C694.422958,1510.068 696.666958,1512.754 696.666958,1516.596 L696.666958,1527 L694.048958,1527 L694.048958,1516.902 C694.048958,1514.284 692.484958,1512.482 689.934958,1512.482 C687.384958,1512.482 685.582958,1514.318 685.582958,1516.902 L685.582958,1527 L682.964958,1527 L682.964958,1510.442 L685.412958,1510.442 L685.412958,1512.244 C686.568958,1510.884 688.370958,1510.068 690.512958,1510.068 Z M709.715639,1510.068 C713.625639,1510.068 715.869639,1512.754 715.869639,1516.596 L715.869639,1527 L713.251639,1527 L713.251639,1516.902 C713.251639,1514.284 711.687639,1512.482 709.137639,1512.482 C706.587639,1512.482 704.785639,1514.318 704.785639,1516.902 L704.785639,1527 L702.167639,1527 L702.167639,1510.442 L704.615639,1510.442 L704.615639,1512.244 C705.771639,1510.884 707.573639,1510.068 709.715639,1510.068 Z M736.194319,1517.548 C736.194319,1518.432 736.058319,1519.214 735.990319,1519.52 L722.934319,1519.52 C723.274319,1522.818 725.722319,1524.96 728.986319,1524.96 C731.060319,1524.96 732.692319,1524.076 734.052319,1522.716 L735.582319,1524.484 C733.916319,1526.252 731.672319,1527.374 728.952319,1527.374 C723.954319,1527.374 720.180319,1523.6 720.180319,1518.738 C720.180319,1513.91 723.886319,1510.068 728.646319,1510.068 C732.896319,1510.068 736.194319,1513.128 736.194319,1517.548 Z M728.578319,1512.448 C725.790319,1512.448 723.580319,1514.352 723.036319,1517.208 L733.508319,1517.208 C733.474319,1514.148 731.230319,1512.448 728.578319,1512.448 Z M748.223,1510.068 C751.215,1510.068 753.595,1511.496 755.057,1513.672 L753.187,1515.168 C751.963,1513.536 750.399,1512.482 748.257,1512.482 C744.789,1512.482 742.239,1515.236 742.239,1518.704 C742.239,1522.206 744.789,1524.96 748.257,1524.96 C750.365,1524.96 751.929,1523.94 753.153,1522.308 L755.023,1523.77 C753.561,1525.946 751.181,1527.374 748.223,1527.374 C743.395,1527.374 739.553,1523.566 739.553,1518.704 C739.553,1513.876 743.395,1510.068 748.223,1510.068 Z M766.269681,1524.994 C766.915681,1524.994 767.629681,1524.926 768.479681,1524.79 L768.479681,1527 C767.629681,1527.204 766.779681,1527.374 765.725681,1527.374 C762.461681,1527.374 760.149681,1525.776 760.149681,1522.002 L760.149681,1512.788 L757.361681,1512.788 L757.361681,1510.442 L760.149681,1510.442 L760.149681,1505.92 L762.767681,1505.92 L762.767681,1510.442 L767.935681,1510.442 L767.935681,1512.788 L762.767681,1512.788 L762.767681,1521.832 C762.767681,1524.314 764.195681,1524.994 766.269681,1524.994 Z M786.832361,1517.548 C786.832361,1518.432 786.696361,1519.214 786.628361,1519.52 L773.572361,1519.52 C773.912361,1522.818 776.360361,1524.96 779.624361,1524.96 C781.698361,1524.96 783.330361,1524.076 784.690361,1522.716 L786.220361,1524.484 C784.554361,1526.252 782.310361,1527.374 779.590361,1527.374 C774.592361,1527.374 770.818361,1523.6 770.818361,1518.738 C770.818361,1513.91 774.524361,1510.068 779.284361,1510.068 C783.534361,1510.068 786.832361,1513.128 786.832361,1517.548 Z M779.216361,1512.448 C776.428361,1512.448 774.218361,1514.352 773.674361,1517.208 L784.146361,1517.208 C784.112361,1514.148 781.868361,1512.448 779.216361,1512.448 Z M804.505042,1501.5 L807.123042,1501.5 L807.123042,1527 L804.641042,1527 L804.641042,1524.348 C803.349042,1526.252 801.003042,1527.374 798.385042,1527.374 C793.659042,1527.374 790.191042,1523.6 790.191042,1518.738 C790.191042,1513.842 793.659042,1510.068 798.385042,1510.068 C800.901042,1510.068 803.179042,1511.122 804.505042,1512.89 L804.505042,1501.5 Z M798.759042,1524.96 C801.615042,1524.96 804.539042,1523.09 804.539042,1518.738 C804.539042,1514.386 801.615042,1512.482 798.759042,1512.482 C795.393042,1512.482 792.877042,1515.1 792.877042,1518.704 C792.877042,1522.308 795.359042,1524.96 798.759042,1524.96 Z M829.140403,1524.994 C829.786403,1524.994 830.500403,1524.926 831.350403,1524.79 L831.350403,1527 C830.500403,1527.204 829.650403,1527.374 828.596403,1527.374 C825.332403,1527.374 823.020403,1525.776 823.020403,1522.002 L823.020403,1512.788 L820.232403,1512.788 L820.232403,1510.442 L823.020403,1510.442 L823.020403,1505.92 L825.638403,1505.92 L825.638403,1510.442 L830.806403,1510.442 L830.806403,1512.788 L825.638403,1512.788 L825.638403,1521.832 C825.638403,1524.314 827.066403,1524.994 829.140403,1524.994 Z M842.359083,1510.068 C847.153083,1510.068 851.029083,1513.842 851.029083,1518.704 C851.029083,1523.532 847.153083,1527.34 842.325083,1527.34 C837.531083,1527.306 833.689083,1523.566 833.689083,1518.704 C833.689083,1513.842 837.497083,1510.068 842.359083,1510.068 Z M842.359083,1512.482 C838.891083,1512.482 836.341083,1515.202 836.375083,1518.738 C836.375083,1522.24 838.891083,1524.926 842.325083,1524.926 C845.759083,1524.926 848.343083,1522.206 848.343083,1518.738 C848.343083,1515.168 845.759083,1512.482 842.359083,1512.482 Z M871.890444,1524.994 C872.536444,1524.994 873.250444,1524.926 874.100444,1524.79 L874.100444,1527 C873.250444,1527.204 872.400444,1527.374 871.346444,1527.374 C868.082444,1527.374 865.770444,1525.776 865.770444,1522.002 L865.770444,1512.788 L862.982444,1512.788 L862.982444,1510.442 L865.770444,1510.442 L865.770444,1505.92 L868.388444,1505.92 L868.388444,1510.442 L873.556444,1510.442 L873.556444,1512.788 L868.388444,1512.788 L868.388444,1521.832 C868.388444,1524.314 869.816444,1524.994 871.890444,1524.994 Z M885.551125,1510.068 C889.427125,1510.068 891.671125,1512.754 891.671125,1516.596 L891.671125,1527 L889.053125,1527 L889.053125,1516.936 C889.053125,1514.318 887.489125,1512.482 884.939125,1512.482 C882.389125,1512.482 880.587125,1514.352 880.587125,1516.936 L880.587125,1527 L877.969125,1527 L877.969125,1501.5 L880.587125,1501.5 L880.587125,1512.312 C881.675125,1510.918 883.409125,1510.068 885.551125,1510.068 Z M911.995806,1517.548 C911.995806,1518.432 911.859806,1519.214 911.791806,1519.52 L898.735806,1519.52 C899.075806,1522.818 901.523806,1524.96 904.787806,1524.96 C906.861806,1524.96 908.493806,1524.076 909.853806,1522.716 L911.383806,1524.484 C909.717806,1526.252 907.473806,1527.374 904.753806,1527.374 C899.755806,1527.374 895.981806,1523.6 895.981806,1518.738 C895.981806,1513.91 899.687806,1510.068 904.447806,1510.068 C908.697806,1510.068 911.995806,1513.128 911.995806,1517.548 Z M904.379806,1512.448 C901.591806,1512.448 899.381806,1514.352 898.837806,1517.208 L909.309806,1517.208 C909.275806,1514.148 907.031806,1512.448 904.379806,1512.448 Z M931.021167,1510.068 C933.401167,1510.068 935.271167,1511.088 936.563167,1512.686 L934.965167,1514.318 C933.877167,1513.196 932.449167,1512.482 930.885167,1512.482 C929.321167,1512.482 928.131167,1513.196 928.131167,1514.556 C928.131167,1515.678 928.981167,1516.222 930.817167,1516.97 L932.347167,1517.616 C935.339167,1518.874 936.733167,1520.166 936.733167,1522.512 C936.733167,1525.742 933.979167,1527.374 930.919167,1527.374 C927.995167,1527.374 925.785167,1525.912 924.459167,1524.144 L926.125167,1522.41 C927.485167,1523.838 928.879167,1524.96 930.885167,1524.96 C932.619167,1524.96 934.047167,1524.11 934.047167,1522.614 C934.047167,1521.186 932.823167,1520.642 931.157167,1519.962 L929.559167,1519.282 C927.043167,1518.228 925.445167,1517.072 925.445167,1514.692 C925.445167,1511.7 927.995167,1510.068 931.021167,1510.068 Z M956.241847,1517.548 C956.241847,1518.432 956.105847,1519.214 956.037847,1519.52 L942.981847,1519.52 C943.321847,1522.818 945.769847,1524.96 949.033847,1524.96 C951.107847,1524.96 952.739847,1524.076 954.099847,1522.716 L955.629847,1524.484 C953.963847,1526.252 951.719847,1527.374 948.999847,1527.374 C944.001847,1527.374 940.227847,1523.6 940.227847,1518.738 C940.227847,1513.91 943.933847,1510.068 948.693847,1510.068 C952.943847,1510.068 956.241847,1513.128 956.241847,1517.548 Z M948.625847,1512.448 C945.837847,1512.448 943.627847,1514.352 943.083847,1517.208 L953.555847,1517.208 C953.521847,1514.148 951.277847,1512.448 948.625847,1512.448 Z M968.372528,1510.306 C968.916528,1510.306 969.256528,1510.374 969.596528,1510.442 L969.596528,1512.754 L968.610528,1512.754 C965.924528,1512.754 963.408528,1514.454 963.408528,1517.616 L963.408528,1527 L960.790528,1527 L960.790528,1510.442 L963.238528,1510.442 L963.238528,1512.822 C964.462528,1511.19 966.400528,1510.306 968.372528,1510.306 Z M984.821208,1510.442 L987.609208,1510.442 L979.823208,1527.374 L978.871208,1527.374 L971.051208,1510.442 L973.839208,1510.442 L979.347208,1522.92 L984.821208,1510.442 Z M1005.48589,1517.548 C1005.48589,1518.432 1005.34989,1519.214 1005.28189,1519.52 L992.225889,1519.52 C992.565889,1522.818 995.013889,1524.96 998.277889,1524.96 C1000.35189,1524.96 1001.98389,1524.076 1003.34389,1522.716 L1004.87389,1524.484 C1003.20789,1526.252 1000.96389,1527.374 998.243889,1527.374 C993.245889,1527.374 989.471889,1523.6 989.471889,1518.738 C989.471889,1513.91 993.177889,1510.068 997.937889,1510.068 C1002.18789,1510.068 1005.48589,1513.128 1005.48589,1517.548 Z M997.869889,1512.448 C995.081889,1512.448 992.871889,1514.352 992.327889,1517.208 L1002.79989,1517.208 C1002.76589,1514.148 1000.52189,1512.448 997.869889,1512.448 Z M1017.61657,1510.306 C1018.16057,1510.306 1018.50057,1510.374 1018.84057,1510.442 L1018.84057,1512.754 L1017.85457,1512.754 C1015.16857,1512.754 1012.65257,1514.454 1012.65257,1517.616 L1012.65257,1527 L1010.03457,1527 L1010.03457,1510.442 L1012.48257,1510.442 L1012.48257,1512.822 C1013.70657,1511.19 1015.64457,1510.306 1017.61657,1510.306 Z M1021.92725,1523.09 C1023.08325,1523.09 1024.06925,1523.974 1024.06925,1525.232 C1024.06925,1526.49 1023.08325,1527.374 1021.92725,1527.374 C1020.77125,1527.374 1019.78525,1526.49 1019.78525,1525.232 C1019.78525,1523.974 1020.77125,1523.09 1021.92725,1523.09 Z" id="bmw5"></path>
        </g>
    </g>
</svg>