<?xml version="1.0" encoding="UTF-8"?>
<svg width="874px" height="156px" viewBox="0 0 874 156" version="1.1" xmlns="http://www.w3.org/2000/svg" xmlns:xlink="http://www.w3.org/1999/xlink">
    <!-- Generator: Sketch 54.1 (76490) - https://sketchapp.com -->
    <title>Asidefromdevelopment,somecampaignsrequiredcustomdesignedcontent.OneexamplewasaninstructionalmotiondesignIcreatedthatshowedusershowtodropapinonthemap.</title>
    <desc>Created with Sketch.</desc>
    <g id="Page-1" stroke="none" stroke-width="1" fill="none" fill-rule="evenodd">
        <g id="Desktop-HD-Copy-32" transform="translate(-283.000000, -1364.000000)" fill="#404648" fill-rule="nonzero">
            <path d="M331.193,1390 L329.255,1385.444 L318.307,1385.444 L316.369,1390 L313.581,1390 L323.305,1367.186 L324.291,1367.186 L334.015,1390 L331.193,1390 Z M328.269,1383.064 L323.781,1372.048 L319.293,1383.064 L328.269,1383.064 Z M342.957,1373.068 C345.337,1373.068 347.207,1374.088 348.499,1375.686 L346.901,1377.318 C345.813,1376.196 344.385,1375.482 342.821,1375.482 C341.257,1375.482 340.067,1376.196 340.067,1377.556 C340.067,1378.678 340.917,1379.222 342.753,1379.97 L344.283,1380.616 C347.275,1381.874 348.669,1383.166 348.669,1385.512 C348.669,1388.742 345.915,1390.374 342.855,1390.374 C339.931,1390.374 337.721,1388.912 336.395,1387.144 L338.061,1385.41 C339.421,1386.838 340.815,1387.96 342.821,1387.96 C344.555,1387.96 345.983,1387.11 345.983,1385.614 C345.983,1384.186 344.759,1383.642 343.093,1382.962 L341.495,1382.282 C338.979,1381.228 337.381,1380.072 337.381,1377.692 C337.381,1374.7 339.931,1373.068 342.957,1373.068 Z M354.721,1365.214 C355.775,1365.214 356.659,1366.064 356.659,1367.118 C356.659,1368.206 355.775,1369.022 354.721,1369.022 C353.599,1369.022 352.749,1368.206 352.749,1367.118 C352.749,1366.064 353.599,1365.214 354.721,1365.214 Z M356.013,1373.442 L356.013,1390 L353.395,1390 L353.395,1373.442 L356.013,1373.442 Z M374.883,1364.5 L377.501,1364.5 L377.501,1390 L375.019,1390 L375.019,1387.348 C373.727,1389.252 371.381,1390.374 368.763,1390.374 C364.037,1390.374 360.569,1386.6 360.569,1381.738 C360.569,1376.842 364.037,1373.068 368.763,1373.068 C371.279,1373.068 373.557,1374.122 374.883,1375.89 L374.883,1364.5 Z M369.137,1387.96 C371.993,1387.96 374.917,1386.09 374.917,1381.738 C374.917,1377.386 371.993,1375.482 369.137,1375.482 C365.771,1375.482 363.255,1378.1 363.255,1381.704 C363.255,1385.308 365.737,1387.96 369.137,1387.96 Z M398.071,1380.548 C398.071,1381.432 397.935,1382.214 397.867,1382.52 L384.811,1382.52 C385.151,1385.818 387.599,1387.96 390.863,1387.96 C392.937,1387.96 394.569,1387.076 395.929,1385.716 L397.459,1387.484 C395.793,1389.252 393.549,1390.374 390.829,1390.374 C385.831,1390.374 382.057,1386.6 382.057,1381.738 C382.057,1376.91 385.763,1373.068 390.523,1373.068 C394.773,1373.068 398.071,1376.128 398.071,1380.548 Z M390.455,1375.448 C387.667,1375.448 385.457,1377.352 384.913,1380.208 L395.385,1380.208 C395.351,1377.148 393.107,1375.448 390.455,1375.448 Z M418.675,1366.506 C416.635,1366.506 415.207,1367.186 415.207,1369.668 L415.207,1373.442 L419.355,1373.442 L419.355,1375.788 L415.207,1375.788 L415.207,1390 L412.589,1390 L412.589,1375.788 L410.209,1375.788 L410.209,1373.442 L412.589,1373.442 L412.589,1369.498 C412.589,1365.724 414.867,1364.126 418.063,1364.126 C418.879,1364.126 419.525,1364.228 420.137,1364.398 L420.137,1366.608 C419.593,1366.54 419.117,1366.506 418.675,1366.506 Z M430.065,1373.306 C430.609,1373.306 430.949,1373.374 431.289,1373.442 L431.289,1375.754 L430.303,1375.754 C427.617,1375.754 425.101,1377.454 425.101,1380.616 L425.101,1390 L422.483,1390 L422.483,1373.442 L424.931,1373.442 L424.931,1375.822 C426.155,1374.19 428.093,1373.306 430.065,1373.306 Z M441.931,1373.068 C446.725,1373.068 450.601,1376.842 450.601,1381.704 C450.601,1386.532 446.725,1390.34 441.897,1390.34 C437.103,1390.306 433.261,1386.566 433.261,1381.704 C433.261,1376.842 437.069,1373.068 441.931,1373.068 Z M441.931,1375.482 C438.463,1375.482 435.913,1378.202 435.947,1381.738 C435.947,1385.24 438.463,1387.926 441.897,1387.926 C445.331,1387.926 447.915,1385.206 447.915,1381.738 C447.915,1378.168 445.331,1375.482 441.931,1375.482 Z M473.347,1373.068 C477.223,1373.068 479.365,1375.754 479.365,1379.596 L479.365,1390 L476.747,1390 L476.747,1379.936 C476.747,1377.318 475.319,1375.482 472.837,1375.482 C470.321,1375.482 468.587,1377.386 468.587,1379.698 L468.587,1390 L465.969,1390 L465.969,1379.936 C465.969,1377.318 464.473,1375.482 462.025,1375.482 C459.509,1375.482 457.809,1377.318 457.809,1379.936 L457.809,1390 L455.191,1390 L455.191,1373.442 L457.639,1373.442 L457.639,1375.176 C458.795,1373.85 460.495,1373.068 462.569,1373.068 C465.051,1373.068 466.751,1374.19 467.669,1375.924 C468.825,1374.258 470.797,1373.068 473.347,1373.068 Z M507.551,1364.5 L510.169,1364.5 L510.169,1390 L507.687,1390 L507.687,1387.348 C506.395,1389.252 504.049,1390.374 501.431,1390.374 C496.705,1390.374 493.237,1386.6 493.237,1381.738 C493.237,1376.842 496.705,1373.068 501.431,1373.068 C503.947,1373.068 506.225,1374.122 507.551,1375.89 L507.551,1364.5 Z M501.805,1387.96 C504.661,1387.96 507.585,1386.09 507.585,1381.738 C507.585,1377.386 504.661,1375.482 501.805,1375.482 C498.439,1375.482 495.923,1378.1 495.923,1381.704 C495.923,1385.308 498.405,1387.96 501.805,1387.96 Z M530.739,1380.548 C530.739,1381.432 530.603,1382.214 530.535,1382.52 L517.479,1382.52 C517.819,1385.818 520.267,1387.96 523.531,1387.96 C525.605,1387.96 527.237,1387.076 528.597,1385.716 L530.127,1387.484 C528.461,1389.252 526.217,1390.374 523.497,1390.374 C518.499,1390.374 514.725,1386.6 514.725,1381.738 C514.725,1376.91 518.431,1373.068 523.191,1373.068 C527.441,1373.068 530.739,1376.128 530.739,1380.548 Z M523.123,1375.448 C520.335,1375.448 518.125,1377.352 517.581,1380.208 L528.053,1380.208 C528.019,1377.148 525.775,1375.448 523.123,1375.448 Z M546.413,1373.442 L549.201,1373.442 L541.415,1390.374 L540.463,1390.374 L532.643,1373.442 L535.431,1373.442 L540.939,1385.92 L546.413,1373.442 Z M567.119,1380.548 C567.119,1381.432 566.983,1382.214 566.915,1382.52 L553.859,1382.52 C554.199,1385.818 556.647,1387.96 559.911,1387.96 C561.985,1387.96 563.617,1387.076 564.977,1385.716 L566.507,1387.484 C564.841,1389.252 562.597,1390.374 559.877,1390.374 C554.879,1390.374 551.105,1386.6 551.105,1381.738 C551.105,1376.91 554.811,1373.068 559.571,1373.068 C563.821,1373.068 567.119,1376.128 567.119,1380.548 Z M559.503,1375.448 C556.715,1375.448 554.505,1377.352 553.961,1380.208 L564.433,1380.208 C564.399,1377.148 562.155,1375.448 559.503,1375.448 Z M574.327,1364.5 L574.327,1390 L571.709,1390 L571.709,1364.5 L574.327,1364.5 Z M587.553,1373.068 C592.347,1373.068 596.223,1376.842 596.223,1381.704 C596.223,1386.532 592.347,1390.34 587.519,1390.34 C582.725,1390.306 578.883,1386.566 578.883,1381.704 C578.883,1376.842 582.691,1373.068 587.553,1373.068 Z M587.553,1375.482 C584.085,1375.482 581.535,1378.202 581.569,1381.738 C581.569,1385.24 584.085,1387.926 587.519,1387.926 C590.953,1387.926 593.537,1385.206 593.537,1381.738 C593.537,1378.168 590.953,1375.482 587.553,1375.482 Z M609.517,1373.068 C614.277,1373.068 617.711,1376.842 617.711,1381.704 C617.711,1386.6 614.243,1390.374 609.517,1390.374 C607.069,1390.374 604.757,1389.354 603.431,1387.586 L603.431,1396.12 L600.813,1396.12 L600.813,1373.442 L603.261,1373.442 L603.261,1376.094 C604.553,1374.19 606.899,1373.068 609.517,1373.068 Z M609.143,1387.96 C612.509,1387.96 615.025,1385.342 615.025,1381.738 C615.025,1378.134 612.543,1375.482 609.143,1375.482 C606.287,1375.482 603.397,1377.352 603.397,1381.704 C603.397,1386.056 606.253,1387.96 609.143,1387.96 Z M640.457,1373.068 C644.333,1373.068 646.475,1375.754 646.475,1379.596 L646.475,1390 L643.857,1390 L643.857,1379.936 C643.857,1377.318 642.429,1375.482 639.947,1375.482 C637.431,1375.482 635.697,1377.386 635.697,1379.698 L635.697,1390 L633.079,1390 L633.079,1379.936 C633.079,1377.318 631.583,1375.482 629.135,1375.482 C626.619,1375.482 624.919,1377.318 624.919,1379.936 L624.919,1390 L622.301,1390 L622.301,1373.442 L624.749,1373.442 L624.749,1375.176 C625.905,1373.85 627.605,1373.068 629.679,1373.068 C632.161,1373.068 633.861,1374.19 634.779,1375.924 C635.935,1374.258 637.907,1373.068 640.457,1373.068 Z M666.841,1380.548 C666.841,1381.432 666.705,1382.214 666.637,1382.52 L653.581,1382.52 C653.921,1385.818 656.369,1387.96 659.633,1387.96 C661.707,1387.96 663.339,1387.076 664.699,1385.716 L666.229,1387.484 C664.563,1389.252 662.319,1390.374 659.599,1390.374 C654.601,1390.374 650.827,1386.6 650.827,1381.738 C650.827,1376.91 654.533,1373.068 659.293,1373.068 C663.543,1373.068 666.841,1376.128 666.841,1380.548 Z M659.225,1375.448 C656.437,1375.448 654.227,1377.352 653.683,1380.208 L664.155,1380.208 C664.121,1377.148 661.877,1375.448 659.225,1375.448 Z M678.979,1373.068 C682.889,1373.068 685.133,1375.754 685.133,1379.596 L685.133,1390 L682.515,1390 L682.515,1379.902 C682.515,1377.284 680.951,1375.482 678.401,1375.482 C675.851,1375.482 674.049,1377.318 674.049,1379.902 L674.049,1390 L671.431,1390 L671.431,1373.442 L673.879,1373.442 L673.879,1375.244 C675.035,1373.884 676.837,1373.068 678.979,1373.068 Z M697.509,1387.994 C698.155,1387.994 698.869,1387.926 699.719,1387.79 L699.719,1390 C698.869,1390.204 698.019,1390.374 696.965,1390.374 C693.701,1390.374 691.389,1388.776 691.389,1385.002 L691.389,1375.788 L688.601,1375.788 L688.601,1373.442 L691.389,1373.442 L691.389,1368.92 L694.007,1368.92 L694.007,1373.442 L699.175,1373.442 L699.175,1375.788 L694.007,1375.788 L694.007,1384.832 C694.007,1387.314 695.435,1387.994 697.509,1387.994 Z M707.165,1386.94 L705.771,1396.086 L703.629,1396.086 L704.071,1386.94 L707.165,1386.94 Z M727.327,1373.068 C729.707,1373.068 731.577,1374.088 732.869,1375.686 L731.271,1377.318 C730.183,1376.196 728.755,1375.482 727.191,1375.482 C725.627,1375.482 724.437,1376.196 724.437,1377.556 C724.437,1378.678 725.287,1379.222 727.123,1379.97 L728.653,1380.616 C731.645,1381.874 733.039,1383.166 733.039,1385.512 C733.039,1388.742 730.285,1390.374 727.225,1390.374 C724.301,1390.374 722.091,1388.912 720.765,1387.144 L722.431,1385.41 C723.791,1386.838 725.185,1387.96 727.191,1387.96 C728.925,1387.96 730.353,1387.11 730.353,1385.614 C730.353,1384.186 729.129,1383.642 727.463,1382.962 L725.865,1382.282 C723.349,1381.228 721.751,1380.072 721.751,1377.692 C721.751,1374.7 724.301,1373.068 727.327,1373.068 Z M745.245,1373.068 C750.039,1373.068 753.915,1376.842 753.915,1381.704 C753.915,1386.532 750.039,1390.34 745.211,1390.34 C740.417,1390.306 736.575,1386.566 736.575,1381.704 C736.575,1376.842 740.383,1373.068 745.245,1373.068 Z M745.245,1375.482 C741.777,1375.482 739.227,1378.202 739.261,1381.738 C739.261,1385.24 741.777,1387.926 745.211,1387.926 C748.645,1387.926 751.229,1385.206 751.229,1381.738 C751.229,1378.168 748.645,1375.482 745.245,1375.482 Z M776.661,1373.068 C780.537,1373.068 782.679,1375.754 782.679,1379.596 L782.679,1390 L780.061,1390 L780.061,1379.936 C780.061,1377.318 778.633,1375.482 776.151,1375.482 C773.635,1375.482 771.901,1377.386 771.901,1379.698 L771.901,1390 L769.283,1390 L769.283,1379.936 C769.283,1377.318 767.787,1375.482 765.339,1375.482 C762.823,1375.482 761.123,1377.318 761.123,1379.936 L761.123,1390 L758.505,1390 L758.505,1373.442 L760.953,1373.442 L760.953,1375.176 C762.109,1373.85 763.809,1373.068 765.883,1373.068 C768.365,1373.068 770.065,1374.19 770.983,1375.924 C772.139,1374.258 774.111,1373.068 776.661,1373.068 Z M803.045,1380.548 C803.045,1381.432 802.909,1382.214 802.841,1382.52 L789.785,1382.52 C790.125,1385.818 792.573,1387.96 795.837,1387.96 C797.911,1387.96 799.543,1387.076 800.903,1385.716 L802.433,1387.484 C800.767,1389.252 798.523,1390.374 795.803,1390.374 C790.805,1390.374 787.031,1386.6 787.031,1381.738 C787.031,1376.91 790.737,1373.068 795.497,1373.068 C799.747,1373.068 803.045,1376.128 803.045,1380.548 Z M795.429,1375.448 C792.641,1375.448 790.431,1377.352 789.887,1380.208 L800.359,1380.208 C800.325,1377.148 798.081,1375.448 795.429,1375.448 Z M824.635,1373.068 C827.627,1373.068 830.007,1374.496 831.469,1376.672 L829.599,1378.168 C828.375,1376.536 826.811,1375.482 824.669,1375.482 C821.201,1375.482 818.651,1378.236 818.651,1381.704 C818.651,1385.206 821.201,1387.96 824.669,1387.96 C826.777,1387.96 828.341,1386.94 829.565,1385.308 L831.435,1386.77 C829.973,1388.946 827.593,1390.374 824.635,1390.374 C819.807,1390.374 815.965,1386.566 815.965,1381.704 C815.965,1376.876 819.807,1373.068 824.635,1373.068 Z M841.839,1373.068 C845.613,1373.068 848.299,1375.346 848.299,1379.8 L848.299,1390 L845.851,1390 L845.851,1387.858 C844.661,1389.456 842.723,1390.374 840.275,1390.374 C836.943,1390.374 834.495,1388.606 834.495,1385.716 C834.495,1382.928 836.841,1381.092 840.445,1381.092 L845.681,1381.092 L845.681,1379.664 C845.681,1376.876 844.117,1375.482 841.669,1375.482 C839.595,1375.482 838.133,1376.468 836.841,1378.134 L835.107,1376.706 C836.671,1374.19 839.187,1373.068 841.839,1373.068 Z M840.615,1388.198 C843.335,1388.198 845.681,1386.226 845.681,1383.642 L845.681,1383.234 L840.751,1383.234 C838.439,1383.234 837.181,1384.016 837.181,1385.58 C837.181,1387.348 838.779,1388.198 840.615,1388.198 Z M871.997,1373.068 C875.873,1373.068 878.015,1375.754 878.015,1379.596 L878.015,1390 L875.397,1390 L875.397,1379.936 C875.397,1377.318 873.969,1375.482 871.487,1375.482 C868.971,1375.482 867.237,1377.386 867.237,1379.698 L867.237,1390 L864.619,1390 L864.619,1379.936 C864.619,1377.318 863.123,1375.482 860.675,1375.482 C858.159,1375.482 856.459,1377.318 856.459,1379.936 L856.459,1390 L853.841,1390 L853.841,1373.442 L856.289,1373.442 L856.289,1375.176 C857.445,1373.85 859.145,1373.068 861.219,1373.068 C863.701,1373.068 865.401,1374.19 866.319,1375.924 C867.475,1374.258 869.447,1373.068 871.997,1373.068 Z M892.261,1373.068 C897.021,1373.068 900.455,1376.842 900.455,1381.704 C900.455,1386.6 896.987,1390.374 892.261,1390.374 C889.813,1390.374 887.501,1389.354 886.175,1387.586 L886.175,1396.12 L883.557,1396.12 L883.557,1373.442 L886.005,1373.442 L886.005,1376.094 C887.297,1374.19 889.643,1373.068 892.261,1373.068 Z M891.887,1387.96 C895.253,1387.96 897.769,1385.342 897.769,1381.738 C897.769,1378.134 895.287,1375.482 891.887,1375.482 C889.031,1375.482 886.141,1377.352 886.141,1381.704 C886.141,1386.056 888.997,1387.96 891.887,1387.96 Z M910.995,1373.068 C914.769,1373.068 917.455,1375.346 917.455,1379.8 L917.455,1390 L915.007,1390 L915.007,1387.858 C913.817,1389.456 911.879,1390.374 909.431,1390.374 C906.099,1390.374 903.651,1388.606 903.651,1385.716 C903.651,1382.928 905.997,1381.092 909.601,1381.092 L914.837,1381.092 L914.837,1379.664 C914.837,1376.876 913.273,1375.482 910.825,1375.482 C908.751,1375.482 907.289,1376.468 905.997,1378.134 L904.263,1376.706 C905.827,1374.19 908.343,1373.068 910.995,1373.068 Z M909.771,1388.198 C912.491,1388.198 914.837,1386.226 914.837,1383.642 L914.837,1383.234 L909.907,1383.234 C907.595,1383.234 906.337,1384.016 906.337,1385.58 C906.337,1387.348 907.935,1388.198 909.771,1388.198 Z M924.323,1365.214 C925.377,1365.214 926.261,1366.064 926.261,1367.118 C926.261,1368.206 925.377,1369.022 924.323,1369.022 C923.201,1369.022 922.351,1368.206 922.351,1367.118 C922.351,1366.064 923.201,1365.214 924.323,1365.214 Z M925.615,1373.442 L925.615,1390 L922.997,1390 L922.997,1373.442 L925.615,1373.442 Z M944.791,1373.442 L947.273,1373.442 L947.273,1388.402 C947.273,1393.502 944.043,1396.494 939.215,1396.494 C935.747,1396.494 933.061,1394.93 931.429,1393.298 L932.959,1391.462 C934.557,1392.856 936.427,1394.08 939.147,1394.08 C942.513,1394.08 944.655,1392.21 944.655,1388.538 L944.655,1387.076 C943.295,1388.81 940.983,1389.83 938.501,1389.83 C933.843,1389.83 930.375,1386.294 930.375,1381.466 C930.375,1376.672 933.843,1373.068 938.501,1373.068 C941.119,1373.068 943.499,1374.224 944.791,1376.128 L944.791,1373.442 Z M938.909,1387.416 C941.799,1387.416 944.689,1385.614 944.689,1381.466 C944.689,1377.318 941.765,1375.55 938.909,1375.55 C935.543,1375.55 933.027,1377.998 933.027,1381.5 C933.027,1385.002 935.543,1387.416 938.909,1387.416 Z M960.567,1373.068 C964.477,1373.068 966.721,1375.754 966.721,1379.596 L966.721,1390 L964.103,1390 L964.103,1379.902 C964.103,1377.284 962.539,1375.482 959.989,1375.482 C957.439,1375.482 955.637,1377.318 955.637,1379.902 L955.637,1390 L953.019,1390 L953.019,1373.442 L955.467,1373.442 L955.467,1375.244 C956.623,1373.884 958.425,1373.068 960.567,1373.068 Z M977.261,1373.068 C979.641,1373.068 981.511,1374.088 982.803,1375.686 L981.205,1377.318 C980.117,1376.196 978.689,1375.482 977.125,1375.482 C975.561,1375.482 974.371,1376.196 974.371,1377.556 C974.371,1378.678 975.221,1379.222 977.057,1379.97 L978.587,1380.616 C981.579,1381.874 982.973,1383.166 982.973,1385.512 C982.973,1388.742 980.219,1390.374 977.159,1390.374 C974.235,1390.374 972.025,1388.912 970.699,1387.144 L972.365,1385.41 C973.725,1386.838 975.119,1387.96 977.125,1387.96 C978.859,1387.96 980.287,1387.11 980.287,1385.614 C980.287,1384.186 979.063,1383.642 977.397,1382.962 L975.799,1382.282 C973.283,1381.228 971.685,1380.072 971.685,1377.692 C971.685,1374.7 974.235,1373.068 977.261,1373.068 Z M1004.801,1373.306 C1005.345,1373.306 1005.685,1373.374 1006.025,1373.442 L1006.025,1375.754 L1005.039,1375.754 C1002.353,1375.754 999.837,1377.454 999.837,1380.616 L999.837,1390 L997.219,1390 L997.219,1373.442 L999.667,1373.442 L999.667,1375.822 C1000.891,1374.19 1002.829,1373.306 1004.801,1373.306 Z M1024.011,1380.548 C1024.011,1381.432 1023.875,1382.214 1023.807,1382.52 L1010.751,1382.52 C1011.091,1385.818 1013.539,1387.96 1016.803,1387.96 C1018.877,1387.96 1020.509,1387.076 1021.869,1385.716 L1023.399,1387.484 C1021.733,1389.252 1019.489,1390.374 1016.769,1390.374 C1011.771,1390.374 1007.997,1386.6 1007.997,1381.738 C1007.997,1376.91 1011.703,1373.068 1016.463,1373.068 C1020.713,1373.068 1024.011,1376.128 1024.011,1380.548 Z M1016.395,1375.448 C1013.607,1375.448 1011.397,1377.352 1010.853,1380.208 L1021.325,1380.208 C1021.291,1377.148 1019.047,1375.448 1016.395,1375.448 Z M1041.861,1373.442 L1044.343,1373.442 L1044.343,1396.12 L1041.725,1396.12 L1041.725,1387.586 C1040.365,1389.354 1038.053,1390.374 1035.605,1390.374 C1030.879,1390.374 1027.411,1386.6 1027.411,1381.704 C1027.411,1376.842 1030.879,1373.068 1035.605,1373.068 C1038.223,1373.068 1040.569,1374.224 1041.861,1376.094 L1041.861,1373.442 Z M1035.979,1387.96 C1038.835,1387.96 1041.759,1386.056 1041.759,1381.704 C1041.759,1377.352 1038.835,1375.482 1035.979,1375.482 C1032.579,1375.482 1030.097,1378.168 1030.097,1381.738 C1030.097,1385.342 1032.613,1387.96 1035.979,1387.96 Z M1063.587,1373.442 L1063.587,1383.404 C1063.587,1387.654 1060.561,1390.374 1056.753,1390.374 C1052.877,1390.374 1049.885,1387.654 1049.885,1383.404 L1049.885,1373.442 L1052.469,1373.442 L1052.469,1383.574 C1052.469,1386.294 1054.373,1387.96 1056.753,1387.96 C1059.065,1387.96 1060.969,1386.294 1060.969,1383.574 L1060.969,1373.442 L1063.587,1373.442 Z M1070.455,1365.214 C1071.509,1365.214 1072.393,1366.064 1072.393,1367.118 C1072.393,1368.206 1071.509,1369.022 1070.455,1369.022 C1069.333,1369.022 1068.483,1368.206 1068.483,1367.118 C1068.483,1366.064 1069.333,1365.214 1070.455,1365.214 Z M1071.747,1373.442 L1071.747,1390 L1069.129,1390 L1069.129,1373.442 L1071.747,1373.442 Z M1085.075,1373.306 C1085.619,1373.306 1085.959,1373.374 1086.299,1373.442 L1086.299,1375.754 L1085.313,1375.754 C1082.627,1375.754 1080.111,1377.454 1080.111,1380.616 L1080.111,1390 L1077.493,1390 L1077.493,1373.442 L1079.941,1373.442 L1079.941,1375.822 C1081.165,1374.19 1083.103,1373.306 1085.075,1373.306 Z M1104.285,1380.548 C1104.285,1381.432 1104.149,1382.214 1104.081,1382.52 L1091.025,1382.52 C1091.365,1385.818 1093.813,1387.96 1097.077,1387.96 C1099.151,1387.96 1100.783,1387.076 1102.143,1385.716 L1103.673,1387.484 C1102.007,1389.252 1099.763,1390.374 1097.043,1390.374 C1092.045,1390.374 1088.271,1386.6 1088.271,1381.738 C1088.271,1376.91 1091.977,1373.068 1096.737,1373.068 C1100.987,1373.068 1104.285,1376.128 1104.285,1380.548 Z M1096.669,1375.448 C1093.881,1375.448 1091.671,1377.352 1091.127,1380.208 L1101.599,1380.208 C1101.565,1377.148 1099.321,1375.448 1096.669,1375.448 Z M1121.999,1364.5 L1124.617,1364.5 L1124.617,1390 L1122.135,1390 L1122.135,1387.348 C1120.843,1389.252 1118.497,1390.374 1115.879,1390.374 C1111.153,1390.374 1107.685,1386.6 1107.685,1381.738 C1107.685,1376.842 1111.153,1373.068 1115.879,1373.068 C1118.395,1373.068 1120.673,1374.122 1121.999,1375.89 L1121.999,1364.5 Z M1116.253,1387.96 C1119.109,1387.96 1122.033,1386.09 1122.033,1381.738 C1122.033,1377.386 1119.109,1375.482 1116.253,1375.482 C1112.887,1375.482 1110.371,1378.1 1110.371,1381.704 C1110.371,1385.308 1112.853,1387.96 1116.253,1387.96 Z M356.642,1414.068 C359.634,1414.068 362.014,1415.496 363.476,1417.672 L361.606,1419.168 C360.382,1417.536 358.818,1416.482 356.676,1416.482 C353.208,1416.482 350.658,1419.236 350.658,1422.704 C350.658,1426.206 353.208,1428.96 356.676,1428.96 C358.784,1428.96 360.348,1427.94 361.572,1426.308 L363.442,1427.77 C361.98,1429.946 359.6,1431.374 356.642,1431.374 C351.814,1431.374 347.972,1427.566 347.972,1422.704 C347.972,1417.876 351.814,1414.068 356.642,1414.068 Z M381.394,1414.442 L381.394,1424.404 C381.394,1428.654 378.368,1431.374 374.56,1431.374 C370.684,1431.374 367.692,1428.654 367.692,1424.404 L367.692,1414.442 L370.276,1414.442 L370.276,1424.574 C370.276,1427.294 372.18,1428.96 374.56,1428.96 C376.872,1428.96 378.776,1427.294 378.776,1424.574 L378.776,1414.442 L381.394,1414.442 Z M391.934,1414.068 C394.314,1414.068 396.184,1415.088 397.476,1416.686 L395.878,1418.318 C394.79,1417.196 393.362,1416.482 391.798,1416.482 C390.234,1416.482 389.044,1417.196 389.044,1418.556 C389.044,1419.678 389.894,1420.222 391.73,1420.97 L393.26,1421.616 C396.252,1422.874 397.646,1424.166 397.646,1426.512 C397.646,1429.742 394.892,1431.374 391.832,1431.374 C388.908,1431.374 386.698,1429.912 385.372,1428.144 L387.038,1426.41 C388.398,1427.838 389.792,1428.96 391.798,1428.96 C393.532,1428.96 394.96,1428.11 394.96,1426.614 C394.96,1425.186 393.736,1424.642 392.07,1423.962 L390.472,1423.282 C387.956,1422.228 386.358,1421.072 386.358,1418.692 C386.358,1415.7 388.908,1414.068 391.934,1414.068 Z M409.206,1428.994 C409.852,1428.994 410.566,1428.926 411.416,1428.79 L411.416,1431 C410.566,1431.204 409.716,1431.374 408.662,1431.374 C405.398,1431.374 403.086,1429.776 403.086,1426.002 L403.086,1416.788 L400.298,1416.788 L400.298,1414.442 L403.086,1414.442 L403.086,1409.92 L405.704,1409.92 L405.704,1414.442 L410.872,1414.442 L410.872,1416.788 L405.704,1416.788 L405.704,1425.832 C405.704,1428.314 407.132,1428.994 409.206,1428.994 Z M422.466,1414.068 C427.26,1414.068 431.136,1417.842 431.136,1422.704 C431.136,1427.532 427.26,1431.34 422.432,1431.34 C417.638,1431.306 413.796,1427.566 413.796,1422.704 C413.796,1417.842 417.604,1414.068 422.466,1414.068 Z M422.466,1416.482 C418.998,1416.482 416.448,1419.202 416.482,1422.738 C416.482,1426.24 418.998,1428.926 422.432,1428.926 C425.866,1428.926 428.45,1426.206 428.45,1422.738 C428.45,1419.168 425.866,1416.482 422.466,1416.482 Z M453.882,1414.068 C457.758,1414.068 459.9,1416.754 459.9,1420.596 L459.9,1431 L457.282,1431 L457.282,1420.936 C457.282,1418.318 455.854,1416.482 453.372,1416.482 C450.856,1416.482 449.122,1418.386 449.122,1420.698 L449.122,1431 L446.504,1431 L446.504,1420.936 C446.504,1418.318 445.008,1416.482 442.56,1416.482 C440.044,1416.482 438.344,1418.318 438.344,1420.936 L438.344,1431 L435.726,1431 L435.726,1414.442 L438.174,1414.442 L438.174,1416.176 C439.33,1414.85 441.03,1414.068 443.104,1414.068 C445.586,1414.068 447.286,1415.19 448.204,1416.924 C449.36,1415.258 451.332,1414.068 453.882,1414.068 Z M488.086,1405.5 L490.704,1405.5 L490.704,1431 L488.222,1431 L488.222,1428.348 C486.93,1430.252 484.584,1431.374 481.966,1431.374 C477.24,1431.374 473.772,1427.6 473.772,1422.738 C473.772,1417.842 477.24,1414.068 481.966,1414.068 C484.482,1414.068 486.76,1415.122 488.086,1416.89 L488.086,1405.5 Z M482.34,1428.96 C485.196,1428.96 488.12,1427.09 488.12,1422.738 C488.12,1418.386 485.196,1416.482 482.34,1416.482 C478.974,1416.482 476.458,1419.1 476.458,1422.704 C476.458,1426.308 478.94,1428.96 482.34,1428.96 Z M511.274,1421.548 C511.274,1422.432 511.138,1423.214 511.07,1423.52 L498.014,1423.52 C498.354,1426.818 500.802,1428.96 504.066,1428.96 C506.14,1428.96 507.772,1428.076 509.132,1426.716 L510.662,1428.484 C508.996,1430.252 506.752,1431.374 504.032,1431.374 C499.034,1431.374 495.26,1427.6 495.26,1422.738 C495.26,1417.91 498.966,1414.068 503.726,1414.068 C507.976,1414.068 511.274,1417.128 511.274,1421.548 Z M503.658,1416.448 C500.87,1416.448 498.66,1418.352 498.116,1421.208 L508.588,1421.208 C508.554,1418.148 506.31,1416.448 503.658,1416.448 Z M520.862,1414.068 C523.242,1414.068 525.112,1415.088 526.404,1416.686 L524.806,1418.318 C523.718,1417.196 522.29,1416.482 520.726,1416.482 C519.162,1416.482 517.972,1417.196 517.972,1418.556 C517.972,1419.678 518.822,1420.222 520.658,1420.97 L522.188,1421.616 C525.18,1422.874 526.574,1424.166 526.574,1426.512 C526.574,1429.742 523.82,1431.374 520.76,1431.374 C517.836,1431.374 515.626,1429.912 514.3,1428.144 L515.966,1426.41 C517.326,1427.838 518.72,1428.96 520.726,1428.96 C522.46,1428.96 523.888,1428.11 523.888,1426.614 C523.888,1425.186 522.664,1424.642 520.998,1423.962 L519.4,1423.282 C516.884,1422.228 515.286,1421.072 515.286,1418.692 C515.286,1415.7 517.836,1414.068 520.862,1414.068 Z M532.626,1406.214 C533.68,1406.214 534.564,1407.064 534.564,1408.118 C534.564,1409.206 533.68,1410.022 532.626,1410.022 C531.504,1410.022 530.654,1409.206 530.654,1408.118 C530.654,1407.064 531.504,1406.214 532.626,1406.214 Z M533.918,1414.442 L533.918,1431 L531.3,1431 L531.3,1414.442 L533.918,1414.442 Z M553.094,1414.442 L555.576,1414.442 L555.576,1429.402 C555.576,1434.502 552.346,1437.494 547.518,1437.494 C544.05,1437.494 541.364,1435.93 539.732,1434.298 L541.262,1432.462 C542.86,1433.856 544.73,1435.08 547.45,1435.08 C550.816,1435.08 552.958,1433.21 552.958,1429.538 L552.958,1428.076 C551.598,1429.81 549.286,1430.83 546.804,1430.83 C542.146,1430.83 538.678,1427.294 538.678,1422.466 C538.678,1417.672 542.146,1414.068 546.804,1414.068 C549.422,1414.068 551.802,1415.224 553.094,1417.128 L553.094,1414.442 Z M547.212,1428.416 C550.102,1428.416 552.992,1426.614 552.992,1422.466 C552.992,1418.318 550.068,1416.55 547.212,1416.55 C543.846,1416.55 541.33,1418.998 541.33,1422.5 C541.33,1426.002 543.846,1428.416 547.212,1428.416 Z M568.87,1414.068 C572.78,1414.068 575.024,1416.754 575.024,1420.596 L575.024,1431 L572.406,1431 L572.406,1420.902 C572.406,1418.284 570.842,1416.482 568.292,1416.482 C565.742,1416.482 563.94,1418.318 563.94,1420.902 L563.94,1431 L561.322,1431 L561.322,1414.442 L563.77,1414.442 L563.77,1416.244 C564.926,1414.884 566.728,1414.068 568.87,1414.068 Z M595.39,1421.548 C595.39,1422.432 595.254,1423.214 595.186,1423.52 L582.13,1423.52 C582.47,1426.818 584.918,1428.96 588.182,1428.96 C590.256,1428.96 591.888,1428.076 593.248,1426.716 L594.778,1428.484 C593.112,1430.252 590.868,1431.374 588.148,1431.374 C583.15,1431.374 579.376,1427.6 579.376,1422.738 C579.376,1417.91 583.082,1414.068 587.842,1414.068 C592.092,1414.068 595.39,1417.128 595.39,1421.548 Z M587.774,1416.448 C584.986,1416.448 582.776,1418.352 582.232,1421.208 L592.704,1421.208 C592.67,1418.148 590.426,1416.448 587.774,1416.448 Z M613.104,1405.5 L615.722,1405.5 L615.722,1431 L613.24,1431 L613.24,1428.348 C611.948,1430.252 609.602,1431.374 606.984,1431.374 C602.258,1431.374 598.79,1427.6 598.79,1422.738 C598.79,1417.842 602.258,1414.068 606.984,1414.068 C609.5,1414.068 611.778,1415.122 613.104,1416.89 L613.104,1405.5 Z M607.358,1428.96 C610.214,1428.96 613.138,1427.09 613.138,1422.738 C613.138,1418.386 610.214,1416.482 607.358,1416.482 C603.992,1416.482 601.476,1419.1 601.476,1422.704 C601.476,1426.308 603.958,1428.96 607.358,1428.96 Z M638.468,1414.068 C641.46,1414.068 643.84,1415.496 645.302,1417.672 L643.432,1419.168 C642.208,1417.536 640.644,1416.482 638.502,1416.482 C635.034,1416.482 632.484,1419.236 632.484,1422.704 C632.484,1426.206 635.034,1428.96 638.502,1428.96 C640.61,1428.96 642.174,1427.94 643.398,1426.308 L645.268,1427.77 C643.806,1429.946 641.426,1431.374 638.468,1431.374 C633.64,1431.374 629.798,1427.566 629.798,1422.704 C629.798,1417.876 633.64,1414.068 638.468,1414.068 Z M656.862,1414.068 C661.656,1414.068 665.532,1417.842 665.532,1422.704 C665.532,1427.532 661.656,1431.34 656.828,1431.34 C652.034,1431.306 648.192,1427.566 648.192,1422.704 C648.192,1417.842 652,1414.068 656.862,1414.068 Z M656.862,1416.482 C653.394,1416.482 650.844,1419.202 650.878,1422.738 C650.878,1426.24 653.394,1428.926 656.828,1428.926 C660.262,1428.926 662.846,1426.206 662.846,1422.738 C662.846,1419.168 660.262,1416.482 656.862,1416.482 Z M677.67,1414.068 C681.58,1414.068 683.824,1416.754 683.824,1420.596 L683.824,1431 L681.206,1431 L681.206,1420.902 C681.206,1418.284 679.642,1416.482 677.092,1416.482 C674.542,1416.482 672.74,1418.318 672.74,1420.902 L672.74,1431 L670.122,1431 L670.122,1414.442 L672.57,1414.442 L672.57,1416.244 C673.726,1414.884 675.528,1414.068 677.67,1414.068 Z M696.2,1428.994 C696.846,1428.994 697.56,1428.926 698.41,1428.79 L698.41,1431 C697.56,1431.204 696.71,1431.374 695.656,1431.374 C692.392,1431.374 690.08,1429.776 690.08,1426.002 L690.08,1416.788 L687.292,1416.788 L687.292,1414.442 L690.08,1414.442 L690.08,1409.92 L692.698,1409.92 L692.698,1414.442 L697.866,1414.442 L697.866,1416.788 L692.698,1416.788 L692.698,1425.832 C692.698,1428.314 694.126,1428.994 696.2,1428.994 Z M716.804,1421.548 C716.804,1422.432 716.668,1423.214 716.6,1423.52 L703.544,1423.52 C703.884,1426.818 706.332,1428.96 709.596,1428.96 C711.67,1428.96 713.302,1428.076 714.662,1426.716 L716.192,1428.484 C714.526,1430.252 712.282,1431.374 709.562,1431.374 C704.564,1431.374 700.79,1427.6 700.79,1422.738 C700.79,1417.91 704.496,1414.068 709.256,1414.068 C713.506,1414.068 716.804,1417.128 716.804,1421.548 Z M709.188,1416.448 C706.4,1416.448 704.19,1418.352 703.646,1421.208 L714.118,1421.208 C714.084,1418.148 711.84,1416.448 709.188,1416.448 Z M728.942,1414.068 C732.852,1414.068 735.096,1416.754 735.096,1420.596 L735.096,1431 L732.478,1431 L732.478,1420.902 C732.478,1418.284 730.914,1416.482 728.364,1416.482 C725.814,1416.482 724.012,1418.318 724.012,1420.902 L724.012,1431 L721.394,1431 L721.394,1414.442 L723.842,1414.442 L723.842,1416.244 C724.998,1414.884 726.8,1414.068 728.942,1414.068 Z M747.472,1428.994 C748.118,1428.994 748.832,1428.926 749.682,1428.79 L749.682,1431 C748.832,1431.204 747.982,1431.374 746.928,1431.374 C743.664,1431.374 741.352,1429.776 741.352,1426.002 L741.352,1416.788 L738.564,1416.788 L738.564,1414.442 L741.352,1414.442 L741.352,1409.92 L743.97,1409.92 L743.97,1414.442 L749.138,1414.442 L749.138,1416.788 L743.97,1416.788 L743.97,1425.832 C743.97,1428.314 745.398,1428.994 747.472,1428.994 Z M755.292,1427.09 C756.448,1427.09 757.434,1427.974 757.434,1429.232 C757.434,1430.49 756.448,1431.374 755.292,1431.374 C754.136,1431.374 753.15,1430.49 753.15,1429.232 C753.15,1427.974 754.136,1427.09 755.292,1427.09 Z M782.662,1408.186 C789.088,1408.186 794.324,1413.218 794.324,1419.78 C794.324,1426.342 789.088,1431.374 782.662,1431.374 C776.168,1431.374 771.034,1426.308 771.034,1419.78 C771.034,1413.218 776.202,1408.186 782.662,1408.186 Z M782.696,1410.634 C777.562,1410.634 773.788,1414.544 773.788,1419.746 C773.788,1424.982 777.562,1428.926 782.696,1428.926 C787.762,1428.926 791.57,1424.982 791.57,1419.746 C791.57,1414.578 787.762,1410.634 782.696,1410.634 Z M806.394,1414.068 C810.304,1414.068 812.548,1416.754 812.548,1420.596 L812.548,1431 L809.93,1431 L809.93,1420.902 C809.93,1418.284 808.366,1416.482 805.816,1416.482 C803.266,1416.482 801.464,1418.318 801.464,1420.902 L801.464,1431 L798.846,1431 L798.846,1414.442 L801.294,1414.442 L801.294,1416.244 C802.45,1414.884 804.252,1414.068 806.394,1414.068 Z M832.914,1421.548 C832.914,1422.432 832.778,1423.214 832.71,1423.52 L819.654,1423.52 C819.994,1426.818 822.442,1428.96 825.706,1428.96 C827.78,1428.96 829.412,1428.076 830.772,1426.716 L832.302,1428.484 C830.636,1430.252 828.392,1431.374 825.672,1431.374 C820.674,1431.374 816.9,1427.6 816.9,1422.738 C816.9,1417.91 820.606,1414.068 825.366,1414.068 C829.616,1414.068 832.914,1417.128 832.914,1421.548 Z M825.298,1416.448 C822.51,1416.448 820.3,1418.352 819.756,1421.208 L830.228,1421.208 C830.194,1418.148 827.95,1416.448 825.298,1416.448 Z M861.848,1421.548 C861.848,1422.432 861.712,1423.214 861.644,1423.52 L848.588,1423.52 C848.928,1426.818 851.376,1428.96 854.64,1428.96 C856.714,1428.96 858.346,1428.076 859.706,1426.716 L861.236,1428.484 C859.57,1430.252 857.326,1431.374 854.606,1431.374 C849.608,1431.374 845.834,1427.6 845.834,1422.738 C845.834,1417.91 849.54,1414.068 854.3,1414.068 C858.55,1414.068 861.848,1417.128 861.848,1421.548 Z M854.232,1416.448 C851.444,1416.448 849.234,1418.352 848.69,1421.208 L859.162,1421.208 C859.128,1418.148 856.884,1416.448 854.232,1416.448 Z M879.392,1431 L876.366,1431 L871.64,1424.302 L866.948,1431 L863.888,1431 L870.144,1422.364 L864.398,1414.442 L867.424,1414.442 L871.64,1420.46 L875.89,1414.442 L878.916,1414.442 L873.102,1422.364 L879.392,1431 Z M888.776,1414.068 C892.55,1414.068 895.236,1416.346 895.236,1420.8 L895.236,1431 L892.788,1431 L892.788,1428.858 C891.598,1430.456 889.66,1431.374 887.212,1431.374 C883.88,1431.374 881.432,1429.606 881.432,1426.716 C881.432,1423.928 883.778,1422.092 887.382,1422.092 L892.618,1422.092 L892.618,1420.664 C892.618,1417.876 891.054,1416.482 888.606,1416.482 C886.532,1416.482 885.07,1417.468 883.778,1419.134 L882.044,1417.706 C883.608,1415.19 886.124,1414.068 888.776,1414.068 Z M887.552,1429.198 C890.272,1429.198 892.618,1427.226 892.618,1424.642 L892.618,1424.234 L887.688,1424.234 C885.376,1424.234 884.118,1425.016 884.118,1426.58 C884.118,1428.348 885.716,1429.198 887.552,1429.198 Z M918.934,1414.068 C922.81,1414.068 924.952,1416.754 924.952,1420.596 L924.952,1431 L922.334,1431 L922.334,1420.936 C922.334,1418.318 920.906,1416.482 918.424,1416.482 C915.908,1416.482 914.174,1418.386 914.174,1420.698 L914.174,1431 L911.556,1431 L911.556,1420.936 C911.556,1418.318 910.06,1416.482 907.612,1416.482 C905.096,1416.482 903.396,1418.318 903.396,1420.936 L903.396,1431 L900.778,1431 L900.778,1414.442 L903.226,1414.442 L903.226,1416.176 C904.382,1414.85 906.082,1414.068 908.156,1414.068 C910.638,1414.068 912.338,1415.19 913.256,1416.924 C914.412,1415.258 916.384,1414.068 918.934,1414.068 Z M939.198,1414.068 C943.958,1414.068 947.392,1417.842 947.392,1422.704 C947.392,1427.6 943.924,1431.374 939.198,1431.374 C936.75,1431.374 934.438,1430.354 933.112,1428.586 L933.112,1437.12 L930.494,1437.12 L930.494,1414.442 L932.942,1414.442 L932.942,1417.094 C934.234,1415.19 936.58,1414.068 939.198,1414.068 Z M938.824,1428.96 C942.19,1428.96 944.706,1426.342 944.706,1422.738 C944.706,1419.134 942.224,1416.482 938.824,1416.482 C935.968,1416.482 933.078,1418.352 933.078,1422.704 C933.078,1427.056 935.934,1428.96 938.824,1428.96 Z M954.6,1405.5 L954.6,1431 L951.982,1431 L951.982,1405.5 L954.6,1405.5 Z M975.17,1421.548 C975.17,1422.432 975.034,1423.214 974.966,1423.52 L961.91,1423.52 C962.25,1426.818 964.698,1428.96 967.962,1428.96 C970.036,1428.96 971.668,1428.076 973.028,1426.716 L974.558,1428.484 C972.892,1430.252 970.648,1431.374 967.928,1431.374 C962.93,1431.374 959.156,1427.6 959.156,1422.738 C959.156,1417.91 962.862,1414.068 967.622,1414.068 C971.872,1414.068 975.17,1417.128 975.17,1421.548 Z M967.554,1416.448 C964.766,1416.448 962.556,1418.352 962.012,1421.208 L972.484,1421.208 C972.45,1418.148 970.206,1416.448 967.554,1416.448 Z M1010.598,1414.442 L1013.386,1414.442 L1006.416,1431.374 L1005.464,1431.374 L999.82,1418.862 L994.21,1431.374 L993.292,1431.374 L986.254,1414.442 L989.042,1414.442 L993.802,1426.682 L999.344,1414.068 L1000.33,1414.068 L1005.906,1426.614 L1010.598,1414.442 Z M1022.464,1414.068 C1026.238,1414.068 1028.924,1416.346 1028.924,1420.8 L1028.924,1431 L1026.476,1431 L1026.476,1428.858 C1025.286,1430.456 1023.348,1431.374 1020.9,1431.374 C1017.568,1431.374 1015.12,1429.606 1015.12,1426.716 C1015.12,1423.928 1017.466,1422.092 1021.07,1422.092 L1026.306,1422.092 L1026.306,1420.664 C1026.306,1417.876 1024.742,1416.482 1022.294,1416.482 C1020.22,1416.482 1018.758,1417.468 1017.466,1419.134 L1015.732,1417.706 C1017.296,1415.19 1019.812,1414.068 1022.464,1414.068 Z M1021.24,1429.198 C1023.96,1429.198 1026.306,1427.226 1026.306,1424.642 L1026.306,1424.234 L1021.376,1424.234 C1019.064,1424.234 1017.806,1425.016 1017.806,1426.58 C1017.806,1428.348 1019.404,1429.198 1021.24,1429.198 Z M1039.464,1414.068 C1041.844,1414.068 1043.714,1415.088 1045.006,1416.686 L1043.408,1418.318 C1042.32,1417.196 1040.892,1416.482 1039.328,1416.482 C1037.764,1416.482 1036.574,1417.196 1036.574,1418.556 C1036.574,1419.678 1037.424,1420.222 1039.26,1420.97 L1040.79,1421.616 C1043.782,1422.874 1045.176,1424.166 1045.176,1426.512 C1045.176,1429.742 1042.422,1431.374 1039.362,1431.374 C1036.438,1431.374 1034.228,1429.912 1032.902,1428.144 L1034.568,1426.41 C1035.928,1427.838 1037.322,1428.96 1039.328,1428.96 C1041.062,1428.96 1042.49,1428.11 1042.49,1426.614 C1042.49,1425.186 1041.266,1424.642 1039.6,1423.962 L1038.002,1423.282 C1035.486,1422.228 1033.888,1421.072 1033.888,1418.692 C1033.888,1415.7 1036.438,1414.068 1039.464,1414.068 Z M1065.372,1414.068 C1069.146,1414.068 1071.832,1416.346 1071.832,1420.8 L1071.832,1431 L1069.384,1431 L1069.384,1428.858 C1068.194,1430.456 1066.256,1431.374 1063.808,1431.374 C1060.476,1431.374 1058.028,1429.606 1058.028,1426.716 C1058.028,1423.928 1060.374,1422.092 1063.978,1422.092 L1069.214,1422.092 L1069.214,1420.664 C1069.214,1417.876 1067.65,1416.482 1065.202,1416.482 C1063.128,1416.482 1061.666,1417.468 1060.374,1419.134 L1058.64,1417.706 C1060.204,1415.19 1062.72,1414.068 1065.372,1414.068 Z M1064.148,1429.198 C1066.868,1429.198 1069.214,1427.226 1069.214,1424.642 L1069.214,1424.234 L1064.284,1424.234 C1061.972,1424.234 1060.714,1425.016 1060.714,1426.58 C1060.714,1428.348 1062.312,1429.198 1064.148,1429.198 Z M1084.922,1414.068 C1088.832,1414.068 1091.076,1416.754 1091.076,1420.596 L1091.076,1431 L1088.458,1431 L1088.458,1420.902 C1088.458,1418.284 1086.894,1416.482 1084.344,1416.482 C1081.794,1416.482 1079.992,1418.318 1079.992,1420.902 L1079.992,1431 L1077.374,1431 L1077.374,1414.442 L1079.822,1414.442 L1079.822,1416.244 C1080.978,1414.884 1082.78,1414.068 1084.922,1414.068 Z M285.854,1447.214 C286.908,1447.214 287.792,1448.064 287.792,1449.118 C287.792,1450.206 286.908,1451.022 285.854,1451.022 C284.732,1451.022 283.882,1450.206 283.882,1449.118 C283.882,1448.064 284.732,1447.214 285.854,1447.214 Z M287.146,1455.442 L287.146,1472 L284.528,1472 L284.528,1455.442 L287.146,1455.442 Z M300.44,1455.068 C304.35,1455.068 306.594,1457.754 306.594,1461.596 L306.594,1472 L303.976,1472 L303.976,1461.902 C303.976,1459.284 302.412,1457.482 299.862,1457.482 C297.312,1457.482 295.51,1459.318 295.51,1461.902 L295.51,1472 L292.892,1472 L292.892,1455.442 L295.34,1455.442 L295.34,1457.244 C296.496,1455.884 298.298,1455.068 300.44,1455.068 Z M317.134,1455.068 C319.514,1455.068 321.384,1456.088 322.676,1457.686 L321.078,1459.318 C319.99,1458.196 318.562,1457.482 316.998,1457.482 C315.434,1457.482 314.244,1458.196 314.244,1459.556 C314.244,1460.678 315.094,1461.222 316.93,1461.97 L318.46,1462.616 C321.452,1463.874 322.846,1465.166 322.846,1467.512 C322.846,1470.742 320.092,1472.374 317.032,1472.374 C314.108,1472.374 311.898,1470.912 310.572,1469.144 L312.238,1467.41 C313.598,1468.838 314.992,1469.96 316.998,1469.96 C318.732,1469.96 320.16,1469.11 320.16,1467.614 C320.16,1466.186 318.936,1465.642 317.27,1464.962 L315.672,1464.282 C313.156,1463.228 311.558,1462.072 311.558,1459.692 C311.558,1456.7 314.108,1455.068 317.134,1455.068 Z M334.406,1469.994 C335.052,1469.994 335.766,1469.926 336.616,1469.79 L336.616,1472 C335.766,1472.204 334.916,1472.374 333.862,1472.374 C330.598,1472.374 328.286,1470.776 328.286,1467.002 L328.286,1457.788 L325.498,1457.788 L325.498,1455.442 L328.286,1455.442 L328.286,1450.92 L330.904,1450.92 L330.904,1455.442 L336.072,1455.442 L336.072,1457.788 L330.904,1457.788 L330.904,1466.832 C330.904,1469.314 332.332,1469.994 334.406,1469.994 Z M348.108,1455.306 C348.652,1455.306 348.992,1455.374 349.332,1455.442 L349.332,1457.754 L348.346,1457.754 C345.66,1457.754 343.144,1459.454 343.144,1462.616 L343.144,1472 L340.526,1472 L340.526,1455.442 L342.974,1455.442 L342.974,1457.822 C344.198,1456.19 346.136,1455.306 348.108,1455.306 Z M366.332,1455.442 L366.332,1465.404 C366.332,1469.654 363.306,1472.374 359.498,1472.374 C355.622,1472.374 352.63,1469.654 352.63,1465.404 L352.63,1455.442 L355.214,1455.442 L355.214,1465.574 C355.214,1468.294 357.118,1469.96 359.498,1469.96 C361.81,1469.96 363.714,1468.294 363.714,1465.574 L363.714,1455.442 L366.332,1455.442 Z M379.354,1455.068 C382.346,1455.068 384.726,1456.496 386.188,1458.672 L384.318,1460.168 C383.094,1458.536 381.53,1457.482 379.388,1457.482 C375.92,1457.482 373.37,1460.236 373.37,1463.704 C373.37,1467.206 375.92,1469.96 379.388,1469.96 C381.496,1469.96 383.06,1468.94 384.284,1467.308 L386.154,1468.77 C384.692,1470.946 382.312,1472.374 379.354,1472.374 C374.526,1472.374 370.684,1468.566 370.684,1463.704 C370.684,1458.876 374.526,1455.068 379.354,1455.068 Z M397.442,1469.994 C398.088,1469.994 398.802,1469.926 399.652,1469.79 L399.652,1472 C398.802,1472.204 397.952,1472.374 396.898,1472.374 C393.634,1472.374 391.322,1470.776 391.322,1467.002 L391.322,1457.788 L388.534,1457.788 L388.534,1455.442 L391.322,1455.442 L391.322,1450.92 L393.94,1450.92 L393.94,1455.442 L399.108,1455.442 L399.108,1457.788 L393.94,1457.788 L393.94,1466.832 C393.94,1469.314 395.368,1469.994 397.442,1469.994 Z M404.888,1447.214 C405.942,1447.214 406.826,1448.064 406.826,1449.118 C406.826,1450.206 405.942,1451.022 404.888,1451.022 C403.766,1451.022 402.916,1450.206 402.916,1449.118 C402.916,1448.064 403.766,1447.214 404.888,1447.214 Z M406.18,1455.442 L406.18,1472 L403.562,1472 L403.562,1455.442 L406.18,1455.442 Z M419.406,1455.068 C424.2,1455.068 428.076,1458.842 428.076,1463.704 C428.076,1468.532 424.2,1472.34 419.372,1472.34 C414.578,1472.306 410.736,1468.566 410.736,1463.704 C410.736,1458.842 414.544,1455.068 419.406,1455.068 Z M419.406,1457.482 C415.938,1457.482 413.388,1460.202 413.422,1463.738 C413.422,1467.24 415.938,1469.926 419.372,1469.926 C422.806,1469.926 425.39,1467.206 425.39,1463.738 C425.39,1460.168 422.806,1457.482 419.406,1457.482 Z M440.214,1455.068 C444.124,1455.068 446.368,1457.754 446.368,1461.596 L446.368,1472 L443.75,1472 L443.75,1461.902 C443.75,1459.284 442.186,1457.482 439.636,1457.482 C437.086,1457.482 435.284,1459.318 435.284,1461.902 L435.284,1472 L432.666,1472 L432.666,1455.442 L435.114,1455.442 L435.114,1457.244 C436.27,1455.884 438.072,1455.068 440.214,1455.068 Z M457.86,1455.068 C461.634,1455.068 464.32,1457.346 464.32,1461.8 L464.32,1472 L461.872,1472 L461.872,1469.858 C460.682,1471.456 458.744,1472.374 456.296,1472.374 C452.964,1472.374 450.516,1470.606 450.516,1467.716 C450.516,1464.928 452.862,1463.092 456.466,1463.092 L461.702,1463.092 L461.702,1461.664 C461.702,1458.876 460.138,1457.482 457.69,1457.482 C455.616,1457.482 454.154,1458.468 452.862,1460.134 L451.128,1458.706 C452.692,1456.19 455.208,1455.068 457.86,1455.068 Z M456.636,1470.198 C459.356,1470.198 461.702,1468.226 461.702,1465.642 L461.702,1465.234 L456.772,1465.234 C454.46,1465.234 453.202,1466.016 453.202,1467.58 C453.202,1469.348 454.8,1470.198 456.636,1470.198 Z M472.48,1446.5 L472.48,1472 L469.862,1472 L469.862,1446.5 L472.48,1446.5 Z M505.902,1455.068 C509.778,1455.068 511.92,1457.754 511.92,1461.596 L511.92,1472 L509.302,1472 L509.302,1461.936 C509.302,1459.318 507.874,1457.482 505.392,1457.482 C502.876,1457.482 501.142,1459.386 501.142,1461.698 L501.142,1472 L498.524,1472 L498.524,1461.936 C498.524,1459.318 497.028,1457.482 494.58,1457.482 C492.064,1457.482 490.364,1459.318 490.364,1461.936 L490.364,1472 L487.746,1472 L487.746,1455.442 L490.194,1455.442 L490.194,1457.176 C491.35,1455.85 493.05,1455.068 495.124,1455.068 C497.606,1455.068 499.306,1456.19 500.224,1457.924 C501.38,1456.258 503.352,1455.068 505.902,1455.068 Z M524.942,1455.068 C529.736,1455.068 533.612,1458.842 533.612,1463.704 C533.612,1468.532 529.736,1472.34 524.908,1472.34 C520.114,1472.306 516.272,1468.566 516.272,1463.704 C516.272,1458.842 520.08,1455.068 524.942,1455.068 Z M524.942,1457.482 C521.474,1457.482 518.924,1460.202 518.958,1463.738 C518.958,1467.24 521.474,1469.926 524.908,1469.926 C528.342,1469.926 530.926,1467.206 530.926,1463.738 C530.926,1460.168 528.342,1457.482 524.942,1457.482 Z M545.036,1469.994 C545.682,1469.994 546.396,1469.926 547.246,1469.79 L547.246,1472 C546.396,1472.204 545.546,1472.374 544.492,1472.374 C541.228,1472.374 538.916,1470.776 538.916,1467.002 L538.916,1457.788 L536.128,1457.788 L536.128,1455.442 L538.916,1455.442 L538.916,1450.92 L541.534,1450.92 L541.534,1455.442 L546.702,1455.442 L546.702,1457.788 L541.534,1457.788 L541.534,1466.832 C541.534,1469.314 542.962,1469.994 545.036,1469.994 Z M552.482,1447.214 C553.536,1447.214 554.42,1448.064 554.42,1449.118 C554.42,1450.206 553.536,1451.022 552.482,1451.022 C551.36,1451.022 550.51,1450.206 550.51,1449.118 C550.51,1448.064 551.36,1447.214 552.482,1447.214 Z M553.774,1455.442 L553.774,1472 L551.156,1472 L551.156,1455.442 L553.774,1455.442 Z M567,1455.068 C571.794,1455.068 575.67,1458.842 575.67,1463.704 C575.67,1468.532 571.794,1472.34 566.966,1472.34 C562.172,1472.306 558.33,1468.566 558.33,1463.704 C558.33,1458.842 562.138,1455.068 567,1455.068 Z M567,1457.482 C563.532,1457.482 560.982,1460.202 561.016,1463.738 C561.016,1467.24 563.532,1469.926 566.966,1469.926 C570.4,1469.926 572.984,1467.206 572.984,1463.738 C572.984,1460.168 570.4,1457.482 567,1457.482 Z M587.808,1455.068 C591.718,1455.068 593.962,1457.754 593.962,1461.596 L593.962,1472 L591.344,1472 L591.344,1461.902 C591.344,1459.284 589.78,1457.482 587.23,1457.482 C584.68,1457.482 582.878,1459.318 582.878,1461.902 L582.878,1472 L580.26,1472 L580.26,1455.442 L582.708,1455.442 L582.708,1457.244 C583.864,1455.884 585.666,1455.068 587.808,1455.068 Z M622.148,1446.5 L624.766,1446.5 L624.766,1472 L622.284,1472 L622.284,1469.348 C620.992,1471.252 618.646,1472.374 616.028,1472.374 C611.302,1472.374 607.834,1468.6 607.834,1463.738 C607.834,1458.842 611.302,1455.068 616.028,1455.068 C618.544,1455.068 620.822,1456.122 622.148,1457.89 L622.148,1446.5 Z M616.402,1469.96 C619.258,1469.96 622.182,1468.09 622.182,1463.738 C622.182,1459.386 619.258,1457.482 616.402,1457.482 C613.036,1457.482 610.52,1460.1 610.52,1463.704 C610.52,1467.308 613.002,1469.96 616.402,1469.96 Z M645.336,1462.548 C645.336,1463.432 645.2,1464.214 645.132,1464.52 L632.076,1464.52 C632.416,1467.818 634.864,1469.96 638.128,1469.96 C640.202,1469.96 641.834,1469.076 643.194,1467.716 L644.724,1469.484 C643.058,1471.252 640.814,1472.374 638.094,1472.374 C633.096,1472.374 629.322,1468.6 629.322,1463.738 C629.322,1458.91 633.028,1455.068 637.788,1455.068 C642.038,1455.068 645.336,1458.128 645.336,1462.548 Z M637.72,1457.448 C634.932,1457.448 632.722,1459.352 632.178,1462.208 L642.65,1462.208 C642.616,1459.148 640.372,1457.448 637.72,1457.448 Z M654.924,1455.068 C657.304,1455.068 659.174,1456.088 660.466,1457.686 L658.868,1459.318 C657.78,1458.196 656.352,1457.482 654.788,1457.482 C653.224,1457.482 652.034,1458.196 652.034,1459.556 C652.034,1460.678 652.884,1461.222 654.72,1461.97 L656.25,1462.616 C659.242,1463.874 660.636,1465.166 660.636,1467.512 C660.636,1470.742 657.882,1472.374 654.822,1472.374 C651.898,1472.374 649.688,1470.912 648.362,1469.144 L650.028,1467.41 C651.388,1468.838 652.782,1469.96 654.788,1469.96 C656.522,1469.96 657.95,1469.11 657.95,1467.614 C657.95,1466.186 656.726,1465.642 655.06,1464.962 L653.462,1464.282 C650.946,1463.228 649.348,1462.072 649.348,1459.692 C649.348,1456.7 651.898,1455.068 654.924,1455.068 Z M666.688,1447.214 C667.742,1447.214 668.626,1448.064 668.626,1449.118 C668.626,1450.206 667.742,1451.022 666.688,1451.022 C665.566,1451.022 664.716,1450.206 664.716,1449.118 C664.716,1448.064 665.566,1447.214 666.688,1447.214 Z M667.98,1455.442 L667.98,1472 L665.362,1472 L665.362,1455.442 L667.98,1455.442 Z M687.156,1455.442 L689.638,1455.442 L689.638,1470.402 C689.638,1475.502 686.408,1478.494 681.58,1478.494 C678.112,1478.494 675.426,1476.93 673.794,1475.298 L675.324,1473.462 C676.922,1474.856 678.792,1476.08 681.512,1476.08 C684.878,1476.08 687.02,1474.21 687.02,1470.538 L687.02,1469.076 C685.66,1470.81 683.348,1471.83 680.866,1471.83 C676.208,1471.83 672.74,1468.294 672.74,1463.466 C672.74,1458.672 676.208,1455.068 680.866,1455.068 C683.484,1455.068 685.864,1456.224 687.156,1458.128 L687.156,1455.442 Z M681.274,1469.416 C684.164,1469.416 687.054,1467.614 687.054,1463.466 C687.054,1459.318 684.13,1457.55 681.274,1457.55 C677.908,1457.55 675.392,1459.998 675.392,1463.5 C675.392,1467.002 677.908,1469.416 681.274,1469.416 Z M702.932,1455.068 C706.842,1455.068 709.086,1457.754 709.086,1461.596 L709.086,1472 L706.468,1472 L706.468,1461.902 C706.468,1459.284 704.904,1457.482 702.354,1457.482 C699.804,1457.482 698.002,1459.318 698.002,1461.902 L698.002,1472 L695.384,1472 L695.384,1455.442 L697.832,1455.442 L697.832,1457.244 C698.988,1455.884 700.79,1455.068 702.932,1455.068 Z M727.004,1449.56 L727.004,1472 L724.352,1472 L724.352,1449.56 L727.004,1449.56 Z M749.954,1455.068 C752.946,1455.068 755.326,1456.496 756.788,1458.672 L754.918,1460.168 C753.694,1458.536 752.13,1457.482 749.988,1457.482 C746.52,1457.482 743.97,1460.236 743.97,1463.704 C743.97,1467.206 746.52,1469.96 749.988,1469.96 C752.096,1469.96 753.66,1468.94 754.884,1467.308 L756.754,1468.77 C755.292,1470.946 752.912,1472.374 749.954,1472.374 C745.126,1472.374 741.284,1468.566 741.284,1463.704 C741.284,1458.876 745.126,1455.068 749.954,1455.068 Z M768.79,1455.306 C769.334,1455.306 769.674,1455.374 770.014,1455.442 L770.014,1457.754 L769.028,1457.754 C766.342,1457.754 763.826,1459.454 763.826,1462.616 L763.826,1472 L761.208,1472 L761.208,1455.442 L763.656,1455.442 L763.656,1457.822 C764.88,1456.19 766.818,1455.306 768.79,1455.306 Z M788,1462.548 C788,1463.432 787.864,1464.214 787.796,1464.52 L774.74,1464.52 C775.08,1467.818 777.528,1469.96 780.792,1469.96 C782.866,1469.96 784.498,1469.076 785.858,1467.716 L787.388,1469.484 C785.722,1471.252 783.478,1472.374 780.758,1472.374 C775.76,1472.374 771.986,1468.6 771.986,1463.738 C771.986,1458.91 775.692,1455.068 780.452,1455.068 C784.702,1455.068 788,1458.128 788,1462.548 Z M780.384,1457.448 C777.596,1457.448 775.386,1459.352 774.842,1462.208 L785.314,1462.208 C785.28,1459.148 783.036,1457.448 780.384,1457.448 Z M798.54,1455.068 C802.314,1455.068 805,1457.346 805,1461.8 L805,1472 L802.552,1472 L802.552,1469.858 C801.362,1471.456 799.424,1472.374 796.976,1472.374 C793.644,1472.374 791.196,1470.606 791.196,1467.716 C791.196,1464.928 793.542,1463.092 797.146,1463.092 L802.382,1463.092 L802.382,1461.664 C802.382,1458.876 800.818,1457.482 798.37,1457.482 C796.296,1457.482 794.834,1458.468 793.542,1460.134 L791.808,1458.706 C793.372,1456.19 795.888,1455.068 798.54,1455.068 Z M797.316,1470.198 C800.036,1470.198 802.382,1468.226 802.382,1465.642 L802.382,1465.234 L797.452,1465.234 C795.14,1465.234 793.882,1466.016 793.882,1467.58 C793.882,1469.348 795.48,1470.198 797.316,1470.198 Z M817.376,1469.994 C818.022,1469.994 818.736,1469.926 819.586,1469.79 L819.586,1472 C818.736,1472.204 817.886,1472.374 816.832,1472.374 C813.568,1472.374 811.256,1470.776 811.256,1467.002 L811.256,1457.788 L808.468,1457.788 L808.468,1455.442 L811.256,1455.442 L811.256,1450.92 L813.874,1450.92 L813.874,1455.442 L819.042,1455.442 L819.042,1457.788 L813.874,1457.788 L813.874,1466.832 C813.874,1469.314 815.302,1469.994 817.376,1469.994 Z M837.98,1462.548 C837.98,1463.432 837.844,1464.214 837.776,1464.52 L824.72,1464.52 C825.06,1467.818 827.508,1469.96 830.772,1469.96 C832.846,1469.96 834.478,1469.076 835.838,1467.716 L837.368,1469.484 C835.702,1471.252 833.458,1472.374 830.738,1472.374 C825.74,1472.374 821.966,1468.6 821.966,1463.738 C821.966,1458.91 825.672,1455.068 830.432,1455.068 C834.682,1455.068 837.98,1458.128 837.98,1462.548 Z M830.364,1457.448 C827.576,1457.448 825.366,1459.352 824.822,1462.208 L835.294,1462.208 C835.26,1459.148 833.016,1457.448 830.364,1457.448 Z M855.694,1446.5 L858.312,1446.5 L858.312,1472 L855.83,1472 L855.83,1469.348 C854.538,1471.252 852.192,1472.374 849.574,1472.374 C844.848,1472.374 841.38,1468.6 841.38,1463.738 C841.38,1458.842 844.848,1455.068 849.574,1455.068 C852.09,1455.068 854.368,1456.122 855.694,1457.89 L855.694,1446.5 Z M849.948,1469.96 C852.804,1469.96 855.728,1468.09 855.728,1463.738 C855.728,1459.386 852.804,1457.482 849.948,1457.482 C846.582,1457.482 844.066,1460.1 844.066,1463.704 C844.066,1467.308 846.548,1469.96 849.948,1469.96 Z M880.412,1469.994 C881.058,1469.994 881.772,1469.926 882.622,1469.79 L882.622,1472 C881.772,1472.204 880.922,1472.374 879.868,1472.374 C876.604,1472.374 874.292,1470.776 874.292,1467.002 L874.292,1457.788 L871.504,1457.788 L871.504,1455.442 L874.292,1455.442 L874.292,1450.92 L876.91,1450.92 L876.91,1455.442 L882.078,1455.442 L882.078,1457.788 L876.91,1457.788 L876.91,1466.832 C876.91,1469.314 878.338,1469.994 880.412,1469.994 Z M894.114,1455.068 C897.99,1455.068 900.234,1457.754 900.234,1461.596 L900.234,1472 L897.616,1472 L897.616,1461.936 C897.616,1459.318 896.052,1457.482 893.502,1457.482 C890.952,1457.482 889.15,1459.352 889.15,1461.936 L889.15,1472 L886.532,1472 L886.532,1446.5 L889.15,1446.5 L889.15,1457.312 C890.238,1455.918 891.972,1455.068 894.114,1455.068 Z M911.726,1455.068 C915.5,1455.068 918.186,1457.346 918.186,1461.8 L918.186,1472 L915.738,1472 L915.738,1469.858 C914.548,1471.456 912.61,1472.374 910.162,1472.374 C906.83,1472.374 904.382,1470.606 904.382,1467.716 C904.382,1464.928 906.728,1463.092 910.332,1463.092 L915.568,1463.092 L915.568,1461.664 C915.568,1458.876 914.004,1457.482 911.556,1457.482 C909.482,1457.482 908.02,1458.468 906.728,1460.134 L904.994,1458.706 C906.558,1456.19 909.074,1455.068 911.726,1455.068 Z M910.502,1470.198 C913.222,1470.198 915.568,1468.226 915.568,1465.642 L915.568,1465.234 L910.638,1465.234 C908.326,1465.234 907.068,1466.016 907.068,1467.58 C907.068,1469.348 908.666,1470.198 910.502,1470.198 Z M930.562,1469.994 C931.208,1469.994 931.922,1469.926 932.772,1469.79 L932.772,1472 C931.922,1472.204 931.072,1472.374 930.018,1472.374 C926.754,1472.374 924.442,1470.776 924.442,1467.002 L924.442,1457.788 L921.654,1457.788 L921.654,1455.442 L924.442,1455.442 L924.442,1450.92 L927.06,1450.92 L927.06,1455.442 L932.228,1455.442 L932.228,1457.788 L927.06,1457.788 L927.06,1466.832 C927.06,1469.314 928.488,1469.994 930.562,1469.994 Z M951.2,1455.068 C953.58,1455.068 955.45,1456.088 956.742,1457.686 L955.144,1459.318 C954.056,1458.196 952.628,1457.482 951.064,1457.482 C949.5,1457.482 948.31,1458.196 948.31,1459.556 C948.31,1460.678 949.16,1461.222 950.996,1461.97 L952.526,1462.616 C955.518,1463.874 956.912,1465.166 956.912,1467.512 C956.912,1470.742 954.158,1472.374 951.098,1472.374 C948.174,1472.374 945.964,1470.912 944.638,1469.144 L946.304,1467.41 C947.664,1468.838 949.058,1469.96 951.064,1469.96 C952.798,1469.96 954.226,1469.11 954.226,1467.614 C954.226,1466.186 953.002,1465.642 951.336,1464.962 L949.738,1464.282 C947.222,1463.228 945.624,1462.072 945.624,1459.692 C945.624,1456.7 948.174,1455.068 951.2,1455.068 Z M969.22,1455.068 C973.096,1455.068 975.34,1457.754 975.34,1461.596 L975.34,1472 L972.722,1472 L972.722,1461.936 C972.722,1459.318 971.158,1457.482 968.608,1457.482 C966.058,1457.482 964.256,1459.352 964.256,1461.936 L964.256,1472 L961.638,1472 L961.638,1446.5 L964.256,1446.5 L964.256,1457.312 C965.344,1455.918 967.078,1455.068 969.22,1455.068 Z M988.362,1455.068 C993.156,1455.068 997.032,1458.842 997.032,1463.704 C997.032,1468.532 993.156,1472.34 988.328,1472.34 C983.534,1472.306 979.692,1468.566 979.692,1463.704 C979.692,1458.842 983.5,1455.068 988.362,1455.068 Z M988.362,1457.482 C984.894,1457.482 982.344,1460.202 982.378,1463.738 C982.378,1467.24 984.894,1469.926 988.328,1469.926 C991.762,1469.926 994.346,1467.206 994.346,1463.738 C994.346,1460.168 991.762,1457.482 988.362,1457.482 Z M1023.28,1455.442 L1026.068,1455.442 L1019.098,1472.374 L1018.146,1472.374 L1012.502,1459.862 L1006.892,1472.374 L1005.974,1472.374 L998.936,1455.442 L1001.724,1455.442 L1006.484,1467.682 L1012.026,1455.068 L1013.012,1455.068 L1018.588,1467.614 L1023.28,1455.442 Z M1044.02,1462.548 C1044.02,1463.432 1043.884,1464.214 1043.816,1464.52 L1030.76,1464.52 C1031.1,1467.818 1033.548,1469.96 1036.812,1469.96 C1038.886,1469.96 1040.518,1469.076 1041.878,1467.716 L1043.408,1469.484 C1041.742,1471.252 1039.498,1472.374 1036.778,1472.374 C1031.78,1472.374 1028.006,1468.6 1028.006,1463.738 C1028.006,1458.91 1031.712,1455.068 1036.472,1455.068 C1040.722,1455.068 1044.02,1458.128 1044.02,1462.548 Z M1036.404,1457.448 C1033.616,1457.448 1031.406,1459.352 1030.862,1462.208 L1041.334,1462.208 C1041.3,1459.148 1039.056,1457.448 1036.404,1457.448 Z M1061.734,1446.5 L1064.352,1446.5 L1064.352,1472 L1061.87,1472 L1061.87,1469.348 C1060.578,1471.252 1058.232,1472.374 1055.614,1472.374 C1050.888,1472.374 1047.42,1468.6 1047.42,1463.738 C1047.42,1458.842 1050.888,1455.068 1055.614,1455.068 C1058.13,1455.068 1060.408,1456.122 1061.734,1457.89 L1061.734,1446.5 Z M1055.988,1469.96 C1058.844,1469.96 1061.768,1468.09 1061.768,1463.738 C1061.768,1459.386 1058.844,1457.482 1055.988,1457.482 C1052.622,1457.482 1050.106,1460.1 1050.106,1463.704 C1050.106,1467.308 1052.588,1469.96 1055.988,1469.96 Z M1093.116,1455.442 L1093.116,1465.404 C1093.116,1469.654 1090.09,1472.374 1086.282,1472.374 C1082.406,1472.374 1079.414,1469.654 1079.414,1465.404 L1079.414,1455.442 L1081.998,1455.442 L1081.998,1465.574 C1081.998,1468.294 1083.902,1469.96 1086.282,1469.96 C1088.594,1469.96 1090.498,1468.294 1090.498,1465.574 L1090.498,1455.442 L1093.116,1455.442 Z M1103.656,1455.068 C1106.036,1455.068 1107.906,1456.088 1109.198,1457.686 L1107.6,1459.318 C1106.512,1458.196 1105.084,1457.482 1103.52,1457.482 C1101.956,1457.482 1100.766,1458.196 1100.766,1459.556 C1100.766,1460.678 1101.616,1461.222 1103.452,1461.97 L1104.982,1462.616 C1107.974,1463.874 1109.368,1465.166 1109.368,1467.512 C1109.368,1470.742 1106.614,1472.374 1103.554,1472.374 C1100.63,1472.374 1098.42,1470.912 1097.094,1469.144 L1098.76,1467.41 C1100.12,1468.838 1101.514,1469.96 1103.52,1469.96 C1105.254,1469.96 1106.682,1469.11 1106.682,1467.614 C1106.682,1466.186 1105.458,1465.642 1103.792,1464.962 L1102.194,1464.282 C1099.678,1463.228 1098.08,1462.072 1098.08,1459.692 C1098.08,1456.7 1100.63,1455.068 1103.656,1455.068 Z M1128.918,1462.548 C1128.918,1463.432 1128.782,1464.214 1128.714,1464.52 L1115.658,1464.52 C1115.998,1467.818 1118.446,1469.96 1121.71,1469.96 C1123.784,1469.96 1125.416,1469.076 1126.776,1467.716 L1128.306,1469.484 C1126.64,1471.252 1124.396,1472.374 1121.676,1472.374 C1116.678,1472.374 1112.904,1468.6 1112.904,1463.738 C1112.904,1458.91 1116.61,1455.068 1121.37,1455.068 C1125.62,1455.068 1128.918,1458.128 1128.918,1462.548 Z M1121.302,1457.448 C1118.514,1457.448 1116.304,1459.352 1115.76,1462.208 L1126.232,1462.208 C1126.198,1459.148 1123.954,1457.448 1121.302,1457.448 Z M1141.09,1455.306 C1141.634,1455.306 1141.974,1455.374 1142.314,1455.442 L1142.314,1457.754 L1141.328,1457.754 C1138.642,1457.754 1136.126,1459.454 1136.126,1462.616 L1136.126,1472 L1133.508,1472 L1133.508,1455.442 L1135.956,1455.442 L1135.956,1457.822 C1137.18,1456.19 1139.118,1455.306 1141.09,1455.306 Z M1150.814,1455.068 C1153.194,1455.068 1155.064,1456.088 1156.356,1457.686 L1154.758,1459.318 C1153.67,1458.196 1152.242,1457.482 1150.678,1457.482 C1149.114,1457.482 1147.924,1458.196 1147.924,1459.556 C1147.924,1460.678 1148.774,1461.222 1150.61,1461.97 L1152.14,1462.616 C1155.132,1463.874 1156.526,1465.166 1156.526,1467.512 C1156.526,1470.742 1153.772,1472.374 1150.712,1472.374 C1147.788,1472.374 1145.578,1470.912 1144.252,1469.144 L1145.918,1467.41 C1147.278,1468.838 1148.672,1469.96 1150.678,1469.96 C1152.412,1469.96 1153.84,1469.11 1153.84,1467.614 C1153.84,1466.186 1152.616,1465.642 1150.95,1464.962 L1149.352,1464.282 C1146.836,1463.228 1145.238,1462.072 1145.238,1459.692 C1145.238,1456.7 1147.788,1455.068 1150.814,1455.068 Z M490.194,1496.068 C494.07,1496.068 496.314,1498.754 496.314,1502.596 L496.314,1513 L493.696,1513 L493.696,1502.936 C493.696,1500.318 492.132,1498.482 489.582,1498.482 C487.032,1498.482 485.23,1500.352 485.23,1502.936 L485.23,1513 L482.612,1513 L482.612,1487.5 L485.23,1487.5 L485.23,1498.312 C486.318,1496.918 488.052,1496.068 490.194,1496.068 Z M509.336,1496.068 C514.13,1496.068 518.006,1499.842 518.006,1504.704 C518.006,1509.532 514.13,1513.34 509.302,1513.34 C504.508,1513.306 500.666,1509.566 500.666,1504.704 C500.666,1499.842 504.474,1496.068 509.336,1496.068 Z M509.336,1498.482 C505.868,1498.482 503.318,1501.202 503.352,1504.738 C503.352,1508.24 505.868,1510.926 509.302,1510.926 C512.736,1510.926 515.32,1508.206 515.32,1504.738 C515.32,1501.168 512.736,1498.482 509.336,1498.482 Z M544.254,1496.442 L547.042,1496.442 L540.072,1513.374 L539.12,1513.374 L533.476,1500.862 L527.866,1513.374 L526.948,1513.374 L519.91,1496.442 L522.698,1496.442 L527.458,1508.682 L533,1496.068 L533.986,1496.068 L539.562,1508.614 L544.254,1496.442 Z M567.204,1510.994 C567.85,1510.994 568.564,1510.926 569.414,1510.79 L569.414,1513 C568.564,1513.204 567.714,1513.374 566.66,1513.374 C563.396,1513.374 561.084,1511.776 561.084,1508.002 L561.084,1498.788 L558.296,1498.788 L558.296,1496.442 L561.084,1496.442 L561.084,1491.92 L563.702,1491.92 L563.702,1496.442 L568.87,1496.442 L568.87,1498.788 L563.702,1498.788 L563.702,1507.832 C563.702,1510.314 565.13,1510.994 567.204,1510.994 Z M580.464,1496.068 C585.258,1496.068 589.134,1499.842 589.134,1504.704 C589.134,1509.532 585.258,1513.34 580.43,1513.34 C575.636,1513.306 571.794,1509.566 571.794,1504.704 C571.794,1499.842 575.602,1496.068 580.464,1496.068 Z M580.464,1498.482 C576.996,1498.482 574.446,1501.202 574.48,1504.738 C574.48,1508.24 576.996,1510.926 580.43,1510.926 C583.864,1510.926 586.448,1508.206 586.448,1504.738 C586.448,1501.168 583.864,1498.482 580.464,1498.482 Z M616.368,1487.5 L618.986,1487.5 L618.986,1513 L616.504,1513 L616.504,1510.348 C615.212,1512.252 612.866,1513.374 610.248,1513.374 C605.522,1513.374 602.054,1509.6 602.054,1504.738 C602.054,1499.842 605.522,1496.068 610.248,1496.068 C612.764,1496.068 615.042,1497.122 616.368,1498.89 L616.368,1487.5 Z M610.622,1510.96 C613.478,1510.96 616.402,1509.09 616.402,1504.738 C616.402,1500.386 613.478,1498.482 610.622,1498.482 C607.256,1498.482 604.74,1501.1 604.74,1504.704 C604.74,1508.308 607.222,1510.96 610.622,1510.96 Z M632.314,1496.306 C632.858,1496.306 633.198,1496.374 633.538,1496.442 L633.538,1498.754 L632.552,1498.754 C629.866,1498.754 627.35,1500.454 627.35,1503.616 L627.35,1513 L624.732,1513 L624.732,1496.442 L627.18,1496.442 L627.18,1498.822 C628.404,1497.19 630.342,1496.306 632.314,1496.306 Z M644.18,1496.068 C648.974,1496.068 652.85,1499.842 652.85,1504.704 C652.85,1509.532 648.974,1513.34 644.146,1513.34 C639.352,1513.306 635.51,1509.566 635.51,1504.704 C635.51,1499.842 639.318,1496.068 644.18,1496.068 Z M644.18,1498.482 C640.712,1498.482 638.162,1501.202 638.196,1504.738 C638.196,1508.24 640.712,1510.926 644.146,1510.926 C647.58,1510.926 650.164,1508.206 650.164,1504.738 C650.164,1501.168 647.58,1498.482 644.18,1498.482 Z M666.144,1496.068 C670.904,1496.068 674.338,1499.842 674.338,1504.704 C674.338,1509.6 670.87,1513.374 666.144,1513.374 C663.696,1513.374 661.384,1512.354 660.058,1510.586 L660.058,1519.12 L657.44,1519.12 L657.44,1496.442 L659.888,1496.442 L659.888,1499.094 C661.18,1497.19 663.526,1496.068 666.144,1496.068 Z M665.77,1510.96 C669.136,1510.96 671.652,1508.342 671.652,1504.738 C671.652,1501.134 669.17,1498.482 665.77,1498.482 C662.914,1498.482 660.024,1500.352 660.024,1504.704 C660.024,1509.056 662.88,1510.96 665.77,1510.96 Z M694.398,1496.068 C698.172,1496.068 700.858,1498.346 700.858,1502.8 L700.858,1513 L698.41,1513 L698.41,1510.858 C697.22,1512.456 695.282,1513.374 692.834,1513.374 C689.502,1513.374 687.054,1511.606 687.054,1508.716 C687.054,1505.928 689.4,1504.092 693.004,1504.092 L698.24,1504.092 L698.24,1502.664 C698.24,1499.876 696.676,1498.482 694.228,1498.482 C692.154,1498.482 690.692,1499.468 689.4,1501.134 L687.666,1499.706 C689.23,1497.19 691.746,1496.068 694.398,1496.068 Z M693.174,1511.198 C695.894,1511.198 698.24,1509.226 698.24,1506.642 L698.24,1506.234 L693.31,1506.234 C690.998,1506.234 689.74,1507.016 689.74,1508.58 C689.74,1510.348 691.338,1511.198 693.174,1511.198 Z M724.624,1496.068 C729.384,1496.068 732.818,1499.842 732.818,1504.704 C732.818,1509.6 729.35,1513.374 724.624,1513.374 C722.176,1513.374 719.864,1512.354 718.538,1510.586 L718.538,1519.12 L715.92,1519.12 L715.92,1496.442 L718.368,1496.442 L718.368,1499.094 C719.66,1497.19 722.006,1496.068 724.624,1496.068 Z M724.25,1510.96 C727.616,1510.96 730.132,1508.342 730.132,1504.738 C730.132,1501.134 727.65,1498.482 724.25,1498.482 C721.394,1498.482 718.504,1500.352 718.504,1504.704 C718.504,1509.056 721.36,1510.96 724.25,1510.96 Z M738.734,1488.214 C739.788,1488.214 740.672,1489.064 740.672,1490.118 C740.672,1491.206 739.788,1492.022 738.734,1492.022 C737.612,1492.022 736.762,1491.206 736.762,1490.118 C736.762,1489.064 737.612,1488.214 738.734,1488.214 Z M740.026,1496.442 L740.026,1513 L737.408,1513 L737.408,1496.442 L740.026,1496.442 Z M753.32,1496.068 C757.23,1496.068 759.474,1498.754 759.474,1502.596 L759.474,1513 L756.856,1513 L756.856,1502.902 C756.856,1500.284 755.292,1498.482 752.742,1498.482 C750.192,1498.482 748.39,1500.318 748.39,1502.902 L748.39,1513 L745.772,1513 L745.772,1496.442 L748.22,1496.442 L748.22,1498.244 C749.376,1496.884 751.178,1496.068 753.32,1496.068 Z M782.016,1496.068 C786.81,1496.068 790.686,1499.842 790.686,1504.704 C790.686,1509.532 786.81,1513.34 781.982,1513.34 C777.188,1513.306 773.346,1509.566 773.346,1504.704 C773.346,1499.842 777.154,1496.068 782.016,1496.068 Z M782.016,1498.482 C778.548,1498.482 775.998,1501.202 776.032,1504.738 C776.032,1508.24 778.548,1510.926 781.982,1510.926 C785.416,1510.926 788,1508.206 788,1504.738 C788,1501.168 785.416,1498.482 782.016,1498.482 Z M802.824,1496.068 C806.734,1496.068 808.978,1498.754 808.978,1502.596 L808.978,1513 L806.36,1513 L806.36,1502.902 C806.36,1500.284 804.796,1498.482 802.246,1498.482 C799.696,1498.482 797.894,1500.318 797.894,1502.902 L797.894,1513 L795.276,1513 L795.276,1496.442 L797.724,1496.442 L797.724,1498.244 C798.88,1496.884 800.682,1496.068 802.824,1496.068 Z M830.874,1510.994 C831.52,1510.994 832.234,1510.926 833.084,1510.79 L833.084,1513 C832.234,1513.204 831.384,1513.374 830.33,1513.374 C827.066,1513.374 824.754,1511.776 824.754,1508.002 L824.754,1498.788 L821.966,1498.788 L821.966,1496.442 L824.754,1496.442 L824.754,1491.92 L827.372,1491.92 L827.372,1496.442 L832.54,1496.442 L832.54,1498.788 L827.372,1498.788 L827.372,1507.832 C827.372,1510.314 828.8,1510.994 830.874,1510.994 Z M844.576,1496.068 C848.452,1496.068 850.696,1498.754 850.696,1502.596 L850.696,1513 L848.078,1513 L848.078,1502.936 C848.078,1500.318 846.514,1498.482 843.964,1498.482 C841.414,1498.482 839.612,1500.352 839.612,1502.936 L839.612,1513 L836.994,1513 L836.994,1487.5 L839.612,1487.5 L839.612,1498.312 C840.7,1496.918 842.434,1496.068 844.576,1496.068 Z M871.062,1503.548 C871.062,1504.432 870.926,1505.214 870.858,1505.52 L857.802,1505.52 C858.142,1508.818 860.59,1510.96 863.854,1510.96 C865.928,1510.96 867.56,1510.076 868.92,1508.716 L870.45,1510.484 C868.784,1512.252 866.54,1513.374 863.82,1513.374 C858.822,1513.374 855.048,1509.6 855.048,1504.738 C855.048,1499.91 858.754,1496.068 863.514,1496.068 C867.764,1496.068 871.062,1499.128 871.062,1503.548 Z M863.446,1498.448 C860.658,1498.448 858.448,1500.352 857.904,1503.208 L868.376,1503.208 C868.342,1500.148 866.098,1498.448 863.446,1498.448 Z M903.328,1496.068 C907.204,1496.068 909.346,1498.754 909.346,1502.596 L909.346,1513 L906.728,1513 L906.728,1502.936 C906.728,1500.318 905.3,1498.482 902.818,1498.482 C900.302,1498.482 898.568,1500.386 898.568,1502.698 L898.568,1513 L895.95,1513 L895.95,1502.936 C895.95,1500.318 894.454,1498.482 892.006,1498.482 C889.49,1498.482 887.79,1500.318 887.79,1502.936 L887.79,1513 L885.172,1513 L885.172,1496.442 L887.62,1496.442 L887.62,1498.176 C888.776,1496.85 890.476,1496.068 892.55,1496.068 C895.032,1496.068 896.732,1497.19 897.65,1498.924 C898.806,1497.258 900.778,1496.068 903.328,1496.068 Z M920.838,1496.068 C924.612,1496.068 927.298,1498.346 927.298,1502.8 L927.298,1513 L924.85,1513 L924.85,1510.858 C923.66,1512.456 921.722,1513.374 919.274,1513.374 C915.942,1513.374 913.494,1511.606 913.494,1508.716 C913.494,1505.928 915.84,1504.092 919.444,1504.092 L924.68,1504.092 L924.68,1502.664 C924.68,1499.876 923.116,1498.482 920.668,1498.482 C918.594,1498.482 917.132,1499.468 915.84,1501.134 L914.106,1499.706 C915.67,1497.19 918.186,1496.068 920.838,1496.068 Z M919.614,1511.198 C922.334,1511.198 924.68,1509.226 924.68,1506.642 L924.68,1506.234 L919.75,1506.234 C917.438,1506.234 916.18,1507.016 916.18,1508.58 C916.18,1510.348 917.778,1511.198 919.614,1511.198 Z M941.544,1496.068 C946.304,1496.068 949.738,1499.842 949.738,1504.704 C949.738,1509.6 946.27,1513.374 941.544,1513.374 C939.096,1513.374 936.784,1512.354 935.458,1510.586 L935.458,1519.12 L932.84,1519.12 L932.84,1496.442 L935.288,1496.442 L935.288,1499.094 C936.58,1497.19 938.926,1496.068 941.544,1496.068 Z M941.17,1510.96 C944.536,1510.96 947.052,1508.342 947.052,1504.738 C947.052,1501.134 944.57,1498.482 941.17,1498.482 C938.314,1498.482 935.424,1500.352 935.424,1504.704 C935.424,1509.056 938.28,1510.96 941.17,1510.96 Z M955.688,1509.09 C956.844,1509.09 957.83,1509.974 957.83,1511.232 C957.83,1512.49 956.844,1513.374 955.688,1513.374 C954.532,1513.374 953.546,1512.49 953.546,1511.232 C953.546,1509.974 954.532,1509.09 955.688,1509.09 Z" id="Asidefromdevelopment,somecampaignsrequiredcustomdesignedcontent.OneexamplewasaninstructionalmotiondesignIcreatedthatshowedusershowtodropapinonthemap."></path>
        </g>
    </g>
</svg>