<?xml version="1.0" encoding="UTF-8"?>
<svg width="462px" height="80px" viewBox="0 0 462 80" version="1.1" xmlns="http://www.w3.org/2000/svg" xmlns:xlink="http://www.w3.org/1999/xlink">
    <!-- Generator: Sketch 56.3 (81716) - https://sketch.com -->
    <title>Group 13</title>
    <desc>Created with Sketch.</desc>
    <g id="Page-1" stroke="none" stroke-width="1" fill="none" fill-rule="evenodd">
        <g id="Group-13">
            <rect id="Rectangle" fill="#111111" x="0" y="0" width="462" height="80" rx="10"></rect>
            <path d="M128.46,34.16 L130.524,34.16 L123.66,50.264 L122.964,50.264 L116.1,34.16 L118.164,34.16 L123.324,46.544 L128.46,34.16 Z M134.244,32.504 C134.988,32.504 135.612,33.104 135.612,33.848 C135.612,34.616 134.988,35.192 134.244,35.192 C133.452,35.192 132.852,34.616 132.852,33.848 C132.852,33.104 133.452,32.504 134.244,32.504 Z M135.156,38.312 L135.156,50 L133.308,50 L133.308,38.312 L135.156,38.312 Z M149.676,43.328 C149.676,43.952 149.58,44.504 149.532,44.72 L140.316,44.72 C140.556,47.048 142.284,48.56 144.588,48.56 C146.052,48.56 147.204,47.936 148.164,46.976 L149.244,48.224 C148.068,49.472 146.484,50.264 144.564,50.264 C141.036,50.264 138.372,47.6 138.372,44.168 C138.372,40.76 140.988,38.048 144.348,38.048 C147.348,38.048 149.676,40.208 149.676,43.328 Z M144.3,39.728 C142.332,39.728 140.772,41.072 140.388,43.088 L147.78,43.088 C147.756,40.928 146.172,39.728 144.3,39.728 Z M168.204,38.312 L170.172,38.312 L165.252,50.264 L164.58,50.264 L160.596,41.432 L156.636,50.264 L155.988,50.264 L151.02,38.312 L152.988,38.312 L156.348,46.952 L160.26,38.048 L160.956,38.048 L164.892,46.904 L168.204,38.312 Z M189.636,34.16 L189.636,35.84 L181.596,35.84 L181.596,41.288 L188.268,41.288 L188.268,42.992 L181.596,42.992 L181.596,50 L179.724,50 L179.724,34.16 L189.636,34.16 Z M201.252,38.312 L201.252,45.344 C201.252,48.344 199.116,50.264 196.428,50.264 C193.692,50.264 191.58,48.344 191.58,45.344 L191.58,38.312 L193.404,38.312 L193.404,45.464 C193.404,47.384 194.748,48.56 196.428,48.56 C198.06,48.56 199.404,47.384 199.404,45.464 L199.404,38.312 L201.252,38.312 Z M207.012,32 L207.012,50 L205.164,50 L205.164,32 L207.012,32 Z M212.916,32 L212.916,50 L211.068,50 L211.068,32 L212.916,32 Z M231.036,33.896 C233.916,33.896 236.292,35.288 237.612,37.304 L236.22,38.408 C235.044,36.68 233.268,35.624 231.06,35.624 C227.484,35.624 224.748,38.384 224.748,42.08 C224.748,45.776 227.484,48.536 231.06,48.536 C233.268,48.536 235.044,47.48 236.22,45.752 L237.612,46.856 C236.34,48.872 233.916,50.264 231.036,50.264 C226.452,50.264 222.804,46.712 222.804,42.08 C222.804,37.448 226.452,33.896 231.036,33.896 Z M244.932,38.048 C247.596,38.048 249.492,39.656 249.492,42.8 L249.492,50 L247.764,50 L247.764,48.488 C246.924,49.616 245.556,50.264 243.828,50.264 C241.476,50.264 239.748,49.016 239.748,46.976 C239.748,45.008 241.404,43.712 243.948,43.712 L247.644,43.712 L247.644,42.704 C247.644,40.736 246.54,39.752 244.812,39.752 C243.348,39.752 242.316,40.448 241.404,41.624 L240.18,40.616 C241.284,38.84 243.06,38.048 244.932,38.048 Z M244.068,48.728 C245.988,48.728 247.644,47.336 247.644,45.512 L247.644,45.224 L244.164,45.224 C242.532,45.224 241.644,45.776 241.644,46.88 C241.644,48.128 242.772,48.728 244.068,48.728 Z M256.932,38.048 C258.612,38.048 259.932,38.768 260.844,39.896 L259.716,41.048 C258.948,40.256 257.94,39.752 256.836,39.752 C255.732,39.752 254.892,40.256 254.892,41.216 C254.892,42.008 255.492,42.392 256.788,42.92 L257.868,43.376 C259.98,44.264 260.964,45.176 260.964,46.832 C260.964,49.112 259.02,50.264 256.86,50.264 C254.796,50.264 253.236,49.232 252.3,47.984 L253.476,46.76 C254.436,47.768 255.42,48.56 256.836,48.56 C258.06,48.56 259.068,47.96 259.068,46.904 C259.068,45.896 258.204,45.512 257.028,45.032 L255.9,44.552 C254.124,43.808 252.996,42.992 252.996,41.312 C252.996,39.2 254.796,38.048 256.932,38.048 Z M274.764,43.328 C274.764,43.952 274.668,44.504 274.62,44.72 L265.404,44.72 C265.644,47.048 267.372,48.56 269.676,48.56 C271.14,48.56 272.292,47.936 273.252,46.976 L274.332,48.224 C273.156,49.472 271.572,50.264 269.652,50.264 C266.124,50.264 263.46,47.6 263.46,44.168 C263.46,40.76 266.076,38.048 269.436,38.048 C272.436,38.048 274.764,40.208 274.764,43.328 Z M269.388,39.728 C267.42,39.728 265.86,41.072 265.476,43.088 L272.868,43.088 C272.844,40.928 271.26,39.728 269.388,39.728 Z M289.452,33.896 C291.612,33.896 293.436,35.024 294.42,36.584 L293.052,37.616 C292.212,36.344 290.868,35.624 289.428,35.624 C287.964,35.624 286.62,36.368 286.62,37.928 C286.62,39.368 287.724,39.896 289.164,40.592 L290.916,41.432 C293.22,42.536 294.612,43.712 294.612,45.848 C294.612,48.512 292.428,50.264 289.5,50.264 C286.98,50.264 284.892,48.944 283.668,46.856 L285.06,45.824 C286.02,47.288 287.436,48.536 289.476,48.536 C291.348,48.536 292.668,47.504 292.668,45.896 C292.668,44.432 291.588,43.856 290.028,43.112 L288.252,42.272 C286.404,41.384 284.676,40.256 284.676,38.024 C284.676,35.504 286.884,33.896 289.452,33.896 Z M302.82,48.584 C303.276,48.584 303.78,48.536 304.38,48.44 L304.38,50 C303.78,50.144 303.18,50.264 302.436,50.264 C300.132,50.264 298.5,49.136 298.5,46.472 L298.5,39.968 L296.532,39.968 L296.532,38.312 L298.5,38.312 L298.5,35.12 L300.348,35.12 L300.348,38.312 L303.996,38.312 L303.996,39.968 L300.348,39.968 L300.348,46.352 C300.348,48.104 301.356,48.584 302.82,48.584 Z M316.668,38.312 L316.668,45.344 C316.668,48.344 314.532,50.264 311.844,50.264 C309.108,50.264 306.996,48.344 306.996,45.344 L306.996,38.312 L308.82,38.312 L308.82,45.464 C308.82,47.384 310.164,48.56 311.844,48.56 C313.476,48.56 314.82,47.384 314.82,45.464 L314.82,38.312 L316.668,38.312 Z M329.844,32 L331.692,32 L331.692,50 L329.94,50 L329.94,48.128 C329.028,49.472 327.372,50.264 325.524,50.264 C322.188,50.264 319.74,47.6 319.74,44.168 C319.74,40.712 322.188,38.048 325.524,38.048 C327.3,38.048 328.908,38.792 329.844,40.04 L329.844,32 Z M325.788,48.56 C327.804,48.56 329.868,47.24 329.868,44.168 C329.868,41.096 327.804,39.752 325.788,39.752 C323.412,39.752 321.636,41.6 321.636,44.144 C321.636,46.688 323.388,48.56 325.788,48.56 Z M344.052,38.312 L346.02,38.312 L340.26,51.632 C339.348,53.72 338.076,54.584 336.3,54.584 C335.724,54.584 335.052,54.488 334.5,54.344 L334.5,52.784 C335.052,52.856 335.508,52.904 335.916,52.904 C337.044,52.904 337.908,52.52 338.556,51.032 L339.18,49.616 L334.332,38.312 L336.324,38.312 L340.188,47.624 L344.052,38.312 Z" id="ViewFullCaseStudy" fill="#727272" fill-rule="nonzero"></path>
        </g>
    </g>
</svg>