<?xml version="1.0" encoding="UTF-8"?>
<svg width="572px" height="189px" viewBox="0 0 572 189" version="1.1" xmlns="http://www.w3.org/2000/svg" xmlns:xlink="http://www.w3.org/1999/xlink">
    <!-- Generator: Sketch 53.2 (72643) - https://sketchapp.com -->
    <title>Concepts</title>
    <desc>Created with Sketch.</desc>
    <defs>
        <linearGradient x1="74.000038%" y1="49.1123969%" x2="-16.1444198%" y2="52.9349831%" id="linearGradient-1">
            <stop stop-color="#FA8561" offset="0%"></stop>
            <stop stop-color="#D31CF7" offset="100%"></stop>
        </linearGradient>
    </defs>
    <g id="Page-1" stroke="none" stroke-width="1" fill="none" fill-rule="evenodd">
        <g id="Desktop-HD-Copy-27" transform="translate(-2334.000000, -75.000000)">
            <g id="Concepts" transform="translate(2334.000000, 75.000000)">
                <rect id="Rectangle-Copy-6" fill="#000000" x="0" y="0" width="572" height="189" rx="16"></rect>
                <path d="M149.752,62 C159.404,62 167.46,66.788 171.868,74.464 L164.116,79.936 C160.772,74.616 156.06,71.5 149.752,71.5 C140.404,71.5 133.564,78.34 133.564,88.068 C133.564,97.72 140.404,104.484 149.752,104.484 C156.06,104.484 160.772,101.368 164.116,96.048 L171.868,101.52 C167.536,109.196 159.404,113.984 149.676,113.984 C134.78,113.984 123,102.736 123,87.992 C123,73.248 134.78,62 149.752,62 Z M195.406137,74.616 C206.502137,74.616 215.622137,83.128 215.622137,94.224 C215.622137,105.396 206.502137,113.908 195.330137,113.908 C184.158137,113.908 175.266137,105.396 175.266137,94.224 C175.266137,83.128 184.158137,74.616 195.406137,74.616 Z M195.406137,83.964 C189.706137,83.964 185.678137,88.372 185.678137,94.3 C185.678137,100.228 189.706137,104.484 195.406137,104.484 C200.954137,104.484 205.134137,100.152 205.134137,94.3 C205.134137,88.372 200.954137,83.964 195.406137,83.964 Z M242.276274,74.616 C251.092274,74.616 256.412274,80.696 256.412274,89.74 L256.412274,113.072 L246.228274,113.072 L246.228274,91.108 C246.228274,86.776 243.416274,83.812 239.236274,83.812 C235.056274,83.812 232.092274,86.776 232.092274,91.108 L232.092274,113.072 L221.832274,113.072 L221.832274,75.452 L231.256274,75.452 L231.256274,78.872 C233.840274,76.288 237.640274,74.616 242.276274,74.616 Z M282.534411,74.616 C290.058411,74.616 295.758411,78.264 298.874411,83.888 L291.730411,89.436 C289.602411,86.244 286.866411,83.964 282.686411,83.964 C276.834411,83.964 272.806411,88.372 272.806411,94.224 C272.806411,100.152 276.834411,104.56 282.686411,104.56 C286.790411,104.56 289.526411,102.28 291.730411,99.164 L298.874411,104.636 C295.758411,110.26 289.982411,113.984 282.534411,113.984 C271.286411,113.984 262.394411,105.396 262.394411,94.224 C262.394411,83.128 271.286411,74.616 282.534411,74.616 Z M339.208548,92.096 C339.208548,94.224 338.828548,96.428 338.524548,97.72 L312.076548,97.72 C313.368548,102.508 317.320548,105.168 322.716548,105.168 C326.820548,105.168 330.164548,103.724 333.204548,101.368 L337.460548,108.36 C333.204548,111.932 328.188548,113.984 322.412548,113.984 C310.480548,113.984 301.816548,105.396 301.816548,94.3 C301.816548,83.204 310.404548,74.616 321.500548,74.616 C332.064548,74.616 339.208548,82.368 339.208548,92.096 Z M321.120548,82.9 C316.788548,82.9 313.292548,85.788 312.076548,90.5 L329.252548,90.5 C329.176548,85.712 325.452548,82.9 321.120548,82.9 Z M366.926685,74.616 C377.566685,74.616 385.166685,82.9 385.166685,94.224 C385.166685,105.548 377.566685,113.984 366.926685,113.984 C362.290685,113.984 358.338685,112.312 355.678685,109.424 L355.678685,126.752 L345.418685,126.752 L345.418685,75.452 L354.842685,75.452 L354.842685,80.164 C357.426685,76.592 361.682685,74.616 366.926685,74.616 Z M365.026685,104.636 C370.346685,104.636 374.754685,100.684 374.754685,94.3 C374.754685,87.916 370.422685,83.888 365.026685,83.888 C360.314685,83.888 355.526685,87.004 355.526685,94.224 C355.526685,101.368 360.238685,104.636 365.026685,104.636 Z M410.756822,104.788 C411.972822,104.788 413.644822,104.636 415.620822,104.484 L415.620822,113.072 C413.492822,113.604 411.212822,113.984 408.552822,113.984 C399.280822,113.984 393.504822,109.5 393.504822,99.848 L393.504822,84.116 L387.576822,84.116 L387.576822,75.452 L393.504822,75.452 L393.504822,65.952 L403.764822,65.952 L403.764822,75.452 L414.404822,75.452 L414.404822,84.116 L403.764822,84.116 L403.764822,98.936 C403.764822,103.268 406.044822,104.788 410.756822,104.788 Z M434.066959,74.54 C439.538959,74.54 444.174959,76.44 447.594959,80.24 L442.426959,86.548 C439.994959,84.268 437.030959,82.976 433.990959,82.976 C431.558959,82.976 429.962959,83.812 429.962959,85.636 C429.962959,87.156 431.178959,87.916 433.914959,88.98 L437.562959,90.5 C444.326959,93.236 448.126959,96.124 448.126959,101.976 C448.126959,109.728 441.666959,113.984 433.458959,113.984 C426.770959,113.984 421.222959,111.096 417.878959,106.688 L423.046959,100.456 C426.086959,103.572 429.582959,105.548 433.610959,105.548 C436.194959,105.548 438.398959,104.56 438.398959,102.432 C438.398959,100.684 436.802959,100 434.522959,99.012 L430.494959,97.34 C424.110959,94.756 420.234959,91.792 420.234959,85.864 C420.234959,78.644 426.086959,74.54 434.066959,74.54 Z" fill="url(#linearGradient-1)" fill-rule="nonzero"></path>
            </g>
        </g>
    </g>
</svg>