<?xml version="1.0" encoding="UTF-8"?>
<svg width="628px" height="74px" viewBox="0 0 628 74" version="1.1" xmlns="http://www.w3.org/2000/svg" xmlns:xlink="http://www.w3.org/1999/xlink">
    <!-- Generator: Sketch 53.2 (72643) - https://sketchapp.com -->
    <title>ThiswasaconceptforaredesignoftheVehicletabintheBMWConnectedApp.</title>
    <desc>Created with Sketch.</desc>
    <g id="Page-1" stroke="none" stroke-width="1" fill="none" fill-rule="evenodd">
        <g id="Desktop-HD-Copy-33" transform="translate(-406.000000, -1515.000000)" fill="#404648" fill-rule="nonzero">
            <path d="M426.393389,1518.56 L426.393389,1520.94 L418.471389,1520.94 L418.471389,1541 L415.819389,1541 L415.819389,1520.94 L407.931389,1520.94 L407.931389,1518.56 L426.393389,1518.56 Z M437.470069,1524.068 C441.346069,1524.068 443.590069,1526.754 443.590069,1530.596 L443.590069,1541 L440.972069,1541 L440.972069,1530.936 C440.972069,1528.318 439.408069,1526.482 436.858069,1526.482 C434.308069,1526.482 432.506069,1528.352 432.506069,1530.936 L432.506069,1541 L429.888069,1541 L429.888069,1515.5 L432.506069,1515.5 L432.506069,1526.312 C433.594069,1524.918 435.328069,1524.068 437.470069,1524.068 Z M450.41675,1516.214 C451.47075,1516.214 452.35475,1517.064 452.35475,1518.118 C452.35475,1519.206 451.47075,1520.022 450.41675,1520.022 C449.29475,1520.022 448.44475,1519.206 448.44475,1518.118 C448.44475,1517.064 449.29475,1516.214 450.41675,1516.214 Z M451.70875,1524.442 L451.70875,1541 L449.09075,1541 L449.09075,1524.442 L451.70875,1524.442 Z M462.41143,1524.068 C464.79143,1524.068 466.66143,1525.088 467.95343,1526.686 L466.35543,1528.318 C465.26743,1527.196 463.83943,1526.482 462.27543,1526.482 C460.71143,1526.482 459.52143,1527.196 459.52143,1528.556 C459.52143,1529.678 460.37143,1530.222 462.20743,1530.97 L463.73743,1531.616 C466.72943,1532.874 468.12343,1534.166 468.12343,1536.512 C468.12343,1539.742 465.36943,1541.374 462.30943,1541.374 C459.38543,1541.374 457.17543,1539.912 455.84943,1538.144 L457.51543,1536.41 C458.87543,1537.838 460.26943,1538.96 462.27543,1538.96 C464.00943,1538.96 465.43743,1538.11 465.43743,1536.614 C465.43743,1535.186 464.21343,1534.642 462.54743,1533.962 L460.94943,1533.282 C458.43343,1532.228 456.83543,1531.072 456.83543,1528.692 C456.83543,1525.7 459.38543,1524.068 462.41143,1524.068 Z M503.604792,1524.442 L506.392792,1524.442 L499.422792,1541.374 L498.470792,1541.374 L492.826792,1528.862 L487.216792,1541.374 L486.298792,1541.374 L479.260792,1524.442 L482.048792,1524.442 L486.808792,1536.682 L492.350792,1524.068 L493.336792,1524.068 L498.912792,1536.614 L503.604792,1524.442 Z M515.429472,1524.068 C519.203472,1524.068 521.889472,1526.346 521.889472,1530.8 L521.889472,1541 L519.441472,1541 L519.441472,1538.858 C518.251472,1540.456 516.313472,1541.374 513.865472,1541.374 C510.533472,1541.374 508.085472,1539.606 508.085472,1536.716 C508.085472,1533.928 510.431472,1532.092 514.035472,1532.092 L519.271472,1532.092 L519.271472,1530.664 C519.271472,1527.876 517.707472,1526.482 515.259472,1526.482 C513.185472,1526.482 511.723472,1527.468 510.431472,1529.134 L508.697472,1527.706 C510.261472,1525.19 512.777472,1524.068 515.429472,1524.068 Z M514.205472,1539.198 C516.925472,1539.198 519.271472,1537.226 519.271472,1534.642 L519.271472,1534.234 L514.341472,1534.234 C512.029472,1534.234 510.771472,1535.016 510.771472,1536.58 C510.771472,1538.348 512.369472,1539.198 514.205472,1539.198 Z M532.388153,1524.068 C534.768153,1524.068 536.638153,1525.088 537.930153,1526.686 L536.332153,1528.318 C535.244153,1527.196 533.816153,1526.482 532.252153,1526.482 C530.688153,1526.482 529.498153,1527.196 529.498153,1528.556 C529.498153,1529.678 530.348153,1530.222 532.184153,1530.97 L533.714153,1531.616 C536.706153,1532.874 538.100153,1534.166 538.100153,1536.512 C538.100153,1539.742 535.346153,1541.374 532.286153,1541.374 C529.362153,1541.374 527.152153,1539.912 525.826153,1538.144 L527.492153,1536.41 C528.852153,1537.838 530.246153,1538.96 532.252153,1538.96 C533.986153,1538.96 535.414153,1538.11 535.414153,1536.614 C535.414153,1535.186 534.190153,1534.642 532.524153,1533.962 L530.926153,1533.282 C528.410153,1532.228 526.812153,1531.072 526.812153,1528.692 C526.812153,1525.7 529.362153,1524.068 532.388153,1524.068 Z M558.213514,1524.068 C561.987514,1524.068 564.673514,1526.346 564.673514,1530.8 L564.673514,1541 L562.225514,1541 L562.225514,1538.858 C561.035514,1540.456 559.097514,1541.374 556.649514,1541.374 C553.317514,1541.374 550.869514,1539.606 550.869514,1536.716 C550.869514,1533.928 553.215514,1532.092 556.819514,1532.092 L562.055514,1532.092 L562.055514,1530.664 C562.055514,1527.876 560.491514,1526.482 558.043514,1526.482 C555.969514,1526.482 554.507514,1527.468 553.215514,1529.134 L551.481514,1527.706 C553.045514,1525.19 555.561514,1524.068 558.213514,1524.068 Z M556.989514,1539.198 C559.709514,1539.198 562.055514,1537.226 562.055514,1534.642 L562.055514,1534.234 L557.125514,1534.234 C554.813514,1534.234 553.555514,1535.016 553.555514,1536.58 C553.555514,1538.348 555.153514,1539.198 556.989514,1539.198 Z M587.132875,1524.068 C590.124875,1524.068 592.504875,1525.496 593.966875,1527.672 L592.096875,1529.168 C590.872875,1527.536 589.308875,1526.482 587.166875,1526.482 C583.698875,1526.482 581.148875,1529.236 581.148875,1532.704 C581.148875,1536.206 583.698875,1538.96 587.166875,1538.96 C589.274875,1538.96 590.838875,1537.94 592.062875,1536.308 L593.932875,1537.77 C592.470875,1539.946 590.090875,1541.374 587.132875,1541.374 C582.304875,1541.374 578.462875,1537.566 578.462875,1532.704 C578.462875,1527.876 582.304875,1524.068 587.132875,1524.068 Z M605.485556,1524.068 C610.279556,1524.068 614.155556,1527.842 614.155556,1532.704 C614.155556,1537.532 610.279556,1541.34 605.451556,1541.34 C600.657556,1541.306 596.815556,1537.566 596.815556,1532.704 C596.815556,1527.842 600.623556,1524.068 605.485556,1524.068 Z M605.485556,1526.482 C602.017556,1526.482 599.467556,1529.202 599.501556,1532.738 C599.501556,1536.24 602.017556,1538.926 605.451556,1538.926 C608.885556,1538.926 611.469556,1536.206 611.469556,1532.738 C611.469556,1529.168 608.885556,1526.482 605.485556,1526.482 Z M626.252236,1524.068 C630.162236,1524.068 632.406236,1526.754 632.406236,1530.596 L632.406236,1541 L629.788236,1541 L629.788236,1530.902 C629.788236,1528.284 628.224236,1526.482 625.674236,1526.482 C623.124236,1526.482 621.322236,1528.318 621.322236,1530.902 L621.322236,1541 L618.704236,1541 L618.704236,1524.442 L621.152236,1524.442 L621.152236,1526.244 C622.308236,1524.884 624.110236,1524.068 626.252236,1524.068 Z M645.386917,1524.068 C648.378917,1524.068 650.758917,1525.496 652.220917,1527.672 L650.350917,1529.168 C649.126917,1527.536 647.562917,1526.482 645.420917,1526.482 C641.952917,1526.482 639.402917,1529.236 639.402917,1532.704 C639.402917,1536.206 641.952917,1538.96 645.420917,1538.96 C647.528917,1538.96 649.092917,1537.94 650.316917,1536.308 L652.186917,1537.77 C650.724917,1539.946 648.344917,1541.374 645.386917,1541.374 C640.558917,1541.374 636.716917,1537.566 636.716917,1532.704 C636.716917,1527.876 640.558917,1524.068 645.386917,1524.068 Z M671.083597,1531.548 C671.083597,1532.432 670.947597,1533.214 670.879597,1533.52 L657.823597,1533.52 C658.163597,1536.818 660.611597,1538.96 663.875597,1538.96 C665.949597,1538.96 667.581597,1538.076 668.941597,1536.716 L670.471597,1538.484 C668.805597,1540.252 666.561597,1541.374 663.841597,1541.374 C658.843597,1541.374 655.069597,1537.6 655.069597,1532.738 C655.069597,1527.91 658.775597,1524.068 663.535597,1524.068 C667.785597,1524.068 671.083597,1527.128 671.083597,1531.548 Z M663.467597,1526.448 C660.679597,1526.448 658.469597,1528.352 657.925597,1531.208 L668.397597,1531.208 C668.363597,1528.148 666.119597,1526.448 663.467597,1526.448 Z M684.336278,1524.068 C689.096278,1524.068 692.530278,1527.842 692.530278,1532.704 C692.530278,1537.6 689.062278,1541.374 684.336278,1541.374 C681.888278,1541.374 679.576278,1540.354 678.250278,1538.586 L678.250278,1547.12 L675.632278,1547.12 L675.632278,1524.442 L678.080278,1524.442 L678.080278,1527.094 C679.372278,1525.19 681.718278,1524.068 684.336278,1524.068 Z M683.962278,1538.96 C687.328278,1538.96 689.844278,1536.342 689.844278,1532.738 C689.844278,1529.134 687.362278,1526.482 683.962278,1526.482 C681.106278,1526.482 678.216278,1528.352 678.216278,1532.704 C678.216278,1537.056 681.072278,1538.96 683.962278,1538.96 Z M703.912958,1538.994 C704.558958,1538.994 705.272958,1538.926 706.122958,1538.79 L706.122958,1541 C705.272958,1541.204 704.422958,1541.374 703.368958,1541.374 C700.104958,1541.374 697.792958,1539.776 697.792958,1536.002 L697.792958,1526.788 L695.004958,1526.788 L695.004958,1524.442 L697.792958,1524.442 L697.792958,1519.92 L700.410958,1519.92 L700.410958,1524.442 L705.578958,1524.442 L705.578958,1526.788 L700.410958,1526.788 L700.410958,1535.832 C700.410958,1538.314 701.838958,1538.994 703.912958,1538.994 Z M725.964319,1517.506 C723.924319,1517.506 722.496319,1518.186 722.496319,1520.668 L722.496319,1524.442 L726.644319,1524.442 L726.644319,1526.788 L722.496319,1526.788 L722.496319,1541 L719.878319,1541 L719.878319,1526.788 L717.498319,1526.788 L717.498319,1524.442 L719.878319,1524.442 L719.878319,1520.498 C719.878319,1516.724 722.156319,1515.126 725.352319,1515.126 C726.168319,1515.126 726.814319,1515.228 727.426319,1515.398 L727.426319,1517.608 C726.882319,1517.54 726.406319,1517.506 725.964319,1517.506 Z M737.211,1524.068 C742.005,1524.068 745.881,1527.842 745.881,1532.704 C745.881,1537.532 742.005,1541.34 737.177,1541.34 C732.383,1541.306 728.541,1537.566 728.541,1532.704 C728.541,1527.842 732.349,1524.068 737.211,1524.068 Z M737.211,1526.482 C733.743,1526.482 731.193,1529.202 731.227,1532.738 C731.227,1536.24 733.743,1538.926 737.177,1538.926 C740.611,1538.926 743.195,1536.206 743.195,1532.738 C743.195,1529.168 740.611,1526.482 737.211,1526.482 Z M758.011681,1524.306 C758.555681,1524.306 758.895681,1524.374 759.235681,1524.442 L759.235681,1526.754 L758.249681,1526.754 C755.563681,1526.754 753.047681,1528.454 753.047681,1531.616 L753.047681,1541 L750.429681,1541 L750.429681,1524.442 L752.877681,1524.442 L752.877681,1526.822 C754.101681,1525.19 756.039681,1524.306 758.011681,1524.306 Z M778.125042,1524.068 C781.899042,1524.068 784.585042,1526.346 784.585042,1530.8 L784.585042,1541 L782.137042,1541 L782.137042,1538.858 C780.947042,1540.456 779.009042,1541.374 776.561042,1541.374 C773.229042,1541.374 770.781042,1539.606 770.781042,1536.716 C770.781042,1533.928 773.127042,1532.092 776.731042,1532.092 L781.967042,1532.092 L781.967042,1530.664 C781.967042,1527.876 780.403042,1526.482 777.955042,1526.482 C775.881042,1526.482 774.419042,1527.468 773.127042,1529.134 L771.393042,1527.706 C772.957042,1525.19 775.473042,1524.068 778.125042,1524.068 Z M776.901042,1539.198 C779.621042,1539.198 781.967042,1537.226 781.967042,1534.642 L781.967042,1534.234 L777.037042,1534.234 C774.725042,1534.234 773.467042,1535.016 773.467042,1536.58 C773.467042,1538.348 775.065042,1539.198 776.901042,1539.198 Z M807.146403,1524.306 C807.690403,1524.306 808.030403,1524.374 808.370403,1524.442 L808.370403,1526.754 L807.384403,1526.754 C804.698403,1526.754 802.182403,1528.454 802.182403,1531.616 L802.182403,1541 L799.564403,1541 L799.564403,1524.442 L802.012403,1524.442 L802.012403,1526.822 C803.236403,1525.19 805.174403,1524.306 807.146403,1524.306 Z M826.315083,1531.548 C826.315083,1532.432 826.179083,1533.214 826.111083,1533.52 L813.055083,1533.52 C813.395083,1536.818 815.843083,1538.96 819.107083,1538.96 C821.181083,1538.96 822.813083,1538.076 824.173083,1536.716 L825.703083,1538.484 C824.037083,1540.252 821.793083,1541.374 819.073083,1541.374 C814.075083,1541.374 810.301083,1537.6 810.301083,1532.738 C810.301083,1527.91 814.007083,1524.068 818.767083,1524.068 C823.017083,1524.068 826.315083,1527.128 826.315083,1531.548 Z M818.699083,1526.448 C815.911083,1526.448 813.701083,1528.352 813.157083,1531.208 L823.629083,1531.208 C823.595083,1528.148 821.351083,1526.448 818.699083,1526.448 Z M843.987764,1515.5 L846.605764,1515.5 L846.605764,1541 L844.123764,1541 L844.123764,1538.348 C842.831764,1540.252 840.485764,1541.374 837.867764,1541.374 C833.141764,1541.374 829.673764,1537.6 829.673764,1532.738 C829.673764,1527.842 833.141764,1524.068 837.867764,1524.068 C840.383764,1524.068 842.661764,1525.122 843.987764,1526.89 L843.987764,1515.5 Z M838.241764,1538.96 C841.097764,1538.96 844.021764,1537.09 844.021764,1532.738 C844.021764,1528.386 841.097764,1526.482 838.241764,1526.482 C834.875764,1526.482 832.359764,1529.1 832.359764,1532.704 C832.359764,1536.308 834.841764,1538.96 838.241764,1538.96 Z M867.134444,1531.548 C867.134444,1532.432 866.998444,1533.214 866.930444,1533.52 L853.874444,1533.52 C854.214444,1536.818 856.662444,1538.96 859.926444,1538.96 C862.000444,1538.96 863.632444,1538.076 864.992444,1536.716 L866.522444,1538.484 C864.856444,1540.252 862.612444,1541.374 859.892444,1541.374 C854.894444,1541.374 851.120444,1537.6 851.120444,1532.738 C851.120444,1527.91 854.826444,1524.068 859.586444,1524.068 C863.836444,1524.068 867.134444,1527.128 867.134444,1531.548 Z M859.518444,1526.448 C856.730444,1526.448 854.520444,1528.352 853.976444,1531.208 L864.448444,1531.208 C864.414444,1528.148 862.170444,1526.448 859.518444,1526.448 Z M876.681125,1524.068 C879.061125,1524.068 880.931125,1525.088 882.223125,1526.686 L880.625125,1528.318 C879.537125,1527.196 878.109125,1526.482 876.545125,1526.482 C874.981125,1526.482 873.791125,1527.196 873.791125,1528.556 C873.791125,1529.678 874.641125,1530.222 876.477125,1530.97 L878.007125,1531.616 C880.999125,1532.874 882.393125,1534.166 882.393125,1536.512 C882.393125,1539.742 879.639125,1541.374 876.579125,1541.374 C873.655125,1541.374 871.445125,1539.912 870.119125,1538.144 L871.785125,1536.41 C873.145125,1537.838 874.539125,1538.96 876.545125,1538.96 C878.279125,1538.96 879.707125,1538.11 879.707125,1536.614 C879.707125,1535.186 878.483125,1534.642 876.817125,1533.962 L875.219125,1533.282 C872.703125,1532.228 871.105125,1531.072 871.105125,1528.692 C871.105125,1525.7 873.655125,1524.068 876.681125,1524.068 Z M888.403806,1516.214 C889.457806,1516.214 890.341806,1517.064 890.341806,1518.118 C890.341806,1519.206 889.457806,1520.022 888.403806,1520.022 C887.281806,1520.022 886.431806,1519.206 886.431806,1518.118 C886.431806,1517.064 887.281806,1516.214 888.403806,1516.214 Z M889.695806,1524.442 L889.695806,1541 L887.077806,1541 L887.077806,1524.442 L889.695806,1524.442 Z M908.830486,1524.442 L911.312486,1524.442 L911.312486,1539.402 C911.312486,1544.502 908.082486,1547.494 903.254486,1547.494 C899.786486,1547.494 897.100486,1545.93 895.468486,1544.298 L896.998486,1542.462 C898.596486,1543.856 900.466486,1545.08 903.186486,1545.08 C906.552486,1545.08 908.694486,1543.21 908.694486,1539.538 L908.694486,1538.076 C907.334486,1539.81 905.022486,1540.83 902.540486,1540.83 C897.882486,1540.83 894.414486,1537.294 894.414486,1532.466 C894.414486,1527.672 897.882486,1524.068 902.540486,1524.068 C905.158486,1524.068 907.538486,1525.224 908.830486,1527.128 L908.830486,1524.442 Z M902.948486,1538.416 C905.838486,1538.416 908.728486,1536.614 908.728486,1532.466 C908.728486,1528.318 905.804486,1526.55 902.948486,1526.55 C899.582486,1526.55 897.066486,1528.998 897.066486,1532.5 C897.066486,1536.002 899.582486,1538.416 902.948486,1538.416 Z M924.565167,1524.068 C928.475167,1524.068 930.719167,1526.754 930.719167,1530.596 L930.719167,1541 L928.101167,1541 L928.101167,1530.902 C928.101167,1528.284 926.537167,1526.482 923.987167,1526.482 C921.437167,1526.482 919.635167,1528.318 919.635167,1530.902 L919.635167,1541 L917.017167,1541 L917.017167,1524.442 L919.465167,1524.442 L919.465167,1526.244 C920.621167,1524.884 922.423167,1524.068 924.565167,1524.068 Z M953.178528,1524.068 C957.972528,1524.068 961.848528,1527.842 961.848528,1532.704 C961.848528,1537.532 957.972528,1541.34 953.144528,1541.34 C948.350528,1541.306 944.508528,1537.566 944.508528,1532.704 C944.508528,1527.842 948.316528,1524.068 953.178528,1524.068 Z M953.178528,1526.482 C949.710528,1526.482 947.160528,1529.202 947.194528,1532.738 C947.194528,1536.24 949.710528,1538.926 953.144528,1538.926 C956.578528,1538.926 959.162528,1536.206 959.162528,1532.738 C959.162528,1529.168 956.578528,1526.482 953.178528,1526.482 Z M972.891208,1517.506 C970.851208,1517.506 969.423208,1518.186 969.423208,1520.668 L969.423208,1524.442 L973.571208,1524.442 L973.571208,1526.788 L969.423208,1526.788 L969.423208,1541 L966.805208,1541 L966.805208,1526.788 L964.425208,1526.788 L964.425208,1524.442 L966.805208,1524.442 L966.805208,1520.498 C966.805208,1516.724 969.083208,1515.126 972.279208,1515.126 C973.095208,1515.126 973.741208,1515.228 974.353208,1515.398 L974.353208,1517.608 C973.809208,1517.54 973.333208,1517.506 972.891208,1517.506 Z M991.95057,1538.994 C992.59657,1538.994 993.31057,1538.926 994.16057,1538.79 L994.16057,1541 C993.31057,1541.204 992.46057,1541.374 991.40657,1541.374 C988.14257,1541.374 985.83057,1539.776 985.83057,1536.002 L985.83057,1526.788 L983.04257,1526.788 L983.04257,1524.442 L985.83057,1524.442 L985.83057,1519.92 L988.44857,1519.92 L988.44857,1524.442 L993.61657,1524.442 L993.61657,1526.788 L988.44857,1526.788 L988.44857,1535.832 C988.44857,1538.314 989.87657,1538.994 991.95057,1538.994 Z M1005.61125,1524.068 C1009.48725,1524.068 1011.73125,1526.754 1011.73125,1530.596 L1011.73125,1541 L1009.11325,1541 L1009.11325,1530.936 C1009.11325,1528.318 1007.54925,1526.482 1004.99925,1526.482 C1002.44925,1526.482 1000.64725,1528.352 1000.64725,1530.936 L1000.64725,1541 L998.02925,1541 L998.02925,1515.5 L1000.64725,1515.5 L1000.64725,1526.312 C1001.73525,1524.918 1003.46925,1524.068 1005.61125,1524.068 Z M1032.05593,1531.548 C1032.05593,1532.432 1031.91993,1533.214 1031.85193,1533.52 L1018.79593,1533.52 C1019.13593,1536.818 1021.58393,1538.96 1024.84793,1538.96 C1026.92193,1538.96 1028.55393,1538.076 1029.91393,1536.716 L1031.44393,1538.484 C1029.77793,1540.252 1027.53393,1541.374 1024.81393,1541.374 C1019.81593,1541.374 1016.04193,1537.6 1016.04193,1532.738 C1016.04193,1527.91 1019.74793,1524.068 1024.50793,1524.068 C1028.75793,1524.068 1032.05593,1527.128 1032.05593,1531.548 Z M1024.43993,1526.448 C1021.65193,1526.448 1019.44193,1528.352 1018.89793,1531.208 L1029.36993,1531.208 C1029.33593,1528.148 1027.09193,1526.448 1024.43993,1526.448 Z M423.59441,1559.56 L426.51841,1559.56 L416.79441,1582.374 L415.80841,1582.374 L406.08441,1559.56 L409.00841,1559.56 L416.31841,1577.104 L423.59441,1559.56 Z M443.06909,1572.548 C443.06909,1573.432 442.93309,1574.214 442.86509,1574.52 L429.80909,1574.52 C430.14909,1577.818 432.59709,1579.96 435.86109,1579.96 C437.93509,1579.96 439.56709,1579.076 440.92709,1577.716 L442.45709,1579.484 C440.79109,1581.252 438.54709,1582.374 435.82709,1582.374 C430.82909,1582.374 427.05509,1578.6 427.05509,1573.738 C427.05509,1568.91 430.76109,1565.068 435.52109,1565.068 C439.77109,1565.068 443.06909,1568.128 443.06909,1572.548 Z M435.45309,1567.448 C432.66509,1567.448 430.45509,1569.352 429.91109,1572.208 L440.38309,1572.208 C440.34909,1569.148 438.10509,1567.448 435.45309,1567.448 Z M455.199771,1565.068 C459.075771,1565.068 461.319771,1567.754 461.319771,1571.596 L461.319771,1582 L458.701771,1582 L458.701771,1571.936 C458.701771,1569.318 457.137771,1567.482 454.587771,1567.482 C452.037771,1567.482 450.235771,1569.352 450.235771,1571.936 L450.235771,1582 L447.617771,1582 L447.617771,1556.5 L450.235771,1556.5 L450.235771,1567.312 C451.323771,1565.918 453.057771,1565.068 455.199771,1565.068 Z M468.146451,1557.214 C469.200451,1557.214 470.084451,1558.064 470.084451,1559.118 C470.084451,1560.206 469.200451,1561.022 468.146451,1561.022 C467.024451,1561.022 466.174451,1560.206 466.174451,1559.118 C466.174451,1558.064 467.024451,1557.214 468.146451,1557.214 Z M469.438451,1565.442 L469.438451,1582 L466.820451,1582 L466.820451,1565.442 L469.438451,1565.442 Z M482.623132,1565.068 C485.615132,1565.068 487.995132,1566.496 489.457132,1568.672 L487.587132,1570.168 C486.363132,1568.536 484.799132,1567.482 482.657132,1567.482 C479.189132,1567.482 476.639132,1570.236 476.639132,1573.704 C476.639132,1577.206 479.189132,1579.96 482.657132,1579.96 C484.765132,1579.96 486.329132,1578.94 487.553132,1577.308 L489.423132,1578.77 C487.961132,1580.946 485.581132,1582.374 482.623132,1582.374 C477.795132,1582.374 473.953132,1578.566 473.953132,1573.704 C473.953132,1568.876 477.795132,1565.068 482.623132,1565.068 Z M496.453812,1556.5 L496.453812,1582 L493.835812,1582 L493.835812,1556.5 L496.453812,1556.5 Z M516.982493,1572.548 C516.982493,1573.432 516.846493,1574.214 516.778493,1574.52 L503.722493,1574.52 C504.062493,1577.818 506.510493,1579.96 509.774493,1579.96 C511.848493,1579.96 513.480493,1579.076 514.840493,1577.716 L516.370493,1579.484 C514.704493,1581.252 512.460493,1582.374 509.740493,1582.374 C504.742493,1582.374 500.968493,1578.6 500.968493,1573.738 C500.968493,1568.91 504.674493,1565.068 509.434493,1565.068 C513.684493,1565.068 516.982493,1568.128 516.982493,1572.548 Z M509.366493,1567.448 C506.578493,1567.448 504.368493,1569.352 503.824493,1572.208 L514.296493,1572.208 C514.262493,1569.148 512.018493,1567.448 509.366493,1567.448 Z M537.843854,1579.994 C538.489854,1579.994 539.203854,1579.926 540.053854,1579.79 L540.053854,1582 C539.203854,1582.204 538.353854,1582.374 537.299854,1582.374 C534.035854,1582.374 531.723854,1580.776 531.723854,1577.002 L531.723854,1567.788 L528.935854,1567.788 L528.935854,1565.442 L531.723854,1565.442 L531.723854,1560.92 L534.341854,1560.92 L534.341854,1565.442 L539.509854,1565.442 L539.509854,1567.788 L534.341854,1567.788 L534.341854,1576.832 C534.341854,1579.314 535.769854,1579.994 537.843854,1579.994 Z M549.872535,1565.068 C553.646535,1565.068 556.332535,1567.346 556.332535,1571.8 L556.332535,1582 L553.884535,1582 L553.884535,1579.858 C552.694535,1581.456 550.756535,1582.374 548.308535,1582.374 C544.976535,1582.374 542.528535,1580.606 542.528535,1577.716 C542.528535,1574.928 544.874535,1573.092 548.478535,1573.092 L553.714535,1573.092 L553.714535,1571.664 C553.714535,1568.876 552.150535,1567.482 549.702535,1567.482 C547.628535,1567.482 546.166535,1568.468 544.874535,1570.134 L543.140535,1568.706 C544.704535,1566.19 547.220535,1565.068 549.872535,1565.068 Z M548.648535,1580.198 C551.368535,1580.198 553.714535,1578.226 553.714535,1575.642 L553.714535,1575.234 L548.784535,1575.234 C546.472535,1575.234 545.214535,1576.016 545.214535,1577.58 C545.214535,1579.348 546.812535,1580.198 548.648535,1580.198 Z M570.537215,1565.068 C575.263215,1565.068 578.731215,1568.842 578.731215,1573.738 C578.731215,1578.6 575.297215,1582.374 570.571215,1582.374 C567.987215,1582.374 565.573215,1581.252 564.281215,1579.348 L564.281215,1582 L561.833215,1582 L561.833215,1556.5 L564.451215,1556.5 L564.451215,1567.89 C565.743215,1566.156 568.021215,1565.068 570.537215,1565.068 Z M570.163215,1579.96 C573.563215,1579.96 576.045215,1577.308 576.045215,1573.704 C576.045215,1570.1 573.529215,1567.482 570.163215,1567.482 C567.273215,1567.482 564.417215,1569.386 564.417215,1573.738 C564.417215,1578.09 567.307215,1579.96 570.163215,1579.96 Z M594.084576,1557.214 C595.138576,1557.214 596.022576,1558.064 596.022576,1559.118 C596.022576,1560.206 595.138576,1561.022 594.084576,1561.022 C592.962576,1561.022 592.112576,1560.206 592.112576,1559.118 C592.112576,1558.064 592.962576,1557.214 594.084576,1557.214 Z M595.376576,1565.442 L595.376576,1582 L592.758576,1582 L592.758576,1565.442 L595.376576,1565.442 Z M608.629257,1565.068 C612.539257,1565.068 614.783257,1567.754 614.783257,1571.596 L614.783257,1582 L612.165257,1582 L612.165257,1571.902 C612.165257,1569.284 610.601257,1567.482 608.051257,1567.482 C605.501257,1567.482 603.699257,1569.318 603.699257,1571.902 L603.699257,1582 L601.081257,1582 L601.081257,1565.442 L603.529257,1565.442 L603.529257,1567.244 C604.685257,1565.884 606.487257,1565.068 608.629257,1565.068 Z M636.596618,1579.994 C637.242618,1579.994 637.956618,1579.926 638.806618,1579.79 L638.806618,1582 C637.956618,1582.204 637.106618,1582.374 636.052618,1582.374 C632.788618,1582.374 630.476618,1580.776 630.476618,1577.002 L630.476618,1567.788 L627.688618,1567.788 L627.688618,1565.442 L630.476618,1565.442 L630.476618,1560.92 L633.094618,1560.92 L633.094618,1565.442 L638.262618,1565.442 L638.262618,1567.788 L633.094618,1567.788 L633.094618,1576.832 C633.094618,1579.314 634.522618,1579.994 636.596618,1579.994 Z M650.257299,1565.068 C654.133299,1565.068 656.377299,1567.754 656.377299,1571.596 L656.377299,1582 L653.759299,1582 L653.759299,1571.936 C653.759299,1569.318 652.195299,1567.482 649.645299,1567.482 C647.095299,1567.482 645.293299,1569.352 645.293299,1571.936 L645.293299,1582 L642.675299,1582 L642.675299,1556.5 L645.293299,1556.5 L645.293299,1567.312 C646.381299,1565.918 648.115299,1565.068 650.257299,1565.068 Z M676.701979,1572.548 C676.701979,1573.432 676.565979,1574.214 676.497979,1574.52 L663.441979,1574.52 C663.781979,1577.818 666.229979,1579.96 669.493979,1579.96 C671.567979,1579.96 673.199979,1579.076 674.559979,1577.716 L676.089979,1579.484 C674.423979,1581.252 672.179979,1582.374 669.459979,1582.374 C664.461979,1582.374 660.687979,1578.6 660.687979,1573.738 C660.687979,1568.91 664.393979,1565.068 669.153979,1565.068 C673.403979,1565.068 676.701979,1568.128 676.701979,1572.548 Z M669.085979,1567.448 C666.297979,1567.448 664.087979,1569.352 663.543979,1572.208 L674.015979,1572.208 C673.981979,1569.148 671.737979,1567.448 669.085979,1567.448 Z M702.86734,1569.658 C705.68934,1570.474 707.28734,1572.684 707.28734,1575.54 C707.28734,1579.246 704.63534,1582 700.18134,1582 L690.93334,1582 L690.93334,1559.56 L698.65134,1559.56 C702.62934,1559.56 705.04334,1561.974 705.04334,1565.238 C705.04334,1567.108 704.26134,1568.638 702.86734,1569.658 Z M698.37934,1561.94 L693.58534,1561.94 L693.58534,1568.91 L698.37934,1568.91 C700.99734,1568.91 702.32334,1567.482 702.32334,1565.408 C702.32334,1563.334 700.99734,1561.94 698.37934,1561.94 Z M699.90934,1579.62 C702.93534,1579.62 704.56734,1577.92 704.56734,1575.472 C704.56734,1573.058 702.93534,1571.324 699.90934,1571.324 L693.58534,1571.324 L693.58534,1579.62 L699.90934,1579.62 Z M731.556021,1559.186 L732.474021,1559.186 L732.474021,1582 L729.822021,1582 L729.822021,1565.884 L722.648021,1575.642 L721.696021,1575.642 L714.488021,1565.85 L714.488021,1582 L711.836021,1582 L711.836021,1559.186 L712.788021,1559.186 L722.138021,1572.174 L731.556021,1559.186 Z M767.316701,1559.56 L770.206701,1559.56 L761.706701,1582.374 L760.754701,1582.374 L753.648701,1564.558 L746.542701,1582.374 L745.590701,1582.374 L737.056701,1559.56 L739.980701,1559.56 L746.168701,1576.662 L753.172701,1559.186 L754.124701,1559.186 L761.128701,1576.662 L767.316701,1559.56 Z M792.802063,1559.186 C796.882063,1559.186 800.248063,1561.158 802.118063,1564.014 L800.146063,1565.578 C798.480063,1563.13 795.964063,1561.634 792.836063,1561.634 C787.770063,1561.634 783.894063,1565.544 783.894063,1570.78 C783.894063,1576.016 787.770063,1579.926 792.836063,1579.926 C795.964063,1579.926 798.480063,1578.43 800.146063,1575.982 L802.118063,1577.546 C800.316063,1580.402 796.882063,1582.374 792.802063,1582.374 C786.308063,1582.374 781.140063,1577.342 781.140063,1570.78 C781.140063,1564.218 786.308063,1559.186 792.802063,1559.186 Z M813.806743,1565.068 C818.600743,1565.068 822.476743,1568.842 822.476743,1573.704 C822.476743,1578.532 818.600743,1582.34 813.772743,1582.34 C808.978743,1582.306 805.136743,1578.566 805.136743,1573.704 C805.136743,1568.842 808.944743,1565.068 813.806743,1565.068 Z M813.806743,1567.482 C810.338743,1567.482 807.788743,1570.202 807.822743,1573.738 C807.822743,1577.24 810.338743,1579.926 813.772743,1579.926 C817.206743,1579.926 819.790743,1577.206 819.790743,1573.738 C819.790743,1570.168 817.206743,1567.482 813.806743,1567.482 Z M834.573424,1565.068 C838.483424,1565.068 840.727424,1567.754 840.727424,1571.596 L840.727424,1582 L838.109424,1582 L838.109424,1571.902 C838.109424,1569.284 836.545424,1567.482 833.995424,1567.482 C831.445424,1567.482 829.643424,1569.318 829.643424,1571.902 L829.643424,1582 L827.025424,1582 L827.025424,1565.442 L829.473424,1565.442 L829.473424,1567.244 C830.629424,1565.884 832.431424,1565.068 834.573424,1565.068 Z M853.776104,1565.068 C857.686104,1565.068 859.930104,1567.754 859.930104,1571.596 L859.930104,1582 L857.312104,1582 L857.312104,1571.902 C857.312104,1569.284 855.748104,1567.482 853.198104,1567.482 C850.648104,1567.482 848.846104,1569.318 848.846104,1571.902 L848.846104,1582 L846.228104,1582 L846.228104,1565.442 L848.676104,1565.442 L848.676104,1567.244 C849.832104,1565.884 851.634104,1565.068 853.776104,1565.068 Z M880.254785,1572.548 C880.254785,1573.432 880.118785,1574.214 880.050785,1574.52 L866.994785,1574.52 C867.334785,1577.818 869.782785,1579.96 873.046785,1579.96 C875.120785,1579.96 876.752785,1579.076 878.112785,1577.716 L879.642785,1579.484 C877.976785,1581.252 875.732785,1582.374 873.012785,1582.374 C868.014785,1582.374 864.240785,1578.6 864.240785,1573.738 C864.240785,1568.91 867.946785,1565.068 872.706785,1565.068 C876.956785,1565.068 880.254785,1568.128 880.254785,1572.548 Z M872.638785,1567.448 C869.850785,1567.448 867.640785,1569.352 867.096785,1572.208 L877.568785,1572.208 C877.534785,1569.148 875.290785,1567.448 872.638785,1567.448 Z M892.283465,1565.068 C895.275465,1565.068 897.655465,1566.496 899.117465,1568.672 L897.247465,1570.168 C896.023465,1568.536 894.459465,1567.482 892.317465,1567.482 C888.849465,1567.482 886.299465,1570.236 886.299465,1573.704 C886.299465,1577.206 888.849465,1579.96 892.317465,1579.96 C894.425465,1579.96 895.989465,1578.94 897.213465,1577.308 L899.083465,1578.77 C897.621465,1580.946 895.241465,1582.374 892.283465,1582.374 C887.455465,1582.374 883.613465,1578.566 883.613465,1573.704 C883.613465,1568.876 887.455465,1565.068 892.283465,1565.068 Z M910.330146,1579.994 C910.976146,1579.994 911.690146,1579.926 912.540146,1579.79 L912.540146,1582 C911.690146,1582.204 910.840146,1582.374 909.786146,1582.374 C906.522146,1582.374 904.210146,1580.776 904.210146,1577.002 L904.210146,1567.788 L901.422146,1567.788 L901.422146,1565.442 L904.210146,1565.442 L904.210146,1560.92 L906.828146,1560.92 L906.828146,1565.442 L911.996146,1565.442 L911.996146,1567.788 L906.828146,1567.788 L906.828146,1576.832 C906.828146,1579.314 908.256146,1579.994 910.330146,1579.994 Z M930.892826,1572.548 C930.892826,1573.432 930.756826,1574.214 930.688826,1574.52 L917.632826,1574.52 C917.972826,1577.818 920.420826,1579.96 923.684826,1579.96 C925.758826,1579.96 927.390826,1579.076 928.750826,1577.716 L930.280826,1579.484 C928.614826,1581.252 926.370826,1582.374 923.650826,1582.374 C918.652826,1582.374 914.878826,1578.6 914.878826,1573.738 C914.878826,1568.91 918.584826,1565.068 923.344826,1565.068 C927.594826,1565.068 930.892826,1568.128 930.892826,1572.548 Z M923.276826,1567.448 C920.488826,1567.448 918.278826,1569.352 917.734826,1572.208 L928.206826,1572.208 C928.172826,1569.148 925.928826,1567.448 923.276826,1567.448 Z M948.565507,1556.5 L951.183507,1556.5 L951.183507,1582 L948.701507,1582 L948.701507,1579.348 C947.409507,1581.252 945.063507,1582.374 942.445507,1582.374 C937.719507,1582.374 934.251507,1578.6 934.251507,1573.738 C934.251507,1568.842 937.719507,1565.068 942.445507,1565.068 C944.961507,1565.068 947.239507,1566.122 948.565507,1567.89 L948.565507,1556.5 Z M942.819507,1579.96 C945.675507,1579.96 948.599507,1578.09 948.599507,1573.738 C948.599507,1569.386 945.675507,1567.482 942.819507,1567.482 C939.453507,1567.482 936.937507,1570.1 936.937507,1573.704 C936.937507,1577.308 939.419507,1579.96 942.819507,1579.96 Z M980.442868,1582 L978.504868,1577.444 L967.556868,1577.444 L965.618868,1582 L962.830868,1582 L972.554868,1559.186 L973.540868,1559.186 L983.264868,1582 L980.442868,1582 Z M977.518868,1575.064 L973.030868,1564.048 L968.542868,1575.064 L977.518868,1575.064 Z M995.871549,1565.068 C1000.63155,1565.068 1004.06555,1568.842 1004.06555,1573.704 C1004.06555,1578.6 1000.59755,1582.374 995.871549,1582.374 C993.423549,1582.374 991.111549,1581.354 989.785549,1579.586 L989.785549,1588.12 L987.167549,1588.12 L987.167549,1565.442 L989.615549,1565.442 L989.615549,1568.094 C990.907549,1566.19 993.253549,1565.068 995.871549,1565.068 Z M995.497549,1579.96 C998.863549,1579.96 1001.37955,1577.342 1001.37955,1573.738 C1001.37955,1570.134 998.897549,1567.482 995.497549,1567.482 C992.641549,1567.482 989.751549,1569.352 989.751549,1573.704 C989.751549,1578.056 992.607549,1579.96 995.497549,1579.96 Z M1017.31823,1565.068 C1022.07823,1565.068 1025.51223,1568.842 1025.51223,1573.704 C1025.51223,1578.6 1022.04423,1582.374 1017.31823,1582.374 C1014.87023,1582.374 1012.55823,1581.354 1011.23223,1579.586 L1011.23223,1588.12 L1008.61423,1588.12 L1008.61423,1565.442 L1011.06223,1565.442 L1011.06223,1568.094 C1012.35423,1566.19 1014.70023,1565.068 1017.31823,1565.068 Z M1016.94423,1579.96 C1020.31023,1579.96 1022.82623,1577.342 1022.82623,1573.738 C1022.82623,1570.134 1020.34423,1567.482 1016.94423,1567.482 C1014.08823,1567.482 1011.19823,1569.352 1011.19823,1573.704 C1011.19823,1578.056 1014.05423,1579.96 1016.94423,1579.96 Z M1031.42091,1578.09 C1032.57691,1578.09 1033.56291,1578.974 1033.56291,1580.232 C1033.56291,1581.49 1032.57691,1582.374 1031.42091,1582.374 C1030.26491,1582.374 1029.27891,1581.49 1029.27891,1580.232 C1029.27891,1578.974 1030.26491,1578.09 1031.42091,1578.09 Z" id="ThiswasaconceptforaredesignoftheVehicletabintheBMWConnectedApp."></path>
        </g>
    </g>
</svg>