<?xml version="1.0" encoding="UTF-8"?>
<svg width="661px" height="71px" viewBox="0 0 661 71" version="1.1" xmlns="http://www.w3.org/2000/svg" xmlns:xlink="http://www.w3.org/1999/xlink">
    <!-- Generator: Sketch 53.2 (72643) - https://sketchapp.com -->
    <title>ThiswasastudyonkinetictypographyusingaclipfromthefilmDevil’sAdvocate.</title>
    <desc>Created with Sketch.</desc>
    <g id="Page-1" stroke="none" stroke-width="1" fill="none" fill-rule="evenodd">
        <g id="Desktop-HD-Copy-34" transform="translate(-390.000000, -2055.000000)" fill="#404648" fill-rule="nonzero">
            <path d="M433.322069,2058.56 L433.322069,2060.94 L425.400069,2060.94 L425.400069,2081 L422.748069,2081 L422.748069,2060.94 L414.860069,2060.94 L414.860069,2058.56 L433.322069,2058.56 Z M444.39875,2064.068 C448.27475,2064.068 450.51875,2066.754 450.51875,2070.596 L450.51875,2081 L447.90075,2081 L447.90075,2070.936 C447.90075,2068.318 446.33675,2066.482 443.78675,2066.482 C441.23675,2066.482 439.43475,2068.352 439.43475,2070.936 L439.43475,2081 L436.81675,2081 L436.81675,2055.5 L439.43475,2055.5 L439.43475,2066.312 C440.52275,2064.918 442.25675,2064.068 444.39875,2064.068 Z M457.34543,2056.214 C458.39943,2056.214 459.28343,2057.064 459.28343,2058.118 C459.28343,2059.206 458.39943,2060.022 457.34543,2060.022 C456.22343,2060.022 455.37343,2059.206 455.37343,2058.118 C455.37343,2057.064 456.22343,2056.214 457.34543,2056.214 Z M458.63743,2064.442 L458.63743,2081 L456.01943,2081 L456.01943,2064.442 L458.63743,2064.442 Z M469.340111,2064.068 C471.720111,2064.068 473.590111,2065.088 474.882111,2066.686 L473.284111,2068.318 C472.196111,2067.196 470.768111,2066.482 469.204111,2066.482 C467.640111,2066.482 466.450111,2067.196 466.450111,2068.556 C466.450111,2069.678 467.300111,2070.222 469.136111,2070.97 L470.666111,2071.616 C473.658111,2072.874 475.052111,2074.166 475.052111,2076.512 C475.052111,2079.742 472.298111,2081.374 469.238111,2081.374 C466.314111,2081.374 464.104111,2079.912 462.778111,2078.144 L464.444111,2076.41 C465.804111,2077.838 467.198111,2078.96 469.204111,2078.96 C470.938111,2078.96 472.366111,2078.11 472.366111,2076.614 C472.366111,2075.186 471.142111,2074.642 469.476111,2073.962 L467.878111,2073.282 C465.362111,2072.228 463.764111,2071.072 463.764111,2068.692 C463.764111,2065.7 466.314111,2064.068 469.340111,2064.068 Z M510.533472,2064.442 L513.321472,2064.442 L506.351472,2081.374 L505.399472,2081.374 L499.755472,2068.862 L494.145472,2081.374 L493.227472,2081.374 L486.189472,2064.442 L488.977472,2064.442 L493.737472,2076.682 L499.279472,2064.068 L500.265472,2064.068 L505.841472,2076.614 L510.533472,2064.442 Z M522.358153,2064.068 C526.132153,2064.068 528.818153,2066.346 528.818153,2070.8 L528.818153,2081 L526.370153,2081 L526.370153,2078.858 C525.180153,2080.456 523.242153,2081.374 520.794153,2081.374 C517.462153,2081.374 515.014153,2079.606 515.014153,2076.716 C515.014153,2073.928 517.360153,2072.092 520.964153,2072.092 L526.200153,2072.092 L526.200153,2070.664 C526.200153,2067.876 524.636153,2066.482 522.188153,2066.482 C520.114153,2066.482 518.652153,2067.468 517.360153,2069.134 L515.626153,2067.706 C517.190153,2065.19 519.706153,2064.068 522.358153,2064.068 Z M521.134153,2079.198 C523.854153,2079.198 526.200153,2077.226 526.200153,2074.642 L526.200153,2074.234 L521.270153,2074.234 C518.958153,2074.234 517.700153,2075.016 517.700153,2076.58 C517.700153,2078.348 519.298153,2079.198 521.134153,2079.198 Z M539.316833,2064.068 C541.696833,2064.068 543.566833,2065.088 544.858833,2066.686 L543.260833,2068.318 C542.172833,2067.196 540.744833,2066.482 539.180833,2066.482 C537.616833,2066.482 536.426833,2067.196 536.426833,2068.556 C536.426833,2069.678 537.276833,2070.222 539.112833,2070.97 L540.642833,2071.616 C543.634833,2072.874 545.028833,2074.166 545.028833,2076.512 C545.028833,2079.742 542.274833,2081.374 539.214833,2081.374 C536.290833,2081.374 534.080833,2079.912 532.754833,2078.144 L534.420833,2076.41 C535.780833,2077.838 537.174833,2078.96 539.180833,2078.96 C540.914833,2078.96 542.342833,2078.11 542.342833,2076.614 C542.342833,2075.186 541.118833,2074.642 539.452833,2073.962 L537.854833,2073.282 C535.338833,2072.228 533.740833,2071.072 533.740833,2068.692 C533.740833,2065.7 536.290833,2064.068 539.316833,2064.068 Z M565.142194,2064.068 C568.916194,2064.068 571.602194,2066.346 571.602194,2070.8 L571.602194,2081 L569.154194,2081 L569.154194,2078.858 C567.964194,2080.456 566.026194,2081.374 563.578194,2081.374 C560.246194,2081.374 557.798194,2079.606 557.798194,2076.716 C557.798194,2073.928 560.144194,2072.092 563.748194,2072.092 L568.984194,2072.092 L568.984194,2070.664 C568.984194,2067.876 567.420194,2066.482 564.972194,2066.482 C562.898194,2066.482 561.436194,2067.468 560.144194,2069.134 L558.410194,2067.706 C559.974194,2065.19 562.490194,2064.068 565.142194,2064.068 Z M563.918194,2079.198 C566.638194,2079.198 568.984194,2077.226 568.984194,2074.642 L568.984194,2074.234 L564.054194,2074.234 C561.742194,2074.234 560.484194,2075.016 560.484194,2076.58 C560.484194,2078.348 562.082194,2079.198 563.918194,2079.198 Z M591.579556,2064.068 C593.959556,2064.068 595.829556,2065.088 597.121556,2066.686 L595.523556,2068.318 C594.435556,2067.196 593.007556,2066.482 591.443556,2066.482 C589.879556,2066.482 588.689556,2067.196 588.689556,2068.556 C588.689556,2069.678 589.539556,2070.222 591.375556,2070.97 L592.905556,2071.616 C595.897556,2072.874 597.291556,2074.166 597.291556,2076.512 C597.291556,2079.742 594.537556,2081.374 591.477556,2081.374 C588.553556,2081.374 586.343556,2079.912 585.017556,2078.144 L586.683556,2076.41 C588.043556,2077.838 589.437556,2078.96 591.443556,2078.96 C593.177556,2078.96 594.605556,2078.11 594.605556,2076.614 C594.605556,2075.186 593.381556,2074.642 591.715556,2073.962 L590.117556,2073.282 C587.601556,2072.228 586.003556,2071.072 586.003556,2068.692 C586.003556,2065.7 588.553556,2064.068 591.579556,2064.068 Z M608.810236,2078.994 C609.456236,2078.994 610.170236,2078.926 611.020236,2078.79 L611.020236,2081 C610.170236,2081.204 609.320236,2081.374 608.266236,2081.374 C605.002236,2081.374 602.690236,2079.776 602.690236,2076.002 L602.690236,2066.788 L599.902236,2066.788 L599.902236,2064.442 L602.690236,2064.442 L602.690236,2059.92 L605.308236,2059.92 L605.308236,2064.442 L610.476236,2064.442 L610.476236,2066.788 L605.308236,2066.788 L605.308236,2075.832 C605.308236,2078.314 606.736236,2078.994 608.810236,2078.994 Z M628.386917,2064.442 L628.386917,2074.404 C628.386917,2078.654 625.360917,2081.374 621.552917,2081.374 C617.676917,2081.374 614.684917,2078.654 614.684917,2074.404 L614.684917,2064.442 L617.268917,2064.442 L617.268917,2074.574 C617.268917,2077.294 619.172917,2078.96 621.552917,2078.96 C623.864917,2078.96 625.768917,2077.294 625.768917,2074.574 L625.768917,2064.442 L628.386917,2064.442 Z M647.011597,2055.5 L649.629597,2055.5 L649.629597,2081 L647.147597,2081 L647.147597,2078.348 C645.855597,2080.252 643.509597,2081.374 640.891597,2081.374 C636.165597,2081.374 632.697597,2077.6 632.697597,2072.738 C632.697597,2067.842 636.165597,2064.068 640.891597,2064.068 C643.407597,2064.068 645.685597,2065.122 647.011597,2066.89 L647.011597,2055.5 Z M641.265597,2078.96 C644.121597,2078.96 647.045597,2077.09 647.045597,2072.738 C647.045597,2068.386 644.121597,2066.482 641.265597,2066.482 C637.899597,2066.482 635.383597,2069.1 635.383597,2072.704 C635.383597,2076.308 637.865597,2078.96 641.265597,2078.96 Z M667.098278,2064.442 L669.886278,2064.442 L661.726278,2083.312 C660.434278,2086.27 658.632278,2087.494 656.116278,2087.494 C655.300278,2087.494 654.348278,2087.358 653.566278,2087.154 L653.566278,2084.944 C654.348278,2085.046 654.994278,2085.114 655.572278,2085.114 C657.170278,2085.114 658.394278,2084.57 659.312278,2082.462 L660.196278,2080.456 L653.328278,2064.442 L656.150278,2064.442 L661.624278,2077.634 L667.098278,2064.442 Z M690.577639,2064.068 C695.371639,2064.068 699.247639,2067.842 699.247639,2072.704 C699.247639,2077.532 695.371639,2081.34 690.543639,2081.34 C685.749639,2081.306 681.907639,2077.566 681.907639,2072.704 C681.907639,2067.842 685.715639,2064.068 690.577639,2064.068 Z M690.577639,2066.482 C687.109639,2066.482 684.559639,2069.202 684.593639,2072.738 C684.593639,2076.24 687.109639,2078.926 690.543639,2078.926 C693.977639,2078.926 696.561639,2076.206 696.561639,2072.738 C696.561639,2069.168 693.977639,2066.482 690.577639,2066.482 Z M711.344319,2064.068 C715.254319,2064.068 717.498319,2066.754 717.498319,2070.596 L717.498319,2081 L714.880319,2081 L714.880319,2070.902 C714.880319,2068.284 713.316319,2066.482 710.766319,2066.482 C708.216319,2066.482 706.414319,2068.318 706.414319,2070.902 L706.414319,2081 L703.796319,2081 L703.796319,2064.442 L706.244319,2064.442 L706.244319,2066.244 C707.400319,2064.884 709.202319,2064.068 711.344319,2064.068 Z M732.477681,2081 L732.477681,2055.5 L735.095681,2055.5 L735.095681,2081 L732.477681,2081 Z M738.529681,2071.718 L746.349681,2081 L742.983681,2081 L735.367681,2071.684 L742.269681,2064.442 L745.703681,2064.442 L738.529681,2071.718 Z M750.966361,2056.214 C752.020361,2056.214 752.904361,2057.064 752.904361,2058.118 C752.904361,2059.206 752.020361,2060.022 750.966361,2060.022 C749.844361,2060.022 748.994361,2059.206 748.994361,2058.118 C748.994361,2057.064 749.844361,2056.214 750.966361,2056.214 Z M752.258361,2064.442 L752.258361,2081 L749.640361,2081 L749.640361,2064.442 L752.258361,2064.442 Z M765.511042,2064.068 C769.421042,2064.068 771.665042,2066.754 771.665042,2070.596 L771.665042,2081 L769.047042,2081 L769.047042,2070.902 C769.047042,2068.284 767.483042,2066.482 764.933042,2066.482 C762.383042,2066.482 760.581042,2068.318 760.581042,2070.902 L760.581042,2081 L757.963042,2081 L757.963042,2064.442 L760.411042,2064.442 L760.411042,2066.244 C761.567042,2064.884 763.369042,2064.068 765.511042,2064.068 Z M791.989722,2071.548 C791.989722,2072.432 791.853722,2073.214 791.785722,2073.52 L778.729722,2073.52 C779.069722,2076.818 781.517722,2078.96 784.781722,2078.96 C786.855722,2078.96 788.487722,2078.076 789.847722,2076.716 L791.377722,2078.484 C789.711722,2080.252 787.467722,2081.374 784.747722,2081.374 C779.749722,2081.374 775.975722,2077.6 775.975722,2072.738 C775.975722,2067.91 779.681722,2064.068 784.441722,2064.068 C788.691722,2064.068 791.989722,2067.128 791.989722,2071.548 Z M784.373722,2066.448 C781.585722,2066.448 779.375722,2068.352 778.831722,2071.208 L789.303722,2071.208 C789.269722,2068.148 787.025722,2066.448 784.373722,2066.448 Z M803.372403,2078.994 C804.018403,2078.994 804.732403,2078.926 805.582403,2078.79 L805.582403,2081 C804.732403,2081.204 803.882403,2081.374 802.828403,2081.374 C799.564403,2081.374 797.252403,2079.776 797.252403,2076.002 L797.252403,2066.788 L794.464403,2066.788 L794.464403,2064.442 L797.252403,2064.442 L797.252403,2059.92 L799.870403,2059.92 L799.870403,2064.442 L805.038403,2064.442 L805.038403,2066.788 L799.870403,2066.788 L799.870403,2075.832 C799.870403,2078.314 801.298403,2078.994 803.372403,2078.994 Z M810.777083,2056.214 C811.831083,2056.214 812.715083,2057.064 812.715083,2058.118 C812.715083,2059.206 811.831083,2060.022 810.777083,2060.022 C809.655083,2060.022 808.805083,2059.206 808.805083,2058.118 C808.805083,2057.064 809.655083,2056.214 810.777083,2056.214 Z M812.069083,2064.442 L812.069083,2081 L809.451083,2081 L809.451083,2064.442 L812.069083,2064.442 Z M825.253764,2064.068 C828.245764,2064.068 830.625764,2065.496 832.087764,2067.672 L830.217764,2069.168 C828.993764,2067.536 827.429764,2066.482 825.287764,2066.482 C821.819764,2066.482 819.269764,2069.236 819.269764,2072.704 C819.269764,2076.206 821.819764,2078.96 825.287764,2078.96 C827.395764,2078.96 828.959764,2077.94 830.183764,2076.308 L832.053764,2077.77 C830.591764,2079.946 828.211764,2081.374 825.253764,2081.374 C820.425764,2081.374 816.583764,2077.566 816.583764,2072.704 C816.583764,2067.876 820.425764,2064.068 825.253764,2064.068 Z M852.779125,2078.994 C853.425125,2078.994 854.139125,2078.926 854.989125,2078.79 L854.989125,2081 C854.139125,2081.204 853.289125,2081.374 852.235125,2081.374 C848.971125,2081.374 846.659125,2079.776 846.659125,2076.002 L846.659125,2066.788 L843.871125,2066.788 L843.871125,2064.442 L846.659125,2064.442 L846.659125,2059.92 L849.277125,2059.92 L849.277125,2064.442 L854.445125,2064.442 L854.445125,2066.788 L849.277125,2066.788 L849.277125,2075.832 C849.277125,2078.314 850.705125,2078.994 852.779125,2078.994 Z M870.621806,2064.442 L873.409806,2064.442 L865.249806,2083.312 C863.957806,2086.27 862.155806,2087.494 859.639806,2087.494 C858.823806,2087.494 857.871806,2087.358 857.089806,2087.154 L857.089806,2084.944 C857.871806,2085.046 858.517806,2085.114 859.095806,2085.114 C860.693806,2085.114 861.917806,2084.57 862.835806,2082.462 L863.719806,2080.456 L856.851806,2064.442 L859.673806,2064.442 L865.147806,2077.634 L870.621806,2064.442 Z M885.846486,2064.068 C890.606486,2064.068 894.040486,2067.842 894.040486,2072.704 C894.040486,2077.6 890.572486,2081.374 885.846486,2081.374 C883.398486,2081.374 881.086486,2080.354 879.760486,2078.586 L879.760486,2087.12 L877.142486,2087.12 L877.142486,2064.442 L879.590486,2064.442 L879.590486,2067.094 C880.882486,2065.19 883.228486,2064.068 885.846486,2064.068 Z M885.472486,2078.96 C888.838486,2078.96 891.354486,2076.342 891.354486,2072.738 C891.354486,2069.134 888.872486,2066.482 885.472486,2066.482 C882.616486,2066.482 879.726486,2068.352 879.726486,2072.704 C879.726486,2077.056 882.582486,2078.96 885.472486,2078.96 Z M906.069167,2064.068 C910.863167,2064.068 914.739167,2067.842 914.739167,2072.704 C914.739167,2077.532 910.863167,2081.34 906.035167,2081.34 C901.241167,2081.306 897.399167,2077.566 897.399167,2072.704 C897.399167,2067.842 901.207167,2064.068 906.069167,2064.068 Z M906.069167,2066.482 C902.601167,2066.482 900.051167,2069.202 900.085167,2072.738 C900.085167,2076.24 902.601167,2078.926 906.035167,2078.926 C909.469167,2078.926 912.053167,2076.206 912.053167,2072.738 C912.053167,2069.168 909.469167,2066.482 906.069167,2066.482 Z M932.717847,2064.442 L935.199847,2064.442 L935.199847,2079.402 C935.199847,2084.502 931.969847,2087.494 927.141847,2087.494 C923.673847,2087.494 920.987847,2085.93 919.355847,2084.298 L920.885847,2082.462 C922.483847,2083.856 924.353847,2085.08 927.073847,2085.08 C930.439847,2085.08 932.581847,2083.21 932.581847,2079.538 L932.581847,2078.076 C931.221847,2079.81 928.909847,2080.83 926.427847,2080.83 C921.769847,2080.83 918.301847,2077.294 918.301847,2072.466 C918.301847,2067.672 921.769847,2064.068 926.427847,2064.068 C929.045847,2064.068 931.425847,2065.224 932.717847,2067.128 L932.717847,2064.442 Z M926.835847,2078.416 C929.725847,2078.416 932.615847,2076.614 932.615847,2072.466 C932.615847,2068.318 929.691847,2066.55 926.835847,2066.55 C923.469847,2066.55 920.953847,2068.998 920.953847,2072.5 C920.953847,2076.002 923.469847,2078.416 926.835847,2078.416 Z M948.486528,2064.306 C949.030528,2064.306 949.370528,2064.374 949.710528,2064.442 L949.710528,2066.754 L948.724528,2066.754 C946.038528,2066.754 943.522528,2068.454 943.522528,2071.616 L943.522528,2081 L940.904528,2081 L940.904528,2064.442 L943.352528,2064.442 L943.352528,2066.822 C944.576528,2065.19 946.514528,2064.306 948.486528,2064.306 Z M958.781208,2064.068 C962.555208,2064.068 965.241208,2066.346 965.241208,2070.8 L965.241208,2081 L962.793208,2081 L962.793208,2078.858 C961.603208,2080.456 959.665208,2081.374 957.217208,2081.374 C953.885208,2081.374 951.437208,2079.606 951.437208,2076.716 C951.437208,2073.928 953.783208,2072.092 957.387208,2072.092 L962.623208,2072.092 L962.623208,2070.664 C962.623208,2067.876 961.059208,2066.482 958.611208,2066.482 C956.537208,2066.482 955.075208,2067.468 953.783208,2069.134 L952.049208,2067.706 C953.613208,2065.19 956.129208,2064.068 958.781208,2064.068 Z M957.557208,2079.198 C960.277208,2079.198 962.623208,2077.226 962.623208,2074.642 L962.623208,2074.234 L957.693208,2074.234 C955.381208,2074.234 954.123208,2075.016 954.123208,2076.58 C954.123208,2078.348 955.721208,2079.198 957.557208,2079.198 Z M979.445889,2064.068 C984.205889,2064.068 987.639889,2067.842 987.639889,2072.704 C987.639889,2077.6 984.171889,2081.374 979.445889,2081.374 C976.997889,2081.374 974.685889,2080.354 973.359889,2078.586 L973.359889,2087.12 L970.741889,2087.12 L970.741889,2064.442 L973.189889,2064.442 L973.189889,2067.094 C974.481889,2065.19 976.827889,2064.068 979.445889,2064.068 Z M979.071889,2078.96 C982.437889,2078.96 984.953889,2076.342 984.953889,2072.738 C984.953889,2069.134 982.471889,2066.482 979.071889,2066.482 C976.215889,2066.482 973.325889,2068.352 973.325889,2072.704 C973.325889,2077.056 976.181889,2078.96 979.071889,2078.96 Z M999.77057,2064.068 C1003.64657,2064.068 1005.89057,2066.754 1005.89057,2070.596 L1005.89057,2081 L1003.27257,2081 L1003.27257,2070.936 C1003.27257,2068.318 1001.70857,2066.482 999.15857,2066.482 C996.60857,2066.482 994.80657,2068.352 994.80657,2070.936 L994.80657,2081 L992.18857,2081 L992.18857,2055.5 L994.80657,2055.5 L994.80657,2066.312 C995.89457,2064.918 997.62857,2064.068 999.77057,2064.068 Z M1023.15525,2064.442 L1025.94325,2064.442 L1017.78325,2083.312 C1016.49125,2086.27 1014.68925,2087.494 1012.17325,2087.494 C1011.35725,2087.494 1010.40525,2087.358 1009.62325,2087.154 L1009.62325,2084.944 C1010.40525,2085.046 1011.05125,2085.114 1011.62925,2085.114 C1013.22725,2085.114 1014.45125,2084.57 1015.36925,2082.462 L1016.25325,2080.456 L1009.38525,2064.442 L1012.20725,2064.442 L1017.68125,2077.634 L1023.15525,2064.442 Z M404.223028,2102.442 L404.223028,2112.404 C404.223028,2116.654 401.197028,2119.374 397.389028,2119.374 C393.513028,2119.374 390.521028,2116.654 390.521028,2112.404 L390.521028,2102.442 L393.105028,2102.442 L393.105028,2112.574 C393.105028,2115.294 395.009028,2116.96 397.389028,2116.96 C399.701028,2116.96 401.605028,2115.294 401.605028,2112.574 L401.605028,2102.442 L404.223028,2102.442 Z M414.721708,2102.068 C417.101708,2102.068 418.971708,2103.088 420.263708,2104.686 L418.665708,2106.318 C417.577708,2105.196 416.149708,2104.482 414.585708,2104.482 C413.021708,2104.482 411.831708,2105.196 411.831708,2106.556 C411.831708,2107.678 412.681708,2108.222 414.517708,2108.97 L416.047708,2109.616 C419.039708,2110.874 420.433708,2112.166 420.433708,2114.512 C420.433708,2117.742 417.679708,2119.374 414.619708,2119.374 C411.695708,2119.374 409.485708,2117.912 408.159708,2116.144 L409.825708,2114.41 C411.185708,2115.838 412.579708,2116.96 414.585708,2116.96 C416.319708,2116.96 417.747708,2116.11 417.747708,2114.614 C417.747708,2113.186 416.523708,2112.642 414.857708,2111.962 L413.259708,2111.282 C410.743708,2110.228 409.145708,2109.072 409.145708,2106.692 C409.145708,2103.7 411.695708,2102.068 414.721708,2102.068 Z M426.444389,2094.214 C427.498389,2094.214 428.382389,2095.064 428.382389,2096.118 C428.382389,2097.206 427.498389,2098.022 426.444389,2098.022 C425.322389,2098.022 424.472389,2097.206 424.472389,2096.118 C424.472389,2095.064 425.322389,2094.214 426.444389,2094.214 Z M427.736389,2102.442 L427.736389,2119 L425.118389,2119 L425.118389,2102.442 L427.736389,2102.442 Z M440.989069,2102.068 C444.899069,2102.068 447.143069,2104.754 447.143069,2108.596 L447.143069,2119 L444.525069,2119 L444.525069,2108.902 C444.525069,2106.284 442.961069,2104.482 440.411069,2104.482 C437.861069,2104.482 436.059069,2106.318 436.059069,2108.902 L436.059069,2119 L433.441069,2119 L433.441069,2102.442 L435.889069,2102.442 L435.889069,2104.244 C437.045069,2102.884 438.847069,2102.068 440.989069,2102.068 Z M466.07375,2102.442 L468.55575,2102.442 L468.55575,2117.402 C468.55575,2122.502 465.32575,2125.494 460.49775,2125.494 C457.02975,2125.494 454.34375,2123.93 452.71175,2122.298 L454.24175,2120.462 C455.83975,2121.856 457.70975,2123.08 460.42975,2123.08 C463.79575,2123.08 465.93775,2121.21 465.93775,2117.538 L465.93775,2116.076 C464.57775,2117.81 462.26575,2118.83 459.78375,2118.83 C455.12575,2118.83 451.65775,2115.294 451.65775,2110.466 C451.65775,2105.672 455.12575,2102.068 459.78375,2102.068 C462.40175,2102.068 464.78175,2103.224 466.07375,2105.128 L466.07375,2102.442 Z M460.19175,2116.416 C463.08175,2116.416 465.97175,2114.614 465.97175,2110.466 C465.97175,2106.318 463.04775,2104.55 460.19175,2104.55 C456.82575,2104.55 454.30975,2106.998 454.30975,2110.5 C454.30975,2114.002 456.82575,2116.416 460.19175,2116.416 Z M489.689111,2102.068 C493.463111,2102.068 496.149111,2104.346 496.149111,2108.8 L496.149111,2119 L493.701111,2119 L493.701111,2116.858 C492.511111,2118.456 490.573111,2119.374 488.125111,2119.374 C484.793111,2119.374 482.345111,2117.606 482.345111,2114.716 C482.345111,2111.928 484.691111,2110.092 488.295111,2110.092 L493.531111,2110.092 L493.531111,2108.664 C493.531111,2105.876 491.967111,2104.482 489.519111,2104.482 C487.445111,2104.482 485.983111,2105.468 484.691111,2107.134 L482.957111,2105.706 C484.521111,2103.19 487.037111,2102.068 489.689111,2102.068 Z M488.465111,2117.198 C491.185111,2117.198 493.531111,2115.226 493.531111,2112.642 L493.531111,2112.234 L488.601111,2112.234 C486.289111,2112.234 485.031111,2113.016 485.031111,2114.58 C485.031111,2116.348 486.629111,2117.198 488.465111,2117.198 Z M518.608472,2102.068 C521.600472,2102.068 523.980472,2103.496 525.442472,2105.672 L523.572472,2107.168 C522.348472,2105.536 520.784472,2104.482 518.642472,2104.482 C515.174472,2104.482 512.624472,2107.236 512.624472,2110.704 C512.624472,2114.206 515.174472,2116.96 518.642472,2116.96 C520.750472,2116.96 522.314472,2115.94 523.538472,2114.308 L525.408472,2115.77 C523.946472,2117.946 521.566472,2119.374 518.608472,2119.374 C513.780472,2119.374 509.938472,2115.566 509.938472,2110.704 C509.938472,2105.876 513.780472,2102.068 518.608472,2102.068 Z M532.439153,2093.5 L532.439153,2119 L529.821153,2119 L529.821153,2093.5 L532.439153,2093.5 Z M539.469833,2094.214 C540.523833,2094.214 541.407833,2095.064 541.407833,2096.118 C541.407833,2097.206 540.523833,2098.022 539.469833,2098.022 C538.347833,2098.022 537.497833,2097.206 537.497833,2096.118 C537.497833,2095.064 538.347833,2094.214 539.469833,2094.214 Z M540.761833,2102.442 L540.761833,2119 L538.143833,2119 L538.143833,2102.442 L540.761833,2102.442 Z M555.170514,2102.068 C559.930514,2102.068 563.364514,2105.842 563.364514,2110.704 C563.364514,2115.6 559.896514,2119.374 555.170514,2119.374 C552.722514,2119.374 550.410514,2118.354 549.084514,2116.586 L549.084514,2125.12 L546.466514,2125.12 L546.466514,2102.442 L548.914514,2102.442 L548.914514,2105.094 C550.206514,2103.19 552.552514,2102.068 555.170514,2102.068 Z M554.796514,2116.96 C558.162514,2116.96 560.678514,2114.342 560.678514,2110.738 C560.678514,2107.134 558.196514,2104.482 554.796514,2104.482 C551.940514,2104.482 549.050514,2106.352 549.050514,2110.704 C549.050514,2115.056 551.906514,2116.96 554.796514,2116.96 Z M583.885875,2095.506 C581.845875,2095.506 580.417875,2096.186 580.417875,2098.668 L580.417875,2102.442 L584.565875,2102.442 L584.565875,2104.788 L580.417875,2104.788 L580.417875,2119 L577.799875,2119 L577.799875,2104.788 L575.419875,2104.788 L575.419875,2102.442 L577.799875,2102.442 L577.799875,2098.498 C577.799875,2094.724 580.077875,2093.126 583.273875,2093.126 C584.089875,2093.126 584.735875,2093.228 585.347875,2093.398 L585.347875,2095.608 C584.803875,2095.54 584.327875,2095.506 583.885875,2095.506 Z M595.234556,2102.306 C595.778556,2102.306 596.118556,2102.374 596.458556,2102.442 L596.458556,2104.754 L595.472556,2104.754 C592.786556,2104.754 590.270556,2106.454 590.270556,2109.616 L590.270556,2119 L587.652556,2119 L587.652556,2102.442 L590.100556,2102.442 L590.100556,2104.822 C591.324556,2103.19 593.262556,2102.306 595.234556,2102.306 Z M607.059236,2102.068 C611.853236,2102.068 615.729236,2105.842 615.729236,2110.704 C615.729236,2115.532 611.853236,2119.34 607.025236,2119.34 C602.231236,2119.306 598.389236,2115.566 598.389236,2110.704 C598.389236,2105.842 602.197236,2102.068 607.059236,2102.068 Z M607.059236,2104.482 C603.591236,2104.482 601.041236,2107.202 601.075236,2110.738 C601.075236,2114.24 603.591236,2116.926 607.025236,2116.926 C610.459236,2116.926 613.043236,2114.206 613.043236,2110.738 C613.043236,2107.168 610.459236,2104.482 607.059236,2104.482 Z M638.433917,2102.068 C642.309917,2102.068 644.451917,2104.754 644.451917,2108.596 L644.451917,2119 L641.833917,2119 L641.833917,2108.936 C641.833917,2106.318 640.405917,2104.482 637.923917,2104.482 C635.407917,2104.482 633.673917,2106.386 633.673917,2108.698 L633.673917,2119 L631.055917,2119 L631.055917,2108.936 C631.055917,2106.318 629.559917,2104.482 627.111917,2104.482 C624.595917,2104.482 622.895917,2106.318 622.895917,2108.936 L622.895917,2119 L620.277917,2119 L620.277917,2102.442 L622.725917,2102.442 L622.725917,2104.176 C623.881917,2102.85 625.581917,2102.068 627.655917,2102.068 C630.137917,2102.068 631.837917,2103.19 632.755917,2104.924 C633.911917,2103.258 635.883917,2102.068 638.433917,2102.068 Z M666.265278,2116.994 C666.911278,2116.994 667.625278,2116.926 668.475278,2116.79 L668.475278,2119 C667.625278,2119.204 666.775278,2119.374 665.721278,2119.374 C662.457278,2119.374 660.145278,2117.776 660.145278,2114.002 L660.145278,2104.788 L657.357278,2104.788 L657.357278,2102.442 L660.145278,2102.442 L660.145278,2097.92 L662.763278,2097.92 L662.763278,2102.442 L667.931278,2102.442 L667.931278,2104.788 L662.763278,2104.788 L662.763278,2113.832 C662.763278,2116.314 664.191278,2116.994 666.265278,2116.994 Z M679.925958,2102.068 C683.801958,2102.068 686.045958,2104.754 686.045958,2108.596 L686.045958,2119 L683.427958,2119 L683.427958,2108.936 C683.427958,2106.318 681.863958,2104.482 679.313958,2104.482 C676.763958,2104.482 674.961958,2106.352 674.961958,2108.936 L674.961958,2119 L672.343958,2119 L672.343958,2093.5 L674.961958,2093.5 L674.961958,2104.312 C676.049958,2102.918 677.783958,2102.068 679.925958,2102.068 Z M706.370639,2109.548 C706.370639,2110.432 706.234639,2111.214 706.166639,2111.52 L693.110639,2111.52 C693.450639,2114.818 695.898639,2116.96 699.162639,2116.96 C701.236639,2116.96 702.868639,2116.076 704.228639,2114.716 L705.758639,2116.484 C704.092639,2118.252 701.848639,2119.374 699.128639,2119.374 C694.130639,2119.374 690.356639,2115.6 690.356639,2110.738 C690.356639,2105.91 694.062639,2102.068 698.822639,2102.068 C703.072639,2102.068 706.370639,2105.128 706.370639,2109.548 Z M698.754639,2104.448 C695.966639,2104.448 693.756639,2106.352 693.212639,2109.208 L703.684639,2109.208 C703.650639,2106.148 701.406639,2104.448 698.754639,2104.448 Z M726.892,2095.506 C724.852,2095.506 723.424,2096.186 723.424,2098.668 L723.424,2102.442 L727.572,2102.442 L727.572,2104.788 L723.424,2104.788 L723.424,2119 L720.806,2119 L720.806,2104.788 L718.426,2104.788 L718.426,2102.442 L720.806,2102.442 L720.806,2098.498 C720.806,2094.724 723.084,2093.126 726.28,2093.126 C727.096,2093.126 727.742,2093.228 728.354,2093.398 L728.354,2095.608 C727.81,2095.54 727.334,2095.506 726.892,2095.506 Z M732.494681,2094.214 C733.548681,2094.214 734.432681,2095.064 734.432681,2096.118 C734.432681,2097.206 733.548681,2098.022 732.494681,2098.022 C731.372681,2098.022 730.522681,2097.206 730.522681,2096.118 C730.522681,2095.064 731.372681,2094.214 732.494681,2094.214 Z M733.786681,2102.442 L733.786681,2119 L731.168681,2119 L731.168681,2102.442 L733.786681,2102.442 Z M742.109361,2093.5 L742.109361,2119 L739.491361,2119 L739.491361,2093.5 L742.109361,2093.5 Z M765.970042,2102.068 C769.846042,2102.068 771.988042,2104.754 771.988042,2108.596 L771.988042,2119 L769.370042,2119 L769.370042,2108.936 C769.370042,2106.318 767.942042,2104.482 765.460042,2104.482 C762.944042,2104.482 761.210042,2106.386 761.210042,2108.698 L761.210042,2119 L758.592042,2119 L758.592042,2108.936 C758.592042,2106.318 757.096042,2104.482 754.648042,2104.482 C752.132042,2104.482 750.432042,2106.318 750.432042,2108.936 L750.432042,2119 L747.814042,2119 L747.814042,2102.442 L750.262042,2102.442 L750.262042,2104.176 C751.418042,2102.85 753.118042,2102.068 755.192042,2102.068 C757.674042,2102.068 759.374042,2103.19 760.292042,2104.924 C761.448042,2103.258 763.420042,2102.068 765.970042,2102.068 Z M793.835403,2096.56 C801.451403,2096.56 806.041403,2101.218 806.041403,2107.746 C806.041403,2114.172 801.451403,2119 793.835403,2119 L787.171403,2119 L787.171403,2096.56 L793.835403,2096.56 Z M793.801403,2098.94 L789.823403,2098.94 L789.823403,2116.62 L793.801403,2116.62 C799.819403,2116.62 803.287403,2112.778 803.287403,2107.746 C803.287403,2102.612 799.819403,2098.94 793.801403,2098.94 Z M825.346083,2109.548 C825.346083,2110.432 825.210083,2111.214 825.142083,2111.52 L812.086083,2111.52 C812.426083,2114.818 814.874083,2116.96 818.138083,2116.96 C820.212083,2116.96 821.844083,2116.076 823.204083,2114.716 L824.734083,2116.484 C823.068083,2118.252 820.824083,2119.374 818.104083,2119.374 C813.106083,2119.374 809.332083,2115.6 809.332083,2110.738 C809.332083,2105.91 813.038083,2102.068 817.798083,2102.068 C822.048083,2102.068 825.346083,2105.128 825.346083,2109.548 Z M817.730083,2104.448 C814.942083,2104.448 812.732083,2106.352 812.188083,2109.208 L822.660083,2109.208 C822.626083,2106.148 820.382083,2104.448 817.730083,2104.448 Z M840.978764,2102.442 L843.766764,2102.442 L835.980764,2119.374 L835.028764,2119.374 L827.208764,2102.442 L829.996764,2102.442 L835.504764,2114.92 L840.978764,2102.442 Z M848.825444,2094.214 C849.879444,2094.214 850.763444,2095.064 850.763444,2096.118 C850.763444,2097.206 849.879444,2098.022 848.825444,2098.022 C847.703444,2098.022 846.853444,2097.206 846.853444,2096.118 C846.853444,2095.064 847.703444,2094.214 848.825444,2094.214 Z M850.117444,2102.442 L850.117444,2119 L847.499444,2119 L847.499444,2102.442 L850.117444,2102.442 Z M858.440125,2093.5 L858.440125,2119 L855.822125,2119 L855.822125,2093.5 L858.440125,2093.5 Z M867.986806,2096.56 L866.524806,2105.298 L864.450806,2105.298 L864.926806,2096.56 L867.986806,2096.56 Z M878.281486,2102.068 C880.661486,2102.068 882.531486,2103.088 883.823486,2104.686 L882.225486,2106.318 C881.137486,2105.196 879.709486,2104.482 878.145486,2104.482 C876.581486,2104.482 875.391486,2105.196 875.391486,2106.556 C875.391486,2107.678 876.241486,2108.222 878.077486,2108.97 L879.607486,2109.616 C882.599486,2110.874 883.993486,2112.166 883.993486,2114.512 C883.993486,2117.742 881.239486,2119.374 878.179486,2119.374 C875.255486,2119.374 873.045486,2117.912 871.719486,2116.144 L873.385486,2114.41 C874.745486,2115.838 876.139486,2116.96 878.145486,2116.96 C879.879486,2116.96 881.307486,2116.11 881.307486,2114.614 C881.307486,2113.186 880.083486,2112.642 878.417486,2111.962 L876.819486,2111.282 C874.303486,2110.228 872.705486,2109.072 872.705486,2106.692 C872.705486,2103.7 875.255486,2102.068 878.281486,2102.068 Z M912.232847,2119 L910.294847,2114.444 L899.346847,2114.444 L897.408847,2119 L894.620847,2119 L904.344847,2096.186 L905.330847,2096.186 L915.054847,2119 L912.232847,2119 Z M909.308847,2112.064 L904.820847,2101.048 L900.332847,2112.064 L909.308847,2112.064 Z M931.741528,2093.5 L934.359528,2093.5 L934.359528,2119 L931.877528,2119 L931.877528,2116.348 C930.585528,2118.252 928.239528,2119.374 925.621528,2119.374 C920.895528,2119.374 917.427528,2115.6 917.427528,2110.738 C917.427528,2105.842 920.895528,2102.068 925.621528,2102.068 C928.137528,2102.068 930.415528,2103.122 931.741528,2104.89 L931.741528,2093.5 Z M925.995528,2116.96 C928.851528,2116.96 931.775528,2115.09 931.775528,2110.738 C931.775528,2106.386 928.851528,2104.482 925.995528,2104.482 C922.629528,2104.482 920.113528,2107.1 920.113528,2110.704 C920.113528,2114.308 922.595528,2116.96 925.995528,2116.96 Z M951.828208,2102.442 L954.616208,2102.442 L946.830208,2119.374 L945.878208,2119.374 L938.058208,2102.442 L940.846208,2102.442 L946.354208,2114.92 L951.828208,2102.442 Z M965.148889,2102.068 C969.942889,2102.068 973.818889,2105.842 973.818889,2110.704 C973.818889,2115.532 969.942889,2119.34 965.114889,2119.34 C960.320889,2119.306 956.478889,2115.566 956.478889,2110.704 C956.478889,2105.842 960.286889,2102.068 965.148889,2102.068 Z M965.148889,2104.482 C961.680889,2104.482 959.130889,2107.202 959.164889,2110.738 C959.164889,2114.24 961.680889,2116.926 965.114889,2116.926 C968.548889,2116.926 971.132889,2114.206 971.132889,2110.738 C971.132889,2107.168 968.548889,2104.482 965.148889,2104.482 Z M985.84757,2102.068 C988.83957,2102.068 991.21957,2103.496 992.68157,2105.672 L990.81157,2107.168 C989.58757,2105.536 988.02357,2104.482 985.88157,2104.482 C982.41357,2104.482 979.86357,2107.236 979.86357,2110.704 C979.86357,2114.206 982.41357,2116.96 985.88157,2116.96 C987.98957,2116.96 989.55357,2115.94 990.77757,2114.308 L992.64757,2115.77 C991.18557,2117.946 988.80557,2119.374 985.84757,2119.374 C981.01957,2119.374 977.17757,2115.566 977.17757,2110.704 C977.17757,2105.876 981.01957,2102.068 985.84757,2102.068 Z M1003.01025,2102.068 C1006.78425,2102.068 1009.47025,2104.346 1009.47025,2108.8 L1009.47025,2119 L1007.02225,2119 L1007.02225,2116.858 C1005.83225,2118.456 1003.89425,2119.374 1001.44625,2119.374 C998.11425,2119.374 995.66625,2117.606 995.66625,2114.716 C995.66625,2111.928 998.01225,2110.092 1001.61625,2110.092 L1006.85225,2110.092 L1006.85225,2108.664 C1006.85225,2105.876 1005.28825,2104.482 1002.84025,2104.482 C1000.76625,2104.482 999.30425,2105.468 998.01225,2107.134 L996.27825,2105.706 C997.84225,2103.19 1000.35825,2102.068 1003.01025,2102.068 Z M1001.78625,2117.198 C1004.50625,2117.198 1006.85225,2115.226 1006.85225,2112.642 L1006.85225,2112.234 L1001.92225,2112.234 C999.61025,2112.234 998.35225,2113.016 998.35225,2114.58 C998.35225,2116.348 999.95025,2117.198 1001.78625,2117.198 Z M1021.80493,2116.994 C1022.45093,2116.994 1023.16493,2116.926 1024.01493,2116.79 L1024.01493,2119 C1023.16493,2119.204 1022.31493,2119.374 1021.26093,2119.374 C1017.99693,2119.374 1015.68493,2117.776 1015.68493,2114.002 L1015.68493,2104.788 L1012.89693,2104.788 L1012.89693,2102.442 L1015.68493,2102.442 L1015.68493,2097.92 L1018.30293,2097.92 L1018.30293,2102.442 L1023.47093,2102.442 L1023.47093,2104.788 L1018.30293,2104.788 L1018.30293,2113.832 C1018.30293,2116.314 1019.73093,2116.994 1021.80493,2116.994 Z M1042.36761,2109.548 C1042.36761,2110.432 1042.23161,2111.214 1042.16361,2111.52 L1029.10761,2111.52 C1029.44761,2114.818 1031.89561,2116.96 1035.15961,2116.96 C1037.23361,2116.96 1038.86561,2116.076 1040.22561,2114.716 L1041.75561,2116.484 C1040.08961,2118.252 1037.84561,2119.374 1035.12561,2119.374 C1030.12761,2119.374 1026.35361,2115.6 1026.35361,2110.738 C1026.35361,2105.91 1030.05961,2102.068 1034.81961,2102.068 C1039.06961,2102.068 1042.36761,2105.128 1042.36761,2109.548 Z M1034.75161,2104.448 C1031.96361,2104.448 1029.75361,2106.352 1029.20961,2109.208 L1039.68161,2109.208 C1039.64761,2106.148 1037.40361,2104.448 1034.75161,2104.448 Z M1048.61629,2115.09 C1049.77229,2115.09 1050.75829,2115.974 1050.75829,2117.232 C1050.75829,2118.49 1049.77229,2119.374 1048.61629,2119.374 C1047.46029,2119.374 1046.47429,2118.49 1046.47429,2117.232 C1046.47429,2115.974 1047.46029,2115.09 1048.61629,2115.09 Z" id="ThiswasastudyonkinetictypographyusingaclipfromthefilmDevil’sAdvocate."></path>
        </g>
    </g>
</svg>