<?xml version="1.0" encoding="UTF-8"?>
<svg width="787px" height="74px" viewBox="0 0 787 74" version="1.1" xmlns="http://www.w3.org/2000/svg" xmlns:xlink="http://www.w3.org/1999/xlink">
    <!-- Generator: Sketch 53.2 (72643) - https://sketchapp.com -->
    <title>ThisisaUIconceptforanappthatallowsuserstoexplorethewiderangeofbeersinNewOrleans.</title>
    <desc>Created with Sketch.</desc>
    <g id="Page-1" stroke="none" stroke-width="1" fill="none" fill-rule="evenodd">
        <g id="Desktop-HD-Copy-33" transform="translate(-377.000000, -1492.000000)" fill="#404648" fill-rule="nonzero">
            <path d="M396.034305,1495.56 L396.034305,1497.94 L388.112305,1497.94 L388.112305,1518 L385.460305,1518 L385.460305,1497.94 L377.572305,1497.94 L377.572305,1495.56 L396.034305,1495.56 Z M407.110986,1501.068 C410.986986,1501.068 413.230986,1503.754 413.230986,1507.596 L413.230986,1518 L410.612986,1518 L410.612986,1507.936 C410.612986,1505.318 409.048986,1503.482 406.498986,1503.482 C403.948986,1503.482 402.146986,1505.352 402.146986,1507.936 L402.146986,1518 L399.528986,1518 L399.528986,1492.5 L402.146986,1492.5 L402.146986,1503.312 C403.234986,1501.918 404.968986,1501.068 407.110986,1501.068 Z M420.057667,1493.214 C421.111667,1493.214 421.995667,1494.064 421.995667,1495.118 C421.995667,1496.206 421.111667,1497.022 420.057667,1497.022 C418.935667,1497.022 418.085667,1496.206 418.085667,1495.118 C418.085667,1494.064 418.935667,1493.214 420.057667,1493.214 Z M421.349667,1501.442 L421.349667,1518 L418.731667,1518 L418.731667,1501.442 L421.349667,1501.442 Z M432.052347,1501.068 C434.432347,1501.068 436.302347,1502.088 437.594347,1503.686 L435.996347,1505.318 C434.908347,1504.196 433.480347,1503.482 431.916347,1503.482 C430.352347,1503.482 429.162347,1504.196 429.162347,1505.556 C429.162347,1506.678 430.012347,1507.222 431.848347,1507.97 L433.378347,1508.616 C436.370347,1509.874 437.764347,1511.166 437.764347,1513.512 C437.764347,1516.742 435.010347,1518.374 431.950347,1518.374 C429.026347,1518.374 426.816347,1516.912 425.490347,1515.144 L427.156347,1513.41 C428.516347,1514.838 429.910347,1515.96 431.916347,1515.96 C433.650347,1515.96 435.078347,1515.11 435.078347,1513.614 C435.078347,1512.186 433.854347,1511.642 432.188347,1510.962 L430.590347,1510.282 C428.074347,1509.228 426.476347,1508.072 426.476347,1505.692 C426.476347,1502.7 429.026347,1501.068 432.052347,1501.068 Z M453.253708,1493.214 C454.307708,1493.214 455.191708,1494.064 455.191708,1495.118 C455.191708,1496.206 454.307708,1497.022 453.253708,1497.022 C452.131708,1497.022 451.281708,1496.206 451.281708,1495.118 C451.281708,1494.064 452.131708,1493.214 453.253708,1493.214 Z M454.545708,1501.442 L454.545708,1518 L451.927708,1518 L451.927708,1501.442 L454.545708,1501.442 Z M465.248389,1501.068 C467.628389,1501.068 469.498389,1502.088 470.790389,1503.686 L469.192389,1505.318 C468.104389,1504.196 466.676389,1503.482 465.112389,1503.482 C463.548389,1503.482 462.358389,1504.196 462.358389,1505.556 C462.358389,1506.678 463.208389,1507.222 465.044389,1507.97 L466.574389,1508.616 C469.566389,1509.874 470.960389,1511.166 470.960389,1513.512 C470.960389,1516.742 468.206389,1518.374 465.146389,1518.374 C462.222389,1518.374 460.012389,1516.912 458.686389,1515.144 L460.352389,1513.41 C461.712389,1514.838 463.106389,1515.96 465.112389,1515.96 C466.846389,1515.96 468.274389,1515.11 468.274389,1513.614 C468.274389,1512.186 467.050389,1511.642 465.384389,1510.962 L463.786389,1510.282 C461.270389,1509.228 459.672389,1508.072 459.672389,1505.692 C459.672389,1502.7 462.222389,1501.068 465.248389,1501.068 Z M491.07375,1501.068 C494.84775,1501.068 497.53375,1503.346 497.53375,1507.8 L497.53375,1518 L495.08575,1518 L495.08575,1515.858 C493.89575,1517.456 491.95775,1518.374 489.50975,1518.374 C486.17775,1518.374 483.72975,1516.606 483.72975,1513.716 C483.72975,1510.928 486.07575,1509.092 489.67975,1509.092 L494.91575,1509.092 L494.91575,1507.664 C494.91575,1504.876 493.35175,1503.482 490.90375,1503.482 C488.82975,1503.482 487.36775,1504.468 486.07575,1506.134 L484.34175,1504.706 C485.90575,1502.19 488.42175,1501.068 491.07375,1501.068 Z M489.84975,1516.198 C492.56975,1516.198 494.91575,1514.226 494.91575,1511.642 L494.91575,1511.234 L489.98575,1511.234 C487.67375,1511.234 486.41575,1512.016 486.41575,1513.58 C486.41575,1515.348 488.01375,1516.198 489.84975,1516.198 Z M530.227111,1495.56 L530.227111,1509.092 C530.227111,1515.076 526.419111,1518.374 521.353111,1518.374 C516.185111,1518.374 512.411111,1515.076 512.411111,1509.092 L512.411111,1495.56 L515.063111,1495.56 L515.063111,1509.262 C515.063111,1513.784 517.851111,1515.926 521.353111,1515.926 C524.821111,1515.926 527.575111,1513.784 527.575111,1509.262 L527.575111,1495.56 L530.227111,1495.56 Z M538.753792,1495.56 L538.753792,1518 L536.101792,1518 L536.101792,1495.56 L538.753792,1495.56 Z M561.621153,1501.068 C564.613153,1501.068 566.993153,1502.496 568.455153,1504.672 L566.585153,1506.168 C565.361153,1504.536 563.797153,1503.482 561.655153,1503.482 C558.187153,1503.482 555.637153,1506.236 555.637153,1509.704 C555.637153,1513.206 558.187153,1515.96 561.655153,1515.96 C563.763153,1515.96 565.327153,1514.94 566.551153,1513.308 L568.421153,1514.77 C566.959153,1516.946 564.579153,1518.374 561.621153,1518.374 C556.793153,1518.374 552.951153,1514.566 552.951153,1509.704 C552.951153,1504.876 556.793153,1501.068 561.621153,1501.068 Z M579.973833,1501.068 C584.767833,1501.068 588.643833,1504.842 588.643833,1509.704 C588.643833,1514.532 584.767833,1518.34 579.939833,1518.34 C575.145833,1518.306 571.303833,1514.566 571.303833,1509.704 C571.303833,1504.842 575.111833,1501.068 579.973833,1501.068 Z M579.973833,1503.482 C576.505833,1503.482 573.955833,1506.202 573.989833,1509.738 C573.989833,1513.24 576.505833,1515.926 579.939833,1515.926 C583.373833,1515.926 585.957833,1513.206 585.957833,1509.738 C585.957833,1506.168 583.373833,1503.482 579.973833,1503.482 Z M600.740514,1501.068 C604.650514,1501.068 606.894514,1503.754 606.894514,1507.596 L606.894514,1518 L604.276514,1518 L604.276514,1507.902 C604.276514,1505.284 602.712514,1503.482 600.162514,1503.482 C597.612514,1503.482 595.810514,1505.318 595.810514,1507.902 L595.810514,1518 L593.192514,1518 L593.192514,1501.442 L595.640514,1501.442 L595.640514,1503.244 C596.796514,1501.884 598.598514,1501.068 600.740514,1501.068 Z M619.875194,1501.068 C622.867194,1501.068 625.247194,1502.496 626.709194,1504.672 L624.839194,1506.168 C623.615194,1504.536 622.051194,1503.482 619.909194,1503.482 C616.441194,1503.482 613.891194,1506.236 613.891194,1509.704 C613.891194,1513.206 616.441194,1515.96 619.909194,1515.96 C622.017194,1515.96 623.581194,1514.94 624.805194,1513.308 L626.675194,1514.77 C625.213194,1516.946 622.833194,1518.374 619.875194,1518.374 C615.047194,1518.374 611.205194,1514.566 611.205194,1509.704 C611.205194,1504.876 615.047194,1501.068 619.875194,1501.068 Z M645.571875,1508.548 C645.571875,1509.432 645.435875,1510.214 645.367875,1510.52 L632.311875,1510.52 C632.651875,1513.818 635.099875,1515.96 638.363875,1515.96 C640.437875,1515.96 642.069875,1515.076 643.429875,1513.716 L644.959875,1515.484 C643.293875,1517.252 641.049875,1518.374 638.329875,1518.374 C633.331875,1518.374 629.557875,1514.6 629.557875,1509.738 C629.557875,1504.91 633.263875,1501.068 638.023875,1501.068 C642.273875,1501.068 645.571875,1504.128 645.571875,1508.548 Z M637.955875,1503.448 C635.167875,1503.448 632.957875,1505.352 632.413875,1508.208 L642.885875,1508.208 C642.851875,1505.148 640.607875,1503.448 637.955875,1503.448 Z M658.824556,1501.068 C663.584556,1501.068 667.018556,1504.842 667.018556,1509.704 C667.018556,1514.6 663.550556,1518.374 658.824556,1518.374 C656.376556,1518.374 654.064556,1517.354 652.738556,1515.586 L652.738556,1524.12 L650.120556,1524.12 L650.120556,1501.442 L652.568556,1501.442 L652.568556,1504.094 C653.860556,1502.19 656.206556,1501.068 658.824556,1501.068 Z M658.450556,1515.96 C661.816556,1515.96 664.332556,1513.342 664.332556,1509.738 C664.332556,1506.134 661.850556,1503.482 658.450556,1503.482 C655.594556,1503.482 652.704556,1505.352 652.704556,1509.704 C652.704556,1514.056 655.560556,1515.96 658.450556,1515.96 Z M678.401236,1515.994 C679.047236,1515.994 679.761236,1515.926 680.611236,1515.79 L680.611236,1518 C679.761236,1518.204 678.911236,1518.374 677.857236,1518.374 C674.593236,1518.374 672.281236,1516.776 672.281236,1513.002 L672.281236,1503.788 L669.493236,1503.788 L669.493236,1501.442 L672.281236,1501.442 L672.281236,1496.92 L674.899236,1496.92 L674.899236,1501.442 L680.067236,1501.442 L680.067236,1503.788 L674.899236,1503.788 L674.899236,1512.832 C674.899236,1515.314 676.327236,1515.994 678.401236,1515.994 Z M700.452597,1494.506 C698.412597,1494.506 696.984597,1495.186 696.984597,1497.668 L696.984597,1501.442 L701.132597,1501.442 L701.132597,1503.788 L696.984597,1503.788 L696.984597,1518 L694.366597,1518 L694.366597,1503.788 L691.986597,1503.788 L691.986597,1501.442 L694.366597,1501.442 L694.366597,1497.498 C694.366597,1493.724 696.644597,1492.126 699.840597,1492.126 C700.656597,1492.126 701.302597,1492.228 701.914597,1492.398 L701.914597,1494.608 C701.370597,1494.54 700.894597,1494.506 700.452597,1494.506 Z M711.699278,1501.068 C716.493278,1501.068 720.369278,1504.842 720.369278,1509.704 C720.369278,1514.532 716.493278,1518.34 711.665278,1518.34 C706.871278,1518.306 703.029278,1514.566 703.029278,1509.704 C703.029278,1504.842 706.837278,1501.068 711.699278,1501.068 Z M711.699278,1503.482 C708.231278,1503.482 705.681278,1506.202 705.715278,1509.738 C705.715278,1513.24 708.231278,1515.926 711.665278,1515.926 C715.099278,1515.926 717.683278,1513.206 717.683278,1509.738 C717.683278,1506.168 715.099278,1503.482 711.699278,1503.482 Z M732.499958,1501.306 C733.043958,1501.306 733.383958,1501.374 733.723958,1501.442 L733.723958,1503.754 L732.737958,1503.754 C730.051958,1503.754 727.535958,1505.454 727.535958,1508.616 L727.535958,1518 L724.917958,1518 L724.917958,1501.442 L727.365958,1501.442 L727.365958,1503.822 C728.589958,1502.19 730.527958,1501.306 732.499958,1501.306 Z M752.613319,1501.068 C756.387319,1501.068 759.073319,1503.346 759.073319,1507.8 L759.073319,1518 L756.625319,1518 L756.625319,1515.858 C755.435319,1517.456 753.497319,1518.374 751.049319,1518.374 C747.717319,1518.374 745.269319,1516.606 745.269319,1513.716 C745.269319,1510.928 747.615319,1509.092 751.219319,1509.092 L756.455319,1509.092 L756.455319,1507.664 C756.455319,1504.876 754.891319,1503.482 752.443319,1503.482 C750.369319,1503.482 748.907319,1504.468 747.615319,1506.134 L745.881319,1504.706 C747.445319,1502.19 749.961319,1501.068 752.613319,1501.068 Z M751.389319,1516.198 C754.109319,1516.198 756.455319,1514.226 756.455319,1511.642 L756.455319,1511.234 L751.525319,1511.234 C749.213319,1511.234 747.955319,1512.016 747.955319,1513.58 C747.955319,1515.348 749.553319,1516.198 751.389319,1516.198 Z M772.122,1501.068 C776.032,1501.068 778.276,1503.754 778.276,1507.596 L778.276,1518 L775.658,1518 L775.658,1507.902 C775.658,1505.284 774.094,1503.482 771.544,1503.482 C768.994,1503.482 767.192,1505.318 767.192,1507.902 L767.192,1518 L764.574,1518 L764.574,1501.442 L767.022,1501.442 L767.022,1503.244 C768.178,1501.884 769.98,1501.068 772.122,1501.068 Z M799.205361,1501.068 C802.979361,1501.068 805.665361,1503.346 805.665361,1507.8 L805.665361,1518 L803.217361,1518 L803.217361,1515.858 C802.027361,1517.456 800.089361,1518.374 797.641361,1518.374 C794.309361,1518.374 791.861361,1516.606 791.861361,1513.716 C791.861361,1510.928 794.207361,1509.092 797.811361,1509.092 L803.047361,1509.092 L803.047361,1507.664 C803.047361,1504.876 801.483361,1503.482 799.035361,1503.482 C796.961361,1503.482 795.499361,1504.468 794.207361,1506.134 L792.473361,1504.706 C794.037361,1502.19 796.553361,1501.068 799.205361,1501.068 Z M797.981361,1516.198 C800.701361,1516.198 803.047361,1514.226 803.047361,1511.642 L803.047361,1511.234 L798.117361,1511.234 C795.805361,1511.234 794.547361,1512.016 794.547361,1513.58 C794.547361,1515.348 796.145361,1516.198 797.981361,1516.198 Z M819.870042,1501.068 C824.630042,1501.068 828.064042,1504.842 828.064042,1509.704 C828.064042,1514.6 824.596042,1518.374 819.870042,1518.374 C817.422042,1518.374 815.110042,1517.354 813.784042,1515.586 L813.784042,1524.12 L811.166042,1524.12 L811.166042,1501.442 L813.614042,1501.442 L813.614042,1504.094 C814.906042,1502.19 817.252042,1501.068 819.870042,1501.068 Z M819.496042,1515.96 C822.862042,1515.96 825.378042,1513.342 825.378042,1509.738 C825.378042,1506.134 822.896042,1503.482 819.496042,1503.482 C816.640042,1503.482 813.750042,1505.352 813.750042,1509.704 C813.750042,1514.056 816.606042,1515.96 819.496042,1515.96 Z M841.316722,1501.068 C846.076722,1501.068 849.510722,1504.842 849.510722,1509.704 C849.510722,1514.6 846.042722,1518.374 841.316722,1518.374 C838.868722,1518.374 836.556722,1517.354 835.230722,1515.586 L835.230722,1524.12 L832.612722,1524.12 L832.612722,1501.442 L835.060722,1501.442 L835.060722,1504.094 C836.352722,1502.19 838.698722,1501.068 841.316722,1501.068 Z M840.942722,1515.96 C844.308722,1515.96 846.824722,1513.342 846.824722,1509.738 C846.824722,1506.134 844.342722,1503.482 840.942722,1503.482 C838.086722,1503.482 835.196722,1505.352 835.196722,1509.704 C835.196722,1514.056 838.052722,1515.96 840.942722,1515.96 Z M870.372083,1515.994 C871.018083,1515.994 871.732083,1515.926 872.582083,1515.79 L872.582083,1518 C871.732083,1518.204 870.882083,1518.374 869.828083,1518.374 C866.564083,1518.374 864.252083,1516.776 864.252083,1513.002 L864.252083,1503.788 L861.464083,1503.788 L861.464083,1501.442 L864.252083,1501.442 L864.252083,1496.92 L866.870083,1496.92 L866.870083,1501.442 L872.038083,1501.442 L872.038083,1503.788 L866.870083,1503.788 L866.870083,1512.832 C866.870083,1515.314 868.298083,1515.994 870.372083,1515.994 Z M884.032764,1501.068 C887.908764,1501.068 890.152764,1503.754 890.152764,1507.596 L890.152764,1518 L887.534764,1518 L887.534764,1507.936 C887.534764,1505.318 885.970764,1503.482 883.420764,1503.482 C880.870764,1503.482 879.068764,1505.352 879.068764,1507.936 L879.068764,1518 L876.450764,1518 L876.450764,1492.5 L879.068764,1492.5 L879.068764,1503.312 C880.156764,1501.918 881.890764,1501.068 884.032764,1501.068 Z M901.603444,1501.068 C905.377444,1501.068 908.063444,1503.346 908.063444,1507.8 L908.063444,1518 L905.615444,1518 L905.615444,1515.858 C904.425444,1517.456 902.487444,1518.374 900.039444,1518.374 C896.707444,1518.374 894.259444,1516.606 894.259444,1513.716 C894.259444,1510.928 896.605444,1509.092 900.209444,1509.092 L905.445444,1509.092 L905.445444,1507.664 C905.445444,1504.876 903.881444,1503.482 901.433444,1503.482 C899.359444,1503.482 897.897444,1504.468 896.605444,1506.134 L894.871444,1504.706 C896.435444,1502.19 898.951444,1501.068 901.603444,1501.068 Z M900.379444,1516.198 C903.099444,1516.198 905.445444,1514.226 905.445444,1511.642 L905.445444,1511.234 L900.515444,1511.234 C898.203444,1511.234 896.945444,1512.016 896.945444,1513.58 C896.945444,1515.348 898.543444,1516.198 900.379444,1516.198 Z M920.398125,1515.994 C921.044125,1515.994 921.758125,1515.926 922.608125,1515.79 L922.608125,1518 C921.758125,1518.204 920.908125,1518.374 919.854125,1518.374 C916.590125,1518.374 914.278125,1516.776 914.278125,1513.002 L914.278125,1503.788 L911.490125,1503.788 L911.490125,1501.442 L914.278125,1501.442 L914.278125,1496.92 L916.896125,1496.92 L916.896125,1501.442 L922.064125,1501.442 L922.064125,1503.788 L916.896125,1503.788 L916.896125,1512.832 C916.896125,1515.314 918.324125,1515.994 920.398125,1515.994 Z M941.905486,1501.068 C945.679486,1501.068 948.365486,1503.346 948.365486,1507.8 L948.365486,1518 L945.917486,1518 L945.917486,1515.858 C944.727486,1517.456 942.789486,1518.374 940.341486,1518.374 C937.009486,1518.374 934.561486,1516.606 934.561486,1513.716 C934.561486,1510.928 936.907486,1509.092 940.511486,1509.092 L945.747486,1509.092 L945.747486,1507.664 C945.747486,1504.876 944.183486,1503.482 941.735486,1503.482 C939.661486,1503.482 938.199486,1504.468 936.907486,1506.134 L935.173486,1504.706 C936.737486,1502.19 939.253486,1501.068 941.905486,1501.068 Z M940.681486,1516.198 C943.401486,1516.198 945.747486,1514.226 945.747486,1511.642 L945.747486,1511.234 L940.817486,1511.234 C938.505486,1511.234 937.247486,1512.016 937.247486,1513.58 C937.247486,1515.348 938.845486,1516.198 940.681486,1516.198 Z M956.484167,1492.5 L956.484167,1518 L953.866167,1518 L953.866167,1492.5 L956.484167,1492.5 Z M964.806847,1492.5 L964.806847,1518 L962.188847,1518 L962.188847,1492.5 L964.806847,1492.5 Z M977.991528,1501.068 C982.785528,1501.068 986.661528,1504.842 986.661528,1509.704 C986.661528,1514.532 982.785528,1518.34 977.957528,1518.34 C973.163528,1518.306 969.321528,1514.566 969.321528,1509.704 C969.321528,1504.842 973.129528,1501.068 977.991528,1501.068 Z M977.991528,1503.482 C974.523528,1503.482 971.973528,1506.202 972.007528,1509.738 C972.007528,1513.24 974.523528,1515.926 977.957528,1515.926 C981.391528,1515.926 983.975528,1513.206 983.975528,1509.738 C983.975528,1506.168 981.391528,1503.482 977.991528,1503.482 Z M1012.86821,1501.442 L1015.65621,1501.442 L1008.68621,1518.374 L1007.73421,1518.374 L1002.09021,1505.862 L996.480208,1518.374 L995.562208,1518.374 L988.524208,1501.442 L991.312208,1501.442 L996.072208,1513.682 L1001.61421,1501.068 L1002.60021,1501.068 L1008.17621,1513.614 L1012.86821,1501.442 Z M1023.91089,1501.068 C1026.29089,1501.068 1028.16089,1502.088 1029.45289,1503.686 L1027.85489,1505.318 C1026.76689,1504.196 1025.33889,1503.482 1023.77489,1503.482 C1022.21089,1503.482 1021.02089,1504.196 1021.02089,1505.556 C1021.02089,1506.678 1021.87089,1507.222 1023.70689,1507.97 L1025.23689,1508.616 C1028.22889,1509.874 1029.62289,1511.166 1029.62289,1513.512 C1029.62289,1516.742 1026.86889,1518.374 1023.80889,1518.374 C1020.88489,1518.374 1018.67489,1516.912 1017.34889,1515.144 L1019.01489,1513.41 C1020.37489,1514.838 1021.76889,1515.96 1023.77489,1515.96 C1025.50889,1515.96 1026.93689,1515.11 1026.93689,1513.614 C1026.93689,1512.186 1025.71289,1511.642 1024.04689,1510.962 L1022.44889,1510.282 C1019.93289,1509.228 1018.33489,1508.072 1018.33489,1505.692 C1018.33489,1502.7 1020.88489,1501.068 1023.91089,1501.068 Z M1057.28425,1501.442 L1057.28425,1511.404 C1057.28425,1515.654 1054.25825,1518.374 1050.45025,1518.374 C1046.57425,1518.374 1043.58225,1515.654 1043.58225,1511.404 L1043.58225,1501.442 L1046.16625,1501.442 L1046.16625,1511.574 C1046.16625,1514.294 1048.07025,1515.96 1050.45025,1515.96 C1052.76225,1515.96 1054.66625,1514.294 1054.66625,1511.574 L1054.66625,1501.442 L1057.28425,1501.442 Z M1067.78293,1501.068 C1070.16293,1501.068 1072.03293,1502.088 1073.32493,1503.686 L1071.72693,1505.318 C1070.63893,1504.196 1069.21093,1503.482 1067.64693,1503.482 C1066.08293,1503.482 1064.89293,1504.196 1064.89293,1505.556 C1064.89293,1506.678 1065.74293,1507.222 1067.57893,1507.97 L1069.10893,1508.616 C1072.10093,1509.874 1073.49493,1511.166 1073.49493,1513.512 C1073.49493,1516.742 1070.74093,1518.374 1067.68093,1518.374 C1064.75693,1518.374 1062.54693,1516.912 1061.22093,1515.144 L1062.88693,1513.41 C1064.24693,1514.838 1065.64093,1515.96 1067.64693,1515.96 C1069.38093,1515.96 1070.80893,1515.11 1070.80893,1513.614 C1070.80893,1512.186 1069.58493,1511.642 1067.91893,1510.962 L1066.32093,1510.282 C1063.80493,1509.228 1062.20693,1508.072 1062.20693,1505.692 C1062.20693,1502.7 1064.75693,1501.068 1067.78293,1501.068 Z M1093.00361,1508.548 C1093.00361,1509.432 1092.86761,1510.214 1092.79961,1510.52 L1079.74361,1510.52 C1080.08361,1513.818 1082.53161,1515.96 1085.79561,1515.96 C1087.86961,1515.96 1089.50161,1515.076 1090.86161,1513.716 L1092.39161,1515.484 C1090.72561,1517.252 1088.48161,1518.374 1085.76161,1518.374 C1080.76361,1518.374 1076.98961,1514.6 1076.98961,1509.738 C1076.98961,1504.91 1080.69561,1501.068 1085.45561,1501.068 C1089.70561,1501.068 1093.00361,1504.128 1093.00361,1508.548 Z M1085.38761,1503.448 C1082.59961,1503.448 1080.38961,1505.352 1079.84561,1508.208 L1090.31761,1508.208 C1090.28361,1505.148 1088.03961,1503.448 1085.38761,1503.448 Z M1105.13429,1501.306 C1105.67829,1501.306 1106.01829,1501.374 1106.35829,1501.442 L1106.35829,1503.754 L1105.37229,1503.754 C1102.68629,1503.754 1100.17029,1505.454 1100.17029,1508.616 L1100.17029,1518 L1097.55229,1518 L1097.55229,1501.442 L1100.00029,1501.442 L1100.00029,1503.822 C1101.22429,1502.19 1103.16229,1501.306 1105.13429,1501.306 Z M1114.81697,1501.068 C1117.19697,1501.068 1119.06697,1502.088 1120.35897,1503.686 L1118.76097,1505.318 C1117.67297,1504.196 1116.24497,1503.482 1114.68097,1503.482 C1113.11697,1503.482 1111.92697,1504.196 1111.92697,1505.556 C1111.92697,1506.678 1112.77697,1507.222 1114.61297,1507.97 L1116.14297,1508.616 C1119.13497,1509.874 1120.52897,1511.166 1120.52897,1513.512 C1120.52897,1516.742 1117.77497,1518.374 1114.71497,1518.374 C1111.79097,1518.374 1109.58097,1516.912 1108.25497,1515.144 L1109.92097,1513.41 C1111.28097,1514.838 1112.67497,1515.96 1114.68097,1515.96 C1116.41497,1515.96 1117.84297,1515.11 1117.84297,1513.614 C1117.84297,1512.186 1116.61897,1511.642 1114.95297,1510.962 L1113.35497,1510.282 C1110.83897,1509.228 1109.24097,1508.072 1109.24097,1505.692 C1109.24097,1502.7 1111.79097,1501.068 1114.81697,1501.068 Z M1141.52633,1515.994 C1142.17233,1515.994 1142.88633,1515.926 1143.73633,1515.79 L1143.73633,1518 C1142.88633,1518.204 1142.03633,1518.374 1140.98233,1518.374 C1137.71833,1518.374 1135.40633,1516.776 1135.40633,1513.002 L1135.40633,1503.788 L1132.61833,1503.788 L1132.61833,1501.442 L1135.40633,1501.442 L1135.40633,1496.92 L1138.02433,1496.92 L1138.02433,1501.442 L1143.19233,1501.442 L1143.19233,1503.788 L1138.02433,1503.788 L1138.02433,1512.832 C1138.02433,1515.314 1139.45233,1515.994 1141.52633,1515.994 Z M1154.74501,1501.068 C1159.53901,1501.068 1163.41501,1504.842 1163.41501,1509.704 C1163.41501,1514.532 1159.53901,1518.34 1154.71101,1518.34 C1149.91701,1518.306 1146.07501,1514.566 1146.07501,1509.704 C1146.07501,1504.842 1149.88301,1501.068 1154.74501,1501.068 Z M1154.74501,1503.482 C1151.27701,1503.482 1148.72701,1506.202 1148.76101,1509.738 C1148.76101,1513.24 1151.27701,1515.926 1154.71101,1515.926 C1158.14501,1515.926 1160.72901,1513.206 1160.72901,1509.738 C1160.72901,1506.168 1158.14501,1503.482 1154.74501,1503.482 Z M410.262007,1549.548 C410.262007,1550.432 410.126007,1551.214 410.058007,1551.52 L397.002007,1551.52 C397.342007,1554.818 399.790007,1556.96 403.054007,1556.96 C405.128007,1556.96 406.760007,1556.076 408.120007,1554.716 L409.650007,1556.484 C407.984007,1558.252 405.740007,1559.374 403.020007,1559.374 C398.022007,1559.374 394.248007,1555.6 394.248007,1550.738 C394.248007,1545.91 397.954007,1542.068 402.714007,1542.068 C406.964007,1542.068 410.262007,1545.128 410.262007,1549.548 Z M402.646007,1544.448 C399.858007,1544.448 397.648007,1546.352 397.104007,1549.208 L407.576007,1549.208 C407.542007,1546.148 405.298007,1544.448 402.646007,1544.448 Z M427.764687,1559 L424.738687,1559 L420.012687,1552.302 L415.320687,1559 L412.260687,1559 L418.516687,1550.364 L412.770687,1542.442 L415.796687,1542.442 L420.012687,1548.46 L424.262687,1542.442 L427.288687,1542.442 L421.474687,1550.364 L427.764687,1559 Z M440.031368,1542.068 C444.791368,1542.068 448.225368,1545.842 448.225368,1550.704 C448.225368,1555.6 444.757368,1559.374 440.031368,1559.374 C437.583368,1559.374 435.271368,1558.354 433.945368,1556.586 L433.945368,1565.12 L431.327368,1565.12 L431.327368,1542.442 L433.775368,1542.442 L433.775368,1545.094 C435.067368,1543.19 437.413368,1542.068 440.031368,1542.068 Z M439.657368,1556.96 C443.023368,1556.96 445.539368,1554.342 445.539368,1550.738 C445.539368,1547.134 443.057368,1544.482 439.657368,1544.482 C436.801368,1544.482 433.911368,1546.352 433.911368,1550.704 C433.911368,1555.056 436.767368,1556.96 439.657368,1556.96 Z M455.392049,1533.5 L455.392049,1559 L452.774049,1559 L452.774049,1533.5 L455.392049,1533.5 Z M468.576729,1542.068 C473.370729,1542.068 477.246729,1545.842 477.246729,1550.704 C477.246729,1555.532 473.370729,1559.34 468.542729,1559.34 C463.748729,1559.306 459.906729,1555.566 459.906729,1550.704 C459.906729,1545.842 463.714729,1542.068 468.576729,1542.068 Z M468.576729,1544.482 C465.108729,1544.482 462.558729,1547.202 462.592729,1550.738 C462.592729,1554.24 465.108729,1556.926 468.542729,1556.926 C471.976729,1556.926 474.560729,1554.206 474.560729,1550.738 C474.560729,1547.168 471.976729,1544.482 468.576729,1544.482 Z M489.37741,1542.306 C489.92141,1542.306 490.26141,1542.374 490.60141,1542.442 L490.60141,1544.754 L489.61541,1544.754 C486.92941,1544.754 484.41341,1546.454 484.41341,1549.616 L484.41341,1559 L481.79541,1559 L481.79541,1542.442 L484.24341,1542.442 L484.24341,1544.822 C485.46741,1543.19 487.40541,1542.306 489.37741,1542.306 Z M508.54609,1549.548 C508.54609,1550.432 508.41009,1551.214 508.34209,1551.52 L495.28609,1551.52 C495.62609,1554.818 498.07409,1556.96 501.33809,1556.96 C503.41209,1556.96 505.04409,1556.076 506.40409,1554.716 L507.93409,1556.484 C506.26809,1558.252 504.02409,1559.374 501.30409,1559.374 C496.30609,1559.374 492.53209,1555.6 492.53209,1550.738 C492.53209,1545.91 496.23809,1542.068 500.99809,1542.068 C505.24809,1542.068 508.54609,1545.128 508.54609,1549.548 Z M500.93009,1544.448 C498.14209,1544.448 495.93209,1546.352 495.38809,1549.208 L505.86009,1549.208 C505.82609,1546.148 503.58209,1544.448 500.93009,1544.448 Z M529.407451,1556.994 C530.053451,1556.994 530.767451,1556.926 531.617451,1556.79 L531.617451,1559 C530.767451,1559.204 529.917451,1559.374 528.863451,1559.374 C525.599451,1559.374 523.287451,1557.776 523.287451,1554.002 L523.287451,1544.788 L520.499451,1544.788 L520.499451,1542.442 L523.287451,1542.442 L523.287451,1537.92 L525.905451,1537.92 L525.905451,1542.442 L531.073451,1542.442 L531.073451,1544.788 L525.905451,1544.788 L525.905451,1553.832 C525.905451,1556.314 527.333451,1556.994 529.407451,1556.994 Z M543.068132,1542.068 C546.944132,1542.068 549.188132,1544.754 549.188132,1548.596 L549.188132,1559 L546.570132,1559 L546.570132,1548.936 C546.570132,1546.318 545.006132,1544.482 542.456132,1544.482 C539.906132,1544.482 538.104132,1546.352 538.104132,1548.936 L538.104132,1559 L535.486132,1559 L535.486132,1533.5 L538.104132,1533.5 L538.104132,1544.312 C539.192132,1542.918 540.926132,1542.068 543.068132,1542.068 Z M569.512812,1549.548 C569.512812,1550.432 569.376812,1551.214 569.308812,1551.52 L556.252812,1551.52 C556.592812,1554.818 559.040812,1556.96 562.304812,1556.96 C564.378812,1556.96 566.010812,1556.076 567.370812,1554.716 L568.900812,1556.484 C567.234812,1558.252 564.990812,1559.374 562.270812,1559.374 C557.272812,1559.374 553.498812,1555.6 553.498812,1550.738 C553.498812,1545.91 557.204812,1542.068 561.964812,1542.068 C566.214812,1542.068 569.512812,1545.128 569.512812,1549.548 Z M561.896812,1544.448 C559.108812,1544.448 556.898812,1546.352 556.354812,1549.208 L566.826812,1549.208 C566.792812,1546.148 564.548812,1544.448 561.896812,1544.448 Z M604.858174,1542.442 L607.646174,1542.442 L600.676174,1559.374 L599.724174,1559.374 L594.080174,1546.862 L588.470174,1559.374 L587.552174,1559.374 L580.514174,1542.442 L583.302174,1542.442 L588.062174,1554.682 L593.604174,1542.068 L594.590174,1542.068 L600.166174,1554.614 L604.858174,1542.442 Z M612.738854,1534.214 C613.792854,1534.214 614.676854,1535.064 614.676854,1536.118 C614.676854,1537.206 613.792854,1538.022 612.738854,1538.022 C611.616854,1538.022 610.766854,1537.206 610.766854,1536.118 C610.766854,1535.064 611.616854,1534.214 612.738854,1534.214 Z M614.030854,1542.442 L614.030854,1559 L611.412854,1559 L611.412854,1542.442 L614.030854,1542.442 Z M632.859535,1533.5 L635.477535,1533.5 L635.477535,1559 L632.995535,1559 L632.995535,1556.348 C631.703535,1558.252 629.357535,1559.374 626.739535,1559.374 C622.013535,1559.374 618.545535,1555.6 618.545535,1550.738 C618.545535,1545.842 622.013535,1542.068 626.739535,1542.068 C629.255535,1542.068 631.533535,1543.122 632.859535,1544.89 L632.859535,1533.5 Z M627.113535,1556.96 C629.969535,1556.96 632.893535,1555.09 632.893535,1550.738 C632.893535,1546.386 629.969535,1544.482 627.113535,1544.482 C623.747535,1544.482 621.231535,1547.1 621.231535,1550.704 C621.231535,1554.308 623.713535,1556.96 627.113535,1556.96 Z M656.006215,1549.548 C656.006215,1550.432 655.870215,1551.214 655.802215,1551.52 L642.746215,1551.52 C643.086215,1554.818 645.534215,1556.96 648.798215,1556.96 C650.872215,1556.96 652.504215,1556.076 653.864215,1554.716 L655.394215,1556.484 C653.728215,1558.252 651.484215,1559.374 648.764215,1559.374 C643.766215,1559.374 639.992215,1555.6 639.992215,1550.738 C639.992215,1545.91 643.698215,1542.068 648.458215,1542.068 C652.708215,1542.068 656.006215,1545.128 656.006215,1549.548 Z M648.390215,1544.448 C645.602215,1544.448 643.392215,1546.352 642.848215,1549.208 L653.320215,1549.208 C653.286215,1546.148 651.042215,1544.448 648.390215,1544.448 Z M677.615576,1542.306 C678.159576,1542.306 678.499576,1542.374 678.839576,1542.442 L678.839576,1544.754 L677.853576,1544.754 C675.167576,1544.754 672.651576,1546.454 672.651576,1549.616 L672.651576,1559 L670.033576,1559 L670.033576,1542.442 L672.481576,1542.442 L672.481576,1544.822 C673.705576,1543.19 675.643576,1542.306 677.615576,1542.306 Z M687.910257,1542.068 C691.684257,1542.068 694.370257,1544.346 694.370257,1548.8 L694.370257,1559 L691.922257,1559 L691.922257,1556.858 C690.732257,1558.456 688.794257,1559.374 686.346257,1559.374 C683.014257,1559.374 680.566257,1557.606 680.566257,1554.716 C680.566257,1551.928 682.912257,1550.092 686.516257,1550.092 L691.752257,1550.092 L691.752257,1548.664 C691.752257,1545.876 690.188257,1544.482 687.740257,1544.482 C685.666257,1544.482 684.204257,1545.468 682.912257,1547.134 L681.178257,1545.706 C682.742257,1543.19 685.258257,1542.068 687.910257,1542.068 Z M686.686257,1557.198 C689.406257,1557.198 691.752257,1555.226 691.752257,1552.642 L691.752257,1552.234 L686.822257,1552.234 C684.510257,1552.234 683.252257,1553.016 683.252257,1554.58 C683.252257,1556.348 684.850257,1557.198 686.686257,1557.198 Z M707.418937,1542.068 C711.328937,1542.068 713.572937,1544.754 713.572937,1548.596 L713.572937,1559 L710.954937,1559 L710.954937,1548.902 C710.954937,1546.284 709.390937,1544.482 706.840937,1544.482 C704.290937,1544.482 702.488937,1546.318 702.488937,1548.902 L702.488937,1559 L699.870937,1559 L699.870937,1542.442 L702.318937,1542.442 L702.318937,1544.244 C703.474937,1542.884 705.276937,1542.068 707.418937,1542.068 Z M732.503618,1542.442 L734.985618,1542.442 L734.985618,1557.402 C734.985618,1562.502 731.755618,1565.494 726.927618,1565.494 C723.459618,1565.494 720.773618,1563.93 719.141618,1562.298 L720.671618,1560.462 C722.269618,1561.856 724.139618,1563.08 726.859618,1563.08 C730.225618,1563.08 732.367618,1561.21 732.367618,1557.538 L732.367618,1556.076 C731.007618,1557.81 728.695618,1558.83 726.213618,1558.83 C721.555618,1558.83 718.087618,1555.294 718.087618,1550.466 C718.087618,1545.672 721.555618,1542.068 726.213618,1542.068 C728.831618,1542.068 731.211618,1543.224 732.503618,1545.128 L732.503618,1542.442 Z M726.621618,1556.416 C729.511618,1556.416 732.401618,1554.614 732.401618,1550.466 C732.401618,1546.318 729.477618,1544.55 726.621618,1544.55 C723.255618,1544.55 720.739618,1546.998 720.739618,1550.5 C720.739618,1554.002 723.255618,1556.416 726.621618,1556.416 Z M755.514299,1549.548 C755.514299,1550.432 755.378299,1551.214 755.310299,1551.52 L742.254299,1551.52 C742.594299,1554.818 745.042299,1556.96 748.306299,1556.96 C750.380299,1556.96 752.012299,1556.076 753.372299,1554.716 L754.902299,1556.484 C753.236299,1558.252 750.992299,1559.374 748.272299,1559.374 C743.274299,1559.374 739.500299,1555.6 739.500299,1550.738 C739.500299,1545.91 743.206299,1542.068 747.966299,1542.068 C752.216299,1542.068 755.514299,1545.128 755.514299,1549.548 Z M747.898299,1544.448 C745.110299,1544.448 742.900299,1546.352 742.356299,1549.208 L752.828299,1549.208 C752.794299,1546.148 750.550299,1544.448 747.898299,1544.448 Z M777.02166,1542.068 C781.81566,1542.068 785.69166,1545.842 785.69166,1550.704 C785.69166,1555.532 781.81566,1559.34 776.98766,1559.34 C772.19366,1559.306 768.35166,1555.566 768.35166,1550.704 C768.35166,1545.842 772.15966,1542.068 777.02166,1542.068 Z M777.02166,1544.482 C773.55366,1544.482 771.00366,1547.202 771.03766,1550.738 C771.03766,1554.24 773.55366,1556.926 776.98766,1556.926 C780.42166,1556.926 783.00566,1554.206 783.00566,1550.738 C783.00566,1547.168 780.42166,1544.482 777.02166,1544.482 Z M796.73434,1535.506 C794.69434,1535.506 793.26634,1536.186 793.26634,1538.668 L793.26634,1542.442 L797.41434,1542.442 L797.41434,1544.788 L793.26634,1544.788 L793.26634,1559 L790.64834,1559 L790.64834,1544.788 L788.26834,1544.788 L788.26834,1542.442 L790.64834,1542.442 L790.64834,1538.498 C790.64834,1534.724 792.92634,1533.126 796.12234,1533.126 C796.93834,1533.126 797.58434,1533.228 798.19634,1533.398 L798.19634,1535.608 C797.65234,1535.54 797.17634,1535.506 796.73434,1535.506 Z M817.663701,1542.068 C822.389701,1542.068 825.857701,1545.842 825.857701,1550.738 C825.857701,1555.6 822.423701,1559.374 817.697701,1559.374 C815.113701,1559.374 812.699701,1558.252 811.407701,1556.348 L811.407701,1559 L808.959701,1559 L808.959701,1533.5 L811.577701,1533.5 L811.577701,1544.89 C812.869701,1543.156 815.147701,1542.068 817.663701,1542.068 Z M817.289701,1556.96 C820.689701,1556.96 823.171701,1554.308 823.171701,1550.704 C823.171701,1547.1 820.655701,1544.482 817.289701,1544.482 C814.399701,1544.482 811.543701,1546.386 811.543701,1550.738 C811.543701,1555.09 814.433701,1556.96 817.289701,1556.96 Z M845.230382,1549.548 C845.230382,1550.432 845.094382,1551.214 845.026382,1551.52 L831.970382,1551.52 C832.310382,1554.818 834.758382,1556.96 838.022382,1556.96 C840.096382,1556.96 841.728382,1556.076 843.088382,1554.716 L844.618382,1556.484 C842.952382,1558.252 840.708382,1559.374 837.988382,1559.374 C832.990382,1559.374 829.216382,1555.6 829.216382,1550.738 C829.216382,1545.91 832.922382,1542.068 837.682382,1542.068 C841.932382,1542.068 845.230382,1545.128 845.230382,1549.548 Z M837.614382,1544.448 C834.826382,1544.448 832.616382,1546.352 832.072382,1549.208 L842.544382,1549.208 C842.510382,1546.148 840.266382,1544.448 837.614382,1544.448 Z M864.603063,1549.548 C864.603063,1550.432 864.467063,1551.214 864.399063,1551.52 L851.343063,1551.52 C851.683063,1554.818 854.131063,1556.96 857.395063,1556.96 C859.469063,1556.96 861.101063,1556.076 862.461063,1554.716 L863.991063,1556.484 C862.325063,1558.252 860.081063,1559.374 857.361063,1559.374 C852.363063,1559.374 848.589063,1555.6 848.589063,1550.738 C848.589063,1545.91 852.295063,1542.068 857.055063,1542.068 C861.305063,1542.068 864.603063,1545.128 864.603063,1549.548 Z M856.987063,1544.448 C854.199063,1544.448 851.989063,1546.352 851.445063,1549.208 L861.917063,1549.208 C861.883063,1546.148 859.639063,1544.448 856.987063,1544.448 Z M876.733743,1542.306 C877.277743,1542.306 877.617743,1542.374 877.957743,1542.442 L877.957743,1544.754 L876.971743,1544.754 C874.285743,1544.754 871.769743,1546.454 871.769743,1549.616 L871.769743,1559 L869.151743,1559 L869.151743,1542.442 L871.599743,1542.442 L871.599743,1544.822 C872.823743,1543.19 874.761743,1542.306 876.733743,1542.306 Z M886.416424,1542.068 C888.796424,1542.068 890.666424,1543.088 891.958424,1544.686 L890.360424,1546.318 C889.272424,1545.196 887.844424,1544.482 886.280424,1544.482 C884.716424,1544.482 883.526424,1545.196 883.526424,1546.556 C883.526424,1547.678 884.376424,1548.222 886.212424,1548.97 L887.742424,1549.616 C890.734424,1550.874 892.128424,1552.166 892.128424,1554.512 C892.128424,1557.742 889.374424,1559.374 886.314424,1559.374 C883.390424,1559.374 881.180424,1557.912 879.854424,1556.144 L881.520424,1554.41 C882.880424,1555.838 884.274424,1556.96 886.280424,1556.96 C888.014424,1556.96 889.442424,1556.11 889.442424,1554.614 C889.442424,1553.186 888.218424,1552.642 886.552424,1551.962 L884.954424,1551.282 C882.438424,1550.228 880.840424,1549.072 880.840424,1546.692 C880.840424,1543.7 883.390424,1542.068 886.416424,1542.068 Z M907.617785,1534.214 C908.671785,1534.214 909.555785,1535.064 909.555785,1536.118 C909.555785,1537.206 908.671785,1538.022 907.617785,1538.022 C906.495785,1538.022 905.645785,1537.206 905.645785,1536.118 C905.645785,1535.064 906.495785,1534.214 907.617785,1534.214 Z M908.909785,1542.442 L908.909785,1559 L906.291785,1559 L906.291785,1542.442 L908.909785,1542.442 Z M922.162465,1542.068 C926.072465,1542.068 928.316465,1544.754 928.316465,1548.596 L928.316465,1559 L925.698465,1559 L925.698465,1548.902 C925.698465,1546.284 924.134465,1544.482 921.584465,1544.482 C919.034465,1544.482 917.232465,1546.318 917.232465,1548.902 L917.232465,1559 L914.614465,1559 L914.614465,1542.442 L917.062465,1542.442 L917.062465,1544.244 C918.218465,1542.884 920.020465,1542.068 922.162465,1542.068 Z M958.731826,1536.56 L961.383826,1536.56 L961.383826,1559.374 L960.431826,1559.374 L946.151826,1542.136 L946.151826,1559 L943.499826,1559 L943.499826,1536.186 L944.451826,1536.186 L958.731826,1553.458 L958.731826,1536.56 Z M981.980507,1549.548 C981.980507,1550.432 981.844507,1551.214 981.776507,1551.52 L968.720507,1551.52 C969.060507,1554.818 971.508507,1556.96 974.772507,1556.96 C976.846507,1556.96 978.478507,1556.076 979.838507,1554.716 L981.368507,1556.484 C979.702507,1558.252 977.458507,1559.374 974.738507,1559.374 C969.740507,1559.374 965.966507,1555.6 965.966507,1550.738 C965.966507,1545.91 969.672507,1542.068 974.432507,1542.068 C978.682507,1542.068 981.980507,1545.128 981.980507,1549.548 Z M974.364507,1544.448 C971.576507,1544.448 969.366507,1546.352 968.822507,1549.208 L979.294507,1549.208 C979.260507,1546.148 977.016507,1544.448 974.364507,1544.448 Z M1008.18719,1542.442 L1010.97519,1542.442 L1004.00519,1559.374 L1003.05319,1559.374 L997.409188,1546.862 L991.799188,1559.374 L990.881188,1559.374 L983.843188,1542.442 L986.631188,1542.442 L991.391188,1554.682 L996.933188,1542.068 L997.919188,1542.068 L1003.49519,1554.614 L1008.18719,1542.442 Z M1034.59055,1536.186 C1041.01655,1536.186 1046.25255,1541.218 1046.25255,1547.78 C1046.25255,1554.342 1041.01655,1559.374 1034.59055,1559.374 C1028.09655,1559.374 1022.96255,1554.308 1022.96255,1547.78 C1022.96255,1541.218 1028.13055,1536.186 1034.59055,1536.186 Z M1034.62455,1538.634 C1029.49055,1538.634 1025.71655,1542.544 1025.71655,1547.746 C1025.71655,1552.982 1029.49055,1556.926 1034.62455,1556.926 C1039.69055,1556.926 1043.49855,1552.982 1043.49855,1547.746 C1043.49855,1542.578 1039.69055,1538.634 1034.62455,1538.634 Z M1058.31523,1542.306 C1058.85923,1542.306 1059.19923,1542.374 1059.53923,1542.442 L1059.53923,1544.754 L1058.55323,1544.754 C1055.86723,1544.754 1053.35123,1546.454 1053.35123,1549.616 L1053.35123,1559 L1050.73323,1559 L1050.73323,1542.442 L1053.18123,1542.442 L1053.18123,1544.822 C1054.40523,1543.19 1056.34323,1542.306 1058.31523,1542.306 Z M1065.61791,1533.5 L1065.61791,1559 L1062.99991,1559 L1062.99991,1533.5 L1065.61791,1533.5 Z M1086.14659,1549.548 C1086.14659,1550.432 1086.01059,1551.214 1085.94259,1551.52 L1072.88659,1551.52 C1073.22659,1554.818 1075.67459,1556.96 1078.93859,1556.96 C1081.01259,1556.96 1082.64459,1556.076 1084.00459,1554.716 L1085.53459,1556.484 C1083.86859,1558.252 1081.62459,1559.374 1078.90459,1559.374 C1073.90659,1559.374 1070.13259,1555.6 1070.13259,1550.738 C1070.13259,1545.91 1073.83859,1542.068 1078.59859,1542.068 C1082.84859,1542.068 1086.14659,1545.128 1086.14659,1549.548 Z M1078.53059,1544.448 C1075.74259,1544.448 1073.53259,1546.352 1072.98859,1549.208 L1083.46059,1549.208 C1083.42659,1546.148 1081.18259,1544.448 1078.53059,1544.448 Z M1096.64527,1542.068 C1100.41927,1542.068 1103.10527,1544.346 1103.10527,1548.8 L1103.10527,1559 L1100.65727,1559 L1100.65727,1556.858 C1099.46727,1558.456 1097.52927,1559.374 1095.08127,1559.374 C1091.74927,1559.374 1089.30127,1557.606 1089.30127,1554.716 C1089.30127,1551.928 1091.64727,1550.092 1095.25127,1550.092 L1100.48727,1550.092 L1100.48727,1548.664 C1100.48727,1545.876 1098.92327,1544.482 1096.47527,1544.482 C1094.40127,1544.482 1092.93927,1545.468 1091.64727,1547.134 L1089.91327,1545.706 C1091.47727,1543.19 1093.99327,1542.068 1096.64527,1542.068 Z M1095.42127,1557.198 C1098.14127,1557.198 1100.48727,1555.226 1100.48727,1552.642 L1100.48727,1552.234 L1095.55727,1552.234 C1093.24527,1552.234 1091.98727,1553.016 1091.98727,1554.58 C1091.98727,1556.348 1093.58527,1557.198 1095.42127,1557.198 Z M1116.15395,1542.068 C1120.06395,1542.068 1122.30795,1544.754 1122.30795,1548.596 L1122.30795,1559 L1119.68995,1559 L1119.68995,1548.902 C1119.68995,1546.284 1118.12595,1544.482 1115.57595,1544.482 C1113.02595,1544.482 1111.22395,1546.318 1111.22395,1548.902 L1111.22395,1559 L1108.60595,1559 L1108.60595,1542.442 L1111.05395,1542.442 L1111.05395,1544.244 C1112.20995,1542.884 1114.01195,1542.068 1116.15395,1542.068 Z M1132.80663,1542.068 C1135.18663,1542.068 1137.05663,1543.088 1138.34863,1544.686 L1136.75063,1546.318 C1135.66263,1545.196 1134.23463,1544.482 1132.67063,1544.482 C1131.10663,1544.482 1129.91663,1545.196 1129.91663,1546.556 C1129.91663,1547.678 1130.76663,1548.222 1132.60263,1548.97 L1134.13263,1549.616 C1137.12463,1550.874 1138.51863,1552.166 1138.51863,1554.512 C1138.51863,1557.742 1135.76463,1559.374 1132.70463,1559.374 C1129.78063,1559.374 1127.57063,1557.912 1126.24463,1556.144 L1127.91063,1554.41 C1129.27063,1555.838 1130.66463,1556.96 1132.67063,1556.96 C1134.40463,1556.96 1135.83263,1556.11 1135.83263,1554.614 C1135.83263,1553.186 1134.60863,1552.642 1132.94263,1551.962 L1131.34463,1551.282 C1128.82863,1550.228 1127.23063,1549.072 1127.23063,1546.692 C1127.23063,1543.7 1129.78063,1542.068 1132.80663,1542.068 Z M1144.90331,1555.09 C1146.05931,1555.09 1147.04531,1555.974 1147.04531,1557.232 C1147.04531,1558.49 1146.05931,1559.374 1144.90331,1559.374 C1143.74731,1559.374 1142.76131,1558.49 1142.76131,1557.232 C1142.76131,1555.974 1143.74731,1555.09 1144.90331,1555.09 Z" id="ThisisaUIconceptforanappthatallowsuserstoexplorethewiderangeofbeersinNewOrleans."></path>
        </g>
    </g>
</svg>