<?xml version="1.0" encoding="UTF-8"?>
<svg width="793px" height="217px" viewBox="0 0 793 217" version="1.1" xmlns="http://www.w3.org/2000/svg" xmlns:xlink="http://www.w3.org/1999/xlink">
    <!-- Generator: Sketch 53.2 (72643) - https://sketchapp.com -->
    <title>Asidefromworkingonfullprojects,it’sfuntodosmallerexcercisestogetthecreativejuicesflowing.Thispageshowsdifferentconceptsandstudies.</title>
    <desc>Created with Sketch.</desc>
    <g id="Page-1" stroke="none" stroke-width="1" fill="none" fill-rule="evenodd">
        <g id="Desktop-HD-Copy-33" transform="translate(-325.000000, -216.000000)" fill="#404648" fill-rule="nonzero">
            <path d="M375.188,253 L372.452,246.568 L356.996,246.568 L354.26,253 L350.324,253 L364.052,220.792 L365.444,220.792 L379.172,253 L375.188,253 Z M371.06,243.208 L364.724,227.656 L358.388,243.208 L371.06,243.208 Z M390.536,229.096 C393.896,229.096 396.536,230.536 398.36,232.792 L396.104,235.096 C394.568,233.512 392.552,232.504 390.344,232.504 C388.136,232.504 386.456,233.512 386.456,235.432 C386.456,237.016 387.656,237.784 390.248,238.84 L392.408,239.752 C396.632,241.528 398.6,243.352 398.6,246.664 C398.6,251.224 394.712,253.528 390.392,253.528 C386.264,253.528 383.144,251.464 381.272,248.968 L383.624,246.52 C385.544,248.536 387.512,250.12 390.344,250.12 C392.792,250.12 394.808,248.92 394.808,246.808 C394.808,244.792 393.08,244.024 390.728,243.064 L388.472,242.104 C384.92,240.616 382.664,238.984 382.664,235.624 C382.664,231.4 386.264,229.096 390.536,229.096 Z M405.884,218.008 C407.372,218.008 408.62,219.208 408.62,220.696 C408.62,222.232 407.372,223.384 405.884,223.384 C404.3,223.384 403.1,222.232 403.1,220.696 C403.1,219.208 404.3,218.008 405.884,218.008 Z M407.708,229.624 L407.708,253 L404.012,253 L404.012,229.624 L407.708,229.624 Z M433.088,217 L436.784,217 L436.784,253 L433.28,253 L433.28,249.256 C431.456,251.944 428.144,253.528 424.448,253.528 C417.776,253.528 412.88,248.2 412.88,241.336 C412.88,234.424 417.776,229.096 424.448,229.096 C428,229.096 431.216,230.584 433.088,233.08 L433.088,217 Z M424.976,250.12 C429.008,250.12 433.136,247.48 433.136,241.336 C433.136,235.192 429.008,232.504 424.976,232.504 C420.224,232.504 416.672,236.2 416.672,241.288 C416.672,246.376 420.176,250.12 424.976,250.12 Z M464.564,239.656 C464.564,240.904 464.372,242.008 464.276,242.44 L445.844,242.44 C446.324,247.096 449.78,250.12 454.388,250.12 C457.316,250.12 459.62,248.872 461.54,246.952 L463.7,249.448 C461.348,251.944 458.18,253.528 454.34,253.528 C447.284,253.528 441.956,248.2 441.956,241.336 C441.956,234.52 447.188,229.096 453.908,229.096 C459.908,229.096 464.564,233.416 464.564,239.656 Z M453.812,232.456 C449.876,232.456 446.756,235.144 445.988,239.176 L460.772,239.176 C460.724,234.856 457.556,232.456 453.812,232.456 Z M491.132,219.832 C488.252,219.832 486.236,220.792 486.236,224.296 L486.236,229.624 L492.092,229.624 L492.092,232.936 L486.236,232.936 L486.236,253 L482.54,253 L482.54,232.936 L479.18,232.936 L479.18,229.624 L482.54,229.624 L482.54,224.056 C482.54,218.728 485.756,216.472 490.268,216.472 C491.42,216.472 492.332,216.616 493.196,216.856 L493.196,219.976 C492.428,219.88 491.756,219.832 491.132,219.832 Z M505.952,229.432 C506.72,229.432 507.2,229.528 507.68,229.624 L507.68,232.888 L506.288,232.888 C502.496,232.888 498.944,235.288 498.944,239.752 L498.944,253 L495.248,253 L495.248,229.624 L498.704,229.624 L498.704,232.984 C500.432,230.68 503.168,229.432 505.952,229.432 Z M521.444,229.096 C528.212,229.096 533.684,234.424 533.684,241.288 C533.684,248.104 528.212,253.48 521.396,253.48 C514.628,253.432 509.204,248.152 509.204,241.288 C509.204,234.424 514.58,229.096 521.444,229.096 Z M521.444,232.504 C516.548,232.504 512.948,236.344 512.996,241.336 C512.996,246.28 516.548,250.072 521.396,250.072 C526.244,250.072 529.892,246.232 529.892,241.336 C529.892,236.296 526.244,232.504 521.444,232.504 Z M564.536,229.096 C570.008,229.096 573.032,232.888 573.032,238.312 L573.032,253 L569.336,253 L569.336,238.792 C569.336,235.096 567.32,232.504 563.816,232.504 C560.264,232.504 557.816,235.192 557.816,238.456 L557.816,253 L554.12,253 L554.12,238.792 C554.12,235.096 552.008,232.504 548.552,232.504 C545,232.504 542.6,235.096 542.6,238.792 L542.6,253 L538.904,253 L538.904,229.624 L542.36,229.624 L542.36,232.072 C543.992,230.2 546.392,229.096 549.32,229.096 C552.824,229.096 555.224,230.68 556.52,233.128 C558.152,230.776 560.936,229.096 564.536,229.096 Z M621.872,229.624 L625.808,229.624 L615.968,253.528 L614.624,253.528 L606.656,235.864 L598.736,253.528 L597.44,253.528 L587.504,229.624 L591.44,229.624 L598.16,246.904 L605.984,229.096 L607.376,229.096 L615.248,246.808 L621.872,229.624 Z M639.524,229.096 C646.292,229.096 651.764,234.424 651.764,241.288 C651.764,248.104 646.292,253.48 639.476,253.48 C632.708,253.432 627.284,248.152 627.284,241.288 C627.284,234.424 632.66,229.096 639.524,229.096 Z M639.524,232.504 C634.628,232.504 631.028,236.344 631.076,241.336 C631.076,246.28 634.628,250.072 639.476,250.072 C644.324,250.072 647.972,246.232 647.972,241.336 C647.972,236.296 644.324,232.504 639.524,232.504 Z M667.688,229.432 C668.456,229.432 668.936,229.528 669.416,229.624 L669.416,232.888 L668.024,232.888 C664.232,232.888 660.68,235.288 660.68,239.752 L660.68,253 L656.984,253 L656.984,229.624 L660.44,229.624 L660.44,232.984 C662.168,230.68 664.904,229.432 667.688,229.432 Z M673.1,253 L673.1,217 L676.796,217 L676.796,253 L673.1,253 Z M681.644,239.896 L692.684,253 L687.932,253 L677.18,239.848 L686.924,229.624 L691.772,229.624 L681.644,239.896 Z M698,218.008 C699.488,218.008 700.736,219.208 700.736,220.696 C700.736,222.232 699.488,223.384 698,223.384 C696.416,223.384 695.216,222.232 695.216,220.696 C695.216,219.208 696.416,218.008 698,218.008 Z M699.824,229.624 L699.824,253 L696.128,253 L696.128,229.624 L699.824,229.624 Z M717.332,229.096 C722.852,229.096 726.02,232.888 726.02,238.312 L726.02,253 L722.324,253 L722.324,238.744 C722.324,235.048 720.116,232.504 716.516,232.504 C712.916,232.504 710.372,235.096 710.372,238.744 L710.372,253 L706.676,253 L706.676,229.624 L710.132,229.624 L710.132,232.168 C711.764,230.248 714.308,229.096 717.332,229.096 Z M751.544,229.624 L755.048,229.624 L755.048,250.744 C755.048,257.944 750.488,262.168 743.672,262.168 C738.776,262.168 734.984,259.96 732.68,257.656 L734.84,255.064 C737.096,257.032 739.736,258.76 743.576,258.76 C748.328,258.76 751.352,256.12 751.352,250.936 L751.352,248.872 C749.432,251.32 746.168,252.76 742.664,252.76 C736.088,252.76 731.192,247.768 731.192,240.952 C731.192,234.184 736.088,229.096 742.664,229.096 C746.36,229.096 749.72,230.728 751.544,233.416 L751.544,229.624 Z M743.24,249.352 C747.32,249.352 751.4,246.808 751.4,240.952 C751.4,235.096 747.272,232.6 743.24,232.6 C738.488,232.6 734.936,236.056 734.936,241 C734.936,245.944 738.488,249.352 743.24,249.352 Z M784.64,229.096 C791.408,229.096 796.88,234.424 796.88,241.288 C796.88,248.104 791.408,253.48 784.592,253.48 C777.824,253.432 772.4,248.152 772.4,241.288 C772.4,234.424 777.776,229.096 784.64,229.096 Z M784.64,232.504 C779.744,232.504 776.144,236.344 776.192,241.336 C776.192,246.28 779.744,250.072 784.592,250.072 C789.44,250.072 793.088,246.232 793.088,241.336 C793.088,236.296 789.44,232.504 784.64,232.504 Z M812.756,229.096 C818.276,229.096 821.444,232.888 821.444,238.312 L821.444,253 L817.748,253 L817.748,238.744 C817.748,235.048 815.54,232.504 811.94,232.504 C808.34,232.504 805.796,235.096 805.796,238.744 L805.796,253 L802.1,253 L802.1,229.624 L805.556,229.624 L805.556,232.168 C807.188,230.248 809.732,229.096 812.756,229.096 Z M849.356,219.832 C846.476,219.832 844.46,220.792 844.46,224.296 L844.46,229.624 L850.316,229.624 L850.316,232.936 L844.46,232.936 L844.46,253 L840.764,253 L840.764,232.936 L837.404,232.936 L837.404,229.624 L840.764,229.624 L840.764,224.056 C840.764,218.728 843.98,216.472 848.492,216.472 C849.644,216.472 850.556,216.616 851.42,216.856 L851.42,219.976 C850.652,219.88 849.98,219.832 849.356,219.832 Z M872.528,229.624 L872.528,243.688 C872.528,249.688 868.256,253.528 862.88,253.528 C857.408,253.528 853.184,249.688 853.184,243.688 L853.184,229.624 L856.832,229.624 L856.832,243.928 C856.832,247.768 859.52,250.12 862.88,250.12 C866.144,250.12 868.832,247.768 868.832,243.928 L868.832,229.624 L872.528,229.624 Z M882.788,217 L882.788,253 L879.092,253 L879.092,217 L882.788,217 Z M893.336,217 L893.336,253 L889.64,253 L889.64,217 L893.336,217 Z M924.656,229.096 C931.376,229.096 936.224,234.424 936.224,241.288 C936.224,248.2 931.328,253.528 924.656,253.528 C921.2,253.528 917.936,252.088 916.064,249.592 L916.064,261.64 L912.368,261.64 L912.368,229.624 L915.824,229.624 L915.824,233.368 C917.648,230.68 920.96,229.096 924.656,229.096 Z M924.128,250.12 C928.88,250.12 932.432,246.424 932.432,241.336 C932.432,236.248 928.928,232.504 924.128,232.504 C920.096,232.504 916.016,235.144 916.016,241.288 C916.016,247.432 920.048,250.12 924.128,250.12 Z M952.148,229.432 C952.916,229.432 953.396,229.528 953.876,229.624 L953.876,232.888 L952.484,232.888 C948.692,232.888 945.14,235.288 945.14,239.752 L945.14,253 L941.444,253 L941.444,229.624 L944.9,229.624 L944.9,232.984 C946.628,230.68 949.364,229.432 952.148,229.432 Z M967.64,229.096 C974.408,229.096 979.88,234.424 979.88,241.288 C979.88,248.104 974.408,253.48 967.592,253.48 C960.824,253.432 955.4,248.152 955.4,241.288 C955.4,234.424 960.776,229.096 967.64,229.096 Z M967.64,232.504 C962.744,232.504 959.144,236.344 959.192,241.336 C959.192,246.28 962.744,250.072 967.592,250.072 C972.44,250.072 976.088,246.232 976.088,241.336 C976.088,236.296 972.44,232.504 967.64,232.504 Z M986.972,218.008 C988.46,218.008 989.708,219.208 989.708,220.696 C989.708,222.232 988.46,223.384 986.972,223.384 C985.388,223.384 984.188,222.232 984.188,220.696 C984.188,219.208 985.388,218.008 986.972,218.008 Z M988.796,229.624 L988.796,254.584 C988.796,259.912 985.58,262.168 981.116,262.168 C979.916,262.168 979.004,262.024 978.14,261.784 L978.14,258.664 C978.956,258.76 979.532,258.808 980.3,258.808 C983.132,258.808 985.1,257.8 985.1,254.344 L985.1,229.624 L988.796,229.624 Z M1016.576,239.656 C1016.576,240.904 1016.384,242.008 1016.288,242.44 L997.856,242.44 C998.336,247.096 1001.792,250.12 1006.4,250.12 C1009.328,250.12 1011.632,248.872 1013.552,246.952 L1015.712,249.448 C1013.36,251.944 1010.192,253.528 1006.352,253.528 C999.296,253.528 993.968,248.2 993.968,241.336 C993.968,234.52 999.2,229.096 1005.92,229.096 C1011.92,229.096 1016.576,233.416 1016.576,239.656 Z M1005.824,232.456 C1001.888,232.456 998.768,235.144 998,239.176 L1012.784,239.176 C1012.736,234.856 1009.568,232.456 1005.824,232.456 Z M1032.356,229.096 C1036.58,229.096 1039.94,231.112 1042.004,234.184 L1039.364,236.296 C1037.636,233.992 1035.428,232.504 1032.404,232.504 C1027.508,232.504 1023.908,236.392 1023.908,241.288 C1023.908,246.232 1027.508,250.12 1032.404,250.12 C1035.38,250.12 1037.588,248.68 1039.316,246.376 L1041.956,248.44 C1039.892,251.512 1036.532,253.528 1032.356,253.528 C1025.54,253.528 1020.116,248.152 1020.116,241.288 C1020.116,234.472 1025.54,229.096 1032.356,229.096 Z M1056.632,250.168 C1057.544,250.168 1058.552,250.072 1059.752,249.88 L1059.752,253 C1058.552,253.288 1057.352,253.528 1055.864,253.528 C1051.256,253.528 1047.992,251.272 1047.992,245.944 L1047.992,232.936 L1044.056,232.936 L1044.056,229.624 L1047.992,229.624 L1047.992,223.24 L1051.688,223.24 L1051.688,229.624 L1058.984,229.624 L1058.984,232.936 L1051.688,232.936 L1051.688,245.704 C1051.688,249.208 1053.704,250.168 1056.632,250.168 Z M1071.068,229.096 C1074.428,229.096 1077.068,230.536 1078.892,232.792 L1076.636,235.096 C1075.1,233.512 1073.084,232.504 1070.876,232.504 C1068.668,232.504 1066.988,233.512 1066.988,235.432 C1066.988,237.016 1068.188,237.784 1070.78,238.84 L1072.94,239.752 C1077.164,241.528 1079.132,243.352 1079.132,246.664 C1079.132,251.224 1075.244,253.528 1070.924,253.528 C1066.796,253.528 1063.676,251.464 1061.804,248.968 L1064.156,246.52 C1066.076,248.536 1068.044,250.12 1070.876,250.12 C1073.324,250.12 1075.34,248.92 1075.34,246.808 C1075.34,244.792 1073.612,244.024 1071.26,243.064 L1069.004,242.104 C1065.452,240.616 1063.196,238.984 1063.196,235.624 C1063.196,231.4 1066.796,229.096 1071.068,229.096 Z M1089.536,248.68 L1087.568,261.592 L1084.544,261.592 L1085.168,248.68 L1089.536,248.68 Z M329.444,275.008 C330.932,275.008 332.18,276.208 332.18,277.696 C332.18,279.232 330.932,280.384 329.444,280.384 C327.86,280.384 326.66,279.232 326.66,277.696 C326.66,276.208 327.86,275.008 329.444,275.008 Z M331.268,286.624 L331.268,310 L327.572,310 L327.572,286.624 L331.268,286.624 Z M347.768,307.168 C348.68,307.168 349.688,307.072 350.888,306.88 L350.888,310 C349.688,310.288 348.488,310.528 347,310.528 C342.392,310.528 339.128,308.272 339.128,302.944 L339.128,289.936 L335.192,289.936 L335.192,286.624 L339.128,286.624 L339.128,280.24 L342.824,280.24 L342.824,286.624 L350.12,286.624 L350.12,289.936 L342.824,289.936 L342.824,302.704 C342.824,306.208 344.84,307.168 347.768,307.168 Z M360.572,278.32 L358.508,290.656 L355.58,290.656 L356.252,278.32 L360.572,278.32 Z M373.904,286.096 C377.264,286.096 379.904,287.536 381.728,289.792 L379.472,292.096 C377.936,290.512 375.92,289.504 373.712,289.504 C371.504,289.504 369.824,290.512 369.824,292.432 C369.824,294.016 371.024,294.784 373.616,295.84 L375.776,296.752 C380,298.528 381.968,300.352 381.968,303.664 C381.968,308.224 378.08,310.528 373.76,310.528 C369.632,310.528 366.512,308.464 364.64,305.968 L366.992,303.52 C368.912,305.536 370.88,307.12 373.712,307.12 C376.16,307.12 378.176,305.92 378.176,303.808 C378.176,301.792 376.448,301.024 374.096,300.064 L371.84,299.104 C368.288,297.616 366.032,295.984 366.032,292.624 C366.032,288.4 369.632,286.096 373.904,286.096 Z M408.728,276.832 C405.848,276.832 403.832,277.792 403.832,281.296 L403.832,286.624 L409.688,286.624 L409.688,289.936 L403.832,289.936 L403.832,310 L400.136,310 L400.136,289.936 L396.776,289.936 L396.776,286.624 L400.136,286.624 L400.136,281.056 C400.136,275.728 403.352,273.472 407.864,273.472 C409.016,273.472 409.928,273.616 410.792,273.856 L410.792,276.976 C410.024,276.88 409.352,276.832 408.728,276.832 Z M431.9,286.624 L431.9,300.688 C431.9,306.688 427.628,310.528 422.252,310.528 C416.78,310.528 412.556,306.688 412.556,300.688 L412.556,286.624 L416.204,286.624 L416.204,300.928 C416.204,304.768 418.892,307.12 422.252,307.12 C425.516,307.12 428.204,304.768 428.204,300.928 L428.204,286.624 L431.9,286.624 Z M449.12,286.096 C454.64,286.096 457.808,289.888 457.808,295.312 L457.808,310 L454.112,310 L454.112,295.744 C454.112,292.048 451.904,289.504 448.304,289.504 C444.704,289.504 442.16,292.096 442.16,295.744 L442.16,310 L438.464,310 L438.464,286.624 L441.92,286.624 L441.92,289.168 C443.552,287.248 446.096,286.096 449.12,286.096 Z M486.2,307.168 C487.112,307.168 488.12,307.072 489.32,306.88 L489.32,310 C488.12,310.288 486.92,310.528 485.432,310.528 C480.824,310.528 477.56,308.272 477.56,302.944 L477.56,289.936 L473.624,289.936 L473.624,286.624 L477.56,286.624 L477.56,280.24 L481.256,280.24 L481.256,286.624 L488.552,286.624 L488.552,289.936 L481.256,289.936 L481.256,302.704 C481.256,306.208 483.272,307.168 486.2,307.168 Z M503.66,286.096 C510.428,286.096 515.9,291.424 515.9,298.288 C515.9,305.104 510.428,310.48 503.612,310.48 C496.844,310.432 491.42,305.152 491.42,298.288 C491.42,291.424 496.796,286.096 503.66,286.096 Z M503.66,289.504 C498.764,289.504 495.164,293.344 495.212,298.336 C495.212,303.28 498.764,307.072 503.612,307.072 C508.46,307.072 512.108,303.232 512.108,298.336 C512.108,293.296 508.46,289.504 503.66,289.504 Z M551.828,274 L555.524,274 L555.524,310 L552.02,310 L552.02,306.256 C550.196,308.944 546.884,310.528 543.188,310.528 C536.516,310.528 531.62,305.2 531.62,298.336 C531.62,291.424 536.516,286.096 543.188,286.096 C546.74,286.096 549.956,287.584 551.828,290.08 L551.828,274 Z M543.716,307.12 C547.748,307.12 551.876,304.48 551.876,298.336 C551.876,292.192 547.748,289.504 543.716,289.504 C538.964,289.504 535.412,293.2 535.412,298.288 C535.412,303.376 538.916,307.12 543.716,307.12 Z M572.936,286.096 C579.704,286.096 585.176,291.424 585.176,298.288 C585.176,305.104 579.704,310.48 572.888,310.48 C566.12,310.432 560.696,305.152 560.696,298.288 C560.696,291.424 566.072,286.096 572.936,286.096 Z M572.936,289.504 C568.04,289.504 564.44,293.344 564.488,298.336 C564.488,303.28 568.04,307.072 572.888,307.072 C577.736,307.072 581.384,303.232 581.384,298.336 C581.384,293.296 577.736,289.504 572.936,289.504 Z M609.632,286.096 C612.992,286.096 615.632,287.536 617.456,289.792 L615.2,292.096 C613.664,290.512 611.648,289.504 609.44,289.504 C607.232,289.504 605.552,290.512 605.552,292.432 C605.552,294.016 606.752,294.784 609.344,295.84 L611.504,296.752 C615.728,298.528 617.696,300.352 617.696,303.664 C617.696,308.224 613.808,310.528 609.488,310.528 C605.36,310.528 602.24,308.464 600.368,305.968 L602.72,303.52 C604.64,305.536 606.608,307.12 609.44,307.12 C611.888,307.12 613.904,305.92 613.904,303.808 C613.904,301.792 612.176,301.024 609.824,300.064 L607.568,299.104 C604.016,297.616 601.76,295.984 601.76,292.624 C601.76,288.4 605.36,286.096 609.632,286.096 Z M648.74,286.096 C654.212,286.096 657.236,289.888 657.236,295.312 L657.236,310 L653.54,310 L653.54,295.792 C653.54,292.096 651.524,289.504 648.02,289.504 C644.468,289.504 642.02,292.192 642.02,295.456 L642.02,310 L638.324,310 L638.324,295.792 C638.324,292.096 636.212,289.504 632.756,289.504 C629.204,289.504 626.804,292.096 626.804,295.792 L626.804,310 L623.108,310 L623.108,286.624 L626.564,286.624 L626.564,289.072 C628.196,287.2 630.596,286.096 633.524,286.096 C637.028,286.096 639.428,287.68 640.724,290.128 C642.356,287.776 645.14,286.096 648.74,286.096 Z M672.2,286.096 C677.528,286.096 681.32,289.312 681.32,295.6 L681.32,310 L677.864,310 L677.864,306.976 C676.184,309.232 673.448,310.528 669.992,310.528 C665.288,310.528 661.832,308.032 661.832,303.952 C661.832,300.016 665.144,297.424 670.232,297.424 L677.624,297.424 L677.624,295.408 C677.624,291.472 675.416,289.504 671.96,289.504 C669.032,289.504 666.968,290.896 665.144,293.248 L662.696,291.232 C664.904,287.68 668.456,286.096 672.2,286.096 Z M670.472,307.456 C674.312,307.456 677.624,304.672 677.624,301.024 L677.624,300.448 L670.664,300.448 C667.4,300.448 665.624,301.552 665.624,303.76 C665.624,306.256 667.88,307.456 670.472,307.456 Z M691.58,274 L691.58,310 L687.884,310 L687.884,274 L691.58,274 Z M702.128,274 L702.128,310 L698.432,310 L698.432,274 L702.128,274 Z M729.908,296.656 C729.908,297.904 729.716,299.008 729.62,299.44 L711.188,299.44 C711.668,304.096 715.124,307.12 719.732,307.12 C722.66,307.12 724.964,305.872 726.884,303.952 L729.044,306.448 C726.692,308.944 723.524,310.528 719.684,310.528 C712.628,310.528 707.3,305.2 707.3,298.336 C707.3,291.52 712.532,286.096 719.252,286.096 C725.252,286.096 729.908,290.416 729.908,296.656 Z M719.156,289.456 C715.22,289.456 712.1,292.144 711.332,296.176 L726.116,296.176 C726.068,291.856 722.9,289.456 719.156,289.456 Z M745.832,286.432 C746.6,286.432 747.08,286.528 747.56,286.624 L747.56,289.888 L746.168,289.888 C742.376,289.888 738.824,292.288 738.824,296.752 L738.824,310 L735.128,310 L735.128,286.624 L738.584,286.624 L738.584,289.984 C740.312,287.68 743.048,286.432 745.832,286.432 Z M784.352,296.656 C784.352,297.904 784.16,299.008 784.064,299.44 L765.632,299.44 C766.112,304.096 769.568,307.12 774.176,307.12 C777.104,307.12 779.408,305.872 781.328,303.952 L783.488,306.448 C781.136,308.944 777.968,310.528 774.128,310.528 C767.072,310.528 761.744,305.2 761.744,298.336 C761.744,291.52 766.976,286.096 773.696,286.096 C779.696,286.096 784.352,290.416 784.352,296.656 Z M773.6,289.456 C769.664,289.456 766.544,292.144 765.776,296.176 L780.56,296.176 C780.512,291.856 777.344,289.456 773.6,289.456 Z M807.86,310 L803.588,310 L796.916,300.544 L790.292,310 L785.972,310 L794.804,297.808 L786.692,286.624 L790.964,286.624 L796.916,295.12 L802.916,286.624 L807.188,286.624 L798.98,297.808 L807.86,310 Z M821.288,286.096 C825.512,286.096 828.872,288.112 830.936,291.184 L828.296,293.296 C826.568,290.992 824.36,289.504 821.336,289.504 C816.44,289.504 812.84,293.392 812.84,298.288 C812.84,303.232 816.44,307.12 821.336,307.12 C824.312,307.12 826.52,305.68 828.248,303.376 L830.888,305.44 C828.824,308.512 825.464,310.528 821.288,310.528 C814.472,310.528 809.048,305.152 809.048,298.288 C809.048,291.472 814.472,286.096 821.288,286.096 Z M856.364,296.656 C856.364,297.904 856.172,299.008 856.076,299.44 L837.644,299.44 C838.124,304.096 841.58,307.12 846.188,307.12 C849.116,307.12 851.42,305.872 853.34,303.952 L855.5,306.448 C853.148,308.944 849.98,310.528 846.14,310.528 C839.084,310.528 833.756,305.2 833.756,298.336 C833.756,291.52 838.988,286.096 845.708,286.096 C851.708,286.096 856.364,290.416 856.364,296.656 Z M845.612,289.456 C841.676,289.456 838.556,292.144 837.788,296.176 L852.572,296.176 C852.524,291.856 849.356,289.456 845.612,289.456 Z M872.288,286.432 C873.056,286.432 873.536,286.528 874.016,286.624 L874.016,289.888 L872.624,289.888 C868.832,289.888 865.28,292.288 865.28,296.752 L865.28,310 L861.584,310 L861.584,286.624 L865.04,286.624 L865.04,289.984 C866.768,287.68 869.504,286.432 872.288,286.432 Z M887.78,286.096 C892.004,286.096 895.364,288.112 897.428,291.184 L894.788,293.296 C893.06,290.992 890.852,289.504 887.828,289.504 C882.932,289.504 879.332,293.392 879.332,298.288 C879.332,303.232 882.932,307.12 887.828,307.12 C890.804,307.12 893.012,305.68 894.74,303.376 L897.38,305.44 C895.316,308.512 891.956,310.528 887.78,310.528 C880.964,310.528 875.54,305.152 875.54,298.288 C875.54,291.472 880.964,286.096 887.78,286.096 Z M904.28,275.008 C905.768,275.008 907.016,276.208 907.016,277.696 C907.016,279.232 905.768,280.384 904.28,280.384 C902.696,280.384 901.496,279.232 901.496,277.696 C901.496,276.208 902.696,275.008 904.28,275.008 Z M906.104,286.624 L906.104,310 L902.408,310 L902.408,286.624 L906.104,286.624 Z M920.012,286.096 C923.372,286.096 926.012,287.536 927.836,289.792 L925.58,292.096 C924.044,290.512 922.028,289.504 919.82,289.504 C917.612,289.504 915.932,290.512 915.932,292.432 C915.932,294.016 917.132,294.784 919.724,295.84 L921.884,296.752 C926.108,298.528 928.076,300.352 928.076,303.664 C928.076,308.224 924.188,310.528 919.868,310.528 C915.74,310.528 912.62,308.464 910.748,305.968 L913.1,303.52 C915.02,305.536 916.988,307.12 919.82,307.12 C922.268,307.12 924.284,305.92 924.284,303.808 C924.284,301.792 922.556,301.024 920.204,300.064 L917.948,299.104 C914.396,297.616 912.14,295.984 912.14,292.624 C912.14,288.4 915.74,286.096 920.012,286.096 Z M954.416,296.656 C954.416,297.904 954.224,299.008 954.128,299.44 L935.696,299.44 C936.176,304.096 939.632,307.12 944.24,307.12 C947.168,307.12 949.472,305.872 951.392,303.952 L953.552,306.448 C951.2,308.944 948.032,310.528 944.192,310.528 C937.136,310.528 931.808,305.2 931.808,298.336 C931.808,291.52 937.04,286.096 943.76,286.096 C949.76,286.096 954.416,290.416 954.416,296.656 Z M943.664,289.456 C939.728,289.456 936.608,292.144 935.84,296.176 L950.624,296.176 C950.576,291.856 947.408,289.456 943.664,289.456 Z M966.692,286.096 C970.052,286.096 972.692,287.536 974.516,289.792 L972.26,292.096 C970.724,290.512 968.708,289.504 966.5,289.504 C964.292,289.504 962.612,290.512 962.612,292.432 C962.612,294.016 963.812,294.784 966.404,295.84 L968.564,296.752 C972.788,298.528 974.756,300.352 974.756,303.664 C974.756,308.224 970.868,310.528 966.548,310.528 C962.42,310.528 959.3,308.464 957.428,305.968 L959.78,303.52 C961.7,305.536 963.668,307.12 966.5,307.12 C968.948,307.12 970.964,305.92 970.964,303.808 C970.964,301.792 969.236,301.024 966.884,300.064 L964.628,299.104 C961.076,297.616 958.82,295.984 958.82,292.624 C958.82,288.4 962.42,286.096 966.692,286.096 Z M1001.996,307.168 C1002.908,307.168 1003.916,307.072 1005.116,306.88 L1005.116,310 C1003.916,310.288 1002.716,310.528 1001.228,310.528 C996.62,310.528 993.356,308.272 993.356,302.944 L993.356,289.936 L989.42,289.936 L989.42,286.624 L993.356,286.624 L993.356,280.24 L997.052,280.24 L997.052,286.624 L1004.348,286.624 L1004.348,289.936 L997.052,289.936 L997.052,302.704 C997.052,306.208 999.068,307.168 1001.996,307.168 Z M1019.456,286.096 C1026.224,286.096 1031.696,291.424 1031.696,298.288 C1031.696,305.104 1026.224,310.48 1019.408,310.48 C1012.64,310.432 1007.216,305.152 1007.216,298.288 C1007.216,291.424 1012.592,286.096 1019.456,286.096 Z M1019.456,289.504 C1014.56,289.504 1010.96,293.344 1011.008,298.336 C1011.008,303.28 1014.56,307.072 1019.408,307.072 C1024.256,307.072 1027.904,303.232 1027.904,298.336 C1027.904,293.296 1024.256,289.504 1019.456,289.504 Z M1068.056,286.624 L1071.56,286.624 L1071.56,307.744 C1071.56,314.944 1067,319.168 1060.184,319.168 C1055.288,319.168 1051.496,316.96 1049.192,314.656 L1051.352,312.064 C1053.608,314.032 1056.248,315.76 1060.088,315.76 C1064.84,315.76 1067.864,313.12 1067.864,307.936 L1067.864,305.872 C1065.944,308.32 1062.68,309.76 1059.176,309.76 C1052.6,309.76 1047.704,304.768 1047.704,297.952 C1047.704,291.184 1052.6,286.096 1059.176,286.096 C1062.872,286.096 1066.232,287.728 1068.056,290.416 L1068.056,286.624 Z M1059.752,306.352 C1063.832,306.352 1067.912,303.808 1067.912,297.952 C1067.912,292.096 1063.784,289.6 1059.752,289.6 C1055,289.6 1051.448,293.056 1051.448,298 C1051.448,302.944 1055,306.352 1059.752,306.352 Z M1099.34,296.656 C1099.34,297.904 1099.148,299.008 1099.052,299.44 L1080.62,299.44 C1081.1,304.096 1084.556,307.12 1089.164,307.12 C1092.092,307.12 1094.396,305.872 1096.316,303.952 L1098.476,306.448 C1096.124,308.944 1092.956,310.528 1089.116,310.528 C1082.06,310.528 1076.732,305.2 1076.732,298.336 C1076.732,291.52 1081.964,286.096 1088.684,286.096 C1094.684,286.096 1099.34,290.416 1099.34,296.656 Z M1088.588,289.456 C1084.652,289.456 1081.532,292.144 1080.764,296.176 L1095.548,296.176 C1095.5,291.856 1092.332,289.456 1088.588,289.456 Z M1114.208,307.168 C1115.12,307.168 1116.128,307.072 1117.328,306.88 L1117.328,310 C1116.128,310.288 1114.928,310.528 1113.44,310.528 C1108.832,310.528 1105.568,308.272 1105.568,302.944 L1105.568,289.936 L1101.632,289.936 L1101.632,286.624 L1105.568,286.624 L1105.568,280.24 L1109.264,280.24 L1109.264,286.624 L1116.56,286.624 L1116.56,289.936 L1109.264,289.936 L1109.264,302.704 C1109.264,306.208 1111.28,307.168 1114.208,307.168 Z M346.712,364.168 C347.624,364.168 348.632,364.072 349.832,363.88 L349.832,367 C348.632,367.288 347.432,367.528 345.944,367.528 C341.336,367.528 338.072,365.272 338.072,359.944 L338.072,346.936 L334.136,346.936 L334.136,343.624 L338.072,343.624 L338.072,337.24 L341.768,337.24 L341.768,343.624 L349.064,343.624 L349.064,346.936 L341.768,346.936 L341.768,359.704 C341.768,363.208 343.784,364.168 346.712,364.168 Z M364.796,343.096 C370.268,343.096 373.436,346.888 373.436,352.312 L373.436,367 L369.74,367 L369.74,352.792 C369.74,349.096 367.532,346.504 363.932,346.504 C360.332,346.504 357.788,349.144 357.788,352.792 L357.788,367 L354.092,367 L354.092,331 L357.788,331 L357.788,346.264 C359.324,344.296 361.772,343.096 364.796,343.096 Z M400.928,353.656 C400.928,354.904 400.736,356.008 400.64,356.44 L382.208,356.44 C382.688,361.096 386.144,364.12 390.752,364.12 C393.68,364.12 395.984,362.872 397.904,360.952 L400.064,363.448 C397.712,365.944 394.544,367.528 390.704,367.528 C383.648,367.528 378.32,362.2 378.32,355.336 C378.32,348.52 383.552,343.096 390.272,343.096 C396.272,343.096 400.928,347.416 400.928,353.656 Z M390.176,346.456 C386.24,346.456 383.12,349.144 382.352,353.176 L397.136,353.176 C397.088,348.856 393.92,346.456 390.176,346.456 Z M428.888,343.096 C433.112,343.096 436.472,345.112 438.536,348.184 L435.896,350.296 C434.168,347.992 431.96,346.504 428.936,346.504 C424.04,346.504 420.44,350.392 420.44,355.288 C420.44,360.232 424.04,364.12 428.936,364.12 C431.912,364.12 434.12,362.68 435.848,360.376 L438.488,362.44 C436.424,365.512 433.064,367.528 428.888,367.528 C422.072,367.528 416.648,362.152 416.648,355.288 C416.648,348.472 422.072,343.096 428.888,343.096 Z M454.22,343.432 C454.988,343.432 455.468,343.528 455.948,343.624 L455.948,346.888 L454.556,346.888 C450.764,346.888 447.212,349.288 447.212,353.752 L447.212,367 L443.516,367 L443.516,343.624 L446.972,343.624 L446.972,346.984 C448.7,344.68 451.436,343.432 454.22,343.432 Z M480.08,353.656 C480.08,354.904 479.888,356.008 479.792,356.44 L461.36,356.44 C461.84,361.096 465.296,364.12 469.904,364.12 C472.832,364.12 475.136,362.872 477.056,360.952 L479.216,363.448 C476.864,365.944 473.696,367.528 469.856,367.528 C462.8,367.528 457.472,362.2 457.472,355.336 C457.472,348.52 462.704,343.096 469.424,343.096 C475.424,343.096 480.08,347.416 480.08,353.656 Z M469.328,346.456 C465.392,346.456 462.272,349.144 461.504,353.176 L476.288,353.176 C476.24,348.856 473.072,346.456 469.328,346.456 Z M493.7,343.096 C499.028,343.096 502.82,346.312 502.82,352.6 L502.82,367 L499.364,367 L499.364,363.976 C497.684,366.232 494.948,367.528 491.492,367.528 C486.788,367.528 483.332,365.032 483.332,360.952 C483.332,357.016 486.644,354.424 491.732,354.424 L499.124,354.424 L499.124,352.408 C499.124,348.472 496.916,346.504 493.46,346.504 C490.532,346.504 488.468,347.896 486.644,350.248 L484.196,348.232 C486.404,344.68 489.956,343.096 493.7,343.096 Z M491.972,364.456 C495.812,364.456 499.124,361.672 499.124,358.024 L499.124,357.448 L492.164,357.448 C488.9,357.448 487.124,358.552 487.124,360.76 C487.124,363.256 489.38,364.456 491.972,364.456 Z M519.032,364.168 C519.944,364.168 520.952,364.072 522.152,363.88 L522.152,367 C520.952,367.288 519.752,367.528 518.264,367.528 C513.656,367.528 510.392,365.272 510.392,359.944 L510.392,346.936 L506.456,346.936 L506.456,343.624 L510.392,343.624 L510.392,337.24 L514.088,337.24 L514.088,343.624 L521.384,343.624 L521.384,346.936 L514.088,346.936 L514.088,359.704 C514.088,363.208 516.104,364.168 519.032,364.168 Z M528.284,332.008 C529.772,332.008 531.02,333.208 531.02,334.696 C531.02,336.232 529.772,337.384 528.284,337.384 C526.7,337.384 525.5,336.232 525.5,334.696 C525.5,333.208 526.7,332.008 528.284,332.008 Z M530.108,343.624 L530.108,367 L526.412,367 L526.412,343.624 L530.108,343.624 Z M553.568,343.624 L557.504,343.624 L546.512,367.528 L545.168,367.528 L534.128,343.624 L538.064,343.624 L545.84,361.24 L553.568,343.624 Z M581.54,353.656 C581.54,354.904 581.348,356.008 581.252,356.44 L562.82,356.44 C563.3,361.096 566.756,364.12 571.364,364.12 C574.292,364.12 576.596,362.872 578.516,360.952 L580.676,363.448 C578.324,365.944 575.156,367.528 571.316,367.528 C564.26,367.528 558.932,362.2 558.932,355.336 C558.932,348.52 564.164,343.096 570.884,343.096 C576.884,343.096 581.54,347.416 581.54,353.656 Z M570.788,346.456 C566.852,346.456 563.732,349.144 562.964,353.176 L577.748,353.176 C577.7,348.856 574.532,346.456 570.788,346.456 Z M600.812,332.008 C602.3,332.008 603.548,333.208 603.548,334.696 C603.548,336.232 602.3,337.384 600.812,337.384 C599.228,337.384 598.028,336.232 598.028,334.696 C598.028,333.208 599.228,332.008 600.812,332.008 Z M602.636,343.624 L602.636,368.584 C602.636,373.912 599.42,376.168 594.956,376.168 C593.756,376.168 592.844,376.024 591.98,375.784 L591.98,372.664 C592.796,372.76 593.372,372.808 594.14,372.808 C596.972,372.808 598.94,371.8 598.94,368.344 L598.94,343.624 L602.636,343.624 Z M628.544,343.624 L628.544,357.688 C628.544,363.688 624.272,367.528 618.896,367.528 C613.424,367.528 609.2,363.688 609.2,357.688 L609.2,343.624 L612.848,343.624 L612.848,357.928 C612.848,361.768 615.536,364.12 618.896,364.12 C622.16,364.12 624.848,361.768 624.848,357.928 L624.848,343.624 L628.544,343.624 Z M636.98,332.008 C638.468,332.008 639.716,333.208 639.716,334.696 C639.716,336.232 638.468,337.384 636.98,337.384 C635.396,337.384 634.196,336.232 634.196,334.696 C634.196,333.208 635.396,332.008 636.98,332.008 Z M638.804,343.624 L638.804,367 L635.108,367 L635.108,343.624 L638.804,343.624 Z M656.216,343.096 C660.44,343.096 663.8,345.112 665.864,348.184 L663.224,350.296 C661.496,347.992 659.288,346.504 656.264,346.504 C651.368,346.504 647.768,350.392 647.768,355.288 C647.768,360.232 651.368,364.12 656.264,364.12 C659.24,364.12 661.448,362.68 663.176,360.376 L665.816,362.44 C663.752,365.512 660.392,367.528 656.216,367.528 C649.4,367.528 643.976,362.152 643.976,355.288 C643.976,348.472 649.4,343.096 656.216,343.096 Z M691.292,353.656 C691.292,354.904 691.1,356.008 691.004,356.44 L672.572,356.44 C673.052,361.096 676.508,364.12 681.116,364.12 C684.044,364.12 686.348,362.872 688.268,360.952 L690.428,363.448 C688.076,365.944 684.908,367.528 681.068,367.528 C674.012,367.528 668.684,362.2 668.684,355.336 C668.684,348.52 673.916,343.096 680.636,343.096 C686.636,343.096 691.292,347.416 691.292,353.656 Z M680.54,346.456 C676.604,346.456 673.484,349.144 672.716,353.176 L687.5,353.176 C687.452,348.856 684.284,346.456 680.54,346.456 Z M703.568,343.096 C706.928,343.096 709.568,344.536 711.392,346.792 L709.136,349.096 C707.6,347.512 705.584,346.504 703.376,346.504 C701.168,346.504 699.488,347.512 699.488,349.432 C699.488,351.016 700.688,351.784 703.28,352.84 L705.44,353.752 C709.664,355.528 711.632,357.352 711.632,360.664 C711.632,365.224 707.744,367.528 703.424,367.528 C699.296,367.528 696.176,365.464 694.304,362.968 L696.656,360.52 C698.576,362.536 700.544,364.12 703.376,364.12 C705.824,364.12 707.84,362.92 707.84,360.808 C707.84,358.792 706.112,358.024 703.76,357.064 L701.504,356.104 C697.952,354.616 695.696,352.984 695.696,349.624 C695.696,345.4 699.296,343.096 703.568,343.096 Z M738.392,333.832 C735.512,333.832 733.496,334.792 733.496,338.296 L733.496,343.624 L739.352,343.624 L739.352,346.936 L733.496,346.936 L733.496,367 L729.8,367 L729.8,346.936 L726.44,346.936 L726.44,343.624 L729.8,343.624 L729.8,338.056 C729.8,332.728 733.016,330.472 737.528,330.472 C738.68,330.472 739.592,330.616 740.456,330.856 L740.456,333.976 C739.688,333.88 739.016,333.832 738.392,333.832 Z M746.924,331 L746.924,367 L743.228,367 L743.228,331 L746.924,331 Z M764.336,343.096 C771.104,343.096 776.576,348.424 776.576,355.288 C776.576,362.104 771.104,367.48 764.288,367.48 C757.52,367.432 752.096,362.152 752.096,355.288 C752.096,348.424 757.472,343.096 764.336,343.096 Z M764.336,346.504 C759.44,346.504 755.84,350.344 755.888,355.336 C755.888,360.28 759.44,364.072 764.288,364.072 C769.136,364.072 772.784,360.232 772.784,355.336 C772.784,350.296 769.136,346.504 764.336,346.504 Z M812.372,343.624 L816.308,343.624 L806.468,367.528 L805.124,367.528 L797.156,349.864 L789.236,367.528 L787.94,367.528 L778.004,343.624 L781.94,343.624 L788.66,360.904 L796.484,343.096 L797.876,343.096 L805.748,360.808 L812.372,343.624 Z M822.296,332.008 C823.784,332.008 825.032,333.208 825.032,334.696 C825.032,336.232 823.784,337.384 822.296,337.384 C820.712,337.384 819.512,336.232 819.512,334.696 C819.512,333.208 820.712,332.008 822.296,332.008 Z M824.12,343.624 L824.12,367 L820.424,367 L820.424,343.624 L824.12,343.624 Z M841.628,343.096 C847.148,343.096 850.316,346.888 850.316,352.312 L850.316,367 L846.62,367 L846.62,352.744 C846.62,349.048 844.412,346.504 840.812,346.504 C837.212,346.504 834.668,349.096 834.668,352.744 L834.668,367 L830.972,367 L830.972,343.624 L834.428,343.624 L834.428,346.168 C836.06,344.248 838.604,343.096 841.628,343.096 Z M875.84,343.624 L879.344,343.624 L879.344,364.744 C879.344,371.944 874.784,376.168 867.968,376.168 C863.072,376.168 859.28,373.96 856.976,371.656 L859.136,369.064 C861.392,371.032 864.032,372.76 867.872,372.76 C872.624,372.76 875.648,370.12 875.648,364.936 L875.648,362.872 C873.728,365.32 870.464,366.76 866.96,366.76 C860.384,366.76 855.488,361.768 855.488,354.952 C855.488,348.184 860.384,343.096 866.96,343.096 C870.656,343.096 874.016,344.728 875.84,347.416 L875.84,343.624 Z M867.536,363.352 C871.616,363.352 875.696,360.808 875.696,354.952 C875.696,349.096 871.568,346.6 867.536,346.6 C862.784,346.6 859.232,350.056 859.232,355 C859.232,359.944 862.784,363.352 867.536,363.352 Z M888.596,361.48 C890.228,361.48 891.62,362.728 891.62,364.504 C891.62,366.28 890.228,367.528 888.596,367.528 C886.964,367.528 885.572,366.28 885.572,364.504 C885.572,362.728 886.964,361.48 888.596,361.48 Z M930.572,335.32 L930.572,338.68 L919.388,338.68 L919.388,367 L915.644,367 L915.644,338.68 L904.508,338.68 L904.508,335.32 L930.572,335.32 Z M945.008,343.096 C950.48,343.096 953.648,346.888 953.648,352.312 L953.648,367 L949.952,367 L949.952,352.792 C949.952,349.096 947.744,346.504 944.144,346.504 C940.544,346.504 938,349.144 938,352.792 L938,367 L934.304,367 L934.304,331 L938,331 L938,346.264 C939.536,344.296 941.984,343.096 945.008,343.096 Z M962.084,332.008 C963.572,332.008 964.82,333.208 964.82,334.696 C964.82,336.232 963.572,337.384 962.084,337.384 C960.5,337.384 959.3,336.232 959.3,334.696 C959.3,333.208 960.5,332.008 962.084,332.008 Z M963.908,343.624 L963.908,367 L960.212,367 L960.212,343.624 L963.908,343.624 Z M977.816,343.096 C981.176,343.096 983.816,344.536 985.64,346.792 L983.384,349.096 C981.848,347.512 979.832,346.504 977.624,346.504 C975.416,346.504 973.736,347.512 973.736,349.432 C973.736,351.016 974.936,351.784 977.528,352.84 L979.688,353.752 C983.912,355.528 985.88,357.352 985.88,360.664 C985.88,365.224 981.992,367.528 977.672,367.528 C973.544,367.528 970.424,365.464 968.552,362.968 L970.904,360.52 C972.824,362.536 974.792,364.12 977.624,364.12 C980.072,364.12 982.088,362.92 982.088,360.808 C982.088,358.792 980.36,358.024 978.008,357.064 L975.752,356.104 C972.2,354.616 969.944,352.984 969.944,349.624 C969.944,345.4 973.544,343.096 977.816,343.096 Z M1015.76,343.096 C1022.48,343.096 1027.328,348.424 1027.328,355.288 C1027.328,362.2 1022.432,367.528 1015.76,367.528 C1012.304,367.528 1009.04,366.088 1007.168,363.592 L1007.168,375.64 L1003.472,375.64 L1003.472,343.624 L1006.928,343.624 L1006.928,347.368 C1008.752,344.68 1012.064,343.096 1015.76,343.096 Z M1015.232,364.12 C1019.984,364.12 1023.536,360.424 1023.536,355.336 C1023.536,350.248 1020.032,346.504 1015.232,346.504 C1011.2,346.504 1007.12,349.144 1007.12,355.288 C1007.12,361.432 1011.152,364.12 1015.232,364.12 Z M1040.948,343.096 C1046.276,343.096 1050.068,346.312 1050.068,352.6 L1050.068,367 L1046.612,367 L1046.612,363.976 C1044.932,366.232 1042.196,367.528 1038.74,367.528 C1034.036,367.528 1030.58,365.032 1030.58,360.952 C1030.58,357.016 1033.892,354.424 1038.98,354.424 L1046.372,354.424 L1046.372,352.408 C1046.372,348.472 1044.164,346.504 1040.708,346.504 C1037.78,346.504 1035.716,347.896 1033.892,350.248 L1031.444,348.232 C1033.652,344.68 1037.204,343.096 1040.948,343.096 Z M1039.22,364.456 C1043.06,364.456 1046.372,361.672 1046.372,358.024 L1046.372,357.448 L1039.412,357.448 C1036.148,357.448 1034.372,358.552 1034.372,360.76 C1034.372,363.256 1036.628,364.456 1039.22,364.456 Z M1075.592,343.624 L1079.096,343.624 L1079.096,364.744 C1079.096,371.944 1074.536,376.168 1067.72,376.168 C1062.824,376.168 1059.032,373.96 1056.728,371.656 L1058.888,369.064 C1061.144,371.032 1063.784,372.76 1067.624,372.76 C1072.376,372.76 1075.4,370.12 1075.4,364.936 L1075.4,362.872 C1073.48,365.32 1070.216,366.76 1066.712,366.76 C1060.136,366.76 1055.24,361.768 1055.24,354.952 C1055.24,348.184 1060.136,343.096 1066.712,343.096 C1070.408,343.096 1073.768,344.728 1075.592,347.416 L1075.592,343.624 Z M1067.288,363.352 C1071.368,363.352 1075.448,360.808 1075.448,354.952 C1075.448,349.096 1071.32,346.6 1067.288,346.6 C1062.536,346.6 1058.984,350.056 1058.984,355 C1058.984,359.944 1062.536,363.352 1067.288,363.352 Z M1106.876,353.656 C1106.876,354.904 1106.684,356.008 1106.588,356.44 L1088.156,356.44 C1088.636,361.096 1092.092,364.12 1096.7,364.12 C1099.628,364.12 1101.932,362.872 1103.852,360.952 L1106.012,363.448 C1103.66,365.944 1100.492,367.528 1096.652,367.528 C1089.596,367.528 1084.268,362.2 1084.268,355.336 C1084.268,348.52 1089.5,343.096 1096.22,343.096 C1102.22,343.096 1106.876,347.416 1106.876,353.656 Z M1096.124,346.456 C1092.188,346.456 1089.068,349.144 1088.3,353.176 L1103.084,353.176 C1103.036,348.856 1099.868,346.456 1096.124,346.456 Z M334.826,400.096 C338.186,400.096 340.826,401.536 342.65,403.792 L340.394,406.096 C338.858,404.512 336.842,403.504 334.634,403.504 C332.426,403.504 330.746,404.512 330.746,406.432 C330.746,408.016 331.946,408.784 334.538,409.84 L336.698,410.752 C340.922,412.528 342.89,414.352 342.89,417.664 C342.89,422.224 339.002,424.528 334.682,424.528 C330.554,424.528 327.434,422.464 325.562,419.968 L327.914,417.52 C329.834,419.536 331.802,421.12 334.634,421.12 C337.082,421.12 339.098,419.92 339.098,417.808 C339.098,415.792 337.37,415.024 335.018,414.064 L332.762,413.104 C329.21,411.616 326.954,409.984 326.954,406.624 C326.954,402.4 330.554,400.096 334.826,400.096 Z M359.006,400.096 C364.478,400.096 367.646,403.888 367.646,409.312 L367.646,424 L363.95,424 L363.95,409.792 C363.95,406.096 361.742,403.504 358.142,403.504 C354.542,403.504 351.998,406.144 351.998,409.792 L351.998,424 L348.302,424 L348.302,388 L351.998,388 L351.998,403.264 C353.534,401.296 355.982,400.096 359.006,400.096 Z M384.77,400.096 C391.538,400.096 397.01,405.424 397.01,412.288 C397.01,419.104 391.538,424.48 384.722,424.48 C377.954,424.432 372.53,419.152 372.53,412.288 C372.53,405.424 377.906,400.096 384.77,400.096 Z M384.77,403.504 C379.874,403.504 376.274,407.344 376.322,412.336 C376.322,417.28 379.874,421.072 384.722,421.072 C389.57,421.072 393.218,417.232 393.218,412.336 C393.218,407.296 389.57,403.504 384.77,403.504 Z M432.806,400.624 L436.742,400.624 L426.902,424.528 L425.558,424.528 L417.59,406.864 L409.67,424.528 L408.374,424.528 L398.438,400.624 L402.374,400.624 L409.094,417.904 L416.918,400.096 L418.31,400.096 L426.182,417.808 L432.806,400.624 Z M447.194,400.096 C450.554,400.096 453.194,401.536 455.018,403.792 L452.762,406.096 C451.226,404.512 449.21,403.504 447.002,403.504 C444.794,403.504 443.114,404.512 443.114,406.432 C443.114,408.016 444.314,408.784 446.906,409.84 L449.066,410.752 C453.29,412.528 455.258,414.352 455.258,417.664 C455.258,422.224 451.37,424.528 447.05,424.528 C442.922,424.528 439.802,422.464 437.93,419.968 L440.282,417.52 C442.202,419.536 444.17,421.12 447.002,421.12 C449.45,421.12 451.466,419.92 451.466,417.808 C451.466,415.792 449.738,415.024 447.386,414.064 L445.13,413.104 C441.578,411.616 439.322,409.984 439.322,406.624 C439.322,402.4 442.922,400.096 447.194,400.096 Z M491.378,388 L495.074,388 L495.074,424 L491.57,424 L491.57,420.256 C489.746,422.944 486.434,424.528 482.738,424.528 C476.066,424.528 471.17,419.2 471.17,412.336 C471.17,405.424 476.066,400.096 482.738,400.096 C486.29,400.096 489.506,401.584 491.378,404.08 L491.378,388 Z M483.266,421.12 C487.298,421.12 491.426,418.48 491.426,412.336 C491.426,406.192 487.298,403.504 483.266,403.504 C478.514,403.504 474.962,407.2 474.962,412.288 C474.962,417.376 478.466,421.12 483.266,421.12 Z M503.798,389.008 C505.286,389.008 506.534,390.208 506.534,391.696 C506.534,393.232 505.286,394.384 503.798,394.384 C502.214,394.384 501.014,393.232 501.014,391.696 C501.014,390.208 502.214,389.008 503.798,389.008 Z M505.622,400.624 L505.622,424 L501.926,424 L501.926,400.624 L505.622,400.624 Z M521.642,390.832 C518.762,390.832 516.746,391.792 516.746,395.296 L516.746,400.624 L522.602,400.624 L522.602,403.936 L516.746,403.936 L516.746,424 L513.05,424 L513.05,403.936 L509.69,403.936 L509.69,400.624 L513.05,400.624 L513.05,395.056 C513.05,389.728 516.266,387.472 520.778,387.472 C521.93,387.472 522.842,387.616 523.706,387.856 L523.706,390.976 C522.938,390.88 522.266,390.832 521.642,390.832 Z M533.486,390.832 C530.606,390.832 528.59,391.792 528.59,395.296 L528.59,400.624 L534.446,400.624 L534.446,403.936 L528.59,403.936 L528.59,424 L524.894,424 L524.894,403.936 L521.534,403.936 L521.534,400.624 L524.894,400.624 L524.894,395.056 C524.894,389.728 528.11,387.472 532.622,387.472 C533.774,387.472 534.686,387.616 535.55,387.856 L535.55,390.976 C534.782,390.88 534.11,390.832 533.486,390.832 Z M558.53,410.656 C558.53,411.904 558.338,413.008 558.242,413.44 L539.81,413.44 C540.29,418.096 543.746,421.12 548.354,421.12 C551.282,421.12 553.586,419.872 555.506,417.952 L557.666,420.448 C555.314,422.944 552.146,424.528 548.306,424.528 C541.25,424.528 535.922,419.2 535.922,412.336 C535.922,405.52 541.154,400.096 547.874,400.096 C553.874,400.096 558.53,404.416 558.53,410.656 Z M547.778,403.456 C543.842,403.456 540.722,406.144 539.954,410.176 L554.738,410.176 C554.69,405.856 551.522,403.456 547.778,403.456 Z M574.454,400.432 C575.222,400.432 575.702,400.528 576.182,400.624 L576.182,403.888 L574.79,403.888 C570.998,403.888 567.446,406.288 567.446,410.752 L567.446,424 L563.75,424 L563.75,400.624 L567.206,400.624 L567.206,403.984 C568.934,401.68 571.67,400.432 574.454,400.432 Z M600.314,410.656 C600.314,411.904 600.122,413.008 600.026,413.44 L581.594,413.44 C582.074,418.096 585.53,421.12 590.138,421.12 C593.066,421.12 595.37,419.872 597.29,417.952 L599.45,420.448 C597.098,422.944 593.93,424.528 590.09,424.528 C583.034,424.528 577.706,419.2 577.706,412.336 C577.706,405.52 582.938,400.096 589.658,400.096 C595.658,400.096 600.314,404.416 600.314,410.656 Z M589.562,403.456 C585.626,403.456 582.506,406.144 581.738,410.176 L596.522,410.176 C596.474,405.856 593.306,403.456 589.562,403.456 Z M616.19,400.096 C621.71,400.096 624.878,403.888 624.878,409.312 L624.878,424 L621.182,424 L621.182,409.744 C621.182,406.048 618.974,403.504 615.374,403.504 C611.774,403.504 609.23,406.096 609.23,409.744 L609.23,424 L605.534,424 L605.534,400.624 L608.99,400.624 L608.99,403.168 C610.622,401.248 613.166,400.096 616.19,400.096 Z M641.09,421.168 C642.002,421.168 643.01,421.072 644.21,420.88 L644.21,424 C643.01,424.288 641.81,424.528 640.322,424.528 C635.714,424.528 632.45,422.272 632.45,416.944 L632.45,403.936 L628.514,403.936 L628.514,400.624 L632.45,400.624 L632.45,394.24 L636.146,394.24 L636.146,400.624 L643.442,400.624 L643.442,403.936 L636.146,403.936 L636.146,416.704 C636.146,420.208 638.162,421.168 641.09,421.168 Z M671.21,400.096 C675.434,400.096 678.794,402.112 680.858,405.184 L678.218,407.296 C676.49,404.992 674.282,403.504 671.258,403.504 C666.362,403.504 662.762,407.392 662.762,412.288 C662.762,417.232 666.362,421.12 671.258,421.12 C674.234,421.12 676.442,419.68 678.17,417.376 L680.81,419.44 C678.746,422.512 675.386,424.528 671.21,424.528 C664.394,424.528 658.97,419.152 658.97,412.288 C658.97,405.472 664.394,400.096 671.21,400.096 Z M695.918,400.096 C702.686,400.096 708.158,405.424 708.158,412.288 C708.158,419.104 702.686,424.48 695.87,424.48 C689.102,424.432 683.678,419.152 683.678,412.288 C683.678,405.424 689.054,400.096 695.918,400.096 Z M695.918,403.504 C691.022,403.504 687.422,407.344 687.47,412.336 C687.47,417.28 691.022,421.072 695.87,421.072 C700.718,421.072 704.366,417.232 704.366,412.336 C704.366,407.296 700.718,403.504 695.918,403.504 Z M724.034,400.096 C729.554,400.096 732.722,403.888 732.722,409.312 L732.722,424 L729.026,424 L729.026,409.744 C729.026,406.048 726.818,403.504 723.218,403.504 C719.618,403.504 717.074,406.096 717.074,409.744 L717.074,424 L713.378,424 L713.378,400.624 L716.834,400.624 L716.834,403.168 C718.466,401.248 721.01,400.096 724.034,400.096 Z M749.846,400.096 C754.07,400.096 757.43,402.112 759.494,405.184 L756.854,407.296 C755.126,404.992 752.918,403.504 749.894,403.504 C744.998,403.504 741.398,407.392 741.398,412.288 C741.398,417.232 744.998,421.12 749.894,421.12 C752.87,421.12 755.078,419.68 756.806,417.376 L759.446,419.44 C757.382,422.512 754.022,424.528 749.846,424.528 C743.03,424.528 737.606,419.152 737.606,412.288 C737.606,405.472 743.03,400.096 749.846,400.096 Z M784.922,410.656 C784.922,411.904 784.73,413.008 784.634,413.44 L766.202,413.44 C766.682,418.096 770.138,421.12 774.746,421.12 C777.674,421.12 779.978,419.872 781.898,417.952 L784.058,420.448 C781.706,422.944 778.538,424.528 774.698,424.528 C767.642,424.528 762.314,419.2 762.314,412.336 C762.314,405.52 767.546,400.096 774.266,400.096 C780.266,400.096 784.922,404.416 784.922,410.656 Z M774.17,403.456 C770.234,403.456 767.114,406.144 766.346,410.176 L781.13,410.176 C781.082,405.856 777.914,403.456 774.17,403.456 Z M802.43,400.096 C809.15,400.096 813.998,405.424 813.998,412.288 C813.998,419.2 809.102,424.528 802.43,424.528 C798.974,424.528 795.71,423.088 793.838,420.592 L793.838,432.64 L790.142,432.64 L790.142,400.624 L793.598,400.624 L793.598,404.368 C795.422,401.68 798.734,400.096 802.43,400.096 Z M801.902,421.12 C806.654,421.12 810.206,417.424 810.206,412.336 C810.206,407.248 806.702,403.504 801.902,403.504 C797.87,403.504 793.79,406.144 793.79,412.288 C793.79,418.432 797.822,421.12 801.902,421.12 Z M828.866,421.168 C829.778,421.168 830.786,421.072 831.986,420.88 L831.986,424 C830.786,424.288 829.586,424.528 828.098,424.528 C823.49,424.528 820.226,422.272 820.226,416.944 L820.226,403.936 L816.29,403.936 L816.29,400.624 L820.226,400.624 L820.226,394.24 L823.922,394.24 L823.922,400.624 L831.218,400.624 L831.218,403.936 L823.922,403.936 L823.922,416.704 C823.922,420.208 825.938,421.168 828.866,421.168 Z M843.302,400.096 C846.662,400.096 849.302,401.536 851.126,403.792 L848.87,406.096 C847.334,404.512 845.318,403.504 843.11,403.504 C840.902,403.504 839.222,404.512 839.222,406.432 C839.222,408.016 840.422,408.784 843.014,409.84 L845.174,410.752 C849.398,412.528 851.366,414.352 851.366,417.664 C851.366,422.224 847.478,424.528 843.158,424.528 C839.03,424.528 835.91,422.464 834.038,419.968 L836.39,417.52 C838.31,419.536 840.278,421.12 843.11,421.12 C845.558,421.12 847.574,419.92 847.574,417.808 C847.574,415.792 845.846,415.024 843.494,414.064 L841.238,413.104 C837.686,411.616 835.43,409.984 835.43,406.624 C835.43,402.4 839.03,400.096 843.302,400.096 Z M877.358,400.096 C882.686,400.096 886.478,403.312 886.478,409.6 L886.478,424 L883.022,424 L883.022,420.976 C881.342,423.232 878.606,424.528 875.15,424.528 C870.446,424.528 866.99,422.032 866.99,417.952 C866.99,414.016 870.302,411.424 875.39,411.424 L882.782,411.424 L882.782,409.408 C882.782,405.472 880.574,403.504 877.118,403.504 C874.19,403.504 872.126,404.896 870.302,407.248 L867.854,405.232 C870.062,401.68 873.614,400.096 877.358,400.096 Z M875.63,421.456 C879.47,421.456 882.782,418.672 882.782,415.024 L882.782,414.448 L875.822,414.448 C872.558,414.448 870.782,415.552 870.782,417.76 C870.782,420.256 873.038,421.456 875.63,421.456 Z M903.698,400.096 C909.218,400.096 912.386,403.888 912.386,409.312 L912.386,424 L908.69,424 L908.69,409.744 C908.69,406.048 906.482,403.504 902.882,403.504 C899.282,403.504 896.738,406.096 896.738,409.744 L896.738,424 L893.042,424 L893.042,400.624 L896.498,400.624 L896.498,403.168 C898.13,401.248 900.674,400.096 903.698,400.096 Z M937.478,388 L941.174,388 L941.174,424 L937.67,424 L937.67,420.256 C935.846,422.944 932.534,424.528 928.838,424.528 C922.166,424.528 917.27,419.2 917.27,412.336 C917.27,405.424 922.166,400.096 928.838,400.096 C932.39,400.096 935.606,401.584 937.478,404.08 L937.478,388 Z M929.366,421.12 C933.398,421.12 937.526,418.48 937.526,412.336 C937.526,406.192 933.398,403.504 929.366,403.504 C924.614,403.504 921.062,407.2 921.062,412.288 C921.062,417.376 924.566,421.12 929.366,421.12 Z M967.262,400.096 C970.622,400.096 973.262,401.536 975.086,403.792 L972.83,406.096 C971.294,404.512 969.278,403.504 967.07,403.504 C964.862,403.504 963.182,404.512 963.182,406.432 C963.182,408.016 964.382,408.784 966.974,409.84 L969.134,410.752 C973.358,412.528 975.326,414.352 975.326,417.664 C975.326,422.224 971.438,424.528 967.118,424.528 C962.99,424.528 959.87,422.464 957.998,419.968 L960.35,417.52 C962.27,419.536 964.238,421.12 967.07,421.12 C969.518,421.12 971.534,419.92 971.534,417.808 C971.534,415.792 969.806,415.024 967.454,414.064 L965.198,413.104 C961.646,411.616 959.39,409.984 959.39,406.624 C959.39,402.4 962.99,400.096 967.262,400.096 Z M990.386,421.168 C991.298,421.168 992.306,421.072 993.506,420.88 L993.506,424 C992.306,424.288 991.106,424.528 989.618,424.528 C985.01,424.528 981.746,422.272 981.746,416.944 L981.746,403.936 L977.81,403.936 L977.81,400.624 L981.746,400.624 L981.746,394.24 L985.442,394.24 L985.442,400.624 L992.738,400.624 L992.738,403.936 L985.442,403.936 L985.442,416.704 C985.442,420.208 987.458,421.168 990.386,421.168 Z M1016.822,400.624 L1016.822,414.688 C1016.822,420.688 1012.55,424.528 1007.174,424.528 C1001.702,424.528 997.478,420.688 997.478,414.688 L997.478,400.624 L1001.126,400.624 L1001.126,414.928 C1001.126,418.768 1003.814,421.12 1007.174,421.12 C1010.438,421.12 1013.126,418.768 1013.126,414.928 L1013.126,400.624 L1016.822,400.624 Z M1041.914,388 L1045.61,388 L1045.61,424 L1042.106,424 L1042.106,420.256 C1040.282,422.944 1036.97,424.528 1033.274,424.528 C1026.602,424.528 1021.706,419.2 1021.706,412.336 C1021.706,405.424 1026.602,400.096 1033.274,400.096 C1036.826,400.096 1040.042,401.584 1041.914,404.08 L1041.914,388 Z M1033.802,421.12 C1037.834,421.12 1041.962,418.48 1041.962,412.336 C1041.962,406.192 1037.834,403.504 1033.802,403.504 C1029.05,403.504 1025.498,407.2 1025.498,412.288 C1025.498,417.376 1029.002,421.12 1033.802,421.12 Z M1054.334,389.008 C1055.822,389.008 1057.07,390.208 1057.07,391.696 C1057.07,393.232 1055.822,394.384 1054.334,394.384 C1052.75,394.384 1051.55,393.232 1051.55,391.696 C1051.55,390.208 1052.75,389.008 1054.334,389.008 Z M1056.158,400.624 L1056.158,424 L1052.462,424 L1052.462,400.624 L1056.158,400.624 Z M1083.938,410.656 C1083.938,411.904 1083.746,413.008 1083.65,413.44 L1065.218,413.44 C1065.698,418.096 1069.154,421.12 1073.762,421.12 C1076.69,421.12 1078.994,419.872 1080.914,417.952 L1083.074,420.448 C1080.722,422.944 1077.554,424.528 1073.714,424.528 C1066.658,424.528 1061.33,419.2 1061.33,412.336 C1061.33,405.52 1066.562,400.096 1073.282,400.096 C1079.282,400.096 1083.938,404.416 1083.938,410.656 Z M1073.186,403.456 C1069.25,403.456 1066.13,406.144 1065.362,410.176 L1080.146,410.176 C1080.098,405.856 1076.93,403.456 1073.186,403.456 Z M1096.214,400.096 C1099.574,400.096 1102.214,401.536 1104.038,403.792 L1101.782,406.096 C1100.246,404.512 1098.23,403.504 1096.022,403.504 C1093.814,403.504 1092.134,404.512 1092.134,406.432 C1092.134,408.016 1093.334,408.784 1095.926,409.84 L1098.086,410.752 C1102.31,412.528 1104.278,414.352 1104.278,417.664 C1104.278,422.224 1100.39,424.528 1096.07,424.528 C1091.942,424.528 1088.822,422.464 1086.95,419.968 L1089.302,417.52 C1091.222,419.536 1093.19,421.12 1096.022,421.12 C1098.47,421.12 1100.486,419.92 1100.486,417.808 C1100.486,415.792 1098.758,415.024 1096.406,414.064 L1094.15,413.104 C1090.598,411.616 1088.342,409.984 1088.342,406.624 C1088.342,402.4 1091.942,400.096 1096.214,400.096 Z M1112.09,418.48 C1113.722,418.48 1115.114,419.728 1115.114,421.504 C1115.114,423.28 1113.722,424.528 1112.09,424.528 C1110.458,424.528 1109.066,423.28 1109.066,421.504 C1109.066,419.728 1110.458,418.48 1112.09,418.48 Z" id="Asidefromworkingonfullprojects,it’sfuntodosmallerexcercisestogetthecreativejuicesflowing.Thispageshowsdifferentconceptsandstudies."></path>
        </g>
    </g>
</svg>