<?xml version="1.0" encoding="UTF-8"?>
<svg width="629px" height="33px" viewBox="0 0 629 33" version="1.1" xmlns="http://www.w3.org/2000/svg" xmlns:xlink="http://www.w3.org/1999/xlink">
    <!-- Generator: Sketch 54.1 (76490) - https://sketchapp.com -->
    <title>ThiswasaGooseIsland312adconcept.</title>
    <desc>Created with Sketch.</desc>
    <g id="Page-1" stroke="none" stroke-width="1" fill="none" fill-rule="evenodd">
        <g id="Desktop-HD-Copy-33" transform="translate(-405.000000, -1696.000000)" fill="#404648" fill-rule="nonzero">
            <path d="M423.805729,1699.56 L423.805729,1701.94 L415.883729,1701.94 L415.883729,1722 L413.231729,1722 L413.231729,1701.94 L405.343729,1701.94 L405.343729,1699.56 L423.805729,1699.56 Z M434.88241,1705.068 C438.75841,1705.068 441.00241,1707.754 441.00241,1711.596 L441.00241,1722 L438.38441,1722 L438.38441,1711.936 C438.38441,1709.318 436.82041,1707.482 434.27041,1707.482 C431.72041,1707.482 429.91841,1709.352 429.91841,1711.936 L429.91841,1722 L427.30041,1722 L427.30041,1696.5 L429.91841,1696.5 L429.91841,1707.312 C431.00641,1705.918 432.74041,1705.068 434.88241,1705.068 Z M447.82909,1697.214 C448.88309,1697.214 449.76709,1698.064 449.76709,1699.118 C449.76709,1700.206 448.88309,1701.022 447.82909,1701.022 C446.70709,1701.022 445.85709,1700.206 445.85709,1699.118 C445.85709,1698.064 446.70709,1697.214 447.82909,1697.214 Z M449.12109,1705.442 L449.12109,1722 L446.50309,1722 L446.50309,1705.442 L449.12109,1705.442 Z M459.823771,1705.068 C462.203771,1705.068 464.073771,1706.088 465.365771,1707.686 L463.767771,1709.318 C462.679771,1708.196 461.251771,1707.482 459.687771,1707.482 C458.123771,1707.482 456.933771,1708.196 456.933771,1709.556 C456.933771,1710.678 457.783771,1711.222 459.619771,1711.97 L461.149771,1712.616 C464.141771,1713.874 465.535771,1715.166 465.535771,1717.512 C465.535771,1720.742 462.781771,1722.374 459.721771,1722.374 C456.797771,1722.374 454.587771,1720.912 453.261771,1719.144 L454.927771,1717.41 C456.287771,1718.838 457.681771,1719.96 459.687771,1719.96 C461.421771,1719.96 462.849771,1719.11 462.849771,1717.614 C462.849771,1716.186 461.625771,1715.642 459.959771,1714.962 L458.361771,1714.282 C455.845771,1713.228 454.247771,1712.072 454.247771,1709.692 C454.247771,1706.7 456.797771,1705.068 459.823771,1705.068 Z M501.017132,1705.442 L503.805132,1705.442 L496.835132,1722.374 L495.883132,1722.374 L490.239132,1709.862 L484.629132,1722.374 L483.711132,1722.374 L476.673132,1705.442 L479.461132,1705.442 L484.221132,1717.682 L489.763132,1705.068 L490.749132,1705.068 L496.325132,1717.614 L501.017132,1705.442 Z M512.841812,1705.068 C516.615812,1705.068 519.301812,1707.346 519.301812,1711.8 L519.301812,1722 L516.853812,1722 L516.853812,1719.858 C515.663812,1721.456 513.725812,1722.374 511.277812,1722.374 C507.945812,1722.374 505.497812,1720.606 505.497812,1717.716 C505.497812,1714.928 507.843812,1713.092 511.447812,1713.092 L516.683812,1713.092 L516.683812,1711.664 C516.683812,1708.876 515.119812,1707.482 512.671812,1707.482 C510.597812,1707.482 509.135812,1708.468 507.843812,1710.134 L506.109812,1708.706 C507.673812,1706.19 510.189812,1705.068 512.841812,1705.068 Z M511.617812,1720.198 C514.337812,1720.198 516.683812,1718.226 516.683812,1715.642 L516.683812,1715.234 L511.753812,1715.234 C509.441812,1715.234 508.183812,1716.016 508.183812,1717.58 C508.183812,1719.348 509.781812,1720.198 511.617812,1720.198 Z M529.800493,1705.068 C532.180493,1705.068 534.050493,1706.088 535.342493,1707.686 L533.744493,1709.318 C532.656493,1708.196 531.228493,1707.482 529.664493,1707.482 C528.100493,1707.482 526.910493,1708.196 526.910493,1709.556 C526.910493,1710.678 527.760493,1711.222 529.596493,1711.97 L531.126493,1712.616 C534.118493,1713.874 535.512493,1715.166 535.512493,1717.512 C535.512493,1720.742 532.758493,1722.374 529.698493,1722.374 C526.774493,1722.374 524.564493,1720.912 523.238493,1719.144 L524.904493,1717.41 C526.264493,1718.838 527.658493,1719.96 529.664493,1719.96 C531.398493,1719.96 532.826493,1719.11 532.826493,1717.614 C532.826493,1716.186 531.602493,1715.642 529.936493,1714.962 L528.338493,1714.282 C525.822493,1713.228 524.224493,1712.072 524.224493,1709.692 C524.224493,1706.7 526.774493,1705.068 529.800493,1705.068 Z M555.625854,1705.068 C559.399854,1705.068 562.085854,1707.346 562.085854,1711.8 L562.085854,1722 L559.637854,1722 L559.637854,1719.858 C558.447854,1721.456 556.509854,1722.374 554.061854,1722.374 C550.729854,1722.374 548.281854,1720.606 548.281854,1717.716 C548.281854,1714.928 550.627854,1713.092 554.231854,1713.092 L559.467854,1713.092 L559.467854,1711.664 C559.467854,1708.876 557.903854,1707.482 555.455854,1707.482 C553.381854,1707.482 551.919854,1708.468 550.627854,1710.134 L548.893854,1708.706 C550.457854,1706.19 552.973854,1705.068 555.625854,1705.068 Z M554.401854,1720.198 C557.121854,1720.198 559.467854,1718.226 559.467854,1715.642 L559.467854,1715.234 L554.537854,1715.234 C552.225854,1715.234 550.967854,1716.016 550.967854,1717.58 C550.967854,1719.348 552.565854,1720.198 554.401854,1720.198 Z M587.469215,1699.186 C591.311215,1699.186 594.541215,1700.92 596.615215,1703.776 L594.609215,1705.34 C592.943215,1703.028 590.529215,1701.634 587.469215,1701.634 C582.267215,1701.634 578.561215,1705.578 578.561215,1710.746 C578.561215,1715.982 582.335215,1719.994 587.605215,1719.994 C590.971215,1719.994 593.589215,1718.328 595.085215,1715.982 L595.085215,1712.956 L587.435215,1712.956 L587.435215,1710.576 L597.737215,1710.576 L597.737215,1716.56 C595.765215,1720.028 591.957215,1722.374 587.469215,1722.374 C580.907215,1722.374 575.807215,1717.308 575.807215,1710.78 C575.807215,1704.218 580.941215,1699.186 587.469215,1699.186 Z M609.867896,1705.068 C614.661896,1705.068 618.537896,1708.842 618.537896,1713.704 C618.537896,1718.532 614.661896,1722.34 609.833896,1722.34 C605.039896,1722.306 601.197896,1718.566 601.197896,1713.704 C601.197896,1708.842 605.005896,1705.068 609.867896,1705.068 Z M609.867896,1707.482 C606.399896,1707.482 603.849896,1710.202 603.883896,1713.738 C603.883896,1717.24 606.399896,1719.926 609.833896,1719.926 C613.267896,1719.926 615.851896,1717.206 615.851896,1713.738 C615.851896,1710.168 613.267896,1707.482 609.867896,1707.482 Z M630.566576,1705.068 C635.360576,1705.068 639.236576,1708.842 639.236576,1713.704 C639.236576,1718.532 635.360576,1722.34 630.532576,1722.34 C625.738576,1722.306 621.896576,1718.566 621.896576,1713.704 C621.896576,1708.842 625.704576,1705.068 630.566576,1705.068 Z M630.566576,1707.482 C627.098576,1707.482 624.548576,1710.202 624.582576,1713.738 C624.582576,1717.24 627.098576,1719.926 630.532576,1719.926 C633.966576,1719.926 636.550576,1717.206 636.550576,1713.738 C636.550576,1710.168 633.966576,1707.482 630.566576,1707.482 Z M648.783257,1705.068 C651.163257,1705.068 653.033257,1706.088 654.325257,1707.686 L652.727257,1709.318 C651.639257,1708.196 650.211257,1707.482 648.647257,1707.482 C647.083257,1707.482 645.893257,1708.196 645.893257,1709.556 C645.893257,1710.678 646.743257,1711.222 648.579257,1711.97 L650.109257,1712.616 C653.101257,1713.874 654.495257,1715.166 654.495257,1717.512 C654.495257,1720.742 651.741257,1722.374 648.681257,1722.374 C645.757257,1722.374 643.547257,1720.912 642.221257,1719.144 L643.887257,1717.41 C645.247257,1718.838 646.641257,1719.96 648.647257,1719.96 C650.381257,1719.96 651.809257,1719.11 651.809257,1717.614 C651.809257,1716.186 650.585257,1715.642 648.919257,1714.962 L647.321257,1714.282 C644.805257,1713.228 643.207257,1712.072 643.207257,1709.692 C643.207257,1706.7 645.757257,1705.068 648.783257,1705.068 Z M674.003937,1712.548 C674.003937,1713.432 673.867937,1714.214 673.799937,1714.52 L660.743937,1714.52 C661.083937,1717.818 663.531937,1719.96 666.795937,1719.96 C668.869937,1719.96 670.501937,1719.076 671.861937,1717.716 L673.391937,1719.484 C671.725937,1721.252 669.481937,1722.374 666.761937,1722.374 C661.763937,1722.374 657.989937,1718.6 657.989937,1713.738 C657.989937,1708.91 661.695937,1705.068 666.455937,1705.068 C670.705937,1705.068 674.003937,1708.128 674.003937,1712.548 Z M666.387937,1707.448 C663.599937,1707.448 661.389937,1709.352 660.845937,1712.208 L671.317937,1712.208 C671.283937,1709.148 669.039937,1707.448 666.387937,1707.448 Z M690.887299,1699.56 L690.887299,1722 L688.235299,1722 L688.235299,1699.56 L690.887299,1699.56 Z M701.623979,1705.068 C704.003979,1705.068 705.873979,1706.088 707.165979,1707.686 L705.567979,1709.318 C704.479979,1708.196 703.051979,1707.482 701.487979,1707.482 C699.923979,1707.482 698.733979,1708.196 698.733979,1709.556 C698.733979,1710.678 699.583979,1711.222 701.419979,1711.97 L702.949979,1712.616 C705.941979,1713.874 707.335979,1715.166 707.335979,1717.512 C707.335979,1720.742 704.581979,1722.374 701.521979,1722.374 C698.597979,1722.374 696.387979,1720.912 695.061979,1719.144 L696.727979,1717.41 C698.087979,1718.838 699.481979,1719.96 701.487979,1719.96 C703.221979,1719.96 704.649979,1719.11 704.649979,1717.614 C704.649979,1716.186 703.425979,1715.642 701.759979,1714.962 L700.161979,1714.282 C697.645979,1713.228 696.047979,1712.072 696.047979,1709.692 C696.047979,1706.7 698.597979,1705.068 701.623979,1705.068 Z M714.63866,1696.5 L714.63866,1722 L712.02066,1722 L712.02066,1696.5 L714.63866,1696.5 Z M726.29334,1705.068 C730.06734,1705.068 732.75334,1707.346 732.75334,1711.8 L732.75334,1722 L730.30534,1722 L730.30534,1719.858 C729.11534,1721.456 727.17734,1722.374 724.72934,1722.374 C721.39734,1722.374 718.94934,1720.606 718.94934,1717.716 C718.94934,1714.928 721.29534,1713.092 724.89934,1713.092 L730.13534,1713.092 L730.13534,1711.664 C730.13534,1708.876 728.57134,1707.482 726.12334,1707.482 C724.04934,1707.482 722.58734,1708.468 721.29534,1710.134 L719.56134,1708.706 C721.12534,1706.19 723.64134,1705.068 726.29334,1705.068 Z M725.06934,1720.198 C727.78934,1720.198 730.13534,1718.226 730.13534,1715.642 L730.13534,1715.234 L725.20534,1715.234 C722.89334,1715.234 721.63534,1716.016 721.63534,1717.58 C721.63534,1719.348 723.23334,1720.198 725.06934,1720.198 Z M745.802021,1705.068 C749.712021,1705.068 751.956021,1707.754 751.956021,1711.596 L751.956021,1722 L749.338021,1722 L749.338021,1711.902 C749.338021,1709.284 747.774021,1707.482 745.224021,1707.482 C742.674021,1707.482 740.872021,1709.318 740.872021,1711.902 L740.872021,1722 L738.254021,1722 L738.254021,1705.442 L740.702021,1705.442 L740.702021,1707.244 C741.858021,1705.884 743.660021,1705.068 745.802021,1705.068 Z M770.580701,1696.5 L773.198701,1696.5 L773.198701,1722 L770.716701,1722 L770.716701,1719.348 C769.424701,1721.252 767.078701,1722.374 764.460701,1722.374 C759.734701,1722.374 756.266701,1718.6 756.266701,1713.738 C756.266701,1708.842 759.734701,1705.068 764.460701,1705.068 C766.976701,1705.068 769.254701,1706.122 770.580701,1707.89 L770.580701,1696.5 Z M764.834701,1719.96 C767.690701,1719.96 770.614701,1718.09 770.614701,1713.738 C770.614701,1709.386 767.690701,1707.482 764.834701,1707.482 C761.468701,1707.482 758.952701,1710.1 758.952701,1713.704 C758.952701,1717.308 761.434701,1719.96 764.834701,1719.96 Z M794.842063,1712.174 C797.936063,1712.48 801.302063,1714.724 801.302063,1719.076 C801.302063,1723.7 797.494063,1726.522 793.346063,1726.522 C789.640063,1726.522 787.090063,1724.346 785.730063,1721.898 L787.600063,1720.538 C788.824063,1722.408 790.524063,1724.108 793.312063,1724.108 C796.372063,1724.108 798.582063,1722.068 798.582063,1719.076 C798.582063,1716.186 796.508063,1714.418 792.836063,1714.418 L790.796063,1714.418 L790.796063,1713.636 L796.508063,1706.292 L787.226063,1706.292 L787.226063,1703.878 L800.724063,1703.878 L800.724063,1704.66 L794.842063,1712.174 Z M813.534743,1703.878 L813.534743,1719.688 L818.328743,1719.688 L818.328743,1722 L805.714743,1722 L805.714743,1719.688 L810.882743,1719.688 L810.882743,1706.292 L806.054743,1706.292 L806.054743,1703.878 L813.534743,1703.878 Z M827.501424,1719.688 L836.749424,1719.688 L836.749424,1722 L821.279424,1722 L821.279424,1721.32 L827.943424,1716.424 C830.765424,1714.316 833.111424,1712.752 833.111424,1709.93 C833.111424,1707.754 831.649424,1705.884 829.065424,1705.884 C826.345424,1705.884 824.849424,1707.89 824.849424,1709.93 C824.849424,1710.474 824.951424,1711.12 825.053424,1711.698 L822.469424,1711.698 C822.299424,1711.086 822.197424,1710.372 822.197424,1709.76 C822.197424,1706.598 824.815424,1703.504 829.133424,1703.504 C833.043424,1703.504 835.831424,1706.088 835.831424,1709.76 C835.831424,1713.228 833.281424,1715.506 830.221424,1717.716 L827.501424,1719.688 Z M856.828785,1705.068 C860.602785,1705.068 863.288785,1707.346 863.288785,1711.8 L863.288785,1722 L860.840785,1722 L860.840785,1719.858 C859.650785,1721.456 857.712785,1722.374 855.264785,1722.374 C851.932785,1722.374 849.484785,1720.606 849.484785,1717.716 C849.484785,1714.928 851.830785,1713.092 855.434785,1713.092 L860.670785,1713.092 L860.670785,1711.664 C860.670785,1708.876 859.106785,1707.482 856.658785,1707.482 C854.584785,1707.482 853.122785,1708.468 851.830785,1710.134 L850.096785,1708.706 C851.660785,1706.19 854.176785,1705.068 856.828785,1705.068 Z M855.604785,1720.198 C858.324785,1720.198 860.670785,1718.226 860.670785,1715.642 L860.670785,1715.234 L855.740785,1715.234 C853.428785,1715.234 852.170785,1716.016 852.170785,1717.58 C852.170785,1719.348 853.768785,1720.198 855.604785,1720.198 Z M881.913465,1696.5 L884.531465,1696.5 L884.531465,1722 L882.049465,1722 L882.049465,1719.348 C880.757465,1721.252 878.411465,1722.374 875.793465,1722.374 C871.067465,1722.374 867.599465,1718.6 867.599465,1713.738 C867.599465,1708.842 871.067465,1705.068 875.793465,1705.068 C878.309465,1705.068 880.587465,1706.122 881.913465,1707.89 L881.913465,1696.5 Z M876.167465,1719.96 C879.023465,1719.96 881.947465,1718.09 881.947465,1713.738 C881.947465,1709.386 879.023465,1707.482 876.167465,1707.482 C872.801465,1707.482 870.285465,1710.1 870.285465,1713.704 C870.285465,1717.308 872.767465,1719.96 876.167465,1719.96 Z M907.194826,1705.068 C910.186826,1705.068 912.566826,1706.496 914.028826,1708.672 L912.158826,1710.168 C910.934826,1708.536 909.370826,1707.482 907.228826,1707.482 C903.760826,1707.482 901.210826,1710.236 901.210826,1713.704 C901.210826,1717.206 903.760826,1719.96 907.228826,1719.96 C909.336826,1719.96 910.900826,1718.94 912.124826,1717.308 L913.994826,1718.77 C912.532826,1720.946 910.152826,1722.374 907.194826,1722.374 C902.366826,1722.374 898.524826,1718.566 898.524826,1713.704 C898.524826,1708.876 902.366826,1705.068 907.194826,1705.068 Z M925.547507,1705.068 C930.341507,1705.068 934.217507,1708.842 934.217507,1713.704 C934.217507,1718.532 930.341507,1722.34 925.513507,1722.34 C920.719507,1722.306 916.877507,1718.566 916.877507,1713.704 C916.877507,1708.842 920.685507,1705.068 925.547507,1705.068 Z M925.547507,1707.482 C922.079507,1707.482 919.529507,1710.202 919.563507,1713.738 C919.563507,1717.24 922.079507,1719.926 925.513507,1719.926 C928.947507,1719.926 931.531507,1717.206 931.531507,1713.738 C931.531507,1710.168 928.947507,1707.482 925.547507,1707.482 Z M946.314188,1705.068 C950.224188,1705.068 952.468188,1707.754 952.468188,1711.596 L952.468188,1722 L949.850188,1722 L949.850188,1711.902 C949.850188,1709.284 948.286188,1707.482 945.736188,1707.482 C943.186188,1707.482 941.384188,1709.318 941.384188,1711.902 L941.384188,1722 L938.766188,1722 L938.766188,1705.442 L941.214188,1705.442 L941.214188,1707.244 C942.370188,1705.884 944.172188,1705.068 946.314188,1705.068 Z M965.448868,1705.068 C968.440868,1705.068 970.820868,1706.496 972.282868,1708.672 L970.412868,1710.168 C969.188868,1708.536 967.624868,1707.482 965.482868,1707.482 C962.014868,1707.482 959.464868,1710.236 959.464868,1713.704 C959.464868,1717.206 962.014868,1719.96 965.482868,1719.96 C967.590868,1719.96 969.154868,1718.94 970.378868,1717.308 L972.248868,1718.77 C970.786868,1720.946 968.406868,1722.374 965.448868,1722.374 C960.620868,1722.374 956.778868,1718.566 956.778868,1713.704 C956.778868,1708.876 960.620868,1705.068 965.448868,1705.068 Z M991.145549,1712.548 C991.145549,1713.432 991.009549,1714.214 990.941549,1714.52 L977.885549,1714.52 C978.225549,1717.818 980.673549,1719.96 983.937549,1719.96 C986.011549,1719.96 987.643549,1719.076 989.003549,1717.716 L990.533549,1719.484 C988.867549,1721.252 986.623549,1722.374 983.903549,1722.374 C978.905549,1722.374 975.131549,1718.6 975.131549,1713.738 C975.131549,1708.91 978.837549,1705.068 983.597549,1705.068 C987.847549,1705.068 991.145549,1708.128 991.145549,1712.548 Z M983.529549,1707.448 C980.741549,1707.448 978.531549,1709.352 977.987549,1712.208 L988.459549,1712.208 C988.425549,1709.148 986.181549,1707.448 983.529549,1707.448 Z M1004.39823,1705.068 C1009.15823,1705.068 1012.59223,1708.842 1012.59223,1713.704 C1012.59223,1718.6 1009.12423,1722.374 1004.39823,1722.374 C1001.95023,1722.374 999.638229,1721.354 998.312229,1719.586 L998.312229,1728.12 L995.694229,1728.12 L995.694229,1705.442 L998.142229,1705.442 L998.142229,1708.094 C999.434229,1706.19 1001.78023,1705.068 1004.39823,1705.068 Z M1004.02423,1719.96 C1007.39023,1719.96 1009.90623,1717.342 1009.90623,1713.738 C1009.90623,1710.134 1007.42423,1707.482 1004.02423,1707.482 C1001.16823,1707.482 998.278229,1709.352 998.278229,1713.704 C998.278229,1718.056 1001.13423,1719.96 1004.02423,1719.96 Z M1023.97491,1719.994 C1024.62091,1719.994 1025.33491,1719.926 1026.18491,1719.79 L1026.18491,1722 C1025.33491,1722.204 1024.48491,1722.374 1023.43091,1722.374 C1020.16691,1722.374 1017.85491,1720.776 1017.85491,1717.002 L1017.85491,1707.788 L1015.06691,1707.788 L1015.06691,1705.442 L1017.85491,1705.442 L1017.85491,1700.92 L1020.47291,1700.92 L1020.47291,1705.442 L1025.64091,1705.442 L1025.64091,1707.788 L1020.47291,1707.788 L1020.47291,1716.832 C1020.47291,1719.314 1021.90091,1719.994 1023.97491,1719.994 Z M1031.75359,1718.09 C1032.90959,1718.09 1033.89559,1718.974 1033.89559,1720.232 C1033.89559,1721.49 1032.90959,1722.374 1031.75359,1722.374 C1030.59759,1722.374 1029.61159,1721.49 1029.61159,1720.232 C1029.61159,1718.974 1030.59759,1718.09 1031.75359,1718.09 Z" id="ThiswasaGooseIsland312adconcept."></path>
        </g>
    </g>
</svg>