<?xml version="1.0" encoding="UTF-8"?>
<svg width="371px" height="33px" viewBox="0 0 371 33" version="1.1" xmlns="http://www.w3.org/2000/svg" xmlns:xlink="http://www.w3.org/1999/xlink">
    <!-- Generator: Sketch 53.2 (72643) - https://sketchapp.com -->
    <title>Thisisa3DNeonStudy.</title>
    <desc>Created with Sketch.</desc>
    <g id="Page-1" stroke="none" stroke-width="1" fill="none" fill-rule="evenodd">
        <g id="Desktop-HD-Copy-31" transform="translate(-534.000000, -1286.000000)" fill="#404648" fill-rule="nonzero">
            <path d="M553.069833,1289.56 L553.069833,1291.94 L545.147833,1291.94 L545.147833,1312 L542.495833,1312 L542.495833,1291.94 L534.607833,1291.94 L534.607833,1289.56 L553.069833,1289.56 Z M564.146514,1295.068 C568.022514,1295.068 570.266514,1297.754 570.266514,1301.596 L570.266514,1312 L567.648514,1312 L567.648514,1301.936 C567.648514,1299.318 566.084514,1297.482 563.534514,1297.482 C560.984514,1297.482 559.182514,1299.352 559.182514,1301.936 L559.182514,1312 L556.564514,1312 L556.564514,1286.5 L559.182514,1286.5 L559.182514,1297.312 C560.270514,1295.918 562.004514,1295.068 564.146514,1295.068 Z M577.093194,1287.214 C578.147194,1287.214 579.031194,1288.064 579.031194,1289.118 C579.031194,1290.206 578.147194,1291.022 577.093194,1291.022 C575.971194,1291.022 575.121194,1290.206 575.121194,1289.118 C575.121194,1288.064 575.971194,1287.214 577.093194,1287.214 Z M578.385194,1295.442 L578.385194,1312 L575.767194,1312 L575.767194,1295.442 L578.385194,1295.442 Z M589.087875,1295.068 C591.467875,1295.068 593.337875,1296.088 594.629875,1297.686 L593.031875,1299.318 C591.943875,1298.196 590.515875,1297.482 588.951875,1297.482 C587.387875,1297.482 586.197875,1298.196 586.197875,1299.556 C586.197875,1300.678 587.047875,1301.222 588.883875,1301.97 L590.413875,1302.616 C593.405875,1303.874 594.799875,1305.166 594.799875,1307.512 C594.799875,1310.742 592.045875,1312.374 588.985875,1312.374 C586.061875,1312.374 583.851875,1310.912 582.525875,1309.144 L584.191875,1307.41 C585.551875,1308.838 586.945875,1309.96 588.951875,1309.96 C590.685875,1309.96 592.113875,1309.11 592.113875,1307.614 C592.113875,1306.186 590.889875,1305.642 589.223875,1304.962 L587.625875,1304.282 C585.109875,1303.228 583.511875,1302.072 583.511875,1299.692 C583.511875,1296.7 586.061875,1295.068 589.087875,1295.068 Z M610.289236,1287.214 C611.343236,1287.214 612.227236,1288.064 612.227236,1289.118 C612.227236,1290.206 611.343236,1291.022 610.289236,1291.022 C609.167236,1291.022 608.317236,1290.206 608.317236,1289.118 C608.317236,1288.064 609.167236,1287.214 610.289236,1287.214 Z M611.581236,1295.442 L611.581236,1312 L608.963236,1312 L608.963236,1295.442 L611.581236,1295.442 Z M622.283917,1295.068 C624.663917,1295.068 626.533917,1296.088 627.825917,1297.686 L626.227917,1299.318 C625.139917,1298.196 623.711917,1297.482 622.147917,1297.482 C620.583917,1297.482 619.393917,1298.196 619.393917,1299.556 C619.393917,1300.678 620.243917,1301.222 622.079917,1301.97 L623.609917,1302.616 C626.601917,1303.874 627.995917,1305.166 627.995917,1307.512 C627.995917,1310.742 625.241917,1312.374 622.181917,1312.374 C619.257917,1312.374 617.047917,1310.912 615.721917,1309.144 L617.387917,1307.41 C618.747917,1308.838 620.141917,1309.96 622.147917,1309.96 C623.881917,1309.96 625.309917,1309.11 625.309917,1307.614 C625.309917,1306.186 624.085917,1305.642 622.419917,1304.962 L620.821917,1304.282 C618.305917,1303.228 616.707917,1302.072 616.707917,1299.692 C616.707917,1296.7 619.257917,1295.068 622.283917,1295.068 Z M648.109278,1295.068 C651.883278,1295.068 654.569278,1297.346 654.569278,1301.8 L654.569278,1312 L652.121278,1312 L652.121278,1309.858 C650.931278,1311.456 648.993278,1312.374 646.545278,1312.374 C643.213278,1312.374 640.765278,1310.606 640.765278,1307.716 C640.765278,1304.928 643.111278,1303.092 646.715278,1303.092 L651.951278,1303.092 L651.951278,1301.664 C651.951278,1298.876 650.387278,1297.482 647.939278,1297.482 C645.865278,1297.482 644.403278,1298.468 643.111278,1300.134 L641.377278,1298.706 C642.941278,1296.19 645.457278,1295.068 648.109278,1295.068 Z M646.885278,1310.198 C649.605278,1310.198 651.951278,1308.226 651.951278,1305.642 L651.951278,1305.234 L647.021278,1305.234 C644.709278,1305.234 643.451278,1306.016 643.451278,1307.58 C643.451278,1309.348 645.049278,1310.198 646.885278,1310.198 Z M676.008639,1302.174 C679.102639,1302.48 682.468639,1304.724 682.468639,1309.076 C682.468639,1313.7 678.660639,1316.522 674.512639,1316.522 C670.806639,1316.522 668.256639,1314.346 666.896639,1311.898 L668.766639,1310.538 C669.990639,1312.408 671.690639,1314.108 674.478639,1314.108 C677.538639,1314.108 679.748639,1312.068 679.748639,1309.076 C679.748639,1306.186 677.674639,1304.418 674.002639,1304.418 L671.962639,1304.418 L671.962639,1303.636 L677.674639,1296.292 L668.392639,1296.292 L668.392639,1293.878 L681.890639,1293.878 L681.890639,1294.66 L676.008639,1302.174 Z M693.987319,1289.56 C701.603319,1289.56 706.193319,1294.218 706.193319,1300.746 C706.193319,1307.172 701.603319,1312 693.987319,1312 L687.323319,1312 L687.323319,1289.56 L693.987319,1289.56 Z M693.953319,1291.94 L689.975319,1291.94 L689.975319,1309.62 L693.953319,1309.62 C699.971319,1309.62 703.439319,1305.778 703.439319,1300.746 C703.439319,1295.612 699.971319,1291.94 693.953319,1291.94 Z M735.588681,1289.56 L738.240681,1289.56 L738.240681,1312.374 L737.288681,1312.374 L723.008681,1295.136 L723.008681,1312 L720.356681,1312 L720.356681,1289.186 L721.308681,1289.186 L735.588681,1306.458 L735.588681,1289.56 Z M758.837361,1302.548 C758.837361,1303.432 758.701361,1304.214 758.633361,1304.52 L745.577361,1304.52 C745.917361,1307.818 748.365361,1309.96 751.629361,1309.96 C753.703361,1309.96 755.335361,1309.076 756.695361,1307.716 L758.225361,1309.484 C756.559361,1311.252 754.315361,1312.374 751.595361,1312.374 C746.597361,1312.374 742.823361,1308.6 742.823361,1303.738 C742.823361,1298.91 746.529361,1295.068 751.289361,1295.068 C755.539361,1295.068 758.837361,1298.128 758.837361,1302.548 Z M751.221361,1297.448 C748.433361,1297.448 746.223361,1299.352 745.679361,1302.208 L756.151361,1302.208 C756.117361,1299.148 753.873361,1297.448 751.221361,1297.448 Z M770.866042,1295.068 C775.660042,1295.068 779.536042,1298.842 779.536042,1303.704 C779.536042,1308.532 775.660042,1312.34 770.832042,1312.34 C766.038042,1312.306 762.196042,1308.566 762.196042,1303.704 C762.196042,1298.842 766.004042,1295.068 770.866042,1295.068 Z M770.866042,1297.482 C767.398042,1297.482 764.848042,1300.202 764.882042,1303.738 C764.882042,1307.24 767.398042,1309.926 770.832042,1309.926 C774.266042,1309.926 776.850042,1307.206 776.850042,1303.738 C776.850042,1300.168 774.266042,1297.482 770.866042,1297.482 Z M791.632722,1295.068 C795.542722,1295.068 797.786722,1297.754 797.786722,1301.596 L797.786722,1312 L795.168722,1312 L795.168722,1301.902 C795.168722,1299.284 793.604722,1297.482 791.054722,1297.482 C788.504722,1297.482 786.702722,1299.318 786.702722,1301.902 L786.702722,1312 L784.084722,1312 L784.084722,1295.442 L786.532722,1295.442 L786.532722,1297.244 C787.688722,1295.884 789.490722,1295.068 791.632722,1295.068 Z M819.464083,1289.186 C822.524083,1289.186 825.108083,1290.784 826.502083,1292.994 L824.564083,1294.456 C823.374083,1292.654 821.470083,1291.634 819.430083,1291.634 C817.356083,1291.634 815.452083,1292.688 815.452083,1294.898 C815.452083,1296.938 817.016083,1297.686 819.056083,1298.672 L821.538083,1299.862 C824.802083,1301.426 826.774083,1303.092 826.774083,1306.118 C826.774083,1309.892 823.680083,1312.374 819.532083,1312.374 C815.962083,1312.374 813.004083,1310.504 811.270083,1307.546 L813.242083,1306.084 C814.602083,1308.158 816.608083,1309.926 819.498083,1309.926 C822.150083,1309.926 824.020083,1308.464 824.020083,1306.186 C824.020083,1304.112 822.490083,1303.296 820.280083,1302.242 L817.764083,1301.052 C815.146083,1299.794 812.698083,1298.196 812.698083,1295.034 C812.698083,1291.464 815.826083,1289.186 819.464083,1289.186 Z M838.360764,1309.994 C839.006764,1309.994 839.720764,1309.926 840.570764,1309.79 L840.570764,1312 C839.720764,1312.204 838.870764,1312.374 837.816764,1312.374 C834.552764,1312.374 832.240764,1310.776 832.240764,1307.002 L832.240764,1297.788 L829.452764,1297.788 L829.452764,1295.442 L832.240764,1295.442 L832.240764,1290.92 L834.858764,1290.92 L834.858764,1295.442 L840.026764,1295.442 L840.026764,1297.788 L834.858764,1297.788 L834.858764,1306.832 C834.858764,1309.314 836.286764,1309.994 838.360764,1309.994 Z M857.937444,1295.442 L857.937444,1305.404 C857.937444,1309.654 854.911444,1312.374 851.103444,1312.374 C847.227444,1312.374 844.235444,1309.654 844.235444,1305.404 L844.235444,1295.442 L846.819444,1295.442 L846.819444,1305.574 C846.819444,1308.294 848.723444,1309.96 851.103444,1309.96 C853.415444,1309.96 855.319444,1308.294 855.319444,1305.574 L855.319444,1295.442 L857.937444,1295.442 Z M876.562125,1286.5 L879.180125,1286.5 L879.180125,1312 L876.698125,1312 L876.698125,1309.348 C875.406125,1311.252 873.060125,1312.374 870.442125,1312.374 C865.716125,1312.374 862.248125,1308.6 862.248125,1303.738 C862.248125,1298.842 865.716125,1295.068 870.442125,1295.068 C872.958125,1295.068 875.236125,1296.122 876.562125,1297.89 L876.562125,1286.5 Z M870.816125,1309.96 C873.672125,1309.96 876.596125,1308.09 876.596125,1303.738 C876.596125,1299.386 873.672125,1297.482 870.816125,1297.482 C867.450125,1297.482 864.934125,1300.1 864.934125,1303.704 C864.934125,1307.308 867.416125,1309.96 870.816125,1309.96 Z M896.648806,1295.442 L899.436806,1295.442 L891.276806,1314.312 C889.984806,1317.27 888.182806,1318.494 885.666806,1318.494 C884.850806,1318.494 883.898806,1318.358 883.116806,1318.154 L883.116806,1315.944 C883.898806,1316.046 884.544806,1316.114 885.122806,1316.114 C886.720806,1316.114 887.944806,1315.57 888.862806,1313.462 L889.746806,1311.456 L882.878806,1295.442 L885.700806,1295.442 L891.174806,1308.634 L896.648806,1295.442 Z M902.489486,1308.09 C903.645486,1308.09 904.631486,1308.974 904.631486,1310.232 C904.631486,1311.49 903.645486,1312.374 902.489486,1312.374 C901.333486,1312.374 900.347486,1311.49 900.347486,1310.232 C900.347486,1308.974 901.333486,1308.09 902.489486,1308.09 Z" id="Thisisa3DNeonStudy."></path>
        </g>
    </g>
</svg>