<?xml version="1.0" encoding="UTF-8"?>
<svg width="631px" height="115px" viewBox="0 0 631 115" version="1.1" xmlns="http://www.w3.org/2000/svg" xmlns:xlink="http://www.w3.org/1999/xlink">
    <!-- Generator: Sketch 53.2 (72643) - https://sketchapp.com -->
    <title>Thiswasamotionstudyonmaskingandparallaxtechniques,capturingthetrainmovementinfrontofChicago’sskyline.</title>
    <desc>Created with Sketch.</desc>
    <g id="Page-1" stroke="none" stroke-width="1" fill="none" fill-rule="evenodd">
        <g id="Desktop-HD-Copy-33" transform="translate(-404.000000, -1298.000000)" fill="#404648" fill-rule="nonzero">
            <path d="M422.765069,1301.56 L422.765069,1303.94 L414.843069,1303.94 L414.843069,1324 L412.191069,1324 L412.191069,1303.94 L404.303069,1303.94 L404.303069,1301.56 L422.765069,1301.56 Z M433.84175,1307.068 C437.71775,1307.068 439.96175,1309.754 439.96175,1313.596 L439.96175,1324 L437.34375,1324 L437.34375,1313.936 C437.34375,1311.318 435.77975,1309.482 433.22975,1309.482 C430.67975,1309.482 428.87775,1311.352 428.87775,1313.936 L428.87775,1324 L426.25975,1324 L426.25975,1298.5 L428.87775,1298.5 L428.87775,1309.312 C429.96575,1307.918 431.69975,1307.068 433.84175,1307.068 Z M446.78843,1299.214 C447.84243,1299.214 448.72643,1300.064 448.72643,1301.118 C448.72643,1302.206 447.84243,1303.022 446.78843,1303.022 C445.66643,1303.022 444.81643,1302.206 444.81643,1301.118 C444.81643,1300.064 445.66643,1299.214 446.78843,1299.214 Z M448.08043,1307.442 L448.08043,1324 L445.46243,1324 L445.46243,1307.442 L448.08043,1307.442 Z M458.783111,1307.068 C461.163111,1307.068 463.033111,1308.088 464.325111,1309.686 L462.727111,1311.318 C461.639111,1310.196 460.211111,1309.482 458.647111,1309.482 C457.083111,1309.482 455.893111,1310.196 455.893111,1311.556 C455.893111,1312.678 456.743111,1313.222 458.579111,1313.97 L460.109111,1314.616 C463.101111,1315.874 464.495111,1317.166 464.495111,1319.512 C464.495111,1322.742 461.741111,1324.374 458.681111,1324.374 C455.757111,1324.374 453.547111,1322.912 452.221111,1321.144 L453.887111,1319.41 C455.247111,1320.838 456.641111,1321.96 458.647111,1321.96 C460.381111,1321.96 461.809111,1321.11 461.809111,1319.614 C461.809111,1318.186 460.585111,1317.642 458.919111,1316.962 L457.321111,1316.282 C454.805111,1315.228 453.207111,1314.072 453.207111,1311.692 C453.207111,1308.7 455.757111,1307.068 458.783111,1307.068 Z M499.976472,1307.442 L502.764472,1307.442 L495.794472,1324.374 L494.842472,1324.374 L489.198472,1311.862 L483.588472,1324.374 L482.670472,1324.374 L475.632472,1307.442 L478.420472,1307.442 L483.180472,1319.682 L488.722472,1307.068 L489.708472,1307.068 L495.284472,1319.614 L499.976472,1307.442 Z M511.801153,1307.068 C515.575153,1307.068 518.261153,1309.346 518.261153,1313.8 L518.261153,1324 L515.813153,1324 L515.813153,1321.858 C514.623153,1323.456 512.685153,1324.374 510.237153,1324.374 C506.905153,1324.374 504.457153,1322.606 504.457153,1319.716 C504.457153,1316.928 506.803153,1315.092 510.407153,1315.092 L515.643153,1315.092 L515.643153,1313.664 C515.643153,1310.876 514.079153,1309.482 511.631153,1309.482 C509.557153,1309.482 508.095153,1310.468 506.803153,1312.134 L505.069153,1310.706 C506.633153,1308.19 509.149153,1307.068 511.801153,1307.068 Z M510.577153,1322.198 C513.297153,1322.198 515.643153,1320.226 515.643153,1317.642 L515.643153,1317.234 L510.713153,1317.234 C508.401153,1317.234 507.143153,1318.016 507.143153,1319.58 C507.143153,1321.348 508.741153,1322.198 510.577153,1322.198 Z M528.759833,1307.068 C531.139833,1307.068 533.009833,1308.088 534.301833,1309.686 L532.703833,1311.318 C531.615833,1310.196 530.187833,1309.482 528.623833,1309.482 C527.059833,1309.482 525.869833,1310.196 525.869833,1311.556 C525.869833,1312.678 526.719833,1313.222 528.555833,1313.97 L530.085833,1314.616 C533.077833,1315.874 534.471833,1317.166 534.471833,1319.512 C534.471833,1322.742 531.717833,1324.374 528.657833,1324.374 C525.733833,1324.374 523.523833,1322.912 522.197833,1321.144 L523.863833,1319.41 C525.223833,1320.838 526.617833,1321.96 528.623833,1321.96 C530.357833,1321.96 531.785833,1321.11 531.785833,1319.614 C531.785833,1318.186 530.561833,1317.642 528.895833,1316.962 L527.297833,1316.282 C524.781833,1315.228 523.183833,1314.072 523.183833,1311.692 C523.183833,1308.7 525.733833,1307.068 528.759833,1307.068 Z M554.585194,1307.068 C558.359194,1307.068 561.045194,1309.346 561.045194,1313.8 L561.045194,1324 L558.597194,1324 L558.597194,1321.858 C557.407194,1323.456 555.469194,1324.374 553.021194,1324.374 C549.689194,1324.374 547.241194,1322.606 547.241194,1319.716 C547.241194,1316.928 549.587194,1315.092 553.191194,1315.092 L558.427194,1315.092 L558.427194,1313.664 C558.427194,1310.876 556.863194,1309.482 554.415194,1309.482 C552.341194,1309.482 550.879194,1310.468 549.587194,1312.134 L547.853194,1310.706 C549.417194,1308.19 551.933194,1307.068 554.585194,1307.068 Z M553.361194,1322.198 C556.081194,1322.198 558.427194,1320.226 558.427194,1317.642 L558.427194,1317.234 L553.497194,1317.234 C551.185194,1317.234 549.927194,1318.016 549.927194,1319.58 C549.927194,1321.348 551.525194,1322.198 553.361194,1322.198 Z M594.180556,1307.068 C598.056556,1307.068 600.198556,1309.754 600.198556,1313.596 L600.198556,1324 L597.580556,1324 L597.580556,1313.936 C597.580556,1311.318 596.152556,1309.482 593.670556,1309.482 C591.154556,1309.482 589.420556,1311.386 589.420556,1313.698 L589.420556,1324 L586.802556,1324 L586.802556,1313.936 C586.802556,1311.318 585.306556,1309.482 582.858556,1309.482 C580.342556,1309.482 578.642556,1311.318 578.642556,1313.936 L578.642556,1324 L576.024556,1324 L576.024556,1307.442 L578.472556,1307.442 L578.472556,1309.176 C579.628556,1307.85 581.328556,1307.068 583.402556,1307.068 C585.884556,1307.068 587.584556,1308.19 588.502556,1309.924 C589.658556,1308.258 591.630556,1307.068 594.180556,1307.068 Z M613.179236,1307.068 C617.973236,1307.068 621.849236,1310.842 621.849236,1315.704 C621.849236,1320.532 617.973236,1324.34 613.145236,1324.34 C608.351236,1324.306 604.509236,1320.566 604.509236,1315.704 C604.509236,1310.842 608.317236,1307.068 613.179236,1307.068 Z M613.179236,1309.482 C609.711236,1309.482 607.161236,1312.202 607.195236,1315.738 C607.195236,1319.24 609.711236,1321.926 613.145236,1321.926 C616.579236,1321.926 619.163236,1319.206 619.163236,1315.738 C619.163236,1312.168 616.579236,1309.482 613.179236,1309.482 Z M633.231917,1321.994 C633.877917,1321.994 634.591917,1321.926 635.441917,1321.79 L635.441917,1324 C634.591917,1324.204 633.741917,1324.374 632.687917,1324.374 C629.423917,1324.374 627.111917,1322.776 627.111917,1319.002 L627.111917,1309.788 L624.323917,1309.788 L624.323917,1307.442 L627.111917,1307.442 L627.111917,1302.92 L629.729917,1302.92 L629.729917,1307.442 L634.897917,1307.442 L634.897917,1309.788 L629.729917,1309.788 L629.729917,1318.832 C629.729917,1321.314 631.157917,1321.994 633.231917,1321.994 Z M640.636597,1299.214 C641.690597,1299.214 642.574597,1300.064 642.574597,1301.118 C642.574597,1302.206 641.690597,1303.022 640.636597,1303.022 C639.514597,1303.022 638.664597,1302.206 638.664597,1301.118 C638.664597,1300.064 639.514597,1299.214 640.636597,1299.214 Z M641.928597,1307.442 L641.928597,1324 L639.310597,1324 L639.310597,1307.442 L641.928597,1307.442 Z M655.113278,1307.068 C659.907278,1307.068 663.783278,1310.842 663.783278,1315.704 C663.783278,1320.532 659.907278,1324.34 655.079278,1324.34 C650.285278,1324.306 646.443278,1320.566 646.443278,1315.704 C646.443278,1310.842 650.251278,1307.068 655.113278,1307.068 Z M655.113278,1309.482 C651.645278,1309.482 649.095278,1312.202 649.129278,1315.738 C649.129278,1319.24 651.645278,1321.926 655.079278,1321.926 C658.513278,1321.926 661.097278,1319.206 661.097278,1315.738 C661.097278,1312.168 658.513278,1309.482 655.113278,1309.482 Z M675.879958,1307.068 C679.789958,1307.068 682.033958,1309.754 682.033958,1313.596 L682.033958,1324 L679.415958,1324 L679.415958,1313.902 C679.415958,1311.284 677.851958,1309.482 675.301958,1309.482 C672.751958,1309.482 670.949958,1311.318 670.949958,1313.902 L670.949958,1324 L668.331958,1324 L668.331958,1307.442 L670.779958,1307.442 L670.779958,1309.244 C671.935958,1307.884 673.737958,1307.068 675.879958,1307.068 Z M702.011319,1307.068 C704.391319,1307.068 706.261319,1308.088 707.553319,1309.686 L705.955319,1311.318 C704.867319,1310.196 703.439319,1309.482 701.875319,1309.482 C700.311319,1309.482 699.121319,1310.196 699.121319,1311.556 C699.121319,1312.678 699.971319,1313.222 701.807319,1313.97 L703.337319,1314.616 C706.329319,1315.874 707.723319,1317.166 707.723319,1319.512 C707.723319,1322.742 704.969319,1324.374 701.909319,1324.374 C698.985319,1324.374 696.775319,1322.912 695.449319,1321.144 L697.115319,1319.41 C698.475319,1320.838 699.869319,1321.96 701.875319,1321.96 C703.609319,1321.96 705.037319,1321.11 705.037319,1319.614 C705.037319,1318.186 703.813319,1317.642 702.147319,1316.962 L700.549319,1316.282 C698.033319,1315.228 696.435319,1314.072 696.435319,1311.692 C696.435319,1308.7 698.985319,1307.068 702.011319,1307.068 Z M719.242,1321.994 C719.888,1321.994 720.602,1321.926 721.452,1321.79 L721.452,1324 C720.602,1324.204 719.752,1324.374 718.698,1324.374 C715.434,1324.374 713.122,1322.776 713.122,1319.002 L713.122,1309.788 L710.334,1309.788 L710.334,1307.442 L713.122,1307.442 L713.122,1302.92 L715.74,1302.92 L715.74,1307.442 L720.908,1307.442 L720.908,1309.788 L715.74,1309.788 L715.74,1318.832 C715.74,1321.314 717.168,1321.994 719.242,1321.994 Z M738.818681,1307.442 L738.818681,1317.404 C738.818681,1321.654 735.792681,1324.374 731.984681,1324.374 C728.108681,1324.374 725.116681,1321.654 725.116681,1317.404 L725.116681,1307.442 L727.700681,1307.442 L727.700681,1317.574 C727.700681,1320.294 729.604681,1321.96 731.984681,1321.96 C734.296681,1321.96 736.200681,1320.294 736.200681,1317.574 L736.200681,1307.442 L738.818681,1307.442 Z M757.443361,1298.5 L760.061361,1298.5 L760.061361,1324 L757.579361,1324 L757.579361,1321.348 C756.287361,1323.252 753.941361,1324.374 751.323361,1324.374 C746.597361,1324.374 743.129361,1320.6 743.129361,1315.738 C743.129361,1310.842 746.597361,1307.068 751.323361,1307.068 C753.839361,1307.068 756.117361,1308.122 757.443361,1309.89 L757.443361,1298.5 Z M751.697361,1321.96 C754.553361,1321.96 757.477361,1320.09 757.477361,1315.738 C757.477361,1311.386 754.553361,1309.482 751.697361,1309.482 C748.331361,1309.482 745.815361,1312.1 745.815361,1315.704 C745.815361,1319.308 748.297361,1321.96 751.697361,1321.96 Z M777.530042,1307.442 L780.318042,1307.442 L772.158042,1326.312 C770.866042,1329.27 769.064042,1330.494 766.548042,1330.494 C765.732042,1330.494 764.780042,1330.358 763.998042,1330.154 L763.998042,1327.944 C764.780042,1328.046 765.426042,1328.114 766.004042,1328.114 C767.602042,1328.114 768.826042,1327.57 769.744042,1325.462 L770.628042,1323.456 L763.760042,1307.442 L766.582042,1307.442 L772.056042,1320.634 L777.530042,1307.442 Z M801.009403,1307.068 C805.803403,1307.068 809.679403,1310.842 809.679403,1315.704 C809.679403,1320.532 805.803403,1324.34 800.975403,1324.34 C796.181403,1324.306 792.339403,1320.566 792.339403,1315.704 C792.339403,1310.842 796.147403,1307.068 801.009403,1307.068 Z M801.009403,1309.482 C797.541403,1309.482 794.991403,1312.202 795.025403,1315.738 C795.025403,1319.24 797.541403,1321.926 800.975403,1321.926 C804.409403,1321.926 806.993403,1319.206 806.993403,1315.738 C806.993403,1312.168 804.409403,1309.482 801.009403,1309.482 Z M821.776083,1307.068 C825.686083,1307.068 827.930083,1309.754 827.930083,1313.596 L827.930083,1324 L825.312083,1324 L825.312083,1313.902 C825.312083,1311.284 823.748083,1309.482 821.198083,1309.482 C818.648083,1309.482 816.846083,1311.318 816.846083,1313.902 L816.846083,1324 L814.228083,1324 L814.228083,1307.442 L816.676083,1307.442 L816.676083,1309.244 C817.832083,1307.884 819.634083,1307.068 821.776083,1307.068 Z M861.065444,1307.068 C864.941444,1307.068 867.083444,1309.754 867.083444,1313.596 L867.083444,1324 L864.465444,1324 L864.465444,1313.936 C864.465444,1311.318 863.037444,1309.482 860.555444,1309.482 C858.039444,1309.482 856.305444,1311.386 856.305444,1313.698 L856.305444,1324 L853.687444,1324 L853.687444,1313.936 C853.687444,1311.318 852.191444,1309.482 849.743444,1309.482 C847.227444,1309.482 845.527444,1311.318 845.527444,1313.936 L845.527444,1324 L842.909444,1324 L842.909444,1307.442 L845.357444,1307.442 L845.357444,1309.176 C846.513444,1307.85 848.213444,1307.068 850.287444,1307.068 C852.769444,1307.068 854.469444,1308.19 855.387444,1309.924 C856.543444,1308.258 858.515444,1307.068 861.065444,1307.068 Z M878.534125,1307.068 C882.308125,1307.068 884.994125,1309.346 884.994125,1313.8 L884.994125,1324 L882.546125,1324 L882.546125,1321.858 C881.356125,1323.456 879.418125,1324.374 876.970125,1324.374 C873.638125,1324.374 871.190125,1322.606 871.190125,1319.716 C871.190125,1316.928 873.536125,1315.092 877.140125,1315.092 L882.376125,1315.092 L882.376125,1313.664 C882.376125,1310.876 880.812125,1309.482 878.364125,1309.482 C876.290125,1309.482 874.828125,1310.468 873.536125,1312.134 L871.802125,1310.706 C873.366125,1308.19 875.882125,1307.068 878.534125,1307.068 Z M877.310125,1322.198 C880.030125,1322.198 882.376125,1320.226 882.376125,1317.642 L882.376125,1317.234 L877.446125,1317.234 C875.134125,1317.234 873.876125,1318.016 873.876125,1319.58 C873.876125,1321.348 875.474125,1322.198 877.310125,1322.198 Z M895.492806,1307.068 C897.872806,1307.068 899.742806,1308.088 901.034806,1309.686 L899.436806,1311.318 C898.348806,1310.196 896.920806,1309.482 895.356806,1309.482 C893.792806,1309.482 892.602806,1310.196 892.602806,1311.556 C892.602806,1312.678 893.452806,1313.222 895.288806,1313.97 L896.818806,1314.616 C899.810806,1315.874 901.204806,1317.166 901.204806,1319.512 C901.204806,1322.742 898.450806,1324.374 895.390806,1324.374 C892.466806,1324.374 890.256806,1322.912 888.930806,1321.144 L890.596806,1319.41 C891.956806,1320.838 893.350806,1321.96 895.356806,1321.96 C897.090806,1321.96 898.518806,1321.11 898.518806,1319.614 C898.518806,1318.186 897.294806,1317.642 895.628806,1316.962 L894.030806,1316.282 C891.514806,1315.228 889.916806,1314.072 889.916806,1311.692 C889.916806,1308.7 892.466806,1307.068 895.492806,1307.068 Z M905.889486,1324 L905.889486,1298.5 L908.507486,1298.5 L908.507486,1324 L905.889486,1324 Z M911.941486,1314.718 L919.761486,1324 L916.395486,1324 L908.779486,1314.684 L915.681486,1307.442 L919.115486,1307.442 L911.941486,1314.718 Z M924.378167,1299.214 C925.432167,1299.214 926.316167,1300.064 926.316167,1301.118 C926.316167,1302.206 925.432167,1303.022 924.378167,1303.022 C923.256167,1303.022 922.406167,1302.206 922.406167,1301.118 C922.406167,1300.064 923.256167,1299.214 924.378167,1299.214 Z M925.670167,1307.442 L925.670167,1324 L923.052167,1324 L923.052167,1307.442 L925.670167,1307.442 Z M938.922847,1307.068 C942.832847,1307.068 945.076847,1309.754 945.076847,1313.596 L945.076847,1324 L942.458847,1324 L942.458847,1313.902 C942.458847,1311.284 940.894847,1309.482 938.344847,1309.482 C935.794847,1309.482 933.992847,1311.318 933.992847,1313.902 L933.992847,1324 L931.374847,1324 L931.374847,1307.442 L933.822847,1307.442 L933.822847,1309.244 C934.978847,1307.884 936.780847,1307.068 938.922847,1307.068 Z M964.007528,1307.442 L966.489528,1307.442 L966.489528,1322.402 C966.489528,1327.502 963.259528,1330.494 958.431528,1330.494 C954.963528,1330.494 952.277528,1328.93 950.645528,1327.298 L952.175528,1325.462 C953.773528,1326.856 955.643528,1328.08 958.363528,1328.08 C961.729528,1328.08 963.871528,1326.21 963.871528,1322.538 L963.871528,1321.076 C962.511528,1322.81 960.199528,1323.83 957.717528,1323.83 C953.059528,1323.83 949.591528,1320.294 949.591528,1315.466 C949.591528,1310.672 953.059528,1307.068 957.717528,1307.068 C960.335528,1307.068 962.715528,1308.224 964.007528,1310.128 L964.007528,1307.442 Z M958.125528,1321.416 C961.015528,1321.416 963.905528,1319.614 963.905528,1315.466 C963.905528,1311.318 960.981528,1309.55 958.125528,1309.55 C954.759528,1309.55 952.243528,1311.998 952.243528,1315.5 C952.243528,1319.002 954.759528,1321.416 958.125528,1321.416 Z M987.622889,1307.068 C991.396889,1307.068 994.082889,1309.346 994.082889,1313.8 L994.082889,1324 L991.634889,1324 L991.634889,1321.858 C990.444889,1323.456 988.506889,1324.374 986.058889,1324.374 C982.726889,1324.374 980.278889,1322.606 980.278889,1319.716 C980.278889,1316.928 982.624889,1315.092 986.228889,1315.092 L991.464889,1315.092 L991.464889,1313.664 C991.464889,1310.876 989.900889,1309.482 987.452889,1309.482 C985.378889,1309.482 983.916889,1310.468 982.624889,1312.134 L980.890889,1310.706 C982.454889,1308.19 984.970889,1307.068 987.622889,1307.068 Z M986.398889,1322.198 C989.118889,1322.198 991.464889,1320.226 991.464889,1317.642 L991.464889,1317.234 L986.534889,1317.234 C984.222889,1317.234 982.964889,1318.016 982.964889,1319.58 C982.964889,1321.348 984.562889,1322.198 986.398889,1322.198 Z M1007.13157,1307.068 C1011.04157,1307.068 1013.28557,1309.754 1013.28557,1313.596 L1013.28557,1324 L1010.66757,1324 L1010.66757,1313.902 C1010.66757,1311.284 1009.10357,1309.482 1006.55357,1309.482 C1004.00357,1309.482 1002.20157,1311.318 1002.20157,1313.902 L1002.20157,1324 L999.58357,1324 L999.58357,1307.442 L1002.03157,1307.442 L1002.03157,1309.244 C1003.18757,1307.884 1004.98957,1307.068 1007.13157,1307.068 Z M1031.91025,1298.5 L1034.52825,1298.5 L1034.52825,1324 L1032.04625,1324 L1032.04625,1321.348 C1030.75425,1323.252 1028.40825,1324.374 1025.79025,1324.374 C1021.06425,1324.374 1017.59625,1320.6 1017.59625,1315.738 C1017.59625,1310.842 1021.06425,1307.068 1025.79025,1307.068 C1028.30625,1307.068 1030.58425,1308.122 1031.91025,1309.89 L1031.91025,1298.5 Z M1026.16425,1321.96 C1029.02025,1321.96 1031.94425,1320.09 1031.94425,1315.738 C1031.94425,1311.386 1029.02025,1309.482 1026.16425,1309.482 C1022.79825,1309.482 1020.28225,1312.1 1020.28225,1315.704 C1020.28225,1319.308 1022.76425,1321.96 1026.16425,1321.96 Z M425.407389,1348.068 C430.167389,1348.068 433.601389,1351.842 433.601389,1356.704 C433.601389,1361.6 430.133389,1365.374 425.407389,1365.374 C422.959389,1365.374 420.647389,1364.354 419.321389,1362.586 L419.321389,1371.12 L416.703389,1371.12 L416.703389,1348.442 L419.151389,1348.442 L419.151389,1351.094 C420.443389,1349.19 422.789389,1348.068 425.407389,1348.068 Z M425.033389,1362.96 C428.399389,1362.96 430.915389,1360.342 430.915389,1356.738 C430.915389,1353.134 428.433389,1350.482 425.033389,1350.482 C422.177389,1350.482 419.287389,1352.352 419.287389,1356.704 C419.287389,1361.056 422.143389,1362.96 425.033389,1362.96 Z M444.100069,1348.068 C447.874069,1348.068 450.560069,1350.346 450.560069,1354.8 L450.560069,1365 L448.112069,1365 L448.112069,1362.858 C446.922069,1364.456 444.984069,1365.374 442.536069,1365.374 C439.204069,1365.374 436.756069,1363.606 436.756069,1360.716 C436.756069,1357.928 439.102069,1356.092 442.706069,1356.092 L447.942069,1356.092 L447.942069,1354.664 C447.942069,1351.876 446.378069,1350.482 443.930069,1350.482 C441.856069,1350.482 440.394069,1351.468 439.102069,1353.134 L437.368069,1351.706 C438.932069,1349.19 441.448069,1348.068 444.100069,1348.068 Z M442.876069,1363.198 C445.596069,1363.198 447.942069,1361.226 447.942069,1358.642 L447.942069,1358.234 L443.012069,1358.234 C440.700069,1358.234 439.442069,1359.016 439.442069,1360.58 C439.442069,1362.348 441.040069,1363.198 442.876069,1363.198 Z M463.64275,1348.306 C464.18675,1348.306 464.52675,1348.374 464.86675,1348.442 L464.86675,1350.754 L463.88075,1350.754 C461.19475,1350.754 458.67875,1352.454 458.67875,1355.616 L458.67875,1365 L456.06075,1365 L456.06075,1348.442 L458.50875,1348.442 L458.50875,1350.822 C459.73275,1349.19 461.67075,1348.306 463.64275,1348.306 Z M473.93743,1348.068 C477.71143,1348.068 480.39743,1350.346 480.39743,1354.8 L480.39743,1365 L477.94943,1365 L477.94943,1362.858 C476.75943,1364.456 474.82143,1365.374 472.37343,1365.374 C469.04143,1365.374 466.59343,1363.606 466.59343,1360.716 C466.59343,1357.928 468.93943,1356.092 472.54343,1356.092 L477.77943,1356.092 L477.77943,1354.664 C477.77943,1351.876 476.21543,1350.482 473.76743,1350.482 C471.69343,1350.482 470.23143,1351.468 468.93943,1353.134 L467.20543,1351.706 C468.76943,1349.19 471.28543,1348.068 473.93743,1348.068 Z M472.71343,1363.198 C475.43343,1363.198 477.77943,1361.226 477.77943,1358.642 L477.77943,1358.234 L472.84943,1358.234 C470.53743,1358.234 469.27943,1359.016 469.27943,1360.58 C469.27943,1362.348 470.87743,1363.198 472.71343,1363.198 Z M488.516111,1339.5 L488.516111,1365 L485.898111,1365 L485.898111,1339.5 L488.516111,1339.5 Z M496.838792,1339.5 L496.838792,1365 L494.220792,1365 L494.220792,1339.5 L496.838792,1339.5 Z M508.493472,1348.068 C512.267472,1348.068 514.953472,1350.346 514.953472,1354.8 L514.953472,1365 L512.505472,1365 L512.505472,1362.858 C511.315472,1364.456 509.377472,1365.374 506.929472,1365.374 C503.597472,1365.374 501.149472,1363.606 501.149472,1360.716 C501.149472,1357.928 503.495472,1356.092 507.099472,1356.092 L512.335472,1356.092 L512.335472,1354.664 C512.335472,1351.876 510.771472,1350.482 508.323472,1350.482 C506.249472,1350.482 504.787472,1351.468 503.495472,1353.134 L501.761472,1351.706 C503.325472,1349.19 505.841472,1348.068 508.493472,1348.068 Z M507.269472,1363.198 C509.989472,1363.198 512.335472,1361.226 512.335472,1358.642 L512.335472,1358.234 L507.405472,1358.234 C505.093472,1358.234 503.835472,1359.016 503.835472,1360.58 C503.835472,1362.348 505.433472,1363.198 507.269472,1363.198 Z M533.748153,1365 L530.722153,1365 L525.996153,1358.302 L521.304153,1365 L518.244153,1365 L524.500153,1356.364 L518.754153,1348.442 L521.780153,1348.442 L525.996153,1354.46 L530.246153,1348.442 L533.272153,1348.442 L527.458153,1356.364 L533.748153,1365 Z M553.623514,1362.994 C554.269514,1362.994 554.983514,1362.926 555.833514,1362.79 L555.833514,1365 C554.983514,1365.204 554.133514,1365.374 553.079514,1365.374 C549.815514,1365.374 547.503514,1363.776 547.503514,1360.002 L547.503514,1350.788 L544.715514,1350.788 L544.715514,1348.442 L547.503514,1348.442 L547.503514,1343.92 L550.121514,1343.92 L550.121514,1348.442 L555.289514,1348.442 L555.289514,1350.788 L550.121514,1350.788 L550.121514,1359.832 C550.121514,1362.314 551.549514,1362.994 553.623514,1362.994 Z M574.186194,1355.548 C574.186194,1356.432 574.050194,1357.214 573.982194,1357.52 L560.926194,1357.52 C561.266194,1360.818 563.714194,1362.96 566.978194,1362.96 C569.052194,1362.96 570.684194,1362.076 572.044194,1360.716 L573.574194,1362.484 C571.908194,1364.252 569.664194,1365.374 566.944194,1365.374 C561.946194,1365.374 558.172194,1361.6 558.172194,1356.738 C558.172194,1351.91 561.878194,1348.068 566.638194,1348.068 C570.888194,1348.068 574.186194,1351.128 574.186194,1355.548 Z M566.570194,1350.448 C563.782194,1350.448 561.572194,1352.352 561.028194,1355.208 L571.500194,1355.208 C571.466194,1352.148 569.222194,1350.448 566.570194,1350.448 Z M586.214875,1348.068 C589.206875,1348.068 591.586875,1349.496 593.048875,1351.672 L591.178875,1353.168 C589.954875,1351.536 588.390875,1350.482 586.248875,1350.482 C582.780875,1350.482 580.230875,1353.236 580.230875,1356.704 C580.230875,1360.206 582.780875,1362.96 586.248875,1362.96 C588.356875,1362.96 589.920875,1361.94 591.144875,1360.308 L593.014875,1361.77 C591.552875,1363.946 589.172875,1365.374 586.214875,1365.374 C581.386875,1365.374 577.544875,1361.566 577.544875,1356.704 C577.544875,1351.876 581.386875,1348.068 586.214875,1348.068 Z M605.009556,1348.068 C608.885556,1348.068 611.129556,1350.754 611.129556,1354.596 L611.129556,1365 L608.511556,1365 L608.511556,1354.936 C608.511556,1352.318 606.947556,1350.482 604.397556,1350.482 C601.847556,1350.482 600.045556,1352.352 600.045556,1354.936 L600.045556,1365 L597.427556,1365 L597.427556,1339.5 L600.045556,1339.5 L600.045556,1350.312 C601.133556,1348.918 602.867556,1348.068 605.009556,1348.068 Z M624.178236,1348.068 C628.088236,1348.068 630.332236,1350.754 630.332236,1354.596 L630.332236,1365 L627.714236,1365 L627.714236,1354.902 C627.714236,1352.284 626.150236,1350.482 623.600236,1350.482 C621.050236,1350.482 619.248236,1352.318 619.248236,1354.902 L619.248236,1365 L616.630236,1365 L616.630236,1348.442 L619.078236,1348.442 L619.078236,1350.244 C620.234236,1348.884 622.036236,1348.068 624.178236,1348.068 Z M637.158917,1340.214 C638.212917,1340.214 639.096917,1341.064 639.096917,1342.118 C639.096917,1343.206 638.212917,1344.022 637.158917,1344.022 C636.036917,1344.022 635.186917,1343.206 635.186917,1342.118 C635.186917,1341.064 636.036917,1340.214 637.158917,1340.214 Z M638.450917,1348.442 L638.450917,1365 L635.832917,1365 L635.832917,1348.442 L638.450917,1348.442 Z M657.415597,1348.442 L659.897597,1348.442 L659.897597,1371.12 L657.279597,1371.12 L657.279597,1362.586 C655.919597,1364.354 653.607597,1365.374 651.159597,1365.374 C646.433597,1365.374 642.965597,1361.6 642.965597,1356.704 C642.965597,1351.842 646.433597,1348.068 651.159597,1348.068 C653.777597,1348.068 656.123597,1349.224 657.415597,1351.094 L657.415597,1348.442 Z M651.533597,1362.96 C654.389597,1362.96 657.313597,1361.056 657.313597,1356.704 C657.313597,1352.352 654.389597,1350.482 651.533597,1350.482 C648.133597,1350.482 645.651597,1353.168 645.651597,1356.738 C645.651597,1360.342 648.167597,1362.96 651.533597,1362.96 Z M679.100278,1348.442 L679.100278,1358.404 C679.100278,1362.654 676.074278,1365.374 672.266278,1365.374 C668.390278,1365.374 665.398278,1362.654 665.398278,1358.404 L665.398278,1348.442 L667.982278,1348.442 L667.982278,1358.574 C667.982278,1361.294 669.886278,1362.96 672.266278,1362.96 C674.578278,1362.96 676.482278,1361.294 676.482278,1358.574 L676.482278,1348.442 L679.100278,1348.442 Z M699.424958,1355.548 C699.424958,1356.432 699.288958,1357.214 699.220958,1357.52 L686.164958,1357.52 C686.504958,1360.818 688.952958,1362.96 692.216958,1362.96 C694.290958,1362.96 695.922958,1362.076 697.282958,1360.716 L698.812958,1362.484 C697.146958,1364.252 694.902958,1365.374 692.182958,1365.374 C687.184958,1365.374 683.410958,1361.6 683.410958,1356.738 C683.410958,1351.91 687.116958,1348.068 691.876958,1348.068 C696.126958,1348.068 699.424958,1351.128 699.424958,1355.548 Z M691.808958,1350.448 C689.020958,1350.448 686.810958,1352.352 686.266958,1355.208 L696.738958,1355.208 C696.704958,1352.148 694.460958,1350.448 691.808958,1350.448 Z M708.971639,1348.068 C711.351639,1348.068 713.221639,1349.088 714.513639,1350.686 L712.915639,1352.318 C711.827639,1351.196 710.399639,1350.482 708.835639,1350.482 C707.271639,1350.482 706.081639,1351.196 706.081639,1352.556 C706.081639,1353.678 706.931639,1354.222 708.767639,1354.97 L710.297639,1355.616 C713.289639,1356.874 714.683639,1358.166 714.683639,1360.512 C714.683639,1363.742 711.929639,1365.374 708.869639,1365.374 C705.945639,1365.374 703.735639,1363.912 702.409639,1362.144 L704.075639,1360.41 C705.435639,1361.838 706.829639,1362.96 708.835639,1362.96 C710.569639,1362.96 711.997639,1362.11 711.997639,1360.614 C711.997639,1359.186 710.773639,1358.642 709.107639,1357.962 L707.509639,1357.282 C704.993639,1356.228 703.395639,1355.072 703.395639,1352.692 C703.395639,1349.7 705.945639,1348.068 708.971639,1348.068 Z M722.904319,1361.94 L721.510319,1371.086 L719.368319,1371.086 L719.810319,1361.94 L722.904319,1361.94 Z M745.465681,1348.068 C748.457681,1348.068 750.837681,1349.496 752.299681,1351.672 L750.429681,1353.168 C749.205681,1351.536 747.641681,1350.482 745.499681,1350.482 C742.031681,1350.482 739.481681,1353.236 739.481681,1356.704 C739.481681,1360.206 742.031681,1362.96 745.499681,1362.96 C747.607681,1362.96 749.171681,1361.94 750.395681,1360.308 L752.265681,1361.77 C750.803681,1363.946 748.423681,1365.374 745.465681,1365.374 C740.637681,1365.374 736.795681,1361.566 736.795681,1356.704 C736.795681,1351.876 740.637681,1348.068 745.465681,1348.068 Z M762.628361,1348.068 C766.402361,1348.068 769.088361,1350.346 769.088361,1354.8 L769.088361,1365 L766.640361,1365 L766.640361,1362.858 C765.450361,1364.456 763.512361,1365.374 761.064361,1365.374 C757.732361,1365.374 755.284361,1363.606 755.284361,1360.716 C755.284361,1357.928 757.630361,1356.092 761.234361,1356.092 L766.470361,1356.092 L766.470361,1354.664 C766.470361,1351.876 764.906361,1350.482 762.458361,1350.482 C760.384361,1350.482 758.922361,1351.468 757.630361,1353.134 L755.896361,1351.706 C757.460361,1349.19 759.976361,1348.068 762.628361,1348.068 Z M761.404361,1363.198 C764.124361,1363.198 766.470361,1361.226 766.470361,1358.642 L766.470361,1358.234 L761.540361,1358.234 C759.228361,1358.234 757.970361,1359.016 757.970361,1360.58 C757.970361,1362.348 759.568361,1363.198 761.404361,1363.198 Z M783.293042,1348.068 C788.053042,1348.068 791.487042,1351.842 791.487042,1356.704 C791.487042,1361.6 788.019042,1365.374 783.293042,1365.374 C780.845042,1365.374 778.533042,1364.354 777.207042,1362.586 L777.207042,1371.12 L774.589042,1371.12 L774.589042,1348.442 L777.037042,1348.442 L777.037042,1351.094 C778.329042,1349.19 780.675042,1348.068 783.293042,1348.068 Z M782.919042,1362.96 C786.285042,1362.96 788.801042,1360.342 788.801042,1356.738 C788.801042,1353.134 786.319042,1350.482 782.919042,1350.482 C780.063042,1350.482 777.173042,1352.352 777.173042,1356.704 C777.173042,1361.056 780.029042,1362.96 782.919042,1362.96 Z M802.869722,1362.994 C803.515722,1362.994 804.229722,1362.926 805.079722,1362.79 L805.079722,1365 C804.229722,1365.204 803.379722,1365.374 802.325722,1365.374 C799.061722,1365.374 796.749722,1363.776 796.749722,1360.002 L796.749722,1350.788 L793.961722,1350.788 L793.961722,1348.442 L796.749722,1348.442 L796.749722,1343.92 L799.367722,1343.92 L799.367722,1348.442 L804.535722,1348.442 L804.535722,1350.788 L799.367722,1350.788 L799.367722,1359.832 C799.367722,1362.314 800.795722,1362.994 802.869722,1362.994 Z M822.446403,1348.442 L822.446403,1358.404 C822.446403,1362.654 819.420403,1365.374 815.612403,1365.374 C811.736403,1365.374 808.744403,1362.654 808.744403,1358.404 L808.744403,1348.442 L811.328403,1348.442 L811.328403,1358.574 C811.328403,1361.294 813.232403,1362.96 815.612403,1362.96 C817.924403,1362.96 819.828403,1361.294 819.828403,1358.574 L819.828403,1348.442 L822.446403,1348.442 Z M835.529083,1348.306 C836.073083,1348.306 836.413083,1348.374 836.753083,1348.442 L836.753083,1350.754 L835.767083,1350.754 C833.081083,1350.754 830.565083,1352.454 830.565083,1355.616 L830.565083,1365 L827.947083,1365 L827.947083,1348.442 L830.395083,1348.442 L830.395083,1350.822 C831.619083,1349.19 833.557083,1348.306 835.529083,1348.306 Z M841.539764,1340.214 C842.593764,1340.214 843.477764,1341.064 843.477764,1342.118 C843.477764,1343.206 842.593764,1344.022 841.539764,1344.022 C840.417764,1344.022 839.567764,1343.206 839.567764,1342.118 C839.567764,1341.064 840.417764,1340.214 841.539764,1340.214 Z M842.831764,1348.442 L842.831764,1365 L840.213764,1365 L840.213764,1348.442 L842.831764,1348.442 Z M856.084444,1348.068 C859.994444,1348.068 862.238444,1350.754 862.238444,1354.596 L862.238444,1365 L859.620444,1365 L859.620444,1354.902 C859.620444,1352.284 858.056444,1350.482 855.506444,1350.482 C852.956444,1350.482 851.154444,1352.318 851.154444,1354.902 L851.154444,1365 L848.536444,1365 L848.536444,1348.442 L850.984444,1348.442 L850.984444,1350.244 C852.140444,1348.884 853.942444,1348.068 856.084444,1348.068 Z M881.169125,1348.442 L883.651125,1348.442 L883.651125,1363.402 C883.651125,1368.502 880.421125,1371.494 875.593125,1371.494 C872.125125,1371.494 869.439125,1369.93 867.807125,1368.298 L869.337125,1366.462 C870.935125,1367.856 872.805125,1369.08 875.525125,1369.08 C878.891125,1369.08 881.033125,1367.21 881.033125,1363.538 L881.033125,1362.076 C879.673125,1363.81 877.361125,1364.83 874.879125,1364.83 C870.221125,1364.83 866.753125,1361.294 866.753125,1356.466 C866.753125,1351.672 870.221125,1348.068 874.879125,1348.068 C877.497125,1348.068 879.877125,1349.224 881.169125,1351.128 L881.169125,1348.442 Z M875.287125,1362.416 C878.177125,1362.416 881.067125,1360.614 881.067125,1356.466 C881.067125,1352.318 878.143125,1350.55 875.287125,1350.55 C871.921125,1350.55 869.405125,1352.998 869.405125,1356.5 C869.405125,1360.002 871.921125,1362.416 875.287125,1362.416 Z M905.668486,1362.994 C906.314486,1362.994 907.028486,1362.926 907.878486,1362.79 L907.878486,1365 C907.028486,1365.204 906.178486,1365.374 905.124486,1365.374 C901.860486,1365.374 899.548486,1363.776 899.548486,1360.002 L899.548486,1350.788 L896.760486,1350.788 L896.760486,1348.442 L899.548486,1348.442 L899.548486,1343.92 L902.166486,1343.92 L902.166486,1348.442 L907.334486,1348.442 L907.334486,1350.788 L902.166486,1350.788 L902.166486,1359.832 C902.166486,1362.314 903.594486,1362.994 905.668486,1362.994 Z M919.329167,1348.068 C923.205167,1348.068 925.449167,1350.754 925.449167,1354.596 L925.449167,1365 L922.831167,1365 L922.831167,1354.936 C922.831167,1352.318 921.267167,1350.482 918.717167,1350.482 C916.167167,1350.482 914.365167,1352.352 914.365167,1354.936 L914.365167,1365 L911.747167,1365 L911.747167,1339.5 L914.365167,1339.5 L914.365167,1350.312 C915.453167,1348.918 917.187167,1348.068 919.329167,1348.068 Z M945.773847,1355.548 C945.773847,1356.432 945.637847,1357.214 945.569847,1357.52 L932.513847,1357.52 C932.853847,1360.818 935.301847,1362.96 938.565847,1362.96 C940.639847,1362.96 942.271847,1362.076 943.631847,1360.716 L945.161847,1362.484 C943.495847,1364.252 941.251847,1365.374 938.531847,1365.374 C933.533847,1365.374 929.759847,1361.6 929.759847,1356.738 C929.759847,1351.91 933.465847,1348.068 938.225847,1348.068 C942.475847,1348.068 945.773847,1351.128 945.773847,1355.548 Z M938.157847,1350.448 C935.369847,1350.448 933.159847,1352.352 932.615847,1355.208 L943.087847,1355.208 C943.053847,1352.148 940.809847,1350.448 938.157847,1350.448 Z M966.635208,1362.994 C967.281208,1362.994 967.995208,1362.926 968.845208,1362.79 L968.845208,1365 C967.995208,1365.204 967.145208,1365.374 966.091208,1365.374 C962.827208,1365.374 960.515208,1363.776 960.515208,1360.002 L960.515208,1350.788 L957.727208,1350.788 L957.727208,1348.442 L960.515208,1348.442 L960.515208,1343.92 L963.133208,1343.92 L963.133208,1348.442 L968.301208,1348.442 L968.301208,1350.788 L963.133208,1350.788 L963.133208,1359.832 C963.133208,1362.314 964.561208,1362.994 966.635208,1362.994 Z M980.295889,1348.306 C980.839889,1348.306 981.179889,1348.374 981.519889,1348.442 L981.519889,1350.754 L980.533889,1350.754 C977.847889,1350.754 975.331889,1352.454 975.331889,1355.616 L975.331889,1365 L972.713889,1365 L972.713889,1348.442 L975.161889,1348.442 L975.161889,1350.822 C976.385889,1349.19 978.323889,1348.306 980.295889,1348.306 Z M990.59057,1348.068 C994.36457,1348.068 997.05057,1350.346 997.05057,1354.8 L997.05057,1365 L994.60257,1365 L994.60257,1362.858 C993.41257,1364.456 991.47457,1365.374 989.02657,1365.374 C985.69457,1365.374 983.24657,1363.606 983.24657,1360.716 C983.24657,1357.928 985.59257,1356.092 989.19657,1356.092 L994.43257,1356.092 L994.43257,1354.664 C994.43257,1351.876 992.86857,1350.482 990.42057,1350.482 C988.34657,1350.482 986.88457,1351.468 985.59257,1353.134 L983.85857,1351.706 C985.42257,1349.19 987.93857,1348.068 990.59057,1348.068 Z M989.36657,1363.198 C992.08657,1363.198 994.43257,1361.226 994.43257,1358.642 L994.43257,1358.234 L989.50257,1358.234 C987.19057,1358.234 985.93257,1359.016 985.93257,1360.58 C985.93257,1362.348 987.53057,1363.198 989.36657,1363.198 Z M1003.87725,1340.214 C1004.93125,1340.214 1005.81525,1341.064 1005.81525,1342.118 C1005.81525,1343.206 1004.93125,1344.022 1003.87725,1344.022 C1002.75525,1344.022 1001.90525,1343.206 1001.90525,1342.118 C1001.90525,1341.064 1002.75525,1340.214 1003.87725,1340.214 Z M1005.16925,1348.442 L1005.16925,1365 L1002.55125,1365 L1002.55125,1348.442 L1005.16925,1348.442 Z M1018.42193,1348.068 C1022.33193,1348.068 1024.57593,1350.754 1024.57593,1354.596 L1024.57593,1365 L1021.95793,1365 L1021.95793,1354.902 C1021.95793,1352.284 1020.39393,1350.482 1017.84393,1350.482 C1015.29393,1350.482 1013.49193,1352.318 1013.49193,1354.902 L1013.49193,1365 L1010.87393,1365 L1010.87393,1348.442 L1013.32193,1348.442 L1013.32193,1350.244 C1014.47793,1348.884 1016.27993,1348.068 1018.42193,1348.068 Z M432.645729,1389.068 C436.521729,1389.068 438.663729,1391.754 438.663729,1395.596 L438.663729,1406 L436.045729,1406 L436.045729,1395.936 C436.045729,1393.318 434.617729,1391.482 432.135729,1391.482 C429.619729,1391.482 427.885729,1393.386 427.885729,1395.698 L427.885729,1406 L425.267729,1406 L425.267729,1395.936 C425.267729,1393.318 423.771729,1391.482 421.323729,1391.482 C418.807729,1391.482 417.107729,1393.318 417.107729,1395.936 L417.107729,1406 L414.489729,1406 L414.489729,1389.442 L416.937729,1389.442 L416.937729,1391.176 C418.093729,1389.85 419.793729,1389.068 421.867729,1389.068 C424.349729,1389.068 426.049729,1390.19 426.967729,1391.924 C428.123729,1390.258 430.095729,1389.068 432.645729,1389.068 Z M451.64441,1389.068 C456.43841,1389.068 460.31441,1392.842 460.31441,1397.704 C460.31441,1402.532 456.43841,1406.34 451.61041,1406.34 C446.81641,1406.306 442.97441,1402.566 442.97441,1397.704 C442.97441,1392.842 446.78241,1389.068 451.64441,1389.068 Z M451.64441,1391.482 C448.17641,1391.482 445.62641,1394.202 445.66041,1397.738 C445.66041,1401.24 448.17641,1403.926 451.61041,1403.926 C455.04441,1403.926 457.62841,1401.206 457.62841,1397.738 C457.62841,1394.168 455.04441,1391.482 451.64441,1391.482 Z M475.94709,1389.442 L478.73509,1389.442 L470.94909,1406.374 L469.99709,1406.374 L462.17709,1389.442 L464.96509,1389.442 L470.47309,1401.92 L475.94709,1389.442 Z M496.611771,1396.548 C496.611771,1397.432 496.475771,1398.214 496.407771,1398.52 L483.351771,1398.52 C483.691771,1401.818 486.139771,1403.96 489.403771,1403.96 C491.477771,1403.96 493.109771,1403.076 494.469771,1401.716 L495.999771,1403.484 C494.333771,1405.252 492.089771,1406.374 489.369771,1406.374 C484.371771,1406.374 480.597771,1402.6 480.597771,1397.738 C480.597771,1392.91 484.303771,1389.068 489.063771,1389.068 C493.313771,1389.068 496.611771,1392.128 496.611771,1396.548 Z M488.995771,1391.448 C486.207771,1391.448 483.997771,1393.352 483.453771,1396.208 L493.925771,1396.208 C493.891771,1393.148 491.647771,1391.448 488.995771,1391.448 Z M519.316451,1389.068 C523.192451,1389.068 525.334451,1391.754 525.334451,1395.596 L525.334451,1406 L522.716451,1406 L522.716451,1395.936 C522.716451,1393.318 521.288451,1391.482 518.806451,1391.482 C516.290451,1391.482 514.556451,1393.386 514.556451,1395.698 L514.556451,1406 L511.938451,1406 L511.938451,1395.936 C511.938451,1393.318 510.442451,1391.482 507.994451,1391.482 C505.478451,1391.482 503.778451,1393.318 503.778451,1395.936 L503.778451,1406 L501.160451,1406 L501.160451,1389.442 L503.608451,1389.442 L503.608451,1391.176 C504.764451,1389.85 506.464451,1389.068 508.538451,1389.068 C511.020451,1389.068 512.720451,1390.19 513.638451,1391.924 C514.794451,1390.258 516.766451,1389.068 519.316451,1389.068 Z M545.659132,1396.548 C545.659132,1397.432 545.523132,1398.214 545.455132,1398.52 L532.399132,1398.52 C532.739132,1401.818 535.187132,1403.96 538.451132,1403.96 C540.525132,1403.96 542.157132,1403.076 543.517132,1401.716 L545.047132,1403.484 C543.381132,1405.252 541.137132,1406.374 538.417132,1406.374 C533.419132,1406.374 529.645132,1402.6 529.645132,1397.738 C529.645132,1392.91 533.351132,1389.068 538.111132,1389.068 C542.361132,1389.068 545.659132,1392.128 545.659132,1396.548 Z M538.043132,1391.448 C535.255132,1391.448 533.045132,1393.352 532.501132,1396.208 L542.973132,1396.208 C542.939132,1393.148 540.695132,1391.448 538.043132,1391.448 Z M557.755812,1389.068 C561.665812,1389.068 563.909812,1391.754 563.909812,1395.596 L563.909812,1406 L561.291812,1406 L561.291812,1395.902 C561.291812,1393.284 559.727812,1391.482 557.177812,1391.482 C554.627812,1391.482 552.825812,1393.318 552.825812,1395.902 L552.825812,1406 L550.207812,1406 L550.207812,1389.442 L552.655812,1389.442 L552.655812,1391.244 C553.811812,1389.884 555.613812,1389.068 557.755812,1389.068 Z M576.244493,1403.994 C576.890493,1403.994 577.604493,1403.926 578.454493,1403.79 L578.454493,1406 C577.604493,1406.204 576.754493,1406.374 575.700493,1406.374 C572.436493,1406.374 570.124493,1404.776 570.124493,1401.002 L570.124493,1391.788 L567.336493,1391.788 L567.336493,1389.442 L570.124493,1389.442 L570.124493,1384.92 L572.742493,1384.92 L572.742493,1389.442 L577.910493,1389.442 L577.910493,1391.788 L572.742493,1391.788 L572.742493,1400.832 C572.742493,1403.314 574.170493,1403.994 576.244493,1403.994 Z M593.127854,1381.214 C594.181854,1381.214 595.065854,1382.064 595.065854,1383.118 C595.065854,1384.206 594.181854,1385.022 593.127854,1385.022 C592.005854,1385.022 591.155854,1384.206 591.155854,1383.118 C591.155854,1382.064 592.005854,1381.214 593.127854,1381.214 Z M594.419854,1389.442 L594.419854,1406 L591.801854,1406 L591.801854,1389.442 L594.419854,1389.442 Z M607.672535,1389.068 C611.582535,1389.068 613.826535,1391.754 613.826535,1395.596 L613.826535,1406 L611.208535,1406 L611.208535,1395.902 C611.208535,1393.284 609.644535,1391.482 607.094535,1391.482 C604.544535,1391.482 602.742535,1393.318 602.742535,1395.902 L602.742535,1406 L600.124535,1406 L600.124535,1389.442 L602.572535,1389.442 L602.572535,1391.244 C603.728535,1389.884 605.530535,1389.068 607.672535,1389.068 Z M635.299896,1382.506 C633.259896,1382.506 631.831896,1383.186 631.831896,1385.668 L631.831896,1389.442 L635.979896,1389.442 L635.979896,1391.788 L631.831896,1391.788 L631.831896,1406 L629.213896,1406 L629.213896,1391.788 L626.833896,1391.788 L626.833896,1389.442 L629.213896,1389.442 L629.213896,1385.498 C629.213896,1381.724 631.491896,1380.126 634.687896,1380.126 C635.503896,1380.126 636.149896,1380.228 636.761896,1380.398 L636.761896,1382.608 C636.217896,1382.54 635.741896,1382.506 635.299896,1382.506 Z M646.648576,1389.306 C647.192576,1389.306 647.532576,1389.374 647.872576,1389.442 L647.872576,1391.754 L646.886576,1391.754 C644.200576,1391.754 641.684576,1393.454 641.684576,1396.616 L641.684576,1406 L639.066576,1406 L639.066576,1389.442 L641.514576,1389.442 L641.514576,1391.822 C642.738576,1390.19 644.676576,1389.306 646.648576,1389.306 Z M658.473257,1389.068 C663.267257,1389.068 667.143257,1392.842 667.143257,1397.704 C667.143257,1402.532 663.267257,1406.34 658.439257,1406.34 C653.645257,1406.306 649.803257,1402.566 649.803257,1397.704 C649.803257,1392.842 653.611257,1389.068 658.473257,1389.068 Z M658.473257,1391.482 C655.005257,1391.482 652.455257,1394.202 652.489257,1397.738 C652.489257,1401.24 655.005257,1403.926 658.439257,1403.926 C661.873257,1403.926 664.457257,1401.206 664.457257,1397.738 C664.457257,1394.168 661.873257,1391.482 658.473257,1391.482 Z M679.239937,1389.068 C683.149937,1389.068 685.393937,1391.754 685.393937,1395.596 L685.393937,1406 L682.775937,1406 L682.775937,1395.902 C682.775937,1393.284 681.211937,1391.482 678.661937,1391.482 C676.111937,1391.482 674.309937,1393.318 674.309937,1395.902 L674.309937,1406 L671.691937,1406 L671.691937,1389.442 L674.139937,1389.442 L674.139937,1391.244 C675.295937,1389.884 677.097937,1389.068 679.239937,1389.068 Z M697.728618,1403.994 C698.374618,1403.994 699.088618,1403.926 699.938618,1403.79 L699.938618,1406 C699.088618,1406.204 698.238618,1406.374 697.184618,1406.374 C693.920618,1406.374 691.608618,1404.776 691.608618,1401.002 L691.608618,1391.788 L688.820618,1391.788 L688.820618,1389.442 L691.608618,1389.442 L691.608618,1384.92 L694.226618,1384.92 L694.226618,1389.442 L699.394618,1389.442 L699.394618,1391.788 L694.226618,1391.788 L694.226618,1400.832 C694.226618,1403.314 695.654618,1403.994 697.728618,1403.994 Z M720.765979,1389.068 C725.559979,1389.068 729.435979,1392.842 729.435979,1397.704 C729.435979,1402.532 725.559979,1406.34 720.731979,1406.34 C715.937979,1406.306 712.095979,1402.566 712.095979,1397.704 C712.095979,1392.842 715.903979,1389.068 720.765979,1389.068 Z M720.765979,1391.482 C717.297979,1391.482 714.747979,1394.202 714.781979,1397.738 C714.781979,1401.24 717.297979,1403.926 720.731979,1403.926 C724.165979,1403.926 726.749979,1401.206 726.749979,1397.738 C726.749979,1394.168 724.165979,1391.482 720.765979,1391.482 Z M740.47866,1382.506 C738.43866,1382.506 737.01066,1383.186 737.01066,1385.668 L737.01066,1389.442 L741.15866,1389.442 L741.15866,1391.788 L737.01066,1391.788 L737.01066,1406 L734.39266,1406 L734.39266,1391.788 L732.01266,1391.788 L732.01266,1389.442 L734.39266,1389.442 L734.39266,1385.498 C734.39266,1381.724 736.67066,1380.126 739.86666,1380.126 C740.68266,1380.126 741.32866,1380.228 741.94066,1380.398 L741.94066,1382.608 C741.39666,1382.54 740.92066,1382.506 740.47866,1382.506 Z M763.108021,1383.186 C767.188021,1383.186 770.554021,1385.158 772.424021,1388.014 L770.452021,1389.578 C768.786021,1387.13 766.270021,1385.634 763.142021,1385.634 C758.076021,1385.634 754.200021,1389.544 754.200021,1394.78 C754.200021,1400.016 758.076021,1403.926 763.142021,1403.926 C766.270021,1403.926 768.786021,1402.43 770.452021,1399.982 L772.424021,1401.546 C770.622021,1404.402 767.188021,1406.374 763.108021,1406.374 C756.614021,1406.374 751.446021,1401.342 751.446021,1394.78 C751.446021,1388.218 756.614021,1383.186 763.108021,1383.186 Z M784.554701,1389.068 C788.430701,1389.068 790.674701,1391.754 790.674701,1395.596 L790.674701,1406 L788.056701,1406 L788.056701,1395.936 C788.056701,1393.318 786.492701,1391.482 783.942701,1391.482 C781.392701,1391.482 779.590701,1393.352 779.590701,1395.936 L779.590701,1406 L776.972701,1406 L776.972701,1380.5 L779.590701,1380.5 L779.590701,1391.312 C780.678701,1389.918 782.412701,1389.068 784.554701,1389.068 Z M797.501382,1381.214 C798.555382,1381.214 799.439382,1382.064 799.439382,1383.118 C799.439382,1384.206 798.555382,1385.022 797.501382,1385.022 C796.379382,1385.022 795.529382,1384.206 795.529382,1383.118 C795.529382,1382.064 796.379382,1381.214 797.501382,1381.214 Z M798.793382,1389.442 L798.793382,1406 L796.175382,1406 L796.175382,1389.442 L798.793382,1389.442 Z M811.978063,1389.068 C814.970063,1389.068 817.350063,1390.496 818.812063,1392.672 L816.942063,1394.168 C815.718063,1392.536 814.154063,1391.482 812.012063,1391.482 C808.544063,1391.482 805.994063,1394.236 805.994063,1397.704 C805.994063,1401.206 808.544063,1403.96 812.012063,1403.96 C814.120063,1403.96 815.684063,1402.94 816.908063,1401.308 L818.778063,1402.77 C817.316063,1404.946 814.936063,1406.374 811.978063,1406.374 C807.150063,1406.374 803.308063,1402.566 803.308063,1397.704 C803.308063,1392.876 807.150063,1389.068 811.978063,1389.068 Z M829.140743,1389.068 C832.914743,1389.068 835.600743,1391.346 835.600743,1395.8 L835.600743,1406 L833.152743,1406 L833.152743,1403.858 C831.962743,1405.456 830.024743,1406.374 827.576743,1406.374 C824.244743,1406.374 821.796743,1404.606 821.796743,1401.716 C821.796743,1398.928 824.142743,1397.092 827.746743,1397.092 L832.982743,1397.092 L832.982743,1395.664 C832.982743,1392.876 831.418743,1391.482 828.970743,1391.482 C826.896743,1391.482 825.434743,1392.468 824.142743,1394.134 L822.408743,1392.706 C823.972743,1390.19 826.488743,1389.068 829.140743,1389.068 Z M827.916743,1404.198 C830.636743,1404.198 832.982743,1402.226 832.982743,1399.642 L832.982743,1399.234 L828.052743,1399.234 C825.740743,1399.234 824.482743,1400.016 824.482743,1401.58 C824.482743,1403.348 826.080743,1404.198 827.916743,1404.198 Z M854.531424,1389.442 L857.013424,1389.442 L857.013424,1404.402 C857.013424,1409.502 853.783424,1412.494 848.955424,1412.494 C845.487424,1412.494 842.801424,1410.93 841.169424,1409.298 L842.699424,1407.462 C844.297424,1408.856 846.167424,1410.08 848.887424,1410.08 C852.253424,1410.08 854.395424,1408.21 854.395424,1404.538 L854.395424,1403.076 C853.035424,1404.81 850.723424,1405.83 848.241424,1405.83 C843.583424,1405.83 840.115424,1402.294 840.115424,1397.466 C840.115424,1392.672 843.583424,1389.068 848.241424,1389.068 C850.859424,1389.068 853.239424,1390.224 854.531424,1392.128 L854.531424,1389.442 Z M848.649424,1403.416 C851.539424,1403.416 854.429424,1401.614 854.429424,1397.466 C854.429424,1393.318 851.505424,1391.55 848.649424,1391.55 C845.283424,1391.55 842.767424,1393.998 842.767424,1397.5 C842.767424,1401.002 845.283424,1403.416 848.649424,1403.416 Z M870.198104,1389.068 C874.992104,1389.068 878.868104,1392.842 878.868104,1397.704 C878.868104,1402.532 874.992104,1406.34 870.164104,1406.34 C865.370104,1406.306 861.528104,1402.566 861.528104,1397.704 C861.528104,1392.842 865.336104,1389.068 870.198104,1389.068 Z M870.198104,1391.482 C866.730104,1391.482 864.180104,1394.202 864.214104,1397.738 C864.214104,1401.24 866.730104,1403.926 870.164104,1403.926 C873.598104,1403.926 876.182104,1401.206 876.182104,1397.738 C876.182104,1394.168 873.598104,1391.482 870.198104,1391.482 Z M886.918785,1383.56 L885.456785,1392.298 L883.382785,1392.298 L883.858785,1383.56 L886.918785,1383.56 Z M897.213465,1389.068 C899.593465,1389.068 901.463465,1390.088 902.755465,1391.686 L901.157465,1393.318 C900.069465,1392.196 898.641465,1391.482 897.077465,1391.482 C895.513465,1391.482 894.323465,1392.196 894.323465,1393.556 C894.323465,1394.678 895.173465,1395.222 897.009465,1395.97 L898.539465,1396.616 C901.531465,1397.874 902.925465,1399.166 902.925465,1401.512 C902.925465,1404.742 900.171465,1406.374 897.111465,1406.374 C894.187465,1406.374 891.977465,1404.912 890.651465,1403.144 L892.317465,1401.41 C893.677465,1402.838 895.071465,1403.96 897.077465,1403.96 C898.811465,1403.96 900.239465,1403.11 900.239465,1401.614 C900.239465,1400.186 899.015465,1399.642 897.349465,1398.962 L895.751465,1398.282 C893.235465,1397.228 891.637465,1396.072 891.637465,1393.692 C891.637465,1390.7 894.187465,1389.068 897.213465,1389.068 Z M922.086826,1389.068 C924.466826,1389.068 926.336826,1390.088 927.628826,1391.686 L926.030826,1393.318 C924.942826,1392.196 923.514826,1391.482 921.950826,1391.482 C920.386826,1391.482 919.196826,1392.196 919.196826,1393.556 C919.196826,1394.678 920.046826,1395.222 921.882826,1395.97 L923.412826,1396.616 C926.404826,1397.874 927.798826,1399.166 927.798826,1401.512 C927.798826,1404.742 925.044826,1406.374 921.984826,1406.374 C919.060826,1406.374 916.850826,1404.912 915.524826,1403.144 L917.190826,1401.41 C918.550826,1402.838 919.944826,1403.96 921.950826,1403.96 C923.684826,1403.96 925.112826,1403.11 925.112826,1401.614 C925.112826,1400.186 923.888826,1399.642 922.222826,1398.962 L920.624826,1398.282 C918.108826,1397.228 916.510826,1396.072 916.510826,1393.692 C916.510826,1390.7 919.060826,1389.068 922.086826,1389.068 Z M932.483507,1406 L932.483507,1380.5 L935.101507,1380.5 L935.101507,1406 L932.483507,1406 Z M938.535507,1396.718 L946.355507,1406 L942.989507,1406 L935.373507,1396.684 L942.275507,1389.442 L945.709507,1389.442 L938.535507,1396.718 Z M961.410188,1389.442 L964.198188,1389.442 L956.038188,1408.312 C954.746188,1411.27 952.944188,1412.494 950.428188,1412.494 C949.612188,1412.494 948.660188,1412.358 947.878188,1412.154 L947.878188,1409.944 C948.660188,1410.046 949.306188,1410.114 949.884188,1410.114 C951.482188,1410.114 952.706188,1409.57 953.624188,1407.462 L954.508188,1405.456 L947.640188,1389.442 L950.462188,1389.442 L955.936188,1402.634 L961.410188,1389.442 Z M970.548868,1380.5 L970.548868,1406 L967.930868,1406 L967.930868,1380.5 L970.548868,1380.5 Z M977.579549,1381.214 C978.633549,1381.214 979.517549,1382.064 979.517549,1383.118 C979.517549,1384.206 978.633549,1385.022 977.579549,1385.022 C976.457549,1385.022 975.607549,1384.206 975.607549,1383.118 C975.607549,1382.064 976.457549,1381.214 977.579549,1381.214 Z M978.871549,1389.442 L978.871549,1406 L976.253549,1406 L976.253549,1389.442 L978.871549,1389.442 Z M992.124229,1389.068 C996.034229,1389.068 998.278229,1391.754 998.278229,1395.596 L998.278229,1406 L995.660229,1406 L995.660229,1395.902 C995.660229,1393.284 994.096229,1391.482 991.546229,1391.482 C988.996229,1391.482 987.194229,1393.318 987.194229,1395.902 L987.194229,1406 L984.576229,1406 L984.576229,1389.442 L987.024229,1389.442 L987.024229,1391.244 C988.180229,1389.884 989.982229,1389.068 992.124229,1389.068 Z M1018.60291,1396.548 C1018.60291,1397.432 1018.46691,1398.214 1018.39891,1398.52 L1005.34291,1398.52 C1005.68291,1401.818 1008.13091,1403.96 1011.39491,1403.96 C1013.46891,1403.96 1015.10091,1403.076 1016.46091,1401.716 L1017.99091,1403.484 C1016.32491,1405.252 1014.08091,1406.374 1011.36091,1406.374 C1006.36291,1406.374 1002.58891,1402.6 1002.58891,1397.738 C1002.58891,1392.91 1006.29491,1389.068 1011.05491,1389.068 C1015.30491,1389.068 1018.60291,1392.128 1018.60291,1396.548 Z M1010.98691,1391.448 C1008.19891,1391.448 1005.98891,1393.352 1005.44491,1396.208 L1015.91691,1396.208 C1015.88291,1393.148 1013.63891,1391.448 1010.98691,1391.448 Z M1024.85159,1402.09 C1026.00759,1402.09 1026.99359,1402.974 1026.99359,1404.232 C1026.99359,1405.49 1026.00759,1406.374 1024.85159,1406.374 C1023.69559,1406.374 1022.70959,1405.49 1022.70959,1404.232 C1022.70959,1402.974 1023.69559,1402.09 1024.85159,1402.09 Z" id="Thiswasamotionstudyonmaskingandparallaxtechniques,capturingthetrainmovementinfrontofChicago’sskyline."></path>
        </g>
    </g>
</svg>