<?xml version="1.0" encoding="UTF-8"?>
<svg width="661px" height="74px" viewBox="0 0 661 74" version="1.1" xmlns="http://www.w3.org/2000/svg" xmlns:xlink="http://www.w3.org/1999/xlink">
    <!-- Generator: Sketch 53.2 (72643) - https://sketchapp.com -->
    <title>ThisUIconceptwasbasedonredesigningSpotify’smediaplayerandalbumpage.</title>
    <desc>Created with Sketch.</desc>
    <g id="Page-1" stroke="none" stroke-width="1" fill="none" fill-rule="evenodd">
        <g id="Desktop-HD-Copy-33" transform="translate(-389.000000, -1088.000000)" fill="#404648" fill-rule="nonzero">
            <path d="M407.727389,1091.56 L407.727389,1093.94 L399.805389,1093.94 L399.805389,1114 L397.153389,1114 L397.153389,1093.94 L389.265389,1093.94 L389.265389,1091.56 L407.727389,1091.56 Z M418.804069,1097.068 C422.680069,1097.068 424.924069,1099.754 424.924069,1103.596 L424.924069,1114 L422.306069,1114 L422.306069,1103.936 C422.306069,1101.318 420.742069,1099.482 418.192069,1099.482 C415.642069,1099.482 413.840069,1101.352 413.840069,1103.936 L413.840069,1114 L411.222069,1114 L411.222069,1088.5 L413.840069,1088.5 L413.840069,1099.312 C414.928069,1097.918 416.662069,1097.068 418.804069,1097.068 Z M431.75075,1089.214 C432.80475,1089.214 433.68875,1090.064 433.68875,1091.118 C433.68875,1092.206 432.80475,1093.022 431.75075,1093.022 C430.62875,1093.022 429.77875,1092.206 429.77875,1091.118 C429.77875,1090.064 430.62875,1089.214 431.75075,1089.214 Z M433.04275,1097.442 L433.04275,1114 L430.42475,1114 L430.42475,1097.442 L433.04275,1097.442 Z M443.74543,1097.068 C446.12543,1097.068 447.99543,1098.088 449.28743,1099.686 L447.68943,1101.318 C446.60143,1100.196 445.17343,1099.482 443.60943,1099.482 C442.04543,1099.482 440.85543,1100.196 440.85543,1101.556 C440.85543,1102.678 441.70543,1103.222 443.54143,1103.97 L445.07143,1104.616 C448.06343,1105.874 449.45743,1107.166 449.45743,1109.512 C449.45743,1112.742 446.70343,1114.374 443.64343,1114.374 C440.71943,1114.374 438.50943,1112.912 437.18343,1111.144 L438.84943,1109.41 C440.20943,1110.838 441.60343,1111.96 443.60943,1111.96 C445.34343,1111.96 446.77143,1111.11 446.77143,1109.614 C446.77143,1108.186 445.54743,1107.642 443.88143,1106.962 L442.28343,1106.282 C439.76743,1105.228 438.16943,1104.072 438.16943,1101.692 C438.16943,1098.7 440.71943,1097.068 443.74543,1097.068 Z M481.334792,1091.56 L481.334792,1105.092 C481.334792,1111.076 477.526792,1114.374 472.460792,1114.374 C467.292792,1114.374 463.518792,1111.076 463.518792,1105.092 L463.518792,1091.56 L466.170792,1091.56 L466.170792,1105.262 C466.170792,1109.784 468.958792,1111.926 472.460792,1111.926 C475.928792,1111.926 478.682792,1109.784 478.682792,1105.262 L478.682792,1091.56 L481.334792,1091.56 Z M489.861472,1091.56 L489.861472,1114 L487.209472,1114 L487.209472,1091.56 L489.861472,1091.56 Z M512.728833,1097.068 C515.720833,1097.068 518.100833,1098.496 519.562833,1100.672 L517.692833,1102.168 C516.468833,1100.536 514.904833,1099.482 512.762833,1099.482 C509.294833,1099.482 506.744833,1102.236 506.744833,1105.704 C506.744833,1109.206 509.294833,1111.96 512.762833,1111.96 C514.870833,1111.96 516.434833,1110.94 517.658833,1109.308 L519.528833,1110.77 C518.066833,1112.946 515.686833,1114.374 512.728833,1114.374 C507.900833,1114.374 504.058833,1110.566 504.058833,1105.704 C504.058833,1100.876 507.900833,1097.068 512.728833,1097.068 Z M531.081514,1097.068 C535.875514,1097.068 539.751514,1100.842 539.751514,1105.704 C539.751514,1110.532 535.875514,1114.34 531.047514,1114.34 C526.253514,1114.306 522.411514,1110.566 522.411514,1105.704 C522.411514,1100.842 526.219514,1097.068 531.081514,1097.068 Z M531.081514,1099.482 C527.613514,1099.482 525.063514,1102.202 525.097514,1105.738 C525.097514,1109.24 527.613514,1111.926 531.047514,1111.926 C534.481514,1111.926 537.065514,1109.206 537.065514,1105.738 C537.065514,1102.168 534.481514,1099.482 531.081514,1099.482 Z M551.848194,1097.068 C555.758194,1097.068 558.002194,1099.754 558.002194,1103.596 L558.002194,1114 L555.384194,1114 L555.384194,1103.902 C555.384194,1101.284 553.820194,1099.482 551.270194,1099.482 C548.720194,1099.482 546.918194,1101.318 546.918194,1103.902 L546.918194,1114 L544.300194,1114 L544.300194,1097.442 L546.748194,1097.442 L546.748194,1099.244 C547.904194,1097.884 549.706194,1097.068 551.848194,1097.068 Z M570.982875,1097.068 C573.974875,1097.068 576.354875,1098.496 577.816875,1100.672 L575.946875,1102.168 C574.722875,1100.536 573.158875,1099.482 571.016875,1099.482 C567.548875,1099.482 564.998875,1102.236 564.998875,1105.704 C564.998875,1109.206 567.548875,1111.96 571.016875,1111.96 C573.124875,1111.96 574.688875,1110.94 575.912875,1109.308 L577.782875,1110.77 C576.320875,1112.946 573.940875,1114.374 570.982875,1114.374 C566.154875,1114.374 562.312875,1110.566 562.312875,1105.704 C562.312875,1100.876 566.154875,1097.068 570.982875,1097.068 Z M596.679556,1104.548 C596.679556,1105.432 596.543556,1106.214 596.475556,1106.52 L583.419556,1106.52 C583.759556,1109.818 586.207556,1111.96 589.471556,1111.96 C591.545556,1111.96 593.177556,1111.076 594.537556,1109.716 L596.067556,1111.484 C594.401556,1113.252 592.157556,1114.374 589.437556,1114.374 C584.439556,1114.374 580.665556,1110.6 580.665556,1105.738 C580.665556,1100.91 584.371556,1097.068 589.131556,1097.068 C593.381556,1097.068 596.679556,1100.128 596.679556,1104.548 Z M589.063556,1099.448 C586.275556,1099.448 584.065556,1101.352 583.521556,1104.208 L593.993556,1104.208 C593.959556,1101.148 591.715556,1099.448 589.063556,1099.448 Z M609.932236,1097.068 C614.692236,1097.068 618.126236,1100.842 618.126236,1105.704 C618.126236,1110.6 614.658236,1114.374 609.932236,1114.374 C607.484236,1114.374 605.172236,1113.354 603.846236,1111.586 L603.846236,1120.12 L601.228236,1120.12 L601.228236,1097.442 L603.676236,1097.442 L603.676236,1100.094 C604.968236,1098.19 607.314236,1097.068 609.932236,1097.068 Z M609.558236,1111.96 C612.924236,1111.96 615.440236,1109.342 615.440236,1105.738 C615.440236,1102.134 612.958236,1099.482 609.558236,1099.482 C606.702236,1099.482 603.812236,1101.352 603.812236,1105.704 C603.812236,1110.056 606.668236,1111.96 609.558236,1111.96 Z M629.508917,1111.994 C630.154917,1111.994 630.868917,1111.926 631.718917,1111.79 L631.718917,1114 C630.868917,1114.204 630.018917,1114.374 628.964917,1114.374 C625.700917,1114.374 623.388917,1112.776 623.388917,1109.002 L623.388917,1099.788 L620.600917,1099.788 L620.600917,1097.442 L623.388917,1097.442 L623.388917,1092.92 L626.006917,1092.92 L626.006917,1097.442 L631.174917,1097.442 L631.174917,1099.788 L626.006917,1099.788 L626.006917,1108.832 C626.006917,1111.314 627.434917,1111.994 629.508917,1111.994 Z M666.384278,1097.442 L669.172278,1097.442 L662.202278,1114.374 L661.250278,1114.374 L655.606278,1101.862 L649.996278,1114.374 L649.078278,1114.374 L642.040278,1097.442 L644.828278,1097.442 L649.588278,1109.682 L655.130278,1097.068 L656.116278,1097.068 L661.692278,1109.614 L666.384278,1097.442 Z M678.208958,1097.068 C681.982958,1097.068 684.668958,1099.346 684.668958,1103.8 L684.668958,1114 L682.220958,1114 L682.220958,1111.858 C681.030958,1113.456 679.092958,1114.374 676.644958,1114.374 C673.312958,1114.374 670.864958,1112.606 670.864958,1109.716 C670.864958,1106.928 673.210958,1105.092 676.814958,1105.092 L682.050958,1105.092 L682.050958,1103.664 C682.050958,1100.876 680.486958,1099.482 678.038958,1099.482 C675.964958,1099.482 674.502958,1100.468 673.210958,1102.134 L671.476958,1100.706 C673.040958,1098.19 675.556958,1097.068 678.208958,1097.068 Z M676.984958,1112.198 C679.704958,1112.198 682.050958,1110.226 682.050958,1107.642 L682.050958,1107.234 L677.120958,1107.234 C674.808958,1107.234 673.550958,1108.016 673.550958,1109.58 C673.550958,1111.348 675.148958,1112.198 676.984958,1112.198 Z M695.167639,1097.068 C697.547639,1097.068 699.417639,1098.088 700.709639,1099.686 L699.111639,1101.318 C698.023639,1100.196 696.595639,1099.482 695.031639,1099.482 C693.467639,1099.482 692.277639,1100.196 692.277639,1101.556 C692.277639,1102.678 693.127639,1103.222 694.963639,1103.97 L696.493639,1104.616 C699.485639,1105.874 700.879639,1107.166 700.879639,1109.512 C700.879639,1112.742 698.125639,1114.374 695.065639,1114.374 C692.141639,1114.374 689.931639,1112.912 688.605639,1111.144 L690.271639,1109.41 C691.631639,1110.838 693.025639,1111.96 695.031639,1111.96 C696.765639,1111.96 698.193639,1111.11 698.193639,1109.614 C698.193639,1108.186 696.969639,1107.642 695.303639,1106.962 L693.705639,1106.282 C691.189639,1105.228 689.591639,1104.072 689.591639,1101.692 C689.591639,1098.7 692.141639,1097.068 695.167639,1097.068 Z M723.747,1097.068 C728.473,1097.068 731.941,1100.842 731.941,1105.738 C731.941,1110.6 728.507,1114.374 723.781,1114.374 C721.197,1114.374 718.783,1113.252 717.491,1111.348 L717.491,1114 L715.043,1114 L715.043,1088.5 L717.661,1088.5 L717.661,1099.89 C718.953,1098.156 721.231,1097.068 723.747,1097.068 Z M723.373,1111.96 C726.773,1111.96 729.255,1109.308 729.255,1105.704 C729.255,1102.1 726.739,1099.482 723.373,1099.482 C720.483,1099.482 717.627,1101.386 717.627,1105.738 C717.627,1110.09 720.517,1111.96 723.373,1111.96 Z M742.439681,1097.068 C746.213681,1097.068 748.899681,1099.346 748.899681,1103.8 L748.899681,1114 L746.451681,1114 L746.451681,1111.858 C745.261681,1113.456 743.323681,1114.374 740.875681,1114.374 C737.543681,1114.374 735.095681,1112.606 735.095681,1109.716 C735.095681,1106.928 737.441681,1105.092 741.045681,1105.092 L746.281681,1105.092 L746.281681,1103.664 C746.281681,1100.876 744.717681,1099.482 742.269681,1099.482 C740.195681,1099.482 738.733681,1100.468 737.441681,1102.134 L735.707681,1100.706 C737.271681,1098.19 739.787681,1097.068 742.439681,1097.068 Z M741.215681,1112.198 C743.935681,1112.198 746.281681,1110.226 746.281681,1107.642 L746.281681,1107.234 L741.351681,1107.234 C739.039681,1107.234 737.781681,1108.016 737.781681,1109.58 C737.781681,1111.348 739.379681,1112.198 741.215681,1112.198 Z M759.398361,1097.068 C761.778361,1097.068 763.648361,1098.088 764.940361,1099.686 L763.342361,1101.318 C762.254361,1100.196 760.826361,1099.482 759.262361,1099.482 C757.698361,1099.482 756.508361,1100.196 756.508361,1101.556 C756.508361,1102.678 757.358361,1103.222 759.194361,1103.97 L760.724361,1104.616 C763.716361,1105.874 765.110361,1107.166 765.110361,1109.512 C765.110361,1112.742 762.356361,1114.374 759.296361,1114.374 C756.372361,1114.374 754.162361,1112.912 752.836361,1111.144 L754.502361,1109.41 C755.862361,1110.838 757.256361,1111.96 759.262361,1111.96 C760.996361,1111.96 762.424361,1111.11 762.424361,1109.614 C762.424361,1108.186 761.200361,1107.642 759.534361,1106.962 L757.936361,1106.282 C755.420361,1105.228 753.822361,1104.072 753.822361,1101.692 C753.822361,1098.7 756.372361,1097.068 759.398361,1097.068 Z M784.619042,1104.548 C784.619042,1105.432 784.483042,1106.214 784.415042,1106.52 L771.359042,1106.52 C771.699042,1109.818 774.147042,1111.96 777.411042,1111.96 C779.485042,1111.96 781.117042,1111.076 782.477042,1109.716 L784.007042,1111.484 C782.341042,1113.252 780.097042,1114.374 777.377042,1114.374 C772.379042,1114.374 768.605042,1110.6 768.605042,1105.738 C768.605042,1100.91 772.311042,1097.068 777.071042,1097.068 C781.321042,1097.068 784.619042,1100.128 784.619042,1104.548 Z M777.003042,1099.448 C774.215042,1099.448 772.005042,1101.352 771.461042,1104.208 L781.933042,1104.208 C781.899042,1101.148 779.655042,1099.448 777.003042,1099.448 Z M802.291722,1088.5 L804.909722,1088.5 L804.909722,1114 L802.427722,1114 L802.427722,1111.348 C801.135722,1113.252 798.789722,1114.374 796.171722,1114.374 C791.445722,1114.374 787.977722,1110.6 787.977722,1105.738 C787.977722,1100.842 791.445722,1097.068 796.171722,1097.068 C798.687722,1097.068 800.965722,1098.122 802.291722,1099.89 L802.291722,1088.5 Z M796.545722,1111.96 C799.401722,1111.96 802.325722,1110.09 802.325722,1105.738 C802.325722,1101.386 799.401722,1099.482 796.545722,1099.482 C793.179722,1099.482 790.663722,1102.1 790.663722,1105.704 C790.663722,1109.308 793.145722,1111.96 796.545722,1111.96 Z M827.573083,1097.068 C832.367083,1097.068 836.243083,1100.842 836.243083,1105.704 C836.243083,1110.532 832.367083,1114.34 827.539083,1114.34 C822.745083,1114.306 818.903083,1110.566 818.903083,1105.704 C818.903083,1100.842 822.711083,1097.068 827.573083,1097.068 Z M827.573083,1099.482 C824.105083,1099.482 821.555083,1102.202 821.589083,1105.738 C821.589083,1109.24 824.105083,1111.926 827.539083,1111.926 C830.973083,1111.926 833.557083,1109.206 833.557083,1105.738 C833.557083,1102.168 830.973083,1099.482 827.573083,1099.482 Z M848.339764,1097.068 C852.249764,1097.068 854.493764,1099.754 854.493764,1103.596 L854.493764,1114 L851.875764,1114 L851.875764,1103.902 C851.875764,1101.284 850.311764,1099.482 847.761764,1099.482 C845.211764,1099.482 843.409764,1101.318 843.409764,1103.902 L843.409764,1114 L840.791764,1114 L840.791764,1097.442 L843.239764,1097.442 L843.239764,1099.244 C844.395764,1097.884 846.197764,1097.068 848.339764,1097.068 Z M877.055125,1097.306 C877.599125,1097.306 877.939125,1097.374 878.279125,1097.442 L878.279125,1099.754 L877.293125,1099.754 C874.607125,1099.754 872.091125,1101.454 872.091125,1104.616 L872.091125,1114 L869.473125,1114 L869.473125,1097.442 L871.921125,1097.442 L871.921125,1099.822 C873.145125,1098.19 875.083125,1097.306 877.055125,1097.306 Z M896.223806,1104.548 C896.223806,1105.432 896.087806,1106.214 896.019806,1106.52 L882.963806,1106.52 C883.303806,1109.818 885.751806,1111.96 889.015806,1111.96 C891.089806,1111.96 892.721806,1111.076 894.081806,1109.716 L895.611806,1111.484 C893.945806,1113.252 891.701806,1114.374 888.981806,1114.374 C883.983806,1114.374 880.209806,1110.6 880.209806,1105.738 C880.209806,1100.91 883.915806,1097.068 888.675806,1097.068 C892.925806,1097.068 896.223806,1100.128 896.223806,1104.548 Z M888.607806,1099.448 C885.819806,1099.448 883.609806,1101.352 883.065806,1104.208 L893.537806,1104.208 C893.503806,1101.148 891.259806,1099.448 888.607806,1099.448 Z M913.896486,1088.5 L916.514486,1088.5 L916.514486,1114 L914.032486,1114 L914.032486,1111.348 C912.740486,1113.252 910.394486,1114.374 907.776486,1114.374 C903.050486,1114.374 899.582486,1110.6 899.582486,1105.738 C899.582486,1100.842 903.050486,1097.068 907.776486,1097.068 C910.292486,1097.068 912.570486,1098.122 913.896486,1099.89 L913.896486,1088.5 Z M908.150486,1111.96 C911.006486,1111.96 913.930486,1110.09 913.930486,1105.738 C913.930486,1101.386 911.006486,1099.482 908.150486,1099.482 C904.784486,1099.482 902.268486,1102.1 902.268486,1105.704 C902.268486,1109.308 904.750486,1111.96 908.150486,1111.96 Z M937.043167,1104.548 C937.043167,1105.432 936.907167,1106.214 936.839167,1106.52 L923.783167,1106.52 C924.123167,1109.818 926.571167,1111.96 929.835167,1111.96 C931.909167,1111.96 933.541167,1111.076 934.901167,1109.716 L936.431167,1111.484 C934.765167,1113.252 932.521167,1114.374 929.801167,1114.374 C924.803167,1114.374 921.029167,1110.6 921.029167,1105.738 C921.029167,1100.91 924.735167,1097.068 929.495167,1097.068 C933.745167,1097.068 937.043167,1100.128 937.043167,1104.548 Z M929.427167,1099.448 C926.639167,1099.448 924.429167,1101.352 923.885167,1104.208 L934.357167,1104.208 C934.323167,1101.148 932.079167,1099.448 929.427167,1099.448 Z M946.589847,1097.068 C948.969847,1097.068 950.839847,1098.088 952.131847,1099.686 L950.533847,1101.318 C949.445847,1100.196 948.017847,1099.482 946.453847,1099.482 C944.889847,1099.482 943.699847,1100.196 943.699847,1101.556 C943.699847,1102.678 944.549847,1103.222 946.385847,1103.97 L947.915847,1104.616 C950.907847,1105.874 952.301847,1107.166 952.301847,1109.512 C952.301847,1112.742 949.547847,1114.374 946.487847,1114.374 C943.563847,1114.374 941.353847,1112.912 940.027847,1111.144 L941.693847,1109.41 C943.053847,1110.838 944.447847,1111.96 946.453847,1111.96 C948.187847,1111.96 949.615847,1111.11 949.615847,1109.614 C949.615847,1108.186 948.391847,1107.642 946.725847,1106.962 L945.127847,1106.282 C942.611847,1105.228 941.013847,1104.072 941.013847,1101.692 C941.013847,1098.7 943.563847,1097.068 946.589847,1097.068 Z M958.312528,1089.214 C959.366528,1089.214 960.250528,1090.064 960.250528,1091.118 C960.250528,1092.206 959.366528,1093.022 958.312528,1093.022 C957.190528,1093.022 956.340528,1092.206 956.340528,1091.118 C956.340528,1090.064 957.190528,1089.214 958.312528,1089.214 Z M959.604528,1097.442 L959.604528,1114 L956.986528,1114 L956.986528,1097.442 L959.604528,1097.442 Z M978.739208,1097.442 L981.221208,1097.442 L981.221208,1112.402 C981.221208,1117.502 977.991208,1120.494 973.163208,1120.494 C969.695208,1120.494 967.009208,1118.93 965.377208,1117.298 L966.907208,1115.462 C968.505208,1116.856 970.375208,1118.08 973.095208,1118.08 C976.461208,1118.08 978.603208,1116.21 978.603208,1112.538 L978.603208,1111.076 C977.243208,1112.81 974.931208,1113.83 972.449208,1113.83 C967.791208,1113.83 964.323208,1110.294 964.323208,1105.466 C964.323208,1100.672 967.791208,1097.068 972.449208,1097.068 C975.067208,1097.068 977.447208,1098.224 978.739208,1100.128 L978.739208,1097.442 Z M972.857208,1111.416 C975.747208,1111.416 978.637208,1109.614 978.637208,1105.466 C978.637208,1101.318 975.713208,1099.55 972.857208,1099.55 C969.491208,1099.55 966.975208,1101.998 966.975208,1105.5 C966.975208,1109.002 969.491208,1111.416 972.857208,1111.416 Z M994.473889,1097.068 C998.383889,1097.068 1000.62789,1099.754 1000.62789,1103.596 L1000.62789,1114 L998.009889,1114 L998.009889,1103.902 C998.009889,1101.284 996.445889,1099.482 993.895889,1099.482 C991.345889,1099.482 989.543889,1101.318 989.543889,1103.902 L989.543889,1114 L986.925889,1114 L986.925889,1097.442 L989.373889,1097.442 L989.373889,1099.244 C990.529889,1097.884 992.331889,1097.068 994.473889,1097.068 Z M1007.45457,1089.214 C1008.50857,1089.214 1009.39257,1090.064 1009.39257,1091.118 C1009.39257,1092.206 1008.50857,1093.022 1007.45457,1093.022 C1006.33257,1093.022 1005.48257,1092.206 1005.48257,1091.118 C1005.48257,1090.064 1006.33257,1089.214 1007.45457,1089.214 Z M1008.74657,1097.442 L1008.74657,1114 L1006.12857,1114 L1006.12857,1097.442 L1008.74657,1097.442 Z M1021.99925,1097.068 C1025.90925,1097.068 1028.15325,1099.754 1028.15325,1103.596 L1028.15325,1114 L1025.53525,1114 L1025.53525,1103.902 C1025.53525,1101.284 1023.97125,1099.482 1021.42125,1099.482 C1018.87125,1099.482 1017.06925,1101.318 1017.06925,1103.902 L1017.06925,1114 L1014.45125,1114 L1014.45125,1097.442 L1016.89925,1097.442 L1016.89925,1099.244 C1018.05525,1097.884 1019.85725,1097.068 1021.99925,1097.068 Z M1047.08393,1097.442 L1049.56593,1097.442 L1049.56593,1112.402 C1049.56593,1117.502 1046.33593,1120.494 1041.50793,1120.494 C1038.03993,1120.494 1035.35393,1118.93 1033.72193,1117.298 L1035.25193,1115.462 C1036.84993,1116.856 1038.71993,1118.08 1041.43993,1118.08 C1044.80593,1118.08 1046.94793,1116.21 1046.94793,1112.538 L1046.94793,1111.076 C1045.58793,1112.81 1043.27593,1113.83 1040.79393,1113.83 C1036.13593,1113.83 1032.66793,1110.294 1032.66793,1105.466 C1032.66793,1100.672 1036.13593,1097.068 1040.79393,1097.068 C1043.41193,1097.068 1045.79193,1098.224 1047.08393,1100.128 L1047.08393,1097.442 Z M1041.20193,1111.416 C1044.09193,1111.416 1046.98193,1109.614 1046.98193,1105.466 C1046.98193,1101.318 1044.05793,1099.55 1041.20193,1099.55 C1037.83593,1099.55 1035.31993,1101.998 1035.31993,1105.5 C1035.31993,1109.002 1037.83593,1111.416 1041.20193,1111.416 Z M419.501069,1132.186 C422.561069,1132.186 425.145069,1133.784 426.539069,1135.994 L424.601069,1137.456 C423.411069,1135.654 421.507069,1134.634 419.467069,1134.634 C417.393069,1134.634 415.489069,1135.688 415.489069,1137.898 C415.489069,1139.938 417.053069,1140.686 419.093069,1141.672 L421.575069,1142.862 C424.839069,1144.426 426.811069,1146.092 426.811069,1149.118 C426.811069,1152.892 423.717069,1155.374 419.569069,1155.374 C415.999069,1155.374 413.041069,1153.504 411.307069,1150.546 L413.279069,1149.084 C414.639069,1151.158 416.645069,1152.926 419.535069,1152.926 C422.187069,1152.926 424.057069,1151.464 424.057069,1149.186 C424.057069,1147.112 422.527069,1146.296 420.317069,1145.242 L417.801069,1144.052 C415.183069,1142.794 412.735069,1141.196 412.735069,1138.034 C412.735069,1134.464 415.863069,1132.186 419.501069,1132.186 Z M440.43775,1138.068 C445.19775,1138.068 448.63175,1141.842 448.63175,1146.704 C448.63175,1151.6 445.16375,1155.374 440.43775,1155.374 C437.98975,1155.374 435.67775,1154.354 434.35175,1152.586 L434.35175,1161.12 L431.73375,1161.12 L431.73375,1138.442 L434.18175,1138.442 L434.18175,1141.094 C435.47375,1139.19 437.81975,1138.068 440.43775,1138.068 Z M440.06375,1152.96 C443.42975,1152.96 445.94575,1150.342 445.94575,1146.738 C445.94575,1143.134 443.46375,1140.482 440.06375,1140.482 C437.20775,1140.482 434.31775,1142.352 434.31775,1146.704 C434.31775,1151.056 437.17375,1152.96 440.06375,1152.96 Z M460.66043,1138.068 C465.45443,1138.068 469.33043,1141.842 469.33043,1146.704 C469.33043,1151.532 465.45443,1155.34 460.62643,1155.34 C455.83243,1155.306 451.99043,1151.566 451.99043,1146.704 C451.99043,1141.842 455.79843,1138.068 460.66043,1138.068 Z M460.66043,1140.482 C457.19243,1140.482 454.64243,1143.202 454.67643,1146.738 C454.67643,1150.24 457.19243,1152.926 460.62643,1152.926 C464.06043,1152.926 466.64443,1150.206 466.64443,1146.738 C466.64443,1143.168 464.06043,1140.482 460.66043,1140.482 Z M480.713111,1152.994 C481.359111,1152.994 482.073111,1152.926 482.923111,1152.79 L482.923111,1155 C482.073111,1155.204 481.223111,1155.374 480.169111,1155.374 C476.905111,1155.374 474.593111,1153.776 474.593111,1150.002 L474.593111,1140.788 L471.805111,1140.788 L471.805111,1138.442 L474.593111,1138.442 L474.593111,1133.92 L477.211111,1133.92 L477.211111,1138.442 L482.379111,1138.442 L482.379111,1140.788 L477.211111,1140.788 L477.211111,1149.832 C477.211111,1152.314 478.639111,1152.994 480.713111,1152.994 Z M488.117792,1130.214 C489.171792,1130.214 490.055792,1131.064 490.055792,1132.118 C490.055792,1133.206 489.171792,1134.022 488.117792,1134.022 C486.995792,1134.022 486.145792,1133.206 486.145792,1132.118 C486.145792,1131.064 486.995792,1130.214 488.117792,1130.214 Z M489.409792,1138.442 L489.409792,1155 L486.791792,1155 L486.791792,1138.442 L489.409792,1138.442 Z M501.608472,1131.506 C499.568472,1131.506 498.140472,1132.186 498.140472,1134.668 L498.140472,1138.442 L502.288472,1138.442 L502.288472,1140.788 L498.140472,1140.788 L498.140472,1155 L495.522472,1155 L495.522472,1140.788 L493.142472,1140.788 L493.142472,1138.442 L495.522472,1138.442 L495.522472,1134.498 C495.522472,1130.724 497.800472,1129.126 500.996472,1129.126 C501.812472,1129.126 502.458472,1129.228 503.070472,1129.398 L503.070472,1131.608 C502.526472,1131.54 502.050472,1131.506 501.608472,1131.506 Z M517.479153,1138.442 L520.267153,1138.442 L512.107153,1157.312 C510.815153,1160.27 509.013153,1161.494 506.497153,1161.494 C505.681153,1161.494 504.729153,1161.358 503.947153,1161.154 L503.947153,1158.944 C504.729153,1159.046 505.375153,1159.114 505.953153,1159.114 C507.551153,1159.114 508.775153,1158.57 509.693153,1156.462 L510.577153,1154.456 L503.709153,1138.442 L506.531153,1138.442 L512.005153,1151.634 L517.479153,1138.442 Z M527.841833,1132.56 L526.379833,1141.298 L524.305833,1141.298 L524.781833,1132.56 L527.841833,1132.56 Z M538.136514,1138.068 C540.516514,1138.068 542.386514,1139.088 543.678514,1140.686 L542.080514,1142.318 C540.992514,1141.196 539.564514,1140.482 538.000514,1140.482 C536.436514,1140.482 535.246514,1141.196 535.246514,1142.556 C535.246514,1143.678 536.096514,1144.222 537.932514,1144.97 L539.462514,1145.616 C542.454514,1146.874 543.848514,1148.166 543.848514,1150.512 C543.848514,1153.742 541.094514,1155.374 538.034514,1155.374 C535.110514,1155.374 532.900514,1153.912 531.574514,1152.144 L533.240514,1150.41 C534.600514,1151.838 535.994514,1152.96 538.000514,1152.96 C539.734514,1152.96 541.162514,1152.11 541.162514,1150.614 C541.162514,1149.186 539.938514,1148.642 538.272514,1147.962 L536.674514,1147.282 C534.158514,1146.228 532.560514,1145.072 532.560514,1142.692 C532.560514,1139.7 535.110514,1138.068 538.136514,1138.068 Z M576.167875,1138.068 C580.043875,1138.068 582.185875,1140.754 582.185875,1144.596 L582.185875,1155 L579.567875,1155 L579.567875,1144.936 C579.567875,1142.318 578.139875,1140.482 575.657875,1140.482 C573.141875,1140.482 571.407875,1142.386 571.407875,1144.698 L571.407875,1155 L568.789875,1155 L568.789875,1144.936 C568.789875,1142.318 567.293875,1140.482 564.845875,1140.482 C562.329875,1140.482 560.629875,1142.318 560.629875,1144.936 L560.629875,1155 L558.011875,1155 L558.011875,1138.442 L560.459875,1138.442 L560.459875,1140.176 C561.615875,1138.85 563.315875,1138.068 565.389875,1138.068 C567.871875,1138.068 569.571875,1139.19 570.489875,1140.924 C571.645875,1139.258 573.617875,1138.068 576.167875,1138.068 Z M602.510556,1145.548 C602.510556,1146.432 602.374556,1147.214 602.306556,1147.52 L589.250556,1147.52 C589.590556,1150.818 592.038556,1152.96 595.302556,1152.96 C597.376556,1152.96 599.008556,1152.076 600.368556,1150.716 L601.898556,1152.484 C600.232556,1154.252 597.988556,1155.374 595.268556,1155.374 C590.270556,1155.374 586.496556,1151.6 586.496556,1146.738 C586.496556,1141.91 590.202556,1138.068 594.962556,1138.068 C599.212556,1138.068 602.510556,1141.128 602.510556,1145.548 Z M594.894556,1140.448 C592.106556,1140.448 589.896556,1142.352 589.352556,1145.208 L599.824556,1145.208 C599.790556,1142.148 597.546556,1140.448 594.894556,1140.448 Z M620.183236,1129.5 L622.801236,1129.5 L622.801236,1155 L620.319236,1155 L620.319236,1152.348 C619.027236,1154.252 616.681236,1155.374 614.063236,1155.374 C609.337236,1155.374 605.869236,1151.6 605.869236,1146.738 C605.869236,1141.842 609.337236,1138.068 614.063236,1138.068 C616.579236,1138.068 618.857236,1139.122 620.183236,1140.89 L620.183236,1129.5 Z M614.437236,1152.96 C617.293236,1152.96 620.217236,1151.09 620.217236,1146.738 C620.217236,1142.386 617.293236,1140.482 614.437236,1140.482 C611.071236,1140.482 608.555236,1143.1 608.555236,1146.704 C608.555236,1150.308 611.037236,1152.96 614.437236,1152.96 Z M629.831917,1130.214 C630.885917,1130.214 631.769917,1131.064 631.769917,1132.118 C631.769917,1133.206 630.885917,1134.022 629.831917,1134.022 C628.709917,1134.022 627.859917,1133.206 627.859917,1132.118 C627.859917,1131.064 628.709917,1130.214 629.831917,1130.214 Z M631.123917,1138.442 L631.123917,1155 L628.505917,1155 L628.505917,1138.442 L631.123917,1138.442 Z M642.778597,1138.068 C646.552597,1138.068 649.238597,1140.346 649.238597,1144.8 L649.238597,1155 L646.790597,1155 L646.790597,1152.858 C645.600597,1154.456 643.662597,1155.374 641.214597,1155.374 C637.882597,1155.374 635.434597,1153.606 635.434597,1150.716 C635.434597,1147.928 637.780597,1146.092 641.384597,1146.092 L646.620597,1146.092 L646.620597,1144.664 C646.620597,1141.876 645.056597,1140.482 642.608597,1140.482 C640.534597,1140.482 639.072597,1141.468 637.780597,1143.134 L636.046597,1141.706 C637.610597,1139.19 640.126597,1138.068 642.778597,1138.068 Z M641.554597,1153.198 C644.274597,1153.198 646.620597,1151.226 646.620597,1148.642 L646.620597,1148.234 L641.690597,1148.234 C639.378597,1148.234 638.120597,1149.016 638.120597,1150.58 C638.120597,1152.348 639.718597,1153.198 641.554597,1153.198 Z M672.921958,1138.068 C677.681958,1138.068 681.115958,1141.842 681.115958,1146.704 C681.115958,1151.6 677.647958,1155.374 672.921958,1155.374 C670.473958,1155.374 668.161958,1154.354 666.835958,1152.586 L666.835958,1161.12 L664.217958,1161.12 L664.217958,1138.442 L666.665958,1138.442 L666.665958,1141.094 C667.957958,1139.19 670.303958,1138.068 672.921958,1138.068 Z M672.547958,1152.96 C675.913958,1152.96 678.429958,1150.342 678.429958,1146.738 C678.429958,1143.134 675.947958,1140.482 672.547958,1140.482 C669.691958,1140.482 666.801958,1142.352 666.801958,1146.704 C666.801958,1151.056 669.657958,1152.96 672.547958,1152.96 Z M688.282639,1129.5 L688.282639,1155 L685.664639,1155 L685.664639,1129.5 L688.282639,1129.5 Z M699.937319,1138.068 C703.711319,1138.068 706.397319,1140.346 706.397319,1144.8 L706.397319,1155 L703.949319,1155 L703.949319,1152.858 C702.759319,1154.456 700.821319,1155.374 698.373319,1155.374 C695.041319,1155.374 692.593319,1153.606 692.593319,1150.716 C692.593319,1147.928 694.939319,1146.092 698.543319,1146.092 L703.779319,1146.092 L703.779319,1144.664 C703.779319,1141.876 702.215319,1140.482 699.767319,1140.482 C697.693319,1140.482 696.231319,1141.468 694.939319,1143.134 L693.205319,1141.706 C694.769319,1139.19 697.285319,1138.068 699.937319,1138.068 Z M698.713319,1153.198 C701.433319,1153.198 703.779319,1151.226 703.779319,1148.642 L703.779319,1148.234 L698.849319,1148.234 C696.537319,1148.234 695.279319,1149.016 695.279319,1150.58 C695.279319,1152.348 696.877319,1153.198 698.713319,1153.198 Z M723.662,1138.442 L726.45,1138.442 L718.29,1157.312 C716.998,1160.27 715.196,1161.494 712.68,1161.494 C711.864,1161.494 710.912,1161.358 710.13,1161.154 L710.13,1158.944 C710.912,1159.046 711.558,1159.114 712.136,1159.114 C713.734,1159.114 714.958,1158.57 715.876,1156.462 L716.76,1154.456 L709.892,1138.442 L712.714,1138.442 L718.188,1151.634 L723.662,1138.442 Z M744.326681,1145.548 C744.326681,1146.432 744.190681,1147.214 744.122681,1147.52 L731.066681,1147.52 C731.406681,1150.818 733.854681,1152.96 737.118681,1152.96 C739.192681,1152.96 740.824681,1152.076 742.184681,1150.716 L743.714681,1152.484 C742.048681,1154.252 739.804681,1155.374 737.084681,1155.374 C732.086681,1155.374 728.312681,1151.6 728.312681,1146.738 C728.312681,1141.91 732.018681,1138.068 736.778681,1138.068 C741.028681,1138.068 744.326681,1141.128 744.326681,1145.548 Z M736.710681,1140.448 C733.922681,1140.448 731.712681,1142.352 731.168681,1145.208 L741.640681,1145.208 C741.606681,1142.148 739.362681,1140.448 736.710681,1140.448 Z M756.457361,1138.306 C757.001361,1138.306 757.341361,1138.374 757.681361,1138.442 L757.681361,1140.754 L756.695361,1140.754 C754.009361,1140.754 751.493361,1142.454 751.493361,1145.616 L751.493361,1155 L748.875361,1155 L748.875361,1138.442 L751.323361,1138.442 L751.323361,1140.822 C752.547361,1139.19 754.485361,1138.306 756.457361,1138.306 Z M776.570722,1138.068 C780.344722,1138.068 783.030722,1140.346 783.030722,1144.8 L783.030722,1155 L780.582722,1155 L780.582722,1152.858 C779.392722,1154.456 777.454722,1155.374 775.006722,1155.374 C771.674722,1155.374 769.226722,1153.606 769.226722,1150.716 C769.226722,1147.928 771.572722,1146.092 775.176722,1146.092 L780.412722,1146.092 L780.412722,1144.664 C780.412722,1141.876 778.848722,1140.482 776.400722,1140.482 C774.326722,1140.482 772.864722,1141.468 771.572722,1143.134 L769.838722,1141.706 C771.402722,1139.19 773.918722,1138.068 776.570722,1138.068 Z M775.346722,1153.198 C778.066722,1153.198 780.412722,1151.226 780.412722,1148.642 L780.412722,1148.234 L775.482722,1148.234 C773.170722,1148.234 771.912722,1149.016 771.912722,1150.58 C771.912722,1152.348 773.510722,1153.198 775.346722,1153.198 Z M796.079403,1138.068 C799.989403,1138.068 802.233403,1140.754 802.233403,1144.596 L802.233403,1155 L799.615403,1155 L799.615403,1144.902 C799.615403,1142.284 798.051403,1140.482 795.501403,1140.482 C792.951403,1140.482 791.149403,1142.318 791.149403,1144.902 L791.149403,1155 L788.531403,1155 L788.531403,1138.442 L790.979403,1138.442 L790.979403,1140.244 C792.135403,1138.884 793.937403,1138.068 796.079403,1138.068 Z M820.858083,1129.5 L823.476083,1129.5 L823.476083,1155 L820.994083,1155 L820.994083,1152.348 C819.702083,1154.252 817.356083,1155.374 814.738083,1155.374 C810.012083,1155.374 806.544083,1151.6 806.544083,1146.738 C806.544083,1141.842 810.012083,1138.068 814.738083,1138.068 C817.254083,1138.068 819.532083,1139.122 820.858083,1140.89 L820.858083,1129.5 Z M815.112083,1152.96 C817.968083,1152.96 820.892083,1151.09 820.892083,1146.738 C820.892083,1142.386 817.968083,1140.482 815.112083,1140.482 C811.746083,1140.482 809.230083,1143.1 809.230083,1146.704 C809.230083,1150.308 811.712083,1152.96 815.112083,1152.96 Z M844.609444,1138.068 C848.383444,1138.068 851.069444,1140.346 851.069444,1144.8 L851.069444,1155 L848.621444,1155 L848.621444,1152.858 C847.431444,1154.456 845.493444,1155.374 843.045444,1155.374 C839.713444,1155.374 837.265444,1153.606 837.265444,1150.716 C837.265444,1147.928 839.611444,1146.092 843.215444,1146.092 L848.451444,1146.092 L848.451444,1144.664 C848.451444,1141.876 846.887444,1140.482 844.439444,1140.482 C842.365444,1140.482 840.903444,1141.468 839.611444,1143.134 L837.877444,1141.706 C839.441444,1139.19 841.957444,1138.068 844.609444,1138.068 Z M843.385444,1153.198 C846.105444,1153.198 848.451444,1151.226 848.451444,1148.642 L848.451444,1148.234 L843.521444,1148.234 C841.209444,1148.234 839.951444,1149.016 839.951444,1150.58 C839.951444,1152.348 841.549444,1153.198 843.385444,1153.198 Z M859.188125,1129.5 L859.188125,1155 L856.570125,1155 L856.570125,1129.5 L859.188125,1129.5 Z M873.596806,1138.068 C878.322806,1138.068 881.790806,1141.842 881.790806,1146.738 C881.790806,1151.6 878.356806,1155.374 873.630806,1155.374 C871.046806,1155.374 868.632806,1154.252 867.340806,1152.348 L867.340806,1155 L864.892806,1155 L864.892806,1129.5 L867.510806,1129.5 L867.510806,1140.89 C868.802806,1139.156 871.080806,1138.068 873.596806,1138.068 Z M873.222806,1152.96 C876.622806,1152.96 879.104806,1150.308 879.104806,1146.704 C879.104806,1143.1 876.588806,1140.482 873.222806,1140.482 C870.332806,1140.482 867.476806,1142.386 867.476806,1146.738 C867.476806,1151.09 870.366806,1152.96 873.222806,1152.96 Z M899.837486,1138.442 L899.837486,1148.404 C899.837486,1152.654 896.811486,1155.374 893.003486,1155.374 C889.127486,1155.374 886.135486,1152.654 886.135486,1148.404 L886.135486,1138.442 L888.719486,1138.442 L888.719486,1148.574 C888.719486,1151.294 890.623486,1152.96 893.003486,1152.96 C895.315486,1152.96 897.219486,1151.294 897.219486,1148.574 L897.219486,1138.442 L899.837486,1138.442 Z M923.494167,1138.068 C927.370167,1138.068 929.512167,1140.754 929.512167,1144.596 L929.512167,1155 L926.894167,1155 L926.894167,1144.936 C926.894167,1142.318 925.466167,1140.482 922.984167,1140.482 C920.468167,1140.482 918.734167,1142.386 918.734167,1144.698 L918.734167,1155 L916.116167,1155 L916.116167,1144.936 C916.116167,1142.318 914.620167,1140.482 912.172167,1140.482 C909.656167,1140.482 907.956167,1142.318 907.956167,1144.936 L907.956167,1155 L905.338167,1155 L905.338167,1138.442 L907.786167,1138.442 L907.786167,1140.176 C908.942167,1138.85 910.642167,1138.068 912.716167,1138.068 C915.198167,1138.068 916.898167,1139.19 917.816167,1140.924 C918.972167,1139.258 920.944167,1138.068 923.494167,1138.068 Z M953.195528,1138.068 C957.955528,1138.068 961.389528,1141.842 961.389528,1146.704 C961.389528,1151.6 957.921528,1155.374 953.195528,1155.374 C950.747528,1155.374 948.435528,1154.354 947.109528,1152.586 L947.109528,1161.12 L944.491528,1161.12 L944.491528,1138.442 L946.939528,1138.442 L946.939528,1141.094 C948.231528,1139.19 950.577528,1138.068 953.195528,1138.068 Z M952.821528,1152.96 C956.187528,1152.96 958.703528,1150.342 958.703528,1146.738 C958.703528,1143.134 956.221528,1140.482 952.821528,1140.482 C949.965528,1140.482 947.075528,1142.352 947.075528,1146.704 C947.075528,1151.056 949.931528,1152.96 952.821528,1152.96 Z M971.888208,1138.068 C975.662208,1138.068 978.348208,1140.346 978.348208,1144.8 L978.348208,1155 L975.900208,1155 L975.900208,1152.858 C974.710208,1154.456 972.772208,1155.374 970.324208,1155.374 C966.992208,1155.374 964.544208,1153.606 964.544208,1150.716 C964.544208,1147.928 966.890208,1146.092 970.494208,1146.092 L975.730208,1146.092 L975.730208,1144.664 C975.730208,1141.876 974.166208,1140.482 971.718208,1140.482 C969.644208,1140.482 968.182208,1141.468 966.890208,1143.134 L965.156208,1141.706 C966.720208,1139.19 969.236208,1138.068 971.888208,1138.068 Z M970.664208,1153.198 C973.384208,1153.198 975.730208,1151.226 975.730208,1148.642 L975.730208,1148.234 L970.800208,1148.234 C968.488208,1148.234 967.230208,1149.016 967.230208,1150.58 C967.230208,1152.348 968.828208,1153.198 970.664208,1153.198 Z M997.278889,1138.442 L999.760889,1138.442 L999.760889,1153.402 C999.760889,1158.502 996.530889,1161.494 991.702889,1161.494 C988.234889,1161.494 985.548889,1159.93 983.916889,1158.298 L985.446889,1156.462 C987.044889,1157.856 988.914889,1159.08 991.634889,1159.08 C995.000889,1159.08 997.142889,1157.21 997.142889,1153.538 L997.142889,1152.076 C995.782889,1153.81 993.470889,1154.83 990.988889,1154.83 C986.330889,1154.83 982.862889,1151.294 982.862889,1146.466 C982.862889,1141.672 986.330889,1138.068 990.988889,1138.068 C993.606889,1138.068 995.986889,1139.224 997.278889,1141.128 L997.278889,1138.442 Z M991.396889,1152.416 C994.286889,1152.416 997.176889,1150.614 997.176889,1146.466 C997.176889,1142.318 994.252889,1140.55 991.396889,1140.55 C988.030889,1140.55 985.514889,1142.998 985.514889,1146.5 C985.514889,1150.002 988.030889,1152.416 991.396889,1152.416 Z M1020.28957,1145.548 C1020.28957,1146.432 1020.15357,1147.214 1020.08557,1147.52 L1007.02957,1147.52 C1007.36957,1150.818 1009.81757,1152.96 1013.08157,1152.96 C1015.15557,1152.96 1016.78757,1152.076 1018.14757,1150.716 L1019.67757,1152.484 C1018.01157,1154.252 1015.76757,1155.374 1013.04757,1155.374 C1008.04957,1155.374 1004.27557,1151.6 1004.27557,1146.738 C1004.27557,1141.91 1007.98157,1138.068 1012.74157,1138.068 C1016.99157,1138.068 1020.28957,1141.128 1020.28957,1145.548 Z M1012.67357,1140.448 C1009.88557,1140.448 1007.67557,1142.352 1007.13157,1145.208 L1017.60357,1145.208 C1017.56957,1142.148 1015.32557,1140.448 1012.67357,1140.448 Z M1026.53825,1151.09 C1027.69425,1151.09 1028.68025,1151.974 1028.68025,1153.232 C1028.68025,1154.49 1027.69425,1155.374 1026.53825,1155.374 C1025.38225,1155.374 1024.39625,1154.49 1024.39625,1153.232 C1024.39625,1151.974 1025.38225,1151.09 1026.53825,1151.09 Z" id="ThisUIconceptwasbasedonredesigningSpotify’smediaplayerandalbumpage."></path>
        </g>
    </g>
</svg>