<?xml version="1.0" encoding="UTF-8"?>
<svg width="465px" height="22px" viewBox="0 0 465 22" version="1.1" xmlns="http://www.w3.org/2000/svg" xmlns:xlink="http://www.w3.org/1999/xlink">
    <!-- Generator: Sketch 52.6 (67491) - http://www.bohemiancoding.com/sketch -->
    <title>I’d love to work tog</title>
    <desc>Created with Sketch.</desc>
    <g id="Page-1" stroke="none" stroke-width="1" fill="none" fill-rule="evenodd">
        <g id="Desktop-HD-Copy-33" transform="translate(-488.000000, -532.000000)" fill="#727272">
            <path d="M488.543,549 L488.543,534.48 L490.875,534.48 L490.875,549 L488.543,549 Z M494.659,540.376 L494.857,534.48 L497.519,534.48 L496.441,540.376 L494.659,540.376 Z M508.453,532.5 L510.785,532.5 L510.785,549 L508.629,549 L508.629,547.46 C507.837,548.582 506.451,549.242 504.845,549.242 C501.809,549.242 499.565,546.8 499.565,543.61 C499.499,540.464 501.853,537.89 504.845,537.956 C506.341,537.956 507.639,538.528 508.453,539.518 L508.453,532.5 Z M508.497,543.61 C508.497,541.278 506.913,540.068 505.241,540.068 C503.393,540.068 501.919,541.52 501.919,543.588 C501.919,545.656 503.327,547.13 505.241,547.13 C506.935,547.13 508.497,545.964 508.497,543.61 Z M520.289,549 L520.289,532.5 L522.599,532.5 L522.599,549 L520.289,549 Z M525.261,543.588 C525.195,540.486 527.857,537.912 530.959,537.956 C534.105,537.89 536.767,540.53 536.701,543.588 C536.767,546.646 534.105,549.308 530.959,549.242 C527.857,549.308 525.195,546.646 525.261,543.588 Z M534.325,543.61 C534.325,541.608 532.851,540.068 530.981,540.068 C529.067,540.068 527.615,541.608 527.615,543.61 C527.615,545.612 529.067,547.108 530.959,547.108 C532.873,547.108 534.325,545.568 534.325,543.61 Z M546.425,538.198 L548.889,538.198 L543.675,549.242 L542.883,549.242 L537.647,538.198 L540.111,538.198 L543.279,545.348 L546.425,538.198 Z M560.263,544.358 L552.211,544.358 C552.497,546.118 553.883,547.196 555.731,547.196 C556.853,547.196 557.909,546.778 558.877,545.92 L559.977,547.504 C558.745,548.67 557.315,549.242 555.665,549.242 C552.365,549.242 549.857,546.8 549.857,543.61 C549.791,540.508 552.387,537.89 555.445,537.956 C558.305,537.956 560.439,540.09 560.439,542.906 C560.439,543.368 560.373,543.852 560.263,544.358 Z M552.255,542.554 L558.129,542.554 C558.107,540.904 556.875,539.914 555.357,539.914 C553.839,539.914 552.607,540.948 552.255,542.554 Z M575.663,547.042 L575.663,549 C574.937,549.154 574.299,549.242 573.749,549.242 C571.263,549.242 569.767,548.01 569.767,545.48 L569.767,540.2 L568.007,540.2 L568.007,538.198 L569.767,538.198 L569.767,535.36 L572.099,535.36 L572.099,538.198 L575.311,538.198 L575.311,540.2 L572.099,540.2 L572.099,545.282 C572.099,546.668 572.825,547.152 574.233,547.152 C574.563,547.152 575.025,547.108 575.663,547.042 Z M577.093,543.588 C577.027,540.486 579.689,537.912 582.791,537.956 C585.937,537.89 588.599,540.53 588.533,543.588 C588.599,546.646 585.937,549.308 582.791,549.242 C579.689,549.308 577.027,546.646 577.093,543.588 Z M586.157,543.61 C586.157,541.608 584.683,540.068 582.813,540.068 C580.899,540.068 579.447,541.608 579.447,543.61 C579.447,545.612 580.899,547.108 582.791,547.108 C584.705,547.108 586.157,545.568 586.157,543.61 Z M610.907,538.198 L613.371,538.198 L608.575,549.242 L607.783,549.242 L604.395,542.048 L601.007,549.242 L600.215,549.242 L595.419,538.198 L597.883,538.198 L600.721,545.26 L603.999,537.956 L604.791,537.956 L608.113,545.172 L610.907,538.198 Z M614.339,543.588 C614.273,540.486 616.935,537.912 620.037,537.956 C623.183,537.89 625.845,540.53 625.779,543.588 C625.845,546.646 623.183,549.308 620.037,549.242 C616.935,549.308 614.273,546.646 614.339,543.588 Z M623.403,543.61 C623.403,541.608 621.929,540.068 620.059,540.068 C618.145,540.068 616.693,541.608 616.693,543.61 C616.693,545.612 618.145,547.108 620.037,547.108 C621.951,547.108 623.403,545.568 623.403,543.61 Z M634.601,538.198 L634.601,540.244 L633.897,540.244 C632.071,540.244 630.729,541.322 630.729,543.236 L630.729,549 L628.419,549 L628.419,538.198 L630.575,538.198 L630.575,539.606 C631.345,538.638 632.489,538.088 633.721,538.088 C634.051,538.088 634.337,538.132 634.601,538.198 Z M636.669,549 L636.669,532.5 L638.979,532.5 L638.979,549 L636.669,549 Z M641.773,542.95 L646.503,549 L643.731,549 L639.045,542.928 L643.269,538.198 L646.129,538.198 L641.773,542.95 Z M660.979,547.042 L660.979,549 C660.253,549.154 659.615,549.242 659.065,549.242 C656.579,549.242 655.083,548.01 655.083,545.48 L655.083,540.2 L653.323,540.2 L653.323,538.198 L655.083,538.198 L655.083,535.36 L657.415,535.36 L657.415,538.198 L660.627,538.198 L660.627,540.2 L657.415,540.2 L657.415,545.282 C657.415,546.668 658.141,547.152 659.549,547.152 C659.879,547.152 660.341,547.108 660.979,547.042 Z M662.409,543.588 C662.343,540.486 665.005,537.912 668.107,537.956 C671.253,537.89 673.915,540.53 673.849,543.588 C673.915,546.646 671.253,549.308 668.107,549.242 C665.005,549.308 662.343,546.646 662.409,543.588 Z M671.473,543.61 C671.473,541.608 669.999,540.068 668.129,540.068 C666.215,540.068 664.763,541.608 664.763,543.61 C664.763,545.612 666.215,547.108 668.107,547.108 C670.021,547.108 671.473,545.568 671.473,543.61 Z M684.959,538.198 L687.093,538.198 L687.093,547.878 C687.093,551.288 684.959,553.202 681.681,553.202 C679.547,553.202 677.787,552.366 676.489,551.156 L677.765,549.55 C678.975,550.518 680.075,551.09 681.549,551.09 C683.507,551.09 684.783,550.034 684.783,548.01 L684.783,547.24 C683.969,548.23 682.627,548.78 681.131,548.78 C678.117,548.78 675.873,546.514 675.873,543.368 C675.873,540.222 678.139,537.956 681.131,537.956 C682.781,537.956 684.167,538.616 684.959,539.738 L684.959,538.198 Z M684.805,543.346 C684.805,541.146 683.331,540.024 681.549,540.024 C680.603,540.024 679.833,540.332 679.195,540.948 C678.557,541.564 678.249,542.378 678.249,543.368 C678.249,544.38 678.557,545.194 679.195,545.832 C679.833,546.448 680.603,546.756 681.549,546.756 C682.451,546.756 683.199,546.47 683.837,545.876 C684.475,545.282 684.805,544.446 684.805,543.346 Z M700.161,544.358 L692.109,544.358 C692.395,546.118 693.781,547.196 695.629,547.196 C696.751,547.196 697.807,546.778 698.775,545.92 L699.875,547.504 C698.643,548.67 697.213,549.242 695.563,549.242 C692.263,549.242 689.755,546.8 689.755,543.61 C689.689,540.508 692.285,537.89 695.343,537.956 C698.203,537.956 700.337,540.09 700.337,542.906 C700.337,543.368 700.271,543.852 700.161,544.358 Z M692.153,542.554 L698.027,542.554 C698.005,540.904 696.773,539.914 695.255,539.914 C693.737,539.914 692.505,540.948 692.153,542.554 Z M709.401,547.042 L709.401,549 C708.675,549.154 708.037,549.242 707.487,549.242 C705.001,549.242 703.505,548.01 703.505,545.48 L703.505,540.2 L701.745,540.2 L701.745,538.198 L703.505,538.198 L703.505,535.36 L705.837,535.36 L705.837,538.198 L709.049,538.198 L709.049,540.2 L705.837,540.2 L705.837,545.282 C705.837,546.668 706.563,547.152 707.971,547.152 C708.301,547.152 708.763,547.108 709.401,547.042 Z M721.171,542.246 L721.171,549 L718.861,549 L718.861,542.576 C718.861,541.08 717.937,540.068 716.507,540.068 C715.077,540.068 714.043,541.102 714.043,542.576 L714.043,549 L711.733,549 L711.733,532.5 L714.043,532.5 L714.043,539.276 C714.769,538.418 715.869,537.956 717.167,537.956 C719.631,537.956 721.171,539.694 721.171,542.246 Z M734.107,544.358 L726.055,544.358 C726.341,546.118 727.727,547.196 729.575,547.196 C730.697,547.196 731.753,546.778 732.721,545.92 L733.821,547.504 C732.589,548.67 731.159,549.242 729.509,549.242 C726.209,549.242 723.701,546.8 723.701,543.61 C723.635,540.508 726.231,537.89 729.289,537.956 C732.149,537.956 734.283,540.09 734.283,542.906 C734.283,543.368 734.217,543.852 734.107,544.358 Z M726.099,542.554 L731.973,542.554 C731.951,540.904 730.719,539.914 729.201,539.914 C727.683,539.914 726.451,540.948 726.099,542.554 Z M743.105,538.198 L743.105,540.244 L742.401,540.244 C740.575,540.244 739.233,541.322 739.233,543.236 L739.233,549 L736.923,549 L736.923,538.198 L739.079,538.198 L739.079,539.606 C739.849,538.638 740.993,538.088 742.225,538.088 C742.555,538.088 742.841,538.132 743.105,538.198 Z M743.699,552.916 L743.919,546.668 L746.603,546.668 L745.569,552.916 L743.699,552.916 Z M754.985,547.152 L756.305,545.7 C757.251,546.69 758.197,547.24 759.341,547.24 C760.331,547.24 761.079,546.822 761.079,546.03 C761.079,545.392 760.617,545.128 759.561,544.688 L758.461,544.226 C756.547,543.434 755.645,542.598 755.645,541.08 C755.645,539.144 757.251,537.956 759.451,537.956 C761.013,537.956 762.245,538.506 763.191,539.628 L761.937,541.058 C761.255,540.354 760.353,539.958 759.407,539.958 C758.505,539.958 757.933,540.31 757.933,540.992 C757.933,541.542 758.307,541.828 759.363,542.268 L760.397,542.686 C762.443,543.544 763.345,544.424 763.345,545.942 C763.345,546.976 762.971,547.79 762.201,548.384 C761.431,548.956 760.485,549.242 759.341,549.242 C757.493,549.242 755.953,548.406 754.985,547.152 Z M765.325,543.588 C765.259,540.486 767.921,537.912 771.023,537.956 C774.169,537.89 776.831,540.53 776.765,543.588 C776.831,546.646 774.169,549.308 771.023,549.242 C767.921,549.308 765.259,546.646 765.325,543.588 Z M774.389,543.61 C774.389,541.608 772.915,540.068 771.045,540.068 C769.131,540.068 767.679,541.608 767.679,543.61 C767.679,545.612 769.131,547.108 771.023,547.108 C772.937,547.108 774.389,545.568 774.389,543.61 Z M791.747,538.198 L791.747,540.244 L791.043,540.244 C789.217,540.244 787.875,541.322 787.875,543.236 L787.875,549 L785.565,549 L785.565,538.198 L787.721,538.198 L787.721,539.606 C788.491,538.638 789.635,538.088 790.867,538.088 C791.197,538.088 791.483,538.132 791.747,538.198 Z M803.319,544.358 L795.267,544.358 C795.553,546.118 796.939,547.196 798.787,547.196 C799.909,547.196 800.965,546.778 801.933,545.92 L803.033,547.504 C801.801,548.67 800.371,549.242 798.721,549.242 C795.421,549.242 792.913,546.8 792.913,543.61 C792.847,540.508 795.443,537.89 798.501,537.956 C801.361,537.956 803.495,540.09 803.495,542.906 C803.495,543.368 803.429,543.852 803.319,544.358 Z M795.311,542.554 L801.185,542.554 C801.163,540.904 799.931,539.914 798.413,539.914 C796.895,539.914 795.663,540.948 795.311,542.554 Z M814.715,542.466 L814.715,549 L812.559,549 L812.559,547.79 C811.767,548.736 810.579,549.242 809.105,549.242 C806.839,549.242 805.343,547.988 805.343,546.118 C805.343,544.248 806.883,543.038 809.325,543.038 L812.383,543.038 L812.383,542.334 C812.383,540.838 811.547,540.024 810.073,540.024 C808.863,540.024 807.983,540.552 807.081,541.63 L805.739,540.266 C806.817,538.704 808.423,537.956 810.293,537.956 C812.955,537.956 814.715,539.562 814.715,542.466 Z M812.383,544.908 L812.383,544.71 L809.611,544.71 C808.379,544.71 807.697,545.15 807.697,546.03 C807.697,546.932 808.467,547.46 809.589,547.46 C811.151,547.46 812.383,546.382 812.383,544.908 Z M817.245,543.588 C817.179,540.486 819.863,537.912 822.965,537.956 C824.967,537.956 826.573,538.902 827.519,540.464 L825.891,541.74 C825.121,540.64 824.153,540.09 822.987,540.09 C821.051,540.09 819.599,541.63 819.599,543.588 C819.599,545.568 821.051,547.108 822.987,547.108 C824.131,547.108 825.099,546.558 825.891,545.48 L827.519,546.734 C826.551,548.296 824.923,549.242 822.965,549.242 C819.775,549.242 817.245,546.734 817.245,543.588 Z M839.509,542.246 L839.509,549 L837.199,549 L837.199,542.576 C837.199,541.08 836.275,540.068 834.845,540.068 C833.415,540.068 832.381,541.102 832.381,542.576 L832.381,549 L830.071,549 L830.071,532.5 L832.381,532.5 L832.381,539.276 C833.107,538.418 834.207,537.956 835.505,537.956 C837.969,537.956 839.509,539.694 839.509,542.246 Z M848.199,543.588 C848.133,540.486 850.795,537.912 853.897,537.956 C857.043,537.89 859.705,540.53 859.639,543.588 C859.705,546.646 857.043,549.308 853.897,549.242 C850.795,549.308 848.133,546.646 848.199,543.588 Z M857.263,543.61 C857.263,541.608 855.789,540.068 853.919,540.068 C852.005,540.068 850.553,541.608 850.553,543.61 C850.553,545.612 852.005,547.108 853.897,547.108 C855.811,547.108 857.263,545.568 857.263,543.61 Z M862.169,544.468 L862.169,538.198 L864.457,538.198 L864.457,544.644 C864.457,546.14 865.491,547.108 866.899,547.108 C868.241,547.108 869.275,546.14 869.275,544.644 L869.275,538.198 L871.585,538.198 L871.585,544.468 C871.585,547.372 869.539,549.242 866.899,549.242 C864.193,549.242 862.169,547.372 862.169,544.468 Z M881.243,547.042 L881.243,549 C880.517,549.154 879.879,549.242 879.329,549.242 C876.843,549.242 875.347,548.01 875.347,545.48 L875.347,540.2 L873.587,540.2 L873.587,538.198 L875.347,538.198 L875.347,535.36 L877.679,535.36 L877.679,538.198 L880.891,538.198 L880.891,540.2 L877.679,540.2 L877.679,545.282 C877.679,546.668 878.405,547.152 879.813,547.152 C880.143,547.152 880.605,547.108 881.243,547.042 Z M896.159,547.042 L896.159,549 C895.433,549.154 894.795,549.242 894.245,549.242 C891.759,549.242 890.263,548.01 890.263,545.48 L890.263,540.2 L888.503,540.2 L888.503,538.198 L890.263,538.198 L890.263,535.36 L892.595,535.36 L892.595,538.198 L895.807,538.198 L895.807,540.2 L892.595,540.2 L892.595,545.282 C892.595,546.668 893.321,547.152 894.729,547.152 C895.059,547.152 895.521,547.108 896.159,547.042 Z M897.589,543.588 C897.523,540.486 900.185,537.912 903.287,537.956 C906.433,537.89 909.095,540.53 909.029,543.588 C909.095,546.646 906.433,549.308 903.287,549.242 C900.185,549.308 897.523,546.646 897.589,543.588 Z M906.653,543.61 C906.653,541.608 905.179,540.068 903.309,540.068 C901.395,540.068 899.943,541.608 899.943,543.61 C899.943,545.612 901.395,547.108 903.287,547.108 C905.201,547.108 906.653,545.568 906.653,543.61 Z M934.043,542.246 L934.043,549 L931.711,549 L931.711,542.576 C931.711,541.058 930.853,540.068 929.467,540.068 C928.059,540.068 927.091,541.08 927.091,542.466 L927.091,549 L924.781,549 L924.781,542.576 C924.781,541.08 923.901,540.068 922.515,540.068 C921.107,540.068 920.139,541.08 920.139,542.576 L920.139,549 L917.829,549 L917.829,538.198 L919.985,538.198 L919.985,539.21 C920.755,538.418 921.811,537.956 923.109,537.956 C924.605,537.956 925.749,538.594 926.387,539.65 C927.179,538.616 928.521,537.956 930.039,537.956 C932.525,537.956 934.043,539.672 934.043,542.246 Z M946.979,544.358 L938.927,544.358 C939.213,546.118 940.599,547.196 942.447,547.196 C943.569,547.196 944.625,546.778 945.593,545.92 L946.693,547.504 C945.461,548.67 944.031,549.242 942.381,549.242 C939.081,549.242 936.573,546.8 936.573,543.61 C936.507,540.508 939.103,537.89 942.161,537.956 C945.021,537.956 947.155,540.09 947.155,542.906 C947.155,543.368 947.089,543.852 946.979,544.358 Z M938.971,542.554 L944.845,542.554 C944.823,540.904 943.591,539.914 942.073,539.914 C940.555,539.914 939.323,540.948 938.971,542.554 Z M949.487,547.548 C949.487,546.58 950.257,545.832 951.225,545.832 C952.193,545.832 952.919,546.558 952.919,547.548 C952.919,548.516 952.193,549.242 951.225,549.242 C950.257,549.242 949.487,548.516 949.487,547.548 Z" id="I’d-love-to-work-tog"></path>
        </g>
    </g>
</svg>