<?xml version="1.0" encoding="UTF-8"?>
<svg width="572px" height="189px" viewBox="0 0 572 189" version="1.1" xmlns="http://www.w3.org/2000/svg" xmlns:xlink="http://www.w3.org/1999/xlink">
    <!-- Generator: Sketch 53.2 (72643) - https://sketchapp.com -->
    <title>CrackedMirrors</title>
    <desc>Created with Sketch.</desc>
    <defs>
        <linearGradient x1="74.000038%" y1="49.7355944%" x2="-16.1444198%" y2="50.8742938%" id="linearGradient-1">
            <stop stop-color="#FA8561" offset="0%"></stop>
            <stop stop-color="#D31CF7" offset="100%"></stop>
        </linearGradient>
    </defs>
    <g id="Page-1" stroke="none" stroke-width="1" fill="none" fill-rule="evenodd">
        <g id="Desktop-HD-Copy-27" transform="translate(-1728.000000, -496.000000)">
            <g id="CrackedMirrors" transform="translate(1728.000000, 496.000000)">
                <rect id="Rectangle-Copy-5" fill="#000000" x="0" y="0" width="572" height="189" rx="16"></rect>
                <path d="M42.752,71.612 C52.404,71.612 60.46,76.4 64.868,84.076 L57.116,89.548 C53.772,84.228 49.06,81.112 42.752,81.112 C33.404,81.112 26.564,87.952 26.564,97.68 C26.564,107.332 33.404,114.096 42.752,114.096 C49.06,114.096 53.772,110.98 57.116,105.66 L64.868,111.132 C60.536,118.808 52.404,123.596 42.676,123.596 C27.78,123.596 16,112.348 16,97.604 C16,82.86 27.78,71.612 42.752,71.612 Z M90.914137,84.608 C92.282137,84.608 93.270137,84.76 94.258137,85.064 L94.258137,94.108 L91.522137,94.108 C85.594137,94.108 81.414137,97.148 81.414137,103.912 L81.414137,122.684 L71.154137,122.684 L71.154137,85.064 L80.578137,85.064 L80.578137,89.624 C83.086137,86.356 86.810137,84.608 90.914137,84.608 Z M113.540274,84.228 C123.116274,84.228 129.652274,89.624 129.652274,100.34 L129.652274,122.684 L120.228274,122.684 L120.228274,119.036 C117.568274,121.848 113.616274,123.596 108.752274,123.596 C100.544274,123.596 95.756274,118.732 95.756274,112.348 C95.756274,105.508 101.304274,101.404 109.968274,101.404 L119.392274,101.404 L119.392274,99.732 C119.392274,95.628 117.036274,93.12 112.400274,93.12 C108.372274,93.12 105.560274,95.02 102.444274,98.288 L97.124274,91.98 C101.532274,86.736 106.928274,84.228 113.540274,84.228 Z M111.488274,116.072 C115.820274,116.072 119.392274,113.032 119.392274,108.624 L119.392274,108.168 L111.336274,108.168 C107.992274,108.168 106.092274,109.46 106.092274,111.968 C106.092274,114.552 108.296274,116.072 111.488274,116.072 Z M155.774411,84.228 C163.298411,84.228 168.998411,87.876 172.114411,93.5 L164.970411,99.048 C162.842411,95.856 160.106411,93.576 155.926411,93.576 C150.074411,93.576 146.046411,97.984 146.046411,103.836 C146.046411,109.764 150.074411,114.172 155.926411,114.172 C160.030411,114.172 162.766411,111.892 164.970411,108.776 L172.114411,114.248 C168.998411,119.872 163.222411,123.596 155.774411,123.596 C144.526411,123.596 135.634411,115.008 135.634411,103.836 C135.634411,92.74 144.526411,84.228 155.774411,84.228 Z M215.032548,122.684 L203.328548,122.684 L188.204548,101.936 L188.204548,122.684 L177.944548,122.684 L177.944548,65.684 L188.204548,65.684 L188.204548,101.176 L201.732548,85.064 L213.892548,85.064 L199.756548,101.708 L215.032548,122.684 Z M252.478685,101.708 C252.478685,103.836 252.098685,106.04 251.794685,107.332 L225.346685,107.332 C226.638685,112.12 230.590685,114.78 235.986685,114.78 C240.090685,114.78 243.434685,113.336 246.474685,110.98 L250.730685,117.972 C246.474685,121.544 241.458685,123.596 235.682685,123.596 C223.750685,123.596 215.086685,115.008 215.086685,103.912 C215.086685,92.816 223.674685,84.228 234.770685,84.228 C245.334685,84.228 252.478685,91.98 252.478685,101.708 Z M234.390685,92.512 C230.058685,92.512 226.562685,95.4 225.346685,100.112 L242.522685,100.112 C242.446685,95.324 238.722685,92.512 234.390685,92.512 Z M286.048822,65.684 L296.308822,65.684 L296.308822,122.684 L286.884822,122.684 L286.884822,117.972 C284.300822,121.544 280.044822,123.596 274.800822,123.596 C264.160822,123.596 256.560822,115.236 256.560822,103.912 C256.560822,92.588 264.160822,84.228 274.800822,84.228 C279.512822,84.228 283.464822,85.824 286.048822,88.712 L286.048822,65.684 Z M276.700822,114.248 C281.412822,114.248 286.200822,111.132 286.200822,103.912 C286.200822,96.768 281.412822,93.5 276.700822,93.5 C271.380822,93.5 266.972822,97.452 266.972822,103.836 C266.972822,110.22 271.304822,114.248 276.700822,114.248 Z M370.669096,71.612 L374.013096,71.612 L374.013096,122.684 L363.753096,122.684 L363.753096,95.856 L351.137096,111.74 L347.793096,111.74 L335.177096,95.856 L335.177096,122.684 L324.917096,122.684 L324.917096,71.612 L328.261096,71.612 L349.465096,98.82 L370.669096,71.612 Z M387.823233,65 C391.471233,65 394.435233,67.736 394.435233,71.384 C394.435233,74.956 391.471233,77.692 387.823233,77.692 C384.175233,77.692 381.287233,74.956 381.287233,71.384 C381.287233,67.736 384.175233,65 387.823233,65 Z M392.991233,85.064 L392.991233,122.684 L382.731233,122.684 L382.731233,85.064 L392.991233,85.064 Z M421.16537,84.608 C422.53337,84.608 423.52137,84.76 424.50937,85.064 L424.50937,94.108 L421.77337,94.108 C415.84537,94.108 411.66537,97.148 411.66537,103.912 L411.66537,122.684 L401.40537,122.684 L401.40537,85.064 L410.82937,85.064 L410.82937,89.624 C413.33737,86.356 417.06137,84.608 421.16537,84.608 Z M448.883507,84.608 C450.251507,84.608 451.239507,84.76 452.227507,85.064 L452.227507,94.108 L449.491507,94.108 C443.563507,94.108 439.383507,97.148 439.383507,103.912 L439.383507,122.684 L429.123507,122.684 L429.123507,85.064 L438.547507,85.064 L438.547507,89.624 C441.055507,86.356 444.779507,84.608 448.883507,84.608 Z M474.093644,84.228 C485.189644,84.228 494.309644,92.74 494.309644,103.836 C494.309644,115.008 485.189644,123.52 474.017644,123.52 C462.845644,123.52 453.953644,115.008 453.953644,103.836 C453.953644,92.74 462.845644,84.228 474.093644,84.228 Z M474.093644,93.576 C468.393644,93.576 464.365644,97.984 464.365644,103.912 C464.365644,109.84 468.393644,114.096 474.093644,114.096 C479.641644,114.096 483.821644,109.764 483.821644,103.912 C483.821644,97.984 479.641644,93.576 474.093644,93.576 Z M520.279781,84.608 C521.647781,84.608 522.635781,84.76 523.623781,85.064 L523.623781,94.108 L520.887781,94.108 C514.959781,94.108 510.779781,97.148 510.779781,103.912 L510.779781,122.684 L500.519781,122.684 L500.519781,85.064 L509.943781,85.064 L509.943781,89.624 C512.451781,86.356 516.175781,84.608 520.279781,84.608 Z M541.005918,84.152 C546.477918,84.152 551.113918,86.052 554.533918,89.852 L549.365918,96.16 C546.933918,93.88 543.969918,92.588 540.929918,92.588 C538.497918,92.588 536.901918,93.424 536.901918,95.248 C536.901918,96.768 538.117918,97.528 540.853918,98.592 L544.501918,100.112 C551.265918,102.848 555.065918,105.736 555.065918,111.588 C555.065918,119.34 548.605918,123.596 540.397918,123.596 C533.709918,123.596 528.161918,120.708 524.817918,116.3 L529.985918,110.068 C533.025918,113.184 536.521918,115.16 540.549918,115.16 C543.133918,115.16 545.337918,114.172 545.337918,112.044 C545.337918,110.296 543.741918,109.612 541.461918,108.624 L537.433918,106.952 C531.049918,104.368 527.173918,101.404 527.173918,95.476 C527.173918,88.256 533.025918,84.152 541.005918,84.152 Z" fill="url(#linearGradient-1)" fill-rule="nonzero"></path>
            </g>
        </g>
    </g>
</svg>