<?xml version="1.0" encoding="UTF-8"?>
<svg width="741px" height="274px" viewBox="0 0 741 274" version="1.1" xmlns="http://www.w3.org/2000/svg" xmlns:xlink="http://www.w3.org/1999/xlink">
    <!-- Generator: Sketch 53.2 (72643) - https://sketchapp.com -->
    <title>ThisprojectfocusedondevelopinganinteractiveVRpiecethattooktheuseronajourneythroughahauntedhousefilledwithmyfearsasapersonofcolor.</title>
    <desc>Created with Sketch.</desc>
    <g id="Page-1" stroke="none" stroke-width="1" fill="none" fill-rule="evenodd">
        <g id="Desktop-HD-Copy-40" transform="translate(-349.000000, -216.000000)" fill="#404648" fill-rule="nonzero">
            <path d="M375.848,221.32 L375.848,224.68 L364.664,224.68 L364.664,253 L360.92,253 L360.92,224.68 L349.784,224.68 L349.784,221.32 L375.848,221.32 Z M390.284,229.096 C395.756,229.096 398.924,232.888 398.924,238.312 L398.924,253 L395.228,253 L395.228,238.792 C395.228,235.096 393.02,232.504 389.42,232.504 C385.82,232.504 383.276,235.144 383.276,238.792 L383.276,253 L379.58,253 L379.58,217 L383.276,217 L383.276,232.264 C384.812,230.296 387.26,229.096 390.284,229.096 Z M407.36,218.008 C408.848,218.008 410.096,219.208 410.096,220.696 C410.096,222.232 408.848,223.384 407.36,223.384 C405.776,223.384 404.576,222.232 404.576,220.696 C404.576,219.208 405.776,218.008 407.36,218.008 Z M409.184,229.624 L409.184,253 L405.488,253 L405.488,229.624 L409.184,229.624 Z M423.092,229.096 C426.452,229.096 429.092,230.536 430.916,232.792 L428.66,235.096 C427.124,233.512 425.108,232.504 422.9,232.504 C420.692,232.504 419.012,233.512 419.012,235.432 C419.012,237.016 420.212,237.784 422.804,238.84 L424.964,239.752 C429.188,241.528 431.156,243.352 431.156,246.664 C431.156,251.224 427.268,253.528 422.948,253.528 C418.82,253.528 415.7,251.464 413.828,248.968 L416.18,246.52 C418.1,248.536 420.068,250.12 422.9,250.12 C425.348,250.12 427.364,248.92 427.364,246.808 C427.364,244.792 425.636,244.024 423.284,243.064 L421.028,242.104 C417.476,240.616 415.22,238.984 415.22,235.624 C415.22,231.4 418.82,229.096 423.092,229.096 Z M461.036,229.096 C467.756,229.096 472.604,234.424 472.604,241.288 C472.604,248.2 467.708,253.528 461.036,253.528 C457.58,253.528 454.316,252.088 452.444,249.592 L452.444,261.64 L448.748,261.64 L448.748,229.624 L452.204,229.624 L452.204,233.368 C454.028,230.68 457.34,229.096 461.036,229.096 Z M460.508,250.12 C465.26,250.12 468.812,246.424 468.812,241.336 C468.812,236.248 465.308,232.504 460.508,232.504 C456.476,232.504 452.396,235.144 452.396,241.288 C452.396,247.432 456.428,250.12 460.508,250.12 Z M488.528,229.432 C489.296,229.432 489.776,229.528 490.256,229.624 L490.256,232.888 L488.864,232.888 C485.072,232.888 481.52,235.288 481.52,239.752 L481.52,253 L477.824,253 L477.824,229.624 L481.28,229.624 L481.28,232.984 C483.008,230.68 485.744,229.432 488.528,229.432 Z M504.02,229.096 C510.788,229.096 516.26,234.424 516.26,241.288 C516.26,248.104 510.788,253.48 503.972,253.48 C497.204,253.432 491.78,248.152 491.78,241.288 C491.78,234.424 497.156,229.096 504.02,229.096 Z M504.02,232.504 C499.124,232.504 495.524,236.344 495.572,241.336 C495.572,246.28 499.124,250.072 503.972,250.072 C508.82,250.072 512.468,246.232 512.468,241.336 C512.468,236.296 508.82,232.504 504.02,232.504 Z M523.352,218.008 C524.84,218.008 526.088,219.208 526.088,220.696 C526.088,222.232 524.84,223.384 523.352,223.384 C521.768,223.384 520.568,222.232 520.568,220.696 C520.568,219.208 521.768,218.008 523.352,218.008 Z M525.176,229.624 L525.176,254.584 C525.176,259.912 521.96,262.168 517.496,262.168 C516.296,262.168 515.384,262.024 514.52,261.784 L514.52,258.664 C515.336,258.76 515.912,258.808 516.68,258.808 C519.512,258.808 521.48,257.8 521.48,254.344 L521.48,229.624 L525.176,229.624 Z M552.956,239.656 C552.956,240.904 552.764,242.008 552.668,242.44 L534.236,242.44 C534.716,247.096 538.172,250.12 542.78,250.12 C545.708,250.12 548.012,248.872 549.932,246.952 L552.092,249.448 C549.74,251.944 546.572,253.528 542.732,253.528 C535.676,253.528 530.348,248.2 530.348,241.336 C530.348,234.52 535.58,229.096 542.3,229.096 C548.3,229.096 552.956,233.416 552.956,239.656 Z M542.204,232.456 C538.268,232.456 535.148,235.144 534.38,239.176 L549.164,239.176 C549.116,234.856 545.948,232.456 542.204,232.456 Z M568.736,229.096 C572.96,229.096 576.32,231.112 578.384,234.184 L575.744,236.296 C574.016,233.992 571.808,232.504 568.784,232.504 C563.888,232.504 560.288,236.392 560.288,241.288 C560.288,246.232 563.888,250.12 568.784,250.12 C571.76,250.12 573.968,248.68 575.696,246.376 L578.336,248.44 C576.272,251.512 572.912,253.528 568.736,253.528 C561.92,253.528 556.496,248.152 556.496,241.288 C556.496,234.472 561.92,229.096 568.736,229.096 Z M593.012,250.168 C593.924,250.168 594.932,250.072 596.132,249.88 L596.132,253 C594.932,253.288 593.732,253.528 592.244,253.528 C587.636,253.528 584.372,251.272 584.372,245.944 L584.372,232.936 L580.436,232.936 L580.436,229.624 L584.372,229.624 L584.372,223.24 L588.068,223.24 L588.068,229.624 L595.364,229.624 L595.364,232.936 L588.068,232.936 L588.068,245.704 C588.068,249.208 590.084,250.168 593.012,250.168 Z M621.74,219.832 C618.86,219.832 616.844,220.792 616.844,224.296 L616.844,229.624 L622.7,229.624 L622.7,232.936 L616.844,232.936 L616.844,253 L613.148,253 L613.148,232.936 L609.788,232.936 L609.788,229.624 L613.148,229.624 L613.148,224.056 C613.148,218.728 616.364,216.472 620.876,216.472 C622.028,216.472 622.94,216.616 623.804,216.856 L623.804,219.976 C623.036,219.88 622.364,219.832 621.74,219.832 Z M636.416,229.096 C643.184,229.096 648.656,234.424 648.656,241.288 C648.656,248.104 643.184,253.48 636.368,253.48 C629.6,253.432 624.176,248.152 624.176,241.288 C624.176,234.424 629.552,229.096 636.416,229.096 Z M636.416,232.504 C631.52,232.504 627.92,236.344 627.968,241.336 C627.968,246.28 631.52,250.072 636.368,250.072 C641.216,250.072 644.864,246.232 644.864,241.336 C644.864,236.296 641.216,232.504 636.416,232.504 Z M664.436,229.096 C668.66,229.096 672.02,231.112 674.084,234.184 L671.444,236.296 C669.716,233.992 667.508,232.504 664.484,232.504 C659.588,232.504 655.988,236.392 655.988,241.288 C655.988,246.232 659.588,250.12 664.484,250.12 C667.46,250.12 669.668,248.68 671.396,246.376 L674.036,248.44 C671.972,251.512 668.612,253.528 664.436,253.528 C657.62,253.528 652.196,248.152 652.196,241.288 C652.196,234.472 657.62,229.096 664.436,229.096 Z M698.12,229.624 L698.12,243.688 C698.12,249.688 693.848,253.528 688.472,253.528 C683,253.528 678.776,249.688 678.776,243.688 L678.776,229.624 L682.424,229.624 L682.424,243.928 C682.424,247.768 685.112,250.12 688.472,250.12 C691.736,250.12 694.424,247.768 694.424,243.928 L694.424,229.624 L698.12,229.624 Z M711.74,229.096 C715.1,229.096 717.74,230.536 719.564,232.792 L717.308,235.096 C715.772,233.512 713.756,232.504 711.548,232.504 C709.34,232.504 707.66,233.512 707.66,235.432 C707.66,237.016 708.86,237.784 711.452,238.84 L713.612,239.752 C717.836,241.528 719.804,243.352 719.804,246.664 C719.804,251.224 715.916,253.528 711.596,253.528 C707.468,253.528 704.348,251.464 702.476,248.968 L704.828,246.52 C706.748,248.536 708.716,250.12 711.548,250.12 C713.996,250.12 716.012,248.92 716.012,246.808 C716.012,244.792 714.284,244.024 711.932,243.064 L709.676,242.104 C706.124,240.616 703.868,238.984 703.868,235.624 C703.868,231.4 707.468,229.096 711.74,229.096 Z M746.144,239.656 C746.144,240.904 745.952,242.008 745.856,242.44 L727.424,242.44 C727.904,247.096 731.36,250.12 735.968,250.12 C738.896,250.12 741.2,248.872 743.12,246.952 L745.28,249.448 C742.928,251.944 739.76,253.528 735.92,253.528 C728.864,253.528 723.536,248.2 723.536,241.336 C723.536,234.52 728.768,229.096 735.488,229.096 C741.488,229.096 746.144,233.416 746.144,239.656 Z M735.392,232.456 C731.456,232.456 728.336,235.144 727.568,239.176 L742.352,239.176 C742.304,234.856 739.136,232.456 735.392,232.456 Z M769.892,217 L773.588,217 L773.588,253 L770.084,253 L770.084,249.256 C768.26,251.944 764.948,253.528 761.252,253.528 C754.58,253.528 749.684,248.2 749.684,241.336 C749.684,234.424 754.58,229.096 761.252,229.096 C764.804,229.096 768.02,230.584 769.892,233.08 L769.892,217 Z M761.78,250.12 C765.812,250.12 769.94,247.48 769.94,241.336 C769.94,235.192 765.812,232.504 761.78,232.504 C757.028,232.504 753.476,236.2 753.476,241.288 C753.476,246.376 756.98,250.12 761.78,250.12 Z M803.18,229.096 C809.948,229.096 815.42,234.424 815.42,241.288 C815.42,248.104 809.948,253.48 803.132,253.48 C796.364,253.432 790.94,248.152 790.94,241.288 C790.94,234.424 796.316,229.096 803.18,229.096 Z M803.18,232.504 C798.284,232.504 794.684,236.344 794.732,241.336 C794.732,246.28 798.284,250.072 803.132,250.072 C807.98,250.072 811.628,246.232 811.628,241.336 C811.628,236.296 807.98,232.504 803.18,232.504 Z M831.296,229.096 C836.816,229.096 839.984,232.888 839.984,238.312 L839.984,253 L836.288,253 L836.288,238.744 C836.288,235.048 834.08,232.504 830.48,232.504 C826.88,232.504 824.336,235.096 824.336,238.744 L824.336,253 L820.64,253 L820.64,229.624 L824.096,229.624 L824.096,232.168 C825.728,230.248 828.272,229.096 831.296,229.096 Z M877.256,217 L880.952,217 L880.952,253 L877.448,253 L877.448,249.256 C875.624,251.944 872.312,253.528 868.616,253.528 C861.944,253.528 857.048,248.2 857.048,241.336 C857.048,234.424 861.944,229.096 868.616,229.096 C872.168,229.096 875.384,230.584 877.256,233.08 L877.256,217 Z M869.144,250.12 C873.176,250.12 877.304,247.48 877.304,241.336 C877.304,235.192 873.176,232.504 869.144,232.504 C864.392,232.504 860.84,236.2 860.84,241.288 C860.84,246.376 864.344,250.12 869.144,250.12 Z M908.732,239.656 C908.732,240.904 908.54,242.008 908.444,242.44 L890.012,242.44 C890.492,247.096 893.948,250.12 898.556,250.12 C901.484,250.12 903.788,248.872 905.708,246.952 L907.868,249.448 C905.516,251.944 902.348,253.528 898.508,253.528 C891.452,253.528 886.124,248.2 886.124,241.336 C886.124,234.52 891.356,229.096 898.076,229.096 C904.076,229.096 908.732,233.416 908.732,239.656 Z M897.98,232.456 C894.044,232.456 890.924,235.144 890.156,239.176 L904.94,239.176 C904.892,234.856 901.724,232.456 897.98,232.456 Z M929.6,229.624 L933.536,229.624 L922.544,253.528 L921.2,253.528 L910.16,229.624 L914.096,229.624 L921.872,247.24 L929.6,229.624 Z M957.572,239.656 C957.572,240.904 957.38,242.008 957.284,242.44 L938.852,242.44 C939.332,247.096 942.788,250.12 947.396,250.12 C950.324,250.12 952.628,248.872 954.548,246.952 L956.708,249.448 C954.356,251.944 951.188,253.528 947.348,253.528 C940.292,253.528 934.964,248.2 934.964,241.336 C934.964,234.52 940.196,229.096 946.916,229.096 C952.916,229.096 957.572,233.416 957.572,239.656 Z M946.82,232.456 C942.884,232.456 939.764,235.144 938.996,239.176 L953.78,239.176 C953.732,234.856 950.564,232.456 946.82,232.456 Z M966.488,217 L966.488,253 L962.792,253 L962.792,217 L966.488,217 Z M983.9,229.096 C990.668,229.096 996.14,234.424 996.14,241.288 C996.14,248.104 990.668,253.48 983.852,253.48 C977.084,253.432 971.66,248.152 971.66,241.288 C971.66,234.424 977.036,229.096 983.9,229.096 Z M983.9,232.504 C979.004,232.504 975.404,236.344 975.452,241.336 C975.452,246.28 979.004,250.072 983.852,250.072 C988.7,250.072 992.348,246.232 992.348,241.336 C992.348,236.296 988.7,232.504 983.9,232.504 Z M1013.648,229.096 C1020.368,229.096 1025.216,234.424 1025.216,241.288 C1025.216,248.2 1020.32,253.528 1013.648,253.528 C1010.192,253.528 1006.928,252.088 1005.056,249.592 L1005.056,261.64 L1001.36,261.64 L1001.36,229.624 L1004.816,229.624 L1004.816,233.368 C1006.64,230.68 1009.952,229.096 1013.648,229.096 Z M1013.12,250.12 C1017.872,250.12 1021.424,246.424 1021.424,241.336 C1021.424,236.248 1017.92,232.504 1013.12,232.504 C1009.088,232.504 1005.008,235.144 1005.008,241.288 C1005.008,247.432 1009.04,250.12 1013.12,250.12 Z M1032.308,218.008 C1033.796,218.008 1035.044,219.208 1035.044,220.696 C1035.044,222.232 1033.796,223.384 1032.308,223.384 C1030.724,223.384 1029.524,222.232 1029.524,220.696 C1029.524,219.208 1030.724,218.008 1032.308,218.008 Z M1034.132,229.624 L1034.132,253 L1030.436,253 L1030.436,229.624 L1034.132,229.624 Z M1051.64,229.096 C1057.16,229.096 1060.328,232.888 1060.328,238.312 L1060.328,253 L1056.632,253 L1056.632,238.744 C1056.632,235.048 1054.424,232.504 1050.824,232.504 C1047.224,232.504 1044.68,235.096 1044.68,238.744 L1044.68,253 L1040.984,253 L1040.984,229.624 L1044.44,229.624 L1044.44,232.168 C1046.072,230.248 1048.616,229.096 1051.64,229.096 Z M1085.852,229.624 L1089.356,229.624 L1089.356,250.744 C1089.356,257.944 1084.796,262.168 1077.98,262.168 C1073.084,262.168 1069.292,259.96 1066.988,257.656 L1069.148,255.064 C1071.404,257.032 1074.044,258.76 1077.884,258.76 C1082.636,258.76 1085.66,256.12 1085.66,250.936 L1085.66,248.872 C1083.74,251.32 1080.476,252.76 1076.972,252.76 C1070.396,252.76 1065.5,247.768 1065.5,240.952 C1065.5,234.184 1070.396,229.096 1076.972,229.096 C1080.668,229.096 1084.028,230.728 1085.852,233.416 L1085.852,229.624 Z M1077.548,249.352 C1081.628,249.352 1085.708,246.808 1085.708,240.952 C1085.708,235.096 1081.58,232.6 1077.548,232.6 C1072.796,232.6 1069.244,236.056 1069.244,241 C1069.244,245.944 1072.796,249.352 1077.548,249.352 Z M390.29,286.096 C395.618,286.096 399.41,289.312 399.41,295.6 L399.41,310 L395.954,310 L395.954,306.976 C394.274,309.232 391.538,310.528 388.082,310.528 C383.378,310.528 379.922,308.032 379.922,303.952 C379.922,300.016 383.234,297.424 388.322,297.424 L395.714,297.424 L395.714,295.408 C395.714,291.472 393.506,289.504 390.05,289.504 C387.122,289.504 385.058,290.896 383.234,293.248 L380.786,291.232 C382.994,287.68 386.546,286.096 390.29,286.096 Z M388.562,307.456 C392.402,307.456 395.714,304.672 395.714,301.024 L395.714,300.448 L388.754,300.448 C385.49,300.448 383.714,301.552 383.714,303.76 C383.714,306.256 385.97,307.456 388.562,307.456 Z M416.63,286.096 C422.15,286.096 425.318,289.888 425.318,295.312 L425.318,310 L421.622,310 L421.622,295.744 C421.622,292.048 419.414,289.504 415.814,289.504 C412.214,289.504 409.67,292.096 409.67,295.744 L409.67,310 L405.974,310 L405.974,286.624 L409.43,286.624 L409.43,289.168 C411.062,287.248 413.606,286.096 416.63,286.096 Z M445.934,275.008 C447.422,275.008 448.67,276.208 448.67,277.696 C448.67,279.232 447.422,280.384 445.934,280.384 C444.35,280.384 443.15,279.232 443.15,277.696 C443.15,276.208 444.35,275.008 445.934,275.008 Z M447.758,286.624 L447.758,310 L444.062,310 L444.062,286.624 L447.758,286.624 Z M465.266,286.096 C470.786,286.096 473.954,289.888 473.954,295.312 L473.954,310 L470.258,310 L470.258,295.744 C470.258,292.048 468.05,289.504 464.45,289.504 C460.85,289.504 458.306,292.096 458.306,295.744 L458.306,310 L454.61,310 L454.61,286.624 L458.066,286.624 L458.066,289.168 C459.698,287.248 462.242,286.096 465.266,286.096 Z M490.166,307.168 C491.078,307.168 492.086,307.072 493.286,306.88 L493.286,310 C492.086,310.288 490.886,310.528 489.398,310.528 C484.79,310.528 481.526,308.272 481.526,302.944 L481.526,289.936 L477.59,289.936 L477.59,286.624 L481.526,286.624 L481.526,280.24 L485.222,280.24 L485.222,286.624 L492.518,286.624 L492.518,289.936 L485.222,289.936 L485.222,302.704 C485.222,306.208 487.238,307.168 490.166,307.168 Z M517.994,296.656 C517.994,297.904 517.802,299.008 517.706,299.44 L499.274,299.44 C499.754,304.096 503.21,307.12 507.818,307.12 C510.746,307.12 513.05,305.872 514.97,303.952 L517.13,306.448 C514.778,308.944 511.61,310.528 507.77,310.528 C500.714,310.528 495.386,305.2 495.386,298.336 C495.386,291.52 500.618,286.096 507.338,286.096 C513.338,286.096 517.994,290.416 517.994,296.656 Z M507.242,289.456 C503.306,289.456 500.186,292.144 499.418,296.176 L514.202,296.176 C514.154,291.856 510.986,289.456 507.242,289.456 Z M533.918,286.432 C534.686,286.432 535.166,286.528 535.646,286.624 L535.646,289.888 L534.254,289.888 C530.462,289.888 526.91,292.288 526.91,296.752 L526.91,310 L523.214,310 L523.214,286.624 L526.67,286.624 L526.67,289.984 C528.398,287.68 531.134,286.432 533.918,286.432 Z M547.25,286.096 C552.578,286.096 556.37,289.312 556.37,295.6 L556.37,310 L552.914,310 L552.914,306.976 C551.234,309.232 548.498,310.528 545.042,310.528 C540.338,310.528 536.882,308.032 536.882,303.952 C536.882,300.016 540.194,297.424 545.282,297.424 L552.674,297.424 L552.674,295.408 C552.674,291.472 550.466,289.504 547.01,289.504 C544.082,289.504 542.018,290.896 540.194,293.248 L537.746,291.232 C539.954,287.68 543.506,286.096 547.25,286.096 Z M545.522,307.456 C549.362,307.456 552.674,304.672 552.674,301.024 L552.674,300.448 L545.714,300.448 C542.45,300.448 540.674,301.552 540.674,303.76 C540.674,306.256 542.93,307.456 545.522,307.456 Z M573.494,286.096 C577.718,286.096 581.078,288.112 583.142,291.184 L580.502,293.296 C578.774,290.992 576.566,289.504 573.542,289.504 C568.646,289.504 565.046,293.392 565.046,298.288 C565.046,303.232 568.646,307.12 573.542,307.12 C576.518,307.12 578.726,305.68 580.454,303.376 L583.094,305.44 C581.03,308.512 577.67,310.528 573.494,310.528 C566.678,310.528 561.254,305.152 561.254,298.288 C561.254,291.472 566.678,286.096 573.494,286.096 Z M597.77,307.168 C598.682,307.168 599.69,307.072 600.89,306.88 L600.89,310 C599.69,310.288 598.49,310.528 597.002,310.528 C592.394,310.528 589.13,308.272 589.13,302.944 L589.13,289.936 L585.194,289.936 L585.194,286.624 L589.13,286.624 L589.13,280.24 L592.826,280.24 L592.826,286.624 L600.122,286.624 L600.122,289.936 L592.826,289.936 L592.826,302.704 C592.826,306.208 594.842,307.168 597.77,307.168 Z M607.022,275.008 C608.51,275.008 609.758,276.208 609.758,277.696 C609.758,279.232 608.51,280.384 607.022,280.384 C605.438,280.384 604.238,279.232 604.238,277.696 C604.238,276.208 605.438,275.008 607.022,275.008 Z M608.846,286.624 L608.846,310 L605.15,310 L605.15,286.624 L608.846,286.624 Z M632.306,286.624 L636.242,286.624 L625.25,310.528 L623.906,310.528 L612.866,286.624 L616.802,286.624 L624.578,304.24 L632.306,286.624 Z M660.278,296.656 C660.278,297.904 660.086,299.008 659.99,299.44 L641.558,299.44 C642.038,304.096 645.494,307.12 650.102,307.12 C653.03,307.12 655.334,305.872 657.254,303.952 L659.414,306.448 C657.062,308.944 653.894,310.528 650.054,310.528 C642.998,310.528 637.67,305.2 637.67,298.336 C637.67,291.52 642.902,286.096 649.622,286.096 C655.622,286.096 660.278,290.416 660.278,296.656 Z M649.526,289.456 C645.59,289.456 642.47,292.144 641.702,296.176 L656.486,296.176 C656.438,291.856 653.27,289.456 649.526,289.456 Z M697.406,278.32 L701.534,278.32 L687.806,310.528 L686.414,310.528 L672.686,278.32 L676.814,278.32 L687.134,303.088 L697.406,278.32 Z M730.85,310 L726.482,310 L716.642,296.704 L709.874,296.704 L709.874,310 L706.13,310 L706.13,278.32 L717.266,278.32 C723.506,278.32 727.394,282.16 727.394,287.488 C727.394,291.76 724.898,295.072 720.77,296.272 L730.85,310 Z M709.874,281.68 L709.874,293.344 L717.122,293.344 C721.298,293.344 723.506,290.944 723.506,287.536 C723.506,284.176 721.298,281.68 717.122,281.68 L709.874,281.68 Z M758.906,286.096 C765.626,286.096 770.474,291.424 770.474,298.288 C770.474,305.2 765.578,310.528 758.906,310.528 C755.45,310.528 752.186,309.088 750.314,306.592 L750.314,318.64 L746.618,318.64 L746.618,286.624 L750.074,286.624 L750.074,290.368 C751.898,287.68 755.21,286.096 758.906,286.096 Z M758.378,307.12 C763.13,307.12 766.682,303.424 766.682,298.336 C766.682,293.248 763.178,289.504 758.378,289.504 C754.346,289.504 750.266,292.144 750.266,298.288 C750.266,304.432 754.298,307.12 758.378,307.12 Z M777.566,275.008 C779.054,275.008 780.302,276.208 780.302,277.696 C780.302,279.232 779.054,280.384 777.566,280.384 C775.982,280.384 774.782,279.232 774.782,277.696 C774.782,276.208 775.982,275.008 777.566,275.008 Z M779.39,286.624 L779.39,310 L775.694,310 L775.694,286.624 L779.39,286.624 Z M807.17,296.656 C807.17,297.904 806.978,299.008 806.882,299.44 L788.45,299.44 C788.93,304.096 792.386,307.12 796.994,307.12 C799.922,307.12 802.226,305.872 804.146,303.952 L806.306,306.448 C803.954,308.944 800.786,310.528 796.946,310.528 C789.89,310.528 784.562,305.2 784.562,298.336 C784.562,291.52 789.794,286.096 796.514,286.096 C802.514,286.096 807.17,290.416 807.17,296.656 Z M796.418,289.456 C792.482,289.456 789.362,292.144 788.594,296.176 L803.378,296.176 C803.33,291.856 800.162,289.456 796.418,289.456 Z M822.95,286.096 C827.174,286.096 830.534,288.112 832.598,291.184 L829.958,293.296 C828.23,290.992 826.022,289.504 822.998,289.504 C818.102,289.504 814.502,293.392 814.502,298.288 C814.502,303.232 818.102,307.12 822.998,307.12 C825.974,307.12 828.182,305.68 829.91,303.376 L832.55,305.44 C830.486,308.512 827.126,310.528 822.95,310.528 C816.134,310.528 810.71,305.152 810.71,298.288 C810.71,291.472 816.134,286.096 822.95,286.096 Z M858.026,296.656 C858.026,297.904 857.834,299.008 857.738,299.44 L839.306,299.44 C839.786,304.096 843.242,307.12 847.85,307.12 C850.778,307.12 853.082,305.872 855.002,303.952 L857.162,306.448 C854.81,308.944 851.642,310.528 847.802,310.528 C840.746,310.528 835.418,305.2 835.418,298.336 C835.418,291.52 840.65,286.096 847.37,286.096 C853.37,286.096 858.026,290.416 858.026,296.656 Z M847.274,289.456 C843.338,289.456 840.218,292.144 839.45,296.176 L854.234,296.176 C854.186,291.856 851.018,289.456 847.274,289.456 Z M885.074,307.168 C885.986,307.168 886.994,307.072 888.194,306.88 L888.194,310 C886.994,310.288 885.794,310.528 884.306,310.528 C879.698,310.528 876.434,308.272 876.434,302.944 L876.434,289.936 L872.498,289.936 L872.498,286.624 L876.434,286.624 L876.434,280.24 L880.13,280.24 L880.13,286.624 L887.426,286.624 L887.426,289.936 L880.13,289.936 L880.13,302.704 C880.13,306.208 882.146,307.168 885.074,307.168 Z M903.158,286.096 C908.63,286.096 911.798,289.888 911.798,295.312 L911.798,310 L908.102,310 L908.102,295.792 C908.102,292.096 905.894,289.504 902.294,289.504 C898.694,289.504 896.15,292.144 896.15,295.792 L896.15,310 L892.454,310 L892.454,274 L896.15,274 L896.15,289.264 C897.686,287.296 900.134,286.096 903.158,286.096 Z M926.762,286.096 C932.09,286.096 935.882,289.312 935.882,295.6 L935.882,310 L932.426,310 L932.426,306.976 C930.746,309.232 928.01,310.528 924.554,310.528 C919.85,310.528 916.394,308.032 916.394,303.952 C916.394,300.016 919.706,297.424 924.794,297.424 L932.186,297.424 L932.186,295.408 C932.186,291.472 929.978,289.504 926.522,289.504 C923.594,289.504 921.53,290.896 919.706,293.248 L917.258,291.232 C919.466,287.68 923.018,286.096 926.762,286.096 Z M925.034,307.456 C928.874,307.456 932.186,304.672 932.186,301.024 L932.186,300.448 L925.226,300.448 C921.962,300.448 920.186,301.552 920.186,303.76 C920.186,306.256 922.442,307.456 925.034,307.456 Z M952.094,307.168 C953.006,307.168 954.014,307.072 955.214,306.88 L955.214,310 C954.014,310.288 952.814,310.528 951.326,310.528 C946.718,310.528 943.454,308.272 943.454,302.944 L943.454,289.936 L939.518,289.936 L939.518,286.624 L943.454,286.624 L943.454,280.24 L947.15,280.24 L947.15,286.624 L954.446,286.624 L954.446,289.936 L947.15,289.936 L947.15,302.704 C947.15,306.208 949.166,307.168 952.094,307.168 Z M981.302,307.168 C982.214,307.168 983.222,307.072 984.422,306.88 L984.422,310 C983.222,310.288 982.022,310.528 980.534,310.528 C975.926,310.528 972.662,308.272 972.662,302.944 L972.662,289.936 L968.726,289.936 L968.726,286.624 L972.662,286.624 L972.662,280.24 L976.358,280.24 L976.358,286.624 L983.654,286.624 L983.654,289.936 L976.358,289.936 L976.358,302.704 C976.358,306.208 978.374,307.168 981.302,307.168 Z M998.762,286.096 C1005.53,286.096 1011.002,291.424 1011.002,298.288 C1011.002,305.104 1005.53,310.48 998.714,310.48 C991.946,310.432 986.522,305.152 986.522,298.288 C986.522,291.424 991.898,286.096 998.762,286.096 Z M998.762,289.504 C993.866,289.504 990.266,293.344 990.314,298.336 C990.314,303.28 993.866,307.072 998.714,307.072 C1003.562,307.072 1007.21,303.232 1007.21,298.336 C1007.21,293.296 1003.562,289.504 998.762,289.504 Z M1026.782,286.096 C1033.55,286.096 1039.022,291.424 1039.022,298.288 C1039.022,305.104 1033.55,310.48 1026.734,310.48 C1019.966,310.432 1014.542,305.152 1014.542,298.288 C1014.542,291.424 1019.918,286.096 1026.782,286.096 Z M1026.782,289.504 C1021.886,289.504 1018.286,293.344 1018.334,298.336 C1018.334,303.28 1021.886,307.072 1026.734,307.072 C1031.582,307.072 1035.23,303.232 1035.23,298.336 C1035.23,293.296 1031.582,289.504 1026.782,289.504 Z M1044.242,310 L1044.242,274 L1047.938,274 L1047.938,310 L1044.242,310 Z M1052.786,296.896 L1063.826,310 L1059.074,310 L1048.322,296.848 L1058.066,286.624 L1062.914,286.624 L1052.786,296.896 Z M399.812,364.168 C400.724,364.168 401.732,364.072 402.932,363.88 L402.932,367 C401.732,367.288 400.532,367.528 399.044,367.528 C394.436,367.528 391.172,365.272 391.172,359.944 L391.172,346.936 L387.236,346.936 L387.236,343.624 L391.172,343.624 L391.172,337.24 L394.868,337.24 L394.868,343.624 L402.164,343.624 L402.164,346.936 L394.868,346.936 L394.868,359.704 C394.868,363.208 396.884,364.168 399.812,364.168 Z M417.896,343.096 C423.368,343.096 426.536,346.888 426.536,352.312 L426.536,367 L422.84,367 L422.84,352.792 C422.84,349.096 420.632,346.504 417.032,346.504 C413.432,346.504 410.888,349.144 410.888,352.792 L410.888,367 L407.192,367 L407.192,331 L410.888,331 L410.888,346.264 C412.424,344.296 414.872,343.096 417.896,343.096 Z M454.028,353.656 C454.028,354.904 453.836,356.008 453.74,356.44 L435.308,356.44 C435.788,361.096 439.244,364.12 443.852,364.12 C446.78,364.12 449.084,362.872 451.004,360.952 L453.164,363.448 C450.812,365.944 447.644,367.528 443.804,367.528 C436.748,367.528 431.42,362.2 431.42,355.336 C431.42,348.52 436.652,343.096 443.372,343.096 C449.372,343.096 454.028,347.416 454.028,353.656 Z M443.276,346.456 C439.34,346.456 436.22,349.144 435.452,353.176 L450.236,353.176 C450.188,348.856 447.02,346.456 443.276,346.456 Z M490.484,343.624 L490.484,357.688 C490.484,363.688 486.212,367.528 480.836,367.528 C475.364,367.528 471.14,363.688 471.14,357.688 L471.14,343.624 L474.788,343.624 L474.788,357.928 C474.788,361.768 477.476,364.12 480.836,364.12 C484.1,364.12 486.788,361.768 486.788,357.928 L486.788,343.624 L490.484,343.624 Z M504.104,343.096 C507.464,343.096 510.104,344.536 511.928,346.792 L509.672,349.096 C508.136,347.512 506.12,346.504 503.912,346.504 C501.704,346.504 500.024,347.512 500.024,349.432 C500.024,351.016 501.224,351.784 503.816,352.84 L505.976,353.752 C510.2,355.528 512.168,357.352 512.168,360.664 C512.168,365.224 508.28,367.528 503.96,367.528 C499.832,367.528 496.712,365.464 494.84,362.968 L497.192,360.52 C499.112,362.536 501.08,364.12 503.912,364.12 C506.36,364.12 508.376,362.92 508.376,360.808 C508.376,358.792 506.648,358.024 504.296,357.064 L502.04,356.104 C498.488,354.616 496.232,352.984 496.232,349.624 C496.232,345.4 499.832,343.096 504.104,343.096 Z M538.508,353.656 C538.508,354.904 538.316,356.008 538.22,356.44 L519.788,356.44 C520.268,361.096 523.724,364.12 528.332,364.12 C531.26,364.12 533.564,362.872 535.484,360.952 L537.644,363.448 C535.292,365.944 532.124,367.528 528.284,367.528 C521.228,367.528 515.9,362.2 515.9,355.336 C515.9,348.52 521.132,343.096 527.852,343.096 C533.852,343.096 538.508,347.416 538.508,353.656 Z M527.756,346.456 C523.82,346.456 520.7,349.144 519.932,353.176 L534.716,353.176 C534.668,348.856 531.5,346.456 527.756,346.456 Z M554.432,343.432 C555.2,343.432 555.68,343.528 556.16,343.624 L556.16,346.888 L554.768,346.888 C550.976,346.888 547.424,349.288 547.424,353.752 L547.424,367 L543.728,367 L543.728,343.624 L547.184,343.624 L547.184,346.984 C548.912,344.68 551.648,343.432 554.432,343.432 Z M582.584,343.096 C589.352,343.096 594.824,348.424 594.824,355.288 C594.824,362.104 589.352,367.48 582.536,367.48 C575.768,367.432 570.344,362.152 570.344,355.288 C570.344,348.424 575.72,343.096 582.584,343.096 Z M582.584,346.504 C577.688,346.504 574.088,350.344 574.136,355.336 C574.136,360.28 577.688,364.072 582.536,364.072 C587.384,364.072 591.032,360.232 591.032,355.336 C591.032,350.296 587.384,346.504 582.584,346.504 Z M610.7,343.096 C616.22,343.096 619.388,346.888 619.388,352.312 L619.388,367 L615.692,367 L615.692,352.744 C615.692,349.048 613.484,346.504 609.884,346.504 C606.284,346.504 603.74,349.096 603.74,352.744 L603.74,367 L600.044,367 L600.044,343.624 L603.5,343.624 L603.5,346.168 C605.132,344.248 607.676,343.096 610.7,343.096 Z M646.532,343.096 C651.86,343.096 655.652,346.312 655.652,352.6 L655.652,367 L652.196,367 L652.196,363.976 C650.516,366.232 647.78,367.528 644.324,367.528 C639.62,367.528 636.164,365.032 636.164,360.952 C636.164,357.016 639.476,354.424 644.564,354.424 L651.956,354.424 L651.956,352.408 C651.956,348.472 649.748,346.504 646.292,346.504 C643.364,346.504 641.3,347.896 639.476,350.248 L637.028,348.232 C639.236,344.68 642.788,343.096 646.532,343.096 Z M644.804,364.456 C648.644,364.456 651.956,361.672 651.956,358.024 L651.956,357.448 L644.996,357.448 C641.732,357.448 639.956,358.552 639.956,360.76 C639.956,363.256 642.212,364.456 644.804,364.456 Z M676.268,332.008 C677.756,332.008 679.004,333.208 679.004,334.696 C679.004,336.232 677.756,337.384 676.268,337.384 C674.684,337.384 673.484,336.232 673.484,334.696 C673.484,333.208 674.684,332.008 676.268,332.008 Z M678.092,343.624 L678.092,368.584 C678.092,373.912 674.876,376.168 670.412,376.168 C669.212,376.168 668.3,376.024 667.436,375.784 L667.436,372.664 C668.252,372.76 668.828,372.808 669.596,372.808 C672.428,372.808 674.396,371.8 674.396,368.344 L674.396,343.624 L678.092,343.624 Z M695.504,343.096 C702.272,343.096 707.744,348.424 707.744,355.288 C707.744,362.104 702.272,367.48 695.456,367.48 C688.688,367.432 683.264,362.152 683.264,355.288 C683.264,348.424 688.64,343.096 695.504,343.096 Z M695.504,346.504 C690.608,346.504 687.008,350.344 687.056,355.336 C687.056,360.28 690.608,364.072 695.456,364.072 C700.304,364.072 703.952,360.232 703.952,355.336 C703.952,350.296 700.304,346.504 695.504,346.504 Z M732.02,343.624 L732.02,357.688 C732.02,363.688 727.748,367.528 722.372,367.528 C716.9,367.528 712.676,363.688 712.676,357.688 L712.676,343.624 L716.324,343.624 L716.324,357.928 C716.324,361.768 719.012,364.12 722.372,364.12 C725.636,364.12 728.324,361.768 728.324,357.928 L728.324,343.624 L732.02,343.624 Z M749.288,343.432 C750.056,343.432 750.536,343.528 751.016,343.624 L751.016,346.888 L749.624,346.888 C745.832,346.888 742.28,349.288 742.28,353.752 L742.28,367 L738.584,367 L738.584,343.624 L742.04,343.624 L742.04,346.984 C743.768,344.68 746.504,343.432 749.288,343.432 Z M765.356,343.096 C770.876,343.096 774.044,346.888 774.044,352.312 L774.044,367 L770.348,367 L770.348,352.744 C770.348,349.048 768.14,346.504 764.54,346.504 C760.94,346.504 758.396,349.096 758.396,352.744 L758.396,367 L754.7,367 L754.7,343.624 L758.156,343.624 L758.156,346.168 C759.788,344.248 762.332,343.096 765.356,343.096 Z M801.536,353.656 C801.536,354.904 801.344,356.008 801.248,356.44 L782.816,356.44 C783.296,361.096 786.752,364.12 791.36,364.12 C794.288,364.12 796.592,362.872 798.512,360.952 L800.672,363.448 C798.32,365.944 795.152,367.528 791.312,367.528 C784.256,367.528 778.928,362.2 778.928,355.336 C778.928,348.52 784.16,343.096 790.88,343.096 C796.88,343.096 801.536,347.416 801.536,353.656 Z M790.784,346.456 C786.848,346.456 783.728,349.144 782.96,353.176 L797.744,353.176 C797.696,348.856 794.528,346.456 790.784,346.456 Z M822.932,343.624 L826.868,343.624 L815.348,370.264 C813.524,374.44 810.98,376.168 807.428,376.168 C806.276,376.168 804.932,375.976 803.828,375.688 L803.828,372.568 C804.932,372.712 805.844,372.808 806.66,372.808 C808.916,372.808 810.644,372.04 811.94,369.064 L813.188,366.232 L803.492,343.624 L807.476,343.624 L815.204,362.248 L822.932,343.624 Z M864.944,364.168 C865.856,364.168 866.864,364.072 868.064,363.88 L868.064,367 C866.864,367.288 865.664,367.528 864.176,367.528 C859.568,367.528 856.304,365.272 856.304,359.944 L856.304,346.936 L852.368,346.936 L852.368,343.624 L856.304,343.624 L856.304,337.24 L860,337.24 L860,343.624 L867.296,343.624 L867.296,346.936 L860,346.936 L860,359.704 C860,363.208 862.016,364.168 864.944,364.168 Z M883.028,343.096 C888.5,343.096 891.668,346.888 891.668,352.312 L891.668,367 L887.972,367 L887.972,352.792 C887.972,349.096 885.764,346.504 882.164,346.504 C878.564,346.504 876.02,349.144 876.02,352.792 L876.02,367 L872.324,367 L872.324,331 L876.02,331 L876.02,346.264 C877.556,344.296 880.004,343.096 883.028,343.096 Z M908.936,343.432 C909.704,343.432 910.184,343.528 910.664,343.624 L910.664,346.888 L909.272,346.888 C905.48,346.888 901.928,349.288 901.928,353.752 L901.928,367 L898.232,367 L898.232,343.624 L901.688,343.624 L901.688,346.984 C903.416,344.68 906.152,343.432 908.936,343.432 Z M924.428,343.096 C931.196,343.096 936.668,348.424 936.668,355.288 C936.668,362.104 931.196,367.48 924.38,367.48 C917.612,367.432 912.188,362.152 912.188,355.288 C912.188,348.424 917.564,343.096 924.428,343.096 Z M924.428,346.504 C919.532,346.504 915.932,350.344 915.98,355.336 C915.98,360.28 919.532,364.072 924.38,364.072 C929.228,364.072 932.876,360.232 932.876,355.336 C932.876,350.296 929.228,346.504 924.428,346.504 Z M960.944,343.624 L960.944,357.688 C960.944,363.688 956.672,367.528 951.296,367.528 C945.824,367.528 941.6,363.688 941.6,357.688 L941.6,343.624 L945.248,343.624 L945.248,357.928 C945.248,361.768 947.936,364.12 951.296,364.12 C954.56,364.12 957.248,361.768 957.248,357.928 L957.248,343.624 L960.944,343.624 Z M986.468,343.624 L989.972,343.624 L989.972,364.744 C989.972,371.944 985.412,376.168 978.596,376.168 C973.7,376.168 969.908,373.96 967.604,371.656 L969.764,369.064 C972.02,371.032 974.66,372.76 978.5,372.76 C983.252,372.76 986.276,370.12 986.276,364.936 L986.276,362.872 C984.356,365.32 981.092,366.76 977.588,366.76 C971.012,366.76 966.116,361.768 966.116,354.952 C966.116,348.184 971.012,343.096 977.588,343.096 C981.284,343.096 984.644,344.728 986.468,347.416 L986.468,343.624 Z M978.164,363.352 C982.244,363.352 986.324,360.808 986.324,354.952 C986.324,349.096 982.196,346.6 978.164,346.6 C973.412,346.6 969.86,350.056 969.86,355 C969.86,359.944 973.412,363.352 978.164,363.352 Z M1007.528,343.096 C1013,343.096 1016.168,346.888 1016.168,352.312 L1016.168,367 L1012.472,367 L1012.472,352.792 C1012.472,349.096 1010.264,346.504 1006.664,346.504 C1003.064,346.504 1000.52,349.144 1000.52,352.792 L1000.52,367 L996.824,367 L996.824,331 L1000.52,331 L1000.52,346.264 C1002.056,344.296 1004.504,343.096 1007.528,343.096 Z M1043.312,343.096 C1048.64,343.096 1052.432,346.312 1052.432,352.6 L1052.432,367 L1048.976,367 L1048.976,363.976 C1047.296,366.232 1044.56,367.528 1041.104,367.528 C1036.4,367.528 1032.944,365.032 1032.944,360.952 C1032.944,357.016 1036.256,354.424 1041.344,354.424 L1048.736,354.424 L1048.736,352.408 C1048.736,348.472 1046.528,346.504 1043.072,346.504 C1040.144,346.504 1038.08,347.896 1036.256,350.248 L1033.808,348.232 C1036.016,344.68 1039.568,343.096 1043.312,343.096 Z M1041.584,364.456 C1045.424,364.456 1048.736,361.672 1048.736,358.024 L1048.736,357.448 L1041.776,357.448 C1038.512,357.448 1036.736,358.552 1036.736,360.76 C1036.736,363.256 1038.992,364.456 1041.584,364.456 Z M376.088,400.096 C381.56,400.096 384.728,403.888 384.728,409.312 L384.728,424 L381.032,424 L381.032,409.792 C381.032,406.096 378.824,403.504 375.224,403.504 C371.624,403.504 369.08,406.144 369.08,409.792 L369.08,424 L365.384,424 L365.384,388 L369.08,388 L369.08,403.264 C370.616,401.296 373.064,400.096 376.088,400.096 Z M399.692,400.096 C405.02,400.096 408.812,403.312 408.812,409.6 L408.812,424 L405.356,424 L405.356,420.976 C403.676,423.232 400.94,424.528 397.484,424.528 C392.78,424.528 389.324,422.032 389.324,417.952 C389.324,414.016 392.636,411.424 397.724,411.424 L405.116,411.424 L405.116,409.408 C405.116,405.472 402.908,403.504 399.452,403.504 C396.524,403.504 394.46,404.896 392.636,407.248 L390.188,405.232 C392.396,401.68 395.948,400.096 399.692,400.096 Z M397.964,421.456 C401.804,421.456 405.116,418.672 405.116,415.024 L405.116,414.448 L398.156,414.448 C394.892,414.448 393.116,415.552 393.116,417.76 C393.116,420.256 395.372,421.456 397.964,421.456 Z M434.432,400.624 L434.432,414.688 C434.432,420.688 430.16,424.528 424.784,424.528 C419.312,424.528 415.088,420.688 415.088,414.688 L415.088,400.624 L418.736,400.624 L418.736,414.928 C418.736,418.768 421.424,421.12 424.784,421.12 C428.048,421.12 430.736,418.768 430.736,414.928 L430.736,400.624 L434.432,400.624 Z M451.652,400.096 C457.172,400.096 460.34,403.888 460.34,409.312 L460.34,424 L456.644,424 L456.644,409.744 C456.644,406.048 454.436,403.504 450.836,403.504 C447.236,403.504 444.692,406.096 444.692,409.744 L444.692,424 L440.996,424 L440.996,400.624 L444.452,400.624 L444.452,403.168 C446.084,401.248 448.628,400.096 451.652,400.096 Z M476.552,421.168 C477.464,421.168 478.472,421.072 479.672,420.88 L479.672,424 C478.472,424.288 477.272,424.528 475.784,424.528 C471.176,424.528 467.912,422.272 467.912,416.944 L467.912,403.936 L463.976,403.936 L463.976,400.624 L467.912,400.624 L467.912,394.24 L471.608,394.24 L471.608,400.624 L478.904,400.624 L478.904,403.936 L471.608,403.936 L471.608,416.704 C471.608,420.208 473.624,421.168 476.552,421.168 Z M504.38,410.656 C504.38,411.904 504.188,413.008 504.092,413.44 L485.66,413.44 C486.14,418.096 489.596,421.12 494.204,421.12 C497.132,421.12 499.436,419.872 501.356,417.952 L503.516,420.448 C501.164,422.944 497.996,424.528 494.156,424.528 C487.1,424.528 481.772,419.2 481.772,412.336 C481.772,405.52 487.004,400.096 493.724,400.096 C499.724,400.096 504.38,404.416 504.38,410.656 Z M493.628,403.456 C489.692,403.456 486.572,406.144 485.804,410.176 L500.588,410.176 C500.54,405.856 497.372,403.456 493.628,403.456 Z M528.128,388 L531.824,388 L531.824,424 L528.32,424 L528.32,420.256 C526.496,422.944 523.184,424.528 519.488,424.528 C512.816,424.528 507.92,419.2 507.92,412.336 C507.92,405.424 512.816,400.096 519.488,400.096 C523.04,400.096 526.256,401.584 528.128,404.08 L528.128,388 Z M520.016,421.12 C524.048,421.12 528.176,418.48 528.176,412.336 C528.176,406.192 524.048,403.504 520.016,403.504 C515.264,403.504 511.712,407.2 511.712,412.288 C511.712,417.376 515.216,421.12 520.016,421.12 Z M561.56,400.096 C567.032,400.096 570.2,403.888 570.2,409.312 L570.2,424 L566.504,424 L566.504,409.792 C566.504,406.096 564.296,403.504 560.696,403.504 C557.096,403.504 554.552,406.144 554.552,409.792 L554.552,424 L550.856,424 L550.856,388 L554.552,388 L554.552,403.264 C556.088,401.296 558.536,400.096 561.56,400.096 Z M587.324,400.096 C594.092,400.096 599.564,405.424 599.564,412.288 C599.564,419.104 594.092,424.48 587.276,424.48 C580.508,424.432 575.084,419.152 575.084,412.288 C575.084,405.424 580.46,400.096 587.324,400.096 Z M587.324,403.504 C582.428,403.504 578.828,407.344 578.876,412.336 C578.876,417.28 582.428,421.072 587.276,421.072 C592.124,421.072 595.772,417.232 595.772,412.336 C595.772,407.296 592.124,403.504 587.324,403.504 Z M623.84,400.624 L623.84,414.688 C623.84,420.688 619.568,424.528 614.192,424.528 C608.72,424.528 604.496,420.688 604.496,414.688 L604.496,400.624 L608.144,400.624 L608.144,414.928 C608.144,418.768 610.832,421.12 614.192,421.12 C617.456,421.12 620.144,418.768 620.144,414.928 L620.144,400.624 L623.84,400.624 Z M637.46,400.096 C640.82,400.096 643.46,401.536 645.284,403.792 L643.028,406.096 C641.492,404.512 639.476,403.504 637.268,403.504 C635.06,403.504 633.38,404.512 633.38,406.432 C633.38,408.016 634.58,408.784 637.172,409.84 L639.332,410.752 C643.556,412.528 645.524,414.352 645.524,417.664 C645.524,422.224 641.636,424.528 637.316,424.528 C633.188,424.528 630.068,422.464 628.196,419.968 L630.548,417.52 C632.468,419.536 634.436,421.12 637.268,421.12 C639.716,421.12 641.732,419.92 641.732,417.808 C641.732,415.792 640.004,415.024 637.652,414.064 L635.396,413.104 C631.844,411.616 629.588,409.984 629.588,406.624 C629.588,402.4 633.188,400.096 637.46,400.096 Z M671.864,410.656 C671.864,411.904 671.672,413.008 671.576,413.44 L653.144,413.44 C653.624,418.096 657.08,421.12 661.688,421.12 C664.616,421.12 666.92,419.872 668.84,417.952 L671,420.448 C668.648,422.944 665.48,424.528 661.64,424.528 C654.584,424.528 649.256,419.2 649.256,412.336 C649.256,405.52 654.488,400.096 661.208,400.096 C667.208,400.096 671.864,404.416 671.864,410.656 Z M661.112,403.456 C657.176,403.456 654.056,406.144 653.288,410.176 L668.072,410.176 C668.024,405.856 664.856,403.456 661.112,403.456 Z M698.432,390.832 C695.552,390.832 693.536,391.792 693.536,395.296 L693.536,400.624 L699.392,400.624 L699.392,403.936 L693.536,403.936 L693.536,424 L689.84,424 L689.84,403.936 L686.48,403.936 L686.48,400.624 L689.84,400.624 L689.84,395.056 C689.84,389.728 693.056,387.472 697.568,387.472 C698.72,387.472 699.632,387.616 700.496,387.856 L700.496,390.976 C699.728,390.88 699.056,390.832 698.432,390.832 Z M705.14,389.008 C706.628,389.008 707.876,390.208 707.876,391.696 C707.876,393.232 706.628,394.384 705.14,394.384 C703.556,394.384 702.356,393.232 702.356,391.696 C702.356,390.208 703.556,389.008 705.14,389.008 Z M706.964,400.624 L706.964,424 L703.268,424 L703.268,400.624 L706.964,400.624 Z M717.512,388 L717.512,424 L713.816,424 L713.816,388 L717.512,388 Z M728.06,388 L728.06,424 L724.364,424 L724.364,388 L728.06,388 Z M755.84,410.656 C755.84,411.904 755.648,413.008 755.552,413.44 L737.12,413.44 C737.6,418.096 741.056,421.12 745.664,421.12 C748.592,421.12 750.896,419.872 752.816,417.952 L754.976,420.448 C752.624,422.944 749.456,424.528 745.616,424.528 C738.56,424.528 733.232,419.2 733.232,412.336 C733.232,405.52 738.464,400.096 745.184,400.096 C751.184,400.096 755.84,404.416 755.84,410.656 Z M745.088,403.456 C741.152,403.456 738.032,406.144 737.264,410.176 L752.048,410.176 C752,405.856 748.832,403.456 745.088,403.456 Z M779.588,388 L783.284,388 L783.284,424 L779.78,424 L779.78,420.256 C777.956,422.944 774.644,424.528 770.948,424.528 C764.276,424.528 759.38,419.2 759.38,412.336 C759.38,405.424 764.276,400.096 770.948,400.096 C774.5,400.096 777.716,401.584 779.588,404.08 L779.588,388 Z M771.476,421.12 C775.508,421.12 779.636,418.48 779.636,412.336 C779.636,406.192 775.508,403.504 771.476,403.504 C766.724,403.504 763.172,407.2 763.172,412.288 C763.172,417.376 766.676,421.12 771.476,421.12 Z M832.412,400.624 L836.348,400.624 L826.508,424.528 L825.164,424.528 L817.196,406.864 L809.276,424.528 L807.98,424.528 L798.044,400.624 L801.98,400.624 L808.7,417.904 L816.524,400.096 L817.916,400.096 L825.788,417.808 L832.412,400.624 Z M842.336,389.008 C843.824,389.008 845.072,390.208 845.072,391.696 C845.072,393.232 843.824,394.384 842.336,394.384 C840.752,394.384 839.552,393.232 839.552,391.696 C839.552,390.208 840.752,389.008 842.336,389.008 Z M844.16,400.624 L844.16,424 L840.464,424 L840.464,400.624 L844.16,400.624 Z M860.66,421.168 C861.572,421.168 862.58,421.072 863.78,420.88 L863.78,424 C862.58,424.288 861.38,424.528 859.892,424.528 C855.284,424.528 852.02,422.272 852.02,416.944 L852.02,403.936 L848.084,403.936 L848.084,400.624 L852.02,400.624 L852.02,394.24 L855.716,394.24 L855.716,400.624 L863.012,400.624 L863.012,403.936 L855.716,403.936 L855.716,416.704 C855.716,420.208 857.732,421.168 860.66,421.168 Z M878.744,400.096 C884.216,400.096 887.384,403.888 887.384,409.312 L887.384,424 L883.688,424 L883.688,409.792 C883.688,406.096 881.48,403.504 877.88,403.504 C874.28,403.504 871.736,406.144 871.736,409.792 L871.736,424 L868.04,424 L868.04,388 L871.736,388 L871.736,403.264 C873.272,401.296 875.72,400.096 878.744,400.096 Z M931.76,400.096 C937.232,400.096 940.256,403.888 940.256,409.312 L940.256,424 L936.56,424 L936.56,409.792 C936.56,406.096 934.544,403.504 931.04,403.504 C927.488,403.504 925.04,406.192 925.04,409.456 L925.04,424 L921.344,424 L921.344,409.792 C921.344,406.096 919.232,403.504 915.776,403.504 C912.224,403.504 909.824,406.096 909.824,409.792 L909.824,424 L906.128,424 L906.128,400.624 L909.584,400.624 L909.584,403.072 C911.216,401.2 913.616,400.096 916.544,400.096 C920.048,400.096 922.448,401.68 923.744,404.128 C925.376,401.776 928.16,400.096 931.76,400.096 Z M963.428,400.624 L967.364,400.624 L955.844,427.264 C954.02,431.44 951.476,433.168 947.924,433.168 C946.772,433.168 945.428,432.976 944.324,432.688 L944.324,429.568 C945.428,429.712 946.34,429.808 947.156,429.808 C949.412,429.808 951.14,429.04 952.436,426.064 L953.684,423.232 L943.988,400.624 L947.972,400.624 L955.7,419.248 L963.428,400.624 Z M992.78,390.832 C989.9,390.832 987.884,391.792 987.884,395.296 L987.884,400.624 L993.74,400.624 L993.74,403.936 L987.884,403.936 L987.884,424 L984.188,424 L984.188,403.936 L980.828,403.936 L980.828,400.624 L984.188,400.624 L984.188,395.056 C984.188,389.728 987.404,387.472 991.916,387.472 C993.068,387.472 993.98,387.616 994.844,387.856 L994.844,390.976 C994.076,390.88 993.404,390.832 992.78,390.832 Z M1017.824,410.656 C1017.824,411.904 1017.632,413.008 1017.536,413.44 L999.104,413.44 C999.584,418.096 1003.04,421.12 1007.648,421.12 C1010.576,421.12 1012.88,419.872 1014.8,417.952 L1016.96,420.448 C1014.608,422.944 1011.44,424.528 1007.6,424.528 C1000.544,424.528 995.216,419.2 995.216,412.336 C995.216,405.52 1000.448,400.096 1007.168,400.096 C1013.168,400.096 1017.824,404.416 1017.824,410.656 Z M1007.072,403.456 C1003.136,403.456 1000.016,406.144 999.248,410.176 L1014.032,410.176 C1013.984,405.856 1010.816,403.456 1007.072,403.456 Z M1031.444,400.096 C1036.772,400.096 1040.564,403.312 1040.564,409.6 L1040.564,424 L1037.108,424 L1037.108,420.976 C1035.428,423.232 1032.692,424.528 1029.236,424.528 C1024.532,424.528 1021.076,422.032 1021.076,417.952 C1021.076,414.016 1024.388,411.424 1029.476,411.424 L1036.868,411.424 L1036.868,409.408 C1036.868,405.472 1034.66,403.504 1031.204,403.504 C1028.276,403.504 1026.212,404.896 1024.388,407.248 L1021.94,405.232 C1024.148,401.68 1027.7,400.096 1031.444,400.096 Z M1029.716,421.456 C1033.556,421.456 1036.868,418.672 1036.868,415.024 L1036.868,414.448 L1029.908,414.448 C1026.644,414.448 1024.868,415.552 1024.868,417.76 C1024.868,420.256 1027.124,421.456 1029.716,421.456 Z M1057.832,400.432 C1058.6,400.432 1059.08,400.528 1059.56,400.624 L1059.56,403.888 L1058.168,403.888 C1054.376,403.888 1050.824,406.288 1050.824,410.752 L1050.824,424 L1047.128,424 L1047.128,400.624 L1050.584,400.624 L1050.584,403.984 C1052.312,401.68 1055.048,400.432 1057.832,400.432 Z M1070.3,400.096 C1073.66,400.096 1076.3,401.536 1078.124,403.792 L1075.868,406.096 C1074.332,404.512 1072.316,403.504 1070.108,403.504 C1067.9,403.504 1066.22,404.512 1066.22,406.432 C1066.22,408.016 1067.42,408.784 1070.012,409.84 L1072.172,410.752 C1076.396,412.528 1078.364,414.352 1078.364,417.664 C1078.364,422.224 1074.476,424.528 1070.156,424.528 C1066.028,424.528 1062.908,422.464 1061.036,419.968 L1063.388,417.52 C1065.308,419.536 1067.276,421.12 1070.108,421.12 C1072.556,421.12 1074.572,419.92 1074.572,417.808 C1074.572,415.792 1072.844,415.024 1070.492,414.064 L1068.236,413.104 C1064.684,411.616 1062.428,409.984 1062.428,406.624 C1062.428,402.4 1066.028,400.096 1070.3,400.096 Z M523.346,457.096 C528.674,457.096 532.466,460.312 532.466,466.6 L532.466,481 L529.01,481 L529.01,477.976 C527.33,480.232 524.594,481.528 521.138,481.528 C516.434,481.528 512.978,479.032 512.978,474.952 C512.978,471.016 516.29,468.424 521.378,468.424 L528.77,468.424 L528.77,466.408 C528.77,462.472 526.562,460.504 523.106,460.504 C520.178,460.504 518.114,461.896 516.29,464.248 L513.842,462.232 C516.05,458.68 519.602,457.096 523.346,457.096 Z M521.618,478.456 C525.458,478.456 528.77,475.672 528.77,472.024 L528.77,471.448 L521.81,471.448 C518.546,471.448 516.77,472.552 516.77,474.76 C516.77,477.256 519.026,478.456 521.618,478.456 Z M546.086,457.096 C549.446,457.096 552.086,458.536 553.91,460.792 L551.654,463.096 C550.118,461.512 548.102,460.504 545.894,460.504 C543.686,460.504 542.006,461.512 542.006,463.432 C542.006,465.016 543.206,465.784 545.798,466.84 L547.958,467.752 C552.182,469.528 554.15,471.352 554.15,474.664 C554.15,479.224 550.262,481.528 545.942,481.528 C541.814,481.528 538.694,479.464 536.822,476.968 L539.174,474.52 C541.094,476.536 543.062,478.12 545.894,478.12 C548.342,478.12 550.358,476.92 550.358,474.808 C550.358,472.792 548.63,472.024 546.278,471.064 L544.022,470.104 C540.47,468.616 538.214,466.984 538.214,463.624 C538.214,459.4 541.814,457.096 546.086,457.096 Z M580.142,457.096 C585.47,457.096 589.262,460.312 589.262,466.6 L589.262,481 L585.806,481 L585.806,477.976 C584.126,480.232 581.39,481.528 577.934,481.528 C573.23,481.528 569.774,479.032 569.774,474.952 C569.774,471.016 573.086,468.424 578.174,468.424 L585.566,468.424 L585.566,466.408 C585.566,462.472 583.358,460.504 579.902,460.504 C576.974,460.504 574.91,461.896 573.086,464.248 L570.638,462.232 C572.846,458.68 576.398,457.096 580.142,457.096 Z M578.414,478.456 C582.254,478.456 585.566,475.672 585.566,472.024 L585.566,471.448 L578.606,471.448 C575.342,471.448 573.566,472.552 573.566,474.76 C573.566,477.256 575.822,478.456 578.414,478.456 Z M620.294,457.096 C627.014,457.096 631.862,462.424 631.862,469.288 C631.862,476.2 626.966,481.528 620.294,481.528 C616.838,481.528 613.574,480.088 611.702,477.592 L611.702,489.64 L608.006,489.64 L608.006,457.624 L611.462,457.624 L611.462,461.368 C613.286,458.68 616.598,457.096 620.294,457.096 Z M619.766,478.12 C624.518,478.12 628.07,474.424 628.07,469.336 C628.07,464.248 624.566,460.504 619.766,460.504 C615.734,460.504 611.654,463.144 611.654,469.288 C611.654,475.432 615.686,478.12 619.766,478.12 Z M658.01,467.656 C658.01,468.904 657.818,470.008 657.722,470.44 L639.29,470.44 C639.77,475.096 643.226,478.12 647.834,478.12 C650.762,478.12 653.066,476.872 654.986,474.952 L657.146,477.448 C654.794,479.944 651.626,481.528 647.786,481.528 C640.73,481.528 635.402,476.2 635.402,469.336 C635.402,462.52 640.634,457.096 647.354,457.096 C653.354,457.096 658.01,461.416 658.01,467.656 Z M647.258,460.456 C643.322,460.456 640.202,463.144 639.434,467.176 L654.218,467.176 C654.17,462.856 651.002,460.456 647.258,460.456 Z M673.934,457.432 C674.702,457.432 675.182,457.528 675.662,457.624 L675.662,460.888 L674.27,460.888 C670.478,460.888 666.926,463.288 666.926,467.752 L666.926,481 L663.23,481 L663.23,457.624 L666.686,457.624 L666.686,460.984 C668.414,458.68 671.15,457.432 673.934,457.432 Z M686.402,457.096 C689.762,457.096 692.402,458.536 694.226,460.792 L691.97,463.096 C690.434,461.512 688.418,460.504 686.21,460.504 C684.002,460.504 682.322,461.512 682.322,463.432 C682.322,465.016 683.522,465.784 686.114,466.84 L688.274,467.752 C692.498,469.528 694.466,471.352 694.466,474.664 C694.466,479.224 690.578,481.528 686.258,481.528 C682.13,481.528 679.01,479.464 677.138,476.968 L679.49,474.52 C681.41,476.536 683.378,478.12 686.21,478.12 C688.658,478.12 690.674,476.92 690.674,474.808 C690.674,472.792 688.946,472.024 686.594,471.064 L684.338,470.104 C680.786,468.616 678.53,466.984 678.53,463.624 C678.53,459.4 682.13,457.096 686.402,457.096 Z M710.438,457.096 C717.206,457.096 722.678,462.424 722.678,469.288 C722.678,476.104 717.206,481.48 710.39,481.48 C703.622,481.432 698.198,476.152 698.198,469.288 C698.198,462.424 703.574,457.096 710.438,457.096 Z M710.438,460.504 C705.542,460.504 701.942,464.344 701.99,469.336 C701.99,474.28 705.542,478.072 710.39,478.072 C715.238,478.072 718.886,474.232 718.886,469.336 C718.886,464.296 715.238,460.504 710.438,460.504 Z M738.554,457.096 C744.074,457.096 747.242,460.888 747.242,466.312 L747.242,481 L743.546,481 L743.546,466.744 C743.546,463.048 741.338,460.504 737.738,460.504 C734.138,460.504 731.594,463.096 731.594,466.744 L731.594,481 L727.898,481 L727.898,457.624 L731.354,457.624 L731.354,460.168 C732.986,458.248 735.53,457.096 738.554,457.096 Z M776.546,457.096 C783.314,457.096 788.786,462.424 788.786,469.288 C788.786,476.104 783.314,481.48 776.498,481.48 C769.73,481.432 764.306,476.152 764.306,469.288 C764.306,462.424 769.682,457.096 776.546,457.096 Z M776.546,460.504 C771.65,460.504 768.05,464.344 768.098,469.336 C768.098,474.28 771.65,478.072 776.498,478.072 C781.346,478.072 784.994,474.232 784.994,469.336 C784.994,464.296 781.346,460.504 776.546,460.504 Z M803.174,447.832 C800.294,447.832 798.278,448.792 798.278,452.296 L798.278,457.624 L804.134,457.624 L804.134,460.936 L798.278,460.936 L798.278,481 L794.582,481 L794.582,460.936 L791.222,460.936 L791.222,457.624 L794.582,457.624 L794.582,452.056 C794.582,446.728 797.798,444.472 802.31,444.472 C803.462,444.472 804.374,444.616 805.238,444.856 L805.238,447.976 C804.47,447.88 803.798,447.832 803.174,447.832 Z M828.59,457.096 C832.814,457.096 836.174,459.112 838.238,462.184 L835.598,464.296 C833.87,461.992 831.662,460.504 828.638,460.504 C823.742,460.504 820.142,464.392 820.142,469.288 C820.142,474.232 823.742,478.12 828.638,478.12 C831.614,478.12 833.822,476.68 835.55,474.376 L838.19,476.44 C836.126,479.512 832.766,481.528 828.59,481.528 C821.774,481.528 816.35,476.152 816.35,469.288 C816.35,462.472 821.774,457.096 828.59,457.096 Z M853.298,457.096 C860.066,457.096 865.538,462.424 865.538,469.288 C865.538,476.104 860.066,481.48 853.25,481.48 C846.482,481.432 841.058,476.152 841.058,469.288 C841.058,462.424 846.434,457.096 853.298,457.096 Z M853.298,460.504 C848.402,460.504 844.802,464.344 844.85,469.336 C844.85,474.28 848.402,478.072 853.25,478.072 C858.098,478.072 861.746,474.232 861.746,469.336 C861.746,464.296 858.098,460.504 853.298,460.504 Z M874.454,445 L874.454,481 L870.758,481 L870.758,445 L874.454,445 Z M891.866,457.096 C898.634,457.096 904.106,462.424 904.106,469.288 C904.106,476.104 898.634,481.48 891.818,481.48 C885.05,481.432 879.626,476.152 879.626,469.288 C879.626,462.424 885.002,457.096 891.866,457.096 Z M891.866,460.504 C886.97,460.504 883.37,464.344 883.418,469.336 C883.418,474.28 886.97,478.072 891.818,478.072 C896.666,478.072 900.314,474.232 900.314,469.336 C900.314,464.296 896.666,460.504 891.866,460.504 Z M920.03,457.432 C920.798,457.432 921.278,457.528 921.758,457.624 L921.758,460.888 L920.366,460.888 C916.574,460.888 913.022,463.288 913.022,467.752 L913.022,481 L909.326,481 L909.326,457.624 L912.782,457.624 L912.782,460.984 C914.51,458.68 917.246,457.432 920.03,457.432 Z M924.914,475.48 C926.546,475.48 927.938,476.728 927.938,478.504 C927.938,480.28 926.546,481.528 924.914,481.528 C923.282,481.528 921.89,480.28 921.89,478.504 C921.89,476.728 923.282,475.48 924.914,475.48 Z" id="ThisprojectfocusedondevelopinganinteractiveVRpiecethattooktheuseronajourneythroughahauntedhousefilledwithmyfearsasapersonofcolor."></path>
        </g>
    </g>
</svg>