<?xml version="1.0" encoding="UTF-8"?>
<svg width="327px" height="115px" viewBox="0 0 327 115" version="1.1" xmlns="http://www.w3.org/2000/svg" xmlns:xlink="http://www.w3.org/1999/xlink">
    <!-- Generator: Sketch 53.2 (72643) - https://sketchapp.com -->
    <title>Group 11</title>
    <desc>Created with Sketch.</desc>
    <defs>
        <linearGradient x1="74.000038%" y1="49.1123969%" x2="-16.1444198%" y2="52.9349831%" id="linearGradient-1">
            <stop stop-color="#FA8561" offset="0%"></stop>
            <stop stop-color="#D31CF7" offset="100%"></stop>
        </linearGradient>
    </defs>
    <g id="Page-1" stroke="none" stroke-width="1" fill="none" fill-rule="evenodd">
        <g id="Desktop-HD-Copy-23" transform="translate(-2444.000000, -135.000000)" fill-rule="nonzero">
            <g id="Group-11" transform="translate(2444.935452, 135.928000)">
                <path d="M26.752,1.98951966e-13 C36.404,1.98951966e-13 44.46,4.788 48.868,12.464 L41.116,17.936 C37.772,12.616 33.06,9.5 26.752,9.5 C17.404,9.5 10.564,16.34 10.564,26.068 C10.564,35.72 17.404,42.484 26.752,42.484 C33.06,42.484 37.772,39.368 41.116,34.048 L48.868,39.52 C44.536,47.196 36.404,51.984 26.676,51.984 C11.78,51.984 1.59161573e-12,40.736 1.59161573e-12,25.992 C1.59161573e-12,11.248 11.78,1.98951966e-13 26.752,1.98951966e-13 Z M72.406137,12.616 C83.502137,12.616 92.622137,21.128 92.622137,32.224 C92.622137,43.396 83.502137,51.908 72.330137,51.908 C61.158137,51.908 52.266137,43.396 52.266137,32.224 C52.266137,21.128 61.158137,12.616 72.406137,12.616 Z M72.406137,21.964 C66.706137,21.964 62.678137,26.372 62.678137,32.3 C62.678137,38.228 66.706137,42.484 72.406137,42.484 C77.954137,42.484 82.134137,38.152 82.134137,32.3 C82.134137,26.372 77.954137,21.964 72.406137,21.964 Z M119.276274,12.616 C128.092274,12.616 133.412274,18.696 133.412274,27.74 L133.412274,51.072 L123.228274,51.072 L123.228274,29.108 C123.228274,24.776 120.416274,21.812 116.236274,21.812 C112.056274,21.812 109.092274,24.776 109.092274,29.108 L109.092274,51.072 L98.832274,51.072 L98.832274,13.452 L108.256274,13.452 L108.256274,16.872 C110.840274,14.288 114.640274,12.616 119.276274,12.616 Z M159.534411,12.616 C167.058411,12.616 172.758411,16.264 175.874411,21.888 L168.730411,27.436 C166.602411,24.244 163.866411,21.964 159.686411,21.964 C153.834411,21.964 149.806411,26.372 149.806411,32.224 C149.806411,38.152 153.834411,42.56 159.686411,42.56 C163.790411,42.56 166.526411,40.28 168.730411,37.164 L175.874411,42.636 C172.758411,48.26 166.982411,51.984 159.534411,51.984 C148.286411,51.984 139.394411,43.396 139.394411,32.224 C139.394411,21.128 148.286411,12.616 159.534411,12.616 Z M216.208548,30.096 C216.208548,32.224 215.828548,34.428 215.524548,35.72 L189.076548,35.72 C190.368548,40.508 194.320548,43.168 199.716548,43.168 C203.820548,43.168 207.164548,41.724 210.204548,39.368 L214.460548,46.36 C210.204548,49.932 205.188548,51.984 199.412548,51.984 C187.480548,51.984 178.816548,43.396 178.816548,32.3 C178.816548,21.204 187.404548,12.616 198.500548,12.616 C209.064548,12.616 216.208548,20.368 216.208548,30.096 Z M198.120548,20.9 C193.788548,20.9 190.292548,23.788 189.076548,28.5 L206.252548,28.5 C206.176548,23.712 202.452548,20.9 198.120548,20.9 Z M243.926685,12.616 C254.566685,12.616 262.166685,20.9 262.166685,32.224 C262.166685,43.548 254.566685,51.984 243.926685,51.984 C239.290685,51.984 235.338685,50.312 232.678685,47.424 L232.678685,64.752 L222.418685,64.752 L222.418685,13.452 L231.842685,13.452 L231.842685,18.164 C234.426685,14.592 238.682685,12.616 243.926685,12.616 Z M242.026685,42.636 C247.346685,42.636 251.754685,38.684 251.754685,32.3 C251.754685,25.916 247.422685,21.888 242.026685,21.888 C237.314685,21.888 232.526685,25.004 232.526685,32.224 C232.526685,39.368 237.238685,42.636 242.026685,42.636 Z M287.756822,42.788 C288.972822,42.788 290.644822,42.636 292.620822,42.484 L292.620822,51.072 C290.492822,51.604 288.212822,51.984 285.552822,51.984 C276.280822,51.984 270.504822,47.5 270.504822,37.848 L270.504822,22.116 L264.576822,22.116 L264.576822,13.452 L270.504822,13.452 L270.504822,3.952 L280.764822,3.952 L280.764822,13.452 L291.404822,13.452 L291.404822,22.116 L280.764822,22.116 L280.764822,36.936 C280.764822,41.268 283.044822,42.788 287.756822,42.788 Z M311.066959,12.54 C316.538959,12.54 321.174959,14.44 324.594959,18.24 L319.426959,24.548 C316.994959,22.268 314.030959,20.976 310.990959,20.976 C308.558959,20.976 306.962959,21.812 306.962959,23.636 C306.962959,25.156 308.178959,25.916 310.914959,26.98 L314.562959,28.5 C321.326959,31.236 325.126959,34.124 325.126959,39.976 C325.126959,47.728 318.666959,51.984 310.458959,51.984 C303.770959,51.984 298.222959,49.096 294.878959,44.688 L300.046959,38.456 C303.086959,41.572 306.582959,43.548 310.610959,43.548 C313.194959,43.548 315.398959,42.56 315.398959,40.432 C315.398959,38.684 313.802959,38 311.522959,37.012 L307.494959,35.34 C301.110959,32.756 297.234959,29.792 297.234959,23.864 C297.234959,16.644 303.086959,12.54 311.066959,12.54 Z" id="Concepts" fill="url(#linearGradient-1)"></path>
                <path d="M32.774548,110.072 L31.634548,107.392 L25.194548,107.392 L24.054548,110.072 L22.414548,110.072 L28.134548,96.652 L28.714548,96.652 L34.434548,110.072 L32.774548,110.072 Z M31.054548,105.992 L28.414548,99.512 L25.774548,105.992 L31.054548,105.992 Z M41.874548,100.112 C44.674548,100.112 46.694548,102.332 46.694548,105.192 C46.694548,108.072 44.654548,110.292 41.874548,110.292 C40.434548,110.292 39.074548,109.692 38.294548,108.652 L38.294548,113.672 L36.754548,113.672 L36.754548,100.332 L38.194548,100.332 L38.194548,101.892 C38.954548,100.772 40.334548,100.112 41.874548,100.112 Z M41.654548,108.872 C43.634548,108.872 45.114548,107.332 45.114548,105.212 C45.114548,103.092 43.654548,101.532 41.654548,101.532 C39.974548,101.532 38.274548,102.632 38.274548,105.192 C38.274548,107.752 39.954548,108.872 41.654548,108.872 Z M54.514548,100.112 C57.314548,100.112 59.334548,102.332 59.334548,105.192 C59.334548,108.072 57.294548,110.292 54.514548,110.292 C53.074548,110.292 51.714548,109.692 50.934548,108.652 L50.934548,113.672 L49.394548,113.672 L49.394548,100.332 L50.834548,100.332 L50.834548,101.892 C51.594548,100.772 52.974548,100.112 54.514548,100.112 Z M54.294548,108.872 C56.274548,108.872 57.754548,107.332 57.754548,105.212 C57.754548,103.092 56.294548,101.532 54.294548,101.532 C52.614548,101.532 50.914548,102.632 50.914548,105.192 C50.914548,107.752 52.594548,108.872 54.294548,108.872 Z M69.914548,94.472 L69.914548,112.492 L68.594548,112.492 L68.594548,94.472 L69.914548,94.472 Z M85.994548,96.652 C88.254548,96.652 90.154548,97.672 91.374548,99.352 L90.194548,100.272 C89.214548,98.912 87.794548,98.092 85.994548,98.092 C82.934548,98.092 80.754548,100.412 80.754548,103.452 C80.754548,106.532 82.974548,108.892 86.074548,108.892 C88.054548,108.892 89.594548,107.912 90.474548,106.532 L90.474548,104.752 L85.974548,104.752 L85.974548,103.352 L92.034548,103.352 L92.034548,106.872 C90.874548,108.912 88.634548,110.292 85.994548,110.292 C82.134548,110.292 79.134548,107.312 79.134548,103.472 C79.134548,99.612 82.154548,96.652 85.994548,96.652 Z M99.254548,100.252 C99.574548,100.252 99.774548,100.292 99.974548,100.332 L99.974548,101.692 L99.394548,101.692 C97.814548,101.692 96.334548,102.692 96.334548,104.552 L96.334548,110.072 L94.794548,110.072 L94.794548,100.332 L96.234548,100.332 L96.234548,101.732 C96.954548,100.772 98.094548,100.252 99.254548,100.252 Z M105.334548,100.112 C107.554548,100.112 109.134548,101.452 109.134548,104.072 L109.134548,110.072 L107.694548,110.072 L107.694548,108.812 C106.994548,109.752 105.854548,110.292 104.414548,110.292 C102.454548,110.292 101.014548,109.252 101.014548,107.552 C101.014548,105.912 102.394548,104.832 104.514548,104.832 L107.594548,104.832 L107.594548,103.992 C107.594548,102.352 106.674548,101.532 105.234548,101.532 C104.014548,101.532 103.154548,102.112 102.394548,103.092 L101.374548,102.252 C102.294548,100.772 103.774548,100.112 105.334548,100.112 Z M104.614548,109.012 C106.214548,109.012 107.594548,107.852 107.594548,106.332 L107.594548,106.092 L104.694548,106.092 C103.334548,106.092 102.594548,106.552 102.594548,107.472 C102.594548,108.512 103.534548,109.012 104.614548,109.012 Z M117.514548,100.112 C120.314548,100.112 122.334548,102.332 122.334548,105.192 C122.334548,108.072 120.294548,110.292 117.514548,110.292 C116.074548,110.292 114.714548,109.692 113.934548,108.652 L113.934548,113.672 L112.394548,113.672 L112.394548,100.332 L113.834548,100.332 L113.834548,101.892 C114.594548,100.772 115.974548,100.112 117.514548,100.112 Z M117.294548,108.872 C119.274548,108.872 120.754548,107.332 120.754548,105.212 C120.754548,103.092 119.294548,101.532 117.294548,101.532 C115.614548,101.532 113.914548,102.632 113.914548,105.192 C113.914548,107.752 115.594548,108.872 117.294548,108.872 Z M129.494548,100.112 C131.774548,100.112 133.094548,101.692 133.094548,103.952 L133.094548,110.072 L131.554548,110.072 L131.554548,104.152 C131.554548,102.612 130.634548,101.532 129.134548,101.532 C127.634548,101.532 126.574548,102.632 126.574548,104.152 L126.574548,110.072 L125.034548,110.072 L125.034548,95.072 L126.574548,95.072 L126.574548,101.432 C127.214548,100.612 128.234548,100.112 129.494548,100.112 Z M137.134548,95.492 C137.754548,95.492 138.274548,95.992 138.274548,96.612 C138.274548,97.252 137.754548,97.732 137.134548,97.732 C136.474548,97.732 135.974548,97.252 135.974548,96.612 C135.974548,95.992 136.474548,95.492 137.134548,95.492 Z M137.894548,100.332 L137.894548,110.072 L136.354548,110.072 L136.354548,100.332 L137.894548,100.332 Z M145.674548,100.112 C147.434548,100.112 148.834548,100.952 149.694548,102.232 L148.594548,103.112 C147.874548,102.152 146.954548,101.532 145.694548,101.532 C143.654548,101.532 142.154548,103.152 142.154548,105.192 C142.154548,107.252 143.654548,108.872 145.694548,108.872 C146.934548,108.872 147.854548,108.272 148.574548,107.312 L149.674548,108.172 C148.814548,109.452 147.414548,110.292 145.674548,110.292 C142.834548,110.292 140.574548,108.052 140.574548,105.192 C140.574548,102.352 142.834548,100.112 145.674548,100.112 Z M160.174548,94.472 L160.174548,112.492 L158.854548,112.492 L158.854548,94.472 L160.174548,94.472 Z M181.854548,96.652 L182.394548,96.652 L182.394548,110.072 L180.834548,110.072 L180.834548,100.592 L176.614548,106.332 L176.054548,106.332 L171.814548,100.572 L171.814548,110.072 L170.254548,110.072 L170.254548,96.652 L170.814548,96.652 L176.314548,104.292 L181.854548,96.652 Z M190.214548,100.112 C193.034548,100.112 195.314548,102.332 195.314548,105.192 C195.314548,108.032 193.034548,110.272 190.194548,110.272 C187.374548,110.252 185.114548,108.052 185.114548,105.192 C185.114548,102.332 187.354548,100.112 190.214548,100.112 Z M190.214548,101.532 C188.174548,101.532 186.674548,103.132 186.694548,105.212 C186.694548,107.272 188.174548,108.852 190.194548,108.852 C192.214548,108.852 193.734548,107.252 193.734548,105.212 C193.734548,103.112 192.214548,101.532 190.214548,101.532 Z M202.034548,108.892 C202.414548,108.892 202.834548,108.852 203.334548,108.772 L203.334548,110.072 C202.834548,110.192 202.334548,110.292 201.714548,110.292 C199.794548,110.292 198.434548,109.352 198.434548,107.132 L198.434548,101.712 L196.794548,101.712 L196.794548,100.332 L198.434548,100.332 L198.434548,97.672 L199.974548,97.672 L199.974548,100.332 L203.014548,100.332 L203.014548,101.712 L199.974548,101.712 L199.974548,107.032 C199.974548,108.492 200.814548,108.892 202.034548,108.892 Z M206.414548,95.492 C207.034548,95.492 207.554548,95.992 207.554548,96.612 C207.554548,97.252 207.034548,97.732 206.414548,97.732 C205.754548,97.732 205.254548,97.252 205.254548,96.612 C205.254548,95.992 205.754548,95.492 206.414548,95.492 Z M207.174548,100.332 L207.174548,110.072 L205.634548,110.072 L205.634548,100.332 L207.174548,100.332 Z M214.954548,100.112 C217.774548,100.112 220.054548,102.332 220.054548,105.192 C220.054548,108.032 217.774548,110.272 214.934548,110.272 C212.114548,110.252 209.854548,108.052 209.854548,105.192 C209.854548,102.332 212.094548,100.112 214.954548,100.112 Z M214.954548,101.532 C212.914548,101.532 211.414548,103.132 211.434548,105.212 C211.434548,107.272 212.914548,108.852 214.934548,108.852 C216.954548,108.852 218.474548,107.252 218.474548,105.212 C218.474548,103.112 216.954548,101.532 214.954548,101.532 Z M227.194548,100.112 C229.494548,100.112 230.814548,101.692 230.814548,103.952 L230.814548,110.072 L229.274548,110.072 L229.274548,104.132 C229.274548,102.592 228.354548,101.532 226.854548,101.532 C225.354548,101.532 224.294548,102.612 224.294548,104.132 L224.294548,110.072 L222.754548,110.072 L222.754548,100.332 L224.194548,100.332 L224.194548,101.392 C224.874548,100.592 225.934548,100.112 227.194548,100.112 Z M243.714548,96.872 C248.194548,96.872 250.894548,99.612 250.894548,103.452 C250.894548,107.232 248.194548,110.072 243.714548,110.072 L239.794548,110.072 L239.794548,96.872 L243.714548,96.872 Z M243.694548,98.272 L241.354548,98.272 L241.354548,108.672 L243.694548,108.672 C247.234548,108.672 249.274548,106.412 249.274548,103.452 C249.274548,100.432 247.234548,98.272 243.694548,98.272 Z M262.274548,104.512 C262.274548,105.032 262.194548,105.492 262.154548,105.672 L254.474548,105.672 C254.674548,107.612 256.114548,108.872 258.034548,108.872 C259.254548,108.872 260.214548,108.352 261.014548,107.552 L261.914548,108.592 C260.934548,109.632 259.614548,110.292 258.014548,110.292 C255.074548,110.292 252.854548,108.072 252.854548,105.212 C252.854548,102.372 255.034548,100.112 257.834548,100.112 C260.334548,100.112 262.274548,101.912 262.274548,104.512 Z M257.794548,101.512 C256.154548,101.512 254.854548,102.632 254.534548,104.312 L260.694548,104.312 C260.674548,102.512 259.354548,101.512 257.794548,101.512 Z M267.914548,100.112 C269.314548,100.112 270.414548,100.712 271.174548,101.652 L270.234548,102.612 C269.594548,101.952 268.754548,101.532 267.834548,101.532 C266.914548,101.532 266.214548,101.952 266.214548,102.752 C266.214548,103.412 266.714548,103.732 267.794548,104.172 L268.694548,104.552 C270.454548,105.292 271.274548,106.052 271.274548,107.432 C271.274548,109.332 269.654548,110.292 267.854548,110.292 C266.134548,110.292 264.834548,109.432 264.054548,108.392 L265.034548,107.372 C265.834548,108.212 266.654548,108.872 267.834548,108.872 C268.854548,108.872 269.694548,108.372 269.694548,107.492 C269.694548,106.652 268.974548,106.332 267.994548,105.932 L267.054548,105.532 C265.574548,104.912 264.634548,104.232 264.634548,102.832 C264.634548,101.072 266.134548,100.112 267.914548,100.112 Z M274.834548,95.492 C275.454548,95.492 275.974548,95.992 275.974548,96.612 C275.974548,97.252 275.454548,97.732 274.834548,97.732 C274.174548,97.732 273.674548,97.252 273.674548,96.612 C273.674548,95.992 274.174548,95.492 274.834548,95.492 Z M275.594548,100.332 L275.594548,110.072 L274.054548,110.072 L274.054548,100.332 L275.594548,100.332 Z M286.874548,100.332 L288.334548,100.332 L288.334548,109.132 C288.334548,112.132 286.434548,113.892 283.594548,113.892 C281.554548,113.892 279.974548,112.972 279.014548,112.012 L279.914548,110.932 C280.854548,111.752 281.954548,112.472 283.554548,112.472 C285.534548,112.472 286.794548,111.372 286.794548,109.212 L286.794548,108.352 C285.994548,109.372 284.634548,109.972 283.174548,109.972 C280.434548,109.972 278.394548,107.892 278.394548,105.052 C278.394548,102.232 280.434548,100.112 283.174548,100.112 C284.714548,100.112 286.114548,100.792 286.874548,101.912 L286.874548,100.332 Z M283.414548,108.552 C285.114548,108.552 286.814548,107.492 286.814548,105.052 C286.814548,102.612 285.094548,101.572 283.414548,101.572 C281.434548,101.572 279.954548,103.012 279.954548,105.072 C279.954548,107.132 281.434548,108.552 283.414548,108.552 Z M296.154548,100.112 C298.454548,100.112 299.774548,101.692 299.774548,103.952 L299.774548,110.072 L298.234548,110.072 L298.234548,104.132 C298.234548,102.592 297.314548,101.532 295.814548,101.532 C294.314548,101.532 293.254548,102.612 293.254548,104.132 L293.254548,110.072 L291.714548,110.072 L291.714548,100.332 L293.154548,100.332 L293.154548,101.392 C293.834548,100.592 294.894548,100.112 296.154548,100.112 Z" id="App|Graphic|MotionDesign" fill="#FFFFFF"></path>
            </g>
        </g>
    </g>
</svg>