<?xml version="1.0" encoding="UTF-8"?>
<svg width="374px" height="121px" viewBox="0 0 374 121" version="1.1" xmlns="http://www.w3.org/2000/svg" xmlns:xlink="http://www.w3.org/1999/xlink">
    <!-- Generator: Sketch 59 (86127) - https://sketch.com -->
    <title>Group 12</title>
    <desc>Created with Sketch.</desc>
    <defs>
        <linearGradient x1="74.000038%" y1="49.4464476%" x2="-16.1444198%" y2="51.8303978%" id="linearGradient-1">
            <stop stop-color="#FA8561" offset="0%"></stop>
            <stop stop-color="#D31CF7" offset="100%"></stop>
        </linearGradient>
    </defs>
    <g id="Page-1" stroke="none" stroke-width="1" fill="none" fill-rule="evenodd">
        <g id="Desktop-HD-Copy-23" transform="translate(-2425.000000, -347.000000)" fill-rule="nonzero">
            <g id="Group-12" transform="translate(2425.662247, 347.316000)">
                <path d="M10.26,7.524 L1.59161573e-12,7.524 L1.59161573e-12,57.684 L10.26,57.684 L10.26,7.524 Z M39.346137,19.228 C34.710137,19.228 30.910137,20.9 28.326137,23.484 L28.326137,20.064 L18.902137,20.064 L18.902137,57.684 L29.162137,57.684 L29.162137,35.72 C29.162137,31.388 32.126137,28.424 36.306137,28.424 C40.486137,28.424 43.298137,31.388 43.298137,35.72 L43.298137,57.684 L53.482137,57.684 L53.482137,34.352 C53.482137,25.308 48.162137,19.228 39.346137,19.228 Z M88.952274,0.684 L88.952274,23.712 C86.368274,20.824 82.416274,19.228 77.704274,19.228 C67.064274,19.228 59.464274,27.588 59.464274,38.912 C59.464274,50.236 67.064274,58.596 77.704274,58.596 C82.948274,58.596 87.204274,56.544 89.788274,52.972 L89.788274,57.684 L99.212274,57.684 L99.212274,0.684 L88.952274,0.684 Z M79.604274,49.248 C74.208274,49.248 69.876274,45.22 69.876274,38.836 C69.876274,32.452 74.284274,28.5 79.604274,28.5 C84.316274,28.5 89.104274,31.768 89.104274,38.912 C89.104274,46.132 84.316274,49.248 79.604274,49.248 Z M141.902411,20.064 L131.642411,20.064 L131.642411,41.952 C131.642411,46.36 128.526411,49.172 124.650411,49.172 C120.622411,49.172 117.506411,46.36 117.506411,41.952 L117.506411,20.064 L107.246411,20.064 L107.246411,41.116 C107.246411,51.756 114.694411,58.596 124.650411,58.596 C134.454411,58.596 141.902411,51.756 141.902411,41.116 L141.902411,20.064 Z M162.704548,19.152 C154.724548,19.152 148.872548,23.256 148.872548,30.476 C148.872548,36.1884364 152.471782,39.148517 158.446127,41.6684774 L163.160548,43.624 L163.868727,43.9327846 C165.764227,44.7707857 167.036548,45.4832857 167.036548,47.044 C167.036548,49.172 164.832548,50.16 162.248548,50.16 C158.220548,50.16 154.724548,48.184 151.684548,45.068 L146.516548,51.3 C149.860548,55.708 155.408548,58.596 162.096548,58.596 C170.304548,58.596 176.764548,54.34 176.764548,46.588 C176.764548,40.736 172.964548,37.848 166.200548,35.112 L162.552548,33.592 L162.008068,33.3758508 C159.654607,32.4195577 158.600548,31.6631724 158.600548,30.248 C158.600548,28.424 160.196548,27.588 162.628548,27.588 C165.668548,27.588 168.632548,28.88 171.064548,31.16 L176.232548,24.852 C172.812548,21.052 168.176548,19.152 162.704548,19.152 Z M202.050685,49.4 C197.338685,49.4 195.058685,47.88 195.058685,43.548 L195.058685,28.728 L205.698685,28.728 L205.698685,20.064 L195.058685,20.064 L195.058685,10.564 L184.798685,10.564 L184.798685,20.064 L178.870685,20.064 L178.870685,28.728 L184.798685,28.728 L184.798685,44.46 C184.798685,54.112 190.574685,58.596 199.846685,58.596 C202.506685,58.596 204.786685,58.216 206.914685,57.684 L206.914685,49.096 L204.387901,49.2915175 C203.492436,49.355929 202.705454,49.4 202.050685,49.4 Z M232.352822,19.608 C228.248822,19.608 224.524822,21.356 222.016822,24.624 L222.016822,20.064 L212.592822,20.064 L212.592822,57.684 L222.852822,57.684 L222.852822,38.912 C222.852822,32.148 227.032822,29.108 232.960822,29.108 L235.696822,29.108 L235.696822,20.064 C234.708822,19.76 233.720822,19.608 232.352822,19.608 Z M245.402959,-2.27373675e-13 C241.754959,-2.27373675e-13 238.866959,2.736 238.866959,6.384 C238.866959,9.956 241.754959,12.692 245.402959,12.692 C249.050959,12.692 252.014959,9.956 252.014959,6.384 C252.014959,2.736 249.050959,-2.27373675e-13 245.402959,-2.27373675e-13 Z M250.570959,20.064 L240.310959,20.064 L240.310959,57.684 L250.570959,57.684 L250.570959,20.064 Z M276.997096,19.228 C265.749096,19.228 256.857096,27.74 256.857096,38.836 C256.857096,50.008 265.749096,58.52 276.921096,58.52 C288.093096,58.52 297.213096,50.008 297.213096,38.836 C297.213096,27.74 288.093096,19.228 276.997096,19.228 Z M276.997096,28.576 C282.545096,28.576 286.725096,32.984 286.725096,38.912 C286.725096,44.764 282.545096,49.096 276.997096,49.096 C271.297096,49.096 267.269096,44.84 267.269096,38.912 C267.269096,32.984 271.297096,28.576 276.997096,28.576 Z M337.699233,20.064 L327.439233,20.064 L327.439233,41.952 C327.439233,46.36 324.323233,49.172 320.447233,49.172 C316.419233,49.172 313.303233,46.36 313.303233,41.952 L313.303233,20.064 L303.043233,20.064 L303.043233,41.116 C303.043233,51.756 310.491233,58.596 320.447233,58.596 C330.251233,58.596 337.699233,51.756 337.699233,41.116 L337.699233,20.064 Z M358.50137,19.152 C363.97337,19.152 368.60937,21.052 372.02937,24.852 L366.86137,31.16 C364.42937,28.88 361.46537,27.588 358.42537,27.588 C355.99337,27.588 354.39737,28.424 354.39737,30.248 C354.39737,31.768 355.61337,32.528 358.34937,33.592 L361.99737,35.112 C368.76137,37.848 372.56137,40.736 372.56137,46.588 C372.56137,54.34 366.10137,58.596 357.89337,58.596 C351.20537,58.596 345.65737,55.708 342.31337,51.3 L347.48137,45.068 C350.52137,48.184 354.01737,50.16 358.04537,50.16 C360.62937,50.16 362.83337,49.172 362.83337,47.044 C362.83337,45.296 361.23737,44.612 358.95737,43.624 L354.242949,41.6684774 C348.268604,39.148517 344.66937,36.1884364 344.66937,30.476 C344.66937,23.256 350.52137,19.152 358.50137,19.152 Z" id="Industrious" fill="url(#linearGradient-1)"></path>
                <path d="M141.067753,116.684 L142.727753,116.684 L137.007753,103.264 L136.427753,103.264 L130.707753,116.684 L132.347753,116.684 L133.487753,114.004 L139.927753,114.004 L141.067753,116.684 Z M139.347753,112.604 L134.067753,112.604 L136.707753,106.124 L139.347753,112.604 Z M150.167753,106.724 C148.627753,106.724 147.247753,107.384 146.487753,108.504 L146.487753,106.944 L145.047753,106.944 L145.047753,120.284 L146.587753,120.284 L146.587753,115.264 C147.367753,116.304 148.727753,116.904 150.167753,116.904 C152.947753,116.904 154.987753,114.684 154.987753,111.804 C154.987753,108.944 152.967753,106.724 150.167753,106.724 Z M149.947753,115.484 C148.247753,115.484 146.567753,114.364 146.567753,111.804 C146.567753,109.244 148.267753,108.144 149.947753,108.144 C151.947753,108.144 153.407753,109.704 153.407753,111.824 C153.407753,113.944 151.927753,115.484 149.947753,115.484 Z M162.807753,106.724 C161.267753,106.724 159.887753,107.384 159.127753,108.504 L159.127753,106.944 L157.687753,106.944 L157.687753,120.284 L159.227753,120.284 L159.227753,115.264 C160.007753,116.304 161.367753,116.904 162.807753,116.904 C165.587753,116.904 167.627753,114.684 167.627753,111.804 C167.627753,108.944 165.607753,106.724 162.807753,106.724 Z M162.587753,115.484 C160.887753,115.484 159.207753,114.364 159.207753,111.804 C159.207753,109.244 160.907753,108.144 162.587753,108.144 C164.587753,108.144 166.047753,109.704 166.047753,111.824 C166.047753,113.944 164.567753,115.484 162.587753,115.484 Z M179.967753,103.484 L176.047753,103.484 L176.047753,116.684 L179.967753,116.684 C184.447753,116.684 187.147753,113.844 187.147753,110.064 C187.147753,106.224 184.447753,103.484 179.967753,103.484 Z M179.947753,104.884 C183.487753,104.884 185.527753,107.044 185.527753,110.064 C185.527753,113.024 183.487753,115.284 179.947753,115.284 L177.607753,115.284 L177.607753,104.884 L179.947753,104.884 Z M198.527753,111.124 C198.527753,108.524 196.587753,106.724 194.087753,106.724 C191.287753,106.724 189.107753,108.984 189.107753,111.824 C189.107753,114.684 191.327753,116.904 194.267753,116.904 C195.867753,116.904 197.187753,116.244 198.167753,115.204 L197.267753,114.164 C196.467753,114.964 195.507753,115.484 194.287753,115.484 C192.367753,115.484 190.927753,114.224 190.727753,112.284 L198.407753,112.284 L198.439029,112.124933 C198.479358,111.896593 198.527753,111.528444 198.527753,111.124 Z M194.047753,108.124 C195.607753,108.124 196.927753,109.124 196.947753,110.924 L190.787753,110.924 C191.107753,109.244 192.407753,108.124 194.047753,108.124 Z M204.167753,106.724 C202.387753,106.724 200.887753,107.684 200.887753,109.444 C200.887753,110.780364 201.744241,111.460694 203.10932,112.059021 L204.247753,112.544 L204.582091,112.682832 C205.3872,113.026491 205.947753,113.362824 205.947753,114.104 C205.947753,114.984 205.107753,115.484 204.087753,115.484 C202.907753,115.484 202.087753,114.824 201.287753,113.984 L200.307753,115.004 C201.087753,116.044 202.387753,116.904 204.107753,116.904 C205.907753,116.904 207.527753,115.944 207.527753,114.044 C207.527753,112.724 206.777508,111.971259 205.171998,111.260684 L204.047753,110.784 C202.967753,110.344 202.467753,110.024 202.467753,109.364 C202.467753,108.564 203.167753,108.144 204.087753,108.144 C205.007753,108.144 205.847753,108.564 206.487753,109.224 L207.427753,108.264 C206.667753,107.324 205.567753,106.724 204.167753,106.724 Z M211.087753,102.104 C210.427753,102.104 209.927753,102.604 209.927753,103.224 C209.927753,103.864 210.427753,104.344 211.087753,104.344 C211.707753,104.344 212.227753,103.864 212.227753,103.224 C212.227753,102.604 211.707753,102.104 211.087753,102.104 Z M211.847753,106.944 L210.307753,106.944 L210.307753,116.684 L211.847753,116.684 L211.847753,106.944 Z M223.127753,106.944 L223.127753,108.524 C222.367753,107.404 220.967753,106.724 219.427753,106.724 C216.687753,106.724 214.647753,108.844 214.647753,111.664 C214.647753,114.504 216.687753,116.584 219.427753,116.584 C220.887753,116.584 222.247753,115.984 223.047753,114.964 L223.047753,115.824 C223.047753,117.984 221.787753,119.084 219.807753,119.084 C218.207753,119.084 217.107753,118.364 216.167753,117.544 L215.267753,118.624 C216.227753,119.584 217.807753,120.504 219.847753,120.504 C222.687753,120.504 224.587753,118.744 224.587753,115.744 L224.587753,106.944 L223.127753,106.944 Z M219.667753,115.164 C217.687753,115.164 216.207753,113.744 216.207753,111.684 C216.207753,109.624 217.687753,108.184 219.667753,108.184 C221.347753,108.184 223.067753,109.224 223.067753,111.664 C223.067753,114.104 221.367753,115.164 219.667753,115.164 Z M232.407753,106.724 C234.707753,106.724 236.027753,108.304 236.027753,110.564 L236.027753,116.684 L234.487753,116.684 L234.487753,110.744 C234.487753,109.204 233.567753,108.144 232.067753,108.144 C230.567753,108.144 229.507753,109.224 229.507753,110.744 L229.507753,116.684 L227.967753,116.684 L227.967753,106.944 L229.407753,106.944 L229.407753,108.004 C230.087753,107.204 231.147753,106.724 232.407753,106.724 Z" id="AppDesign" fill="#FFFFFF"></path>
            </g>
        </g>
    </g>
</svg>