<?xml version="1.0" encoding="UTF-8"?>
<svg width="463px" height="120px" viewBox="0 0 463 120" version="1.1" xmlns="http://www.w3.org/2000/svg" xmlns:xlink="http://www.w3.org/1999/xlink">
    <!-- Generator: Sketch 53.2 (72643) - https://sketchapp.com -->
    <title>Group 2</title>
    <desc>Created with Sketch.</desc>
    <defs>
        <linearGradient x1="74.000038%" y1="49.4632783%" x2="-16.1444198%" y2="51.7747448%" id="linearGradient-1">
            <stop stop-color="#FA8561" offset="0%"></stop>
            <stop stop-color="#D31CF7" offset="100%"></stop>
        </linearGradient>
    </defs>
    <g id="Page-1" stroke="none" stroke-width="1" fill="none" fill-rule="evenodd">
        <g id="Desktop-HD-Copy-23" transform="translate(-1224.000000, -134.000000)" fill-rule="nonzero">
            <g id="Group-2" transform="translate(1224.276000, 134.000000)">
                <path d="M32.452,6.84 L42.712,6.84 L42.712,57.912 L39.292,57.912 L10.26,26.904 L10.26,57 L-2.38742359e-12,57 L-2.38742359e-12,5.928 L3.344,5.928 L32.452,36.708 L32.452,6.84 Z M86.618137,36.024 C86.618137,38.152 86.238137,40.356 85.934137,41.648 L59.486137,41.648 C60.778137,46.436 64.730137,49.096 70.126137,49.096 C74.230137,49.096 77.574137,47.652 80.614137,45.296 L84.870137,52.288 C80.614137,55.86 75.598137,57.912 69.822137,57.912 C57.890137,57.912 49.226137,49.324 49.226137,38.228 C49.226137,27.132 57.814137,18.544 68.910137,18.544 C79.474137,18.544 86.618137,26.296 86.618137,36.024 Z M68.530137,26.828 C64.198137,26.828 60.702137,29.716 59.486137,34.428 L76.662137,34.428 C76.586137,29.64 72.862137,26.828 68.530137,26.828 Z M127.104274,19.38 L127.104274,40.432 C127.104274,51.072 119.656274,57.912 109.852274,57.912 C99.896274,57.912 92.448274,51.072 92.448274,40.432 L92.448274,19.38 L102.708274,19.38 L102.708274,41.268 C102.708274,45.676 105.824274,48.488 109.852274,48.488 C113.728274,48.488 116.844274,45.676 116.844274,41.268 L116.844274,19.38 L127.104274,19.38 Z M154.898411,18.924 C156.266411,18.924 157.254411,19.076 158.242411,19.38 L158.242411,28.424 L155.506411,28.424 C149.578411,28.424 145.398411,31.464 145.398411,38.228 L145.398411,57 L135.138411,57 L135.138411,19.38 L144.562411,19.38 L144.562411,23.94 C147.070411,20.672 150.794411,18.924 154.898411,18.924 Z M177.524548,18.544 C187.100548,18.544 193.636548,23.94 193.636548,34.656 L193.636548,57 L184.212548,57 L184.212548,53.352 C181.552548,56.164 177.600548,57.912 172.736548,57.912 C164.528548,57.912 159.740548,53.048 159.740548,46.664 C159.740548,39.824 165.288548,35.72 173.952548,35.72 L183.376548,35.72 L183.376548,34.048 C183.376548,29.944 181.020548,27.436 176.384548,27.436 C172.356548,27.436 169.544548,29.336 166.428548,32.604 L161.108548,26.296 C165.516548,21.052 170.912548,18.544 177.524548,18.544 Z M175.472548,50.388 C179.804548,50.388 183.376548,47.348 183.376548,42.94 L183.376548,42.484 L175.320548,42.484 C171.976548,42.484 170.076548,43.776 170.076548,46.284 C170.076548,48.868 172.280548,50.388 175.472548,50.388 Z M212.006685,-1.70530257e-13 L212.006685,57 L201.746685,57 L201.746685,-1.70530257e-13 L212.006685,-1.70530257e-13 Z M259.462959,6.84 C270.026959,6.84 277.550959,13.224 277.550959,23.028 C277.550959,32.68 270.026959,39.292 259.462959,39.292 L250.874959,39.292 L250.874959,57 L240.614959,57 L240.614959,6.84 L259.462959,6.84 Z M259.462959,15.884 L250.874959,15.884 L250.874959,30.324 L259.462959,30.324 C264.250959,30.324 267.062959,27.36 267.062959,23.028 C267.062959,18.848 264.250959,15.884 259.462959,15.884 Z M300.329096,18.544 C311.425096,18.544 320.545096,27.056 320.545096,38.152 C320.545096,49.324 311.425096,57.836 300.253096,57.836 C289.081096,57.836 280.189096,49.324 280.189096,38.152 C280.189096,27.056 289.081096,18.544 300.329096,18.544 Z M300.329096,27.892 C294.629096,27.892 290.601096,32.3 290.601096,38.228 C290.601096,44.156 294.629096,48.412 300.329096,48.412 C305.877096,48.412 310.057096,44.08 310.057096,38.228 C310.057096,32.3 305.877096,27.892 300.329096,27.892 Z M362.019233,36.024 C362.019233,38.152 361.639233,40.356 361.335233,41.648 L334.887233,41.648 C336.179233,46.436 340.131233,49.096 345.527233,49.096 C349.631233,49.096 352.975233,47.652 356.015233,45.296 L360.271233,52.288 C356.015233,55.86 350.999233,57.912 345.223233,57.912 C333.291233,57.912 324.627233,49.324 324.627233,38.228 C324.627233,27.132 333.215233,18.544 344.311233,18.544 C354.875233,18.544 362.019233,26.296 362.019233,36.024 Z M343.931233,26.828 C339.599233,26.828 336.103233,29.716 334.887233,34.428 L352.063233,34.428 C351.987233,29.64 348.263233,26.828 343.931233,26.828 Z M387.53337,48.716 C388.74937,48.716 390.42137,48.564 392.39737,48.412 L392.39737,57 C390.26937,57.532 387.98937,57.912 385.32937,57.912 C376.05737,57.912 370.28137,53.428 370.28137,43.776 L370.28137,28.044 L364.35337,28.044 L364.35337,19.38 L370.28137,19.38 L370.28137,9.88 L380.54137,9.88 L380.54137,19.38 L391.18137,19.38 L391.18137,28.044 L380.54137,28.044 L380.54137,42.864 C380.54137,47.196 382.82137,48.716 387.53337,48.716 Z M417.835507,18.924 C419.203507,18.924 420.191507,19.076 421.179507,19.38 L421.179507,28.424 L418.443507,28.424 C412.515507,28.424 408.335507,31.464 408.335507,38.228 L408.335507,57 L398.075507,57 L398.075507,19.38 L407.499507,19.38 L407.499507,23.94 C410.007507,20.672 413.731507,18.924 417.835507,18.924 Z M451.481644,19.38 L462.273644,19.38 L444.261644,60.268 C440.841644,68.02 436.357644,71.592 429.289644,71.592 C427.161644,71.592 424.653644,71.212 422.677644,70.68 L422.677644,62.092 C424.425644,62.244 425.869644,62.396 427.085644,62.396 C430.353644,62.396 433.013644,61.56 434.913644,57.304 L436.053644,54.796 L421.613644,19.38 L432.481644,19.38 L441.677644,44.08 L451.481644,19.38 Z" id="NeuralPoetry" fill="url(#linearGradient-1)"></path>
                <path d="M81.114,116 L79.974,113.32 L73.534,113.32 L72.394,116 L70.754,116 L76.474,102.58 L77.054,102.58 L82.774,116 L81.114,116 Z M79.394,111.92 L76.754,105.44 L74.114,111.92 L79.394,111.92 Z M86.774,102.8 L86.774,116 L85.214,116 L85.214,102.8 L86.774,102.8 Z M98.154,100.4 L98.154,118.42 L96.834,118.42 L96.834,100.4 L98.154,100.4 Z M124.114,102.8 L125.814,102.8 L120.814,116.22 L120.254,116.22 L116.074,105.74 L111.894,116.22 L111.334,116.22 L106.314,102.8 L108.034,102.8 L111.674,112.86 L115.794,102.58 L116.354,102.58 L120.474,112.86 L124.114,102.8 Z M135.874,110.44 C135.874,110.96 135.794,111.42 135.754,111.6 L128.074,111.6 C128.274,113.54 129.714,114.8 131.634,114.8 C132.854,114.8 133.814,114.28 134.614,113.48 L135.514,114.52 C134.534,115.56 133.214,116.22 131.614,116.22 C128.674,116.22 126.454,114 126.454,111.14 C126.454,108.3 128.634,106.04 131.434,106.04 C133.934,106.04 135.874,107.84 135.874,110.44 Z M131.394,107.44 C129.754,107.44 128.454,108.56 128.134,110.24 L134.294,110.24 C134.274,108.44 132.954,107.44 131.394,107.44 Z M143.694,106.04 C146.474,106.04 148.514,108.26 148.514,111.14 C148.514,114 146.494,116.22 143.714,116.22 C142.194,116.22 140.774,115.56 140.014,114.44 L140.014,116 L138.574,116 L138.574,101 L140.114,101 L140.114,107.7 C140.874,106.68 142.214,106.04 143.694,106.04 Z M143.474,114.8 C145.474,114.8 146.934,113.24 146.934,111.12 C146.934,109 145.454,107.46 143.474,107.46 C141.774,107.46 140.094,108.58 140.094,111.14 C140.094,113.7 141.794,114.8 143.474,114.8 Z M160.854,102.8 C165.334,102.8 168.034,105.54 168.034,109.38 C168.034,113.16 165.334,116 160.854,116 L156.934,116 L156.934,102.8 L160.854,102.8 Z M160.834,104.2 L158.494,104.2 L158.494,114.6 L160.834,114.6 C164.374,114.6 166.414,112.34 166.414,109.38 C166.414,106.36 164.374,104.2 160.834,104.2 Z M179.414,110.44 C179.414,110.96 179.334,111.42 179.294,111.6 L171.614,111.6 C171.814,113.54 173.254,114.8 175.174,114.8 C176.394,114.8 177.354,114.28 178.154,113.48 L179.054,114.52 C178.074,115.56 176.754,116.22 175.154,116.22 C172.214,116.22 169.994,114 169.994,111.14 C169.994,108.3 172.174,106.04 174.974,106.04 C177.474,106.04 179.414,107.84 179.414,110.44 Z M174.934,107.44 C173.294,107.44 171.994,108.56 171.674,110.24 L177.834,110.24 C177.814,108.44 176.494,107.44 174.934,107.44 Z M188.634,106.26 L190.274,106.26 L185.694,116.22 L185.134,116.22 L180.534,106.26 L182.174,106.26 L185.414,113.6 L188.634,106.26 Z M200.814,110.44 C200.814,110.96 200.734,111.42 200.694,111.6 L193.014,111.6 C193.214,113.54 194.654,114.8 196.574,114.8 C197.794,114.8 198.754,114.28 199.554,113.48 L200.454,114.52 C199.474,115.56 198.154,116.22 196.554,116.22 C193.614,116.22 191.394,114 191.394,111.14 C191.394,108.3 193.574,106.04 196.374,106.04 C198.874,106.04 200.814,107.84 200.814,110.44 Z M196.334,107.44 C194.694,107.44 193.394,108.56 193.074,110.24 L199.234,110.24 C199.214,108.44 197.894,107.44 196.334,107.44 Z M205.054,101 L205.054,116 L203.514,116 L203.514,101 L205.054,101 Z M212.834,106.04 C215.654,106.04 217.934,108.26 217.934,111.12 C217.934,113.96 215.654,116.2 212.814,116.2 C209.994,116.18 207.734,113.98 207.734,111.12 C207.734,108.26 209.974,106.04 212.834,106.04 Z M212.834,107.46 C210.794,107.46 209.294,109.06 209.314,111.14 C209.314,113.2 210.794,114.78 212.814,114.78 C214.834,114.78 216.354,113.18 216.354,111.14 C216.354,109.04 214.834,107.46 212.834,107.46 Z M225.754,106.04 C228.554,106.04 230.574,108.26 230.574,111.12 C230.574,114 228.534,116.22 225.754,116.22 C224.314,116.22 222.954,115.62 222.174,114.58 L222.174,119.6 L220.634,119.6 L220.634,106.26 L222.074,106.26 L222.074,107.82 C222.834,106.7 224.214,106.04 225.754,106.04 Z M225.534,114.8 C227.514,114.8 228.994,113.26 228.994,111.14 C228.994,109.02 227.534,107.46 225.534,107.46 C223.854,107.46 222.154,108.56 222.154,111.12 C222.154,113.68 223.834,114.8 225.534,114.8 Z M243.954,106.04 C246.234,106.04 247.494,107.62 247.494,109.88 L247.494,116 L245.954,116 L245.954,110.08 C245.954,108.54 245.114,107.46 243.654,107.46 C242.174,107.46 241.154,108.58 241.154,109.94 L241.154,116 L239.614,116 L239.614,110.08 C239.614,108.54 238.734,107.46 237.294,107.46 C235.814,107.46 234.814,108.54 234.814,110.08 L234.814,116 L233.274,116 L233.274,106.26 L234.714,106.26 L234.714,107.28 C235.394,106.5 236.394,106.04 237.614,106.04 C239.074,106.04 240.074,106.7 240.614,107.72 C241.294,106.74 242.454,106.04 243.954,106.04 Z M259.474,110.44 C259.474,110.96 259.394,111.42 259.354,111.6 L251.674,111.6 C251.874,113.54 253.314,114.8 255.234,114.8 C256.454,114.8 257.414,114.28 258.214,113.48 L259.114,114.52 C258.134,115.56 256.814,116.22 255.214,116.22 C252.274,116.22 250.054,114 250.054,111.14 C250.054,108.3 252.234,106.04 255.034,106.04 C257.534,106.04 259.474,107.84 259.474,110.44 Z M254.994,107.44 C253.354,107.44 252.054,108.56 251.734,110.24 L257.894,110.24 C257.874,108.44 256.554,107.44 254.994,107.44 Z M266.614,106.04 C268.914,106.04 270.234,107.62 270.234,109.88 L270.234,116 L268.694,116 L268.694,110.06 C268.694,108.52 267.774,107.46 266.274,107.46 C264.774,107.46 263.714,108.54 263.714,110.06 L263.714,116 L262.174,116 L262.174,106.26 L263.614,106.26 L263.614,107.32 C264.294,106.52 265.354,106.04 266.614,106.04 Z M277.514,114.82 C277.894,114.82 278.314,114.78 278.814,114.7 L278.814,116 C278.314,116.12 277.814,116.22 277.194,116.22 C275.274,116.22 273.914,115.28 273.914,113.06 L273.914,107.64 L272.274,107.64 L272.274,106.26 L273.914,106.26 L273.914,103.6 L275.454,103.6 L275.454,106.26 L278.494,106.26 L278.494,107.64 L275.454,107.64 L275.454,112.96 C275.454,114.42 276.294,114.82 277.514,114.82 Z M288.994,100.4 L288.994,118.42 L287.674,118.42 L287.674,100.4 L288.994,100.4 Z M314.954,102.8 L316.654,102.8 L311.654,116.22 L311.094,116.22 L306.914,105.74 L302.734,116.22 L302.174,116.22 L297.154,102.8 L298.874,102.8 L302.514,112.86 L306.634,102.58 L307.194,102.58 L311.314,112.86 L314.954,102.8 Z M326.714,110.44 C326.714,110.96 326.634,111.42 326.594,111.6 L318.914,111.6 C319.114,113.54 320.554,114.8 322.474,114.8 C323.694,114.8 324.654,114.28 325.454,113.48 L326.354,114.52 C325.374,115.56 324.054,116.22 322.454,116.22 C319.514,116.22 317.294,114 317.294,111.14 C317.294,108.3 319.474,106.04 322.274,106.04 C324.774,106.04 326.714,107.84 326.714,110.44 Z M322.234,107.44 C320.594,107.44 319.294,108.56 318.974,110.24 L325.134,110.24 C325.114,108.44 323.794,107.44 322.234,107.44 Z M334.534,106.04 C337.314,106.04 339.354,108.26 339.354,111.14 C339.354,114 337.334,116.22 334.554,116.22 C333.034,116.22 331.614,115.56 330.854,114.44 L330.854,116 L329.414,116 L329.414,101 L330.954,101 L330.954,107.7 C331.714,106.68 333.054,106.04 334.534,106.04 Z M334.314,114.8 C336.314,114.8 337.774,113.24 337.774,111.12 C337.774,109 336.294,107.46 334.314,107.46 C332.614,107.46 330.934,108.58 330.934,111.14 C330.934,113.7 332.634,114.8 334.314,114.8 Z M351.694,102.8 C356.174,102.8 358.874,105.54 358.874,109.38 C358.874,113.16 356.174,116 351.694,116 L347.774,116 L347.774,102.8 L351.694,102.8 Z M351.674,104.2 L349.334,104.2 L349.334,114.6 L351.674,114.6 C355.214,114.6 357.254,112.34 357.254,109.38 C357.254,106.36 355.214,104.2 351.674,104.2 Z M370.254,110.44 C370.254,110.96 370.174,111.42 370.134,111.6 L362.454,111.6 C362.654,113.54 364.094,114.8 366.014,114.8 C367.234,114.8 368.194,114.28 368.994,113.48 L369.894,114.52 C368.914,115.56 367.594,116.22 365.994,116.22 C363.054,116.22 360.834,114 360.834,111.14 C360.834,108.3 363.014,106.04 365.814,106.04 C368.314,106.04 370.254,107.84 370.254,110.44 Z M365.774,107.44 C364.134,107.44 362.834,108.56 362.514,110.24 L368.674,110.24 C368.654,108.44 367.334,107.44 365.774,107.44 Z M375.894,106.04 C377.294,106.04 378.394,106.64 379.154,107.58 L378.214,108.54 C377.574,107.88 376.734,107.46 375.814,107.46 C374.894,107.46 374.194,107.88 374.194,108.68 C374.194,109.34 374.694,109.66 375.774,110.1 L376.674,110.48 C378.434,111.22 379.254,111.98 379.254,113.36 C379.254,115.26 377.634,116.22 375.834,116.22 C374.114,116.22 372.814,115.36 372.034,114.32 L373.014,113.3 C373.814,114.14 374.634,114.8 375.814,114.8 C376.834,114.8 377.674,114.3 377.674,113.42 C377.674,112.58 376.954,112.26 375.974,111.86 L375.034,111.46 C373.554,110.84 372.614,110.16 372.614,108.76 C372.614,107 374.114,106.04 375.894,106.04 Z M382.814,101.42 C383.434,101.42 383.954,101.92 383.954,102.54 C383.954,103.18 383.434,103.66 382.814,103.66 C382.154,103.66 381.654,103.18 381.654,102.54 C381.654,101.92 382.154,101.42 382.814,101.42 Z M383.574,106.26 L383.574,116 L382.034,116 L382.034,106.26 L383.574,106.26 Z M394.854,106.26 L396.314,106.26 L396.314,115.06 C396.314,118.06 394.414,119.82 391.574,119.82 C389.534,119.82 387.954,118.9 386.994,117.94 L387.894,116.86 C388.834,117.68 389.934,118.4 391.534,118.4 C393.514,118.4 394.774,117.3 394.774,115.14 L394.774,114.28 C393.974,115.3 392.614,115.9 391.154,115.9 C388.414,115.9 386.374,113.82 386.374,110.98 C386.374,108.16 388.414,106.04 391.154,106.04 C392.694,106.04 394.094,106.72 394.854,107.84 L394.854,106.26 Z M391.394,114.48 C393.094,114.48 394.794,113.42 394.794,110.98 C394.794,108.54 393.074,107.5 391.394,107.5 C389.414,107.5 387.934,108.94 387.934,111 C387.934,113.06 389.414,114.48 391.394,114.48 Z M404.134,106.04 C406.434,106.04 407.754,107.62 407.754,109.88 L407.754,116 L406.214,116 L406.214,110.06 C406.214,108.52 405.294,107.46 403.794,107.46 C402.294,107.46 401.234,108.54 401.234,110.06 L401.234,116 L399.694,116 L399.694,106.26 L401.134,106.26 L401.134,107.32 C401.814,106.52 402.874,106.04 404.134,106.04 Z" id="AI|WebDevelopment|WebDesign" fill="#FFFFFF"></path>
            </g>
        </g>
    </g>
</svg>