<?xml version="1.0" encoding="UTF-8"?>
<svg width="488px" height="121px" viewBox="0 0 488 121" version="1.1" xmlns="http://www.w3.org/2000/svg" xmlns:xlink="http://www.w3.org/1999/xlink">
    <!-- Generator: Sketch 53.2 (72643) - https://sketchapp.com -->
    <title>Group 4</title>
    <desc>Created with Sketch.</desc>
    <defs>
        <linearGradient x1="74.000038%" y1="49.5075194%" x2="-16.1444198%" y2="51.6284556%" id="linearGradient-1">
            <stop stop-color="#FA8561" offset="0%"></stop>
            <stop stop-color="#D31CF7" offset="100%"></stop>
        </linearGradient>
    </defs>
    <g id="Page-1" stroke="none" stroke-width="1" fill="none" fill-rule="evenodd">
        <g id="Desktop-HD-Copy-23" transform="translate(-1208.000000, -313.000000)" fill-rule="nonzero">
            <g id="Group-4" transform="translate(1208.530110, 313.316000)">
                <path d="M19.228,6.612 C27.208,6.612 32.832,10.64 35.796,16.112 L28.804,21.508 C26.372,17.86 23.332,15.732 19.228,15.732 C15.884,15.732 12.996,17.252 12.996,20.596 C12.996,23.484 15.2,24.7 18.848,26.372 L24.548,28.88 C32.452,32.376 36.936,36.404 36.936,43.548 C36.936,52.896 29.336,58.596 19.38,58.596 C10.716,58.596 3.724,54.188 -2.38742359e-12,47.5 L7.068,42.18 C9.804,45.98 13.376,49.476 19.38,49.476 C23.788,49.476 26.524,47.424 26.524,43.928 C26.524,40.66 24.092,39.52 20.14,37.696 L14.744,35.264 C7.6,31.996 2.584,27.892 2.584,20.824 C2.584,12.16 9.804,6.612 19.228,6.612 Z M58.954137,19.228 C68.530137,19.228 75.066137,24.624 75.066137,35.34 L75.066137,57.684 L65.642137,57.684 L65.642137,54.036 C62.982137,56.848 59.030137,58.596 54.166137,58.596 C45.958137,58.596 41.170137,53.732 41.170137,47.348 C41.170137,40.508 46.718137,36.404 55.382137,36.404 L64.806137,36.404 L64.806137,34.732 C64.806137,30.628 62.450137,28.12 57.814137,28.12 C53.786137,28.12 50.974137,30.02 47.858137,33.288 L42.538137,26.98 C46.946137,21.736 52.342137,19.228 58.954137,19.228 Z M56.902137,51.072 C61.234137,51.072 64.806137,48.032 64.806137,43.624 L64.806137,43.168 L56.750137,43.168 C53.406137,43.168 51.506137,44.46 51.506137,46.968 C51.506137,49.552 53.710137,51.072 56.902137,51.072 Z M103.620274,19.228 C112.436274,19.228 117.756274,25.308 117.756274,34.352 L117.756274,57.684 L107.572274,57.684 L107.572274,35.72 C107.572274,31.388 104.760274,28.424 100.580274,28.424 C96.400274,28.424 93.436274,31.388 93.436274,35.72 L93.436274,57.684 L83.176274,57.684 L83.176274,20.064 L92.600274,20.064 L92.600274,23.484 C95.184274,20.9 98.984274,19.228 103.620274,19.228 Z M130.958411,-5.68434189e-14 C134.606411,-5.68434189e-14 137.570411,2.736 137.570411,6.384 C137.570411,9.956 134.606411,12.692 130.958411,12.692 C127.310411,12.692 124.422411,9.956 124.422411,6.384 C124.422411,2.736 127.310411,-5.68434189e-14 130.958411,-5.68434189e-14 Z M136.126411,20.064 L136.126411,58.14 C136.126411,67.792 130.350411,72.276 121.686411,72.276 C119.254411,72.276 117.430411,71.896 115.986411,71.44 L115.986411,62.852 C117.202411,63.004 118.038411,63.08 119.102411,63.08 C123.586411,63.08 125.866411,61.484 125.866411,57.228 L125.866411,20.064 L136.126411,20.064 Z M159.968548,19.228 C169.544548,19.228 176.080548,24.624 176.080548,35.34 L176.080548,57.684 L166.656548,57.684 L166.656548,54.036 C163.996548,56.848 160.044548,58.596 155.180548,58.596 C146.972548,58.596 142.184548,53.732 142.184548,47.348 C142.184548,40.508 147.732548,36.404 156.396548,36.404 L165.820548,36.404 L165.820548,34.732 C165.820548,30.628 163.464548,28.12 158.828548,28.12 C154.800548,28.12 151.988548,30.02 148.872548,33.288 L143.552548,26.98 C147.960548,21.736 153.356548,19.228 159.968548,19.228 Z M157.916548,51.072 C162.248548,51.072 165.820548,48.032 165.820548,43.624 L165.820548,43.168 L157.764548,43.168 C154.420548,43.168 152.520548,44.46 152.520548,46.968 C152.520548,49.552 154.724548,51.072 157.916548,51.072 Z M204.634685,19.228 C213.450685,19.228 218.770685,25.308 218.770685,34.352 L218.770685,57.684 L208.586685,57.684 L208.586685,35.72 C208.586685,31.388 205.774685,28.424 201.594685,28.424 C197.414685,28.424 194.450685,31.388 194.450685,35.72 L194.450685,57.684 L184.190685,57.684 L184.190685,20.064 L193.614685,20.064 L193.614685,23.484 C196.198685,20.9 199.998685,19.228 204.634685,19.228 Z M242.308822,19.228 C251.884822,19.228 258.420822,24.624 258.420822,35.34 L258.420822,57.684 L248.996822,57.684 L248.996822,54.036 C246.336822,56.848 242.384822,58.596 237.520822,58.596 C229.312822,58.596 224.524822,53.732 224.524822,47.348 C224.524822,40.508 230.072822,36.404 238.736822,36.404 L248.160822,36.404 L248.160822,34.732 C248.160822,30.628 245.804822,28.12 241.168822,28.12 C237.140822,28.12 234.328822,30.02 231.212822,33.288 L225.892822,26.98 C230.300822,21.736 235.696822,19.228 242.308822,19.228 Z M240.256822,51.072 C244.588822,51.072 248.160822,48.032 248.160822,43.624 L248.160822,43.168 L240.104822,43.168 C236.760822,43.168 234.860822,44.46 234.860822,46.968 C234.860822,49.552 237.064822,51.072 240.256822,51.072 Z M332.477096,6.612 L335.821096,6.612 L335.821096,57.684 L325.561096,57.684 L325.561096,30.856 L312.945096,46.74 L309.601096,46.74 L296.985096,30.856 L296.985096,57.684 L286.725096,57.684 L286.725096,6.612 L290.069096,6.612 L311.273096,33.82 L332.477096,6.612 Z M379.803233,36.708 C379.803233,38.836 379.423233,41.04 379.119233,42.332 L352.671233,42.332 C353.963233,47.12 357.915233,49.78 363.311233,49.78 C367.415233,49.78 370.759233,48.336 373.799233,45.98 L378.055233,52.972 C373.799233,56.544 368.783233,58.596 363.007233,58.596 C351.075233,58.596 342.411233,50.008 342.411233,38.912 C342.411233,27.816 350.999233,19.228 362.095233,19.228 C372.659233,19.228 379.803233,26.98 379.803233,36.708 Z M361.715233,27.512 C357.383233,27.512 353.887233,30.4 352.671233,35.112 L369.847233,35.112 C369.771233,30.324 366.047233,27.512 361.715233,27.512 Z M406.60937,19.228 C415.19737,19.228 420.59337,25.308 420.59337,34.352 L420.59337,57.684 L410.40937,57.684 L410.40937,35.796 C410.40937,31.388 407.59737,28.5 403.41737,28.5 C399.23737,28.5 396.27337,31.464 396.27337,35.796 L396.27337,57.684 L386.01337,57.684 L386.01337,0.684 L396.27337,0.684 L396.27337,23.256 C398.78137,20.748 402.35337,19.228 406.60937,19.228 Z M448.463507,19.608 C449.831507,19.608 450.819507,19.76 451.807507,20.064 L451.807507,29.108 L449.071507,29.108 C443.143507,29.108 438.963507,32.148 438.963507,38.912 L438.963507,57.684 L428.703507,57.684 L428.703507,20.064 L438.127507,20.064 L438.127507,24.624 C440.635507,21.356 444.359507,19.608 448.463507,19.608 Z M471.089644,19.228 C480.665644,19.228 487.201644,24.624 487.201644,35.34 L487.201644,57.684 L477.777644,57.684 L477.777644,54.036 C475.117644,56.848 471.165644,58.596 466.301644,58.596 C458.093644,58.596 453.305644,53.732 453.305644,47.348 C453.305644,40.508 458.853644,36.404 467.517644,36.404 L476.941644,36.404 L476.941644,34.732 C476.941644,30.628 474.585644,28.12 469.949644,28.12 C465.921644,28.12 463.109644,30.02 459.993644,33.288 L454.673644,26.98 C459.081644,21.736 464.477644,19.228 471.089644,19.228 Z M469.037644,51.072 C473.369644,51.072 476.941644,48.032 476.941644,43.624 L476.941644,43.168 L468.885644,43.168 C465.541644,43.168 463.641644,44.46 463.641644,46.968 C463.641644,49.552 465.845644,51.072 469.037644,51.072 Z" id="SanjanaMehra" fill="url(#linearGradient-1)"></path>
                <path d="M175.66989,103.484 L177.36989,103.484 L172.36989,116.904 L171.80989,116.904 L167.62989,106.424 L163.44989,116.904 L162.88989,116.904 L157.86989,103.484 L159.58989,103.484 L163.22989,113.544 L167.34989,103.264 L167.90989,103.264 L172.02989,113.544 L175.66989,103.484 Z M187.42989,111.124 C187.42989,111.644 187.34989,112.104 187.30989,112.284 L179.62989,112.284 C179.82989,114.224 181.26989,115.484 183.18989,115.484 C184.40989,115.484 185.36989,114.964 186.16989,114.164 L187.06989,115.204 C186.08989,116.244 184.76989,116.904 183.16989,116.904 C180.22989,116.904 178.00989,114.684 178.00989,111.824 C178.00989,108.984 180.18989,106.724 182.98989,106.724 C185.48989,106.724 187.42989,108.524 187.42989,111.124 Z M182.94989,108.124 C181.30989,108.124 180.00989,109.244 179.68989,110.924 L185.84989,110.924 C185.82989,109.124 184.50989,108.124 182.94989,108.124 Z M195.24989,106.724 C198.02989,106.724 200.06989,108.944 200.06989,111.824 C200.06989,114.684 198.04989,116.904 195.26989,116.904 C193.74989,116.904 192.32989,116.244 191.56989,115.124 L191.56989,116.684 L190.12989,116.684 L190.12989,101.684 L191.66989,101.684 L191.66989,108.384 C192.42989,107.364 193.76989,106.724 195.24989,106.724 Z M195.02989,115.484 C197.02989,115.484 198.48989,113.924 198.48989,111.804 C198.48989,109.684 197.00989,108.144 195.02989,108.144 C193.32989,108.144 191.64989,109.264 191.64989,111.824 C191.64989,114.384 193.34989,115.484 195.02989,115.484 Z M212.40989,103.484 C216.88989,103.484 219.58989,106.224 219.58989,110.064 C219.58989,113.844 216.88989,116.684 212.40989,116.684 L208.48989,116.684 L208.48989,103.484 L212.40989,103.484 Z M212.38989,104.884 L210.04989,104.884 L210.04989,115.284 L212.38989,115.284 C215.92989,115.284 217.96989,113.024 217.96989,110.064 C217.96989,107.044 215.92989,104.884 212.38989,104.884 Z M230.96989,111.124 C230.96989,111.644 230.88989,112.104 230.84989,112.284 L223.16989,112.284 C223.36989,114.224 224.80989,115.484 226.72989,115.484 C227.94989,115.484 228.90989,114.964 229.70989,114.164 L230.60989,115.204 C229.62989,116.244 228.30989,116.904 226.70989,116.904 C223.76989,116.904 221.54989,114.684 221.54989,111.824 C221.54989,108.984 223.72989,106.724 226.52989,106.724 C229.02989,106.724 230.96989,108.524 230.96989,111.124 Z M226.48989,108.124 C224.84989,108.124 223.54989,109.244 223.22989,110.924 L229.38989,110.924 C229.36989,109.124 228.04989,108.124 226.48989,108.124 Z M240.18989,106.944 L241.82989,106.944 L237.24989,116.904 L236.68989,116.904 L232.08989,106.944 L233.72989,106.944 L236.96989,114.284 L240.18989,106.944 Z M252.36989,111.124 C252.36989,111.644 252.28989,112.104 252.24989,112.284 L244.56989,112.284 C244.76989,114.224 246.20989,115.484 248.12989,115.484 C249.34989,115.484 250.30989,114.964 251.10989,114.164 L252.00989,115.204 C251.02989,116.244 249.70989,116.904 248.10989,116.904 C245.16989,116.904 242.94989,114.684 242.94989,111.824 C242.94989,108.984 245.12989,106.724 247.92989,106.724 C250.42989,106.724 252.36989,108.524 252.36989,111.124 Z M247.88989,108.124 C246.24989,108.124 244.94989,109.244 244.62989,110.924 L250.78989,110.924 C250.76989,109.124 249.44989,108.124 247.88989,108.124 Z M256.60989,101.684 L256.60989,116.684 L255.06989,116.684 L255.06989,101.684 L256.60989,101.684 Z M264.38989,106.724 C267.20989,106.724 269.48989,108.944 269.48989,111.804 C269.48989,114.644 267.20989,116.884 264.36989,116.884 C261.54989,116.864 259.28989,114.664 259.28989,111.804 C259.28989,108.944 261.52989,106.724 264.38989,106.724 Z M264.38989,108.144 C262.34989,108.144 260.84989,109.744 260.86989,111.824 C260.86989,113.884 262.34989,115.464 264.36989,115.464 C266.38989,115.464 267.90989,113.864 267.90989,111.824 C267.90989,109.724 266.38989,108.144 264.38989,108.144 Z M277.30989,106.724 C280.10989,106.724 282.12989,108.944 282.12989,111.804 C282.12989,114.684 280.08989,116.904 277.30989,116.904 C275.86989,116.904 274.50989,116.304 273.72989,115.264 L273.72989,120.284 L272.18989,120.284 L272.18989,106.944 L273.62989,106.944 L273.62989,108.504 C274.38989,107.384 275.76989,106.724 277.30989,106.724 Z M277.08989,115.484 C279.06989,115.484 280.54989,113.944 280.54989,111.824 C280.54989,109.704 279.08989,108.144 277.08989,108.144 C275.40989,108.144 273.70989,109.244 273.70989,111.804 C273.70989,114.364 275.38989,115.484 277.08989,115.484 Z M295.50989,106.724 C297.78989,106.724 299.04989,108.304 299.04989,110.564 L299.04989,116.684 L297.50989,116.684 L297.50989,110.764 C297.50989,109.224 296.66989,108.144 295.20989,108.144 C293.72989,108.144 292.70989,109.264 292.70989,110.624 L292.70989,116.684 L291.16989,116.684 L291.16989,110.764 C291.16989,109.224 290.28989,108.144 288.84989,108.144 C287.36989,108.144 286.36989,109.224 286.36989,110.764 L286.36989,116.684 L284.82989,116.684 L284.82989,106.944 L286.26989,106.944 L286.26989,107.964 C286.94989,107.184 287.94989,106.724 289.16989,106.724 C290.62989,106.724 291.62989,107.384 292.16989,108.404 C292.84989,107.424 294.00989,106.724 295.50989,106.724 Z M311.02989,111.124 C311.02989,111.644 310.94989,112.104 310.90989,112.284 L303.22989,112.284 C303.42989,114.224 304.86989,115.484 306.78989,115.484 C308.00989,115.484 308.96989,114.964 309.76989,114.164 L310.66989,115.204 C309.68989,116.244 308.36989,116.904 306.76989,116.904 C303.82989,116.904 301.60989,114.684 301.60989,111.824 C301.60989,108.984 303.78989,106.724 306.58989,106.724 C309.08989,106.724 311.02989,108.524 311.02989,111.124 Z M306.54989,108.124 C304.90989,108.124 303.60989,109.244 303.28989,110.924 L309.44989,110.924 C309.42989,109.124 308.10989,108.124 306.54989,108.124 Z M318.16989,106.724 C320.46989,106.724 321.78989,108.304 321.78989,110.564 L321.78989,116.684 L320.24989,116.684 L320.24989,110.744 C320.24989,109.204 319.32989,108.144 317.82989,108.144 C316.32989,108.144 315.26989,109.224 315.26989,110.744 L315.26989,116.684 L313.72989,116.684 L313.72989,106.944 L315.16989,106.944 L315.16989,108.004 C315.84989,107.204 316.90989,106.724 318.16989,106.724 Z M329.06989,115.504 C329.44989,115.504 329.86989,115.464 330.36989,115.384 L330.36989,116.684 C329.86989,116.804 329.36989,116.904 328.74989,116.904 C326.82989,116.904 325.46989,115.964 325.46989,113.744 L325.46989,108.324 L323.82989,108.324 L323.82989,106.944 L325.46989,106.944 L325.46989,104.284 L327.00989,104.284 L327.00989,106.944 L330.04989,106.944 L330.04989,108.324 L327.00989,108.324 L327.00989,113.644 C327.00989,115.104 327.84989,115.504 329.06989,115.504 Z" id="WebDevelopment" fill="#FFFFFF"></path>
            </g>
        </g>
    </g>
</svg>