<?xml version="1.0" encoding="UTF-8"?>
<svg width="276px" height="121px" viewBox="0 0 276 121" version="1.1" xmlns="http://www.w3.org/2000/svg" xmlns:xlink="http://www.w3.org/1999/xlink">
    <!-- Generator: Sketch 53.2 (72643) - https://sketchapp.com -->
    <title>Group 7</title>
    <desc>Created with Sketch.</desc>
    <defs>
        <linearGradient x1="74.000038%" y1="48.4592314%" x2="-16.1444198%" y2="55.0947654%" id="linearGradient-1">
            <stop stop-color="#FA8561" offset="0%"></stop>
            <stop stop-color="#D31CF7" offset="100%"></stop>
        </linearGradient>
    </defs>
    <g id="Page-1" stroke="none" stroke-width="1" fill="none" fill-rule="evenodd">
        <g id="Desktop-HD-Copy-23" transform="translate(-1922.000000, -133.000000)" fill-rule="nonzero">
            <g id="Group-7" transform="translate(1922.594521, 133.316000)">
                <path d="M42.712,7.524 L42.712,57.684 L32.452,57.684 L32.452,36.024 L10.26,36.024 L10.26,57.684 L-7.95807864e-13,57.684 L-7.95807864e-13,7.524 L10.26,7.524 L10.26,26.752 L32.452,26.752 L32.452,7.524 L42.712,7.524 Z M56.446137,3.83693077e-13 C60.094137,3.83693077e-13 63.058137,2.736 63.058137,6.384 C63.058137,9.956 60.094137,12.692 56.446137,12.692 C52.798137,12.692 49.910137,9.956 49.910137,6.384 C49.910137,2.736 52.798137,3.83693077e-13 56.446137,3.83693077e-13 Z M61.614137,20.064 L61.614137,57.684 L51.354137,57.684 L51.354137,20.064 L61.614137,20.064 Z M98.376274,20.064 L107.800274,20.064 L107.800274,53.504 C107.800274,66.196 99.668274,72.276 88.344274,72.276 C80.136274,72.276 74.132274,69.084 69.876274,65.284 L75.272274,58.14 C78.996274,61.028 82.644274,63.004 87.508274,63.004 C93.284274,63.004 97.540274,60.192 97.540274,54.112 L97.540274,52.06 C94.880274,54.948 90.776274,56.544 86.064274,56.544 C75.728274,56.544 68.052274,49.02 68.052274,37.848 C68.052274,26.524 75.804274,19.228 86.064274,19.228 C91.536274,19.228 95.792274,21.204 98.376274,24.776 L98.376274,20.064 Z M88.192274,47.88 C92.980274,47.88 97.692274,44.612 97.692274,37.696 C97.692274,30.78 92.904274,27.968 88.192274,27.968 C82.872274,27.968 78.464274,31.54 78.464274,37.772 C78.464274,44.004 82.948274,47.88 88.192274,47.88 Z M136.810411,19.228 C145.398411,19.228 150.794411,25.308 150.794411,34.352 L150.794411,57.684 L140.610411,57.684 L140.610411,35.796 C140.610411,31.388 137.798411,28.5 133.618411,28.5 C129.438411,28.5 126.474411,31.464 126.474411,35.796 L126.474411,57.684 L116.214411,57.684 L116.214411,0.684 L126.474411,0.684 L126.474411,23.256 C128.982411,20.748 132.554411,19.228 136.810411,19.228 Z M195.992548,57.684 L184.288548,57.684 L169.164548,36.936 L169.164548,57.684 L158.904548,57.684 L158.904548,0.684 L169.164548,0.684 L169.164548,36.176 L182.692548,20.064 L194.852548,20.064 L180.716548,36.708 L195.992548,57.684 Z M233.438685,36.708 C233.438685,38.836 233.058685,41.04 232.754685,42.332 L206.306685,42.332 C207.598685,47.12 211.550685,49.78 216.946685,49.78 C221.050685,49.78 224.394685,48.336 227.434685,45.98 L231.690685,52.972 C227.434685,56.544 222.418685,58.596 216.642685,58.596 C204.710685,58.596 196.046685,50.008 196.046685,38.912 C196.046685,27.816 204.634685,19.228 215.730685,19.228 C226.294685,19.228 233.438685,26.98 233.438685,36.708 Z M215.350685,27.512 C211.018685,27.512 207.522685,30.4 206.306685,35.112 L223.482685,35.112 C223.406685,30.324 219.682685,27.512 215.350685,27.512 Z M264.652822,20.064 L275.444822,20.064 L257.432822,60.952 C254.012822,68.704 249.528822,72.276 242.460822,72.276 C240.332822,72.276 237.824822,71.896 235.848822,71.364 L235.848822,62.776 C237.596822,62.928 239.040822,63.08 240.256822,63.08 C243.524822,63.08 246.184822,62.244 248.084822,57.988 L249.224822,55.48 L234.784822,20.064 L245.652822,20.064 L254.848822,44.764 L264.652822,20.064 Z" id="Highkey" fill="url(#linearGradient-1)"></path>
                <path d="M91.6354795,116.684 L90.4954795,114.004 L84.0554795,114.004 L82.9154795,116.684 L81.2754795,116.684 L86.9954795,103.264 L87.5754795,103.264 L93.2954795,116.684 L91.6354795,116.684 Z M89.9154795,112.604 L87.2754795,106.124 L84.6354795,112.604 L89.9154795,112.604 Z M100.735479,106.724 C103.535479,106.724 105.555479,108.944 105.555479,111.804 C105.555479,114.684 103.515479,116.904 100.735479,116.904 C99.2954795,116.904 97.9354795,116.304 97.1554795,115.264 L97.1554795,120.284 L95.6154795,120.284 L95.6154795,106.944 L97.0554795,106.944 L97.0554795,108.504 C97.8154795,107.384 99.1954795,106.724 100.735479,106.724 Z M100.515479,115.484 C102.495479,115.484 103.975479,113.944 103.975479,111.824 C103.975479,109.704 102.515479,108.144 100.515479,108.144 C98.8354795,108.144 97.1354795,109.244 97.1354795,111.804 C97.1354795,114.364 98.8154795,115.484 100.515479,115.484 Z M113.375479,106.724 C116.175479,106.724 118.195479,108.944 118.195479,111.804 C118.195479,114.684 116.155479,116.904 113.375479,116.904 C111.935479,116.904 110.575479,116.304 109.795479,115.264 L109.795479,120.284 L108.255479,120.284 L108.255479,106.944 L109.695479,106.944 L109.695479,108.504 C110.455479,107.384 111.835479,106.724 113.375479,106.724 Z M113.155479,115.484 C115.135479,115.484 116.615479,113.944 116.615479,111.824 C116.615479,109.704 115.155479,108.144 113.155479,108.144 C111.475479,108.144 109.775479,109.244 109.775479,111.804 C109.775479,114.364 111.455479,115.484 113.155479,115.484 Z M130.535479,103.484 C135.015479,103.484 137.715479,106.224 137.715479,110.064 C137.715479,113.844 135.015479,116.684 130.535479,116.684 L126.615479,116.684 L126.615479,103.484 L130.535479,103.484 Z M130.515479,104.884 L128.175479,104.884 L128.175479,115.284 L130.515479,115.284 C134.055479,115.284 136.095479,113.024 136.095479,110.064 C136.095479,107.044 134.055479,104.884 130.515479,104.884 Z M149.095479,111.124 C149.095479,111.644 149.015479,112.104 148.975479,112.284 L141.295479,112.284 C141.495479,114.224 142.935479,115.484 144.855479,115.484 C146.075479,115.484 147.035479,114.964 147.835479,114.164 L148.735479,115.204 C147.755479,116.244 146.435479,116.904 144.835479,116.904 C141.895479,116.904 139.675479,114.684 139.675479,111.824 C139.675479,108.984 141.855479,106.724 144.655479,106.724 C147.155479,106.724 149.095479,108.524 149.095479,111.124 Z M144.615479,108.124 C142.975479,108.124 141.675479,109.244 141.355479,110.924 L147.515479,110.924 C147.495479,109.124 146.175479,108.124 144.615479,108.124 Z M154.735479,106.724 C156.135479,106.724 157.235479,107.324 157.995479,108.264 L157.055479,109.224 C156.415479,108.564 155.575479,108.144 154.655479,108.144 C153.735479,108.144 153.035479,108.564 153.035479,109.364 C153.035479,110.024 153.535479,110.344 154.615479,110.784 L155.515479,111.164 C157.275479,111.904 158.095479,112.664 158.095479,114.044 C158.095479,115.944 156.475479,116.904 154.675479,116.904 C152.955479,116.904 151.655479,116.044 150.875479,115.004 L151.855479,113.984 C152.655479,114.824 153.475479,115.484 154.655479,115.484 C155.675479,115.484 156.515479,114.984 156.515479,114.104 C156.515479,113.264 155.795479,112.944 154.815479,112.544 L153.875479,112.144 C152.395479,111.524 151.455479,110.844 151.455479,109.444 C151.455479,107.684 152.955479,106.724 154.735479,106.724 Z M161.655479,102.104 C162.275479,102.104 162.795479,102.604 162.795479,103.224 C162.795479,103.864 162.275479,104.344 161.655479,104.344 C160.995479,104.344 160.495479,103.864 160.495479,103.224 C160.495479,102.604 160.995479,102.104 161.655479,102.104 Z M162.415479,106.944 L162.415479,116.684 L160.875479,116.684 L160.875479,106.944 L162.415479,106.944 Z M173.695479,106.944 L175.155479,106.944 L175.155479,115.744 C175.155479,118.744 173.255479,120.504 170.415479,120.504 C168.375479,120.504 166.795479,119.584 165.835479,118.624 L166.735479,117.544 C167.675479,118.364 168.775479,119.084 170.375479,119.084 C172.355479,119.084 173.615479,117.984 173.615479,115.824 L173.615479,114.964 C172.815479,115.984 171.455479,116.584 169.995479,116.584 C167.255479,116.584 165.215479,114.504 165.215479,111.664 C165.215479,108.844 167.255479,106.724 169.995479,106.724 C171.535479,106.724 172.935479,107.404 173.695479,108.524 L173.695479,106.944 Z M170.235479,115.164 C171.935479,115.164 173.635479,114.104 173.635479,111.664 C173.635479,109.224 171.915479,108.184 170.235479,108.184 C168.255479,108.184 166.775479,109.624 166.775479,111.684 C166.775479,113.744 168.255479,115.164 170.235479,115.164 Z M182.975479,106.724 C185.275479,106.724 186.595479,108.304 186.595479,110.564 L186.595479,116.684 L185.055479,116.684 L185.055479,110.744 C185.055479,109.204 184.135479,108.144 182.635479,108.144 C181.135479,108.144 180.075479,109.224 180.075479,110.744 L180.075479,116.684 L178.535479,116.684 L178.535479,106.944 L179.975479,106.944 L179.975479,108.004 C180.655479,107.204 181.715479,106.724 182.975479,106.724 Z" id="AppDesign" fill="#FFFFFF"></path>
            </g>
        </g>
    </g>
</svg>