<?xml version="1.0" encoding="UTF-8"?>
<svg width="238px" height="121px" viewBox="0 0 238 121" version="1.1" xmlns="http://www.w3.org/2000/svg" xmlns:xlink="http://www.w3.org/1999/xlink">
    <!-- Generator: Sketch 54.1 (76490) - https://sketchapp.com -->
    <title>Group 12</title>
    <desc>Created with Sketch.</desc>
    <defs>
        <linearGradient x1="74.000038%" y1="48.6287132%" x2="-16.1444198%" y2="54.5343503%" id="linearGradient-1">
            <stop stop-color="#FA8561" offset="0%"></stop>
            <stop stop-color="#D31CF7" offset="100%"></stop>
        </linearGradient>
    </defs>
    <g id="Page-1" stroke="none" stroke-width="1" fill="none" fill-rule="evenodd">
        <g id="Desktop-HD-Copy-23" transform="translate(-2490.000000, -313.000000)" fill-rule="nonzero">
            <g id="Group-12" transform="translate(2490.014383, 313.088000)">
                <path d="M10.26,7.752 L10.26,57.912 L2.04636308e-12,57.912 L2.04636308e-12,7.752 L10.26,7.752 Z M38.206137,49.628 C39.422137,49.628 41.094137,49.476 43.070137,49.324 L43.070137,57.912 C40.942137,58.444 38.662137,58.824 36.002137,58.824 C26.730137,58.824 20.954137,54.34 20.954137,44.688 L20.954137,28.956 L15.026137,28.956 L15.026137,20.292 L20.954137,20.292 L20.954137,10.792 L31.214137,10.792 L31.214137,20.292 L41.854137,20.292 L41.854137,28.956 L31.214137,28.956 L31.214137,43.776 C31.214137,48.108 33.494137,49.628 38.206137,49.628 Z M62.048274,7.752 L57.792274,28.88 L49.964274,28.88 L50.344274,7.752 L62.048274,7.752 Z M81.862411,19.38 C87.334411,19.38 91.970411,21.28 95.390411,25.08 L90.222411,31.388 C87.790411,29.108 84.826411,27.816 81.786411,27.816 C79.354411,27.816 77.758411,28.652 77.758411,30.476 C77.758411,31.996 78.974411,32.756 81.710411,33.82 L85.358411,35.34 C92.122411,38.076 95.922411,40.964 95.922411,46.816 C95.922411,54.568 89.462411,58.824 81.254411,58.824 C74.566411,58.824 69.018411,55.936 65.674411,51.528 L70.842411,45.296 C73.882411,48.412 77.378411,50.388 81.406411,50.388 C83.990411,50.388 86.194411,49.4 86.194411,47.272 C86.194411,45.524 84.598411,44.84 82.318411,43.852 L78.290411,42.18 C71.906411,39.596 68.030411,36.632 68.030411,30.704 C68.030411,23.484 73.882411,19.38 81.862411,19.38 Z M132.358685,7.752 L132.358685,48.64 L154.322685,48.64 L154.322685,57.912 L122.098685,57.912 L122.098685,7.752 L132.358685,7.752 Z M164.560822,0.228 C168.208822,0.228 171.172822,2.964 171.172822,6.612 C171.172822,10.184 168.208822,12.92 164.560822,12.92 C160.912822,12.92 158.024822,10.184 158.024822,6.612 C158.024822,2.964 160.912822,0.228 164.560822,0.228 Z M169.728822,20.292 L169.728822,57.912 L159.468822,57.912 L159.468822,20.292 L169.728822,20.292 Z M196.990959,9.196 C192.430959,9.196 190.150959,10.716 190.150959,15.048 L190.150959,20.292 L198.434959,20.292 L198.434959,28.956 L190.150959,28.956 L190.150959,57.912 L179.890959,57.912 L179.890959,28.956 L174.570959,28.956 L174.570959,20.292 L179.890959,20.292 L179.890959,14.136 C179.890959,4.484 185.666959,2.27373675e-13 194.406959,2.27373675e-13 C196.762959,2.27373675e-13 198.586959,0.38 200.030959,0.836 L200.030959,9.424 C198.890959,9.272 197.978959,9.196 196.990959,9.196 Z M237.629096,36.936 C237.629096,39.064 237.249096,41.268 236.945096,42.56 L210.497096,42.56 C211.789096,47.348 215.741096,50.008 221.137096,50.008 C225.241096,50.008 228.585096,48.564 231.625096,46.208 L235.881096,53.2 C231.625096,56.772 226.609096,58.824 220.833096,58.824 C208.901096,58.824 200.237096,50.236 200.237096,39.14 C200.237096,28.044 208.825096,19.456 219.921096,19.456 C230.485096,19.456 237.629096,27.208 237.629096,36.936 Z M219.541096,27.74 C215.209096,27.74 211.713096,30.628 210.497096,35.34 L227.673096,35.34 C227.597096,30.552 223.873096,27.74 219.541096,27.74 Z" id="It’sLife" fill="url(#linearGradient-1)"></path>
                <path d="M63.4556165,103.492 L63.9956165,103.492 L63.9956165,116.912 L62.4356165,116.912 L62.4356165,107.432 L58.2156165,113.172 L57.6556165,113.172 L53.4156165,107.412 L53.4156165,116.912 L51.8556165,116.912 L51.8556165,103.492 L52.4156165,103.492 L57.9156165,111.132 L63.4556165,103.492 Z M71.8156165,106.952 C74.6356165,106.952 76.9156165,109.172 76.9156165,112.032 C76.9156165,114.872 74.6356165,117.112 71.7956165,117.112 C68.9756165,117.092 66.7156165,114.892 66.7156165,112.032 C66.7156165,109.172 68.9556165,106.952 71.8156165,106.952 Z M71.8156165,108.372 C69.7756165,108.372 68.2756165,109.972 68.2956165,112.052 C68.2956165,114.112 69.7756165,115.692 71.7956165,115.692 C73.8156165,115.692 75.3356165,114.092 75.3356165,112.052 C75.3356165,109.952 73.8156165,108.372 71.8156165,108.372 Z M83.6356165,115.732 C84.0156165,115.732 84.4356165,115.692 84.9356165,115.612 L84.9356165,116.912 C84.4356165,117.032 83.9356165,117.132 83.3156165,117.132 C81.3956165,117.132 80.0356165,116.192 80.0356165,113.972 L80.0356165,108.552 L78.3956165,108.552 L78.3956165,107.172 L80.0356165,107.172 L80.0356165,104.512 L81.5756165,104.512 L81.5756165,107.172 L84.6156165,107.172 L84.6156165,108.552 L81.5756165,108.552 L81.5756165,113.872 C81.5756165,115.332 82.4156165,115.732 83.6356165,115.732 Z M88.0156165,102.332 C88.6356165,102.332 89.1556165,102.832 89.1556165,103.452 C89.1556165,104.092 88.6356165,104.572 88.0156165,104.572 C87.3556165,104.572 86.8556165,104.092 86.8556165,103.452 C86.8556165,102.832 87.3556165,102.332 88.0156165,102.332 Z M88.7756165,107.172 L88.7756165,116.912 L87.2356165,116.912 L87.2356165,107.172 L88.7756165,107.172 Z M96.5556165,106.952 C99.3756165,106.952 101.655617,109.172 101.655617,112.032 C101.655617,114.872 99.3756165,117.112 96.5356165,117.112 C93.7156165,117.092 91.4556165,114.892 91.4556165,112.032 C91.4556165,109.172 93.6956165,106.952 96.5556165,106.952 Z M96.5556165,108.372 C94.5156165,108.372 93.0156165,109.972 93.0356165,112.052 C93.0356165,114.112 94.5156165,115.692 96.5356165,115.692 C98.5556165,115.692 100.075617,114.092 100.075617,112.052 C100.075617,109.952 98.5556165,108.372 96.5556165,108.372 Z M108.795617,106.952 C111.095617,106.952 112.415617,108.532 112.415617,110.792 L112.415617,116.912 L110.875617,116.912 L110.875617,110.972 C110.875617,109.432 109.955617,108.372 108.455617,108.372 C106.955617,108.372 105.895617,109.452 105.895617,110.972 L105.895617,116.912 L104.355617,116.912 L104.355617,107.172 L105.795617,107.172 L105.795617,108.232 C106.475617,107.432 107.535617,106.952 108.795617,106.952 Z M125.315617,103.712 C129.795617,103.712 132.495617,106.452 132.495617,110.292 C132.495617,114.072 129.795617,116.912 125.315617,116.912 L121.395617,116.912 L121.395617,103.712 L125.315617,103.712 Z M125.295617,105.112 L122.955617,105.112 L122.955617,115.512 L125.295617,115.512 C128.835617,115.512 130.875617,113.252 130.875617,110.292 C130.875617,107.272 128.835617,105.112 125.295617,105.112 Z M143.875617,111.352 C143.875617,111.872 143.795617,112.332 143.755617,112.512 L136.075617,112.512 C136.275617,114.452 137.715617,115.712 139.635617,115.712 C140.855617,115.712 141.815617,115.192 142.615617,114.392 L143.515617,115.432 C142.535617,116.472 141.215617,117.132 139.615617,117.132 C136.675617,117.132 134.455617,114.912 134.455617,112.052 C134.455617,109.212 136.635617,106.952 139.435617,106.952 C141.935617,106.952 143.875617,108.752 143.875617,111.352 Z M139.395617,108.352 C137.755617,108.352 136.455617,109.472 136.135617,111.152 L142.295617,111.152 C142.275617,109.352 140.955617,108.352 139.395617,108.352 Z M149.515617,106.952 C150.915617,106.952 152.015617,107.552 152.775617,108.492 L151.835617,109.452 C151.195617,108.792 150.355617,108.372 149.435617,108.372 C148.515617,108.372 147.815617,108.792 147.815617,109.592 C147.815617,110.252 148.315617,110.572 149.395617,111.012 L150.295617,111.392 C152.055617,112.132 152.875617,112.892 152.875617,114.272 C152.875617,116.172 151.255617,117.132 149.455617,117.132 C147.735617,117.132 146.435617,116.272 145.655617,115.232 L146.635617,114.212 C147.435617,115.052 148.255617,115.712 149.435617,115.712 C150.455617,115.712 151.295617,115.212 151.295617,114.332 C151.295617,113.492 150.575617,113.172 149.595617,112.772 L148.655617,112.372 C147.175617,111.752 146.235617,111.072 146.235617,109.672 C146.235617,107.912 147.735617,106.952 149.515617,106.952 Z M156.435617,102.332 C157.055617,102.332 157.575617,102.832 157.575617,103.452 C157.575617,104.092 157.055617,104.572 156.435617,104.572 C155.775617,104.572 155.275617,104.092 155.275617,103.452 C155.275617,102.832 155.775617,102.332 156.435617,102.332 Z M157.195617,107.172 L157.195617,116.912 L155.655617,116.912 L155.655617,107.172 L157.195617,107.172 Z M168.475617,107.172 L169.935617,107.172 L169.935617,115.972 C169.935617,118.972 168.035617,120.732 165.195617,120.732 C163.155617,120.732 161.575617,119.812 160.615617,118.852 L161.515617,117.772 C162.455617,118.592 163.555617,119.312 165.155617,119.312 C167.135617,119.312 168.395617,118.212 168.395617,116.052 L168.395617,115.192 C167.595617,116.212 166.235617,116.812 164.775617,116.812 C162.035617,116.812 159.995617,114.732 159.995617,111.892 C159.995617,109.072 162.035617,106.952 164.775617,106.952 C166.315617,106.952 167.715617,107.632 168.475617,108.752 L168.475617,107.172 Z M165.015617,115.392 C166.715617,115.392 168.415617,114.332 168.415617,111.892 C168.415617,109.452 166.695617,108.412 165.015617,108.412 C163.035617,108.412 161.555617,109.852 161.555617,111.912 C161.555617,113.972 163.035617,115.392 165.015617,115.392 Z M177.755617,106.952 C180.055617,106.952 181.375617,108.532 181.375617,110.792 L181.375617,116.912 L179.835617,116.912 L179.835617,110.972 C179.835617,109.432 178.915617,108.372 177.415617,108.372 C175.915617,108.372 174.855617,109.452 174.855617,110.972 L174.855617,116.912 L173.315617,116.912 L173.315617,107.172 L174.755617,107.172 L174.755617,108.232 C175.435617,107.432 176.495617,106.952 177.755617,106.952 Z" id="MotionDesign" fill="#FFFFFF"></path>
            </g>
        </g>
    </g>
</svg>