<?xml version="1.0" encoding="UTF-8"?>
<svg width="482px" height="120px" viewBox="0 0 482 120" version="1.1" xmlns="http://www.w3.org/2000/svg" xmlns:xlink="http://www.w3.org/1999/xlink">
    <!-- Generator: Sketch 53.2 (72643) - https://sketchapp.com -->
    <title>Group 5</title>
    <desc>Created with Sketch.</desc>
    <defs>
        <linearGradient x1="74.000038%" y1="49.5042387%" x2="-16.1444198%" y2="51.6393035%" id="linearGradient-1">
            <stop stop-color="#FA8561" offset="0%"></stop>
            <stop stop-color="#D31CF7" offset="100%"></stop>
        </linearGradient>
    </defs>
    <g id="Page-1" stroke="none" stroke-width="1" fill="none" fill-rule="evenodd">
        <g id="Desktop-HD-Copy-23" transform="translate(-1211.000000, -494.000000)" fill-rule="nonzero">
            <g id="Group-5" transform="translate(1211.489178, 494.000000)">
                <path d="M37.164,57 L34.352,50.464 L13.832,50.464 L11.02,57 L-4.54747351e-13,57 L22.42,5.928 L25.84,5.928 L48.184,57 L37.164,57 Z M30.704,42.028 L24.092,25.156 L17.48,42.028 L30.704,42.028 Z M85.706137,19.38 L85.706137,40.432 C85.706137,51.072 78.258137,57.912 68.454137,57.912 C58.498137,57.912 51.050137,51.072 51.050137,40.432 L51.050137,19.38 L61.310137,19.38 L61.310137,41.268 C61.310137,45.676 64.426137,48.488 68.454137,48.488 C72.330137,48.488 75.446137,45.676 75.446137,41.268 L75.446137,19.38 L85.706137,19.38 Z M121.100274,2.84217094e-13 L131.360274,2.84217094e-13 L131.360274,57 L121.936274,57 L121.936274,52.288 C119.352274,55.86 115.096274,57.912 109.852274,57.912 C99.212274,57.912 91.612274,49.552 91.612274,38.228 C91.612274,26.904 99.212274,18.544 109.852274,18.544 C114.564274,18.544 118.516274,20.14 121.100274,23.028 L121.100274,2.84217094e-13 Z M111.752274,48.564 C116.464274,48.564 121.252274,45.448 121.252274,38.228 C121.252274,31.084 116.464274,27.816 111.752274,27.816 C106.432274,27.816 102.024274,31.768 102.024274,38.152 C102.024274,44.536 106.356274,48.564 111.752274,48.564 Z M159.534411,18.924 C160.902411,18.924 161.890411,19.076 162.878411,19.38 L162.878411,28.424 L160.142411,28.424 C154.214411,28.424 150.034411,31.464 150.034411,38.228 L150.034411,57 L139.774411,57 L139.774411,19.38 L149.198411,19.38 L149.198411,23.94 C151.706411,20.672 155.430411,18.924 159.534411,18.924 Z M201.996548,36.024 C201.996548,38.152 201.616548,40.356 201.312548,41.648 L174.864548,41.648 C176.156548,46.436 180.108548,49.096 185.504548,49.096 C189.608548,49.096 192.952548,47.652 195.992548,45.296 L200.248548,52.288 C195.992548,55.86 190.976548,57.912 185.200548,57.912 C173.268548,57.912 164.604548,49.324 164.604548,38.228 C164.604548,27.132 173.192548,18.544 184.288548,18.544 C194.852548,18.544 201.996548,26.296 201.996548,36.024 Z M183.908548,26.828 C179.576548,26.828 176.080548,29.716 174.864548,34.428 L192.040548,34.428 C191.964548,29.64 188.240548,26.828 183.908548,26.828 Z M233.210685,19.38 L244.002685,19.38 L225.990685,60.268 C222.570685,68.02 218.086685,71.592 211.018685,71.592 C208.890685,71.592 206.382685,71.212 204.406685,70.68 L204.406685,62.092 C206.154685,62.244 207.598685,62.396 208.814685,62.396 C212.082685,62.396 214.742685,61.56 216.642685,57.304 L217.782685,54.796 L203.342685,19.38 L214.210685,19.38 L223.406685,44.08 L233.210685,19.38 Z M298.374959,29.868 C303.922959,31.844 307.266959,36.176 307.266959,42.256 C307.266959,50.92 300.502959,57 290.774959,57 L268.430959,57 L268.430959,6.84 L286.214959,6.84 C295.486959,6.84 302.098959,12.54 302.098959,20.824 C302.098959,24.548 300.730959,27.588 298.374959,29.868 Z M285.378959,15.656 L278.310959,15.656 L278.310959,27.132 L285.378959,27.132 C289.634959,27.132 291.914959,24.776 291.914959,21.356 C291.914959,17.86 289.634959,15.656 285.378959,15.656 Z M290.014959,48.184 C294.498959,48.184 297.158959,45.828 297.158959,41.876 C297.158959,38 294.498959,35.568 290.014959,35.568 L278.310959,35.568 L278.310959,48.184 L290.014959,48.184 Z M332.933096,18.924 C334.301096,18.924 335.289096,19.076 336.277096,19.38 L336.277096,28.424 L333.541096,28.424 C327.613096,28.424 323.433096,31.464 323.433096,38.228 L323.433096,57 L313.173096,57 L313.173096,19.38 L322.597096,19.38 L322.597096,23.94 C325.105096,20.672 328.829096,18.924 332.933096,18.924 Z M358.143233,18.544 C369.239233,18.544 378.359233,27.056 378.359233,38.152 C378.359233,49.324 369.239233,57.836 358.067233,57.836 C346.895233,57.836 338.003233,49.324 338.003233,38.152 C338.003233,27.056 346.895233,18.544 358.143233,18.544 Z M358.143233,27.892 C352.443233,27.892 348.415233,32.3 348.415233,38.228 C348.415233,44.156 352.443233,48.412 358.143233,48.412 C363.691233,48.412 367.871233,44.08 367.871233,38.228 C367.871233,32.3 363.691233,27.892 358.143233,27.892 Z M431.38537,19.38 L442.17737,19.38 L424.69737,57.912 L421.35337,57.912 L410.48537,36.024 L399.69337,57.912 L396.34937,57.912 L378.86937,19.38 L389.66137,19.38 L398.62937,40.812 L408.81337,18.544 L412.23337,18.544 L422.64537,40.356 L431.38537,19.38 Z M466.855507,18.544 C475.671507,18.544 480.991507,24.624 480.991507,33.668 L480.991507,57 L470.807507,57 L470.807507,35.036 C470.807507,30.704 467.995507,27.74 463.815507,27.74 C459.635507,27.74 456.671507,30.704 456.671507,35.036 L456.671507,57 L446.411507,57 L446.411507,19.38 L455.835507,19.38 L455.835507,22.8 C458.419507,20.216 462.219507,18.544 466.855507,18.544 Z" id="AudreyBrown" fill="url(#linearGradient-1)"></path>
                <path d="M173.210822,102.8 L174.910822,102.8 L169.910822,116.22 L169.350822,116.22 L165.170822,105.74 L160.990822,116.22 L160.430822,116.22 L155.410822,102.8 L157.130822,102.8 L160.770822,112.86 L164.890822,102.58 L165.450822,102.58 L169.570822,112.86 L173.210822,102.8 Z M184.970822,110.44 C184.970822,110.96 184.890822,111.42 184.850822,111.6 L177.170822,111.6 C177.370822,113.54 178.810822,114.8 180.730822,114.8 C181.950822,114.8 182.910822,114.28 183.710822,113.48 L184.610822,114.52 C183.630822,115.56 182.310822,116.22 180.710822,116.22 C177.770822,116.22 175.550822,114 175.550822,111.14 C175.550822,108.3 177.730822,106.04 180.530822,106.04 C183.030822,106.04 184.970822,107.84 184.970822,110.44 Z M180.490822,107.44 C178.850822,107.44 177.550822,108.56 177.230822,110.24 L183.390822,110.24 C183.370822,108.44 182.050822,107.44 180.490822,107.44 Z M192.790822,106.04 C195.570822,106.04 197.610822,108.26 197.610822,111.14 C197.610822,114 195.590822,116.22 192.810822,116.22 C191.290822,116.22 189.870822,115.56 189.110822,114.44 L189.110822,116 L187.670822,116 L187.670822,101 L189.210822,101 L189.210822,107.7 C189.970822,106.68 191.310822,106.04 192.790822,106.04 Z M192.570822,114.8 C194.570822,114.8 196.030822,113.24 196.030822,111.12 C196.030822,109 194.550822,107.46 192.570822,107.46 C190.870822,107.46 189.190822,108.58 189.190822,111.14 C189.190822,113.7 190.890822,114.8 192.570822,114.8 Z M209.950822,102.8 C214.430822,102.8 217.130822,105.54 217.130822,109.38 C217.130822,113.16 214.430822,116 209.950822,116 L206.030822,116 L206.030822,102.8 L209.950822,102.8 Z M209.930822,104.2 L207.590822,104.2 L207.590822,114.6 L209.930822,114.6 C213.470822,114.6 215.510822,112.34 215.510822,109.38 C215.510822,106.36 213.470822,104.2 209.930822,104.2 Z M228.510822,110.44 C228.510822,110.96 228.430822,111.42 228.390822,111.6 L220.710822,111.6 C220.910822,113.54 222.350822,114.8 224.270822,114.8 C225.490822,114.8 226.450822,114.28 227.250822,113.48 L228.150822,114.52 C227.170822,115.56 225.850822,116.22 224.250822,116.22 C221.310822,116.22 219.090822,114 219.090822,111.14 C219.090822,108.3 221.270822,106.04 224.070822,106.04 C226.570822,106.04 228.510822,107.84 228.510822,110.44 Z M224.030822,107.44 C222.390822,107.44 221.090822,108.56 220.770822,110.24 L226.930822,110.24 C226.910822,108.44 225.590822,107.44 224.030822,107.44 Z M237.730822,106.26 L239.370822,106.26 L234.790822,116.22 L234.230822,116.22 L229.630822,106.26 L231.270822,106.26 L234.510822,113.6 L237.730822,106.26 Z M249.910822,110.44 C249.910822,110.96 249.830822,111.42 249.790822,111.6 L242.110822,111.6 C242.310822,113.54 243.750822,114.8 245.670822,114.8 C246.890822,114.8 247.850822,114.28 248.650822,113.48 L249.550822,114.52 C248.570822,115.56 247.250822,116.22 245.650822,116.22 C242.710822,116.22 240.490822,114 240.490822,111.14 C240.490822,108.3 242.670822,106.04 245.470822,106.04 C247.970822,106.04 249.910822,107.84 249.910822,110.44 Z M245.430822,107.44 C243.790822,107.44 242.490822,108.56 242.170822,110.24 L248.330822,110.24 C248.310822,108.44 246.990822,107.44 245.430822,107.44 Z M254.150822,101 L254.150822,116 L252.610822,116 L252.610822,101 L254.150822,101 Z M261.930822,106.04 C264.750822,106.04 267.030822,108.26 267.030822,111.12 C267.030822,113.96 264.750822,116.2 261.910822,116.2 C259.090822,116.18 256.830822,113.98 256.830822,111.12 C256.830822,108.26 259.070822,106.04 261.930822,106.04 Z M261.930822,107.46 C259.890822,107.46 258.390822,109.06 258.410822,111.14 C258.410822,113.2 259.890822,114.78 261.910822,114.78 C263.930822,114.78 265.450822,113.18 265.450822,111.14 C265.450822,109.04 263.930822,107.46 261.930822,107.46 Z M274.850822,106.04 C277.650822,106.04 279.670822,108.26 279.670822,111.12 C279.670822,114 277.630822,116.22 274.850822,116.22 C273.410822,116.22 272.050822,115.62 271.270822,114.58 L271.270822,119.6 L269.730822,119.6 L269.730822,106.26 L271.170822,106.26 L271.170822,107.82 C271.930822,106.7 273.310822,106.04 274.850822,106.04 Z M274.630822,114.8 C276.610822,114.8 278.090822,113.26 278.090822,111.14 C278.090822,109.02 276.630822,107.46 274.630822,107.46 C272.950822,107.46 271.250822,108.56 271.250822,111.12 C271.250822,113.68 272.930822,114.8 274.630822,114.8 Z M293.050822,106.04 C295.330822,106.04 296.590822,107.62 296.590822,109.88 L296.590822,116 L295.050822,116 L295.050822,110.08 C295.050822,108.54 294.210822,107.46 292.750822,107.46 C291.270822,107.46 290.250822,108.58 290.250822,109.94 L290.250822,116 L288.710822,116 L288.710822,110.08 C288.710822,108.54 287.830822,107.46 286.390822,107.46 C284.910822,107.46 283.910822,108.54 283.910822,110.08 L283.910822,116 L282.370822,116 L282.370822,106.26 L283.810822,106.26 L283.810822,107.28 C284.490822,106.5 285.490822,106.04 286.710822,106.04 C288.170822,106.04 289.170822,106.7 289.710822,107.72 C290.390822,106.74 291.550822,106.04 293.050822,106.04 Z M308.570822,110.44 C308.570822,110.96 308.490822,111.42 308.450822,111.6 L300.770822,111.6 C300.970822,113.54 302.410822,114.8 304.330822,114.8 C305.550822,114.8 306.510822,114.28 307.310822,113.48 L308.210822,114.52 C307.230822,115.56 305.910822,116.22 304.310822,116.22 C301.370822,116.22 299.150822,114 299.150822,111.14 C299.150822,108.3 301.330822,106.04 304.130822,106.04 C306.630822,106.04 308.570822,107.84 308.570822,110.44 Z M304.090822,107.44 C302.450822,107.44 301.150822,108.56 300.830822,110.24 L306.990822,110.24 C306.970822,108.44 305.650822,107.44 304.090822,107.44 Z M315.710822,106.04 C318.010822,106.04 319.330822,107.62 319.330822,109.88 L319.330822,116 L317.790822,116 L317.790822,110.06 C317.790822,108.52 316.870822,107.46 315.370822,107.46 C313.870822,107.46 312.810822,108.54 312.810822,110.06 L312.810822,116 L311.270822,116 L311.270822,106.26 L312.710822,106.26 L312.710822,107.32 C313.390822,106.52 314.450822,106.04 315.710822,106.04 Z M326.610822,114.82 C326.990822,114.82 327.410822,114.78 327.910822,114.7 L327.910822,116 C327.410822,116.12 326.910822,116.22 326.290822,116.22 C324.370822,116.22 323.010822,115.28 323.010822,113.06 L323.010822,107.64 L321.370822,107.64 L321.370822,106.26 L323.010822,106.26 L323.010822,103.6 L324.550822,103.6 L324.550822,106.26 L327.590822,106.26 L327.590822,107.64 L324.550822,107.64 L324.550822,112.96 C324.550822,114.42 325.390822,114.82 326.610822,114.82 Z" id="WebDevelopment" fill="#FFFFFF"></path>
            </g>
        </g>
    </g>
</svg>