<?xml version="1.0" encoding="UTF-8"?>
<svg width="540px" height="121px" viewBox="0 0 540 121" version="1.1" xmlns="http://www.w3.org/2000/svg" xmlns:xlink="http://www.w3.org/1999/xlink">
    <!-- Generator: Sketch 53.2 (72643) - https://sketchapp.com -->
    <title>Group 9</title>
    <desc>Created with Sketch.</desc>
    <defs>
        <linearGradient x1="74.000038%" y1="49.7355944%" x2="-16.1444198%" y2="50.8742938%" id="linearGradient-1">
            <stop stop-color="#FA8561" offset="0%"></stop>
            <stop stop-color="#D31CF7" offset="100%"></stop>
        </linearGradient>
    </defs>
    <g id="Page-1" stroke="none" stroke-width="1" fill="none" fill-rule="evenodd">
        <g id="Desktop-HD-Copy-23" transform="translate(-1788.000000, -493.000000)" fill-rule="nonzero">
            <g id="Group-9" transform="translate(1788.465973, 493.316000)">
                <path d="M26.752,6.612 C36.404,6.612 44.46,11.4 48.868,19.076 L41.116,24.548 C37.772,19.228 33.06,16.112 26.752,16.112 C17.404,16.112 10.564,22.952 10.564,32.68 C10.564,42.332 17.404,49.096 26.752,49.096 C33.06,49.096 37.772,45.98 41.116,40.66 L48.868,46.132 C44.536,53.808 36.404,58.596 26.676,58.596 C11.78,58.596 2.27373675e-12,47.348 2.27373675e-12,32.604 C2.27373675e-12,17.86 11.78,6.612 26.752,6.612 Z M74.914137,19.608 C76.282137,19.608 77.270137,19.76 78.258137,20.064 L78.258137,29.108 L75.522137,29.108 C69.594137,29.108 65.414137,32.148 65.414137,38.912 L65.414137,57.684 L55.154137,57.684 L55.154137,20.064 L64.578137,20.064 L64.578137,24.624 C67.086137,21.356 70.810137,19.608 74.914137,19.608 Z M97.540274,19.228 C107.116274,19.228 113.652274,24.624 113.652274,35.34 L113.652274,57.684 L104.228274,57.684 L104.228274,54.036 C101.568274,56.848 97.616274,58.596 92.752274,58.596 C84.544274,58.596 79.756274,53.732 79.756274,47.348 C79.756274,40.508 85.304274,36.404 93.968274,36.404 L103.392274,36.404 L103.392274,34.732 C103.392274,30.628 101.036274,28.12 96.400274,28.12 C92.372274,28.12 89.560274,30.02 86.444274,33.288 L81.124274,26.98 C85.532274,21.736 90.928274,19.228 97.540274,19.228 Z M95.488274,51.072 C99.820274,51.072 103.392274,48.032 103.392274,43.624 L103.392274,43.168 L95.336274,43.168 C91.992274,43.168 90.092274,44.46 90.092274,46.968 C90.092274,49.552 92.296274,51.072 95.488274,51.072 Z M139.774411,19.228 C147.298411,19.228 152.998411,22.876 156.114411,28.5 L148.970411,34.048 C146.842411,30.856 144.106411,28.576 139.926411,28.576 C134.074411,28.576 130.046411,32.984 130.046411,38.836 C130.046411,44.764 134.074411,49.172 139.926411,49.172 C144.030411,49.172 146.766411,46.892 148.970411,43.776 L156.114411,49.248 C152.998411,54.872 147.222411,58.596 139.774411,58.596 C128.526411,58.596 119.634411,50.008 119.634411,38.836 C119.634411,27.74 128.526411,19.228 139.774411,19.228 Z M199.032548,57.684 L187.328548,57.684 L172.204548,36.936 L172.204548,57.684 L161.944548,57.684 L161.944548,0.684 L172.204548,0.684 L172.204548,36.176 L185.732548,20.064 L197.892548,20.064 L183.756548,36.708 L199.032548,57.684 Z M236.478685,36.708 C236.478685,38.836 236.098685,41.04 235.794685,42.332 L209.346685,42.332 C210.638685,47.12 214.590685,49.78 219.986685,49.78 C224.090685,49.78 227.434685,48.336 230.474685,45.98 L234.730685,52.972 C230.474685,56.544 225.458685,58.596 219.682685,58.596 C207.750685,58.596 199.086685,50.008 199.086685,38.912 C199.086685,27.816 207.674685,19.228 218.770685,19.228 C229.334685,19.228 236.478685,26.98 236.478685,36.708 Z M218.390685,27.512 C214.058685,27.512 210.562685,30.4 209.346685,35.112 L226.522685,35.112 C226.446685,30.324 222.722685,27.512 218.390685,27.512 Z M270.048822,0.684 L280.308822,0.684 L280.308822,57.684 L270.884822,57.684 L270.884822,52.972 C268.300822,56.544 264.044822,58.596 258.800822,58.596 C248.160822,58.596 240.560822,50.236 240.560822,38.912 C240.560822,27.588 248.160822,19.228 258.800822,19.228 C263.512822,19.228 267.464822,20.824 270.048822,23.712 L270.048822,0.684 Z M260.700822,49.248 C265.412822,49.248 270.200822,46.132 270.200822,38.912 C270.200822,31.768 265.412822,28.5 260.700822,28.5 C255.380822,28.5 250.972822,32.452 250.972822,38.836 C250.972822,45.22 255.304822,49.248 260.700822,49.248 Z M354.669096,6.612 L358.013096,6.612 L358.013096,57.684 L347.753096,57.684 L347.753096,30.856 L335.137096,46.74 L331.793096,46.74 L319.177096,30.856 L319.177096,57.684 L308.917096,57.684 L308.917096,6.612 L312.261096,6.612 L333.465096,33.82 L354.669096,6.612 Z M371.823233,-2.27373675e-13 C375.471233,-2.27373675e-13 378.435233,2.736 378.435233,6.384 C378.435233,9.956 375.471233,12.692 371.823233,12.692 C368.175233,12.692 365.287233,9.956 365.287233,6.384 C365.287233,2.736 368.175233,-2.27373675e-13 371.823233,-2.27373675e-13 Z M376.991233,20.064 L376.991233,57.684 L366.731233,57.684 L366.731233,20.064 L376.991233,20.064 Z M405.16537,19.608 C406.53337,19.608 407.52137,19.76 408.50937,20.064 L408.50937,29.108 L405.77337,29.108 C399.84537,29.108 395.66537,32.148 395.66537,38.912 L395.66537,57.684 L385.40537,57.684 L385.40537,20.064 L394.82937,20.064 L394.82937,24.624 C397.33737,21.356 401.06137,19.608 405.16537,19.608 Z M432.883507,19.608 C434.251507,19.608 435.239507,19.76 436.227507,20.064 L436.227507,29.108 L433.491507,29.108 C427.563507,29.108 423.383507,32.148 423.383507,38.912 L423.383507,57.684 L413.123507,57.684 L413.123507,20.064 L422.547507,20.064 L422.547507,24.624 C425.055507,21.356 428.779507,19.608 432.883507,19.608 Z M458.093644,19.228 C469.189644,19.228 478.309644,27.74 478.309644,38.836 C478.309644,50.008 469.189644,58.52 458.017644,58.52 C446.845644,58.52 437.953644,50.008 437.953644,38.836 C437.953644,27.74 446.845644,19.228 458.093644,19.228 Z M458.093644,28.576 C452.393644,28.576 448.365644,32.984 448.365644,38.912 C448.365644,44.84 452.393644,49.096 458.093644,49.096 C463.641644,49.096 467.821644,44.764 467.821644,38.912 C467.821644,32.984 463.641644,28.576 458.093644,28.576 Z M504.279781,19.608 C505.647781,19.608 506.635781,19.76 507.623781,20.064 L507.623781,29.108 L504.887781,29.108 C498.959781,29.108 494.779781,32.148 494.779781,38.912 L494.779781,57.684 L484.519781,57.684 L484.519781,20.064 L493.943781,20.064 L493.943781,24.624 C496.451781,21.356 500.175781,19.608 504.279781,19.608 Z M525.005918,19.152 C530.477918,19.152 535.113918,21.052 538.533918,24.852 L533.365918,31.16 C530.933918,28.88 527.969918,27.588 524.929918,27.588 C522.497918,27.588 520.901918,28.424 520.901918,30.248 C520.901918,31.768 522.117918,32.528 524.853918,33.592 L528.501918,35.112 C535.265918,37.848 539.065918,40.736 539.065918,46.588 C539.065918,54.34 532.605918,58.596 524.397918,58.596 C517.709918,58.596 512.161918,55.708 508.817918,51.3 L513.985918,45.068 C517.025918,48.184 520.521918,50.16 524.549918,50.16 C527.133918,50.16 529.337918,49.172 529.337918,47.044 C529.337918,45.296 527.741918,44.612 525.461918,43.624 L521.433918,41.952 C515.049918,39.368 511.173918,36.404 511.173918,30.476 C511.173918,23.256 517.025918,19.152 525.005918,19.152 Z" id="CrackedMirrors" fill="url(#linearGradient-1)"></path>
                <path d="M161.554027,103.484 L163.274027,103.484 L157.554027,116.904 L156.974027,116.904 L151.254027,103.484 L152.974027,103.484 L157.274027,113.804 L161.554027,103.484 Z M176.014027,116.684 L174.194027,116.684 L170.094027,111.144 L167.274027,111.144 L167.274027,116.684 L165.714027,116.684 L165.714027,103.484 L170.354027,103.484 C172.954027,103.484 174.574027,105.084 174.574027,107.304 C174.574027,109.084 173.534027,110.464 171.814027,110.964 L176.014027,116.684 Z M167.274027,104.884 L167.274027,109.744 L170.294027,109.744 C172.034027,109.744 172.954027,108.744 172.954027,107.324 C172.954027,105.924 172.034027,104.884 170.294027,104.884 L167.274027,104.884 Z M187.674027,103.484 C192.154027,103.484 194.854027,106.224 194.854027,110.064 C194.854027,113.844 192.154027,116.684 187.674027,116.684 L183.754027,116.684 L183.754027,103.484 L187.674027,103.484 Z M187.654027,104.884 L185.314027,104.884 L185.314027,115.284 L187.654027,115.284 C191.194027,115.284 193.234027,113.024 193.234027,110.064 C193.234027,107.044 191.194027,104.884 187.654027,104.884 Z M206.234027,111.124 C206.234027,111.644 206.154027,112.104 206.114027,112.284 L198.434027,112.284 C198.634027,114.224 200.074027,115.484 201.994027,115.484 C203.214027,115.484 204.174027,114.964 204.974027,114.164 L205.874027,115.204 C204.894027,116.244 203.574027,116.904 201.974027,116.904 C199.034027,116.904 196.814027,114.684 196.814027,111.824 C196.814027,108.984 198.994027,106.724 201.794027,106.724 C204.294027,106.724 206.234027,108.524 206.234027,111.124 Z M201.754027,108.124 C200.114027,108.124 198.814027,109.244 198.494027,110.924 L204.654027,110.924 C204.634027,109.124 203.314027,108.124 201.754027,108.124 Z M211.874027,106.724 C213.274027,106.724 214.374027,107.324 215.134027,108.264 L214.194027,109.224 C213.554027,108.564 212.714027,108.144 211.794027,108.144 C210.874027,108.144 210.174027,108.564 210.174027,109.364 C210.174027,110.024 210.674027,110.344 211.754027,110.784 L212.654027,111.164 C214.414027,111.904 215.234027,112.664 215.234027,114.044 C215.234027,115.944 213.614027,116.904 211.814027,116.904 C210.094027,116.904 208.794027,116.044 208.014027,115.004 L208.994027,113.984 C209.794027,114.824 210.614027,115.484 211.794027,115.484 C212.814027,115.484 213.654027,114.984 213.654027,114.104 C213.654027,113.264 212.934027,112.944 211.954027,112.544 L211.014027,112.144 C209.534027,111.524 208.594027,110.844 208.594027,109.444 C208.594027,107.684 210.094027,106.724 211.874027,106.724 Z M218.794027,102.104 C219.414027,102.104 219.934027,102.604 219.934027,103.224 C219.934027,103.864 219.414027,104.344 218.794027,104.344 C218.134027,104.344 217.634027,103.864 217.634027,103.224 C217.634027,102.604 218.134027,102.104 218.794027,102.104 Z M219.554027,106.944 L219.554027,116.684 L218.014027,116.684 L218.014027,106.944 L219.554027,106.944 Z M230.834027,106.944 L232.294027,106.944 L232.294027,115.744 C232.294027,118.744 230.394027,120.504 227.554027,120.504 C225.514027,120.504 223.934027,119.584 222.974027,118.624 L223.874027,117.544 C224.814027,118.364 225.914027,119.084 227.514027,119.084 C229.494027,119.084 230.754027,117.984 230.754027,115.824 L230.754027,114.964 C229.954027,115.984 228.594027,116.584 227.134027,116.584 C224.394027,116.584 222.354027,114.504 222.354027,111.664 C222.354027,108.844 224.394027,106.724 227.134027,106.724 C228.674027,106.724 230.074027,107.404 230.834027,108.524 L230.834027,106.944 Z M227.374027,115.164 C229.074027,115.164 230.774027,114.104 230.774027,111.664 C230.774027,109.224 229.054027,108.184 227.374027,108.184 C225.394027,108.184 223.914027,109.624 223.914027,111.684 C223.914027,113.744 225.394027,115.164 227.374027,115.164 Z M240.114027,106.724 C242.414027,106.724 243.734027,108.304 243.734027,110.564 L243.734027,116.684 L242.194027,116.684 L242.194027,110.744 C242.194027,109.204 241.274027,108.144 239.774027,108.144 C238.274027,108.144 237.214027,109.224 237.214027,110.744 L237.214027,116.684 L235.674027,116.684 L235.674027,106.944 L237.114027,106.944 L237.114027,108.004 C237.794027,107.204 238.854027,106.724 240.114027,106.724 Z M254.874027,101.084 L254.874027,119.104 L253.554027,119.104 L253.554027,101.084 L254.874027,101.084 Z M268.874027,103.484 C273.354027,103.484 276.054027,106.224 276.054027,110.064 C276.054027,113.844 273.354027,116.684 268.874027,116.684 L264.954027,116.684 L264.954027,103.484 L268.874027,103.484 Z M268.854027,104.884 L266.514027,104.884 L266.514027,115.284 L268.854027,115.284 C272.394027,115.284 274.434027,113.024 274.434027,110.064 C274.434027,107.044 272.394027,104.884 268.854027,104.884 Z M287.434027,111.124 C287.434027,111.644 287.354027,112.104 287.314027,112.284 L279.634027,112.284 C279.834027,114.224 281.274027,115.484 283.194027,115.484 C284.414027,115.484 285.374027,114.964 286.174027,114.164 L287.074027,115.204 C286.094027,116.244 284.774027,116.904 283.174027,116.904 C280.234027,116.904 278.014027,114.684 278.014027,111.824 C278.014027,108.984 280.194027,106.724 282.994027,106.724 C285.494027,106.724 287.434027,108.524 287.434027,111.124 Z M282.954027,108.124 C281.314027,108.124 280.014027,109.244 279.694027,110.924 L285.854027,110.924 C285.834027,109.124 284.514027,108.124 282.954027,108.124 Z M296.654027,106.944 L298.294027,106.944 L293.714027,116.904 L293.154027,116.904 L288.554027,106.944 L290.194027,106.944 L293.434027,114.284 L296.654027,106.944 Z M308.834027,111.124 C308.834027,111.644 308.754027,112.104 308.714027,112.284 L301.034027,112.284 C301.234027,114.224 302.674027,115.484 304.594027,115.484 C305.814027,115.484 306.774027,114.964 307.574027,114.164 L308.474027,115.204 C307.494027,116.244 306.174027,116.904 304.574027,116.904 C301.634027,116.904 299.414027,114.684 299.414027,111.824 C299.414027,108.984 301.594027,106.724 304.394027,106.724 C306.894027,106.724 308.834027,108.524 308.834027,111.124 Z M304.354027,108.124 C302.714027,108.124 301.414027,109.244 301.094027,110.924 L307.254027,110.924 C307.234027,109.124 305.914027,108.124 304.354027,108.124 Z M313.074027,101.684 L313.074027,116.684 L311.534027,116.684 L311.534027,101.684 L313.074027,101.684 Z M320.854027,106.724 C323.674027,106.724 325.954027,108.944 325.954027,111.804 C325.954027,114.644 323.674027,116.884 320.834027,116.884 C318.014027,116.864 315.754027,114.664 315.754027,111.804 C315.754027,108.944 317.994027,106.724 320.854027,106.724 Z M320.854027,108.144 C318.814027,108.144 317.314027,109.744 317.334027,111.824 C317.334027,113.884 318.814027,115.464 320.834027,115.464 C322.854027,115.464 324.374027,113.864 324.374027,111.824 C324.374027,109.724 322.854027,108.144 320.854027,108.144 Z M333.774027,106.724 C336.574027,106.724 338.594027,108.944 338.594027,111.804 C338.594027,114.684 336.554027,116.904 333.774027,116.904 C332.334027,116.904 330.974027,116.304 330.194027,115.264 L330.194027,120.284 L328.654027,120.284 L328.654027,106.944 L330.094027,106.944 L330.094027,108.504 C330.854027,107.384 332.234027,106.724 333.774027,106.724 Z M333.554027,115.484 C335.534027,115.484 337.014027,113.944 337.014027,111.824 C337.014027,109.704 335.554027,108.144 333.554027,108.144 C331.874027,108.144 330.174027,109.244 330.174027,111.804 C330.174027,114.364 331.854027,115.484 333.554027,115.484 Z M351.974027,106.724 C354.254027,106.724 355.514027,108.304 355.514027,110.564 L355.514027,116.684 L353.974027,116.684 L353.974027,110.764 C353.974027,109.224 353.134027,108.144 351.674027,108.144 C350.194027,108.144 349.174027,109.264 349.174027,110.624 L349.174027,116.684 L347.634027,116.684 L347.634027,110.764 C347.634027,109.224 346.754027,108.144 345.314027,108.144 C343.834027,108.144 342.834027,109.224 342.834027,110.764 L342.834027,116.684 L341.294027,116.684 L341.294027,106.944 L342.734027,106.944 L342.734027,107.964 C343.414027,107.184 344.414027,106.724 345.634027,106.724 C347.094027,106.724 348.094027,107.384 348.634027,108.404 C349.314027,107.424 350.474027,106.724 351.974027,106.724 Z M367.494027,111.124 C367.494027,111.644 367.414027,112.104 367.374027,112.284 L359.694027,112.284 C359.894027,114.224 361.334027,115.484 363.254027,115.484 C364.474027,115.484 365.434027,114.964 366.234027,114.164 L367.134027,115.204 C366.154027,116.244 364.834027,116.904 363.234027,116.904 C360.294027,116.904 358.074027,114.684 358.074027,111.824 C358.074027,108.984 360.254027,106.724 363.054027,106.724 C365.554027,106.724 367.494027,108.524 367.494027,111.124 Z M363.014027,108.124 C361.374027,108.124 360.074027,109.244 359.754027,110.924 L365.914027,110.924 C365.894027,109.124 364.574027,108.124 363.014027,108.124 Z M374.634027,106.724 C376.934027,106.724 378.254027,108.304 378.254027,110.564 L378.254027,116.684 L376.714027,116.684 L376.714027,110.744 C376.714027,109.204 375.794027,108.144 374.294027,108.144 C372.794027,108.144 371.734027,109.224 371.734027,110.744 L371.734027,116.684 L370.194027,116.684 L370.194027,106.944 L371.634027,106.944 L371.634027,108.004 C372.314027,107.204 373.374027,106.724 374.634027,106.724 Z M385.534027,115.504 C385.914027,115.504 386.334027,115.464 386.834027,115.384 L386.834027,116.684 C386.334027,116.804 385.834027,116.904 385.214027,116.904 C383.294027,116.904 381.934027,115.964 381.934027,113.744 L381.934027,108.324 L380.294027,108.324 L380.294027,106.944 L381.934027,106.944 L381.934027,104.284 L383.474027,104.284 L383.474027,106.944 L386.514027,106.944 L386.514027,108.324 L383.474027,108.324 L383.474027,113.644 C383.474027,115.104 384.314027,115.504 385.534027,115.504 Z" id="VRDesign|Development" fill="#FFFFFF"></path>
            </g>
        </g>
    </g>
</svg>