<?xml version="1.0" encoding="UTF-8"?>
<svg width="537px" height="121px" viewBox="0 0 537 121" version="1.1" xmlns="http://www.w3.org/2000/svg" xmlns:xlink="http://www.w3.org/1999/xlink">
    <!-- Generator: Sketch 53.2 (72643) - https://sketchapp.com -->
    <title>Group 10</title>
    <desc>Created with Sketch.</desc>
    <defs>
        <linearGradient x1="74.000038%" y1="49.7327924%" x2="-16.1444198%" y2="50.8835591%" id="linearGradient-1">
            <stop stop-color="#FA8561" offset="0%"></stop>
            <stop stop-color="#D31CF7" offset="100%"></stop>
        </linearGradient>
    </defs>
    <g id="Page-1" stroke="none" stroke-width="1" fill="none" fill-rule="evenodd">
        <g id="Desktop-HD-Copy-23" transform="translate(-1789.000000, -685.000000)" fill-rule="nonzero">
            <g id="Group-10" transform="translate(1789.616904, 685.316000)">
                <path d="M37.164,57.684 L34.352,51.148 L13.832,51.148 L11.02,57.684 L-4.54747351e-13,57.684 L22.42,6.612 L25.84,6.612 L48.184,57.684 L37.164,57.684 Z M30.704,42.712 L24.092,25.84 L17.48,42.712 L30.704,42.712 Z M85.706137,20.064 L85.706137,41.116 C85.706137,51.756 78.258137,58.596 68.454137,58.596 C58.498137,58.596 51.050137,51.756 51.050137,41.116 L51.050137,20.064 L61.310137,20.064 L61.310137,41.952 C61.310137,46.36 64.426137,49.172 68.454137,49.172 C72.330137,49.172 75.446137,46.36 75.446137,41.952 L75.446137,20.064 L85.706137,20.064 Z M121.100274,0.684 L131.360274,0.684 L131.360274,57.684 L121.936274,57.684 L121.936274,52.972 C119.352274,56.544 115.096274,58.596 109.852274,58.596 C99.212274,58.596 91.612274,50.236 91.612274,38.912 C91.612274,27.588 99.212274,19.228 109.852274,19.228 C114.564274,19.228 118.516274,20.824 121.100274,23.712 L121.100274,0.684 Z M111.752274,49.248 C116.464274,49.248 121.252274,46.132 121.252274,38.912 C121.252274,31.768 116.464274,28.5 111.752274,28.5 C106.432274,28.5 102.024274,32.452 102.024274,38.836 C102.024274,45.22 106.356274,49.248 111.752274,49.248 Z M144.866411,-2.27373675e-13 C148.514411,-2.27373675e-13 151.478411,2.736 151.478411,6.384 C151.478411,9.956 148.514411,12.692 144.866411,12.692 C141.218411,12.692 138.330411,9.956 138.330411,6.384 C138.330411,2.736 141.218411,-2.27373675e-13 144.866411,-2.27373675e-13 Z M150.034411,20.064 L150.034411,57.684 L139.774411,57.684 L139.774411,20.064 L150.034411,20.064 Z M176.460548,19.228 C187.556548,19.228 196.676548,27.74 196.676548,38.836 C196.676548,50.008 187.556548,58.52 176.384548,58.52 C165.212548,58.52 156.320548,50.008 156.320548,38.836 C156.320548,27.74 165.212548,19.228 176.460548,19.228 Z M176.460548,28.576 C170.760548,28.576 166.732548,32.984 166.732548,38.912 C166.732548,44.84 170.760548,49.096 176.460548,49.096 C182.008548,49.096 186.188548,44.764 186.188548,38.912 C186.188548,32.984 182.008548,28.576 176.460548,28.576 Z M251.124822,7.524 L262.676822,7.524 L240.332822,58.596 L236.912822,58.596 L214.492822,7.524 L226.120822,7.524 L238.660822,37.924 L251.124822,7.524 Z M272.154959,-2.27373675e-13 C275.802959,-2.27373675e-13 278.766959,2.736 278.766959,6.384 C278.766959,9.956 275.802959,12.692 272.154959,12.692 C268.506959,12.692 265.618959,9.956 265.618959,6.384 C265.618959,2.736 268.506959,-2.27373675e-13 272.154959,-2.27373675e-13 Z M277.322959,20.064 L277.322959,57.684 L267.062959,57.684 L267.062959,20.064 L277.322959,20.064 Z M298.505096,19.152 C303.977096,19.152 308.613096,21.052 312.033096,24.852 L306.865096,31.16 C304.433096,28.88 301.469096,27.588 298.429096,27.588 C295.997096,27.588 294.401096,28.424 294.401096,30.248 C294.401096,31.768 295.617096,32.528 298.353096,33.592 L302.001096,35.112 C308.765096,37.848 312.565096,40.736 312.565096,46.588 C312.565096,54.34 306.105096,58.596 297.897096,58.596 C291.209096,58.596 285.661096,55.708 282.317096,51.3 L287.485096,45.068 C290.525096,48.184 294.021096,50.16 298.049096,50.16 C300.633096,50.16 302.837096,49.172 302.837096,47.044 C302.837096,45.296 301.241096,44.612 298.961096,43.624 L294.933096,41.952 C288.549096,39.368 284.673096,36.404 284.673096,30.476 C284.673096,23.256 290.525096,19.152 298.505096,19.152 Z M352.823233,20.064 L352.823233,41.116 C352.823233,51.756 345.375233,58.596 335.571233,58.596 C325.615233,58.596 318.167233,51.756 318.167233,41.116 L318.167233,20.064 L328.427233,20.064 L328.427233,41.952 C328.427233,46.36 331.543233,49.172 335.571233,49.172 C339.447233,49.172 342.563233,46.36 342.563233,41.952 L342.563233,20.064 L352.823233,20.064 Z M376.28537,19.228 C385.86137,19.228 392.39737,24.624 392.39737,35.34 L392.39737,57.684 L382.97337,57.684 L382.97337,54.036 C380.31337,56.848 376.36137,58.596 371.49737,58.596 C363.28937,58.596 358.50137,53.732 358.50137,47.348 C358.50137,40.508 364.04937,36.404 372.71337,36.404 L382.13737,36.404 L382.13737,34.732 C382.13737,30.628 379.78137,28.12 375.14537,28.12 C371.11737,28.12 368.30537,30.02 365.18937,33.288 L359.86937,26.98 C364.27737,21.736 369.67337,19.228 376.28537,19.228 Z M374.23337,51.072 C378.56537,51.072 382.13737,48.032 382.13737,43.624 L382.13737,43.168 L374.08137,43.168 C370.73737,43.168 368.83737,44.46 368.83737,46.968 C368.83737,49.552 371.04137,51.072 374.23337,51.072 Z M410.767507,0.684 L410.767507,57.684 L400.507507,57.684 L400.507507,0.684 L410.767507,0.684 Z M424.273644,-2.27373675e-13 C427.921644,-2.27373675e-13 430.885644,2.736 430.885644,6.384 C430.885644,9.956 427.921644,12.692 424.273644,12.692 C420.625644,12.692 417.737644,9.956 417.737644,6.384 C417.737644,2.736 420.625644,-2.27373675e-13 424.273644,-2.27373675e-13 Z M429.441644,20.064 L429.441644,57.684 L419.181644,57.684 L419.181644,20.064 L429.441644,20.064 Z M449.103781,49.02 L467.115781,49.02 L467.115781,57.684 L434.055781,57.684 L434.055781,54.948 L451.991781,28.728 L435.803781,28.728 L435.803781,20.064 L466.963781,20.064 L466.963781,22.8 L449.103781,49.02 Z M506.917918,36.708 C506.917918,38.836 506.537918,41.04 506.233918,42.332 L479.785918,42.332 C481.077918,47.12 485.029918,49.78 490.425918,49.78 C494.529918,49.78 497.873918,48.336 500.913918,45.98 L505.169918,52.972 C500.913918,56.544 495.897918,58.596 490.121918,58.596 C478.189918,58.596 469.525918,50.008 469.525918,38.912 C469.525918,27.816 478.113918,19.228 489.209918,19.228 C499.773918,19.228 506.917918,26.98 506.917918,36.708 Z M488.829918,27.512 C484.497918,27.512 481.001918,30.4 479.785918,35.112 L496.961918,35.112 C496.885918,30.324 493.161918,27.512 488.829918,27.512 Z M532.888055,19.608 C534.256055,19.608 535.244055,19.76 536.232055,20.064 L536.232055,29.108 L533.496055,29.108 C527.568055,29.108 523.388055,32.148 523.388055,38.912 L523.388055,57.684 L513.128055,57.684 L513.128055,20.064 L522.552055,20.064 L522.552055,24.624 C525.060055,21.356 528.784055,19.608 532.888055,19.608 Z" id="AudioVisualizer" fill="url(#linearGradient-1)"></path>
                <path d="M167.483096,103.264 C169.283096,103.264 170.803096,104.204 171.623096,105.504 L170.483096,106.364 C169.783096,105.304 168.663096,104.704 167.463096,104.704 C166.243096,104.704 165.123096,105.324 165.123096,106.624 C165.123096,107.824 166.043096,108.264 167.243096,108.844 L168.703096,109.544 C170.623096,110.464 171.783096,111.444 171.783096,113.224 C171.783096,115.444 169.963096,116.904 167.523096,116.904 C165.423096,116.904 163.683096,115.804 162.663096,114.064 L163.823096,113.204 C164.623096,114.424 165.803096,115.464 167.503096,115.464 C169.063096,115.464 170.163096,114.604 170.163096,113.264 C170.163096,112.044 169.263096,111.564 167.963096,110.944 L166.483096,110.244 C164.943096,109.504 163.503096,108.564 163.503096,106.704 C163.503096,104.604 165.343096,103.264 167.483096,103.264 Z M179.103096,106.724 C181.923096,106.724 184.203096,108.944 184.203096,111.804 C184.203096,114.644 181.923096,116.884 179.083096,116.884 C176.263096,116.864 174.003096,114.664 174.003096,111.804 C174.003096,108.944 176.243096,106.724 179.103096,106.724 Z M179.103096,108.144 C177.063096,108.144 175.563096,109.744 175.583096,111.824 C175.583096,113.884 177.063096,115.464 179.083096,115.464 C181.103096,115.464 182.623096,113.864 182.623096,111.824 C182.623096,109.724 181.103096,108.144 179.103096,108.144 Z M190.723096,102.864 C189.523096,102.864 188.683096,103.264 188.683096,104.724 L188.683096,106.944 L191.123096,106.944 L191.123096,108.324 L188.683096,108.324 L188.683096,116.684 L187.143096,116.684 L187.143096,108.324 L185.743096,108.324 L185.743096,106.944 L187.143096,106.944 L187.143096,104.624 C187.143096,102.404 188.483096,101.464 190.363096,101.464 C190.843096,101.464 191.223096,101.524 191.583096,101.624 L191.583096,102.924 C191.263096,102.884 190.983096,102.864 190.723096,102.864 Z M196.483096,115.504 C196.863096,115.504 197.283096,115.464 197.783096,115.384 L197.783096,116.684 C197.283096,116.804 196.783096,116.904 196.163096,116.904 C194.243096,116.904 192.883096,115.964 192.883096,113.744 L192.883096,108.324 L191.243096,108.324 L191.243096,106.944 L192.883096,106.944 L192.883096,104.284 L194.423096,104.284 L194.423096,106.944 L197.463096,106.944 L197.463096,108.324 L194.423096,108.324 L194.423096,113.644 C194.423096,115.104 195.263096,115.504 196.483096,115.504 Z M213.223096,106.944 L214.863096,106.944 L210.763096,116.904 L210.203096,116.904 L206.883096,109.544 L203.583096,116.904 L203.043096,116.904 L198.903096,106.944 L200.543096,106.944 L203.343096,114.144 L206.603096,106.724 L207.183096,106.724 L210.463096,114.104 L213.223096,106.944 Z M220.203096,106.724 C222.423096,106.724 224.003096,108.064 224.003096,110.684 L224.003096,116.684 L222.563096,116.684 L222.563096,115.424 C221.863096,116.364 220.723096,116.904 219.283096,116.904 C217.323096,116.904 215.883096,115.864 215.883096,114.164 C215.883096,112.524 217.263096,111.444 219.383096,111.444 L222.463096,111.444 L222.463096,110.604 C222.463096,108.964 221.543096,108.144 220.103096,108.144 C218.883096,108.144 218.023096,108.724 217.263096,109.704 L216.243096,108.864 C217.163096,107.384 218.643096,106.724 220.203096,106.724 Z M219.483096,115.624 C221.083096,115.624 222.463096,114.464 222.463096,112.944 L222.463096,112.704 L219.563096,112.704 C218.203096,112.704 217.463096,113.164 217.463096,114.084 C217.463096,115.124 218.403096,115.624 219.483096,115.624 Z M231.723096,106.864 C232.043096,106.864 232.243096,106.904 232.443096,106.944 L232.443096,108.304 L231.863096,108.304 C230.283096,108.304 228.803096,109.304 228.803096,111.164 L228.803096,116.684 L227.263096,116.684 L227.263096,106.944 L228.703096,106.944 L228.703096,108.344 C229.423096,107.384 230.563096,106.864 231.723096,106.864 Z M243.023096,111.124 C243.023096,111.644 242.943096,112.104 242.903096,112.284 L235.223096,112.284 C235.423096,114.224 236.863096,115.484 238.783096,115.484 C240.003096,115.484 240.963096,114.964 241.763096,114.164 L242.663096,115.204 C241.683096,116.244 240.363096,116.904 238.763096,116.904 C235.823096,116.904 233.603096,114.684 233.603096,111.824 C233.603096,108.984 235.783096,106.724 238.583096,106.724 C241.083096,106.724 243.023096,108.524 243.023096,111.124 Z M238.543096,108.124 C236.903096,108.124 235.603096,109.244 235.283096,110.924 L241.443096,110.924 C241.423096,109.124 240.103096,108.124 238.543096,108.124 Z M255.363096,103.484 C259.843096,103.484 262.543096,106.224 262.543096,110.064 C262.543096,113.844 259.843096,116.684 255.363096,116.684 L251.443096,116.684 L251.443096,103.484 L255.363096,103.484 Z M255.343096,104.884 L253.003096,104.884 L253.003096,115.284 L255.343096,115.284 C258.883096,115.284 260.923096,113.024 260.923096,110.064 C260.923096,107.044 258.883096,104.884 255.343096,104.884 Z M273.923096,111.124 C273.923096,111.644 273.843096,112.104 273.803096,112.284 L266.123096,112.284 C266.323096,114.224 267.763096,115.484 269.683096,115.484 C270.903096,115.484 271.863096,114.964 272.663096,114.164 L273.563096,115.204 C272.583096,116.244 271.263096,116.904 269.663096,116.904 C266.723096,116.904 264.503096,114.684 264.503096,111.824 C264.503096,108.984 266.683096,106.724 269.483096,106.724 C271.983096,106.724 273.923096,108.524 273.923096,111.124 Z M269.443096,108.124 C267.803096,108.124 266.503096,109.244 266.183096,110.924 L272.343096,110.924 C272.323096,109.124 271.003096,108.124 269.443096,108.124 Z M283.143096,106.944 L284.783096,106.944 L280.203096,116.904 L279.643096,116.904 L275.043096,106.944 L276.683096,106.944 L279.923096,114.284 L283.143096,106.944 Z M295.323096,111.124 C295.323096,111.644 295.243096,112.104 295.203096,112.284 L287.523096,112.284 C287.723096,114.224 289.163096,115.484 291.083096,115.484 C292.303096,115.484 293.263096,114.964 294.063096,114.164 L294.963096,115.204 C293.983096,116.244 292.663096,116.904 291.063096,116.904 C288.123096,116.904 285.903096,114.684 285.903096,111.824 C285.903096,108.984 288.083096,106.724 290.883096,106.724 C293.383096,106.724 295.323096,108.524 295.323096,111.124 Z M290.843096,108.124 C289.203096,108.124 287.903096,109.244 287.583096,110.924 L293.743096,110.924 C293.723096,109.124 292.403096,108.124 290.843096,108.124 Z M299.563096,101.684 L299.563096,116.684 L298.023096,116.684 L298.023096,101.684 L299.563096,101.684 Z M307.343096,106.724 C310.163096,106.724 312.443096,108.944 312.443096,111.804 C312.443096,114.644 310.163096,116.884 307.323096,116.884 C304.503096,116.864 302.243096,114.664 302.243096,111.804 C302.243096,108.944 304.483096,106.724 307.343096,106.724 Z M307.343096,108.144 C305.303096,108.144 303.803096,109.744 303.823096,111.824 C303.823096,113.884 305.303096,115.464 307.323096,115.464 C309.343096,115.464 310.863096,113.864 310.863096,111.824 C310.863096,109.724 309.343096,108.144 307.343096,108.144 Z M320.263096,106.724 C323.063096,106.724 325.083096,108.944 325.083096,111.804 C325.083096,114.684 323.043096,116.904 320.263096,116.904 C318.823096,116.904 317.463096,116.304 316.683096,115.264 L316.683096,120.284 L315.143096,120.284 L315.143096,106.944 L316.583096,106.944 L316.583096,108.504 C317.343096,107.384 318.723096,106.724 320.263096,106.724 Z M320.043096,115.484 C322.023096,115.484 323.503096,113.944 323.503096,111.824 C323.503096,109.704 322.043096,108.144 320.043096,108.144 C318.363096,108.144 316.663096,109.244 316.663096,111.804 C316.663096,114.364 318.343096,115.484 320.043096,115.484 Z M338.463096,106.724 C340.743096,106.724 342.003096,108.304 342.003096,110.564 L342.003096,116.684 L340.463096,116.684 L340.463096,110.764 C340.463096,109.224 339.623096,108.144 338.163096,108.144 C336.683096,108.144 335.663096,109.264 335.663096,110.624 L335.663096,116.684 L334.123096,116.684 L334.123096,110.764 C334.123096,109.224 333.243096,108.144 331.803096,108.144 C330.323096,108.144 329.323096,109.224 329.323096,110.764 L329.323096,116.684 L327.783096,116.684 L327.783096,106.944 L329.223096,106.944 L329.223096,107.964 C329.903096,107.184 330.903096,106.724 332.123096,106.724 C333.583096,106.724 334.583096,107.384 335.123096,108.404 C335.803096,107.424 336.963096,106.724 338.463096,106.724 Z M353.983096,111.124 C353.983096,111.644 353.903096,112.104 353.863096,112.284 L346.183096,112.284 C346.383096,114.224 347.823096,115.484 349.743096,115.484 C350.963096,115.484 351.923096,114.964 352.723096,114.164 L353.623096,115.204 C352.643096,116.244 351.323096,116.904 349.723096,116.904 C346.783096,116.904 344.563096,114.684 344.563096,111.824 C344.563096,108.984 346.743096,106.724 349.543096,106.724 C352.043096,106.724 353.983096,108.524 353.983096,111.124 Z M349.503096,108.124 C347.863096,108.124 346.563096,109.244 346.243096,110.924 L352.403096,110.924 C352.383096,109.124 351.063096,108.124 349.503096,108.124 Z M361.123096,106.724 C363.423096,106.724 364.743096,108.304 364.743096,110.564 L364.743096,116.684 L363.203096,116.684 L363.203096,110.744 C363.203096,109.204 362.283096,108.144 360.783096,108.144 C359.283096,108.144 358.223096,109.224 358.223096,110.744 L358.223096,116.684 L356.683096,116.684 L356.683096,106.944 L358.123096,106.944 L358.123096,108.004 C358.803096,107.204 359.863096,106.724 361.123096,106.724 Z M372.023096,115.504 C372.403096,115.504 372.823096,115.464 373.323096,115.384 L373.323096,116.684 C372.823096,116.804 372.323096,116.904 371.703096,116.904 C369.783096,116.904 368.423096,115.964 368.423096,113.744 L368.423096,108.324 L366.783096,108.324 L366.783096,106.944 L368.423096,106.944 L368.423096,104.284 L369.963096,104.284 L369.963096,106.944 L373.003096,106.944 L373.003096,108.324 L369.963096,108.324 L369.963096,113.644 C369.963096,115.104 370.803096,115.504 372.023096,115.504 Z" id="SoftwareDevelopment" fill="#FFFFFF"></path>
            </g>
        </g>
    </g>
</svg>