<?xml version="1.0" encoding="UTF-8"?>
<svg width="176px" height="115px" viewBox="0 0 176 115" version="1.1" xmlns="http://www.w3.org/2000/svg" xmlns:xlink="http://www.w3.org/1999/xlink">
    <!-- Generator: Sketch 53.2 (72643) - https://sketchapp.com -->
    <title>Group 6</title>
    <desc>Created with Sketch.</desc>
    <defs>
        <linearGradient x1="74.000038%" y1="48.0318777%" x2="-16.1444198%" y2="56.5078698%" id="linearGradient-1">
            <stop stop-color="#FA8561" offset="0%"></stop>
            <stop stop-color="#D31CF7" offset="100%"></stop>
        </linearGradient>
    </defs>
    <g id="Page-1" stroke="none" stroke-width="1" fill="none" fill-rule="evenodd">
        <g id="Desktop-HD-Copy-23" transform="translate(-1368.000000, -691.000000)" fill-rule="nonzero">
            <g id="Group-6" transform="translate(1368.678795, 691.928000)">
                <path d="M29.944,23.94 C35.492,25.916 38.836,30.248 38.836,36.328 C38.836,44.992 32.072,51.072 22.344,51.072 L6.82121026e-13,51.072 L6.82121026e-13,0.912 L17.784,0.912 C27.056,0.912 33.668,6.612 33.668,14.896 C33.668,18.62 32.3,21.66 29.944,23.94 Z M16.948,9.728 L9.88,9.728 L9.88,21.204 L16.948,21.204 C21.204,21.204 23.484,18.848 23.484,15.428 C23.484,11.932 21.204,9.728 16.948,9.728 Z M21.584,42.256 C26.068,42.256 28.728,39.9 28.728,35.948 C28.728,32.072 26.068,29.64 21.584,29.64 L9.88,29.64 L9.88,42.256 L21.584,42.256 Z M91.178137,1.70530257e-13 L94.522137,1.70530257e-13 L94.522137,51.072 L84.262137,51.072 L84.262137,24.244 L71.646137,40.128 L68.302137,40.128 L55.686137,24.244 L55.686137,51.072 L45.426137,51.072 L45.426137,1.70530257e-13 L48.770137,1.70530257e-13 L69.974137,27.208 L91.178137,1.70530257e-13 Z M163.888274,0.912 L175.288274,0.912 L155.224274,51.984 L151.880274,51.984 L137.896274,20.596 L123.836274,51.984 L120.492274,51.984 L100.428274,0.912 L111.828274,0.912 L123.000274,30.476 L136.148274,1.70530257e-13 L139.568274,1.70530257e-13 L152.716274,30.476 L163.888274,0.912 Z" id="BMW" fill="url(#linearGradient-1)"></path>
                <path d="M42.0512055,110.072 L40.9112055,107.392 L34.4712055,107.392 L33.3312055,110.072 L31.6912055,110.072 L37.4112055,96.652 L37.9912055,96.652 L43.7112055,110.072 L42.0512055,110.072 Z M40.3312055,105.992 L37.6912055,99.512 L35.0512055,105.992 L40.3312055,105.992 Z M51.1512055,100.112 C53.9512055,100.112 55.9712055,102.332 55.9712055,105.192 C55.9712055,108.072 53.9312055,110.292 51.1512055,110.292 C49.7112055,110.292 48.3512055,109.692 47.5712055,108.652 L47.5712055,113.672 L46.0312055,113.672 L46.0312055,100.332 L47.4712055,100.332 L47.4712055,101.892 C48.2312055,100.772 49.6112055,100.112 51.1512055,100.112 Z M50.9312055,108.872 C52.9112055,108.872 54.3912055,107.332 54.3912055,105.212 C54.3912055,103.092 52.9312055,101.532 50.9312055,101.532 C49.2512055,101.532 47.5512055,102.632 47.5512055,105.192 C47.5512055,107.752 49.2312055,108.872 50.9312055,108.872 Z M63.7912055,100.112 C66.5912055,100.112 68.6112055,102.332 68.6112055,105.192 C68.6112055,108.072 66.5712055,110.292 63.7912055,110.292 C62.3512055,110.292 60.9912055,109.692 60.2112055,108.652 L60.2112055,113.672 L58.6712055,113.672 L58.6712055,100.332 L60.1112055,100.332 L60.1112055,101.892 C60.8712055,100.772 62.2512055,100.112 63.7912055,100.112 Z M63.5712055,108.872 C65.5512055,108.872 67.0312055,107.332 67.0312055,105.212 C67.0312055,103.092 65.5712055,101.532 63.5712055,101.532 C61.8912055,101.532 60.1912055,102.632 60.1912055,105.192 C60.1912055,107.752 61.8712055,108.872 63.5712055,108.872 Z M80.9512055,96.872 C85.4312055,96.872 88.1312055,99.612 88.1312055,103.452 C88.1312055,107.232 85.4312055,110.072 80.9512055,110.072 L77.0312055,110.072 L77.0312055,96.872 L80.9512055,96.872 Z M80.9312055,98.272 L78.5912055,98.272 L78.5912055,108.672 L80.9312055,108.672 C84.4712055,108.672 86.5112055,106.412 86.5112055,103.452 C86.5112055,100.432 84.4712055,98.272 80.9312055,98.272 Z M99.5112055,104.512 C99.5112055,105.032 99.4312055,105.492 99.3912055,105.672 L91.7112055,105.672 C91.9112055,107.612 93.3512055,108.872 95.2712055,108.872 C96.4912055,108.872 97.4512055,108.352 98.2512055,107.552 L99.1512055,108.592 C98.1712055,109.632 96.8512055,110.292 95.2512055,110.292 C92.3112055,110.292 90.0912055,108.072 90.0912055,105.212 C90.0912055,102.372 92.2712055,100.112 95.0712055,100.112 C97.5712055,100.112 99.5112055,101.912 99.5112055,104.512 Z M95.0312055,101.512 C93.3912055,101.512 92.0912055,102.632 91.7712055,104.312 L97.9312055,104.312 C97.9112055,102.512 96.5912055,101.512 95.0312055,101.512 Z M105.151205,100.112 C106.551205,100.112 107.651205,100.712 108.411205,101.652 L107.471205,102.612 C106.831205,101.952 105.991205,101.532 105.071205,101.532 C104.151205,101.532 103.451205,101.952 103.451205,102.752 C103.451205,103.412 103.951205,103.732 105.031205,104.172 L105.931205,104.552 C107.691205,105.292 108.511205,106.052 108.511205,107.432 C108.511205,109.332 106.891205,110.292 105.091205,110.292 C103.371205,110.292 102.071205,109.432 101.291205,108.392 L102.271205,107.372 C103.071205,108.212 103.891205,108.872 105.071205,108.872 C106.091205,108.872 106.931205,108.372 106.931205,107.492 C106.931205,106.652 106.211205,106.332 105.231205,105.932 L104.291205,105.532 C102.811205,104.912 101.871205,104.232 101.871205,102.832 C101.871205,101.072 103.371205,100.112 105.151205,100.112 Z M112.071205,95.492 C112.691205,95.492 113.211205,95.992 113.211205,96.612 C113.211205,97.252 112.691205,97.732 112.071205,97.732 C111.411205,97.732 110.911205,97.252 110.911205,96.612 C110.911205,95.992 111.411205,95.492 112.071205,95.492 Z M112.831205,100.332 L112.831205,110.072 L111.291205,110.072 L111.291205,100.332 L112.831205,100.332 Z M124.111205,100.332 L125.571205,100.332 L125.571205,109.132 C125.571205,112.132 123.671205,113.892 120.831205,113.892 C118.791205,113.892 117.211205,112.972 116.251205,112.012 L117.151205,110.932 C118.091205,111.752 119.191205,112.472 120.791205,112.472 C122.771205,112.472 124.031205,111.372 124.031205,109.212 L124.031205,108.352 C123.231205,109.372 121.871205,109.972 120.411205,109.972 C117.671205,109.972 115.631205,107.892 115.631205,105.052 C115.631205,102.232 117.671205,100.112 120.411205,100.112 C121.951205,100.112 123.351205,100.792 124.111205,101.912 L124.111205,100.332 Z M120.651205,108.552 C122.351205,108.552 124.051205,107.492 124.051205,105.052 C124.051205,102.612 122.331205,101.572 120.651205,101.572 C118.671205,101.572 117.191205,103.012 117.191205,105.072 C117.191205,107.132 118.671205,108.552 120.651205,108.552 Z M133.391205,100.112 C135.691205,100.112 137.011205,101.692 137.011205,103.952 L137.011205,110.072 L135.471205,110.072 L135.471205,104.132 C135.471205,102.592 134.551205,101.532 133.051205,101.532 C131.551205,101.532 130.491205,102.612 130.491205,104.132 L130.491205,110.072 L128.951205,110.072 L128.951205,100.332 L130.391205,100.332 L130.391205,101.392 C131.071205,100.592 132.131205,100.112 133.391205,100.112 Z" id="AppDesign" fill="#FFFFFF"></path>
            </g>
        </g>
    </g>
</svg>