<?xml version="1.0" encoding="UTF-8"?>
<svg width="497px" height="120px" viewBox="0 0 497 120" version="1.1" xmlns="http://www.w3.org/2000/svg" xmlns:xlink="http://www.w3.org/1999/xlink">
    <!-- Generator: Sketch 53.2 (72643) - https://sketchapp.com -->
    <title>Group 8</title>
    <desc>Created with Sketch.</desc>
    <defs>
        <linearGradient x1="74.000038%" y1="49.5446056%" x2="-16.1444198%" y2="51.5058248%" id="linearGradient-1">
            <stop stop-color="#FA8561" offset="0%"></stop>
            <stop stop-color="#D31CF7" offset="100%"></stop>
        </linearGradient>
    </defs>
    <g id="Page-1" stroke="none" stroke-width="1" fill="none" fill-rule="evenodd">
        <g id="Desktop-HD-Copy-23" transform="translate(-1809.000000, -314.000000)" fill-rule="nonzero">
            <g id="Group-8" transform="translate(1809.849041, 314.000000)">
                <path d="M19.228,5.928 C27.208,5.928 32.832,9.956 35.796,15.428 L28.804,20.824 C26.372,17.176 23.332,15.048 19.228,15.048 C15.884,15.048 12.996,16.568 12.996,19.912 C12.996,22.8 15.2,24.016 18.848,25.688 L24.548,28.196 C32.452,31.692 36.936,35.72 36.936,42.864 C36.936,52.212 29.336,57.912 19.38,57.912 C10.716,57.912 3.724,53.504 9.09494702e-13,46.816 L7.068,41.496 C9.804,45.296 13.376,48.792 19.38,48.792 C23.788,48.792 26.524,46.74 26.524,43.244 C26.524,39.976 24.092,38.836 20.14,37.012 L14.744,34.58 C7.6,31.312 2.584,27.208 2.584,20.14 C2.584,11.476 9.804,5.928 19.228,5.928 Z M65.034137,18.544 C75.674137,18.544 83.274137,26.828 83.274137,38.152 C83.274137,49.476 75.674137,57.912 65.034137,57.912 C60.398137,57.912 56.446137,56.24 53.786137,53.352 L53.786137,70.68 L43.526137,70.68 L43.526137,19.38 L52.950137,19.38 L52.950137,24.092 C55.534137,20.52 59.790137,18.544 65.034137,18.544 Z M63.134137,48.564 C68.454137,48.564 72.862137,44.612 72.862137,38.228 C72.862137,31.844 68.530137,27.816 63.134137,27.816 C58.422137,27.816 53.634137,30.932 53.634137,38.152 C53.634137,45.296 58.346137,48.564 63.134137,48.564 Z M104.988274,18.544 C114.564274,18.544 121.100274,23.94 121.100274,34.656 L121.100274,57 L111.676274,57 L111.676274,53.352 C109.016274,56.164 105.064274,57.912 100.200274,57.912 C91.992274,57.912 87.204274,53.048 87.204274,46.664 C87.204274,39.824 92.752274,35.72 101.416274,35.72 L110.840274,35.72 L110.840274,34.048 C110.840274,29.944 108.484274,27.436 103.848274,27.436 C99.820274,27.436 97.008274,29.336 93.892274,32.604 L88.572274,26.296 C92.980274,21.052 98.376274,18.544 104.988274,18.544 Z M102.936274,50.388 C107.268274,50.388 110.840274,47.348 110.840274,42.94 L110.840274,42.484 L102.784274,42.484 C99.440274,42.484 97.540274,43.776 97.540274,46.284 C97.540274,48.868 99.744274,50.388 102.936274,50.388 Z M148.970411,18.924 C150.338411,18.924 151.326411,19.076 152.314411,19.38 L152.314411,28.424 L149.578411,28.424 C143.650411,28.424 139.470411,31.464 139.470411,38.228 L139.470411,57 L129.210411,57 L129.210411,19.38 L138.634411,19.38 L138.634411,23.94 C141.142411,20.672 144.866411,18.924 148.970411,18.924 Z M191.432548,36.024 C191.432548,38.152 191.052548,40.356 190.748548,41.648 L164.300548,41.648 C165.592548,46.436 169.544548,49.096 174.940548,49.096 C179.044548,49.096 182.388548,47.652 185.428548,45.296 L189.684548,52.288 C185.428548,55.86 180.412548,57.912 174.636548,57.912 C162.704548,57.912 154.040548,49.324 154.040548,38.228 C154.040548,27.132 162.628548,18.544 173.724548,18.544 C184.288548,18.544 191.432548,26.296 191.432548,36.024 Z M173.344548,26.828 C169.012548,26.828 165.516548,29.716 164.300548,34.428 L181.476548,34.428 C181.400548,29.64 177.676548,26.828 173.344548,26.828 Z M236.456822,48.716 C237.672822,48.716 239.344822,48.564 241.320822,48.412 L241.320822,57 C239.192822,57.532 236.912822,57.912 234.252822,57.912 C224.980822,57.912 219.204822,53.428 219.204822,43.776 L219.204822,28.044 L213.276822,28.044 L213.276822,19.38 L219.204822,19.38 L219.204822,9.88 L229.464822,9.88 L229.464822,19.38 L240.104822,19.38 L240.104822,28.044 L229.464822,28.044 L229.464822,42.864 C229.464822,47.196 231.744822,48.716 236.456822,48.716 Z M264.250959,18.544 C275.346959,18.544 284.466959,27.056 284.466959,38.152 C284.466959,49.324 275.346959,57.836 264.174959,57.836 C253.002959,57.836 244.110959,49.324 244.110959,38.152 C244.110959,27.056 253.002959,18.544 264.250959,18.544 Z M264.250959,27.892 C258.550959,27.892 254.522959,32.3 254.522959,38.228 C254.522959,44.156 258.550959,48.412 264.250959,48.412 C269.798959,48.412 273.978959,44.08 273.978959,38.228 C273.978959,32.3 269.798959,27.892 264.250959,27.892 Z M326.603233,5.928 C334.583233,5.928 340.207233,9.956 343.171233,15.428 L336.179233,20.824 C333.747233,17.176 330.707233,15.048 326.603233,15.048 C323.259233,15.048 320.371233,16.568 320.371233,19.912 C320.371233,22.8 322.575233,24.016 326.223233,25.688 L331.923233,28.196 C339.827233,31.692 344.311233,35.72 344.311233,42.864 C344.311233,52.212 336.711233,57.912 326.755233,57.912 C318.091233,57.912 311.099233,53.504 307.375233,46.816 L314.443233,41.496 C317.179233,45.296 320.751233,48.792 326.755233,48.792 C331.163233,48.792 333.899233,46.74 333.899233,43.244 C333.899233,39.976 331.467233,38.836 327.515233,37.012 L322.119233,34.58 C314.975233,31.312 309.959233,27.208 309.959233,20.14 C309.959233,11.476 317.179233,5.928 326.603233,5.928 Z M371.49737,18.544 C380.08537,18.544 385.48137,24.624 385.48137,33.668 L385.48137,57 L375.29737,57 L375.29737,35.112 C375.29737,30.704 372.48537,27.816 368.30537,27.816 C364.12537,27.816 361.16137,30.78 361.16137,35.112 L361.16137,57 L350.90137,57 L350.90137,1.42108547e-13 L361.16137,1.42108547e-13 L361.16137,22.572 C363.66937,20.064 367.24137,18.544 371.49737,18.544 Z M409.019507,18.544 C418.595507,18.544 425.131507,23.94 425.131507,34.656 L425.131507,57 L415.707507,57 L415.707507,53.352 C413.047507,56.164 409.095507,57.912 404.231507,57.912 C396.023507,57.912 391.235507,53.048 391.235507,46.664 C391.235507,39.824 396.783507,35.72 405.447507,35.72 L414.871507,35.72 L414.871507,34.048 C414.871507,29.944 412.515507,27.436 407.879507,27.436 C403.851507,27.436 401.039507,29.336 397.923507,32.604 L392.603507,26.296 C397.011507,21.052 402.407507,18.544 409.019507,18.544 Z M406.967507,50.388 C411.299507,50.388 414.871507,47.348 414.871507,42.94 L414.871507,42.484 L406.815507,42.484 C403.471507,42.484 401.571507,43.776 401.571507,46.284 C401.571507,48.868 403.775507,50.388 406.967507,50.388 Z M453.001644,18.924 C454.369644,18.924 455.357644,19.076 456.345644,19.38 L456.345644,28.424 L453.609644,28.424 C447.681644,28.424 443.501644,31.464 443.501644,38.228 L443.501644,57 L433.241644,57 L433.241644,19.38 L442.665644,19.38 L442.665644,23.94 C445.173644,20.672 448.897644,18.924 453.001644,18.924 Z M495.463781,36.024 C495.463781,38.152 495.083781,40.356 494.779781,41.648 L468.331781,41.648 C469.623781,46.436 473.575781,49.096 478.971781,49.096 C483.075781,49.096 486.419781,47.652 489.459781,45.296 L493.715781,52.288 C489.459781,55.86 484.443781,57.912 478.667781,57.912 C466.735781,57.912 458.071781,49.324 458.071781,38.228 C458.071781,27.132 466.659781,18.544 477.755781,18.544 C488.319781,18.544 495.463781,26.296 495.463781,36.024 Z M477.375781,26.828 C473.043781,26.828 469.547781,29.716 468.331781,34.428 L485.507781,34.428 C485.431781,29.64 481.707781,26.828 477.375781,26.828 Z" id="SparetoShare" fill="url(#linearGradient-1)"></path>
                <path d="M204.380959,116 L203.240959,113.32 L196.800959,113.32 L195.660959,116 L194.020959,116 L199.740959,102.58 L200.320959,102.58 L206.040959,116 L204.380959,116 Z M202.660959,111.92 L200.020959,105.44 L197.380959,111.92 L202.660959,111.92 Z M213.480959,106.04 C216.280959,106.04 218.300959,108.26 218.300959,111.12 C218.300959,114 216.260959,116.22 213.480959,116.22 C212.040959,116.22 210.680959,115.62 209.900959,114.58 L209.900959,119.6 L208.360959,119.6 L208.360959,106.26 L209.800959,106.26 L209.800959,107.82 C210.560959,106.7 211.940959,106.04 213.480959,106.04 Z M213.260959,114.8 C215.240959,114.8 216.720959,113.26 216.720959,111.14 C216.720959,109.02 215.260959,107.46 213.260959,107.46 C211.580959,107.46 209.880959,108.56 209.880959,111.12 C209.880959,113.68 211.560959,114.8 213.260959,114.8 Z M226.120959,106.04 C228.920959,106.04 230.940959,108.26 230.940959,111.12 C230.940959,114 228.900959,116.22 226.120959,116.22 C224.680959,116.22 223.320959,115.62 222.540959,114.58 L222.540959,119.6 L221.000959,119.6 L221.000959,106.26 L222.440959,106.26 L222.440959,107.82 C223.200959,106.7 224.580959,106.04 226.120959,106.04 Z M225.900959,114.8 C227.880959,114.8 229.360959,113.26 229.360959,111.14 C229.360959,109.02 227.900959,107.46 225.900959,107.46 C224.220959,107.46 222.520959,108.56 222.520959,111.12 C222.520959,113.68 224.200959,114.8 225.900959,114.8 Z M243.280959,102.8 C247.760959,102.8 250.460959,105.54 250.460959,109.38 C250.460959,113.16 247.760959,116 243.280959,116 L239.360959,116 L239.360959,102.8 L243.280959,102.8 Z M243.260959,104.2 L240.920959,104.2 L240.920959,114.6 L243.260959,114.6 C246.800959,114.6 248.840959,112.34 248.840959,109.38 C248.840959,106.36 246.800959,104.2 243.260959,104.2 Z M261.840959,110.44 C261.840959,110.96 261.760959,111.42 261.720959,111.6 L254.040959,111.6 C254.240959,113.54 255.680959,114.8 257.600959,114.8 C258.820959,114.8 259.780959,114.28 260.580959,113.48 L261.480959,114.52 C260.500959,115.56 259.180959,116.22 257.580959,116.22 C254.640959,116.22 252.420959,114 252.420959,111.14 C252.420959,108.3 254.600959,106.04 257.400959,106.04 C259.900959,106.04 261.840959,107.84 261.840959,110.44 Z M257.360959,107.44 C255.720959,107.44 254.420959,108.56 254.100959,110.24 L260.260959,110.24 C260.240959,108.44 258.920959,107.44 257.360959,107.44 Z M267.480959,106.04 C268.880959,106.04 269.980959,106.64 270.740959,107.58 L269.800959,108.54 C269.160959,107.88 268.320959,107.46 267.400959,107.46 C266.480959,107.46 265.780959,107.88 265.780959,108.68 C265.780959,109.34 266.280959,109.66 267.360959,110.1 L268.260959,110.48 C270.020959,111.22 270.840959,111.98 270.840959,113.36 C270.840959,115.26 269.220959,116.22 267.420959,116.22 C265.700959,116.22 264.400959,115.36 263.620959,114.32 L264.600959,113.3 C265.400959,114.14 266.220959,114.8 267.400959,114.8 C268.420959,114.8 269.260959,114.3 269.260959,113.42 C269.260959,112.58 268.540959,112.26 267.560959,111.86 L266.620959,111.46 C265.140959,110.84 264.200959,110.16 264.200959,108.76 C264.200959,107 265.700959,106.04 267.480959,106.04 Z M274.400959,101.42 C275.020959,101.42 275.540959,101.92 275.540959,102.54 C275.540959,103.18 275.020959,103.66 274.400959,103.66 C273.740959,103.66 273.240959,103.18 273.240959,102.54 C273.240959,101.92 273.740959,101.42 274.400959,101.42 Z M275.160959,106.26 L275.160959,116 L273.620959,116 L273.620959,106.26 L275.160959,106.26 Z M286.440959,106.26 L287.900959,106.26 L287.900959,115.06 C287.900959,118.06 286.000959,119.82 283.160959,119.82 C281.120959,119.82 279.540959,118.9 278.580959,117.94 L279.480959,116.86 C280.420959,117.68 281.520959,118.4 283.120959,118.4 C285.100959,118.4 286.360959,117.3 286.360959,115.14 L286.360959,114.28 C285.560959,115.3 284.200959,115.9 282.740959,115.9 C280.000959,115.9 277.960959,113.82 277.960959,110.98 C277.960959,108.16 280.000959,106.04 282.740959,106.04 C284.280959,106.04 285.680959,106.72 286.440959,107.84 L286.440959,106.26 Z M282.980959,114.48 C284.680959,114.48 286.380959,113.42 286.380959,110.98 C286.380959,108.54 284.660959,107.5 282.980959,107.5 C281.000959,107.5 279.520959,108.94 279.520959,111 C279.520959,113.06 281.000959,114.48 282.980959,114.48 Z M295.720959,106.04 C298.020959,106.04 299.340959,107.62 299.340959,109.88 L299.340959,116 L297.800959,116 L297.800959,110.06 C297.800959,108.52 296.880959,107.46 295.380959,107.46 C293.880959,107.46 292.820959,108.54 292.820959,110.06 L292.820959,116 L291.280959,116 L291.280959,106.26 L292.720959,106.26 L292.720959,107.32 C293.400959,106.52 294.460959,106.04 295.720959,106.04 Z" id="AppDesign" fill="#FFFFFF"></path>
            </g>
        </g>
    </g>
</svg>