<?xml version="1.0" encoding="UTF-8"?>
<svg width="572px" height="189px" viewBox="0 0 572 189" version="1.1" xmlns="http://www.w3.org/2000/svg" xmlns:xlink="http://www.w3.org/1999/xlink">
    <!-- Generator: Sketch 53.2 (72643) - https://sketchapp.com -->
    <title>Highkey</title>
    <desc>Created with Sketch.</desc>
    <defs>
        <linearGradient x1="74.000038%" y1="48.4592314%" x2="-16.1444198%" y2="55.0947654%" id="linearGradient-1">
            <stop stop-color="#FA8561" offset="0%"></stop>
            <stop stop-color="#D31CF7" offset="100%"></stop>
        </linearGradient>
    </defs>
    <g id="Page-1" stroke="none" stroke-width="1" fill="none" fill-rule="evenodd">
        <g id="Desktop-HD-Copy-27" transform="translate(-1728.000000, -75.000000)">
            <g id="Highkey" transform="translate(1728.000000, 75.000000)">
                <rect id="Rectangle-Copy-3" fill="#000000" x="0" y="0" width="572" height="189" rx="16"></rect>
                <path d="M190.712,64.524 L190.712,114.684 L180.452,114.684 L180.452,93.024 L158.26,93.024 L158.26,114.684 L148,114.684 L148,64.524 L158.26,64.524 L158.26,83.752 L180.452,83.752 L180.452,64.524 L190.712,64.524 Z M204.446137,57 C208.094137,57 211.058137,59.736 211.058137,63.384 C211.058137,66.956 208.094137,69.692 204.446137,69.692 C200.798137,69.692 197.910137,66.956 197.910137,63.384 C197.910137,59.736 200.798137,57 204.446137,57 Z M209.614137,77.064 L209.614137,114.684 L199.354137,114.684 L199.354137,77.064 L209.614137,77.064 Z M246.376274,77.064 L255.800274,77.064 L255.800274,110.504 C255.800274,123.196 247.668274,129.276 236.344274,129.276 C228.136274,129.276 222.132274,126.084 217.876274,122.284 L223.272274,115.14 C226.996274,118.028 230.644274,120.004 235.508274,120.004 C241.284274,120.004 245.540274,117.192 245.540274,111.112 L245.540274,109.06 C242.880274,111.948 238.776274,113.544 234.064274,113.544 C223.728274,113.544 216.052274,106.02 216.052274,94.848 C216.052274,83.524 223.804274,76.228 234.064274,76.228 C239.536274,76.228 243.792274,78.204 246.376274,81.776 L246.376274,77.064 Z M236.192274,104.88 C240.980274,104.88 245.692274,101.612 245.692274,94.696 C245.692274,87.78 240.904274,84.968 236.192274,84.968 C230.872274,84.968 226.464274,88.54 226.464274,94.772 C226.464274,101.004 230.948274,104.88 236.192274,104.88 Z M284.810411,76.228 C293.398411,76.228 298.794411,82.308 298.794411,91.352 L298.794411,114.684 L288.610411,114.684 L288.610411,92.796 C288.610411,88.388 285.798411,85.5 281.618411,85.5 C277.438411,85.5 274.474411,88.464 274.474411,92.796 L274.474411,114.684 L264.214411,114.684 L264.214411,57.684 L274.474411,57.684 L274.474411,80.256 C276.982411,77.748 280.554411,76.228 284.810411,76.228 Z M343.992548,114.684 L332.288548,114.684 L317.164548,93.936 L317.164548,114.684 L306.904548,114.684 L306.904548,57.684 L317.164548,57.684 L317.164548,93.176 L330.692548,77.064 L342.852548,77.064 L328.716548,93.708 L343.992548,114.684 Z M381.438685,93.708 C381.438685,95.836 381.058685,98.04 380.754685,99.332 L354.306685,99.332 C355.598685,104.12 359.550685,106.78 364.946685,106.78 C369.050685,106.78 372.394685,105.336 375.434685,102.98 L379.690685,109.972 C375.434685,113.544 370.418685,115.596 364.642685,115.596 C352.710685,115.596 344.046685,107.008 344.046685,95.912 C344.046685,84.816 352.634685,76.228 363.730685,76.228 C374.294685,76.228 381.438685,83.98 381.438685,93.708 Z M363.350685,84.512 C359.018685,84.512 355.522685,87.4 354.306685,92.112 L371.482685,92.112 C371.406685,87.324 367.682685,84.512 363.350685,84.512 Z M412.652822,77.064 L423.444822,77.064 L405.432822,117.952 C402.012822,125.704 397.528822,129.276 390.460822,129.276 C388.332822,129.276 385.824822,128.896 383.848822,128.364 L383.848822,119.776 C385.596822,119.928 387.040822,120.08 388.256822,120.08 C391.524822,120.08 394.184822,119.244 396.084822,114.988 L397.224822,112.48 L382.784822,77.064 L393.652822,77.064 L402.848822,101.764 L412.652822,77.064 Z" fill="url(#linearGradient-1)" fill-rule="nonzero"></path>
            </g>
        </g>
    </g>
</svg>