<?xml version="1.0" encoding="UTF-8"?>
<svg width="897px" height="217px" viewBox="0 0 897 217" version="1.1" xmlns="http://www.w3.org/2000/svg" xmlns:xlink="http://www.w3.org/1999/xlink">
    <!-- Generator: Sketch 53.2 (72643) - https://sketchapp.com -->
    <title>InthisprojectIservedastheleaddesignerfortheUIandflowoftheoriginalHighkey.Theapphassinceredefineditspurposeandmethodaftermyexit.</title>
    <desc>Created with Sketch.</desc>
    <g id="Page-1" stroke="none" stroke-width="1" fill="none" fill-rule="evenodd">
        <g id="Desktop-HD-Copy-32" transform="translate(-253.000000, -224.000000)" fill="#404648" fill-rule="nonzero">
            <path d="M257.546,228.32 L257.546,260 L253.802,260 L253.802,228.32 L257.546,228.32 Z M275.102,236.096 C280.622,236.096 283.79,239.888 283.79,245.312 L283.79,260 L280.094,260 L280.094,245.744 C280.094,242.048 277.886,239.504 274.286,239.504 C270.686,239.504 268.142,242.096 268.142,245.744 L268.142,260 L264.446,260 L264.446,236.624 L267.902,236.624 L267.902,239.168 C269.534,237.248 272.078,236.096 275.102,236.096 Z M312.182,257.168 C313.094,257.168 314.102,257.072 315.302,256.88 L315.302,260 C314.102,260.288 312.902,260.528 311.414,260.528 C306.806,260.528 303.542,258.272 303.542,252.944 L303.542,239.936 L299.606,239.936 L299.606,236.624 L303.542,236.624 L303.542,230.24 L307.238,230.24 L307.238,236.624 L314.534,236.624 L314.534,239.936 L307.238,239.936 L307.238,252.704 C307.238,256.208 309.254,257.168 312.182,257.168 Z M330.266,236.096 C335.738,236.096 338.906,239.888 338.906,245.312 L338.906,260 L335.21,260 L335.21,245.792 C335.21,242.096 333.002,239.504 329.402,239.504 C325.802,239.504 323.258,242.144 323.258,245.792 L323.258,260 L319.562,260 L319.562,224 L323.258,224 L323.258,239.264 C324.794,237.296 327.242,236.096 330.266,236.096 Z M347.342,225.008 C348.83,225.008 350.078,226.208 350.078,227.696 C350.078,229.232 348.83,230.384 347.342,230.384 C345.758,230.384 344.558,229.232 344.558,227.696 C344.558,226.208 345.758,225.008 347.342,225.008 Z M349.166,236.624 L349.166,260 L345.47,260 L345.47,236.624 L349.166,236.624 Z M363.074,236.096 C366.434,236.096 369.074,237.536 370.898,239.792 L368.642,242.096 C367.106,240.512 365.09,239.504 362.882,239.504 C360.674,239.504 358.994,240.512 358.994,242.432 C358.994,244.016 360.194,244.784 362.786,245.84 L364.946,246.752 C369.17,248.528 371.138,250.352 371.138,253.664 C371.138,258.224 367.25,260.528 362.93,260.528 C358.802,260.528 355.682,258.464 353.81,255.968 L356.162,253.52 C358.082,255.536 360.05,257.12 362.882,257.12 C365.33,257.12 367.346,255.92 367.346,253.808 C367.346,251.792 365.618,251.024 363.266,250.064 L361.01,249.104 C357.458,247.616 355.202,245.984 355.202,242.624 C355.202,238.4 358.802,236.096 363.074,236.096 Z M401.018,236.096 C407.738,236.096 412.586,241.424 412.586,248.288 C412.586,255.2 407.69,260.528 401.018,260.528 C397.562,260.528 394.298,259.088 392.426,256.592 L392.426,268.64 L388.73,268.64 L388.73,236.624 L392.186,236.624 L392.186,240.368 C394.01,237.68 397.322,236.096 401.018,236.096 Z M400.49,257.12 C405.242,257.12 408.794,253.424 408.794,248.336 C408.794,243.248 405.29,239.504 400.49,239.504 C396.458,239.504 392.378,242.144 392.378,248.288 C392.378,254.432 396.41,257.12 400.49,257.12 Z M428.51,236.432 C429.278,236.432 429.758,236.528 430.238,236.624 L430.238,239.888 L428.846,239.888 C425.054,239.888 421.502,242.288 421.502,246.752 L421.502,260 L417.806,260 L417.806,236.624 L421.262,236.624 L421.262,239.984 C422.99,237.68 425.726,236.432 428.51,236.432 Z M444.002,236.096 C450.77,236.096 456.242,241.424 456.242,248.288 C456.242,255.104 450.77,260.48 443.954,260.48 C437.186,260.432 431.762,255.152 431.762,248.288 C431.762,241.424 437.138,236.096 444.002,236.096 Z M444.002,239.504 C439.106,239.504 435.506,243.344 435.554,248.336 C435.554,253.28 439.106,257.072 443.954,257.072 C448.802,257.072 452.45,253.232 452.45,248.336 C452.45,243.296 448.802,239.504 444.002,239.504 Z M463.334,225.008 C464.822,225.008 466.07,226.208 466.07,227.696 C466.07,229.232 464.822,230.384 463.334,230.384 C461.75,230.384 460.55,229.232 460.55,227.696 C460.55,226.208 461.75,225.008 463.334,225.008 Z M465.158,236.624 L465.158,261.584 C465.158,266.912 461.942,269.168 457.478,269.168 C456.278,269.168 455.366,269.024 454.502,268.784 L454.502,265.664 C455.318,265.76 455.894,265.808 456.662,265.808 C459.494,265.808 461.462,264.8 461.462,261.344 L461.462,236.624 L465.158,236.624 Z M492.938,246.656 C492.938,247.904 492.746,249.008 492.65,249.44 L474.218,249.44 C474.698,254.096 478.154,257.12 482.762,257.12 C485.69,257.12 487.994,255.872 489.914,253.952 L492.074,256.448 C489.722,258.944 486.554,260.528 482.714,260.528 C475.658,260.528 470.33,255.2 470.33,248.336 C470.33,241.52 475.562,236.096 482.282,236.096 C488.282,236.096 492.938,240.416 492.938,246.656 Z M482.186,239.456 C478.25,239.456 475.13,242.144 474.362,246.176 L489.146,246.176 C489.098,241.856 485.93,239.456 482.186,239.456 Z M508.718,236.096 C512.942,236.096 516.302,238.112 518.366,241.184 L515.726,243.296 C513.998,240.992 511.79,239.504 508.766,239.504 C503.87,239.504 500.27,243.392 500.27,248.288 C500.27,253.232 503.87,257.12 508.766,257.12 C511.742,257.12 513.95,255.68 515.678,253.376 L518.318,255.44 C516.254,258.512 512.894,260.528 508.718,260.528 C501.902,260.528 496.478,255.152 496.478,248.288 C496.478,241.472 501.902,236.096 508.718,236.096 Z M532.994,257.168 C533.906,257.168 534.914,257.072 536.114,256.88 L536.114,260 C534.914,260.288 533.714,260.528 532.226,260.528 C527.618,260.528 524.354,258.272 524.354,252.944 L524.354,239.936 L520.418,239.936 L520.418,236.624 L524.354,236.624 L524.354,230.24 L528.05,230.24 L528.05,236.624 L535.346,236.624 L535.346,239.936 L528.05,239.936 L528.05,252.704 C528.05,256.208 530.066,257.168 532.994,257.168 Z M556.586,228.32 L556.586,260 L552.842,260 L552.842,228.32 L556.586,228.32 Z M582.962,236.096 C586.322,236.096 588.962,237.536 590.786,239.792 L588.53,242.096 C586.994,240.512 584.978,239.504 582.77,239.504 C580.562,239.504 578.882,240.512 578.882,242.432 C578.882,244.016 580.082,244.784 582.674,245.84 L584.834,246.752 C589.058,248.528 591.026,250.352 591.026,253.664 C591.026,258.224 587.138,260.528 582.818,260.528 C578.69,260.528 575.57,258.464 573.698,255.968 L576.05,253.52 C577.97,255.536 579.938,257.12 582.77,257.12 C585.218,257.12 587.234,255.92 587.234,253.808 C587.234,251.792 585.506,251.024 583.154,250.064 L580.898,249.104 C577.346,247.616 575.09,245.984 575.09,242.624 C575.09,238.4 578.69,236.096 582.962,236.096 Z M617.366,246.656 C617.366,247.904 617.174,249.008 617.078,249.44 L598.646,249.44 C599.126,254.096 602.582,257.12 607.19,257.12 C610.118,257.12 612.422,255.872 614.342,253.952 L616.502,256.448 C614.15,258.944 610.982,260.528 607.142,260.528 C600.086,260.528 594.758,255.2 594.758,248.336 C594.758,241.52 599.99,236.096 606.71,236.096 C612.71,236.096 617.366,240.416 617.366,246.656 Z M606.614,239.456 C602.678,239.456 599.558,242.144 598.79,246.176 L613.574,246.176 C613.526,241.856 610.358,239.456 606.614,239.456 Z M633.29,236.432 C634.058,236.432 634.538,236.528 635.018,236.624 L635.018,239.888 L633.626,239.888 C629.834,239.888 626.282,242.288 626.282,246.752 L626.282,260 L622.586,260 L622.586,236.624 L626.042,236.624 L626.042,239.984 C627.77,237.68 630.506,236.432 633.29,236.432 Z M655.31,236.624 L659.246,236.624 L648.254,260.528 L646.91,260.528 L635.87,236.624 L639.806,236.624 L647.582,254.24 L655.31,236.624 Z M683.282,246.656 C683.282,247.904 683.09,249.008 682.994,249.44 L664.562,249.44 C665.042,254.096 668.498,257.12 673.106,257.12 C676.034,257.12 678.338,255.872 680.258,253.952 L682.418,256.448 C680.066,258.944 676.898,260.528 673.058,260.528 C666.002,260.528 660.674,255.2 660.674,248.336 C660.674,241.52 665.906,236.096 672.626,236.096 C678.626,236.096 683.282,240.416 683.282,246.656 Z M672.53,239.456 C668.594,239.456 665.474,242.144 664.706,246.176 L679.49,246.176 C679.442,241.856 676.274,239.456 672.53,239.456 Z M707.03,224 L710.726,224 L710.726,260 L707.222,260 L707.222,256.256 C705.398,258.944 702.086,260.528 698.39,260.528 C691.718,260.528 686.822,255.2 686.822,248.336 C686.822,241.424 691.718,236.096 698.39,236.096 C701.942,236.096 705.158,237.584 707.03,240.08 L707.03,224 Z M698.918,257.12 C702.95,257.12 707.078,254.48 707.078,248.336 C707.078,242.192 702.95,239.504 698.918,239.504 C694.166,239.504 690.614,243.2 690.614,248.288 C690.614,253.376 694.118,257.12 698.918,257.12 Z M738.158,236.096 C743.486,236.096 747.278,239.312 747.278,245.6 L747.278,260 L743.822,260 L743.822,256.976 C742.142,259.232 739.406,260.528 735.95,260.528 C731.246,260.528 727.79,258.032 727.79,253.952 C727.79,250.016 731.102,247.424 736.19,247.424 L743.582,247.424 L743.582,245.408 C743.582,241.472 741.374,239.504 737.918,239.504 C734.99,239.504 732.926,240.896 731.102,243.248 L728.654,241.232 C730.862,237.68 734.414,236.096 738.158,236.096 Z M736.43,257.456 C740.27,257.456 743.582,254.672 743.582,251.024 L743.582,250.448 L736.622,250.448 C733.358,250.448 731.582,251.552 731.582,253.76 C731.582,256.256 733.838,257.456 736.43,257.456 Z M760.898,236.096 C764.258,236.096 766.898,237.536 768.722,239.792 L766.466,242.096 C764.93,240.512 762.914,239.504 760.706,239.504 C758.498,239.504 756.818,240.512 756.818,242.432 C756.818,244.016 758.018,244.784 760.61,245.84 L762.77,246.752 C766.994,248.528 768.962,250.352 768.962,253.664 C768.962,258.224 765.074,260.528 760.754,260.528 C756.626,260.528 753.506,258.464 751.634,255.968 L753.986,253.52 C755.906,255.536 757.874,257.12 760.706,257.12 C763.154,257.12 765.17,255.92 765.17,253.808 C765.17,251.792 763.442,251.024 761.09,250.064 L758.834,249.104 C755.282,247.616 753.026,245.984 753.026,242.624 C753.026,238.4 756.626,236.096 760.898,236.096 Z M796.202,257.168 C797.114,257.168 798.122,257.072 799.322,256.88 L799.322,260 C798.122,260.288 796.922,260.528 795.434,260.528 C790.826,260.528 787.562,258.272 787.562,252.944 L787.562,239.936 L783.626,239.936 L783.626,236.624 L787.562,236.624 L787.562,230.24 L791.258,230.24 L791.258,236.624 L798.554,236.624 L798.554,239.936 L791.258,239.936 L791.258,252.704 C791.258,256.208 793.274,257.168 796.202,257.168 Z M814.286,236.096 C819.758,236.096 822.926,239.888 822.926,245.312 L822.926,260 L819.23,260 L819.23,245.792 C819.23,242.096 817.022,239.504 813.422,239.504 C809.822,239.504 807.278,242.144 807.278,245.792 L807.278,260 L803.582,260 L803.582,224 L807.278,224 L807.278,239.264 C808.814,237.296 811.262,236.096 814.286,236.096 Z M850.418,246.656 C850.418,247.904 850.226,249.008 850.13,249.44 L831.698,249.44 C832.178,254.096 835.634,257.12 840.242,257.12 C843.17,257.12 845.474,255.872 847.394,253.952 L849.554,256.448 C847.202,258.944 844.034,260.528 840.194,260.528 C833.138,260.528 827.81,255.2 827.81,248.336 C827.81,241.52 833.042,236.096 839.762,236.096 C845.762,236.096 850.418,240.416 850.418,246.656 Z M839.666,239.456 C835.73,239.456 832.61,242.144 831.842,246.176 L846.626,246.176 C846.578,241.856 843.41,239.456 839.666,239.456 Z M871.514,224 L871.514,260 L867.818,260 L867.818,224 L871.514,224 Z M899.294,246.656 C899.294,247.904 899.102,249.008 899.006,249.44 L880.574,249.44 C881.054,254.096 884.51,257.12 889.118,257.12 C892.046,257.12 894.35,255.872 896.27,253.952 L898.43,256.448 C896.078,258.944 892.91,260.528 889.07,260.528 C882.014,260.528 876.686,255.2 876.686,248.336 C876.686,241.52 881.918,236.096 888.638,236.096 C894.638,236.096 899.294,240.416 899.294,246.656 Z M888.542,239.456 C884.606,239.456 881.486,242.144 880.718,246.176 L895.502,246.176 C895.454,241.856 892.286,239.456 888.542,239.456 Z M912.914,236.096 C918.242,236.096 922.034,239.312 922.034,245.6 L922.034,260 L918.578,260 L918.578,256.976 C916.898,259.232 914.162,260.528 910.706,260.528 C906.002,260.528 902.546,258.032 902.546,253.952 C902.546,250.016 905.858,247.424 910.946,247.424 L918.338,247.424 L918.338,245.408 C918.338,241.472 916.13,239.504 912.674,239.504 C909.746,239.504 907.682,240.896 905.858,243.248 L903.41,241.232 C905.618,237.68 909.17,236.096 912.914,236.096 Z M911.186,257.456 C915.026,257.456 918.338,254.672 918.338,251.024 L918.338,250.448 L911.378,250.448 C908.114,250.448 906.338,251.552 906.338,253.76 C906.338,256.256 908.594,257.456 911.186,257.456 Z M947.126,224 L950.822,224 L950.822,260 L947.318,260 L947.318,256.256 C945.494,258.944 942.182,260.528 938.486,260.528 C931.814,260.528 926.918,255.2 926.918,248.336 C926.918,241.424 931.814,236.096 938.486,236.096 C942.038,236.096 945.254,237.584 947.126,240.08 L947.126,224 Z M939.014,257.12 C943.046,257.12 947.174,254.48 947.174,248.336 C947.174,242.192 943.046,239.504 939.014,239.504 C934.262,239.504 930.71,243.2 930.71,248.288 C930.71,253.376 934.214,257.12 939.014,257.12 Z M988.382,224 L992.078,224 L992.078,260 L988.574,260 L988.574,256.256 C986.75,258.944 983.438,260.528 979.742,260.528 C973.07,260.528 968.174,255.2 968.174,248.336 C968.174,241.424 973.07,236.096 979.742,236.096 C983.294,236.096 986.51,237.584 988.382,240.08 L988.382,224 Z M980.27,257.12 C984.302,257.12 988.43,254.48 988.43,248.336 C988.43,242.192 984.302,239.504 980.27,239.504 C975.518,239.504 971.966,243.2 971.966,248.288 C971.966,253.376 975.47,257.12 980.27,257.12 Z M1019.858,246.656 C1019.858,247.904 1019.666,249.008 1019.57,249.44 L1001.138,249.44 C1001.618,254.096 1005.074,257.12 1009.682,257.12 C1012.61,257.12 1014.914,255.872 1016.834,253.952 L1018.994,256.448 C1016.642,258.944 1013.474,260.528 1009.634,260.528 C1002.578,260.528 997.25,255.2 997.25,248.336 C997.25,241.52 1002.482,236.096 1009.202,236.096 C1015.202,236.096 1019.858,240.416 1019.858,246.656 Z M1009.106,239.456 C1005.17,239.456 1002.05,242.144 1001.282,246.176 L1016.066,246.176 C1016.018,241.856 1012.85,239.456 1009.106,239.456 Z M1032.134,236.096 C1035.494,236.096 1038.134,237.536 1039.958,239.792 L1037.702,242.096 C1036.166,240.512 1034.15,239.504 1031.942,239.504 C1029.734,239.504 1028.054,240.512 1028.054,242.432 C1028.054,244.016 1029.254,244.784 1031.846,245.84 L1034.006,246.752 C1038.23,248.528 1040.198,250.352 1040.198,253.664 C1040.198,258.224 1036.31,260.528 1031.99,260.528 C1027.862,260.528 1024.742,258.464 1022.87,255.968 L1025.222,253.52 C1027.142,255.536 1029.11,257.12 1031.942,257.12 C1034.39,257.12 1036.406,255.92 1036.406,253.808 C1036.406,251.792 1034.678,251.024 1032.326,250.064 L1030.07,249.104 C1026.518,247.616 1024.262,245.984 1024.262,242.624 C1024.262,238.4 1027.862,236.096 1032.134,236.096 Z M1047.482,225.008 C1048.97,225.008 1050.218,226.208 1050.218,227.696 C1050.218,229.232 1048.97,230.384 1047.482,230.384 C1045.898,230.384 1044.698,229.232 1044.698,227.696 C1044.698,226.208 1045.898,225.008 1047.482,225.008 Z M1049.306,236.624 L1049.306,260 L1045.61,260 L1045.61,236.624 L1049.306,236.624 Z M1075.118,236.624 L1078.622,236.624 L1078.622,257.744 C1078.622,264.944 1074.062,269.168 1067.246,269.168 C1062.35,269.168 1058.558,266.96 1056.254,264.656 L1058.414,262.064 C1060.67,264.032 1063.31,265.76 1067.15,265.76 C1071.902,265.76 1074.926,263.12 1074.926,257.936 L1074.926,255.872 C1073.006,258.32 1069.742,259.76 1066.238,259.76 C1059.662,259.76 1054.766,254.768 1054.766,247.952 C1054.766,241.184 1059.662,236.096 1066.238,236.096 C1069.934,236.096 1073.294,237.728 1075.118,240.416 L1075.118,236.624 Z M1066.814,256.352 C1070.894,256.352 1074.974,253.808 1074.974,247.952 C1074.974,242.096 1070.846,239.6 1066.814,239.6 C1062.062,239.6 1058.51,243.056 1058.51,248 C1058.51,252.944 1062.062,256.352 1066.814,256.352 Z M1096.13,236.096 C1101.65,236.096 1104.818,239.888 1104.818,245.312 L1104.818,260 L1101.122,260 L1101.122,245.744 C1101.122,242.048 1098.914,239.504 1095.314,239.504 C1091.714,239.504 1089.17,242.096 1089.17,245.744 L1089.17,260 L1085.474,260 L1085.474,236.624 L1088.93,236.624 L1088.93,239.168 C1090.562,237.248 1093.106,236.096 1096.13,236.096 Z M1132.31,246.656 C1132.31,247.904 1132.118,249.008 1132.022,249.44 L1113.59,249.44 C1114.07,254.096 1117.526,257.12 1122.134,257.12 C1125.062,257.12 1127.366,255.872 1129.286,253.952 L1131.446,256.448 C1129.094,258.944 1125.926,260.528 1122.086,260.528 C1115.03,260.528 1109.702,255.2 1109.702,248.336 C1109.702,241.52 1114.934,236.096 1121.654,236.096 C1127.654,236.096 1132.31,240.416 1132.31,246.656 Z M1121.558,239.456 C1117.622,239.456 1114.502,242.144 1113.734,246.176 L1128.518,246.176 C1128.47,241.856 1125.302,239.456 1121.558,239.456 Z M1148.234,236.432 C1149.002,236.432 1149.482,236.528 1149.962,236.624 L1149.962,239.888 L1148.57,239.888 C1144.778,239.888 1141.226,242.288 1141.226,246.752 L1141.226,260 L1137.53,260 L1137.53,236.624 L1140.986,236.624 L1140.986,239.984 C1142.714,237.68 1145.45,236.432 1148.234,236.432 Z M272.636,283.832 C269.756,283.832 267.74,284.792 267.74,288.296 L267.74,293.624 L273.596,293.624 L273.596,296.936 L267.74,296.936 L267.74,317 L264.044,317 L264.044,296.936 L260.684,296.936 L260.684,293.624 L264.044,293.624 L264.044,288.056 C264.044,282.728 267.26,280.472 271.772,280.472 C272.924,280.472 273.836,280.616 274.7,280.856 L274.7,283.976 C273.932,283.88 273.26,283.832 272.636,283.832 Z M287.312,293.096 C294.08,293.096 299.552,298.424 299.552,305.288 C299.552,312.104 294.08,317.48 287.264,317.48 C280.496,317.432 275.072,312.152 275.072,305.288 C275.072,298.424 280.448,293.096 287.312,293.096 Z M287.312,296.504 C282.416,296.504 278.816,300.344 278.864,305.336 C278.864,310.28 282.416,314.072 287.264,314.072 C292.112,314.072 295.76,310.232 295.76,305.336 C295.76,300.296 292.112,296.504 287.312,296.504 Z M315.476,293.432 C316.244,293.432 316.724,293.528 317.204,293.624 L317.204,296.888 L315.812,296.888 C312.02,296.888 308.468,299.288 308.468,303.752 L308.468,317 L304.772,317 L304.772,293.624 L308.228,293.624 L308.228,296.984 C309.956,294.68 312.692,293.432 315.476,293.432 Z M342.716,314.168 C343.628,314.168 344.636,314.072 345.836,313.88 L345.836,317 C344.636,317.288 343.436,317.528 341.948,317.528 C337.34,317.528 334.076,315.272 334.076,309.944 L334.076,296.936 L330.14,296.936 L330.14,293.624 L334.076,293.624 L334.076,287.24 L337.772,287.24 L337.772,293.624 L345.068,293.624 L345.068,296.936 L337.772,296.936 L337.772,309.704 C337.772,313.208 339.788,314.168 342.716,314.168 Z M360.8,293.096 C366.272,293.096 369.44,296.888 369.44,302.312 L369.44,317 L365.744,317 L365.744,302.792 C365.744,299.096 363.536,296.504 359.936,296.504 C356.336,296.504 353.792,299.144 353.792,302.792 L353.792,317 L350.096,317 L350.096,281 L353.792,281 L353.792,296.264 C355.328,294.296 357.776,293.096 360.8,293.096 Z M396.932,303.656 C396.932,304.904 396.74,306.008 396.644,306.44 L378.212,306.44 C378.692,311.096 382.148,314.12 386.756,314.12 C389.684,314.12 391.988,312.872 393.908,310.952 L396.068,313.448 C393.716,315.944 390.548,317.528 386.708,317.528 C379.652,317.528 374.324,312.2 374.324,305.336 C374.324,298.52 379.556,293.096 386.276,293.096 C392.276,293.096 396.932,297.416 396.932,303.656 Z M386.18,296.456 C382.244,296.456 379.124,299.144 378.356,303.176 L393.14,303.176 C393.092,298.856 389.924,296.456 386.18,296.456 Z M439.34,285.32 L439.34,304.424 C439.34,312.872 433.964,317.528 426.812,317.528 C419.516,317.528 414.188,312.872 414.188,304.424 L414.188,285.32 L417.932,285.32 L417.932,304.664 C417.932,311.048 421.868,314.072 426.812,314.072 C431.708,314.072 435.596,311.048 435.596,304.664 L435.596,285.32 L439.34,285.32 Z M450.176,285.32 L450.176,317 L446.432,317 L446.432,285.32 L450.176,285.32 Z M477.896,293.096 C483.224,293.096 487.016,296.312 487.016,302.6 L487.016,317 L483.56,317 L483.56,313.976 C481.88,316.232 479.144,317.528 475.688,317.528 C470.984,317.528 467.528,315.032 467.528,310.952 C467.528,307.016 470.84,304.424 475.928,304.424 L483.32,304.424 L483.32,302.408 C483.32,298.472 481.112,296.504 477.656,296.504 C474.728,296.504 472.664,297.896 470.84,300.248 L468.392,298.232 C470.6,294.68 474.152,293.096 477.896,293.096 Z M476.168,314.456 C480.008,314.456 483.32,311.672 483.32,308.024 L483.32,307.448 L476.36,307.448 C473.096,307.448 471.32,308.552 471.32,310.76 C471.32,313.256 473.576,314.456 476.168,314.456 Z M504.236,293.096 C509.756,293.096 512.924,296.888 512.924,302.312 L512.924,317 L509.228,317 L509.228,302.744 C509.228,299.048 507.02,296.504 503.42,296.504 C499.82,296.504 497.276,299.096 497.276,302.744 L497.276,317 L493.58,317 L493.58,293.624 L497.036,293.624 L497.036,296.168 C498.668,294.248 501.212,293.096 504.236,293.096 Z M538.016,281 L541.712,281 L541.712,317 L538.208,317 L538.208,313.256 C536.384,315.944 533.072,317.528 529.376,317.528 C522.704,317.528 517.808,312.2 517.808,305.336 C517.808,298.424 522.704,293.096 529.376,293.096 C532.928,293.096 536.144,294.584 538.016,297.08 L538.016,281 Z M529.904,314.12 C533.936,314.12 538.064,311.48 538.064,305.336 C538.064,299.192 533.936,296.504 529.904,296.504 C525.152,296.504 521.6,300.2 521.6,305.288 C521.6,310.376 525.104,314.12 529.904,314.12 Z M569.912,283.832 C567.032,283.832 565.016,284.792 565.016,288.296 L565.016,293.624 L570.872,293.624 L570.872,296.936 L565.016,296.936 L565.016,317 L561.32,317 L561.32,296.936 L557.96,296.936 L557.96,293.624 L561.32,293.624 L561.32,288.056 C561.32,282.728 564.536,280.472 569.048,280.472 C570.2,280.472 571.112,280.616 571.976,280.856 L571.976,283.976 C571.208,283.88 570.536,283.832 569.912,283.832 Z M578.444,281 L578.444,317 L574.748,317 L574.748,281 L578.444,281 Z M595.856,293.096 C602.624,293.096 608.096,298.424 608.096,305.288 C608.096,312.104 602.624,317.48 595.808,317.48 C589.04,317.432 583.616,312.152 583.616,305.288 C583.616,298.424 588.992,293.096 595.856,293.096 Z M595.856,296.504 C590.96,296.504 587.36,300.344 587.408,305.336 C587.408,310.28 590.96,314.072 595.808,314.072 C600.656,314.072 604.304,310.232 604.304,305.336 C604.304,300.296 600.656,296.504 595.856,296.504 Z M643.892,293.624 L647.828,293.624 L637.988,317.528 L636.644,317.528 L628.676,299.864 L620.756,317.528 L619.46,317.528 L609.524,293.624 L613.46,293.624 L620.18,310.904 L628.004,293.096 L629.396,293.096 L637.268,310.808 L643.892,293.624 Z M674.684,293.096 C681.452,293.096 686.924,298.424 686.924,305.288 C686.924,312.104 681.452,317.48 674.636,317.48 C667.868,317.432 662.444,312.152 662.444,305.288 C662.444,298.424 667.82,293.096 674.684,293.096 Z M674.684,296.504 C669.788,296.504 666.188,300.344 666.236,305.336 C666.236,310.28 669.788,314.072 674.636,314.072 C679.484,314.072 683.132,310.232 683.132,305.336 C683.132,300.296 679.484,296.504 674.684,296.504 Z M701.312,283.832 C698.432,283.832 696.416,284.792 696.416,288.296 L696.416,293.624 L702.272,293.624 L702.272,296.936 L696.416,296.936 L696.416,317 L692.72,317 L692.72,296.936 L689.36,296.936 L689.36,293.624 L692.72,293.624 L692.72,288.056 C692.72,282.728 695.936,280.472 700.448,280.472 C701.6,280.472 702.512,280.616 703.376,280.856 L703.376,283.976 C702.608,283.88 701.936,283.832 701.312,283.832 Z M725.816,314.168 C726.728,314.168 727.736,314.072 728.936,313.88 L728.936,317 C727.736,317.288 726.536,317.528 725.048,317.528 C720.44,317.528 717.176,315.272 717.176,309.944 L717.176,296.936 L713.24,296.936 L713.24,293.624 L717.176,293.624 L717.176,287.24 L720.872,287.24 L720.872,293.624 L728.168,293.624 L728.168,296.936 L720.872,296.936 L720.872,309.704 C720.872,313.208 722.888,314.168 725.816,314.168 Z M743.9,293.096 C749.372,293.096 752.54,296.888 752.54,302.312 L752.54,317 L748.844,317 L748.844,302.792 C748.844,299.096 746.636,296.504 743.036,296.504 C739.436,296.504 736.892,299.144 736.892,302.792 L736.892,317 L733.196,317 L733.196,281 L736.892,281 L736.892,296.264 C738.428,294.296 740.876,293.096 743.9,293.096 Z M780.032,303.656 C780.032,304.904 779.84,306.008 779.744,306.44 L761.312,306.44 C761.792,311.096 765.248,314.12 769.856,314.12 C772.784,314.12 775.088,312.872 777.008,310.952 L779.168,313.448 C776.816,315.944 773.648,317.528 769.808,317.528 C762.752,317.528 757.424,312.2 757.424,305.336 C757.424,298.52 762.656,293.096 769.376,293.096 C775.376,293.096 780.032,297.416 780.032,303.656 Z M769.28,296.456 C765.344,296.456 762.224,299.144 761.456,303.176 L776.24,303.176 C776.192,298.856 773.024,296.456 769.28,296.456 Z M807.992,293.096 C814.76,293.096 820.232,298.424 820.232,305.288 C820.232,312.104 814.76,317.48 807.944,317.48 C801.176,317.432 795.752,312.152 795.752,305.288 C795.752,298.424 801.128,293.096 807.992,293.096 Z M807.992,296.504 C803.096,296.504 799.496,300.344 799.544,305.336 C799.544,310.28 803.096,314.072 807.944,314.072 C812.792,314.072 816.44,310.232 816.44,305.336 C816.44,300.296 812.792,296.504 807.992,296.504 Z M836.156,293.432 C836.924,293.432 837.404,293.528 837.884,293.624 L837.884,296.888 L836.492,296.888 C832.7,296.888 829.148,299.288 829.148,303.752 L829.148,317 L825.452,317 L825.452,293.624 L828.908,293.624 L828.908,296.984 C830.636,294.68 833.372,293.432 836.156,293.432 Z M843.44,282.008 C844.928,282.008 846.176,283.208 846.176,284.696 C846.176,286.232 844.928,287.384 843.44,287.384 C841.856,287.384 840.656,286.232 840.656,284.696 C840.656,283.208 841.856,282.008 843.44,282.008 Z M845.264,293.624 L845.264,317 L841.568,317 L841.568,293.624 L845.264,293.624 Z M871.076,293.624 L874.58,293.624 L874.58,314.744 C874.58,321.944 870.02,326.168 863.204,326.168 C858.308,326.168 854.516,323.96 852.212,321.656 L854.372,319.064 C856.628,321.032 859.268,322.76 863.108,322.76 C867.86,322.76 870.884,320.12 870.884,314.936 L870.884,312.872 C868.964,315.32 865.7,316.76 862.196,316.76 C855.62,316.76 850.724,311.768 850.724,304.952 C850.724,298.184 855.62,293.096 862.196,293.096 C865.892,293.096 869.252,294.728 871.076,297.416 L871.076,293.624 Z M862.772,313.352 C866.852,313.352 870.932,310.808 870.932,304.952 C870.932,299.096 866.804,296.6 862.772,296.6 C858.02,296.6 854.468,300.056 854.468,305 C854.468,309.944 858.02,313.352 862.772,313.352 Z M883.304,282.008 C884.792,282.008 886.04,283.208 886.04,284.696 C886.04,286.232 884.792,287.384 883.304,287.384 C881.72,287.384 880.52,286.232 880.52,284.696 C880.52,283.208 881.72,282.008 883.304,282.008 Z M885.128,293.624 L885.128,317 L881.432,317 L881.432,293.624 L885.128,293.624 Z M902.636,293.096 C908.156,293.096 911.324,296.888 911.324,302.312 L911.324,317 L907.628,317 L907.628,302.744 C907.628,299.048 905.42,296.504 901.82,296.504 C898.22,296.504 895.676,299.096 895.676,302.744 L895.676,317 L891.98,317 L891.98,293.624 L895.436,293.624 L895.436,296.168 C897.068,294.248 899.612,293.096 902.636,293.096 Z M926.288,293.096 C931.616,293.096 935.408,296.312 935.408,302.6 L935.408,317 L931.952,317 L931.952,313.976 C930.272,316.232 927.536,317.528 924.08,317.528 C919.376,317.528 915.92,315.032 915.92,310.952 C915.92,307.016 919.232,304.424 924.32,304.424 L931.712,304.424 L931.712,302.408 C931.712,298.472 929.504,296.504 926.048,296.504 C923.12,296.504 921.056,297.896 919.232,300.248 L916.784,298.232 C918.992,294.68 922.544,293.096 926.288,293.096 Z M924.56,314.456 C928.4,314.456 931.712,311.672 931.712,308.024 L931.712,307.448 L924.752,307.448 C921.488,307.448 919.712,308.552 919.712,310.76 C919.712,313.256 921.968,314.456 924.56,314.456 Z M945.668,281 L945.668,317 L941.972,317 L941.972,281 L945.668,281 Z M990.236,285.32 L990.236,317 L986.492,317 L986.492,301.736 L968.732,301.736 L968.732,317 L964.988,317 L964.988,285.32 L968.732,285.32 L968.732,298.376 L986.492,298.376 L986.492,285.32 L990.236,285.32 Z M999.056,282.008 C1000.544,282.008 1001.792,283.208 1001.792,284.696 C1001.792,286.232 1000.544,287.384 999.056,287.384 C997.472,287.384 996.272,286.232 996.272,284.696 C996.272,283.208 997.472,282.008 999.056,282.008 Z M1000.88,293.624 L1000.88,317 L997.184,317 L997.184,293.624 L1000.88,293.624 Z M1026.692,293.624 L1030.196,293.624 L1030.196,314.744 C1030.196,321.944 1025.636,326.168 1018.82,326.168 C1013.924,326.168 1010.132,323.96 1007.828,321.656 L1009.988,319.064 C1012.244,321.032 1014.884,322.76 1018.724,322.76 C1023.476,322.76 1026.5,320.12 1026.5,314.936 L1026.5,312.872 C1024.58,315.32 1021.316,316.76 1017.812,316.76 C1011.236,316.76 1006.34,311.768 1006.34,304.952 C1006.34,298.184 1011.236,293.096 1017.812,293.096 C1021.508,293.096 1024.868,294.728 1026.692,297.416 L1026.692,293.624 Z M1018.388,313.352 C1022.468,313.352 1026.548,310.808 1026.548,304.952 C1026.548,299.096 1022.42,296.6 1018.388,296.6 C1013.636,296.6 1010.084,300.056 1010.084,305 C1010.084,309.944 1013.636,313.352 1018.388,313.352 Z M1047.752,293.096 C1053.224,293.096 1056.392,296.888 1056.392,302.312 L1056.392,317 L1052.696,317 L1052.696,302.792 C1052.696,299.096 1050.488,296.504 1046.888,296.504 C1043.288,296.504 1040.744,299.144 1040.744,302.792 L1040.744,317 L1037.048,317 L1037.048,281 L1040.744,281 L1040.744,296.264 C1042.28,294.296 1044.728,293.096 1047.752,293.096 Z M1062.956,317 L1062.956,281 L1066.652,281 L1066.652,317 L1062.956,317 Z M1071.5,303.896 L1082.54,317 L1077.788,317 L1067.036,303.848 L1076.78,293.624 L1081.628,293.624 L1071.5,303.896 Z M1105.952,303.656 C1105.952,304.904 1105.76,306.008 1105.664,306.44 L1087.232,306.44 C1087.712,311.096 1091.168,314.12 1095.776,314.12 C1098.704,314.12 1101.008,312.872 1102.928,310.952 L1105.088,313.448 C1102.736,315.944 1099.568,317.528 1095.728,317.528 C1088.672,317.528 1083.344,312.2 1083.344,305.336 C1083.344,298.52 1088.576,293.096 1095.296,293.096 C1101.296,293.096 1105.952,297.416 1105.952,303.656 Z M1095.2,296.456 C1091.264,296.456 1088.144,299.144 1087.376,303.176 L1102.16,303.176 C1102.112,298.856 1098.944,296.456 1095.2,296.456 Z M1127.348,293.624 L1131.284,293.624 L1119.764,320.264 C1117.94,324.44 1115.396,326.168 1111.844,326.168 C1110.692,326.168 1109.348,325.976 1108.244,325.688 L1108.244,322.568 C1109.348,322.712 1110.26,322.808 1111.076,322.808 C1113.332,322.808 1115.06,322.04 1116.356,319.064 L1117.604,316.232 L1107.908,293.624 L1111.892,293.624 L1119.62,312.248 L1127.348,293.624 Z M1134.392,311.48 C1136.024,311.48 1137.416,312.728 1137.416,314.504 C1137.416,316.28 1136.024,317.528 1134.392,317.528 C1132.76,317.528 1131.368,316.28 1131.368,314.504 C1131.368,312.728 1132.76,311.48 1134.392,311.48 Z M307.598,342.32 L307.598,345.68 L296.414,345.68 L296.414,374 L292.67,374 L292.67,345.68 L281.534,345.68 L281.534,342.32 L307.598,342.32 Z M322.034,350.096 C327.506,350.096 330.674,353.888 330.674,359.312 L330.674,374 L326.978,374 L326.978,359.792 C326.978,356.096 324.77,353.504 321.17,353.504 C317.57,353.504 315.026,356.144 315.026,359.792 L315.026,374 L311.33,374 L311.33,338 L315.026,338 L315.026,353.264 C316.562,351.296 319.01,350.096 322.034,350.096 Z M358.166,360.656 C358.166,361.904 357.974,363.008 357.878,363.44 L339.446,363.44 C339.926,368.096 343.382,371.12 347.99,371.12 C350.918,371.12 353.222,369.872 355.142,367.952 L357.302,370.448 C354.95,372.944 351.782,374.528 347.942,374.528 C340.886,374.528 335.558,369.2 335.558,362.336 C335.558,355.52 340.79,350.096 347.51,350.096 C353.51,350.096 358.166,354.416 358.166,360.656 Z M347.414,353.456 C343.478,353.456 340.358,356.144 339.59,360.176 L354.374,360.176 C354.326,355.856 351.158,353.456 347.414,353.456 Z M383.966,350.096 C389.294,350.096 393.086,353.312 393.086,359.6 L393.086,374 L389.63,374 L389.63,370.976 C387.95,373.232 385.214,374.528 381.758,374.528 C377.054,374.528 373.598,372.032 373.598,367.952 C373.598,364.016 376.91,361.424 381.998,361.424 L389.39,361.424 L389.39,359.408 C389.39,355.472 387.182,353.504 383.726,353.504 C380.798,353.504 378.734,354.896 376.91,357.248 L374.462,355.232 C376.67,351.68 380.222,350.096 383.966,350.096 Z M382.238,371.456 C386.078,371.456 389.39,368.672 389.39,365.024 L389.39,364.448 L382.43,364.448 C379.166,364.448 377.39,365.552 377.39,367.76 C377.39,370.256 379.646,371.456 382.238,371.456 Z M411.938,350.096 C418.658,350.096 423.506,355.424 423.506,362.288 C423.506,369.2 418.61,374.528 411.938,374.528 C408.482,374.528 405.218,373.088 403.346,370.592 L403.346,382.64 L399.65,382.64 L399.65,350.624 L403.106,350.624 L403.106,354.368 C404.93,351.68 408.242,350.096 411.938,350.096 Z M411.41,371.12 C416.162,371.12 419.714,367.424 419.714,362.336 C419.714,357.248 416.21,353.504 411.41,353.504 C407.378,353.504 403.298,356.144 403.298,362.288 C403.298,368.432 407.33,371.12 411.41,371.12 Z M441.014,350.096 C447.734,350.096 452.582,355.424 452.582,362.288 C452.582,369.2 447.686,374.528 441.014,374.528 C437.558,374.528 434.294,373.088 432.422,370.592 L432.422,382.64 L428.726,382.64 L428.726,350.624 L432.182,350.624 L432.182,354.368 C434.006,351.68 437.318,350.096 441.014,350.096 Z M440.486,371.12 C445.238,371.12 448.79,367.424 448.79,362.336 C448.79,357.248 445.286,353.504 440.486,353.504 C436.454,353.504 432.374,356.144 432.374,362.288 C432.374,368.432 436.406,371.12 440.486,371.12 Z M480.686,350.096 C486.158,350.096 489.326,353.888 489.326,359.312 L489.326,374 L485.63,374 L485.63,359.792 C485.63,356.096 483.422,353.504 479.822,353.504 C476.222,353.504 473.678,356.144 473.678,359.792 L473.678,374 L469.982,374 L469.982,338 L473.678,338 L473.678,353.264 C475.214,351.296 477.662,350.096 480.686,350.096 Z M504.29,350.096 C509.618,350.096 513.41,353.312 513.41,359.6 L513.41,374 L509.954,374 L509.954,370.976 C508.274,373.232 505.538,374.528 502.082,374.528 C497.378,374.528 493.922,372.032 493.922,367.952 C493.922,364.016 497.234,361.424 502.322,361.424 L509.714,361.424 L509.714,359.408 C509.714,355.472 507.506,353.504 504.05,353.504 C501.122,353.504 499.058,354.896 497.234,357.248 L494.786,355.232 C496.994,351.68 500.546,350.096 504.29,350.096 Z M502.562,371.456 C506.402,371.456 509.714,368.672 509.714,365.024 L509.714,364.448 L502.754,364.448 C499.49,364.448 497.714,365.552 497.714,367.76 C497.714,370.256 499.97,371.456 502.562,371.456 Z M527.03,350.096 C530.39,350.096 533.03,351.536 534.854,353.792 L532.598,356.096 C531.062,354.512 529.046,353.504 526.838,353.504 C524.63,353.504 522.95,354.512 522.95,356.432 C522.95,358.016 524.15,358.784 526.742,359.84 L528.902,360.752 C533.126,362.528 535.094,364.352 535.094,367.664 C535.094,372.224 531.206,374.528 526.886,374.528 C522.758,374.528 519.638,372.464 517.766,369.968 L520.118,367.52 C522.038,369.536 524.006,371.12 526.838,371.12 C529.286,371.12 531.302,369.92 531.302,367.808 C531.302,365.792 529.574,365.024 527.222,364.064 L524.966,363.104 C521.414,361.616 519.158,359.984 519.158,356.624 C519.158,352.4 522.758,350.096 527.03,350.096 Z M559.742,350.096 C563.102,350.096 565.742,351.536 567.566,353.792 L565.31,356.096 C563.774,354.512 561.758,353.504 559.55,353.504 C557.342,353.504 555.662,354.512 555.662,356.432 C555.662,358.016 556.862,358.784 559.454,359.84 L561.614,360.752 C565.838,362.528 567.806,364.352 567.806,367.664 C567.806,372.224 563.918,374.528 559.598,374.528 C555.47,374.528 552.35,372.464 550.478,369.968 L552.83,367.52 C554.75,369.536 556.718,371.12 559.55,371.12 C561.998,371.12 564.014,369.92 564.014,367.808 C564.014,365.792 562.286,365.024 559.934,364.064 L557.678,363.104 C554.126,361.616 551.87,359.984 551.87,356.624 C551.87,352.4 555.47,350.096 559.742,350.096 Z M575.09,339.008 C576.578,339.008 577.826,340.208 577.826,341.696 C577.826,343.232 576.578,344.384 575.09,344.384 C573.506,344.384 572.306,343.232 572.306,341.696 C572.306,340.208 573.506,339.008 575.09,339.008 Z M576.914,350.624 L576.914,374 L573.218,374 L573.218,350.624 L576.914,350.624 Z M594.422,350.096 C599.942,350.096 603.11,353.888 603.11,359.312 L603.11,374 L599.414,374 L599.414,359.744 C599.414,356.048 597.206,353.504 593.606,353.504 C590.006,353.504 587.462,356.096 587.462,359.744 L587.462,374 L583.766,374 L583.766,350.624 L587.222,350.624 L587.222,353.168 C588.854,351.248 591.398,350.096 594.422,350.096 Z M620.234,350.096 C624.458,350.096 627.818,352.112 629.882,355.184 L627.242,357.296 C625.514,354.992 623.306,353.504 620.282,353.504 C615.386,353.504 611.786,357.392 611.786,362.288 C611.786,367.232 615.386,371.12 620.282,371.12 C623.258,371.12 625.466,369.68 627.194,367.376 L629.834,369.44 C627.77,372.512 624.41,374.528 620.234,374.528 C613.418,374.528 607.994,369.152 607.994,362.288 C607.994,355.472 613.418,350.096 620.234,350.096 Z M655.31,360.656 C655.31,361.904 655.118,363.008 655.022,363.44 L636.59,363.44 C637.07,368.096 640.526,371.12 645.134,371.12 C648.062,371.12 650.366,369.872 652.286,367.952 L654.446,370.448 C652.094,372.944 648.926,374.528 645.086,374.528 C638.03,374.528 632.702,369.2 632.702,362.336 C632.702,355.52 637.934,350.096 644.654,350.096 C650.654,350.096 655.31,354.416 655.31,360.656 Z M644.558,353.456 C640.622,353.456 637.502,356.144 636.734,360.176 L651.518,360.176 C651.47,355.856 648.302,353.456 644.558,353.456 Z M683.414,350.432 C684.182,350.432 684.662,350.528 685.142,350.624 L685.142,353.888 L683.75,353.888 C679.958,353.888 676.406,356.288 676.406,360.752 L676.406,374 L672.71,374 L672.71,350.624 L676.166,350.624 L676.166,353.984 C677.894,351.68 680.63,350.432 683.414,350.432 Z M709.274,360.656 C709.274,361.904 709.082,363.008 708.986,363.44 L690.554,363.44 C691.034,368.096 694.49,371.12 699.098,371.12 C702.026,371.12 704.33,369.872 706.25,367.952 L708.41,370.448 C706.058,372.944 702.89,374.528 699.05,374.528 C691.994,374.528 686.666,369.2 686.666,362.336 C686.666,355.52 691.898,350.096 698.618,350.096 C704.618,350.096 709.274,354.416 709.274,360.656 Z M698.522,353.456 C694.586,353.456 691.466,356.144 690.698,360.176 L705.482,360.176 C705.434,355.856 702.266,353.456 698.522,353.456 Z M733.022,338 L736.718,338 L736.718,374 L733.214,374 L733.214,370.256 C731.39,372.944 728.078,374.528 724.382,374.528 C717.71,374.528 712.814,369.2 712.814,362.336 C712.814,355.424 717.71,350.096 724.382,350.096 C727.934,350.096 731.15,351.584 733.022,354.08 L733.022,338 Z M724.91,371.12 C728.942,371.12 733.07,368.48 733.07,362.336 C733.07,356.192 728.942,353.504 724.91,353.504 C720.158,353.504 716.606,357.2 716.606,362.288 C716.606,367.376 720.11,371.12 724.91,371.12 Z M764.498,360.656 C764.498,361.904 764.306,363.008 764.21,363.44 L745.778,363.44 C746.258,368.096 749.714,371.12 754.322,371.12 C757.25,371.12 759.554,369.872 761.474,367.952 L763.634,370.448 C761.282,372.944 758.114,374.528 754.274,374.528 C747.218,374.528 741.89,369.2 741.89,362.336 C741.89,355.52 747.122,350.096 753.842,350.096 C759.842,350.096 764.498,354.416 764.498,360.656 Z M753.746,353.456 C749.81,353.456 746.69,356.144 745.922,360.176 L760.706,360.176 C760.658,355.856 757.49,353.456 753.746,353.456 Z M778.886,340.832 C776.006,340.832 773.99,341.792 773.99,345.296 L773.99,350.624 L779.846,350.624 L779.846,353.936 L773.99,353.936 L773.99,374 L770.294,374 L770.294,353.936 L766.934,353.936 L766.934,350.624 L770.294,350.624 L770.294,345.056 C770.294,339.728 773.51,337.472 778.022,337.472 C779.174,337.472 780.086,337.616 780.95,337.856 L780.95,340.976 C780.182,340.88 779.51,340.832 778.886,340.832 Z M785.594,339.008 C787.082,339.008 788.33,340.208 788.33,341.696 C788.33,343.232 787.082,344.384 785.594,344.384 C784.01,344.384 782.81,343.232 782.81,341.696 C782.81,340.208 784.01,339.008 785.594,339.008 Z M787.418,350.624 L787.418,374 L783.722,374 L783.722,350.624 L787.418,350.624 Z M804.926,350.096 C810.446,350.096 813.614,353.888 813.614,359.312 L813.614,374 L809.918,374 L809.918,359.744 C809.918,356.048 807.71,353.504 804.11,353.504 C800.51,353.504 797.966,356.096 797.966,359.744 L797.966,374 L794.27,374 L794.27,350.624 L797.726,350.624 L797.726,353.168 C799.358,351.248 801.902,350.096 804.926,350.096 Z M841.106,360.656 C841.106,361.904 840.914,363.008 840.818,363.44 L822.386,363.44 C822.866,368.096 826.322,371.12 830.93,371.12 C833.858,371.12 836.162,369.872 838.082,367.952 L840.242,370.448 C837.89,372.944 834.722,374.528 830.882,374.528 C823.826,374.528 818.498,369.2 818.498,362.336 C818.498,355.52 823.73,350.096 830.45,350.096 C836.45,350.096 841.106,354.416 841.106,360.656 Z M830.354,353.456 C826.418,353.456 823.298,356.144 822.53,360.176 L837.314,360.176 C837.266,355.856 834.098,353.456 830.354,353.456 Z M864.854,338 L868.55,338 L868.55,374 L865.046,374 L865.046,370.256 C863.222,372.944 859.91,374.528 856.214,374.528 C849.542,374.528 844.646,369.2 844.646,362.336 C844.646,355.424 849.542,350.096 856.214,350.096 C859.766,350.096 862.982,351.584 864.854,354.08 L864.854,338 Z M856.742,371.12 C860.774,371.12 864.902,368.48 864.902,362.336 C864.902,356.192 860.774,353.504 856.742,353.504 C851.99,353.504 848.438,357.2 848.438,362.288 C848.438,367.376 851.942,371.12 856.742,371.12 Z M889.454,339.008 C890.942,339.008 892.19,340.208 892.19,341.696 C892.19,343.232 890.942,344.384 889.454,344.384 C887.87,344.384 886.67,343.232 886.67,341.696 C886.67,340.208 887.87,339.008 889.454,339.008 Z M891.278,350.624 L891.278,374 L887.582,374 L887.582,350.624 L891.278,350.624 Z M907.778,371.168 C908.69,371.168 909.698,371.072 910.898,370.88 L910.898,374 C909.698,374.288 908.498,374.528 907.01,374.528 C902.402,374.528 899.138,372.272 899.138,366.944 L899.138,353.936 L895.202,353.936 L895.202,350.624 L899.138,350.624 L899.138,344.24 L902.834,344.24 L902.834,350.624 L910.13,350.624 L910.13,353.936 L902.834,353.936 L902.834,366.704 C902.834,370.208 904.85,371.168 907.778,371.168 Z M922.214,350.096 C925.574,350.096 928.214,351.536 930.038,353.792 L927.782,356.096 C926.246,354.512 924.23,353.504 922.022,353.504 C919.814,353.504 918.134,354.512 918.134,356.432 C918.134,358.016 919.334,358.784 921.926,359.84 L924.086,360.752 C928.31,362.528 930.278,364.352 930.278,367.664 C930.278,372.224 926.39,374.528 922.07,374.528 C917.942,374.528 914.822,372.464 912.95,369.968 L915.302,367.52 C917.222,369.536 919.19,371.12 922.022,371.12 C924.47,371.12 926.486,369.92 926.486,367.808 C926.486,365.792 924.758,365.024 922.406,364.064 L920.15,363.104 C916.598,361.616 914.342,359.984 914.342,356.624 C914.342,352.4 917.942,350.096 922.214,350.096 Z M960.158,350.096 C966.878,350.096 971.726,355.424 971.726,362.288 C971.726,369.2 966.83,374.528 960.158,374.528 C956.702,374.528 953.438,373.088 951.566,370.592 L951.566,382.64 L947.87,382.64 L947.87,350.624 L951.326,350.624 L951.326,354.368 C953.15,351.68 956.462,350.096 960.158,350.096 Z M959.63,371.12 C964.382,371.12 967.934,367.424 967.934,362.336 C967.934,357.248 964.43,353.504 959.63,353.504 C955.598,353.504 951.518,356.144 951.518,362.288 C951.518,368.432 955.55,371.12 959.63,371.12 Z M996.002,350.624 L996.002,364.688 C996.002,370.688 991.73,374.528 986.354,374.528 C980.882,374.528 976.658,370.688 976.658,364.688 L976.658,350.624 L980.306,350.624 L980.306,364.928 C980.306,368.768 982.994,371.12 986.354,371.12 C989.618,371.12 992.306,368.768 992.306,364.928 L992.306,350.624 L996.002,350.624 Z M1013.27,350.432 C1014.038,350.432 1014.518,350.528 1014.998,350.624 L1014.998,353.888 L1013.606,353.888 C1009.814,353.888 1006.262,356.288 1006.262,360.752 L1006.262,374 L1002.566,374 L1002.566,350.624 L1006.022,350.624 L1006.022,353.984 C1007.75,351.68 1010.486,350.432 1013.27,350.432 Z M1030.97,350.096 C1037.69,350.096 1042.538,355.424 1042.538,362.288 C1042.538,369.2 1037.642,374.528 1030.97,374.528 C1027.514,374.528 1024.25,373.088 1022.378,370.592 L1022.378,382.64 L1018.682,382.64 L1018.682,350.624 L1022.138,350.624 L1022.138,354.368 C1023.962,351.68 1027.274,350.096 1030.97,350.096 Z M1030.442,371.12 C1035.194,371.12 1038.746,367.424 1038.746,362.336 C1038.746,357.248 1035.242,353.504 1030.442,353.504 C1026.41,353.504 1022.33,356.144 1022.33,362.288 C1022.33,368.432 1026.362,371.12 1030.442,371.12 Z M1058.318,350.096 C1065.086,350.096 1070.558,355.424 1070.558,362.288 C1070.558,369.104 1065.086,374.48 1058.27,374.48 C1051.502,374.432 1046.078,369.152 1046.078,362.288 C1046.078,355.424 1051.454,350.096 1058.318,350.096 Z M1058.318,353.504 C1053.422,353.504 1049.822,357.344 1049.87,362.336 C1049.87,367.28 1053.422,371.072 1058.27,371.072 C1063.118,371.072 1066.766,367.232 1066.766,362.336 C1066.766,357.296 1063.118,353.504 1058.318,353.504 Z M1082.834,350.096 C1086.194,350.096 1088.834,351.536 1090.658,353.792 L1088.402,356.096 C1086.866,354.512 1084.85,353.504 1082.642,353.504 C1080.434,353.504 1078.754,354.512 1078.754,356.432 C1078.754,358.016 1079.954,358.784 1082.546,359.84 L1084.706,360.752 C1088.93,362.528 1090.898,364.352 1090.898,367.664 C1090.898,372.224 1087.01,374.528 1082.69,374.528 C1078.562,374.528 1075.442,372.464 1073.57,369.968 L1075.922,367.52 C1077.842,369.536 1079.81,371.12 1082.642,371.12 C1085.09,371.12 1087.106,369.92 1087.106,367.808 C1087.106,365.792 1085.378,365.024 1083.026,364.064 L1080.77,363.104 C1077.218,361.616 1074.962,359.984 1074.962,356.624 C1074.962,352.4 1078.562,350.096 1082.834,350.096 Z M1117.238,360.656 C1117.238,361.904 1117.046,363.008 1116.95,363.44 L1098.518,363.44 C1098.998,368.096 1102.454,371.12 1107.062,371.12 C1109.99,371.12 1112.294,369.872 1114.214,367.952 L1116.374,370.448 C1114.022,372.944 1110.854,374.528 1107.014,374.528 C1099.958,374.528 1094.63,369.2 1094.63,362.336 C1094.63,355.52 1099.862,350.096 1106.582,350.096 C1112.582,350.096 1117.238,354.416 1117.238,360.656 Z M1106.486,353.456 C1102.55,353.456 1099.43,356.144 1098.662,360.176 L1113.446,360.176 C1113.398,355.856 1110.23,353.456 1106.486,353.456 Z M440.738,407.096 C446.066,407.096 449.858,410.312 449.858,416.6 L449.858,431 L446.402,431 L446.402,427.976 C444.722,430.232 441.986,431.528 438.53,431.528 C433.826,431.528 430.37,429.032 430.37,424.952 C430.37,421.016 433.682,418.424 438.77,418.424 L446.162,418.424 L446.162,416.408 C446.162,412.472 443.954,410.504 440.498,410.504 C437.57,410.504 435.506,411.896 433.682,414.248 L431.234,412.232 C433.442,408.68 436.994,407.096 440.738,407.096 Z M439.01,428.456 C442.85,428.456 446.162,425.672 446.162,422.024 L446.162,421.448 L439.202,421.448 C435.938,421.448 434.162,422.552 434.162,424.76 C434.162,427.256 436.418,428.456 439.01,428.456 Z M467.078,407.096 C472.598,407.096 475.766,410.888 475.766,416.312 L475.766,431 L472.07,431 L472.07,416.744 C472.07,413.048 469.862,410.504 466.262,410.504 C462.662,410.504 460.118,413.096 460.118,416.744 L460.118,431 L456.422,431 L456.422,407.624 L459.878,407.624 L459.878,410.168 C461.51,408.248 464.054,407.096 467.078,407.096 Z M500.858,395 L504.554,395 L504.554,431 L501.05,431 L501.05,427.256 C499.226,429.944 495.914,431.528 492.218,431.528 C485.546,431.528 480.65,426.2 480.65,419.336 C480.65,412.424 485.546,407.096 492.218,407.096 C495.77,407.096 498.986,408.584 500.858,411.08 L500.858,395 Z M492.746,428.12 C496.778,428.12 500.906,425.48 500.906,419.336 C500.906,413.192 496.778,410.504 492.746,410.504 C487.994,410.504 484.442,414.2 484.442,419.288 C484.442,424.376 487.946,428.12 492.746,428.12 Z M549.218,407.096 C554.69,407.096 557.714,410.888 557.714,416.312 L557.714,431 L554.018,431 L554.018,416.792 C554.018,413.096 552.002,410.504 548.498,410.504 C544.946,410.504 542.498,413.192 542.498,416.456 L542.498,431 L538.802,431 L538.802,416.792 C538.802,413.096 536.69,410.504 533.234,410.504 C529.682,410.504 527.282,413.096 527.282,416.792 L527.282,431 L523.586,431 L523.586,407.624 L527.042,407.624 L527.042,410.072 C528.674,408.2 531.074,407.096 534.002,407.096 C537.506,407.096 539.906,408.68 541.202,411.128 C542.834,408.776 545.618,407.096 549.218,407.096 Z M585.206,417.656 C585.206,418.904 585.014,420.008 584.918,420.44 L566.486,420.44 C566.966,425.096 570.422,428.12 575.03,428.12 C577.958,428.12 580.262,426.872 582.182,424.952 L584.342,427.448 C581.99,429.944 578.822,431.528 574.982,431.528 C567.926,431.528 562.598,426.2 562.598,419.336 C562.598,412.52 567.83,407.096 574.55,407.096 C580.55,407.096 585.206,411.416 585.206,417.656 Z M574.454,410.456 C570.518,410.456 567.398,413.144 566.63,417.176 L581.414,417.176 C581.366,412.856 578.198,410.456 574.454,410.456 Z M600.074,428.168 C600.986,428.168 601.994,428.072 603.194,427.88 L603.194,431 C601.994,431.288 600.794,431.528 599.306,431.528 C594.698,431.528 591.434,429.272 591.434,423.944 L591.434,410.936 L587.498,410.936 L587.498,407.624 L591.434,407.624 L591.434,401.24 L595.13,401.24 L595.13,407.624 L602.426,407.624 L602.426,410.936 L595.13,410.936 L595.13,423.704 C595.13,427.208 597.146,428.168 600.074,428.168 Z M618.158,407.096 C623.63,407.096 626.798,410.888 626.798,416.312 L626.798,431 L623.102,431 L623.102,416.792 C623.102,413.096 620.894,410.504 617.294,410.504 C613.694,410.504 611.15,413.144 611.15,416.792 L611.15,431 L607.454,431 L607.454,395 L611.15,395 L611.15,410.264 C612.686,408.296 615.134,407.096 618.158,407.096 Z M643.922,407.096 C650.69,407.096 656.162,412.424 656.162,419.288 C656.162,426.104 650.69,431.48 643.874,431.48 C637.106,431.432 631.682,426.152 631.682,419.288 C631.682,412.424 637.058,407.096 643.922,407.096 Z M643.922,410.504 C639.026,410.504 635.426,414.344 635.474,419.336 C635.474,424.28 639.026,428.072 643.874,428.072 C648.722,428.072 652.37,424.232 652.37,419.336 C652.37,414.296 648.722,410.504 643.922,410.504 Z M679.91,395 L683.606,395 L683.606,431 L680.102,431 L680.102,427.256 C678.278,429.944 674.966,431.528 671.27,431.528 C664.598,431.528 659.702,426.2 659.702,419.336 C659.702,412.424 664.598,407.096 671.27,407.096 C674.822,407.096 678.038,408.584 679.91,411.08 L679.91,395 Z M671.798,428.12 C675.83,428.12 679.958,425.48 679.958,419.336 C679.958,413.192 675.83,410.504 671.798,410.504 C667.046,410.504 663.494,414.2 663.494,419.288 C663.494,424.376 666.998,428.12 671.798,428.12 Z M711.038,407.096 C716.366,407.096 720.158,410.312 720.158,416.6 L720.158,431 L716.702,431 L716.702,427.976 C715.022,430.232 712.286,431.528 708.83,431.528 C704.126,431.528 700.67,429.032 700.67,424.952 C700.67,421.016 703.982,418.424 709.07,418.424 L716.462,418.424 L716.462,416.408 C716.462,412.472 714.254,410.504 710.798,410.504 C707.87,410.504 705.806,411.896 703.982,414.248 L701.534,412.232 C703.742,408.68 707.294,407.096 711.038,407.096 Z M709.31,428.456 C713.15,428.456 716.462,425.672 716.462,422.024 L716.462,421.448 L709.502,421.448 C706.238,421.448 704.462,422.552 704.462,424.76 C704.462,427.256 706.718,428.456 709.31,428.456 Z M735.89,397.832 C733.01,397.832 730.994,398.792 730.994,402.296 L730.994,407.624 L736.85,407.624 L736.85,410.936 L730.994,410.936 L730.994,431 L727.298,431 L727.298,410.936 L723.938,410.936 L723.938,407.624 L727.298,407.624 L727.298,402.056 C727.298,396.728 730.514,394.472 735.026,394.472 C736.178,394.472 737.09,394.616 737.954,394.856 L737.954,397.976 C737.186,397.88 736.514,397.832 735.89,397.832 Z M748.454,428.168 C749.366,428.168 750.374,428.072 751.574,427.88 L751.574,431 C750.374,431.288 749.174,431.528 747.686,431.528 C743.078,431.528 739.814,429.272 739.814,423.944 L739.814,410.936 L735.878,410.936 L735.878,407.624 L739.814,407.624 L739.814,401.24 L743.51,401.24 L743.51,407.624 L750.806,407.624 L750.806,410.936 L743.51,410.936 L743.51,423.704 C743.51,427.208 745.526,428.168 748.454,428.168 Z M776.282,417.656 C776.282,418.904 776.09,420.008 775.994,420.44 L757.562,420.44 C758.042,425.096 761.498,428.12 766.106,428.12 C769.034,428.12 771.338,426.872 773.258,424.952 L775.418,427.448 C773.066,429.944 769.898,431.528 766.058,431.528 C759.002,431.528 753.674,426.2 753.674,419.336 C753.674,412.52 758.906,407.096 765.626,407.096 C771.626,407.096 776.282,411.416 776.282,417.656 Z M765.53,410.456 C761.594,410.456 758.474,413.144 757.706,417.176 L772.49,417.176 C772.442,412.856 769.274,410.456 765.53,410.456 Z M792.206,407.432 C792.974,407.432 793.454,407.528 793.934,407.624 L793.934,410.888 L792.542,410.888 C788.75,410.888 785.198,413.288 785.198,417.752 L785.198,431 L781.502,431 L781.502,407.624 L784.958,407.624 L784.958,410.984 C786.686,408.68 789.422,407.432 792.206,407.432 Z M835.43,407.096 C840.902,407.096 843.926,410.888 843.926,416.312 L843.926,431 L840.23,431 L840.23,416.792 C840.23,413.096 838.214,410.504 834.71,410.504 C831.158,410.504 828.71,413.192 828.71,416.456 L828.71,431 L825.014,431 L825.014,416.792 C825.014,413.096 822.902,410.504 819.446,410.504 C815.894,410.504 813.494,413.096 813.494,416.792 L813.494,431 L809.798,431 L809.798,407.624 L813.254,407.624 L813.254,410.072 C814.886,408.2 817.286,407.096 820.214,407.096 C823.718,407.096 826.118,408.68 827.414,411.128 C829.046,408.776 831.83,407.096 835.43,407.096 Z M867.098,407.624 L871.034,407.624 L859.514,434.264 C857.69,438.44 855.146,440.168 851.594,440.168 C850.442,440.168 849.098,439.976 847.994,439.688 L847.994,436.568 C849.098,436.712 850.01,436.808 850.826,436.808 C853.082,436.808 854.81,436.04 856.106,433.064 L857.354,430.232 L847.658,407.624 L851.642,407.624 L859.37,426.248 L867.098,407.624 Z M908.21,417.656 C908.21,418.904 908.018,420.008 907.922,420.44 L889.49,420.44 C889.97,425.096 893.426,428.12 898.034,428.12 C900.962,428.12 903.266,426.872 905.186,424.952 L907.346,427.448 C904.994,429.944 901.826,431.528 897.986,431.528 C890.93,431.528 885.602,426.2 885.602,419.336 C885.602,412.52 890.834,407.096 897.554,407.096 C903.554,407.096 908.21,411.416 908.21,417.656 Z M897.458,410.456 C893.522,410.456 890.402,413.144 889.634,417.176 L904.418,417.176 C904.37,412.856 901.202,410.456 897.458,410.456 Z M931.718,431 L927.446,431 L920.774,421.544 L914.15,431 L909.83,431 L918.662,418.808 L910.55,407.624 L914.822,407.624 L920.774,416.12 L926.774,407.624 L931.046,407.624 L922.838,418.808 L931.718,431 Z M937.418,396.008 C938.906,396.008 940.154,397.208 940.154,398.696 C940.154,400.232 938.906,401.384 937.418,401.384 C935.834,401.384 934.634,400.232 934.634,398.696 C934.634,397.208 935.834,396.008 937.418,396.008 Z M939.242,407.624 L939.242,431 L935.546,431 L935.546,407.624 L939.242,407.624 Z M955.742,428.168 C956.654,428.168 957.662,428.072 958.862,427.88 L958.862,431 C957.662,431.288 956.462,431.528 954.974,431.528 C950.366,431.528 947.102,429.272 947.102,423.944 L947.102,410.936 L943.166,410.936 L943.166,407.624 L947.102,407.624 L947.102,401.24 L950.798,401.24 L950.798,407.624 L958.094,407.624 L958.094,410.936 L950.798,410.936 L950.798,423.704 C950.798,427.208 952.814,428.168 955.742,428.168 Z M965.522,425.48 C967.154,425.48 968.546,426.728 968.546,428.504 C968.546,430.28 967.154,431.528 965.522,431.528 C963.89,431.528 962.498,430.28 962.498,428.504 C962.498,426.728 963.89,425.48 965.522,425.48 Z" id="InthisprojectIservedastheleaddesignerfortheUIandflowoftheoriginalHighkey.Theapphassinceredefineditspurposeandmethodaftermyexit."></path>
        </g>
    </g>
</svg>