<?xml version="1.0" encoding="UTF-8"?>
<svg width="197px" height="19px" viewBox="0 0 197 19" version="1.1" xmlns="http://www.w3.org/2000/svg" xmlns:xlink="http://www.w3.org/1999/xlink">
    <!-- Generator: Sketch 52.6 (67491) - http://www.bohemiancoding.com/sketch -->
    <title>Group 2</title>
    <desc>Created with Sketch.</desc>
    <defs>
        <linearGradient x1="74.000038%" y1="27.6221471%" x2="-16.1444198%" y2="123.99548%" id="linearGradient-1">
            <stop stop-color="#FA8561" offset="0%"></stop>
            <stop stop-color="#D31CF7" offset="100%"></stop>
        </linearGradient>
    </defs>
    <g id="Page-1" stroke="none" stroke-width="1" fill="none" fill-rule="evenodd">
        <g id="Desktop-HD-Copy-27" transform="translate(-150.000000, -90.000000)" fill="url(#linearGradient-1)">
            <g id="Group-2" transform="translate(150.000000, 90.000000)">
                <path d="M85.7158333,15 L85.7158333,1.8 L90.5358333,1.8 C93.1958333,1.8 95.0158333,3.46 95.0158333,5.84 C95.0158333,8.2 93.1958333,9.9 90.5358333,9.9 L87.8358333,9.9 L87.8358333,15 L85.7158333,15 Z M87.8358333,8.02 L90.4958333,8.02 C91.9958333,8.02 92.8358333,7.16 92.8358333,5.86 C92.8358333,4.56 91.9958333,3.68 90.4958333,3.68 L87.8358333,3.68 L87.8358333,8.02 Z M102.811528,5.18 L102.811528,7.04 L102.171528,7.04 C100.511528,7.04 99.2915278,8.02 99.2915278,9.76 L99.2915278,15 L97.1915278,15 L97.1915278,5.18 L99.1515278,5.18 L99.1515278,6.46 C99.8515278,5.58 100.891528,5.08 102.011528,5.08 C102.311528,5.08 102.571528,5.12 102.811528,5.18 Z M113.307222,10.78 L105.987222,10.78 C106.247222,12.38 107.507222,13.36 109.187222,13.36 C110.207222,13.36 111.167222,12.98 112.047222,12.2 L113.047222,13.64 C111.927222,14.7 110.627222,15.22 109.127222,15.22 C106.127222,15.22 103.847222,13 103.847222,10.1 C103.787222,7.28 106.147222,4.9 108.927222,4.96 C111.527222,4.96 113.467222,6.9 113.467222,9.46 C113.467222,9.88 113.407222,10.32 113.307222,10.78 Z M106.027222,9.14 L111.367222,9.14 C111.347222,7.64 110.227222,6.74 108.847222,6.74 C107.467222,6.74 106.347222,7.68 106.027222,9.14 Z M122.282917,5.18 L124.522917,5.18 L119.782917,15.22 L119.062917,15.22 L114.302917,5.18 L116.542917,5.18 L119.422917,11.68 L122.282917,5.18 Z M132.114306,15 L132.114306,1.8 L136.934306,1.8 C139.594306,1.8 141.414306,3.46 141.414306,5.84 C141.414306,8.2 139.594306,9.9 136.934306,9.9 L134.234306,9.9 L134.234306,15 L132.114306,15 Z M134.234306,8.02 L136.894306,8.02 C138.394306,8.02 139.234306,7.16 139.234306,5.86 C139.234306,4.56 138.394306,3.68 136.894306,3.68 L134.234306,3.68 L134.234306,8.02 Z M149.21,5.18 L149.21,7.04 L148.57,7.04 C146.91,7.04 145.69,8.02 145.69,9.76 L145.69,15 L143.59,15 L143.59,5.18 L145.55,5.18 L145.55,6.46 C146.25,5.58 147.29,5.08 148.41,5.08 C148.71,5.08 148.97,5.12 149.21,5.18 Z M150.245694,10.08 C150.185694,7.26 152.605694,4.92 155.425694,4.96 C158.285694,4.9 160.705694,7.3 160.645694,10.08 C160.705694,12.86 158.285694,15.28 155.425694,15.22 C152.605694,15.28 150.185694,12.86 150.245694,10.08 Z M158.485694,10.1 C158.485694,8.28 157.145694,6.88 155.445694,6.88 C153.705694,6.88 152.385694,8.28 152.385694,10.1 C152.385694,11.92 153.705694,13.28 155.425694,13.28 C157.165694,13.28 158.485694,11.88 158.485694,10.1 Z M160.281389,18.64 L160.281389,16.86 C160.601389,16.9 160.881389,16.92 161.141389,16.92 C162.401389,16.92 163.021389,16.44 163.021389,15.22 L163.021389,5.18 L165.121389,5.18 L165.121389,15.4 C165.121389,17.7 163.801389,18.82 161.641389,18.82 C161.101389,18.82 160.641389,18.76 160.281389,18.64 Z M162.641389,1.52 C162.641389,0.74 163.281389,0.12 164.081389,0.12 C164.861389,0.12 165.501389,0.74 165.501389,1.52 C165.501389,2.3 164.861389,2.9 164.081389,2.9 C163.281389,2.9 162.641389,2.3 162.641389,1.52 Z M176.977083,10.78 L169.657083,10.78 C169.917083,12.38 171.177083,13.36 172.857083,13.36 C173.877083,13.36 174.837083,12.98 175.717083,12.2 L176.717083,13.64 C175.597083,14.7 174.297083,15.22 172.797083,15.22 C169.797083,15.22 167.517083,13 167.517083,10.1 C167.457083,7.28 169.817083,4.9 172.597083,4.96 C175.197083,4.96 177.137083,6.9 177.137083,9.46 C177.137083,9.88 177.077083,10.32 176.977083,10.78 Z M169.697083,9.14 L175.037083,9.14 C175.017083,7.64 173.897083,6.74 172.517083,6.74 C171.137083,6.74 170.017083,7.68 169.697083,9.14 Z M178.892778,10.08 C178.832778,7.26 181.272778,4.92 184.092778,4.96 C185.912778,4.96 187.372778,5.82 188.232778,7.24 L186.752778,8.4 C186.052778,7.4 185.172778,6.9 184.112778,6.9 C182.352778,6.9 181.032778,8.3 181.032778,10.08 C181.032778,11.88 182.352778,13.28 184.112778,13.28 C185.152778,13.28 186.032778,12.78 186.752778,11.8 L188.232778,12.94 C187.352778,14.36 185.872778,15.22 184.092778,15.22 C181.192778,15.22 178.892778,12.94 178.892778,10.08 Z M196.368472,13.22 L196.368472,15 C195.708472,15.14 195.128472,15.22 194.628472,15.22 C192.368472,15.22 191.008472,14.1 191.008472,11.8 L191.008472,7 L189.408472,7 L189.408472,5.18 L191.008472,5.18 L191.008472,2.6 L193.128472,2.6 L193.128472,5.18 L196.048472,5.18 L196.048472,7 L193.128472,7 L193.128472,11.62 C193.128472,12.88 193.788472,13.32 195.068472,13.32 C195.368472,13.32 195.788472,13.28 196.368472,13.22 Z" id="Prev-Project"></path>
                <g id="Group-3-Copy" transform="translate(37.000000, 9.500000) scale(-1, 1) translate(-37.000000, -9.500000) translate(0.000000, 2.000000)" fill-rule="nonzero" opacity="0.799827939" stroke="url(#linearGradient-1)" stroke-linecap="square" stroke-width="1.89">
                    <path d="M51.8697167,7.1875 L0.12649493,7.1875 L51.8697167,7.1875 C52.0355077,3.1902869 55.3672258,0 59.4529915,0 C63.5387571,0 66.8704752,3.1902869 67.0362662,7.1875 L73.6837607,7.1875 L67.0362662,7.1875 C67.0405647,7.29113807 67.042735,7.39531858 67.042735,7.5 C67.042735,11.6421356 63.6446911,15 59.4529915,15 C55.2612918,15 51.8632479,11.6421356 51.8632479,7.5 C51.8632479,7.39531858 51.8654182,7.29113807 51.8697167,7.1875 Z" id="Combined-Shape"></path>
                </g>
            </g>
        </g>
    </g>
</svg>