<?xml version="1.0" encoding="UTF-8"?>
<svg width="185px" height="47px" viewBox="0 0 185 47" version="1.1" xmlns="http://www.w3.org/2000/svg" xmlns:xlink="http://www.w3.org/1999/xlink">
    <!-- Generator: Sketch 53.2 (72643) - https://sketchapp.com -->
    <title>Home</title>
    <desc>Created with Sketch.</desc>
    <defs>
        <linearGradient x1="74.000038%" y1="48.5750008%" x2="-16.1444198%" y2="54.711958%" id="linearGradient-1">
            <stop stop-color="#FA8561" offset="0%"></stop>
            <stop stop-color="#D31CF7" offset="100%"></stop>
        </linearGradient>
    </defs>
    <g id="Page-1" stroke="none" stroke-width="1" fill="none" fill-rule="evenodd">
        <g id="Desktop-HD-Copy-37" transform="translate(-629.000000, -282.000000)" fill="url(#linearGradient-1)" fill-rule="nonzero">
            <path d="M668.2155,282.46 L668.2155,328 L658.9005,328 L658.9005,308.335 L638.7525,308.335 L638.7525,328 L629.4375,328 L629.4375,282.46 L638.7525,282.46 L638.7525,299.917 L658.9005,299.917 L658.9005,282.46 L668.2155,282.46 Z M694.0215,293.086 C704.0955,293.086 712.3755,300.814 712.3755,310.888 C712.3755,321.031 704.0955,328.759 693.9525,328.759 C683.8095,328.759 675.7365,321.031 675.7365,310.888 C675.7365,300.814 683.8095,293.086 694.0215,293.086 Z M694.0215,301.573 C688.8465,301.573 685.1895,305.575 685.1895,310.957 C685.1895,316.339 688.8465,320.203 694.0215,320.203 C699.0585,320.203 702.8535,316.27 702.8535,310.957 C702.8535,305.575 699.0585,301.573 694.0215,301.573 Z M759.3645,293.086 C767.5065,293.086 772.2675,298.606 772.2675,306.817 L772.2675,328 L762.9525,328 L762.9525,308.128 C762.9525,304.057 760.5375,301.504 756.8805,301.504 C753.1545,301.504 750.6015,304.126 750.6015,307.921 L750.6015,328 L741.2865,328 L741.2865,308.128 C741.2865,304.057 738.8715,301.504 735.2145,301.504 C731.4885,301.504 728.9355,304.057 728.9355,308.128 L728.9355,328 L719.6205,328 L719.6205,293.845 L728.1765,293.845 L728.1765,296.881 C730.4535,294.535 733.7655,293.086 737.8365,293.086 C742.4595,293.086 745.9095,294.88 747.9795,297.985 C750.5325,295.018 754.6035,293.086 759.3645,293.086 Z M813.1845,308.956 C813.1845,310.888 812.8395,312.889 812.5635,314.062 L788.5515,314.062 C789.7245,318.409 793.3125,320.824 798.2115,320.824 C801.9375,320.824 804.9735,319.513 807.7335,317.374 L811.5975,323.722 C807.7335,326.965 803.1795,328.828 797.9355,328.828 C787.1025,328.828 779.2365,321.031 779.2365,310.957 C779.2365,300.883 787.0335,293.086 797.1075,293.086 C806.6985,293.086 813.1845,300.124 813.1845,308.956 Z M796.7625,300.607 C792.8295,300.607 789.6555,303.229 788.5515,307.507 L804.1455,307.507 C804.0765,303.16 800.6955,300.607 796.7625,300.607 Z" id="Home"></path>
        </g>
    </g>
</svg>