<?xml version="1.0" encoding="UTF-8"?>
<svg width="683px" height="197px" viewBox="0 0 683 197" version="1.1" xmlns="http://www.w3.org/2000/svg" xmlns:xlink="http://www.w3.org/1999/xlink">
    <!-- Generator: Sketch 59 (86127) - https://sketch.com -->
    <title>industrious3</title>
    <desc>Created with Sketch.</desc>
    <g id="Page-1" stroke="none" stroke-width="1" fill="none" fill-rule="evenodd">
        <g id="Desktop-HD-Copy-43" transform="translate(-379.000000, -1857.000000)" fill="#404648" fill-rule="nonzero">
            <path d="M399.826049,1870.658 C401.220049,1869.638 402.002049,1868.108 402.002049,1866.238 C402.002049,1862.974 399.588049,1860.56 395.610049,1860.56 L387.892049,1860.56 L387.892049,1883 L397.140049,1883 C401.594049,1883 404.246049,1880.246 404.246049,1876.54 C404.246049,1873.684 402.648049,1871.474 399.826049,1870.658 Z M395.338049,1862.94 C397.956049,1862.94 399.282049,1864.334 399.282049,1866.408 C399.282049,1868.482 397.956049,1869.91 395.338049,1869.91 L390.544049,1869.91 L390.544049,1862.94 L395.338049,1862.94 Z M396.868049,1880.62 L390.544049,1880.62 L390.544049,1872.324 L396.868049,1872.324 C399.894049,1872.324 401.526049,1874.058 401.526049,1876.472 C401.526049,1878.92 399.894049,1880.62 396.868049,1880.62 Z M423.414729,1873.548 C423.414729,1869.128 420.116729,1866.068 415.866729,1866.068 C411.106729,1866.068 407.400729,1869.91 407.400729,1874.738 C407.400729,1879.6 411.174729,1883.374 416.172729,1883.374 C418.892729,1883.374 421.136729,1882.252 422.802729,1880.484 L421.272729,1878.716 C419.912729,1880.076 418.280729,1880.96 416.206729,1880.96 C412.942729,1880.96 410.494729,1878.818 410.154729,1875.52 L423.210729,1875.52 L423.249451,1875.32906 C423.320285,1874.9505 423.414729,1874.28467 423.414729,1873.548 Z M415.798729,1868.448 C418.450729,1868.448 420.694729,1870.148 420.728729,1873.208 L410.256729,1873.208 C410.800729,1870.352 413.010729,1868.448 415.798729,1868.448 Z M435.44341,1866.068 C430.61541,1866.068 426.77341,1869.876 426.77341,1874.704 C426.77341,1879.566 430.61541,1883.374 435.44341,1883.374 C438.40141,1883.374 440.78141,1881.946 442.24341,1879.77 L440.37341,1878.308 C439.14941,1879.94 437.58541,1880.96 435.47741,1880.96 C432.00941,1880.96 429.45941,1878.206 429.45941,1874.704 C429.45941,1871.236 432.00941,1868.482 435.47741,1868.482 C437.61941,1868.482 439.18341,1869.536 440.40741,1871.168 L442.27741,1869.672 C440.81541,1867.496 438.43541,1866.068 435.44341,1866.068 Z M452.60609,1866.068 C449.95409,1866.068 447.43809,1867.19 445.87409,1869.706 L447.60809,1871.134 C448.90009,1869.468 450.36209,1868.482 452.43609,1868.482 C454.88409,1868.482 456.44809,1869.876 456.44809,1872.664 L456.44809,1874.092 L451.21209,1874.092 C447.60809,1874.092 445.26209,1875.928 445.26209,1878.716 C445.26209,1881.606 447.71009,1883.374 451.04209,1883.374 C453.49009,1883.374 455.42809,1882.456 456.61809,1880.858 L456.61809,1883 L459.06609,1883 L459.06609,1872.8 C459.06609,1868.346 456.38009,1866.068 452.60609,1866.068 Z M451.38209,1881.198 C449.54609,1881.198 447.94809,1880.348 447.94809,1878.58 C447.94809,1877.016 449.20609,1876.234 451.51809,1876.234 L456.44809,1876.234 L456.44809,1876.642 C456.44809,1879.226 454.10209,1881.198 451.38209,1881.198 Z M478.064771,1866.442 L475.446771,1866.442 L475.446771,1876.574 C475.446771,1879.294 473.542771,1880.96 471.230771,1880.96 C468.850771,1880.96 466.946771,1879.294 466.946771,1876.574 L466.946771,1866.442 L464.362771,1866.442 L464.362771,1876.404 C464.362771,1880.654 467.354771,1883.374 471.230771,1883.374 C475.038771,1883.374 478.064771,1880.654 478.064771,1876.404 L478.064771,1866.442 Z M488.563451,1866.068 C485.537451,1866.068 482.987451,1867.7 482.987451,1870.692 C482.987451,1872.99267 484.480694,1874.14957 486.852937,1875.17622 L488.699451,1875.962 L489.10629,1876.12976 C490.560951,1876.73881 491.589451,1877.305 491.589451,1878.614 C491.589451,1880.11 490.161451,1880.96 488.427451,1880.96 C486.421451,1880.96 485.027451,1879.838 483.667451,1878.41 L482.001451,1880.144 C483.327451,1881.912 485.537451,1883.374 488.461451,1883.374 C491.521451,1883.374 494.275451,1881.742 494.275451,1878.512 C494.275451,1876.24168 492.969936,1874.95845 490.174018,1873.73788 L487.902772,1872.77898 C486.382052,1872.12302 485.673451,1871.58043 485.673451,1870.556 C485.673451,1869.196 486.863451,1868.482 488.427451,1868.482 C489.991451,1868.482 491.419451,1869.196 492.507451,1870.318 L494.105451,1868.686 C492.813451,1867.088 490.943451,1866.068 488.563451,1866.068 Z M513.784132,1873.548 C513.784132,1869.128 510.486132,1866.068 506.236132,1866.068 C501.476132,1866.068 497.770132,1869.91 497.770132,1874.738 C497.770132,1879.6 501.544132,1883.374 506.542132,1883.374 C509.262132,1883.374 511.506132,1882.252 513.172132,1880.484 L511.642132,1878.716 C510.282132,1880.076 508.650132,1880.96 506.576132,1880.96 C503.312132,1880.96 500.864132,1878.818 500.524132,1875.52 L513.580132,1875.52 L513.640694,1875.20709 C513.707632,1874.81662 513.784132,1874.211 513.784132,1873.548 Z M506.168132,1868.448 C508.820132,1868.448 511.064132,1870.148 511.098132,1873.208 L500.626132,1873.208 C501.170132,1870.352 503.380132,1868.448 506.168132,1868.448 Z M541.785493,1860.56 L534.509493,1878.104 L527.199493,1860.56 L524.275493,1860.56 L533.999493,1883.374 L534.985493,1883.374 L544.709493,1860.56 L541.785493,1860.56 Z M553.916174,1866.068 C549.054174,1866.068 545.246174,1869.842 545.246174,1874.704 C545.246174,1879.566 549.088174,1883.306 553.882174,1883.34 C558.710174,1883.34 562.586174,1879.532 562.586174,1874.704 C562.586174,1869.842 558.710174,1866.068 553.916174,1866.068 Z M553.916174,1868.482 C557.316174,1868.482 559.900174,1871.168 559.900174,1874.738 C559.900174,1878.206 557.316174,1880.926 553.882174,1880.926 C550.448174,1880.926 547.932174,1878.24 547.932174,1874.738 C547.898174,1871.202 550.448174,1868.482 553.916174,1868.482 Z M574.716854,1866.306 C572.744854,1866.306 570.806854,1867.19 569.582854,1868.822 L569.582854,1866.442 L567.134854,1866.442 L567.134854,1883 L569.752854,1883 L569.752854,1873.616 C569.752854,1870.454 572.268854,1868.754 574.954854,1868.754 L575.940854,1868.754 L575.940854,1866.442 L575.644668,1866.3853 C575.389915,1866.34069 575.105426,1866.306 574.716854,1866.306 Z M586.949535,1866.068 C584.807535,1866.068 583.005535,1866.884 581.849535,1868.244 L581.849535,1866.442 L579.401535,1866.442 L579.401535,1883 L582.019535,1883 L582.019535,1872.902 C582.019535,1870.318 583.821535,1868.482 586.371535,1868.482 C588.921535,1868.482 590.485535,1870.284 590.485535,1872.902 L590.485535,1883 L593.103535,1883 L593.103535,1872.596 C593.103535,1868.754 590.859535,1866.068 586.949535,1866.068 Z M604.554215,1866.068 C601.902215,1866.068 599.386215,1867.19 597.822215,1869.706 L599.556215,1871.134 C600.848215,1869.468 602.310215,1868.482 604.384215,1868.482 C606.832215,1868.482 608.396215,1869.876 608.396215,1872.664 L608.396215,1874.092 L603.160215,1874.092 C599.556215,1874.092 597.210215,1875.928 597.210215,1878.716 C597.210215,1881.606 599.658215,1883.374 602.990215,1883.374 C605.438215,1883.374 607.376215,1882.456 608.566215,1880.858 L608.566215,1883 L611.014215,1883 L611.014215,1872.8 C611.014215,1868.346 608.328215,1866.068 604.554215,1866.068 Z M603.330215,1881.198 C601.494215,1881.198 599.896215,1880.348 599.896215,1878.58 C599.896215,1877.016 601.154215,1876.234 603.466215,1876.234 L608.396215,1876.234 L608.396215,1876.642 C608.396215,1879.226 606.050215,1881.198 603.330215,1881.198 Z M629.638896,1857.5 L629.638896,1868.89 C628.312896,1867.122 626.034896,1866.068 623.518896,1866.068 C618.792896,1866.068 615.324896,1869.842 615.324896,1874.738 C615.324896,1879.6 618.792896,1883.374 623.518896,1883.374 C626.136896,1883.374 628.482896,1882.252 629.774896,1880.348 L629.774896,1883 L632.256896,1883 L632.256896,1857.5 L629.638896,1857.5 Z M623.892896,1880.96 C620.492896,1880.96 618.010896,1878.308 618.010896,1874.704 C618.010896,1871.1 620.526896,1868.482 623.892896,1868.482 C626.748896,1868.482 629.672896,1870.386 629.672896,1874.738 C629.672896,1879.09 626.748896,1880.96 623.892896,1880.96 Z M645.441576,1866.068 C640.579576,1866.068 636.771576,1869.842 636.771576,1874.704 C636.771576,1879.566 640.613576,1883.306 645.407576,1883.34 C650.235576,1883.34 654.111576,1879.532 654.111576,1874.704 C654.111576,1869.842 650.235576,1866.068 645.441576,1866.068 Z M645.441576,1868.482 C648.841576,1868.482 651.425576,1871.168 651.425576,1874.738 C651.425576,1878.206 648.841576,1880.926 645.407576,1880.926 C641.973576,1880.926 639.457576,1878.24 639.457576,1874.738 C639.423576,1871.202 641.973576,1868.482 645.441576,1868.482 Z M681.262937,1857.5 L681.262937,1868.89 C679.936937,1867.122 677.658937,1866.068 675.142937,1866.068 C670.416937,1866.068 666.948937,1869.842 666.948937,1874.738 C666.948937,1879.6 670.416937,1883.374 675.142937,1883.374 C677.760937,1883.374 680.106937,1882.252 681.398937,1880.348 L681.398937,1883 L683.880937,1883 L683.880937,1857.5 L681.262937,1857.5 Z M675.516937,1880.96 C672.116937,1880.96 669.634937,1878.308 669.634937,1874.704 C669.634937,1871.1 672.150937,1868.482 675.516937,1868.482 C678.372937,1868.482 681.296937,1870.386 681.296937,1874.738 C681.296937,1879.09 678.372937,1880.96 675.516937,1880.96 Z M690.911618,1858.214 C689.789618,1858.214 688.939618,1859.064 688.939618,1860.118 C688.939618,1861.206 689.789618,1862.022 690.911618,1862.022 C691.965618,1862.022 692.849618,1861.206 692.849618,1860.118 C692.849618,1859.064 691.965618,1858.214 690.911618,1858.214 Z M692.203618,1866.442 L689.585618,1866.442 L689.585618,1883 L692.203618,1883 L692.203618,1866.442 Z M711.032299,1857.5 L711.032299,1868.89 C709.706299,1867.122 707.428299,1866.068 704.912299,1866.068 C700.186299,1866.068 696.718299,1869.842 696.718299,1874.738 C696.718299,1879.6 700.186299,1883.374 704.912299,1883.374 C707.530299,1883.374 709.876299,1882.252 711.168299,1880.348 L711.168299,1883 L713.650299,1883 L713.650299,1857.5 L711.032299,1857.5 Z M705.286299,1880.96 C701.886299,1880.96 699.404299,1878.308 699.404299,1874.704 C699.404299,1871.1 701.920299,1868.482 705.286299,1868.482 C708.142299,1868.482 711.066299,1870.386 711.066299,1874.738 C711.066299,1879.09 708.142299,1880.96 705.286299,1880.96 Z M726.902979,1866.068 C724.760979,1866.068 722.958979,1866.884 721.802979,1868.244 L721.802979,1866.442 L719.354979,1866.442 L719.354979,1883 L721.972979,1883 L721.972979,1872.902 C721.972979,1870.318 723.774979,1868.482 726.324979,1868.482 C728.874979,1868.482 730.438979,1870.284 730.438979,1872.902 L730.438979,1883 L733.056979,1883 L733.056979,1872.596 C733.056979,1868.754 730.812979,1866.068 726.902979,1866.068 Z M742.05966,1860.56 L738.99966,1860.56 L738.52366,1869.298 L740.59766,1869.298 L742.05966,1860.56 Z M754.87034,1880.994 C752.79634,1880.994 751.36834,1880.314 751.36834,1877.832 L751.36834,1868.788 L756.53634,1868.788 L756.53634,1866.442 L751.36834,1866.442 L751.36834,1861.92 L748.75034,1861.92 L748.75034,1866.442 L745.96234,1866.442 L745.96234,1868.788 L748.75034,1868.788 L748.75034,1878.002 C748.75034,1881.776 751.06234,1883.374 754.32634,1883.374 C755.38034,1883.374 756.23034,1883.204 757.08034,1883 L757.08034,1880.79 C756.23034,1880.926 755.51634,1880.994 754.87034,1880.994 Z M778.009701,1866.068 C775.867701,1866.068 774.133701,1866.918 773.045701,1868.312 L773.045701,1857.5 L770.427701,1857.5 L770.427701,1883 L773.045701,1883 L773.045701,1872.936 C773.045701,1870.352 774.847701,1868.482 777.397701,1868.482 C779.947701,1868.482 781.511701,1870.318 781.511701,1872.936 L781.511701,1883 L784.129701,1883 L784.129701,1872.596 C784.129701,1868.754 781.885701,1866.068 778.009701,1866.068 Z M795.580382,1866.068 C792.928382,1866.068 790.412382,1867.19 788.848382,1869.706 L790.582382,1871.134 C791.874382,1869.468 793.336382,1868.482 795.410382,1868.482 C797.858382,1868.482 799.422382,1869.876 799.422382,1872.664 L799.422382,1874.092 L794.186382,1874.092 C790.582382,1874.092 788.236382,1875.928 788.236382,1878.716 C788.236382,1881.606 790.684382,1883.374 794.016382,1883.374 C796.464382,1883.374 798.402382,1882.456 799.592382,1880.858 L799.592382,1883 L802.040382,1883 L802.040382,1872.8 C802.040382,1868.346 799.354382,1866.068 795.580382,1866.068 Z M794.356382,1881.198 C792.520382,1881.198 790.922382,1880.348 790.922382,1878.58 C790.922382,1877.016 792.180382,1876.234 794.492382,1876.234 L799.422382,1876.234 L799.422382,1876.642 C799.422382,1879.226 797.076382,1881.198 794.356382,1881.198 Z M818.625063,1866.442 L813.151063,1878.92 L807.643063,1866.442 L804.855063,1866.442 L812.675063,1883.374 L813.627063,1883.374 L821.413063,1866.442 L818.625063,1866.442 Z M839.289743,1873.548 C839.289743,1869.128 835.991743,1866.068 831.741743,1866.068 C826.981743,1866.068 823.275743,1869.91 823.275743,1874.738 C823.275743,1879.6 827.049743,1883.374 832.047743,1883.374 C834.767743,1883.374 837.011743,1882.252 838.677743,1880.484 L837.147743,1878.716 C835.787743,1880.076 834.155743,1880.96 832.081743,1880.96 C828.817743,1880.96 826.369743,1878.818 826.029743,1875.52 L839.085743,1875.52 L839.124465,1875.32906 C839.195299,1874.9505 839.289743,1874.28467 839.289743,1873.548 Z M831.673743,1868.448 C834.325743,1868.448 836.569743,1870.148 836.603743,1873.208 L826.131743,1873.208 C826.675743,1870.352 828.885743,1868.448 831.673743,1868.448 Z M859.267104,1866.068 C856.615104,1866.068 854.099104,1867.19 852.535104,1869.706 L854.269104,1871.134 C855.561104,1869.468 857.023104,1868.482 859.097104,1868.482 C861.545104,1868.482 863.109104,1869.876 863.109104,1872.664 L863.109104,1874.092 L857.873104,1874.092 C854.269104,1874.092 851.923104,1875.928 851.923104,1878.716 C851.923104,1881.606 854.371104,1883.374 857.703104,1883.374 C860.151104,1883.374 862.089104,1882.456 863.279104,1880.858 L863.279104,1883 L865.727104,1883 L865.727104,1872.8 C865.727104,1868.346 863.041104,1866.068 859.267104,1866.068 Z M858.043104,1881.198 C856.207104,1881.198 854.609104,1880.348 854.609104,1878.58 C854.609104,1877.016 855.867104,1876.234 858.179104,1876.234 L863.109104,1876.234 L863.109104,1876.642 C863.109104,1879.226 860.763104,1881.198 858.043104,1881.198 Z M887.540465,1880.994 C885.466465,1880.994 884.038465,1880.314 884.038465,1877.832 L884.038465,1868.788 L889.206465,1868.788 L889.206465,1866.442 L884.038465,1866.442 L884.038465,1861.92 L881.420465,1861.92 L881.420465,1866.442 L878.632465,1866.442 L878.632465,1868.788 L881.420465,1868.788 L881.420465,1878.002 C881.420465,1881.776 883.732465,1883.374 886.996465,1883.374 C888.050465,1883.374 888.900465,1883.204 889.750465,1883 L889.750465,1880.79 C888.900465,1880.926 888.186465,1880.994 887.540465,1880.994 Z M901.201146,1866.306 C899.229146,1866.306 897.291146,1867.19 896.067146,1868.822 L896.067146,1866.442 L893.619146,1866.442 L893.619146,1883 L896.237146,1883 L896.237146,1873.616 C896.237146,1870.454 898.753146,1868.754 901.439146,1868.754 L902.425146,1868.754 L902.425146,1866.442 L902.128959,1866.3853 C901.874207,1866.34069 901.589717,1866.306 901.201146,1866.306 Z M919.383826,1866.442 L916.765826,1866.442 L916.765826,1876.574 C916.765826,1879.294 914.861826,1880.96 912.549826,1880.96 C910.169826,1880.96 908.265826,1879.294 908.265826,1876.574 L908.265826,1866.442 L905.681826,1866.442 L905.681826,1876.404 C905.681826,1880.654 908.673826,1883.374 912.549826,1883.374 C916.357826,1883.374 919.383826,1880.654 919.383826,1876.404 L919.383826,1866.442 Z M939.708507,1873.548 C939.708507,1869.128 936.410507,1866.068 932.160507,1866.068 C927.400507,1866.068 923.694507,1869.91 923.694507,1874.738 C923.694507,1879.6 927.468507,1883.374 932.466507,1883.374 C935.186507,1883.374 937.430507,1882.252 939.096507,1880.484 L937.566507,1878.716 C936.206507,1880.076 934.574507,1880.96 932.500507,1880.96 C929.236507,1880.96 926.788507,1878.818 926.448507,1875.52 L939.504507,1875.52 L939.543229,1875.32906 C939.614063,1874.9505 939.708507,1874.28467 939.708507,1873.548 Z M932.092507,1868.448 C934.744507,1868.448 936.988507,1870.148 937.022507,1873.208 L926.550507,1873.208 C927.094507,1870.352 929.304507,1868.448 932.092507,1868.448 Z M966.859868,1857.5 L966.859868,1868.89 C965.533868,1867.122 963.255868,1866.068 960.739868,1866.068 C956.013868,1866.068 952.545868,1869.842 952.545868,1874.738 C952.545868,1879.6 956.013868,1883.374 960.739868,1883.374 C963.357868,1883.374 965.703868,1882.252 966.995868,1880.348 L966.995868,1883 L969.477868,1883 L969.477868,1857.5 L966.859868,1857.5 Z M961.113868,1880.96 C957.713868,1880.96 955.231868,1878.308 955.231868,1874.704 C955.231868,1871.1 957.747868,1868.482 961.113868,1868.482 C963.969868,1868.482 966.893868,1870.386 966.893868,1874.738 C966.893868,1879.09 963.969868,1880.96 961.113868,1880.96 Z M990.006549,1873.548 C990.006549,1869.128 986.708549,1866.068 982.458549,1866.068 C977.698549,1866.068 973.992549,1869.91 973.992549,1874.738 C973.992549,1879.6 977.766549,1883.374 982.764549,1883.374 C985.484549,1883.374 987.728549,1882.252 989.394549,1880.484 L987.864549,1878.716 C986.504549,1880.076 984.872549,1880.96 982.798549,1880.96 C979.534549,1880.96 977.086549,1878.818 976.746549,1875.52 L989.802549,1875.52 L989.841271,1875.32906 C989.912104,1874.9505 990.006549,1874.28467 990.006549,1873.548 Z M982.390549,1868.448 C985.042549,1868.448 987.286549,1870.148 987.320549,1873.208 L976.848549,1873.208 C977.392549,1870.352 979.602549,1868.448 982.390549,1868.448 Z M999.553229,1866.068 C996.527229,1866.068 993.977229,1867.7 993.977229,1870.692 C993.977229,1872.99267 995.470471,1874.14957 997.842714,1875.17622 L999.689229,1875.962 L1000.09607,1876.12976 C1001.55073,1876.73881 1002.57923,1877.305 1002.57923,1878.614 C1002.57923,1880.11 1001.15123,1880.96 999.417229,1880.96 C997.411229,1880.96 996.017229,1879.838 994.657229,1878.41 L992.991229,1880.144 C994.317229,1881.912 996.527229,1883.374 999.451229,1883.374 C1002.51123,1883.374 1005.26523,1881.742 1005.26523,1878.512 C1005.26523,1876.24168 1003.95971,1874.95845 1001.1638,1873.73788 L998.89255,1872.77898 C997.37183,1872.12302 996.663229,1871.58043 996.663229,1870.556 C996.663229,1869.196 997.853229,1868.482 999.417229,1868.482 C1000.98123,1868.482 1002.40923,1869.196 1003.49723,1870.318 L1005.09523,1868.686 C1003.80323,1867.088 1001.93323,1866.068 999.553229,1866.068 Z M1011.27591,1858.214 C1010.15391,1858.214 1009.30391,1859.064 1009.30391,1860.118 C1009.30391,1861.206 1010.15391,1862.022 1011.27591,1862.022 C1012.32991,1862.022 1013.21391,1861.206 1013.21391,1860.118 C1013.21391,1859.064 1012.32991,1858.214 1011.27591,1858.214 Z M1012.56791,1866.442 L1009.94991,1866.442 L1009.94991,1883 L1012.56791,1883 L1012.56791,1866.442 Z M1031.70259,1866.442 L1031.70259,1869.128 C1030.41059,1867.224 1028.03059,1866.068 1025.41259,1866.068 C1020.75459,1866.068 1017.28659,1869.672 1017.28659,1874.466 C1017.28659,1879.294 1020.75459,1882.83 1025.41259,1882.83 C1027.89459,1882.83 1030.20659,1881.81 1031.56659,1880.076 L1031.56659,1881.538 C1031.56659,1885.21 1029.42459,1887.08 1026.05859,1887.08 C1023.33859,1887.08 1021.46859,1885.856 1019.87059,1884.462 L1018.34059,1886.298 C1019.97259,1887.93 1022.65859,1889.494 1026.12659,1889.494 C1030.95459,1889.494 1034.18459,1886.502 1034.18459,1881.402 L1034.18459,1866.442 L1031.70259,1866.442 Z M1025.82059,1880.416 C1022.45459,1880.416 1019.93859,1878.002 1019.93859,1874.5 C1019.93859,1870.998 1022.45459,1868.55 1025.82059,1868.55 C1028.67659,1868.55 1031.60059,1870.318 1031.60059,1874.466 C1031.60059,1878.614 1028.71059,1880.416 1025.82059,1880.416 Z M1047.43727,1866.068 C1045.29527,1866.068 1043.49327,1866.884 1042.33727,1868.244 L1042.33727,1866.442 L1039.88927,1866.442 L1039.88927,1883 L1042.50727,1883 L1042.50727,1872.902 C1042.50727,1870.318 1044.30927,1868.482 1046.85927,1868.482 C1049.40927,1868.482 1050.97327,1870.284 1050.97327,1872.902 L1050.97327,1883 L1053.59127,1883 L1053.59127,1872.596 C1053.59127,1868.754 1051.34727,1866.068 1047.43727,1866.068 Z M433.17875,1898.5 L430.56075,1898.5 L430.56075,1924 L433.17875,1924 L433.17875,1898.5 Z M444.83343,1907.068 C442.18143,1907.068 439.66543,1908.19 438.10143,1910.706 L439.83543,1912.134 C441.12743,1910.468 442.58943,1909.482 444.66343,1909.482 C447.11143,1909.482 448.67543,1910.876 448.67543,1913.664 L448.67543,1915.092 L443.43943,1915.092 C439.83543,1915.092 437.48943,1916.928 437.48943,1919.716 C437.48943,1922.606 439.93743,1924.374 443.26943,1924.374 C445.71743,1924.374 447.65543,1923.456 448.84543,1921.858 L448.84543,1924 L451.29343,1924 L451.29343,1913.8 C451.29343,1909.346 448.60743,1907.068 444.83343,1907.068 Z M443.60943,1922.198 C441.77343,1922.198 440.17543,1921.348 440.17543,1919.58 C440.17543,1918.016 441.43343,1917.234 443.74543,1917.234 L448.67543,1917.234 L448.67543,1917.642 C448.67543,1920.226 446.32943,1922.198 443.60943,1922.198 Z M464.342111,1907.068 C462.200111,1907.068 460.398111,1907.884 459.242111,1909.244 L459.242111,1907.442 L456.794111,1907.442 L456.794111,1924 L459.412111,1924 L459.412111,1913.902 C459.412111,1911.318 461.214111,1909.482 463.764111,1909.482 C466.314111,1909.482 467.878111,1911.284 467.878111,1913.902 L467.878111,1924 L470.496111,1924 L470.496111,1913.596 C470.496111,1909.754 468.252111,1907.068 464.342111,1907.068 Z M489.426792,1907.442 L489.426792,1910.128 C488.134792,1908.224 485.754792,1907.068 483.136792,1907.068 C478.478792,1907.068 475.010792,1910.672 475.010792,1915.466 C475.010792,1920.294 478.478792,1923.83 483.136792,1923.83 C485.618792,1923.83 487.930792,1922.81 489.290792,1921.076 L489.290792,1922.538 C489.290792,1926.21 487.148792,1928.08 483.782792,1928.08 C481.062792,1928.08 479.192792,1926.856 477.594792,1925.462 L476.064792,1927.298 C477.696792,1928.93 480.382792,1930.494 483.850792,1930.494 C488.678792,1930.494 491.908792,1927.502 491.908792,1922.402 L491.908792,1907.442 L489.426792,1907.442 Z M483.544792,1921.416 C480.178792,1921.416 477.662792,1919.002 477.662792,1915.5 C477.662792,1911.998 480.178792,1909.55 483.544792,1909.55 C486.400792,1909.55 489.324792,1911.318 489.324792,1915.466 C489.324792,1919.614 486.434792,1921.416 483.544792,1921.416 Z M511.111472,1907.442 L508.493472,1907.442 L508.493472,1917.574 C508.493472,1920.294 506.589472,1921.96 504.277472,1921.96 C501.897472,1921.96 499.993472,1920.294 499.993472,1917.574 L499.993472,1907.442 L497.409472,1907.442 L497.409472,1917.404 C497.409472,1921.654 500.401472,1924.374 504.277472,1924.374 C508.085472,1924.374 511.111472,1921.654 511.111472,1917.404 L511.111472,1907.442 Z M522.562153,1907.068 C519.910153,1907.068 517.394153,1908.19 515.830153,1910.706 L517.564153,1912.134 C518.856153,1910.468 520.318153,1909.482 522.392153,1909.482 C524.840153,1909.482 526.404153,1910.876 526.404153,1913.664 L526.404153,1915.092 L521.168153,1915.092 C517.564153,1915.092 515.218153,1916.928 515.218153,1919.716 C515.218153,1922.606 517.666153,1924.374 520.998153,1924.374 C523.446153,1924.374 525.384153,1923.456 526.574153,1921.858 L526.574153,1924 L529.022153,1924 L529.022153,1913.8 C529.022153,1909.346 526.336153,1907.068 522.562153,1907.068 Z M521.338153,1922.198 C519.502153,1922.198 517.904153,1921.348 517.904153,1919.58 C517.904153,1918.016 519.162153,1917.234 521.474153,1917.234 L526.404153,1917.234 L526.404153,1917.642 C526.404153,1920.226 524.058153,1922.198 521.338153,1922.198 Z M547.952833,1907.442 L547.952833,1910.128 C546.660833,1908.224 544.280833,1907.068 541.662833,1907.068 C537.004833,1907.068 533.536833,1910.672 533.536833,1915.466 C533.536833,1920.294 537.004833,1923.83 541.662833,1923.83 C544.144833,1923.83 546.456833,1922.81 547.816833,1921.076 L547.816833,1922.538 C547.816833,1926.21 545.674833,1928.08 542.308833,1928.08 C539.588833,1928.08 537.718833,1926.856 536.120833,1925.462 L534.590833,1927.298 C536.222833,1928.93 538.908833,1930.494 542.376833,1930.494 C547.204833,1930.494 550.434833,1927.502 550.434833,1922.402 L550.434833,1907.442 L547.952833,1907.442 Z M542.070833,1921.416 C538.704833,1921.416 536.188833,1919.002 536.188833,1915.5 C536.188833,1911.998 538.704833,1909.55 542.070833,1909.55 C544.926833,1909.55 547.850833,1911.318 547.850833,1915.466 C547.850833,1919.614 544.960833,1921.416 542.070833,1921.416 Z M570.963514,1914.548 C570.963514,1910.128 567.665514,1907.068 563.415514,1907.068 C558.655514,1907.068 554.949514,1910.91 554.949514,1915.738 C554.949514,1920.6 558.723514,1924.374 563.721514,1924.374 C566.441514,1924.374 568.685514,1923.252 570.351514,1921.484 L568.821514,1919.716 C567.461514,1921.076 565.829514,1921.96 563.755514,1921.96 C560.491514,1921.96 558.043514,1919.818 557.703514,1916.52 L570.759514,1916.52 L570.798236,1916.32906 C570.869069,1915.9505 570.963514,1915.28467 570.963514,1914.548 Z M563.347514,1909.448 C565.999514,1909.448 568.243514,1911.148 568.277514,1914.208 L557.805514,1914.208 C558.349514,1911.352 560.559514,1909.448 563.347514,1909.448 Z M592.470875,1907.068 C587.608875,1907.068 583.800875,1910.842 583.800875,1915.704 C583.800875,1920.566 587.642875,1924.306 592.436875,1924.34 C597.264875,1924.34 601.140875,1920.532 601.140875,1915.704 C601.140875,1910.842 597.264875,1907.068 592.470875,1907.068 Z M592.470875,1909.482 C595.870875,1909.482 598.454875,1912.168 598.454875,1915.738 C598.454875,1919.206 595.870875,1921.926 592.436875,1921.926 C589.002875,1921.926 586.486875,1919.24 586.486875,1915.738 C586.452875,1912.202 589.002875,1909.482 592.470875,1909.482 Z M613.271556,1907.306 C611.299556,1907.306 609.361556,1908.19 608.137556,1909.822 L608.137556,1907.442 L605.689556,1907.442 L605.689556,1924 L608.307556,1924 L608.307556,1914.616 C608.307556,1911.454 610.823556,1909.754 613.509556,1909.754 L614.495556,1909.754 L614.495556,1907.442 L614.199369,1907.3853 C613.944617,1907.34069 613.660127,1907.306 613.271556,1907.306 Z M636.138917,1907.068 C633.622917,1907.068 631.344917,1908.156 630.052917,1909.89 L630.052917,1898.5 L627.434917,1898.5 L627.434917,1924 L629.882917,1924 L629.882917,1921.348 C631.174917,1923.252 633.588917,1924.374 636.172917,1924.374 C640.898917,1924.374 644.332917,1920.6 644.332917,1915.738 C644.332917,1910.842 640.864917,1907.068 636.138917,1907.068 Z M635.764917,1921.96 C632.908917,1921.96 630.018917,1920.09 630.018917,1915.738 C630.018917,1911.386 632.874917,1909.482 635.764917,1909.482 C639.130917,1909.482 641.646917,1912.1 641.646917,1915.704 C641.646917,1919.308 639.164917,1921.96 635.764917,1921.96 Z M656.463597,1907.306 C654.491597,1907.306 652.553597,1908.19 651.329597,1909.822 L651.329597,1907.442 L648.881597,1907.442 L648.881597,1924 L651.499597,1924 L651.499597,1914.616 C651.499597,1911.454 654.015597,1909.754 656.701597,1909.754 L657.687597,1909.754 L657.687597,1907.442 L657.391411,1907.3853 C657.136658,1907.34069 656.852169,1907.306 656.463597,1907.306 Z M666.758278,1907.068 C664.106278,1907.068 661.590278,1908.19 660.026278,1910.706 L661.760278,1912.134 C663.052278,1910.468 664.514278,1909.482 666.588278,1909.482 C669.036278,1909.482 670.600278,1910.876 670.600278,1913.664 L670.600278,1915.092 L665.364278,1915.092 C661.760278,1915.092 659.414278,1916.928 659.414278,1919.716 C659.414278,1922.606 661.862278,1924.374 665.194278,1924.374 C667.642278,1924.374 669.580278,1923.456 670.770278,1921.858 L670.770278,1924 L673.218278,1924 L673.218278,1913.8 C673.218278,1909.346 670.532278,1907.068 666.758278,1907.068 Z M665.534278,1922.198 C663.698278,1922.198 662.100278,1921.348 662.100278,1919.58 C662.100278,1918.016 663.358278,1917.234 665.670278,1917.234 L670.600278,1917.234 L670.600278,1917.642 C670.600278,1920.226 668.254278,1922.198 665.534278,1922.198 Z M686.266958,1907.068 C684.124958,1907.068 682.322958,1907.884 681.166958,1909.244 L681.166958,1907.442 L678.718958,1907.442 L678.718958,1924 L681.336958,1924 L681.336958,1913.902 C681.336958,1911.318 683.138958,1909.482 685.688958,1909.482 C688.238958,1909.482 689.802958,1911.284 689.802958,1913.902 L689.802958,1924 L692.420958,1924 L692.420958,1913.596 C692.420958,1909.754 690.176958,1907.068 686.266958,1907.068 Z M711.045639,1898.5 L711.045639,1909.89 C709.719639,1908.122 707.441639,1907.068 704.925639,1907.068 C700.199639,1907.068 696.731639,1910.842 696.731639,1915.738 C696.731639,1920.6 700.199639,1924.374 704.925639,1924.374 C707.543639,1924.374 709.889639,1923.252 711.181639,1921.348 L711.181639,1924 L713.663639,1924 L713.663639,1898.5 L711.045639,1898.5 Z M705.299639,1921.96 C701.899639,1921.96 699.417639,1919.308 699.417639,1915.704 C699.417639,1912.1 701.933639,1909.482 705.299639,1909.482 C708.155639,1909.482 711.079639,1911.386 711.079639,1915.738 C711.079639,1920.09 708.155639,1921.96 705.299639,1921.96 Z M742.277,1907.442 L742.277,1910.128 C740.985,1908.224 738.605,1907.068 735.987,1907.068 C731.329,1907.068 727.861,1910.672 727.861,1915.466 C727.861,1920.294 731.329,1923.83 735.987,1923.83 C738.469,1923.83 740.781,1922.81 742.141,1921.076 L742.141,1922.538 C742.141,1926.21 739.999,1928.08 736.633,1928.08 C733.913,1928.08 732.043,1926.856 730.445,1925.462 L728.915,1927.298 C730.547,1928.93 733.233,1930.494 736.701,1930.494 C741.529,1930.494 744.759,1927.502 744.759,1922.402 L744.759,1907.442 L742.277,1907.442 Z M736.395,1921.416 C733.029,1921.416 730.513,1919.002 730.513,1915.5 C730.513,1911.998 733.029,1909.55 736.395,1909.55 C739.251,1909.55 742.175,1911.318 742.175,1915.466 C742.175,1919.614 739.285,1921.416 736.395,1921.416 Z M763.961681,1907.442 L761.343681,1907.442 L761.343681,1917.574 C761.343681,1920.294 759.439681,1921.96 757.127681,1921.96 C754.747681,1921.96 752.843681,1920.294 752.843681,1917.574 L752.843681,1907.442 L750.259681,1907.442 L750.259681,1917.404 C750.259681,1921.654 753.251681,1924.374 757.127681,1924.374 C760.935681,1924.374 763.961681,1921.654 763.961681,1917.404 L763.961681,1907.442 Z M770.788361,1899.214 C769.666361,1899.214 768.816361,1900.064 768.816361,1901.118 C768.816361,1902.206 769.666361,1903.022 770.788361,1903.022 C771.842361,1903.022 772.726361,1902.206 772.726361,1901.118 C772.726361,1900.064 771.842361,1899.214 770.788361,1899.214 Z M772.080361,1907.442 L769.462361,1907.442 L769.462361,1924 L772.080361,1924 L772.080361,1907.442 Z M790.909042,1898.5 L790.909042,1909.89 C789.583042,1908.122 787.305042,1907.068 784.789042,1907.068 C780.063042,1907.068 776.595042,1910.842 776.595042,1915.738 C776.595042,1920.6 780.063042,1924.374 784.789042,1924.374 C787.407042,1924.374 789.753042,1923.252 791.045042,1921.348 L791.045042,1924 L793.527042,1924 L793.527042,1898.5 L790.909042,1898.5 Z M785.163042,1921.96 C781.763042,1921.96 779.281042,1919.308 779.281042,1915.704 C779.281042,1912.1 781.797042,1909.482 785.163042,1909.482 C788.019042,1909.482 790.943042,1911.386 790.943042,1915.738 C790.943042,1920.09 788.019042,1921.96 785.163042,1921.96 Z M814.055722,1914.548 C814.055722,1910.128 810.757722,1907.068 806.507722,1907.068 C801.747722,1907.068 798.041722,1910.91 798.041722,1915.738 C798.041722,1920.6 801.815722,1924.374 806.813722,1924.374 C809.533722,1924.374 811.777722,1923.252 813.443722,1921.484 L811.913722,1919.716 C810.553722,1921.076 808.921722,1921.96 806.847722,1921.96 C803.583722,1921.96 801.135722,1919.818 800.795722,1916.52 L813.851722,1916.52 L813.890444,1916.32906 C813.961278,1915.9505 814.055722,1915.28467 814.055722,1914.548 Z M806.439722,1909.448 C809.091722,1909.448 811.335722,1911.148 811.369722,1914.208 L800.897722,1914.208 C801.441722,1911.352 803.651722,1909.448 806.439722,1909.448 Z M821.222403,1898.5 L818.604403,1898.5 L818.604403,1924 L821.222403,1924 L821.222403,1898.5 Z M828.253083,1899.214 C827.131083,1899.214 826.281083,1900.064 826.281083,1901.118 C826.281083,1902.206 827.131083,1903.022 828.253083,1903.022 C829.307083,1903.022 830.191083,1902.206 830.191083,1901.118 C830.191083,1900.064 829.307083,1899.214 828.253083,1899.214 Z M829.545083,1907.442 L826.927083,1907.442 L826.927083,1924 L829.545083,1924 L829.545083,1907.442 Z M842.797764,1907.068 C840.655764,1907.068 838.853764,1907.884 837.697764,1909.244 L837.697764,1907.442 L835.249764,1907.442 L835.249764,1924 L837.867764,1924 L837.867764,1913.902 C837.867764,1911.318 839.669764,1909.482 842.219764,1909.482 C844.769764,1909.482 846.333764,1911.284 846.333764,1913.902 L846.333764,1924 L848.951764,1924 L848.951764,1913.596 C848.951764,1909.754 846.707764,1907.068 842.797764,1907.068 Z M869.276444,1914.548 C869.276444,1910.128 865.978444,1907.068 861.728444,1907.068 C856.968444,1907.068 853.262444,1910.91 853.262444,1915.738 C853.262444,1920.6 857.036444,1924.374 862.034444,1924.374 C864.754444,1924.374 866.998444,1923.252 868.664444,1921.484 L867.134444,1919.716 C865.774444,1921.076 864.142444,1921.96 862.068444,1921.96 C858.804444,1921.96 856.356444,1919.818 856.016444,1916.52 L869.072444,1916.52 L869.111167,1916.32906 C869.182,1915.9505 869.276444,1915.28467 869.276444,1914.548 Z M861.660444,1909.448 C864.312444,1909.448 866.556444,1911.148 866.590444,1914.208 L856.118444,1914.208 C856.662444,1911.352 858.872444,1909.448 861.660444,1909.448 Z M890.137806,1921.994 C888.063806,1921.994 886.635806,1921.314 886.635806,1918.832 L886.635806,1909.788 L891.803806,1909.788 L891.803806,1907.442 L886.635806,1907.442 L886.635806,1902.92 L884.017806,1902.92 L884.017806,1907.442 L881.229806,1907.442 L881.229806,1909.788 L884.017806,1909.788 L884.017806,1919.002 C884.017806,1922.776 886.329806,1924.374 889.593806,1924.374 C890.647806,1924.374 891.497806,1924.204 892.347806,1924 L892.347806,1921.79 C891.497806,1921.926 890.783806,1921.994 890.137806,1921.994 Z M903.798486,1907.068 C901.656486,1907.068 899.922486,1907.918 898.834486,1909.312 L898.834486,1898.5 L896.216486,1898.5 L896.216486,1924 L898.834486,1924 L898.834486,1913.936 C898.834486,1911.352 900.636486,1909.482 903.186486,1909.482 C905.736486,1909.482 907.300486,1911.318 907.300486,1913.936 L907.300486,1924 L909.918486,1924 L909.918486,1913.596 C909.918486,1909.754 907.674486,1907.068 903.798486,1907.068 Z M921.369167,1907.068 C918.717167,1907.068 916.201167,1908.19 914.637167,1910.706 L916.371167,1912.134 C917.663167,1910.468 919.125167,1909.482 921.199167,1909.482 C923.647167,1909.482 925.211167,1910.876 925.211167,1913.664 L925.211167,1915.092 L919.975167,1915.092 C916.371167,1915.092 914.025167,1916.928 914.025167,1919.716 C914.025167,1922.606 916.473167,1924.374 919.805167,1924.374 C922.253167,1924.374 924.191167,1923.456 925.381167,1921.858 L925.381167,1924 L927.829167,1924 L927.829167,1913.8 C927.829167,1909.346 925.143167,1907.068 921.369167,1907.068 Z M920.145167,1922.198 C918.309167,1922.198 916.711167,1921.348 916.711167,1919.58 C916.711167,1918.016 917.969167,1917.234 920.281167,1917.234 L925.211167,1917.234 L925.211167,1917.642 C925.211167,1920.226 922.865167,1922.198 920.145167,1922.198 Z M940.163847,1921.994 C938.089847,1921.994 936.661847,1921.314 936.661847,1918.832 L936.661847,1909.788 L941.829847,1909.788 L941.829847,1907.442 L936.661847,1907.442 L936.661847,1902.92 L934.043847,1902.92 L934.043847,1907.442 L931.255847,1907.442 L931.255847,1909.788 L934.043847,1909.788 L934.043847,1919.002 C934.043847,1922.776 936.355847,1924.374 939.619847,1924.374 C940.673847,1924.374 941.523847,1924.204 942.373847,1924 L942.373847,1921.79 C941.523847,1921.926 940.809847,1921.994 940.163847,1921.994 Z M977.039208,1907.442 L972.347208,1919.614 L966.771208,1907.068 L965.785208,1907.068 L960.243208,1919.682 L955.483208,1907.442 L952.695208,1907.442 L959.733208,1924.374 L960.651208,1924.374 L966.261208,1911.862 L971.905208,1924.374 L972.857208,1924.374 L979.827208,1907.442 L977.039208,1907.442 Z M988.863889,1907.068 C986.211889,1907.068 983.695889,1908.19 982.131889,1910.706 L983.865889,1912.134 C985.157889,1910.468 986.619889,1909.482 988.693889,1909.482 C991.141889,1909.482 992.705889,1910.876 992.705889,1913.664 L992.705889,1915.092 L987.469889,1915.092 C983.865889,1915.092 981.519889,1916.928 981.519889,1919.716 C981.519889,1922.606 983.967889,1924.374 987.299889,1924.374 C989.747889,1924.374 991.685889,1923.456 992.875889,1921.858 L992.875889,1924 L995.323889,1924 L995.323889,1913.8 C995.323889,1909.346 992.637889,1907.068 988.863889,1907.068 Z M987.639889,1922.198 C985.803889,1922.198 984.205889,1921.348 984.205889,1919.58 C984.205889,1918.016 985.463889,1917.234 987.775889,1917.234 L992.705889,1917.234 L992.705889,1917.642 C992.705889,1920.226 990.359889,1922.198 987.639889,1922.198 Z M1005.82257,1907.068 C1002.79657,1907.068 1000.24657,1908.7 1000.24657,1911.692 C1000.24657,1913.99267 1001.73981,1915.14957 1004.11205,1916.17622 L1005.95857,1916.962 L1006.36541,1917.12976 C1007.82007,1917.73881 1008.84857,1918.305 1008.84857,1919.614 C1008.84857,1921.11 1007.42057,1921.96 1005.68657,1921.96 C1003.68057,1921.96 1002.28657,1920.838 1000.92657,1919.41 L999.26057,1921.144 C1000.58657,1922.912 1002.79657,1924.374 1005.72057,1924.374 C1008.78057,1924.374 1011.53457,1922.742 1011.53457,1919.512 C1011.53457,1917.24168 1010.22905,1915.95845 1007.43314,1914.73788 L1005.16189,1913.77898 C1003.64117,1913.12302 1002.93257,1912.58043 1002.93257,1911.556 C1002.93257,1910.196 1004.12257,1909.482 1005.68657,1909.482 C1007.25057,1909.482 1008.67857,1910.196 1009.76657,1911.318 L1011.36457,1909.686 C1010.07257,1908.088 1008.20257,1907.068 1005.82257,1907.068 Z M404.032368,1948.068 C401.380368,1948.068 398.864368,1949.19 397.300368,1951.706 L399.034368,1953.134 C400.326368,1951.468 401.788368,1950.482 403.862368,1950.482 C406.310368,1950.482 407.874368,1951.876 407.874368,1954.664 L407.874368,1956.092 L402.638368,1956.092 C399.034368,1956.092 396.688368,1957.928 396.688368,1960.716 C396.688368,1963.606 399.136368,1965.374 402.468368,1965.374 C404.916368,1965.374 406.854368,1964.456 408.044368,1962.858 L408.044368,1965 L410.492368,1965 L410.492368,1954.8 C410.492368,1950.346 407.806368,1948.068 404.032368,1948.068 Z M402.808368,1963.198 C400.972368,1963.198 399.374368,1962.348 399.374368,1960.58 C399.374368,1959.016 400.632368,1958.234 402.944368,1958.234 L407.874368,1958.234 L407.874368,1958.642 C407.874368,1961.226 405.528368,1963.198 402.808368,1963.198 Z M427.077049,1948.442 L421.603049,1960.92 L416.095049,1948.442 L413.307049,1948.442 L421.127049,1965.374 L422.079049,1965.374 L429.865049,1948.442 L427.077049,1948.442 Z M438.867729,1948.068 C436.215729,1948.068 433.699729,1949.19 432.135729,1951.706 L433.869729,1953.134 C435.161729,1951.468 436.623729,1950.482 438.697729,1950.482 C441.145729,1950.482 442.709729,1951.876 442.709729,1954.664 L442.709729,1956.092 L437.473729,1956.092 C433.869729,1956.092 431.523729,1957.928 431.523729,1960.716 C431.523729,1963.606 433.971729,1965.374 437.303729,1965.374 C439.751729,1965.374 441.689729,1964.456 442.879729,1962.858 L442.879729,1965 L445.327729,1965 L445.327729,1954.8 C445.327729,1950.346 442.641729,1948.068 438.867729,1948.068 Z M437.643729,1963.198 C435.807729,1963.198 434.209729,1962.348 434.209729,1960.58 C434.209729,1959.016 435.467729,1958.234 437.779729,1958.234 L442.709729,1958.234 L442.709729,1958.642 C442.709729,1961.226 440.363729,1963.198 437.643729,1963.198 Z M452.15441,1940.214 C451.03241,1940.214 450.18241,1941.064 450.18241,1942.118 C450.18241,1943.206 451.03241,1944.022 452.15441,1944.022 C453.20841,1944.022 454.09241,1943.206 454.09241,1942.118 C454.09241,1941.064 453.20841,1940.214 452.15441,1940.214 Z M453.44641,1948.442 L450.82841,1948.442 L450.82841,1965 L453.44641,1965 L453.44641,1948.442 Z M461.76909,1939.5 L459.15109,1939.5 L459.15109,1965 L461.76909,1965 L461.76909,1939.5 Z M473.423771,1948.068 C470.771771,1948.068 468.255771,1949.19 466.691771,1951.706 L468.425771,1953.134 C469.717771,1951.468 471.179771,1950.482 473.253771,1950.482 C475.701771,1950.482 477.265771,1951.876 477.265771,1954.664 L477.265771,1956.092 L472.029771,1956.092 C468.425771,1956.092 466.079771,1957.928 466.079771,1960.716 C466.079771,1963.606 468.527771,1965.374 471.859771,1965.374 C474.307771,1965.374 476.245771,1964.456 477.435771,1962.858 L477.435771,1965 L479.883771,1965 L479.883771,1954.8 C479.883771,1950.346 477.197771,1948.068 473.423771,1948.068 Z M472.199771,1963.198 C470.363771,1963.198 468.765771,1962.348 468.765771,1960.58 C468.765771,1959.016 470.023771,1958.234 472.335771,1958.234 L477.265771,1958.234 L477.265771,1958.642 C477.265771,1961.226 474.919771,1963.198 472.199771,1963.198 Z M494.088451,1948.068 C491.572451,1948.068 489.294451,1949.156 488.002451,1950.89 L488.002451,1939.5 L485.384451,1939.5 L485.384451,1965 L487.832451,1965 L487.832451,1962.348 C489.124451,1964.252 491.538451,1965.374 494.122451,1965.374 C498.848451,1965.374 502.282451,1961.6 502.282451,1956.738 C502.282451,1951.842 498.814451,1948.068 494.088451,1948.068 Z M493.714451,1962.96 C490.858451,1962.96 487.968451,1961.09 487.968451,1956.738 C487.968451,1952.386 490.824451,1950.482 493.714451,1950.482 C497.080451,1950.482 499.596451,1953.1 499.596451,1956.704 C499.596451,1960.308 497.114451,1962.96 493.714451,1962.96 Z M509.449132,1939.5 L506.831132,1939.5 L506.831132,1965 L509.449132,1965 L509.449132,1939.5 Z M529.977812,1955.548 C529.977812,1951.128 526.679812,1948.068 522.429812,1948.068 C517.669812,1948.068 513.963812,1951.91 513.963812,1956.738 C513.963812,1961.6 517.737812,1965.374 522.735812,1965.374 C525.455812,1965.374 527.699812,1964.252 529.365812,1962.484 L527.835812,1960.716 C526.475812,1962.076 524.843812,1962.96 522.769812,1962.96 C519.505812,1962.96 517.057812,1960.818 516.717812,1957.52 L529.773812,1957.52 L529.812535,1957.32906 C529.883368,1956.9505 529.977812,1956.28467 529.977812,1955.548 Z M522.361812,1950.448 C525.013812,1950.448 527.257812,1952.148 527.291812,1955.208 L516.819812,1955.208 C517.363812,1952.352 519.573812,1950.448 522.361812,1950.448 Z M550.499174,1941.506 C550.941174,1941.506 551.417174,1941.54 551.961174,1941.608 L551.961174,1939.398 C551.349174,1939.228 550.703174,1939.126 549.887174,1939.126 C546.691174,1939.126 544.413174,1940.724 544.413174,1944.498 L544.413174,1948.442 L542.033174,1948.442 L542.033174,1950.788 L544.413174,1950.788 L544.413174,1965 L547.031174,1965 L547.031174,1950.788 L551.179174,1950.788 L551.179174,1948.442 L547.031174,1948.442 L547.031174,1944.668 C547.031174,1942.186 548.459174,1941.506 550.499174,1941.506 Z M561.745854,1948.068 C556.883854,1948.068 553.075854,1951.842 553.075854,1956.704 C553.075854,1961.566 556.917854,1965.306 561.711854,1965.34 C566.539854,1965.34 570.415854,1961.532 570.415854,1956.704 C570.415854,1951.842 566.539854,1948.068 561.745854,1948.068 Z M561.745854,1950.482 C565.145854,1950.482 567.729854,1953.168 567.729854,1956.738 C567.729854,1960.206 565.145854,1962.926 561.711854,1962.926 C558.277854,1962.926 555.761854,1960.24 555.761854,1956.738 C555.727854,1953.202 558.277854,1950.482 561.745854,1950.482 Z M582.546535,1948.306 C580.574535,1948.306 578.636535,1949.19 577.412535,1950.822 L577.412535,1948.442 L574.964535,1948.442 L574.964535,1965 L577.582535,1965 L577.582535,1955.616 C577.582535,1952.454 580.098535,1950.754 582.784535,1950.754 L583.770535,1950.754 L583.770535,1948.442 L583.474348,1948.3853 C583.219596,1948.34069 582.935106,1948.306 582.546535,1948.306 Z M610.207896,1948.442 L607.589896,1948.442 L607.589896,1958.574 C607.589896,1961.294 605.685896,1962.96 603.373896,1962.96 C600.993896,1962.96 599.089896,1961.294 599.089896,1958.574 L599.089896,1948.442 L596.505896,1948.442 L596.505896,1958.404 C596.505896,1962.654 599.497896,1965.374 603.373896,1965.374 C607.181896,1965.374 610.207896,1962.654 610.207896,1958.404 L610.207896,1948.442 Z M620.706576,1948.068 C617.680576,1948.068 615.130576,1949.7 615.130576,1952.692 C615.130576,1954.99267 616.623819,1956.14957 618.996062,1957.17622 L620.842576,1957.962 L621.249415,1958.12976 C622.704076,1958.73881 623.732576,1959.305 623.732576,1960.614 C623.732576,1962.11 622.304576,1962.96 620.570576,1962.96 C618.564576,1962.96 617.170576,1961.838 615.810576,1960.41 L614.144576,1962.144 C615.470576,1963.912 617.680576,1965.374 620.604576,1965.374 C623.664576,1965.374 626.418576,1963.742 626.418576,1960.512 C626.418576,1958.24168 625.113061,1956.95845 622.317143,1955.73788 L620.045897,1954.77898 C618.525177,1954.12302 617.816576,1953.58043 617.816576,1952.556 C617.816576,1951.196 619.006576,1950.482 620.570576,1950.482 C622.134576,1950.482 623.562576,1951.196 624.650576,1952.318 L626.248576,1950.686 C624.956576,1949.088 623.086576,1948.068 620.706576,1948.068 Z M645.927257,1955.548 C645.927257,1951.128 642.629257,1948.068 638.379257,1948.068 C633.619257,1948.068 629.913257,1951.91 629.913257,1956.738 C629.913257,1961.6 633.687257,1965.374 638.685257,1965.374 C641.405257,1965.374 643.649257,1964.252 645.315257,1962.484 L643.785257,1960.716 C642.425257,1962.076 640.793257,1962.96 638.719257,1962.96 C635.455257,1962.96 633.007257,1960.818 632.667257,1957.52 L645.723257,1957.52 L645.783819,1957.20709 C645.850757,1956.81662 645.927257,1956.211 645.927257,1955.548 Z M638.311257,1950.448 C640.963257,1950.448 643.207257,1952.148 643.241257,1955.208 L632.769257,1955.208 C633.313257,1952.352 635.523257,1950.448 638.311257,1950.448 Z M654.011937,1961.94 L650.917937,1961.94 L650.475937,1971.086 L652.617937,1971.086 L654.011937,1961.94 Z M671.949299,1942.56 L669.297299,1942.56 L669.297299,1965 L671.949299,1965 L671.949299,1942.56 Z M692.33466,1948.068 C689.30866,1948.068 686.75866,1949.7 686.75866,1952.692 C686.75866,1954.99267 688.251902,1956.14957 690.624145,1957.17622 L692.47066,1957.962 L692.877499,1958.12976 C694.33216,1958.73881 695.36066,1959.305 695.36066,1960.614 C695.36066,1962.11 693.93266,1962.96 692.19866,1962.96 C690.19266,1962.96 688.79866,1961.838 687.43866,1960.41 L685.77266,1962.144 C687.09866,1963.912 689.30866,1965.374 692.23266,1965.374 C695.29266,1965.374 698.04666,1963.742 698.04666,1960.512 C698.04666,1958.24168 696.741145,1956.95845 693.945226,1955.73788 L691.673981,1954.77898 C690.153261,1954.12302 689.44466,1953.58043 689.44466,1952.556 C689.44466,1951.196 690.63466,1950.482 692.19866,1950.482 C693.76266,1950.482 695.19066,1951.196 696.27866,1952.318 L697.87666,1950.686 C696.58466,1949.088 694.71466,1948.068 692.33466,1948.068 Z M709.56534,1962.994 C707.49134,1962.994 706.06334,1962.314 706.06334,1959.832 L706.06334,1950.788 L711.23134,1950.788 L711.23134,1948.442 L706.06334,1948.442 L706.06334,1943.92 L703.44534,1943.92 L703.44534,1948.442 L700.65734,1948.442 L700.65734,1950.788 L703.44534,1950.788 L703.44534,1960.002 C703.44534,1963.776 705.75734,1965.374 709.02134,1965.374 C710.07534,1965.374 710.92534,1965.204 711.77534,1965 L711.77534,1962.79 C710.92534,1962.926 710.21134,1962.994 709.56534,1962.994 Z M721.594021,1948.068 C718.942021,1948.068 716.426021,1949.19 714.862021,1951.706 L716.596021,1953.134 C717.888021,1951.468 719.350021,1950.482 721.424021,1950.482 C723.872021,1950.482 725.436021,1951.876 725.436021,1954.664 L725.436021,1956.092 L720.200021,1956.092 C716.596021,1956.092 714.250021,1957.928 714.250021,1960.716 C714.250021,1963.606 716.698021,1965.374 720.030021,1965.374 C722.478021,1965.374 724.416021,1964.456 725.606021,1962.858 L725.606021,1965 L728.054021,1965 L728.054021,1954.8 C728.054021,1950.346 725.368021,1948.068 721.594021,1948.068 Z M720.370021,1963.198 C718.534021,1963.198 716.936021,1962.348 716.936021,1960.58 C716.936021,1959.016 718.194021,1958.234 720.506021,1958.234 L725.436021,1958.234 L725.436021,1958.642 C725.436021,1961.226 723.090021,1963.198 720.370021,1963.198 Z M741.136701,1948.306 C739.164701,1948.306 737.226701,1949.19 736.002701,1950.822 L736.002701,1948.442 L733.554701,1948.442 L733.554701,1965 L736.172701,1965 L736.172701,1955.616 C736.172701,1952.454 738.688701,1950.754 741.374701,1950.754 L742.360701,1950.754 L742.360701,1948.442 L742.064515,1948.3853 C741.809763,1948.34069 741.525273,1948.306 741.136701,1948.306 Z M752.655382,1962.994 C750.581382,1962.994 749.153382,1962.314 749.153382,1959.832 L749.153382,1950.788 L754.321382,1950.788 L754.321382,1948.442 L749.153382,1948.442 L749.153382,1943.92 L746.535382,1943.92 L746.535382,1948.442 L743.747382,1948.442 L743.747382,1950.788 L746.535382,1950.788 L746.535382,1960.002 C746.535382,1963.776 748.847382,1965.374 752.111382,1965.374 C753.165382,1965.374 754.015382,1965.204 754.865382,1965 L754.865382,1962.79 C754.015382,1962.926 753.301382,1962.994 752.655382,1962.994 Z M773.218063,1955.548 C773.218063,1951.128 769.920063,1948.068 765.670063,1948.068 C760.910063,1948.068 757.204063,1951.91 757.204063,1956.738 C757.204063,1961.6 760.978063,1965.374 765.976063,1965.374 C768.696063,1965.374 770.940063,1964.252 772.606063,1962.484 L771.076063,1960.716 C769.716063,1962.076 768.084063,1962.96 766.010063,1962.96 C762.746063,1962.96 760.298063,1960.818 759.958063,1957.52 L773.014063,1957.52 L773.074625,1957.20709 C773.141563,1956.81662 773.218063,1956.211 773.218063,1955.548 Z M765.602063,1950.448 C768.254063,1950.448 770.498063,1952.148 770.532063,1955.208 L760.060063,1955.208 C760.604063,1952.352 762.814063,1950.448 765.602063,1950.448 Z M790.890743,1939.5 L790.890743,1950.89 C789.564743,1949.122 787.286743,1948.068 784.770743,1948.068 C780.044743,1948.068 776.576743,1951.842 776.576743,1956.738 C776.576743,1961.6 780.044743,1965.374 784.770743,1965.374 C787.388743,1965.374 789.734743,1964.252 791.026743,1962.348 L791.026743,1965 L793.508743,1965 L793.508743,1939.5 L790.890743,1939.5 Z M785.144743,1962.96 C781.744743,1962.96 779.262743,1960.308 779.262743,1956.704 C779.262743,1953.1 781.778743,1950.482 785.144743,1950.482 C788.000743,1950.482 790.924743,1952.386 790.924743,1956.738 C790.924743,1961.09 788.000743,1962.96 785.144743,1962.96 Z M826.848104,1948.068 C824.298104,1948.068 822.326104,1949.258 821.170104,1950.924 C820.252104,1949.19 818.552104,1948.068 816.070104,1948.068 C813.996104,1948.068 812.296104,1948.85 811.140104,1950.176 L811.140104,1948.442 L808.692104,1948.442 L808.692104,1965 L811.310104,1965 L811.310104,1954.936 C811.310104,1952.318 813.010104,1950.482 815.526104,1950.482 C817.974104,1950.482 819.470104,1952.318 819.470104,1954.936 L819.470104,1965 L822.088104,1965 L822.088104,1954.698 C822.088104,1952.386 823.822104,1950.482 826.338104,1950.482 C828.820104,1950.482 830.248104,1952.318 830.248104,1954.936 L830.248104,1965 L832.866104,1965 L832.866104,1954.596 C832.866104,1950.754 830.724104,1948.068 826.848104,1948.068 Z M850.130785,1948.442 L844.656785,1961.634 L839.182785,1948.442 L836.360785,1948.442 L843.228785,1964.456 L842.344785,1966.462 C841.426785,1968.57 840.202785,1969.114 838.604785,1969.114 C838.026785,1969.114 837.380785,1969.046 836.598785,1968.944 L836.598785,1971.154 C837.380785,1971.358 838.332785,1971.494 839.148785,1971.494 C841.664785,1971.494 843.466785,1970.27 844.758785,1967.312 L852.918785,1948.442 L850.130785,1948.442 Z M873.712146,1948.306 C871.740146,1948.306 869.802146,1949.19 868.578146,1950.822 L868.578146,1948.442 L866.130146,1948.442 L866.130146,1965 L868.748146,1965 L868.748146,1955.616 C868.748146,1952.454 871.264146,1950.754 873.950146,1950.754 L874.936146,1950.754 L874.936146,1948.442 L874.639959,1948.3853 C874.385207,1948.34069 874.100717,1948.306 873.712146,1948.306 Z M892.880826,1955.548 C892.880826,1951.128 889.582826,1948.068 885.332826,1948.068 C880.572826,1948.068 876.866826,1951.91 876.866826,1956.738 C876.866826,1961.6 880.640826,1965.374 885.638826,1965.374 C888.358826,1965.374 890.602826,1964.252 892.268826,1962.484 L890.738826,1960.716 C889.378826,1962.076 887.746826,1962.96 885.672826,1962.96 C882.408826,1962.96 879.960826,1960.818 879.620826,1957.52 L892.676826,1957.52 L892.715549,1957.32906 C892.786382,1956.9505 892.880826,1956.28467 892.880826,1955.548 Z M885.264826,1950.448 C887.916826,1950.448 890.160826,1952.148 890.194826,1955.208 L879.722826,1955.208 C880.266826,1952.352 882.476826,1950.448 885.264826,1950.448 Z M902.427507,1948.068 C899.401507,1948.068 896.851507,1949.7 896.851507,1952.692 C896.851507,1954.99267 898.344749,1956.14957 900.716992,1957.17622 L902.563507,1957.962 L902.970346,1958.12976 C904.425007,1958.73881 905.453507,1959.305 905.453507,1960.614 C905.453507,1962.11 904.025507,1962.96 902.291507,1962.96 C900.285507,1962.96 898.891507,1961.838 897.531507,1960.41 L895.865507,1962.144 C897.191507,1963.912 899.401507,1965.374 902.325507,1965.374 C905.385507,1965.374 908.139507,1963.742 908.139507,1960.512 C908.139507,1958.24168 906.833992,1956.95845 904.038074,1955.73788 L901.766828,1954.77898 C900.246108,1954.12302 899.537507,1953.58043 899.537507,1952.556 C899.537507,1951.196 900.727507,1950.482 902.291507,1950.482 C903.855507,1950.482 905.283507,1951.196 906.371507,1952.318 L907.969507,1950.686 C906.677507,1949.088 904.807507,1948.068 902.427507,1948.068 Z M927.648188,1955.548 C927.648188,1951.128 924.350188,1948.068 920.100188,1948.068 C915.340188,1948.068 911.634188,1951.91 911.634188,1956.738 C911.634188,1961.6 915.408188,1965.374 920.406188,1965.374 C923.126188,1965.374 925.370188,1964.252 927.036188,1962.484 L925.506188,1960.716 C924.146188,1962.076 922.514188,1962.96 920.440188,1962.96 C917.176188,1962.96 914.728188,1960.818 914.388188,1957.52 L927.444188,1957.52 L927.50475,1957.20709 C927.571688,1956.81662 927.648188,1956.211 927.648188,1955.548 Z M920.032188,1950.448 C922.684188,1950.448 924.928188,1952.148 924.962188,1955.208 L914.490188,1955.208 C915.034188,1952.352 917.244188,1950.448 920.032188,1950.448 Z M938.146868,1948.068 C935.494868,1948.068 932.978868,1949.19 931.414868,1951.706 L933.148868,1953.134 C934.440868,1951.468 935.902868,1950.482 937.976868,1950.482 C940.424868,1950.482 941.988868,1951.876 941.988868,1954.664 L941.988868,1956.092 L936.752868,1956.092 C933.148868,1956.092 930.802868,1957.928 930.802868,1960.716 C930.802868,1963.606 933.250868,1965.374 936.582868,1965.374 C939.030868,1965.374 940.968868,1964.456 942.158868,1962.858 L942.158868,1965 L944.606868,1965 L944.606868,1954.8 C944.606868,1950.346 941.920868,1948.068 938.146868,1948.068 Z M936.922868,1963.198 C935.086868,1963.198 933.488868,1962.348 933.488868,1960.58 C933.488868,1959.016 934.746868,1958.234 937.058868,1958.234 L941.988868,1958.234 L941.988868,1958.642 C941.988868,1961.226 939.642868,1963.198 936.922868,1963.198 Z M957.689549,1948.306 C955.717549,1948.306 953.779549,1949.19 952.555549,1950.822 L952.555549,1948.442 L950.107549,1948.442 L950.107549,1965 L952.725549,1965 L952.725549,1955.616 C952.725549,1952.454 955.241549,1950.754 957.927549,1950.754 L958.913549,1950.754 L958.913549,1948.442 L958.617362,1948.3853 C958.36261,1948.34069 958.07812,1948.306 957.689549,1948.306 Z M969.514229,1948.068 C964.686229,1948.068 960.844229,1951.876 960.844229,1956.704 C960.844229,1961.566 964.686229,1965.374 969.514229,1965.374 C972.472229,1965.374 974.852229,1963.946 976.314229,1961.77 L974.444229,1960.308 C973.220229,1961.94 971.656229,1962.96 969.548229,1962.96 C966.080229,1962.96 963.530229,1960.206 963.530229,1956.704 C963.530229,1953.236 966.080229,1950.482 969.548229,1950.482 C971.690229,1950.482 973.254229,1951.536 974.478229,1953.168 L976.348229,1951.672 C974.886229,1949.496 972.506229,1948.068 969.514229,1948.068 Z M988.30891,1948.068 C986.16691,1948.068 984.43291,1948.918 983.34491,1950.312 L983.34491,1939.5 L980.72691,1939.5 L980.72691,1965 L983.34491,1965 L983.34491,1954.936 C983.34491,1952.352 985.14691,1950.482 987.69691,1950.482 C990.24691,1950.482 991.81091,1952.318 991.81091,1954.936 L991.81091,1965 L994.42891,1965 L994.42891,1954.596 C994.42891,1950.754 992.18491,1948.068 988.30891,1948.068 Z M1018.11227,1948.068 C1015.59627,1948.068 1013.31827,1949.156 1012.02627,1950.89 L1012.02627,1939.5 L1009.40827,1939.5 L1009.40827,1965 L1011.85627,1965 L1011.85627,1962.348 C1013.14827,1964.252 1015.56227,1965.374 1018.14627,1965.374 C1022.87227,1965.374 1026.30627,1961.6 1026.30627,1956.738 C1026.30627,1951.842 1022.83827,1948.068 1018.11227,1948.068 Z M1017.73827,1962.96 C1014.88227,1962.96 1011.99227,1961.09 1011.99227,1956.738 C1011.99227,1952.386 1014.84827,1950.482 1017.73827,1950.482 C1021.10427,1950.482 1023.62027,1953.1 1023.62027,1956.704 C1023.62027,1960.308 1021.13827,1962.96 1017.73827,1962.96 Z M1042.17695,1948.442 L1036.70295,1961.634 L1031.22895,1948.442 L1028.40695,1948.442 L1035.27495,1964.456 L1034.39095,1966.462 C1033.47295,1968.57 1032.24895,1969.114 1030.65095,1969.114 C1030.07295,1969.114 1029.42695,1969.046 1028.64495,1968.944 L1028.64495,1971.154 C1029.42695,1971.358 1030.37895,1971.494 1031.19495,1971.494 C1033.71095,1971.494 1035.51295,1970.27 1036.80495,1967.312 L1044.96495,1948.442 L1042.17695,1948.442 Z M381.256028,1981.214 C380.134028,1981.214 379.284028,1982.064 379.284028,1983.118 C379.284028,1984.206 380.134028,1985.022 381.256028,1985.022 C382.310028,1985.022 383.194028,1984.206 383.194028,1983.118 C383.194028,1982.064 382.310028,1981.214 381.256028,1981.214 Z M382.548028,1989.442 L379.930028,1989.442 L379.930028,2006 L382.548028,2006 L382.548028,1989.442 Z M395.800708,1989.068 C393.658708,1989.068 391.856708,1989.884 390.700708,1991.244 L390.700708,1989.442 L388.252708,1989.442 L388.252708,2006 L390.870708,2006 L390.870708,1995.902 C390.870708,1993.318 392.672708,1991.482 395.222708,1991.482 C397.772708,1991.482 399.336708,1993.284 399.336708,1995.902 L399.336708,2006 L401.954708,2006 L401.954708,1995.596 C401.954708,1991.754 399.710708,1989.068 395.800708,1989.068 Z M412.453389,1989.068 C409.427389,1989.068 406.877389,1990.7 406.877389,1993.692 C406.877389,1995.99267 408.370631,1997.14957 410.742874,1998.17622 L412.589389,1998.962 L412.996228,1999.12976 C414.450889,1999.73881 415.479389,2000.305 415.479389,2001.614 C415.479389,2003.11 414.051389,2003.96 412.317389,2003.96 C410.311389,2003.96 408.917389,2002.838 407.557389,2001.41 L405.891389,2003.144 C407.217389,2004.912 409.427389,2006.374 412.351389,2006.374 C415.411389,2006.374 418.165389,2004.742 418.165389,2001.512 C418.165389,1999.24168 416.859874,1997.95845 414.063955,1996.73788 L411.79271,1995.77898 C410.27199,1995.12302 409.563389,1994.58043 409.563389,1993.556 C409.563389,1992.196 410.753389,1991.482 412.317389,1991.482 C413.881389,1991.482 415.309389,1992.196 416.397389,1993.318 L417.995389,1991.686 C416.703389,1990.088 414.833389,1989.068 412.453389,1989.068 Z M431.554069,1989.068 C428.936069,1989.068 426.590069,1990.19 425.298069,1992.094 L425.298069,1989.442 L422.850069,1989.442 L422.850069,2012.12 L425.468069,2012.12 L425.468069,2003.586 C426.794069,2005.354 429.106069,2006.374 431.554069,2006.374 C436.280069,2006.374 439.748069,2002.6 439.748069,1997.704 C439.748069,1992.842 436.314069,1989.068 431.554069,1989.068 Z M431.180069,2003.96 C428.290069,2003.96 425.434069,2002.056 425.434069,1997.704 C425.434069,1993.352 428.324069,1991.482 431.180069,1991.482 C434.580069,1991.482 437.062069,1994.134 437.062069,1997.738 C437.062069,2001.342 434.546069,2003.96 431.180069,2003.96 Z M459.12075,1996.548 C459.12075,1992.128 455.82275,1989.068 451.57275,1989.068 C446.81275,1989.068 443.10675,1992.91 443.10675,1997.738 C443.10675,2002.6 446.88075,2006.374 451.87875,2006.374 C454.59875,2006.374 456.84275,2005.252 458.50875,2003.484 L456.97875,2001.716 C455.61875,2003.076 453.98675,2003.96 451.91275,2003.96 C448.64875,2003.96 446.20075,2001.818 445.86075,1998.52 L458.91675,1998.52 L458.955472,1998.32906 C459.026305,1997.9505 459.12075,1997.28467 459.12075,1996.548 Z M451.50475,1991.448 C454.15675,1991.448 456.40075,1993.148 456.43475,1996.208 L445.96275,1996.208 C446.50675,1993.352 448.71675,1991.448 451.50475,1991.448 Z M471.14943,1989.068 C466.32143,1989.068 462.47943,1992.876 462.47943,1997.704 C462.47943,2002.566 466.32143,2006.374 471.14943,2006.374 C474.10743,2006.374 476.48743,2004.946 477.94943,2002.77 L476.07943,2001.308 C474.85543,2002.94 473.29143,2003.96 471.18343,2003.96 C467.71543,2003.96 465.16543,2001.206 465.16543,1997.704 C465.16543,1994.236 467.71543,1991.482 471.18343,1991.482 C473.32543,1991.482 474.88943,1992.536 476.11343,1994.168 L477.98343,1992.672 C476.52143,1990.496 474.14143,1989.068 471.14943,1989.068 Z M489.196111,2003.994 C487.122111,2003.994 485.694111,2003.314 485.694111,2000.832 L485.694111,1991.788 L490.862111,1991.788 L490.862111,1989.442 L485.694111,1989.442 L485.694111,1984.92 L483.076111,1984.92 L483.076111,1989.442 L480.288111,1989.442 L480.288111,1991.788 L483.076111,1991.788 L483.076111,2001.002 C483.076111,2004.776 485.388111,2006.374 488.652111,2006.374 C489.706111,2006.374 490.556111,2006.204 491.406111,2006 L491.406111,2003.79 C490.556111,2003.926 489.842111,2003.994 489.196111,2003.994 Z M496.600792,1981.214 C495.478792,1981.214 494.628792,1982.064 494.628792,1983.118 C494.628792,1984.206 495.478792,1985.022 496.600792,1985.022 C497.654792,1985.022 498.538792,1984.206 498.538792,1983.118 C498.538792,1982.064 497.654792,1981.214 496.600792,1981.214 Z M497.892792,1989.442 L495.274792,1989.442 L495.274792,2006 L497.892792,2006 L497.892792,1989.442 Z M511.145472,1989.068 C509.003472,1989.068 507.201472,1989.884 506.045472,1991.244 L506.045472,1989.442 L503.597472,1989.442 L503.597472,2006 L506.215472,2006 L506.215472,1995.902 C506.215472,1993.318 508.017472,1991.482 510.567472,1991.482 C513.117472,1991.482 514.681472,1993.284 514.681472,1995.902 L514.681472,2006 L517.299472,2006 L517.299472,1995.596 C517.299472,1991.754 515.055472,1989.068 511.145472,1989.068 Z M536.230153,1989.442 L536.230153,1992.128 C534.938153,1990.224 532.558153,1989.068 529.940153,1989.068 C525.282153,1989.068 521.814153,1992.672 521.814153,1997.466 C521.814153,2002.294 525.282153,2005.83 529.940153,2005.83 C532.422153,2005.83 534.734153,2004.81 536.094153,2003.076 L536.094153,2004.538 C536.094153,2008.21 533.952153,2010.08 530.586153,2010.08 C527.866153,2010.08 525.996153,2008.856 524.398153,2007.462 L522.868153,2009.298 C524.500153,2010.93 527.186153,2012.494 530.654153,2012.494 C535.482153,2012.494 538.712153,2009.502 538.712153,2004.402 L538.712153,1989.442 L536.230153,1989.442 Z M530.348153,2003.416 C526.982153,2003.416 524.466153,2001.002 524.466153,1997.5 C524.466153,1993.998 526.982153,1991.55 530.348153,1991.55 C533.204153,1991.55 536.128153,1993.318 536.128153,1997.466 C536.128153,2001.614 533.238153,2003.416 530.348153,2003.416 Z M560.729514,2003.994 C558.655514,2003.994 557.227514,2003.314 557.227514,2000.832 L557.227514,1991.788 L562.395514,1991.788 L562.395514,1989.442 L557.227514,1989.442 L557.227514,1984.92 L554.609514,1984.92 L554.609514,1989.442 L551.821514,1989.442 L551.821514,1991.788 L554.609514,1991.788 L554.609514,2001.002 C554.609514,2004.776 556.921514,2006.374 560.185514,2006.374 C561.239514,2006.374 562.089514,2006.204 562.939514,2006 L562.939514,2003.79 C562.089514,2003.926 561.375514,2003.994 560.729514,2003.994 Z M574.390194,1989.068 C572.248194,1989.068 570.514194,1989.918 569.426194,1991.312 L569.426194,1980.5 L566.808194,1980.5 L566.808194,2006 L569.426194,2006 L569.426194,1995.936 C569.426194,1993.352 571.228194,1991.482 573.778194,1991.482 C576.328194,1991.482 577.892194,1993.318 577.892194,1995.936 L577.892194,2006 L580.510194,2006 L580.510194,1995.596 C580.510194,1991.754 578.266194,1989.068 574.390194,1989.068 Z M600.834875,1996.548 C600.834875,1992.128 597.536875,1989.068 593.286875,1989.068 C588.526875,1989.068 584.820875,1992.91 584.820875,1997.738 C584.820875,2002.6 588.594875,2006.374 593.592875,2006.374 C596.312875,2006.374 598.556875,2005.252 600.222875,2003.484 L598.692875,2001.716 C597.332875,2003.076 595.700875,2003.96 593.626875,2003.96 C590.362875,2003.96 587.914875,2001.818 587.574875,1998.52 L600.630875,1998.52 L600.669597,1998.32906 C600.740431,1997.9505 600.834875,1997.28467 600.834875,1996.548 Z M593.218875,1991.448 C595.870875,1991.448 598.114875,1993.148 598.148875,1996.208 L587.676875,1996.208 C588.220875,1993.352 590.430875,1991.448 593.218875,1991.448 Z M606.709556,1981.214 C605.587556,1981.214 604.737556,1982.064 604.737556,1983.118 C604.737556,1984.206 605.587556,1985.022 606.709556,1985.022 C607.763556,1985.022 608.647556,1984.206 608.647556,1983.118 C608.647556,1982.064 607.763556,1981.214 606.709556,1981.214 Z M608.001556,1989.442 L605.383556,1989.442 L605.383556,2006 L608.001556,2006 L608.001556,1989.442 Z M621.288236,1989.306 C619.316236,1989.306 617.378236,1990.19 616.154236,1991.822 L616.154236,1989.442 L613.706236,1989.442 L613.706236,2006 L616.324236,2006 L616.324236,1996.616 C616.324236,1993.454 618.840236,1991.754 621.526236,1991.754 L622.512236,1991.754 L622.512236,1989.442 L622.216049,1989.3853 C621.961297,1989.34069 621.676808,1989.306 621.288236,1989.306 Z M656.769597,1989.442 L652.077597,2001.614 L646.501597,1989.068 L645.515597,1989.068 L639.973597,2001.682 L635.213597,1989.442 L632.425597,1989.442 L639.463597,2006.374 L640.381597,2006.374 L645.991597,1993.862 L651.635597,2006.374 L652.587597,2006.374 L659.557597,1989.442 L656.769597,1989.442 Z M677.468278,1996.548 C677.468278,1992.128 674.170278,1989.068 669.920278,1989.068 C665.160278,1989.068 661.454278,1992.91 661.454278,1997.738 C661.454278,2002.6 665.228278,2006.374 670.226278,2006.374 C672.946278,2006.374 675.190278,2005.252 676.856278,2003.484 L675.326278,2001.716 C673.966278,2003.076 672.334278,2003.96 670.260278,2003.96 C666.996278,2003.96 664.548278,2001.818 664.208278,1998.52 L677.264278,1998.52 L677.32484,1998.20709 C677.391778,1997.81662 677.468278,1997.211 677.468278,1996.548 Z M669.852278,1991.448 C672.504278,1991.448 674.748278,1993.148 674.782278,1996.208 L664.310278,1996.208 C664.854278,1993.352 667.064278,1991.448 669.852278,1991.448 Z M690.720958,1989.068 C688.204958,1989.068 685.926958,1990.156 684.634958,1991.89 L684.634958,1980.5 L682.016958,1980.5 L682.016958,2006 L684.464958,2006 L684.464958,2003.348 C685.756958,2005.252 688.170958,2006.374 690.754958,2006.374 C695.480958,2006.374 698.914958,2002.6 698.914958,1997.738 C698.914958,1992.842 695.446958,1989.068 690.720958,1989.068 Z M690.346958,2003.96 C687.490958,2003.96 684.600958,2002.09 684.600958,1997.738 C684.600958,1993.386 687.456958,1991.482 690.346958,1991.482 C693.712958,1991.482 696.228958,1994.1 696.228958,1997.704 C696.228958,2001.308 693.746958,2003.96 690.346958,2003.96 Z M708.461639,1989.068 C705.435639,1989.068 702.885639,1990.7 702.885639,1993.692 C702.885639,1995.99267 704.378881,1997.14957 706.751124,1998.17622 L708.597639,1998.962 L709.004478,1999.12976 C710.459139,1999.73881 711.487639,2000.305 711.487639,2001.614 C711.487639,2003.11 710.059639,2003.96 708.325639,2003.96 C706.319639,2003.96 704.925639,2002.838 703.565639,2001.41 L701.899639,2003.144 C703.225639,2004.912 705.435639,2006.374 708.359639,2006.374 C711.419639,2006.374 714.173639,2004.742 714.173639,2001.512 C714.173639,1999.24168 712.868124,1997.95845 710.072206,1996.73788 L707.80096,1995.77898 C706.28024,1995.12302 705.571639,1994.58043 705.571639,1993.556 C705.571639,1992.196 706.761639,1991.482 708.325639,1991.482 C709.889639,1991.482 711.317639,1992.196 712.405639,1993.318 L714.003639,1991.686 C712.711639,1990.088 710.841639,1989.068 708.461639,1989.068 Z M720.184319,1981.214 C719.062319,1981.214 718.212319,1982.064 718.212319,1983.118 C718.212319,1984.206 719.062319,1985.022 720.184319,1985.022 C721.238319,1985.022 722.122319,1984.206 722.122319,1983.118 C722.122319,1982.064 721.238319,1981.214 720.184319,1981.214 Z M721.476319,1989.442 L718.858319,1989.442 L718.858319,2006 L721.476319,2006 L721.476319,1989.442 Z M734.015,2003.994 C731.941,2003.994 730.513,2003.314 730.513,2000.832 L730.513,1991.788 L735.681,1991.788 L735.681,1989.442 L730.513,1989.442 L730.513,1984.92 L727.895,1984.92 L727.895,1989.442 L725.107,1989.442 L725.107,1991.788 L727.895,1991.788 L727.895,2001.002 C727.895,2004.776 730.207,2006.374 733.471,2006.374 C734.525,2006.374 735.375,2006.204 736.225,2006 L736.225,2003.79 C735.375,2003.926 734.661,2003.994 734.015,2003.994 Z M754.577681,1996.548 C754.577681,1992.128 751.279681,1989.068 747.029681,1989.068 C742.269681,1989.068 738.563681,1992.91 738.563681,1997.738 C738.563681,2002.6 742.337681,2006.374 747.335681,2006.374 C750.055681,2006.374 752.299681,2005.252 753.965681,2003.484 L752.435681,2001.716 C751.075681,2003.076 749.443681,2003.96 747.369681,2003.96 C744.105681,2003.96 741.657681,2001.818 741.317681,1998.52 L754.373681,1998.52 L754.412403,1998.32906 C754.483236,1997.9505 754.577681,1997.28467 754.577681,1996.548 Z M746.961681,1991.448 C749.613681,1991.448 751.857681,1993.148 751.891681,1996.208 L741.419681,1996.208 C741.963681,1993.352 744.173681,1991.448 746.961681,1991.448 Z M775.099042,1982.506 C775.541042,1982.506 776.017042,1982.54 776.561042,1982.608 L776.561042,1980.398 C775.949042,1980.228 775.303042,1980.126 774.487042,1980.126 C771.291042,1980.126 769.013042,1981.724 769.013042,1985.498 L769.013042,1989.442 L766.633042,1989.442 L766.633042,1991.788 L769.013042,1991.788 L769.013042,2006 L771.631042,2006 L771.631042,1991.788 L775.779042,1991.788 L775.779042,1989.442 L771.631042,1989.442 L771.631042,1985.668 C771.631042,1983.186 773.059042,1982.506 775.099042,1982.506 Z M786.345722,1989.068 C781.483722,1989.068 777.675722,1992.842 777.675722,1997.704 C777.675722,2002.566 781.517722,2006.306 786.311722,2006.34 C791.139722,2006.34 795.015722,2002.532 795.015722,1997.704 C795.015722,1992.842 791.139722,1989.068 786.345722,1989.068 Z M786.345722,1991.482 C789.745722,1991.482 792.329722,1994.168 792.329722,1997.738 C792.329722,2001.206 789.745722,2003.926 786.311722,2003.926 C782.877722,2003.926 780.361722,2001.24 780.361722,1997.738 C780.327722,1994.202 782.877722,1991.482 786.345722,1991.482 Z M807.146403,1989.306 C805.174403,1989.306 803.236403,1990.19 802.012403,1991.822 L802.012403,1989.442 L799.564403,1989.442 L799.564403,2006 L802.182403,2006 L802.182403,1996.616 C802.182403,1993.454 804.698403,1991.754 807.384403,1991.754 L808.370403,1991.754 L808.370403,1989.442 L808.074216,1989.3853 C807.819464,1989.34069 807.534974,1989.306 807.146403,1989.306 Z M828.789764,1989.068 C823.961764,1989.068 820.119764,1992.876 820.119764,1997.704 C820.119764,2002.566 823.961764,2006.374 828.789764,2006.374 C831.747764,2006.374 834.127764,2004.946 835.589764,2002.77 L833.719764,2001.308 C832.495764,2002.94 830.931764,2003.96 828.823764,2003.96 C825.355764,2003.96 822.805764,2001.206 822.805764,1997.704 C822.805764,1994.236 825.355764,1991.482 828.823764,1991.482 C830.965764,1991.482 832.529764,1992.536 833.753764,1994.168 L835.623764,1992.672 C834.161764,1990.496 831.781764,1989.068 828.789764,1989.068 Z M847.142444,1989.068 C842.280444,1989.068 838.472444,1992.842 838.472444,1997.704 C838.472444,2002.566 842.314444,2006.306 847.108444,2006.34 C851.936444,2006.34 855.812444,2002.532 855.812444,1997.704 C855.812444,1992.842 851.936444,1989.068 847.142444,1989.068 Z M847.142444,1991.482 C850.542444,1991.482 853.126444,1994.168 853.126444,1997.738 C853.126444,2001.206 850.542444,2003.926 847.108444,2003.926 C843.674444,2003.926 841.158444,2001.24 841.158444,1997.738 C841.124444,1994.202 843.674444,1991.482 847.142444,1991.482 Z M862.979125,1980.5 L860.361125,1980.5 L860.361125,2006 L862.979125,2006 L862.979125,1980.5 Z M876.163806,1989.068 C871.301806,1989.068 867.493806,1992.842 867.493806,1997.704 C867.493806,2002.566 871.335806,2006.306 876.129806,2006.34 C880.957806,2006.34 884.833806,2002.532 884.833806,1997.704 C884.833806,1992.842 880.957806,1989.068 876.163806,1989.068 Z M876.163806,1991.482 C879.563806,1991.482 882.147806,1994.168 882.147806,1997.738 C882.147806,2001.206 879.563806,2003.926 876.129806,2003.926 C872.695806,2003.926 870.179806,2001.24 870.179806,1997.738 C870.145806,1994.202 872.695806,1991.482 876.163806,1991.482 Z M896.964486,1989.306 C894.992486,1989.306 893.054486,1990.19 891.830486,1991.822 L891.830486,1989.442 L889.382486,1989.442 L889.382486,2006 L892.000486,2006 L892.000486,1996.616 C892.000486,1993.454 894.516486,1991.754 897.202486,1991.754 L898.188486,1991.754 L898.188486,1989.442 L897.8923,1989.3853 C897.637547,1989.34069 897.353058,1989.306 896.964486,1989.306 Z M916.125847,1989.068 C913.099847,1989.068 910.549847,1990.7 910.549847,1993.692 C910.549847,1995.99267 912.04309,1997.14957 914.415332,1998.17622 L916.261847,1998.962 L916.668686,1999.12976 C918.123347,1999.73881 919.151847,2000.305 919.151847,2001.614 C919.151847,2003.11 917.723847,2003.96 915.989847,2003.96 C913.983847,2003.96 912.589847,2002.838 911.229847,2001.41 L909.563847,2003.144 C910.889847,2004.912 913.099847,2006.374 916.023847,2006.374 C919.083847,2006.374 921.837847,2004.742 921.837847,2001.512 C921.837847,1999.24168 920.532332,1997.95845 917.736414,1996.73788 L915.465168,1995.77898 C913.944448,1995.12302 913.235847,1994.58043 913.235847,1993.556 C913.235847,1992.196 914.425847,1991.482 915.989847,1991.482 C917.553847,1991.482 918.981847,1992.196 920.069847,1993.318 L921.667847,1991.686 C920.375847,1990.088 918.505847,1989.068 916.125847,1989.068 Z M948.690528,1989.442 L943.998528,2001.614 L938.422528,1989.068 L937.436528,1989.068 L931.894528,2001.682 L927.134528,1989.442 L924.346528,1989.442 L931.384528,2006.374 L932.302528,2006.374 L937.912528,1993.862 L943.556528,2006.374 L944.508528,2006.374 L951.478528,1989.442 L948.690528,1989.442 Z M960.515208,1989.068 C957.863208,1989.068 955.347208,1990.19 953.783208,1992.706 L955.517208,1994.134 C956.809208,1992.468 958.271208,1991.482 960.345208,1991.482 C962.793208,1991.482 964.357208,1992.876 964.357208,1995.664 L964.357208,1997.092 L959.121208,1997.092 C955.517208,1997.092 953.171208,1998.928 953.171208,2001.716 C953.171208,2004.606 955.619208,2006.374 958.951208,2006.374 C961.399208,2006.374 963.337208,2005.456 964.527208,2003.858 L964.527208,2006 L966.975208,2006 L966.975208,1995.8 C966.975208,1991.346 964.289208,1989.068 960.515208,1989.068 Z M959.291208,2004.198 C957.455208,2004.198 955.857208,2003.348 955.857208,2001.58 C955.857208,2000.016 957.115208,1999.234 959.427208,1999.234 L964.357208,1999.234 L964.357208,1999.642 C964.357208,2002.226 962.011208,2004.198 959.291208,2004.198 Z M979.309889,2003.994 C977.235889,2003.994 975.807889,2003.314 975.807889,2000.832 L975.807889,1991.788 L980.975889,1991.788 L980.975889,1989.442 L975.807889,1989.442 L975.807889,1984.92 L973.189889,1984.92 L973.189889,1989.442 L970.401889,1989.442 L970.401889,1991.788 L973.189889,1991.788 L973.189889,2001.002 C973.189889,2004.776 975.501889,2006.374 978.765889,2006.374 C979.819889,2006.374 980.669889,2006.204 981.519889,2006 L981.519889,2003.79 C980.669889,2003.926 979.955889,2003.994 979.309889,2003.994 Z M992.52857,1989.068 C987.70057,1989.068 983.85857,1992.876 983.85857,1997.704 C983.85857,2002.566 987.70057,2006.374 992.52857,2006.374 C995.48657,2006.374 997.86657,2004.946 999.32857,2002.77 L997.45857,2001.308 C996.23457,2002.94 994.67057,2003.96 992.56257,2003.96 C989.09457,2003.96 986.54457,2001.206 986.54457,1997.704 C986.54457,1994.236 989.09457,1991.482 992.56257,1991.482 C994.70457,1991.482 996.26857,1992.536 997.49257,1994.168 L999.36257,1992.672 C997.90057,1990.496 995.52057,1989.068 992.52857,1989.068 Z M1011.32325,1989.068 C1009.18125,1989.068 1007.44725,1989.918 1006.35925,1991.312 L1006.35925,1980.5 L1003.74125,1980.5 L1003.74125,2006 L1006.35925,2006 L1006.35925,1995.936 C1006.35925,1993.352 1008.16125,1991.482 1010.71125,1991.482 C1013.26125,1991.482 1014.82525,1993.318 1014.82525,1995.936 L1014.82525,2006 L1017.44325,2006 L1017.44325,1995.596 C1017.44325,1991.754 1015.19925,1989.068 1011.32325,1989.068 Z M1037.76793,1996.548 C1037.76793,1992.128 1034.46993,1989.068 1030.21993,1989.068 C1025.45993,1989.068 1021.75393,1992.91 1021.75393,1997.738 C1021.75393,2002.6 1025.52793,2006.374 1030.52593,2006.374 C1033.24593,2006.374 1035.48993,2005.252 1037.15593,2003.484 L1035.62593,2001.716 C1034.26593,2003.076 1032.63393,2003.96 1030.55993,2003.96 C1027.29593,2003.96 1024.84793,2001.818 1024.50793,1998.52 L1037.56393,1998.52 L1037.60265,1998.32906 C1037.67349,1997.9505 1037.76793,1997.28467 1037.76793,1996.548 Z M1030.15193,1991.448 C1032.80393,1991.448 1035.04793,1993.148 1035.08193,1996.208 L1024.60993,1996.208 C1025.15393,1993.352 1027.36393,1991.448 1030.15193,1991.448 Z M1047.31461,1989.068 C1044.28861,1989.068 1041.73861,1990.7 1041.73861,1993.692 C1041.73861,1995.99267 1043.23185,1997.14957 1045.6041,1998.17622 L1047.45061,1998.962 L1047.85745,1999.12976 C1049.31211,1999.73881 1050.34061,2000.305 1050.34061,2001.614 C1050.34061,2003.11 1048.91261,2003.96 1047.17861,2003.96 C1045.17261,2003.96 1043.77861,2002.838 1042.41861,2001.41 L1040.75261,2003.144 C1042.07861,2004.912 1044.28861,2006.374 1047.21261,2006.374 C1050.27261,2006.374 1053.02661,2004.742 1053.02661,2001.512 C1053.02661,1999.24168 1051.7211,1997.95845 1048.92518,1996.73788 L1046.65393,1995.77898 C1045.13321,1995.12302 1044.42461,1994.58043 1044.42461,1993.556 C1044.42461,1992.196 1045.61461,1991.482 1047.17861,1991.482 C1048.74261,1991.482 1050.17061,1992.196 1051.25861,1993.318 L1052.85661,1991.686 C1051.56461,1990.088 1049.69461,1989.068 1047.31461,1989.068 Z M1061.24729,2002.94 L1058.15329,2002.94 L1057.71129,2012.086 L1059.85329,2012.086 L1061.24729,2002.94 Z M388.348687,2023.506 C388.790687,2023.506 389.266687,2023.54 389.810687,2023.608 L389.810687,2021.398 C389.198687,2021.228 388.552687,2021.126 387.736687,2021.126 C384.540687,2021.126 382.262687,2022.724 382.262687,2026.498 L382.262687,2030.442 L379.882687,2030.442 L379.882687,2032.788 L382.262687,2032.788 L382.262687,2047 L384.880687,2047 L384.880687,2032.788 L389.028687,2032.788 L389.028687,2030.442 L384.880687,2030.442 L384.880687,2026.668 C384.880687,2024.186 386.308687,2023.506 388.348687,2023.506 Z M399.595368,2030.068 C394.733368,2030.068 390.925368,2033.842 390.925368,2038.704 C390.925368,2043.566 394.767368,2047.306 399.561368,2047.34 C404.389368,2047.34 408.265368,2043.532 408.265368,2038.704 C408.265368,2033.842 404.389368,2030.068 399.595368,2030.068 Z M399.595368,2032.482 C402.995368,2032.482 405.579368,2035.168 405.579368,2038.738 C405.579368,2042.206 402.995368,2044.926 399.561368,2044.926 C396.127368,2044.926 393.611368,2042.24 393.611368,2038.738 C393.577368,2035.202 396.127368,2032.482 399.595368,2032.482 Z M420.362049,2030.068 C418.220049,2030.068 416.418049,2030.884 415.262049,2032.244 L415.262049,2030.442 L412.814049,2030.442 L412.814049,2047 L415.432049,2047 L415.432049,2036.902 C415.432049,2034.318 417.234049,2032.482 419.784049,2032.482 C422.334049,2032.482 423.898049,2034.284 423.898049,2036.902 L423.898049,2047 L426.516049,2047 L426.516049,2036.596 C426.516049,2032.754 424.272049,2030.068 420.362049,2030.068 Z M438.850729,2044.994 C436.776729,2044.994 435.348729,2044.314 435.348729,2041.832 L435.348729,2032.788 L440.516729,2032.788 L440.516729,2030.442 L435.348729,2030.442 L435.348729,2025.92 L432.730729,2025.92 L432.730729,2030.442 L429.942729,2030.442 L429.942729,2032.788 L432.730729,2032.788 L432.730729,2042.002 C432.730729,2045.776 435.042729,2047.374 438.306729,2047.374 C439.360729,2047.374 440.210729,2047.204 441.060729,2047 L441.060729,2044.79 C440.210729,2044.926 439.496729,2044.994 438.850729,2044.994 Z M459.40609,2030.068 C456.38009,2030.068 453.83009,2031.7 453.83009,2034.692 C453.83009,2036.99267 455.323332,2038.14957 457.695575,2039.17622 L459.54209,2039.962 L459.948929,2040.12976 C461.40359,2040.73881 462.43209,2041.305 462.43209,2042.614 C462.43209,2044.11 461.00409,2044.96 459.27009,2044.96 C457.26409,2044.96 455.87009,2043.838 454.51009,2042.41 L452.84409,2044.144 C454.17009,2045.912 456.38009,2047.374 459.30409,2047.374 C462.36409,2047.374 465.11809,2045.742 465.11809,2042.512 C465.11809,2040.24168 463.812575,2038.95845 461.016657,2037.73788 L458.745411,2036.77898 C457.224691,2036.12302 456.51609,2035.58043 456.51609,2034.556 C456.51609,2033.196 457.70609,2032.482 459.27009,2032.482 C460.83409,2032.482 462.26209,2033.196 463.35009,2034.318 L464.94809,2032.686 C463.65609,2031.088 461.78609,2030.068 459.40609,2030.068 Z M476.636771,2044.994 C474.562771,2044.994 473.134771,2044.314 473.134771,2041.832 L473.134771,2032.788 L478.302771,2032.788 L478.302771,2030.442 L473.134771,2030.442 L473.134771,2025.92 L470.516771,2025.92 L470.516771,2030.442 L467.728771,2030.442 L467.728771,2032.788 L470.516771,2032.788 L470.516771,2042.002 C470.516771,2045.776 472.828771,2047.374 476.092771,2047.374 C477.146771,2047.374 477.996771,2047.204 478.846771,2047 L478.846771,2044.79 C477.996771,2044.926 477.282771,2044.994 476.636771,2044.994 Z M494.479451,2030.442 L489.005451,2043.634 L483.531451,2030.442 L480.709451,2030.442 L487.577451,2046.456 L486.693451,2048.462 C485.775451,2050.57 484.551451,2051.114 482.953451,2051.114 C482.375451,2051.114 481.729451,2051.046 480.947451,2050.944 L480.947451,2053.154 C481.729451,2053.358 482.681451,2053.494 483.497451,2053.494 C486.013451,2053.494 487.815451,2052.27 489.107451,2049.312 L497.267451,2030.442 L494.479451,2030.442 Z M503.618132,2021.5 L501.000132,2021.5 L501.000132,2047 L503.618132,2047 L503.618132,2021.5 Z M524.146812,2037.548 C524.146812,2033.128 520.848812,2030.068 516.598812,2030.068 C511.838812,2030.068 508.132812,2033.91 508.132812,2038.738 C508.132812,2043.6 511.906812,2047.374 516.904812,2047.374 C519.624812,2047.374 521.868812,2046.252 523.534812,2044.484 L522.004812,2042.716 C520.644812,2044.076 519.012812,2044.96 516.938812,2044.96 C513.674812,2044.96 511.226812,2042.818 510.886812,2039.52 L523.942812,2039.52 L523.981535,2039.32906 C524.052368,2038.9505 524.146812,2038.28467 524.146812,2037.548 Z M516.530812,2032.448 C519.182812,2032.448 521.426812,2034.148 521.460812,2037.208 L510.988812,2037.208 C511.532812,2034.352 513.742812,2032.448 516.530812,2032.448 Z M533.693493,2030.068 C530.667493,2030.068 528.117493,2031.7 528.117493,2034.692 C528.117493,2036.99267 529.610735,2038.14957 531.982978,2039.17622 L533.829493,2039.962 L534.236332,2040.12976 C535.690993,2040.73881 536.719493,2041.305 536.719493,2042.614 C536.719493,2044.11 535.291493,2044.96 533.557493,2044.96 C531.551493,2044.96 530.157493,2043.838 528.797493,2042.41 L527.131493,2044.144 C528.457493,2045.912 530.667493,2047.374 533.591493,2047.374 C536.651493,2047.374 539.405493,2045.742 539.405493,2042.512 C539.405493,2040.24168 538.099978,2038.95845 535.30406,2037.73788 L533.032814,2036.77898 C531.512094,2036.12302 530.803493,2035.58043 530.803493,2034.556 C530.803493,2033.196 531.993493,2032.482 533.557493,2032.482 C535.121493,2032.482 536.549493,2033.196 537.637493,2034.318 L539.235493,2032.686 C537.943493,2031.088 536.073493,2030.068 533.693493,2030.068 Z M547.626174,2043.94 L544.532174,2043.94 L544.090174,2053.086 L546.232174,2053.086 L547.626174,2043.94 Z M569.541535,2044.994 C567.467535,2044.994 566.039535,2044.314 566.039535,2041.832 L566.039535,2032.788 L571.207535,2032.788 L571.207535,2030.442 L566.039535,2030.442 L566.039535,2025.92 L563.421535,2025.92 L563.421535,2030.442 L560.633535,2030.442 L560.633535,2032.788 L563.421535,2032.788 L563.421535,2042.002 C563.421535,2045.776 565.733535,2047.374 568.997535,2047.374 C570.051535,2047.374 570.901535,2047.204 571.751535,2047 L571.751535,2044.79 C570.901535,2044.926 570.187535,2044.994 569.541535,2044.994 Z M582.760215,2030.068 C577.898215,2030.068 574.090215,2033.842 574.090215,2038.704 C574.090215,2043.566 577.932215,2047.306 582.726215,2047.34 C587.554215,2047.34 591.430215,2043.532 591.430215,2038.704 C591.430215,2033.842 587.554215,2030.068 582.760215,2030.068 Z M582.760215,2032.482 C586.160215,2032.482 588.744215,2035.168 588.744215,2038.738 C588.744215,2042.206 586.160215,2044.926 582.726215,2044.926 C579.292215,2044.926 576.776215,2042.24 576.776215,2038.738 C576.742215,2035.202 579.292215,2032.482 582.760215,2032.482 Z M603.526896,2030.068 C601.384896,2030.068 599.582896,2030.884 598.426896,2032.244 L598.426896,2030.442 L595.978896,2030.442 L595.978896,2047 L598.596896,2047 L598.596896,2036.902 C598.596896,2034.318 600.398896,2032.482 602.948896,2032.482 C605.498896,2032.482 607.062896,2034.284 607.062896,2036.902 L607.062896,2047 L609.680896,2047 L609.680896,2036.596 C609.680896,2032.754 607.436896,2030.068 603.526896,2030.068 Z M630.005576,2037.548 C630.005576,2033.128 626.707576,2030.068 622.457576,2030.068 C617.697576,2030.068 613.991576,2033.91 613.991576,2038.738 C613.991576,2043.6 617.765576,2047.374 622.763576,2047.374 C625.483576,2047.374 627.727576,2046.252 629.393576,2044.484 L627.863576,2042.716 C626.503576,2044.076 624.871576,2044.96 622.797576,2044.96 C619.533576,2044.96 617.085576,2042.818 616.745576,2039.52 L629.801576,2039.52 L629.840299,2039.32906 C629.911132,2038.9505 630.005576,2038.28467 630.005576,2037.548 Z M622.389576,2032.448 C625.041576,2032.448 627.285576,2034.148 627.319576,2037.208 L616.847576,2037.208 C617.391576,2034.352 619.601576,2032.448 622.389576,2032.448 Z M639.552257,2030.068 C636.526257,2030.068 633.976257,2031.7 633.976257,2034.692 C633.976257,2036.99267 635.469499,2038.14957 637.841742,2039.17622 L639.688257,2039.962 L640.095096,2040.12976 C641.549757,2040.73881 642.578257,2041.305 642.578257,2042.614 C642.578257,2044.11 641.150257,2044.96 639.416257,2044.96 C637.410257,2044.96 636.016257,2043.838 634.656257,2042.41 L632.990257,2044.144 C634.316257,2045.912 636.526257,2047.374 639.450257,2047.374 C642.510257,2047.374 645.264257,2045.742 645.264257,2042.512 C645.264257,2040.24168 643.958742,2038.95845 641.162824,2037.73788 L638.891578,2036.77898 C637.370858,2036.12302 636.662257,2035.58043 636.662257,2034.556 C636.662257,2033.196 637.852257,2032.482 639.416257,2032.482 C640.980257,2032.482 642.408257,2033.196 643.496257,2034.318 L645.094257,2032.686 C643.802257,2031.088 641.932257,2030.068 639.552257,2030.068 Z M665.377618,2030.068 C662.725618,2030.068 660.209618,2031.19 658.645618,2033.706 L660.379618,2035.134 C661.671618,2033.468 663.133618,2032.482 665.207618,2032.482 C667.655618,2032.482 669.219618,2033.876 669.219618,2036.664 L669.219618,2038.092 L663.983618,2038.092 C660.379618,2038.092 658.033618,2039.928 658.033618,2042.716 C658.033618,2045.606 660.481618,2047.374 663.813618,2047.374 C666.261618,2047.374 668.199618,2046.456 669.389618,2044.858 L669.389618,2047 L671.837618,2047 L671.837618,2036.8 C671.837618,2032.346 669.151618,2030.068 665.377618,2030.068 Z M664.153618,2045.198 C662.317618,2045.198 660.719618,2044.348 660.719618,2042.58 C660.719618,2041.016 661.977618,2040.234 664.289618,2040.234 L669.219618,2040.234 L669.219618,2040.642 C669.219618,2043.226 666.873618,2045.198 664.153618,2045.198 Z M684.886299,2030.068 C682.744299,2030.068 680.942299,2030.884 679.786299,2032.244 L679.786299,2030.442 L677.338299,2030.442 L677.338299,2047 L679.956299,2047 L679.956299,2036.902 C679.956299,2034.318 681.758299,2032.482 684.308299,2032.482 C686.858299,2032.482 688.422299,2034.284 688.422299,2036.902 L688.422299,2047 L691.040299,2047 L691.040299,2036.596 C691.040299,2032.754 688.796299,2030.068 684.886299,2030.068 Z M709.664979,2021.5 L709.664979,2032.89 C708.338979,2031.122 706.060979,2030.068 703.544979,2030.068 C698.818979,2030.068 695.350979,2033.842 695.350979,2038.738 C695.350979,2043.6 698.818979,2047.374 703.544979,2047.374 C706.162979,2047.374 708.508979,2046.252 709.800979,2044.348 L709.800979,2047 L712.282979,2047 L712.282979,2021.5 L709.664979,2021.5 Z M703.918979,2044.96 C700.518979,2044.96 698.036979,2042.308 698.036979,2038.704 C698.036979,2035.1 700.552979,2032.482 703.918979,2032.482 C706.774979,2032.482 709.698979,2034.386 709.698979,2038.738 C709.698979,2043.09 706.774979,2044.96 703.918979,2044.96 Z M740.89634,2030.442 L740.89634,2033.128 C739.60434,2031.224 737.22434,2030.068 734.60634,2030.068 C729.94834,2030.068 726.48034,2033.672 726.48034,2038.466 C726.48034,2043.294 729.94834,2046.83 734.60634,2046.83 C737.08834,2046.83 739.40034,2045.81 740.76034,2044.076 L740.76034,2045.538 C740.76034,2049.21 738.61834,2051.08 735.25234,2051.08 C732.53234,2051.08 730.66234,2049.856 729.06434,2048.462 L727.53434,2050.298 C729.16634,2051.93 731.85234,2053.494 735.32034,2053.494 C740.14834,2053.494 743.37834,2050.502 743.37834,2045.402 L743.37834,2030.442 L740.89634,2030.442 Z M735.01434,2044.416 C731.64834,2044.416 729.13234,2042.002 729.13234,2038.5 C729.13234,2034.998 731.64834,2032.55 735.01434,2032.55 C737.87034,2032.55 740.79434,2034.318 740.79434,2038.466 C740.79434,2042.614 737.90434,2044.416 735.01434,2044.416 Z M763.907021,2037.548 C763.907021,2033.128 760.609021,2030.068 756.359021,2030.068 C751.599021,2030.068 747.893021,2033.91 747.893021,2038.738 C747.893021,2043.6 751.667021,2047.374 756.665021,2047.374 C759.385021,2047.374 761.629021,2046.252 763.295021,2044.484 L761.765021,2042.716 C760.405021,2044.076 758.773021,2044.96 756.699021,2044.96 C753.435021,2044.96 750.987021,2042.818 750.647021,2039.52 L763.703021,2039.52 L763.763583,2039.20709 C763.830521,2038.81662 763.907021,2038.211 763.907021,2037.548 Z M756.291021,2032.448 C758.943021,2032.448 761.187021,2034.148 761.221021,2037.208 L750.749021,2037.208 C751.293021,2034.352 753.503021,2032.448 756.291021,2032.448 Z M776.003701,2030.068 C773.861701,2030.068 772.059701,2030.884 770.903701,2032.244 L770.903701,2030.442 L768.455701,2030.442 L768.455701,2047 L771.073701,2047 L771.073701,2036.902 C771.073701,2034.318 772.875701,2032.482 775.425701,2032.482 C777.975701,2032.482 779.539701,2034.284 779.539701,2036.902 L779.539701,2047 L782.157701,2047 L782.157701,2036.596 C782.157701,2032.754 779.913701,2030.068 776.003701,2030.068 Z M802.482382,2037.548 C802.482382,2033.128 799.184382,2030.068 794.934382,2030.068 C790.174382,2030.068 786.468382,2033.91 786.468382,2038.738 C786.468382,2043.6 790.242382,2047.374 795.240382,2047.374 C797.960382,2047.374 800.204382,2046.252 801.870382,2044.484 L800.340382,2042.716 C798.980382,2044.076 797.348382,2044.96 795.274382,2044.96 C792.010382,2044.96 789.562382,2042.818 789.222382,2039.52 L802.278382,2039.52 L802.317104,2039.32906 C802.387938,2038.9505 802.482382,2038.28467 802.482382,2037.548 Z M794.866382,2032.448 C797.518382,2032.448 799.762382,2034.148 799.796382,2037.208 L789.324382,2037.208 C789.868382,2034.352 792.078382,2032.448 794.866382,2032.448 Z M814.613063,2030.306 C812.641063,2030.306 810.703063,2031.19 809.479063,2032.822 L809.479063,2030.442 L807.031063,2030.442 L807.031063,2047 L809.649063,2047 L809.649063,2037.616 C809.649063,2034.454 812.165063,2032.754 814.851063,2032.754 L815.837063,2032.754 L815.837063,2030.442 L815.540876,2030.3853 C815.286124,2030.34069 815.001634,2030.306 814.613063,2030.306 Z M824.907743,2030.068 C822.255743,2030.068 819.739743,2031.19 818.175743,2033.706 L819.909743,2035.134 C821.201743,2033.468 822.663743,2032.482 824.737743,2032.482 C827.185743,2032.482 828.749743,2033.876 828.749743,2036.664 L828.749743,2038.092 L823.513743,2038.092 C819.909743,2038.092 817.563743,2039.928 817.563743,2042.716 C817.563743,2045.606 820.011743,2047.374 823.343743,2047.374 C825.791743,2047.374 827.729743,2046.456 828.919743,2044.858 L828.919743,2047 L831.367743,2047 L831.367743,2036.8 C831.367743,2032.346 828.681743,2030.068 824.907743,2030.068 Z M823.683743,2045.198 C821.847743,2045.198 820.249743,2044.348 820.249743,2042.58 C820.249743,2041.016 821.507743,2040.234 823.819743,2040.234 L828.749743,2040.234 L828.749743,2040.642 C828.749743,2043.226 826.403743,2045.198 823.683743,2045.198 Z M839.486424,2021.5 L836.868424,2021.5 L836.868424,2047 L839.486424,2047 L839.486424,2021.5 Z M872.383785,2024.56 L869.731785,2024.56 L869.731785,2038.262 C869.731785,2042.784 866.977785,2044.926 863.509785,2044.926 C860.007785,2044.926 857.219785,2042.784 857.219785,2038.262 L857.219785,2024.56 L854.567785,2024.56 L854.567785,2038.092 C854.567785,2044.076 858.341785,2047.374 863.509785,2047.374 C868.575785,2047.374 872.383785,2044.076 872.383785,2038.092 L872.383785,2024.56 Z M880.910465,2024.56 L878.258465,2024.56 L878.258465,2047 L880.910465,2047 L880.910465,2024.56 Z M902.247826,2030.068 C899.595826,2030.068 897.079826,2031.19 895.515826,2033.706 L897.249826,2035.134 C898.541826,2033.468 900.003826,2032.482 902.077826,2032.482 C904.525826,2032.482 906.089826,2033.876 906.089826,2036.664 L906.089826,2038.092 L900.853826,2038.092 C897.249826,2038.092 894.903826,2039.928 894.903826,2042.716 C894.903826,2045.606 897.351826,2047.374 900.683826,2047.374 C903.131826,2047.374 905.069826,2046.456 906.259826,2044.858 L906.259826,2047 L908.707826,2047 L908.707826,2036.8 C908.707826,2032.346 906.021826,2030.068 902.247826,2030.068 Z M901.023826,2045.198 C899.187826,2045.198 897.589826,2044.348 897.589826,2042.58 C897.589826,2041.016 898.847826,2040.234 901.159826,2040.234 L906.089826,2040.234 L906.089826,2040.642 C906.089826,2043.226 903.743826,2045.198 901.023826,2045.198 Z M929.032507,2037.548 C929.032507,2033.128 925.734507,2030.068 921.484507,2030.068 C916.724507,2030.068 913.018507,2033.91 913.018507,2038.738 C913.018507,2043.6 916.792507,2047.374 921.790507,2047.374 C924.510507,2047.374 926.754507,2046.252 928.420507,2044.484 L926.890507,2042.716 C925.530507,2044.076 923.898507,2044.96 921.824507,2044.96 C918.560507,2044.96 916.112507,2042.818 915.772507,2039.52 L928.828507,2039.52 L928.867229,2039.32906 C928.938063,2038.9505 929.032507,2038.28467 929.032507,2037.548 Z M921.416507,2032.448 C924.068507,2032.448 926.312507,2034.148 926.346507,2037.208 L915.874507,2037.208 C916.418507,2034.352 918.628507,2032.448 921.416507,2032.448 Z M938.579188,2030.068 C935.553188,2030.068 933.003188,2031.7 933.003188,2034.692 C933.003188,2036.99267 934.49643,2038.14957 936.868673,2039.17622 L938.715188,2039.962 L939.122027,2040.12976 C940.576688,2040.73881 941.605188,2041.305 941.605188,2042.614 C941.605188,2044.11 940.177188,2044.96 938.443188,2044.96 C936.437188,2044.96 935.043188,2043.838 933.683188,2042.41 L932.017188,2044.144 C933.343188,2045.912 935.553188,2047.374 938.477188,2047.374 C941.537188,2047.374 944.291188,2045.742 944.291188,2042.512 C944.291188,2040.24168 942.985672,2038.95845 940.189754,2037.73788 L937.918508,2036.77898 C936.397789,2036.12302 935.689188,2035.58043 935.689188,2034.556 C935.689188,2033.196 936.879188,2032.482 938.443188,2032.482 C940.007188,2032.482 941.435188,2033.196 942.523188,2034.318 L944.121188,2032.686 C942.829188,2031.088 940.959188,2030.068 938.579188,2030.068 Z M955.809868,2044.994 C953.735868,2044.994 952.307868,2044.314 952.307868,2041.832 L952.307868,2032.788 L957.475868,2032.788 L957.475868,2030.442 L952.307868,2030.442 L952.307868,2025.92 L949.689868,2025.92 L949.689868,2030.442 L946.901868,2030.442 L946.901868,2032.788 L949.689868,2032.788 L949.689868,2042.002 C949.689868,2045.776 952.001868,2047.374 955.265868,2047.374 C956.319868,2047.374 957.169868,2047.204 958.019868,2047 L958.019868,2044.79 C957.169868,2044.926 956.455868,2044.994 955.809868,2044.994 Z M969.470549,2030.068 C967.328549,2030.068 965.594549,2030.918 964.506549,2032.312 L964.506549,2021.5 L961.888549,2021.5 L961.888549,2047 L964.506549,2047 L964.506549,2036.936 C964.506549,2034.352 966.308549,2032.482 968.858549,2032.482 C971.408549,2032.482 972.972549,2034.318 972.972549,2036.936 L972.972549,2047 L975.590549,2047 L975.590549,2036.596 C975.590549,2032.754 973.346549,2030.068 969.470549,2030.068 Z M995.915229,2037.548 C995.915229,2033.128 992.617229,2030.068 988.367229,2030.068 C983.607229,2030.068 979.901229,2033.91 979.901229,2038.738 C979.901229,2043.6 983.675229,2047.374 988.673229,2047.374 C991.393229,2047.374 993.637229,2046.252 995.303229,2044.484 L993.773229,2042.716 C992.413229,2044.076 990.781229,2044.96 988.707229,2044.96 C985.443229,2044.96 982.995229,2042.818 982.655229,2039.52 L995.711229,2039.52 L995.771792,2039.20709 C995.838729,2038.81662 995.915229,2038.211 995.915229,2037.548 Z M988.299229,2032.448 C990.951229,2032.448 993.195229,2034.148 993.229229,2037.208 L982.757229,2037.208 C983.301229,2034.352 985.511229,2032.448 988.299229,2032.448 Z M1007.29791,2044.994 C1005.22391,2044.994 1003.79591,2044.314 1003.79591,2041.832 L1003.79591,2032.788 L1008.96391,2032.788 L1008.96391,2030.442 L1003.79591,2030.442 L1003.79591,2025.92 L1001.17791,2025.92 L1001.17791,2030.442 L998.38991,2030.442 L998.38991,2032.788 L1001.17791,2032.788 L1001.17791,2042.002 C1001.17791,2045.776 1003.48991,2047.374 1006.75391,2047.374 C1007.80791,2047.374 1008.65791,2047.204 1009.50791,2047 L1009.50791,2044.79 C1008.65791,2044.926 1007.94391,2044.994 1007.29791,2044.994 Z M1014.70259,2022.214 C1013.58059,2022.214 1012.73059,2023.064 1012.73059,2024.118 C1012.73059,2025.206 1013.58059,2026.022 1014.70259,2026.022 C1015.75659,2026.022 1016.64059,2025.206 1016.64059,2024.118 C1016.64059,2023.064 1015.75659,2022.214 1014.70259,2022.214 Z M1015.99459,2030.442 L1013.37659,2030.442 L1013.37659,2047 L1015.99459,2047 L1015.99459,2030.442 Z M1029.17927,2030.068 C1024.35127,2030.068 1020.50927,2033.876 1020.50927,2038.704 C1020.50927,2043.566 1024.35127,2047.374 1029.17927,2047.374 C1032.13727,2047.374 1034.51727,2045.946 1035.97927,2043.77 L1034.10927,2042.308 C1032.88527,2043.94 1031.32127,2044.96 1029.21327,2044.96 C1025.74527,2044.96 1023.19527,2042.206 1023.19527,2038.704 C1023.19527,2035.236 1025.74527,2032.482 1029.21327,2032.482 C1031.35527,2032.482 1032.91927,2033.536 1034.14327,2035.168 L1036.01327,2033.672 C1034.55127,2031.496 1032.17127,2030.068 1029.17927,2030.068 Z M1045.38995,2030.068 C1042.36395,2030.068 1039.81395,2031.7 1039.81395,2034.692 C1039.81395,2036.99267 1041.30719,2038.14957 1043.67944,2039.17622 L1045.52595,2039.962 L1045.93279,2040.12976 C1047.38745,2040.73881 1048.41595,2041.305 1048.41595,2042.614 C1048.41595,2044.11 1046.98795,2044.96 1045.25395,2044.96 C1043.24795,2044.96 1041.85395,2043.838 1040.49395,2042.41 L1038.82795,2044.144 C1040.15395,2045.912 1042.36395,2047.374 1045.28795,2047.374 C1048.34795,2047.374 1051.10195,2045.742 1051.10195,2042.512 C1051.10195,2040.24168 1049.79644,2038.95845 1047.00052,2037.73788 L1044.72927,2036.77898 C1043.20855,2036.12302 1042.49995,2035.58043 1042.49995,2034.556 C1042.49995,2033.196 1043.68995,2032.482 1045.25395,2032.482 C1046.81795,2032.482 1048.24595,2033.196 1049.33395,2034.318 L1050.93195,2032.686 C1049.63995,2031.088 1047.76995,2030.068 1045.38995,2030.068 Z M1057.48663,2043.09 C1058.64263,2043.09 1059.62863,2043.974 1059.62863,2045.232 C1059.62863,2046.49 1058.64263,2047.374 1057.48663,2047.374 C1056.33063,2047.374 1055.34463,2046.49 1055.34463,2045.232 C1055.34463,2043.974 1056.33063,2043.09 1057.48663,2043.09 Z" id="industrious3"></path>
        </g>
    </g>
</svg>