<?xml version="1.0" encoding="UTF-8"?>
<svg width="903px" height="332px" viewBox="0 0 903 332" version="1.1" xmlns="http://www.w3.org/2000/svg" xmlns:xlink="http://www.w3.org/1999/xlink">
    <!-- Generator: Sketch 59 (86127) - https://sketch.com -->
    <title>industrious1</title>
    <desc>Created with Sketch.</desc>
    <g id="Page-1" stroke="none" stroke-width="1" fill="none" fill-rule="evenodd">
        <g id="Desktop-HD-Copy-43" transform="translate(-269.000000, -177.000000)" fill="#404648" fill-rule="nonzero">
            <path d="M415.862,182.32 L389.798,182.32 L389.798,185.68 L400.934,185.68 L400.934,214 L404.678,214 L404.678,185.68 L415.862,185.68 L415.862,182.32 Z M430.298,190.096 C427.274,190.096 424.826,191.296 423.29,193.264 L423.29,178 L419.594,178 L419.594,214 L423.29,214 L423.29,199.792 C423.29,196.144 425.834,193.504 429.434,193.504 C433.034,193.504 435.242,196.096 435.242,199.792 L435.242,214 L438.938,214 L438.938,199.312 C438.938,193.888 435.77,190.096 430.298,190.096 Z M447.374,179.008 C445.79,179.008 444.59,180.208 444.59,181.696 C444.59,183.232 445.79,184.384 447.374,184.384 C448.862,184.384 450.11,183.232 450.11,181.696 C450.11,180.208 448.862,179.008 447.374,179.008 Z M449.198,190.624 L445.502,190.624 L445.502,214 L449.198,214 L449.198,190.624 Z M463.106,190.096 C458.834,190.096 455.234,192.4 455.234,196.624 C455.234,199.893189 457.369702,201.526522 460.756859,202.983005 L463.298,204.064 L463.775355,204.260353 C465.880126,205.135867 467.378,205.931034 467.378,207.808 C467.378,209.92 465.362,211.12 462.914,211.12 C460.082,211.12 458.114,209.536 456.194,207.52 L453.842,209.968 C455.714,212.464 458.834,214.528 462.962,214.528 C467.282,214.528 471.17,212.224 471.17,207.664 C471.17,204.439158 469.304216,202.62503 465.306792,200.892336 L462.818,199.84 L462.283807,199.61772 C460.060694,198.670122 459.026,197.902857 459.026,196.432 C459.026,194.512 460.706,193.504 462.914,193.504 C465.122,193.504 467.138,194.512 468.674,196.096 L470.93,193.792 C469.106,191.536 466.466,190.096 463.106,190.096 Z M501.05,190.096 C497.354,190.096 494.042,191.68 492.218,194.368 L492.218,190.624 L488.762,190.624 L488.762,222.64 L492.458,222.64 L492.458,210.592 C494.33,213.088 497.594,214.528 501.05,214.528 C507.722,214.528 512.618,209.2 512.618,202.288 C512.618,195.424 507.77,190.096 501.05,190.096 Z M500.522,211.12 C496.442,211.12 492.41,208.432 492.41,202.288 C492.41,196.144 496.49,193.504 500.522,193.504 C505.322,193.504 508.826,197.248 508.826,202.336 C508.826,207.424 505.274,211.12 500.522,211.12 Z M528.542,190.432 C525.758,190.432 523.022,191.68 521.294,193.984 L521.294,190.624 L517.838,190.624 L517.838,214 L521.534,214 L521.534,200.752 C521.534,196.288 525.086,193.888 528.878,193.888 L530.27,193.888 L530.27,190.624 L529.946839,190.561053 C529.562444,190.490074 529.139333,190.432 528.542,190.432 Z M544.034,190.096 C537.17,190.096 531.794,195.424 531.794,202.288 C531.794,209.152 537.218,214.432 543.986,214.48 C550.802,214.48 556.274,209.104 556.274,202.288 C556.274,195.424 550.802,190.096 544.034,190.096 Z M544.034,193.504 C548.834,193.504 552.482,197.296 552.482,202.336 C552.482,207.232 548.834,211.072 543.986,211.072 C539.138,211.072 535.586,207.28 535.586,202.336 C535.538,197.344 539.138,193.504 544.034,193.504 Z M563.366,179.008 C561.782,179.008 560.582,180.208 560.582,181.696 C560.582,183.232 561.782,184.384 563.366,184.384 C564.854,184.384 566.102,183.232 566.102,181.696 C566.102,180.208 564.854,179.008 563.366,179.008 Z M565.19,190.624 L561.494,190.624 L561.494,215.344 C561.494,218.8 559.526,219.808 556.694,219.808 C555.926,219.808 555.35,219.76 554.534,219.664 L554.534,222.784 C555.398,223.024 556.31,223.168 557.51,223.168 C561.974,223.168 565.19,220.912 565.19,215.584 L565.19,190.624 Z M592.97,200.656 C592.97,194.416 588.314,190.096 582.314,190.096 C575.594,190.096 570.362,195.52 570.362,202.336 C570.362,209.2 575.69,214.528 582.746,214.528 C586.586,214.528 589.754,212.944 592.106,210.448 L589.946,207.952 C588.026,209.872 585.722,211.12 582.794,211.12 C578.186,211.12 574.73,208.096 574.25,203.44 L592.682,203.44 L592.724837,203.232612 C592.825787,202.71104 592.97,201.7376 592.97,200.656 Z M582.218,193.456 C585.962,193.456 589.13,195.856 589.178,200.176 L574.394,200.176 C575.162,196.144 578.282,193.456 582.218,193.456 Z M608.75,190.096 C601.934,190.096 596.51,195.472 596.51,202.288 C596.51,209.152 601.934,214.528 608.75,214.528 C612.926,214.528 616.286,212.512 618.35,209.44 L615.71,207.376 C613.982,209.68 611.774,211.12 608.798,211.12 C603.902,211.12 600.302,207.232 600.302,202.288 C600.302,197.392 603.902,193.504 608.798,193.504 C611.822,193.504 614.03,194.992 615.758,197.296 L618.398,195.184 C616.334,192.112 612.974,190.096 608.75,190.096 Z M633.026,211.168 C630.098,211.168 628.082,210.208 628.082,206.704 L628.082,193.936 L635.378,193.936 L635.378,190.624 L628.082,190.624 L628.082,184.24 L624.386,184.24 L624.386,190.624 L620.45,190.624 L620.45,193.936 L624.386,193.936 L624.386,206.944 C624.386,212.272 627.65,214.528 632.258,214.528 C633.746,214.528 634.946,214.288 636.146,214 L636.146,210.88 C634.946,211.072 633.938,211.168 633.026,211.168 Z M661.754,180.832 C662.378,180.832 663.05,180.88 663.818,180.976 L663.818,177.856 C662.954,177.616 662.042,177.472 660.89,177.472 C656.378,177.472 653.162,179.728 653.162,185.056 L653.162,190.624 L649.802,190.624 L649.802,193.936 L653.162,193.936 L653.162,214 L656.858,214 L656.858,193.936 L662.714,193.936 L662.714,190.624 L656.858,190.624 L656.858,185.296 C656.858,181.792 658.874,180.832 661.754,180.832 Z M676.43,190.096 C669.566,190.096 664.19,195.424 664.19,202.288 C664.19,209.152 669.614,214.432 676.382,214.48 C683.198,214.48 688.67,209.104 688.67,202.288 C688.67,195.424 683.198,190.096 676.43,190.096 Z M676.43,193.504 C681.23,193.504 684.878,197.296 684.878,202.336 C684.878,207.232 681.23,211.072 676.382,211.072 C671.534,211.072 667.982,207.28 667.982,202.336 C667.934,197.344 671.534,193.504 676.43,193.504 Z M704.45,190.096 C697.634,190.096 692.21,195.472 692.21,202.288 C692.21,209.152 697.634,214.528 704.45,214.528 C708.626,214.528 711.986,212.512 714.05,209.44 L711.41,207.376 C709.682,209.68 707.474,211.12 704.498,211.12 C699.602,211.12 696.002,207.232 696.002,202.288 C696.002,197.392 699.602,193.504 704.498,193.504 C707.522,193.504 709.73,194.992 711.458,197.296 L714.098,195.184 C712.034,192.112 708.674,190.096 704.45,190.096 Z M738.134,190.624 L734.438,190.624 L734.438,204.928 C734.438,208.768 731.75,211.12 728.486,211.12 C725.126,211.12 722.438,208.768 722.438,204.928 L722.438,190.624 L718.79,190.624 L718.79,204.688 C718.79,210.688 723.014,214.528 728.486,214.528 C733.862,214.528 738.134,210.688 738.134,204.688 L738.134,190.624 Z M751.754,190.096 C747.482,190.096 743.882,192.4 743.882,196.624 C743.882,199.984 746.138,201.616 749.69,203.104 L751.946,204.064 L752.654676,204.357361 C754.637025,205.196252 756.026,206.000552 756.026,207.808 C756.026,209.92 754.01,211.12 751.562,211.12 C748.73,211.12 746.762,209.536 744.842,207.52 L742.49,209.968 C744.362,212.464 747.482,214.528 751.61,214.528 C755.93,214.528 759.818,212.224 759.818,207.664 C759.818,204.439158 757.952216,202.62503 753.954792,200.892336 L751.466,199.84 L750.931808,199.61772 C748.708694,198.670122 747.674,197.902857 747.674,196.432 C747.674,194.512 749.354,193.504 751.562,193.504 C753.77,193.504 755.786,194.512 757.322,196.096 L759.578,193.792 C757.754,191.536 755.114,190.096 751.754,190.096 Z M786.158,200.656 C786.158,194.416 781.502,190.096 775.502,190.096 C768.782,190.096 763.55,195.52 763.55,202.336 C763.55,209.2 768.878,214.528 775.934,214.528 C779.774,214.528 782.942,212.944 785.294,210.448 L783.134,207.952 C781.214,209.872 778.91,211.12 775.982,211.12 C771.374,211.12 767.918,208.096 767.438,203.44 L785.87,203.44 L785.936816,203.104384 C786.03512,202.56064 786.158,201.6544 786.158,200.656 Z M775.406,193.456 C779.15,193.456 782.318,195.856 782.366,200.176 L767.582,200.176 C768.35,196.144 771.47,193.456 775.406,193.456 Z M809.906,178 L809.906,194.08 C808.034,191.584 804.818,190.096 801.266,190.096 C794.594,190.096 789.698,195.424 789.698,202.336 C789.698,209.2 794.594,214.528 801.266,214.528 C804.962,214.528 808.274,212.944 810.098,210.256 L810.098,214 L813.602,214 L813.602,178 L809.906,178 Z M801.794,211.12 C796.994,211.12 793.49,207.376 793.49,202.288 C793.49,197.2 797.042,193.504 801.794,193.504 C805.826,193.504 809.954,196.192 809.954,202.336 C809.954,208.48 805.826,211.12 801.794,211.12 Z M843.194,190.096 C836.33,190.096 830.954,195.424 830.954,202.288 C830.954,209.152 836.378,214.432 843.146,214.48 C849.962,214.48 855.434,209.104 855.434,202.288 C855.434,195.424 849.962,190.096 843.194,190.096 Z M843.194,193.504 C847.994,193.504 851.642,197.296 851.642,202.336 C851.642,207.232 847.994,211.072 843.146,211.072 C838.298,211.072 834.746,207.28 834.746,202.336 C834.698,197.344 838.298,193.504 843.194,193.504 Z M871.31,190.096 C868.286,190.096 865.742,191.248 864.11,193.168 L864.11,190.624 L860.654,190.624 L860.654,214 L864.35,214 L864.35,199.744 C864.35,196.096 866.894,193.504 870.494,193.504 C874.094,193.504 876.302,196.048 876.302,199.744 L876.302,214 L879.998,214 L879.998,199.312 C879.998,193.888 876.83,190.096 871.31,190.096 Z M909.446,190.096 C906.422,190.096 903.974,191.296 902.438,193.264 L902.438,178 L898.742,178 L898.742,214 L902.438,214 L902.438,199.792 C902.438,196.144 904.982,193.504 908.582,193.504 C912.182,193.504 914.39,196.096 914.39,199.792 L914.39,214 L918.086,214 L918.086,199.312 C918.086,193.888 914.918,190.096 909.446,190.096 Z M945.578,200.656 C945.578,194.416 940.922,190.096 934.922,190.096 C928.202,190.096 922.97,195.52 922.97,202.336 C922.97,209.2 928.298,214.528 935.354,214.528 C939.194,214.528 942.362,212.944 944.714,210.448 L942.554,207.952 C940.634,209.872 938.33,211.12 935.402,211.12 C930.794,211.12 927.338,208.096 926.858,203.44 L945.29,203.44 L945.356816,203.104384 C945.45512,202.56064 945.578,201.6544 945.578,200.656 Z M934.826,193.456 C938.57,193.456 941.738,195.856 941.786,200.176 L927.002,200.176 C927.77,196.144 930.89,193.456 934.826,193.456 Z M954.494,178 L950.798,178 L950.798,214 L954.494,214 L954.494,178 Z M973.634,190.096 C969.938,190.096 966.626,191.68 964.802,194.368 L964.802,190.624 L961.346,190.624 L961.346,222.64 L965.042,222.64 L965.042,210.592 C966.914,213.088 970.178,214.528 973.634,214.528 C980.306,214.528 985.202,209.2 985.202,202.288 C985.202,195.424 980.354,190.096 973.634,190.096 Z M973.106,211.12 C969.026,211.12 964.994,208.432 964.994,202.288 C964.994,196.144 969.074,193.504 973.106,193.504 C977.906,193.504 981.41,197.248 981.41,202.336 C981.41,207.424 977.858,211.12 973.106,211.12 Z M992.294,179.008 C990.71,179.008 989.51,180.208 989.51,181.696 C989.51,183.232 990.71,184.384 992.294,184.384 C993.782,184.384 995.03,183.232 995.03,181.696 C995.03,180.208 993.782,179.008 992.294,179.008 Z M994.118,190.624 L990.422,190.624 L990.422,214 L994.118,214 L994.118,190.624 Z M1011.626,190.096 C1008.602,190.096 1006.058,191.248 1004.426,193.168 L1004.426,190.624 L1000.97,190.624 L1000.97,214 L1004.666,214 L1004.666,199.744 C1004.666,196.096 1007.21,193.504 1010.81,193.504 C1014.41,193.504 1016.618,196.048 1016.618,199.744 L1016.618,214 L1020.314,214 L1020.314,199.312 C1020.314,193.888 1017.146,190.096 1011.626,190.096 Z M1045.838,190.624 L1045.838,194.416 C1044.014,191.728 1040.654,190.096 1036.958,190.096 C1030.382,190.096 1025.486,195.184 1025.486,201.952 C1025.486,208.768 1030.382,213.76 1036.958,213.76 C1040.462,213.76 1043.726,212.32 1045.646,209.872 L1045.646,211.936 C1045.646,217.12 1042.622,219.76 1037.87,219.76 C1034.03,219.76 1031.39,218.032 1029.134,216.064 L1026.974,218.656 C1029.278,220.96 1033.07,223.168 1037.966,223.168 C1044.782,223.168 1049.342,218.944 1049.342,211.744 L1049.342,190.624 L1045.838,190.624 Z M1037.534,210.352 C1032.782,210.352 1029.23,206.944 1029.23,202 C1029.23,197.056 1032.782,193.6 1037.534,193.6 C1041.566,193.6 1045.694,196.096 1045.694,201.952 C1045.694,207.808 1041.614,210.352 1037.534,210.352 Z M292.034,239.32 L288.29,239.32 L288.29,271 L292.034,271 L292.034,239.32 Z M309.59,247.096 C306.566,247.096 304.022,248.248 302.39,250.168 L302.39,247.624 L298.934,247.624 L298.934,271 L302.63,271 L302.63,256.744 C302.63,253.096 305.174,250.504 308.774,250.504 C312.374,250.504 314.582,253.048 314.582,256.744 L314.582,271 L318.278,271 L318.278,256.312 C318.278,250.888 315.11,247.096 309.59,247.096 Z M343.37,235 L343.37,251.08 C341.498,248.584 338.282,247.096 334.73,247.096 C328.058,247.096 323.162,252.424 323.162,259.336 C323.162,266.2 328.058,271.528 334.73,271.528 C338.426,271.528 341.738,269.944 343.562,267.256 L343.562,271 L347.066,271 L347.066,235 L343.37,235 Z M335.258,268.12 C330.458,268.12 326.954,264.376 326.954,259.288 C326.954,254.2 330.506,250.504 335.258,250.504 C339.29,250.504 343.418,253.192 343.418,259.336 C343.418,265.48 339.29,268.12 335.258,268.12 Z M372.974,247.624 L369.278,247.624 L369.278,261.928 C369.278,265.768 366.59,268.12 363.326,268.12 C359.966,268.12 357.278,265.768 357.278,261.928 L357.278,247.624 L353.63,247.624 L353.63,261.688 C353.63,267.688 357.854,271.528 363.326,271.528 C368.702,271.528 372.974,267.688 372.974,261.688 L372.974,247.624 Z M386.594,247.096 C382.322,247.096 378.722,249.4 378.722,253.624 C378.722,256.893189 380.857702,258.526522 384.244859,259.983005 L386.786,261.064 L387.494675,261.357361 C389.477025,262.196252 390.866,263.000552 390.866,264.808 C390.866,266.92 388.85,268.12 386.402,268.12 C383.57,268.12 381.602,266.536 379.682,264.52 L377.33,266.968 C379.202,269.464 382.322,271.528 386.45,271.528 C390.77,271.528 394.658,269.224 394.658,264.664 C394.658,261.439158 392.792216,259.62503 388.794792,257.892336 L386.306,256.84 L385.771807,256.61772 C383.548694,255.670122 382.514,254.902857 382.514,253.432 C382.514,251.512 384.194,250.504 386.402,250.504 C388.61,250.504 390.626,251.512 392.162,253.096 L394.418,250.792 C392.594,248.536 389.954,247.096 386.594,247.096 Z M409.718,268.168 C406.79,268.168 404.774,267.208 404.774,263.704 L404.774,250.936 L412.07,250.936 L412.07,247.624 L404.774,247.624 L404.774,241.24 L401.078,241.24 L401.078,247.624 L397.142,247.624 L397.142,250.936 L401.078,250.936 L401.078,263.944 C401.078,269.272 404.342,271.528 408.95,271.528 C410.438,271.528 411.638,271.288 412.838,271 L412.838,267.88 C411.638,268.072 410.63,268.168 409.718,268.168 Z M427.802,247.432 C425.018,247.432 422.282,248.68 420.554,250.984 L420.554,247.624 L417.098,247.624 L417.098,271 L420.794,271 L420.794,257.752 C420.794,253.288 424.346,250.888 428.138,250.888 L429.53,250.888 L429.53,247.624 L429.206839,247.561053 C428.822444,247.490074 428.399333,247.432 427.802,247.432 Z M435.086,236.008 C433.502,236.008 432.302,237.208 432.302,238.696 C432.302,240.232 433.502,241.384 435.086,241.384 C436.574,241.384 437.822,240.232 437.822,238.696 C437.822,237.208 436.574,236.008 435.086,236.008 Z M436.91,247.624 L433.214,247.624 L433.214,271 L436.91,271 L436.91,247.624 Z M454.322,247.096 C447.458,247.096 442.082,252.424 442.082,259.288 C442.082,266.152 447.506,271.432 454.274,271.48 C461.09,271.48 466.562,266.104 466.562,259.288 C466.562,252.424 461.09,247.096 454.322,247.096 Z M454.322,250.504 C459.122,250.504 462.77,254.296 462.77,259.336 C462.77,264.232 459.122,268.072 454.274,268.072 C449.426,268.072 445.874,264.28 445.874,259.336 C445.826,254.344 449.426,250.504 454.322,250.504 Z M490.838,247.624 L487.142,247.624 L487.142,261.928 C487.142,265.768 484.454,268.12 481.19,268.12 C477.83,268.12 475.142,265.768 475.142,261.928 L475.142,247.624 L471.494,247.624 L471.494,261.688 C471.494,267.688 475.718,271.528 481.19,271.528 C486.566,271.528 490.838,267.688 490.838,261.688 L490.838,247.624 Z M504.458,247.096 C500.186,247.096 496.586,249.4 496.586,253.624 C496.586,256.893189 498.721702,258.526522 502.108859,259.983005 L504.65,261.064 L505.358675,261.357361 C507.341025,262.196252 508.73,263.000552 508.73,264.808 C508.73,266.92 506.714,268.12 504.266,268.12 C501.434,268.12 499.466,266.536 497.546,264.52 L495.194,266.968 C497.066,269.464 500.186,271.528 504.314,271.528 C508.634,271.528 512.522,269.224 512.522,264.664 C512.522,261.439158 510.656216,259.62503 506.658792,257.892336 L504.17,256.84 L503.635807,256.61772 C501.412694,255.670122 500.378,254.902857 500.378,253.432 C500.378,251.512 502.058,250.504 504.266,250.504 C506.474,250.504 508.49,251.512 510.026,253.096 L512.282,250.792 C510.458,248.536 507.818,247.096 504.458,247.096 Z M522.926,266.68 L518.558,266.68 L517.934,279.592 L520.958,279.592 L522.926,266.68 Z M550.214,247.096 C546.47,247.096 542.918,248.68 540.71,252.232 L543.158,254.248 C544.982,251.896 547.046,250.504 549.974,250.504 C553.43,250.504 555.638,252.472 555.638,256.408 L555.638,258.424 L548.246,258.424 C543.158,258.424 539.846,261.016 539.846,264.952 C539.846,269.032 543.302,271.528 548.006,271.528 C551.462,271.528 554.198,270.232 555.878,267.976 L555.878,271 L559.334,271 L559.334,256.6 C559.334,250.312 555.542,247.096 550.214,247.096 Z M548.486,268.456 C545.894,268.456 543.638,267.256 543.638,264.76 C543.638,262.552 545.414,261.448 548.678,261.448 L555.638,261.448 L555.638,262.024 C555.638,265.672 552.326,268.456 548.486,268.456 Z M588.638,247.096 C581.822,247.096 576.398,252.472 576.398,259.288 C576.398,266.152 581.822,271.528 588.638,271.528 C592.814,271.528 596.174,269.512 598.238,266.44 L595.598,264.376 C593.87,266.68 591.662,268.12 588.686,268.12 C583.79,268.12 580.19,264.232 580.19,259.288 C580.19,254.392 583.79,250.504 588.686,250.504 C591.71,250.504 593.918,251.992 595.646,254.296 L598.286,252.184 C596.222,249.112 592.862,247.096 588.638,247.096 Z M613.346,247.096 C606.482,247.096 601.106,252.424 601.106,259.288 C601.106,266.152 606.53,271.432 613.298,271.48 C620.114,271.48 625.586,266.104 625.586,259.288 C625.586,252.424 620.114,247.096 613.346,247.096 Z M613.346,250.504 C618.146,250.504 621.794,254.296 621.794,259.336 C621.794,264.232 618.146,268.072 613.298,268.072 C608.45,268.072 604.898,264.28 604.898,259.336 C604.85,254.344 608.45,250.504 613.346,250.504 Z M640.742,254.344 L629.27,254.344 L629.27,257.464 L640.742,257.464 L640.742,254.344 Z M677.21,247.624 L670.586,264.808 L662.714,247.096 L661.322,247.096 L653.498,264.904 L646.778,247.624 L642.842,247.624 L652.778,271.528 L654.074,271.528 L661.994,253.864 L669.962,271.528 L671.306,271.528 L681.146,247.624 L677.21,247.624 Z M694.862,247.096 C687.998,247.096 682.622,252.424 682.622,259.288 C682.622,266.152 688.046,271.432 694.814,271.48 C701.63,271.48 707.102,266.104 707.102,259.288 C707.102,252.424 701.63,247.096 694.862,247.096 Z M694.862,250.504 C699.662,250.504 703.31,254.296 703.31,259.336 C703.31,264.232 699.662,268.072 694.814,268.072 C689.966,268.072 686.414,264.28 686.414,259.336 C686.366,254.344 689.966,250.504 694.862,250.504 Z M723.026,247.432 C720.242,247.432 717.506,248.68 715.778,250.984 L715.778,247.624 L712.322,247.624 L712.322,271 L716.018,271 L716.018,257.752 C716.018,253.288 719.57,250.888 723.362,250.888 L724.754,250.888 L724.754,247.624 L724.43084,247.561053 C724.046444,247.490074 723.623333,247.432 723.026,247.432 Z M728.438,271 L732.134,271 L732.134,235 L728.438,235 L728.438,271 Z M736.982,257.896 L747.11,247.624 L742.262,247.624 L732.518,257.848 L743.27,271 L748.022,271 L736.982,257.896 Z M753.338,236.008 C751.754,236.008 750.554,237.208 750.554,238.696 C750.554,240.232 751.754,241.384 753.338,241.384 C754.826,241.384 756.074,240.232 756.074,238.696 C756.074,237.208 754.826,236.008 753.338,236.008 Z M755.162,247.624 L751.466,247.624 L751.466,271 L755.162,271 L755.162,247.624 Z M772.67,247.096 C769.646,247.096 767.102,248.248 765.47,250.168 L765.47,247.624 L762.014,247.624 L762.014,271 L765.71,271 L765.71,256.744 C765.71,253.096 768.254,250.504 771.854,250.504 C775.454,250.504 777.662,253.048 777.662,256.744 L777.662,271 L781.358,271 L781.358,256.312 C781.358,250.888 778.19,247.096 772.67,247.096 Z M806.882,247.624 L806.882,251.416 C805.058,248.728 801.698,247.096 798.002,247.096 C791.426,247.096 786.53,252.184 786.53,258.952 C786.53,265.768 791.426,270.76 798.002,270.76 C801.506,270.76 804.77,269.32 806.69,266.872 L806.69,268.936 C806.69,274.12 803.666,276.76 798.914,276.76 C795.074,276.76 792.434,275.032 790.178,273.064 L788.018,275.656 C790.322,277.96 794.114,280.168 799.01,280.168 C805.826,280.168 810.386,275.944 810.386,268.744 L810.386,247.624 L806.882,247.624 Z M798.578,267.352 C793.826,267.352 790.274,263.944 790.274,259 C790.274,254.056 793.826,250.6 798.578,250.6 C802.61,250.6 806.738,253.096 806.738,258.952 C806.738,264.808 802.658,267.352 798.578,267.352 Z M836.474,247.096 C832.202,247.096 828.602,249.4 828.602,253.624 C828.602,256.893189 830.737702,258.526522 834.124859,259.983005 L836.666,261.064 L837.374676,261.357361 C839.357025,262.196252 840.746,263.000552 840.746,264.808 C840.746,266.92 838.73,268.12 836.282,268.12 C833.45,268.12 831.482,266.536 829.562,264.52 L827.21,266.968 C829.082,269.464 832.202,271.528 836.33,271.528 C840.65,271.528 844.538,269.224 844.538,264.664 C844.538,261.439158 842.672216,259.62503 838.674792,257.892336 L836.186,256.84 L835.651808,256.61772 C833.428694,255.670122 832.394,254.902857 832.394,253.432 C832.394,251.512 834.074,250.504 836.282,250.504 C838.49,250.504 840.506,251.512 842.042,253.096 L844.298,250.792 C842.474,248.536 839.834,247.096 836.474,247.096 Z M862.238,247.096 C858.542,247.096 855.23,248.68 853.406,251.368 L853.406,247.624 L849.95,247.624 L849.95,279.64 L853.646,279.64 L853.646,267.592 C855.518,270.088 858.782,271.528 862.238,271.528 C868.91,271.528 873.806,266.2 873.806,259.288 C873.806,252.424 868.958,247.096 862.238,247.096 Z M861.71,268.12 C857.63,268.12 853.598,265.432 853.598,259.288 C853.598,253.144 857.678,250.504 861.71,250.504 C866.51,250.504 870.014,254.248 870.014,259.336 C870.014,264.424 866.462,268.12 861.71,268.12 Z M887.426,247.096 C883.682,247.096 880.13,248.68 877.922,252.232 L880.37,254.248 C882.194,251.896 884.258,250.504 887.186,250.504 C890.642,250.504 892.85,252.472 892.85,256.408 L892.85,258.424 L885.458,258.424 C880.37,258.424 877.058,261.016 877.058,264.952 C877.058,269.032 880.514,271.528 885.218,271.528 C888.674,271.528 891.41,270.232 893.09,267.976 L893.09,271 L896.546,271 L896.546,256.6 C896.546,250.312 892.754,247.096 887.426,247.096 Z M885.698,268.456 C883.106,268.456 880.85,267.256 880.85,264.76 C880.85,262.552 882.626,261.448 885.89,261.448 L892.85,261.448 L892.85,262.024 C892.85,265.672 889.538,268.456 885.698,268.456 Z M913.67,247.096 C906.854,247.096 901.43,252.472 901.43,259.288 C901.43,266.152 906.854,271.528 913.67,271.528 C917.846,271.528 921.206,269.512 923.27,266.44 L920.63,264.376 C918.902,266.68 916.694,268.12 913.718,268.12 C908.822,268.12 905.222,264.232 905.222,259.288 C905.222,254.392 908.822,250.504 913.718,250.504 C916.742,250.504 918.95,251.992 920.678,254.296 L923.318,252.184 C921.254,249.112 917.894,247.096 913.67,247.096 Z M948.746,257.656 C948.746,251.416 944.09,247.096 938.09,247.096 C931.37,247.096 926.138,252.52 926.138,259.336 C926.138,266.2 931.466,271.528 938.522,271.528 C942.362,271.528 945.53,269.944 947.882,267.448 L945.722,264.952 C943.802,266.872 941.498,268.12 938.57,268.12 C933.962,268.12 930.506,265.096 930.026,260.44 L948.458,260.44 L948.524816,260.104384 C948.62312,259.56064 948.746,258.6544 948.746,257.656 Z M937.994,250.456 C941.738,250.456 944.906,252.856 944.954,257.176 L930.17,257.176 C930.938,253.144 934.058,250.456 937.994,250.456 Z M958.958,266.68 L954.59,266.68 L953.966,279.592 L956.99,279.592 L958.958,266.68 Z M988.55,247.432 C985.766,247.432 983.03,248.68 981.302,250.984 L981.302,247.624 L977.846,247.624 L977.846,271 L981.542,271 L981.542,257.752 C981.542,253.288 985.094,250.888 988.886,250.888 L990.278,250.888 L990.278,247.624 L989.95484,247.561053 C989.570445,247.490074 989.147333,247.432 988.55,247.432 Z M1014.41,257.656 C1014.41,251.416 1009.754,247.096 1003.754,247.096 C997.034,247.096 991.802,252.52 991.802,259.336 C991.802,266.2 997.13,271.528 1004.186,271.528 C1008.026,271.528 1011.194,269.944 1013.546,267.448 L1011.386,264.952 C1009.466,266.872 1007.162,268.12 1004.234,268.12 C999.626,268.12 996.17,265.096 995.69,260.44 L1014.122,260.44 L1014.18882,260.104384 C1014.28712,259.56064 1014.41,258.6544 1014.41,257.656 Z M1003.658,250.456 C1007.402,250.456 1010.57,252.856 1010.618,257.176 L995.834,257.176 C996.602,253.144 999.722,250.456 1003.658,250.456 Z M1038.158,235 L1038.158,251.08 C1036.286,248.584 1033.07,247.096 1029.518,247.096 C1022.846,247.096 1017.95,252.424 1017.95,259.336 C1017.95,266.2 1022.846,271.528 1029.518,271.528 C1033.214,271.528 1036.526,269.944 1038.35,267.256 L1038.35,271 L1041.854,271 L1041.854,235 L1038.158,235 Z M1030.046,268.12 C1025.246,268.12 1021.742,264.376 1021.742,259.288 C1021.742,254.2 1025.294,250.504 1030.046,250.504 C1034.078,250.504 1038.206,253.192 1038.206,259.336 C1038.206,265.48 1034.078,268.12 1030.046,268.12 Z M1069.634,257.656 C1069.634,251.416 1064.978,247.096 1058.978,247.096 C1052.258,247.096 1047.026,252.52 1047.026,259.336 C1047.026,266.2 1052.354,271.528 1059.41,271.528 C1063.25,271.528 1066.418,269.944 1068.77,267.448 L1066.61,264.952 C1064.69,266.872 1062.386,268.12 1059.458,268.12 C1054.85,268.12 1051.394,265.096 1050.914,260.44 L1069.346,260.44 L1069.41282,260.104384 C1069.51112,259.56064 1069.634,258.6544 1069.634,257.656 Z M1058.882,250.456 C1062.626,250.456 1065.794,252.856 1065.842,257.176 L1051.058,257.176 C1051.826,253.144 1054.946,250.456 1058.882,250.456 Z M1081.91,247.096 C1077.638,247.096 1074.038,249.4 1074.038,253.624 C1074.038,256.893189 1076.1737,258.526522 1079.56086,259.983005 L1082.102,261.064 L1082.81068,261.357361 C1084.79303,262.196252 1086.182,263.000552 1086.182,264.808 C1086.182,266.92 1084.166,268.12 1081.718,268.12 C1078.886,268.12 1076.918,266.536 1074.998,264.52 L1072.646,266.968 C1074.518,269.464 1077.638,271.528 1081.766,271.528 C1086.086,271.528 1089.974,269.224 1089.974,264.664 C1089.974,261.439158 1088.10822,259.62503 1084.11079,257.892336 L1081.622,256.84 L1081.08781,256.61772 C1078.86469,255.670122 1077.83,254.902857 1077.83,253.432 C1077.83,251.512 1079.51,250.504 1081.718,250.504 C1083.926,250.504 1085.942,251.512 1087.478,253.096 L1089.734,250.792 C1087.91,248.536 1085.27,247.096 1081.91,247.096 Z M1097.258,236.008 C1095.674,236.008 1094.474,237.208 1094.474,238.696 C1094.474,240.232 1095.674,241.384 1097.258,241.384 C1098.746,241.384 1099.994,240.232 1099.994,238.696 C1099.994,237.208 1098.746,236.008 1097.258,236.008 Z M1099.082,247.624 L1095.386,247.624 L1095.386,271 L1099.082,271 L1099.082,247.624 Z M1124.894,247.624 L1124.894,251.416 C1123.07,248.728 1119.71,247.096 1116.014,247.096 C1109.438,247.096 1104.542,252.184 1104.542,258.952 C1104.542,265.768 1109.438,270.76 1116.014,270.76 C1119.518,270.76 1122.782,269.32 1124.702,266.872 L1124.702,268.936 C1124.702,274.12 1121.678,276.76 1116.926,276.76 C1113.086,276.76 1110.446,275.032 1108.19,273.064 L1106.03,275.656 C1108.334,277.96 1112.126,280.168 1117.022,280.168 C1123.838,280.168 1128.398,275.944 1128.398,268.744 L1128.398,247.624 L1124.894,247.624 Z M1116.59,267.352 C1111.838,267.352 1108.286,263.944 1108.286,259 C1108.286,254.056 1111.838,250.6 1116.59,250.6 C1120.622,250.6 1124.75,253.096 1124.75,258.952 C1124.75,264.808 1120.67,267.352 1116.59,267.352 Z M1145.906,247.096 C1142.882,247.096 1140.338,248.248 1138.706,250.168 L1138.706,247.624 L1135.25,247.624 L1135.25,271 L1138.946,271 L1138.946,256.744 C1138.946,253.096 1141.49,250.504 1145.09,250.504 C1148.69,250.504 1150.898,253.048 1150.898,256.744 L1150.898,271 L1154.594,271 L1154.594,256.312 C1154.594,250.888 1151.426,247.096 1145.906,247.096 Z M291.374,325.168 C288.446,325.168 286.43,324.208 286.43,320.704 L286.43,307.936 L293.726,307.936 L293.726,304.624 L286.43,304.624 L286.43,298.24 L282.734,298.24 L282.734,304.624 L278.798,304.624 L278.798,307.936 L282.734,307.936 L282.734,320.944 C282.734,326.272 285.998,328.528 290.606,328.528 C292.094,328.528 293.294,328.288 294.494,328 L294.494,324.88 C293.294,325.072 292.286,325.168 291.374,325.168 Z M309.458,304.096 C306.434,304.096 303.986,305.296 302.45,307.264 L302.45,292 L298.754,292 L298.754,328 L302.45,328 L302.45,313.792 C302.45,310.144 304.994,307.504 308.594,307.504 C312.194,307.504 314.402,310.096 314.402,313.792 L314.402,328 L318.098,328 L318.098,313.312 C318.098,307.888 314.93,304.096 309.458,304.096 Z M345.59,314.656 C345.59,308.416 340.934,304.096 334.934,304.096 C328.214,304.096 322.982,309.52 322.982,316.336 C322.982,323.2 328.31,328.528 335.366,328.528 C339.206,328.528 342.374,326.944 344.726,324.448 L342.566,321.952 C340.646,323.872 338.342,325.12 335.414,325.12 C330.806,325.12 327.35,322.096 326.87,317.44 L345.302,317.44 L345.344837,317.232612 C345.445786,316.71104 345.59,315.7376 345.59,314.656 Z M334.838,307.456 C338.582,307.456 341.75,309.856 341.798,314.176 L327.014,314.176 C327.782,310.144 330.902,307.456 334.838,307.456 Z M387.998,296.32 L384.254,296.32 L384.254,315.664 C384.254,322.048 380.366,325.072 375.47,325.072 C370.526,325.072 366.59,322.048 366.59,315.664 L366.59,296.32 L362.846,296.32 L362.846,315.424 C362.846,323.872 368.174,328.528 375.47,328.528 C382.622,328.528 387.998,323.872 387.998,315.424 L387.998,296.32 Z M398.834,296.32 L395.09,296.32 L395.09,328 L398.834,328 L398.834,296.32 Z M428.714,304.096 C421.85,304.096 416.474,309.424 416.474,316.288 C416.474,323.152 421.898,328.432 428.666,328.48 C435.482,328.48 440.954,323.104 440.954,316.288 C440.954,309.424 435.482,304.096 428.714,304.096 Z M428.714,307.504 C433.514,307.504 437.162,311.296 437.162,316.336 C437.162,321.232 433.514,325.072 428.666,325.072 C423.818,325.072 420.266,321.28 420.266,316.336 C420.218,311.344 423.818,307.504 428.714,307.504 Z M455.342,294.832 C455.966,294.832 456.638,294.88 457.406,294.976 L457.406,291.856 C456.542,291.616 455.63,291.472 454.478,291.472 C449.966,291.472 446.75,293.728 446.75,299.056 L446.75,304.624 L443.39,304.624 L443.39,307.936 L446.75,307.936 L446.75,328 L450.446,328 L450.446,307.936 L456.302,307.936 L456.302,304.624 L450.446,304.624 L450.446,299.296 C450.446,295.792 452.462,294.832 455.342,294.832 Z M479.846,325.168 C476.918,325.168 474.902,324.208 474.902,320.704 L474.902,307.936 L482.198,307.936 L482.198,304.624 L474.902,304.624 L474.902,298.24 L471.206,298.24 L471.206,304.624 L467.27,304.624 L467.27,307.936 L471.206,307.936 L471.206,320.944 C471.206,326.272 474.47,328.528 479.078,328.528 C480.566,328.528 481.766,328.288 482.966,328 L482.966,324.88 C481.766,325.072 480.758,325.168 479.846,325.168 Z M497.93,304.096 C494.906,304.096 492.458,305.296 490.922,307.264 L490.922,292 L487.226,292 L487.226,328 L490.922,328 L490.922,313.792 C490.922,310.144 493.466,307.504 497.066,307.504 C500.666,307.504 502.874,310.096 502.874,313.792 L502.874,328 L506.57,328 L506.57,313.312 C506.57,307.888 503.402,304.096 497.93,304.096 Z M534.062,314.656 C534.062,308.416 529.406,304.096 523.406,304.096 C516.686,304.096 511.454,309.52 511.454,316.336 C511.454,323.2 516.782,328.528 523.838,328.528 C527.678,328.528 530.846,326.944 533.198,324.448 L531.038,321.952 C529.118,323.872 526.814,325.12 523.886,325.12 C519.278,325.12 515.822,322.096 515.342,317.44 L533.774,317.44 L533.816837,317.232612 C533.917787,316.71104 534.062,315.7376 534.062,314.656 Z M523.31,307.456 C527.054,307.456 530.222,309.856 530.27,314.176 L515.486,314.176 C516.254,310.144 519.374,307.456 523.31,307.456 Z M541.154,293.008 C539.57,293.008 538.37,294.208 538.37,295.696 C538.37,297.232 539.57,298.384 541.154,298.384 C542.642,298.384 543.89,297.232 543.89,295.696 C543.89,294.208 542.642,293.008 541.154,293.008 Z M542.978,304.624 L539.282,304.624 L539.282,328 L542.978,328 L542.978,304.624 Z M560.534,304.432 C557.75,304.432 555.014,305.68 553.286,307.984 L553.286,304.624 L549.83,304.624 L549.83,328 L553.526,328 L553.526,314.752 C553.526,310.288 557.078,307.888 560.87,307.888 L562.262,307.888 L562.262,304.624 L561.938839,304.561053 C561.554444,304.490074 561.131333,304.432 560.534,304.432 Z M586.526,304.096 C582.782,304.096 579.23,305.68 577.022,309.232 L579.47,311.248 C581.294,308.896 583.358,307.504 586.286,307.504 C589.742,307.504 591.95,309.472 591.95,313.408 L591.95,315.424 L584.558,315.424 C579.47,315.424 576.158,318.016 576.158,321.952 C576.158,326.032 579.614,328.528 584.318,328.528 C587.774,328.528 590.51,327.232 592.19,324.976 L592.19,328 L595.646,328 L595.646,313.6 C595.646,307.312 591.854,304.096 586.526,304.096 Z M584.798,325.456 C582.206,325.456 579.95,324.256 579.95,321.76 C579.95,319.552 581.726,318.448 584.99,318.448 L591.95,318.448 L591.95,319.024 C591.95,322.672 588.638,325.456 584.798,325.456 Z M614.498,304.096 C610.802,304.096 607.49,305.68 605.666,308.368 L605.666,304.624 L602.21,304.624 L602.21,336.64 L605.906,336.64 L605.906,324.592 C607.778,327.088 611.042,328.528 614.498,328.528 C621.17,328.528 626.066,323.2 626.066,316.288 C626.066,309.424 621.218,304.096 614.498,304.096 Z M613.97,325.12 C609.89,325.12 605.858,322.432 605.858,316.288 C605.858,310.144 609.938,307.504 613.97,307.504 C618.77,307.504 622.274,311.248 622.274,316.336 C622.274,321.424 618.722,325.12 613.97,325.12 Z M643.574,304.096 C639.878,304.096 636.566,305.68 634.742,308.368 L634.742,304.624 L631.286,304.624 L631.286,336.64 L634.982,336.64 L634.982,324.592 C636.854,327.088 640.118,328.528 643.574,328.528 C650.246,328.528 655.142,323.2 655.142,316.288 C655.142,309.424 650.294,304.096 643.574,304.096 Z M643.046,325.12 C638.966,325.12 634.934,322.432 634.934,316.288 C634.934,310.144 639.014,307.504 643.046,307.504 C647.846,307.504 651.35,311.248 651.35,316.336 C651.35,321.424 647.798,325.12 643.046,325.12 Z M682.19,325.168 C679.262,325.168 677.246,324.208 677.246,320.704 L677.246,307.936 L684.542,307.936 L684.542,304.624 L677.246,304.624 L677.246,298.24 L673.55,298.24 L673.55,304.624 L669.614,304.624 L669.614,307.936 L673.55,307.936 L673.55,320.944 C673.55,326.272 676.814,328.528 681.422,328.528 C682.91,328.528 684.11,328.288 685.31,328 L685.31,324.88 C684.11,325.072 683.102,325.168 682.19,325.168 Z M699.65,304.096 C692.786,304.096 687.41,309.424 687.41,316.288 C687.41,323.152 692.834,328.432 699.602,328.48 C706.418,328.48 711.89,323.104 711.89,316.288 C711.89,309.424 706.418,304.096 699.65,304.096 Z M699.65,307.504 C704.45,307.504 708.098,311.296 708.098,316.336 C708.098,321.232 704.45,325.072 699.602,325.072 C694.754,325.072 691.202,321.28 691.202,316.336 C691.154,311.344 694.754,307.504 699.65,307.504 Z M741.578,304.096 C738.026,304.096 734.81,305.632 732.986,308.08 L732.986,292 L729.29,292 L729.29,328 L732.746,328 L732.746,324.256 C734.57,326.944 737.978,328.528 741.626,328.528 C748.298,328.528 753.146,323.2 753.146,316.336 C753.146,309.424 748.25,304.096 741.578,304.096 Z M741.05,325.12 C737.018,325.12 732.938,322.48 732.938,316.336 C732.938,310.192 736.97,307.504 741.05,307.504 C745.802,307.504 749.354,311.2 749.354,316.288 C749.354,321.376 745.85,325.12 741.05,325.12 Z M779.294,314.656 C779.294,308.416 774.638,304.096 768.638,304.096 C761.918,304.096 756.686,309.52 756.686,316.336 C756.686,323.2 762.014,328.528 769.07,328.528 C772.91,328.528 776.078,326.944 778.43,324.448 L776.27,321.952 C774.35,323.872 772.046,325.12 769.118,325.12 C764.51,325.12 761.054,322.096 760.574,317.44 L779.006,317.44 L779.072816,317.104384 C779.17112,316.56064 779.294,315.6544 779.294,314.656 Z M768.542,307.456 C772.286,307.456 775.454,309.856 775.502,314.176 L760.718,314.176 C761.486,310.144 764.606,307.456 768.542,307.456 Z M807.254,304.096 C800.438,304.096 795.014,309.472 795.014,316.288 C795.014,323.152 800.438,328.528 807.254,328.528 C811.43,328.528 814.79,326.512 816.854,323.44 L814.214,321.376 C812.486,323.68 810.278,325.12 807.302,325.12 C802.406,325.12 798.806,321.232 798.806,316.288 C798.806,311.392 802.406,307.504 807.302,307.504 C810.326,307.504 812.534,308.992 814.262,311.296 L816.902,309.184 C814.838,306.112 811.478,304.096 807.254,304.096 Z M831.962,304.096 C825.098,304.096 819.722,309.424 819.722,316.288 C819.722,323.152 825.146,328.432 831.914,328.48 C838.73,328.48 844.202,323.104 844.202,316.288 C844.202,309.424 838.73,304.096 831.962,304.096 Z M831.962,307.504 C836.762,307.504 840.41,311.296 840.41,316.336 C840.41,321.232 836.762,325.072 831.914,325.072 C827.066,325.072 823.514,321.28 823.514,316.336 C823.466,311.344 827.066,307.504 831.962,307.504 Z M860.126,304.096 C857.102,304.096 854.654,305.296 853.118,307.264 L853.118,292 L849.422,292 L849.422,328 L853.118,328 L853.118,313.792 C853.118,310.144 855.662,307.504 859.262,307.504 C862.862,307.504 865.07,310.096 865.07,313.792 L865.07,328 L868.766,328 L868.766,313.312 C868.766,307.888 865.598,304.096 860.126,304.096 Z M896.258,314.656 C896.258,308.416 891.602,304.096 885.602,304.096 C878.882,304.096 873.65,309.52 873.65,316.336 C873.65,323.2 878.978,328.528 886.034,328.528 C889.874,328.528 893.042,326.944 895.394,324.448 L893.234,321.952 C891.314,323.872 889.01,325.12 886.082,325.12 C881.474,325.12 878.018,322.096 877.538,317.44 L895.97,317.44 L896.036816,317.104384 C896.13512,316.56064 896.258,315.6544 896.258,314.656 Z M885.506,307.456 C889.25,307.456 892.418,309.856 892.466,314.176 L877.682,314.176 C878.45,310.144 881.57,307.456 885.506,307.456 Z M908.534,304.096 C904.262,304.096 900.662,306.4 900.662,310.624 C900.662,313.893189 902.797702,315.526522 906.184859,316.983005 L908.726,318.064 L909.434676,318.357361 C911.417025,319.196252 912.806,320.000552 912.806,321.808 C912.806,323.92 910.79,325.12 908.342,325.12 C905.51,325.12 903.542,323.536 901.622,321.52 L899.27,323.968 C901.142,326.464 904.262,328.528 908.39,328.528 C912.71,328.528 916.598,326.224 916.598,321.664 C916.598,318.439158 914.732216,316.62503 910.734792,314.892336 L908.246,313.84 L907.711808,313.61772 C905.488694,312.670122 904.454,311.902857 904.454,310.432 C904.454,308.512 906.134,307.504 908.342,307.504 C910.55,307.504 912.566,308.512 914.102,310.096 L916.358,307.792 C914.534,305.536 911.894,304.096 908.534,304.096 Z M923.882,293.008 C922.298,293.008 921.098,294.208 921.098,295.696 C921.098,297.232 922.298,298.384 923.882,298.384 C925.37,298.384 926.618,297.232 926.618,295.696 C926.618,294.208 925.37,293.008 923.882,293.008 Z M925.706,304.624 L922.01,304.624 L922.01,328 L925.706,328 L925.706,304.624 Z M949.166,304.624 L941.438,322.24 L933.662,304.624 L929.726,304.624 L940.766,328.528 L942.11,328.528 L953.102,304.624 L949.166,304.624 Z M977.138,314.656 C977.138,308.416 972.482,304.096 966.482,304.096 C959.762,304.096 954.53,309.52 954.53,316.336 C954.53,323.2 959.858,328.528 966.914,328.528 C970.754,328.528 973.922,326.944 976.274,324.448 L974.114,321.952 C972.194,323.872 969.89,325.12 966.962,325.12 C962.354,325.12 958.898,322.096 958.418,317.44 L976.85,317.44 L976.916816,317.104384 C977.01512,316.56064 977.138,315.6544 977.138,314.656 Z M966.386,307.456 C970.13,307.456 973.298,309.856 973.346,314.176 L958.562,314.176 C959.33,310.144 962.45,307.456 966.386,307.456 Z M1024.634,304.624 L1018.01,321.808 L1010.138,304.096 L1008.746,304.096 L1000.922,321.904 L994.202,304.624 L990.266,304.624 L1000.202,328.528 L1001.498,328.528 L1009.418,310.864 L1017.386,328.528 L1018.73,328.528 L1028.57,304.624 L1024.634,304.624 Z M1034.558,293.008 C1032.974,293.008 1031.774,294.208 1031.774,295.696 C1031.774,297.232 1032.974,298.384 1034.558,298.384 C1036.046,298.384 1037.294,297.232 1037.294,295.696 C1037.294,294.208 1036.046,293.008 1034.558,293.008 Z M1036.382,304.624 L1032.686,304.624 L1032.686,328 L1036.382,328 L1036.382,304.624 Z M1052.882,325.168 C1049.954,325.168 1047.938,324.208 1047.938,320.704 L1047.938,307.936 L1055.234,307.936 L1055.234,304.624 L1047.938,304.624 L1047.938,298.24 L1044.242,298.24 L1044.242,304.624 L1040.306,304.624 L1040.306,307.936 L1044.242,307.936 L1044.242,320.944 C1044.242,326.272 1047.506,328.528 1052.114,328.528 C1053.602,328.528 1054.802,328.288 1056.002,328 L1056.002,324.88 C1054.802,325.072 1053.794,325.168 1052.882,325.168 Z M1070.966,304.096 C1067.942,304.096 1065.494,305.296 1063.958,307.264 L1063.958,292 L1060.262,292 L1060.262,328 L1063.958,328 L1063.958,313.792 C1063.958,310.144 1066.502,307.504 1070.102,307.504 C1073.702,307.504 1075.91,310.096 1075.91,313.792 L1075.91,328 L1079.606,328 L1079.606,313.312 C1079.606,307.888 1076.438,304.096 1070.966,304.096 Z M1107.998,325.168 C1105.07,325.168 1103.054,324.208 1103.054,320.704 L1103.054,307.936 L1110.35,307.936 L1110.35,304.624 L1103.054,304.624 L1103.054,298.24 L1099.358,298.24 L1099.358,304.624 L1095.422,304.624 L1095.422,307.936 L1099.358,307.936 L1099.358,320.944 C1099.358,326.272 1102.622,328.528 1107.23,328.528 C1108.718,328.528 1109.918,328.288 1111.118,328 L1111.118,324.88 C1109.918,325.072 1108.91,325.168 1107.998,325.168 Z M1126.082,304.096 C1123.058,304.096 1120.61,305.296 1119.074,307.264 L1119.074,292 L1115.378,292 L1115.378,328 L1119.074,328 L1119.074,313.792 C1119.074,310.144 1121.618,307.504 1125.218,307.504 C1128.818,307.504 1131.026,310.096 1131.026,313.792 L1131.026,328 L1134.722,328 L1134.722,313.312 C1134.722,307.888 1131.554,304.096 1126.082,304.096 Z M1162.214,314.656 C1162.214,308.416 1157.558,304.096 1151.558,304.096 C1144.838,304.096 1139.606,309.52 1139.606,316.336 C1139.606,323.2 1144.934,328.528 1151.99,328.528 C1155.83,328.528 1158.998,326.944 1161.35,324.448 L1159.19,321.952 C1157.27,323.872 1154.966,325.12 1152.038,325.12 C1147.43,325.12 1143.974,322.096 1143.494,317.44 L1161.926,317.44 L1161.99282,317.104384 C1162.09112,316.56064 1162.214,315.6544 1162.214,314.656 Z M1151.462,307.456 C1155.206,307.456 1158.374,309.856 1158.422,314.176 L1143.638,314.176 C1144.406,310.144 1147.526,307.456 1151.462,307.456 Z M288.962,361.624 L281.234,379.24 L273.458,361.624 L269.522,361.624 L280.562,385.528 L281.906,385.528 L292.898,361.624 L288.962,361.624 Z M298.838,350.008 C297.254,350.008 296.054,351.208 296.054,352.696 C296.054,354.232 297.254,355.384 298.838,355.384 C300.326,355.384 301.574,354.232 301.574,352.696 C301.574,351.208 300.326,350.008 298.838,350.008 Z M300.662,361.624 L296.966,361.624 L296.966,385 L300.662,385 L300.662,361.624 Z M314.57,361.096 C310.298,361.096 306.698,363.4 306.698,367.624 C306.698,370.893189 308.833702,372.526522 312.220859,373.983005 L314.762,375.064 L315.470675,375.357361 C317.453025,376.196252 318.842,377.000552 318.842,378.808 C318.842,380.92 316.826,382.12 314.378,382.12 C311.546,382.12 309.578,380.536 307.658,378.52 L305.306,380.968 C307.178,383.464 310.298,385.528 314.426,385.528 C318.746,385.528 322.634,383.224 322.634,378.664 C322.634,375.439158 320.768216,373.62503 316.770792,371.892336 L314.282,370.84 L313.747807,370.61772 C311.524694,369.670122 310.49,368.902857 310.49,367.432 C310.49,365.512 312.17,364.504 314.378,364.504 C316.586,364.504 318.602,365.512 320.138,367.096 L322.394,364.792 C320.57,362.536 317.93,361.096 314.57,361.096 Z M347.102,361.624 L343.406,361.624 L343.406,375.928 C343.406,379.768 340.718,382.12 337.454,382.12 C334.094,382.12 331.406,379.768 331.406,375.928 L331.406,361.624 L327.758,361.624 L327.758,375.688 C327.758,381.688 331.982,385.528 337.454,385.528 C342.83,385.528 347.102,381.688 347.102,375.688 L347.102,361.624 Z M362.066,361.096 C358.322,361.096 354.77,362.68 352.562,366.232 L355.01,368.248 C356.834,365.896 358.898,364.504 361.826,364.504 C365.282,364.504 367.49,366.472 367.49,370.408 L367.49,372.424 L360.098,372.424 C355.01,372.424 351.698,375.016 351.698,378.952 C351.698,383.032 355.154,385.528 359.858,385.528 C363.314,385.528 366.05,384.232 367.73,381.976 L367.73,385 L371.186,385 L371.186,370.6 C371.186,364.312 367.394,361.096 362.066,361.096 Z M360.338,382.456 C357.746,382.456 355.49,381.256 355.49,378.76 C355.49,376.552 357.266,375.448 360.53,375.448 L367.49,375.448 L367.49,376.024 C367.49,379.672 364.178,382.456 360.338,382.456 Z M381.446,349 L377.75,349 L377.75,385 L381.446,385 L381.446,349 Z M412.766,361.096 C409.214,361.096 405.998,362.632 404.174,365.08 L404.174,349 L400.478,349 L400.478,385 L403.934,385 L403.934,381.256 C405.758,383.944 409.166,385.528 412.814,385.528 C419.486,385.528 424.334,380.2 424.334,373.336 C424.334,366.424 419.438,361.096 412.766,361.096 Z M412.238,382.12 C408.206,382.12 404.126,379.48 404.126,373.336 C404.126,367.192 408.158,364.504 412.238,364.504 C416.99,364.504 420.542,368.2 420.542,373.288 C420.542,378.376 417.038,382.12 412.238,382.12 Z M440.258,361.432 C437.474,361.432 434.738,362.68 433.01,364.984 L433.01,361.624 L429.554,361.624 L429.554,385 L433.25,385 L433.25,371.752 C433.25,367.288 436.802,364.888 440.594,364.888 L441.986,364.888 L441.986,361.624 L441.662839,361.561053 C441.278444,361.490074 440.855333,361.432 440.258,361.432 Z M453.59,361.096 C449.846,361.096 446.294,362.68 444.086,366.232 L446.534,368.248 C448.358,365.896 450.422,364.504 453.35,364.504 C456.806,364.504 459.014,366.472 459.014,370.408 L459.014,372.424 L451.622,372.424 C446.534,372.424 443.222,375.016 443.222,378.952 C443.222,383.032 446.678,385.528 451.382,385.528 C454.838,385.528 457.574,384.232 459.254,381.976 L459.254,385 L462.71,385 L462.71,370.6 C462.71,364.312 458.918,361.096 453.59,361.096 Z M451.862,382.456 C449.27,382.456 447.014,381.256 447.014,378.76 C447.014,376.552 448.79,375.448 452.054,375.448 L459.014,375.448 L459.014,376.024 C459.014,379.672 455.702,382.456 451.862,382.456 Z M479.93,361.096 C476.906,361.096 474.362,362.248 472.73,364.168 L472.73,361.624 L469.274,361.624 L469.274,385 L472.97,385 L472.97,370.744 C472.97,367.096 475.514,364.504 479.114,364.504 C482.714,364.504 484.922,367.048 484.922,370.744 L484.922,385 L488.618,385 L488.618,370.312 C488.618,364.888 485.45,361.096 479.93,361.096 Z M513.71,349 L513.71,365.08 C511.838,362.584 508.622,361.096 505.07,361.096 C498.398,361.096 493.502,366.424 493.502,373.336 C493.502,380.2 498.398,385.528 505.07,385.528 C508.766,385.528 512.078,383.944 513.902,381.256 L513.902,385 L517.406,385 L517.406,349 L513.71,349 Z M505.598,382.12 C500.798,382.12 497.294,378.376 497.294,373.288 C497.294,368.2 500.846,364.504 505.598,364.504 C509.63,364.504 513.758,367.192 513.758,373.336 C513.758,379.48 509.63,382.12 505.598,382.12 Z M546.998,361.096 C540.134,361.096 534.758,366.424 534.758,373.288 C534.758,380.152 540.182,385.432 546.95,385.48 C553.766,385.48 559.238,380.104 559.238,373.288 C559.238,366.424 553.766,361.096 546.998,361.096 Z M546.998,364.504 C551.798,364.504 555.446,368.296 555.446,373.336 C555.446,378.232 551.798,382.072 546.95,382.072 C542.102,382.072 538.55,378.28 538.55,373.336 C538.502,368.344 542.102,364.504 546.998,364.504 Z M573.626,351.832 C574.25,351.832 574.922,351.88 575.69,351.976 L575.69,348.856 C574.826,348.616 573.914,348.472 572.762,348.472 C568.25,348.472 565.034,350.728 565.034,356.056 L565.034,361.624 L561.674,361.624 L561.674,364.936 L565.034,364.936 L565.034,385 L568.73,385 L568.73,364.936 L574.586,364.936 L574.586,361.624 L568.73,361.624 L568.73,356.296 C568.73,352.792 570.746,351.832 573.626,351.832 Z M599.042,361.096 C592.178,361.096 586.802,366.424 586.802,373.288 C586.802,380.152 592.226,385.432 598.994,385.48 C605.81,385.48 611.282,380.104 611.282,373.288 C611.282,366.424 605.81,361.096 599.042,361.096 Z M599.042,364.504 C603.842,364.504 607.49,368.296 607.49,373.336 C607.49,378.232 603.842,382.072 598.994,382.072 C594.146,382.072 590.594,378.28 590.594,373.336 C590.546,368.344 594.146,364.504 599.042,364.504 Z M627.158,361.096 C624.134,361.096 621.59,362.248 619.958,364.168 L619.958,361.624 L616.502,361.624 L616.502,385 L620.198,385 L620.198,370.744 C620.198,367.096 622.742,364.504 626.342,364.504 C629.942,364.504 632.15,367.048 632.15,370.744 L632.15,385 L635.846,385 L635.846,370.312 C635.846,364.888 632.678,361.096 627.158,361.096 Z M663.338,371.656 C663.338,365.416 658.682,361.096 652.682,361.096 C645.962,361.096 640.73,366.52 640.73,373.336 C640.73,380.2 646.058,385.528 653.114,385.528 C656.954,385.528 660.122,383.944 662.474,381.448 L660.314,378.952 C658.394,380.872 656.09,382.12 653.162,382.12 C648.554,382.12 645.098,379.096 644.618,374.44 L663.05,374.44 L663.092837,374.232612 C663.193787,373.71104 663.338,372.7376 663.338,371.656 Z M652.586,364.456 C656.33,364.456 659.498,366.856 659.546,371.176 L644.762,371.176 C645.53,367.144 648.65,364.456 652.586,364.456 Z M691.298,361.096 C684.434,361.096 679.058,366.424 679.058,373.288 C679.058,380.152 684.482,385.432 691.25,385.48 C698.066,385.48 703.538,380.104 703.538,373.288 C703.538,366.424 698.066,361.096 691.298,361.096 Z M691.298,364.504 C696.098,364.504 699.746,368.296 699.746,373.336 C699.746,378.232 696.098,382.072 691.25,382.072 C686.402,382.072 682.85,378.28 682.85,373.336 C682.802,368.344 686.402,364.504 691.298,364.504 Z M717.926,351.832 C718.55,351.832 719.222,351.88 719.99,351.976 L719.99,348.856 C719.126,348.616 718.214,348.472 717.062,348.472 C712.55,348.472 709.334,350.728 709.334,356.056 L709.334,361.624 L705.974,361.624 L705.974,364.936 L709.334,364.936 L709.334,385 L713.03,385 L713.03,364.936 L718.886,364.936 L718.886,361.624 L713.03,361.624 L713.03,356.296 C713.03,352.792 715.046,351.832 717.926,351.832 Z M742.43,382.168 C739.502,382.168 737.486,381.208 737.486,377.704 L737.486,364.936 L744.782,364.936 L744.782,361.624 L737.486,361.624 L737.486,355.24 L733.79,355.24 L733.79,361.624 L729.854,361.624 L729.854,364.936 L733.79,364.936 L733.79,377.944 C733.79,383.272 737.054,385.528 741.662,385.528 C743.15,385.528 744.35,385.288 745.55,385 L745.55,381.88 C744.35,382.072 743.342,382.168 742.43,382.168 Z M760.514,361.096 C757.49,361.096 755.042,362.296 753.506,364.264 L753.506,349 L749.81,349 L749.81,385 L753.506,385 L753.506,370.792 C753.506,367.144 756.05,364.504 759.65,364.504 C763.25,364.504 765.458,367.096 765.458,370.792 L765.458,385 L769.154,385 L769.154,370.312 C769.154,364.888 765.986,361.096 760.514,361.096 Z M796.646,371.656 C796.646,365.416 791.99,361.096 785.99,361.096 C779.27,361.096 774.038,366.52 774.038,373.336 C774.038,380.2 779.366,385.528 786.422,385.528 C790.262,385.528 793.43,383.944 795.782,381.448 L793.622,378.952 C791.702,380.872 789.398,382.12 786.47,382.12 C781.862,382.12 778.406,379.096 777.926,374.44 L796.358,374.44 L796.424816,374.104384 C796.52312,373.56064 796.646,372.6544 796.646,371.656 Z M785.894,364.456 C789.638,364.456 792.806,366.856 792.854,371.176 L778.07,371.176 C778.838,367.144 781.958,364.456 785.894,364.456 Z M803.738,350.008 C802.154,350.008 800.954,351.208 800.954,352.696 C800.954,354.232 802.154,355.384 803.738,355.384 C805.226,355.384 806.474,354.232 806.474,352.696 C806.474,351.208 805.226,350.008 803.738,350.008 Z M805.562,361.624 L801.866,361.624 L801.866,385 L805.562,385 L805.562,361.624 Z M823.118,361.432 C820.334,361.432 817.598,362.68 815.87,364.984 L815.87,361.624 L812.414,361.624 L812.414,385 L816.11,385 L816.11,371.752 C816.11,367.288 819.662,364.888 823.454,364.888 L824.846,364.888 L824.846,361.624 L824.52284,361.561053 C824.138444,361.490074 823.715333,361.432 823.118,361.432 Z M851.27,361.096 C844.454,361.096 839.03,366.472 839.03,373.288 C839.03,380.152 844.454,385.528 851.27,385.528 C855.446,385.528 858.806,383.512 860.87,380.44 L858.23,378.376 C856.502,380.68 854.294,382.12 851.318,382.12 C846.422,382.12 842.822,378.232 842.822,373.288 C842.822,368.392 846.422,364.504 851.318,364.504 C854.342,364.504 856.55,365.992 858.278,368.296 L860.918,366.184 C858.854,363.112 855.494,361.096 851.27,361.096 Z M869.594,349 L865.898,349 L865.898,385 L869.594,385 L869.594,349 Z M878.318,350.008 C876.734,350.008 875.534,351.208 875.534,352.696 C875.534,354.232 876.734,355.384 878.318,355.384 C879.806,355.384 881.054,354.232 881.054,352.696 C881.054,351.208 879.806,350.008 878.318,350.008 Z M880.142,361.624 L876.446,361.624 L876.446,385 L880.142,385 L880.142,361.624 Z M907.922,371.656 C907.922,365.416 903.266,361.096 897.266,361.096 C890.546,361.096 885.314,366.52 885.314,373.336 C885.314,380.2 890.642,385.528 897.698,385.528 C901.538,385.528 904.706,383.944 907.058,381.448 L904.898,378.952 C902.978,380.872 900.674,382.12 897.746,382.12 C893.138,382.12 889.682,379.096 889.202,374.44 L907.634,374.44 L907.700816,374.104384 C907.79912,373.56064 907.922,372.6544 907.922,371.656 Z M897.17,364.456 C900.914,364.456 904.082,366.856 904.13,371.176 L889.346,371.176 C890.114,367.144 893.234,364.456 897.17,364.456 Z M923.798,361.096 C920.774,361.096 918.23,362.248 916.598,364.168 L916.598,361.624 L913.142,361.624 L913.142,385 L916.838,385 L916.838,370.744 C916.838,367.096 919.382,364.504 922.982,364.504 C926.582,364.504 928.79,367.048 928.79,370.744 L928.79,385 L932.486,385 L932.486,370.312 C932.486,364.888 929.318,361.096 923.798,361.096 Z M948.698,382.168 C945.77,382.168 943.754,381.208 943.754,377.704 L943.754,364.936 L951.05,364.936 L951.05,361.624 L943.754,361.624 L943.754,355.24 L940.058,355.24 L940.058,361.624 L936.122,361.624 L936.122,364.936 L940.058,364.936 L940.058,377.944 C940.058,383.272 943.322,385.528 947.93,385.528 C949.418,385.528 950.618,385.288 951.818,385 L951.818,381.88 C950.618,382.072 949.61,382.168 948.698,382.168 Z M963.134,361.096 C958.862,361.096 955.262,363.4 955.262,367.624 C955.262,370.893189 957.397702,372.526522 960.784859,373.983005 L963.326,375.064 L964.034676,375.357361 C966.017025,376.196252 967.406,377.000552 967.406,378.808 C967.406,380.92 965.39,382.12 962.942,382.12 C960.11,382.12 958.142,380.536 956.222,378.52 L953.87,380.968 C955.742,383.464 958.862,385.528 962.99,385.528 C967.31,385.528 971.198,383.224 971.198,378.664 C971.198,375.439158 969.332216,373.62503 965.334792,371.892336 L962.846,370.84 L962.311808,370.61772 C960.088694,369.670122 959.054,368.902857 959.054,367.432 C959.054,365.512 960.734,364.504 962.942,364.504 C965.15,364.504 967.166,365.512 968.702,367.096 L970.958,364.792 C969.134,362.536 966.494,361.096 963.134,361.096 Z M981.602,380.68 L977.234,380.68 L976.61,393.592 L979.634,393.592 L981.602,380.68 Z M1020.218,353.32 L1009.946,378.088 L999.626,353.32 L995.498,353.32 L1009.226,385.528 L1010.618,385.528 L1024.346,353.32 L1020.218,353.32 Z M1036.142,361.096 C1029.278,361.096 1023.902,366.424 1023.902,373.288 C1023.902,380.152 1029.326,385.432 1036.094,385.48 C1042.91,385.48 1048.382,380.104 1048.382,373.288 C1048.382,366.424 1042.91,361.096 1036.142,361.096 Z M1036.142,364.504 C1040.942,364.504 1044.59,368.296 1044.59,373.336 C1044.59,378.232 1040.942,382.072 1036.094,382.072 C1031.246,382.072 1027.694,378.28 1027.694,373.336 C1027.646,368.344 1031.246,364.504 1036.142,364.504 Z M1064.306,361.432 C1061.522,361.432 1058.786,362.68 1057.058,364.984 L1057.058,361.624 L1053.602,361.624 L1053.602,385 L1057.298,385 L1057.298,371.752 C1057.298,367.288 1060.85,364.888 1064.642,364.888 L1066.034,364.888 L1066.034,361.624 L1065.71084,361.561053 C1065.32644,361.490074 1064.90333,361.432 1064.306,361.432 Z M1080.374,361.096 C1077.35,361.096 1074.806,362.248 1073.174,364.168 L1073.174,361.624 L1069.718,361.624 L1069.718,385 L1073.414,385 L1073.414,370.744 C1073.414,367.096 1075.958,364.504 1079.558,364.504 C1083.158,364.504 1085.366,367.048 1085.366,370.744 L1085.366,385 L1089.062,385 L1089.062,370.312 C1089.062,364.888 1085.894,361.096 1080.374,361.096 Z M1104.026,361.096 C1100.282,361.096 1096.73,362.68 1094.522,366.232 L1096.97,368.248 C1098.794,365.896 1100.858,364.504 1103.786,364.504 C1107.242,364.504 1109.45,366.472 1109.45,370.408 L1109.45,372.424 L1102.058,372.424 C1096.97,372.424 1093.658,375.016 1093.658,378.952 C1093.658,383.032 1097.114,385.528 1101.818,385.528 C1105.274,385.528 1108.01,384.232 1109.69,381.976 L1109.69,385 L1113.146,385 L1113.146,370.6 C1113.146,364.312 1109.354,361.096 1104.026,361.096 Z M1102.298,382.456 C1099.706,382.456 1097.45,381.256 1097.45,378.76 C1097.45,376.552 1099.226,375.448 1102.49,375.448 L1109.45,375.448 L1109.45,376.024 C1109.45,379.672 1106.138,382.456 1102.298,382.456 Z M1138.238,349 L1138.238,365.08 C1136.366,362.584 1133.15,361.096 1129.598,361.096 C1122.926,361.096 1118.03,366.424 1118.03,373.336 C1118.03,380.2 1122.926,385.528 1129.598,385.528 C1133.294,385.528 1136.606,383.944 1138.43,381.256 L1138.43,385 L1141.934,385 L1141.934,349 L1138.238,349 Z M1130.126,382.12 C1125.326,382.12 1121.822,378.376 1121.822,373.288 C1121.822,368.2 1125.374,364.504 1130.126,364.504 C1134.158,364.504 1138.286,367.192 1138.286,373.336 C1138.286,379.48 1134.158,382.12 1130.126,382.12 Z M1159.346,361.096 C1152.482,361.096 1147.106,366.424 1147.106,373.288 C1147.106,380.152 1152.53,385.432 1159.298,385.48 C1166.114,385.48 1171.586,380.104 1171.586,373.288 C1171.586,366.424 1166.114,361.096 1159.346,361.096 Z M1159.346,364.504 C1164.146,364.504 1167.794,368.296 1167.794,373.336 C1167.794,378.232 1164.146,382.072 1159.298,382.072 C1154.45,382.072 1150.898,378.28 1150.898,373.336 C1150.85,368.344 1154.45,364.504 1159.346,364.504 Z M363.638,442 L353.558,428.272 C357.686,427.072 360.182,423.76 360.182,419.488 C360.182,414.16 356.294,410.32 350.054,410.32 L338.918,410.32 L338.918,442 L342.662,442 L342.662,428.704 L349.43,428.704 L359.27,442 L363.638,442 Z M342.662,413.68 L349.91,413.68 C354.086,413.68 356.294,416.176 356.294,419.536 C356.294,422.944 354.086,425.344 349.91,425.344 L342.662,425.344 L342.662,413.68 Z M387.434,428.656 C387.434,422.416 382.778,418.096 376.778,418.096 C370.058,418.096 364.826,423.52 364.826,430.336 C364.826,437.2 370.154,442.528 377.21,442.528 C381.05,442.528 384.218,440.944 386.57,438.448 L384.41,435.952 C382.49,437.872 380.186,439.12 377.258,439.12 C372.65,439.12 369.194,436.096 368.714,431.44 L387.146,431.44 L387.188837,431.232612 C387.289786,430.71104 387.434,429.7376 387.434,428.656 Z M376.682,421.456 C380.426,421.456 383.594,423.856 383.642,428.176 L368.858,428.176 C369.626,424.144 372.746,421.456 376.682,421.456 Z M401.054,418.096 C397.31,418.096 393.758,419.68 391.55,423.232 L393.998,425.248 C395.822,422.896 397.886,421.504 400.814,421.504 C404.27,421.504 406.478,423.472 406.478,427.408 L406.478,429.424 L399.086,429.424 C393.998,429.424 390.686,432.016 390.686,435.952 C390.686,440.032 394.142,442.528 398.846,442.528 C402.302,442.528 405.038,441.232 406.718,438.976 L406.718,442 L410.174,442 L410.174,427.6 C410.174,421.312 406.382,418.096 401.054,418.096 Z M399.326,439.456 C396.734,439.456 394.478,438.256 394.478,435.76 C394.478,433.552 396.254,432.448 399.518,432.448 L406.478,432.448 L406.478,433.024 C406.478,436.672 403.166,439.456 399.326,439.456 Z M420.434,406 L416.738,406 L416.738,442 L420.434,442 L420.434,406 Z M436.934,439.168 C434.006,439.168 431.99,438.208 431.99,434.704 L431.99,421.936 L439.286,421.936 L439.286,418.624 L431.99,418.624 L431.99,412.24 L428.294,412.24 L428.294,418.624 L424.358,418.624 L424.358,421.936 L428.294,421.936 L428.294,434.944 C428.294,440.272 431.558,442.528 436.166,442.528 C437.654,442.528 438.854,442.288 440.054,442 L440.054,438.88 C438.854,439.072 437.846,439.168 436.934,439.168 Z M460.922,418.624 L453.194,437.248 L445.466,418.624 L441.482,418.624 L451.178,441.232 L449.93,444.064 C448.634,447.04 446.906,447.808 444.65,447.808 C443.834,447.808 442.922,447.712 441.818,447.568 L441.818,450.688 C442.922,450.976 444.266,451.168 445.418,451.168 C448.97,451.168 451.514,449.44 453.338,445.264 L464.858,418.624 L460.922,418.624 Z M501.602,410.32 L475.538,410.32 L475.538,413.68 L486.674,413.68 L486.674,442 L490.418,442 L490.418,413.68 L501.602,413.68 L501.602,410.32 Z M513.11,418.432 C510.326,418.432 507.59,419.68 505.862,421.984 L505.862,418.624 L502.406,418.624 L502.406,442 L506.102,442 L506.102,428.752 C506.102,424.288 509.654,421.888 513.446,421.888 L514.838,421.888 L514.838,418.624 L514.514839,418.561053 C514.130444,418.490074 513.707333,418.432 513.11,418.432 Z M537.578,418.624 L533.882,418.624 L533.882,432.928 C533.882,436.768 531.194,439.12 527.93,439.12 C524.57,439.12 521.882,436.768 521.882,432.928 L521.882,418.624 L518.234,418.624 L518.234,432.688 C518.234,438.688 522.458,442.528 527.93,442.528 C533.306,442.528 537.578,438.688 537.578,432.688 L537.578,418.624 Z M551.198,418.096 C546.926,418.096 543.326,420.4 543.326,424.624 C543.326,427.893189 545.461702,429.526522 548.848859,430.983005 L551.39,432.064 L552.098675,432.357361 C554.081025,433.196252 555.47,434.000552 555.47,435.808 C555.47,437.92 553.454,439.12 551.006,439.12 C548.174,439.12 546.206,437.536 544.286,435.52 L541.934,437.968 C543.806,440.464 546.926,442.528 551.054,442.528 C555.374,442.528 559.262,440.224 559.262,435.664 C559.262,432.439158 557.396216,430.62503 553.398792,428.892336 L550.91,427.84 L550.375807,427.61772 C548.152694,426.670122 547.118,425.902857 547.118,424.432 C547.118,422.512 548.798,421.504 551.006,421.504 C553.214,421.504 555.23,422.512 556.766,424.096 L559.022,421.792 C557.198,419.536 554.558,418.096 551.198,418.096 Z M574.322,439.168 C571.394,439.168 569.378,438.208 569.378,434.704 L569.378,421.936 L576.674,421.936 L576.674,418.624 L569.378,418.624 L569.378,412.24 L565.682,412.24 L565.682,418.624 L561.746,418.624 L561.746,421.936 L565.682,421.936 L565.682,434.944 C565.682,440.272 568.946,442.528 573.554,442.528 C575.042,442.528 576.242,442.288 577.442,442 L577.442,438.88 C576.242,439.072 575.234,439.168 574.322,439.168 Z M586.694,437.68 L582.326,437.68 L581.702,450.592 L584.726,450.592 L586.694,437.68 Z M613.982,418.096 C610.238,418.096 606.686,419.68 604.478,423.232 L606.926,425.248 C608.75,422.896 610.814,421.504 613.742,421.504 C617.198,421.504 619.406,423.472 619.406,427.408 L619.406,429.424 L612.014,429.424 C606.926,429.424 603.614,432.016 603.614,435.952 C603.614,440.032 607.07,442.528 611.774,442.528 C615.23,442.528 617.966,441.232 619.646,438.976 L619.646,442 L623.102,442 L623.102,427.6 C623.102,421.312 619.31,418.096 613.982,418.096 Z M612.254,439.456 C609.662,439.456 607.406,438.256 607.406,435.76 C607.406,433.552 609.182,432.448 612.446,432.448 L619.406,432.448 L619.406,433.024 C619.406,436.672 616.094,439.456 612.254,439.456 Z M652.55,418.432 C649.766,418.432 647.03,419.68 645.302,421.984 L645.302,418.624 L641.846,418.624 L641.846,442 L645.542,442 L645.542,428.752 C645.542,424.288 649.094,421.888 652.886,421.888 L654.278,421.888 L654.278,418.624 L653.954839,418.561053 C653.570444,418.490074 653.147333,418.432 652.55,418.432 Z M678.41,428.656 C678.41,422.416 673.754,418.096 667.754,418.096 C661.034,418.096 655.802,423.52 655.802,430.336 C655.802,437.2 661.13,442.528 668.186,442.528 C672.026,442.528 675.194,440.944 677.546,438.448 L675.386,435.952 C673.466,437.872 671.162,439.12 668.234,439.12 C663.626,439.12 660.17,436.096 659.69,431.44 L678.122,431.44 L678.164837,431.232612 C678.265787,430.71104 678.41,429.7376 678.41,428.656 Z M667.658,421.456 C671.402,421.456 674.57,423.856 674.618,428.176 L659.834,428.176 C660.602,424.144 663.722,421.456 667.658,421.456 Z M692.03,418.096 C688.286,418.096 684.734,419.68 682.526,423.232 L684.974,425.248 C686.798,422.896 688.862,421.504 691.79,421.504 C695.246,421.504 697.454,423.472 697.454,427.408 L697.454,429.424 L690.062,429.424 C684.974,429.424 681.662,432.016 681.662,435.952 C681.662,440.032 685.118,442.528 689.822,442.528 C693.278,442.528 696.014,441.232 697.694,438.976 L697.694,442 L701.15,442 L701.15,427.6 C701.15,421.312 697.358,418.096 692.03,418.096 Z M690.302,439.456 C687.71,439.456 685.454,438.256 685.454,435.76 C685.454,433.552 687.23,432.448 690.494,432.448 L697.454,432.448 L697.454,433.024 C697.454,436.672 694.142,439.456 690.302,439.456 Z M711.41,406 L707.714,406 L707.714,442 L711.41,442 L711.41,406 Z M751.37,428.656 C751.37,422.416 746.714,418.096 740.714,418.096 C733.994,418.096 728.762,423.52 728.762,430.336 C728.762,437.2 734.09,442.528 741.146,442.528 C744.986,442.528 748.154,440.944 750.506,438.448 L748.346,435.952 C746.426,437.872 744.122,439.12 741.194,439.12 C736.586,439.12 733.13,436.096 732.65,431.44 L751.082,431.44 L751.148816,431.104384 C751.24712,430.56064 751.37,429.6544 751.37,428.656 Z M740.618,421.456 C744.362,421.456 747.53,423.856 747.578,428.176 L732.794,428.176 C733.562,424.144 736.682,421.456 740.618,421.456 Z M763.646,418.096 C759.374,418.096 755.774,420.4 755.774,424.624 C755.774,427.893189 757.909702,429.526522 761.296859,430.983005 L763.838,432.064 L764.546676,432.357361 C766.529025,433.196252 767.918,434.000552 767.918,435.808 C767.918,437.92 765.902,439.12 763.454,439.12 C760.622,439.12 758.654,437.536 756.734,435.52 L754.382,437.968 C756.254,440.464 759.374,442.528 763.502,442.528 C767.822,442.528 771.71,440.224 771.71,435.664 C771.71,432.439158 769.844216,430.62503 765.846792,428.892336 L763.358,427.84 L762.823808,427.61772 C760.600694,426.670122 759.566,425.902857 759.566,424.432 C759.566,422.512 761.246,421.504 763.454,421.504 C765.662,421.504 767.678,422.512 769.214,424.096 L771.47,421.792 C769.646,419.536 767.006,418.096 763.646,418.096 Z M786.77,439.168 C783.842,439.168 781.826,438.208 781.826,434.704 L781.826,421.936 L789.122,421.936 L789.122,418.624 L781.826,418.624 L781.826,412.24 L778.13,412.24 L778.13,418.624 L774.194,418.624 L774.194,421.936 L778.13,421.936 L778.13,434.944 C778.13,440.272 781.394,442.528 786.002,442.528 C787.49,442.528 788.69,442.288 789.89,442 L789.89,438.88 C788.69,439.072 787.682,439.168 786.77,439.168 Z M802.55,418.096 C798.806,418.096 795.254,419.68 793.046,423.232 L795.494,425.248 C797.318,422.896 799.382,421.504 802.31,421.504 C805.766,421.504 807.974,423.472 807.974,427.408 L807.974,429.424 L800.582,429.424 C795.494,429.424 792.182,432.016 792.182,435.952 C792.182,440.032 795.638,442.528 800.342,442.528 C803.798,442.528 806.534,441.232 808.214,438.976 L808.214,442 L811.67,442 L811.67,427.6 C811.67,421.312 807.878,418.096 802.55,418.096 Z M800.822,439.456 C798.23,439.456 795.974,438.256 795.974,435.76 C795.974,433.552 797.75,432.448 801.014,432.448 L807.974,432.448 L807.974,433.024 C807.974,436.672 804.662,439.456 800.822,439.456 Z M827.882,439.168 C824.954,439.168 822.938,438.208 822.938,434.704 L822.938,421.936 L830.234,421.936 L830.234,418.624 L822.938,418.624 L822.938,412.24 L819.242,412.24 L819.242,418.624 L815.306,418.624 L815.306,421.936 L819.242,421.936 L819.242,434.944 C819.242,440.272 822.506,442.528 827.114,442.528 C828.602,442.528 829.802,442.288 831.002,442 L831.002,438.88 C829.802,439.072 828.794,439.168 827.882,439.168 Z M855.71,428.656 C855.71,422.416 851.054,418.096 845.054,418.096 C838.334,418.096 833.102,423.52 833.102,430.336 C833.102,437.2 838.43,442.528 845.486,442.528 C849.326,442.528 852.494,440.944 854.846,438.448 L852.686,435.952 C850.766,437.872 848.462,439.12 845.534,439.12 C840.926,439.12 837.47,436.096 836.99,431.44 L855.422,431.44 L855.488816,431.104384 C855.58712,430.56064 855.71,429.6544 855.71,428.656 Z M844.958,421.456 C848.702,421.456 851.87,423.856 851.918,428.176 L837.134,428.176 C837.902,424.144 841.022,421.456 844.958,421.456 Z M882.758,439.168 C879.83,439.168 877.814,438.208 877.814,434.704 L877.814,421.936 L885.11,421.936 L885.11,418.624 L877.814,418.624 L877.814,412.24 L874.118,412.24 L874.118,418.624 L870.182,418.624 L870.182,421.936 L874.118,421.936 L874.118,434.944 C874.118,440.272 877.382,442.528 881.99,442.528 C883.478,442.528 884.678,442.288 885.878,442 L885.878,438.88 C884.678,439.072 883.67,439.168 882.758,439.168 Z M900.842,418.432 C898.058,418.432 895.322,419.68 893.594,421.984 L893.594,418.624 L890.138,418.624 L890.138,442 L893.834,442 L893.834,428.752 C893.834,424.288 897.386,421.888 901.178,421.888 L902.57,421.888 L902.57,418.624 L902.24684,418.561053 C901.862445,418.490074 901.439333,418.432 900.842,418.432 Z M925.31,418.624 L921.614,418.624 L921.614,432.928 C921.614,436.768 918.926,439.12 915.662,439.12 C912.302,439.12 909.614,436.768 909.614,432.928 L909.614,418.624 L905.966,418.624 L905.966,432.688 C905.966,438.688 910.19,442.528 915.662,442.528 C921.038,442.528 925.31,438.688 925.31,432.688 L925.31,418.624 Z M938.93,418.096 C934.658,418.096 931.058,420.4 931.058,424.624 C931.058,427.893189 933.193702,429.526522 936.580859,430.983005 L939.122,432.064 L939.830676,432.357361 C941.813025,433.196252 943.202,434.000552 943.202,435.808 C943.202,437.92 941.186,439.12 938.738,439.12 C935.906,439.12 933.938,437.536 932.018,435.52 L929.666,437.968 C931.538,440.464 934.658,442.528 938.786,442.528 C943.106,442.528 946.994,440.224 946.994,435.664 C946.994,432.439158 945.128216,430.62503 941.130792,428.892336 L938.642,427.84 L938.107808,427.61772 C935.884694,426.670122 934.85,425.902857 934.85,424.432 C934.85,422.512 936.53,421.504 938.738,421.504 C940.946,421.504 942.962,422.512 944.498,424.096 L946.754,421.792 C944.93,419.536 942.29,418.096 938.93,418.096 Z M962.054,439.168 C959.126,439.168 957.11,438.208 957.11,434.704 L957.11,421.936 L964.406,421.936 L964.406,418.624 L957.11,418.624 L957.11,412.24 L953.414,412.24 L953.414,418.624 L949.478,418.624 L949.478,421.936 L953.414,421.936 L953.414,434.944 C953.414,440.272 956.678,442.528 961.286,442.528 C962.774,442.528 963.974,442.288 965.174,442 L965.174,438.88 C963.974,439.072 962.966,439.168 962.054,439.168 Z M993.902,418.096 C990.35,418.096 987.134,419.632 985.31,422.08 L985.31,406 L981.614,406 L981.614,442 L985.07,442 L985.07,438.256 C986.894,440.944 990.302,442.528 993.95,442.528 C1000.622,442.528 1005.47,437.2 1005.47,430.336 C1005.47,423.424 1000.574,418.096 993.902,418.096 Z M993.374,439.12 C989.342,439.12 985.262,436.48 985.262,430.336 C985.262,424.192 989.294,421.504 993.374,421.504 C998.126,421.504 1001.678,425.2 1001.678,430.288 C1001.678,435.376 998.174,439.12 993.374,439.12 Z M1019.09,418.096 C1015.346,418.096 1011.794,419.68 1009.586,423.232 L1012.034,425.248 C1013.858,422.896 1015.922,421.504 1018.85,421.504 C1022.306,421.504 1024.514,423.472 1024.514,427.408 L1024.514,429.424 L1017.122,429.424 C1012.034,429.424 1008.722,432.016 1008.722,435.952 C1008.722,440.032 1012.178,442.528 1016.882,442.528 C1020.338,442.528 1023.074,441.232 1024.754,438.976 L1024.754,442 L1028.21,442 L1028.21,427.6 C1028.21,421.312 1024.418,418.096 1019.09,418.096 Z M1017.362,439.456 C1014.77,439.456 1012.514,438.256 1012.514,435.76 C1012.514,433.552 1014.29,432.448 1017.554,432.448 L1024.514,432.448 L1024.514,433.024 C1024.514,436.672 1021.202,439.456 1017.362,439.456 Z M1041.83,418.096 C1037.558,418.096 1033.958,420.4 1033.958,424.624 C1033.958,427.893189 1036.0937,429.526522 1039.48086,430.983005 L1042.022,432.064 L1042.73068,432.357361 C1044.71303,433.196252 1046.102,434.000552 1046.102,435.808 C1046.102,437.92 1044.086,439.12 1041.638,439.12 C1038.806,439.12 1036.838,437.536 1034.918,435.52 L1032.566,437.968 C1034.438,440.464 1037.558,442.528 1041.686,442.528 C1046.006,442.528 1049.894,440.224 1049.894,435.664 C1049.894,432.439158 1048.02822,430.62503 1044.03079,428.892336 L1041.542,427.84 L1041.00781,427.61772 C1038.78469,426.670122 1037.75,425.902857 1037.75,424.432 C1037.75,422.512 1039.43,421.504 1041.638,421.504 C1043.846,421.504 1045.862,422.512 1047.398,424.096 L1049.654,421.792 C1047.83,419.536 1045.19,418.096 1041.83,418.096 Z M1076.234,428.656 C1076.234,422.416 1071.578,418.096 1065.578,418.096 C1058.858,418.096 1053.626,423.52 1053.626,430.336 C1053.626,437.2 1058.954,442.528 1066.01,442.528 C1069.85,442.528 1073.018,440.944 1075.37,438.448 L1073.21,435.952 C1071.29,437.872 1068.986,439.12 1066.058,439.12 C1061.45,439.12 1057.994,436.096 1057.514,431.44 L1075.946,431.44 L1076.01282,431.104384 C1076.11112,430.56064 1076.234,429.6544 1076.234,428.656 Z M1065.482,421.456 C1069.226,421.456 1072.394,423.856 1072.442,428.176 L1057.658,428.176 C1058.426,424.144 1061.546,421.456 1065.482,421.456 Z M1099.982,406 L1099.982,422.08 C1098.11,419.584 1094.894,418.096 1091.342,418.096 C1084.67,418.096 1079.774,423.424 1079.774,430.336 C1079.774,437.2 1084.67,442.528 1091.342,442.528 C1095.038,442.528 1098.35,440.944 1100.174,438.256 L1100.174,442 L1103.678,442 L1103.678,406 L1099.982,406 Z M1091.87,439.12 C1087.07,439.12 1083.566,435.376 1083.566,430.288 C1083.566,425.2 1087.118,421.504 1091.87,421.504 C1095.902,421.504 1100.03,424.192 1100.03,430.336 C1100.03,436.48 1095.902,439.12 1091.87,439.12 Z M370.472,475.096 C366.776,475.096 363.464,476.68 361.64,479.368 L361.64,475.624 L358.184,475.624 L358.184,507.64 L361.88,507.64 L361.88,495.592 C363.752,498.088 367.016,499.528 370.472,499.528 C377.144,499.528 382.04,494.2 382.04,487.288 C382.04,480.424 377.192,475.096 370.472,475.096 Z M369.944,496.12 C365.864,496.12 361.832,493.432 361.832,487.288 C361.832,481.144 365.912,478.504 369.944,478.504 C374.744,478.504 378.248,482.248 378.248,487.336 C378.248,492.424 374.696,496.12 369.944,496.12 Z M397.964,475.432 C395.18,475.432 392.444,476.68 390.716,478.984 L390.716,475.624 L387.26,475.624 L387.26,499 L390.956,499 L390.956,485.752 C390.956,481.288 394.508,478.888 398.3,478.888 L399.692,478.888 L399.692,475.624 L399.368839,475.561053 C398.984444,475.490074 398.561333,475.432 397.964,475.432 Z M405.248,464.008 C403.664,464.008 402.464,465.208 402.464,466.696 C402.464,468.232 403.664,469.384 405.248,469.384 C406.736,469.384 407.984,468.232 407.984,466.696 C407.984,465.208 406.736,464.008 405.248,464.008 Z M407.072,475.624 L403.376,475.624 L403.376,499 L407.072,499 L407.072,475.624 Z M439.556,475.096 C435.956,475.096 433.172,476.776 431.54,479.128 C430.244,476.68 427.844,475.096 424.34,475.096 C421.412,475.096 419.012,476.2 417.38,478.072 L417.38,475.624 L413.924,475.624 L413.924,499 L417.62,499 L417.62,484.792 C417.62,481.096 420.02,478.504 423.572,478.504 C427.028,478.504 429.14,481.096 429.14,484.792 L429.14,499 L432.836,499 L432.836,484.456 C432.836,481.192 435.284,478.504 438.836,478.504 C442.34,478.504 444.356,481.096 444.356,484.792 L444.356,499 L448.052,499 L448.052,484.312 C448.052,478.888 445.028,475.096 439.556,475.096 Z M463.016,475.096 C459.272,475.096 455.72,476.68 453.512,480.232 L455.96,482.248 C457.784,479.896 459.848,478.504 462.776,478.504 C466.232,478.504 468.44,480.472 468.44,484.408 L468.44,486.424 L461.048,486.424 C455.96,486.424 452.648,489.016 452.648,492.952 C452.648,497.032 456.104,499.528 460.808,499.528 C464.264,499.528 467,498.232 468.68,495.976 L468.68,499 L472.136,499 L472.136,484.6 C472.136,478.312 468.344,475.096 463.016,475.096 Z M461.288,496.456 C458.696,496.456 456.44,495.256 456.44,492.76 C456.44,490.552 458.216,489.448 461.48,489.448 L468.44,489.448 L468.44,490.024 C468.44,493.672 465.128,496.456 461.288,496.456 Z M489.404,475.432 C486.62,475.432 483.884,476.68 482.156,478.984 L482.156,475.624 L478.7,475.624 L478.7,499 L482.396,499 L482.396,485.752 C482.396,481.288 485.948,478.888 489.74,478.888 L491.132,478.888 L491.132,475.624 L490.808839,475.561053 C490.424444,475.490074 490.001333,475.432 489.404,475.432 Z M496.688,464.008 C495.104,464.008 493.904,465.208 493.904,466.696 C493.904,468.232 495.104,469.384 496.688,469.384 C498.176,469.384 499.424,468.232 499.424,466.696 C499.424,465.208 498.176,464.008 496.688,464.008 Z M498.512,475.624 L494.816,475.624 L494.816,499 L498.512,499 L498.512,475.624 Z M509.06,463 L505.364,463 L505.364,499 L509.06,499 L509.06,463 Z M532.52,475.624 L524.792,494.248 L517.064,475.624 L513.08,475.624 L522.776,498.232 L521.528,501.064 C520.232,504.04 518.504,504.808 516.248,504.808 C515.432,504.808 514.52,504.712 513.416,504.568 L513.416,507.688 C514.52,507.976 515.864,508.168 517.016,508.168 C520.568,508.168 523.112,506.44 524.936,502.264 L536.456,475.624 L532.52,475.624 Z M554.576,464.008 C552.992,464.008 551.792,465.208 551.792,466.696 C551.792,468.232 552.992,469.384 554.576,469.384 C556.064,469.384 557.312,468.232 557.312,466.696 C557.312,465.208 556.064,464.008 554.576,464.008 Z M556.4,475.624 L552.704,475.624 L552.704,499 L556.4,499 L556.4,475.624 Z M573.908,475.096 C570.884,475.096 568.34,476.248 566.708,478.168 L566.708,475.624 L563.252,475.624 L563.252,499 L566.948,499 L566.948,484.744 C566.948,481.096 569.492,478.504 573.092,478.504 C576.692,478.504 578.9,481.048 578.9,484.744 L578.9,499 L582.596,499 L582.596,484.312 C582.596,478.888 579.428,475.096 573.908,475.096 Z M623.132,467.32 L623.132,491.176 L602.972,466.792 L601.628,466.792 L601.628,499 L605.372,499 L605.372,475.192 L625.532,499.528 L626.876,499.528 L626.876,467.32 L623.132,467.32 Z M654.752,485.656 C654.752,479.416 650.096,475.096 644.096,475.096 C637.376,475.096 632.144,480.52 632.144,487.336 C632.144,494.2 637.472,499.528 644.528,499.528 C648.368,499.528 651.536,497.944 653.888,495.448 L651.728,492.952 C649.808,494.872 647.504,496.12 644.576,496.12 C639.968,496.12 636.512,493.096 636.032,488.44 L654.464,488.44 L654.506837,488.232612 C654.607787,487.71104 654.752,486.7376 654.752,485.656 Z M644,478.456 C647.744,478.456 650.912,480.856 650.96,485.176 L636.176,485.176 C636.944,481.144 640.064,478.456 644,478.456 Z M690.548,475.624 L683.924,492.808 L676.052,475.096 L674.66,475.096 L666.836,492.904 L660.116,475.624 L656.18,475.624 L666.116,499.528 L667.412,499.528 L675.332,481.864 L683.3,499.528 L684.644,499.528 L694.484,475.624 L690.548,475.624 Z M732.428,467.32 L728.252,467.32 L719.564,482.2 L710.924,467.32 L706.7,467.32 L717.692,485.848 L717.692,499 L721.436,499 L721.436,485.848 L732.428,467.32 Z M743.6,475.096 C736.736,475.096 731.36,480.424 731.36,487.288 C731.36,494.152 736.784,499.432 743.552,499.48 C750.368,499.48 755.84,494.104 755.84,487.288 C755.84,480.424 750.368,475.096 743.6,475.096 Z M743.6,478.504 C748.4,478.504 752.048,482.296 752.048,487.336 C752.048,492.232 748.4,496.072 743.552,496.072 C738.704,496.072 735.152,492.28 735.152,487.336 C735.104,482.344 738.704,478.504 743.6,478.504 Z M771.764,475.432 C768.98,475.432 766.244,476.68 764.516,478.984 L764.516,475.624 L761.06,475.624 L761.06,499 L764.756,499 L764.756,485.752 C764.756,481.288 768.308,478.888 772.1,478.888 L773.492,478.888 L773.492,475.624 L773.16884,475.561053 C772.784444,475.490074 772.361333,475.432 771.764,475.432 Z M777.176,499 L780.872,499 L780.872,463 L777.176,463 L777.176,499 Z M785.72,485.896 L795.848,475.624 L791,475.624 L781.256,485.848 L792.008,499 L796.76,499 L785.72,485.896 Z M820.784,475.096 C817.04,475.096 813.488,476.68 811.28,480.232 L813.728,482.248 C815.552,479.896 817.616,478.504 820.544,478.504 C824,478.504 826.208,480.472 826.208,484.408 L826.208,486.424 L818.816,486.424 C813.728,486.424 810.416,489.016 810.416,492.952 C810.416,497.032 813.872,499.528 818.576,499.528 C822.032,499.528 824.768,498.232 826.448,495.976 L826.448,499 L829.904,499 L829.904,484.6 C829.904,478.312 826.112,475.096 820.784,475.096 Z M819.056,496.456 C816.464,496.456 814.208,495.256 814.208,492.76 C814.208,490.552 815.984,489.448 819.248,489.448 L826.208,489.448 L826.208,490.024 C826.208,493.672 822.896,496.456 819.056,496.456 Z M847.124,475.096 C844.1,475.096 841.556,476.248 839.924,478.168 L839.924,475.624 L836.468,475.624 L836.468,499 L840.164,499 L840.164,484.744 C840.164,481.096 842.708,478.504 846.308,478.504 C849.908,478.504 852.116,481.048 852.116,484.744 L852.116,499 L855.812,499 L855.812,484.312 C855.812,478.888 852.644,475.096 847.124,475.096 Z M880.904,463 L880.904,479.08 C879.032,476.584 875.816,475.096 872.264,475.096 C865.592,475.096 860.696,480.424 860.696,487.336 C860.696,494.2 865.592,499.528 872.264,499.528 C875.96,499.528 879.272,497.944 881.096,495.256 L881.096,499 L884.6,499 L884.6,463 L880.904,463 Z M872.792,496.12 C867.992,496.12 864.488,492.376 864.488,487.288 C864.488,482.2 868.04,478.504 872.792,478.504 C876.824,478.504 880.952,481.192 880.952,487.336 C880.952,493.48 876.824,496.12 872.792,496.12 Z M918.32,466.792 C909.152,466.792 901.856,473.896 901.856,483.16 C901.856,492.424 909.152,499.528 918.32,499.528 C924.08,499.528 928.928,496.744 931.472,492.712 L928.688,490.504 C926.336,493.96 922.784,496.072 918.368,496.072 C911.216,496.072 905.744,490.552 905.744,483.16 C905.744,475.768 911.216,470.248 918.368,470.248 C922.784,470.248 926.336,472.36 928.688,475.816 L931.472,473.608 C928.832,469.576 924.08,466.792 918.32,466.792 Z M947.396,475.096 C944.372,475.096 941.924,476.296 940.388,478.264 L940.388,463 L936.692,463 L936.692,499 L940.388,499 L940.388,484.792 C940.388,481.144 942.932,478.504 946.532,478.504 C950.132,478.504 952.34,481.096 952.34,484.792 L952.34,499 L956.036,499 L956.036,484.312 C956.036,478.888 952.868,475.096 947.396,475.096 Z M964.472,464.008 C962.888,464.008 961.688,465.208 961.688,466.696 C961.688,468.232 962.888,469.384 964.472,469.384 C965.96,469.384 967.208,468.232 967.208,466.696 C967.208,465.208 965.96,464.008 964.472,464.008 Z M966.296,475.624 L962.6,475.624 L962.6,499 L966.296,499 L966.296,475.624 Z M983.708,475.096 C976.892,475.096 971.468,480.472 971.468,487.288 C971.468,494.152 976.892,499.528 983.708,499.528 C987.884,499.528 991.244,497.512 993.308,494.44 L990.668,492.376 C988.94,494.68 986.732,496.12 983.756,496.12 C978.86,496.12 975.26,492.232 975.26,487.288 C975.26,482.392 978.86,478.504 983.756,478.504 C986.78,478.504 988.988,479.992 990.716,482.296 L993.356,480.184 C991.292,477.112 987.932,475.096 983.708,475.096 Z M1006.736,475.096 C1002.992,475.096 999.44,476.68 997.232,480.232 L999.68,482.248 C1001.504,479.896 1003.568,478.504 1006.496,478.504 C1009.952,478.504 1012.16,480.472 1012.16,484.408 L1012.16,486.424 L1004.768,486.424 C999.68,486.424 996.368,489.016 996.368,492.952 C996.368,497.032 999.824,499.528 1004.528,499.528 C1007.984,499.528 1010.72,498.232 1012.4,495.976 L1012.4,499 L1015.856,499 L1015.856,484.6 C1015.856,478.312 1012.064,475.096 1006.736,475.096 Z M1005.008,496.456 C1002.416,496.456 1000.16,495.256 1000.16,492.76 C1000.16,490.552 1001.936,489.448 1005.2,489.448 L1012.16,489.448 L1012.16,490.024 C1012.16,493.672 1008.848,496.456 1005.008,496.456 Z M1041.38,475.624 L1041.38,479.416 C1039.556,476.728 1036.196,475.096 1032.5,475.096 C1025.924,475.096 1021.028,480.184 1021.028,486.952 C1021.028,493.768 1025.924,498.76 1032.5,498.76 C1036.004,498.76 1039.268,497.32 1041.188,494.872 L1041.188,496.936 C1041.188,502.12 1038.164,504.76 1033.412,504.76 C1029.572,504.76 1026.932,503.032 1024.676,501.064 L1022.516,503.656 C1024.82,505.96 1028.612,508.168 1033.508,508.168 C1040.324,508.168 1044.884,503.944 1044.884,496.744 L1044.884,475.624 L1041.38,475.624 Z M1033.076,495.352 C1028.324,495.352 1024.772,491.944 1024.772,487 C1024.772,482.056 1028.324,478.6 1033.076,478.6 C1037.108,478.6 1041.236,481.096 1041.236,486.952 C1041.236,492.808 1037.156,495.352 1033.076,495.352 Z M1062.296,475.096 C1055.432,475.096 1050.056,480.424 1050.056,487.288 C1050.056,494.152 1055.48,499.432 1062.248,499.48 C1069.064,499.48 1074.536,494.104 1074.536,487.288 C1074.536,480.424 1069.064,475.096 1062.296,475.096 Z M1062.296,478.504 C1067.096,478.504 1070.744,482.296 1070.744,487.336 C1070.744,492.232 1067.096,496.072 1062.248,496.072 C1057.4,496.072 1053.848,492.28 1053.848,487.336 C1053.8,482.344 1057.4,478.504 1062.296,478.504 Z M1081.676,493.48 C1083.308,493.48 1084.7,494.728 1084.7,496.504 C1084.7,498.28 1083.308,499.528 1081.676,499.528 C1080.044,499.528 1078.652,498.28 1078.652,496.504 C1078.652,494.728 1080.044,493.48 1081.676,493.48 Z" id="industrious1"></path>
        </g>
    </g>
</svg>