<?xml version="1.0" encoding="UTF-8"?>
<svg width="673px" height="150px" viewBox="0 0 673 150" version="1.1" xmlns="http://www.w3.org/2000/svg" xmlns:xlink="http://www.w3.org/1999/xlink">
    <!-- Generator: Sketch 59 (86127) - https://sketch.com -->
    <title>industrious4</title>
    <desc>Created with Sketch.</desc>
    <g id="Page-1" stroke="none" stroke-width="1" fill="none" fill-rule="evenodd">
        <g id="Desktop-HD-Copy-43" transform="translate(-385.000000, -3990.000000)" fill="#404648" fill-rule="nonzero">
            <path d="M461.97309,3993.56 L443.51109,3993.56 L443.51109,3995.94 L451.39909,3995.94 L451.39909,4016 L454.05109,4016 L454.05109,3995.94 L461.97309,3995.94 L461.97309,3993.56 Z M473.049771,3999.068 C470.907771,3999.068 469.173771,3999.918 468.085771,4001.312 L468.085771,3990.5 L465.467771,3990.5 L465.467771,4016 L468.085771,4016 L468.085771,4005.936 C468.085771,4003.352 469.887771,4001.482 472.437771,4001.482 C474.987771,4001.482 476.551771,4003.318 476.551771,4005.936 L476.551771,4016 L479.169771,4016 L479.169771,4005.596 C479.169771,4001.754 476.925771,3999.068 473.049771,3999.068 Z M499.494451,4006.548 C499.494451,4002.128 496.196451,3999.068 491.946451,3999.068 C487.186451,3999.068 483.480451,4002.91 483.480451,4007.738 C483.480451,4012.6 487.254451,4016.374 492.252451,4016.374 C494.972451,4016.374 497.216451,4015.252 498.882451,4013.484 L497.352451,4011.716 C495.992451,4013.076 494.360451,4013.96 492.286451,4013.96 C489.022451,4013.96 486.574451,4011.818 486.234451,4008.52 L499.290451,4008.52 L499.329174,4008.32906 C499.400007,4007.9505 499.494451,4007.28467 499.494451,4006.548 Z M491.878451,4001.448 C494.530451,4001.448 496.774451,4003.148 496.808451,4006.208 L486.336451,4006.208 C486.880451,4003.352 489.090451,4001.448 491.878451,4001.448 Z M518.519812,3999.068 C515.493812,3999.068 512.943812,4000.7 512.943812,4003.692 C512.943812,4005.99267 514.437055,4007.14957 516.809298,4008.17622 L518.655812,4008.962 L519.062652,4009.12976 C520.517312,4009.73881 521.545812,4010.305 521.545812,4011.614 C521.545812,4013.11 520.117812,4013.96 518.383812,4013.96 C516.377812,4013.96 514.983812,4012.838 513.623812,4011.41 L511.957812,4013.144 C513.283812,4014.912 515.493812,4016.374 518.417812,4016.374 C521.477812,4016.374 524.231812,4014.742 524.231812,4011.512 C524.231812,4009.24168 522.926297,4007.95845 520.130379,4006.73788 L517.859133,4005.77898 C516.338414,4005.12302 515.629812,4004.58043 515.629812,4003.556 C515.629812,4002.196 516.819812,4001.482 518.383812,4001.482 C519.947812,4001.482 521.375812,4002.196 522.463812,4003.318 L524.061812,4001.686 C522.769812,4000.088 520.899812,3999.068 518.519812,3999.068 Z M530.242493,3991.214 C529.120493,3991.214 528.270493,3992.064 528.270493,3993.118 C528.270493,3994.206 529.120493,3995.022 530.242493,3995.022 C531.296493,3995.022 532.180493,3994.206 532.180493,3993.118 C532.180493,3992.064 531.296493,3991.214 530.242493,3991.214 Z M531.534493,3999.442 L528.916493,3999.442 L528.916493,4016 L531.534493,4016 L531.534493,3999.442 Z M550.533174,4016 L544.243174,4007.364 L550.057174,3999.442 L547.031174,3999.442 L542.781174,4005.46 L538.565174,3999.442 L535.539174,3999.442 L541.285174,4007.364 L535.029174,4016 L538.089174,4016 L542.781174,4009.302 L547.507174,4016 L550.533174,4016 Z M581.730535,3999.068 C579.180535,3999.068 577.208535,4000.258 576.052535,4001.924 C575.134535,4000.19 573.434535,3999.068 570.952535,3999.068 C568.878535,3999.068 567.178535,3999.85 566.022535,4001.176 L566.022535,3999.442 L563.574535,3999.442 L563.574535,4016 L566.192535,4016 L566.192535,4005.936 C566.192535,4003.318 567.892535,4001.482 570.408535,4001.482 C572.856535,4001.482 574.352535,4003.318 574.352535,4005.936 L574.352535,4016 L576.970535,4016 L576.970535,4005.698 C576.970535,4003.386 578.704535,4001.482 581.220535,4001.482 C583.702535,4001.482 585.130535,4003.318 585.130535,4005.936 L585.130535,4016 L587.748535,4016 L587.748535,4005.596 C587.748535,4001.754 585.606535,3999.068 581.730535,3999.068 Z M599.199215,3999.068 C596.547215,3999.068 594.031215,4000.19 592.467215,4002.706 L594.201215,4004.134 C595.493215,4002.468 596.955215,4001.482 599.029215,4001.482 C601.477215,4001.482 603.041215,4002.876 603.041215,4005.664 L603.041215,4007.092 L597.805215,4007.092 C594.201215,4007.092 591.855215,4008.928 591.855215,4011.716 C591.855215,4014.606 594.303215,4016.374 597.635215,4016.374 C600.083215,4016.374 602.021215,4015.456 603.211215,4013.858 L603.211215,4016 L605.659215,4016 L605.659215,4005.8 C605.659215,4001.346 602.973215,3999.068 599.199215,3999.068 Z M597.975215,4014.198 C596.139215,4014.198 594.541215,4013.348 594.541215,4011.58 C594.541215,4010.016 595.799215,4009.234 598.111215,4009.234 L603.041215,4009.234 L603.041215,4009.642 C603.041215,4012.226 600.695215,4014.198 597.975215,4014.198 Z M612.485896,3991.214 C611.363896,3991.214 610.513896,3992.064 610.513896,3993.118 C610.513896,3994.206 611.363896,3995.022 612.485896,3995.022 C613.539896,3995.022 614.423896,3994.206 614.423896,3993.118 C614.423896,3992.064 613.539896,3991.214 612.485896,3991.214 Z M613.777896,3999.442 L611.159896,3999.442 L611.159896,4016 L613.777896,4016 L613.777896,3999.442 Z M627.030576,3999.068 C624.888576,3999.068 623.086576,3999.884 621.930576,4001.244 L621.930576,3999.442 L619.482576,3999.442 L619.482576,4016 L622.100576,4016 L622.100576,4005.902 C622.100576,4003.318 623.902576,4001.482 626.452576,4001.482 C629.002576,4001.482 630.566576,4003.284 630.566576,4005.902 L630.566576,4016 L633.184576,4016 L633.184576,4005.596 C633.184576,4001.754 630.940576,3999.068 627.030576,3999.068 Z M653.161937,3999.068 C650.135937,3999.068 647.585937,4000.7 647.585937,4003.692 C647.585937,4005.99267 649.07918,4007.14957 651.451423,4008.17622 L653.297937,4008.962 L653.704777,4009.12976 C655.159437,4009.73881 656.187937,4010.305 656.187937,4011.614 C656.187937,4013.11 654.759937,4013.96 653.025937,4013.96 C651.019937,4013.96 649.625937,4012.838 648.265937,4011.41 L646.599937,4013.144 C647.925937,4014.912 650.135937,4016.374 653.059937,4016.374 C656.119937,4016.374 658.873937,4014.742 658.873937,4011.512 C658.873937,4009.24168 657.568422,4007.95845 654.772504,4006.73788 L652.501258,4005.77898 C650.980539,4005.12302 650.271937,4004.58043 650.271937,4003.556 C650.271937,4002.196 651.461937,4001.482 653.025937,4001.482 C654.589937,4001.482 656.017937,4002.196 657.105937,4003.318 L658.703937,4001.686 C657.411937,4000.088 655.541937,3999.068 653.161937,3999.068 Z M671.038618,3999.068 C666.210618,3999.068 662.368618,4002.876 662.368618,4007.704 C662.368618,4012.566 666.210618,4016.374 671.038618,4016.374 C673.996618,4016.374 676.376618,4014.946 677.838618,4012.77 L675.968618,4011.308 C674.744618,4012.94 673.180618,4013.96 671.072618,4013.96 C667.604618,4013.96 665.054618,4011.206 665.054618,4007.704 C665.054618,4004.236 667.604618,4001.482 671.072618,4001.482 C673.214618,4001.482 674.778618,4002.536 676.002618,4004.168 L677.872618,4002.672 C676.410618,4000.496 674.030618,3999.068 671.038618,3999.068 Z M689.833299,3999.306 C687.861299,3999.306 685.923299,4000.19 684.699299,4001.822 L684.699299,3999.442 L682.251299,3999.442 L682.251299,4016 L684.869299,4016 L684.869299,4006.616 C684.869299,4003.454 687.385299,4001.754 690.071299,4001.754 L691.057299,4001.754 L691.057299,3999.442 L690.761112,3999.3853 C690.50636,3999.34069 690.22187,3999.306 689.833299,3999.306 Z M709.001979,4006.548 C709.001979,4002.128 705.703979,3999.068 701.453979,3999.068 C696.693979,3999.068 692.987979,4002.91 692.987979,4007.738 C692.987979,4012.6 696.761979,4016.374 701.759979,4016.374 C704.479979,4016.374 706.723979,4015.252 708.389979,4013.484 L706.859979,4011.716 C705.499979,4013.076 703.867979,4013.96 701.793979,4013.96 C698.529979,4013.96 696.081979,4011.818 695.741979,4008.52 L708.797979,4008.52 L708.836701,4008.32906 C708.907535,4007.9505 709.001979,4007.28467 709.001979,4006.548 Z M701.385979,4001.448 C704.037979,4001.448 706.281979,4003.148 706.315979,4006.208 L695.843979,4006.208 C696.387979,4003.352 698.597979,4001.448 701.385979,4001.448 Z M728.37466,4006.548 C728.37466,4002.128 725.07666,3999.068 720.82666,3999.068 C716.06666,3999.068 712.36066,4002.91 712.36066,4007.738 C712.36066,4012.6 716.13466,4016.374 721.13266,4016.374 C723.85266,4016.374 726.09666,4015.252 727.76266,4013.484 L726.23266,4011.716 C724.87266,4013.076 723.24066,4013.96 721.16666,4013.96 C717.90266,4013.96 715.45466,4011.818 715.11466,4008.52 L728.17066,4008.52 L728.209382,4008.32906 C728.280215,4007.9505 728.37466,4007.28467 728.37466,4006.548 Z M720.75866,4001.448 C723.41066,4001.448 725.65466,4003.148 725.68866,4006.208 L715.21666,4006.208 C715.76066,4003.352 717.97066,4001.448 720.75866,4001.448 Z M740.47134,3999.068 C738.32934,3999.068 736.52734,3999.884 735.37134,4001.244 L735.37134,3999.442 L732.92334,3999.442 L732.92334,4016 L735.54134,4016 L735.54134,4005.902 C735.54134,4003.318 737.34334,4001.482 739.89334,4001.482 C742.44334,4001.482 744.00734,4003.284 744.00734,4005.902 L744.00734,4016 L746.62534,4016 L746.62534,4005.596 C746.62534,4001.754 744.38134,3999.068 740.47134,3999.068 Z M757.124021,3999.068 C754.098021,3999.068 751.548021,4000.7 751.548021,4003.692 C751.548021,4005.99267 753.041263,4007.14957 755.413506,4008.17622 L757.260021,4008.962 L757.66686,4009.12976 C759.121521,4009.73881 760.150021,4010.305 760.150021,4011.614 C760.150021,4013.11 758.722021,4013.96 756.988021,4013.96 C754.982021,4013.96 753.588021,4012.838 752.228021,4011.41 L750.562021,4013.144 C751.888021,4014.912 754.098021,4016.374 757.022021,4016.374 C760.082021,4016.374 762.836021,4014.742 762.836021,4011.512 C762.836021,4009.24168 761.530506,4007.95845 758.734588,4006.73788 L756.463342,4005.77898 C754.942622,4005.12302 754.234021,4004.58043 754.234021,4003.556 C754.234021,4002.196 755.424021,4001.482 756.988021,4001.482 C758.552021,4001.482 759.980021,4002.196 761.068021,4003.318 L762.666021,4001.686 C761.374021,4000.088 759.504021,3999.068 757.124021,3999.068 Z M783.833382,4013.994 C781.759382,4013.994 780.331382,4013.314 780.331382,4010.832 L780.331382,4001.788 L785.499382,4001.788 L785.499382,3999.442 L780.331382,3999.442 L780.331382,3994.92 L777.713382,3994.92 L777.713382,3999.442 L774.925382,3999.442 L774.925382,4001.788 L777.713382,4001.788 L777.713382,4011.002 C777.713382,4014.776 780.025382,4016.374 783.289382,4016.374 C784.343382,4016.374 785.193382,4016.204 786.043382,4016 L786.043382,4013.79 C785.193382,4013.926 784.479382,4013.994 783.833382,4013.994 Z M797.494063,3999.068 C795.352063,3999.068 793.618063,3999.918 792.530063,4001.312 L792.530063,3990.5 L789.912063,3990.5 L789.912063,4016 L792.530063,4016 L792.530063,4005.936 C792.530063,4003.352 794.332063,4001.482 796.882063,4001.482 C799.432063,4001.482 800.996063,4003.318 800.996063,4005.936 L800.996063,4016 L803.614063,4016 L803.614063,4005.596 C803.614063,4001.754 801.370063,3999.068 797.494063,3999.068 Z M815.064743,3999.068 C812.412743,3999.068 809.896743,4000.19 808.332743,4002.706 L810.066743,4004.134 C811.358743,4002.468 812.820743,4001.482 814.894743,4001.482 C817.342743,4001.482 818.906743,4002.876 818.906743,4005.664 L818.906743,4007.092 L813.670743,4007.092 C810.066743,4007.092 807.720743,4008.928 807.720743,4011.716 C807.720743,4014.606 810.168743,4016.374 813.500743,4016.374 C815.948743,4016.374 817.886743,4015.456 819.076743,4013.858 L819.076743,4016 L821.524743,4016 L821.524743,4005.8 C821.524743,4001.346 818.838743,3999.068 815.064743,3999.068 Z M813.840743,4014.198 C812.004743,4014.198 810.406743,4013.348 810.406743,4011.58 C810.406743,4010.016 811.664743,4009.234 813.976743,4009.234 L818.906743,4009.234 L818.906743,4009.642 C818.906743,4012.226 816.560743,4014.198 813.840743,4014.198 Z M833.859424,4013.994 C831.785424,4013.994 830.357424,4013.314 830.357424,4010.832 L830.357424,4001.788 L835.525424,4001.788 L835.525424,3999.442 L830.357424,3999.442 L830.357424,3994.92 L827.739424,3994.92 L827.739424,3999.442 L824.951424,3999.442 L824.951424,4001.788 L827.739424,4001.788 L827.739424,4011.002 C827.739424,4014.776 830.051424,4016.374 833.315424,4016.374 C834.369424,4016.374 835.219424,4016.204 836.069424,4016 L836.069424,4013.79 C835.219424,4013.926 834.505424,4013.994 833.859424,4013.994 Z M856.998785,3999.068 C854.856785,3999.068 853.122785,3999.918 852.034785,4001.312 L852.034785,3990.5 L849.416785,3990.5 L849.416785,4016 L852.034785,4016 L852.034785,4005.936 C852.034785,4003.352 853.836785,4001.482 856.386785,4001.482 C858.936785,4001.482 860.500785,4003.318 860.500785,4005.936 L860.500785,4016 L863.118785,4016 L863.118785,4005.596 C863.118785,4001.754 860.874785,3999.068 856.998785,3999.068 Z M874.569465,3999.068 C871.917465,3999.068 869.401465,4000.19 867.837465,4002.706 L869.571465,4004.134 C870.863465,4002.468 872.325465,4001.482 874.399465,4001.482 C876.847465,4001.482 878.411465,4002.876 878.411465,4005.664 L878.411465,4007.092 L873.175465,4007.092 C869.571465,4007.092 867.225465,4008.928 867.225465,4011.716 C867.225465,4014.606 869.673465,4016.374 873.005465,4016.374 C875.453465,4016.374 877.391465,4015.456 878.581465,4013.858 L878.581465,4016 L881.029465,4016 L881.029465,4005.8 C881.029465,4001.346 878.343465,3999.068 874.569465,3999.068 Z M873.345465,4014.198 C871.509465,4014.198 869.911465,4013.348 869.911465,4011.58 C869.911465,4010.016 871.169465,4009.234 873.481465,4009.234 L878.411465,4009.234 L878.411465,4009.642 C878.411465,4012.226 876.065465,4014.198 873.345465,4014.198 Z M899.654146,3990.5 L899.654146,4001.89 C898.328146,4000.122 896.050146,3999.068 893.534146,3999.068 C888.808146,3999.068 885.340146,4002.842 885.340146,4007.738 C885.340146,4012.6 888.808146,4016.374 893.534146,4016.374 C896.152146,4016.374 898.498146,4015.252 899.790146,4013.348 L899.790146,4016 L902.272146,4016 L902.272146,3990.5 L899.654146,3990.5 Z M893.908146,4013.96 C890.508146,4013.96 888.026146,4011.308 888.026146,4007.704 C888.026146,4004.1 890.542146,4001.482 893.908146,4001.482 C896.764146,4001.482 899.688146,4003.386 899.688146,4007.738 C899.688146,4012.09 896.764146,4013.96 893.908146,4013.96 Z M924.289507,4013.994 C922.215507,4013.994 920.787507,4013.314 920.787507,4010.832 L920.787507,4001.788 L925.955507,4001.788 L925.955507,3999.442 L920.787507,3999.442 L920.787507,3994.92 L918.169507,3994.92 L918.169507,3999.442 L915.381507,3999.442 L915.381507,4001.788 L918.169507,4001.788 L918.169507,4011.002 C918.169507,4014.776 920.481507,4016.374 923.745507,4016.374 C924.799507,4016.374 925.649507,4016.204 926.499507,4016 L926.499507,4013.79 C925.649507,4013.926 924.935507,4013.994 924.289507,4013.994 Z M937.508188,3999.068 C932.646188,3999.068 928.838188,4002.842 928.838188,4007.704 C928.838188,4012.566 932.680188,4016.306 937.474188,4016.34 C942.302188,4016.34 946.178188,4012.532 946.178188,4007.704 C946.178188,4002.842 942.302188,3999.068 937.508188,3999.068 Z M937.508188,4001.482 C940.908188,4001.482 943.492188,4004.168 943.492188,4007.738 C943.492188,4011.206 940.908188,4013.926 937.474188,4013.926 C934.040188,4013.926 931.524188,4011.24 931.524188,4007.738 C931.490188,4004.202 934.040188,4001.482 937.508188,4001.482 Z M968.909549,3999.068 C966.393549,3999.068 964.115549,4000.156 962.823549,4001.89 L962.823549,3990.5 L960.205549,3990.5 L960.205549,4016 L962.653549,4016 L962.653549,4013.348 C963.945549,4015.252 966.359549,4016.374 968.943549,4016.374 C973.669549,4016.374 977.103549,4012.6 977.103549,4007.738 C977.103549,4002.842 973.635549,3999.068 968.909549,3999.068 Z M968.535549,4013.96 C965.679549,4013.96 962.789549,4012.09 962.789549,4007.738 C962.789549,4003.386 965.645549,4001.482 968.535549,4001.482 C971.901549,4001.482 974.417549,4004.1 974.417549,4007.704 C974.417549,4011.308 971.935549,4013.96 968.535549,4013.96 Z M996.476229,4006.548 C996.476229,4002.128 993.178229,3999.068 988.928229,3999.068 C984.168229,3999.068 980.462229,4002.91 980.462229,4007.738 C980.462229,4012.6 984.236229,4016.374 989.234229,4016.374 C991.954229,4016.374 994.198229,4015.252 995.864229,4013.484 L994.334229,4011.716 C992.974229,4013.076 991.342229,4013.96 989.268229,4013.96 C986.004229,4013.96 983.556229,4011.818 983.216229,4008.52 L996.272229,4008.52 L996.332792,4008.20709 C996.399729,4007.81662 996.476229,4007.211 996.476229,4006.548 Z M988.860229,4001.448 C991.512229,4001.448 993.756229,4003.148 993.790229,4006.208 L983.318229,4006.208 C983.862229,4003.352 986.072229,4001.448 988.860229,4001.448 Z M435.025729,4040.306 C433.053729,4040.306 431.115729,4041.19 429.891729,4042.822 L429.891729,4040.442 L427.443729,4040.442 L427.443729,4057 L430.061729,4057 L430.061729,4047.616 C430.061729,4044.454 432.577729,4042.754 435.263729,4042.754 L436.249729,4042.754 L436.249729,4040.442 L435.953542,4040.3853 C435.69879,4040.34069 435.414301,4040.306 435.025729,4040.306 Z M454.19441,4047.548 C454.19441,4043.128 450.89641,4040.068 446.64641,4040.068 C441.88641,4040.068 438.18041,4043.91 438.18041,4048.738 C438.18041,4053.6 441.95441,4057.374 446.95241,4057.374 C449.67241,4057.374 451.91641,4056.252 453.58241,4054.484 L452.05241,4052.716 C450.69241,4054.076 449.06041,4054.96 446.98641,4054.96 C443.72241,4054.96 441.27441,4052.818 440.93441,4049.52 L453.99041,4049.52 L454.029132,4049.32906 C454.099965,4048.9505 454.19441,4048.28467 454.19441,4047.548 Z M446.57841,4042.448 C449.23041,4042.448 451.47441,4044.148 451.50841,4047.208 L441.03641,4047.208 C441.58041,4044.352 443.79041,4042.448 446.57841,4042.448 Z M471.86709,4031.5 L471.86709,4042.89 C470.54109,4041.122 468.26309,4040.068 465.74709,4040.068 C461.02109,4040.068 457.55309,4043.842 457.55309,4048.738 C457.55309,4053.6 461.02109,4057.374 465.74709,4057.374 C468.36509,4057.374 470.71109,4056.252 472.00309,4054.348 L472.00309,4057 L474.48509,4057 L474.48509,4031.5 L471.86709,4031.5 Z M466.12109,4054.96 C462.72109,4054.96 460.23909,4052.308 460.23909,4048.704 C460.23909,4045.1 462.75509,4042.482 466.12109,4042.482 C468.97709,4042.482 471.90109,4044.386 471.90109,4048.738 C471.90109,4053.09 468.97709,4054.96 466.12109,4054.96 Z M495.013771,4047.548 C495.013771,4043.128 491.715771,4040.068 487.465771,4040.068 C482.705771,4040.068 478.999771,4043.91 478.999771,4048.738 C478.999771,4053.6 482.773771,4057.374 487.771771,4057.374 C490.491771,4057.374 492.735771,4056.252 494.401771,4054.484 L492.871771,4052.716 C491.511771,4054.076 489.879771,4054.96 487.805771,4054.96 C484.541771,4054.96 482.093771,4052.818 481.753771,4049.52 L494.809771,4049.52 L494.848493,4049.32906 C494.919326,4048.9505 495.013771,4048.28467 495.013771,4047.548 Z M487.397771,4042.448 C490.049771,4042.448 492.293771,4044.148 492.327771,4047.208 L481.855771,4047.208 C482.399771,4044.352 484.609771,4042.448 487.397771,4042.448 Z M504.560451,4040.068 C501.534451,4040.068 498.984451,4041.7 498.984451,4044.692 C498.984451,4046.99267 500.477694,4048.14957 502.849937,4049.17622 L504.696451,4049.962 L505.10329,4050.12976 C506.557951,4050.73881 507.586451,4051.305 507.586451,4052.614 C507.586451,4054.11 506.158451,4054.96 504.424451,4054.96 C502.418451,4054.96 501.024451,4053.838 499.664451,4052.41 L497.998451,4054.144 C499.324451,4055.912 501.534451,4057.374 504.458451,4057.374 C507.518451,4057.374 510.272451,4055.742 510.272451,4052.512 C510.272451,4050.24168 508.966936,4048.95845 506.171018,4047.73788 L503.899772,4046.77898 C502.379052,4046.12302 501.670451,4045.58043 501.670451,4044.556 C501.670451,4043.196 502.860451,4042.482 504.424451,4042.482 C505.988451,4042.482 507.416451,4043.196 508.504451,4044.318 L510.102451,4042.686 C508.810451,4041.088 506.940451,4040.068 504.560451,4040.068 Z M516.283132,4032.214 C515.161132,4032.214 514.311132,4033.064 514.311132,4034.118 C514.311132,4035.206 515.161132,4036.022 516.283132,4036.022 C517.337132,4036.022 518.221132,4035.206 518.221132,4034.118 C518.221132,4033.064 517.337132,4032.214 516.283132,4032.214 Z M517.575132,4040.442 L514.957132,4040.442 L514.957132,4057 L517.575132,4057 L517.575132,4040.442 Z M536.709812,4040.442 L536.709812,4043.128 C535.417812,4041.224 533.037812,4040.068 530.419812,4040.068 C525.761812,4040.068 522.293812,4043.672 522.293812,4048.466 C522.293812,4053.294 525.761812,4056.83 530.419812,4056.83 C532.901812,4056.83 535.213812,4055.81 536.573812,4054.076 L536.573812,4055.538 C536.573812,4059.21 534.431812,4061.08 531.065812,4061.08 C528.345812,4061.08 526.475812,4059.856 524.877812,4058.462 L523.347812,4060.298 C524.979812,4061.93 527.665812,4063.494 531.133812,4063.494 C535.961812,4063.494 539.191812,4060.502 539.191812,4055.402 L539.191812,4040.442 L536.709812,4040.442 Z M530.827812,4054.416 C527.461812,4054.416 524.945812,4052.002 524.945812,4048.5 C524.945812,4044.998 527.461812,4042.55 530.827812,4042.55 C533.683812,4042.55 536.607812,4044.318 536.607812,4048.466 C536.607812,4052.614 533.717812,4054.416 530.827812,4054.416 Z M552.444493,4040.068 C550.302493,4040.068 548.500493,4040.884 547.344493,4042.244 L547.344493,4040.442 L544.896493,4040.442 L544.896493,4057 L547.514493,4057 L547.514493,4046.902 C547.514493,4044.318 549.316493,4042.482 551.866493,4042.482 C554.416493,4042.482 555.980493,4044.284 555.980493,4046.902 L555.980493,4057 L558.598493,4057 L558.598493,4046.596 C558.598493,4042.754 556.354493,4040.068 552.444493,4040.068 Z M578.923174,4047.548 C578.923174,4043.128 575.625174,4040.068 571.375174,4040.068 C566.615174,4040.068 562.909174,4043.91 562.909174,4048.738 C562.909174,4053.6 566.683174,4057.374 571.681174,4057.374 C574.401174,4057.374 576.645174,4056.252 578.311174,4054.484 L576.781174,4052.716 C575.421174,4054.076 573.789174,4054.96 571.715174,4054.96 C568.451174,4054.96 566.003174,4052.818 565.663174,4049.52 L578.719174,4049.52 L578.779736,4049.20709 C578.846674,4048.81662 578.923174,4048.211 578.923174,4047.548 Z M571.307174,4042.448 C573.959174,4042.448 576.203174,4044.148 576.237174,4047.208 L565.765174,4047.208 C566.309174,4044.352 568.519174,4042.448 571.307174,4042.448 Z M596.595854,4031.5 L596.595854,4042.89 C595.269854,4041.122 592.991854,4040.068 590.475854,4040.068 C585.749854,4040.068 582.281854,4043.842 582.281854,4048.738 C582.281854,4053.6 585.749854,4057.374 590.475854,4057.374 C593.093854,4057.374 595.439854,4056.252 596.731854,4054.348 L596.731854,4057 L599.213854,4057 L599.213854,4031.5 L596.595854,4031.5 Z M590.849854,4054.96 C587.449854,4054.96 584.967854,4052.308 584.967854,4048.704 C584.967854,4045.1 587.483854,4042.482 590.849854,4042.482 C593.705854,4042.482 596.629854,4044.386 596.629854,4048.738 C596.629854,4053.09 593.705854,4054.96 590.849854,4054.96 Z M615.723215,4032.214 C614.601215,4032.214 613.751215,4033.064 613.751215,4034.118 C613.751215,4035.206 614.601215,4036.022 615.723215,4036.022 C616.777215,4036.022 617.661215,4035.206 617.661215,4034.118 C617.661215,4033.064 616.777215,4032.214 615.723215,4032.214 Z M617.015215,4040.442 L614.397215,4040.442 L614.397215,4057 L617.015215,4057 L617.015215,4040.442 Z M630.267896,4040.068 C628.125896,4040.068 626.323896,4040.884 625.167896,4042.244 L625.167896,4040.442 L622.719896,4040.442 L622.719896,4057 L625.337896,4057 L625.337896,4046.902 C625.337896,4044.318 627.139896,4042.482 629.689896,4042.482 C632.239896,4042.482 633.803896,4044.284 633.803896,4046.902 L633.803896,4057 L636.421896,4057 L636.421896,4046.596 C636.421896,4042.754 634.177896,4040.068 630.267896,4040.068 Z M649.402576,4040.068 C644.574576,4040.068 640.732576,4043.876 640.732576,4048.704 C640.732576,4053.566 644.574576,4057.374 649.402576,4057.374 C652.360576,4057.374 654.740576,4055.946 656.202576,4053.77 L654.332576,4052.308 C653.108576,4053.94 651.544576,4054.96 649.436576,4054.96 C645.968576,4054.96 643.418576,4052.206 643.418576,4048.704 C643.418576,4045.236 645.968576,4042.482 649.436576,4042.482 C651.578576,4042.482 653.142576,4043.536 654.366576,4045.168 L656.236576,4043.672 C654.774576,4041.496 652.394576,4040.068 649.402576,4040.068 Z M663.233257,4031.5 L660.615257,4031.5 L660.615257,4057 L663.233257,4057 L663.233257,4031.5 Z M682.435937,4040.442 L679.817937,4040.442 L679.817937,4050.574 C679.817937,4053.294 677.913937,4054.96 675.601937,4054.96 C673.221937,4054.96 671.317937,4053.294 671.317937,4050.574 L671.317937,4040.442 L668.733937,4040.442 L668.733937,4050.404 C668.733937,4054.654 671.725937,4057.374 675.601937,4057.374 C679.409937,4057.374 682.435937,4054.654 682.435937,4050.404 L682.435937,4040.442 Z M701.060618,4031.5 L701.060618,4042.89 C699.734618,4041.122 697.456618,4040.068 694.940618,4040.068 C690.214618,4040.068 686.746618,4043.842 686.746618,4048.738 C686.746618,4053.6 690.214618,4057.374 694.940618,4057.374 C697.558618,4057.374 699.904618,4056.252 701.196618,4054.348 L701.196618,4057 L703.678618,4057 L703.678618,4031.5 L701.060618,4031.5 Z M695.314618,4054.96 C691.914618,4054.96 689.432618,4052.308 689.432618,4048.704 C689.432618,4045.1 691.948618,4042.482 695.314618,4042.482 C698.170618,4042.482 701.094618,4044.386 701.094618,4048.738 C701.094618,4053.09 698.170618,4054.96 695.314618,4054.96 Z M724.207299,4047.548 C724.207299,4043.128 720.909299,4040.068 716.659299,4040.068 C711.899299,4040.068 708.193299,4043.91 708.193299,4048.738 C708.193299,4053.6 711.967299,4057.374 716.965299,4057.374 C719.685299,4057.374 721.929299,4056.252 723.595299,4054.484 L722.065299,4052.716 C720.705299,4054.076 719.073299,4054.96 716.999299,4054.96 C713.735299,4054.96 711.287299,4052.818 710.947299,4049.52 L724.003299,4049.52 L724.042021,4049.32906 C724.112854,4048.9505 724.207299,4048.28467 724.207299,4047.548 Z M716.591299,4042.448 C719.243299,4042.448 721.487299,4044.148 721.521299,4047.208 L711.049299,4047.208 C711.593299,4044.352 713.803299,4042.448 716.591299,4042.448 Z M741.879979,4031.5 L741.879979,4042.89 C740.553979,4041.122 738.275979,4040.068 735.759979,4040.068 C731.033979,4040.068 727.565979,4043.842 727.565979,4048.738 C727.565979,4053.6 731.033979,4057.374 735.759979,4057.374 C738.377979,4057.374 740.723979,4056.252 742.015979,4054.348 L742.015979,4057 L744.497979,4057 L744.497979,4031.5 L741.879979,4031.5 Z M736.133979,4054.96 C732.733979,4054.96 730.251979,4052.308 730.251979,4048.704 C730.251979,4045.1 732.767979,4042.482 736.133979,4042.482 C738.989979,4042.482 741.913979,4044.386 741.913979,4048.738 C741.913979,4053.09 738.989979,4054.96 736.133979,4054.96 Z M766.51534,4054.994 C764.44134,4054.994 763.01334,4054.314 763.01334,4051.832 L763.01334,4042.788 L768.18134,4042.788 L768.18134,4040.442 L763.01334,4040.442 L763.01334,4035.92 L760.39534,4035.92 L760.39534,4040.442 L757.60734,4040.442 L757.60734,4042.788 L760.39534,4042.788 L760.39534,4052.002 C760.39534,4055.776 762.70734,4057.374 765.97134,4057.374 C767.02534,4057.374 767.87534,4057.204 768.72534,4057 L768.72534,4054.79 C767.87534,4054.926 767.16134,4054.994 766.51534,4054.994 Z M780.176021,4040.068 C778.034021,4040.068 776.300021,4040.918 775.212021,4042.312 L775.212021,4031.5 L772.594021,4031.5 L772.594021,4057 L775.212021,4057 L775.212021,4046.936 C775.212021,4044.352 777.014021,4042.482 779.564021,4042.482 C782.114021,4042.482 783.678021,4044.318 783.678021,4046.936 L783.678021,4057 L786.296021,4057 L786.296021,4046.596 C786.296021,4042.754 784.052021,4040.068 780.176021,4040.068 Z M806.620701,4047.548 C806.620701,4043.128 803.322701,4040.068 799.072701,4040.068 C794.312701,4040.068 790.606701,4043.91 790.606701,4048.738 C790.606701,4053.6 794.380701,4057.374 799.378701,4057.374 C802.098701,4057.374 804.342701,4056.252 806.008701,4054.484 L804.478701,4052.716 C803.118701,4054.076 801.486701,4054.96 799.412701,4054.96 C796.148701,4054.96 793.700701,4052.818 793.360701,4049.52 L806.416701,4049.52 L806.455424,4049.32906 C806.526257,4048.9505 806.620701,4048.28467 806.620701,4047.548 Z M799.004701,4042.448 C801.656701,4042.448 803.900701,4044.148 803.934701,4047.208 L793.462701,4047.208 C794.006701,4044.352 796.216701,4042.448 799.004701,4042.448 Z M821.974063,4032.214 C820.852063,4032.214 820.002063,4033.064 820.002063,4034.118 C820.002063,4035.206 820.852063,4036.022 821.974063,4036.022 C823.028063,4036.022 823.912063,4035.206 823.912063,4034.118 C823.912063,4033.064 823.028063,4032.214 821.974063,4032.214 Z M823.266063,4040.442 L820.648063,4040.442 L820.648063,4057 L823.266063,4057 L823.266063,4040.442 Z M836.518743,4040.068 C834.376743,4040.068 832.574743,4040.884 831.418743,4042.244 L831.418743,4040.442 L828.970743,4040.442 L828.970743,4057 L831.588743,4057 L831.588743,4046.902 C831.588743,4044.318 833.390743,4042.482 835.940743,4042.482 C838.490743,4042.482 840.054743,4044.284 840.054743,4046.902 L840.054743,4057 L842.672743,4057 L842.672743,4046.596 C842.672743,4042.754 840.428743,4040.068 836.518743,4040.068 Z M849.499424,4032.214 C848.377424,4032.214 847.527424,4033.064 847.527424,4034.118 C847.527424,4035.206 848.377424,4036.022 849.499424,4036.022 C850.553424,4036.022 851.437424,4035.206 851.437424,4034.118 C851.437424,4033.064 850.553424,4032.214 849.499424,4032.214 Z M850.791424,4040.442 L848.173424,4040.442 L848.173424,4057 L850.791424,4057 L850.791424,4040.442 Z M863.330104,4054.994 C861.256104,4054.994 859.828104,4054.314 859.828104,4051.832 L859.828104,4042.788 L864.996104,4042.788 L864.996104,4040.442 L859.828104,4040.442 L859.828104,4035.92 L857.210104,4035.92 L857.210104,4040.442 L854.422104,4040.442 L854.422104,4042.788 L857.210104,4042.788 L857.210104,4052.002 C857.210104,4055.776 859.522104,4057.374 862.786104,4057.374 C863.840104,4057.374 864.690104,4057.204 865.540104,4057 L865.540104,4054.79 C864.690104,4054.926 863.976104,4054.994 863.330104,4054.994 Z M870.734785,4032.214 C869.612785,4032.214 868.762785,4033.064 868.762785,4034.118 C868.762785,4035.206 869.612785,4036.022 870.734785,4036.022 C871.788785,4036.022 872.672785,4035.206 872.672785,4034.118 C872.672785,4033.064 871.788785,4032.214 870.734785,4032.214 Z M872.026785,4040.442 L869.408785,4040.442 L869.408785,4057 L872.026785,4057 L872.026785,4040.442 Z M883.681465,4040.068 C881.029465,4040.068 878.513465,4041.19 876.949465,4043.706 L878.683465,4045.134 C879.975465,4043.468 881.437465,4042.482 883.511465,4042.482 C885.959465,4042.482 887.523465,4043.876 887.523465,4046.664 L887.523465,4048.092 L882.287465,4048.092 C878.683465,4048.092 876.337465,4049.928 876.337465,4052.716 C876.337465,4055.606 878.785465,4057.374 882.117465,4057.374 C884.565465,4057.374 886.503465,4056.456 887.693465,4054.858 L887.693465,4057 L890.141465,4057 L890.141465,4046.8 C890.141465,4042.346 887.455465,4040.068 883.681465,4040.068 Z M882.457465,4055.198 C880.621465,4055.198 879.023465,4054.348 879.023465,4052.58 C879.023465,4051.016 880.281465,4050.234 882.593465,4050.234 L887.523465,4050.234 L887.523465,4050.642 C887.523465,4053.226 885.177465,4055.198 882.457465,4055.198 Z M898.260146,4031.5 L895.642146,4031.5 L895.642146,4057 L898.260146,4057 L898.260146,4031.5 Z M916.299507,4034.56 L913.647507,4034.56 L913.647507,4057 L926.941507,4057 L926.941507,4054.62 L916.299507,4054.62 L916.299507,4034.56 Z M938.086188,4040.068 C933.224188,4040.068 929.416188,4043.842 929.416188,4048.704 C929.416188,4053.566 933.258188,4057.306 938.052188,4057.34 C942.880188,4057.34 946.756188,4053.532 946.756188,4048.704 C946.756188,4043.842 942.880188,4040.068 938.086188,4040.068 Z M938.086188,4042.482 C941.486188,4042.482 944.070188,4045.168 944.070188,4048.738 C944.070188,4052.206 941.486188,4054.926 938.052188,4054.926 C934.618188,4054.926 932.102188,4052.24 932.102188,4048.738 C932.068188,4045.202 934.618188,4042.482 938.086188,4042.482 Z M964.734868,4040.442 L964.734868,4043.128 C963.442868,4041.224 961.062868,4040.068 958.444868,4040.068 C953.786868,4040.068 950.318868,4043.672 950.318868,4048.466 C950.318868,4053.294 953.786868,4056.83 958.444868,4056.83 C960.926868,4056.83 963.238868,4055.81 964.598868,4054.076 L964.598868,4055.538 C964.598868,4059.21 962.456868,4061.08 959.090868,4061.08 C956.370868,4061.08 954.500868,4059.856 952.902868,4058.462 L951.372868,4060.298 C953.004868,4061.93 955.690868,4063.494 959.158868,4063.494 C963.986868,4063.494 967.216868,4060.502 967.216868,4055.402 L967.216868,4040.442 L964.734868,4040.442 Z M958.852868,4054.416 C955.486868,4054.416 952.970868,4052.002 952.970868,4048.5 C952.970868,4044.998 955.486868,4042.55 958.852868,4042.55 C961.708868,4042.55 964.632868,4044.318 964.632868,4048.466 C964.632868,4052.614 961.742868,4054.416 958.852868,4054.416 Z M985.256229,4034.56 L982.604229,4034.56 L982.604229,4057 L985.256229,4057 L985.256229,4034.56 Z M998.54291,4040.068 C996.40091,4040.068 994.59891,4040.884 993.44291,4042.244 L993.44291,4040.442 L990.99491,4040.442 L990.99491,4057 L993.61291,4057 L993.61291,4046.902 C993.61291,4044.318 995.41491,4042.482 997.96491,4042.482 C1000.51491,4042.482 1002.07891,4044.284 1002.07891,4046.902 L1002.07891,4057 L1004.69691,4057 L1004.69691,4046.596 C1004.69691,4042.754 1002.45291,4040.068 998.54291,4040.068 Z M1013.73359,4053.94 L1010.63959,4053.94 L1010.19759,4063.086 L1012.33959,4063.086 L1013.73359,4053.94 Z M403.254028,4098 L396.114028,4088.276 C399.038028,4087.426 400.806028,4085.08 400.806028,4082.054 C400.806028,4078.28 398.052028,4075.56 393.632028,4075.56 L385.744028,4075.56 L385.744028,4098 L388.396028,4098 L388.396028,4088.582 L393.190028,4088.582 L400.160028,4098 L403.254028,4098 Z M388.396028,4077.94 L393.530028,4077.94 C396.488028,4077.94 398.052028,4079.708 398.052028,4082.088 C398.052028,4084.502 396.488028,4086.202 393.530028,4086.202 L388.396028,4086.202 L388.396028,4077.94 Z M420.960708,4088.548 C420.960708,4084.128 417.662708,4081.068 413.412708,4081.068 C408.652708,4081.068 404.946708,4084.91 404.946708,4089.738 C404.946708,4094.6 408.720708,4098.374 413.718708,4098.374 C416.438708,4098.374 418.682708,4097.252 420.348708,4095.484 L418.818708,4093.716 C417.458708,4095.076 415.826708,4095.96 413.752708,4095.96 C410.488708,4095.96 408.040708,4093.818 407.700708,4090.52 L420.756708,4090.52 L420.79543,4090.32906 C420.866264,4089.9505 420.960708,4089.28467 420.960708,4088.548 Z M413.344708,4083.448 C415.996708,4083.448 418.240708,4085.148 418.274708,4088.208 L407.802708,4088.208 C408.346708,4085.352 410.556708,4083.448 413.344708,4083.448 Z M430.507389,4081.068 C427.481389,4081.068 424.931389,4082.7 424.931389,4085.692 C424.931389,4087.99267 426.424631,4089.14957 428.796874,4090.17622 L430.643389,4090.962 L431.050228,4091.12976 C432.504889,4091.73881 433.533389,4092.305 433.533389,4093.614 C433.533389,4095.11 432.105389,4095.96 430.371389,4095.96 C428.365389,4095.96 426.971389,4094.838 425.611389,4093.41 L423.945389,4095.144 C425.271389,4096.912 427.481389,4098.374 430.405389,4098.374 C433.465389,4098.374 436.219389,4096.742 436.219389,4093.512 C436.219389,4091.24168 434.913874,4089.95845 432.117955,4088.73788 L429.84671,4087.77898 C428.32599,4087.12302 427.617389,4086.58043 427.617389,4085.556 C427.617389,4084.196 428.807389,4083.482 430.371389,4083.482 C431.935389,4083.482 433.363389,4084.196 434.451389,4085.318 L436.049389,4083.686 C434.757389,4082.088 432.887389,4081.068 430.507389,4081.068 Z M455.728069,4088.548 C455.728069,4084.128 452.430069,4081.068 448.180069,4081.068 C443.420069,4081.068 439.714069,4084.91 439.714069,4089.738 C439.714069,4094.6 443.488069,4098.374 448.486069,4098.374 C451.206069,4098.374 453.450069,4097.252 455.116069,4095.484 L453.586069,4093.716 C452.226069,4095.076 450.594069,4095.96 448.520069,4095.96 C445.256069,4095.96 442.808069,4093.818 442.468069,4090.52 L455.524069,4090.52 L455.584632,4090.20709 C455.651569,4089.81662 455.728069,4089.211 455.728069,4088.548 Z M448.112069,4083.448 C450.764069,4083.448 453.008069,4085.148 453.042069,4088.208 L442.570069,4088.208 C443.114069,4085.352 445.324069,4083.448 448.112069,4083.448 Z M467.85875,4081.306 C465.88675,4081.306 463.94875,4082.19 462.72475,4083.822 L462.72475,4081.442 L460.27675,4081.442 L460.27675,4098 L462.89475,4098 L462.89475,4088.616 C462.89475,4085.454 465.41075,4083.754 468.09675,4083.754 L469.08275,4083.754 L469.08275,4081.442 L468.786563,4081.3853 C468.531811,4081.34069 468.247321,4081.306 467.85875,4081.306 Z M484.30743,4081.442 L478.83343,4093.92 L473.32543,4081.442 L470.53743,4081.442 L478.35743,4098.374 L479.30943,4098.374 L487.09543,4081.442 L484.30743,4081.442 Z M504.972111,4088.548 C504.972111,4084.128 501.674111,4081.068 497.424111,4081.068 C492.664111,4081.068 488.958111,4084.91 488.958111,4089.738 C488.958111,4094.6 492.732111,4098.374 497.730111,4098.374 C500.450111,4098.374 502.694111,4097.252 504.360111,4095.484 L502.830111,4093.716 C501.470111,4095.076 499.838111,4095.96 497.764111,4095.96 C494.500111,4095.96 492.052111,4093.818 491.712111,4090.52 L504.768111,4090.52 L504.828674,4090.20709 C504.895611,4089.81662 504.972111,4089.211 504.972111,4088.548 Z M497.356111,4083.448 C500.008111,4083.448 502.252111,4085.148 502.286111,4088.208 L491.814111,4088.208 C492.358111,4085.352 494.568111,4083.448 497.356111,4083.448 Z M513.056792,4094.94 L509.962792,4094.94 L509.520792,4104.086 L511.662792,4104.086 L513.056792,4094.94 Z M534.088153,4081.068 C531.436153,4081.068 528.920153,4082.19 527.356153,4084.706 L529.090153,4086.134 C530.382153,4084.468 531.844153,4083.482 533.918153,4083.482 C536.366153,4083.482 537.930153,4084.876 537.930153,4087.664 L537.930153,4089.092 L532.694153,4089.092 C529.090153,4089.092 526.744153,4090.928 526.744153,4093.716 C526.744153,4096.606 529.192153,4098.374 532.524153,4098.374 C534.972153,4098.374 536.910153,4097.456 538.100153,4095.858 L538.100153,4098 L540.548153,4098 L540.548153,4087.8 C540.548153,4083.346 537.862153,4081.068 534.088153,4081.068 Z M532.864153,4096.198 C531.028153,4096.198 529.430153,4095.348 529.430153,4093.58 C529.430153,4092.016 530.688153,4091.234 533.000153,4091.234 L537.930153,4091.234 L537.930153,4091.642 C537.930153,4094.226 535.584153,4096.198 532.864153,4096.198 Z M553.596833,4081.068 C551.454833,4081.068 549.652833,4081.884 548.496833,4083.244 L548.496833,4081.442 L546.048833,4081.442 L546.048833,4098 L548.666833,4098 L548.666833,4087.902 C548.666833,4085.318 550.468833,4083.482 553.018833,4083.482 C555.568833,4083.482 557.132833,4085.284 557.132833,4087.902 L557.132833,4098 L559.750833,4098 L559.750833,4087.596 C559.750833,4083.754 557.506833,4081.068 553.596833,4081.068 Z M578.375514,4072.5 L578.375514,4083.89 C577.049514,4082.122 574.771514,4081.068 572.255514,4081.068 C567.529514,4081.068 564.061514,4084.842 564.061514,4089.738 C564.061514,4094.6 567.529514,4098.374 572.255514,4098.374 C574.873514,4098.374 577.219514,4097.252 578.511514,4095.348 L578.511514,4098 L580.993514,4098 L580.993514,4072.5 L578.375514,4072.5 Z M572.629514,4095.96 C569.229514,4095.96 566.747514,4093.308 566.747514,4089.704 C566.747514,4086.1 569.263514,4083.482 572.629514,4083.482 C575.485514,4083.482 578.409514,4085.386 578.409514,4089.738 C578.409514,4094.09 575.485514,4095.96 572.629514,4095.96 Z M610.762875,4075.56 L596.380875,4075.56 L596.380875,4098 L611.170875,4098 L611.170875,4095.62 L599.032875,4095.62 L599.032875,4087.188 L608.008875,4087.188 L608.008875,4084.808 L599.032875,4084.808 L599.032875,4077.94 L610.762875,4077.94 L610.762875,4075.56 Z M626.123556,4081.442 L620.649556,4093.92 L615.141556,4081.442 L612.353556,4081.442 L620.173556,4098.374 L621.125556,4098.374 L628.911556,4081.442 L626.123556,4081.442 Z M646.788236,4088.548 C646.788236,4084.128 643.490236,4081.068 639.240236,4081.068 C634.480236,4081.068 630.774236,4084.91 630.774236,4089.738 C630.774236,4094.6 634.548236,4098.374 639.546236,4098.374 C642.266236,4098.374 644.510236,4097.252 646.176236,4095.484 L644.646236,4093.716 C643.286236,4095.076 641.654236,4095.96 639.580236,4095.96 C636.316236,4095.96 633.868236,4093.818 633.528236,4090.52 L646.584236,4090.52 L646.644799,4090.20709 C646.711736,4089.81662 646.788236,4089.211 646.788236,4088.548 Z M639.172236,4083.448 C641.824236,4083.448 644.068236,4085.148 644.102236,4088.208 L633.630236,4088.208 C634.174236,4085.352 636.384236,4083.448 639.172236,4083.448 Z M658.884917,4081.068 C656.742917,4081.068 654.940917,4081.884 653.784917,4083.244 L653.784917,4081.442 L651.336917,4081.442 L651.336917,4098 L653.954917,4098 L653.954917,4087.902 C653.954917,4085.318 655.756917,4083.482 658.306917,4083.482 C660.856917,4083.482 662.420917,4085.284 662.420917,4087.902 L662.420917,4098 L665.038917,4098 L665.038917,4087.596 C665.038917,4083.754 662.794917,4081.068 658.884917,4081.068 Z M677.373597,4095.994 C675.299597,4095.994 673.871597,4095.314 673.871597,4092.832 L673.871597,4083.788 L679.039597,4083.788 L679.039597,4081.442 L673.871597,4081.442 L673.871597,4076.92 L671.253597,4076.92 L671.253597,4081.442 L668.465597,4081.442 L668.465597,4083.788 L671.253597,4083.788 L671.253597,4093.002 C671.253597,4096.776 673.565597,4098.374 676.829597,4098.374 C677.883597,4098.374 678.733597,4098.204 679.583597,4098 L679.583597,4095.79 C678.733597,4095.926 678.019597,4095.994 677.373597,4095.994 Z M688.450278,4081.068 C685.424278,4081.068 682.874278,4082.7 682.874278,4085.692 C682.874278,4087.99267 684.36752,4089.14957 686.739763,4090.17622 L688.586278,4090.962 L688.993117,4091.12976 C690.447778,4091.73881 691.476278,4092.305 691.476278,4093.614 C691.476278,4095.11 690.048278,4095.96 688.314278,4095.96 C686.308278,4095.96 684.914278,4094.838 683.554278,4093.41 L681.888278,4095.144 C683.214278,4096.912 685.424278,4098.374 688.348278,4098.374 C691.408278,4098.374 694.162278,4096.742 694.162278,4093.512 C694.162278,4091.24168 692.856763,4089.95845 690.060844,4088.73788 L687.789599,4087.77898 C686.268879,4087.12302 685.560278,4086.58043 685.560278,4085.556 C685.560278,4084.196 686.750278,4083.482 688.314278,4083.482 C689.878278,4083.482 691.306278,4084.196 692.394278,4085.318 L693.992278,4083.686 C692.700278,4082.088 690.830278,4081.068 688.450278,4081.068 Z M713.323639,4081.068 C710.297639,4081.068 707.747639,4082.7 707.747639,4085.692 C707.747639,4087.99267 709.240881,4089.14957 711.613124,4090.17622 L713.459639,4090.962 L713.866478,4091.12976 C715.321139,4091.73881 716.349639,4092.305 716.349639,4093.614 C716.349639,4095.11 714.921639,4095.96 713.187639,4095.96 C711.181639,4095.96 709.787639,4094.838 708.427639,4093.41 L706.761639,4095.144 C708.087639,4096.912 710.297639,4098.374 713.221639,4098.374 C716.281639,4098.374 719.035639,4096.742 719.035639,4093.512 C719.035639,4091.24168 717.730124,4089.95845 714.934206,4088.73788 L712.66296,4087.77898 C711.14224,4087.12302 710.433639,4086.58043 710.433639,4085.556 C710.433639,4084.196 711.623639,4083.482 713.187639,4083.482 C714.751639,4083.482 716.179639,4084.196 717.267639,4085.318 L718.865639,4083.686 C717.573639,4082.088 715.703639,4081.068 713.323639,4081.068 Z M731.200319,4081.068 C726.372319,4081.068 722.530319,4084.876 722.530319,4089.704 C722.530319,4094.566 726.372319,4098.374 731.200319,4098.374 C734.158319,4098.374 736.538319,4096.946 738.000319,4094.77 L736.130319,4093.308 C734.906319,4094.94 733.342319,4095.96 731.234319,4095.96 C727.766319,4095.96 725.216319,4093.206 725.216319,4089.704 C725.216319,4086.236 727.766319,4083.482 731.234319,4083.482 C733.376319,4083.482 734.940319,4084.536 736.164319,4086.168 L738.034319,4084.672 C736.572319,4082.496 734.192319,4081.068 731.200319,4081.068 Z M749.995,4081.306 C748.023,4081.306 746.085,4082.19 744.861,4083.822 L744.861,4081.442 L742.413,4081.442 L742.413,4098 L745.031,4098 L745.031,4088.616 C745.031,4085.454 747.547,4083.754 750.233,4083.754 L751.219,4083.754 L751.219,4081.442 L750.922813,4081.3853 C750.668061,4081.34069 750.383571,4081.306 749.995,4081.306 Z M769.163681,4088.548 C769.163681,4084.128 765.865681,4081.068 761.615681,4081.068 C756.855681,4081.068 753.149681,4084.91 753.149681,4089.738 C753.149681,4094.6 756.923681,4098.374 761.921681,4098.374 C764.641681,4098.374 766.885681,4097.252 768.551681,4095.484 L767.021681,4093.716 C765.661681,4095.076 764.029681,4095.96 761.955681,4095.96 C758.691681,4095.96 756.243681,4093.818 755.903681,4090.52 L768.959681,4090.52 L768.998403,4090.32906 C769.069236,4089.9505 769.163681,4089.28467 769.163681,4088.548 Z M761.547681,4083.448 C764.199681,4083.448 766.443681,4085.148 766.477681,4088.208 L756.005681,4088.208 C756.549681,4085.352 758.759681,4083.448 761.547681,4083.448 Z M788.536361,4088.548 C788.536361,4084.128 785.238361,4081.068 780.988361,4081.068 C776.228361,4081.068 772.522361,4084.91 772.522361,4089.738 C772.522361,4094.6 776.296361,4098.374 781.294361,4098.374 C784.014361,4098.374 786.258361,4097.252 787.924361,4095.484 L786.394361,4093.716 C785.034361,4095.076 783.402361,4095.96 781.328361,4095.96 C778.064361,4095.96 775.616361,4093.818 775.276361,4090.52 L788.332361,4090.52 L788.371083,4090.32906 C788.441917,4089.9505 788.536361,4089.28467 788.536361,4088.548 Z M780.920361,4083.448 C783.572361,4083.448 785.816361,4085.148 785.850361,4088.208 L775.378361,4088.208 C775.922361,4085.352 778.132361,4083.448 780.920361,4083.448 Z M800.633042,4081.068 C798.491042,4081.068 796.689042,4081.884 795.533042,4083.244 L795.533042,4081.442 L793.085042,4081.442 L793.085042,4098 L795.703042,4098 L795.703042,4087.902 C795.703042,4085.318 797.505042,4083.482 800.055042,4083.482 C802.605042,4083.482 804.169042,4085.284 804.169042,4087.902 L804.169042,4098 L806.787042,4098 L806.787042,4087.596 C806.787042,4083.754 804.543042,4081.068 800.633042,4081.068 Z M815.823722,4094.94 L812.729722,4094.94 L812.287722,4104.086 L814.429722,4104.086 L815.823722,4094.94 Z M836.855083,4081.068 C834.203083,4081.068 831.687083,4082.19 830.123083,4084.706 L831.857083,4086.134 C833.149083,4084.468 834.611083,4083.482 836.685083,4083.482 C839.133083,4083.482 840.697083,4084.876 840.697083,4087.664 L840.697083,4089.092 L835.461083,4089.092 C831.857083,4089.092 829.511083,4090.928 829.511083,4093.716 C829.511083,4096.606 831.959083,4098.374 835.291083,4098.374 C837.739083,4098.374 839.677083,4097.456 840.867083,4095.858 L840.867083,4098 L843.315083,4098 L843.315083,4087.8 C843.315083,4083.346 840.629083,4081.068 836.855083,4081.068 Z M835.631083,4096.198 C833.795083,4096.198 832.197083,4095.348 832.197083,4093.58 C832.197083,4092.016 833.455083,4091.234 835.767083,4091.234 L840.697083,4091.234 L840.697083,4091.642 C840.697083,4094.226 838.351083,4096.198 835.631083,4096.198 Z M853.813764,4081.068 C850.787764,4081.068 848.237764,4082.7 848.237764,4085.692 C848.237764,4087.99267 849.731006,4089.14957 852.103249,4090.17622 L853.949764,4090.962 L854.356603,4091.12976 C855.811264,4091.73881 856.839764,4092.305 856.839764,4093.614 C856.839764,4095.11 855.411764,4095.96 853.677764,4095.96 C851.671764,4095.96 850.277764,4094.838 848.917764,4093.41 L847.251764,4095.144 C848.577764,4096.912 850.787764,4098.374 853.711764,4098.374 C856.771764,4098.374 859.525764,4096.742 859.525764,4093.512 C859.525764,4091.24168 858.220249,4089.95845 855.424331,4088.73788 L853.153085,4087.77898 C851.632365,4087.12302 850.923764,4086.58043 850.923764,4085.556 C850.923764,4084.196 852.113764,4083.482 853.677764,4083.482 C855.241764,4083.482 856.669764,4084.196 857.757764,4085.318 L859.355764,4083.686 C858.063764,4082.088 856.193764,4081.068 853.813764,4081.068 Z M895.007125,4081.442 L890.315125,4093.614 L884.739125,4081.068 L883.753125,4081.068 L878.211125,4093.682 L873.451125,4081.442 L870.663125,4081.442 L877.701125,4098.374 L878.619125,4098.374 L884.229125,4085.862 L889.873125,4098.374 L890.825125,4098.374 L897.795125,4081.442 L895.007125,4081.442 Z M915.705806,4088.548 C915.705806,4084.128 912.407806,4081.068 908.157806,4081.068 C903.397806,4081.068 899.691806,4084.91 899.691806,4089.738 C899.691806,4094.6 903.465806,4098.374 908.463806,4098.374 C911.183806,4098.374 913.427806,4097.252 915.093806,4095.484 L913.563806,4093.716 C912.203806,4095.076 910.571806,4095.96 908.497806,4095.96 C905.233806,4095.96 902.785806,4093.818 902.445806,4090.52 L915.501806,4090.52 L915.540528,4090.32906 C915.611361,4089.9505 915.705806,4089.28467 915.705806,4088.548 Z M908.089806,4083.448 C910.741806,4083.448 912.985806,4085.148 913.019806,4088.208 L902.547806,4088.208 C903.091806,4085.352 905.301806,4083.448 908.089806,4083.448 Z M922.872486,4072.5 L920.254486,4072.5 L920.254486,4098 L922.872486,4098 L922.872486,4072.5 Z M931.195167,4072.5 L928.577167,4072.5 L928.577167,4098 L931.195167,4098 L931.195167,4072.5 Z M952.328528,4081.068 C949.676528,4081.068 947.160528,4082.19 945.596528,4084.706 L947.330528,4086.134 C948.622528,4084.468 950.084528,4083.482 952.158528,4083.482 C954.606528,4083.482 956.170528,4084.876 956.170528,4087.664 L956.170528,4089.092 L950.934528,4089.092 C947.330528,4089.092 944.984528,4090.928 944.984528,4093.716 C944.984528,4096.606 947.432528,4098.374 950.764528,4098.374 C953.212528,4098.374 955.150528,4097.456 956.340528,4095.858 L956.340528,4098 L958.788528,4098 L958.788528,4087.8 C958.788528,4083.346 956.102528,4081.068 952.328528,4081.068 Z M951.104528,4096.198 C949.268528,4096.198 947.670528,4095.348 947.670528,4093.58 C947.670528,4092.016 948.928528,4091.234 951.240528,4091.234 L956.170528,4091.234 L956.170528,4091.642 C956.170528,4094.226 953.824528,4096.198 951.104528,4096.198 Z M969.287208,4081.068 C966.261208,4081.068 963.711208,4082.7 963.711208,4085.692 C963.711208,4087.99267 965.204451,4089.14957 967.576694,4090.17622 L969.423208,4090.962 L969.830048,4091.12976 C971.284708,4091.73881 972.313208,4092.305 972.313208,4093.614 C972.313208,4095.11 970.885208,4095.96 969.151208,4095.96 C967.145208,4095.96 965.751208,4094.838 964.391208,4093.41 L962.725208,4095.144 C964.051208,4096.912 966.261208,4098.374 969.185208,4098.374 C972.245208,4098.374 974.999208,4096.742 974.999208,4093.512 C974.999208,4091.24168 973.693693,4089.95845 970.897775,4088.73788 L968.626529,4087.77898 C967.10581,4087.12302 966.397208,4086.58043 966.397208,4085.556 C966.397208,4084.196 967.587208,4083.482 969.151208,4083.482 C970.715208,4083.482 972.143208,4084.196 973.231208,4085.318 L974.829208,4083.686 C973.537208,4082.088 971.667208,4081.068 969.287208,4081.068 Z M995.99657,4095.994 C993.92257,4095.994 992.49457,4095.314 992.49457,4092.832 L992.49457,4083.788 L997.66257,4083.788 L997.66257,4081.442 L992.49457,4081.442 L992.49457,4076.92 L989.87657,4076.92 L989.87657,4081.442 L987.08857,4081.442 L987.08857,4083.788 L989.87657,4083.788 L989.87657,4093.002 C989.87657,4096.776 992.18857,4098.374 995.45257,4098.374 C996.50657,4098.374 997.35657,4098.204 998.20657,4098 L998.20657,4095.79 C997.35657,4095.926 996.64257,4095.994 995.99657,4095.994 Z M1009.65725,4081.068 C1007.51525,4081.068 1005.78125,4081.918 1004.69325,4083.312 L1004.69325,4072.5 L1002.07525,4072.5 L1002.07525,4098 L1004.69325,4098 L1004.69325,4087.936 C1004.69325,4085.352 1006.49525,4083.482 1009.04525,4083.482 C1011.59525,4083.482 1013.15925,4085.318 1013.15925,4087.936 L1013.15925,4098 L1015.77725,4098 L1015.77725,4087.596 C1015.77725,4083.754 1013.53325,4081.068 1009.65725,4081.068 Z M1036.10193,4088.548 C1036.10193,4084.128 1032.80393,4081.068 1028.55393,4081.068 C1023.79393,4081.068 1020.08793,4084.91 1020.08793,4089.738 C1020.08793,4094.6 1023.86193,4098.374 1028.85993,4098.374 C1031.57993,4098.374 1033.82393,4097.252 1035.48993,4095.484 L1033.95993,4093.716 C1032.59993,4095.076 1030.96793,4095.96 1028.89393,4095.96 C1025.62993,4095.96 1023.18193,4093.818 1022.84193,4090.52 L1035.89793,4090.52 L1035.93665,4090.32906 C1036.00749,4089.9505 1036.10193,4089.28467 1036.10193,4088.548 Z M1028.48593,4083.448 C1031.13793,4083.448 1033.38193,4085.148 1033.41593,4088.208 L1022.94393,4088.208 C1023.48793,4085.352 1025.69793,4083.448 1028.48593,4083.448 Z M1041.97661,4073.214 C1040.85461,4073.214 1040.00461,4074.064 1040.00461,4075.118 C1040.00461,4076.206 1040.85461,4077.022 1041.97661,4077.022 C1043.03061,4077.022 1043.91461,4076.206 1043.91461,4075.118 C1043.91461,4074.064 1043.03061,4073.214 1041.97661,4073.214 Z M1043.26861,4081.442 L1040.65061,4081.442 L1040.65061,4098 L1043.26861,4098 L1043.26861,4081.442 Z M1056.55529,4081.306 C1054.58329,4081.306 1052.64529,4082.19 1051.42129,4083.822 L1051.42129,4081.442 L1048.97329,4081.442 L1048.97329,4098 L1051.59129,4098 L1051.59129,4088.616 C1051.59129,4085.454 1054.10729,4083.754 1056.79329,4083.754 L1057.77929,4083.754 L1057.77929,4081.442 L1057.48311,4081.3853 C1057.22835,4081.34069 1056.94386,4081.306 1056.55529,4081.306 Z M549.023833,4113.5 L549.023833,4124.89 C547.697833,4123.122 545.419833,4122.068 542.903833,4122.068 C538.177833,4122.068 534.709833,4125.842 534.709833,4130.738 C534.709833,4135.6 538.177833,4139.374 542.903833,4139.374 C545.521833,4139.374 547.867833,4138.252 549.159833,4136.348 L549.159833,4139 L551.641833,4139 L551.641833,4113.5 L549.023833,4113.5 Z M543.277833,4136.96 C539.877833,4136.96 537.395833,4134.308 537.395833,4130.704 C537.395833,4127.1 539.911833,4124.482 543.277833,4124.482 C546.133833,4124.482 549.057833,4126.386 549.057833,4130.738 C549.057833,4135.09 546.133833,4136.96 543.277833,4136.96 Z M572.170514,4129.548 C572.170514,4125.128 568.872514,4122.068 564.622514,4122.068 C559.862514,4122.068 556.156514,4125.91 556.156514,4130.738 C556.156514,4135.6 559.930514,4139.374 564.928514,4139.374 C567.648514,4139.374 569.892514,4138.252 571.558514,4136.484 L570.028514,4134.716 C568.668514,4136.076 567.036514,4136.96 564.962514,4136.96 C561.698514,4136.96 559.250514,4134.818 558.910514,4131.52 L571.966514,4131.52 L572.005236,4131.32906 C572.076069,4130.9505 572.170514,4130.28467 572.170514,4129.548 Z M564.554514,4124.448 C567.206514,4124.448 569.450514,4126.148 569.484514,4129.208 L559.012514,4129.208 C559.556514,4126.352 561.766514,4124.448 564.554514,4124.448 Z M583.553194,4136.994 C581.479194,4136.994 580.051194,4136.314 580.051194,4133.832 L580.051194,4124.788 L585.219194,4124.788 L585.219194,4122.442 L580.051194,4122.442 L580.051194,4117.92 L577.433194,4117.92 L577.433194,4122.442 L574.645194,4122.442 L574.645194,4124.788 L577.433194,4124.788 L577.433194,4134.002 C577.433194,4137.776 579.745194,4139.374 583.009194,4139.374 C584.063194,4139.374 584.913194,4139.204 585.763194,4139 L585.763194,4136.79 C584.913194,4136.926 584.199194,4136.994 583.553194,4136.994 Z M595.581875,4122.068 C592.929875,4122.068 590.413875,4123.19 588.849875,4125.706 L590.583875,4127.134 C591.875875,4125.468 593.337875,4124.482 595.411875,4124.482 C597.859875,4124.482 599.423875,4125.876 599.423875,4128.664 L599.423875,4130.092 L594.187875,4130.092 C590.583875,4130.092 588.237875,4131.928 588.237875,4134.716 C588.237875,4137.606 590.685875,4139.374 594.017875,4139.374 C596.465875,4139.374 598.403875,4138.456 599.593875,4136.858 L599.593875,4139 L602.041875,4139 L602.041875,4128.8 C602.041875,4124.346 599.355875,4122.068 595.581875,4122.068 Z M594.357875,4137.198 C592.521875,4137.198 590.923875,4136.348 590.923875,4134.58 C590.923875,4133.016 592.181875,4132.234 594.493875,4132.234 L599.423875,4132.234 L599.423875,4132.642 C599.423875,4135.226 597.077875,4137.198 594.357875,4137.198 Z M608.868556,4114.214 C607.746556,4114.214 606.896556,4115.064 606.896556,4116.118 C606.896556,4117.206 607.746556,4118.022 608.868556,4118.022 C609.922556,4118.022 610.806556,4117.206 610.806556,4116.118 C610.806556,4115.064 609.922556,4114.214 608.868556,4114.214 Z M610.160556,4122.442 L607.542556,4122.442 L607.542556,4139 L610.160556,4139 L610.160556,4122.442 Z M618.483236,4113.5 L615.865236,4113.5 L615.865236,4139 L618.483236,4139 L618.483236,4113.5 Z M639.616597,4122.068 C636.964597,4122.068 634.448597,4123.19 632.884597,4125.706 L634.618597,4127.134 C635.910597,4125.468 637.372597,4124.482 639.446597,4124.482 C641.894597,4124.482 643.458597,4125.876 643.458597,4128.664 L643.458597,4130.092 L638.222597,4130.092 C634.618597,4130.092 632.272597,4131.928 632.272597,4134.716 C632.272597,4137.606 634.720597,4139.374 638.052597,4139.374 C640.500597,4139.374 642.438597,4138.456 643.628597,4136.858 L643.628597,4139 L646.076597,4139 L646.076597,4128.8 C646.076597,4124.346 643.390597,4122.068 639.616597,4122.068 Z M638.392597,4137.198 C636.556597,4137.198 634.958597,4136.348 634.958597,4134.58 C634.958597,4133.016 636.216597,4132.234 638.528597,4132.234 L643.458597,4132.234 L643.458597,4132.642 C643.458597,4135.226 641.112597,4137.198 638.392597,4137.198 Z M659.125278,4122.068 C656.983278,4122.068 655.181278,4122.884 654.025278,4124.244 L654.025278,4122.442 L651.577278,4122.442 L651.577278,4139 L654.195278,4139 L654.195278,4128.902 C654.195278,4126.318 655.997278,4124.482 658.547278,4124.482 C661.097278,4124.482 662.661278,4126.284 662.661278,4128.902 L662.661278,4139 L665.279278,4139 L665.279278,4128.596 C665.279278,4124.754 663.035278,4122.068 659.125278,4122.068 Z M683.903958,4113.5 L683.903958,4124.89 C682.577958,4123.122 680.299958,4122.068 677.783958,4122.068 C673.057958,4122.068 669.589958,4125.842 669.589958,4130.738 C669.589958,4135.6 673.057958,4139.374 677.783958,4139.374 C680.401958,4139.374 682.747958,4138.252 684.039958,4136.348 L684.039958,4139 L686.521958,4139 L686.521958,4113.5 L683.903958,4113.5 Z M678.157958,4136.96 C674.757958,4136.96 672.275958,4134.308 672.275958,4130.704 C672.275958,4127.1 674.791958,4124.482 678.157958,4124.482 C681.013958,4124.482 683.937958,4126.386 683.937958,4130.738 C683.937958,4135.09 681.013958,4136.96 678.157958,4136.96 Z M706.703319,4122.068 C703.677319,4122.068 701.127319,4123.7 701.127319,4126.692 C701.127319,4128.99267 702.620562,4130.14957 704.992805,4131.17622 L706.839319,4131.962 L707.246159,4132.12976 C708.700819,4132.73881 709.729319,4133.305 709.729319,4134.614 C709.729319,4136.11 708.301319,4136.96 706.567319,4136.96 C704.561319,4136.96 703.167319,4135.838 701.807319,4134.41 L700.141319,4136.144 C701.467319,4137.912 703.677319,4139.374 706.601319,4139.374 C709.661319,4139.374 712.415319,4137.742 712.415319,4134.512 C712.415319,4132.24168 711.109804,4130.95845 708.313886,4129.73788 L706.04264,4128.77898 C704.521921,4128.12302 703.813319,4127.58043 703.813319,4126.556 C703.813319,4125.196 705.003319,4124.482 706.567319,4124.482 C708.131319,4124.482 709.559319,4125.196 710.647319,4126.318 L712.245319,4124.686 C710.953319,4123.088 709.083319,4122.068 706.703319,4122.068 Z M731.924,4129.548 C731.924,4125.128 728.626,4122.068 724.376,4122.068 C719.616,4122.068 715.91,4125.91 715.91,4130.738 C715.91,4135.6 719.684,4139.374 724.682,4139.374 C727.402,4139.374 729.646,4138.252 731.312,4136.484 L729.782,4134.716 C728.422,4136.076 726.79,4136.96 724.716,4136.96 C721.452,4136.96 719.004,4134.818 718.664,4131.52 L731.72,4131.52 L731.780562,4131.20709 C731.8475,4130.81662 731.924,4130.211 731.924,4129.548 Z M724.308,4124.448 C726.96,4124.448 729.204,4126.148 729.238,4129.208 L718.766,4129.208 C719.31,4126.352 721.52,4124.448 724.308,4124.448 Z M742.422681,4122.068 C739.770681,4122.068 737.254681,4123.19 735.690681,4125.706 L737.424681,4127.134 C738.716681,4125.468 740.178681,4124.482 742.252681,4124.482 C744.700681,4124.482 746.264681,4125.876 746.264681,4128.664 L746.264681,4130.092 L741.028681,4130.092 C737.424681,4130.092 735.078681,4131.928 735.078681,4134.716 C735.078681,4137.606 737.526681,4139.374 740.858681,4139.374 C743.306681,4139.374 745.244681,4138.456 746.434681,4136.858 L746.434681,4139 L748.882681,4139 L748.882681,4128.8 C748.882681,4124.346 746.196681,4122.068 742.422681,4122.068 Z M741.198681,4137.198 C739.362681,4137.198 737.764681,4136.348 737.764681,4134.58 C737.764681,4133.016 739.022681,4132.234 741.334681,4132.234 L746.264681,4132.234 L746.264681,4132.642 C746.264681,4135.226 743.918681,4137.198 741.198681,4137.198 Z M761.965361,4122.306 C759.993361,4122.306 758.055361,4123.19 756.831361,4124.822 L756.831361,4122.442 L754.383361,4122.442 L754.383361,4139 L757.001361,4139 L757.001361,4129.616 C757.001361,4126.454 759.517361,4124.754 762.203361,4124.754 L763.189361,4124.754 L763.189361,4122.442 L762.893175,4122.3853 C762.638422,4122.34069 762.353933,4122.306 761.965361,4122.306 Z M773.790042,4122.068 C768.962042,4122.068 765.120042,4125.876 765.120042,4130.704 C765.120042,4135.566 768.962042,4139.374 773.790042,4139.374 C776.748042,4139.374 779.128042,4137.946 780.590042,4135.77 L778.720042,4134.308 C777.496042,4135.94 775.932042,4136.96 773.824042,4136.96 C770.356042,4136.96 767.806042,4134.206 767.806042,4130.704 C767.806042,4127.236 770.356042,4124.482 773.824042,4124.482 C775.966042,4124.482 777.530042,4125.536 778.754042,4127.168 L780.624042,4125.672 C779.162042,4123.496 776.782042,4122.068 773.790042,4122.068 Z M792.584722,4122.068 C790.442722,4122.068 788.708722,4122.918 787.620722,4124.312 L787.620722,4113.5 L785.002722,4113.5 L785.002722,4139 L787.620722,4139 L787.620722,4128.936 C787.620722,4126.352 789.422722,4124.482 791.972722,4124.482 C794.522722,4124.482 796.086722,4126.318 796.086722,4128.936 L796.086722,4139 L798.704722,4139 L798.704722,4128.596 C798.704722,4124.754 796.460722,4122.068 792.584722,4122.068 Z M824.428083,4122.442 L818.954083,4134.92 L813.446083,4122.442 L810.658083,4122.442 L818.478083,4139.374 L819.430083,4139.374 L827.216083,4122.442 L824.428083,4122.442 Z M832.274764,4114.214 C831.152764,4114.214 830.302764,4115.064 830.302764,4116.118 C830.302764,4117.206 831.152764,4118.022 832.274764,4118.022 C833.328764,4118.022 834.212764,4117.206 834.212764,4116.118 C834.212764,4115.064 833.328764,4114.214 832.274764,4114.214 Z M833.566764,4122.442 L830.948764,4122.442 L830.948764,4139 L833.566764,4139 L833.566764,4122.442 Z M854.095444,4129.548 C854.095444,4125.128 850.797444,4122.068 846.547444,4122.068 C841.787444,4122.068 838.081444,4125.91 838.081444,4130.738 C838.081444,4135.6 841.855444,4139.374 846.853444,4139.374 C849.573444,4139.374 851.817444,4138.252 853.483444,4136.484 L851.953444,4134.716 C850.593444,4136.076 848.961444,4136.96 846.887444,4136.96 C843.623444,4136.96 841.175444,4134.818 840.835444,4131.52 L853.891444,4131.52 L853.930167,4131.32906 C854.001,4130.9505 854.095444,4130.28467 854.095444,4129.548 Z M846.479444,4124.448 C849.131444,4124.448 851.375444,4126.148 851.409444,4129.208 L840.937444,4129.208 C841.481444,4126.352 843.691444,4124.448 846.479444,4124.448 Z M880.302125,4122.442 L875.610125,4134.614 L870.034125,4122.068 L869.048125,4122.068 L863.506125,4134.682 L858.746125,4122.442 L855.958125,4122.442 L862.996125,4139.374 L863.914125,4139.374 L869.524125,4126.862 L875.168125,4139.374 L876.120125,4139.374 L883.090125,4122.442 L880.302125,4122.442 Z M891.344806,4122.068 C888.318806,4122.068 885.768806,4123.7 885.768806,4126.692 C885.768806,4128.99267 887.262048,4130.14957 889.634291,4131.17622 L891.480806,4131.962 L892.08331,4132.21262 C893.433681,4132.79181 894.370806,4133.3645 894.370806,4134.614 C894.370806,4136.11 892.942806,4136.96 891.208806,4136.96 C889.202806,4136.96 887.808806,4135.838 886.448806,4134.41 L884.782806,4136.144 C886.108806,4137.912 888.318806,4139.374 891.242806,4139.374 C894.302806,4139.374 897.056806,4137.742 897.056806,4134.512 C897.056806,4132.24168 895.751291,4130.95845 892.955372,4129.73788 L890.684126,4128.77898 C889.163407,4128.12302 888.454806,4127.58043 888.454806,4126.556 C888.454806,4125.196 889.644806,4124.482 891.208806,4124.482 C892.772806,4124.482 894.200806,4125.196 895.288806,4126.318 L896.886806,4124.686 C895.594806,4123.088 893.724806,4122.068 891.344806,4122.068 Z M903.441486,4135.09 C904.597486,4135.09 905.583486,4135.974 905.583486,4137.232 C905.583486,4138.49 904.597486,4139.374 903.441486,4139.374 C902.285486,4139.374 901.299486,4138.49 901.299486,4137.232 C901.299486,4135.974 902.285486,4135.09 903.441486,4135.09 Z" id="industrious4"></path>
        </g>
    </g>
</svg>