<?xml version="1.0" encoding="UTF-8"?>
<svg width="796px" height="218px" viewBox="0 0 796 218" version="1.1" xmlns="http://www.w3.org/2000/svg" xmlns:xlink="http://www.w3.org/1999/xlink">
    <!-- Generator: Sketch 54.1 (76490) - https://sketchapp.com -->
    <title>Thisprojectfocusedoncreatingananimatedshortfilmthatcapturedthedifferentphasesoflife,frominfancytothebeginningofadulthood.</title>
    <desc>Created with Sketch.</desc>
    <g id="Page-1" stroke="none" stroke-width="1" fill="none" fill-rule="evenodd">
        <g id="Desktop-HD-Copy-39" transform="translate(-323.000000, -216.000000)" fill="#404648" fill-rule="nonzero">
            <path d="M376.574,221.32 L376.574,224.68 L365.39,224.68 L365.39,253 L361.646,253 L361.646,224.68 L350.51,224.68 L350.51,221.32 L376.574,221.32 Z M391.01,229.096 C396.482,229.096 399.65,232.888 399.65,238.312 L399.65,253 L395.954,253 L395.954,238.792 C395.954,235.096 393.746,232.504 390.146,232.504 C386.546,232.504 384.002,235.144 384.002,238.792 L384.002,253 L380.306,253 L380.306,217 L384.002,217 L384.002,232.264 C385.538,230.296 387.986,229.096 391.01,229.096 Z M408.086,218.008 C409.574,218.008 410.822,219.208 410.822,220.696 C410.822,222.232 409.574,223.384 408.086,223.384 C406.502,223.384 405.302,222.232 405.302,220.696 C405.302,219.208 406.502,218.008 408.086,218.008 Z M409.91,229.624 L409.91,253 L406.214,253 L406.214,229.624 L409.91,229.624 Z M423.818,229.096 C427.178,229.096 429.818,230.536 431.642,232.792 L429.386,235.096 C427.85,233.512 425.834,232.504 423.626,232.504 C421.418,232.504 419.738,233.512 419.738,235.432 C419.738,237.016 420.938,237.784 423.53,238.84 L425.69,239.752 C429.914,241.528 431.882,243.352 431.882,246.664 C431.882,251.224 427.994,253.528 423.674,253.528 C419.546,253.528 416.426,251.464 414.554,248.968 L416.906,246.52 C418.826,248.536 420.794,250.12 423.626,250.12 C426.074,250.12 428.09,248.92 428.09,246.808 C428.09,244.792 426.362,244.024 424.01,243.064 L421.754,242.104 C418.202,240.616 415.946,238.984 415.946,235.624 C415.946,231.4 419.546,229.096 423.818,229.096 Z M461.762,229.096 C468.482,229.096 473.33,234.424 473.33,241.288 C473.33,248.2 468.434,253.528 461.762,253.528 C458.306,253.528 455.042,252.088 453.17,249.592 L453.17,261.64 L449.474,261.64 L449.474,229.624 L452.93,229.624 L452.93,233.368 C454.754,230.68 458.066,229.096 461.762,229.096 Z M461.234,250.12 C465.986,250.12 469.538,246.424 469.538,241.336 C469.538,236.248 466.034,232.504 461.234,232.504 C457.202,232.504 453.122,235.144 453.122,241.288 C453.122,247.432 457.154,250.12 461.234,250.12 Z M489.254,229.432 C490.022,229.432 490.502,229.528 490.982,229.624 L490.982,232.888 L489.59,232.888 C485.798,232.888 482.246,235.288 482.246,239.752 L482.246,253 L478.55,253 L478.55,229.624 L482.006,229.624 L482.006,232.984 C483.734,230.68 486.47,229.432 489.254,229.432 Z M504.746,229.096 C511.514,229.096 516.986,234.424 516.986,241.288 C516.986,248.104 511.514,253.48 504.698,253.48 C497.93,253.432 492.506,248.152 492.506,241.288 C492.506,234.424 497.882,229.096 504.746,229.096 Z M504.746,232.504 C499.85,232.504 496.25,236.344 496.298,241.336 C496.298,246.28 499.85,250.072 504.698,250.072 C509.546,250.072 513.194,246.232 513.194,241.336 C513.194,236.296 509.546,232.504 504.746,232.504 Z M524.078,218.008 C525.566,218.008 526.814,219.208 526.814,220.696 C526.814,222.232 525.566,223.384 524.078,223.384 C522.494,223.384 521.294,222.232 521.294,220.696 C521.294,219.208 522.494,218.008 524.078,218.008 Z M525.902,229.624 L525.902,254.584 C525.902,259.912 522.686,262.168 518.222,262.168 C517.022,262.168 516.11,262.024 515.246,261.784 L515.246,258.664 C516.062,258.76 516.638,258.808 517.406,258.808 C520.238,258.808 522.206,257.8 522.206,254.344 L522.206,229.624 L525.902,229.624 Z M553.682,239.656 C553.682,240.904 553.49,242.008 553.394,242.44 L534.962,242.44 C535.442,247.096 538.898,250.12 543.506,250.12 C546.434,250.12 548.738,248.872 550.658,246.952 L552.818,249.448 C550.466,251.944 547.298,253.528 543.458,253.528 C536.402,253.528 531.074,248.2 531.074,241.336 C531.074,234.52 536.306,229.096 543.026,229.096 C549.026,229.096 553.682,233.416 553.682,239.656 Z M542.93,232.456 C538.994,232.456 535.874,235.144 535.106,239.176 L549.89,239.176 C549.842,234.856 546.674,232.456 542.93,232.456 Z M569.462,229.096 C573.686,229.096 577.046,231.112 579.11,234.184 L576.47,236.296 C574.742,233.992 572.534,232.504 569.51,232.504 C564.614,232.504 561.014,236.392 561.014,241.288 C561.014,246.232 564.614,250.12 569.51,250.12 C572.486,250.12 574.694,248.68 576.422,246.376 L579.062,248.44 C576.998,251.512 573.638,253.528 569.462,253.528 C562.646,253.528 557.222,248.152 557.222,241.288 C557.222,234.472 562.646,229.096 569.462,229.096 Z M593.738,250.168 C594.65,250.168 595.658,250.072 596.858,249.88 L596.858,253 C595.658,253.288 594.458,253.528 592.97,253.528 C588.362,253.528 585.098,251.272 585.098,245.944 L585.098,232.936 L581.162,232.936 L581.162,229.624 L585.098,229.624 L585.098,223.24 L588.794,223.24 L588.794,229.624 L596.09,229.624 L596.09,232.936 L588.794,232.936 L588.794,245.704 C588.794,249.208 590.81,250.168 593.738,250.168 Z M622.466,219.832 C619.586,219.832 617.57,220.792 617.57,224.296 L617.57,229.624 L623.426,229.624 L623.426,232.936 L617.57,232.936 L617.57,253 L613.874,253 L613.874,232.936 L610.514,232.936 L610.514,229.624 L613.874,229.624 L613.874,224.056 C613.874,218.728 617.09,216.472 621.602,216.472 C622.754,216.472 623.666,216.616 624.53,216.856 L624.53,219.976 C623.762,219.88 623.09,219.832 622.466,219.832 Z M637.142,229.096 C643.91,229.096 649.382,234.424 649.382,241.288 C649.382,248.104 643.91,253.48 637.094,253.48 C630.326,253.432 624.902,248.152 624.902,241.288 C624.902,234.424 630.278,229.096 637.142,229.096 Z M637.142,232.504 C632.246,232.504 628.646,236.344 628.694,241.336 C628.694,246.28 632.246,250.072 637.094,250.072 C641.942,250.072 645.59,246.232 645.59,241.336 C645.59,236.296 641.942,232.504 637.142,232.504 Z M665.162,229.096 C669.386,229.096 672.746,231.112 674.81,234.184 L672.17,236.296 C670.442,233.992 668.234,232.504 665.21,232.504 C660.314,232.504 656.714,236.392 656.714,241.288 C656.714,246.232 660.314,250.12 665.21,250.12 C668.186,250.12 670.394,248.68 672.122,246.376 L674.762,248.44 C672.698,251.512 669.338,253.528 665.162,253.528 C658.346,253.528 652.922,248.152 652.922,241.288 C652.922,234.472 658.346,229.096 665.162,229.096 Z M698.846,229.624 L698.846,243.688 C698.846,249.688 694.574,253.528 689.198,253.528 C683.726,253.528 679.502,249.688 679.502,243.688 L679.502,229.624 L683.15,229.624 L683.15,243.928 C683.15,247.768 685.838,250.12 689.198,250.12 C692.462,250.12 695.15,247.768 695.15,243.928 L695.15,229.624 L698.846,229.624 Z M712.466,229.096 C715.826,229.096 718.466,230.536 720.29,232.792 L718.034,235.096 C716.498,233.512 714.482,232.504 712.274,232.504 C710.066,232.504 708.386,233.512 708.386,235.432 C708.386,237.016 709.586,237.784 712.178,238.84 L714.338,239.752 C718.562,241.528 720.53,243.352 720.53,246.664 C720.53,251.224 716.642,253.528 712.322,253.528 C708.194,253.528 705.074,251.464 703.202,248.968 L705.554,246.52 C707.474,248.536 709.442,250.12 712.274,250.12 C714.722,250.12 716.738,248.92 716.738,246.808 C716.738,244.792 715.01,244.024 712.658,243.064 L710.402,242.104 C706.85,240.616 704.594,238.984 704.594,235.624 C704.594,231.4 708.194,229.096 712.466,229.096 Z M746.87,239.656 C746.87,240.904 746.678,242.008 746.582,242.44 L728.15,242.44 C728.63,247.096 732.086,250.12 736.694,250.12 C739.622,250.12 741.926,248.872 743.846,246.952 L746.006,249.448 C743.654,251.944 740.486,253.528 736.646,253.528 C729.59,253.528 724.262,248.2 724.262,241.336 C724.262,234.52 729.494,229.096 736.214,229.096 C742.214,229.096 746.87,233.416 746.87,239.656 Z M736.118,232.456 C732.182,232.456 729.062,235.144 728.294,239.176 L743.078,239.176 C743.03,234.856 739.862,232.456 736.118,232.456 Z M770.618,217 L774.314,217 L774.314,253 L770.81,253 L770.81,249.256 C768.986,251.944 765.674,253.528 761.978,253.528 C755.306,253.528 750.41,248.2 750.41,241.336 C750.41,234.424 755.306,229.096 761.978,229.096 C765.53,229.096 768.746,230.584 770.618,233.08 L770.618,217 Z M762.506,250.12 C766.538,250.12 770.666,247.48 770.666,241.336 C770.666,235.192 766.538,232.504 762.506,232.504 C757.754,232.504 754.202,236.2 754.202,241.288 C754.202,246.376 757.706,250.12 762.506,250.12 Z M803.906,229.096 C810.674,229.096 816.146,234.424 816.146,241.288 C816.146,248.104 810.674,253.48 803.858,253.48 C797.09,253.432 791.666,248.152 791.666,241.288 C791.666,234.424 797.042,229.096 803.906,229.096 Z M803.906,232.504 C799.01,232.504 795.41,236.344 795.458,241.336 C795.458,246.28 799.01,250.072 803.858,250.072 C808.706,250.072 812.354,246.232 812.354,241.336 C812.354,236.296 808.706,232.504 803.906,232.504 Z M832.022,229.096 C837.542,229.096 840.71,232.888 840.71,238.312 L840.71,253 L837.014,253 L837.014,238.744 C837.014,235.048 834.806,232.504 831.206,232.504 C827.606,232.504 825.062,235.096 825.062,238.744 L825.062,253 L821.366,253 L821.366,229.624 L824.822,229.624 L824.822,232.168 C826.454,230.248 828.998,229.096 832.022,229.096 Z M870.014,229.096 C874.238,229.096 877.598,231.112 879.662,234.184 L877.022,236.296 C875.294,233.992 873.086,232.504 870.062,232.504 C865.166,232.504 861.566,236.392 861.566,241.288 C861.566,246.232 865.166,250.12 870.062,250.12 C873.038,250.12 875.246,248.68 876.974,246.376 L879.614,248.44 C877.55,251.512 874.19,253.528 870.014,253.528 C863.198,253.528 857.774,248.152 857.774,241.288 C857.774,234.472 863.198,229.096 870.014,229.096 Z M895.346,229.432 C896.114,229.432 896.594,229.528 897.074,229.624 L897.074,232.888 L895.682,232.888 C891.89,232.888 888.338,235.288 888.338,239.752 L888.338,253 L884.642,253 L884.642,229.624 L888.098,229.624 L888.098,232.984 C889.826,230.68 892.562,229.432 895.346,229.432 Z M921.206,239.656 C921.206,240.904 921.014,242.008 920.918,242.44 L902.486,242.44 C902.966,247.096 906.422,250.12 911.03,250.12 C913.958,250.12 916.262,248.872 918.182,246.952 L920.342,249.448 C917.99,251.944 914.822,253.528 910.982,253.528 C903.926,253.528 898.598,248.2 898.598,241.336 C898.598,234.52 903.83,229.096 910.55,229.096 C916.55,229.096 921.206,233.416 921.206,239.656 Z M910.454,232.456 C906.518,232.456 903.398,235.144 902.63,239.176 L917.414,239.176 C917.366,234.856 914.198,232.456 910.454,232.456 Z M934.826,229.096 C940.154,229.096 943.946,232.312 943.946,238.6 L943.946,253 L940.49,253 L940.49,249.976 C938.81,252.232 936.074,253.528 932.618,253.528 C927.914,253.528 924.458,251.032 924.458,246.952 C924.458,243.016 927.77,240.424 932.858,240.424 L940.25,240.424 L940.25,238.408 C940.25,234.472 938.042,232.504 934.586,232.504 C931.658,232.504 929.594,233.896 927.77,236.248 L925.322,234.232 C927.53,230.68 931.082,229.096 934.826,229.096 Z M933.098,250.456 C936.938,250.456 940.25,247.672 940.25,244.024 L940.25,243.448 L933.29,243.448 C930.026,243.448 928.25,244.552 928.25,246.76 C928.25,249.256 930.506,250.456 933.098,250.456 Z M960.158,250.168 C961.07,250.168 962.078,250.072 963.278,249.88 L963.278,253 C962.078,253.288 960.878,253.528 959.39,253.528 C954.782,253.528 951.518,251.272 951.518,245.944 L951.518,232.936 L947.582,232.936 L947.582,229.624 L951.518,229.624 L951.518,223.24 L955.214,223.24 L955.214,229.624 L962.51,229.624 L962.51,232.936 L955.214,232.936 L955.214,245.704 C955.214,249.208 957.23,250.168 960.158,250.168 Z M969.41,218.008 C970.898,218.008 972.146,219.208 972.146,220.696 C972.146,222.232 970.898,223.384 969.41,223.384 C967.826,223.384 966.626,222.232 966.626,220.696 C966.626,219.208 967.826,218.008 969.41,218.008 Z M971.234,229.624 L971.234,253 L967.538,253 L967.538,229.624 L971.234,229.624 Z M988.742,229.096 C994.262,229.096 997.43,232.888 997.43,238.312 L997.43,253 L993.734,253 L993.734,238.744 C993.734,235.048 991.526,232.504 987.926,232.504 C984.326,232.504 981.782,235.096 981.782,238.744 L981.782,253 L978.086,253 L978.086,229.624 L981.542,229.624 L981.542,232.168 C983.174,230.248 985.718,229.096 988.742,229.096 Z M1022.954,229.624 L1026.458,229.624 L1026.458,250.744 C1026.458,257.944 1021.898,262.168 1015.082,262.168 C1010.186,262.168 1006.394,259.96 1004.09,257.656 L1006.25,255.064 C1008.506,257.032 1011.146,258.76 1014.986,258.76 C1019.738,258.76 1022.762,256.12 1022.762,250.936 L1022.762,248.872 C1020.842,251.32 1017.578,252.76 1014.074,252.76 C1007.498,252.76 1002.602,247.768 1002.602,240.952 C1002.602,234.184 1007.498,229.096 1014.074,229.096 C1017.77,229.096 1021.13,230.728 1022.954,233.416 L1022.954,229.624 Z M1014.65,249.352 C1018.73,249.352 1022.81,246.808 1022.81,240.952 C1022.81,235.096 1018.682,232.6 1014.65,232.6 C1009.898,232.6 1006.346,236.056 1006.346,241 C1006.346,245.944 1009.898,249.352 1014.65,249.352 Z M1053.89,229.096 C1059.218,229.096 1063.01,232.312 1063.01,238.6 L1063.01,253 L1059.554,253 L1059.554,249.976 C1057.874,252.232 1055.138,253.528 1051.682,253.528 C1046.978,253.528 1043.522,251.032 1043.522,246.952 C1043.522,243.016 1046.834,240.424 1051.922,240.424 L1059.314,240.424 L1059.314,238.408 C1059.314,234.472 1057.106,232.504 1053.65,232.504 C1050.722,232.504 1048.658,233.896 1046.834,236.248 L1044.386,234.232 C1046.594,230.68 1050.146,229.096 1053.89,229.096 Z M1052.162,250.456 C1056.002,250.456 1059.314,247.672 1059.314,244.024 L1059.314,243.448 L1052.354,243.448 C1049.09,243.448 1047.314,244.552 1047.314,246.76 C1047.314,249.256 1049.57,250.456 1052.162,250.456 Z M1080.23,229.096 C1085.75,229.096 1088.918,232.888 1088.918,238.312 L1088.918,253 L1085.222,253 L1085.222,238.744 C1085.222,235.048 1083.014,232.504 1079.414,232.504 C1075.814,232.504 1073.27,235.096 1073.27,238.744 L1073.27,253 L1069.574,253 L1069.574,229.624 L1073.03,229.624 L1073.03,232.168 C1074.662,230.248 1077.206,229.096 1080.23,229.096 Z M339.794,286.096 C345.122,286.096 348.914,289.312 348.914,295.6 L348.914,310 L345.458,310 L345.458,306.976 C343.778,309.232 341.042,310.528 337.586,310.528 C332.882,310.528 329.426,308.032 329.426,303.952 C329.426,300.016 332.738,297.424 337.826,297.424 L345.218,297.424 L345.218,295.408 C345.218,291.472 343.01,289.504 339.554,289.504 C336.626,289.504 334.562,290.896 332.738,293.248 L330.29,291.232 C332.498,287.68 336.05,286.096 339.794,286.096 Z M338.066,307.456 C341.906,307.456 345.218,304.672 345.218,301.024 L345.218,300.448 L338.258,300.448 C334.994,300.448 333.218,301.552 333.218,303.76 C333.218,306.256 335.474,307.456 338.066,307.456 Z M366.134,286.096 C371.654,286.096 374.822,289.888 374.822,295.312 L374.822,310 L371.126,310 L371.126,295.744 C371.126,292.048 368.918,289.504 365.318,289.504 C361.718,289.504 359.174,292.096 359.174,295.744 L359.174,310 L355.478,310 L355.478,286.624 L358.934,286.624 L358.934,289.168 C360.566,287.248 363.11,286.096 366.134,286.096 Z M383.258,275.008 C384.746,275.008 385.994,276.208 385.994,277.696 C385.994,279.232 384.746,280.384 383.258,280.384 C381.674,280.384 380.474,279.232 380.474,277.696 C380.474,276.208 381.674,275.008 383.258,275.008 Z M385.082,286.624 L385.082,310 L381.386,310 L381.386,286.624 L385.082,286.624 Z M417.566,286.096 C423.038,286.096 426.062,289.888 426.062,295.312 L426.062,310 L422.366,310 L422.366,295.792 C422.366,292.096 420.35,289.504 416.846,289.504 C413.294,289.504 410.846,292.192 410.846,295.456 L410.846,310 L407.15,310 L407.15,295.792 C407.15,292.096 405.038,289.504 401.582,289.504 C398.03,289.504 395.63,292.096 395.63,295.792 L395.63,310 L391.934,310 L391.934,286.624 L395.39,286.624 L395.39,289.072 C397.022,287.2 399.422,286.096 402.35,286.096 C405.854,286.096 408.254,287.68 409.55,290.128 C411.182,287.776 413.966,286.096 417.566,286.096 Z M441.026,286.096 C446.354,286.096 450.146,289.312 450.146,295.6 L450.146,310 L446.69,310 L446.69,306.976 C445.01,309.232 442.274,310.528 438.818,310.528 C434.114,310.528 430.658,308.032 430.658,303.952 C430.658,300.016 433.97,297.424 439.058,297.424 L446.45,297.424 L446.45,295.408 C446.45,291.472 444.242,289.504 440.786,289.504 C437.858,289.504 435.794,290.896 433.97,293.248 L431.522,291.232 C433.73,287.68 437.282,286.096 441.026,286.096 Z M439.298,307.456 C443.138,307.456 446.45,304.672 446.45,301.024 L446.45,300.448 L439.49,300.448 C436.226,300.448 434.45,301.552 434.45,303.76 C434.45,306.256 436.706,307.456 439.298,307.456 Z M466.358,307.168 C467.27,307.168 468.278,307.072 469.478,306.88 L469.478,310 C468.278,310.288 467.078,310.528 465.59,310.528 C460.982,310.528 457.718,308.272 457.718,302.944 L457.718,289.936 L453.782,289.936 L453.782,286.624 L457.718,286.624 L457.718,280.24 L461.414,280.24 L461.414,286.624 L468.71,286.624 L468.71,289.936 L461.414,289.936 L461.414,302.704 C461.414,306.208 463.43,307.168 466.358,307.168 Z M494.186,296.656 C494.186,297.904 493.994,299.008 493.898,299.44 L475.466,299.44 C475.946,304.096 479.402,307.12 484.01,307.12 C486.938,307.12 489.242,305.872 491.162,303.952 L493.322,306.448 C490.97,308.944 487.802,310.528 483.962,310.528 C476.906,310.528 471.578,305.2 471.578,298.336 C471.578,291.52 476.81,286.096 483.53,286.096 C489.53,286.096 494.186,290.416 494.186,296.656 Z M483.434,289.456 C479.498,289.456 476.378,292.144 475.61,296.176 L490.394,296.176 C490.346,291.856 487.178,289.456 483.434,289.456 Z M517.934,274 L521.63,274 L521.63,310 L518.126,310 L518.126,306.256 C516.302,308.944 512.99,310.528 509.294,310.528 C502.622,310.528 497.726,305.2 497.726,298.336 C497.726,291.424 502.622,286.096 509.294,286.096 C512.846,286.096 516.062,287.584 517.934,290.08 L517.934,274 Z M509.822,307.12 C513.854,307.12 517.982,304.48 517.982,298.336 C517.982,292.192 513.854,289.504 509.822,289.504 C505.07,289.504 501.518,293.2 501.518,298.288 C501.518,303.376 505.022,307.12 509.822,307.12 Z M547.718,286.096 C551.078,286.096 553.718,287.536 555.542,289.792 L553.286,292.096 C551.75,290.512 549.734,289.504 547.526,289.504 C545.318,289.504 543.638,290.512 543.638,292.432 C543.638,294.016 544.838,294.784 547.43,295.84 L549.59,296.752 C553.814,298.528 555.782,300.352 555.782,303.664 C555.782,308.224 551.894,310.528 547.574,310.528 C543.446,310.528 540.326,308.464 538.454,305.968 L540.806,303.52 C542.726,305.536 544.694,307.12 547.526,307.12 C549.974,307.12 551.99,305.92 551.99,303.808 C551.99,301.792 550.262,301.024 547.91,300.064 L545.654,299.104 C542.102,297.616 539.846,295.984 539.846,292.624 C539.846,288.4 543.446,286.096 547.718,286.096 Z M571.898,286.096 C577.37,286.096 580.538,289.888 580.538,295.312 L580.538,310 L576.842,310 L576.842,295.792 C576.842,292.096 574.634,289.504 571.034,289.504 C567.434,289.504 564.89,292.144 564.89,295.792 L564.89,310 L561.194,310 L561.194,274 L564.89,274 L564.89,289.264 C566.426,287.296 568.874,286.096 571.898,286.096 Z M597.662,286.096 C604.43,286.096 609.902,291.424 609.902,298.288 C609.902,305.104 604.43,310.48 597.614,310.48 C590.846,310.432 585.422,305.152 585.422,298.288 C585.422,291.424 590.798,286.096 597.662,286.096 Z M597.662,289.504 C592.766,289.504 589.166,293.344 589.214,298.336 C589.214,303.28 592.766,307.072 597.614,307.072 C602.462,307.072 606.11,303.232 606.11,298.336 C606.11,293.296 602.462,289.504 597.662,289.504 Z M625.826,286.432 C626.594,286.432 627.074,286.528 627.554,286.624 L627.554,289.888 L626.162,289.888 C622.37,289.888 618.818,292.288 618.818,296.752 L618.818,310 L615.122,310 L615.122,286.624 L618.578,286.624 L618.578,289.984 C620.306,287.68 623.042,286.432 625.826,286.432 Z M640.886,307.168 C641.798,307.168 642.806,307.072 644.006,306.88 L644.006,310 C642.806,310.288 641.606,310.528 640.118,310.528 C635.51,310.528 632.246,308.272 632.246,302.944 L632.246,289.936 L628.31,289.936 L628.31,286.624 L632.246,286.624 L632.246,280.24 L635.942,280.24 L635.942,286.624 L643.238,286.624 L643.238,289.936 L635.942,289.936 L635.942,302.704 C635.942,306.208 637.958,307.168 640.886,307.168 Z M669.614,276.832 C666.734,276.832 664.718,277.792 664.718,281.296 L664.718,286.624 L670.574,286.624 L670.574,289.936 L664.718,289.936 L664.718,310 L661.022,310 L661.022,289.936 L657.662,289.936 L657.662,286.624 L661.022,286.624 L661.022,281.056 C661.022,275.728 664.238,273.472 668.75,273.472 C669.902,273.472 670.814,273.616 671.678,273.856 L671.678,276.976 C670.91,276.88 670.238,276.832 669.614,276.832 Z M676.322,275.008 C677.81,275.008 679.058,276.208 679.058,277.696 C679.058,279.232 677.81,280.384 676.322,280.384 C674.738,280.384 673.538,279.232 673.538,277.696 C673.538,276.208 674.738,275.008 676.322,275.008 Z M678.146,286.624 L678.146,310 L674.45,310 L674.45,286.624 L678.146,286.624 Z M688.694,274 L688.694,310 L684.998,310 L684.998,274 L688.694,274 Z M721.178,286.096 C726.65,286.096 729.674,289.888 729.674,295.312 L729.674,310 L725.978,310 L725.978,295.792 C725.978,292.096 723.962,289.504 720.458,289.504 C716.906,289.504 714.458,292.192 714.458,295.456 L714.458,310 L710.762,310 L710.762,295.792 C710.762,292.096 708.65,289.504 705.194,289.504 C701.642,289.504 699.242,292.096 699.242,295.792 L699.242,310 L695.546,310 L695.546,286.624 L699.002,286.624 L699.002,289.072 C700.634,287.2 703.034,286.096 705.962,286.096 C709.466,286.096 711.866,287.68 713.162,290.128 C714.794,287.776 717.578,286.096 721.178,286.096 Z M758.066,307.168 C758.978,307.168 759.986,307.072 761.186,306.88 L761.186,310 C759.986,310.288 758.786,310.528 757.298,310.528 C752.69,310.528 749.426,308.272 749.426,302.944 L749.426,289.936 L745.49,289.936 L745.49,286.624 L749.426,286.624 L749.426,280.24 L753.122,280.24 L753.122,286.624 L760.418,286.624 L760.418,289.936 L753.122,289.936 L753.122,302.704 C753.122,306.208 755.138,307.168 758.066,307.168 Z M776.15,286.096 C781.622,286.096 784.79,289.888 784.79,295.312 L784.79,310 L781.094,310 L781.094,295.792 C781.094,292.096 778.886,289.504 775.286,289.504 C771.686,289.504 769.142,292.144 769.142,295.792 L769.142,310 L765.446,310 L765.446,274 L769.142,274 L769.142,289.264 C770.678,287.296 773.126,286.096 776.15,286.096 Z M799.754,286.096 C805.082,286.096 808.874,289.312 808.874,295.6 L808.874,310 L805.418,310 L805.418,306.976 C803.738,309.232 801.002,310.528 797.546,310.528 C792.842,310.528 789.386,308.032 789.386,303.952 C789.386,300.016 792.698,297.424 797.786,297.424 L805.178,297.424 L805.178,295.408 C805.178,291.472 802.97,289.504 799.514,289.504 C796.586,289.504 794.522,290.896 792.698,293.248 L790.25,291.232 C792.458,287.68 796.01,286.096 799.754,286.096 Z M798.026,307.456 C801.866,307.456 805.178,304.672 805.178,301.024 L805.178,300.448 L798.218,300.448 C794.954,300.448 793.178,301.552 793.178,303.76 C793.178,306.256 795.434,307.456 798.026,307.456 Z M825.086,307.168 C825.998,307.168 827.006,307.072 828.206,306.88 L828.206,310 C827.006,310.288 825.806,310.528 824.318,310.528 C819.71,310.528 816.446,308.272 816.446,302.944 L816.446,289.936 L812.51,289.936 L812.51,286.624 L816.446,286.624 L816.446,280.24 L820.142,280.24 L820.142,286.624 L827.438,286.624 L827.438,289.936 L820.142,289.936 L820.142,302.704 C820.142,306.208 822.158,307.168 825.086,307.168 Z M855.206,286.096 C859.43,286.096 862.79,288.112 864.854,291.184 L862.214,293.296 C860.486,290.992 858.278,289.504 855.254,289.504 C850.358,289.504 846.758,293.392 846.758,298.288 C846.758,303.232 850.358,307.12 855.254,307.12 C858.23,307.12 860.438,305.68 862.166,303.376 L864.806,305.44 C862.742,308.512 859.382,310.528 855.206,310.528 C848.39,310.528 842.966,305.152 842.966,298.288 C842.966,291.472 848.39,286.096 855.206,286.096 Z M878.234,286.096 C883.562,286.096 887.354,289.312 887.354,295.6 L887.354,310 L883.898,310 L883.898,306.976 C882.218,309.232 879.482,310.528 876.026,310.528 C871.322,310.528 867.866,308.032 867.866,303.952 C867.866,300.016 871.178,297.424 876.266,297.424 L883.658,297.424 L883.658,295.408 C883.658,291.472 881.45,289.504 877.994,289.504 C875.066,289.504 873.002,290.896 871.178,293.248 L868.73,291.232 C870.938,287.68 874.49,286.096 878.234,286.096 Z M876.506,307.456 C880.346,307.456 883.658,304.672 883.658,301.024 L883.658,300.448 L876.698,300.448 C873.434,300.448 871.658,301.552 871.658,303.76 C871.658,306.256 873.914,307.456 876.506,307.456 Z M906.206,286.096 C912.926,286.096 917.774,291.424 917.774,298.288 C917.774,305.2 912.878,310.528 906.206,310.528 C902.75,310.528 899.486,309.088 897.614,306.592 L897.614,318.64 L893.918,318.64 L893.918,286.624 L897.374,286.624 L897.374,290.368 C899.198,287.68 902.51,286.096 906.206,286.096 Z M905.678,307.12 C910.43,307.12 913.982,303.424 913.982,298.336 C913.982,293.248 910.478,289.504 905.678,289.504 C901.646,289.504 897.566,292.144 897.566,298.288 C897.566,304.432 901.598,307.12 905.678,307.12 Z M932.642,307.168 C933.554,307.168 934.562,307.072 935.762,306.88 L935.762,310 C934.562,310.288 933.362,310.528 931.874,310.528 C927.266,310.528 924.002,308.272 924.002,302.944 L924.002,289.936 L920.066,289.936 L920.066,286.624 L924.002,286.624 L924.002,280.24 L927.698,280.24 L927.698,286.624 L934.994,286.624 L934.994,289.936 L927.698,289.936 L927.698,302.704 C927.698,306.208 929.714,307.168 932.642,307.168 Z M959.078,286.624 L959.078,300.688 C959.078,306.688 954.806,310.528 949.43,310.528 C943.958,310.528 939.734,306.688 939.734,300.688 L939.734,286.624 L943.382,286.624 L943.382,300.928 C943.382,304.768 946.07,307.12 949.43,307.12 C952.694,307.12 955.382,304.768 955.382,300.928 L955.382,286.624 L959.078,286.624 Z M976.346,286.432 C977.114,286.432 977.594,286.528 978.074,286.624 L978.074,289.888 L976.682,289.888 C972.89,289.888 969.338,292.288 969.338,296.752 L969.338,310 L965.642,310 L965.642,286.624 L969.098,286.624 L969.098,289.984 C970.826,287.68 973.562,286.432 976.346,286.432 Z M1002.206,296.656 C1002.206,297.904 1002.014,299.008 1001.918,299.44 L983.486,299.44 C983.966,304.096 987.422,307.12 992.03,307.12 C994.958,307.12 997.262,305.872 999.182,303.952 L1001.342,306.448 C998.99,308.944 995.822,310.528 991.982,310.528 C984.926,310.528 979.598,305.2 979.598,298.336 C979.598,291.52 984.83,286.096 991.55,286.096 C997.55,286.096 1002.206,290.416 1002.206,296.656 Z M991.454,289.456 C987.518,289.456 984.398,292.144 983.63,296.176 L998.414,296.176 C998.366,291.856 995.198,289.456 991.454,289.456 Z M1025.954,274 L1029.65,274 L1029.65,310 L1026.146,310 L1026.146,306.256 C1024.322,308.944 1021.01,310.528 1017.314,310.528 C1010.642,310.528 1005.746,305.2 1005.746,298.336 C1005.746,291.424 1010.642,286.096 1017.314,286.096 C1020.866,286.096 1024.082,287.584 1025.954,290.08 L1025.954,274 Z M1017.842,307.12 C1021.874,307.12 1026.002,304.48 1026.002,298.336 C1026.002,292.192 1021.874,289.504 1017.842,289.504 C1013.09,289.504 1009.538,293.2 1009.538,298.288 C1009.538,303.376 1013.042,307.12 1017.842,307.12 Z M1058.33,307.168 C1059.242,307.168 1060.25,307.072 1061.45,306.88 L1061.45,310 C1060.25,310.288 1059.05,310.528 1057.562,310.528 C1052.954,310.528 1049.69,308.272 1049.69,302.944 L1049.69,289.936 L1045.754,289.936 L1045.754,286.624 L1049.69,286.624 L1049.69,280.24 L1053.386,280.24 L1053.386,286.624 L1060.682,286.624 L1060.682,289.936 L1053.386,289.936 L1053.386,302.704 C1053.386,306.208 1055.402,307.168 1058.33,307.168 Z M1076.414,286.096 C1081.886,286.096 1085.054,289.888 1085.054,295.312 L1085.054,310 L1081.358,310 L1081.358,295.792 C1081.358,292.096 1079.15,289.504 1075.55,289.504 C1071.95,289.504 1069.406,292.144 1069.406,295.792 L1069.406,310 L1065.71,310 L1065.71,274 L1069.406,274 L1069.406,289.264 C1070.942,287.296 1073.39,286.096 1076.414,286.096 Z M1112.546,296.656 C1112.546,297.904 1112.354,299.008 1112.258,299.44 L1093.826,299.44 C1094.306,304.096 1097.762,307.12 1102.37,307.12 C1105.298,307.12 1107.602,305.872 1109.522,303.952 L1111.682,306.448 C1109.33,308.944 1106.162,310.528 1102.322,310.528 C1095.266,310.528 1089.938,305.2 1089.938,298.336 C1089.938,291.52 1095.17,286.096 1101.89,286.096 C1107.89,286.096 1112.546,290.416 1112.546,296.656 Z M1101.794,289.456 C1097.858,289.456 1094.738,292.144 1093.97,296.176 L1108.754,296.176 C1108.706,291.856 1105.538,289.456 1101.794,289.456 Z M343.706,331 L347.402,331 L347.402,367 L343.898,367 L343.898,363.256 C342.074,365.944 338.762,367.528 335.066,367.528 C328.394,367.528 323.498,362.2 323.498,355.336 C323.498,348.424 328.394,343.096 335.066,343.096 C338.618,343.096 341.834,344.584 343.706,347.08 L343.706,331 Z M335.594,364.12 C339.626,364.12 343.754,361.48 343.754,355.336 C343.754,349.192 339.626,346.504 335.594,346.504 C330.842,346.504 327.29,350.2 327.29,355.288 C327.29,360.376 330.794,364.12 335.594,364.12 Z M356.126,332.008 C357.614,332.008 358.862,333.208 358.862,334.696 C358.862,336.232 357.614,337.384 356.126,337.384 C354.542,337.384 353.342,336.232 353.342,334.696 C353.342,333.208 354.542,332.008 356.126,332.008 Z M357.95,343.624 L357.95,367 L354.254,367 L354.254,343.624 L357.95,343.624 Z M373.97,333.832 C371.09,333.832 369.074,334.792 369.074,338.296 L369.074,343.624 L374.93,343.624 L374.93,346.936 L369.074,346.936 L369.074,367 L365.378,367 L365.378,346.936 L362.018,346.936 L362.018,343.624 L365.378,343.624 L365.378,338.056 C365.378,332.728 368.594,330.472 373.106,330.472 C374.258,330.472 375.17,330.616 376.034,330.856 L376.034,333.976 C375.266,333.88 374.594,333.832 373.97,333.832 Z M385.814,333.832 C382.934,333.832 380.918,334.792 380.918,338.296 L380.918,343.624 L386.774,343.624 L386.774,346.936 L380.918,346.936 L380.918,367 L377.222,367 L377.222,346.936 L373.862,346.936 L373.862,343.624 L377.222,343.624 L377.222,338.056 C377.222,332.728 380.438,330.472 384.95,330.472 C386.102,330.472 387.014,330.616 387.878,330.856 L387.878,333.976 C387.11,333.88 386.438,333.832 385.814,333.832 Z M410.858,353.656 C410.858,354.904 410.666,356.008 410.57,356.44 L392.138,356.44 C392.618,361.096 396.074,364.12 400.682,364.12 C403.61,364.12 405.914,362.872 407.834,360.952 L409.994,363.448 C407.642,365.944 404.474,367.528 400.634,367.528 C393.578,367.528 388.25,362.2 388.25,355.336 C388.25,348.52 393.482,343.096 400.202,343.096 C406.202,343.096 410.858,347.416 410.858,353.656 Z M400.106,346.456 C396.17,346.456 393.05,349.144 392.282,353.176 L407.066,353.176 C407.018,348.856 403.85,346.456 400.106,346.456 Z M426.782,343.432 C427.55,343.432 428.03,343.528 428.51,343.624 L428.51,346.888 L427.118,346.888 C423.326,346.888 419.774,349.288 419.774,353.752 L419.774,367 L416.078,367 L416.078,343.624 L419.534,343.624 L419.534,346.984 C421.262,344.68 423.998,343.432 426.782,343.432 Z M452.642,353.656 C452.642,354.904 452.45,356.008 452.354,356.44 L433.922,356.44 C434.402,361.096 437.858,364.12 442.466,364.12 C445.394,364.12 447.698,362.872 449.618,360.952 L451.778,363.448 C449.426,365.944 446.258,367.528 442.418,367.528 C435.362,367.528 430.034,362.2 430.034,355.336 C430.034,348.52 435.266,343.096 441.986,343.096 C447.986,343.096 452.642,347.416 452.642,353.656 Z M441.89,346.456 C437.954,346.456 434.834,349.144 434.066,353.176 L448.85,353.176 C448.802,348.856 445.634,346.456 441.89,346.456 Z M468.518,343.096 C474.038,343.096 477.206,346.888 477.206,352.312 L477.206,367 L473.51,367 L473.51,352.744 C473.51,349.048 471.302,346.504 467.702,346.504 C464.102,346.504 461.558,349.096 461.558,352.744 L461.558,367 L457.862,367 L457.862,343.624 L461.318,343.624 L461.318,346.168 C462.95,344.248 465.494,343.096 468.518,343.096 Z M493.418,364.168 C494.33,364.168 495.338,364.072 496.538,363.88 L496.538,367 C495.338,367.288 494.138,367.528 492.65,367.528 C488.042,367.528 484.778,365.272 484.778,359.944 L484.778,346.936 L480.842,346.936 L480.842,343.624 L484.778,343.624 L484.778,337.24 L488.474,337.24 L488.474,343.624 L495.77,343.624 L495.77,346.936 L488.474,346.936 L488.474,359.704 C488.474,363.208 490.49,364.168 493.418,364.168 Z M525.266,343.096 C531.986,343.096 536.834,348.424 536.834,355.288 C536.834,362.2 531.938,367.528 525.266,367.528 C521.81,367.528 518.546,366.088 516.674,363.592 L516.674,375.64 L512.978,375.64 L512.978,343.624 L516.434,343.624 L516.434,347.368 C518.258,344.68 521.57,343.096 525.266,343.096 Z M524.738,364.12 C529.49,364.12 533.042,360.424 533.042,355.336 C533.042,350.248 529.538,346.504 524.738,346.504 C520.706,346.504 516.626,349.144 516.626,355.288 C516.626,361.432 520.658,364.12 524.738,364.12 Z M552.758,343.096 C558.23,343.096 561.398,346.888 561.398,352.312 L561.398,367 L557.702,367 L557.702,352.792 C557.702,349.096 555.494,346.504 551.894,346.504 C548.294,346.504 545.75,349.144 545.75,352.792 L545.75,367 L542.054,367 L542.054,331 L545.75,331 L545.75,346.264 C547.286,344.296 549.734,343.096 552.758,343.096 Z M576.362,343.096 C581.69,343.096 585.482,346.312 585.482,352.6 L585.482,367 L582.026,367 L582.026,363.976 C580.346,366.232 577.61,367.528 574.154,367.528 C569.45,367.528 565.994,365.032 565.994,360.952 C565.994,357.016 569.306,354.424 574.394,354.424 L581.786,354.424 L581.786,352.408 C581.786,348.472 579.578,346.504 576.122,346.504 C573.194,346.504 571.13,347.896 569.306,350.248 L566.858,348.232 C569.066,344.68 572.618,343.096 576.362,343.096 Z M574.634,364.456 C578.474,364.456 581.786,361.672 581.786,358.024 L581.786,357.448 L574.826,357.448 C571.562,357.448 569.786,358.552 569.786,360.76 C569.786,363.256 572.042,364.456 574.634,364.456 Z M599.102,343.096 C602.462,343.096 605.102,344.536 606.926,346.792 L604.67,349.096 C603.134,347.512 601.118,346.504 598.91,346.504 C596.702,346.504 595.022,347.512 595.022,349.432 C595.022,351.016 596.222,351.784 598.814,352.84 L600.974,353.752 C605.198,355.528 607.166,357.352 607.166,360.664 C607.166,365.224 603.278,367.528 598.958,367.528 C594.83,367.528 591.71,365.464 589.838,362.968 L592.19,360.52 C594.11,362.536 596.078,364.12 598.91,364.12 C601.358,364.12 603.374,362.92 603.374,360.808 C603.374,358.792 601.646,358.024 599.294,357.064 L597.038,356.104 C593.486,354.616 591.23,352.984 591.23,349.624 C591.23,345.4 594.83,343.096 599.102,343.096 Z M633.506,353.656 C633.506,354.904 633.314,356.008 633.218,356.44 L614.786,356.44 C615.266,361.096 618.722,364.12 623.33,364.12 C626.258,364.12 628.562,362.872 630.482,360.952 L632.642,363.448 C630.29,365.944 627.122,367.528 623.282,367.528 C616.226,367.528 610.898,362.2 610.898,355.336 C610.898,348.52 616.13,343.096 622.85,343.096 C628.85,343.096 633.506,347.416 633.506,353.656 Z M622.754,346.456 C618.818,346.456 615.698,349.144 614.93,353.176 L629.714,353.176 C629.666,348.856 626.498,346.456 622.754,346.456 Z M645.782,343.096 C649.142,343.096 651.782,344.536 653.606,346.792 L651.35,349.096 C649.814,347.512 647.798,346.504 645.59,346.504 C643.382,346.504 641.702,347.512 641.702,349.432 C641.702,351.016 642.902,351.784 645.494,352.84 L647.654,353.752 C651.878,355.528 653.846,357.352 653.846,360.664 C653.846,365.224 649.958,367.528 645.638,367.528 C641.51,367.528 638.39,365.464 636.518,362.968 L638.87,360.52 C640.79,362.536 642.758,364.12 645.59,364.12 C648.038,364.12 650.054,362.92 650.054,360.808 C650.054,358.792 648.326,358.024 645.974,357.064 L643.718,356.104 C640.166,354.616 637.91,352.984 637.91,349.624 C637.91,345.4 641.51,343.096 645.782,343.096 Z M681.998,343.096 C688.766,343.096 694.238,348.424 694.238,355.288 C694.238,362.104 688.766,367.48 681.95,367.48 C675.182,367.432 669.758,362.152 669.758,355.288 C669.758,348.424 675.134,343.096 681.998,343.096 Z M681.998,346.504 C677.102,346.504 673.502,350.344 673.55,355.336 C673.55,360.28 677.102,364.072 681.95,364.072 C686.798,364.072 690.446,360.232 690.446,355.336 C690.446,350.296 686.798,346.504 681.998,346.504 Z M708.626,333.832 C705.746,333.832 703.73,334.792 703.73,338.296 L703.73,343.624 L709.586,343.624 L709.586,346.936 L703.73,346.936 L703.73,367 L700.034,367 L700.034,346.936 L696.674,346.936 L696.674,343.624 L700.034,343.624 L700.034,338.056 C700.034,332.728 703.25,330.472 707.762,330.472 C708.914,330.472 709.826,330.616 710.69,330.856 L710.69,333.976 C709.922,333.88 709.25,333.832 708.626,333.832 Z M727.178,331 L727.178,367 L723.482,367 L723.482,331 L727.178,331 Z M735.902,332.008 C737.39,332.008 738.638,333.208 738.638,334.696 C738.638,336.232 737.39,337.384 735.902,337.384 C734.318,337.384 733.118,336.232 733.118,334.696 C733.118,333.208 734.318,332.008 735.902,332.008 Z M737.726,343.624 L737.726,367 L734.03,367 L734.03,343.624 L737.726,343.624 Z M753.746,333.832 C750.866,333.832 748.85,334.792 748.85,338.296 L748.85,343.624 L754.706,343.624 L754.706,346.936 L748.85,346.936 L748.85,367 L745.154,367 L745.154,346.936 L741.794,346.936 L741.794,343.624 L745.154,343.624 L745.154,338.056 C745.154,332.728 748.37,330.472 752.882,330.472 C754.034,330.472 754.946,330.616 755.81,330.856 L755.81,333.976 C755.042,333.88 754.37,333.832 753.746,333.832 Z M778.79,353.656 C778.79,354.904 778.598,356.008 778.502,356.44 L760.07,356.44 C760.55,361.096 764.006,364.12 768.614,364.12 C771.542,364.12 773.846,362.872 775.766,360.952 L777.926,363.448 C775.574,365.944 772.406,367.528 768.566,367.528 C761.51,367.528 756.182,362.2 756.182,355.336 C756.182,348.52 761.414,343.096 768.134,343.096 C774.134,343.096 778.79,347.416 778.79,353.656 Z M768.038,346.456 C764.102,346.456 760.982,349.144 760.214,353.176 L774.998,353.176 C774.95,348.856 771.782,346.456 768.038,346.456 Z M789.002,362.68 L787.034,375.592 L784.01,375.592 L784.634,362.68 L789.002,362.68 Z M817.058,333.832 C814.178,333.832 812.162,334.792 812.162,338.296 L812.162,343.624 L818.018,343.624 L818.018,346.936 L812.162,346.936 L812.162,367 L808.466,367 L808.466,346.936 L805.106,346.936 L805.106,343.624 L808.466,343.624 L808.466,338.056 C808.466,332.728 811.682,330.472 816.194,330.472 C817.346,330.472 818.258,330.616 819.122,330.856 L819.122,333.976 C818.354,333.88 817.682,333.832 817.058,333.832 Z M831.878,343.432 C832.646,343.432 833.126,343.528 833.606,343.624 L833.606,346.888 L832.214,346.888 C828.422,346.888 824.87,349.288 824.87,353.752 L824.87,367 L821.174,367 L821.174,343.624 L824.63,343.624 L824.63,346.984 C826.358,344.68 829.094,343.432 831.878,343.432 Z M847.37,343.096 C854.138,343.096 859.61,348.424 859.61,355.288 C859.61,362.104 854.138,367.48 847.322,367.48 C840.554,367.432 835.13,362.152 835.13,355.288 C835.13,348.424 840.506,343.096 847.37,343.096 Z M847.37,346.504 C842.474,346.504 838.874,350.344 838.922,355.336 C838.922,360.28 842.474,364.072 847.322,364.072 C852.17,364.072 855.818,360.232 855.818,355.336 C855.818,350.296 852.17,346.504 847.37,346.504 Z M890.462,343.096 C895.934,343.096 898.958,346.888 898.958,352.312 L898.958,367 L895.262,367 L895.262,352.792 C895.262,349.096 893.246,346.504 889.742,346.504 C886.19,346.504 883.742,349.192 883.742,352.456 L883.742,367 L880.046,367 L880.046,352.792 C880.046,349.096 877.934,346.504 874.478,346.504 C870.926,346.504 868.526,349.096 868.526,352.792 L868.526,367 L864.83,367 L864.83,343.624 L868.286,343.624 L868.286,346.072 C869.918,344.2 872.318,343.096 875.246,343.096 C878.75,343.096 881.15,344.68 882.446,347.128 C884.078,344.776 886.862,343.096 890.462,343.096 Z M919.574,332.008 C921.062,332.008 922.31,333.208 922.31,334.696 C922.31,336.232 921.062,337.384 919.574,337.384 C917.99,337.384 916.79,336.232 916.79,334.696 C916.79,333.208 917.99,332.008 919.574,332.008 Z M921.398,343.624 L921.398,367 L917.702,367 L917.702,343.624 L921.398,343.624 Z M938.906,343.096 C944.426,343.096 947.594,346.888 947.594,352.312 L947.594,367 L943.898,367 L943.898,352.744 C943.898,349.048 941.69,346.504 938.09,346.504 C934.49,346.504 931.946,349.096 931.946,352.744 L931.946,367 L928.25,367 L928.25,343.624 L931.706,343.624 L931.706,346.168 C933.338,344.248 935.882,343.096 938.906,343.096 Z M963.326,333.832 C960.446,333.832 958.43,334.792 958.43,338.296 L958.43,343.624 L964.286,343.624 L964.286,346.936 L958.43,346.936 L958.43,367 L954.734,367 L954.734,346.936 L951.374,346.936 L951.374,343.624 L954.734,343.624 L954.734,338.056 C954.734,332.728 957.95,330.472 962.462,330.472 C963.614,330.472 964.526,330.616 965.39,330.856 L965.39,333.976 C964.622,333.88 963.95,333.832 963.326,333.832 Z M975.842,343.096 C981.17,343.096 984.962,346.312 984.962,352.6 L984.962,367 L981.506,367 L981.506,363.976 C979.826,366.232 977.09,367.528 973.634,367.528 C968.93,367.528 965.474,365.032 965.474,360.952 C965.474,357.016 968.786,354.424 973.874,354.424 L981.266,354.424 L981.266,352.408 C981.266,348.472 979.058,346.504 975.602,346.504 C972.674,346.504 970.61,347.896 968.786,350.248 L966.338,348.232 C968.546,344.68 972.098,343.096 975.842,343.096 Z M974.114,364.456 C977.954,364.456 981.266,361.672 981.266,358.024 L981.266,357.448 L974.306,357.448 C971.042,357.448 969.266,358.552 969.266,360.76 C969.266,363.256 971.522,364.456 974.114,364.456 Z M1002.182,343.096 C1007.702,343.096 1010.87,346.888 1010.87,352.312 L1010.87,367 L1007.174,367 L1007.174,352.744 C1007.174,349.048 1004.966,346.504 1001.366,346.504 C997.766,346.504 995.222,349.096 995.222,352.744 L995.222,367 L991.526,367 L991.526,343.624 L994.982,343.624 L994.982,346.168 C996.614,344.248 999.158,343.096 1002.182,343.096 Z M1027.994,343.096 C1032.218,343.096 1035.578,345.112 1037.642,348.184 L1035.002,350.296 C1033.274,347.992 1031.066,346.504 1028.042,346.504 C1023.146,346.504 1019.546,350.392 1019.546,355.288 C1019.546,360.232 1023.146,364.12 1028.042,364.12 C1031.018,364.12 1033.226,362.68 1034.954,360.376 L1037.594,362.44 C1035.53,365.512 1032.17,367.528 1027.994,367.528 C1021.178,367.528 1015.754,362.152 1015.754,355.288 C1015.754,348.472 1021.178,343.096 1027.994,343.096 Z M1059.23,343.624 L1063.166,343.624 L1051.646,370.264 C1049.822,374.44 1047.278,376.168 1043.726,376.168 C1042.574,376.168 1041.23,375.976 1040.126,375.688 L1040.126,372.568 C1041.23,372.712 1042.142,372.808 1042.958,372.808 C1045.214,372.808 1046.942,372.04 1048.238,369.064 L1049.486,366.232 L1039.79,343.624 L1043.774,343.624 L1051.502,362.248 L1059.23,343.624 Z M1089.062,364.168 C1089.974,364.168 1090.982,364.072 1092.182,363.88 L1092.182,367 C1090.982,367.288 1089.782,367.528 1088.294,367.528 C1083.686,367.528 1080.422,365.272 1080.422,359.944 L1080.422,346.936 L1076.486,346.936 L1076.486,343.624 L1080.422,343.624 L1080.422,337.24 L1084.118,337.24 L1084.118,343.624 L1091.414,343.624 L1091.414,346.936 L1084.118,346.936 L1084.118,359.704 C1084.118,363.208 1086.134,364.168 1089.062,364.168 Z M1106.522,343.096 C1113.29,343.096 1118.762,348.424 1118.762,355.288 C1118.762,362.104 1113.29,367.48 1106.474,367.48 C1099.706,367.432 1094.282,362.152 1094.282,355.288 C1094.282,348.424 1099.658,343.096 1106.522,343.096 Z M1106.522,346.504 C1101.626,346.504 1098.026,350.344 1098.074,355.336 C1098.074,360.28 1101.626,364.072 1106.474,364.072 C1111.322,364.072 1114.97,360.232 1114.97,355.336 C1114.97,350.296 1111.322,346.504 1106.522,346.504 Z M440.606,421.168 C441.518,421.168 442.526,421.072 443.726,420.88 L443.726,424 C442.526,424.288 441.326,424.528 439.838,424.528 C435.23,424.528 431.966,422.272 431.966,416.944 L431.966,403.936 L428.03,403.936 L428.03,400.624 L431.966,400.624 L431.966,394.24 L435.662,394.24 L435.662,400.624 L442.958,400.624 L442.958,403.936 L435.662,403.936 L435.662,416.704 C435.662,420.208 437.678,421.168 440.606,421.168 Z M458.69,400.096 C464.162,400.096 467.33,403.888 467.33,409.312 L467.33,424 L463.634,424 L463.634,409.792 C463.634,406.096 461.426,403.504 457.826,403.504 C454.226,403.504 451.682,406.144 451.682,409.792 L451.682,424 L447.986,424 L447.986,388 L451.682,388 L451.682,403.264 C453.218,401.296 455.666,400.096 458.69,400.096 Z M494.822,410.656 C494.822,411.904 494.63,413.008 494.534,413.44 L476.102,413.44 C476.582,418.096 480.038,421.12 484.646,421.12 C487.574,421.12 489.878,419.872 491.798,417.952 L493.958,420.448 C491.606,422.944 488.438,424.528 484.598,424.528 C477.542,424.528 472.214,419.2 472.214,412.336 C472.214,405.52 477.446,400.096 484.166,400.096 C490.166,400.096 494.822,404.416 494.822,410.656 Z M484.07,403.456 C480.134,403.456 477.014,406.144 476.246,410.176 L491.03,410.176 C490.982,405.856 487.814,403.456 484.07,403.456 Z M524.51,400.096 C531.182,400.096 536.078,405.424 536.078,412.336 C536.078,419.2 531.23,424.528 524.558,424.528 C520.91,424.528 517.502,422.944 515.678,420.256 L515.678,424 L512.222,424 L512.222,388 L515.918,388 L515.918,404.08 C517.742,401.632 520.958,400.096 524.51,400.096 Z M523.982,421.12 C528.782,421.12 532.286,417.376 532.286,412.288 C532.286,407.2 528.734,403.504 523.982,403.504 C519.902,403.504 515.87,406.192 515.87,412.336 C515.87,418.48 519.95,421.12 523.982,421.12 Z M562.226,410.656 C562.226,411.904 562.034,413.008 561.938,413.44 L543.506,413.44 C543.986,418.096 547.442,421.12 552.05,421.12 C554.978,421.12 557.282,419.872 559.202,417.952 L561.362,420.448 C559.01,422.944 555.842,424.528 552.002,424.528 C544.946,424.528 539.618,419.2 539.618,412.336 C539.618,405.52 544.85,400.096 551.57,400.096 C557.57,400.096 562.226,404.416 562.226,410.656 Z M551.474,403.456 C547.538,403.456 544.418,406.144 543.65,410.176 L558.434,410.176 C558.386,405.856 555.218,403.456 551.474,403.456 Z M586.406,400.624 L589.91,400.624 L589.91,421.744 C589.91,428.944 585.35,433.168 578.534,433.168 C573.638,433.168 569.846,430.96 567.542,428.656 L569.702,426.064 C571.958,428.032 574.598,429.76 578.438,429.76 C583.19,429.76 586.214,427.12 586.214,421.936 L586.214,419.872 C584.294,422.32 581.03,423.76 577.526,423.76 C570.95,423.76 566.054,418.768 566.054,411.952 C566.054,405.184 570.95,400.096 577.526,400.096 C581.222,400.096 584.582,401.728 586.406,404.416 L586.406,400.624 Z M578.102,420.352 C582.182,420.352 586.262,417.808 586.262,411.952 C586.262,406.096 582.134,403.6 578.102,403.6 C573.35,403.6 569.798,407.056 569.798,412 C569.798,416.944 573.35,420.352 578.102,420.352 Z M598.634,389.008 C600.122,389.008 601.37,390.208 601.37,391.696 C601.37,393.232 600.122,394.384 598.634,394.384 C597.05,394.384 595.85,393.232 595.85,391.696 C595.85,390.208 597.05,389.008 598.634,389.008 Z M600.458,400.624 L600.458,424 L596.762,424 L596.762,400.624 L600.458,400.624 Z M617.966,400.096 C623.486,400.096 626.654,403.888 626.654,409.312 L626.654,424 L622.958,424 L622.958,409.744 C622.958,406.048 620.75,403.504 617.15,403.504 C613.55,403.504 611.006,406.096 611.006,409.744 L611.006,424 L607.31,424 L607.31,400.624 L610.766,400.624 L610.766,403.168 C612.398,401.248 614.942,400.096 617.966,400.096 Z M643.874,400.096 C649.394,400.096 652.562,403.888 652.562,409.312 L652.562,424 L648.866,424 L648.866,409.744 C648.866,406.048 646.658,403.504 643.058,403.504 C639.458,403.504 636.914,406.096 636.914,409.744 L636.914,424 L633.218,424 L633.218,400.624 L636.674,400.624 L636.674,403.168 C638.306,401.248 640.85,400.096 643.874,400.096 Z M660.998,389.008 C662.486,389.008 663.734,390.208 663.734,391.696 C663.734,393.232 662.486,394.384 660.998,394.384 C659.414,394.384 658.214,393.232 658.214,391.696 C658.214,390.208 659.414,389.008 660.998,389.008 Z M662.822,400.624 L662.822,424 L659.126,424 L659.126,400.624 L662.822,400.624 Z M680.33,400.096 C685.85,400.096 689.018,403.888 689.018,409.312 L689.018,424 L685.322,424 L685.322,409.744 C685.322,406.048 683.114,403.504 679.514,403.504 C675.914,403.504 673.37,406.096 673.37,409.744 L673.37,424 L669.674,424 L669.674,400.624 L673.13,400.624 L673.13,403.168 C674.762,401.248 677.306,400.096 680.33,400.096 Z M714.542,400.624 L718.046,400.624 L718.046,421.744 C718.046,428.944 713.486,433.168 706.67,433.168 C701.774,433.168 697.982,430.96 695.678,428.656 L697.838,426.064 C700.094,428.032 702.734,429.76 706.574,429.76 C711.326,429.76 714.35,427.12 714.35,421.936 L714.35,419.872 C712.43,422.32 709.166,423.76 705.662,423.76 C699.086,423.76 694.19,418.768 694.19,411.952 C694.19,405.184 699.086,400.096 705.662,400.096 C709.358,400.096 712.718,401.728 714.542,404.416 L714.542,400.624 Z M706.238,420.352 C710.318,420.352 714.398,417.808 714.398,411.952 C714.398,406.096 710.27,403.6 706.238,403.6 C701.486,403.6 697.934,407.056 697.934,412 C697.934,416.944 701.486,420.352 706.238,420.352 Z M747.638,400.096 C754.406,400.096 759.878,405.424 759.878,412.288 C759.878,419.104 754.406,424.48 747.59,424.48 C740.822,424.432 735.398,419.152 735.398,412.288 C735.398,405.424 740.774,400.096 747.638,400.096 Z M747.638,403.504 C742.742,403.504 739.142,407.344 739.19,412.336 C739.19,417.28 742.742,421.072 747.59,421.072 C752.438,421.072 756.086,417.232 756.086,412.336 C756.086,407.296 752.438,403.504 747.638,403.504 Z M774.266,390.832 C771.386,390.832 769.37,391.792 769.37,395.296 L769.37,400.624 L775.226,400.624 L775.226,403.936 L769.37,403.936 L769.37,424 L765.674,424 L765.674,403.936 L762.314,403.936 L762.314,400.624 L765.674,400.624 L765.674,395.056 C765.674,389.728 768.89,387.472 773.402,387.472 C774.554,387.472 775.466,387.616 776.33,387.856 L776.33,390.976 C775.562,390.88 774.89,390.832 774.266,390.832 Z M797.522,400.096 C802.85,400.096 806.642,403.312 806.642,409.6 L806.642,424 L803.186,424 L803.186,420.976 C801.506,423.232 798.77,424.528 795.314,424.528 C790.61,424.528 787.154,422.032 787.154,417.952 C787.154,414.016 790.466,411.424 795.554,411.424 L802.946,411.424 L802.946,409.408 C802.946,405.472 800.738,403.504 797.282,403.504 C794.354,403.504 792.29,404.896 790.466,407.248 L788.018,405.232 C790.226,401.68 793.778,400.096 797.522,400.096 Z M795.794,421.456 C799.634,421.456 802.946,418.672 802.946,415.024 L802.946,414.448 L795.986,414.448 C792.722,414.448 790.946,415.552 790.946,417.76 C790.946,420.256 793.202,421.456 795.794,421.456 Z M831.734,388 L835.43,388 L835.43,424 L831.926,424 L831.926,420.256 C830.102,422.944 826.79,424.528 823.094,424.528 C816.422,424.528 811.526,419.2 811.526,412.336 C811.526,405.424 816.422,400.096 823.094,400.096 C826.646,400.096 829.862,401.584 831.734,404.08 L831.734,388 Z M823.622,421.12 C827.654,421.12 831.782,418.48 831.782,412.336 C831.782,406.192 827.654,403.504 823.622,403.504 C818.87,403.504 815.318,407.2 815.318,412.288 C815.318,417.376 818.822,421.12 823.622,421.12 Z M861.338,400.624 L861.338,414.688 C861.338,420.688 857.066,424.528 851.69,424.528 C846.218,424.528 841.994,420.688 841.994,414.688 L841.994,400.624 L845.642,400.624 L845.642,414.928 C845.642,418.768 848.33,421.12 851.69,421.12 C854.954,421.12 857.642,418.768 857.642,414.928 L857.642,400.624 L861.338,400.624 Z M871.598,388 L871.598,424 L867.902,424 L867.902,388 L871.598,388 Z M888.098,421.168 C889.01,421.168 890.018,421.072 891.218,420.88 L891.218,424 C890.018,424.288 888.818,424.528 887.33,424.528 C882.722,424.528 879.458,422.272 879.458,416.944 L879.458,403.936 L875.522,403.936 L875.522,400.624 L879.458,400.624 L879.458,394.24 L883.154,394.24 L883.154,400.624 L890.45,400.624 L890.45,403.936 L883.154,403.936 L883.154,416.704 C883.154,420.208 885.17,421.168 888.098,421.168 Z M906.182,400.096 C911.654,400.096 914.822,403.888 914.822,409.312 L914.822,424 L911.126,424 L911.126,409.792 C911.126,406.096 908.918,403.504 905.318,403.504 C901.718,403.504 899.174,406.144 899.174,409.792 L899.174,424 L895.478,424 L895.478,388 L899.174,388 L899.174,403.264 C900.71,401.296 903.158,400.096 906.182,400.096 Z M931.946,400.096 C938.714,400.096 944.186,405.424 944.186,412.288 C944.186,419.104 938.714,424.48 931.898,424.48 C925.13,424.432 919.706,419.152 919.706,412.288 C919.706,405.424 925.082,400.096 931.946,400.096 Z M931.946,403.504 C927.05,403.504 923.45,407.344 923.498,412.336 C923.498,417.28 927.05,421.072 931.898,421.072 C936.746,421.072 940.394,417.232 940.394,412.336 C940.394,407.296 936.746,403.504 931.946,403.504 Z M959.966,400.096 C966.734,400.096 972.206,405.424 972.206,412.288 C972.206,419.104 966.734,424.48 959.918,424.48 C953.15,424.432 947.726,419.152 947.726,412.288 C947.726,405.424 953.102,400.096 959.966,400.096 Z M959.966,403.504 C955.07,403.504 951.47,407.344 951.518,412.336 C951.518,417.28 955.07,421.072 959.918,421.072 C964.766,421.072 968.414,417.232 968.414,412.336 C968.414,407.296 964.766,403.504 959.966,403.504 Z M995.954,388 L999.65,388 L999.65,424 L996.146,424 L996.146,420.256 C994.322,422.944 991.01,424.528 987.314,424.528 C980.642,424.528 975.746,419.2 975.746,412.336 C975.746,405.424 980.642,400.096 987.314,400.096 C990.866,400.096 994.082,401.584 995.954,404.08 L995.954,388 Z M987.842,421.12 C991.874,421.12 996.002,418.48 996.002,412.336 C996.002,406.192 991.874,403.504 987.842,403.504 C983.09,403.504 979.538,407.2 979.538,412.288 C979.538,417.376 983.042,421.12 987.842,421.12 Z M1008.902,418.48 C1010.534,418.48 1011.926,419.728 1011.926,421.504 C1011.926,423.28 1010.534,424.528 1008.902,424.528 C1007.27,424.528 1005.878,423.28 1005.878,421.504 C1005.878,419.728 1007.27,418.48 1008.902,418.48 Z" id="Thisprojectfocusedoncreatingananimatedshortfilmthatcapturedthedifferentphasesoflife,frominfancytothebeginningofadulthood."></path>
        </g>
    </g>
</svg>