<?xml version="1.0" encoding="UTF-8"?>
<svg width="464px" height="117px" viewBox="0 0 464 117" version="1.1" xmlns="http://www.w3.org/2000/svg" xmlns:xlink="http://www.w3.org/1999/xlink">
    <!-- Generator: Sketch 53.2 (72643) - https://sketchapp.com -->
    <title>Group 3</title>
    <desc>Created with Sketch.</desc>
    <defs>
        <linearGradient x1="75.2257572%" y1="49.5157981%" x2="-5.21843415%" y2="51.3218732%" id="linearGradient-1">
            <stop stop-color="#FA8561" offset="0%"></stop>
            <stop stop-color="#D31CF7" offset="100%"></stop>
        </linearGradient>
    </defs>
    <g id="Page-1" stroke="none" stroke-width="1" fill="none" fill-rule="evenodd">
        <g id="Desktop-HD-Copy-23" transform="translate(-491.000000, -460.000000)">
            <g id="Group-3" transform="translate(442.000000, 460.000000)">
                <path d="M83.4800007,7.2 L94.2800007,7.2 L94.2800007,60.96 L90.6800007,60.96 L60.1200007,28.32 L60.1200007,60 L49.3200007,60 L49.3200007,6.24 L52.8400007,6.24 L83.4800007,38.72 L83.4800007,7.2 Z M137.510001,43.84 L109.750001,43.84 C111.030001,48.88 115.110001,51.68 120.870001,51.68 C124.790001,51.68 128.470001,50.32 131.910001,47.68 L136.390001,55.04 C131.670001,58.96 126.390001,60.96 120.550001,60.96 C108.310001,61.2 98.6300006,51.68 98.8700006,40.24 C98.6300006,28.8 108.150001,19.28 119.590001,19.52 C130.550001,19.52 138.230001,27.6 138.230001,37.92 C138.230001,39.84 137.990001,41.84 137.510001,43.84 Z M109.750001,36.24 L127.750001,36.24 C127.670001,31.36 123.910001,28.24 119.190001,28.24 C114.630001,28.24 110.950001,31.36 109.750001,36.24 Z M142.1,42.56 L142.1,20.4 L152.9,20.4 L152.9,43.44 C152.9,48 156.02,51.04 160.42,51.04 C164.58,51.04 167.78,48 167.78,43.44 L167.78,20.4 L178.58,20.4 L178.58,42.56 C178.58,53.6 170.74,60.96 160.42,60.96 C149.86,60.96 142.1,53.6 142.1,42.56 Z M209.09,20.4 L209.09,29.92 L206.21,29.92 C199.73,29.92 195.57,33.44 195.57,40.24 L195.57,60 L184.77,60 L184.77,20.4 L194.69,20.4 L194.69,25.12 C197.33,21.84 201.17,19.92 205.57,19.92 C206.93,19.92 208.05,20.08 209.09,20.4 Z M245.08,36.48 L245.08,60 L235.16,60 L235.16,56.16 C232.28,59.12 228.12,60.96 223.08,60.96 C214.68,60.96 209.4,56.08 209.4,49.12 C209.4,42 215.16,37.6 224.36,37.6 L234.28,37.6 L234.28,35.84 C234.28,31.44 231.72,28.88 226.92,28.88 C222.84,28.88 219.96,30.56 216.44,34.32 L210.84,27.68 C215.4,22.24 221.16,19.52 228.12,19.52 C238.44,19.52 245.08,25.52 245.08,36.48 Z M234.28,45.2 L234.28,44.72 L225.8,44.72 C222.28,44.72 220.28,46.08 220.28,48.72 C220.28,51.36 222.52,53.04 225.96,53.04 C230.68,53.04 234.28,49.76 234.28,45.2 Z M251.35,60 L251.35,2.84217094e-13 L262.15,2.84217094e-13 L262.15,60 L251.35,60 Z M287.73,60 L287.73,7.2 L307.57,7.2 C318.61,7.2 326.61,14.08 326.61,24.24 C326.61,34.32 318.61,41.36 307.57,41.36 L298.53,41.36 L298.53,60 L287.73,60 Z M298.53,31.92 L307.57,31.92 C312.61,31.92 315.57,28.8 315.57,24.24 C315.57,19.76 312.45,16.72 307.57,16.72 L298.53,16.72 L298.53,31.92 Z M327.2,40.16 C326.96,28.88 336.8,19.28 348.4,19.52 C360,19.36 369.92,28.88 369.68,40.16 C369.92,51.44 359.92,61.12 348.32,60.88 C336.72,61.12 326.96,51.44 327.2,40.16 Z M358.64,40.24 C358.64,34.08 354.24,29.36 348.4,29.36 C342.4,29.36 338.16,33.92 338.16,40.24 C338.16,46.4 342.4,50.96 348.4,50.96 C354.24,50.96 358.64,46.4 358.64,40.24 Z M410.35,43.84 L382.59,43.84 C383.87,48.88 387.95,51.68 393.71,51.68 C397.63,51.68 401.31,50.32 404.75,47.68 L409.23,55.04 C404.51,58.96 399.23,60.96 393.39,60.96 C381.15,61.2 371.47,51.68 371.71,40.24 C371.47,28.8 380.99,19.28 392.43,19.52 C403.39,19.52 411.07,27.6 411.07,37.92 C411.07,39.84 410.83,41.84 410.35,43.84 Z M382.59,36.24 L400.59,36.24 C400.51,31.36 396.75,28.24 392.03,28.24 C387.47,28.24 383.79,31.36 382.59,36.24 Z M440.78,50.96 L440.78,60 C438.22,60.64 435.74,60.96 433.34,60.96 C423.34,60.96 417.5,56 417.5,46.08 L417.5,29.52 L411.26,29.52 L411.26,20.4 L417.5,20.4 L417.5,10.4 L428.3,10.4 L428.3,20.4 L439.5,20.4 L439.5,29.52 L428.3,29.52 L428.3,45.12 C428.3,49.6 430.54,51.28 435.66,51.28 C436.3,51.28 437.98,51.2 440.78,50.96 Z M468.809999,20.4 L468.809999,29.92 L465.929999,29.92 C459.449999,29.92 455.289999,33.44 455.289999,40.24 L455.289999,60 L444.489999,60 L444.489999,20.4 L454.409999,20.4 L454.409999,25.12 C457.049999,21.84 460.889999,19.92 465.289999,19.92 C466.649999,19.92 467.769999,20.08 468.809999,20.4 Z M501.439999,20.4 L512.799999,20.4 L493.839999,63.44 C490.239999,71.68 485.439999,75.36 478.079999,75.36 C475.839999,75.36 473.519999,75.04 471.119999,74.4 L471.119999,65.36 C473.599999,65.6 475.119999,65.68 475.759999,65.68 C479.599999,65.68 482.159999,64.48 483.999999,60.32 L485.199999,57.6 L469.999999,20.4 L481.439999,20.4 L491.119999,46.4 L501.439999,20.4 Z" id="Neural-Poetry" fill="url(#linearGradient-1)"></path>
                <text id="Web-Development-|-UI" font-family="CeraBasic-Regular, Cera Basic" font-size="20" font-weight="normal" letter-spacing="-0.05833333" fill="#FFFFFF">
                    <tspan x="139.4075" y="113">Web Development | UI Design</tspan>
                </text>
            </g>
        </g>
    </g>
</svg>