<?xml version="1.0" encoding="UTF-8"?>
<svg width="572px" height="189px" viewBox="0 0 572 189" version="1.1" xmlns="http://www.w3.org/2000/svg" xmlns:xlink="http://www.w3.org/1999/xlink">
    <!-- Generator: Sketch 53.2 (72643) - https://sketchapp.com -->
    <title>NeuralPoetry</title>
    <desc>Created with Sketch.</desc>
    <defs>
        <linearGradient x1="74.000038%" y1="49.4632783%" x2="-16.1444198%" y2="51.7747448%" id="linearGradient-1">
            <stop stop-color="#FA8561" offset="0%"></stop>
            <stop stop-color="#D31CF7" offset="100%"></stop>
        </linearGradient>
    </defs>
    <g id="Page-1" stroke="none" stroke-width="1" fill="none" fill-rule="evenodd">
        <g id="Desktop-HD-Copy-27" transform="translate(-1119.000000, -75.000000)">
            <g id="NeuralPoetry" transform="translate(1119.000000, 75.000000)">
                <rect id="Rectangle" fill="#000000" x="0" y="0" width="572" height="189" rx="16"></rect>
                <path d="M90.452,65.84 L100.712,65.84 L100.712,116.912 L97.292,116.912 L68.26,85.904 L68.26,116 L58,116 L58,64.928 L61.344,64.928 L90.452,95.708 L90.452,65.84 Z M144.618137,95.024 C144.618137,97.152 144.238137,99.356 143.934137,100.648 L117.486137,100.648 C118.778137,105.436 122.730137,108.096 128.126137,108.096 C132.230137,108.096 135.574137,106.652 138.614137,104.296 L142.870137,111.288 C138.614137,114.86 133.598137,116.912 127.822137,116.912 C115.890137,116.912 107.226137,108.324 107.226137,97.228 C107.226137,86.132 115.814137,77.544 126.910137,77.544 C137.474137,77.544 144.618137,85.296 144.618137,95.024 Z M126.530137,85.828 C122.198137,85.828 118.702137,88.716 117.486137,93.428 L134.662137,93.428 C134.586137,88.64 130.862137,85.828 126.530137,85.828 Z M185.104274,78.38 L185.104274,99.432 C185.104274,110.072 177.656274,116.912 167.852274,116.912 C157.896274,116.912 150.448274,110.072 150.448274,99.432 L150.448274,78.38 L160.708274,78.38 L160.708274,100.268 C160.708274,104.676 163.824274,107.488 167.852274,107.488 C171.728274,107.488 174.844274,104.676 174.844274,100.268 L174.844274,78.38 L185.104274,78.38 Z M212.898411,77.924 C214.266411,77.924 215.254411,78.076 216.242411,78.38 L216.242411,87.424 L213.506411,87.424 C207.578411,87.424 203.398411,90.464 203.398411,97.228 L203.398411,116 L193.138411,116 L193.138411,78.38 L202.562411,78.38 L202.562411,82.94 C205.070411,79.672 208.794411,77.924 212.898411,77.924 Z M235.524548,77.544 C245.100548,77.544 251.636548,82.94 251.636548,93.656 L251.636548,116 L242.212548,116 L242.212548,112.352 C239.552548,115.164 235.600548,116.912 230.736548,116.912 C222.528548,116.912 217.740548,112.048 217.740548,105.664 C217.740548,98.824 223.288548,94.72 231.952548,94.72 L241.376548,94.72 L241.376548,93.048 C241.376548,88.944 239.020548,86.436 234.384548,86.436 C230.356548,86.436 227.544548,88.336 224.428548,91.604 L219.108548,85.296 C223.516548,80.052 228.912548,77.544 235.524548,77.544 Z M233.472548,109.388 C237.804548,109.388 241.376548,106.348 241.376548,101.94 L241.376548,101.484 L233.320548,101.484 C229.976548,101.484 228.076548,102.776 228.076548,105.284 C228.076548,107.868 230.280548,109.388 233.472548,109.388 Z M270.006685,59 L270.006685,116 L259.746685,116 L259.746685,59 L270.006685,59 Z M317.462959,65.84 C328.026959,65.84 335.550959,72.224 335.550959,82.028 C335.550959,91.68 328.026959,98.292 317.462959,98.292 L308.874959,98.292 L308.874959,116 L298.614959,116 L298.614959,65.84 L317.462959,65.84 Z M317.462959,74.884 L308.874959,74.884 L308.874959,89.324 L317.462959,89.324 C322.250959,89.324 325.062959,86.36 325.062959,82.028 C325.062959,77.848 322.250959,74.884 317.462959,74.884 Z M358.329096,77.544 C369.425096,77.544 378.545096,86.056 378.545096,97.152 C378.545096,108.324 369.425096,116.836 358.253096,116.836 C347.081096,116.836 338.189096,108.324 338.189096,97.152 C338.189096,86.056 347.081096,77.544 358.329096,77.544 Z M358.329096,86.892 C352.629096,86.892 348.601096,91.3 348.601096,97.228 C348.601096,103.156 352.629096,107.412 358.329096,107.412 C363.877096,107.412 368.057096,103.08 368.057096,97.228 C368.057096,91.3 363.877096,86.892 358.329096,86.892 Z M420.019233,95.024 C420.019233,97.152 419.639233,99.356 419.335233,100.648 L392.887233,100.648 C394.179233,105.436 398.131233,108.096 403.527233,108.096 C407.631233,108.096 410.975233,106.652 414.015233,104.296 L418.271233,111.288 C414.015233,114.86 408.999233,116.912 403.223233,116.912 C391.291233,116.912 382.627233,108.324 382.627233,97.228 C382.627233,86.132 391.215233,77.544 402.311233,77.544 C412.875233,77.544 420.019233,85.296 420.019233,95.024 Z M401.931233,85.828 C397.599233,85.828 394.103233,88.716 392.887233,93.428 L410.063233,93.428 C409.987233,88.64 406.263233,85.828 401.931233,85.828 Z M445.53337,107.716 C446.74937,107.716 448.42137,107.564 450.39737,107.412 L450.39737,116 C448.26937,116.532 445.98937,116.912 443.32937,116.912 C434.05737,116.912 428.28137,112.428 428.28137,102.776 L428.28137,87.044 L422.35337,87.044 L422.35337,78.38 L428.28137,78.38 L428.28137,68.88 L438.54137,68.88 L438.54137,78.38 L449.18137,78.38 L449.18137,87.044 L438.54137,87.044 L438.54137,101.864 C438.54137,106.196 440.82137,107.716 445.53337,107.716 Z M475.835507,77.924 C477.203507,77.924 478.191507,78.076 479.179507,78.38 L479.179507,87.424 L476.443507,87.424 C470.515507,87.424 466.335507,90.464 466.335507,97.228 L466.335507,116 L456.075507,116 L456.075507,78.38 L465.499507,78.38 L465.499507,82.94 C468.007507,79.672 471.731507,77.924 475.835507,77.924 Z M509.481644,78.38 L520.273644,78.38 L502.261644,119.268 C498.841644,127.02 494.357644,130.592 487.289644,130.592 C485.161644,130.592 482.653644,130.212 480.677644,129.68 L480.677644,121.092 C482.425644,121.244 483.869644,121.396 485.085644,121.396 C488.353644,121.396 491.013644,120.56 492.913644,116.304 L494.053644,113.796 L479.613644,78.38 L490.481644,78.38 L499.677644,103.08 L509.481644,78.38 Z" fill="url(#linearGradient-1)" fill-rule="nonzero"></path>
            </g>
        </g>
    </g>
</svg>