<?xml version="1.0" encoding="UTF-8"?>
<svg width="733px" height="108px" viewBox="0 0 733 108" version="1.1" xmlns="http://www.w3.org/2000/svg" xmlns:xlink="http://www.w3.org/1999/xlink">
    <!-- Generator: Sketch 53.2 (72643) - https://sketchapp.com -->
    <title>DifferentliterarysourcesincludereadingsfromMachiavelli’sThePrince,TupacShakur’spoetry,aswellasmyownpersonalpoetry.</title>
    <desc>Created with Sketch.</desc>
    <g id="Page-1" stroke="none" stroke-width="1" fill="none" fill-rule="evenodd">
        <g id="Desktop-HD-Copy-38" transform="translate(-354.000000, -1183.000000)" fill="#404648" fill-rule="nonzero">
            <path d="M363.854945,1186.42234 C371.46704,1186.42234 376.054687,1191.06452 376.054687,1197.57035 C376.054687,1203.97453 371.46704,1208.78614 363.854945,1208.78614 L357.194361,1208.78614 L357.194361,1186.42234 L363.854945,1186.42234 Z M363.820962,1188.79426 L359.845002,1188.79426 L359.845002,1206.41422 L363.820962,1206.41422 C369.835877,1206.41422 373.302099,1202.58527 373.302099,1197.57035 C373.302099,1192.45379 369.835877,1188.79426 363.820962,1188.79426 Z M381.858391,1184.08431 C382.91185,1184.08431 383.795397,1184.93142 383.795397,1185.98184 C383.795397,1187.06614 382.91185,1187.87937 381.858391,1187.87937 C380.736966,1187.87937 379.887402,1187.06614 379.887402,1185.98184 C379.887402,1184.93142 380.736966,1184.08431 381.858391,1184.08431 Z M383.149728,1192.28436 L383.149728,1208.78614 L380.533071,1208.78614 L380.533071,1192.28436 L383.149728,1192.28436 Z M395.342155,1185.37192 C393.303201,1185.37192 391.875933,1186.04961 391.875933,1188.52318 L391.875933,1192.28436 L396.021806,1192.28436 L396.021806,1194.6224 L391.875933,1194.6224 L391.875933,1208.78614 L389.259275,1208.78614 L389.259275,1194.6224 L386.880495,1194.6224 L386.880495,1192.28436 L389.259275,1192.28436 L389.259275,1188.35376 C389.259275,1184.59257 391.536107,1183 394.730469,1183 C395.54605,1183 396.191719,1183.10165 396.803405,1183.27108 L396.803405,1185.47357 C396.259684,1185.4058 395.783928,1185.37192 395.342155,1185.37192 Z M404.578098,1185.37192 C402.539144,1185.37192 401.111876,1186.04961 401.111876,1188.52318 L401.111876,1192.28436 L405.257749,1192.28436 L405.257749,1194.6224 L401.111876,1194.6224 L401.111876,1208.78614 L398.495218,1208.78614 L398.495218,1194.6224 L396.116438,1194.6224 L396.116438,1192.28436 L398.495218,1192.28436 L398.495218,1188.35376 C398.495218,1184.59257 400.77205,1183 403.966412,1183 C404.781993,1183 405.427662,1183.10165 406.039349,1183.27108 L406.039349,1185.47357 C405.495627,1185.4058 405.019871,1185.37192 404.578098,1185.37192 Z M423.159248,1199.36623 C423.159248,1200.24723 423.023317,1201.02658 422.955352,1201.33154 L409.906046,1201.33154 C410.245871,1204.61834 412.692616,1206.75306 415.954943,1206.75306 C418.02788,1206.75306 419.659043,1205.87207 421.018346,1204.51668 L422.547561,1206.27868 C420.882415,1208.04068 418.639566,1209.15887 415.92096,1209.15887 C410.925523,1209.15887 407.153458,1205.39768 407.153458,1200.55219 C407.153458,1195.74059 410.857558,1191.91163 415.615117,1191.91163 C419.862938,1191.91163 423.159248,1194.96124 423.159248,1199.36623 Z M415.547152,1194.28355 C412.760581,1194.28355 410.551715,1196.18109 410.007993,1199.02739 L420.474625,1199.02739 C420.440642,1195.97778 418.197793,1194.28355 415.547152,1194.28355 Z M435.283709,1192.14883 C435.82743,1192.14883 436.167256,1192.2166 436.507081,1192.28436 L436.507081,1194.58851 L435.521587,1194.58851 C432.836964,1194.58851 430.322254,1196.28274 430.322254,1199.434 L430.322254,1208.78614 L427.705596,1208.78614 L427.705596,1192.28436 L430.152341,1192.28436 L430.152341,1194.65628 C431.375714,1193.02982 433.31272,1192.14883 435.283709,1192.14883 Z M454.442562,1199.36623 C454.442562,1200.24723 454.306632,1201.02658 454.238667,1201.33154 L441.18936,1201.33154 C441.529186,1204.61834 443.975931,1206.75306 447.238258,1206.75306 C449.311194,1206.75306 450.942358,1205.87207 452.30166,1204.51668 L453.830876,1206.27868 C452.16573,1208.04068 449.922881,1209.15887 447.204275,1209.15887 C442.208837,1209.15887 438.436772,1205.39768 438.436772,1200.55219 C438.436772,1195.74059 442.140872,1191.91163 446.898432,1191.91163 C451.146253,1191.91163 454.442562,1194.96124 454.442562,1199.36623 Z M446.830467,1194.28355 C444.043896,1194.28355 441.835029,1196.18109 441.291308,1199.02739 L451.757939,1199.02739 C451.723957,1195.97778 449.481107,1194.28355 446.830467,1194.28355 Z M466.533041,1191.91163 C470.441036,1191.91163 472.683886,1194.58851 472.683886,1198.41747 L472.683886,1208.78614 L470.067228,1208.78614 L470.067228,1198.72243 C470.067228,1196.11332 468.50403,1194.31744 465.955337,1194.31744 C463.406645,1194.31744 461.605569,1196.1472 461.605569,1198.72243 L461.605569,1208.78614 L458.988911,1208.78614 L458.988911,1192.28436 L461.435656,1192.28436 L461.435656,1194.08025 C462.591063,1192.72486 464.392139,1191.91163 466.533041,1191.91163 Z M485.012243,1206.78695 C485.657912,1206.78695 486.371546,1206.71918 487.22111,1206.58364 L487.22111,1208.78614 C486.371546,1208.98944 485.521981,1209.15887 484.468522,1209.15887 C481.206195,1209.15887 478.89538,1207.56629 478.89538,1203.80511 L478.89538,1194.6224 L476.10881,1194.6224 L476.10881,1192.28436 L478.89538,1192.28436 L478.89538,1187.77772 L481.512038,1187.77772 L481.512038,1192.28436 L486.677389,1192.28436 L486.677389,1194.6224 L481.512038,1194.6224 L481.512038,1203.63569 C481.512038,1206.10926 482.939306,1206.78695 485.012243,1206.78695 Z M503.178286,1183.37273 L503.178286,1208.78614 L500.561628,1208.78614 L500.561628,1183.37273 L503.178286,1183.37273 Z M510.205362,1184.08431 C511.258822,1184.08431 512.142368,1184.93142 512.142368,1185.98184 C512.142368,1187.06614 511.258822,1187.87937 510.205362,1187.87937 C509.083937,1187.87937 508.234373,1187.06614 508.234373,1185.98184 C508.234373,1184.93142 509.083937,1184.08431 510.205362,1184.08431 Z M511.4967,1192.28436 L511.4967,1208.78614 L508.880042,1208.78614 L508.880042,1192.28436 L511.4967,1192.28436 Z M524.028952,1206.78695 C524.674621,1206.78695 525.388255,1206.71918 526.237819,1206.58364 L526.237819,1208.78614 C525.388255,1208.98944 524.53869,1209.15887 523.485231,1209.15887 C520.222904,1209.15887 517.912089,1207.56629 517.912089,1203.80511 L517.912089,1194.6224 L515.125519,1194.6224 L515.125519,1192.28436 L517.912089,1192.28436 L517.912089,1187.77772 L520.528747,1187.77772 L520.528747,1192.28436 L525.694098,1192.28436 L525.694098,1194.6224 L520.528747,1194.6224 L520.528747,1203.63569 C520.528747,1206.10926 521.956015,1206.78695 524.028952,1206.78695 Z M544.58109,1199.36623 C544.58109,1200.24723 544.44516,1201.02658 544.377195,1201.33154 L531.327888,1201.33154 C531.667714,1204.61834 534.114459,1206.75306 537.376786,1206.75306 C539.449722,1206.75306 541.080886,1205.87207 542.440188,1204.51668 L543.969404,1206.27868 C542.304258,1208.04068 540.061409,1209.15887 537.342803,1209.15887 C532.347365,1209.15887 528.5753,1205.39768 528.5753,1200.55219 C528.5753,1195.74059 532.2794,1191.91163 537.03696,1191.91163 C541.284781,1191.91163 544.58109,1194.96124 544.58109,1199.36623 Z M536.968995,1194.28355 C534.182424,1194.28355 531.973557,1196.18109 531.429836,1199.02739 L541.896467,1199.02739 C541.862485,1195.97778 539.619635,1194.28355 536.968995,1194.28355 Z M556.705552,1192.14883 C557.249273,1192.14883 557.589098,1192.2166 557.928924,1192.28436 L557.928924,1194.58851 L556.94343,1194.58851 C554.258807,1194.58851 551.744097,1196.28274 551.744097,1199.434 L551.744097,1208.78614 L549.127439,1208.78614 L549.127439,1192.28436 L551.574184,1192.28436 L551.574184,1194.65628 C552.797556,1193.02982 554.734563,1192.14883 556.705552,1192.14883 Z M566.994954,1191.91163 C570.76702,1191.91163 573.451642,1194.1819 573.451642,1198.62077 L573.451642,1208.78614 L571.004898,1208.78614 L571.004898,1206.65141 C569.815508,1208.24398 567.878501,1209.15887 565.431756,1209.15887 C562.101464,1209.15887 559.65472,1207.39687 559.65472,1204.51668 C559.65472,1201.73815 561.999517,1199.90839 565.601669,1199.90839 L570.834985,1199.90839 L570.834985,1198.48524 C570.834985,1195.7067 569.271787,1194.31744 566.825042,1194.31744 C564.752105,1194.31744 563.290854,1195.30009 561.999517,1196.96043 L560.266406,1195.53728 C561.829604,1193.02982 564.344314,1191.91163 566.994954,1191.91163 Z M565.771582,1206.99026 C568.490187,1206.99026 570.834985,1205.02495 570.834985,1202.44973 L570.834985,1202.04311 L565.907512,1202.04311 C563.596697,1202.04311 562.339342,1202.82246 562.339342,1204.38115 C562.339342,1206.14314 563.936523,1206.99026 565.771582,1206.99026 Z M586.527616,1192.14883 C587.071337,1192.14883 587.411163,1192.2166 587.750988,1192.28436 L587.750988,1194.58851 L586.765494,1194.58851 C584.080871,1194.58851 581.566161,1196.28274 581.566161,1199.434 L581.566161,1208.78614 L578.949503,1208.78614 L578.949503,1192.28436 L581.396248,1192.28436 L581.396248,1194.65628 C582.61962,1193.02982 584.556627,1192.14883 586.527616,1192.14883 Z M602.967864,1192.28436 L605.754434,1192.28436 L597.598618,1211.09028 C596.30728,1214.03824 594.506204,1215.25808 591.991494,1215.25808 C591.175912,1215.25808 590.2244,1215.12255 589.442801,1214.91924 L589.442801,1212.71674 C590.2244,1212.8184 590.870069,1212.88617 591.447773,1212.88617 C593.044953,1212.88617 594.268326,1212.34401 595.185855,1210.24317 L596.069402,1208.24398 L589.204923,1192.28436 L592.025476,1192.28436 L597.49667,1205.43157 L602.967864,1192.28436 Z M623.95446,1191.91163 C626.33324,1191.91163 628.202281,1192.92817 629.493618,1194.52074 L627.896438,1196.1472 C626.808996,1195.02901 625.381728,1194.31744 623.818529,1194.31744 C622.255331,1194.31744 621.065941,1195.02901 621.065941,1196.38439 C621.065941,1197.50258 621.915506,1198.04474 623.750564,1198.7902 L625.27978,1199.434 C628.270246,1200.68773 629.663531,1201.97534 629.663531,1204.31338 C629.663531,1207.53241 626.910943,1209.15887 623.852512,1209.15887 C620.930011,1209.15887 618.721144,1207.70183 617.395824,1205.93983 L619.06097,1204.21172 C620.420273,1205.63487 621.813558,1206.75306 623.818529,1206.75306 C625.55164,1206.75306 626.978908,1205.90595 626.978908,1204.41503 C626.978908,1202.99188 625.755536,1202.44973 624.09039,1201.77204 L622.493209,1201.09435 C619.978499,1200.04392 618.381318,1198.89185 618.381318,1196.51993 C618.381318,1193.53809 620.930011,1191.91163 623.95446,1191.91163 Z M641.821975,1191.91163 C646.613518,1191.91163 650.48753,1195.67282 650.48753,1200.51831 C650.48753,1205.32991 646.613518,1209.12498 641.787993,1209.12498 C636.99645,1209.0911 633.15642,1205.3638 633.15642,1200.51831 C633.15642,1195.67282 636.962468,1191.91163 641.821975,1191.91163 Z M641.821975,1194.31744 C638.355753,1194.31744 635.807061,1197.0282 635.841043,1200.55219 C635.841043,1204.0423 638.355753,1206.71918 641.787993,1206.71918 C645.220232,1206.71918 647.802907,1204.00842 647.802907,1200.55219 C647.802907,1196.99432 645.220232,1194.31744 641.821975,1194.31744 Z M668.524959,1192.28436 L668.524959,1202.21254 C668.524959,1206.4481 665.50051,1209.15887 661.694462,1209.15887 C657.82045,1209.15887 654.829983,1206.4481 654.829983,1202.21254 L654.829983,1192.28436 L657.412659,1192.28436 L657.412659,1202.38196 C657.412659,1205.09272 659.315683,1206.75306 661.694462,1206.75306 C664.005277,1206.75306 665.908301,1205.09272 665.908301,1202.38196 L665.908301,1192.28436 L668.524959,1192.28436 Z M681.600932,1192.14883 C682.144653,1192.14883 682.484479,1192.2166 682.824305,1192.28436 L682.824305,1194.58851 L681.83881,1194.58851 C679.154187,1194.58851 676.639477,1196.28274 676.639477,1199.434 L676.639477,1208.78614 L674.022819,1208.78614 L674.022819,1192.28436 L676.469564,1192.28436 L676.469564,1194.65628 C677.692937,1193.02982 679.629943,1192.14883 681.600932,1192.14883 Z M693.41955,1191.91163 C696.410016,1191.91163 698.788796,1193.33479 700.250047,1195.5034 L698.381005,1196.99432 C697.157633,1195.36786 695.594435,1194.31744 693.453533,1194.31744 C689.987311,1194.31744 687.438618,1197.06208 687.438618,1200.51831 C687.438618,1204.00842 689.987311,1206.75306 693.453533,1206.75306 C695.560452,1206.75306 697.12365,1205.73653 698.347023,1204.11007 L700.216064,1205.5671 C698.754814,1207.73572 696.376034,1209.15887 693.41955,1209.15887 C688.594026,1209.15887 684.753995,1205.3638 684.753995,1200.51831 C684.753995,1195.7067 688.594026,1191.91163 693.41955,1191.91163 Z M719.103057,1199.36623 C719.103057,1200.24723 718.967127,1201.02658 718.899161,1201.33154 L705.849855,1201.33154 C706.189681,1204.61834 708.636426,1206.75306 711.898752,1206.75306 C713.971689,1206.75306 715.602852,1205.87207 716.962155,1204.51668 L718.491371,1206.27868 C716.826225,1208.04068 714.583375,1209.15887 711.86477,1209.15887 C706.869332,1209.15887 703.097267,1205.39768 703.097267,1200.55219 C703.097267,1195.74059 706.801367,1191.91163 711.558927,1191.91163 C715.806748,1191.91163 719.103057,1194.96124 719.103057,1199.36623 Z M711.490961,1194.28355 C708.704391,1194.28355 706.495524,1196.18109 705.951803,1199.02739 L716.418434,1199.02739 C716.384451,1195.97778 714.141602,1194.28355 711.490961,1194.28355 Z M728.644843,1191.91163 C731.023623,1191.91163 732.892664,1192.92817 734.184002,1194.52074 L732.586821,1196.1472 C731.499379,1195.02901 730.072111,1194.31744 728.508913,1194.31744 C726.945715,1194.31744 725.756325,1195.02901 725.756325,1196.38439 C725.756325,1197.50258 726.605889,1198.04474 728.440948,1198.7902 L729.970163,1199.434 C732.960629,1200.68773 734.353915,1201.97534 734.353915,1204.31338 C734.353915,1207.53241 731.601327,1209.15887 728.542895,1209.15887 C725.620394,1209.15887 723.411527,1207.70183 722.086207,1205.93983 L723.751353,1204.21172 C725.110656,1205.63487 726.503941,1206.75306 728.508913,1206.75306 C730.242024,1206.75306 731.669292,1205.90595 731.669292,1204.41503 C731.669292,1202.99188 730.445919,1202.44973 728.780773,1201.77204 L727.183593,1201.09435 C724.668882,1200.04392 723.071702,1198.89185 723.071702,1196.51993 C723.071702,1193.53809 725.620394,1191.91163 728.644843,1191.91163 Z M749.835335,1184.08431 C750.888794,1184.08431 751.772341,1184.93142 751.772341,1185.98184 C751.772341,1187.06614 750.888794,1187.87937 749.835335,1187.87937 C748.71391,1187.87937 747.864346,1187.06614 747.864346,1185.98184 C747.864346,1184.93142 748.71391,1184.08431 749.835335,1184.08431 Z M751.126672,1192.28436 L751.126672,1208.78614 L748.510014,1208.78614 L748.510014,1192.28436 L751.126672,1192.28436 Z M764.372558,1191.91163 C768.280554,1191.91163 770.523403,1194.58851 770.523403,1198.41747 L770.523403,1208.78614 L767.906746,1208.78614 L767.906746,1198.72243 C767.906746,1196.11332 766.343547,1194.31744 763.794855,1194.31744 C761.246162,1194.31744 759.445086,1196.1472 759.445086,1198.72243 L759.445086,1208.78614 L756.828428,1208.78614 L756.828428,1192.28436 L759.275173,1192.28436 L759.275173,1194.08025 C760.43058,1192.72486 762.231657,1191.91163 764.372558,1191.91163 Z M783.497429,1191.91163 C786.487895,1191.91163 788.866675,1193.33479 790.327925,1195.5034 L788.458884,1196.99432 C787.235512,1195.36786 785.672313,1194.31744 783.531412,1194.31744 C780.06519,1194.31744 777.516497,1197.06208 777.516497,1200.51831 C777.516497,1204.00842 780.06519,1206.75306 783.531412,1206.75306 C785.638331,1206.75306 787.201529,1205.73653 788.424902,1204.11007 L790.293943,1205.5671 C788.832692,1207.73572 786.453913,1209.15887 783.497429,1209.15887 C778.671904,1209.15887 774.831874,1205.3638 774.831874,1200.51831 C774.831874,1195.7067 778.671904,1191.91163 783.497429,1191.91163 Z M797.321019,1183.37273 L797.321019,1208.78614 L794.704361,1208.78614 L794.704361,1183.37273 L797.321019,1183.37273 Z M816.513855,1192.28436 L816.513855,1202.21254 C816.513855,1206.4481 813.489406,1209.15887 809.683358,1209.15887 C805.809345,1209.15887 802.818879,1206.4481 802.818879,1202.21254 L802.818879,1192.28436 L805.401555,1192.28436 L805.401555,1202.38196 C805.401555,1205.09272 807.304579,1206.75306 809.683358,1206.75306 C811.994173,1206.75306 813.897197,1205.09272 813.897197,1202.38196 L813.897197,1192.28436 L816.513855,1192.28436 Z M835.128987,1183.37273 L837.745645,1183.37273 L837.745645,1208.78614 L835.264917,1208.78614 L835.264917,1206.14314 C833.973579,1208.04068 831.628782,1209.15887 829.012124,1209.15887 C824.288547,1209.15887 820.822325,1205.39768 820.822325,1200.55219 C820.822325,1195.67282 824.288547,1191.91163 829.012124,1191.91163 C831.526834,1191.91163 833.803667,1192.96206 835.128987,1194.72405 L835.128987,1183.37273 Z M829.385933,1206.75306 C832.240468,1206.75306 835.162969,1204.88941 835.162969,1200.55219 C835.162969,1196.21497 832.240468,1194.31744 829.385933,1194.31744 C826.021658,1194.31744 823.506948,1196.92655 823.506948,1200.51831 C823.506948,1204.11007 825.987676,1206.75306 829.385933,1206.75306 Z M858.263801,1199.36623 C858.263801,1200.24723 858.12787,1201.02658 858.059905,1201.33154 L845.010599,1201.33154 C845.350424,1204.61834 847.797169,1206.75306 851.059496,1206.75306 C853.132433,1206.75306 854.763596,1205.87207 856.122899,1204.51668 L857.652114,1206.27868 C855.986968,1208.04068 853.744119,1209.15887 851.025513,1209.15887 C846.030076,1209.15887 842.258011,1205.39768 842.258011,1200.55219 C842.258011,1195.74059 845.962111,1191.91163 850.71967,1191.91163 C854.967491,1191.91163 858.263801,1194.96124 858.263801,1199.36623 Z M850.651705,1194.28355 C847.865134,1194.28355 845.656267,1196.18109 845.112546,1199.02739 L855.579178,1199.02739 C855.545195,1195.97778 853.302345,1194.28355 850.651705,1194.28355 Z M879.862083,1192.14883 C880.405804,1192.14883 880.74563,1192.2166 881.085455,1192.28436 L881.085455,1194.58851 L880.099961,1194.58851 C877.415338,1194.58851 874.900628,1196.28274 874.900628,1199.434 L874.900628,1208.78614 L872.28397,1208.78614 L872.28397,1192.28436 L874.730715,1192.28436 L874.730715,1194.65628 C875.954088,1193.02982 877.891094,1192.14883 879.862083,1192.14883 Z M899.020936,1199.36623 C899.020936,1200.24723 898.885006,1201.02658 898.817041,1201.33154 L885.767734,1201.33154 C886.10756,1204.61834 888.554305,1206.75306 891.816632,1206.75306 C893.889568,1206.75306 895.520732,1205.87207 896.880034,1204.51668 L898.40925,1206.27868 C896.744104,1208.04068 894.501254,1209.15887 891.782649,1209.15887 C886.787211,1209.15887 883.015146,1205.39768 883.015146,1200.55219 C883.015146,1195.74059 886.719246,1191.91163 891.476806,1191.91163 C895.724627,1191.91163 899.020936,1194.96124 899.020936,1199.36623 Z M891.408841,1194.28355 C888.62227,1194.28355 886.413403,1196.18109 885.869682,1199.02739 L896.336313,1199.02739 C896.302331,1195.97778 894.059481,1194.28355 891.408841,1194.28355 Z M909.514234,1191.91163 C913.286299,1191.91163 915.970922,1194.1819 915.970922,1198.62077 L915.970922,1208.78614 L913.524177,1208.78614 L913.524177,1206.65141 C912.334787,1208.24398 910.397781,1209.15887 907.951036,1209.15887 C904.620744,1209.15887 902.173999,1207.39687 902.173999,1204.51668 C902.173999,1201.73815 904.518797,1199.90839 908.120949,1199.90839 L913.354265,1199.90839 L913.354265,1198.48524 C913.354265,1195.7067 911.791066,1194.31744 909.344321,1194.31744 C907.271385,1194.31744 905.810134,1195.30009 904.518797,1196.96043 L902.785686,1195.53728 C904.348884,1193.02982 906.863594,1191.91163 909.514234,1191.91163 Z M908.290862,1206.99026 C911.009467,1206.99026 913.354265,1205.02495 913.354265,1202.44973 L913.354265,1202.04311 L908.426792,1202.04311 C906.115977,1202.04311 904.858622,1202.82246 904.858622,1204.38115 C904.858622,1206.14314 906.455803,1206.99026 908.290862,1206.99026 Z M934.586054,1183.37273 L937.202712,1183.37273 L937.202712,1208.78614 L934.721985,1208.78614 L934.721985,1206.14314 C933.430647,1208.04068 931.08585,1209.15887 928.469192,1209.15887 C923.745615,1209.15887 920.279393,1205.39768 920.279393,1200.55219 C920.279393,1195.67282 923.745615,1191.91163 928.469192,1191.91163 C930.983902,1191.91163 933.260734,1192.96206 934.586054,1194.72405 L934.586054,1183.37273 Z M928.843,1206.75306 C931.697536,1206.75306 934.620037,1204.88941 934.620037,1200.55219 C934.620037,1196.21497 931.697536,1194.31744 928.843,1194.31744 C925.478726,1194.31744 922.964016,1196.92655 922.964016,1200.51831 C922.964016,1204.11007 925.444743,1206.75306 928.843,1206.75306 Z M944.229788,1184.08431 C945.283248,1184.08431 946.166795,1184.93142 946.166795,1185.98184 C946.166795,1187.06614 945.283248,1187.87937 944.229788,1187.87937 C943.108364,1187.87937 942.258799,1187.06614 942.258799,1185.98184 C942.258799,1184.93142 943.108364,1184.08431 944.229788,1184.08431 Z M945.521126,1192.28436 L945.521126,1208.78614 L942.904468,1208.78614 L942.904468,1192.28436 L945.521126,1192.28436 Z M958.767012,1191.91163 C962.675008,1191.91163 964.917857,1194.58851 964.917857,1198.41747 L964.917857,1208.78614 L962.301199,1208.78614 L962.301199,1198.72243 C962.301199,1196.11332 960.738001,1194.31744 958.189308,1194.31744 C955.640616,1194.31744 953.83954,1196.1472 953.83954,1198.72243 L953.83954,1208.78614 L951.222882,1208.78614 L951.222882,1192.28436 L953.669627,1192.28436 L953.669627,1194.08025 C954.825034,1192.72486 956.62611,1191.91163 958.767012,1191.91163 Z M983.838832,1192.28436 L986.31956,1192.28436 L986.31956,1207.19356 C986.31956,1212.27624 983.091216,1215.25808 978.265691,1215.25808 C974.799469,1215.25808 972.114846,1213.69939 970.483683,1212.07294 L972.012898,1210.24317 C973.610079,1211.63244 975.47912,1212.85228 978.197726,1212.85228 C981.562,1212.85228 983.702902,1210.98863 983.702902,1207.3291 L983.702902,1205.87207 C982.343599,1207.60018 980.032785,1208.61671 977.552057,1208.61671 C972.896445,1208.61671 969.430223,1205.09272 969.430223,1200.28112 C969.430223,1195.5034 972.896445,1191.91163 977.552057,1191.91163 C980.168715,1191.91163 982.547495,1193.06371 983.838832,1194.96124 L983.838832,1192.28436 Z M977.959848,1206.21091 C980.848366,1206.21091 983.736885,1204.41503 983.736885,1200.28112 C983.736885,1196.1472 980.814384,1194.38521 977.959848,1194.38521 C974.595574,1194.38521 972.080863,1196.82489 972.080863,1200.315 C972.080863,1203.80511 974.595574,1206.21091 977.959848,1206.21091 Z M997.016753,1191.91163 C999.395533,1191.91163 1001.26457,1192.92817 1002.55591,1194.52074 L1000.95873,1196.1472 C999.871289,1195.02901 998.444021,1194.31744 996.880823,1194.31744 C995.317625,1194.31744 994.128235,1195.02901 994.128235,1196.38439 C994.128235,1197.50258 994.977799,1198.04474 996.812858,1198.7902 L998.342074,1199.434 C1001.33254,1200.68773 1002.72582,1201.97534 1002.72582,1204.31338 C1002.72582,1207.53241 999.973237,1209.15887 996.914806,1209.15887 C993.992305,1209.15887 991.783438,1207.70183 990.458118,1205.93983 L992.123263,1204.21172 C993.482566,1205.63487 994.875852,1206.75306 996.880823,1206.75306 C998.613934,1206.75306 1000.0412,1205.90595 1000.0412,1204.41503 C1000.0412,1202.99188 998.81783,1202.44973 997.152684,1201.77204 L995.555503,1201.09435 C993.040793,1200.04392 991.443612,1198.89185 991.443612,1196.51993 C991.443612,1193.53809 993.992305,1191.91163 997.016753,1191.91163 Z M1023.3726,1185.37192 C1021.33364,1185.37192 1019.90637,1186.04961 1019.90637,1188.52318 L1019.90637,1192.28436 L1024.05225,1192.28436 L1024.05225,1194.6224 L1019.90637,1194.6224 L1019.90637,1208.78614 L1017.28972,1208.78614 L1017.28972,1194.6224 L1014.91094,1194.6224 L1014.91094,1192.28436 L1017.28972,1192.28436 L1017.28972,1188.35376 C1017.28972,1184.59257 1019.56655,1183 1022.76091,1183 C1023.57649,1183 1024.22216,1183.10165 1024.83385,1183.27108 L1024.83385,1185.47357 C1024.29012,1185.4058 1023.81437,1185.37192 1023.3726,1185.37192 Z M1034.71546,1192.14883 C1035.25918,1192.14883 1035.599,1192.2166 1035.93883,1192.28436 L1035.93883,1194.58851 L1034.95334,1194.58851 C1032.26871,1194.58851 1029.754,1196.28274 1029.754,1199.434 L1029.754,1208.78614 L1027.13734,1208.78614 L1027.13734,1192.28436 L1029.58409,1192.28436 L1029.58409,1194.65628 C1030.80746,1193.02982 1032.74447,1192.14883 1034.71546,1192.14883 Z M1046.53408,1191.91163 C1051.32562,1191.91163 1055.19963,1195.67282 1055.19963,1200.51831 C1055.19963,1205.32991 1051.32562,1209.12498 1046.50009,1209.12498 C1041.70855,1209.0911 1037.86852,1205.3638 1037.86852,1200.51831 C1037.86852,1195.67282 1041.67457,1191.91163 1046.53408,1191.91163 Z M1046.53408,1194.31744 C1043.06785,1194.31744 1040.51916,1197.0282 1040.55314,1200.55219 C1040.55314,1204.0423 1043.06785,1206.71918 1046.50009,1206.71918 C1049.93233,1206.71918 1052.51501,1204.00842 1052.51501,1200.55219 C1052.51501,1196.99432 1049.93233,1194.31744 1046.53408,1194.31744 Z M1077.89267,1191.91163 C1081.76668,1191.91163 1083.90759,1194.58851 1083.90759,1198.41747 L1083.90759,1208.78614 L1081.29093,1208.78614 L1081.29093,1198.75631 C1081.29093,1196.1472 1079.86366,1194.31744 1077.38293,1194.31744 C1074.86822,1194.31744 1073.13511,1196.21497 1073.13511,1198.51912 L1073.13511,1208.78614 L1070.51845,1208.78614 L1070.51845,1198.75631 C1070.51845,1196.1472 1069.02322,1194.31744 1066.57648,1194.31744 C1064.06177,1194.31744 1062.36264,1196.1472 1062.36264,1198.75631 L1062.36264,1208.78614 L1059.74598,1208.78614 L1059.74598,1192.28436 L1062.19272,1192.28436 L1062.19272,1194.01248 C1063.34813,1192.69098 1065.04726,1191.91163 1067.1202,1191.91163 C1069.60092,1191.91163 1071.30005,1193.02982 1072.21758,1194.75794 C1073.37299,1193.09759 1075.34398,1191.91163 1077.89267,1191.91163 Z M373.70989,1223.92057 L374.627419,1223.92057 L374.627419,1246.65709 L371.976779,1246.65709 L371.976779,1230.59582 L364.806457,1240.32069 L363.854945,1240.32069 L356.65064,1230.56194 L356.65064,1246.65709 L354,1246.65709 L354,1223.92057 L354.951512,1223.92057 L364.296718,1236.86446 L373.70989,1223.92057 Z M386.34409,1229.78259 C390.116155,1229.78259 392.800778,1232.05286 392.800778,1236.49173 L392.800778,1246.65709 L390.354033,1246.65709 L390.354033,1244.52237 C389.164643,1246.11494 387.227637,1247.02982 384.780892,1247.02982 C381.4506,1247.02982 379.003855,1245.26783 379.003855,1242.38764 C379.003855,1239.60911 381.348652,1237.77934 384.950805,1237.77934 L390.18412,1237.77934 L390.18412,1236.35619 C390.18412,1233.57766 388.620922,1232.1884 386.174177,1232.1884 C384.10124,1232.1884 382.63999,1233.17105 381.348652,1234.83139 L379.615541,1233.40824 C381.178739,1230.90078 383.69345,1229.78259 386.34409,1229.78259 Z M385.120717,1244.86121 C387.839323,1244.86121 390.18412,1242.89591 390.18412,1240.32069 L390.18412,1239.91407 L385.256648,1239.91407 C382.945833,1239.91407 381.688478,1240.69342 381.688478,1242.2521 C381.688478,1244.0141 383.285659,1244.86121 385.120717,1244.86121 Z M405.774804,1229.78259 C408.76527,1229.78259 411.14405,1231.20574 412.6053,1233.37435 L410.736259,1234.86527 C409.512886,1233.23882 407.949688,1232.1884 405.808786,1232.1884 C402.342564,1232.1884 399.793872,1234.93304 399.793872,1238.38927 C399.793872,1241.87937 402.342564,1244.62402 405.808786,1244.62402 C407.915706,1244.62402 409.478904,1243.60749 410.702276,1241.98103 L412.571317,1243.43806 C411.110067,1245.60667 408.731287,1247.02982 405.774804,1247.02982 C400.949279,1247.02982 397.109249,1243.23476 397.109249,1238.38927 C397.109249,1233.57766 400.949279,1229.78259 405.774804,1229.78259 Z M424.559849,1229.78259 C428.433861,1229.78259 430.676711,1232.45947 430.676711,1236.28842 L430.676711,1246.65709 L428.060053,1246.65709 L428.060053,1236.62727 C428.060053,1234.01816 426.496855,1232.1884 423.948162,1232.1884 C421.39947,1232.1884 419.598394,1234.05204 419.598394,1236.62727 L419.598394,1246.65709 L416.981736,1246.65709 L416.981736,1221.24369 L419.598394,1221.24369 L419.598394,1232.01897 C420.685836,1230.62971 422.418947,1229.78259 424.559849,1229.78259 Z M437.499892,1221.95526 C438.553351,1221.95526 439.436898,1222.80238 439.436898,1223.8528 C439.436898,1224.9371 438.553351,1225.75033 437.499892,1225.75033 C436.378467,1225.75033 435.528903,1224.9371 435.528903,1223.8528 C435.528903,1222.80238 436.378467,1221.95526 437.499892,1221.95526 Z M438.791229,1230.15532 L438.791229,1246.65709 L436.174571,1246.65709 L436.174571,1230.15532 L438.791229,1230.15532 Z M450.439935,1229.78259 C454.212,1229.78259 456.896623,1232.05286 456.896623,1236.49173 L456.896623,1246.65709 L454.449878,1246.65709 L454.449878,1244.52237 C453.260488,1246.11494 451.323482,1247.02982 448.876737,1247.02982 C445.546445,1247.02982 443.0997,1245.26783 443.0997,1242.38764 C443.0997,1239.60911 445.444497,1237.77934 449.046649,1237.77934 L454.279965,1237.77934 L454.279965,1236.35619 C454.279965,1233.57766 452.716767,1232.1884 450.270022,1232.1884 C448.197085,1232.1884 446.735835,1233.17105 445.444497,1234.83139 L443.711386,1233.40824 C445.274584,1230.90078 447.789294,1229.78259 450.439935,1229.78259 Z M449.216562,1244.86121 C451.935168,1244.86121 454.279965,1242.89591 454.279965,1240.32069 L454.279965,1239.91407 L449.352493,1239.91407 C447.041678,1239.91407 445.784323,1240.69342 445.784323,1242.2521 C445.784323,1244.0141 447.381504,1244.86121 449.216562,1244.86121 Z M473.472801,1230.15532 L476.259371,1230.15532 L468.477363,1247.02982 L467.525851,1247.02982 L459.70986,1230.15532 L462.496431,1230.15532 L468.001607,1242.59095 L473.472801,1230.15532 Z M494.126887,1237.23719 C494.126887,1238.11819 493.990957,1238.89753 493.922992,1239.2025 L480.873685,1239.2025 C481.213511,1242.4893 483.660256,1244.62402 486.922582,1244.62402 C488.995519,1244.62402 490.626682,1243.74302 491.985985,1242.38764 L493.515201,1244.14964 C491.850055,1245.91163 489.607205,1247.02982 486.8886,1247.02982 C481.893162,1247.02982 478.121097,1243.26864 478.121097,1238.42315 C478.121097,1233.61155 481.825197,1229.78259 486.582757,1229.78259 C490.830578,1229.78259 494.126887,1232.8322 494.126887,1237.23719 Z M486.514792,1232.15451 C483.728221,1232.15451 481.519354,1234.05204 480.975633,1236.89835 L491.442264,1236.89835 C491.408281,1233.84874 489.165432,1232.15451 486.514792,1232.15451 Z M501.289893,1221.24369 L501.289893,1246.65709 L498.673236,1246.65709 L498.673236,1221.24369 L501.289893,1221.24369 Z M509.608307,1221.24369 L509.608307,1246.65709 L506.991649,1246.65709 L506.991649,1221.24369 L509.608307,1221.24369 Z M516.635383,1221.95526 C517.688843,1221.95526 518.57239,1222.80238 518.57239,1223.8528 C518.57239,1224.9371 517.688843,1225.75033 516.635383,1225.75033 C515.513958,1225.75033 514.664394,1224.9371 514.664394,1223.8528 C514.664394,1222.80238 515.513958,1221.95526 516.635383,1221.95526 Z M517.926721,1230.15532 L517.926721,1246.65709 L515.310063,1246.65709 L515.310063,1230.15532 L517.926721,1230.15532 Z M528.487984,1224.2933 L527.026734,1233.00162 L524.953797,1233.00162 L525.429553,1224.2933 L528.487984,1224.2933 Z M538.777387,1229.78259 C541.156167,1229.78259 543.025208,1230.79913 544.316545,1232.3917 L542.719365,1234.01816 C541.631922,1232.89997 540.204655,1232.1884 538.641456,1232.1884 C537.078258,1232.1884 535.888868,1232.89997 535.888868,1234.25535 C535.888868,1235.37354 536.738433,1235.91569 538.573491,1236.66115 L540.102707,1237.30496 C543.093173,1238.55869 544.486458,1239.8463 544.486458,1242.18433 C544.486458,1245.40337 541.73387,1247.02982 538.675439,1247.02982 C535.752938,1247.02982 533.544071,1245.57279 532.218751,1243.81079 L533.883897,1242.08268 C535.2432,1243.50583 536.636485,1244.62402 538.641456,1244.62402 C540.374567,1244.62402 541.801835,1243.77691 541.801835,1242.28599 C541.801835,1240.86284 540.578463,1240.32069 538.913317,1239.64299 L537.316136,1238.9653 C534.801426,1237.91488 533.204245,1236.76281 533.204245,1234.39089 C533.204245,1231.40905 535.752938,1229.78259 538.777387,1229.78259 Z M573.153115,1224.2933 L573.153115,1226.66521 L565.235176,1226.66521 L565.235176,1246.65709 L562.584536,1246.65709 L562.584536,1226.66521 L554.70058,1226.66521 L554.70058,1224.2933 L573.153115,1224.2933 Z M584.224117,1229.78259 C588.09813,1229.78259 590.340979,1232.45947 590.340979,1236.28842 L590.340979,1246.65709 L587.724321,1246.65709 L587.724321,1236.62727 C587.724321,1234.01816 586.161123,1232.1884 583.612431,1232.1884 C581.063738,1232.1884 579.262662,1234.05204 579.262662,1236.62727 L579.262662,1246.65709 L576.646004,1246.65709 L576.646004,1221.24369 L579.262662,1221.24369 L579.262662,1232.01897 C580.350104,1230.62971 582.083215,1229.78259 584.224117,1229.78259 Z M610.65524,1237.23719 C610.65524,1238.11819 610.519309,1238.89753 610.451344,1239.2025 L597.402038,1239.2025 C597.741864,1242.4893 600.188609,1244.62402 603.450935,1244.62402 C605.523872,1244.62402 607.155035,1243.74302 608.514338,1242.38764 L610.043554,1244.14964 C608.378408,1245.91163 606.135558,1247.02982 603.416953,1247.02982 C598.421515,1247.02982 594.64945,1243.26864 594.64945,1238.42315 C594.64945,1233.61155 598.35355,1229.78259 603.111109,1229.78259 C607.358931,1229.78259 610.65524,1232.8322 610.65524,1237.23719 Z M603.043144,1232.15451 C600.256574,1232.15451 598.047707,1234.05204 597.503986,1236.89835 L607.970617,1236.89835 C607.936634,1233.84874 605.693785,1232.15451 603.043144,1232.15451 Z M632.763261,1224.2933 C637.180995,1224.2933 639.933583,1227.00406 639.933583,1230.76524 C639.933583,1234.56031 637.180995,1237.30496 632.763261,1237.30496 L627.529945,1237.30496 L627.529945,1246.65709 L624.879305,1246.65709 L624.879305,1224.2933 L632.763261,1224.2933 Z M632.695296,1226.66521 L627.529945,1226.66521 L627.529945,1234.93304 L632.695296,1234.93304 C635.651779,1234.93304 637.180995,1233.20493 637.180995,1230.79913 C637.180995,1228.42721 635.651779,1226.66521 632.695296,1226.66521 Z M651.582288,1230.01978 C652.126009,1230.01978 652.465835,1230.08755 652.805661,1230.15532 L652.805661,1232.45947 L651.820166,1232.45947 C649.135543,1232.45947 646.620833,1234.1537 646.620833,1237.30496 L646.620833,1246.65709 L644.004175,1246.65709 L644.004175,1230.15532 L646.45092,1230.15532 L646.45092,1232.52724 C647.674293,1230.90078 649.611299,1230.01978 651.582288,1230.01978 Z M657.589887,1221.95526 C658.643347,1221.95526 659.526894,1222.80238 659.526894,1223.8528 C659.526894,1224.9371 658.643347,1225.75033 657.589887,1225.75033 C656.468462,1225.75033 655.618898,1224.9371 655.618898,1223.8528 C655.618898,1222.80238 656.468462,1221.95526 657.589887,1221.95526 Z M658.881225,1230.15532 L658.881225,1246.65709 L656.264567,1246.65709 L656.264567,1230.15532 L658.881225,1230.15532 Z M672.127111,1229.78259 C676.035107,1229.78259 678.277956,1232.45947 678.277956,1236.28842 L678.277956,1246.65709 L675.661298,1246.65709 L675.661298,1236.59339 C675.661298,1233.98428 674.0981,1232.1884 671.549407,1232.1884 C669.000715,1232.1884 667.199639,1234.01816 667.199639,1236.59339 L667.199639,1246.65709 L664.582981,1246.65709 L664.582981,1230.15532 L667.029726,1230.15532 L667.029726,1231.9512 C668.185133,1230.59582 669.986209,1229.78259 672.127111,1229.78259 Z M691.251982,1229.78259 C694.242448,1229.78259 696.621228,1231.20574 698.082478,1233.37435 L696.213437,1234.86527 C694.990064,1233.23882 693.426866,1232.1884 691.285964,1232.1884 C687.819742,1232.1884 685.27105,1234.93304 685.27105,1238.38927 C685.27105,1241.87937 687.819742,1244.62402 691.285964,1244.62402 C693.392884,1244.62402 694.956082,1243.60749 696.179454,1241.98103 L698.048495,1243.43806 C696.587245,1245.60667 694.208465,1247.02982 691.251982,1247.02982 C686.426457,1247.02982 682.586427,1243.23476 682.586427,1238.38927 C682.586427,1233.57766 686.426457,1229.78259 691.251982,1229.78259 Z M716.935488,1237.23719 C716.935488,1238.11819 716.799558,1238.89753 716.731593,1239.2025 L703.682286,1239.2025 C704.022112,1242.4893 706.468857,1244.62402 709.731183,1244.62402 C711.80412,1244.62402 713.435284,1243.74302 714.794586,1242.38764 L716.323802,1244.14964 C714.658656,1245.91163 712.415806,1247.02982 709.697201,1247.02982 C704.701763,1247.02982 700.929698,1243.26864 700.929698,1238.42315 C700.929698,1233.61155 704.633798,1229.78259 709.391358,1229.78259 C713.639179,1229.78259 716.935488,1232.8322 716.935488,1237.23719 Z M709.323393,1232.15451 C706.536822,1232.15451 704.327955,1234.05204 703.784234,1236.89835 L714.250865,1236.89835 C714.216883,1233.84874 711.974033,1232.15451 709.323393,1232.15451 Z M725.016024,1243.60749 L723.622738,1252.72243 L721.481837,1252.72243 L721.92361,1243.60749 L725.016024,1243.60749 Z M754.60021,1224.2933 L754.60021,1226.66521 L746.682271,1226.66521 L746.682271,1246.65709 L744.031631,1246.65709 L744.031631,1226.66521 L736.147675,1226.66521 L736.147675,1224.2933 L754.60021,1224.2933 Z M769.511242,1230.15532 L769.511242,1240.08349 C769.511242,1244.31906 766.486793,1247.02982 762.680746,1247.02982 C758.806733,1247.02982 755.816267,1244.31906 755.816267,1240.08349 L755.816267,1230.15532 L758.398942,1230.15532 L758.398942,1240.25292 C758.398942,1242.96368 760.301966,1244.62402 762.680746,1244.62402 C764.99156,1244.62402 766.894584,1242.96368 766.894584,1240.25292 L766.894584,1230.15532 L769.511242,1230.15532 Z M783.70864,1229.78259 C788.4662,1229.78259 791.898439,1233.54378 791.898439,1238.38927 C791.898439,1243.26864 788.432217,1247.02982 783.70864,1247.02982 C781.261895,1247.02982 778.951081,1246.01329 777.62576,1244.25129 L777.62576,1252.75631 L775.009103,1252.75631 L775.009103,1230.15532 L777.455847,1230.15532 L777.455847,1232.79832 C778.747185,1230.90078 781.091982,1229.78259 783.70864,1229.78259 Z M783.334832,1244.62402 C786.699106,1244.62402 789.213816,1242.01491 789.213816,1238.42315 C789.213816,1234.83139 786.733089,1232.1884 783.334832,1232.1884 C780.480296,1232.1884 777.591778,1234.05204 777.591778,1238.38927 C777.591778,1242.72649 780.446314,1244.62402 783.334832,1244.62402 Z M802.391737,1229.78259 C806.163803,1229.78259 808.848425,1232.05286 808.848425,1236.49173 L808.848425,1246.65709 L806.401681,1246.65709 L806.401681,1244.52237 C805.212291,1246.11494 803.275284,1247.02982 800.828539,1247.02982 C797.498247,1247.02982 795.051503,1245.26783 795.051503,1242.38764 C795.051503,1239.60911 797.3963,1237.77934 800.998452,1237.77934 L806.231768,1237.77934 L806.231768,1236.35619 C806.231768,1233.57766 804.66857,1232.1884 802.221825,1232.1884 C800.148888,1232.1884 798.687637,1233.17105 797.3963,1234.83139 L795.663189,1233.40824 C797.226387,1230.90078 799.741097,1229.78259 802.391737,1229.78259 Z M801.168365,1244.86121 C803.88697,1244.86121 806.231768,1242.89591 806.231768,1240.32069 L806.231768,1239.91407 L801.304295,1239.91407 C798.99348,1239.91407 797.736125,1240.69342 797.736125,1242.2521 C797.736125,1244.0141 799.333306,1244.86121 801.168365,1244.86121 Z M821.822451,1229.78259 C824.812917,1229.78259 827.191697,1231.20574 828.652947,1233.37435 L826.783906,1234.86527 C825.560534,1233.23882 823.997336,1232.1884 821.856434,1232.1884 C818.390212,1232.1884 815.841519,1234.93304 815.841519,1238.38927 C815.841519,1241.87937 818.390212,1244.62402 821.856434,1244.62402 C823.963353,1244.62402 825.526551,1243.60749 826.749924,1241.98103 L828.618965,1243.43806 C827.157714,1245.60667 824.778935,1247.02982 821.822451,1247.02982 C816.996926,1247.02982 813.156896,1243.23476 813.156896,1238.38927 C813.156896,1233.57766 816.996926,1229.78259 821.822451,1229.78259 Z M849.19777,1223.92057 C852.256202,1223.92057 854.838877,1225.51314 856.232162,1227.71564 L854.295156,1229.17267 C853.105766,1227.37679 851.202742,1226.36025 849.163788,1226.36025 C847.090851,1226.36025 845.187827,1227.41067 845.187827,1229.61317 C845.187827,1231.64624 846.751025,1232.3917 848.789979,1233.37435 L851.270707,1234.56031 C854.533034,1236.119 856.504023,1237.77934 856.504023,1240.79507 C856.504023,1244.55625 853.411609,1247.02982 849.265735,1247.02982 C845.697566,1247.02982 842.741082,1245.16617 841.007971,1242.21822 L842.97896,1240.76118 C844.338263,1242.82814 846.343235,1244.59014 849.231753,1244.59014 C851.882393,1244.59014 853.751435,1243.1331 853.751435,1240.86284 C853.751435,1238.79588 852.222219,1237.98265 850.013352,1236.93223 L847.498642,1235.74627 C844.881984,1234.49254 842.435239,1232.89997 842.435239,1229.74871 C842.435239,1226.19083 845.561635,1223.92057 849.19777,1223.92057 Z M869.002292,1229.78259 C872.876305,1229.78259 875.119155,1232.45947 875.119155,1236.28842 L875.119155,1246.65709 L872.502497,1246.65709 L872.502497,1236.62727 C872.502497,1234.01816 870.939299,1232.1884 868.390606,1232.1884 C865.841913,1232.1884 864.040837,1234.05204 864.040837,1236.62727 L864.040837,1246.65709 L861.424179,1246.65709 L861.424179,1221.24369 L864.040837,1221.24369 L864.040837,1232.01897 C865.128279,1230.62971 866.86139,1229.78259 869.002292,1229.78259 Z M886.563965,1229.78259 C890.33603,1229.78259 893.020653,1232.05286 893.020653,1236.49173 L893.020653,1246.65709 L890.573908,1246.65709 L890.573908,1244.52237 C889.384518,1246.11494 887.447512,1247.02982 885.000767,1247.02982 C881.670475,1247.02982 879.22373,1245.26783 879.22373,1242.38764 C879.22373,1239.60911 881.568527,1237.77934 885.170679,1237.77934 L890.403995,1237.77934 L890.403995,1236.35619 C890.403995,1233.57766 888.840797,1232.1884 886.394052,1232.1884 C884.321115,1232.1884 882.859865,1233.17105 881.568527,1234.83139 L879.835416,1233.40824 C881.398614,1230.90078 883.913324,1229.78259 886.563965,1229.78259 Z M885.340592,1244.86121 C888.059198,1244.86121 890.403995,1242.89591 890.403995,1240.32069 L890.403995,1239.91407 L885.476523,1239.91407 C883.165708,1239.91407 881.908353,1240.69342 881.908353,1242.2521 C881.908353,1244.0141 883.505534,1244.86121 885.340592,1244.86121 Z M898.518513,1246.65709 L898.518513,1221.24369 L901.135171,1221.24369 L901.135171,1246.65709 L898.518513,1246.65709 Z M904.567411,1237.40661 L912.383401,1246.65709 L909.019127,1246.65709 L901.407032,1237.37273 L908.305493,1230.15532 L911.737733,1230.15532 L904.567411,1237.40661 Z M929.163475,1230.15532 L929.163475,1240.08349 C929.163475,1244.31906 926.139026,1247.02982 922.332978,1247.02982 C918.458966,1247.02982 915.4685,1244.31906 915.4685,1240.08349 L915.4685,1230.15532 L918.051175,1230.15532 L918.051175,1240.25292 C918.051175,1242.96368 919.954199,1244.62402 922.332978,1244.62402 C924.643793,1244.62402 926.546817,1242.96368 926.546817,1240.25292 L926.546817,1230.15532 L929.163475,1230.15532 Z M942.239448,1230.01978 C942.783169,1230.01978 943.122995,1230.08755 943.462821,1230.15532 L943.462821,1232.45947 L942.477326,1232.45947 C939.792703,1232.45947 937.277993,1234.1537 937.277993,1237.30496 L937.277993,1246.65709 L934.661335,1246.65709 L934.661335,1230.15532 L937.10808,1230.15532 L937.10808,1232.52724 C938.331453,1230.90078 940.268459,1230.01978 942.239448,1230.01978 Z M950.761757,1224.2933 L949.300507,1233.00162 L947.22757,1233.00162 L947.703326,1224.2933 L950.761757,1224.2933 Z M961.05116,1229.78259 C963.42994,1229.78259 965.298981,1230.79913 966.590319,1232.3917 L964.993138,1234.01816 C963.905696,1232.89997 962.478428,1232.1884 960.91523,1232.1884 C959.352031,1232.1884 958.162642,1232.89997 958.162642,1234.25535 C958.162642,1235.37354 959.012206,1235.91569 960.847265,1236.66115 L962.37648,1237.30496 C965.366946,1238.55869 966.760232,1239.8463 966.760232,1242.18433 C966.760232,1245.40337 964.007643,1247.02982 960.949212,1247.02982 C958.026711,1247.02982 955.817844,1245.57279 954.492524,1243.81079 L956.15767,1242.08268 C957.516973,1243.50583 958.910258,1244.62402 960.91523,1244.62402 C962.648341,1244.62402 964.075609,1243.77691 964.075609,1242.28599 C964.075609,1240.86284 962.852236,1240.32069 961.18709,1239.64299 L959.589909,1238.9653 C957.075199,1237.91488 955.478019,1236.76281 955.478019,1234.39089 C955.478019,1231.40905 958.026711,1229.78259 961.05116,1229.78259 Z M989.615869,1229.78259 C994.373429,1229.78259 997.805668,1233.54378 997.805668,1238.38927 C997.805668,1243.26864 994.339446,1247.02982 989.615869,1247.02982 C987.169124,1247.02982 984.858309,1246.01329 983.532989,1244.25129 L983.532989,1252.75631 L980.916331,1252.75631 L980.916331,1230.15532 L983.363076,1230.15532 L983.363076,1232.79832 C984.654414,1230.90078 986.999211,1229.78259 989.615869,1229.78259 Z M989.242061,1244.62402 C992.606335,1244.62402 995.121045,1242.01491 995.121045,1238.42315 C995.121045,1234.83139 992.640318,1232.1884 989.242061,1232.1884 C986.387525,1232.1884 983.499007,1234.05204 983.499007,1238.38927 C983.499007,1242.72649 986.353542,1244.62402 989.242061,1244.62402 Z M1009.82818,1229.78259 C1014.61972,1229.78259 1018.49374,1233.54378 1018.49374,1238.38927 C1018.49374,1243.20087 1014.61972,1246.99594 1009.7942,1246.99594 C1005.00266,1246.96206 1001.16263,1243.23476 1001.16263,1238.38927 C1001.16263,1233.54378 1004.96867,1229.78259 1009.82818,1229.78259 Z M1009.82818,1232.1884 C1006.36196,1232.1884 1003.81327,1234.89916 1003.84725,1238.42315 C1003.84725,1241.91326 1006.36196,1244.59014 1009.7942,1244.59014 C1013.22644,1244.59014 1015.80911,1241.87937 1015.80911,1238.42315 C1015.80911,1234.86527 1013.22644,1232.1884 1009.82818,1232.1884 Z M1037.85649,1237.23719 C1037.85649,1238.11819 1037.72056,1238.89753 1037.65259,1239.2025 L1024.60328,1239.2025 C1024.94311,1242.4893 1027.38985,1244.62402 1030.65218,1244.62402 C1032.72512,1244.62402 1034.35628,1243.74302 1035.71558,1242.38764 L1037.2448,1244.14964 C1035.57965,1245.91163 1033.3368,1247.02982 1030.6182,1247.02982 C1025.62276,1247.02982 1021.8507,1243.26864 1021.8507,1238.42315 C1021.8507,1233.61155 1025.5548,1229.78259 1030.31236,1229.78259 C1034.56018,1229.78259 1037.85649,1232.8322 1037.85649,1237.23719 Z M1030.24439,1232.15451 C1027.45782,1232.15451 1025.24895,1234.05204 1024.70523,1236.89835 L1035.17186,1236.89835 C1035.13788,1233.84874 1032.89503,1232.15451 1030.24439,1232.15451 Z M1049.23333,1244.65791 C1049.879,1244.65791 1050.59263,1244.59014 1051.4422,1244.4546 L1051.4422,1246.65709 C1050.59263,1246.8604 1049.74307,1247.02982 1048.68961,1247.02982 C1045.42728,1247.02982 1043.11647,1245.43725 1043.11647,1241.67607 L1043.11647,1232.49336 L1040.3299,1232.49336 L1040.3299,1230.15532 L1043.11647,1230.15532 L1043.11647,1225.64868 L1045.73313,1225.64868 L1045.73313,1230.15532 L1050.89848,1230.15532 L1050.89848,1232.49336 L1045.73313,1232.49336 L1045.73313,1241.50664 C1045.73313,1243.98022 1047.16039,1244.65791 1049.23333,1244.65791 Z M1062.88701,1230.01978 C1063.43073,1230.01978 1063.77055,1230.08755 1064.11038,1230.15532 L1064.11038,1232.45947 L1063.12489,1232.45947 C1060.44026,1232.45947 1057.92555,1234.1537 1057.92555,1237.30496 L1057.92555,1246.65709 L1055.30889,1246.65709 L1055.30889,1230.15532 L1057.75564,1230.15532 L1057.75564,1232.52724 C1058.97901,1230.90078 1060.91602,1230.01978 1062.88701,1230.01978 Z M1079.32726,1230.15532 L1082.11383,1230.15532 L1073.95801,1248.96124 C1072.66667,1251.9092 1070.8656,1253.12904 1068.35089,1253.12904 C1067.5353,1253.12904 1066.58379,1252.9935 1065.80219,1252.7902 L1065.80219,1250.5877 C1066.58379,1250.68935 1067.22946,1250.75712 1067.80716,1250.75712 C1069.40434,1250.75712 1070.62772,1250.21497 1071.54525,1248.11413 L1072.42879,1246.11494 L1065.56431,1230.15532 L1068.38487,1230.15532 L1073.85606,1243.30252 L1079.32726,1230.15532 Z M1087,1243.60749 L1085.60671,1252.72243 L1083.46581,1252.72243 L1083.90759,1243.60749 L1087,1243.60749 Z M454.724098,1267.65355 C458.496163,1267.65355 461.180786,1269.92382 461.180786,1274.36269 L461.180786,1284.52805 L458.734041,1284.52805 L458.734041,1282.39333 C457.544652,1283.9859 455.607645,1284.90078 453.1609,1284.90078 C449.830608,1284.90078 447.383863,1283.13879 447.383863,1280.2586 C447.383863,1277.48007 449.728661,1275.6503 453.330813,1275.6503 L458.564129,1275.6503 L458.564129,1274.22715 C458.564129,1271.44862 457.00093,1270.05935 454.554185,1270.05935 C452.481249,1270.05935 451.019998,1271.04201 449.728661,1272.70235 L447.99555,1271.2792 C449.558748,1268.77174 452.073458,1267.65355 454.724098,1267.65355 Z M453.500726,1282.73217 C456.219331,1282.73217 458.564129,1280.76687 458.564129,1278.19164 L458.564129,1277.78503 L453.636656,1277.78503 C451.325841,1277.78503 450.068486,1278.56437 450.068486,1280.12306 C450.068486,1281.88506 451.665667,1282.73217 453.500726,1282.73217 Z M471.674085,1267.65355 C474.052864,1267.65355 475.921906,1268.67009 477.213243,1270.26266 L475.616063,1271.88912 C474.52862,1270.77093 473.101352,1270.05935 471.538154,1270.05935 C469.974956,1270.05935 468.785566,1270.77093 468.785566,1272.12631 C468.785566,1273.2445 469.63513,1273.78665 471.470189,1274.53211 L472.999405,1275.17592 C475.989871,1276.42965 477.383156,1277.71726 477.383156,1280.05529 C477.383156,1283.27432 474.630568,1284.90078 471.572137,1284.90078 C468.649636,1284.90078 466.440769,1283.44375 465.115449,1281.68175 L466.780595,1279.95364 C468.139897,1281.37679 469.533183,1282.49498 471.538154,1282.49498 C473.271265,1282.49498 474.698533,1281.64787 474.698533,1280.15695 C474.698533,1278.7338 473.475161,1278.19164 471.810015,1277.51395 L470.212834,1276.83626 C467.698124,1275.78584 466.100943,1274.63377 466.100943,1272.26185 C466.100943,1269.28001 468.649636,1267.65355 471.674085,1267.65355 Z M512.846327,1268.02628 L515.632897,1268.02628 L508.666471,1284.90078 L507.714959,1284.90078 L502.073852,1272.43127 L496.466728,1284.90078 L495.549199,1284.90078 L488.514807,1268.02628 L491.301378,1268.02628 L496.058938,1280.22472 L501.598096,1267.65355 L502.583591,1267.65355 L508.156732,1280.15695 L512.846327,1268.02628 Z M533.534395,1275.10815 C533.534395,1275.98915 533.398465,1276.76849 533.3305,1277.07345 L520.281194,1277.07345 C520.621019,1280.36025 523.067764,1282.49498 526.330091,1282.49498 C528.403028,1282.49498 530.034191,1281.61398 531.393494,1280.2586 L532.922709,1282.0206 C531.257563,1283.78259 529.014714,1284.90078 526.296108,1284.90078 C521.300671,1284.90078 517.528606,1281.1396 517.528606,1276.29411 C517.528606,1271.4825 521.232706,1267.65355 525.990265,1267.65355 C530.238086,1267.65355 533.534395,1270.70316 533.534395,1275.10815 Z M525.9223,1270.02547 C523.135729,1270.02547 520.926862,1271.923 520.383141,1274.7693 L530.849773,1274.7693 C530.81579,1271.7197 528.57294,1270.02547 525.9223,1270.02547 Z M540.697402,1259.11465 L540.697402,1284.52805 L538.080744,1284.52805 L538.080744,1259.11465 L540.697402,1259.11465 Z M549.015816,1259.11465 L549.015816,1284.52805 L546.399158,1284.52805 L546.399158,1259.11465 L549.015816,1259.11465 Z M570.138342,1267.65355 C573.910407,1267.65355 576.59503,1269.92382 576.59503,1274.36269 L576.59503,1284.52805 L574.148285,1284.52805 L574.148285,1282.39333 C572.958895,1283.9859 571.021889,1284.90078 568.575144,1284.90078 C565.244852,1284.90078 562.798107,1283.13879 562.798107,1280.2586 C562.798107,1277.48007 565.142904,1275.6503 568.745057,1275.6503 L573.978372,1275.6503 L573.978372,1274.22715 C573.978372,1271.44862 572.415174,1270.05935 569.968429,1270.05935 C567.895492,1270.05935 566.434242,1271.04201 565.142904,1272.70235 L563.409793,1271.2792 C564.972992,1268.77174 567.487702,1267.65355 570.138342,1267.65355 Z M568.91497,1282.73217 C571.633575,1282.73217 573.978372,1280.76687 573.978372,1278.19164 L573.978372,1277.78503 L569.0509,1277.78503 C566.740085,1277.78503 565.48273,1278.56437 565.48273,1280.12306 C565.48273,1281.88506 567.079911,1282.73217 568.91497,1282.73217 Z M587.088328,1267.65355 C589.467108,1267.65355 591.336149,1268.67009 592.627487,1270.26266 L591.030306,1271.88912 C589.942864,1270.77093 588.515596,1270.05935 586.952398,1270.05935 C585.3892,1270.05935 584.19981,1270.77093 584.19981,1272.12631 C584.19981,1273.2445 585.049374,1273.78665 586.884433,1274.53211 L588.413648,1275.17592 C591.404114,1276.42965 592.7974,1277.71726 592.7974,1280.05529 C592.7974,1283.27432 590.044812,1284.90078 586.986381,1284.90078 C584.06388,1284.90078 581.855013,1283.44375 580.529692,1281.68175 L582.194838,1279.95364 C583.554141,1281.37679 584.947426,1282.49498 586.952398,1282.49498 C588.685509,1282.49498 590.112777,1281.64787 590.112777,1280.15695 C590.112777,1278.7338 588.889404,1278.19164 587.224258,1277.51395 L585.627078,1276.83626 C583.112368,1275.78584 581.515187,1274.63377 581.515187,1272.26185 C581.515187,1269.28001 584.06388,1267.65355 587.088328,1267.65355 Z M625.100191,1267.65355 C628.974204,1267.65355 631.115106,1270.33043 631.115106,1274.15938 L631.115106,1284.52805 L628.498448,1284.52805 L628.498448,1274.49823 C628.498448,1271.88912 627.07118,1270.05935 624.590453,1270.05935 C622.075743,1270.05935 620.342632,1271.95689 620.342632,1274.26104 L620.342632,1284.52805 L617.725974,1284.52805 L617.725974,1274.49823 C617.725974,1271.88912 616.230741,1270.05935 613.783996,1270.05935 C611.269286,1270.05935 609.570157,1271.88912 609.570157,1274.49823 L609.570157,1284.52805 L606.9535,1284.52805 L606.9535,1268.02628 L609.400245,1268.02628 L609.400245,1269.75439 C610.555652,1268.4329 612.25478,1267.65355 614.327717,1267.65355 C616.808445,1267.65355 618.507573,1268.77174 619.425102,1270.49985 C620.58051,1268.83951 622.551499,1267.65355 625.100191,1267.65355 Z M648.370935,1268.02628 L651.157506,1268.02628 L643.00169,1286.8322 C641.710352,1289.78016 639.909276,1291 637.394566,1291 C636.578984,1291 635.627472,1290.86446 634.845873,1290.66115 L634.845873,1288.45866 C635.627472,1288.56031 636.273141,1288.62808 636.850845,1288.62808 C638.448025,1288.62808 639.671398,1288.08593 640.588927,1285.98509 L641.472474,1283.9859 L634.607995,1268.02628 L637.428548,1268.02628 L642.899742,1281.17348 L648.370935,1268.02628 Z M671.838259,1267.65355 C676.629801,1267.65355 680.503814,1271.41473 680.503814,1276.26022 C680.503814,1281.07183 676.629801,1284.8669 671.804277,1284.8669 C667.012734,1284.83301 663.172704,1281.10571 663.172704,1276.26022 C663.172704,1271.41473 666.978752,1267.65355 671.838259,1267.65355 Z M671.838259,1270.05935 C668.372037,1270.05935 665.823345,1272.77012 665.857327,1276.29411 C665.857327,1279.78422 668.372037,1282.4611 671.804277,1282.4611 C675.236516,1282.4611 677.819191,1279.75033 677.819191,1276.29411 C677.819191,1272.73623 675.236516,1270.05935 671.838259,1270.05935 Z M706.697059,1268.02628 L709.48363,1268.02628 L702.517203,1284.90078 L701.565691,1284.90078 L695.924585,1272.43127 L690.317461,1284.90078 L689.399932,1284.90078 L682.36554,1268.02628 L685.152111,1268.02628 L689.90967,1280.22472 L695.448829,1267.65355 L696.434323,1267.65355 L702.007465,1280.15695 L706.697059,1268.02628 Z M720.79251,1267.65355 C724.700505,1267.65355 726.943355,1270.33043 726.943355,1274.15938 L726.943355,1284.52805 L724.326697,1284.52805 L724.326697,1274.46434 C724.326697,1271.85523 722.763499,1270.05935 720.214806,1270.05935 C717.666113,1270.05935 715.865037,1271.88912 715.865037,1274.46434 L715.865037,1284.52805 L713.248379,1284.52805 L713.248379,1268.02628 L715.695124,1268.02628 L715.695124,1269.82216 C716.850532,1268.46678 718.651608,1267.65355 720.79251,1267.65355 Z M750.614574,1267.65355 C755.372133,1267.65355 758.804373,1271.41473 758.804373,1276.26022 C758.804373,1281.1396 755.338151,1284.90078 750.614574,1284.90078 C748.167829,1284.90078 745.857014,1283.88425 744.531694,1282.12225 L744.531694,1290.62727 L741.915036,1290.62727 L741.915036,1268.02628 L744.361781,1268.02628 L744.361781,1270.66928 C745.653119,1268.77174 747.997916,1267.65355 750.614574,1267.65355 Z M750.240766,1282.49498 C753.60504,1282.49498 756.11975,1279.88587 756.11975,1276.29411 C756.11975,1272.70235 753.639022,1270.05935 750.240766,1270.05935 C747.38623,1270.05935 744.497711,1271.923 744.497711,1276.26022 C744.497711,1280.59745 747.352247,1282.49498 750.240766,1282.49498 Z M778.167122,1275.10815 C778.167122,1275.98915 778.031191,1276.76849 777.963226,1277.07345 L764.91392,1277.07345 C765.253745,1280.36025 767.70049,1282.49498 770.962817,1282.49498 C773.035754,1282.49498 774.666917,1281.61398 776.02622,1280.2586 L777.555435,1282.0206 C775.890289,1283.78259 773.64744,1284.90078 770.928834,1284.90078 C765.933397,1284.90078 762.161332,1281.1396 762.161332,1276.29411 C762.161332,1271.4825 765.865432,1267.65355 770.622991,1267.65355 C774.870812,1267.65355 778.167122,1270.70316 778.167122,1275.10815 Z M770.555026,1270.02547 C767.768455,1270.02547 765.559588,1271.923 765.015867,1274.7693 L775.482499,1274.7693 C775.448516,1271.7197 773.205666,1270.02547 770.555026,1270.02547 Z M790.291583,1267.89074 C790.835304,1267.89074 791.17513,1267.95851 791.514955,1268.02628 L791.514955,1270.33043 L790.529461,1270.33043 C787.844838,1270.33043 785.330128,1272.02466 785.330128,1275.17592 L785.330128,1284.52805 L782.71347,1284.52805 L782.71347,1268.02628 L785.160215,1268.02628 L785.160215,1270.3982 C786.383588,1268.77174 788.320594,1267.89074 790.291583,1267.89074 Z M799.969299,1267.65355 C802.348079,1267.65355 804.217121,1268.67009 805.508458,1270.26266 L803.911277,1271.88912 C802.823835,1270.77093 801.396567,1270.05935 799.833369,1270.05935 C798.270171,1270.05935 797.080781,1270.77093 797.080781,1272.12631 C797.080781,1273.2445 797.930345,1273.78665 799.765404,1274.53211 L801.29462,1275.17592 C804.285086,1276.42965 805.678371,1277.71726 805.678371,1280.05529 C805.678371,1283.27432 802.925783,1284.90078 799.867352,1284.90078 C796.944851,1284.90078 794.735984,1283.44375 793.410664,1281.68175 L795.075809,1279.95364 C796.435112,1281.37679 797.828398,1282.49498 799.833369,1282.49498 C801.56648,1282.49498 802.993748,1281.64787 802.993748,1280.15695 C802.993748,1278.7338 801.770376,1278.19164 800.10523,1277.51395 L798.508049,1276.83626 C795.993339,1275.78584 794.396158,1274.63377 794.396158,1272.26185 C794.396158,1269.28001 796.944851,1267.65355 799.969299,1267.65355 Z M817.836815,1267.65355 C822.628357,1267.65355 826.50237,1271.41473 826.50237,1276.26022 C826.50237,1281.07183 822.628357,1284.8669 817.802832,1284.8669 C813.01129,1284.83301 809.17126,1281.10571 809.17126,1276.26022 C809.17126,1271.41473 812.977308,1267.65355 817.836815,1267.65355 Z M817.836815,1270.05935 C814.370593,1270.05935 811.8219,1272.77012 811.855883,1276.29411 C811.855883,1279.78422 814.370593,1282.4611 817.802832,1282.4611 C821.235072,1282.4611 823.817747,1279.75033 823.817747,1276.29411 C823.817747,1272.73623 821.235072,1270.05935 817.836815,1270.05935 Z M838.592849,1267.65355 C842.500844,1267.65355 844.743694,1270.33043 844.743694,1274.15938 L844.743694,1284.52805 L842.127036,1284.52805 L842.127036,1274.46434 C842.127036,1271.85523 840.563838,1270.05935 838.015145,1270.05935 C835.466453,1270.05935 833.665376,1271.88912 833.665376,1274.46434 L833.665376,1284.52805 L831.048719,1284.52805 L831.048719,1268.02628 L833.495464,1268.02628 L833.495464,1269.82216 C834.650871,1268.46678 836.451947,1267.65355 838.592849,1267.65355 Z M856.188504,1267.65355 C859.960569,1267.65355 862.645192,1269.92382 862.645192,1274.36269 L862.645192,1284.52805 L860.198447,1284.52805 L860.198447,1282.39333 C859.009057,1283.9859 857.072051,1284.90078 854.625306,1284.90078 C851.295014,1284.90078 848.848269,1283.13879 848.848269,1280.2586 C848.848269,1277.48007 851.193066,1275.6503 854.795219,1275.6503 L860.028534,1275.6503 L860.028534,1274.22715 C860.028534,1271.44862 858.465336,1270.05935 856.018591,1270.05935 C853.945654,1270.05935 852.484404,1271.04201 851.193066,1272.70235 L849.459955,1271.2792 C851.023153,1268.77174 853.537864,1267.65355 856.188504,1267.65355 Z M854.965131,1282.73217 C857.683737,1282.73217 860.028534,1280.76687 860.028534,1278.19164 L860.028534,1277.78503 L855.101062,1277.78503 C852.790247,1277.78503 851.532892,1278.56437 851.532892,1280.12306 C851.532892,1281.88506 853.130073,1282.73217 854.965131,1282.73217 Z M870.75971,1259.11465 L870.75971,1284.52805 L868.143052,1284.52805 L868.143052,1259.11465 L870.75971,1259.11465 Z M894.634825,1267.65355 C899.392385,1267.65355 902.824624,1271.41473 902.824624,1276.26022 C902.824624,1281.1396 899.358402,1284.90078 894.634825,1284.90078 C892.18808,1284.90078 889.877265,1283.88425 888.551945,1282.12225 L888.551945,1290.62727 L885.935287,1290.62727 L885.935287,1268.02628 L888.382032,1268.02628 L888.382032,1270.66928 C889.67337,1268.77174 892.018167,1267.65355 894.634825,1267.65355 Z M894.261017,1282.49498 C897.625291,1282.49498 900.140001,1279.88587 900.140001,1276.29411 C900.140001,1272.70235 897.659273,1270.05935 894.261017,1270.05935 C891.406481,1270.05935 888.517962,1271.923 888.517962,1276.26022 C888.517962,1280.59745 891.372498,1282.49498 894.261017,1282.49498 Z M914.847138,1267.65355 C919.63868,1267.65355 923.512693,1271.41473 923.512693,1276.26022 C923.512693,1281.07183 919.63868,1284.8669 914.813155,1284.8669 C910.021613,1284.83301 906.181583,1281.10571 906.181583,1276.26022 C906.181583,1271.41473 909.98763,1267.65355 914.847138,1267.65355 Z M914.847138,1270.05935 C911.380916,1270.05935 908.832223,1272.77012 908.866206,1276.29411 C908.866206,1279.78422 911.380916,1282.4611 914.813155,1282.4611 C918.245395,1282.4611 920.82807,1279.75033 920.82807,1276.29411 C920.82807,1272.73623 918.245395,1270.05935 914.847138,1270.05935 Z M942.875441,1275.10815 C942.875441,1275.98915 942.739511,1276.76849 942.671546,1277.07345 L929.622239,1277.07345 C929.962065,1280.36025 932.40881,1282.49498 935.671137,1282.49498 C937.744073,1282.49498 939.375237,1281.61398 940.73454,1280.2586 L942.263755,1282.0206 C940.598609,1283.78259 938.35576,1284.90078 935.637154,1284.90078 C930.641717,1284.90078 926.869651,1281.1396 926.869651,1276.29411 C926.869651,1271.4825 930.573751,1267.65355 935.331311,1267.65355 C939.579132,1267.65355 942.875441,1270.70316 942.875441,1275.10815 Z M935.263346,1270.02547 C932.476775,1270.02547 930.267908,1271.923 929.724187,1274.7693 L940.190818,1274.7693 C940.156836,1271.7197 937.913986,1270.02547 935.263346,1270.02547 Z M954.252286,1282.52886 C954.897955,1282.52886 955.611589,1282.4611 956.461153,1282.32556 L956.461153,1284.52805 C955.611589,1284.73136 954.762025,1284.90078 953.708565,1284.90078 C950.446239,1284.90078 948.135424,1283.30821 948.135424,1279.54702 L948.135424,1270.36431 L945.348853,1270.36431 L945.348853,1268.02628 L948.135424,1268.02628 L948.135424,1263.51964 L950.752082,1263.51964 L950.752082,1268.02628 L955.917432,1268.02628 L955.917432,1270.36431 L950.752082,1270.36431 L950.752082,1279.3776 C950.752082,1281.85117 952.17935,1282.52886 954.252286,1282.52886 Z M967.905963,1267.89074 C968.449684,1267.89074 968.78951,1267.95851 969.129336,1268.02628 L969.129336,1270.33043 L968.143841,1270.33043 C965.459218,1270.33043 962.944508,1272.02466 962.944508,1275.17592 L962.944508,1284.52805 L960.32785,1284.52805 L960.32785,1268.02628 L962.774595,1268.02628 L962.774595,1270.3982 C963.997968,1268.77174 965.934974,1267.89074 967.905963,1267.89074 Z M984.346211,1268.02628 L987.132782,1268.02628 L978.976965,1286.8322 C977.685627,1289.78016 975.884551,1291 973.369841,1291 C972.55426,1291 971.602748,1290.86446 970.821149,1290.66115 L970.821149,1288.45866 C971.602748,1288.56031 972.248416,1288.62808 972.82612,1288.62808 C974.423301,1288.62808 975.646673,1288.08593 976.564203,1285.98509 L977.447749,1283.9859 L970.583271,1268.02628 L973.403824,1268.02628 L978.875017,1281.17348 L984.346211,1268.02628 Z M990.183897,1280.63133 C991.339304,1280.63133 992.324799,1281.51233 992.324799,1282.76606 C992.324799,1284.01978 991.339304,1284.90078 990.183897,1284.90078 C989.02849,1284.90078 988.042995,1284.01978 988.042995,1282.76606 C988.042995,1281.51233 989.02849,1280.63133 990.183897,1280.63133 Z" id="DifferentliterarysourcesincludereadingsfromMachiavelli’sThePrince,TupacShakur’spoetry,aswellasmyownpersonalpoetry."></path>
        </g>
    </g>
</svg>