<?xml version="1.0" encoding="UTF-8"?>
<svg width="809px" height="218px" viewBox="0 0 809 218" version="1.1" xmlns="http://www.w3.org/2000/svg" xmlns:xlink="http://www.w3.org/1999/xlink">
    <!-- Generator: Sketch 53.2 (72643) - https://sketchapp.com -->
    <title>ThisprojectfocusesontrainingTensorflow’sRecurrentNeuralNetwork,usingmultipleliterarysources,inordertogeneratepoetry.</title>
    <desc>Created with Sketch.</desc>
    <g id="Page-1" stroke="none" stroke-width="1" fill="none" fill-rule="evenodd">
        <g id="Desktop-HD-Copy-38" transform="translate(-309.000000, -216.000000)" fill="#404648" fill-rule="nonzero">
            <path d="M394.145333,221.32 L394.145333,224.68 L382.961333,224.68 L382.961333,253 L379.217333,253 L379.217333,224.68 L368.081333,224.68 L368.081333,221.32 L394.145333,221.32 Z M409.783,229.096 C415.255,229.096 418.423,232.888 418.423,238.312 L418.423,253 L414.727,253 L414.727,238.792 C414.727,235.096 412.519,232.504 408.919,232.504 C405.319,232.504 402.775,235.144 402.775,238.792 L402.775,253 L399.079,253 L399.079,217 L402.775,217 L402.775,232.264 C404.311,230.296 406.759,229.096 409.783,229.096 Z M428.060667,218.008 C429.548667,218.008 430.796667,219.208 430.796667,220.696 C430.796667,222.232 429.548667,223.384 428.060667,223.384 C426.476667,223.384 425.276667,222.232 425.276667,220.696 C425.276667,219.208 426.476667,218.008 428.060667,218.008 Z M429.884667,229.624 L429.884667,253 L426.188667,253 L426.188667,229.624 L429.884667,229.624 Z M444.994333,229.096 C448.354333,229.096 450.994333,230.536 452.818333,232.792 L450.562333,235.096 C449.026333,233.512 447.010333,232.504 444.802333,232.504 C442.594333,232.504 440.914333,233.512 440.914333,235.432 C440.914333,237.016 442.114333,237.784 444.706333,238.84 L446.866333,239.752 C451.090333,241.528 453.058333,243.352 453.058333,246.664 C453.058333,251.224 449.170333,253.528 444.850333,253.528 C440.722333,253.528 437.602333,251.464 435.730333,248.968 L438.082333,246.52 C440.002333,248.536 441.970333,250.12 444.802333,250.12 C447.250333,250.12 449.266333,248.92 449.266333,246.808 C449.266333,244.792 447.538333,244.024 445.186333,243.064 L442.930333,242.104 C439.378333,240.616 437.122333,238.984 437.122333,235.624 C437.122333,231.4 440.722333,229.096 444.994333,229.096 Z M485.341667,229.096 C492.061667,229.096 496.909667,234.424 496.909667,241.288 C496.909667,248.2 492.013667,253.528 485.341667,253.528 C481.885667,253.528 478.621667,252.088 476.749667,249.592 L476.749667,261.64 L473.053667,261.64 L473.053667,229.624 L476.509667,229.624 L476.509667,233.368 C478.333667,230.68 481.645667,229.096 485.341667,229.096 Z M484.813667,250.12 C489.565667,250.12 493.117667,246.424 493.117667,241.336 C493.117667,236.248 489.613667,232.504 484.813667,232.504 C480.781667,232.504 476.701667,235.144 476.701667,241.288 C476.701667,247.432 480.733667,250.12 484.813667,250.12 Z M514.035333,229.432 C514.803333,229.432 515.283333,229.528 515.763333,229.624 L515.763333,232.888 L514.371333,232.888 C510.579333,232.888 507.027333,235.288 507.027333,239.752 L507.027333,253 L503.331333,253 L503.331333,229.624 L506.787333,229.624 L506.787333,232.984 C508.515333,230.68 511.251333,229.432 514.035333,229.432 Z M530.729,229.096 C537.497,229.096 542.969,234.424 542.969,241.288 C542.969,248.104 537.497,253.48 530.681,253.48 C523.913,253.432 518.489,248.152 518.489,241.288 C518.489,234.424 523.865,229.096 530.729,229.096 Z M530.729,232.504 C525.833,232.504 522.233,236.344 522.281,241.336 C522.281,246.28 525.833,250.072 530.681,250.072 C535.529,250.072 539.177,246.232 539.177,241.336 C539.177,236.296 535.529,232.504 530.729,232.504 Z M551.262667,218.008 C552.750667,218.008 553.998667,219.208 553.998667,220.696 C553.998667,222.232 552.750667,223.384 551.262667,223.384 C549.678667,223.384 548.478667,222.232 548.478667,220.696 C548.478667,219.208 549.678667,218.008 551.262667,218.008 Z M553.086667,229.624 L553.086667,254.584 C553.086667,259.912 549.870667,262.168 545.406667,262.168 C544.206667,262.168 543.294667,262.024 542.430667,261.784 L542.430667,258.664 C543.246667,258.76 543.822667,258.808 544.590667,258.808 C547.422667,258.808 549.390667,257.8 549.390667,254.344 L549.390667,229.624 L553.086667,229.624 Z M582.068333,239.656 C582.068333,240.904 581.876333,242.008 581.780333,242.44 L563.348333,242.44 C563.828333,247.096 567.284333,250.12 571.892333,250.12 C574.820333,250.12 577.124333,248.872 579.044333,246.952 L581.204333,249.448 C578.852333,251.944 575.684333,253.528 571.844333,253.528 C564.788333,253.528 559.460333,248.2 559.460333,241.336 C559.460333,234.52 564.692333,229.096 571.412333,229.096 C577.412333,229.096 582.068333,233.416 582.068333,239.656 Z M571.316333,232.456 C567.380333,232.456 564.260333,235.144 563.492333,239.176 L578.276333,239.176 C578.228333,234.856 575.060333,232.456 571.316333,232.456 Z M599.05,229.096 C603.274,229.096 606.634,231.112 608.698,234.184 L606.058,236.296 C604.33,233.992 602.122,232.504 599.098,232.504 C594.202,232.504 590.602,236.392 590.602,241.288 C590.602,246.232 594.202,250.12 599.098,250.12 C602.074,250.12 604.282,248.68 606.01,246.376 L608.65,248.44 C606.586,251.512 603.226,253.528 599.05,253.528 C592.234,253.528 586.81,248.152 586.81,241.288 C586.81,234.472 592.234,229.096 599.05,229.096 Z M624.527667,250.168 C625.439667,250.168 626.447667,250.072 627.647667,249.88 L627.647667,253 C626.447667,253.288 625.247667,253.528 623.759667,253.528 C619.151667,253.528 615.887667,251.272 615.887667,245.944 L615.887667,232.936 L611.951667,232.936 L611.951667,229.624 L615.887667,229.624 L615.887667,223.24 L619.583667,223.24 L619.583667,229.624 L626.879667,229.624 L626.879667,232.936 L619.583667,232.936 L619.583667,245.704 C619.583667,249.208 621.599667,250.168 624.527667,250.168 Z M655.659,219.832 C652.779,219.832 650.763,220.792 650.763,224.296 L650.763,229.624 L656.619,229.624 L656.619,232.936 L650.763,232.936 L650.763,253 L647.067,253 L647.067,232.936 L643.707,232.936 L643.707,229.624 L647.067,229.624 L647.067,224.056 C647.067,218.728 650.283,216.472 654.795,216.472 C655.947,216.472 656.859,216.616 657.723,216.856 L657.723,219.976 C656.955,219.88 656.283,219.832 655.659,219.832 Z M671.536667,229.096 C678.304667,229.096 683.776667,234.424 683.776667,241.288 C683.776667,248.104 678.304667,253.48 671.488667,253.48 C664.720667,253.432 659.296667,248.152 659.296667,241.288 C659.296667,234.424 664.672667,229.096 671.536667,229.096 Z M671.536667,232.504 C666.640667,232.504 663.040667,236.344 663.088667,241.336 C663.088667,246.28 666.640667,250.072 671.488667,250.072 C676.336667,250.072 679.984667,246.232 679.984667,241.336 C679.984667,236.296 676.336667,232.504 671.536667,232.504 Z M700.758333,229.096 C704.982333,229.096 708.342333,231.112 710.406333,234.184 L707.766333,236.296 C706.038333,233.992 703.830333,232.504 700.806333,232.504 C695.910333,232.504 692.310333,236.392 692.310333,241.288 C692.310333,246.232 695.910333,250.12 700.806333,250.12 C703.782333,250.12 705.990333,248.68 707.718333,246.376 L710.358333,248.44 C708.294333,251.512 704.934333,253.528 700.758333,253.528 C693.942333,253.528 688.518333,248.152 688.518333,241.288 C688.518333,234.472 693.942333,229.096 700.758333,229.096 Z M735.644,229.624 L735.644,243.688 C735.644,249.688 731.372,253.528 725.996,253.528 C720.524,253.528 716.3,249.688 716.3,243.688 L716.3,229.624 L719.948,229.624 L719.948,243.928 C719.948,247.768 722.636,250.12 725.996,250.12 C729.26,250.12 731.948,247.768 731.948,243.928 L731.948,229.624 L735.644,229.624 Z M750.465667,229.096 C753.825667,229.096 756.465667,230.536 758.289667,232.792 L756.033667,235.096 C754.497667,233.512 752.481667,232.504 750.273667,232.504 C748.065667,232.504 746.385667,233.512 746.385667,235.432 C746.385667,237.016 747.585667,237.784 750.177667,238.84 L752.337667,239.752 C756.561667,241.528 758.529667,243.352 758.529667,246.664 C758.529667,251.224 754.641667,253.528 750.321667,253.528 C746.193667,253.528 743.073667,251.464 741.201667,248.968 L743.553667,246.52 C745.473667,248.536 747.441667,250.12 750.273667,250.12 C752.721667,250.12 754.737667,248.92 754.737667,246.808 C754.737667,244.792 753.009667,244.024 750.657667,243.064 L748.401667,242.104 C744.849667,240.616 742.593667,238.984 742.593667,235.624 C742.593667,231.4 746.193667,229.096 750.465667,229.096 Z M786.071333,239.656 C786.071333,240.904 785.879333,242.008 785.783333,242.44 L767.351333,242.44 C767.831333,247.096 771.287333,250.12 775.895333,250.12 C778.823333,250.12 781.127333,248.872 783.047333,246.952 L785.207333,249.448 C782.855333,251.944 779.687333,253.528 775.847333,253.528 C768.791333,253.528 763.463333,248.2 763.463333,241.336 C763.463333,234.52 768.695333,229.096 775.415333,229.096 C781.415333,229.096 786.071333,233.416 786.071333,239.656 Z M775.319333,232.456 C771.383333,232.456 768.263333,235.144 767.495333,239.176 L782.279333,239.176 C782.231333,234.856 779.063333,232.456 775.319333,232.456 Z M799.549,229.096 C802.909,229.096 805.549,230.536 807.373,232.792 L805.117,235.096 C803.581,233.512 801.565,232.504 799.357,232.504 C797.149,232.504 795.469,233.512 795.469,235.432 C795.469,237.016 796.669,237.784 799.261,238.84 L801.421,239.752 C805.645,241.528 807.613,243.352 807.613,246.664 C807.613,251.224 803.725,253.528 799.405,253.528 C795.277,253.528 792.157,251.464 790.285,248.968 L792.637,246.52 C794.557,248.536 796.525,250.12 799.357,250.12 C801.805,250.12 803.821,248.92 803.821,246.808 C803.821,244.792 802.093,244.024 799.741,243.064 L797.485,242.104 C793.933,240.616 791.677,238.984 791.677,235.624 C791.677,231.4 795.277,229.096 799.549,229.096 Z M838.168333,229.096 C844.936333,229.096 850.408333,234.424 850.408333,241.288 C850.408333,248.104 844.936333,253.48 838.120333,253.48 C831.352333,253.432 825.928333,248.152 825.928333,241.288 C825.928333,234.424 831.304333,229.096 838.168333,229.096 Z M838.168333,232.504 C833.272333,232.504 829.672333,236.344 829.720333,241.336 C829.720333,246.28 833.272333,250.072 838.120333,250.072 C842.968333,250.072 846.616333,246.232 846.616333,241.336 C846.616333,236.296 842.968333,232.504 838.168333,232.504 Z M867.486,229.096 C873.006,229.096 876.174,232.888 876.174,238.312 L876.174,253 L872.478,253 L872.478,238.744 C872.478,235.048 870.27,232.504 866.67,232.504 C863.07,232.504 860.526,235.096 860.526,238.744 L860.526,253 L856.83,253 L856.83,229.624 L860.286,229.624 L860.286,232.168 C861.918,230.248 864.462,229.096 867.486,229.096 Z M906.969333,250.168 C907.881333,250.168 908.889333,250.072 910.089333,249.88 L910.089333,253 C908.889333,253.288 907.689333,253.528 906.201333,253.528 C901.593333,253.528 898.329333,251.272 898.329333,245.944 L898.329333,232.936 L894.393333,232.936 L894.393333,229.624 L898.329333,229.624 L898.329333,223.24 L902.025333,223.24 L902.025333,229.624 L909.321333,229.624 L909.321333,232.936 L902.025333,232.936 L902.025333,245.704 C902.025333,249.208 904.041333,250.168 906.969333,250.168 Z M926.255,229.432 C927.023,229.432 927.503,229.528 927.983,229.624 L927.983,232.888 L926.591,232.888 C922.799,232.888 919.247,235.288 919.247,239.752 L919.247,253 L915.551,253 L915.551,229.624 L919.007,229.624 L919.007,232.984 C920.735,230.68 923.471,229.432 926.255,229.432 Z M940.788667,229.096 C946.116667,229.096 949.908667,232.312 949.908667,238.6 L949.908667,253 L946.452667,253 L946.452667,249.976 C944.772667,252.232 942.036667,253.528 938.580667,253.528 C933.876667,253.528 930.420667,251.032 930.420667,246.952 C930.420667,243.016 933.732667,240.424 938.820667,240.424 L946.212667,240.424 L946.212667,238.408 C946.212667,234.472 944.004667,232.504 940.548667,232.504 C937.620667,232.504 935.556667,233.896 933.732667,236.248 L931.284667,234.232 C933.492667,230.68 937.044667,229.096 940.788667,229.096 Z M939.060667,250.456 C942.900667,250.456 946.212667,247.672 946.212667,244.024 L946.212667,243.448 L939.252667,243.448 C935.988667,243.448 934.212667,244.552 934.212667,246.76 C934.212667,249.256 936.468667,250.456 939.060667,250.456 Z M959.546333,218.008 C961.034333,218.008 962.282333,219.208 962.282333,220.696 C962.282333,222.232 961.034333,223.384 959.546333,223.384 C957.962333,223.384 956.762333,222.232 956.762333,220.696 C956.762333,219.208 957.962333,218.008 959.546333,218.008 Z M961.370333,229.624 L961.370333,253 L957.674333,253 L957.674333,229.624 L961.370333,229.624 Z M980.08,229.096 C985.6,229.096 988.768,232.888 988.768,238.312 L988.768,253 L985.072,253 L985.072,238.744 C985.072,235.048 982.864,232.504 979.264,232.504 C975.664,232.504 973.12,235.096 973.12,238.744 L973.12,253 L969.424,253 L969.424,229.624 L972.88,229.624 L972.88,232.168 C974.512,230.248 977.056,229.096 980.08,229.096 Z M998.405667,218.008 C999.893667,218.008 1001.14167,219.208 1001.14167,220.696 C1001.14167,222.232 999.893667,223.384 998.405667,223.384 C996.821667,223.384 995.621667,222.232 995.621667,220.696 C995.621667,219.208 996.821667,218.008 998.405667,218.008 Z M1000.22967,229.624 L1000.22967,253 L996.533667,253 L996.533667,229.624 L1000.22967,229.624 Z M1018.93933,229.096 C1024.45933,229.096 1027.62733,232.888 1027.62733,238.312 L1027.62733,253 L1023.93133,253 L1023.93133,238.744 C1023.93133,235.048 1021.72333,232.504 1018.12333,232.504 C1014.52333,232.504 1011.97933,235.096 1011.97933,238.744 L1011.97933,253 L1008.28333,253 L1008.28333,229.624 L1011.73933,229.624 L1011.73933,232.168 C1013.37133,230.248 1015.91533,229.096 1018.93933,229.096 Z M1054.353,229.624 L1057.857,229.624 L1057.857,250.744 C1057.857,257.944 1053.297,262.168 1046.481,262.168 C1041.585,262.168 1037.793,259.96 1035.489,257.656 L1037.649,255.064 C1039.905,257.032 1042.545,258.76 1046.385,258.76 C1051.137,258.76 1054.161,256.12 1054.161,250.936 L1054.161,248.872 C1052.241,251.32 1048.977,252.76 1045.473,252.76 C1038.897,252.76 1034.001,247.768 1034.001,240.952 C1034.001,234.184 1038.897,229.096 1045.473,229.096 C1049.169,229.096 1052.529,230.728 1054.353,233.416 L1054.353,229.624 Z M1046.049,249.352 C1050.129,249.352 1054.209,246.808 1054.209,240.952 C1054.209,235.096 1050.081,232.6 1046.049,232.6 C1041.297,232.6 1037.745,236.056 1037.745,241 C1037.745,245.944 1041.297,249.352 1046.049,249.352 Z M410.329833,278.32 L410.329833,281.68 L399.145833,281.68 L399.145833,310 L395.401833,310 L395.401833,281.68 L384.265833,281.68 L384.265833,278.32 L410.329833,278.32 Z M432.3035,296.656 C432.3035,297.904 432.1115,299.008 432.0155,299.44 L413.5835,299.44 C414.0635,304.096 417.5195,307.12 422.1275,307.12 C425.0555,307.12 427.3595,305.872 429.2795,303.952 L431.4395,306.448 C429.0875,308.944 425.9195,310.528 422.0795,310.528 C415.0235,310.528 409.6955,305.2 409.6955,298.336 C409.6955,291.52 414.9275,286.096 421.6475,286.096 C427.6475,286.096 432.3035,290.416 432.3035,296.656 Z M421.5515,289.456 C417.6155,289.456 414.4955,292.144 413.7275,296.176 L428.5115,296.176 C428.4635,291.856 425.2955,289.456 421.5515,289.456 Z M449.381167,286.096 C454.901167,286.096 458.069167,289.888 458.069167,295.312 L458.069167,310 L454.373167,310 L454.373167,295.744 C454.373167,292.048 452.165167,289.504 448.565167,289.504 C444.965167,289.504 442.421167,292.096 442.421167,295.744 L442.421167,310 L438.725167,310 L438.725167,286.624 L442.181167,286.624 L442.181167,289.168 C443.813167,287.248 446.357167,286.096 449.381167,286.096 Z M472.890833,286.096 C476.250833,286.096 478.890833,287.536 480.714833,289.792 L478.458833,292.096 C476.922833,290.512 474.906833,289.504 472.698833,289.504 C470.490833,289.504 468.810833,290.512 468.810833,292.432 C468.810833,294.016 470.010833,294.784 472.602833,295.84 L474.762833,296.752 C478.986833,298.528 480.954833,300.352 480.954833,303.664 C480.954833,308.224 477.066833,310.528 472.746833,310.528 C468.618833,310.528 465.498833,308.464 463.626833,305.968 L465.978833,303.52 C467.898833,305.536 469.866833,307.12 472.698833,307.12 C475.146833,307.12 477.162833,305.92 477.162833,303.808 C477.162833,301.792 475.434833,301.024 473.082833,300.064 L470.826833,299.104 C467.274833,297.616 465.018833,295.984 465.018833,292.624 C465.018833,288.4 468.618833,286.096 472.890833,286.096 Z M498.1285,286.096 C504.8965,286.096 510.3685,291.424 510.3685,298.288 C510.3685,305.104 504.8965,310.48 498.0805,310.48 C491.3125,310.432 485.8885,305.152 485.8885,298.288 C485.8885,291.424 491.2645,286.096 498.1285,286.096 Z M498.1285,289.504 C493.2325,289.504 489.6325,293.344 489.6805,298.336 C489.6805,303.28 493.2325,307.072 498.0805,307.072 C502.9285,307.072 506.5765,303.232 506.5765,298.336 C506.5765,293.296 502.9285,289.504 498.1285,289.504 Z M527.494167,286.432 C528.262167,286.432 528.742167,286.528 529.222167,286.624 L529.222167,289.888 L527.830167,289.888 C524.038167,289.888 520.486167,292.288 520.486167,296.752 L520.486167,310 L516.790167,310 L516.790167,286.624 L520.246167,286.624 L520.246167,289.984 C521.974167,287.68 524.710167,286.432 527.494167,286.432 Z M543.275833,276.832 C540.395833,276.832 538.379833,277.792 538.379833,281.296 L538.379833,286.624 L544.235833,286.624 L544.235833,289.936 L538.379833,289.936 L538.379833,310 L534.683833,310 L534.683833,289.936 L531.323833,289.936 L531.323833,286.624 L534.683833,286.624 L534.683833,281.056 C534.683833,275.728 537.899833,273.472 542.411833,273.472 C543.563833,273.472 544.475833,273.616 545.339833,273.856 L545.339833,276.976 C544.571833,276.88 543.899833,276.832 543.275833,276.832 Z M553.0095,274 L553.0095,310 L549.3135,310 L549.3135,274 L553.0095,274 Z M571.623167,286.096 C578.391167,286.096 583.863167,291.424 583.863167,298.288 C583.863167,305.104 578.391167,310.48 571.575167,310.48 C564.807167,310.432 559.383167,305.152 559.383167,298.288 C559.383167,291.424 564.759167,286.096 571.623167,286.096 Z M571.623167,289.504 C566.727167,289.504 563.127167,293.344 563.175167,298.336 C563.175167,303.28 566.727167,307.072 571.575167,307.072 C576.423167,307.072 580.071167,303.232 580.071167,298.336 C580.071167,293.296 576.423167,289.504 571.623167,289.504 Z M620.860833,286.624 L624.796833,286.624 L614.956833,310.528 L613.612833,310.528 L605.644833,292.864 L597.724833,310.528 L596.428833,310.528 L586.492833,286.624 L590.428833,286.624 L597.148833,303.904 L604.972833,286.096 L606.364833,286.096 L614.236833,303.808 L620.860833,286.624 Z M635.5385,278.32 L633.4745,290.656 L630.5465,290.656 L631.2185,278.32 L635.5385,278.32 Z M650.072167,286.096 C653.432167,286.096 656.072167,287.536 657.896167,289.792 L655.640167,292.096 C654.104167,290.512 652.088167,289.504 649.880167,289.504 C647.672167,289.504 645.992167,290.512 645.992167,292.432 C645.992167,294.016 647.192167,294.784 649.784167,295.84 L651.944167,296.752 C656.168167,298.528 658.136167,300.352 658.136167,303.664 C658.136167,308.224 654.248167,310.528 649.928167,310.528 C645.800167,310.528 642.680167,308.464 640.808167,305.968 L643.160167,303.52 C645.080167,305.536 647.048167,307.12 649.880167,307.12 C652.328167,307.12 654.344167,305.92 654.344167,303.808 C654.344167,301.792 652.616167,301.024 650.264167,300.064 L648.008167,299.104 C644.456167,297.616 642.200167,295.984 642.200167,292.624 C642.200167,288.4 645.800167,286.096 650.072167,286.096 Z M703.1395,310 L698.7715,310 L688.9315,296.704 L682.1635,296.704 L682.1635,310 L678.4195,310 L678.4195,278.32 L689.5555,278.32 C695.7955,278.32 699.6835,282.16 699.6835,287.488 C699.6835,291.76 697.1875,295.072 693.0595,296.272 L703.1395,310 Z M682.1635,281.68 L682.1635,293.344 L689.4115,293.344 C693.5875,293.344 695.7955,290.944 695.7955,287.536 C695.7955,284.176 693.5875,281.68 689.4115,281.68 L682.1635,281.68 Z M728.137167,296.656 C728.137167,297.904 727.945167,299.008 727.849167,299.44 L709.417167,299.44 C709.897167,304.096 713.353167,307.12 717.961167,307.12 C720.889167,307.12 723.193167,305.872 725.113167,303.952 L727.273167,306.448 C724.921167,308.944 721.753167,310.528 717.913167,310.528 C710.857167,310.528 705.529167,305.2 705.529167,298.336 C705.529167,291.52 710.761167,286.096 717.481167,286.096 C723.481167,286.096 728.137167,290.416 728.137167,296.656 Z M717.385167,289.456 C713.449167,289.456 710.329167,292.144 709.561167,296.176 L724.345167,296.176 C724.297167,291.856 721.129167,289.456 717.385167,289.456 Z M745.118833,286.096 C749.342833,286.096 752.702833,288.112 754.766833,291.184 L752.126833,293.296 C750.398833,290.992 748.190833,289.504 745.166833,289.504 C740.270833,289.504 736.670833,293.392 736.670833,298.288 C736.670833,303.232 740.270833,307.12 745.166833,307.12 C748.142833,307.12 750.350833,305.68 752.078833,303.376 L754.718833,305.44 C752.654833,308.512 749.294833,310.528 745.118833,310.528 C738.302833,310.528 732.878833,305.152 732.878833,298.288 C732.878833,291.472 738.302833,286.096 745.118833,286.096 Z M780.0045,286.624 L780.0045,300.688 C780.0045,306.688 775.7325,310.528 770.3565,310.528 C764.8845,310.528 760.6605,306.688 760.6605,300.688 L760.6605,286.624 L764.3085,286.624 L764.3085,300.928 C764.3085,304.768 766.9965,307.12 770.3565,307.12 C773.6205,307.12 776.3085,304.768 776.3085,300.928 L776.3085,286.624 L780.0045,286.624 Z M798.474167,286.432 C799.242167,286.432 799.722167,286.528 800.202167,286.624 L800.202167,289.888 L798.810167,289.888 C795.018167,289.888 791.466167,292.288 791.466167,296.752 L791.466167,310 L787.770167,310 L787.770167,286.624 L791.226167,286.624 L791.226167,289.984 C792.954167,287.68 795.690167,286.432 798.474167,286.432 Z M815.791833,286.432 C816.559833,286.432 817.039833,286.528 817.519833,286.624 L817.519833,289.888 L816.127833,289.888 C812.335833,289.888 808.783833,292.288 808.783833,296.752 L808.783833,310 L805.087833,310 L805.087833,286.624 L808.543833,286.624 L808.543833,289.984 C810.271833,287.68 813.007833,286.432 815.791833,286.432 Z M842.8535,296.656 C842.8535,297.904 842.6615,299.008 842.5655,299.44 L824.1335,299.44 C824.6135,304.096 828.0695,307.12 832.6775,307.12 C835.6055,307.12 837.9095,305.872 839.8295,303.952 L841.9895,306.448 C839.6375,308.944 836.4695,310.528 832.6295,310.528 C825.5735,310.528 820.2455,305.2 820.2455,298.336 C820.2455,291.52 825.4775,286.096 832.1975,286.096 C838.1975,286.096 842.8535,290.416 842.8535,296.656 Z M832.1015,289.456 C828.1655,289.456 825.0455,292.144 824.2775,296.176 L839.0615,296.176 C839.0135,291.856 835.8455,289.456 832.1015,289.456 Z M859.931167,286.096 C865.451167,286.096 868.619167,289.888 868.619167,295.312 L868.619167,310 L864.923167,310 L864.923167,295.744 C864.923167,292.048 862.715167,289.504 859.115167,289.504 C855.515167,289.504 852.971167,292.096 852.971167,295.744 L852.971167,310 L849.275167,310 L849.275167,286.624 L852.731167,286.624 L852.731167,289.168 C854.363167,287.248 856.907167,286.096 859.931167,286.096 Z M886.032833,307.168 C886.944833,307.168 887.952833,307.072 889.152833,306.88 L889.152833,310 C887.952833,310.288 886.752833,310.528 885.264833,310.528 C880.656833,310.528 877.392833,308.272 877.392833,302.944 L877.392833,289.936 L873.456833,289.936 L873.456833,286.624 L877.392833,286.624 L877.392833,280.24 L881.088833,280.24 L881.088833,286.624 L888.384833,286.624 L888.384833,289.936 L881.088833,289.936 L881.088833,302.704 C881.088833,306.208 883.104833,307.168 886.032833,307.168 Z M929.788167,278.32 L933.532167,278.32 L933.532167,310.528 L932.188167,310.528 L912.028167,286.192 L912.028167,310 L908.284167,310 L908.284167,277.792 L909.628167,277.792 L929.788167,302.176 L929.788167,278.32 Z M962.609833,296.656 C962.609833,297.904 962.417833,299.008 962.321833,299.44 L943.889833,299.44 C944.369833,304.096 947.825833,307.12 952.433833,307.12 C955.361833,307.12 957.665833,305.872 959.585833,303.952 L961.745833,306.448 C959.393833,308.944 956.225833,310.528 952.385833,310.528 C945.329833,310.528 940.001833,305.2 940.001833,298.336 C940.001833,291.52 945.233833,286.096 951.953833,286.096 C957.953833,286.096 962.609833,290.416 962.609833,296.656 Z M951.857833,289.456 C947.921833,289.456 944.801833,292.144 944.033833,296.176 L958.817833,296.176 C958.769833,291.856 955.601833,289.456 951.857833,289.456 Z M988.0875,286.624 L988.0875,300.688 C988.0875,306.688 983.8155,310.528 978.4395,310.528 C972.9675,310.528 968.7435,306.688 968.7435,300.688 L968.7435,286.624 L972.3915,286.624 L972.3915,300.928 C972.3915,304.768 975.0795,307.12 978.4395,307.12 C981.7035,307.12 984.3915,304.768 984.3915,300.928 L984.3915,286.624 L988.0875,286.624 Z M1006.55717,286.432 C1007.32517,286.432 1007.80517,286.528 1008.28517,286.624 L1008.28517,289.888 L1006.89317,289.888 C1003.10117,289.888 999.549167,292.288 999.549167,296.752 L999.549167,310 L995.853167,310 L995.853167,286.624 L999.309167,286.624 L999.309167,289.984 C1001.03717,287.68 1003.77317,286.432 1006.55717,286.432 Z M1021.09083,286.096 C1026.41883,286.096 1030.21083,289.312 1030.21083,295.6 L1030.21083,310 L1026.75483,310 L1026.75483,306.976 C1025.07483,309.232 1022.33883,310.528 1018.88283,310.528 C1014.17883,310.528 1010.72283,308.032 1010.72283,303.952 C1010.72283,300.016 1014.03483,297.424 1019.12283,297.424 L1026.51483,297.424 L1026.51483,295.408 C1026.51483,291.472 1024.30683,289.504 1020.85083,289.504 C1017.92283,289.504 1015.85883,290.896 1014.03483,293.248 L1011.58683,291.232 C1013.79483,287.68 1017.34683,286.096 1021.09083,286.096 Z M1019.36283,307.456 C1023.20283,307.456 1026.51483,304.672 1026.51483,301.024 L1026.51483,300.448 L1019.55483,300.448 C1016.29083,300.448 1014.51483,301.552 1014.51483,303.76 C1014.51483,306.256 1016.77083,307.456 1019.36283,307.456 Z M1041.6725,274 L1041.6725,310 L1037.9765,310 L1037.9765,274 L1041.6725,274 Z M393.113333,335.32 L396.857333,335.32 L396.857333,367.528 L395.513333,367.528 L375.353333,343.192 L375.353333,367 L371.609333,367 L371.609333,334.792 L372.953333,334.792 L393.113333,359.176 L393.113333,335.32 Z M425.935,353.656 C425.935,354.904 425.743,356.008 425.647,356.44 L407.215,356.44 C407.695,361.096 411.151,364.12 415.759,364.12 C418.687,364.12 420.991,362.872 422.911,360.952 L425.071,363.448 C422.719,365.944 419.551,367.528 415.711,367.528 C408.655,367.528 403.327,362.2 403.327,355.336 C403.327,348.52 408.559,343.096 415.279,343.096 C421.279,343.096 425.935,347.416 425.935,353.656 Z M415.183,346.456 C411.247,346.456 408.127,349.144 407.359,353.176 L422.143,353.176 C422.095,348.856 418.927,346.456 415.183,346.456 Z M442.004667,364.168 C442.916667,364.168 443.924667,364.072 445.124667,363.88 L445.124667,367 C443.924667,367.288 442.724667,367.528 441.236667,367.528 C436.628667,367.528 433.364667,365.272 433.364667,359.944 L433.364667,346.936 L429.428667,346.936 L429.428667,343.624 L433.364667,343.624 L433.364667,337.24 L437.060667,337.24 L437.060667,343.624 L444.356667,343.624 L444.356667,346.936 L437.060667,346.936 L437.060667,359.704 C437.060667,363.208 439.076667,364.168 442.004667,364.168 Z M482.122333,343.624 L486.058333,343.624 L476.218333,367.528 L474.874333,367.528 L466.906333,349.864 L458.986333,367.528 L457.690333,367.528 L447.754333,343.624 L451.690333,343.624 L458.410333,360.904 L466.234333,343.096 L467.626333,343.096 L475.498333,360.808 L482.122333,343.624 Z M500.976,343.096 C507.744,343.096 513.216,348.424 513.216,355.288 C513.216,362.104 507.744,367.48 500.928,367.48 C494.16,367.432 488.736,362.152 488.736,355.288 C488.736,348.424 494.112,343.096 500.976,343.096 Z M500.976,346.504 C496.08,346.504 492.48,350.344 492.528,355.336 C492.528,360.28 496.08,364.072 500.928,364.072 C505.776,364.072 509.424,360.232 509.424,355.336 C509.424,350.296 505.776,346.504 500.976,346.504 Z M530.341667,343.432 C531.109667,343.432 531.589667,343.528 532.069667,343.624 L532.069667,346.888 L530.677667,346.888 C526.885667,346.888 523.333667,349.288 523.333667,353.752 L523.333667,367 L519.637667,367 L519.637667,343.624 L523.093667,343.624 L523.093667,346.984 C524.821667,344.68 527.557667,343.432 530.341667,343.432 Z M536.955333,367 L536.955333,331 L540.651333,331 L540.651333,367 L536.955333,367 Z M545.499333,353.896 L556.539333,367 L551.787333,367 L541.035333,353.848 L550.779333,343.624 L555.627333,343.624 L545.499333,353.896 Z M566.177,362.68 L564.209,375.592 L561.185,375.592 L561.809,362.68 L566.177,362.68 Z M606.524333,343.624 L606.524333,357.688 C606.524333,363.688 602.252333,367.528 596.876333,367.528 C591.404333,367.528 587.180333,363.688 587.180333,357.688 L587.180333,343.624 L590.828333,343.624 L590.828333,357.928 C590.828333,361.768 593.516333,364.12 596.876333,364.12 C600.140333,364.12 602.828333,361.768 602.828333,357.928 L602.828333,343.624 L606.524333,343.624 Z M621.346,343.096 C624.706,343.096 627.346,344.536 629.17,346.792 L626.914,349.096 C625.378,347.512 623.362,346.504 621.154,346.504 C618.946,346.504 617.266,347.512 617.266,349.432 C617.266,351.016 618.466,351.784 621.058,352.84 L623.218,353.752 C627.442,355.528 629.41,357.352 629.41,360.664 C629.41,365.224 625.522,367.528 621.202,367.528 C617.074,367.528 613.954,365.464 612.082,362.968 L614.434,360.52 C616.354,362.536 618.322,364.12 621.154,364.12 C623.602,364.12 625.618,362.92 625.618,360.808 C625.618,358.792 623.89,358.024 621.538,357.064 L619.282,356.104 C615.73,354.616 613.474,352.984 613.474,349.624 C613.474,345.4 617.074,343.096 621.346,343.096 Z M637.895667,332.008 C639.383667,332.008 640.631667,333.208 640.631667,334.696 C640.631667,336.232 639.383667,337.384 637.895667,337.384 C636.311667,337.384 635.111667,336.232 635.111667,334.696 C635.111667,333.208 636.311667,332.008 637.895667,332.008 Z M639.719667,343.624 L639.719667,367 L636.023667,367 L636.023667,343.624 L639.719667,343.624 Z M658.429333,343.096 C663.949333,343.096 667.117333,346.888 667.117333,352.312 L667.117333,367 L663.421333,367 L663.421333,352.744 C663.421333,349.048 661.213333,346.504 657.613333,346.504 C654.013333,346.504 651.469333,349.096 651.469333,352.744 L651.469333,367 L647.773333,367 L647.773333,343.624 L651.229333,343.624 L651.229333,346.168 C652.861333,344.248 655.405333,343.096 658.429333,343.096 Z M693.843,343.624 L697.347,343.624 L697.347,364.744 C697.347,371.944 692.787,376.168 685.971,376.168 C681.075,376.168 677.283,373.96 674.979,371.656 L677.139,369.064 C679.395,371.032 682.035,372.76 685.875,372.76 C690.627,372.76 693.651,370.12 693.651,364.936 L693.651,362.872 C691.731,365.32 688.467,366.76 684.963,366.76 C678.387,366.76 673.491,361.768 673.491,354.952 C673.491,348.184 678.387,343.096 684.963,343.096 C688.659,343.096 692.019,344.728 693.843,347.416 L693.843,343.624 Z M685.539,363.352 C689.619,363.352 693.699,360.808 693.699,354.952 C693.699,349.096 689.571,346.6 685.539,346.6 C680.787,346.6 677.235,350.056 677.235,355 C677.235,359.944 680.787,363.352 685.539,363.352 Z M744.414333,343.096 C749.886333,343.096 752.910333,346.888 752.910333,352.312 L752.910333,367 L749.214333,367 L749.214333,352.792 C749.214333,349.096 747.198333,346.504 743.694333,346.504 C740.142333,346.504 737.694333,349.192 737.694333,352.456 L737.694333,367 L733.998333,367 L733.998333,352.792 C733.998333,349.096 731.886333,346.504 728.430333,346.504 C724.878333,346.504 722.478333,349.096 722.478333,352.792 L722.478333,367 L718.782333,367 L718.782333,343.624 L722.238333,343.624 L722.238333,346.072 C723.870333,344.2 726.270333,343.096 729.198333,343.096 C732.702333,343.096 735.102333,344.68 736.398333,347.128 C738.030333,344.776 740.814333,343.096 744.414333,343.096 Z M779.732,343.624 L779.732,357.688 C779.732,363.688 775.46,367.528 770.084,367.528 C764.612,367.528 760.388,363.688 760.388,357.688 L760.388,343.624 L764.036,343.624 L764.036,357.928 C764.036,361.768 766.724,364.12 770.084,364.12 C773.348,364.12 776.036,361.768 776.036,357.928 L776.036,343.624 L779.732,343.624 Z M791.193667,331 L791.193667,367 L787.497667,367 L787.497667,331 L791.193667,331 Z M808.895333,364.168 C809.807333,364.168 810.815333,364.072 812.015333,363.88 L812.015333,367 C810.815333,367.288 809.615333,367.528 808.127333,367.528 C803.519333,367.528 800.255333,365.272 800.255333,359.944 L800.255333,346.936 L796.319333,346.936 L796.319333,343.624 L800.255333,343.624 L800.255333,337.24 L803.951333,337.24 L803.951333,343.624 L811.247333,343.624 L811.247333,346.936 L803.951333,346.936 L803.951333,359.704 C803.951333,363.208 805.967333,364.168 808.895333,364.168 Z M819.349,332.008 C820.837,332.008 822.085,333.208 822.085,334.696 C822.085,336.232 820.837,337.384 819.349,337.384 C817.765,337.384 816.565,336.232 816.565,334.696 C816.565,333.208 817.765,332.008 819.349,332.008 Z M821.173,343.624 L821.173,367 L817.477,367 L817.477,343.624 L821.173,343.624 Z M841.514667,343.096 C848.234667,343.096 853.082667,348.424 853.082667,355.288 C853.082667,362.2 848.186667,367.528 841.514667,367.528 C838.058667,367.528 834.794667,366.088 832.922667,363.592 L832.922667,375.64 L829.226667,375.64 L829.226667,343.624 L832.682667,343.624 L832.682667,347.368 C834.506667,344.68 837.818667,343.096 841.514667,343.096 Z M840.986667,364.12 C845.738667,364.12 849.290667,360.424 849.290667,355.336 C849.290667,350.248 845.786667,346.504 840.986667,346.504 C836.954667,346.504 832.874667,349.144 832.874667,355.288 C832.874667,361.432 836.906667,364.12 840.986667,364.12 Z M863.200333,331 L863.200333,367 L859.504333,367 L859.504333,331 L863.200333,331 Z M892.182,353.656 C892.182,354.904 891.99,356.008 891.894,356.44 L873.462,356.44 C873.942,361.096 877.398,364.12 882.006,364.12 C884.934,364.12 887.238,362.872 889.158,360.952 L891.318,363.448 C888.966,365.944 885.798,367.528 881.958,367.528 C874.902,367.528 869.574,362.2 869.574,355.336 C869.574,348.52 874.806,343.096 881.526,343.096 C887.526,343.096 892.182,347.416 892.182,353.656 Z M881.43,346.456 C877.494,346.456 874.374,349.144 873.606,353.176 L888.39,353.176 C888.342,348.856 885.174,346.456 881.43,346.456 Z M915.681333,331 L915.681333,367 L911.985333,367 L911.985333,331 L915.681333,331 Z M925.607,332.008 C927.095,332.008 928.343,333.208 928.343,334.696 C928.343,336.232 927.095,337.384 925.607,337.384 C924.023,337.384 922.823,336.232 922.823,334.696 C922.823,333.208 924.023,332.008 925.607,332.008 Z M927.431,343.624 L927.431,367 L923.735,367 L923.735,343.624 L927.431,343.624 Z M945.132667,364.168 C946.044667,364.168 947.052667,364.072 948.252667,363.88 L948.252667,367 C947.052667,367.288 945.852667,367.528 944.364667,367.528 C939.756667,367.528 936.492667,365.272 936.492667,359.944 L936.492667,346.936 L932.556667,346.936 L932.556667,343.624 L936.492667,343.624 L936.492667,337.24 L940.188667,337.24 L940.188667,343.624 L947.484667,343.624 L947.484667,346.936 L940.188667,346.936 L940.188667,359.704 C940.188667,363.208 942.204667,364.168 945.132667,364.168 Z M974.162333,353.656 C974.162333,354.904 973.970333,356.008 973.874333,356.44 L955.442333,356.44 C955.922333,361.096 959.378333,364.12 963.986333,364.12 C966.914333,364.12 969.218333,362.872 971.138333,360.952 L973.298333,363.448 C970.946333,365.944 967.778333,367.528 963.938333,367.528 C956.882333,367.528 951.554333,362.2 951.554333,355.336 C951.554333,348.52 956.786333,343.096 963.506333,343.096 C969.506333,343.096 974.162333,347.416 974.162333,353.656 Z M963.410333,346.456 C959.474333,346.456 956.354333,349.144 955.586333,353.176 L970.370333,353.176 C970.322333,348.856 967.154333,346.456 963.410333,346.456 Z M991.288,343.432 C992.056,343.432 992.536,343.528 993.016,343.624 L993.016,346.888 L991.624,346.888 C987.832,346.888 984.28,349.288 984.28,353.752 L984.28,367 L980.584,367 L980.584,343.624 L984.04,343.624 L984.04,346.984 C985.768,344.68 988.504,343.432 991.288,343.432 Z M1005.82167,343.096 C1011.14967,343.096 1014.94167,346.312 1014.94167,352.6 L1014.94167,367 L1011.48567,367 L1011.48567,363.976 C1009.80567,366.232 1007.06967,367.528 1003.61367,367.528 C998.909667,367.528 995.453667,365.032 995.453667,360.952 C995.453667,357.016 998.765667,354.424 1003.85367,354.424 L1011.24567,354.424 L1011.24567,352.408 C1011.24567,348.472 1009.03767,346.504 1005.58167,346.504 C1002.65367,346.504 1000.58967,347.896 998.765667,350.248 L996.317667,348.232 C998.525667,344.68 1002.07767,343.096 1005.82167,343.096 Z M1004.09367,364.456 C1007.93367,364.456 1011.24567,361.672 1011.24567,358.024 L1011.24567,357.448 L1004.28567,357.448 C1001.02167,357.448 999.245667,358.552 999.245667,360.76 C999.245667,363.256 1001.50167,364.456 1004.09367,364.456 Z M1033.41133,343.432 C1034.17933,343.432 1034.65933,343.528 1035.13933,343.624 L1035.13933,346.888 L1033.74733,346.888 C1029.95533,346.888 1026.40333,349.288 1026.40333,353.752 L1026.40333,367 L1022.70733,367 L1022.70733,343.624 L1026.16333,343.624 L1026.16333,346.984 C1027.89133,344.68 1030.62733,343.432 1033.41133,343.432 Z M1056.633,343.624 L1060.569,343.624 L1049.049,370.264 C1047.225,374.44 1044.681,376.168 1041.129,376.168 C1039.977,376.168 1038.633,375.976 1037.529,375.688 L1037.529,372.568 C1038.633,372.712 1039.545,372.808 1040.361,372.808 C1042.617,372.808 1044.345,372.04 1045.641,369.064 L1046.889,366.232 L1037.193,343.624 L1041.177,343.624 L1048.905,362.248 L1056.633,343.624 Z M318.859167,400.096 C322.219167,400.096 324.859167,401.536 326.683167,403.792 L324.427167,406.096 C322.891167,404.512 320.875167,403.504 318.667167,403.504 C316.459167,403.504 314.779167,404.512 314.779167,406.432 C314.779167,408.016 315.979167,408.784 318.571167,409.84 L320.731167,410.752 C324.955167,412.528 326.923167,414.352 326.923167,417.664 C326.923167,422.224 323.035167,424.528 318.715167,424.528 C314.587167,424.528 311.467167,422.464 309.595167,419.968 L311.947167,417.52 C313.867167,419.536 315.835167,421.12 318.667167,421.12 C321.115167,421.12 323.131167,419.92 323.131167,417.808 C323.131167,415.792 321.403167,415.024 319.051167,414.064 L316.795167,413.104 C313.243167,411.616 310.987167,409.984 310.987167,406.624 C310.987167,402.4 314.587167,400.096 318.859167,400.096 Z M344.096833,400.096 C350.864833,400.096 356.336833,405.424 356.336833,412.288 C356.336833,419.104 350.864833,424.48 344.048833,424.48 C337.280833,424.432 331.856833,419.152 331.856833,412.288 C331.856833,405.424 337.232833,400.096 344.096833,400.096 Z M344.096833,403.504 C339.200833,403.504 335.600833,407.344 335.648833,412.336 C335.648833,417.28 339.200833,421.072 344.048833,421.072 C348.896833,421.072 352.544833,417.232 352.544833,412.336 C352.544833,407.296 348.896833,403.504 344.096833,403.504 Z M381.8145,400.624 L381.8145,414.688 C381.8145,420.688 377.5425,424.528 372.1665,424.528 C366.6945,424.528 362.4705,420.688 362.4705,414.688 L362.4705,400.624 L366.1185,400.624 L366.1185,414.928 C366.1185,418.768 368.8065,421.12 372.1665,421.12 C375.4305,421.12 378.1185,418.768 378.1185,414.928 L378.1185,400.624 L381.8145,400.624 Z M400.284167,400.432 C401.052167,400.432 401.532167,400.528 402.012167,400.624 L402.012167,403.888 L400.620167,403.888 C396.828167,403.888 393.276167,406.288 393.276167,410.752 L393.276167,424 L389.580167,424 L389.580167,400.624 L393.036167,400.624 L393.036167,403.984 C394.764167,401.68 397.500167,400.432 400.284167,400.432 Z M416.977833,400.096 C421.201833,400.096 424.561833,402.112 426.625833,405.184 L423.985833,407.296 C422.257833,404.992 420.049833,403.504 417.025833,403.504 C412.129833,403.504 408.529833,407.392 408.529833,412.288 C408.529833,417.232 412.129833,421.12 417.025833,421.12 C420.001833,421.12 422.209833,419.68 423.937833,417.376 L426.577833,419.44 C424.513833,422.512 421.153833,424.528 416.977833,424.528 C410.161833,424.528 404.737833,419.152 404.737833,412.288 C404.737833,405.472 410.161833,400.096 416.977833,400.096 Z M453.2555,410.656 C453.2555,411.904 453.0635,413.008 452.9675,413.44 L434.5355,413.44 C435.0155,418.096 438.4715,421.12 443.0795,421.12 C446.0075,421.12 448.3115,419.872 450.2315,417.952 L452.3915,420.448 C450.0395,422.944 446.8715,424.528 443.0315,424.528 C435.9755,424.528 430.6475,419.2 430.6475,412.336 C430.6475,405.52 435.8795,400.096 442.5995,400.096 C448.5995,400.096 453.2555,404.416 453.2555,410.656 Z M442.5035,403.456 C438.5675,403.456 435.4475,406.144 434.6795,410.176 L449.4635,410.176 C449.4155,405.856 446.2475,403.456 442.5035,403.456 Z M466.733167,400.096 C470.093167,400.096 472.733167,401.536 474.557167,403.792 L472.301167,406.096 C470.765167,404.512 468.749167,403.504 466.541167,403.504 C464.333167,403.504 462.653167,404.512 462.653167,406.432 C462.653167,408.016 463.853167,408.784 466.445167,409.84 L468.605167,410.752 C472.829167,412.528 474.797167,414.352 474.797167,417.664 C474.797167,422.224 470.909167,424.528 466.589167,424.528 C462.461167,424.528 459.341167,422.464 457.469167,419.968 L459.821167,417.52 C461.741167,419.536 463.709167,421.12 466.541167,421.12 C468.989167,421.12 471.005167,419.92 471.005167,417.808 C471.005167,415.792 469.277167,415.024 466.925167,414.064 L464.669167,413.104 C461.117167,411.616 458.861167,409.984 458.861167,406.624 C458.861167,402.4 462.461167,400.096 466.733167,400.096 Z M486.402833,419.68 L484.434833,432.592 L481.410833,432.592 L482.034833,419.68 L486.402833,419.68 Z M509.566167,389.008 C511.054167,389.008 512.302167,390.208 512.302167,391.696 C512.302167,393.232 511.054167,394.384 509.566167,394.384 C507.982167,394.384 506.782167,393.232 506.782167,391.696 C506.782167,390.208 507.982167,389.008 509.566167,389.008 Z M511.390167,400.624 L511.390167,424 L507.694167,424 L507.694167,400.624 L511.390167,400.624 Z M530.099833,400.096 C535.619833,400.096 538.787833,403.888 538.787833,409.312 L538.787833,424 L535.091833,424 L535.091833,409.744 C535.091833,406.048 532.883833,403.504 529.283833,403.504 C525.683833,403.504 523.139833,406.096 523.139833,409.744 L523.139833,424 L519.443833,424 L519.443833,400.624 L522.899833,400.624 L522.899833,403.168 C524.531833,401.248 527.075833,400.096 530.099833,400.096 Z M570.495167,400.096 C577.263167,400.096 582.735167,405.424 582.735167,412.288 C582.735167,419.104 577.263167,424.48 570.447167,424.48 C563.679167,424.432 558.255167,419.152 558.255167,412.288 C558.255167,405.424 563.631167,400.096 570.495167,400.096 Z M570.495167,403.504 C565.599167,403.504 561.999167,407.344 562.047167,412.336 C562.047167,417.28 565.599167,421.072 570.447167,421.072 C575.295167,421.072 578.943167,417.232 578.943167,412.336 C578.943167,407.296 575.295167,403.504 570.495167,403.504 Z M599.860833,400.432 C600.628833,400.432 601.108833,400.528 601.588833,400.624 L601.588833,403.888 L600.196833,403.888 C596.404833,403.888 592.852833,406.288 592.852833,410.752 L592.852833,424 L589.156833,424 L589.156833,400.624 L592.612833,400.624 L592.612833,403.984 C594.340833,401.68 597.076833,400.432 599.860833,400.432 Z M624.5225,388 L628.2185,388 L628.2185,424 L624.7145,424 L624.7145,420.256 C622.8905,422.944 619.5785,424.528 615.8825,424.528 C609.2105,424.528 604.3145,419.2 604.3145,412.336 C604.3145,405.424 609.2105,400.096 615.8825,400.096 C619.4345,400.096 622.6505,401.584 624.5225,404.08 L624.5225,388 Z M616.4105,421.12 C620.4425,421.12 624.5705,418.48 624.5705,412.336 C624.5705,406.192 620.4425,403.504 616.4105,403.504 C611.6585,403.504 608.1065,407.2 608.1065,412.288 C608.1065,417.376 611.6105,421.12 616.4105,421.12 Z M657.200167,410.656 C657.200167,411.904 657.008167,413.008 656.912167,413.44 L638.480167,413.44 C638.960167,418.096 642.416167,421.12 647.024167,421.12 C649.952167,421.12 652.256167,419.872 654.176167,417.952 L656.336167,420.448 C653.984167,422.944 650.816167,424.528 646.976167,424.528 C639.920167,424.528 634.592167,419.2 634.592167,412.336 C634.592167,405.52 639.824167,400.096 646.544167,400.096 C652.544167,400.096 657.200167,404.416 657.200167,410.656 Z M646.448167,403.456 C642.512167,403.456 639.392167,406.144 638.624167,410.176 L653.408167,410.176 C653.360167,405.856 650.192167,403.456 646.448167,403.456 Z M674.325833,400.432 C675.093833,400.432 675.573833,400.528 676.053833,400.624 L676.053833,403.888 L674.661833,403.888 C670.869833,403.888 667.317833,406.288 667.317833,410.752 L667.317833,424 L663.621833,424 L663.621833,400.624 L667.077833,400.624 L667.077833,403.984 C668.805833,401.68 671.541833,400.432 674.325833,400.432 Z M703.969167,421.168 C704.881167,421.168 705.889167,421.072 707.089167,420.88 L707.089167,424 C705.889167,424.288 704.689167,424.528 703.201167,424.528 C698.593167,424.528 695.329167,422.272 695.329167,416.944 L695.329167,403.936 L691.393167,403.936 L691.393167,400.624 L695.329167,400.624 L695.329167,394.24 L699.025167,394.24 L699.025167,400.624 L706.321167,400.624 L706.321167,403.936 L699.025167,403.936 L699.025167,416.704 C699.025167,420.208 701.041167,421.168 703.969167,421.168 Z M722.630833,400.096 C729.398833,400.096 734.870833,405.424 734.870833,412.288 C734.870833,419.104 729.398833,424.48 722.582833,424.48 C715.814833,424.432 710.390833,419.152 710.390833,412.288 C710.390833,405.424 715.766833,400.096 722.630833,400.096 Z M722.630833,403.504 C717.734833,403.504 714.134833,407.344 714.182833,412.336 C714.182833,417.28 717.734833,421.072 722.582833,421.072 C727.430833,421.072 731.078833,417.232 731.078833,412.336 C731.078833,407.296 727.430833,403.504 722.630833,403.504 Z M773.634167,400.624 L777.138167,400.624 L777.138167,421.744 C777.138167,428.944 772.578167,433.168 765.762167,433.168 C760.866167,433.168 757.074167,430.96 754.770167,428.656 L756.930167,426.064 C759.186167,428.032 761.826167,429.76 765.666167,429.76 C770.418167,429.76 773.442167,427.12 773.442167,421.936 L773.442167,419.872 C771.522167,422.32 768.258167,423.76 764.754167,423.76 C758.178167,423.76 753.282167,418.768 753.282167,411.952 C753.282167,405.184 758.178167,400.096 764.754167,400.096 C768.450167,400.096 771.810167,401.728 773.634167,404.416 L773.634167,400.624 Z M765.330167,420.352 C769.410167,420.352 773.490167,417.808 773.490167,411.952 C773.490167,406.096 769.362167,403.6 765.330167,403.6 C760.578167,403.6 757.026167,407.056 757.026167,412 C757.026167,416.944 760.578167,420.352 765.330167,420.352 Z M806.119833,410.656 C806.119833,411.904 805.927833,413.008 805.831833,413.44 L787.399833,413.44 C787.879833,418.096 791.335833,421.12 795.943833,421.12 C798.871833,421.12 801.175833,419.872 803.095833,417.952 L805.255833,420.448 C802.903833,422.944 799.735833,424.528 795.895833,424.528 C788.839833,424.528 783.511833,419.2 783.511833,412.336 C783.511833,405.52 788.743833,400.096 795.463833,400.096 C801.463833,400.096 806.119833,404.416 806.119833,410.656 Z M795.367833,403.456 C791.431833,403.456 788.311833,406.144 787.543833,410.176 L802.327833,410.176 C802.279833,405.856 799.111833,403.456 795.367833,403.456 Z M823.1975,400.096 C828.7175,400.096 831.8855,403.888 831.8855,409.312 L831.8855,424 L828.1895,424 L828.1895,409.744 C828.1895,406.048 825.9815,403.504 822.3815,403.504 C818.7815,403.504 816.2375,406.096 816.2375,409.744 L816.2375,424 L812.5415,424 L812.5415,400.624 L815.9975,400.624 L815.9975,403.168 C817.6295,401.248 820.1735,400.096 823.1975,400.096 Z M860.579167,410.656 C860.579167,411.904 860.387167,413.008 860.291167,413.44 L841.859167,413.44 C842.339167,418.096 845.795167,421.12 850.403167,421.12 C853.331167,421.12 855.635167,419.872 857.555167,417.952 L859.715167,420.448 C857.363167,422.944 854.195167,424.528 850.355167,424.528 C843.299167,424.528 837.971167,419.2 837.971167,412.336 C837.971167,405.52 843.203167,400.096 849.923167,400.096 C855.923167,400.096 860.579167,404.416 860.579167,410.656 Z M849.827167,403.456 C845.891167,403.456 842.771167,406.144 842.003167,410.176 L856.787167,410.176 C856.739167,405.856 853.571167,403.456 849.827167,403.456 Z M877.704833,400.432 C878.472833,400.432 878.952833,400.528 879.432833,400.624 L879.432833,403.888 L878.040833,403.888 C874.248833,403.888 870.696833,406.288 870.696833,410.752 L870.696833,424 L867.000833,424 L867.000833,400.624 L870.456833,400.624 L870.456833,403.984 C872.184833,401.68 874.920833,400.432 877.704833,400.432 Z M892.2385,400.096 C897.5665,400.096 901.3585,403.312 901.3585,409.6 L901.3585,424 L897.9025,424 L897.9025,420.976 C896.2225,423.232 893.4865,424.528 890.0305,424.528 C885.3265,424.528 881.8705,422.032 881.8705,417.952 C881.8705,414.016 885.1825,411.424 890.2705,411.424 L897.6625,411.424 L897.6625,409.408 C897.6625,405.472 895.4545,403.504 891.9985,403.504 C889.0705,403.504 887.0065,404.896 885.1825,407.248 L882.7345,405.232 C884.9425,401.68 888.4945,400.096 892.2385,400.096 Z M890.5105,421.456 C894.3505,421.456 897.6625,418.672 897.6625,415.024 L897.6625,414.448 L890.7025,414.448 C887.4385,414.448 885.6625,415.552 885.6625,417.76 C885.6625,420.256 887.9185,421.456 890.5105,421.456 Z M918.772167,421.168 C919.684167,421.168 920.692167,421.072 921.892167,420.88 L921.892167,424 C920.692167,424.288 919.492167,424.528 918.004167,424.528 C913.396167,424.528 910.132167,422.272 910.132167,416.944 L910.132167,403.936 L906.196167,403.936 L906.196167,400.624 L910.132167,400.624 L910.132167,394.24 L913.828167,394.24 L913.828167,400.624 L921.124167,400.624 L921.124167,403.936 L913.828167,403.936 L913.828167,416.704 C913.828167,420.208 915.844167,421.168 918.772167,421.168 Z M947.801833,410.656 C947.801833,411.904 947.609833,413.008 947.513833,413.44 L929.081833,413.44 C929.561833,418.096 933.017833,421.12 937.625833,421.12 C940.553833,421.12 942.857833,419.872 944.777833,417.952 L946.937833,420.448 C944.585833,422.944 941.417833,424.528 937.577833,424.528 C930.521833,424.528 925.193833,419.2 925.193833,412.336 C925.193833,405.52 930.425833,400.096 937.145833,400.096 C943.145833,400.096 947.801833,404.416 947.801833,410.656 Z M937.049833,403.456 C933.113833,403.456 929.993833,406.144 929.225833,410.176 L944.009833,410.176 C943.961833,405.856 940.793833,403.456 937.049833,403.456 Z M979.893167,400.096 C986.613167,400.096 991.461167,405.424 991.461167,412.288 C991.461167,419.2 986.565167,424.528 979.893167,424.528 C976.437167,424.528 973.173167,423.088 971.301167,420.592 L971.301167,432.64 L967.605167,432.64 L967.605167,400.624 L971.061167,400.624 L971.061167,404.368 C972.885167,401.68 976.197167,400.096 979.893167,400.096 Z M979.365167,421.12 C984.117167,421.12 987.669167,417.424 987.669167,412.336 C987.669167,407.248 984.165167,403.504 979.365167,403.504 C975.333167,403.504 971.253167,406.144 971.253167,412.288 C971.253167,418.432 975.285167,421.12 979.365167,421.12 Z M1008.44283,400.096 C1015.21083,400.096 1020.68283,405.424 1020.68283,412.288 C1020.68283,419.104 1015.21083,424.48 1008.39483,424.48 C1001.62683,424.432 996.202833,419.152 996.202833,412.288 C996.202833,405.424 1001.57883,400.096 1008.44283,400.096 Z M1008.44283,403.504 C1003.54683,403.504 999.946833,407.344 999.994833,412.336 C999.994833,417.28 1003.54683,421.072 1008.39483,421.072 C1013.24283,421.072 1016.89083,417.232 1016.89083,412.336 C1016.89083,407.296 1013.24283,403.504 1008.44283,403.504 Z M1048.0325,410.656 C1048.0325,411.904 1047.8405,413.008 1047.7445,413.44 L1029.3125,413.44 C1029.7925,418.096 1033.2485,421.12 1037.8565,421.12 C1040.7845,421.12 1043.0885,419.872 1045.0085,417.952 L1047.1685,420.448 C1044.8165,422.944 1041.6485,424.528 1037.8085,424.528 C1030.7525,424.528 1025.4245,419.2 1025.4245,412.336 C1025.4245,405.52 1030.6565,400.096 1037.3765,400.096 C1043.3765,400.096 1048.0325,404.416 1048.0325,410.656 Z M1037.2805,403.456 C1033.3445,403.456 1030.2245,406.144 1029.4565,410.176 L1044.2405,410.176 C1044.1925,405.856 1041.0245,403.456 1037.2805,403.456 Z M1064.10217,421.168 C1065.01417,421.168 1066.02217,421.072 1067.22217,420.88 L1067.22217,424 C1066.02217,424.288 1064.82217,424.528 1063.33417,424.528 C1058.72617,424.528 1055.46217,422.272 1055.46217,416.944 L1055.46217,403.936 L1051.52617,403.936 L1051.52617,400.624 L1055.46217,400.624 L1055.46217,394.24 L1059.15817,394.24 L1059.15817,400.624 L1066.45417,400.624 L1066.45417,403.936 L1059.15817,403.936 L1059.15817,416.704 C1059.15817,420.208 1061.17417,421.168 1064.10217,421.168 Z M1083.38783,400.432 C1084.15583,400.432 1084.63583,400.528 1085.11583,400.624 L1085.11583,403.888 L1083.72383,403.888 C1079.93183,403.888 1076.37983,406.288 1076.37983,410.752 L1076.37983,424 L1072.68383,424 L1072.68383,400.624 L1076.13983,400.624 L1076.13983,403.984 C1077.86783,401.68 1080.60383,400.432 1083.38783,400.432 Z M1106.6095,400.624 L1110.5455,400.624 L1099.0255,427.264 C1097.2015,431.44 1094.6575,433.168 1091.1055,433.168 C1089.9535,433.168 1088.6095,432.976 1087.5055,432.688 L1087.5055,429.568 C1088.6095,429.712 1089.5215,429.808 1090.3375,429.808 C1092.5935,429.808 1094.3215,429.04 1095.6175,426.064 L1096.8655,423.232 L1087.1695,400.624 L1091.1535,400.624 L1098.8815,419.248 L1106.6095,400.624 Z M1114.85517,418.48 C1116.48717,418.48 1117.87917,419.728 1117.87917,421.504 C1117.87917,423.28 1116.48717,424.528 1114.85517,424.528 C1113.22317,424.528 1111.83117,423.28 1111.83117,421.504 C1111.83117,419.728 1113.22317,418.48 1114.85517,418.48 Z" id="ThisprojectfocusesontrainingTensorflow’sRecurrentNeuralNetwork,usingmultipleliterarysources,inordertogeneratepoetry."></path>
        </g>
    </g>
</svg>