<?xml version="1.0" encoding="UTF-8"?>
<svg width="739px" height="141px" viewBox="0 0 739 141" version="1.1" xmlns="http://www.w3.org/2000/svg" xmlns:xlink="http://www.w3.org/1999/xlink">
    <!-- Generator: Sketch 53.2 (72643) - https://sketchapp.com -->
    <title>neural3</title>
    <desc>Created with Sketch.</desc>
    <g id="Page-1" stroke="none" stroke-width="1" fill="none" fill-rule="evenodd">
        <g id="Desktop-HD-Copy-38" transform="translate(-351.000000, -2286.000000)" fill="#404648" fill-rule="nonzero">
            <path d="M387.419708,2289.56 L387.419708,2291.94 L379.497708,2291.94 L379.497708,2312 L376.845708,2312 L376.845708,2291.94 L368.957708,2291.94 L368.957708,2289.56 L387.419708,2289.56 Z M398.496389,2295.068 C402.372389,2295.068 404.616389,2297.754 404.616389,2301.596 L404.616389,2312 L401.998389,2312 L401.998389,2301.936 C401.998389,2299.318 400.434389,2297.482 397.884389,2297.482 C395.334389,2297.482 393.532389,2299.352 393.532389,2301.936 L393.532389,2312 L390.914389,2312 L390.914389,2286.5 L393.532389,2286.5 L393.532389,2297.312 C394.620389,2295.918 396.354389,2295.068 398.496389,2295.068 Z M424.941069,2302.548 C424.941069,2303.432 424.805069,2304.214 424.737069,2304.52 L411.681069,2304.52 C412.021069,2307.818 414.469069,2309.96 417.733069,2309.96 C419.807069,2309.96 421.439069,2309.076 422.799069,2307.716 L424.329069,2309.484 C422.663069,2311.252 420.419069,2312.374 417.699069,2312.374 C412.701069,2312.374 408.927069,2308.6 408.927069,2303.738 C408.927069,2298.91 412.633069,2295.068 417.393069,2295.068 C421.643069,2295.068 424.941069,2298.128 424.941069,2302.548 Z M417.325069,2297.448 C414.537069,2297.448 412.327069,2299.352 411.783069,2302.208 L422.255069,2302.208 C422.221069,2299.148 419.977069,2297.448 417.325069,2297.448 Z M447.67243,2295.068 C452.43243,2295.068 455.86643,2298.842 455.86643,2303.704 C455.86643,2308.6 452.39843,2312.374 447.67243,2312.374 C445.22443,2312.374 442.91243,2311.354 441.58643,2309.586 L441.58643,2318.12 L438.96843,2318.12 L438.96843,2295.442 L441.41643,2295.442 L441.41643,2298.094 C442.70843,2296.19 445.05443,2295.068 447.67243,2295.068 Z M447.29843,2309.96 C450.66443,2309.96 453.18043,2307.342 453.18043,2303.738 C453.18043,2300.134 450.69843,2297.482 447.29843,2297.482 C444.44243,2297.482 441.55243,2299.352 441.55243,2303.704 C441.55243,2308.056 444.40843,2309.96 447.29843,2309.96 Z M467.895111,2295.068 C472.689111,2295.068 476.565111,2298.842 476.565111,2303.704 C476.565111,2308.532 472.689111,2312.34 467.861111,2312.34 C463.067111,2312.306 459.225111,2308.566 459.225111,2303.704 C459.225111,2298.842 463.033111,2295.068 467.895111,2295.068 Z M467.895111,2297.482 C464.427111,2297.482 461.877111,2300.202 461.911111,2303.738 C461.911111,2307.24 464.427111,2309.926 467.861111,2309.926 C471.295111,2309.926 473.879111,2307.206 473.879111,2303.738 C473.879111,2300.168 471.295111,2297.482 467.895111,2297.482 Z M495.937792,2302.548 C495.937792,2303.432 495.801792,2304.214 495.733792,2304.52 L482.677792,2304.52 C483.017792,2307.818 485.465792,2309.96 488.729792,2309.96 C490.803792,2309.96 492.435792,2309.076 493.795792,2307.716 L495.325792,2309.484 C493.659792,2311.252 491.415792,2312.374 488.695792,2312.374 C483.697792,2312.374 479.923792,2308.6 479.923792,2303.738 C479.923792,2298.91 483.629792,2295.068 488.389792,2295.068 C492.639792,2295.068 495.937792,2298.128 495.937792,2302.548 Z M488.321792,2297.448 C485.533792,2297.448 483.323792,2299.352 482.779792,2302.208 L493.251792,2302.208 C493.217792,2299.148 490.973792,2297.448 488.321792,2297.448 Z M518.642472,2295.068 C522.518472,2295.068 524.660472,2297.754 524.660472,2301.596 L524.660472,2312 L522.042472,2312 L522.042472,2301.936 C522.042472,2299.318 520.614472,2297.482 518.132472,2297.482 C515.616472,2297.482 513.882472,2299.386 513.882472,2301.698 L513.882472,2312 L511.264472,2312 L511.264472,2301.936 C511.264472,2299.318 509.768472,2297.482 507.320472,2297.482 C504.804472,2297.482 503.104472,2299.318 503.104472,2301.936 L503.104472,2312 L500.486472,2312 L500.486472,2295.442 L502.934472,2295.442 L502.934472,2297.176 C504.090472,2295.85 505.790472,2295.068 507.864472,2295.068 C510.346472,2295.068 512.046472,2296.19 512.964472,2297.924 C514.120472,2296.258 516.092472,2295.068 518.642472,2295.068 Z M535.159153,2295.068 C537.539153,2295.068 539.409153,2296.088 540.701153,2297.686 L539.103153,2299.318 C538.015153,2298.196 536.587153,2297.482 535.023153,2297.482 C533.459153,2297.482 532.269153,2298.196 532.269153,2299.556 C532.269153,2300.678 533.119153,2301.222 534.955153,2301.97 L536.485153,2302.616 C539.477153,2303.874 540.871153,2305.166 540.871153,2307.512 C540.871153,2310.742 538.117153,2312.374 535.057153,2312.374 C532.133153,2312.374 529.923153,2310.912 528.597153,2309.144 L530.263153,2307.41 C531.623153,2308.838 533.017153,2309.96 535.023153,2309.96 C536.757153,2309.96 538.185153,2309.11 538.185153,2307.614 C538.185153,2306.186 536.961153,2305.642 535.295153,2304.962 L533.697153,2304.282 C531.181153,2303.228 529.583153,2302.072 529.583153,2299.692 C529.583153,2296.7 532.133153,2295.068 535.159153,2295.068 Z M562.514514,2295.068 C567.308514,2295.068 571.184514,2298.842 571.184514,2303.704 C571.184514,2308.532 567.308514,2312.34 562.480514,2312.34 C557.686514,2312.306 553.844514,2308.566 553.844514,2303.704 C553.844514,2298.842 557.652514,2295.068 562.514514,2295.068 Z M562.514514,2297.482 C559.046514,2297.482 556.496514,2300.202 556.530514,2303.738 C556.530514,2307.24 559.046514,2309.926 562.480514,2309.926 C565.914514,2309.926 568.498514,2307.206 568.498514,2303.738 C568.498514,2300.168 565.914514,2297.482 562.514514,2297.482 Z M583.281194,2295.068 C587.191194,2295.068 589.435194,2297.754 589.435194,2301.596 L589.435194,2312 L586.817194,2312 L586.817194,2301.902 C586.817194,2299.284 585.253194,2297.482 582.703194,2297.482 C580.153194,2297.482 578.351194,2299.318 578.351194,2301.902 L578.351194,2312 L575.733194,2312 L575.733194,2295.442 L578.181194,2295.442 L578.181194,2297.244 C579.337194,2295.884 581.139194,2295.068 583.281194,2295.068 Z M611.248556,2309.994 C611.894556,2309.994 612.608556,2309.926 613.458556,2309.79 L613.458556,2312 C612.608556,2312.204 611.758556,2312.374 610.704556,2312.374 C607.440556,2312.374 605.128556,2310.776 605.128556,2307.002 L605.128556,2297.788 L602.340556,2297.788 L602.340556,2295.442 L605.128556,2295.442 L605.128556,2290.92 L607.746556,2290.92 L607.746556,2295.442 L612.914556,2295.442 L612.914556,2297.788 L607.746556,2297.788 L607.746556,2306.832 C607.746556,2309.314 609.174556,2309.994 611.248556,2309.994 Z M624.909236,2295.068 C628.785236,2295.068 631.029236,2297.754 631.029236,2301.596 L631.029236,2312 L628.411236,2312 L628.411236,2301.936 C628.411236,2299.318 626.847236,2297.482 624.297236,2297.482 C621.747236,2297.482 619.945236,2299.352 619.945236,2301.936 L619.945236,2312 L617.327236,2312 L617.327236,2286.5 L619.945236,2286.5 L619.945236,2297.312 C621.033236,2295.918 622.767236,2295.068 624.909236,2295.068 Z M651.353917,2302.548 C651.353917,2303.432 651.217917,2304.214 651.149917,2304.52 L638.093917,2304.52 C638.433917,2307.818 640.881917,2309.96 644.145917,2309.96 C646.219917,2309.96 647.851917,2309.076 649.211917,2307.716 L650.741917,2309.484 C649.075917,2311.252 646.831917,2312.374 644.111917,2312.374 C639.113917,2312.374 635.339917,2308.6 635.339917,2303.738 C635.339917,2298.91 639.045917,2295.068 643.805917,2295.068 C648.055917,2295.068 651.353917,2298.128 651.353917,2302.548 Z M643.737917,2297.448 C640.949917,2297.448 638.739917,2299.352 638.195917,2302.208 L648.667917,2302.208 C648.633917,2299.148 646.389917,2297.448 643.737917,2297.448 Z M686.699278,2295.442 L689.487278,2295.442 L682.517278,2312.374 L681.565278,2312.374 L675.921278,2299.862 L670.311278,2312.374 L669.393278,2312.374 L662.355278,2295.442 L665.143278,2295.442 L669.903278,2307.682 L675.445278,2295.068 L676.431278,2295.068 L682.007278,2307.614 L686.699278,2295.442 Z M707.397958,2302.548 C707.397958,2303.432 707.261958,2304.214 707.193958,2304.52 L694.137958,2304.52 C694.477958,2307.818 696.925958,2309.96 700.189958,2309.96 C702.263958,2309.96 703.895958,2309.076 705.255958,2307.716 L706.785958,2309.484 C705.119958,2311.252 702.875958,2312.374 700.155958,2312.374 C695.157958,2312.374 691.383958,2308.6 691.383958,2303.738 C691.383958,2298.91 695.089958,2295.068 699.849958,2295.068 C704.099958,2295.068 707.397958,2298.128 707.397958,2302.548 Z M699.781958,2297.448 C696.993958,2297.448 694.783958,2299.352 694.239958,2302.208 L704.711958,2302.208 C704.677958,2299.148 702.433958,2297.448 699.781958,2297.448 Z M720.650639,2295.068 C725.376639,2295.068 728.844639,2298.842 728.844639,2303.738 C728.844639,2308.6 725.410639,2312.374 720.684639,2312.374 C718.100639,2312.374 715.686639,2311.252 714.394639,2309.348 L714.394639,2312 L711.946639,2312 L711.946639,2286.5 L714.564639,2286.5 L714.564639,2297.89 C715.856639,2296.156 718.134639,2295.068 720.650639,2295.068 Z M720.276639,2309.96 C723.676639,2309.96 726.158639,2307.308 726.158639,2303.704 C726.158639,2300.1 723.642639,2297.482 720.276639,2297.482 C717.386639,2297.482 714.530639,2299.386 714.530639,2303.738 C714.530639,2308.09 717.420639,2309.96 720.276639,2309.96 Z M738.391319,2295.068 C740.771319,2295.068 742.641319,2296.088 743.933319,2297.686 L742.335319,2299.318 C741.247319,2298.196 739.819319,2297.482 738.255319,2297.482 C736.691319,2297.482 735.501319,2298.196 735.501319,2299.556 C735.501319,2300.678 736.351319,2301.222 738.187319,2301.97 L739.717319,2302.616 C742.709319,2303.874 744.103319,2305.166 744.103319,2307.512 C744.103319,2310.742 741.349319,2312.374 738.289319,2312.374 C735.365319,2312.374 733.155319,2310.912 731.829319,2309.144 L733.495319,2307.41 C734.855319,2308.838 736.249319,2309.96 738.255319,2309.96 C739.989319,2309.96 741.417319,2309.11 741.417319,2307.614 C741.417319,2306.186 740.193319,2305.642 738.527319,2304.962 L736.929319,2304.282 C734.413319,2303.228 732.815319,2302.072 732.815319,2299.692 C732.815319,2296.7 735.365319,2295.068 738.391319,2295.068 Z M750.114,2287.214 C751.168,2287.214 752.052,2288.064 752.052,2289.118 C752.052,2290.206 751.168,2291.022 750.114,2291.022 C748.992,2291.022 748.142,2290.206 748.142,2289.118 C748.142,2288.064 748.992,2287.214 750.114,2287.214 Z M751.406,2295.442 L751.406,2312 L748.788,2312 L748.788,2295.442 L751.406,2295.442 Z M763.944681,2309.994 C764.590681,2309.994 765.304681,2309.926 766.154681,2309.79 L766.154681,2312 C765.304681,2312.204 764.454681,2312.374 763.400681,2312.374 C760.136681,2312.374 757.824681,2310.776 757.824681,2307.002 L757.824681,2297.788 L755.036681,2297.788 L755.036681,2295.442 L757.824681,2295.442 L757.824681,2290.92 L760.442681,2290.92 L760.442681,2295.442 L765.610681,2295.442 L765.610681,2297.788 L760.442681,2297.788 L760.442681,2306.832 C760.442681,2309.314 761.870681,2309.994 763.944681,2309.994 Z M784.507361,2302.548 C784.507361,2303.432 784.371361,2304.214 784.303361,2304.52 L771.247361,2304.52 C771.587361,2307.818 774.035361,2309.96 777.299361,2309.96 C779.373361,2309.96 781.005361,2309.076 782.365361,2307.716 L783.895361,2309.484 C782.229361,2311.252 779.985361,2312.374 777.265361,2312.374 C772.267361,2312.374 768.493361,2308.6 768.493361,2303.738 C768.493361,2298.91 772.199361,2295.068 776.959361,2295.068 C781.209361,2295.068 784.507361,2298.128 784.507361,2302.548 Z M776.891361,2297.448 C774.103361,2297.448 771.893361,2299.352 771.349361,2302.208 L781.821361,2302.208 C781.787361,2299.148 779.543361,2297.448 776.891361,2297.448 Z M804.484722,2295.068 C808.258722,2295.068 810.944722,2297.346 810.944722,2301.8 L810.944722,2312 L808.496722,2312 L808.496722,2309.858 C807.306722,2311.456 805.368722,2312.374 802.920722,2312.374 C799.588722,2312.374 797.140722,2310.606 797.140722,2307.716 C797.140722,2304.928 799.486722,2303.092 803.090722,2303.092 L808.326722,2303.092 L808.326722,2301.664 C808.326722,2298.876 806.762722,2297.482 804.314722,2297.482 C802.240722,2297.482 800.778722,2298.468 799.486722,2300.134 L797.752722,2298.706 C799.316722,2296.19 801.832722,2295.068 804.484722,2295.068 Z M803.260722,2310.198 C805.980722,2310.198 808.326722,2308.226 808.326722,2305.642 L808.326722,2305.234 L803.396722,2305.234 C801.084722,2305.234 799.826722,2306.016 799.826722,2307.58 C799.826722,2309.348 801.424722,2310.198 803.260722,2310.198 Z M824.027403,2295.306 C824.571403,2295.306 824.911403,2295.374 825.251403,2295.442 L825.251403,2297.754 L824.265403,2297.754 C821.579403,2297.754 819.063403,2299.454 819.063403,2302.616 L819.063403,2312 L816.445403,2312 L816.445403,2295.442 L818.893403,2295.442 L818.893403,2297.822 C820.117403,2296.19 822.055403,2295.306 824.027403,2295.306 Z M843.196083,2302.548 C843.196083,2303.432 843.060083,2304.214 842.992083,2304.52 L829.936083,2304.52 C830.276083,2307.818 832.724083,2309.96 835.988083,2309.96 C838.062083,2309.96 839.694083,2309.076 841.054083,2307.716 L842.584083,2309.484 C840.918083,2311.252 838.674083,2312.374 835.954083,2312.374 C830.956083,2312.374 827.182083,2308.6 827.182083,2303.738 C827.182083,2298.91 830.888083,2295.068 835.648083,2295.068 C839.898083,2295.068 843.196083,2298.128 843.196083,2302.548 Z M835.580083,2297.448 C832.792083,2297.448 830.582083,2299.352 830.038083,2302.208 L840.510083,2302.208 C840.476083,2299.148 838.232083,2297.448 835.580083,2297.448 Z M865.927444,2295.068 C870.653444,2295.068 874.121444,2298.842 874.121444,2303.738 C874.121444,2308.6 870.687444,2312.374 865.961444,2312.374 C863.377444,2312.374 860.963444,2311.252 859.671444,2309.348 L859.671444,2312 L857.223444,2312 L857.223444,2286.5 L859.841444,2286.5 L859.841444,2297.89 C861.133444,2296.156 863.411444,2295.068 865.927444,2295.068 Z M865.553444,2309.96 C868.953444,2309.96 871.435444,2307.308 871.435444,2303.704 C871.435444,2300.1 868.919444,2297.482 865.553444,2297.482 C862.663444,2297.482 859.807444,2299.386 859.807444,2303.738 C859.807444,2308.09 862.697444,2309.96 865.553444,2309.96 Z M886.150125,2295.068 C890.944125,2295.068 894.820125,2298.842 894.820125,2303.704 C894.820125,2308.532 890.944125,2312.34 886.116125,2312.34 C881.322125,2312.306 877.480125,2308.566 877.480125,2303.704 C877.480125,2298.842 881.288125,2295.068 886.150125,2295.068 Z M886.150125,2297.482 C882.682125,2297.482 880.132125,2300.202 880.166125,2303.738 C880.166125,2307.24 882.682125,2309.926 886.116125,2309.926 C889.550125,2309.926 892.134125,2307.206 892.134125,2303.738 C892.134125,2300.168 889.550125,2297.482 886.150125,2297.482 Z M906.202806,2309.994 C906.848806,2309.994 907.562806,2309.926 908.412806,2309.79 L908.412806,2312 C907.562806,2312.204 906.712806,2312.374 905.658806,2312.374 C902.394806,2312.374 900.082806,2310.776 900.082806,2307.002 L900.082806,2297.788 L897.294806,2297.788 L897.294806,2295.442 L900.082806,2295.442 L900.082806,2290.92 L902.700806,2290.92 L902.700806,2295.442 L907.868806,2295.442 L907.868806,2297.788 L902.700806,2297.788 L902.700806,2306.832 C902.700806,2309.314 904.128806,2309.994 906.202806,2309.994 Z M919.863486,2295.068 C923.739486,2295.068 925.983486,2297.754 925.983486,2301.596 L925.983486,2312 L923.365486,2312 L923.365486,2301.936 C923.365486,2299.318 921.801486,2297.482 919.251486,2297.482 C916.701486,2297.482 914.899486,2299.352 914.899486,2301.936 L914.899486,2312 L912.281486,2312 L912.281486,2286.5 L914.899486,2286.5 L914.899486,2297.312 C915.987486,2295.918 917.721486,2295.068 919.863486,2295.068 Z M949.666847,2295.068 C954.426847,2295.068 957.860847,2298.842 957.860847,2303.704 C957.860847,2308.6 954.392847,2312.374 949.666847,2312.374 C947.218847,2312.374 944.906847,2311.354 943.580847,2309.586 L943.580847,2318.12 L940.962847,2318.12 L940.962847,2295.442 L943.410847,2295.442 L943.410847,2298.094 C944.702847,2296.19 947.048847,2295.068 949.666847,2295.068 Z M949.292847,2309.96 C952.658847,2309.96 955.174847,2307.342 955.174847,2303.738 C955.174847,2300.134 952.692847,2297.482 949.292847,2297.482 C946.436847,2297.482 943.546847,2299.352 943.546847,2303.704 C943.546847,2308.056 946.402847,2309.96 949.292847,2309.96 Z M977.233528,2302.548 C977.233528,2303.432 977.097528,2304.214 977.029528,2304.52 L963.973528,2304.52 C964.313528,2307.818 966.761528,2309.96 970.025528,2309.96 C972.099528,2309.96 973.731528,2309.076 975.091528,2307.716 L976.621528,2309.484 C974.955528,2311.252 972.711528,2312.374 969.991528,2312.374 C964.993528,2312.374 961.219528,2308.6 961.219528,2303.738 C961.219528,2298.91 964.925528,2295.068 969.685528,2295.068 C973.935528,2295.068 977.233528,2298.128 977.233528,2302.548 Z M969.617528,2297.448 C966.829528,2297.448 964.619528,2299.352 964.075528,2302.208 L974.547528,2302.208 C974.513528,2299.148 972.269528,2297.448 969.617528,2297.448 Z M989.364208,2295.306 C989.908208,2295.306 990.248208,2295.374 990.588208,2295.442 L990.588208,2297.754 L989.602208,2297.754 C986.916208,2297.754 984.400208,2299.454 984.400208,2302.616 L984.400208,2312 L981.782208,2312 L981.782208,2295.442 L984.230208,2295.442 L984.230208,2297.822 C985.454208,2296.19 987.392208,2295.306 989.364208,2295.306 Z M999.046889,2295.068 C1001.42689,2295.068 1003.29689,2296.088 1004.58889,2297.686 L1002.99089,2299.318 C1001.90289,2298.196 1000.47489,2297.482 998.910889,2297.482 C997.346889,2297.482 996.156889,2298.196 996.156889,2299.556 C996.156889,2300.678 997.006889,2301.222 998.842889,2301.97 L1000.37289,2302.616 C1003.36489,2303.874 1004.75889,2305.166 1004.75889,2307.512 C1004.75889,2310.742 1002.00489,2312.374 998.944889,2312.374 C996.020889,2312.374 993.810889,2310.912 992.484889,2309.144 L994.150889,2307.41 C995.510889,2308.838 996.904889,2309.96 998.910889,2309.96 C1000.64489,2309.96 1002.07289,2309.11 1002.07289,2307.614 C1002.07289,2306.186 1000.84889,2305.642 999.182889,2304.962 L997.584889,2304.282 C995.068889,2303.228 993.470889,2302.072 993.470889,2299.692 C993.470889,2296.7 996.020889,2295.068 999.046889,2295.068 Z M1016.92357,2295.068 C1021.71757,2295.068 1025.59357,2298.842 1025.59357,2303.704 C1025.59357,2308.532 1021.71757,2312.34 1016.88957,2312.34 C1012.09557,2312.306 1008.25357,2308.566 1008.25357,2303.704 C1008.25357,2298.842 1012.06157,2295.068 1016.92357,2295.068 Z M1016.92357,2297.482 C1013.45557,2297.482 1010.90557,2300.202 1010.93957,2303.738 C1010.93957,2307.24 1013.45557,2309.926 1016.88957,2309.926 C1020.32357,2309.926 1022.90757,2307.206 1022.90757,2303.738 C1022.90757,2300.168 1020.32357,2297.482 1016.92357,2297.482 Z M1037.69025,2295.068 C1041.60025,2295.068 1043.84425,2297.754 1043.84425,2301.596 L1043.84425,2312 L1041.22625,2312 L1041.22625,2301.902 C1041.22625,2299.284 1039.66225,2297.482 1037.11225,2297.482 C1034.56225,2297.482 1032.76025,2299.318 1032.76025,2301.902 L1032.76025,2312 L1030.14225,2312 L1030.14225,2295.442 L1032.59025,2295.442 L1032.59025,2297.244 C1033.74625,2295.884 1035.54825,2295.068 1037.69025,2295.068 Z M1055.29493,2295.068 C1059.06893,2295.068 1061.75493,2297.346 1061.75493,2301.8 L1061.75493,2312 L1059.30693,2312 L1059.30693,2309.858 C1058.11693,2311.456 1056.17893,2312.374 1053.73093,2312.374 C1050.39893,2312.374 1047.95093,2310.606 1047.95093,2307.716 C1047.95093,2304.928 1050.29693,2303.092 1053.90093,2303.092 L1059.13693,2303.092 L1059.13693,2301.664 C1059.13693,2298.876 1057.57293,2297.482 1055.12493,2297.482 C1053.05093,2297.482 1051.58893,2298.468 1050.29693,2300.134 L1048.56293,2298.706 C1050.12693,2296.19 1052.64293,2295.068 1055.29493,2295.068 Z M1054.07093,2310.198 C1056.79093,2310.198 1059.13693,2308.226 1059.13693,2305.642 L1059.13693,2305.234 L1054.20693,2305.234 C1051.89493,2305.234 1050.63693,2306.016 1050.63693,2307.58 C1050.63693,2309.348 1052.23493,2310.198 1054.07093,2310.198 Z M1069.87361,2286.5 L1069.87361,2312 L1067.25561,2312 L1067.25561,2286.5 L1069.87361,2286.5 Z M358.507667,2333.068 C362.281667,2333.068 364.967667,2335.346 364.967667,2339.8 L364.967667,2350 L362.519667,2350 L362.519667,2347.858 C361.329667,2349.456 359.391667,2350.374 356.943667,2350.374 C353.611667,2350.374 351.163667,2348.606 351.163667,2345.716 C351.163667,2342.928 353.509667,2341.092 357.113667,2341.092 L362.349667,2341.092 L362.349667,2339.664 C362.349667,2336.876 360.785667,2335.482 358.337667,2335.482 C356.263667,2335.482 354.801667,2336.468 353.509667,2338.134 L351.775667,2336.706 C353.339667,2334.19 355.855667,2333.068 358.507667,2333.068 Z M357.283667,2348.198 C360.003667,2348.198 362.349667,2346.226 362.349667,2343.642 L362.349667,2343.234 L357.419667,2343.234 C355.107667,2343.234 353.849667,2344.016 353.849667,2345.58 C353.849667,2347.348 355.447667,2348.198 357.283667,2348.198 Z M378.016347,2333.068 C381.926347,2333.068 384.170347,2335.754 384.170347,2339.596 L384.170347,2350 L381.552347,2350 L381.552347,2339.902 C381.552347,2337.284 379.988347,2335.482 377.438347,2335.482 C374.888347,2335.482 373.086347,2337.318 373.086347,2339.902 L373.086347,2350 L370.468347,2350 L370.468347,2333.442 L372.916347,2333.442 L372.916347,2335.244 C374.072347,2333.884 375.874347,2333.068 378.016347,2333.068 Z M402.795028,2324.5 L405.413028,2324.5 L405.413028,2350 L402.931028,2350 L402.931028,2347.348 C401.639028,2349.252 399.293028,2350.374 396.675028,2350.374 C391.949028,2350.374 388.481028,2346.6 388.481028,2341.738 C388.481028,2336.842 391.949028,2333.068 396.675028,2333.068 C399.191028,2333.068 401.469028,2334.122 402.795028,2335.89 L402.795028,2324.5 Z M397.049028,2347.96 C399.905028,2347.96 402.829028,2346.09 402.829028,2341.738 C402.829028,2337.386 399.905028,2335.482 397.049028,2335.482 C393.683028,2335.482 391.167028,2338.1 391.167028,2341.704 C391.167028,2345.308 393.649028,2347.96 397.049028,2347.96 Z M434.026389,2333.442 L436.508389,2333.442 L436.508389,2348.402 C436.508389,2353.502 433.278389,2356.494 428.450389,2356.494 C424.982389,2356.494 422.296389,2354.93 420.664389,2353.298 L422.194389,2351.462 C423.792389,2352.856 425.662389,2354.08 428.382389,2354.08 C431.748389,2354.08 433.890389,2352.21 433.890389,2348.538 L433.890389,2347.076 C432.530389,2348.81 430.218389,2349.83 427.736389,2349.83 C423.078389,2349.83 419.610389,2346.294 419.610389,2341.466 C419.610389,2336.672 423.078389,2333.068 427.736389,2333.068 C430.354389,2333.068 432.734389,2334.224 434.026389,2336.128 L434.026389,2333.442 Z M428.144389,2347.416 C431.034389,2347.416 433.924389,2345.614 433.924389,2341.466 C433.924389,2337.318 431.000389,2335.55 428.144389,2335.55 C424.778389,2335.55 422.262389,2337.998 422.262389,2341.5 C422.262389,2345.002 424.778389,2347.416 428.144389,2347.416 Z M457.037069,2340.548 C457.037069,2341.432 456.901069,2342.214 456.833069,2342.52 L443.777069,2342.52 C444.117069,2345.818 446.565069,2347.96 449.829069,2347.96 C451.903069,2347.96 453.535069,2347.076 454.895069,2345.716 L456.425069,2347.484 C454.759069,2349.252 452.515069,2350.374 449.795069,2350.374 C444.797069,2350.374 441.023069,2346.6 441.023069,2341.738 C441.023069,2336.91 444.729069,2333.068 449.489069,2333.068 C453.739069,2333.068 457.037069,2336.128 457.037069,2340.548 Z M449.421069,2335.448 C446.633069,2335.448 444.423069,2337.352 443.879069,2340.208 L454.351069,2340.208 C454.317069,2337.148 452.073069,2335.448 449.421069,2335.448 Z M469.13375,2333.068 C473.04375,2333.068 475.28775,2335.754 475.28775,2339.596 L475.28775,2350 L472.66975,2350 L472.66975,2339.902 C472.66975,2337.284 471.10575,2335.482 468.55575,2335.482 C466.00575,2335.482 464.20375,2337.318 464.20375,2339.902 L464.20375,2350 L461.58575,2350 L461.58575,2333.442 L464.03375,2333.442 L464.03375,2335.244 C465.18975,2333.884 466.99175,2333.068 469.13375,2333.068 Z M495.61243,2340.548 C495.61243,2341.432 495.47643,2342.214 495.40843,2342.52 L482.35243,2342.52 C482.69243,2345.818 485.14043,2347.96 488.40443,2347.96 C490.47843,2347.96 492.11043,2347.076 493.47043,2345.716 L495.00043,2347.484 C493.33443,2349.252 491.09043,2350.374 488.37043,2350.374 C483.37243,2350.374 479.59843,2346.6 479.59843,2341.738 C479.59843,2336.91 483.30443,2333.068 488.06443,2333.068 C492.31443,2333.068 495.61243,2336.128 495.61243,2340.548 Z M487.99643,2335.448 C485.20843,2335.448 482.99843,2337.352 482.45443,2340.208 L492.92643,2340.208 C492.89243,2337.148 490.64843,2335.448 487.99643,2335.448 Z M507.743111,2333.306 C508.287111,2333.306 508.627111,2333.374 508.967111,2333.442 L508.967111,2335.754 L507.981111,2335.754 C505.295111,2335.754 502.779111,2337.454 502.779111,2340.616 L502.779111,2350 L500.161111,2350 L500.161111,2333.442 L502.609111,2333.442 L502.609111,2335.822 C503.833111,2334.19 505.771111,2333.306 507.743111,2333.306 Z M518.037792,2333.068 C521.811792,2333.068 524.497792,2335.346 524.497792,2339.8 L524.497792,2350 L522.049792,2350 L522.049792,2347.858 C520.859792,2349.456 518.921792,2350.374 516.473792,2350.374 C513.141792,2350.374 510.693792,2348.606 510.693792,2345.716 C510.693792,2342.928 513.039792,2341.092 516.643792,2341.092 L521.879792,2341.092 L521.879792,2339.664 C521.879792,2336.876 520.315792,2335.482 517.867792,2335.482 C515.793792,2335.482 514.331792,2336.468 513.039792,2338.134 L511.305792,2336.706 C512.869792,2334.19 515.385792,2333.068 518.037792,2333.068 Z M516.813792,2348.198 C519.533792,2348.198 521.879792,2346.226 521.879792,2343.642 L521.879792,2343.234 L516.949792,2343.234 C514.637792,2343.234 513.379792,2344.016 513.379792,2345.58 C513.379792,2347.348 514.977792,2348.198 516.813792,2348.198 Z M536.832472,2347.994 C537.478472,2347.994 538.192472,2347.926 539.042472,2347.79 L539.042472,2350 C538.192472,2350.204 537.342472,2350.374 536.288472,2350.374 C533.024472,2350.374 530.712472,2348.776 530.712472,2345.002 L530.712472,2335.788 L527.924472,2335.788 L527.924472,2333.442 L530.712472,2333.442 L530.712472,2328.92 L533.330472,2328.92 L533.330472,2333.442 L538.498472,2333.442 L538.498472,2335.788 L533.330472,2335.788 L533.330472,2344.832 C533.330472,2347.314 534.758472,2347.994 536.832472,2347.994 Z M544.237153,2325.214 C545.291153,2325.214 546.175153,2326.064 546.175153,2327.118 C546.175153,2328.206 545.291153,2329.022 544.237153,2329.022 C543.115153,2329.022 542.265153,2328.206 542.265153,2327.118 C542.265153,2326.064 543.115153,2325.214 544.237153,2325.214 Z M545.529153,2333.442 L545.529153,2350 L542.911153,2350 L542.911153,2333.442 L545.529153,2333.442 Z M562.997833,2333.442 L565.785833,2333.442 L557.999833,2350.374 L557.047833,2350.374 L549.227833,2333.442 L552.015833,2333.442 L557.523833,2345.92 L562.997833,2333.442 Z M583.662514,2340.548 C583.662514,2341.432 583.526514,2342.214 583.458514,2342.52 L570.402514,2342.52 C570.742514,2345.818 573.190514,2347.96 576.454514,2347.96 C578.528514,2347.96 580.160514,2347.076 581.520514,2345.716 L583.050514,2347.484 C581.384514,2349.252 579.140514,2350.374 576.420514,2350.374 C571.422514,2350.374 567.648514,2346.6 567.648514,2341.738 C567.648514,2336.91 571.354514,2333.068 576.114514,2333.068 C580.364514,2333.068 583.662514,2336.128 583.662514,2340.548 Z M576.046514,2335.448 C573.258514,2335.448 571.048514,2337.352 570.504514,2340.208 L580.976514,2340.208 C580.942514,2337.148 578.698514,2335.448 576.046514,2335.448 Z M593.209194,2333.068 C595.589194,2333.068 597.459194,2334.088 598.751194,2335.686 L597.153194,2337.318 C596.065194,2336.196 594.637194,2335.482 593.073194,2335.482 C591.509194,2335.482 590.319194,2336.196 590.319194,2337.556 C590.319194,2338.678 591.169194,2339.222 593.005194,2339.97 L594.535194,2340.616 C597.527194,2341.874 598.921194,2343.166 598.921194,2345.512 C598.921194,2348.742 596.167194,2350.374 593.107194,2350.374 C590.183194,2350.374 587.973194,2348.912 586.647194,2347.144 L588.313194,2345.41 C589.673194,2346.838 591.067194,2347.96 593.073194,2347.96 C594.807194,2347.96 596.235194,2347.11 596.235194,2345.614 C596.235194,2344.186 595.011194,2343.642 593.345194,2342.962 L591.747194,2342.282 C589.231194,2341.228 587.633194,2340.072 587.633194,2337.692 C587.633194,2334.7 590.183194,2333.068 593.209194,2333.068 Z M620.564556,2333.068 C625.358556,2333.068 629.234556,2336.842 629.234556,2341.704 C629.234556,2346.532 625.358556,2350.34 620.530556,2350.34 C615.736556,2350.306 611.894556,2346.566 611.894556,2341.704 C611.894556,2336.842 615.702556,2333.068 620.564556,2333.068 Z M620.564556,2335.482 C617.096556,2335.482 614.546556,2338.202 614.580556,2341.738 C614.580556,2345.24 617.096556,2347.926 620.530556,2347.926 C623.964556,2347.926 626.548556,2345.206 626.548556,2341.738 C626.548556,2338.168 623.964556,2335.482 620.564556,2335.482 Z M640.277236,2326.506 C638.237236,2326.506 636.809236,2327.186 636.809236,2329.668 L636.809236,2333.442 L640.957236,2333.442 L640.957236,2335.788 L636.809236,2335.788 L636.809236,2350 L634.191236,2350 L634.191236,2335.788 L631.811236,2335.788 L631.811236,2333.442 L634.191236,2333.442 L634.191236,2329.498 C634.191236,2325.724 636.469236,2324.126 639.665236,2324.126 C640.481236,2324.126 641.127236,2324.228 641.739236,2324.398 L641.739236,2326.608 C641.195236,2326.54 640.719236,2326.506 640.277236,2326.506 Z M659.336597,2347.994 C659.982597,2347.994 660.696597,2347.926 661.546597,2347.79 L661.546597,2350 C660.696597,2350.204 659.846597,2350.374 658.792597,2350.374 C655.528597,2350.374 653.216597,2348.776 653.216597,2345.002 L653.216597,2335.788 L650.428597,2335.788 L650.428597,2333.442 L653.216597,2333.442 L653.216597,2328.92 L655.834597,2328.92 L655.834597,2333.442 L661.002597,2333.442 L661.002597,2335.788 L655.834597,2335.788 L655.834597,2344.832 C655.834597,2347.314 657.262597,2347.994 659.336597,2347.994 Z M672.997278,2333.068 C676.873278,2333.068 679.117278,2335.754 679.117278,2339.596 L679.117278,2350 L676.499278,2350 L676.499278,2339.936 C676.499278,2337.318 674.935278,2335.482 672.385278,2335.482 C669.835278,2335.482 668.033278,2337.352 668.033278,2339.936 L668.033278,2350 L665.415278,2350 L665.415278,2324.5 L668.033278,2324.5 L668.033278,2335.312 C669.121278,2333.918 670.855278,2333.068 672.997278,2333.068 Z M699.441958,2340.548 C699.441958,2341.432 699.305958,2342.214 699.237958,2342.52 L686.181958,2342.52 C686.521958,2345.818 688.969958,2347.96 692.233958,2347.96 C694.307958,2347.96 695.939958,2347.076 697.299958,2345.716 L698.829958,2347.484 C697.163958,2349.252 694.919958,2350.374 692.199958,2350.374 C687.201958,2350.374 683.427958,2346.6 683.427958,2341.738 C683.427958,2336.91 687.133958,2333.068 691.893958,2333.068 C696.143958,2333.068 699.441958,2336.128 699.441958,2340.548 Z M691.825958,2335.448 C689.037958,2335.448 686.827958,2337.352 686.283958,2340.208 L696.755958,2340.208 C696.721958,2337.148 694.477958,2335.448 691.825958,2335.448 Z M727.545319,2350 L725.607319,2345.444 L714.659319,2345.444 L712.721319,2350 L709.933319,2350 L719.657319,2327.186 L720.643319,2327.186 L730.367319,2350 L727.545319,2350 Z M724.621319,2343.064 L720.133319,2332.048 L715.645319,2343.064 L724.621319,2343.064 Z M737.126,2327.56 L737.126,2350 L734.474,2350 L734.474,2327.56 L737.126,2327.56 Z M744.734681,2346.09 C745.890681,2346.09 746.876681,2346.974 746.876681,2348.232 C746.876681,2349.49 745.890681,2350.374 744.734681,2350.374 C743.578681,2350.374 742.592681,2349.49 742.592681,2348.232 C742.592681,2346.974 743.578681,2346.09 744.734681,2346.09 Z M776.170042,2327.56 L776.170042,2329.94 L768.248042,2329.94 L768.248042,2350 L765.596042,2350 L765.596042,2329.94 L757.708042,2329.94 L757.708042,2327.56 L776.170042,2327.56 Z M787.246722,2333.068 C791.122722,2333.068 793.366722,2335.754 793.366722,2339.596 L793.366722,2350 L790.748722,2350 L790.748722,2339.936 C790.748722,2337.318 789.184722,2335.482 786.634722,2335.482 C784.084722,2335.482 782.282722,2337.352 782.282722,2339.936 L782.282722,2350 L779.664722,2350 L779.664722,2324.5 L782.282722,2324.5 L782.282722,2335.312 C783.370722,2333.918 785.104722,2333.068 787.246722,2333.068 Z M813.691403,2340.548 C813.691403,2341.432 813.555403,2342.214 813.487403,2342.52 L800.431403,2342.52 C800.771403,2345.818 803.219403,2347.96 806.483403,2347.96 C808.557403,2347.96 810.189403,2347.076 811.549403,2345.716 L813.079403,2347.484 C811.413403,2349.252 809.169403,2350.374 806.449403,2350.374 C801.451403,2350.374 797.677403,2346.6 797.677403,2341.738 C797.677403,2336.91 801.383403,2333.068 806.143403,2333.068 C810.393403,2333.068 813.691403,2336.128 813.691403,2340.548 Z M806.075403,2335.448 C803.287403,2335.448 801.077403,2337.352 800.533403,2340.208 L811.005403,2340.208 C810.971403,2337.148 808.727403,2335.448 806.075403,2335.448 Z M836.422764,2333.068 C841.182764,2333.068 844.616764,2336.842 844.616764,2341.704 C844.616764,2346.6 841.148764,2350.374 836.422764,2350.374 C833.974764,2350.374 831.662764,2349.354 830.336764,2347.586 L830.336764,2356.12 L827.718764,2356.12 L827.718764,2333.442 L830.166764,2333.442 L830.166764,2336.094 C831.458764,2334.19 833.804764,2333.068 836.422764,2333.068 Z M836.048764,2347.96 C839.414764,2347.96 841.930764,2345.342 841.930764,2341.738 C841.930764,2338.134 839.448764,2335.482 836.048764,2335.482 C833.192764,2335.482 830.302764,2337.352 830.302764,2341.704 C830.302764,2346.056 833.158764,2347.96 836.048764,2347.96 Z M856.645444,2333.068 C861.439444,2333.068 865.315444,2336.842 865.315444,2341.704 C865.315444,2346.532 861.439444,2350.34 856.611444,2350.34 C851.817444,2350.306 847.975444,2346.566 847.975444,2341.704 C847.975444,2336.842 851.783444,2333.068 856.645444,2333.068 Z M856.645444,2335.482 C853.177444,2335.482 850.627444,2338.202 850.661444,2341.738 C850.661444,2345.24 853.177444,2347.926 856.611444,2347.926 C860.045444,2347.926 862.629444,2345.206 862.629444,2341.738 C862.629444,2338.168 860.045444,2335.482 856.645444,2335.482 Z M884.688125,2340.548 C884.688125,2341.432 884.552125,2342.214 884.484125,2342.52 L871.428125,2342.52 C871.768125,2345.818 874.216125,2347.96 877.480125,2347.96 C879.554125,2347.96 881.186125,2347.076 882.546125,2345.716 L884.076125,2347.484 C882.410125,2349.252 880.166125,2350.374 877.446125,2350.374 C872.448125,2350.374 868.674125,2346.6 868.674125,2341.738 C868.674125,2336.91 872.380125,2333.068 877.140125,2333.068 C881.390125,2333.068 884.688125,2336.128 884.688125,2340.548 Z M877.072125,2335.448 C874.284125,2335.448 872.074125,2337.352 871.530125,2340.208 L882.002125,2340.208 C881.968125,2337.148 879.724125,2335.448 877.072125,2335.448 Z M907.392806,2333.068 C911.268806,2333.068 913.410806,2335.754 913.410806,2339.596 L913.410806,2350 L910.792806,2350 L910.792806,2339.936 C910.792806,2337.318 909.364806,2335.482 906.882806,2335.482 C904.366806,2335.482 902.632806,2337.386 902.632806,2339.698 L902.632806,2350 L900.014806,2350 L900.014806,2339.936 C900.014806,2337.318 898.518806,2335.482 896.070806,2335.482 C893.554806,2335.482 891.854806,2337.318 891.854806,2339.936 L891.854806,2350 L889.236806,2350 L889.236806,2333.442 L891.684806,2333.442 L891.684806,2335.176 C892.840806,2333.85 894.540806,2333.068 896.614806,2333.068 C899.096806,2333.068 900.796806,2334.19 901.714806,2335.924 C902.870806,2334.258 904.842806,2333.068 907.392806,2333.068 Z M931.008167,2324.5 L931.008167,2350 L928.390167,2350 L928.390167,2324.5 L931.008167,2324.5 Z M938.038847,2325.214 C939.092847,2325.214 939.976847,2326.064 939.976847,2327.118 C939.976847,2328.206 939.092847,2329.022 938.038847,2329.022 C936.916847,2329.022 936.066847,2328.206 936.066847,2327.118 C936.066847,2326.064 936.916847,2325.214 938.038847,2325.214 Z M939.330847,2333.442 L939.330847,2350 L936.712847,2350 L936.712847,2333.442 L939.330847,2333.442 Z M950.033528,2333.068 C952.413528,2333.068 954.283528,2334.088 955.575528,2335.686 L953.977528,2337.318 C952.889528,2336.196 951.461528,2335.482 949.897528,2335.482 C948.333528,2335.482 947.143528,2336.196 947.143528,2337.556 C947.143528,2338.678 947.993528,2339.222 949.829528,2339.97 L951.359528,2340.616 C954.351528,2341.874 955.745528,2343.166 955.745528,2345.512 C955.745528,2348.742 952.991528,2350.374 949.931528,2350.374 C947.007528,2350.374 944.797528,2348.912 943.471528,2347.144 L945.137528,2345.41 C946.497528,2346.838 947.891528,2347.96 949.897528,2347.96 C951.631528,2347.96 953.059528,2347.11 953.059528,2345.614 C953.059528,2344.186 951.835528,2343.642 950.169528,2342.962 L948.571528,2342.282 C946.055528,2341.228 944.457528,2340.072 944.457528,2337.692 C944.457528,2334.7 947.007528,2333.068 950.033528,2333.068 Z M967.264208,2347.994 C967.910208,2347.994 968.624208,2347.926 969.474208,2347.79 L969.474208,2350 C968.624208,2350.204 967.774208,2350.374 966.720208,2350.374 C963.456208,2350.374 961.144208,2348.776 961.144208,2345.002 L961.144208,2335.788 L958.356208,2335.788 L958.356208,2333.442 L961.144208,2333.442 L961.144208,2328.92 L963.762208,2328.92 L963.762208,2333.442 L968.930208,2333.442 L968.930208,2335.788 L963.762208,2335.788 L963.762208,2344.832 C963.762208,2347.314 965.190208,2347.994 967.264208,2347.994 Z M989.31557,2326.506 C987.27557,2326.506 985.84757,2327.186 985.84757,2329.668 L985.84757,2333.442 L989.99557,2333.442 L989.99557,2335.788 L985.84757,2335.788 L985.84757,2350 L983.22957,2350 L983.22957,2335.788 L980.84957,2335.788 L980.84957,2333.442 L983.22957,2333.442 L983.22957,2329.498 C983.22957,2325.724 985.50757,2324.126 988.70357,2324.126 C989.51957,2324.126 990.16557,2324.228 990.77757,2324.398 L990.77757,2326.608 C990.23357,2326.54 989.75757,2326.506 989.31557,2326.506 Z M1000.56225,2333.068 C1005.35625,2333.068 1009.23225,2336.842 1009.23225,2341.704 C1009.23225,2346.532 1005.35625,2350.34 1000.52825,2350.34 C995.73425,2350.306 991.89225,2346.566 991.89225,2341.704 C991.89225,2336.842 995.70025,2333.068 1000.56225,2333.068 Z M1000.56225,2335.482 C997.09425,2335.482 994.54425,2338.202 994.57825,2341.738 C994.57825,2345.24 997.09425,2347.926 1000.52825,2347.926 C1003.96225,2347.926 1006.54625,2345.206 1006.54625,2341.738 C1006.54625,2338.168 1003.96225,2335.482 1000.56225,2335.482 Z M1016.39893,2324.5 L1016.39893,2350 L1013.78093,2350 L1013.78093,2324.5 L1016.39893,2324.5 Z M1024.72161,2324.5 L1024.72161,2350 L1022.10361,2350 L1022.10361,2324.5 L1024.72161,2324.5 Z M1037.90629,2333.068 C1042.70029,2333.068 1046.57629,2336.842 1046.57629,2341.704 C1046.57629,2346.532 1042.70029,2350.34 1037.87229,2350.34 C1033.07829,2350.306 1029.23629,2346.566 1029.23629,2341.704 C1029.23629,2336.842 1033.04429,2333.068 1037.90629,2333.068 Z M1037.90629,2335.482 C1034.43829,2335.482 1031.88829,2338.202 1031.92229,2341.738 C1031.92229,2345.24 1034.43829,2347.926 1037.87229,2347.926 C1041.30629,2347.926 1043.89029,2345.206 1043.89029,2341.738 C1043.89029,2338.168 1041.30629,2335.482 1037.90629,2335.482 Z M1072.78297,2333.442 L1075.57097,2333.442 L1068.60097,2350.374 L1067.64897,2350.374 L1062.00497,2337.862 L1056.39497,2350.374 L1055.47697,2350.374 L1048.43897,2333.442 L1051.22697,2333.442 L1055.98697,2345.682 L1061.52897,2333.068 L1062.51497,2333.068 L1068.09097,2345.614 L1072.78297,2333.442 Z M1083.82565,2333.068 C1086.20565,2333.068 1088.07565,2334.088 1089.36765,2335.686 L1087.76965,2337.318 C1086.68165,2336.196 1085.25365,2335.482 1083.68965,2335.482 C1082.12565,2335.482 1080.93565,2336.196 1080.93565,2337.556 C1080.93565,2338.678 1081.78565,2339.222 1083.62165,2339.97 L1085.15165,2340.616 C1088.14365,2341.874 1089.53765,2343.166 1089.53765,2345.512 C1089.53765,2348.742 1086.78365,2350.374 1083.72365,2350.374 C1080.79965,2350.374 1078.58965,2348.912 1077.26365,2347.144 L1078.92965,2345.41 C1080.28965,2346.838 1081.68365,2347.96 1083.68965,2347.96 C1085.42365,2347.96 1086.85165,2347.11 1086.85165,2345.614 C1086.85165,2344.186 1085.62765,2343.642 1083.96165,2342.962 L1082.36365,2342.282 C1079.84765,2341.228 1078.24965,2340.072 1078.24965,2337.692 C1078.24965,2334.7 1080.79965,2333.068 1083.82565,2333.068 Z M364.358028,2371.068 C368.132028,2371.068 370.818028,2373.346 370.818028,2377.8 L370.818028,2388 L368.370028,2388 L368.370028,2385.858 C367.180028,2387.456 365.242028,2388.374 362.794028,2388.374 C359.462028,2388.374 357.014028,2386.606 357.014028,2383.716 C357.014028,2380.928 359.360028,2379.092 362.964028,2379.092 L368.200028,2379.092 L368.200028,2377.664 C368.200028,2374.876 366.636028,2373.482 364.188028,2373.482 C362.114028,2373.482 360.652028,2374.468 359.360028,2376.134 L357.626028,2374.706 C359.190028,2372.19 361.706028,2371.068 364.358028,2371.068 Z M363.134028,2386.198 C365.854028,2386.198 368.200028,2384.226 368.200028,2381.642 L368.200028,2381.234 L363.270028,2381.234 C360.958028,2381.234 359.700028,2382.016 359.700028,2383.58 C359.700028,2385.348 361.298028,2386.198 363.134028,2386.198 Z M393.379389,2371.068 C397.255389,2371.068 399.499389,2373.754 399.499389,2377.596 L399.499389,2388 L396.881389,2388 L396.881389,2377.936 C396.881389,2375.318 395.317389,2373.482 392.767389,2373.482 C390.217389,2373.482 388.415389,2375.352 388.415389,2377.936 L388.415389,2388 L385.797389,2388 L385.797389,2362.5 L388.415389,2362.5 L388.415389,2373.312 C389.503389,2371.918 391.237389,2371.068 393.379389,2371.068 Z M418.498069,2371.442 L418.498069,2381.404 C418.498069,2385.654 415.472069,2388.374 411.664069,2388.374 C407.788069,2388.374 404.796069,2385.654 404.796069,2381.404 L404.796069,2371.442 L407.380069,2371.442 L407.380069,2381.574 C407.380069,2384.294 409.284069,2385.96 411.664069,2385.96 C413.976069,2385.96 415.880069,2384.294 415.880069,2381.574 L415.880069,2371.442 L418.498069,2371.442 Z M442.15475,2371.068 C446.03075,2371.068 448.17275,2373.754 448.17275,2377.596 L448.17275,2388 L445.55475,2388 L445.55475,2377.936 C445.55475,2375.318 444.12675,2373.482 441.64475,2373.482 C439.12875,2373.482 437.39475,2375.386 437.39475,2377.698 L437.39475,2388 L434.77675,2388 L434.77675,2377.936 C434.77675,2375.318 433.28075,2373.482 430.83275,2373.482 C428.31675,2373.482 426.61675,2375.318 426.61675,2377.936 L426.61675,2388 L423.99875,2388 L423.99875,2371.442 L426.44675,2371.442 L426.44675,2373.176 C427.60275,2371.85 429.30275,2371.068 431.37675,2371.068 C433.85875,2371.068 435.55875,2372.19 436.47675,2373.924 C437.63275,2372.258 439.60475,2371.068 442.15475,2371.068 Z M459.62343,2371.068 C463.39743,2371.068 466.08343,2373.346 466.08343,2377.8 L466.08343,2388 L463.63543,2388 L463.63543,2385.858 C462.44543,2387.456 460.50743,2388.374 458.05943,2388.374 C454.72743,2388.374 452.27943,2386.606 452.27943,2383.716 C452.27943,2380.928 454.62543,2379.092 458.22943,2379.092 L463.46543,2379.092 L463.46543,2377.664 C463.46543,2374.876 461.90143,2373.482 459.45343,2373.482 C457.37943,2373.482 455.91743,2374.468 454.62543,2376.134 L452.89143,2374.706 C454.45543,2372.19 456.97143,2371.068 459.62343,2371.068 Z M458.39943,2386.198 C461.11943,2386.198 463.46543,2384.226 463.46543,2381.642 L463.46543,2381.234 L458.53543,2381.234 C456.22343,2381.234 454.96543,2382.016 454.96543,2383.58 C454.96543,2385.348 456.56343,2386.198 458.39943,2386.198 Z M479.132111,2371.068 C483.042111,2371.068 485.286111,2373.754 485.286111,2377.596 L485.286111,2388 L482.668111,2388 L482.668111,2377.902 C482.668111,2375.284 481.104111,2373.482 478.554111,2373.482 C476.004111,2373.482 474.202111,2375.318 474.202111,2377.902 L474.202111,2388 L471.584111,2388 L471.584111,2371.442 L474.032111,2371.442 L474.032111,2373.244 C475.188111,2371.884 476.990111,2371.068 479.132111,2371.068 Z M509.010792,2361.48 L491.228792,2392.114 L488.134792,2392.114 L505.916792,2361.48 L509.010792,2361.48 Z M527.873472,2371.068 C531.749472,2371.068 533.891472,2373.754 533.891472,2377.596 L533.891472,2388 L531.273472,2388 L531.273472,2377.936 C531.273472,2375.318 529.845472,2373.482 527.363472,2373.482 C524.847472,2373.482 523.113472,2375.386 523.113472,2377.698 L523.113472,2388 L520.495472,2388 L520.495472,2377.936 C520.495472,2375.318 518.999472,2373.482 516.551472,2373.482 C514.035472,2373.482 512.335472,2375.318 512.335472,2377.936 L512.335472,2388 L509.717472,2388 L509.717472,2371.442 L512.165472,2371.442 L512.165472,2373.176 C513.321472,2371.85 515.021472,2371.068 517.095472,2371.068 C519.577472,2371.068 521.277472,2372.19 522.195472,2373.924 C523.351472,2372.258 525.323472,2371.068 527.873472,2371.068 Z M545.342153,2371.068 C549.116153,2371.068 551.802153,2373.346 551.802153,2377.8 L551.802153,2388 L549.354153,2388 L549.354153,2385.858 C548.164153,2387.456 546.226153,2388.374 543.778153,2388.374 C540.446153,2388.374 537.998153,2386.606 537.998153,2383.716 C537.998153,2380.928 540.344153,2379.092 543.948153,2379.092 L549.184153,2379.092 L549.184153,2377.664 C549.184153,2374.876 547.620153,2373.482 545.172153,2373.482 C543.098153,2373.482 541.636153,2374.468 540.344153,2376.134 L538.610153,2374.706 C540.174153,2372.19 542.690153,2371.068 545.342153,2371.068 Z M544.118153,2386.198 C546.838153,2386.198 549.184153,2384.226 549.184153,2381.642 L549.184153,2381.234 L544.254153,2381.234 C541.942153,2381.234 540.684153,2382.016 540.684153,2383.58 C540.684153,2385.348 542.282153,2386.198 544.118153,2386.198 Z M564.782833,2371.068 C567.774833,2371.068 570.154833,2372.496 571.616833,2374.672 L569.746833,2376.168 C568.522833,2374.536 566.958833,2373.482 564.816833,2373.482 C561.348833,2373.482 558.798833,2376.236 558.798833,2379.704 C558.798833,2383.206 561.348833,2385.96 564.816833,2385.96 C566.924833,2385.96 568.488833,2384.94 569.712833,2383.308 L571.582833,2384.77 C570.120833,2386.946 567.740833,2388.374 564.782833,2388.374 C559.954833,2388.374 556.112833,2384.566 556.112833,2379.704 C556.112833,2374.876 559.954833,2371.068 564.782833,2371.068 Z M583.577514,2371.068 C587.453514,2371.068 589.697514,2373.754 589.697514,2377.596 L589.697514,2388 L587.079514,2388 L587.079514,2377.936 C587.079514,2375.318 585.515514,2373.482 582.965514,2373.482 C580.415514,2373.482 578.613514,2375.352 578.613514,2377.936 L578.613514,2388 L575.995514,2388 L575.995514,2362.5 L578.613514,2362.5 L578.613514,2373.312 C579.701514,2371.918 581.435514,2371.068 583.577514,2371.068 Z M596.524194,2363.214 C597.578194,2363.214 598.462194,2364.064 598.462194,2365.118 C598.462194,2366.206 597.578194,2367.022 596.524194,2367.022 C595.402194,2367.022 594.552194,2366.206 594.552194,2365.118 C594.552194,2364.064 595.402194,2363.214 596.524194,2363.214 Z M597.816194,2371.442 L597.816194,2388 L595.198194,2388 L595.198194,2371.442 L597.816194,2371.442 Z M611.068875,2371.068 C614.978875,2371.068 617.222875,2373.754 617.222875,2377.596 L617.222875,2388 L614.604875,2388 L614.604875,2377.902 C614.604875,2375.284 613.040875,2373.482 610.490875,2373.482 C607.940875,2373.482 606.138875,2375.318 606.138875,2377.902 L606.138875,2388 L603.520875,2388 L603.520875,2371.442 L605.968875,2371.442 L605.968875,2373.244 C607.124875,2371.884 608.926875,2371.068 611.068875,2371.068 Z M637.547556,2378.548 C637.547556,2379.432 637.411556,2380.214 637.343556,2380.52 L624.287556,2380.52 C624.627556,2383.818 627.075556,2385.96 630.339556,2385.96 C632.413556,2385.96 634.045556,2385.076 635.405556,2383.716 L636.935556,2385.484 C635.269556,2387.252 633.025556,2388.374 630.305556,2388.374 C625.307556,2388.374 621.533556,2384.6 621.533556,2379.738 C621.533556,2374.91 625.239556,2371.068 629.999556,2371.068 C634.249556,2371.068 637.547556,2374.128 637.547556,2378.548 Z M629.931556,2373.448 C627.143556,2373.448 624.933556,2375.352 624.389556,2378.208 L634.861556,2378.208 C634.827556,2375.148 632.583556,2373.448 629.931556,2373.448 Z M660.278917,2371.068 C665.038917,2371.068 668.472917,2374.842 668.472917,2379.704 C668.472917,2384.6 665.004917,2388.374 660.278917,2388.374 C657.830917,2388.374 655.518917,2387.354 654.192917,2385.586 L654.192917,2394.12 L651.574917,2394.12 L651.574917,2371.442 L654.022917,2371.442 L654.022917,2374.094 C655.314917,2372.19 657.660917,2371.068 660.278917,2371.068 Z M659.904917,2385.96 C663.270917,2385.96 665.786917,2383.342 665.786917,2379.738 C665.786917,2376.134 663.304917,2373.482 659.904917,2373.482 C657.048917,2373.482 654.158917,2375.352 654.158917,2379.704 C654.158917,2384.056 657.014917,2385.96 659.904917,2385.96 Z M678.971597,2371.068 C682.745597,2371.068 685.431597,2373.346 685.431597,2377.8 L685.431597,2388 L682.983597,2388 L682.983597,2385.858 C681.793597,2387.456 679.855597,2388.374 677.407597,2388.374 C674.075597,2388.374 671.627597,2386.606 671.627597,2383.716 C671.627597,2380.928 673.973597,2379.092 677.577597,2379.092 L682.813597,2379.092 L682.813597,2377.664 C682.813597,2374.876 681.249597,2373.482 678.801597,2373.482 C676.727597,2373.482 675.265597,2374.468 673.973597,2376.134 L672.239597,2374.706 C673.803597,2372.19 676.319597,2371.068 678.971597,2371.068 Z M677.747597,2386.198 C680.467597,2386.198 682.813597,2384.226 682.813597,2381.642 L682.813597,2381.234 L677.883597,2381.234 C675.571597,2381.234 674.313597,2382.016 674.313597,2383.58 C674.313597,2385.348 675.911597,2386.198 677.747597,2386.198 Z M697.766278,2385.994 C698.412278,2385.994 699.126278,2385.926 699.976278,2385.79 L699.976278,2388 C699.126278,2388.204 698.276278,2388.374 697.222278,2388.374 C693.958278,2388.374 691.646278,2386.776 691.646278,2383.002 L691.646278,2373.788 L688.858278,2373.788 L688.858278,2371.442 L691.646278,2371.442 L691.646278,2366.92 L694.264278,2366.92 L694.264278,2371.442 L699.432278,2371.442 L699.432278,2373.788 L694.264278,2373.788 L694.264278,2382.832 C694.264278,2385.314 695.692278,2385.994 697.766278,2385.994 Z M709.658958,2385.994 C710.304958,2385.994 711.018958,2385.926 711.868958,2385.79 L711.868958,2388 C711.018958,2388.204 710.168958,2388.374 709.114958,2388.374 C705.850958,2388.374 703.538958,2386.776 703.538958,2383.002 L703.538958,2373.788 L700.750958,2373.788 L700.750958,2371.442 L703.538958,2371.442 L703.538958,2366.92 L706.156958,2366.92 L706.156958,2371.442 L711.324958,2371.442 L711.324958,2373.788 L706.156958,2373.788 L706.156958,2382.832 C706.156958,2385.314 707.584958,2385.994 709.658958,2385.994 Z M730.221639,2378.548 C730.221639,2379.432 730.085639,2380.214 730.017639,2380.52 L716.961639,2380.52 C717.301639,2383.818 719.749639,2385.96 723.013639,2385.96 C725.087639,2385.96 726.719639,2385.076 728.079639,2383.716 L729.609639,2385.484 C727.943639,2387.252 725.699639,2388.374 722.979639,2388.374 C717.981639,2388.374 714.207639,2384.6 714.207639,2379.738 C714.207639,2374.91 717.913639,2371.068 722.673639,2371.068 C726.923639,2371.068 730.221639,2374.128 730.221639,2378.548 Z M722.605639,2373.448 C719.817639,2373.448 717.607639,2375.352 717.063639,2378.208 L727.535639,2378.208 C727.501639,2375.148 725.257639,2373.448 722.605639,2373.448 Z M742.352319,2371.306 C742.896319,2371.306 743.236319,2371.374 743.576319,2371.442 L743.576319,2373.754 L742.590319,2373.754 C739.904319,2373.754 737.388319,2375.454 737.388319,2378.616 L737.388319,2388 L734.770319,2388 L734.770319,2371.442 L737.218319,2371.442 L737.218319,2373.822 C738.442319,2372.19 740.380319,2371.306 742.352319,2371.306 Z M754.585,2371.068 C758.495,2371.068 760.739,2373.754 760.739,2377.596 L760.739,2388 L758.121,2388 L758.121,2377.902 C758.121,2375.284 756.557,2373.482 754.007,2373.482 C751.457,2373.482 749.655,2375.318 749.655,2377.902 L749.655,2388 L747.037,2388 L747.037,2371.442 L749.485,2371.442 L749.485,2373.244 C750.641,2371.884 752.443,2371.068 754.585,2371.068 Z M769.775681,2384.94 L768.381681,2394.086 L766.239681,2394.086 L766.681681,2384.94 L769.775681,2384.94 Z M792.337042,2371.068 C795.329042,2371.068 797.709042,2372.496 799.171042,2374.672 L797.301042,2376.168 C796.077042,2374.536 794.513042,2373.482 792.371042,2373.482 C788.903042,2373.482 786.353042,2376.236 786.353042,2379.704 C786.353042,2383.206 788.903042,2385.96 792.371042,2385.96 C794.479042,2385.96 796.043042,2384.94 797.267042,2383.308 L799.137042,2384.77 C797.675042,2386.946 795.295042,2388.374 792.337042,2388.374 C787.509042,2388.374 783.667042,2384.566 783.667042,2379.704 C783.667042,2374.876 787.509042,2371.068 792.337042,2371.068 Z M811.131722,2371.306 C811.675722,2371.306 812.015722,2371.374 812.355722,2371.442 L812.355722,2373.754 L811.369722,2373.754 C808.683722,2373.754 806.167722,2375.454 806.167722,2378.616 L806.167722,2388 L803.549722,2388 L803.549722,2371.442 L805.997722,2371.442 L805.997722,2373.822 C807.221722,2372.19 809.159722,2371.306 811.131722,2371.306 Z M830.300403,2378.548 C830.300403,2379.432 830.164403,2380.214 830.096403,2380.52 L817.040403,2380.52 C817.380403,2383.818 819.828403,2385.96 823.092403,2385.96 C825.166403,2385.96 826.798403,2385.076 828.158403,2383.716 L829.688403,2385.484 C828.022403,2387.252 825.778403,2388.374 823.058403,2388.374 C818.060403,2388.374 814.286403,2384.6 814.286403,2379.738 C814.286403,2374.91 817.992403,2371.068 822.752403,2371.068 C827.002403,2371.068 830.300403,2374.128 830.300403,2378.548 Z M822.684403,2373.448 C819.896403,2373.448 817.686403,2375.352 817.142403,2378.208 L827.614403,2378.208 C827.580403,2375.148 825.336403,2373.448 822.684403,2373.448 Z M840.799083,2371.068 C844.573083,2371.068 847.259083,2373.346 847.259083,2377.8 L847.259083,2388 L844.811083,2388 L844.811083,2385.858 C843.621083,2387.456 841.683083,2388.374 839.235083,2388.374 C835.903083,2388.374 833.455083,2386.606 833.455083,2383.716 C833.455083,2380.928 835.801083,2379.092 839.405083,2379.092 L844.641083,2379.092 L844.641083,2377.664 C844.641083,2374.876 843.077083,2373.482 840.629083,2373.482 C838.555083,2373.482 837.093083,2374.468 835.801083,2376.134 L834.067083,2374.706 C835.631083,2372.19 838.147083,2371.068 840.799083,2371.068 Z M839.575083,2386.198 C842.295083,2386.198 844.641083,2384.226 844.641083,2381.642 L844.641083,2381.234 L839.711083,2381.234 C837.399083,2381.234 836.141083,2382.016 836.141083,2383.58 C836.141083,2385.348 837.739083,2386.198 839.575083,2386.198 Z M859.593764,2385.994 C860.239764,2385.994 860.953764,2385.926 861.803764,2385.79 L861.803764,2388 C860.953764,2388.204 860.103764,2388.374 859.049764,2388.374 C855.785764,2388.374 853.473764,2386.776 853.473764,2383.002 L853.473764,2373.788 L850.685764,2373.788 L850.685764,2371.442 L853.473764,2371.442 L853.473764,2366.92 L856.091764,2366.92 L856.091764,2371.442 L861.259764,2371.442 L861.259764,2373.788 L856.091764,2373.788 L856.091764,2382.832 C856.091764,2385.314 857.519764,2385.994 859.593764,2385.994 Z M866.998444,2363.214 C868.052444,2363.214 868.936444,2364.064 868.936444,2365.118 C868.936444,2366.206 868.052444,2367.022 866.998444,2367.022 C865.876444,2367.022 865.026444,2366.206 865.026444,2365.118 C865.026444,2364.064 865.876444,2363.214 866.998444,2363.214 Z M868.290444,2371.442 L868.290444,2388 L865.672444,2388 L865.672444,2371.442 L868.290444,2371.442 Z M881.543125,2371.068 C885.453125,2371.068 887.697125,2373.754 887.697125,2377.596 L887.697125,2388 L885.079125,2388 L885.079125,2377.902 C885.079125,2375.284 883.515125,2373.482 880.965125,2373.482 C878.415125,2373.482 876.613125,2375.318 876.613125,2377.902 L876.613125,2388 L873.995125,2388 L873.995125,2371.442 L876.443125,2371.442 L876.443125,2373.244 C877.599125,2371.884 879.401125,2371.068 881.543125,2371.068 Z M906.627806,2371.442 L909.109806,2371.442 L909.109806,2386.402 C909.109806,2391.502 905.879806,2394.494 901.051806,2394.494 C897.583806,2394.494 894.897806,2392.93 893.265806,2391.298 L894.795806,2389.462 C896.393806,2390.856 898.263806,2392.08 900.983806,2392.08 C904.349806,2392.08 906.491806,2390.21 906.491806,2386.538 L906.491806,2385.076 C905.131806,2386.81 902.819806,2387.83 900.337806,2387.83 C895.679806,2387.83 892.211806,2384.294 892.211806,2379.466 C892.211806,2374.672 895.679806,2371.068 900.337806,2371.068 C902.955806,2371.068 905.335806,2372.224 906.627806,2374.128 L906.627806,2371.442 Z M900.745806,2385.416 C903.635806,2385.416 906.525806,2383.614 906.525806,2379.466 C906.525806,2375.318 903.601806,2373.55 900.745806,2373.55 C897.379806,2373.55 894.863806,2375.998 894.863806,2379.5 C894.863806,2383.002 897.379806,2385.416 900.745806,2385.416 Z M930.243167,2371.068 C934.017167,2371.068 936.703167,2373.346 936.703167,2377.8 L936.703167,2388 L934.255167,2388 L934.255167,2385.858 C933.065167,2387.456 931.127167,2388.374 928.679167,2388.374 C925.347167,2388.374 922.899167,2386.606 922.899167,2383.716 C922.899167,2380.928 925.245167,2379.092 928.849167,2379.092 L934.085167,2379.092 L934.085167,2377.664 C934.085167,2374.876 932.521167,2373.482 930.073167,2373.482 C927.999167,2373.482 926.537167,2374.468 925.245167,2376.134 L923.511167,2374.706 C925.075167,2372.19 927.591167,2371.068 930.243167,2371.068 Z M929.019167,2386.198 C931.739167,2386.198 934.085167,2384.226 934.085167,2381.642 L934.085167,2381.234 L929.155167,2381.234 C926.843167,2381.234 925.585167,2382.016 925.585167,2383.58 C925.585167,2385.348 927.183167,2386.198 929.019167,2386.198 Z M964.806528,2362.5 L967.424528,2362.5 L967.424528,2388 L964.942528,2388 L964.942528,2385.348 C963.650528,2387.252 961.304528,2388.374 958.686528,2388.374 C953.960528,2388.374 950.492528,2384.6 950.492528,2379.738 C950.492528,2374.842 953.960528,2371.068 958.686528,2371.068 C961.202528,2371.068 963.480528,2372.122 964.806528,2373.89 L964.806528,2362.5 Z M959.060528,2385.96 C961.916528,2385.96 964.840528,2384.09 964.840528,2379.738 C964.840528,2375.386 961.916528,2373.482 959.060528,2373.482 C955.694528,2373.482 953.178528,2376.1 953.178528,2379.704 C953.178528,2383.308 955.660528,2385.96 959.060528,2385.96 Z M974.455208,2363.214 C975.509208,2363.214 976.393208,2364.064 976.393208,2365.118 C976.393208,2366.206 975.509208,2367.022 974.455208,2367.022 C973.333208,2367.022 972.483208,2366.206 972.483208,2365.118 C972.483208,2364.064 973.333208,2363.214 974.455208,2363.214 Z M975.747208,2371.442 L975.747208,2388 L973.129208,2388 L973.129208,2371.442 L975.747208,2371.442 Z M987.401889,2371.068 C991.175889,2371.068 993.861889,2373.346 993.861889,2377.8 L993.861889,2388 L991.413889,2388 L991.413889,2385.858 C990.223889,2387.456 988.285889,2388.374 985.837889,2388.374 C982.505889,2388.374 980.057889,2386.606 980.057889,2383.716 C980.057889,2380.928 982.403889,2379.092 986.007889,2379.092 L991.243889,2379.092 L991.243889,2377.664 C991.243889,2374.876 989.679889,2373.482 987.231889,2373.482 C985.157889,2373.482 983.695889,2374.468 982.403889,2376.134 L980.669889,2374.706 C982.233889,2372.19 984.749889,2371.068 987.401889,2371.068 Z M986.177889,2386.198 C988.897889,2386.198 991.243889,2384.226 991.243889,2381.642 L991.243889,2381.234 L986.313889,2381.234 C984.001889,2381.234 982.743889,2382.016 982.743889,2383.58 C982.743889,2385.348 984.341889,2386.198 986.177889,2386.198 Z M1001.98057,2362.5 L1001.98057,2388 L999.36257,2388 L999.36257,2362.5 L1001.98057,2362.5 Z M1015.16525,2371.068 C1019.95925,2371.068 1023.83525,2374.842 1023.83525,2379.704 C1023.83525,2384.532 1019.95925,2388.34 1015.13125,2388.34 C1010.33725,2388.306 1006.49525,2384.566 1006.49525,2379.704 C1006.49525,2374.842 1010.30325,2371.068 1015.16525,2371.068 Z M1015.16525,2373.482 C1011.69725,2373.482 1009.14725,2376.202 1009.18125,2379.738 C1009.18125,2383.24 1011.69725,2385.926 1015.13125,2385.926 C1018.56525,2385.926 1021.14925,2383.206 1021.14925,2379.738 C1021.14925,2376.168 1018.56525,2373.482 1015.16525,2373.482 Z M1041.81393,2371.442 L1044.29593,2371.442 L1044.29593,2386.402 C1044.29593,2391.502 1041.06593,2394.494 1036.23793,2394.494 C1032.76993,2394.494 1030.08393,2392.93 1028.45193,2391.298 L1029.98193,2389.462 C1031.57993,2390.856 1033.44993,2392.08 1036.16993,2392.08 C1039.53593,2392.08 1041.67793,2390.21 1041.67793,2386.538 L1041.67793,2385.076 C1040.31793,2386.81 1038.00593,2387.83 1035.52393,2387.83 C1030.86593,2387.83 1027.39793,2384.294 1027.39793,2379.466 C1027.39793,2374.672 1030.86593,2371.068 1035.52393,2371.068 C1038.14193,2371.068 1040.52193,2372.224 1041.81393,2374.128 L1041.81393,2371.442 Z M1035.93193,2385.416 C1038.82193,2385.416 1041.71193,2383.614 1041.71193,2379.466 C1041.71193,2375.318 1038.78793,2373.55 1035.93193,2373.55 C1032.56593,2373.55 1030.04993,2375.998 1030.04993,2379.5 C1030.04993,2383.002 1032.56593,2385.416 1035.93193,2385.416 Z M1063.49861,2371.442 L1063.49861,2381.404 C1063.49861,2385.654 1060.47261,2388.374 1056.66461,2388.374 C1052.78861,2388.374 1049.79661,2385.654 1049.79661,2381.404 L1049.79661,2371.442 L1052.38061,2371.442 L1052.38061,2381.574 C1052.38061,2384.294 1054.28461,2385.96 1056.66461,2385.96 C1058.97661,2385.96 1060.88061,2384.294 1060.88061,2381.574 L1060.88061,2371.442 L1063.49861,2371.442 Z M1083.82329,2378.548 C1083.82329,2379.432 1083.68729,2380.214 1083.61929,2380.52 L1070.56329,2380.52 C1070.90329,2383.818 1073.35129,2385.96 1076.61529,2385.96 C1078.68929,2385.96 1080.32129,2385.076 1081.68129,2383.716 L1083.21129,2385.484 C1081.54529,2387.252 1079.30129,2388.374 1076.58129,2388.374 C1071.58329,2388.374 1067.80929,2384.6 1067.80929,2379.738 C1067.80929,2374.91 1071.51529,2371.068 1076.27529,2371.068 C1080.52529,2371.068 1083.82329,2374.128 1083.82329,2378.548 Z M1076.20729,2373.448 C1073.41929,2373.448 1071.20929,2375.352 1070.66529,2378.208 L1081.13729,2378.208 C1081.10329,2375.148 1078.85929,2373.448 1076.20729,2373.448 Z M463.781111,2409.068 C468.507111,2409.068 471.975111,2412.842 471.975111,2417.738 C471.975111,2422.6 468.541111,2426.374 463.815111,2426.374 C461.231111,2426.374 458.817111,2425.252 457.525111,2423.348 L457.525111,2426 L455.077111,2426 L455.077111,2400.5 L457.695111,2400.5 L457.695111,2411.89 C458.987111,2410.156 461.265111,2409.068 463.781111,2409.068 Z M463.407111,2423.96 C466.807111,2423.96 469.289111,2421.308 469.289111,2417.704 C469.289111,2414.1 466.773111,2411.482 463.407111,2411.482 C460.517111,2411.482 457.661111,2413.386 457.661111,2417.738 C457.661111,2422.09 460.551111,2423.96 463.407111,2423.96 Z M491.347792,2416.548 C491.347792,2417.432 491.211792,2418.214 491.143792,2418.52 L478.087792,2418.52 C478.427792,2421.818 480.875792,2423.96 484.139792,2423.96 C486.213792,2423.96 487.845792,2423.076 489.205792,2421.716 L490.735792,2423.484 C489.069792,2425.252 486.825792,2426.374 484.105792,2426.374 C479.107792,2426.374 475.333792,2422.6 475.333792,2417.738 C475.333792,2412.91 479.039792,2409.068 483.799792,2409.068 C488.049792,2409.068 491.347792,2412.128 491.347792,2416.548 Z M483.731792,2411.448 C480.943792,2411.448 478.733792,2413.352 478.189792,2416.208 L488.661792,2416.208 C488.627792,2413.148 486.383792,2411.448 483.731792,2411.448 Z M502.730472,2423.994 C503.376472,2423.994 504.090472,2423.926 504.940472,2423.79 L504.940472,2426 C504.090472,2426.204 503.240472,2426.374 502.186472,2426.374 C498.922472,2426.374 496.610472,2424.776 496.610472,2421.002 L496.610472,2411.788 L493.822472,2411.788 L493.822472,2409.442 L496.610472,2409.442 L496.610472,2404.92 L499.228472,2404.92 L499.228472,2409.442 L504.396472,2409.442 L504.396472,2411.788 L499.228472,2411.788 L499.228472,2420.832 C499.228472,2423.314 500.656472,2423.994 502.730472,2423.994 Z M531.147153,2409.442 L533.935153,2409.442 L526.965153,2426.374 L526.013153,2426.374 L520.369153,2413.862 L514.759153,2426.374 L513.841153,2426.374 L506.803153,2409.442 L509.591153,2409.442 L514.351153,2421.682 L519.893153,2409.068 L520.879153,2409.068 L526.455153,2421.614 L531.147153,2409.442 Z M551.845833,2416.548 C551.845833,2417.432 551.709833,2418.214 551.641833,2418.52 L538.585833,2418.52 C538.925833,2421.818 541.373833,2423.96 544.637833,2423.96 C546.711833,2423.96 548.343833,2423.076 549.703833,2421.716 L551.233833,2423.484 C549.567833,2425.252 547.323833,2426.374 544.603833,2426.374 C539.605833,2426.374 535.831833,2422.6 535.831833,2417.738 C535.831833,2412.91 539.537833,2409.068 544.297833,2409.068 C548.547833,2409.068 551.845833,2412.128 551.845833,2416.548 Z M544.229833,2411.448 C541.441833,2411.448 539.231833,2413.352 538.687833,2416.208 L549.159833,2416.208 C549.125833,2413.148 546.881833,2411.448 544.229833,2411.448 Z M571.218514,2416.548 C571.218514,2417.432 571.082514,2418.214 571.014514,2418.52 L557.958514,2418.52 C558.298514,2421.818 560.746514,2423.96 564.010514,2423.96 C566.084514,2423.96 567.716514,2423.076 569.076514,2421.716 L570.606514,2423.484 C568.940514,2425.252 566.696514,2426.374 563.976514,2426.374 C558.978514,2426.374 555.204514,2422.6 555.204514,2417.738 C555.204514,2412.91 558.910514,2409.068 563.670514,2409.068 C567.920514,2409.068 571.218514,2412.128 571.218514,2416.548 Z M563.602514,2411.448 C560.814514,2411.448 558.604514,2413.352 558.060514,2416.208 L568.532514,2416.208 C568.498514,2413.148 566.254514,2411.448 563.602514,2411.448 Z M583.315194,2409.068 C587.225194,2409.068 589.469194,2411.754 589.469194,2415.596 L589.469194,2426 L586.851194,2426 L586.851194,2415.902 C586.851194,2413.284 585.287194,2411.482 582.737194,2411.482 C580.187194,2411.482 578.385194,2413.318 578.385194,2415.902 L578.385194,2426 L575.767194,2426 L575.767194,2409.442 L578.215194,2409.442 L578.215194,2411.244 C579.371194,2409.884 581.173194,2409.068 583.315194,2409.068 Z M611.282556,2423.994 C611.928556,2423.994 612.642556,2423.926 613.492556,2423.79 L613.492556,2426 C612.642556,2426.204 611.792556,2426.374 610.738556,2426.374 C607.474556,2426.374 605.162556,2424.776 605.162556,2421.002 L605.162556,2411.788 L602.374556,2411.788 L602.374556,2409.442 L605.162556,2409.442 L605.162556,2404.92 L607.780556,2404.92 L607.780556,2409.442 L612.948556,2409.442 L612.948556,2411.788 L607.780556,2411.788 L607.780556,2420.832 C607.780556,2423.314 609.208556,2423.994 611.282556,2423.994 Z M624.943236,2409.068 C628.819236,2409.068 631.063236,2411.754 631.063236,2415.596 L631.063236,2426 L628.445236,2426 L628.445236,2415.936 C628.445236,2413.318 626.881236,2411.482 624.331236,2411.482 C621.781236,2411.482 619.979236,2413.352 619.979236,2415.936 L619.979236,2426 L617.361236,2426 L617.361236,2400.5 L619.979236,2400.5 L619.979236,2411.312 C621.067236,2409.918 622.801236,2409.068 624.943236,2409.068 Z M651.387917,2416.548 C651.387917,2417.432 651.251917,2418.214 651.183917,2418.52 L638.127917,2418.52 C638.467917,2421.818 640.915917,2423.96 644.179917,2423.96 C646.253917,2423.96 647.885917,2423.076 649.245917,2421.716 L650.775917,2423.484 C649.109917,2425.252 646.865917,2426.374 644.145917,2426.374 C639.147917,2426.374 635.373917,2422.6 635.373917,2417.738 C635.373917,2412.91 639.079917,2409.068 643.839917,2409.068 C648.089917,2409.068 651.387917,2412.128 651.387917,2416.548 Z M643.771917,2411.448 C640.983917,2411.448 638.773917,2413.352 638.229917,2416.208 L648.701917,2416.208 C648.667917,2413.148 646.423917,2411.448 643.771917,2411.448 Z M672.249278,2423.994 C672.895278,2423.994 673.609278,2423.926 674.459278,2423.79 L674.459278,2426 C673.609278,2426.204 672.759278,2426.374 671.705278,2426.374 C668.441278,2426.374 666.129278,2424.776 666.129278,2421.002 L666.129278,2411.788 L663.341278,2411.788 L663.341278,2409.442 L666.129278,2409.442 L666.129278,2404.92 L668.747278,2404.92 L668.747278,2409.442 L673.915278,2409.442 L673.915278,2411.788 L668.747278,2411.788 L668.747278,2420.832 C668.747278,2423.314 670.175278,2423.994 672.249278,2423.994 Z M692.811958,2416.548 C692.811958,2417.432 692.675958,2418.214 692.607958,2418.52 L679.551958,2418.52 C679.891958,2421.818 682.339958,2423.96 685.603958,2423.96 C687.677958,2423.96 689.309958,2423.076 690.669958,2421.716 L692.199958,2423.484 C690.533958,2425.252 688.289958,2426.374 685.569958,2426.374 C680.571958,2426.374 676.797958,2422.6 676.797958,2417.738 C676.797958,2412.91 680.503958,2409.068 685.263958,2409.068 C689.513958,2409.068 692.811958,2412.128 692.811958,2416.548 Z M685.195958,2411.448 C682.407958,2411.448 680.197958,2413.352 679.653958,2416.208 L690.125958,2416.208 C690.091958,2413.148 687.847958,2411.448 685.195958,2411.448 Z M703.310639,2409.068 C707.084639,2409.068 709.770639,2411.346 709.770639,2415.8 L709.770639,2426 L707.322639,2426 L707.322639,2423.858 C706.132639,2425.456 704.194639,2426.374 701.746639,2426.374 C698.414639,2426.374 695.966639,2424.606 695.966639,2421.716 C695.966639,2418.928 698.312639,2417.092 701.916639,2417.092 L707.152639,2417.092 L707.152639,2415.664 C707.152639,2412.876 705.588639,2411.482 703.140639,2411.482 C701.066639,2411.482 699.604639,2412.468 698.312639,2414.134 L696.578639,2412.706 C698.142639,2410.19 700.658639,2409.068 703.310639,2409.068 Z M702.086639,2424.198 C704.806639,2424.198 707.152639,2422.226 707.152639,2419.642 L707.152639,2419.234 L702.222639,2419.234 C699.910639,2419.234 698.652639,2420.016 698.652639,2421.58 C698.652639,2423.348 700.250639,2424.198 702.086639,2424.198 Z M722.751319,2409.068 C725.743319,2409.068 728.123319,2410.496 729.585319,2412.672 L727.715319,2414.168 C726.491319,2412.536 724.927319,2411.482 722.785319,2411.482 C719.317319,2411.482 716.767319,2414.236 716.767319,2417.704 C716.767319,2421.206 719.317319,2423.96 722.785319,2423.96 C724.893319,2423.96 726.457319,2422.94 727.681319,2421.308 L729.551319,2422.77 C728.089319,2424.946 725.709319,2426.374 722.751319,2426.374 C717.923319,2426.374 714.081319,2422.566 714.081319,2417.704 C714.081319,2412.876 717.923319,2409.068 722.751319,2409.068 Z M741.546,2409.068 C745.422,2409.068 747.666,2411.754 747.666,2415.596 L747.666,2426 L745.048,2426 L745.048,2415.936 C745.048,2413.318 743.484,2411.482 740.934,2411.482 C738.384,2411.482 736.582,2413.352 736.582,2415.936 L736.582,2426 L733.964,2426 L733.964,2400.5 L736.582,2400.5 L736.582,2411.312 C737.67,2409.918 739.404,2409.068 741.546,2409.068 Z M767.990681,2416.548 C767.990681,2417.432 767.854681,2418.214 767.786681,2418.52 L754.730681,2418.52 C755.070681,2421.818 757.518681,2423.96 760.782681,2423.96 C762.856681,2423.96 764.488681,2423.076 765.848681,2421.716 L767.378681,2423.484 C765.712681,2425.252 763.468681,2426.374 760.748681,2426.374 C755.750681,2426.374 751.976681,2422.6 751.976681,2417.738 C751.976681,2412.91 755.682681,2409.068 760.442681,2409.068 C764.692681,2409.068 767.990681,2412.128 767.990681,2416.548 Z M760.374681,2411.448 C757.586681,2411.448 755.376681,2413.352 754.832681,2416.208 L765.304681,2416.208 C765.270681,2413.148 763.026681,2411.448 760.374681,2411.448 Z M780.121361,2409.306 C780.665361,2409.306 781.005361,2409.374 781.345361,2409.442 L781.345361,2411.754 L780.359361,2411.754 C777.673361,2411.754 775.157361,2413.454 775.157361,2416.616 L775.157361,2426 L772.539361,2426 L772.539361,2409.442 L774.987361,2409.442 L774.987361,2411.822 C776.211361,2410.19 778.149361,2409.306 780.121361,2409.306 Z M800.234722,2409.068 C804.008722,2409.068 806.694722,2411.346 806.694722,2415.8 L806.694722,2426 L804.246722,2426 L804.246722,2423.858 C803.056722,2425.456 801.118722,2426.374 798.670722,2426.374 C795.338722,2426.374 792.890722,2424.606 792.890722,2421.716 C792.890722,2418.928 795.236722,2417.092 798.840722,2417.092 L804.076722,2417.092 L804.076722,2415.664 C804.076722,2412.876 802.512722,2411.482 800.064722,2411.482 C797.990722,2411.482 796.528722,2412.468 795.236722,2414.134 L793.502722,2412.706 C795.066722,2410.19 797.582722,2409.068 800.234722,2409.068 Z M799.010722,2424.198 C801.730722,2424.198 804.076722,2422.226 804.076722,2419.642 L804.076722,2419.234 L799.146722,2419.234 C796.834722,2419.234 795.576722,2420.016 795.576722,2421.58 C795.576722,2423.348 797.174722,2424.198 799.010722,2424.198 Z M819.743403,2409.068 C823.653403,2409.068 825.897403,2411.754 825.897403,2415.596 L825.897403,2426 L823.279403,2426 L823.279403,2415.902 C823.279403,2413.284 821.715403,2411.482 819.165403,2411.482 C816.615403,2411.482 814.813403,2413.318 814.813403,2415.902 L814.813403,2426 L812.195403,2426 L812.195403,2409.442 L814.643403,2409.442 L814.643403,2411.244 C815.799403,2409.884 817.601403,2409.068 819.743403,2409.068 Z M844.522083,2400.5 L847.140083,2400.5 L847.140083,2426 L844.658083,2426 L844.658083,2423.348 C843.366083,2425.252 841.020083,2426.374 838.402083,2426.374 C833.676083,2426.374 830.208083,2422.6 830.208083,2417.738 C830.208083,2412.842 833.676083,2409.068 838.402083,2409.068 C840.918083,2409.068 843.196083,2410.122 844.522083,2411.89 L844.522083,2400.5 Z M838.776083,2423.96 C841.632083,2423.96 844.556083,2422.09 844.556083,2417.738 C844.556083,2413.386 841.632083,2411.482 838.776083,2411.482 C835.410083,2411.482 832.894083,2414.1 832.894083,2417.704 C832.894083,2421.308 835.376083,2423.96 838.776083,2423.96 Z M867.321444,2409.068 C869.701444,2409.068 871.571444,2410.088 872.863444,2411.686 L871.265444,2413.318 C870.177444,2412.196 868.749444,2411.482 867.185444,2411.482 C865.621444,2411.482 864.431444,2412.196 864.431444,2413.556 C864.431444,2414.678 865.281444,2415.222 867.117444,2415.97 L868.647444,2416.616 C871.639444,2417.874 873.033444,2419.166 873.033444,2421.512 C873.033444,2424.742 870.279444,2426.374 867.219444,2426.374 C864.295444,2426.374 862.085444,2424.912 860.759444,2423.144 L862.425444,2421.41 C863.785444,2422.838 865.179444,2423.96 867.185444,2423.96 C868.919444,2423.96 870.347444,2423.11 870.347444,2421.614 C870.347444,2420.186 869.123444,2419.642 867.457444,2418.962 L865.859444,2418.282 C863.343444,2417.228 861.745444,2416.072 861.745444,2413.692 C861.745444,2410.7 864.295444,2409.068 867.321444,2409.068 Z M884.552125,2423.994 C885.198125,2423.994 885.912125,2423.926 886.762125,2423.79 L886.762125,2426 C885.912125,2426.204 885.062125,2426.374 884.008125,2426.374 C880.744125,2426.374 878.432125,2424.776 878.432125,2421.002 L878.432125,2411.788 L875.644125,2411.788 L875.644125,2409.442 L878.432125,2409.442 L878.432125,2404.92 L881.050125,2404.92 L881.050125,2409.442 L886.218125,2409.442 L886.218125,2411.788 L881.050125,2411.788 L881.050125,2420.832 C881.050125,2423.314 882.478125,2423.994 884.552125,2423.994 Z M904.128806,2409.442 L904.128806,2419.404 C904.128806,2423.654 901.102806,2426.374 897.294806,2426.374 C893.418806,2426.374 890.426806,2423.654 890.426806,2419.404 L890.426806,2409.442 L893.010806,2409.442 L893.010806,2419.574 C893.010806,2422.294 894.914806,2423.96 897.294806,2423.96 C899.606806,2423.96 901.510806,2422.294 901.510806,2419.574 L901.510806,2409.442 L904.128806,2409.442 Z M922.753486,2400.5 L925.371486,2400.5 L925.371486,2426 L922.889486,2426 L922.889486,2423.348 C921.597486,2425.252 919.251486,2426.374 916.633486,2426.374 C911.907486,2426.374 908.439486,2422.6 908.439486,2417.738 C908.439486,2412.842 911.907486,2409.068 916.633486,2409.068 C919.149486,2409.068 921.427486,2410.122 922.753486,2411.89 L922.753486,2400.5 Z M917.007486,2423.96 C919.863486,2423.96 922.787486,2422.09 922.787486,2417.738 C922.787486,2413.386 919.863486,2411.482 917.007486,2411.482 C913.641486,2411.482 911.125486,2414.1 911.125486,2417.704 C911.125486,2421.308 913.607486,2423.96 917.007486,2423.96 Z M945.900167,2416.548 C945.900167,2417.432 945.764167,2418.214 945.696167,2418.52 L932.640167,2418.52 C932.980167,2421.818 935.428167,2423.96 938.692167,2423.96 C940.766167,2423.96 942.398167,2423.076 943.758167,2421.716 L945.288167,2423.484 C943.622167,2425.252 941.378167,2426.374 938.658167,2426.374 C933.660167,2426.374 929.886167,2422.6 929.886167,2417.738 C929.886167,2412.91 933.592167,2409.068 938.352167,2409.068 C942.602167,2409.068 945.900167,2412.128 945.900167,2416.548 Z M938.284167,2411.448 C935.496167,2411.448 933.286167,2413.352 932.742167,2416.208 L943.214167,2416.208 C943.180167,2413.148 940.936167,2411.448 938.284167,2411.448 Z M957.996847,2409.068 C961.906847,2409.068 964.150847,2411.754 964.150847,2415.596 L964.150847,2426 L961.532847,2426 L961.532847,2415.902 C961.532847,2413.284 959.968847,2411.482 957.418847,2411.482 C954.868847,2411.482 953.066847,2413.318 953.066847,2415.902 L953.066847,2426 L950.448847,2426 L950.448847,2409.442 L952.896847,2409.442 L952.896847,2411.244 C954.052847,2409.884 955.854847,2409.068 957.996847,2409.068 Z M976.485528,2423.994 C977.131528,2423.994 977.845528,2423.926 978.695528,2423.79 L978.695528,2426 C977.845528,2426.204 976.995528,2426.374 975.941528,2426.374 C972.677528,2426.374 970.365528,2424.776 970.365528,2421.002 L970.365528,2411.788 L967.577528,2411.788 L967.577528,2409.442 L970.365528,2409.442 L970.365528,2404.92 L972.983528,2404.92 L972.983528,2409.442 L978.151528,2409.442 L978.151528,2411.788 L972.983528,2411.788 L972.983528,2420.832 C972.983528,2423.314 974.411528,2423.994 976.485528,2423.994 Z M984.264208,2422.09 C985.420208,2422.09 986.406208,2422.974 986.406208,2424.232 C986.406208,2425.49 985.420208,2426.374 984.264208,2426.374 C983.108208,2426.374 982.122208,2425.49 982.122208,2424.232 C982.122208,2422.974 983.108208,2422.09 984.264208,2422.09 Z" id="neural3"></path>
        </g>
    </g>
</svg>