<?xml version="1.0" encoding="UTF-8"?>
<svg width="14px" height="58px" viewBox="0 0 14 58" version="1.1" xmlns="http://www.w3.org/2000/svg" xmlns:xlink="http://www.w3.org/1999/xlink">
    <!-- Generator: Sketch 53 (72520) - https://sketchapp.com -->
    <title>WorkActive</title>
    <desc>Created with Sketch.</desc>
    <g id="Page-1" stroke="none" stroke-width="1" fill="none" fill-rule="evenodd">
        <g id="Desktop-HD-Copy-32" transform="translate(-1326.000000, -483.000000)" fill="#FFFFFF">
            <path d="M1320.58663,505.245614 L1323.56627,505.245614 L1318.32211,519 L1317.44808,519 L1313.79306,510.526316 L1310.11818,519 L1309.24416,519 L1304,505.245614 L1306.97963,505.245614 L1309.89968,513.22807 L1313.33619,505 L1314.23008,505 L1317.66659,513.187135 L1320.58663,505.245614 Z M1323.56708,512 C1323.50736,508.132425 1326.7521,504.919677 1330.53432,505.00153 C1334.31653,504.919677 1337.60109,508.132425 1337.54137,512 C1337.60109,515.867575 1334.31653,519.080323 1330.53432,518.99847 C1326.7521,519.080323 1323.50736,515.867575 1323.56708,512 Z M1335.09639,512 C1335.09639,509.379032 1333.29666,507.45 1330.90361,507.45 C1328.49079,507.45 1326.71084,509.337097 1326.71084,512 C1326.71084,514.662903 1328.49079,516.55 1330.90361,516.55 C1333.29666,516.55 1335.09639,514.662903 1335.09639,512 Z M1349.77108,518.65 L1346.71997,518.65 L1343.28747,513.954697 L1341.30023,513.954697 L1341.30023,518.65 L1338.59036,518.65 L1338.59036,505.35 L1343.56849,505.35 C1346.33858,505.35 1348.34589,507.08303 1348.34589,509.642273 C1348.34589,511.335 1347.46268,512.705303 1346.01741,513.430758 L1349.77108,518.65 Z M1341.73494,507.1 L1341.73494,511.3 L1343.95927,511.3 C1345.19939,511.3 1345.92771,510.455556 1345.92771,509.188889 C1345.92771,507.944444 1345.16002,507.1 1343.95927,507.1 L1341.73494,507.1 Z M1362,518.3 L1358.66719,518.3 L1352.88078,511.367879 L1352.88078,518.3 L1350.12048,518.3 L1350.12048,505 L1352.88078,505 L1352.88078,511.166364 L1358.03335,505 L1361.32526,505 L1356.15225,511.267121 L1362,518.3 Z" id="WorkActive" transform="translate(1333.000000, 512.000000) rotate(90.000000) translate(-1333.000000, -512.000000) "></path>
        </g>
    </g>
</svg>