<?xml version="1.0" encoding="UTF-8"?>
<svg width="13px" height="58px" viewBox="0 0 13 58" version="1.1" xmlns="http://www.w3.org/2000/svg" xmlns:xlink="http://www.w3.org/1999/xlink">
    <!-- Generator: Sketch 53 (72520) - https://sketchapp.com -->
    <title>About</title>
    <desc>Created with Sketch.</desc>
    <g id="Page-1" stroke="none" stroke-width="1" fill="none" fill-rule="evenodd">
        <g id="Desktop-HD-Copy-32" transform="translate(-100.000000, -483.000000)" fill="#FFFFFF">
            <path d="M86.6298889,518.270559 L85.9390793,516.636413 L80.8980364,516.636413 L80.2072268,518.270559 L77.5,518.270559 L83.0078062,505.501421 L83.84798,505.501421 L89.3371157,518.270559 L86.6298889,518.270559 Z M85.0615645,514.527225 L83.4185579,510.289848 L81.7755513,514.527225 L85.0615645,514.527225 Z M99.5662321,514.58423 C99.5662321,516.750423 97.8858844,518.270559 95.5147272,518.270559 L90.0255915,518.270559 L90.0255915,505.729441 L94.3944954,505.729441 C96.6723,505.729441 98.2966361,507.17357 98.2966361,509.225753 C98.2966361,510.137834 97.9979076,510.897902 97.3817801,511.486954 C98.7447288,512 99.5662321,513.064095 99.5662321,514.58423 Z M94.1891196,507.933638 L92.4527603,507.933638 L92.4527603,510.802893 L94.1891196,510.802893 C95.2159987,510.802893 95.7947851,510.251844 95.7947851,509.358765 C95.7947851,508.465685 95.2159987,507.933638 94.1891196,507.933638 Z M97.0830517,514.489222 C97.0830517,513.520135 96.4295831,512.912081 95.3280219,512.912081 L92.4527603,512.912081 L92.4527603,516.066362 L95.3280219,516.066362 C96.4295831,516.066362 97.0830517,515.47731 97.0830517,514.489222 Z M99.9186383,512 C99.8626268,508.40868 102.905923,505.425414 106.453324,505.501421 C110.000724,505.425414 113.081362,508.40868 113.02535,512 C113.081362,515.59132 110.000724,518.574586 106.453324,518.498579 C102.905923,518.574586 99.8626268,515.59132 99.9186383,512 Z M110.430146,512 C110.430146,509.624788 108.731128,507.876633 106.471994,507.876633 C104.19419,507.876633 102.513842,509.586785 102.513842,512 C102.513842,514.413215 104.19419,516.123367 106.471994,516.123367 C108.731128,516.123367 110.430146,514.413215 110.430146,512 Z M114.049895,513.083096 L114.049895,505.729441 L116.570417,505.729441 L116.570417,513.273113 C116.570417,515.097276 117.690649,516.123367 119.277644,516.123367 C120.90198,516.123367 121.98487,515.097276 121.98487,513.273113 L121.98487,505.729441 L124.505392,505.729441 L124.505392,513.083096 C124.505392,516.408393 122.264928,518.498579 119.277644,518.498579 C116.253018,518.498579 114.049895,516.408393 114.049895,513.083096 Z M129.021326,518.270559 L129.021326,508.047648 L125.081845,508.047648 L125.081845,505.729441 L135.5,505.729441 L135.5,508.047648 L131.541848,508.047648 L131.541848,518.270559 L129.021326,518.270559 Z" id="About" transform="translate(106.500000, 512.000000) rotate(-90.000000) translate(-106.500000, -512.000000) "></path>
        </g>
    </g>
</svg>