<?xml version="1.0" encoding="UTF-8"?>
<svg width="199px" height="19px" viewBox="0 0 199 19" version="1.1" xmlns="http://www.w3.org/2000/svg" xmlns:xlink="http://www.w3.org/1999/xlink">
    <!-- Generator: Sketch 52.6 (67491) - http://www.bohemiancoding.com/sketch -->
    <title>Group 4</title>
    <desc>Created with Sketch.</desc>
    <defs>
        <linearGradient x1="74.000038%" y1="27.6221471%" x2="-16.1444198%" y2="123.99548%" id="linearGradient-1">
            <stop stop-color="#FA8561" offset="0%"></stop>
            <stop stop-color="#D31CF7" offset="100%"></stop>
        </linearGradient>
    </defs>
    <g id="Page-1" stroke="none" stroke-width="1" fill="none" fill-rule="evenodd">
        <g id="Desktop-HD-Copy-27" transform="translate(-1162.000000, -97.000000)" fill="url(#linearGradient-1)">
            <g id="Group-4" transform="translate(1162.000000, 97.000000)">
                <path d="M9.65583334,1.8 L11.7758333,1.8 L11.7758333,15.22 L11.0558333,15.22 L3.01583334,6.06 L3.01583334,15 L0.895833336,15 L0.895833336,1.58 L1.63583334,1.58 L9.65583334,10.7 L9.65583334,1.8 Z M23.6915278,10.78 L16.3715278,10.78 C16.6315278,12.38 17.8915278,13.36 19.5715278,13.36 C20.5915278,13.36 21.5515278,12.98 22.4315278,12.2 L23.4315278,13.64 C22.3115278,14.7 21.0115278,15.22 19.5115278,15.22 C16.5115278,15.22 14.2315278,13 14.2315278,10.1 C14.1715278,7.28 16.5315278,4.9 19.3115278,4.96 C21.9115278,4.96 23.8515278,6.9 23.8515278,9.46 C23.8515278,9.88 23.7915278,10.32 23.6915278,10.78 Z M16.4115278,9.14 L21.7515278,9.14 C21.7315278,7.64 20.6115278,6.74 19.2315278,6.74 C17.8515278,6.74 16.7315278,7.68 16.4115278,9.14 Z M34.4872222,15 L32.0872222,15 L29.6272222,11.4 L27.1872222,15 L24.7872222,15 L28.4272222,9.9 L25.0472222,5.18 L27.4472222,5.18 L29.6472222,8.42 L31.8272222,5.18 L34.2272222,5.18 L30.8272222,9.92 L34.4872222,15 Z M42.1229167,13.22 L42.1229167,15 C41.4629167,15.14 40.8829167,15.22 40.3829167,15.22 C38.1229167,15.22 36.7629167,14.1 36.7629167,11.8 L36.7629167,7 L35.1629167,7 L35.1629167,5.18 L36.7629167,5.18 L36.7629167,2.6 L38.8829167,2.6 L38.8829167,5.18 L41.8029167,5.18 L41.8029167,7 L38.8829167,7 L38.8829167,11.62 C38.8829167,12.88 39.5429167,13.32 40.8229167,13.32 C41.1229167,13.32 41.5429167,13.28 42.1229167,13.22 Z M49.9343056,15 L49.9343056,1.8 L54.7543056,1.8 C57.4143056,1.8 59.2343056,3.46 59.2343056,5.84 C59.2343056,8.2 57.4143056,9.9 54.7543056,9.9 L52.0543056,9.9 L52.0543056,15 L49.9343056,15 Z M52.0543056,8.02 L54.7143056,8.02 C56.2143056,8.02 57.0543056,7.16 57.0543056,5.86 C57.0543056,4.56 56.2143056,3.68 54.7143056,3.68 L52.0543056,3.68 L52.0543056,8.02 Z M67.03,5.18 L67.03,7.04 L66.39,7.04 C64.73,7.04 63.51,8.02 63.51,9.76 L63.51,15 L61.41,15 L61.41,5.18 L63.37,5.18 L63.37,6.46 C64.07,5.58 65.11,5.08 66.23,5.08 C66.53,5.08 66.79,5.12 67.03,5.18 Z M68.0656944,10.08 C68.0056944,7.26 70.4256944,4.92 73.2456944,4.96 C76.1056944,4.9 78.5256944,7.3 78.4656944,10.08 C78.5256944,12.86 76.1056944,15.28 73.2456944,15.22 C70.4256944,15.28 68.0056944,12.86 68.0656944,10.08 Z M76.3056944,10.1 C76.3056944,8.28 74.9656944,6.88 73.2656944,6.88 C71.5256944,6.88 70.2056944,8.28 70.2056944,10.1 C70.2056944,11.92 71.5256944,13.28 73.2456944,13.28 C74.9856944,13.28 76.3056944,11.88 76.3056944,10.1 Z M78.1013889,18.64 L78.1013889,16.86 C78.4213889,16.9 78.7013889,16.92 78.9613889,16.92 C80.2213889,16.92 80.8413889,16.44 80.8413889,15.22 L80.8413889,5.18 L82.9413889,5.18 L82.9413889,15.4 C82.9413889,17.7 81.6213889,18.82 79.4613889,18.82 C78.9213889,18.82 78.4613889,18.76 78.1013889,18.64 Z M80.4613889,1.52 C80.4613889,0.74 81.1013889,0.12 81.9013889,0.12 C82.6813889,0.12 83.3213889,0.74 83.3213889,1.52 C83.3213889,2.3 82.6813889,2.9 81.9013889,2.9 C81.1013889,2.9 80.4613889,2.3 80.4613889,1.52 Z M94.7970833,10.78 L87.4770833,10.78 C87.7370833,12.38 88.9970833,13.36 90.6770833,13.36 C91.6970833,13.36 92.6570833,12.98 93.5370833,12.2 L94.5370833,13.64 C93.4170833,14.7 92.1170833,15.22 90.6170833,15.22 C87.6170833,15.22 85.3370833,13 85.3370833,10.1 C85.2770833,7.28 87.6370833,4.9 90.4170833,4.96 C93.0170833,4.96 94.9570833,6.9 94.9570833,9.46 C94.9570833,9.88 94.8970833,10.32 94.7970833,10.78 Z M87.5170833,9.14 L92.8570833,9.14 C92.8370833,7.64 91.7170833,6.74 90.3370833,6.74 C88.9570833,6.74 87.8370833,7.68 87.5170833,9.14 Z M96.7127778,10.08 C96.6527778,7.26 99.0927778,4.92 101.912778,4.96 C103.732778,4.96 105.192778,5.82 106.052778,7.24 L104.572778,8.4 C103.872778,7.4 102.992778,6.9 101.932778,6.9 C100.172778,6.9 98.8527778,8.3 98.8527778,10.08 C98.8527778,11.88 100.172778,13.28 101.932778,13.28 C102.972778,13.28 103.852778,12.78 104.572778,11.8 L106.052778,12.94 C105.172778,14.36 103.692778,15.22 101.912778,15.22 C99.0127778,15.22 96.7127778,12.94 96.7127778,10.08 Z M114.188472,13.22 L114.188472,15 C113.528472,15.14 112.948472,15.22 112.448472,15.22 C110.188472,15.22 108.828472,14.1 108.828472,11.8 L108.828472,7 L107.228472,7 L107.228472,5.18 L108.828472,5.18 L108.828472,2.6 L110.948472,2.6 L110.948472,5.18 L113.868472,5.18 L113.868472,7 L110.948472,7 L110.948472,11.62 C110.948472,12.88 111.608472,13.32 112.888472,13.32 C113.188472,13.32 113.608472,13.28 114.188472,13.22 Z" id="Next-Project"></path>
                <g id="Group-3" transform="translate(125.000000, 3.000000)" fill-rule="nonzero" opacity="0.799827939" stroke="url(#linearGradient-1)" stroke-linecap="square" stroke-width="1.89">
                    <path d="M51.8697167,7.1875 L0.12649493,7.1875 L51.8697167,7.1875 C52.0355077,3.1902869 55.3672258,0 59.4529915,0 C63.5387571,0 66.8704752,3.1902869 67.0362662,7.1875 L73.6837607,7.1875 L67.0362662,7.1875 C67.0405647,7.29113807 67.042735,7.39531858 67.042735,7.5 C67.042735,11.6421356 63.6446911,15 59.4529915,15 C55.2612918,15 51.8632479,11.6421356 51.8632479,7.5 C51.8632479,7.39531858 51.8654182,7.29113807 51.8697167,7.1875 Z" id="Combined-Shape"></path>
                </g>
            </g>
        </g>
    </g>
</svg>