<?xml version="1.0" encoding="UTF-8"?>
<svg width="56px" height="11px" viewBox="0 0 56 11" version="1.1" xmlns="http://www.w3.org/2000/svg" xmlns:xlink="http://www.w3.org/1999/xlink">
    <!-- Generator: Sketch 51.2 (57519) - http://www.bohemiancoding.com/sketch -->
    <title>ResumeActive</title>
    <desc>Created with Sketch.</desc>
    <defs>
        <linearGradient x1="74.000038%" y1="27.6221471%" x2="-16.1444198%" y2="123.99548%" id="linearGradient-1">
            <stop stop-color="#FA8561" offset="0%"></stop>
            <stop stop-color="#D31CF7" offset="100%"></stop>
        </linearGradient>
    </defs>
    <g id="Page-1" stroke="none" stroke-width="1" fill="none" fill-rule="evenodd">
        <g id="Desktop-HD-Copy-13" transform="translate(-875.000000, -108.000000)" fill="url(#linearGradient-1)">
            <path d="M883.912,118.752 L881.48,118.752 L878.744,115.024 L877.16,115.024 L877.16,118.752 L875,118.752 L875,108.192 L878.968,108.192 C881.176,108.192 882.776,109.568 882.776,111.6 C882.776,112.944 882.072,114.032 880.92,114.608 L883.912,118.752 Z M877.16,110.096 L877.16,113.12 L878.968,113.12 C879.976,113.12 880.568,112.512 880.568,111.6 C880.568,110.704 879.944,110.096 878.968,110.096 L877.16,110.096 Z M884.39,118.752 L884.39,108.192 L891.494,108.192 L891.494,110.144 L886.55,110.144 L886.55,112.288 L890.182,112.288 L890.182,114.128 L886.55,114.128 L886.55,116.8 L891.686,116.8 L891.686,118.752 L884.39,118.752 Z M891.972,116.608 L893.46,115.488 C894.148,116.432 894.9,117.024 896.052,117.024 C896.996,117.024 897.556,116.576 897.556,115.856 C897.556,115.232 897.22,115.008 896.212,114.544 L895.076,114.032 C893.46,113.312 892.516,112.4 892.516,110.992 C892.516,109.184 894.02,108 896.02,108 C897.636,108 898.852,108.784 899.508,110 L898.036,111.136 C897.492,110.32 896.82,109.92 896.02,109.92 C895.268,109.92 894.708,110.288 894.708,110.944 C894.708,111.504 895.044,111.76 895.94,112.16 L897.14,112.688 C898.916,113.472 899.748,114.352 899.748,115.776 C899.748,117.712 898.164,118.944 896.052,118.944 C894.26,118.944 892.788,118.032 891.972,116.608 Z M900.706,114.384 L900.706,108.192 L902.866,108.192 L902.866,114.544 C902.866,116.08 903.826,116.944 905.186,116.944 C906.578,116.944 907.506,116.08 907.506,114.544 L907.506,108.192 L909.666,108.192 L909.666,114.384 C909.666,117.184 907.746,118.944 905.186,118.944 C902.594,118.944 900.706,117.184 900.706,114.384 Z M920.784,108 L921.488,108 L921.488,118.752 L919.328,118.752 L919.328,113.12 L916.672,116.448 L915.968,116.448 L913.312,113.12 L913.312,118.752 L911.152,118.752 L911.152,108 L911.856,108 L916.32,113.712 L920.784,108 Z M923.07,118.752 L923.07,108.192 L930.174,108.192 L930.174,110.144 L925.23,110.144 L925.23,112.288 L928.862,112.288 L928.862,114.128 L925.23,114.128 L925.23,116.8 L930.366,116.8 L930.366,118.752 L923.07,118.752 Z" id="ResumeActive"></path>
        </g>
    </g>
</svg>