<?xml version="1.0" encoding="UTF-8"?>
<svg width="572px" height="189px" viewBox="0 0 572 189" version="1.1" xmlns="http://www.w3.org/2000/svg" xmlns:xlink="http://www.w3.org/1999/xlink">
    <!-- Generator: Sketch 53.2 (72643) - https://sketchapp.com -->
    <title>SanjanaMehra</title>
    <desc>Created with Sketch.</desc>
    <defs>
        <linearGradient x1="74.000038%" y1="49.5075194%" x2="-16.1444198%" y2="51.6284556%" id="linearGradient-1">
            <stop stop-color="#FA8561" offset="0%"></stop>
            <stop stop-color="#D31CF7" offset="100%"></stop>
        </linearGradient>
    </defs>
    <g id="Page-1" stroke="none" stroke-width="1" fill="none" fill-rule="evenodd">
        <g id="Desktop-HD-Copy-27" transform="translate(-1119.000000, -290.000000)">
            <g id="SanjanaMehra" transform="translate(1119.000000, 290.000000)">
                <rect id="Rectangle-Copy" fill="#000000" x="0" y="0" width="572" height="189" rx="16"></rect>
                <path d="M61.228,64.612 C69.208,64.612 74.832,68.64 77.796,74.112 L70.804,79.508 C68.372,75.86 65.332,73.732 61.228,73.732 C57.884,73.732 54.996,75.252 54.996,78.596 C54.996,81.484 57.2,82.7 60.848,84.372 L66.548,86.88 C74.452,90.376 78.936,94.404 78.936,101.548 C78.936,110.896 71.336,116.596 61.38,116.596 C52.716,116.596 45.724,112.188 42,105.5 L49.068,100.18 C51.804,103.98 55.376,107.476 61.38,107.476 C65.788,107.476 68.524,105.424 68.524,101.928 C68.524,98.66 66.092,97.52 62.14,95.696 L56.744,93.264 C49.6,89.996 44.584,85.892 44.584,78.824 C44.584,70.16 51.804,64.612 61.228,64.612 Z M100.954137,77.228 C110.530137,77.228 117.066137,82.624 117.066137,93.34 L117.066137,115.684 L107.642137,115.684 L107.642137,112.036 C104.982137,114.848 101.030137,116.596 96.166137,116.596 C87.958137,116.596 83.170137,111.732 83.170137,105.348 C83.170137,98.508 88.718137,94.404 97.382137,94.404 L106.806137,94.404 L106.806137,92.732 C106.806137,88.628 104.450137,86.12 99.814137,86.12 C95.786137,86.12 92.974137,88.02 89.858137,91.288 L84.538137,84.98 C88.946137,79.736 94.342137,77.228 100.954137,77.228 Z M98.902137,109.072 C103.234137,109.072 106.806137,106.032 106.806137,101.624 L106.806137,101.168 L98.750137,101.168 C95.406137,101.168 93.506137,102.46 93.506137,104.968 C93.506137,107.552 95.710137,109.072 98.902137,109.072 Z M145.620274,77.228 C154.436274,77.228 159.756274,83.308 159.756274,92.352 L159.756274,115.684 L149.572274,115.684 L149.572274,93.72 C149.572274,89.388 146.760274,86.424 142.580274,86.424 C138.400274,86.424 135.436274,89.388 135.436274,93.72 L135.436274,115.684 L125.176274,115.684 L125.176274,78.064 L134.600274,78.064 L134.600274,81.484 C137.184274,78.9 140.984274,77.228 145.620274,77.228 Z M172.958411,58 C176.606411,58 179.570411,60.736 179.570411,64.384 C179.570411,67.956 176.606411,70.692 172.958411,70.692 C169.310411,70.692 166.422411,67.956 166.422411,64.384 C166.422411,60.736 169.310411,58 172.958411,58 Z M178.126411,78.064 L178.126411,116.14 C178.126411,125.792 172.350411,130.276 163.686411,130.276 C161.254411,130.276 159.430411,129.896 157.986411,129.44 L157.986411,120.852 C159.202411,121.004 160.038411,121.08 161.102411,121.08 C165.586411,121.08 167.866411,119.484 167.866411,115.228 L167.866411,78.064 L178.126411,78.064 Z M201.968548,77.228 C211.544548,77.228 218.080548,82.624 218.080548,93.34 L218.080548,115.684 L208.656548,115.684 L208.656548,112.036 C205.996548,114.848 202.044548,116.596 197.180548,116.596 C188.972548,116.596 184.184548,111.732 184.184548,105.348 C184.184548,98.508 189.732548,94.404 198.396548,94.404 L207.820548,94.404 L207.820548,92.732 C207.820548,88.628 205.464548,86.12 200.828548,86.12 C196.800548,86.12 193.988548,88.02 190.872548,91.288 L185.552548,84.98 C189.960548,79.736 195.356548,77.228 201.968548,77.228 Z M199.916548,109.072 C204.248548,109.072 207.820548,106.032 207.820548,101.624 L207.820548,101.168 L199.764548,101.168 C196.420548,101.168 194.520548,102.46 194.520548,104.968 C194.520548,107.552 196.724548,109.072 199.916548,109.072 Z M246.634685,77.228 C255.450685,77.228 260.770685,83.308 260.770685,92.352 L260.770685,115.684 L250.586685,115.684 L250.586685,93.72 C250.586685,89.388 247.774685,86.424 243.594685,86.424 C239.414685,86.424 236.450685,89.388 236.450685,93.72 L236.450685,115.684 L226.190685,115.684 L226.190685,78.064 L235.614685,78.064 L235.614685,81.484 C238.198685,78.9 241.998685,77.228 246.634685,77.228 Z M284.308822,77.228 C293.884822,77.228 300.420822,82.624 300.420822,93.34 L300.420822,115.684 L290.996822,115.684 L290.996822,112.036 C288.336822,114.848 284.384822,116.596 279.520822,116.596 C271.312822,116.596 266.524822,111.732 266.524822,105.348 C266.524822,98.508 272.072822,94.404 280.736822,94.404 L290.160822,94.404 L290.160822,92.732 C290.160822,88.628 287.804822,86.12 283.168822,86.12 C279.140822,86.12 276.328822,88.02 273.212822,91.288 L267.892822,84.98 C272.300822,79.736 277.696822,77.228 284.308822,77.228 Z M282.256822,109.072 C286.588822,109.072 290.160822,106.032 290.160822,101.624 L290.160822,101.168 L282.104822,101.168 C278.760822,101.168 276.860822,102.46 276.860822,104.968 C276.860822,107.552 279.064822,109.072 282.256822,109.072 Z M374.477096,64.612 L377.821096,64.612 L377.821096,115.684 L367.561096,115.684 L367.561096,88.856 L354.945096,104.74 L351.601096,104.74 L338.985096,88.856 L338.985096,115.684 L328.725096,115.684 L328.725096,64.612 L332.069096,64.612 L353.273096,91.82 L374.477096,64.612 Z M421.803233,94.708 C421.803233,96.836 421.423233,99.04 421.119233,100.332 L394.671233,100.332 C395.963233,105.12 399.915233,107.78 405.311233,107.78 C409.415233,107.78 412.759233,106.336 415.799233,103.98 L420.055233,110.972 C415.799233,114.544 410.783233,116.596 405.007233,116.596 C393.075233,116.596 384.411233,108.008 384.411233,96.912 C384.411233,85.816 392.999233,77.228 404.095233,77.228 C414.659233,77.228 421.803233,84.98 421.803233,94.708 Z M403.715233,85.512 C399.383233,85.512 395.887233,88.4 394.671233,93.112 L411.847233,93.112 C411.771233,88.324 408.047233,85.512 403.715233,85.512 Z M448.60937,77.228 C457.19737,77.228 462.59337,83.308 462.59337,92.352 L462.59337,115.684 L452.40937,115.684 L452.40937,93.796 C452.40937,89.388 449.59737,86.5 445.41737,86.5 C441.23737,86.5 438.27337,89.464 438.27337,93.796 L438.27337,115.684 L428.01337,115.684 L428.01337,58.684 L438.27337,58.684 L438.27337,81.256 C440.78137,78.748 444.35337,77.228 448.60937,77.228 Z M490.463507,77.608 C491.831507,77.608 492.819507,77.76 493.807507,78.064 L493.807507,87.108 L491.071507,87.108 C485.143507,87.108 480.963507,90.148 480.963507,96.912 L480.963507,115.684 L470.703507,115.684 L470.703507,78.064 L480.127507,78.064 L480.127507,82.624 C482.635507,79.356 486.359507,77.608 490.463507,77.608 Z M513.089644,77.228 C522.665644,77.228 529.201644,82.624 529.201644,93.34 L529.201644,115.684 L519.777644,115.684 L519.777644,112.036 C517.117644,114.848 513.165644,116.596 508.301644,116.596 C500.093644,116.596 495.305644,111.732 495.305644,105.348 C495.305644,98.508 500.853644,94.404 509.517644,94.404 L518.941644,94.404 L518.941644,92.732 C518.941644,88.628 516.585644,86.12 511.949644,86.12 C507.921644,86.12 505.109644,88.02 501.993644,91.288 L496.673644,84.98 C501.081644,79.736 506.477644,77.228 513.089644,77.228 Z M511.037644,109.072 C515.369644,109.072 518.941644,106.032 518.941644,101.624 L518.941644,101.168 L510.885644,101.168 C507.541644,101.168 505.641644,102.46 505.641644,104.968 C505.641644,107.552 507.845644,109.072 511.037644,109.072 Z" fill="url(#linearGradient-1)" fill-rule="nonzero"></path>
            </g>
        </g>
    </g>
</svg>