<?xml version="1.0" encoding="UTF-8"?>
<svg width="790px" height="20px" viewBox="0 0 790 20" version="1.1" xmlns="http://www.w3.org/2000/svg" xmlns:xlink="http://www.w3.org/1999/xlink">
    <!-- Generator: Sketch 53.2 (72643) - https://sketchapp.com -->
    <title>Note:Thisprojecthasbeenarchivedofflineasthedesignerredesignedthesiteagain.</title>
    <desc>Created with Sketch.</desc>
    <g id="Page-1" stroke="none" stroke-width="1" fill="none" fill-rule="evenodd">
        <g id="Desktop-HD-Copy-26" transform="translate(-390.000000, -2462.000000)" fill="#404648" fill-rule="nonzero">
            <path d="M399.897292,2464.8 L401.457292,2464.8 L401.457292,2478.22 L400.897292,2478.22 L392.497292,2468.08 L392.497292,2478 L390.937292,2478 L390.937292,2464.58 L391.497292,2464.58 L399.897292,2474.74 L399.897292,2464.8 Z M409.252986,2468.04 C412.072986,2468.04 414.352986,2470.26 414.352986,2473.12 C414.352986,2475.96 412.072986,2478.2 409.232986,2478.2 C406.412986,2478.18 404.152986,2475.98 404.152986,2473.12 C404.152986,2470.26 406.392986,2468.04 409.252986,2468.04 Z M409.252986,2469.46 C407.212986,2469.46 405.712986,2471.06 405.732986,2473.14 C405.732986,2475.2 407.212986,2476.78 409.232986,2476.78 C411.252986,2476.78 412.772986,2475.18 412.772986,2473.14 C412.772986,2471.04 411.252986,2469.46 409.252986,2469.46 Z M421.04868,2476.82 C421.42868,2476.82 421.84868,2476.78 422.34868,2476.7 L422.34868,2478 C421.84868,2478.12 421.34868,2478.22 420.72868,2478.22 C418.80868,2478.22 417.44868,2477.28 417.44868,2475.06 L417.44868,2469.64 L415.80868,2469.64 L415.80868,2468.26 L417.44868,2468.26 L417.44868,2465.6 L418.98868,2465.6 L418.98868,2468.26 L422.02868,2468.26 L422.02868,2469.64 L418.98868,2469.64 L418.98868,2474.96 C418.98868,2476.42 419.82868,2476.82 421.04868,2476.82 Z M433.144375,2472.44 C433.144375,2472.96 433.064375,2473.42 433.024375,2473.6 L425.344375,2473.6 C425.544375,2475.54 426.984375,2476.8 428.904375,2476.8 C430.124375,2476.8 431.084375,2476.28 431.884375,2475.48 L432.784375,2476.52 C431.804375,2477.56 430.484375,2478.22 428.884375,2478.22 C425.944375,2478.22 423.724375,2476 423.724375,2473.14 C423.724375,2470.3 425.904375,2468.04 428.704375,2468.04 C431.204375,2468.04 433.144375,2469.84 433.144375,2472.44 Z M428.664375,2469.44 C427.024375,2469.44 425.724375,2470.56 425.404375,2472.24 L431.564375,2472.24 C431.544375,2470.44 430.224375,2469.44 428.664375,2469.44 Z M436.820069,2468.16 C437.500069,2468.16 438.080069,2468.68 438.080069,2469.42 C438.080069,2470.18 437.500069,2470.68 436.820069,2470.68 C436.140069,2470.68 435.560069,2470.18 435.560069,2469.42 C435.560069,2468.68 436.140069,2468.16 436.820069,2468.16 Z M436.820069,2475.7 C437.500069,2475.7 438.080069,2476.22 438.080069,2476.96 C438.080069,2477.7 437.500069,2478.22 436.820069,2478.22 C436.140069,2478.22 435.560069,2477.7 435.560069,2476.96 C435.560069,2476.22 436.140069,2475.7 436.820069,2475.7 Z M455.311458,2464.8 L455.311458,2466.2 L450.651458,2466.2 L450.651458,2478 L449.091458,2478 L449.091458,2466.2 L444.451458,2466.2 L444.451458,2464.8 L455.311458,2464.8 Z M461.827153,2468.04 C464.107153,2468.04 465.427153,2469.62 465.427153,2471.88 L465.427153,2478 L463.887153,2478 L463.887153,2472.08 C463.887153,2470.54 462.967153,2469.46 461.467153,2469.46 C459.967153,2469.46 458.907153,2470.56 458.907153,2472.08 L458.907153,2478 L457.367153,2478 L457.367153,2463 L458.907153,2463 L458.907153,2469.36 C459.547153,2468.54 460.567153,2468.04 461.827153,2468.04 Z M469.442847,2463.42 C470.062847,2463.42 470.582847,2463.92 470.582847,2464.54 C470.582847,2465.18 470.062847,2465.66 469.442847,2465.66 C468.782847,2465.66 468.282847,2465.18 468.282847,2464.54 C468.282847,2463.92 468.782847,2463.42 469.442847,2463.42 Z M470.202847,2468.26 L470.202847,2478 L468.662847,2478 L468.662847,2468.26 L470.202847,2468.26 Z M476.498542,2468.04 C477.898542,2468.04 478.998542,2468.64 479.758542,2469.58 L478.818542,2470.54 C478.178542,2469.88 477.338542,2469.46 476.418542,2469.46 C475.498542,2469.46 474.798542,2469.88 474.798542,2470.68 C474.798542,2471.34 475.298542,2471.66 476.378542,2472.1 L477.278542,2472.48 C479.038542,2473.22 479.858542,2473.98 479.858542,2475.36 C479.858542,2477.26 478.238542,2478.22 476.438542,2478.22 C474.718542,2478.22 473.418542,2477.36 472.638542,2476.32 L473.618542,2475.3 C474.418542,2476.14 475.238542,2476.8 476.418542,2476.8 C477.438542,2476.8 478.278542,2476.3 478.278542,2475.42 C478.278542,2474.58 477.558542,2474.26 476.578542,2473.86 L475.638542,2473.46 C474.158542,2472.84 473.218542,2472.16 473.218542,2470.76 C473.218542,2469 474.718542,2468.04 476.498542,2468.04 Z M493.309931,2468.04 C496.109931,2468.04 498.129931,2470.26 498.129931,2473.12 C498.129931,2476 496.089931,2478.22 493.309931,2478.22 C491.869931,2478.22 490.509931,2477.62 489.729931,2476.58 L489.729931,2481.6 L488.189931,2481.6 L488.189931,2468.26 L489.629931,2468.26 L489.629931,2469.82 C490.389931,2468.7 491.769931,2468.04 493.309931,2468.04 Z M493.089931,2476.8 C495.069931,2476.8 496.549931,2475.26 496.549931,2473.14 C496.549931,2471.02 495.089931,2469.46 493.089931,2469.46 C491.409931,2469.46 489.709931,2470.56 489.709931,2473.12 C489.709931,2475.68 491.389931,2476.8 493.089931,2476.8 Z M505.265625,2468.18 C505.585625,2468.18 505.785625,2468.22 505.985625,2468.26 L505.985625,2469.62 L505.405625,2469.62 C503.825625,2469.62 502.345625,2470.62 502.345625,2472.48 L502.345625,2478 L500.805625,2478 L500.805625,2468.26 L502.245625,2468.26 L502.245625,2469.66 C502.965625,2468.7 504.105625,2468.18 505.265625,2468.18 Z M512.221319,2468.04 C515.041319,2468.04 517.321319,2470.26 517.321319,2473.12 C517.321319,2475.96 515.041319,2478.2 512.201319,2478.2 C509.381319,2478.18 507.121319,2475.98 507.121319,2473.12 C507.121319,2470.26 509.361319,2468.04 512.221319,2468.04 Z M512.221319,2469.46 C510.181319,2469.46 508.681319,2471.06 508.701319,2473.14 C508.701319,2475.2 510.181319,2476.78 512.201319,2476.78 C514.221319,2476.78 515.741319,2475.18 515.741319,2473.14 C515.741319,2471.04 514.221319,2469.46 512.221319,2469.46 Z M520.777014,2463.42 C521.397014,2463.42 521.917014,2463.92 521.917014,2464.54 C521.917014,2465.18 521.397014,2465.66 520.777014,2465.66 C520.117014,2465.66 519.617014,2465.18 519.617014,2464.54 C519.617014,2463.92 520.117014,2463.42 520.777014,2463.42 Z M521.537014,2468.26 L521.537014,2478.66 C521.537014,2480.88 520.197014,2481.82 518.337014,2481.82 C517.837014,2481.82 517.457014,2481.76 517.097014,2481.66 L517.097014,2480.36 C517.437014,2480.4 517.677014,2480.42 517.997014,2480.42 C519.177014,2480.42 519.997014,2480 519.997014,2478.56 L519.997014,2468.26 L521.537014,2468.26 Z M533.612708,2472.44 C533.612708,2472.96 533.532708,2473.42 533.492708,2473.6 L525.812708,2473.6 C526.012708,2475.54 527.452708,2476.8 529.372708,2476.8 C530.592708,2476.8 531.552708,2476.28 532.352708,2475.48 L533.252708,2476.52 C532.272708,2477.56 530.952708,2478.22 529.352708,2478.22 C526.412708,2478.22 524.192708,2476 524.192708,2473.14 C524.192708,2470.3 526.372708,2468.04 529.172708,2468.04 C531.672708,2468.04 533.612708,2469.84 533.612708,2472.44 Z M529.132708,2469.44 C527.492708,2469.44 526.192708,2470.56 525.872708,2472.24 L532.032708,2472.24 C532.012708,2470.44 530.692708,2469.44 529.132708,2469.44 Z M540.688403,2468.04 C542.448403,2468.04 543.848403,2468.88 544.708403,2470.16 L543.608403,2471.04 C542.888403,2470.08 541.968403,2469.46 540.708403,2469.46 C538.668403,2469.46 537.168403,2471.08 537.168403,2473.12 C537.168403,2475.18 538.668403,2476.8 540.708403,2476.8 C541.948403,2476.8 542.868403,2476.2 543.588403,2475.24 L544.688403,2476.1 C543.828403,2477.38 542.428403,2478.22 540.688403,2478.22 C537.848403,2478.22 535.588403,2475.98 535.588403,2473.12 C535.588403,2470.28 537.848403,2468.04 540.688403,2468.04 Z M551.304097,2476.82 C551.684097,2476.82 552.104097,2476.78 552.604097,2476.7 L552.604097,2478 C552.104097,2478.12 551.604097,2478.22 550.984097,2478.22 C549.064097,2478.22 547.704097,2477.28 547.704097,2475.06 L547.704097,2469.64 L546.064097,2469.64 L546.064097,2468.26 L547.704097,2468.26 L547.704097,2465.6 L549.244097,2465.6 L549.244097,2468.26 L552.284097,2468.26 L552.284097,2469.64 L549.244097,2469.64 L549.244097,2474.96 C549.244097,2476.42 550.084097,2476.82 551.304097,2476.82 Z M564.915486,2468.04 C567.195486,2468.04 568.515486,2469.62 568.515486,2471.88 L568.515486,2478 L566.975486,2478 L566.975486,2472.08 C566.975486,2470.54 566.055486,2469.46 564.555486,2469.46 C563.055486,2469.46 561.995486,2470.56 561.995486,2472.08 L561.995486,2478 L560.455486,2478 L560.455486,2463 L561.995486,2463 L561.995486,2469.36 C562.635486,2468.54 563.655486,2468.04 564.915486,2468.04 Z M575.251181,2468.04 C577.471181,2468.04 579.051181,2469.38 579.051181,2472 L579.051181,2478 L577.611181,2478 L577.611181,2476.74 C576.911181,2477.68 575.771181,2478.22 574.331181,2478.22 C572.371181,2478.22 570.931181,2477.18 570.931181,2475.48 C570.931181,2473.84 572.311181,2472.76 574.431181,2472.76 L577.511181,2472.76 L577.511181,2471.92 C577.511181,2470.28 576.591181,2469.46 575.151181,2469.46 C573.931181,2469.46 573.071181,2470.04 572.311181,2471.02 L571.291181,2470.18 C572.211181,2468.7 573.691181,2468.04 575.251181,2468.04 Z M574.531181,2476.94 C576.131181,2476.94 577.511181,2475.78 577.511181,2474.26 L577.511181,2474.02 L574.611181,2474.02 C573.251181,2474.02 572.511181,2474.48 572.511181,2475.4 C572.511181,2476.44 573.451181,2476.94 574.531181,2476.94 Z M585.226875,2468.04 C586.626875,2468.04 587.726875,2468.64 588.486875,2469.58 L587.546875,2470.54 C586.906875,2469.88 586.066875,2469.46 585.146875,2469.46 C584.226875,2469.46 583.526875,2469.88 583.526875,2470.68 C583.526875,2471.34 584.026875,2471.66 585.106875,2472.1 L586.006875,2472.48 C587.766875,2473.22 588.586875,2473.98 588.586875,2475.36 C588.586875,2477.26 586.966875,2478.22 585.166875,2478.22 C583.446875,2478.22 582.146875,2477.36 581.366875,2476.32 L582.346875,2475.3 C583.146875,2476.14 583.966875,2476.8 585.146875,2476.8 C586.166875,2476.8 587.006875,2476.3 587.006875,2475.42 C587.006875,2474.58 586.286875,2474.26 585.306875,2473.86 L584.366875,2473.46 C582.886875,2472.84 581.946875,2472.16 581.946875,2470.76 C581.946875,2469 583.446875,2468.04 585.226875,2468.04 Z M602.038264,2468.04 C604.818264,2468.04 606.858264,2470.26 606.858264,2473.14 C606.858264,2476 604.838264,2478.22 602.058264,2478.22 C600.538264,2478.22 599.118264,2477.56 598.358264,2476.44 L598.358264,2478 L596.918264,2478 L596.918264,2463 L598.458264,2463 L598.458264,2469.7 C599.218264,2468.68 600.558264,2468.04 602.038264,2468.04 Z M601.818264,2476.8 C603.818264,2476.8 605.278264,2475.24 605.278264,2473.12 C605.278264,2471 603.798264,2469.46 601.818264,2469.46 C600.118264,2469.46 598.438264,2470.58 598.438264,2473.14 C598.438264,2475.7 600.138264,2476.8 601.818264,2476.8 Z M618.253958,2472.44 C618.253958,2472.96 618.173958,2473.42 618.133958,2473.6 L610.453958,2473.6 C610.653958,2475.54 612.093958,2476.8 614.013958,2476.8 C615.233958,2476.8 616.193958,2476.28 616.993958,2475.48 L617.893958,2476.52 C616.913958,2477.56 615.593958,2478.22 613.993958,2478.22 C611.053958,2478.22 608.833958,2476 608.833958,2473.14 C608.833958,2470.3 611.013958,2468.04 613.813958,2468.04 C616.313958,2468.04 618.253958,2469.84 618.253958,2472.44 Z M613.773958,2469.44 C612.133958,2469.44 610.833958,2470.56 610.513958,2472.24 L616.673958,2472.24 C616.653958,2470.44 615.333958,2469.44 613.773958,2469.44 Z M629.649653,2472.44 C629.649653,2472.96 629.569653,2473.42 629.529653,2473.6 L621.849653,2473.6 C622.049653,2475.54 623.489653,2476.8 625.409653,2476.8 C626.629653,2476.8 627.589653,2476.28 628.389653,2475.48 L629.289653,2476.52 C628.309653,2477.56 626.989653,2478.22 625.389653,2478.22 C622.449653,2478.22 620.229653,2476 620.229653,2473.14 C620.229653,2470.3 622.409653,2468.04 625.209653,2468.04 C627.709653,2468.04 629.649653,2469.84 629.649653,2472.44 Z M625.169653,2469.44 C623.529653,2469.44 622.229653,2470.56 621.909653,2472.24 L628.069653,2472.24 C628.049653,2470.44 626.729653,2469.44 625.169653,2469.44 Z M636.765347,2468.04 C639.065347,2468.04 640.385347,2469.62 640.385347,2471.88 L640.385347,2478 L638.845347,2478 L638.845347,2472.06 C638.845347,2470.52 637.925347,2469.46 636.425347,2469.46 C634.925347,2469.46 633.865347,2470.54 633.865347,2472.06 L633.865347,2478 L632.325347,2478 L632.325347,2468.26 L633.765347,2468.26 L633.765347,2469.32 C634.445347,2468.52 635.505347,2468.04 636.765347,2468.04 Z M652.696736,2468.04 C654.916736,2468.04 656.496736,2469.38 656.496736,2472 L656.496736,2478 L655.056736,2478 L655.056736,2476.74 C654.356736,2477.68 653.216736,2478.22 651.776736,2478.22 C649.816736,2478.22 648.376736,2477.18 648.376736,2475.48 C648.376736,2473.84 649.756736,2472.76 651.876736,2472.76 L654.956736,2472.76 L654.956736,2471.92 C654.956736,2470.28 654.036736,2469.46 652.596736,2469.46 C651.376736,2469.46 650.516736,2470.04 649.756736,2471.02 L648.736736,2470.18 C649.656736,2468.7 651.136736,2468.04 652.696736,2468.04 Z M651.976736,2476.94 C653.576736,2476.94 654.956736,2475.78 654.956736,2474.26 L654.956736,2474.02 L652.056736,2474.02 C650.696736,2474.02 649.956736,2474.48 649.956736,2475.4 C649.956736,2476.44 650.896736,2476.94 651.976736,2476.94 Z M664.192431,2468.18 C664.512431,2468.18 664.712431,2468.22 664.912431,2468.26 L664.912431,2469.62 L664.332431,2469.62 C662.752431,2469.62 661.272431,2470.62 661.272431,2472.48 L661.272431,2478 L659.732431,2478 L659.732431,2468.26 L661.172431,2468.26 L661.172431,2469.66 C661.892431,2468.7 663.032431,2468.18 664.192431,2468.18 Z M671.148125,2468.04 C672.908125,2468.04 674.308125,2468.88 675.168125,2470.16 L674.068125,2471.04 C673.348125,2470.08 672.428125,2469.46 671.168125,2469.46 C669.128125,2469.46 667.628125,2471.08 667.628125,2473.12 C667.628125,2475.18 669.128125,2476.8 671.168125,2476.8 C672.408125,2476.8 673.328125,2476.2 674.048125,2475.24 L675.148125,2476.1 C674.288125,2477.38 672.888125,2478.22 671.148125,2478.22 C668.308125,2478.22 666.048125,2475.98 666.048125,2473.12 C666.048125,2470.28 668.308125,2468.04 671.148125,2468.04 Z M682.203819,2468.04 C684.483819,2468.04 685.803819,2469.62 685.803819,2471.88 L685.803819,2478 L684.263819,2478 L684.263819,2472.08 C684.263819,2470.54 683.343819,2469.46 681.843819,2469.46 C680.343819,2469.46 679.283819,2470.56 679.283819,2472.08 L679.283819,2478 L677.743819,2478 L677.743819,2463 L679.283819,2463 L679.283819,2469.36 C679.923819,2468.54 680.943819,2468.04 682.203819,2468.04 Z M689.819514,2463.42 C690.439514,2463.42 690.959514,2463.92 690.959514,2464.54 C690.959514,2465.18 690.439514,2465.66 689.819514,2465.66 C689.159514,2465.66 688.659514,2465.18 688.659514,2464.54 C688.659514,2463.92 689.159514,2463.42 689.819514,2463.42 Z M690.579514,2468.26 L690.579514,2478 L689.039514,2478 L689.039514,2468.26 L690.579514,2468.26 Z M700.855208,2468.26 L702.495208,2468.26 L697.915208,2478.22 L697.355208,2478.22 L692.755208,2468.26 L694.395208,2468.26 L697.635208,2475.6 L700.855208,2468.26 Z M713.010903,2472.44 C713.010903,2472.96 712.930903,2473.42 712.890903,2473.6 L705.210903,2473.6 C705.410903,2475.54 706.850903,2476.8 708.770903,2476.8 C709.990903,2476.8 710.950903,2476.28 711.750903,2475.48 L712.650903,2476.52 C711.670903,2477.56 710.350903,2478.22 708.750903,2478.22 C705.810903,2478.22 703.590903,2476 703.590903,2473.14 C703.590903,2470.3 705.770903,2468.04 708.570903,2468.04 C711.070903,2468.04 713.010903,2469.84 713.010903,2472.44 Z M708.530903,2469.44 C706.890903,2469.44 705.590903,2470.56 705.270903,2472.24 L711.430903,2472.24 C711.410903,2470.44 710.090903,2469.44 708.530903,2469.44 Z M723.406597,2463 L724.946597,2463 L724.946597,2478 L723.486597,2478 L723.486597,2476.44 C722.726597,2477.56 721.346597,2478.22 719.806597,2478.22 C717.026597,2478.22 714.986597,2476 714.986597,2473.14 C714.986597,2470.26 717.026597,2468.04 719.806597,2468.04 C721.286597,2468.04 722.626597,2468.66 723.406597,2469.7 L723.406597,2463 Z M720.026597,2476.8 C721.706597,2476.8 723.426597,2475.7 723.426597,2473.14 C723.426597,2470.58 721.706597,2469.46 720.026597,2469.46 C718.046597,2469.46 716.566597,2471 716.566597,2473.12 C716.566597,2475.24 718.026597,2476.8 720.026597,2476.8 Z M738.277986,2468.04 C741.097986,2468.04 743.377986,2470.26 743.377986,2473.12 C743.377986,2475.96 741.097986,2478.2 738.257986,2478.2 C735.437986,2478.18 733.177986,2475.98 733.177986,2473.12 C733.177986,2470.26 735.417986,2468.04 738.277986,2468.04 Z M738.277986,2469.46 C736.237986,2469.46 734.737986,2471.06 734.757986,2473.14 C734.757986,2475.2 736.237986,2476.78 738.257986,2476.78 C740.277986,2476.78 741.797986,2475.18 741.797986,2473.14 C741.797986,2471.04 740.277986,2469.46 738.277986,2469.46 Z M749.873681,2464.18 C748.673681,2464.18 747.833681,2464.58 747.833681,2466.04 L747.833681,2468.26 L750.273681,2468.26 L750.273681,2469.64 L747.833681,2469.64 L747.833681,2478 L746.293681,2478 L746.293681,2469.64 L744.893681,2469.64 L744.893681,2468.26 L746.293681,2468.26 L746.293681,2465.94 C746.293681,2463.72 747.633681,2462.78 749.513681,2462.78 C749.993681,2462.78 750.373681,2462.84 750.733681,2462.94 L750.733681,2464.24 C750.413681,2464.2 750.133681,2464.18 749.873681,2464.18 Z M755.309375,2464.18 C754.109375,2464.18 753.269375,2464.58 753.269375,2466.04 L753.269375,2468.26 L755.709375,2468.26 L755.709375,2469.64 L753.269375,2469.64 L753.269375,2478 L751.729375,2478 L751.729375,2469.64 L750.329375,2469.64 L750.329375,2468.26 L751.729375,2468.26 L751.729375,2465.94 C751.729375,2463.72 753.069375,2462.78 754.949375,2462.78 C755.429375,2462.78 755.809375,2462.84 756.169375,2462.94 L756.169375,2464.24 C755.849375,2464.2 755.569375,2464.18 755.309375,2464.18 Z M759.365069,2463 L759.365069,2478 L757.825069,2478 L757.825069,2463 L759.365069,2463 Z M763.500764,2463.42 C764.120764,2463.42 764.640764,2463.92 764.640764,2464.54 C764.640764,2465.18 764.120764,2465.66 763.500764,2465.66 C762.840764,2465.66 762.340764,2465.18 762.340764,2464.54 C762.340764,2463.92 762.840764,2463.42 763.500764,2463.42 Z M764.260764,2468.26 L764.260764,2478 L762.720764,2478 L762.720764,2468.26 L764.260764,2468.26 Z M772.056458,2468.04 C774.356458,2468.04 775.676458,2469.62 775.676458,2471.88 L775.676458,2478 L774.136458,2478 L774.136458,2472.06 C774.136458,2470.52 773.216458,2469.46 771.716458,2469.46 C770.216458,2469.46 769.156458,2470.54 769.156458,2472.06 L769.156458,2478 L767.616458,2478 L767.616458,2468.26 L769.056458,2468.26 L769.056458,2469.32 C769.736458,2468.52 770.796458,2468.04 772.056458,2468.04 Z M787.632153,2472.44 C787.632153,2472.96 787.552153,2473.42 787.512153,2473.6 L779.832153,2473.6 C780.032153,2475.54 781.472153,2476.8 783.392153,2476.8 C784.612153,2476.8 785.572153,2476.28 786.372153,2475.48 L787.272153,2476.52 C786.292153,2477.56 784.972153,2478.22 783.372153,2478.22 C780.432153,2478.22 778.212153,2476 778.212153,2473.14 C778.212153,2470.3 780.392153,2468.04 783.192153,2468.04 C785.692153,2468.04 787.632153,2469.84 787.632153,2472.44 Z M783.152153,2469.44 C781.512153,2469.44 780.212153,2470.56 779.892153,2472.24 L786.052153,2472.24 C786.032153,2470.44 784.712153,2469.44 783.152153,2469.44 Z M799.383542,2468.04 C801.603542,2468.04 803.183542,2469.38 803.183542,2472 L803.183542,2478 L801.743542,2478 L801.743542,2476.74 C801.043542,2477.68 799.903542,2478.22 798.463542,2478.22 C796.503542,2478.22 795.063542,2477.18 795.063542,2475.48 C795.063542,2473.84 796.443542,2472.76 798.563542,2472.76 L801.643542,2472.76 L801.643542,2471.92 C801.643542,2470.28 800.723542,2469.46 799.283542,2469.46 C798.063542,2469.46 797.203542,2470.04 796.443542,2471.02 L795.423542,2470.18 C796.343542,2468.7 797.823542,2468.04 799.383542,2468.04 Z M798.663542,2476.94 C800.263542,2476.94 801.643542,2475.78 801.643542,2474.26 L801.643542,2474.02 L798.743542,2474.02 C797.383542,2474.02 796.643542,2474.48 796.643542,2475.4 C796.643542,2476.44 797.583542,2476.94 798.663542,2476.94 Z M809.359236,2468.04 C810.759236,2468.04 811.859236,2468.64 812.619236,2469.58 L811.679236,2470.54 C811.039236,2469.88 810.199236,2469.46 809.279236,2469.46 C808.359236,2469.46 807.659236,2469.88 807.659236,2470.68 C807.659236,2471.34 808.159236,2471.66 809.239236,2472.1 L810.139236,2472.48 C811.899236,2473.22 812.719236,2473.98 812.719236,2475.36 C812.719236,2477.26 811.099236,2478.22 809.299236,2478.22 C807.579236,2478.22 806.279236,2477.36 805.499236,2476.32 L806.479236,2475.3 C807.279236,2476.14 808.099236,2476.8 809.279236,2476.8 C810.299236,2476.8 811.139236,2476.3 811.139236,2475.42 C811.139236,2474.58 810.419236,2474.26 809.439236,2473.86 L808.499236,2473.46 C807.019236,2472.84 806.079236,2472.16 806.079236,2470.76 C806.079236,2469 807.579236,2468.04 809.359236,2468.04 Z M825.070625,2476.82 C825.450625,2476.82 825.870625,2476.78 826.370625,2476.7 L826.370625,2478 C825.870625,2478.12 825.370625,2478.22 824.750625,2478.22 C822.830625,2478.22 821.470625,2477.28 821.470625,2475.06 L821.470625,2469.64 L819.830625,2469.64 L819.830625,2468.26 L821.470625,2468.26 L821.470625,2465.6 L823.010625,2465.6 L823.010625,2468.26 L826.050625,2468.26 L826.050625,2469.64 L823.010625,2469.64 L823.010625,2474.96 C823.010625,2476.42 823.850625,2476.82 825.070625,2476.82 Z M833.106319,2468.04 C835.386319,2468.04 836.706319,2469.62 836.706319,2471.88 L836.706319,2478 L835.166319,2478 L835.166319,2472.08 C835.166319,2470.54 834.246319,2469.46 832.746319,2469.46 C831.246319,2469.46 830.186319,2470.56 830.186319,2472.08 L830.186319,2478 L828.646319,2478 L828.646319,2463 L830.186319,2463 L830.186319,2469.36 C830.826319,2468.54 831.846319,2468.04 833.106319,2468.04 Z M848.662014,2472.44 C848.662014,2472.96 848.582014,2473.42 848.542014,2473.6 L840.862014,2473.6 C841.062014,2475.54 842.502014,2476.8 844.422014,2476.8 C845.642014,2476.8 846.602014,2476.28 847.402014,2475.48 L848.302014,2476.52 C847.322014,2477.56 846.002014,2478.22 844.402014,2478.22 C841.462014,2478.22 839.242014,2476 839.242014,2473.14 C839.242014,2470.3 841.422014,2468.04 844.222014,2468.04 C846.722014,2468.04 848.662014,2469.84 848.662014,2472.44 Z M844.182014,2469.44 C842.542014,2469.44 841.242014,2470.56 840.922014,2472.24 L847.082014,2472.24 C847.062014,2470.44 845.742014,2469.44 844.182014,2469.44 Z M864.633403,2463 L866.173403,2463 L866.173403,2478 L864.713403,2478 L864.713403,2476.44 C863.953403,2477.56 862.573403,2478.22 861.033403,2478.22 C858.253403,2478.22 856.213403,2476 856.213403,2473.14 C856.213403,2470.26 858.253403,2468.04 861.033403,2468.04 C862.513403,2468.04 863.853403,2468.66 864.633403,2469.7 L864.633403,2463 Z M861.253403,2476.8 C862.933403,2476.8 864.653403,2475.7 864.653403,2473.14 C864.653403,2470.58 862.933403,2469.46 861.253403,2469.46 C859.273403,2469.46 857.793403,2471 857.793403,2473.12 C857.793403,2475.24 859.253403,2476.8 861.253403,2476.8 Z M878.249097,2472.44 C878.249097,2472.96 878.169097,2473.42 878.129097,2473.6 L870.449097,2473.6 C870.649097,2475.54 872.089097,2476.8 874.009097,2476.8 C875.229097,2476.8 876.189097,2476.28 876.989097,2475.48 L877.889097,2476.52 C876.909097,2477.56 875.589097,2478.22 873.989097,2478.22 C871.049097,2478.22 868.829097,2476 868.829097,2473.14 C868.829097,2470.3 871.009097,2468.04 873.809097,2468.04 C876.309097,2468.04 878.249097,2469.84 878.249097,2472.44 Z M873.769097,2469.44 C872.129097,2469.44 870.829097,2470.56 870.509097,2472.24 L876.669097,2472.24 C876.649097,2470.44 875.329097,2469.44 873.769097,2469.44 Z M883.864792,2468.04 C885.264792,2468.04 886.364792,2468.64 887.124792,2469.58 L886.184792,2470.54 C885.544792,2469.88 884.704792,2469.46 883.784792,2469.46 C882.864792,2469.46 882.164792,2469.88 882.164792,2470.68 C882.164792,2471.34 882.664792,2471.66 883.744792,2472.1 L884.644792,2472.48 C886.404792,2473.22 887.224792,2473.98 887.224792,2475.36 C887.224792,2477.26 885.604792,2478.22 883.804792,2478.22 C882.084792,2478.22 880.784792,2477.36 880.004792,2476.32 L880.984792,2475.3 C881.784792,2476.14 882.604792,2476.8 883.784792,2476.8 C884.804792,2476.8 885.644792,2476.3 885.644792,2475.42 C885.644792,2474.58 884.924792,2474.26 883.944792,2473.86 L883.004792,2473.46 C881.524792,2472.84 880.584792,2472.16 880.584792,2470.76 C880.584792,2469 882.084792,2468.04 883.864792,2468.04 Z M890.760486,2463.42 C891.380486,2463.42 891.900486,2463.92 891.900486,2464.54 C891.900486,2465.18 891.380486,2465.66 890.760486,2465.66 C890.100486,2465.66 889.600486,2465.18 889.600486,2464.54 C889.600486,2463.92 890.100486,2463.42 890.760486,2463.42 Z M891.520486,2468.26 L891.520486,2478 L889.980486,2478 L889.980486,2468.26 L891.520486,2468.26 Z M902.776181,2468.26 L904.236181,2468.26 L904.236181,2477.06 C904.236181,2480.06 902.336181,2481.82 899.496181,2481.82 C897.456181,2481.82 895.876181,2480.9 894.916181,2479.94 L895.816181,2478.86 C896.756181,2479.68 897.856181,2480.4 899.456181,2480.4 C901.436181,2480.4 902.696181,2479.3 902.696181,2477.14 L902.696181,2476.28 C901.896181,2477.3 900.536181,2477.9 899.076181,2477.9 C896.336181,2477.9 894.296181,2475.82 894.296181,2472.98 C894.296181,2470.16 896.336181,2468.04 899.076181,2468.04 C900.616181,2468.04 902.016181,2468.72 902.776181,2469.84 L902.776181,2468.26 Z M899.316181,2476.48 C901.016181,2476.48 902.716181,2475.42 902.716181,2472.98 C902.716181,2470.54 900.996181,2469.5 899.316181,2469.5 C897.336181,2469.5 895.856181,2470.94 895.856181,2473 C895.856181,2475.06 897.336181,2476.48 899.316181,2476.48 Z M912.031875,2468.04 C914.331875,2468.04 915.651875,2469.62 915.651875,2471.88 L915.651875,2478 L914.111875,2478 L914.111875,2472.06 C914.111875,2470.52 913.191875,2469.46 911.691875,2469.46 C910.191875,2469.46 909.131875,2470.54 909.131875,2472.06 L909.131875,2478 L907.591875,2478 L907.591875,2468.26 L909.031875,2468.26 L909.031875,2469.32 C909.711875,2468.52 910.771875,2468.04 912.031875,2468.04 Z M927.607569,2472.44 C927.607569,2472.96 927.527569,2473.42 927.487569,2473.6 L919.807569,2473.6 C920.007569,2475.54 921.447569,2476.8 923.367569,2476.8 C924.587569,2476.8 925.547569,2476.28 926.347569,2475.48 L927.247569,2476.52 C926.267569,2477.56 924.947569,2478.22 923.347569,2478.22 C920.407569,2478.22 918.187569,2476 918.187569,2473.14 C918.187569,2470.3 920.367569,2468.04 923.167569,2468.04 C925.667569,2468.04 927.607569,2469.84 927.607569,2472.44 Z M923.127569,2469.44 C921.487569,2469.44 920.187569,2470.56 919.867569,2472.24 L926.027569,2472.24 C926.007569,2470.44 924.687569,2469.44 923.127569,2469.44 Z M934.743264,2468.18 C935.063264,2468.18 935.263264,2468.22 935.463264,2468.26 L935.463264,2469.62 L934.883264,2469.62 C933.303264,2469.62 931.823264,2470.62 931.823264,2472.48 L931.823264,2478 L930.283264,2478 L930.283264,2468.26 L931.723264,2468.26 L931.723264,2469.66 C932.443264,2468.7 933.583264,2468.18 934.743264,2468.18 Z M947.534653,2468.18 C947.854653,2468.18 948.054653,2468.22 948.254653,2468.26 L948.254653,2469.62 L947.674653,2469.62 C946.094653,2469.62 944.614653,2470.62 944.614653,2472.48 L944.614653,2478 L943.074653,2478 L943.074653,2468.26 L944.514653,2468.26 L944.514653,2469.66 C945.234653,2468.7 946.374653,2468.18 947.534653,2468.18 Z M958.810347,2472.44 C958.810347,2472.96 958.730347,2473.42 958.690347,2473.6 L951.010347,2473.6 C951.210347,2475.54 952.650347,2476.8 954.570347,2476.8 C955.790347,2476.8 956.750347,2476.28 957.550347,2475.48 L958.450347,2476.52 C957.470347,2477.56 956.150347,2478.22 954.550347,2478.22 C951.610347,2478.22 949.390347,2476 949.390347,2473.14 C949.390347,2470.3 951.570347,2468.04 954.370347,2468.04 C956.870347,2468.04 958.810347,2469.84 958.810347,2472.44 Z M954.330347,2469.44 C952.690347,2469.44 951.390347,2470.56 951.070347,2472.24 L957.230347,2472.24 C957.210347,2470.44 955.890347,2469.44 954.330347,2469.44 Z M969.206042,2463 L970.746042,2463 L970.746042,2478 L969.286042,2478 L969.286042,2476.44 C968.526042,2477.56 967.146042,2478.22 965.606042,2478.22 C962.826042,2478.22 960.786042,2476 960.786042,2473.14 C960.786042,2470.26 962.826042,2468.04 965.606042,2468.04 C967.086042,2468.04 968.426042,2468.66 969.206042,2469.7 L969.206042,2463 Z M965.826042,2476.8 C967.506042,2476.8 969.226042,2475.7 969.226042,2473.14 C969.226042,2470.58 967.506042,2469.46 965.826042,2469.46 C963.846042,2469.46 962.366042,2471 962.366042,2473.12 C962.366042,2475.24 963.826042,2476.8 965.826042,2476.8 Z M982.821736,2472.44 C982.821736,2472.96 982.741736,2473.42 982.701736,2473.6 L975.021736,2473.6 C975.221736,2475.54 976.661736,2476.8 978.581736,2476.8 C979.801736,2476.8 980.761736,2476.28 981.561736,2475.48 L982.461736,2476.52 C981.481736,2477.56 980.161736,2478.22 978.561736,2478.22 C975.621736,2478.22 973.401736,2476 973.401736,2473.14 C973.401736,2470.3 975.581736,2468.04 978.381736,2468.04 C980.881736,2468.04 982.821736,2469.84 982.821736,2472.44 Z M978.341736,2469.44 C976.701736,2469.44 975.401736,2470.56 975.081736,2472.24 L981.241736,2472.24 C981.221736,2470.44 979.901736,2469.44 978.341736,2469.44 Z M988.437431,2468.04 C989.837431,2468.04 990.937431,2468.64 991.697431,2469.58 L990.757431,2470.54 C990.117431,2469.88 989.277431,2469.46 988.357431,2469.46 C987.437431,2469.46 986.737431,2469.88 986.737431,2470.68 C986.737431,2471.34 987.237431,2471.66 988.317431,2472.1 L989.217431,2472.48 C990.977431,2473.22 991.797431,2473.98 991.797431,2475.36 C991.797431,2477.26 990.177431,2478.22 988.377431,2478.22 C986.657431,2478.22 985.357431,2477.36 984.577431,2476.32 L985.557431,2475.3 C986.357431,2476.14 987.177431,2476.8 988.357431,2476.8 C989.377431,2476.8 990.217431,2476.3 990.217431,2475.42 C990.217431,2474.58 989.497431,2474.26 988.517431,2473.86 L987.577431,2473.46 C986.097431,2472.84 985.157431,2472.16 985.157431,2470.76 C985.157431,2469 986.657431,2468.04 988.437431,2468.04 Z M995.333125,2463.42 C995.953125,2463.42 996.473125,2463.92 996.473125,2464.54 C996.473125,2465.18 995.953125,2465.66 995.333125,2465.66 C994.673125,2465.66 994.173125,2465.18 994.173125,2464.54 C994.173125,2463.92 994.673125,2463.42 995.333125,2463.42 Z M996.093125,2468.26 L996.093125,2478 L994.553125,2478 L994.553125,2468.26 L996.093125,2468.26 Z M1007.34882,2468.26 L1008.80882,2468.26 L1008.80882,2477.06 C1008.80882,2480.06 1006.90882,2481.82 1004.06882,2481.82 C1002.02882,2481.82 1000.44882,2480.9 999.488819,2479.94 L1000.38882,2478.86 C1001.32882,2479.68 1002.42882,2480.4 1004.02882,2480.4 C1006.00882,2480.4 1007.26882,2479.3 1007.26882,2477.14 L1007.26882,2476.28 C1006.46882,2477.3 1005.10882,2477.9 1003.64882,2477.9 C1000.90882,2477.9 998.868819,2475.82 998.868819,2472.98 C998.868819,2470.16 1000.90882,2468.04 1003.64882,2468.04 C1005.18882,2468.04 1006.58882,2468.72 1007.34882,2469.84 L1007.34882,2468.26 Z M1003.88882,2476.48 C1005.58882,2476.48 1007.28882,2475.42 1007.28882,2472.98 C1007.28882,2470.54 1005.56882,2469.5 1003.88882,2469.5 C1001.90882,2469.5 1000.42882,2470.94 1000.42882,2473 C1000.42882,2475.06 1001.90882,2476.48 1003.88882,2476.48 Z M1016.60451,2468.04 C1018.90451,2468.04 1020.22451,2469.62 1020.22451,2471.88 L1020.22451,2478 L1018.68451,2478 L1018.68451,2472.06 C1018.68451,2470.52 1017.76451,2469.46 1016.26451,2469.46 C1014.76451,2469.46 1013.70451,2470.54 1013.70451,2472.06 L1013.70451,2478 L1012.16451,2478 L1012.16451,2468.26 L1013.60451,2468.26 L1013.60451,2469.32 C1014.28451,2468.52 1015.34451,2468.04 1016.60451,2468.04 Z M1032.18021,2472.44 C1032.18021,2472.96 1032.10021,2473.42 1032.06021,2473.6 L1024.38021,2473.6 C1024.58021,2475.54 1026.02021,2476.8 1027.94021,2476.8 C1029.16021,2476.8 1030.12021,2476.28 1030.92021,2475.48 L1031.82021,2476.52 C1030.84021,2477.56 1029.52021,2478.22 1027.92021,2478.22 C1024.98021,2478.22 1022.76021,2476 1022.76021,2473.14 C1022.76021,2470.3 1024.94021,2468.04 1027.74021,2468.04 C1030.24021,2468.04 1032.18021,2469.84 1032.18021,2472.44 Z M1027.70021,2469.44 C1026.06021,2469.44 1024.76021,2470.56 1024.44021,2472.24 L1030.60021,2472.24 C1030.58021,2470.44 1029.26021,2469.44 1027.70021,2469.44 Z M1042.5759,2463 L1044.1159,2463 L1044.1159,2478 L1042.6559,2478 L1042.6559,2476.44 C1041.8959,2477.56 1040.5159,2478.22 1038.9759,2478.22 C1036.1959,2478.22 1034.1559,2476 1034.1559,2473.14 C1034.1559,2470.26 1036.1959,2468.04 1038.9759,2468.04 C1040.4559,2468.04 1041.7959,2468.66 1042.5759,2469.7 L1042.5759,2463 Z M1039.1959,2476.8 C1040.8759,2476.8 1042.5959,2475.7 1042.5959,2473.14 C1042.5959,2470.58 1040.8759,2469.46 1039.1959,2469.46 C1037.2159,2469.46 1035.7359,2471 1035.7359,2473.12 C1035.7359,2475.24 1037.1959,2476.8 1039.1959,2476.8 Z M1057.06729,2476.82 C1057.44729,2476.82 1057.86729,2476.78 1058.36729,2476.7 L1058.36729,2478 C1057.86729,2478.12 1057.36729,2478.22 1056.74729,2478.22 C1054.82729,2478.22 1053.46729,2477.28 1053.46729,2475.06 L1053.46729,2469.64 L1051.82729,2469.64 L1051.82729,2468.26 L1053.46729,2468.26 L1053.46729,2465.6 L1055.00729,2465.6 L1055.00729,2468.26 L1058.04729,2468.26 L1058.04729,2469.64 L1055.00729,2469.64 L1055.00729,2474.96 C1055.00729,2476.42 1055.84729,2476.82 1057.06729,2476.82 Z M1065.10299,2468.04 C1067.38299,2468.04 1068.70299,2469.62 1068.70299,2471.88 L1068.70299,2478 L1067.16299,2478 L1067.16299,2472.08 C1067.16299,2470.54 1066.24299,2469.46 1064.74299,2469.46 C1063.24299,2469.46 1062.18299,2470.56 1062.18299,2472.08 L1062.18299,2478 L1060.64299,2478 L1060.64299,2463 L1062.18299,2463 L1062.18299,2469.36 C1062.82299,2468.54 1063.84299,2468.04 1065.10299,2468.04 Z M1080.65868,2472.44 C1080.65868,2472.96 1080.57868,2473.42 1080.53868,2473.6 L1072.85868,2473.6 C1073.05868,2475.54 1074.49868,2476.8 1076.41868,2476.8 C1077.63868,2476.8 1078.59868,2476.28 1079.39868,2475.48 L1080.29868,2476.52 C1079.31868,2477.56 1077.99868,2478.22 1076.39868,2478.22 C1073.45868,2478.22 1071.23868,2476 1071.23868,2473.14 C1071.23868,2470.3 1073.41868,2468.04 1076.21868,2468.04 C1078.71868,2468.04 1080.65868,2469.84 1080.65868,2472.44 Z M1076.17868,2469.44 C1074.53868,2469.44 1073.23868,2470.56 1072.91868,2472.24 L1079.07868,2472.24 C1079.05868,2470.44 1077.73868,2469.44 1076.17868,2469.44 Z M1091.85007,2468.04 C1093.25007,2468.04 1094.35007,2468.64 1095.11007,2469.58 L1094.17007,2470.54 C1093.53007,2469.88 1092.69007,2469.46 1091.77007,2469.46 C1090.85007,2469.46 1090.15007,2469.88 1090.15007,2470.68 C1090.15007,2471.34 1090.65007,2471.66 1091.73007,2472.1 L1092.63007,2472.48 C1094.39007,2473.22 1095.21007,2473.98 1095.21007,2475.36 C1095.21007,2477.26 1093.59007,2478.22 1091.79007,2478.22 C1090.07007,2478.22 1088.77007,2477.36 1087.99007,2476.32 L1088.97007,2475.3 C1089.77007,2476.14 1090.59007,2476.8 1091.77007,2476.8 C1092.79007,2476.8 1093.63007,2476.3 1093.63007,2475.42 C1093.63007,2474.58 1092.91007,2474.26 1091.93007,2473.86 L1090.99007,2473.46 C1089.51007,2472.84 1088.57007,2472.16 1088.57007,2470.76 C1088.57007,2469 1090.07007,2468.04 1091.85007,2468.04 Z M1098.74576,2463.42 C1099.36576,2463.42 1099.88576,2463.92 1099.88576,2464.54 C1099.88576,2465.18 1099.36576,2465.66 1098.74576,2465.66 C1098.08576,2465.66 1097.58576,2465.18 1097.58576,2464.54 C1097.58576,2463.92 1098.08576,2463.42 1098.74576,2463.42 Z M1099.50576,2468.26 L1099.50576,2478 L1097.96576,2478 L1097.96576,2468.26 L1099.50576,2468.26 Z M1106.88146,2476.82 C1107.26146,2476.82 1107.68146,2476.78 1108.18146,2476.7 L1108.18146,2478 C1107.68146,2478.12 1107.18146,2478.22 1106.56146,2478.22 C1104.64146,2478.22 1103.28146,2477.28 1103.28146,2475.06 L1103.28146,2469.64 L1101.64146,2469.64 L1101.64146,2468.26 L1103.28146,2468.26 L1103.28146,2465.6 L1104.82146,2465.6 L1104.82146,2468.26 L1107.86146,2468.26 L1107.86146,2469.64 L1104.82146,2469.64 L1104.82146,2474.96 C1104.82146,2476.42 1105.66146,2476.82 1106.88146,2476.82 Z M1118.97715,2472.44 C1118.97715,2472.96 1118.89715,2473.42 1118.85715,2473.6 L1111.17715,2473.6 C1111.37715,2475.54 1112.81715,2476.8 1114.73715,2476.8 C1115.95715,2476.8 1116.91715,2476.28 1117.71715,2475.48 L1118.61715,2476.52 C1117.63715,2477.56 1116.31715,2478.22 1114.71715,2478.22 C1111.77715,2478.22 1109.55715,2476 1109.55715,2473.14 C1109.55715,2470.3 1111.73715,2468.04 1114.53715,2468.04 C1117.03715,2468.04 1118.97715,2469.84 1118.97715,2472.44 Z M1114.49715,2469.44 C1112.85715,2469.44 1111.55715,2470.56 1111.23715,2472.24 L1117.39715,2472.24 C1117.37715,2470.44 1116.05715,2469.44 1114.49715,2469.44 Z M1130.72854,2468.04 C1132.94854,2468.04 1134.52854,2469.38 1134.52854,2472 L1134.52854,2478 L1133.08854,2478 L1133.08854,2476.74 C1132.38854,2477.68 1131.24854,2478.22 1129.80854,2478.22 C1127.84854,2478.22 1126.40854,2477.18 1126.40854,2475.48 C1126.40854,2473.84 1127.78854,2472.76 1129.90854,2472.76 L1132.98854,2472.76 L1132.98854,2471.92 C1132.98854,2470.28 1132.06854,2469.46 1130.62854,2469.46 C1129.40854,2469.46 1128.54854,2470.04 1127.78854,2471.02 L1126.76854,2470.18 C1127.68854,2468.7 1129.16854,2468.04 1130.72854,2468.04 Z M1130.00854,2476.94 C1131.60854,2476.94 1132.98854,2475.78 1132.98854,2474.26 L1132.98854,2474.02 L1130.08854,2474.02 C1128.72854,2474.02 1127.98854,2474.48 1127.98854,2475.4 C1127.98854,2476.44 1128.92854,2476.94 1130.00854,2476.94 Z M1145.66424,2468.26 L1147.12424,2468.26 L1147.12424,2477.06 C1147.12424,2480.06 1145.22424,2481.82 1142.38424,2481.82 C1140.34424,2481.82 1138.76424,2480.9 1137.80424,2479.94 L1138.70424,2478.86 C1139.64424,2479.68 1140.74424,2480.4 1142.34424,2480.4 C1144.32424,2480.4 1145.58424,2479.3 1145.58424,2477.14 L1145.58424,2476.28 C1144.78424,2477.3 1143.42424,2477.9 1141.96424,2477.9 C1139.22424,2477.9 1137.18424,2475.82 1137.18424,2472.98 C1137.18424,2470.16 1139.22424,2468.04 1141.96424,2468.04 C1143.50424,2468.04 1144.90424,2468.72 1145.66424,2469.84 L1145.66424,2468.26 Z M1142.20424,2476.48 C1143.90424,2476.48 1145.60424,2475.42 1145.60424,2472.98 C1145.60424,2470.54 1143.88424,2469.5 1142.20424,2469.5 C1140.22424,2469.5 1138.74424,2470.94 1138.74424,2473 C1138.74424,2475.06 1140.22424,2476.48 1142.20424,2476.48 Z M1153.97993,2468.04 C1156.19993,2468.04 1157.77993,2469.38 1157.77993,2472 L1157.77993,2478 L1156.33993,2478 L1156.33993,2476.74 C1155.63993,2477.68 1154.49993,2478.22 1153.05993,2478.22 C1151.09993,2478.22 1149.65993,2477.18 1149.65993,2475.48 C1149.65993,2473.84 1151.03993,2472.76 1153.15993,2472.76 L1156.23993,2472.76 L1156.23993,2471.92 C1156.23993,2470.28 1155.31993,2469.46 1153.87993,2469.46 C1152.65993,2469.46 1151.79993,2470.04 1151.03993,2471.02 L1150.01993,2470.18 C1150.93993,2468.7 1152.41993,2468.04 1153.97993,2468.04 Z M1153.25993,2476.94 C1154.85993,2476.94 1156.23993,2475.78 1156.23993,2474.26 L1156.23993,2474.02 L1153.33993,2474.02 C1151.97993,2474.02 1151.23993,2474.48 1151.23993,2475.4 C1151.23993,2476.44 1152.17993,2476.94 1153.25993,2476.94 Z M1161.79563,2463.42 C1162.41563,2463.42 1162.93563,2463.92 1162.93563,2464.54 C1162.93563,2465.18 1162.41563,2465.66 1161.79563,2465.66 C1161.13563,2465.66 1160.63563,2465.18 1160.63563,2464.54 C1160.63563,2463.92 1161.13563,2463.42 1161.79563,2463.42 Z M1162.55563,2468.26 L1162.55563,2478 L1161.01563,2478 L1161.01563,2468.26 L1162.55563,2468.26 Z M1170.35132,2468.04 C1172.65132,2468.04 1173.97132,2469.62 1173.97132,2471.88 L1173.97132,2478 L1172.43132,2478 L1172.43132,2472.06 C1172.43132,2470.52 1171.51132,2469.46 1170.01132,2469.46 C1168.51132,2469.46 1167.45132,2470.54 1167.45132,2472.06 L1167.45132,2478 L1165.91132,2478 L1165.91132,2468.26 L1167.35132,2468.26 L1167.35132,2469.32 C1168.03132,2468.52 1169.09132,2468.04 1170.35132,2468.04 Z M1178.20701,2475.7 C1178.88701,2475.7 1179.46701,2476.22 1179.46701,2476.96 C1179.46701,2477.7 1178.88701,2478.22 1178.20701,2478.22 C1177.52701,2478.22 1176.94701,2477.7 1176.94701,2476.96 C1176.94701,2476.22 1177.52701,2475.7 1178.20701,2475.7 Z" id="Note:Thisprojecthasbeenarchivedofflineasthedesignerredesignedthesiteagain."></path>
        </g>
    </g>
</svg>