<?xml version="1.0" encoding="UTF-8"?>
<svg width="749px" height="218px" viewBox="0 0 749 218" version="1.1" xmlns="http://www.w3.org/2000/svg" xmlns:xlink="http://www.w3.org/1999/xlink">
    <!-- Generator: Sketch 53.2 (72643) - https://sketchapp.com -->
    <title>ThisprojectfocusedondevelopingaportfoliowebsiteforthetalenteddesignerSanjanaMehra.Sheherselfdesignedthewebsite.</title>
    <desc>Created with Sketch.</desc>
    <g id="Page-1" stroke="none" stroke-width="1" fill="none" fill-rule="evenodd">
        <g id="Desktop-HD-Copy-41" transform="translate(-349.000000, -216.000000)" fill="#404648" fill-rule="nonzero">
            <path d="M375.848,221.32 L375.848,224.68 L364.664,224.68 L364.664,253 L360.92,253 L360.92,224.68 L349.784,224.68 L349.784,221.32 L375.848,221.32 Z M390.284,229.096 C395.756,229.096 398.924,232.888 398.924,238.312 L398.924,253 L395.228,253 L395.228,238.792 C395.228,235.096 393.02,232.504 389.42,232.504 C385.82,232.504 383.276,235.144 383.276,238.792 L383.276,253 L379.58,253 L379.58,217 L383.276,217 L383.276,232.264 C384.812,230.296 387.26,229.096 390.284,229.096 Z M407.36,218.008 C408.848,218.008 410.096,219.208 410.096,220.696 C410.096,222.232 408.848,223.384 407.36,223.384 C405.776,223.384 404.576,222.232 404.576,220.696 C404.576,219.208 405.776,218.008 407.36,218.008 Z M409.184,229.624 L409.184,253 L405.488,253 L405.488,229.624 L409.184,229.624 Z M423.092,229.096 C426.452,229.096 429.092,230.536 430.916,232.792 L428.66,235.096 C427.124,233.512 425.108,232.504 422.9,232.504 C420.692,232.504 419.012,233.512 419.012,235.432 C419.012,237.016 420.212,237.784 422.804,238.84 L424.964,239.752 C429.188,241.528 431.156,243.352 431.156,246.664 C431.156,251.224 427.268,253.528 422.948,253.528 C418.82,253.528 415.7,251.464 413.828,248.968 L416.18,246.52 C418.1,248.536 420.068,250.12 422.9,250.12 C425.348,250.12 427.364,248.92 427.364,246.808 C427.364,244.792 425.636,244.024 423.284,243.064 L421.028,242.104 C417.476,240.616 415.22,238.984 415.22,235.624 C415.22,231.4 418.82,229.096 423.092,229.096 Z M461.036,229.096 C467.756,229.096 472.604,234.424 472.604,241.288 C472.604,248.2 467.708,253.528 461.036,253.528 C457.58,253.528 454.316,252.088 452.444,249.592 L452.444,261.64 L448.748,261.64 L448.748,229.624 L452.204,229.624 L452.204,233.368 C454.028,230.68 457.34,229.096 461.036,229.096 Z M460.508,250.12 C465.26,250.12 468.812,246.424 468.812,241.336 C468.812,236.248 465.308,232.504 460.508,232.504 C456.476,232.504 452.396,235.144 452.396,241.288 C452.396,247.432 456.428,250.12 460.508,250.12 Z M488.528,229.432 C489.296,229.432 489.776,229.528 490.256,229.624 L490.256,232.888 L488.864,232.888 C485.072,232.888 481.52,235.288 481.52,239.752 L481.52,253 L477.824,253 L477.824,229.624 L481.28,229.624 L481.28,232.984 C483.008,230.68 485.744,229.432 488.528,229.432 Z M504.02,229.096 C510.788,229.096 516.26,234.424 516.26,241.288 C516.26,248.104 510.788,253.48 503.972,253.48 C497.204,253.432 491.78,248.152 491.78,241.288 C491.78,234.424 497.156,229.096 504.02,229.096 Z M504.02,232.504 C499.124,232.504 495.524,236.344 495.572,241.336 C495.572,246.28 499.124,250.072 503.972,250.072 C508.82,250.072 512.468,246.232 512.468,241.336 C512.468,236.296 508.82,232.504 504.02,232.504 Z M523.352,218.008 C524.84,218.008 526.088,219.208 526.088,220.696 C526.088,222.232 524.84,223.384 523.352,223.384 C521.768,223.384 520.568,222.232 520.568,220.696 C520.568,219.208 521.768,218.008 523.352,218.008 Z M525.176,229.624 L525.176,254.584 C525.176,259.912 521.96,262.168 517.496,262.168 C516.296,262.168 515.384,262.024 514.52,261.784 L514.52,258.664 C515.336,258.76 515.912,258.808 516.68,258.808 C519.512,258.808 521.48,257.8 521.48,254.344 L521.48,229.624 L525.176,229.624 Z M552.956,239.656 C552.956,240.904 552.764,242.008 552.668,242.44 L534.236,242.44 C534.716,247.096 538.172,250.12 542.78,250.12 C545.708,250.12 548.012,248.872 549.932,246.952 L552.092,249.448 C549.74,251.944 546.572,253.528 542.732,253.528 C535.676,253.528 530.348,248.2 530.348,241.336 C530.348,234.52 535.58,229.096 542.3,229.096 C548.3,229.096 552.956,233.416 552.956,239.656 Z M542.204,232.456 C538.268,232.456 535.148,235.144 534.38,239.176 L549.164,239.176 C549.116,234.856 545.948,232.456 542.204,232.456 Z M568.736,229.096 C572.96,229.096 576.32,231.112 578.384,234.184 L575.744,236.296 C574.016,233.992 571.808,232.504 568.784,232.504 C563.888,232.504 560.288,236.392 560.288,241.288 C560.288,246.232 563.888,250.12 568.784,250.12 C571.76,250.12 573.968,248.68 575.696,246.376 L578.336,248.44 C576.272,251.512 572.912,253.528 568.736,253.528 C561.92,253.528 556.496,248.152 556.496,241.288 C556.496,234.472 561.92,229.096 568.736,229.096 Z M593.012,250.168 C593.924,250.168 594.932,250.072 596.132,249.88 L596.132,253 C594.932,253.288 593.732,253.528 592.244,253.528 C587.636,253.528 584.372,251.272 584.372,245.944 L584.372,232.936 L580.436,232.936 L580.436,229.624 L584.372,229.624 L584.372,223.24 L588.068,223.24 L588.068,229.624 L595.364,229.624 L595.364,232.936 L588.068,232.936 L588.068,245.704 C588.068,249.208 590.084,250.168 593.012,250.168 Z M621.74,219.832 C618.86,219.832 616.844,220.792 616.844,224.296 L616.844,229.624 L622.7,229.624 L622.7,232.936 L616.844,232.936 L616.844,253 L613.148,253 L613.148,232.936 L609.788,232.936 L609.788,229.624 L613.148,229.624 L613.148,224.056 C613.148,218.728 616.364,216.472 620.876,216.472 C622.028,216.472 622.94,216.616 623.804,216.856 L623.804,219.976 C623.036,219.88 622.364,219.832 621.74,219.832 Z M636.416,229.096 C643.184,229.096 648.656,234.424 648.656,241.288 C648.656,248.104 643.184,253.48 636.368,253.48 C629.6,253.432 624.176,248.152 624.176,241.288 C624.176,234.424 629.552,229.096 636.416,229.096 Z M636.416,232.504 C631.52,232.504 627.92,236.344 627.968,241.336 C627.968,246.28 631.52,250.072 636.368,250.072 C641.216,250.072 644.864,246.232 644.864,241.336 C644.864,236.296 641.216,232.504 636.416,232.504 Z M664.436,229.096 C668.66,229.096 672.02,231.112 674.084,234.184 L671.444,236.296 C669.716,233.992 667.508,232.504 664.484,232.504 C659.588,232.504 655.988,236.392 655.988,241.288 C655.988,246.232 659.588,250.12 664.484,250.12 C667.46,250.12 669.668,248.68 671.396,246.376 L674.036,248.44 C671.972,251.512 668.612,253.528 664.436,253.528 C657.62,253.528 652.196,248.152 652.196,241.288 C652.196,234.472 657.62,229.096 664.436,229.096 Z M698.12,229.624 L698.12,243.688 C698.12,249.688 693.848,253.528 688.472,253.528 C683,253.528 678.776,249.688 678.776,243.688 L678.776,229.624 L682.424,229.624 L682.424,243.928 C682.424,247.768 685.112,250.12 688.472,250.12 C691.736,250.12 694.424,247.768 694.424,243.928 L694.424,229.624 L698.12,229.624 Z M711.74,229.096 C715.1,229.096 717.74,230.536 719.564,232.792 L717.308,235.096 C715.772,233.512 713.756,232.504 711.548,232.504 C709.34,232.504 707.66,233.512 707.66,235.432 C707.66,237.016 708.86,237.784 711.452,238.84 L713.612,239.752 C717.836,241.528 719.804,243.352 719.804,246.664 C719.804,251.224 715.916,253.528 711.596,253.528 C707.468,253.528 704.348,251.464 702.476,248.968 L704.828,246.52 C706.748,248.536 708.716,250.12 711.548,250.12 C713.996,250.12 716.012,248.92 716.012,246.808 C716.012,244.792 714.284,244.024 711.932,243.064 L709.676,242.104 C706.124,240.616 703.868,238.984 703.868,235.624 C703.868,231.4 707.468,229.096 711.74,229.096 Z M746.144,239.656 C746.144,240.904 745.952,242.008 745.856,242.44 L727.424,242.44 C727.904,247.096 731.36,250.12 735.968,250.12 C738.896,250.12 741.2,248.872 743.12,246.952 L745.28,249.448 C742.928,251.944 739.76,253.528 735.92,253.528 C728.864,253.528 723.536,248.2 723.536,241.336 C723.536,234.52 728.768,229.096 735.488,229.096 C741.488,229.096 746.144,233.416 746.144,239.656 Z M735.392,232.456 C731.456,232.456 728.336,235.144 727.568,239.176 L742.352,239.176 C742.304,234.856 739.136,232.456 735.392,232.456 Z M769.892,217 L773.588,217 L773.588,253 L770.084,253 L770.084,249.256 C768.26,251.944 764.948,253.528 761.252,253.528 C754.58,253.528 749.684,248.2 749.684,241.336 C749.684,234.424 754.58,229.096 761.252,229.096 C764.804,229.096 768.02,230.584 769.892,233.08 L769.892,217 Z M761.78,250.12 C765.812,250.12 769.94,247.48 769.94,241.336 C769.94,235.192 765.812,232.504 761.78,232.504 C757.028,232.504 753.476,236.2 753.476,241.288 C753.476,246.376 756.98,250.12 761.78,250.12 Z M803.18,229.096 C809.948,229.096 815.42,234.424 815.42,241.288 C815.42,248.104 809.948,253.48 803.132,253.48 C796.364,253.432 790.94,248.152 790.94,241.288 C790.94,234.424 796.316,229.096 803.18,229.096 Z M803.18,232.504 C798.284,232.504 794.684,236.344 794.732,241.336 C794.732,246.28 798.284,250.072 803.132,250.072 C807.98,250.072 811.628,246.232 811.628,241.336 C811.628,236.296 807.98,232.504 803.18,232.504 Z M831.296,229.096 C836.816,229.096 839.984,232.888 839.984,238.312 L839.984,253 L836.288,253 L836.288,238.744 C836.288,235.048 834.08,232.504 830.48,232.504 C826.88,232.504 824.336,235.096 824.336,238.744 L824.336,253 L820.64,253 L820.64,229.624 L824.096,229.624 L824.096,232.168 C825.728,230.248 828.272,229.096 831.296,229.096 Z M877.256,217 L880.952,217 L880.952,253 L877.448,253 L877.448,249.256 C875.624,251.944 872.312,253.528 868.616,253.528 C861.944,253.528 857.048,248.2 857.048,241.336 C857.048,234.424 861.944,229.096 868.616,229.096 C872.168,229.096 875.384,230.584 877.256,233.08 L877.256,217 Z M869.144,250.12 C873.176,250.12 877.304,247.48 877.304,241.336 C877.304,235.192 873.176,232.504 869.144,232.504 C864.392,232.504 860.84,236.2 860.84,241.288 C860.84,246.376 864.344,250.12 869.144,250.12 Z M908.732,239.656 C908.732,240.904 908.54,242.008 908.444,242.44 L890.012,242.44 C890.492,247.096 893.948,250.12 898.556,250.12 C901.484,250.12 903.788,248.872 905.708,246.952 L907.868,249.448 C905.516,251.944 902.348,253.528 898.508,253.528 C891.452,253.528 886.124,248.2 886.124,241.336 C886.124,234.52 891.356,229.096 898.076,229.096 C904.076,229.096 908.732,233.416 908.732,239.656 Z M897.98,232.456 C894.044,232.456 890.924,235.144 890.156,239.176 L904.94,239.176 C904.892,234.856 901.724,232.456 897.98,232.456 Z M929.6,229.624 L933.536,229.624 L922.544,253.528 L921.2,253.528 L910.16,229.624 L914.096,229.624 L921.872,247.24 L929.6,229.624 Z M957.572,239.656 C957.572,240.904 957.38,242.008 957.284,242.44 L938.852,242.44 C939.332,247.096 942.788,250.12 947.396,250.12 C950.324,250.12 952.628,248.872 954.548,246.952 L956.708,249.448 C954.356,251.944 951.188,253.528 947.348,253.528 C940.292,253.528 934.964,248.2 934.964,241.336 C934.964,234.52 940.196,229.096 946.916,229.096 C952.916,229.096 957.572,233.416 957.572,239.656 Z M946.82,232.456 C942.884,232.456 939.764,235.144 938.996,239.176 L953.78,239.176 C953.732,234.856 950.564,232.456 946.82,232.456 Z M966.488,217 L966.488,253 L962.792,253 L962.792,217 L966.488,217 Z M983.9,229.096 C990.668,229.096 996.14,234.424 996.14,241.288 C996.14,248.104 990.668,253.48 983.852,253.48 C977.084,253.432 971.66,248.152 971.66,241.288 C971.66,234.424 977.036,229.096 983.9,229.096 Z M983.9,232.504 C979.004,232.504 975.404,236.344 975.452,241.336 C975.452,246.28 979.004,250.072 983.852,250.072 C988.7,250.072 992.348,246.232 992.348,241.336 C992.348,236.296 988.7,232.504 983.9,232.504 Z M1013.648,229.096 C1020.368,229.096 1025.216,234.424 1025.216,241.288 C1025.216,248.2 1020.32,253.528 1013.648,253.528 C1010.192,253.528 1006.928,252.088 1005.056,249.592 L1005.056,261.64 L1001.36,261.64 L1001.36,229.624 L1004.816,229.624 L1004.816,233.368 C1006.64,230.68 1009.952,229.096 1013.648,229.096 Z M1013.12,250.12 C1017.872,250.12 1021.424,246.424 1021.424,241.336 C1021.424,236.248 1017.92,232.504 1013.12,232.504 C1009.088,232.504 1005.008,235.144 1005.008,241.288 C1005.008,247.432 1009.04,250.12 1013.12,250.12 Z M1032.308,218.008 C1033.796,218.008 1035.044,219.208 1035.044,220.696 C1035.044,222.232 1033.796,223.384 1032.308,223.384 C1030.724,223.384 1029.524,222.232 1029.524,220.696 C1029.524,219.208 1030.724,218.008 1032.308,218.008 Z M1034.132,229.624 L1034.132,253 L1030.436,253 L1030.436,229.624 L1034.132,229.624 Z M1051.64,229.096 C1057.16,229.096 1060.328,232.888 1060.328,238.312 L1060.328,253 L1056.632,253 L1056.632,238.744 C1056.632,235.048 1054.424,232.504 1050.824,232.504 C1047.224,232.504 1044.68,235.096 1044.68,238.744 L1044.68,253 L1040.984,253 L1040.984,229.624 L1044.44,229.624 L1044.44,232.168 C1046.072,230.248 1048.616,229.096 1051.64,229.096 Z M1085.852,229.624 L1089.356,229.624 L1089.356,250.744 C1089.356,257.944 1084.796,262.168 1077.98,262.168 C1073.084,262.168 1069.292,259.96 1066.988,257.656 L1069.148,255.064 C1071.404,257.032 1074.044,258.76 1077.884,258.76 C1082.636,258.76 1085.66,256.12 1085.66,250.936 L1085.66,248.872 C1083.74,251.32 1080.476,252.76 1076.972,252.76 C1070.396,252.76 1065.5,247.768 1065.5,240.952 C1065.5,234.184 1070.396,229.096 1076.972,229.096 C1080.668,229.096 1084.028,230.728 1085.852,233.416 L1085.852,229.624 Z M1077.548,249.352 C1081.628,249.352 1085.708,246.808 1085.708,240.952 C1085.708,235.096 1081.58,232.6 1077.548,232.6 C1072.796,232.6 1069.244,236.056 1069.244,241 C1069.244,245.944 1072.796,249.352 1077.548,249.352 Z M366.068,286.096 C371.396,286.096 375.188,289.312 375.188,295.6 L375.188,310 L371.732,310 L371.732,306.976 C370.052,309.232 367.316,310.528 363.86,310.528 C359.156,310.528 355.7,308.032 355.7,303.952 C355.7,300.016 359.012,297.424 364.1,297.424 L371.492,297.424 L371.492,295.408 C371.492,291.472 369.284,289.504 365.828,289.504 C362.9,289.504 360.836,290.896 359.012,293.248 L356.564,291.232 C358.772,287.68 362.324,286.096 366.068,286.096 Z M364.34,307.456 C368.18,307.456 371.492,304.672 371.492,301.024 L371.492,300.448 L364.532,300.448 C361.268,300.448 359.492,301.552 359.492,303.76 C359.492,306.256 361.748,307.456 364.34,307.456 Z M406.22,286.096 C412.94,286.096 417.788,291.424 417.788,298.288 C417.788,305.2 412.892,310.528 406.22,310.528 C402.764,310.528 399.5,309.088 397.628,306.592 L397.628,318.64 L393.932,318.64 L393.932,286.624 L397.388,286.624 L397.388,290.368 C399.212,287.68 402.524,286.096 406.22,286.096 Z M405.692,307.12 C410.444,307.12 413.996,303.424 413.996,298.336 C413.996,293.248 410.492,289.504 405.692,289.504 C401.66,289.504 397.58,292.144 397.58,298.288 C397.58,304.432 401.612,307.12 405.692,307.12 Z M433.568,286.096 C440.336,286.096 445.808,291.424 445.808,298.288 C445.808,305.104 440.336,310.48 433.52,310.48 C426.752,310.432 421.328,305.152 421.328,298.288 C421.328,291.424 426.704,286.096 433.568,286.096 Z M433.568,289.504 C428.672,289.504 425.072,293.344 425.12,298.336 C425.12,303.28 428.672,307.072 433.52,307.072 C438.368,307.072 442.016,303.232 442.016,298.336 C442.016,293.296 438.368,289.504 433.568,289.504 Z M461.732,286.432 C462.5,286.432 462.98,286.528 463.46,286.624 L463.46,289.888 L462.068,289.888 C458.276,289.888 454.724,292.288 454.724,296.752 L454.724,310 L451.028,310 L451.028,286.624 L454.484,286.624 L454.484,289.984 C456.212,287.68 458.948,286.432 461.732,286.432 Z M476.792,307.168 C477.704,307.168 478.712,307.072 479.912,306.88 L479.912,310 C478.712,310.288 477.512,310.528 476.024,310.528 C471.416,310.528 468.152,308.272 468.152,302.944 L468.152,289.936 L464.216,289.936 L464.216,286.624 L468.152,286.624 L468.152,280.24 L471.848,280.24 L471.848,286.624 L479.144,286.624 L479.144,289.936 L471.848,289.936 L471.848,302.704 C471.848,306.208 473.864,307.168 476.792,307.168 Z M493.34,276.832 C490.46,276.832 488.444,277.792 488.444,281.296 L488.444,286.624 L494.3,286.624 L494.3,289.936 L488.444,289.936 L488.444,310 L484.748,310 L484.748,289.936 L481.388,289.936 L481.388,286.624 L484.748,286.624 L484.748,281.056 C484.748,275.728 487.964,273.472 492.476,273.472 C493.628,273.472 494.54,273.616 495.404,273.856 L495.404,276.976 C494.636,276.88 493.964,276.832 493.34,276.832 Z M508.016,286.096 C514.784,286.096 520.256,291.424 520.256,298.288 C520.256,305.104 514.784,310.48 507.968,310.48 C501.2,310.432 495.776,305.152 495.776,298.288 C495.776,291.424 501.152,286.096 508.016,286.096 Z M508.016,289.504 C503.12,289.504 499.52,293.344 499.568,298.336 C499.568,303.28 503.12,307.072 507.968,307.072 C512.816,307.072 516.464,303.232 516.464,298.336 C516.464,293.296 512.816,289.504 508.016,289.504 Z M529.172,274 L529.172,310 L525.476,310 L525.476,274 L529.172,274 Z M537.896,275.008 C539.384,275.008 540.632,276.208 540.632,277.696 C540.632,279.232 539.384,280.384 537.896,280.384 C536.312,280.384 535.112,279.232 535.112,277.696 C535.112,276.208 536.312,275.008 537.896,275.008 Z M539.72,286.624 L539.72,310 L536.024,310 L536.024,286.624 L539.72,286.624 Z M557.132,286.096 C563.9,286.096 569.372,291.424 569.372,298.288 C569.372,305.104 563.9,310.48 557.084,310.48 C550.316,310.432 544.892,305.152 544.892,298.288 C544.892,291.424 550.268,286.096 557.132,286.096 Z M557.132,289.504 C552.236,289.504 548.636,293.344 548.684,298.336 C548.684,303.28 552.236,307.072 557.084,307.072 C561.932,307.072 565.58,303.232 565.58,298.336 C565.58,293.296 561.932,289.504 557.132,289.504 Z M616.868,286.624 L620.804,286.624 L610.964,310.528 L609.62,310.528 L601.652,292.864 L593.732,310.528 L592.436,310.528 L582.5,286.624 L586.436,286.624 L593.156,303.904 L600.98,286.096 L602.372,286.096 L610.244,303.808 L616.868,286.624 Z M644.888,296.656 C644.888,297.904 644.696,299.008 644.6,299.44 L626.168,299.44 C626.648,304.096 630.104,307.12 634.712,307.12 C637.64,307.12 639.944,305.872 641.864,303.952 L644.024,306.448 C641.672,308.944 638.504,310.528 634.664,310.528 C627.608,310.528 622.28,305.2 622.28,298.336 C622.28,291.52 627.512,286.096 634.232,286.096 C640.232,286.096 644.888,290.416 644.888,296.656 Z M634.136,289.456 C630.2,289.456 627.08,292.144 626.312,296.176 L641.096,296.176 C641.048,291.856 637.88,289.456 634.136,289.456 Z M662.396,286.096 C669.068,286.096 673.964,291.424 673.964,298.336 C673.964,305.2 669.116,310.528 662.444,310.528 C658.796,310.528 655.388,308.944 653.564,306.256 L653.564,310 L650.108,310 L650.108,274 L653.804,274 L653.804,290.08 C655.628,287.632 658.844,286.096 662.396,286.096 Z M661.868,307.12 C666.668,307.12 670.172,303.376 670.172,298.288 C670.172,293.2 666.62,289.504 661.868,289.504 C657.788,289.504 653.756,292.192 653.756,298.336 C653.756,304.48 657.836,307.12 661.868,307.12 Z M686.24,286.096 C689.6,286.096 692.24,287.536 694.064,289.792 L691.808,292.096 C690.272,290.512 688.256,289.504 686.048,289.504 C683.84,289.504 682.16,290.512 682.16,292.432 C682.16,294.016 683.36,294.784 685.952,295.84 L688.112,296.752 C692.336,298.528 694.304,300.352 694.304,303.664 C694.304,308.224 690.416,310.528 686.096,310.528 C681.968,310.528 678.848,308.464 676.976,305.968 L679.328,303.52 C681.248,305.536 683.216,307.12 686.048,307.12 C688.496,307.12 690.512,305.92 690.512,303.808 C690.512,301.792 688.784,301.024 686.432,300.064 L684.176,299.104 C680.624,297.616 678.368,295.984 678.368,292.624 C678.368,288.4 681.968,286.096 686.24,286.096 Z M701.588,275.008 C703.076,275.008 704.324,276.208 704.324,277.696 C704.324,279.232 703.076,280.384 701.588,280.384 C700.004,280.384 698.804,279.232 698.804,277.696 C698.804,276.208 700.004,275.008 701.588,275.008 Z M703.412,286.624 L703.412,310 L699.716,310 L699.716,286.624 L703.412,286.624 Z M719.912,307.168 C720.824,307.168 721.832,307.072 723.032,306.88 L723.032,310 C721.832,310.288 720.632,310.528 719.144,310.528 C714.536,310.528 711.272,308.272 711.272,302.944 L711.272,289.936 L707.336,289.936 L707.336,286.624 L711.272,286.624 L711.272,280.24 L714.968,280.24 L714.968,286.624 L722.264,286.624 L722.264,289.936 L714.968,289.936 L714.968,302.704 C714.968,306.208 716.984,307.168 719.912,307.168 Z M747.74,296.656 C747.74,297.904 747.548,299.008 747.452,299.44 L729.02,299.44 C729.5,304.096 732.956,307.12 737.564,307.12 C740.492,307.12 742.796,305.872 744.716,303.952 L746.876,306.448 C744.524,308.944 741.356,310.528 737.516,310.528 C730.46,310.528 725.132,305.2 725.132,298.336 C725.132,291.52 730.364,286.096 737.084,286.096 C743.084,286.096 747.74,290.416 747.74,296.656 Z M736.988,289.456 C733.052,289.456 729.932,292.144 729.164,296.176 L743.948,296.176 C743.9,291.856 740.732,289.456 736.988,289.456 Z M774.308,276.832 C771.428,276.832 769.412,277.792 769.412,281.296 L769.412,286.624 L775.268,286.624 L775.268,289.936 L769.412,289.936 L769.412,310 L765.716,310 L765.716,289.936 L762.356,289.936 L762.356,286.624 L765.716,286.624 L765.716,281.056 C765.716,275.728 768.932,273.472 773.444,273.472 C774.596,273.472 775.508,273.616 776.372,273.856 L776.372,276.976 C775.604,276.88 774.932,276.832 774.308,276.832 Z M788.984,286.096 C795.752,286.096 801.224,291.424 801.224,298.288 C801.224,305.104 795.752,310.48 788.936,310.48 C782.168,310.432 776.744,305.152 776.744,298.288 C776.744,291.424 782.12,286.096 788.984,286.096 Z M788.984,289.504 C784.088,289.504 780.488,293.344 780.536,298.336 C780.536,303.28 784.088,307.072 788.936,307.072 C793.784,307.072 797.432,303.232 797.432,298.336 C797.432,293.296 793.784,289.504 788.984,289.504 Z M817.148,286.432 C817.916,286.432 818.396,286.528 818.876,286.624 L818.876,289.888 L817.484,289.888 C813.692,289.888 810.14,292.288 810.14,296.752 L810.14,310 L806.444,310 L806.444,286.624 L809.9,286.624 L809.9,289.984 C811.628,287.68 814.364,286.432 817.148,286.432 Z M844.388,307.168 C845.3,307.168 846.308,307.072 847.508,306.88 L847.508,310 C846.308,310.288 845.108,310.528 843.62,310.528 C839.012,310.528 835.748,308.272 835.748,302.944 L835.748,289.936 L831.812,289.936 L831.812,286.624 L835.748,286.624 L835.748,280.24 L839.444,280.24 L839.444,286.624 L846.74,286.624 L846.74,289.936 L839.444,289.936 L839.444,302.704 C839.444,306.208 841.46,307.168 844.388,307.168 Z M862.472,286.096 C867.944,286.096 871.112,289.888 871.112,295.312 L871.112,310 L867.416,310 L867.416,295.792 C867.416,292.096 865.208,289.504 861.608,289.504 C858.008,289.504 855.464,292.144 855.464,295.792 L855.464,310 L851.768,310 L851.768,274 L855.464,274 L855.464,289.264 C857,287.296 859.448,286.096 862.472,286.096 Z M898.604,296.656 C898.604,297.904 898.412,299.008 898.316,299.44 L879.884,299.44 C880.364,304.096 883.82,307.12 888.428,307.12 C891.356,307.12 893.66,305.872 895.58,303.952 L897.74,306.448 C895.388,308.944 892.22,310.528 888.38,310.528 C881.324,310.528 875.996,305.2 875.996,298.336 C875.996,291.52 881.228,286.096 887.948,286.096 C893.948,286.096 898.604,290.416 898.604,296.656 Z M887.852,289.456 C883.916,289.456 880.796,292.144 880.028,296.176 L894.812,296.176 C894.764,291.856 891.596,289.456 887.852,289.456 Z M925.652,307.168 C926.564,307.168 927.572,307.072 928.772,306.88 L928.772,310 C927.572,310.288 926.372,310.528 924.884,310.528 C920.276,310.528 917.012,308.272 917.012,302.944 L917.012,289.936 L913.076,289.936 L913.076,286.624 L917.012,286.624 L917.012,280.24 L920.708,280.24 L920.708,286.624 L928.004,286.624 L928.004,289.936 L920.708,289.936 L920.708,302.704 C920.708,306.208 922.724,307.168 925.652,307.168 Z M941.432,286.096 C946.76,286.096 950.552,289.312 950.552,295.6 L950.552,310 L947.096,310 L947.096,306.976 C945.416,309.232 942.68,310.528 939.224,310.528 C934.52,310.528 931.064,308.032 931.064,303.952 C931.064,300.016 934.376,297.424 939.464,297.424 L946.856,297.424 L946.856,295.408 C946.856,291.472 944.648,289.504 941.192,289.504 C938.264,289.504 936.2,290.896 934.376,293.248 L931.928,291.232 C934.136,287.68 937.688,286.096 941.432,286.096 Z M939.704,307.456 C943.544,307.456 946.856,304.672 946.856,301.024 L946.856,300.448 L939.896,300.448 C936.632,300.448 934.856,301.552 934.856,303.76 C934.856,306.256 937.112,307.456 939.704,307.456 Z M960.812,274 L960.812,310 L957.116,310 L957.116,274 L960.812,274 Z M988.592,296.656 C988.592,297.904 988.4,299.008 988.304,299.44 L969.872,299.44 C970.352,304.096 973.808,307.12 978.416,307.12 C981.344,307.12 983.648,305.872 985.568,303.952 L987.728,306.448 C985.376,308.944 982.208,310.528 978.368,310.528 C971.312,310.528 965.984,305.2 965.984,298.336 C965.984,291.52 971.216,286.096 977.936,286.096 C983.936,286.096 988.592,290.416 988.592,296.656 Z M977.84,289.456 C973.904,289.456 970.784,292.144 970.016,296.176 L984.8,296.176 C984.752,291.856 981.584,289.456 977.84,289.456 Z M1004.468,286.096 C1009.988,286.096 1013.156,289.888 1013.156,295.312 L1013.156,310 L1009.46,310 L1009.46,295.744 C1009.46,292.048 1007.252,289.504 1003.652,289.504 C1000.052,289.504 997.508,292.096 997.508,295.744 L997.508,310 L993.812,310 L993.812,286.624 L997.268,286.624 L997.268,289.168 C998.9,287.248 1001.444,286.096 1004.468,286.096 Z M1029.368,307.168 C1030.28,307.168 1031.288,307.072 1032.488,306.88 L1032.488,310 C1031.288,310.288 1030.088,310.528 1028.6,310.528 C1023.992,310.528 1020.728,308.272 1020.728,302.944 L1020.728,289.936 L1016.792,289.936 L1016.792,286.624 L1020.728,286.624 L1020.728,280.24 L1024.424,280.24 L1024.424,286.624 L1031.72,286.624 L1031.72,289.936 L1024.424,289.936 L1024.424,302.704 C1024.424,306.208 1026.44,307.168 1029.368,307.168 Z M1057.196,296.656 C1057.196,297.904 1057.004,299.008 1056.908,299.44 L1038.476,299.44 C1038.956,304.096 1042.412,307.12 1047.02,307.12 C1049.948,307.12 1052.252,305.872 1054.172,303.952 L1056.332,306.448 C1053.98,308.944 1050.812,310.528 1046.972,310.528 C1039.916,310.528 1034.588,305.2 1034.588,298.336 C1034.588,291.52 1039.82,286.096 1046.54,286.096 C1052.54,286.096 1057.196,290.416 1057.196,296.656 Z M1046.444,289.456 C1042.508,289.456 1039.388,292.144 1038.62,296.176 L1053.404,296.176 C1053.356,291.856 1050.188,289.456 1046.444,289.456 Z M1080.944,274 L1084.64,274 L1084.64,310 L1081.136,310 L1081.136,306.256 C1079.312,308.944 1076,310.528 1072.304,310.528 C1065.632,310.528 1060.736,305.2 1060.736,298.336 C1060.736,291.424 1065.632,286.096 1072.304,286.096 C1075.856,286.096 1079.072,287.584 1080.944,290.08 L1080.944,274 Z M1072.832,307.12 C1076.864,307.12 1080.992,304.48 1080.992,298.336 C1080.992,292.192 1076.864,289.504 1072.832,289.504 C1068.08,289.504 1064.528,293.2 1064.528,298.288 C1064.528,303.376 1068.032,307.12 1072.832,307.12 Z M369.446,331 L373.142,331 L373.142,367 L369.638,367 L369.638,363.256 C367.814,365.944 364.502,367.528 360.806,367.528 C354.134,367.528 349.238,362.2 349.238,355.336 C349.238,348.424 354.134,343.096 360.806,343.096 C364.358,343.096 367.574,344.584 369.446,347.08 L369.446,331 Z M361.334,364.12 C365.366,364.12 369.494,361.48 369.494,355.336 C369.494,349.192 365.366,346.504 361.334,346.504 C356.582,346.504 353.03,350.2 353.03,355.288 C353.03,360.376 356.534,364.12 361.334,364.12 Z M400.922,353.656 C400.922,354.904 400.73,356.008 400.634,356.44 L382.202,356.44 C382.682,361.096 386.138,364.12 390.746,364.12 C393.674,364.12 395.978,362.872 397.898,360.952 L400.058,363.448 C397.706,365.944 394.538,367.528 390.698,367.528 C383.642,367.528 378.314,362.2 378.314,355.336 C378.314,348.52 383.546,343.096 390.266,343.096 C396.266,343.096 400.922,347.416 400.922,353.656 Z M390.17,346.456 C386.234,346.456 383.114,349.144 382.346,353.176 L397.13,353.176 C397.082,348.856 393.914,346.456 390.17,346.456 Z M413.198,343.096 C416.558,343.096 419.198,344.536 421.022,346.792 L418.766,349.096 C417.23,347.512 415.214,346.504 413.006,346.504 C410.798,346.504 409.118,347.512 409.118,349.432 C409.118,351.016 410.318,351.784 412.91,352.84 L415.07,353.752 C419.294,355.528 421.262,357.352 421.262,360.664 C421.262,365.224 417.374,367.528 413.054,367.528 C408.926,367.528 405.806,365.464 403.934,362.968 L406.286,360.52 C408.206,362.536 410.174,364.12 413.006,364.12 C415.454,364.12 417.47,362.92 417.47,360.808 C417.47,358.792 415.742,358.024 413.39,357.064 L411.134,356.104 C407.582,354.616 405.326,352.984 405.326,349.624 C405.326,345.4 408.926,343.096 413.198,343.096 Z M428.546,332.008 C430.034,332.008 431.282,333.208 431.282,334.696 C431.282,336.232 430.034,337.384 428.546,337.384 C426.962,337.384 425.762,336.232 425.762,334.696 C425.762,333.208 426.962,332.008 428.546,332.008 Z M430.37,343.624 L430.37,367 L426.674,367 L426.674,343.624 L430.37,343.624 Z M456.182,343.624 L459.686,343.624 L459.686,364.744 C459.686,371.944 455.126,376.168 448.31,376.168 C443.414,376.168 439.622,373.96 437.318,371.656 L439.478,369.064 C441.734,371.032 444.374,372.76 448.214,372.76 C452.966,372.76 455.99,370.12 455.99,364.936 L455.99,362.872 C454.07,365.32 450.806,366.76 447.302,366.76 C440.726,366.76 435.83,361.768 435.83,354.952 C435.83,348.184 440.726,343.096 447.302,343.096 C450.998,343.096 454.358,344.728 456.182,347.416 L456.182,343.624 Z M447.878,363.352 C451.958,363.352 456.038,360.808 456.038,354.952 C456.038,349.096 451.91,346.6 447.878,346.6 C443.126,346.6 439.574,350.056 439.574,355 C439.574,359.944 443.126,363.352 447.878,363.352 Z M477.194,343.096 C482.714,343.096 485.882,346.888 485.882,352.312 L485.882,367 L482.186,367 L482.186,352.744 C482.186,349.048 479.978,346.504 476.378,346.504 C472.778,346.504 470.234,349.096 470.234,352.744 L470.234,367 L466.538,367 L466.538,343.624 L469.994,343.624 L469.994,346.168 C471.626,344.248 474.17,343.096 477.194,343.096 Z M513.374,353.656 C513.374,354.904 513.182,356.008 513.086,356.44 L494.654,356.44 C495.134,361.096 498.59,364.12 503.198,364.12 C506.126,364.12 508.43,362.872 510.35,360.952 L512.51,363.448 C510.158,365.944 506.99,367.528 503.15,367.528 C496.094,367.528 490.766,362.2 490.766,355.336 C490.766,348.52 495.998,343.096 502.718,343.096 C508.718,343.096 513.374,347.416 513.374,353.656 Z M502.622,346.456 C498.686,346.456 495.566,349.144 494.798,353.176 L509.582,353.176 C509.534,348.856 506.366,346.456 502.622,346.456 Z M529.298,343.432 C530.066,343.432 530.546,343.528 531.026,343.624 L531.026,346.888 L529.634,346.888 C525.842,346.888 522.29,349.288 522.29,353.752 L522.29,367 L518.594,367 L518.594,343.624 L522.05,343.624 L522.05,346.984 C523.778,344.68 526.514,343.432 529.298,343.432 Z M556.346,334.792 C560.666,334.792 564.314,337.048 566.282,340.168 L563.546,342.232 C561.866,339.688 559.178,338.248 556.298,338.248 C553.37,338.248 550.682,339.736 550.682,342.856 C550.682,345.736 552.89,346.792 555.77,348.184 L559.274,349.864 C563.882,352.072 566.666,354.424 566.666,358.696 C566.666,364.024 562.298,367.528 556.442,367.528 C551.402,367.528 547.226,364.888 544.778,360.712 L547.562,358.648 C549.482,361.576 552.314,364.072 556.394,364.072 C560.138,364.072 562.778,362.008 562.778,358.792 C562.778,355.864 560.618,354.712 557.498,353.224 L553.946,351.544 C550.25,349.768 546.794,347.512 546.794,343.048 C546.794,338.008 551.21,334.792 556.346,334.792 Z M580.814,343.096 C586.142,343.096 589.934,346.312 589.934,352.6 L589.934,367 L586.478,367 L586.478,363.976 C584.798,366.232 582.062,367.528 578.606,367.528 C573.902,367.528 570.446,365.032 570.446,360.952 C570.446,357.016 573.758,354.424 578.846,354.424 L586.238,354.424 L586.238,352.408 C586.238,348.472 584.03,346.504 580.574,346.504 C577.646,346.504 575.582,347.896 573.758,350.248 L571.31,348.232 C573.518,344.68 577.07,343.096 580.814,343.096 Z M579.086,364.456 C582.926,364.456 586.238,361.672 586.238,358.024 L586.238,357.448 L579.278,357.448 C576.014,357.448 574.238,358.552 574.238,360.76 C574.238,363.256 576.494,364.456 579.086,364.456 Z M607.154,343.096 C612.674,343.096 615.842,346.888 615.842,352.312 L615.842,367 L612.146,367 L612.146,352.744 C612.146,349.048 609.938,346.504 606.338,346.504 C602.738,346.504 600.194,349.096 600.194,352.744 L600.194,367 L596.498,367 L596.498,343.624 L599.954,343.624 L599.954,346.168 C601.586,344.248 604.13,343.096 607.154,343.096 Z M624.278,332.008 C625.766,332.008 627.014,333.208 627.014,334.696 C627.014,336.232 625.766,337.384 624.278,337.384 C622.694,337.384 621.494,336.232 621.494,334.696 C621.494,333.208 622.694,332.008 624.278,332.008 Z M626.102,343.624 L626.102,368.584 C626.102,373.912 622.886,376.168 618.422,376.168 C617.222,376.168 616.31,376.024 615.446,375.784 L615.446,372.664 C616.262,372.76 616.838,372.808 617.606,372.808 C620.438,372.808 622.406,371.8 622.406,368.344 L622.406,343.624 L626.102,343.624 Z M641.354,343.096 C646.682,343.096 650.474,346.312 650.474,352.6 L650.474,367 L647.018,367 L647.018,363.976 C645.338,366.232 642.602,367.528 639.146,367.528 C634.442,367.528 630.986,365.032 630.986,360.952 C630.986,357.016 634.298,354.424 639.386,354.424 L646.778,354.424 L646.778,352.408 C646.778,348.472 644.57,346.504 641.114,346.504 C638.186,346.504 636.122,347.896 634.298,350.248 L631.85,348.232 C634.058,344.68 637.61,343.096 641.354,343.096 Z M639.626,364.456 C643.466,364.456 646.778,361.672 646.778,358.024 L646.778,357.448 L639.818,357.448 C636.554,357.448 634.778,358.552 634.778,360.76 C634.778,363.256 637.034,364.456 639.626,364.456 Z M667.694,343.096 C673.214,343.096 676.382,346.888 676.382,352.312 L676.382,367 L672.686,367 L672.686,352.744 C672.686,349.048 670.478,346.504 666.878,346.504 C663.278,346.504 660.734,349.096 660.734,352.744 L660.734,367 L657.038,367 L657.038,343.624 L660.494,343.624 L660.494,346.168 C662.126,344.248 664.67,343.096 667.694,343.096 Z M691.346,343.096 C696.674,343.096 700.466,346.312 700.466,352.6 L700.466,367 L697.01,367 L697.01,363.976 C695.33,366.232 692.594,367.528 689.138,367.528 C684.434,367.528 680.978,365.032 680.978,360.952 C680.978,357.016 684.29,354.424 689.378,354.424 L696.77,354.424 L696.77,352.408 C696.77,348.472 694.562,346.504 691.106,346.504 C688.178,346.504 686.114,347.896 684.29,350.248 L681.842,348.232 C684.05,344.68 687.602,343.096 691.346,343.096 Z M689.618,364.456 C693.458,364.456 696.77,361.672 696.77,358.024 L696.77,357.448 L689.81,357.448 C686.546,357.448 684.77,358.552 684.77,360.76 C684.77,363.256 687.026,364.456 689.618,364.456 Z M747.338,334.792 L748.634,334.792 L748.634,367 L744.89,367 L744.89,344.248 L734.762,358.024 L733.418,358.024 L723.242,344.2 L723.242,367 L719.498,367 L719.498,334.792 L720.842,334.792 L734.042,353.128 L747.338,334.792 Z M776.51,353.656 C776.51,354.904 776.318,356.008 776.222,356.44 L757.79,356.44 C758.27,361.096 761.726,364.12 766.334,364.12 C769.262,364.12 771.566,362.872 773.486,360.952 L775.646,363.448 C773.294,365.944 770.126,367.528 766.286,367.528 C759.23,367.528 753.902,362.2 753.902,355.336 C753.902,348.52 759.134,343.096 765.854,343.096 C771.854,343.096 776.51,347.416 776.51,353.656 Z M765.758,346.456 C761.822,346.456 758.702,349.144 757.934,353.176 L772.718,353.176 C772.67,348.856 769.502,346.456 765.758,346.456 Z M792.434,343.096 C797.906,343.096 801.074,346.888 801.074,352.312 L801.074,367 L797.378,367 L797.378,352.792 C797.378,349.096 795.17,346.504 791.57,346.504 C787.97,346.504 785.426,349.144 785.426,352.792 L785.426,367 L781.73,367 L781.73,331 L785.426,331 L785.426,346.264 C786.962,344.296 789.41,343.096 792.434,343.096 Z M818.342,343.432 C819.11,343.432 819.59,343.528 820.07,343.624 L820.07,346.888 L818.678,346.888 C814.886,346.888 811.334,349.288 811.334,353.752 L811.334,367 L807.638,367 L807.638,343.624 L811.094,343.624 L811.094,346.984 C812.822,344.68 815.558,343.432 818.342,343.432 Z M831.674,343.096 C837.002,343.096 840.794,346.312 840.794,352.6 L840.794,367 L837.338,367 L837.338,363.976 C835.658,366.232 832.922,367.528 829.466,367.528 C824.762,367.528 821.306,365.032 821.306,360.952 C821.306,357.016 824.618,354.424 829.706,354.424 L837.098,354.424 L837.098,352.408 C837.098,348.472 834.89,346.504 831.434,346.504 C828.506,346.504 826.442,347.896 824.618,350.248 L822.17,348.232 C824.378,344.68 827.93,343.096 831.674,343.096 Z M829.946,364.456 C833.786,364.456 837.098,361.672 837.098,358.024 L837.098,357.448 L830.138,357.448 C826.874,357.448 825.098,358.552 825.098,360.76 C825.098,363.256 827.354,364.456 829.946,364.456 Z M849.758,361.48 C851.39,361.48 852.782,362.728 852.782,364.504 C852.782,366.28 851.39,367.528 849.758,367.528 C848.126,367.528 846.734,366.28 846.734,364.504 C846.734,362.728 848.126,361.48 849.758,361.48 Z M880.694,334.792 C885.014,334.792 888.662,337.048 890.63,340.168 L887.894,342.232 C886.214,339.688 883.526,338.248 880.646,338.248 C877.718,338.248 875.03,339.736 875.03,342.856 C875.03,345.736 877.238,346.792 880.118,348.184 L883.622,349.864 C888.23,352.072 891.014,354.424 891.014,358.696 C891.014,364.024 886.646,367.528 880.79,367.528 C875.75,367.528 871.574,364.888 869.126,360.712 L871.91,358.648 C873.83,361.576 876.662,364.072 880.742,364.072 C884.486,364.072 887.126,362.008 887.126,358.792 C887.126,355.864 884.966,354.712 881.846,353.224 L878.294,351.544 C874.598,349.768 871.142,347.512 871.142,343.048 C871.142,338.008 875.558,334.792 880.694,334.792 Z M907.466,343.096 C912.938,343.096 916.106,346.888 916.106,352.312 L916.106,367 L912.41,367 L912.41,352.792 C912.41,349.096 910.202,346.504 906.602,346.504 C903.002,346.504 900.458,349.144 900.458,352.792 L900.458,367 L896.762,367 L896.762,331 L900.458,331 L900.458,346.264 C901.994,344.296 904.442,343.096 907.466,343.096 Z M943.598,353.656 C943.598,354.904 943.406,356.008 943.31,356.44 L924.878,356.44 C925.358,361.096 928.814,364.12 933.422,364.12 C936.35,364.12 938.654,362.872 940.574,360.952 L942.734,363.448 C940.382,365.944 937.214,367.528 933.374,367.528 C926.318,367.528 920.99,362.2 920.99,355.336 C920.99,348.52 926.222,343.096 932.942,343.096 C938.942,343.096 943.598,347.416 943.598,353.656 Z M932.846,346.456 C928.91,346.456 925.79,349.144 925.022,353.176 L939.806,353.176 C939.758,348.856 936.59,346.456 932.846,346.456 Z M971.702,343.096 C977.174,343.096 980.342,346.888 980.342,352.312 L980.342,367 L976.646,367 L976.646,352.792 C976.646,349.096 974.438,346.504 970.838,346.504 C967.238,346.504 964.694,349.144 964.694,352.792 L964.694,367 L960.998,367 L960.998,331 L964.694,331 L964.694,346.264 C966.23,344.296 968.678,343.096 971.702,343.096 Z M1007.834,353.656 C1007.834,354.904 1007.642,356.008 1007.546,356.44 L989.114,356.44 C989.594,361.096 993.05,364.12 997.658,364.12 C1000.586,364.12 1002.89,362.872 1004.81,360.952 L1006.97,363.448 C1004.618,365.944 1001.45,367.528 997.61,367.528 C990.554,367.528 985.226,362.2 985.226,355.336 C985.226,348.52 990.458,343.096 997.178,343.096 C1003.178,343.096 1007.834,347.416 1007.834,353.656 Z M997.082,346.456 C993.146,346.456 990.026,349.144 989.258,353.176 L1004.042,353.176 C1003.994,348.856 1000.826,346.456 997.082,346.456 Z M1023.758,343.432 C1024.526,343.432 1025.006,343.528 1025.486,343.624 L1025.486,346.888 L1024.094,346.888 C1020.302,346.888 1016.75,349.288 1016.75,353.752 L1016.75,367 L1013.054,367 L1013.054,343.624 L1016.51,343.624 L1016.51,346.984 C1018.238,344.68 1020.974,343.432 1023.758,343.432 Z M1036.226,343.096 C1039.586,343.096 1042.226,344.536 1044.05,346.792 L1041.794,349.096 C1040.258,347.512 1038.242,346.504 1036.034,346.504 C1033.826,346.504 1032.146,347.512 1032.146,349.432 C1032.146,351.016 1033.346,351.784 1035.938,352.84 L1038.098,353.752 C1042.322,355.528 1044.29,357.352 1044.29,360.664 C1044.29,365.224 1040.402,367.528 1036.082,367.528 C1031.954,367.528 1028.834,365.464 1026.962,362.968 L1029.314,360.52 C1031.234,362.536 1033.202,364.12 1036.034,364.12 C1038.482,364.12 1040.498,362.92 1040.498,360.808 C1040.498,358.792 1038.77,358.024 1036.418,357.064 L1034.162,356.104 C1030.61,354.616 1028.354,352.984 1028.354,349.624 C1028.354,345.4 1031.954,343.096 1036.226,343.096 Z M1070.63,353.656 C1070.63,354.904 1070.438,356.008 1070.342,356.44 L1051.91,356.44 C1052.39,361.096 1055.846,364.12 1060.454,364.12 C1063.382,364.12 1065.686,362.872 1067.606,360.952 L1069.766,363.448 C1067.414,365.944 1064.246,367.528 1060.406,367.528 C1053.35,367.528 1048.022,362.2 1048.022,355.336 C1048.022,348.52 1053.254,343.096 1059.974,343.096 C1065.974,343.096 1070.63,347.416 1070.63,353.656 Z M1059.878,346.456 C1055.942,346.456 1052.822,349.144 1052.054,353.176 L1066.838,353.176 C1066.79,348.856 1063.622,346.456 1059.878,346.456 Z M1079.546,331 L1079.546,367 L1075.85,367 L1075.85,331 L1079.546,331 Z M1095.566,333.832 C1092.686,333.832 1090.67,334.792 1090.67,338.296 L1090.67,343.624 L1096.526,343.624 L1096.526,346.936 L1090.67,346.936 L1090.67,367 L1086.974,367 L1086.974,346.936 L1083.614,346.936 L1083.614,343.624 L1086.974,343.624 L1086.974,338.056 C1086.974,332.728 1090.19,330.472 1094.702,330.472 C1095.854,330.472 1096.766,330.616 1097.63,330.856 L1097.63,333.976 C1096.862,333.88 1096.19,333.832 1095.566,333.832 Z M509.066,388 L512.762,388 L512.762,424 L509.258,424 L509.258,420.256 C507.434,422.944 504.122,424.528 500.426,424.528 C493.754,424.528 488.858,419.2 488.858,412.336 C488.858,405.424 493.754,400.096 500.426,400.096 C503.978,400.096 507.194,401.584 509.066,404.08 L509.066,388 Z M500.954,421.12 C504.986,421.12 509.114,418.48 509.114,412.336 C509.114,406.192 504.986,403.504 500.954,403.504 C496.202,403.504 492.65,407.2 492.65,412.288 C492.65,417.376 496.154,421.12 500.954,421.12 Z M540.542,410.656 C540.542,411.904 540.35,413.008 540.254,413.44 L521.822,413.44 C522.302,418.096 525.758,421.12 530.366,421.12 C533.294,421.12 535.598,419.872 537.518,417.952 L539.678,420.448 C537.326,422.944 534.158,424.528 530.318,424.528 C523.262,424.528 517.934,419.2 517.934,412.336 C517.934,405.52 523.166,400.096 529.886,400.096 C535.886,400.096 540.542,404.416 540.542,410.656 Z M529.79,403.456 C525.854,403.456 522.734,406.144 521.966,410.176 L536.75,410.176 C536.702,405.856 533.534,403.456 529.79,403.456 Z M552.818,400.096 C556.178,400.096 558.818,401.536 560.642,403.792 L558.386,406.096 C556.85,404.512 554.834,403.504 552.626,403.504 C550.418,403.504 548.738,404.512 548.738,406.432 C548.738,408.016 549.938,408.784 552.53,409.84 L554.69,410.752 C558.914,412.528 560.882,414.352 560.882,417.664 C560.882,422.224 556.994,424.528 552.674,424.528 C548.546,424.528 545.426,422.464 543.554,419.968 L545.906,417.52 C547.826,419.536 549.794,421.12 552.626,421.12 C555.074,421.12 557.09,419.92 557.09,417.808 C557.09,415.792 555.362,415.024 553.01,414.064 L550.754,413.104 C547.202,411.616 544.946,409.984 544.946,406.624 C544.946,402.4 548.546,400.096 552.818,400.096 Z M568.166,389.008 C569.654,389.008 570.902,390.208 570.902,391.696 C570.902,393.232 569.654,394.384 568.166,394.384 C566.582,394.384 565.382,393.232 565.382,391.696 C565.382,390.208 566.582,389.008 568.166,389.008 Z M569.99,400.624 L569.99,424 L566.294,424 L566.294,400.624 L569.99,400.624 Z M595.802,400.624 L599.306,400.624 L599.306,421.744 C599.306,428.944 594.746,433.168 587.93,433.168 C583.034,433.168 579.242,430.96 576.938,428.656 L579.098,426.064 C581.354,428.032 583.994,429.76 587.834,429.76 C592.586,429.76 595.61,427.12 595.61,421.936 L595.61,419.872 C593.69,422.32 590.426,423.76 586.922,423.76 C580.346,423.76 575.45,418.768 575.45,411.952 C575.45,405.184 580.346,400.096 586.922,400.096 C590.618,400.096 593.978,401.728 595.802,404.416 L595.802,400.624 Z M587.498,420.352 C591.578,420.352 595.658,417.808 595.658,411.952 C595.658,406.096 591.53,403.6 587.498,403.6 C582.746,403.6 579.194,407.056 579.194,412 C579.194,416.944 582.746,420.352 587.498,420.352 Z M616.814,400.096 C622.334,400.096 625.502,403.888 625.502,409.312 L625.502,424 L621.806,424 L621.806,409.744 C621.806,406.048 619.598,403.504 615.998,403.504 C612.398,403.504 609.854,406.096 609.854,409.744 L609.854,424 L606.158,424 L606.158,400.624 L609.614,400.624 L609.614,403.168 C611.246,401.248 613.79,400.096 616.814,400.096 Z M652.994,410.656 C652.994,411.904 652.802,413.008 652.706,413.44 L634.274,413.44 C634.754,418.096 638.21,421.12 642.818,421.12 C645.746,421.12 648.05,419.872 649.97,417.952 L652.13,420.448 C649.778,422.944 646.61,424.528 642.77,424.528 C635.714,424.528 630.386,419.2 630.386,412.336 C630.386,405.52 635.618,400.096 642.338,400.096 C648.338,400.096 652.994,404.416 652.994,410.656 Z M642.242,403.456 C638.306,403.456 635.186,406.144 634.418,410.176 L649.202,410.176 C649.154,405.856 645.986,403.456 642.242,403.456 Z M676.742,388 L680.438,388 L680.438,424 L676.934,424 L676.934,420.256 C675.11,422.944 671.798,424.528 668.102,424.528 C661.43,424.528 656.534,419.2 656.534,412.336 C656.534,405.424 661.43,400.096 668.102,400.096 C671.654,400.096 674.87,401.584 676.742,404.08 L676.742,388 Z M668.63,421.12 C672.662,421.12 676.79,418.48 676.79,412.336 C676.79,406.192 672.662,403.504 668.63,403.504 C663.878,403.504 660.326,407.2 660.326,412.288 C660.326,417.376 663.83,421.12 668.63,421.12 Z M709.118,421.168 C710.03,421.168 711.038,421.072 712.238,420.88 L712.238,424 C711.038,424.288 709.838,424.528 708.35,424.528 C703.742,424.528 700.478,422.272 700.478,416.944 L700.478,403.936 L696.542,403.936 L696.542,400.624 L700.478,400.624 L700.478,394.24 L704.174,394.24 L704.174,400.624 L711.47,400.624 L711.47,403.936 L704.174,403.936 L704.174,416.704 C704.174,420.208 706.19,421.168 709.118,421.168 Z M727.202,400.096 C732.674,400.096 735.842,403.888 735.842,409.312 L735.842,424 L732.146,424 L732.146,409.792 C732.146,406.096 729.938,403.504 726.338,403.504 C722.738,403.504 720.194,406.144 720.194,409.792 L720.194,424 L716.498,424 L716.498,388 L720.194,388 L720.194,403.264 C721.73,401.296 724.178,400.096 727.202,400.096 Z M763.334,410.656 C763.334,411.904 763.142,413.008 763.046,413.44 L744.614,413.44 C745.094,418.096 748.55,421.12 753.158,421.12 C756.086,421.12 758.39,419.872 760.31,417.952 L762.47,420.448 C760.118,422.944 756.95,424.528 753.11,424.528 C746.054,424.528 740.726,419.2 740.726,412.336 C740.726,405.52 745.958,400.096 752.678,400.096 C758.678,400.096 763.334,404.416 763.334,410.656 Z M752.582,403.456 C748.646,403.456 745.526,406.144 744.758,410.176 L759.542,410.176 C759.494,405.856 756.326,403.456 752.582,403.456 Z M810.83,400.624 L814.766,400.624 L804.926,424.528 L803.582,424.528 L795.614,406.864 L787.694,424.528 L786.398,424.528 L776.462,400.624 L780.398,400.624 L787.118,417.904 L794.942,400.096 L796.334,400.096 L804.206,417.808 L810.83,400.624 Z M838.85,410.656 C838.85,411.904 838.658,413.008 838.562,413.44 L820.13,413.44 C820.61,418.096 824.066,421.12 828.674,421.12 C831.602,421.12 833.906,419.872 835.826,417.952 L837.986,420.448 C835.634,422.944 832.466,424.528 828.626,424.528 C821.57,424.528 816.242,419.2 816.242,412.336 C816.242,405.52 821.474,400.096 828.194,400.096 C834.194,400.096 838.85,404.416 838.85,410.656 Z M828.098,403.456 C824.162,403.456 821.042,406.144 820.274,410.176 L835.058,410.176 C835.01,405.856 831.842,403.456 828.098,403.456 Z M856.358,400.096 C863.03,400.096 867.926,405.424 867.926,412.336 C867.926,419.2 863.078,424.528 856.406,424.528 C852.758,424.528 849.35,422.944 847.526,420.256 L847.526,424 L844.07,424 L844.07,388 L847.766,388 L847.766,404.08 C849.59,401.632 852.806,400.096 856.358,400.096 Z M855.83,421.12 C860.63,421.12 864.134,417.376 864.134,412.288 C864.134,407.2 860.582,403.504 855.83,403.504 C851.75,403.504 847.718,406.192 847.718,412.336 C847.718,418.48 851.798,421.12 855.83,421.12 Z M880.202,400.096 C883.562,400.096 886.202,401.536 888.026,403.792 L885.77,406.096 C884.234,404.512 882.218,403.504 880.01,403.504 C877.802,403.504 876.122,404.512 876.122,406.432 C876.122,408.016 877.322,408.784 879.914,409.84 L882.074,410.752 C886.298,412.528 888.266,414.352 888.266,417.664 C888.266,422.224 884.378,424.528 880.058,424.528 C875.93,424.528 872.81,422.464 870.938,419.968 L873.29,417.52 C875.21,419.536 877.178,421.12 880.01,421.12 C882.458,421.12 884.474,419.92 884.474,417.808 C884.474,415.792 882.746,415.024 880.394,414.064 L878.138,413.104 C874.586,411.616 872.33,409.984 872.33,406.624 C872.33,402.4 875.93,400.096 880.202,400.096 Z M895.55,389.008 C897.038,389.008 898.286,390.208 898.286,391.696 C898.286,393.232 897.038,394.384 895.55,394.384 C893.966,394.384 892.766,393.232 892.766,391.696 C892.766,390.208 893.966,389.008 895.55,389.008 Z M897.374,400.624 L897.374,424 L893.678,424 L893.678,400.624 L897.374,400.624 Z M913.874,421.168 C914.786,421.168 915.794,421.072 916.994,420.88 L916.994,424 C915.794,424.288 914.594,424.528 913.106,424.528 C908.498,424.528 905.234,422.272 905.234,416.944 L905.234,403.936 L901.298,403.936 L901.298,400.624 L905.234,400.624 L905.234,394.24 L908.93,394.24 L908.93,400.624 L916.226,400.624 L916.226,403.936 L908.93,403.936 L908.93,416.704 C908.93,420.208 910.946,421.168 913.874,421.168 Z M941.702,410.656 C941.702,411.904 941.51,413.008 941.414,413.44 L922.982,413.44 C923.462,418.096 926.918,421.12 931.526,421.12 C934.454,421.12 936.758,419.872 938.678,417.952 L940.838,420.448 C938.486,422.944 935.318,424.528 931.478,424.528 C924.422,424.528 919.094,419.2 919.094,412.336 C919.094,405.52 924.326,400.096 931.046,400.096 C937.046,400.096 941.702,404.416 941.702,410.656 Z M930.95,403.456 C927.014,403.456 923.894,406.144 923.126,410.176 L937.91,410.176 C937.862,405.856 934.694,403.456 930.95,403.456 Z M949.322,418.48 C950.954,418.48 952.346,419.728 952.346,421.504 C952.346,423.28 950.954,424.528 949.322,424.528 C947.69,424.528 946.298,423.28 946.298,421.504 C946.298,419.728 947.69,418.48 949.322,418.48 Z" id="ThisprojectfocusedondevelopingaportfoliowebsiteforthetalenteddesignerSanjanaMehra.Sheherselfdesignedthewebsite."></path>
        </g>
    </g>
</svg>