<?xml version="1.0" encoding="UTF-8"?>
<svg width="744px" height="71px" viewBox="0 0 744 71" version="1.1" xmlns="http://www.w3.org/2000/svg" xmlns:xlink="http://www.w3.org/1999/xlink">
    <!-- Generator: Sketch 53.2 (72643) - https://sketchapp.com -->
    <title>Whendeveloping,considerationtomotionwasgiveninordertogivethesiteamodernfeel.</title>
    <desc>Created with Sketch.</desc>
    <g id="Page-1" stroke="none" stroke-width="1" fill="none" fill-rule="evenodd">
        <g id="Desktop-HD-Copy-26" transform="translate(-356.000000, -2466.000000)" fill="#404648" fill-rule="nonzero">
            <path d="M387.148028,2469.56 L390.038028,2469.56 L381.538028,2492.374 L380.586028,2492.374 L373.480028,2474.558 L366.374028,2492.374 L365.422028,2492.374 L356.888028,2469.56 L359.812028,2469.56 L366.000028,2486.662 L373.004028,2469.186 L373.956028,2469.186 L380.960028,2486.662 L387.148028,2469.56 Z M402.032708,2475.068 C405.908708,2475.068 408.152708,2477.754 408.152708,2481.596 L408.152708,2492 L405.534708,2492 L405.534708,2481.936 C405.534708,2479.318 403.970708,2477.482 401.420708,2477.482 C398.870708,2477.482 397.068708,2479.352 397.068708,2481.936 L397.068708,2492 L394.450708,2492 L394.450708,2466.5 L397.068708,2466.5 L397.068708,2477.312 C398.156708,2475.918 399.890708,2475.068 402.032708,2475.068 Z M428.477389,2482.548 C428.477389,2483.432 428.341389,2484.214 428.273389,2484.52 L415.217389,2484.52 C415.557389,2487.818 418.005389,2489.96 421.269389,2489.96 C423.343389,2489.96 424.975389,2489.076 426.335389,2487.716 L427.865389,2489.484 C426.199389,2491.252 423.955389,2492.374 421.235389,2492.374 C416.237389,2492.374 412.463389,2488.6 412.463389,2483.738 C412.463389,2478.91 416.169389,2475.068 420.929389,2475.068 C425.179389,2475.068 428.477389,2478.128 428.477389,2482.548 Z M420.861389,2477.448 C418.073389,2477.448 415.863389,2479.352 415.319389,2482.208 L425.791389,2482.208 C425.757389,2479.148 423.513389,2477.448 420.861389,2477.448 Z M440.574069,2475.068 C444.484069,2475.068 446.728069,2477.754 446.728069,2481.596 L446.728069,2492 L444.110069,2492 L444.110069,2481.902 C444.110069,2479.284 442.546069,2477.482 439.996069,2477.482 C437.446069,2477.482 435.644069,2479.318 435.644069,2481.902 L435.644069,2492 L433.026069,2492 L433.026069,2475.442 L435.474069,2475.442 L435.474069,2477.244 C436.630069,2475.884 438.432069,2475.068 440.574069,2475.068 Z M474.83143,2466.5 L477.44943,2466.5 L477.44943,2492 L474.96743,2492 L474.96743,2489.348 C473.67543,2491.252 471.32943,2492.374 468.71143,2492.374 C463.98543,2492.374 460.51743,2488.6 460.51743,2483.738 C460.51743,2478.842 463.98543,2475.068 468.71143,2475.068 C471.22743,2475.068 473.50543,2476.122 474.83143,2477.89 L474.83143,2466.5 Z M469.08543,2489.96 C471.94143,2489.96 474.86543,2488.09 474.86543,2483.738 C474.86543,2479.386 471.94143,2477.482 469.08543,2477.482 C465.71943,2477.482 463.20343,2480.1 463.20343,2483.704 C463.20343,2487.308 465.68543,2489.96 469.08543,2489.96 Z M497.978111,2482.548 C497.978111,2483.432 497.842111,2484.214 497.774111,2484.52 L484.718111,2484.52 C485.058111,2487.818 487.506111,2489.96 490.770111,2489.96 C492.844111,2489.96 494.476111,2489.076 495.836111,2487.716 L497.366111,2489.484 C495.700111,2491.252 493.456111,2492.374 490.736111,2492.374 C485.738111,2492.374 481.964111,2488.6 481.964111,2483.738 C481.964111,2478.91 485.670111,2475.068 490.430111,2475.068 C494.680111,2475.068 497.978111,2478.128 497.978111,2482.548 Z M490.362111,2477.448 C487.574111,2477.448 485.364111,2479.352 484.820111,2482.208 L495.292111,2482.208 C495.258111,2479.148 493.014111,2477.448 490.362111,2477.448 Z M513.610792,2475.442 L516.398792,2475.442 L508.612792,2492.374 L507.660792,2492.374 L499.840792,2475.442 L502.628792,2475.442 L508.136792,2487.92 L513.610792,2475.442 Z M534.275472,2482.548 C534.275472,2483.432 534.139472,2484.214 534.071472,2484.52 L521.015472,2484.52 C521.355472,2487.818 523.803472,2489.96 527.067472,2489.96 C529.141472,2489.96 530.773472,2489.076 532.133472,2487.716 L533.663472,2489.484 C531.997472,2491.252 529.753472,2492.374 527.033472,2492.374 C522.035472,2492.374 518.261472,2488.6 518.261472,2483.738 C518.261472,2478.91 521.967472,2475.068 526.727472,2475.068 C530.977472,2475.068 534.275472,2478.128 534.275472,2482.548 Z M526.659472,2477.448 C523.871472,2477.448 521.661472,2479.352 521.117472,2482.208 L531.589472,2482.208 C531.555472,2479.148 529.311472,2477.448 526.659472,2477.448 Z M541.442153,2466.5 L541.442153,2492 L538.824153,2492 L538.824153,2466.5 L541.442153,2466.5 Z M554.626833,2475.068 C559.420833,2475.068 563.296833,2478.842 563.296833,2483.704 C563.296833,2488.532 559.420833,2492.34 554.592833,2492.34 C549.798833,2492.306 545.956833,2488.566 545.956833,2483.704 C545.956833,2478.842 549.764833,2475.068 554.626833,2475.068 Z M554.626833,2477.482 C551.158833,2477.482 548.608833,2480.202 548.642833,2483.738 C548.642833,2487.24 551.158833,2489.926 554.592833,2489.926 C558.026833,2489.926 560.610833,2487.206 560.610833,2483.738 C560.610833,2480.168 558.026833,2477.482 554.626833,2477.482 Z M576.549514,2475.068 C581.309514,2475.068 584.743514,2478.842 584.743514,2483.704 C584.743514,2488.6 581.275514,2492.374 576.549514,2492.374 C574.101514,2492.374 571.789514,2491.354 570.463514,2489.586 L570.463514,2498.12 L567.845514,2498.12 L567.845514,2475.442 L570.293514,2475.442 L570.293514,2478.094 C571.585514,2476.19 573.931514,2475.068 576.549514,2475.068 Z M576.175514,2489.96 C579.541514,2489.96 582.057514,2487.342 582.057514,2483.738 C582.057514,2480.134 579.575514,2477.482 576.175514,2477.482 C573.319514,2477.482 570.429514,2479.352 570.429514,2483.704 C570.429514,2488.056 573.285514,2489.96 576.175514,2489.96 Z M590.618194,2467.214 C591.672194,2467.214 592.556194,2468.064 592.556194,2469.118 C592.556194,2470.206 591.672194,2471.022 590.618194,2471.022 C589.496194,2471.022 588.646194,2470.206 588.646194,2469.118 C588.646194,2468.064 589.496194,2467.214 590.618194,2467.214 Z M591.910194,2475.442 L591.910194,2492 L589.292194,2492 L589.292194,2475.442 L591.910194,2475.442 Z M605.162875,2475.068 C609.072875,2475.068 611.316875,2477.754 611.316875,2481.596 L611.316875,2492 L608.698875,2492 L608.698875,2481.902 C608.698875,2479.284 607.134875,2477.482 604.584875,2477.482 C602.034875,2477.482 600.232875,2479.318 600.232875,2481.902 L600.232875,2492 L597.614875,2492 L597.614875,2475.442 L600.062875,2475.442 L600.062875,2477.244 C601.218875,2475.884 603.020875,2475.068 605.162875,2475.068 Z M630.247556,2475.442 L632.729556,2475.442 L632.729556,2490.402 C632.729556,2495.502 629.499556,2498.494 624.671556,2498.494 C621.203556,2498.494 618.517556,2496.93 616.885556,2495.298 L618.415556,2493.462 C620.013556,2494.856 621.883556,2496.08 624.603556,2496.08 C627.969556,2496.08 630.111556,2494.21 630.111556,2490.538 L630.111556,2489.076 C628.751556,2490.81 626.439556,2491.83 623.957556,2491.83 C619.299556,2491.83 615.831556,2488.294 615.831556,2483.466 C615.831556,2478.672 619.299556,2475.068 623.957556,2475.068 C626.575556,2475.068 628.955556,2476.224 630.247556,2478.128 L630.247556,2475.442 Z M624.365556,2489.416 C627.255556,2489.416 630.145556,2487.614 630.145556,2483.466 C630.145556,2479.318 627.221556,2477.55 624.365556,2477.55 C620.999556,2477.55 618.483556,2479.998 618.483556,2483.5 C618.483556,2487.002 620.999556,2489.416 624.365556,2489.416 Z M641.970236,2488.94 L640.576236,2498.086 L638.434236,2498.086 L638.876236,2488.94 L641.970236,2488.94 Z M664.531597,2475.068 C667.523597,2475.068 669.903597,2476.496 671.365597,2478.672 L669.495597,2480.168 C668.271597,2478.536 666.707597,2477.482 664.565597,2477.482 C661.097597,2477.482 658.547597,2480.236 658.547597,2483.704 C658.547597,2487.206 661.097597,2489.96 664.565597,2489.96 C666.673597,2489.96 668.237597,2488.94 669.461597,2487.308 L671.331597,2488.77 C669.869597,2490.946 667.489597,2492.374 664.531597,2492.374 C659.703597,2492.374 655.861597,2488.566 655.861597,2483.704 C655.861597,2478.876 659.703597,2475.068 664.531597,2475.068 Z M682.884278,2475.068 C687.678278,2475.068 691.554278,2478.842 691.554278,2483.704 C691.554278,2488.532 687.678278,2492.34 682.850278,2492.34 C678.056278,2492.306 674.214278,2488.566 674.214278,2483.704 C674.214278,2478.842 678.022278,2475.068 682.884278,2475.068 Z M682.884278,2477.482 C679.416278,2477.482 676.866278,2480.202 676.900278,2483.738 C676.900278,2487.24 679.416278,2489.926 682.850278,2489.926 C686.284278,2489.926 688.868278,2487.206 688.868278,2483.738 C688.868278,2480.168 686.284278,2477.482 682.884278,2477.482 Z M703.650958,2475.068 C707.560958,2475.068 709.804958,2477.754 709.804958,2481.596 L709.804958,2492 L707.186958,2492 L707.186958,2481.902 C707.186958,2479.284 705.622958,2477.482 703.072958,2477.482 C700.522958,2477.482 698.720958,2479.318 698.720958,2481.902 L698.720958,2492 L696.102958,2492 L696.102958,2475.442 L698.550958,2475.442 L698.550958,2477.244 C699.706958,2475.884 701.508958,2475.068 703.650958,2475.068 Z M720.303639,2475.068 C722.683639,2475.068 724.553639,2476.088 725.845639,2477.686 L724.247639,2479.318 C723.159639,2478.196 721.731639,2477.482 720.167639,2477.482 C718.603639,2477.482 717.413639,2478.196 717.413639,2479.556 C717.413639,2480.678 718.263639,2481.222 720.099639,2481.97 L721.629639,2482.616 C724.621639,2483.874 726.015639,2485.166 726.015639,2487.512 C726.015639,2490.742 723.261639,2492.374 720.201639,2492.374 C717.277639,2492.374 715.067639,2490.912 713.741639,2489.144 L715.407639,2487.41 C716.767639,2488.838 718.161639,2489.96 720.167639,2489.96 C721.901639,2489.96 723.329639,2489.11 723.329639,2487.614 C723.329639,2486.186 722.105639,2485.642 720.439639,2484.962 L718.841639,2484.282 C716.325639,2483.228 714.727639,2482.072 714.727639,2479.692 C714.727639,2476.7 717.277639,2475.068 720.303639,2475.068 Z M732.026319,2467.214 C733.080319,2467.214 733.964319,2468.064 733.964319,2469.118 C733.964319,2470.206 733.080319,2471.022 732.026319,2471.022 C730.904319,2471.022 730.054319,2470.206 730.054319,2469.118 C730.054319,2468.064 730.904319,2467.214 732.026319,2467.214 Z M733.318319,2475.442 L733.318319,2492 L730.700319,2492 L730.700319,2475.442 L733.318319,2475.442 Z M752.147,2466.5 L754.765,2466.5 L754.765,2492 L752.283,2492 L752.283,2489.348 C750.991,2491.252 748.645,2492.374 746.027,2492.374 C741.301,2492.374 737.833,2488.6 737.833,2483.738 C737.833,2478.842 741.301,2475.068 746.027,2475.068 C748.543,2475.068 750.821,2476.122 752.147,2477.89 L752.147,2466.5 Z M746.401,2489.96 C749.257,2489.96 752.181,2488.09 752.181,2483.738 C752.181,2479.386 749.257,2477.482 746.401,2477.482 C743.035,2477.482 740.519,2480.1 740.519,2483.704 C740.519,2487.308 743.001,2489.96 746.401,2489.96 Z M775.293681,2482.548 C775.293681,2483.432 775.157681,2484.214 775.089681,2484.52 L762.033681,2484.52 C762.373681,2487.818 764.821681,2489.96 768.085681,2489.96 C770.159681,2489.96 771.791681,2489.076 773.151681,2487.716 L774.681681,2489.484 C773.015681,2491.252 770.771681,2492.374 768.051681,2492.374 C763.053681,2492.374 759.279681,2488.6 759.279681,2483.738 C759.279681,2478.91 762.985681,2475.068 767.745681,2475.068 C771.995681,2475.068 775.293681,2478.128 775.293681,2482.548 Z M767.677681,2477.448 C764.889681,2477.448 762.679681,2479.352 762.135681,2482.208 L772.607681,2482.208 C772.573681,2479.148 770.329681,2477.448 767.677681,2477.448 Z M787.424361,2475.306 C787.968361,2475.306 788.308361,2475.374 788.648361,2475.442 L788.648361,2477.754 L787.662361,2477.754 C784.976361,2477.754 782.460361,2479.454 782.460361,2482.616 L782.460361,2492 L779.842361,2492 L779.842361,2475.442 L782.290361,2475.442 L782.290361,2477.822 C783.514361,2476.19 785.452361,2475.306 787.424361,2475.306 Z M797.719042,2475.068 C801.493042,2475.068 804.179042,2477.346 804.179042,2481.8 L804.179042,2492 L801.731042,2492 L801.731042,2489.858 C800.541042,2491.456 798.603042,2492.374 796.155042,2492.374 C792.823042,2492.374 790.375042,2490.606 790.375042,2487.716 C790.375042,2484.928 792.721042,2483.092 796.325042,2483.092 L801.561042,2483.092 L801.561042,2481.664 C801.561042,2478.876 799.997042,2477.482 797.549042,2477.482 C795.475042,2477.482 794.013042,2478.468 792.721042,2480.134 L790.987042,2478.706 C792.551042,2476.19 795.067042,2475.068 797.719042,2475.068 Z M796.495042,2490.198 C799.215042,2490.198 801.561042,2488.226 801.561042,2485.642 L801.561042,2485.234 L796.631042,2485.234 C794.319042,2485.234 793.061042,2486.016 793.061042,2487.58 C793.061042,2489.348 794.659042,2490.198 796.495042,2490.198 Z M816.513722,2489.994 C817.159722,2489.994 817.873722,2489.926 818.723722,2489.79 L818.723722,2492 C817.873722,2492.204 817.023722,2492.374 815.969722,2492.374 C812.705722,2492.374 810.393722,2490.776 810.393722,2487.002 L810.393722,2477.788 L807.605722,2477.788 L807.605722,2475.442 L810.393722,2475.442 L810.393722,2470.92 L813.011722,2470.92 L813.011722,2475.442 L818.179722,2475.442 L818.179722,2477.788 L813.011722,2477.788 L813.011722,2486.832 C813.011722,2489.314 814.439722,2489.994 816.513722,2489.994 Z M823.918403,2467.214 C824.972403,2467.214 825.856403,2468.064 825.856403,2469.118 C825.856403,2470.206 824.972403,2471.022 823.918403,2471.022 C822.796403,2471.022 821.946403,2470.206 821.946403,2469.118 C821.946403,2468.064 822.796403,2467.214 823.918403,2467.214 Z M825.210403,2475.442 L825.210403,2492 L822.592403,2492 L822.592403,2475.442 L825.210403,2475.442 Z M838.395083,2475.068 C843.189083,2475.068 847.065083,2478.842 847.065083,2483.704 C847.065083,2488.532 843.189083,2492.34 838.361083,2492.34 C833.567083,2492.306 829.725083,2488.566 829.725083,2483.704 C829.725083,2478.842 833.533083,2475.068 838.395083,2475.068 Z M838.395083,2477.482 C834.927083,2477.482 832.377083,2480.202 832.411083,2483.738 C832.411083,2487.24 834.927083,2489.926 838.361083,2489.926 C841.795083,2489.926 844.379083,2487.206 844.379083,2483.738 C844.379083,2480.168 841.795083,2477.482 838.395083,2477.482 Z M859.161764,2475.068 C863.071764,2475.068 865.315764,2477.754 865.315764,2481.596 L865.315764,2492 L862.697764,2492 L862.697764,2481.902 C862.697764,2479.284 861.133764,2477.482 858.583764,2477.482 C856.033764,2477.482 854.231764,2479.318 854.231764,2481.902 L854.231764,2492 L851.613764,2492 L851.613764,2475.442 L854.061764,2475.442 L854.061764,2477.244 C855.217764,2475.884 857.019764,2475.068 859.161764,2475.068 Z M887.129125,2489.994 C887.775125,2489.994 888.489125,2489.926 889.339125,2489.79 L889.339125,2492 C888.489125,2492.204 887.639125,2492.374 886.585125,2492.374 C883.321125,2492.374 881.009125,2490.776 881.009125,2487.002 L881.009125,2477.788 L878.221125,2477.788 L878.221125,2475.442 L881.009125,2475.442 L881.009125,2470.92 L883.627125,2470.92 L883.627125,2475.442 L888.795125,2475.442 L888.795125,2477.788 L883.627125,2477.788 L883.627125,2486.832 C883.627125,2489.314 885.055125,2489.994 887.129125,2489.994 Z M900.347806,2475.068 C905.141806,2475.068 909.017806,2478.842 909.017806,2483.704 C909.017806,2488.532 905.141806,2492.34 900.313806,2492.34 C895.519806,2492.306 891.677806,2488.566 891.677806,2483.704 C891.677806,2478.842 895.485806,2475.068 900.347806,2475.068 Z M900.347806,2477.482 C896.879806,2477.482 894.329806,2480.202 894.363806,2483.738 C894.363806,2487.24 896.879806,2489.926 900.313806,2489.926 C903.747806,2489.926 906.331806,2487.206 906.331806,2483.738 C906.331806,2480.168 903.747806,2477.482 900.347806,2477.482 Z M941.201167,2475.068 C945.077167,2475.068 947.219167,2477.754 947.219167,2481.596 L947.219167,2492 L944.601167,2492 L944.601167,2481.936 C944.601167,2479.318 943.173167,2477.482 940.691167,2477.482 C938.175167,2477.482 936.441167,2479.386 936.441167,2481.698 L936.441167,2492 L933.823167,2492 L933.823167,2481.936 C933.823167,2479.318 932.327167,2477.482 929.879167,2477.482 C927.363167,2477.482 925.663167,2479.318 925.663167,2481.936 L925.663167,2492 L923.045167,2492 L923.045167,2475.442 L925.493167,2475.442 L925.493167,2477.176 C926.649167,2475.85 928.349167,2475.068 930.423167,2475.068 C932.905167,2475.068 934.605167,2476.19 935.523167,2477.924 C936.679167,2476.258 938.651167,2475.068 941.201167,2475.068 Z M960.199847,2475.068 C964.993847,2475.068 968.869847,2478.842 968.869847,2483.704 C968.869847,2488.532 964.993847,2492.34 960.165847,2492.34 C955.371847,2492.306 951.529847,2488.566 951.529847,2483.704 C951.529847,2478.842 955.337847,2475.068 960.199847,2475.068 Z M960.199847,2477.482 C956.731847,2477.482 954.181847,2480.202 954.215847,2483.738 C954.215847,2487.24 956.731847,2489.926 960.165847,2489.926 C963.599847,2489.926 966.183847,2487.206 966.183847,2483.738 C966.183847,2480.168 963.599847,2477.482 960.199847,2477.482 Z M980.252528,2489.994 C980.898528,2489.994 981.612528,2489.926 982.462528,2489.79 L982.462528,2492 C981.612528,2492.204 980.762528,2492.374 979.708528,2492.374 C976.444528,2492.374 974.132528,2490.776 974.132528,2487.002 L974.132528,2477.788 L971.344528,2477.788 L971.344528,2475.442 L974.132528,2475.442 L974.132528,2470.92 L976.750528,2470.92 L976.750528,2475.442 L981.918528,2475.442 L981.918528,2477.788 L976.750528,2477.788 L976.750528,2486.832 C976.750528,2489.314 978.178528,2489.994 980.252528,2489.994 Z M987.657208,2467.214 C988.711208,2467.214 989.595208,2468.064 989.595208,2469.118 C989.595208,2470.206 988.711208,2471.022 987.657208,2471.022 C986.535208,2471.022 985.685208,2470.206 985.685208,2469.118 C985.685208,2468.064 986.535208,2467.214 987.657208,2467.214 Z M988.949208,2475.442 L988.949208,2492 L986.331208,2492 L986.331208,2475.442 L988.949208,2475.442 Z M1002.13389,2475.068 C1006.92789,2475.068 1010.80389,2478.842 1010.80389,2483.704 C1010.80389,2488.532 1006.92789,2492.34 1002.09989,2492.34 C997.305889,2492.306 993.463889,2488.566 993.463889,2483.704 C993.463889,2478.842 997.271889,2475.068 1002.13389,2475.068 Z M1002.13389,2477.482 C998.665889,2477.482 996.115889,2480.202 996.149889,2483.738 C996.149889,2487.24 998.665889,2489.926 1002.09989,2489.926 C1005.53389,2489.926 1008.11789,2487.206 1008.11789,2483.738 C1008.11789,2480.168 1005.53389,2477.482 1002.13389,2477.482 Z M1022.90057,2475.068 C1026.81057,2475.068 1029.05457,2477.754 1029.05457,2481.596 L1029.05457,2492 L1026.43657,2492 L1026.43657,2481.902 C1026.43657,2479.284 1024.87257,2477.482 1022.32257,2477.482 C1019.77257,2477.482 1017.97057,2479.318 1017.97057,2481.902 L1017.97057,2492 L1015.35257,2492 L1015.35257,2475.442 L1017.80057,2475.442 L1017.80057,2477.244 C1018.95657,2475.884 1020.75857,2475.068 1022.90057,2475.068 Z M1065.35193,2475.442 L1068.13993,2475.442 L1061.16993,2492.374 L1060.21793,2492.374 L1054.57393,2479.862 L1048.96393,2492.374 L1048.04593,2492.374 L1041.00793,2475.442 L1043.79593,2475.442 L1048.55593,2487.682 L1054.09793,2475.068 L1055.08393,2475.068 L1060.65993,2487.614 L1065.35193,2475.442 Z M1077.17661,2475.068 C1080.95061,2475.068 1083.63661,2477.346 1083.63661,2481.8 L1083.63661,2492 L1081.18861,2492 L1081.18861,2489.858 C1079.99861,2491.456 1078.06061,2492.374 1075.61261,2492.374 C1072.28061,2492.374 1069.83261,2490.606 1069.83261,2487.716 C1069.83261,2484.928 1072.17861,2483.092 1075.78261,2483.092 L1081.01861,2483.092 L1081.01861,2481.664 C1081.01861,2478.876 1079.45461,2477.482 1077.00661,2477.482 C1074.93261,2477.482 1073.47061,2478.468 1072.17861,2480.134 L1070.44461,2478.706 C1072.00861,2476.19 1074.52461,2475.068 1077.17661,2475.068 Z M1075.95261,2490.198 C1078.67261,2490.198 1081.01861,2488.226 1081.01861,2485.642 L1081.01861,2485.234 L1076.08861,2485.234 C1073.77661,2485.234 1072.51861,2486.016 1072.51861,2487.58 C1072.51861,2489.348 1074.11661,2490.198 1075.95261,2490.198 Z M1094.13529,2475.068 C1096.51529,2475.068 1098.38529,2476.088 1099.67729,2477.686 L1098.07929,2479.318 C1096.99129,2478.196 1095.56329,2477.482 1093.99929,2477.482 C1092.43529,2477.482 1091.24529,2478.196 1091.24529,2479.556 C1091.24529,2480.678 1092.09529,2481.222 1093.93129,2481.97 L1095.46129,2482.616 C1098.45329,2483.874 1099.84729,2485.166 1099.84729,2487.512 C1099.84729,2490.742 1097.09329,2492.374 1094.03329,2492.374 C1091.10929,2492.374 1088.89929,2490.912 1087.57329,2489.144 L1089.23929,2487.41 C1090.59929,2488.838 1091.99329,2489.96 1093.99929,2489.96 C1095.73329,2489.96 1097.16129,2489.11 1097.16129,2487.614 C1097.16129,2486.186 1095.93729,2485.642 1094.27129,2484.962 L1092.67329,2484.282 C1090.15729,2483.228 1088.55929,2482.072 1088.55929,2479.692 C1088.55929,2476.7 1091.10929,2475.068 1094.13529,2475.068 Z M395.298347,2513.442 L397.780347,2513.442 L397.780347,2528.402 C397.780347,2533.502 394.550347,2536.494 389.722347,2536.494 C386.254347,2536.494 383.568347,2534.93 381.936347,2533.298 L383.466347,2531.462 C385.064347,2532.856 386.934347,2534.08 389.654347,2534.08 C393.020347,2534.08 395.162347,2532.21 395.162347,2528.538 L395.162347,2527.076 C393.802347,2528.81 391.490347,2529.83 389.008347,2529.83 C384.350347,2529.83 380.882347,2526.294 380.882347,2521.466 C380.882347,2516.672 384.350347,2513.068 389.008347,2513.068 C391.626347,2513.068 394.006347,2514.224 395.298347,2516.128 L395.298347,2513.442 Z M389.416347,2527.416 C392.306347,2527.416 395.196347,2525.614 395.196347,2521.466 C395.196347,2517.318 392.272347,2515.55 389.416347,2515.55 C386.050347,2515.55 383.534347,2517.998 383.534347,2521.5 C383.534347,2525.002 386.050347,2527.416 389.416347,2527.416 Z M404.811028,2505.214 C405.865028,2505.214 406.749028,2506.064 406.749028,2507.118 C406.749028,2508.206 405.865028,2509.022 404.811028,2509.022 C403.689028,2509.022 402.839028,2508.206 402.839028,2507.118 C402.839028,2506.064 403.689028,2505.214 404.811028,2505.214 Z M406.103028,2513.442 L406.103028,2530 L403.485028,2530 L403.485028,2513.442 L406.103028,2513.442 Z M423.571708,2513.442 L426.359708,2513.442 L418.573708,2530.374 L417.621708,2530.374 L409.801708,2513.442 L412.589708,2513.442 L418.097708,2525.92 L423.571708,2513.442 Z M444.236389,2520.548 C444.236389,2521.432 444.100389,2522.214 444.032389,2522.52 L430.976389,2522.52 C431.316389,2525.818 433.764389,2527.96 437.028389,2527.96 C439.102389,2527.96 440.734389,2527.076 442.094389,2525.716 L443.624389,2527.484 C441.958389,2529.252 439.714389,2530.374 436.994389,2530.374 C431.996389,2530.374 428.222389,2526.6 428.222389,2521.738 C428.222389,2516.91 431.928389,2513.068 436.688389,2513.068 C440.938389,2513.068 444.236389,2516.128 444.236389,2520.548 Z M436.620389,2515.448 C433.832389,2515.448 431.622389,2517.352 431.078389,2520.208 L441.550389,2520.208 C441.516389,2517.148 439.272389,2515.448 436.620389,2515.448 Z M456.333069,2513.068 C460.243069,2513.068 462.487069,2515.754 462.487069,2519.596 L462.487069,2530 L459.869069,2530 L459.869069,2519.902 C459.869069,2517.284 458.305069,2515.482 455.755069,2515.482 C453.205069,2515.482 451.403069,2517.318 451.403069,2519.902 L451.403069,2530 L448.785069,2530 L448.785069,2513.442 L451.233069,2513.442 L451.233069,2515.244 C452.389069,2513.884 454.191069,2513.068 456.333069,2513.068 Z M478.79243,2505.214 C479.84643,2505.214 480.73043,2506.064 480.73043,2507.118 C480.73043,2508.206 479.84643,2509.022 478.79243,2509.022 C477.67043,2509.022 476.82043,2508.206 476.82043,2507.118 C476.82043,2506.064 477.67043,2505.214 478.79243,2505.214 Z M480.08443,2513.442 L480.08443,2530 L477.46643,2530 L477.46643,2513.442 L480.08443,2513.442 Z M493.337111,2513.068 C497.247111,2513.068 499.491111,2515.754 499.491111,2519.596 L499.491111,2530 L496.873111,2530 L496.873111,2519.902 C496.873111,2517.284 495.309111,2515.482 492.759111,2515.482 C490.209111,2515.482 488.407111,2517.318 488.407111,2519.902 L488.407111,2530 L485.789111,2530 L485.789111,2513.442 L488.237111,2513.442 L488.237111,2515.244 C489.393111,2513.884 491.195111,2513.068 493.337111,2513.068 Z M521.950472,2513.068 C526.744472,2513.068 530.620472,2516.842 530.620472,2521.704 C530.620472,2526.532 526.744472,2530.34 521.916472,2530.34 C517.122472,2530.306 513.280472,2526.566 513.280472,2521.704 C513.280472,2516.842 517.088472,2513.068 521.950472,2513.068 Z M521.950472,2515.482 C518.482472,2515.482 515.932472,2518.202 515.966472,2521.738 C515.966472,2525.24 518.482472,2527.926 521.916472,2527.926 C525.350472,2527.926 527.934472,2525.206 527.934472,2521.738 C527.934472,2518.168 525.350472,2515.482 521.950472,2515.482 Z M542.751153,2513.306 C543.295153,2513.306 543.635153,2513.374 543.975153,2513.442 L543.975153,2515.754 L542.989153,2515.754 C540.303153,2515.754 537.787153,2517.454 537.787153,2520.616 L537.787153,2530 L535.169153,2530 L535.169153,2513.442 L537.617153,2513.442 L537.617153,2515.822 C538.841153,2514.19 540.779153,2513.306 542.751153,2513.306 Z M560.219833,2504.5 L562.837833,2504.5 L562.837833,2530 L560.355833,2530 L560.355833,2527.348 C559.063833,2529.252 556.717833,2530.374 554.099833,2530.374 C549.373833,2530.374 545.905833,2526.6 545.905833,2521.738 C545.905833,2516.842 549.373833,2513.068 554.099833,2513.068 C556.615833,2513.068 558.893833,2514.122 560.219833,2515.89 L560.219833,2504.5 Z M554.473833,2527.96 C557.329833,2527.96 560.253833,2526.09 560.253833,2521.738 C560.253833,2517.386 557.329833,2515.482 554.473833,2515.482 C551.107833,2515.482 548.591833,2518.1 548.591833,2521.704 C548.591833,2525.308 551.073833,2527.96 554.473833,2527.96 Z M583.366514,2520.548 C583.366514,2521.432 583.230514,2522.214 583.162514,2522.52 L570.106514,2522.52 C570.446514,2525.818 572.894514,2527.96 576.158514,2527.96 C578.232514,2527.96 579.864514,2527.076 581.224514,2525.716 L582.754514,2527.484 C581.088514,2529.252 578.844514,2530.374 576.124514,2530.374 C571.126514,2530.374 567.352514,2526.6 567.352514,2521.738 C567.352514,2516.91 571.058514,2513.068 575.818514,2513.068 C580.068514,2513.068 583.366514,2516.128 583.366514,2520.548 Z M575.750514,2515.448 C572.962514,2515.448 570.752514,2517.352 570.208514,2520.208 L580.680514,2520.208 C580.646514,2517.148 578.402514,2515.448 575.750514,2515.448 Z M595.497194,2513.306 C596.041194,2513.306 596.381194,2513.374 596.721194,2513.442 L596.721194,2515.754 L595.735194,2515.754 C593.049194,2515.754 590.533194,2517.454 590.533194,2520.616 L590.533194,2530 L587.915194,2530 L587.915194,2513.442 L590.363194,2513.442 L590.363194,2515.822 C591.587194,2514.19 593.525194,2513.306 595.497194,2513.306 Z M616.494556,2527.994 C617.140556,2527.994 617.854556,2527.926 618.704556,2527.79 L618.704556,2530 C617.854556,2530.204 617.004556,2530.374 615.950556,2530.374 C612.686556,2530.374 610.374556,2528.776 610.374556,2525.002 L610.374556,2515.788 L607.586556,2515.788 L607.586556,2513.442 L610.374556,2513.442 L610.374556,2508.92 L612.992556,2508.92 L612.992556,2513.442 L618.160556,2513.442 L618.160556,2515.788 L612.992556,2515.788 L612.992556,2524.832 C612.992556,2527.314 614.420556,2527.994 616.494556,2527.994 Z M629.713236,2513.068 C634.507236,2513.068 638.383236,2516.842 638.383236,2521.704 C638.383236,2526.532 634.507236,2530.34 629.679236,2530.34 C624.885236,2530.306 621.043236,2526.566 621.043236,2521.704 C621.043236,2516.842 624.851236,2513.068 629.713236,2513.068 Z M629.713236,2515.482 C626.245236,2515.482 623.695236,2518.202 623.729236,2521.738 C623.729236,2525.24 626.245236,2527.926 629.679236,2527.926 C633.113236,2527.926 635.697236,2525.206 635.697236,2521.738 C635.697236,2518.168 633.113236,2515.482 629.713236,2515.482 Z M665.840597,2513.442 L668.322597,2513.442 L668.322597,2528.402 C668.322597,2533.502 665.092597,2536.494 660.264597,2536.494 C656.796597,2536.494 654.110597,2534.93 652.478597,2533.298 L654.008597,2531.462 C655.606597,2532.856 657.476597,2534.08 660.196597,2534.08 C663.562597,2534.08 665.704597,2532.21 665.704597,2528.538 L665.704597,2527.076 C664.344597,2528.81 662.032597,2529.83 659.550597,2529.83 C654.892597,2529.83 651.424597,2526.294 651.424597,2521.466 C651.424597,2516.672 654.892597,2513.068 659.550597,2513.068 C662.168597,2513.068 664.548597,2514.224 665.840597,2516.128 L665.840597,2513.442 Z M659.958597,2527.416 C662.848597,2527.416 665.738597,2525.614 665.738597,2521.466 C665.738597,2517.318 662.814597,2515.55 659.958597,2515.55 C656.592597,2515.55 654.076597,2517.998 654.076597,2521.5 C654.076597,2525.002 656.592597,2527.416 659.958597,2527.416 Z M675.353278,2505.214 C676.407278,2505.214 677.291278,2506.064 677.291278,2507.118 C677.291278,2508.206 676.407278,2509.022 675.353278,2509.022 C674.231278,2509.022 673.381278,2508.206 673.381278,2507.118 C673.381278,2506.064 674.231278,2505.214 675.353278,2505.214 Z M676.645278,2513.442 L676.645278,2530 L674.027278,2530 L674.027278,2513.442 L676.645278,2513.442 Z M694.113958,2513.442 L696.901958,2513.442 L689.115958,2530.374 L688.163958,2530.374 L680.343958,2513.442 L683.131958,2513.442 L688.639958,2525.92 L694.113958,2513.442 Z M714.778639,2520.548 C714.778639,2521.432 714.642639,2522.214 714.574639,2522.52 L701.518639,2522.52 C701.858639,2525.818 704.306639,2527.96 707.570639,2527.96 C709.644639,2527.96 711.276639,2527.076 712.636639,2525.716 L714.166639,2527.484 C712.500639,2529.252 710.256639,2530.374 707.536639,2530.374 C702.538639,2530.374 698.764639,2526.6 698.764639,2521.738 C698.764639,2516.91 702.470639,2513.068 707.230639,2513.068 C711.480639,2513.068 714.778639,2516.128 714.778639,2520.548 Z M707.162639,2515.448 C704.374639,2515.448 702.164639,2517.352 701.620639,2520.208 L712.092639,2520.208 C712.058639,2517.148 709.814639,2515.448 707.162639,2515.448 Z M735.64,2527.994 C736.286,2527.994 737,2527.926 737.85,2527.79 L737.85,2530 C737,2530.204 736.15,2530.374 735.096,2530.374 C731.832,2530.374 729.52,2528.776 729.52,2525.002 L729.52,2515.788 L726.732,2515.788 L726.732,2513.442 L729.52,2513.442 L729.52,2508.92 L732.138,2508.92 L732.138,2513.442 L737.306,2513.442 L737.306,2515.788 L732.138,2515.788 L732.138,2524.832 C732.138,2527.314 733.566,2527.994 735.64,2527.994 Z M749.300681,2513.068 C753.176681,2513.068 755.420681,2515.754 755.420681,2519.596 L755.420681,2530 L752.802681,2530 L752.802681,2519.936 C752.802681,2517.318 751.238681,2515.482 748.688681,2515.482 C746.138681,2515.482 744.336681,2517.352 744.336681,2519.936 L744.336681,2530 L741.718681,2530 L741.718681,2504.5 L744.336681,2504.5 L744.336681,2515.312 C745.424681,2513.918 747.158681,2513.068 749.300681,2513.068 Z M775.745361,2520.548 C775.745361,2521.432 775.609361,2522.214 775.541361,2522.52 L762.485361,2522.52 C762.825361,2525.818 765.273361,2527.96 768.537361,2527.96 C770.611361,2527.96 772.243361,2527.076 773.603361,2525.716 L775.133361,2527.484 C773.467361,2529.252 771.223361,2530.374 768.503361,2530.374 C763.505361,2530.374 759.731361,2526.6 759.731361,2521.738 C759.731361,2516.91 763.437361,2513.068 768.197361,2513.068 C772.447361,2513.068 775.745361,2516.128 775.745361,2520.548 Z M768.129361,2515.448 C765.341361,2515.448 763.131361,2517.352 762.587361,2520.208 L773.059361,2520.208 C773.025361,2517.148 770.781361,2515.448 768.129361,2515.448 Z M794.770722,2513.068 C797.150722,2513.068 799.020722,2514.088 800.312722,2515.686 L798.714722,2517.318 C797.626722,2516.196 796.198722,2515.482 794.634722,2515.482 C793.070722,2515.482 791.880722,2516.196 791.880722,2517.556 C791.880722,2518.678 792.730722,2519.222 794.566722,2519.97 L796.096722,2520.616 C799.088722,2521.874 800.482722,2523.166 800.482722,2525.512 C800.482722,2528.742 797.728722,2530.374 794.668722,2530.374 C791.744722,2530.374 789.534722,2528.912 788.208722,2527.144 L789.874722,2525.41 C791.234722,2526.838 792.628722,2527.96 794.634722,2527.96 C796.368722,2527.96 797.796722,2527.11 797.796722,2525.614 C797.796722,2524.186 796.572722,2523.642 794.906722,2522.962 L793.308722,2522.282 C790.792722,2521.228 789.194722,2520.072 789.194722,2517.692 C789.194722,2514.7 791.744722,2513.068 794.770722,2513.068 Z M806.493403,2505.214 C807.547403,2505.214 808.431403,2506.064 808.431403,2507.118 C808.431403,2508.206 807.547403,2509.022 806.493403,2509.022 C805.371403,2509.022 804.521403,2508.206 804.521403,2507.118 C804.521403,2506.064 805.371403,2505.214 806.493403,2505.214 Z M807.785403,2513.442 L807.785403,2530 L805.167403,2530 L805.167403,2513.442 L807.785403,2513.442 Z M820.324083,2527.994 C820.970083,2527.994 821.684083,2527.926 822.534083,2527.79 L822.534083,2530 C821.684083,2530.204 820.834083,2530.374 819.780083,2530.374 C816.516083,2530.374 814.204083,2528.776 814.204083,2525.002 L814.204083,2515.788 L811.416083,2515.788 L811.416083,2513.442 L814.204083,2513.442 L814.204083,2508.92 L816.822083,2508.92 L816.822083,2513.442 L821.990083,2513.442 L821.990083,2515.788 L816.822083,2515.788 L816.822083,2524.832 C816.822083,2527.314 818.250083,2527.994 820.324083,2527.994 Z M840.886764,2520.548 C840.886764,2521.432 840.750764,2522.214 840.682764,2522.52 L827.626764,2522.52 C827.966764,2525.818 830.414764,2527.96 833.678764,2527.96 C835.752764,2527.96 837.384764,2527.076 838.744764,2525.716 L840.274764,2527.484 C838.608764,2529.252 836.364764,2530.374 833.644764,2530.374 C828.646764,2530.374 824.872764,2526.6 824.872764,2521.738 C824.872764,2516.91 828.578764,2513.068 833.338764,2513.068 C837.588764,2513.068 840.886764,2516.128 840.886764,2520.548 Z M833.270764,2515.448 C830.482764,2515.448 828.272764,2517.352 827.728764,2520.208 L838.200764,2520.208 C838.166764,2517.148 835.922764,2515.448 833.270764,2515.448 Z M860.864125,2513.068 C864.638125,2513.068 867.324125,2515.346 867.324125,2519.8 L867.324125,2530 L864.876125,2530 L864.876125,2527.858 C863.686125,2529.456 861.748125,2530.374 859.300125,2530.374 C855.968125,2530.374 853.520125,2528.606 853.520125,2525.716 C853.520125,2522.928 855.866125,2521.092 859.470125,2521.092 L864.706125,2521.092 L864.706125,2519.664 C864.706125,2516.876 863.142125,2515.482 860.694125,2515.482 C858.620125,2515.482 857.158125,2516.468 855.866125,2518.134 L854.132125,2516.706 C855.696125,2514.19 858.212125,2513.068 860.864125,2513.068 Z M859.640125,2528.198 C862.360125,2528.198 864.706125,2526.226 864.706125,2523.642 L864.706125,2523.234 L859.776125,2523.234 C857.464125,2523.234 856.206125,2524.016 856.206125,2525.58 C856.206125,2527.348 857.804125,2528.198 859.640125,2528.198 Z M900.459486,2513.068 C904.335486,2513.068 906.477486,2515.754 906.477486,2519.596 L906.477486,2530 L903.859486,2530 L903.859486,2519.936 C903.859486,2517.318 902.431486,2515.482 899.949486,2515.482 C897.433486,2515.482 895.699486,2517.386 895.699486,2519.698 L895.699486,2530 L893.081486,2530 L893.081486,2519.936 C893.081486,2517.318 891.585486,2515.482 889.137486,2515.482 C886.621486,2515.482 884.921486,2517.318 884.921486,2519.936 L884.921486,2530 L882.303486,2530 L882.303486,2513.442 L884.751486,2513.442 L884.751486,2515.176 C885.907486,2513.85 887.607486,2513.068 889.681486,2513.068 C892.163486,2513.068 893.863486,2514.19 894.781486,2515.924 C895.937486,2514.258 897.909486,2513.068 900.459486,2513.068 Z M919.458167,2513.068 C924.252167,2513.068 928.128167,2516.842 928.128167,2521.704 C928.128167,2526.532 924.252167,2530.34 919.424167,2530.34 C914.630167,2530.306 910.788167,2526.566 910.788167,2521.704 C910.788167,2516.842 914.596167,2513.068 919.458167,2513.068 Z M919.458167,2515.482 C915.990167,2515.482 913.440167,2518.202 913.474167,2521.738 C913.474167,2525.24 915.990167,2527.926 919.424167,2527.926 C922.858167,2527.926 925.442167,2525.206 925.442167,2521.738 C925.442167,2518.168 922.858167,2515.482 919.458167,2515.482 Z M945.800847,2504.5 L948.418847,2504.5 L948.418847,2530 L945.936847,2530 L945.936847,2527.348 C944.644847,2529.252 942.298847,2530.374 939.680847,2530.374 C934.954847,2530.374 931.486847,2526.6 931.486847,2521.738 C931.486847,2516.842 934.954847,2513.068 939.680847,2513.068 C942.196847,2513.068 944.474847,2514.122 945.800847,2515.89 L945.800847,2504.5 Z M940.054847,2527.96 C942.910847,2527.96 945.834847,2526.09 945.834847,2521.738 C945.834847,2517.386 942.910847,2515.482 940.054847,2515.482 C936.688847,2515.482 934.172847,2518.1 934.172847,2521.704 C934.172847,2525.308 936.654847,2527.96 940.054847,2527.96 Z M968.947528,2520.548 C968.947528,2521.432 968.811528,2522.214 968.743528,2522.52 L955.687528,2522.52 C956.027528,2525.818 958.475528,2527.96 961.739528,2527.96 C963.813528,2527.96 965.445528,2527.076 966.805528,2525.716 L968.335528,2527.484 C966.669528,2529.252 964.425528,2530.374 961.705528,2530.374 C956.707528,2530.374 952.933528,2526.6 952.933528,2521.738 C952.933528,2516.91 956.639528,2513.068 961.399528,2513.068 C965.649528,2513.068 968.947528,2516.128 968.947528,2520.548 Z M961.331528,2515.448 C958.543528,2515.448 956.333528,2517.352 955.789528,2520.208 L966.261528,2520.208 C966.227528,2517.148 963.983528,2515.448 961.331528,2515.448 Z M981.078208,2513.306 C981.622208,2513.306 981.962208,2513.374 982.302208,2513.442 L982.302208,2515.754 L981.316208,2515.754 C978.630208,2515.754 976.114208,2517.454 976.114208,2520.616 L976.114208,2530 L973.496208,2530 L973.496208,2513.442 L975.944208,2513.442 L975.944208,2515.822 C977.168208,2514.19 979.106208,2513.306 981.078208,2513.306 Z M993.310889,2513.068 C997.220889,2513.068 999.464889,2515.754 999.464889,2519.596 L999.464889,2530 L996.846889,2530 L996.846889,2519.902 C996.846889,2517.284 995.282889,2515.482 992.732889,2515.482 C990.182889,2515.482 988.380889,2517.318 988.380889,2519.902 L988.380889,2530 L985.762889,2530 L985.762889,2513.442 L988.210889,2513.442 L988.210889,2515.244 C989.366889,2513.884 991.168889,2513.068 993.310889,2513.068 Z M1020.93825,2506.506 C1018.89825,2506.506 1017.47025,2507.186 1017.47025,2509.668 L1017.47025,2513.442 L1021.61825,2513.442 L1021.61825,2515.788 L1017.47025,2515.788 L1017.47025,2530 L1014.85225,2530 L1014.85225,2515.788 L1012.47225,2515.788 L1012.47225,2513.442 L1014.85225,2513.442 L1014.85225,2509.498 C1014.85225,2505.724 1017.13025,2504.126 1020.32625,2504.126 C1021.14225,2504.126 1021.78825,2504.228 1022.40025,2504.398 L1022.40025,2506.608 C1021.85625,2506.54 1021.38025,2506.506 1020.93825,2506.506 Z M1039.52893,2520.548 C1039.52893,2521.432 1039.39293,2522.214 1039.32493,2522.52 L1026.26893,2522.52 C1026.60893,2525.818 1029.05693,2527.96 1032.32093,2527.96 C1034.39493,2527.96 1036.02693,2527.076 1037.38693,2525.716 L1038.91693,2527.484 C1037.25093,2529.252 1035.00693,2530.374 1032.28693,2530.374 C1027.28893,2530.374 1023.51493,2526.6 1023.51493,2521.738 C1023.51493,2516.91 1027.22093,2513.068 1031.98093,2513.068 C1036.23093,2513.068 1039.52893,2516.128 1039.52893,2520.548 Z M1031.91293,2515.448 C1029.12493,2515.448 1026.91493,2517.352 1026.37093,2520.208 L1036.84293,2520.208 C1036.80893,2517.148 1034.56493,2515.448 1031.91293,2515.448 Z M1058.90161,2520.548 C1058.90161,2521.432 1058.76561,2522.214 1058.69761,2522.52 L1045.64161,2522.52 C1045.98161,2525.818 1048.42961,2527.96 1051.69361,2527.96 C1053.76761,2527.96 1055.39961,2527.076 1056.75961,2525.716 L1058.28961,2527.484 C1056.62361,2529.252 1054.37961,2530.374 1051.65961,2530.374 C1046.66161,2530.374 1042.88761,2526.6 1042.88761,2521.738 C1042.88761,2516.91 1046.59361,2513.068 1051.35361,2513.068 C1055.60361,2513.068 1058.90161,2516.128 1058.90161,2520.548 Z M1051.28561,2515.448 C1048.49761,2515.448 1046.28761,2517.352 1045.74361,2520.208 L1056.21561,2520.208 C1056.18161,2517.148 1053.93761,2515.448 1051.28561,2515.448 Z M1066.06829,2504.5 L1066.06829,2530 L1063.45029,2530 L1063.45029,2504.5 L1066.06829,2504.5 Z M1073.47297,2526.09 C1074.62897,2526.09 1075.61497,2526.974 1075.61497,2528.232 C1075.61497,2529.49 1074.62897,2530.374 1073.47297,2530.374 C1072.31697,2530.374 1071.33097,2529.49 1071.33097,2528.232 C1071.33097,2526.974 1072.31697,2526.09 1073.47297,2526.09 Z" id="Whendeveloping,considerationtomotionwasgiveninordertogivethesiteamodernfeel."></path>
        </g>
    </g>
</svg>