<?xml version="1.0" encoding="UTF-8"?>
<svg width="637px" height="74px" viewBox="0 0 637 74" version="1.1" xmlns="http://www.w3.org/2000/svg" xmlns:xlink="http://www.w3.org/1999/xlink">
    <!-- Generator: Sketch 53.2 (72643) - https://sketchapp.com -->
    <title>ThesitewascreatedusingHTML5,CSS3,VanillaJS,andBootstrap.</title>
    <desc>Created with Sketch.</desc>
    <g id="Page-1" stroke="none" stroke-width="1" fill="none" fill-rule="evenodd">
        <g id="Desktop-HD-Copy-41" transform="translate(-401.000000, -1167.000000)" fill="#404648" fill-rule="nonzero">
            <path d="M419.589729,1170.56 L419.589729,1172.94 L411.667729,1172.94 L411.667729,1193 L409.015729,1193 L409.015729,1172.94 L401.127729,1172.94 L401.127729,1170.56 L419.589729,1170.56 Z M430.66641,1176.068 C434.54241,1176.068 436.78641,1178.754 436.78641,1182.596 L436.78641,1193 L434.16841,1193 L434.16841,1182.936 C434.16841,1180.318 432.60441,1178.482 430.05441,1178.482 C427.50441,1178.482 425.70241,1180.352 425.70241,1182.936 L425.70241,1193 L423.08441,1193 L423.08441,1167.5 L425.70241,1167.5 L425.70241,1178.312 C426.79041,1176.918 428.52441,1176.068 430.66641,1176.068 Z M457.11109,1183.548 C457.11109,1184.432 456.97509,1185.214 456.90709,1185.52 L443.85109,1185.52 C444.19109,1188.818 446.63909,1190.96 449.90309,1190.96 C451.97709,1190.96 453.60909,1190.076 454.96909,1188.716 L456.49909,1190.484 C454.83309,1192.252 452.58909,1193.374 449.86909,1193.374 C444.87109,1193.374 441.09709,1189.6 441.09709,1184.738 C441.09709,1179.91 444.80309,1176.068 449.56309,1176.068 C453.81309,1176.068 457.11109,1179.128 457.11109,1183.548 Z M449.49509,1178.448 C446.70709,1178.448 444.49709,1180.352 443.95309,1183.208 L454.42509,1183.208 C454.39109,1180.148 452.14709,1178.448 449.49509,1178.448 Z M476.136451,1176.068 C478.516451,1176.068 480.386451,1177.088 481.678451,1178.686 L480.080451,1180.318 C478.992451,1179.196 477.564451,1178.482 476.000451,1178.482 C474.436451,1178.482 473.246451,1179.196 473.246451,1180.556 C473.246451,1181.678 474.096451,1182.222 475.932451,1182.97 L477.462451,1183.616 C480.454451,1184.874 481.848451,1186.166 481.848451,1188.512 C481.848451,1191.742 479.094451,1193.374 476.034451,1193.374 C473.110451,1193.374 470.900451,1191.912 469.574451,1190.144 L471.240451,1188.41 C472.600451,1189.838 473.994451,1190.96 476.000451,1190.96 C477.734451,1190.96 479.162451,1190.11 479.162451,1188.614 C479.162451,1187.186 477.938451,1186.642 476.272451,1185.962 L474.674451,1185.282 C472.158451,1184.228 470.560451,1183.072 470.560451,1180.692 C470.560451,1177.7 473.110451,1176.068 476.136451,1176.068 Z M487.859132,1168.214 C488.913132,1168.214 489.797132,1169.064 489.797132,1170.118 C489.797132,1171.206 488.913132,1172.022 487.859132,1172.022 C486.737132,1172.022 485.887132,1171.206 485.887132,1170.118 C485.887132,1169.064 486.737132,1168.214 487.859132,1168.214 Z M489.151132,1176.442 L489.151132,1193 L486.533132,1193 L486.533132,1176.442 L489.151132,1176.442 Z M501.689812,1190.994 C502.335812,1190.994 503.049812,1190.926 503.899812,1190.79 L503.899812,1193 C503.049812,1193.204 502.199812,1193.374 501.145812,1193.374 C497.881812,1193.374 495.569812,1191.776 495.569812,1188.002 L495.569812,1178.788 L492.781812,1178.788 L492.781812,1176.442 L495.569812,1176.442 L495.569812,1171.92 L498.187812,1171.92 L498.187812,1176.442 L503.355812,1176.442 L503.355812,1178.788 L498.187812,1178.788 L498.187812,1187.832 C498.187812,1190.314 499.615812,1190.994 501.689812,1190.994 Z M522.252493,1183.548 C522.252493,1184.432 522.116493,1185.214 522.048493,1185.52 L508.992493,1185.52 C509.332493,1188.818 511.780493,1190.96 515.044493,1190.96 C517.118493,1190.96 518.750493,1190.076 520.110493,1188.716 L521.640493,1190.484 C519.974493,1192.252 517.730493,1193.374 515.010493,1193.374 C510.012493,1193.374 506.238493,1189.6 506.238493,1184.738 C506.238493,1179.91 509.944493,1176.068 514.704493,1176.068 C518.954493,1176.068 522.252493,1179.128 522.252493,1183.548 Z M514.636493,1178.448 C511.848493,1178.448 509.638493,1180.352 509.094493,1183.208 L519.566493,1183.208 C519.532493,1180.148 517.288493,1178.448 514.636493,1178.448 Z M557.597854,1176.442 L560.385854,1176.442 L553.415854,1193.374 L552.463854,1193.374 L546.819854,1180.862 L541.209854,1193.374 L540.291854,1193.374 L533.253854,1176.442 L536.041854,1176.442 L540.801854,1188.682 L546.343854,1176.068 L547.329854,1176.068 L552.905854,1188.614 L557.597854,1176.442 Z M569.422535,1176.068 C573.196535,1176.068 575.882535,1178.346 575.882535,1182.8 L575.882535,1193 L573.434535,1193 L573.434535,1190.858 C572.244535,1192.456 570.306535,1193.374 567.858535,1193.374 C564.526535,1193.374 562.078535,1191.606 562.078535,1188.716 C562.078535,1185.928 564.424535,1184.092 568.028535,1184.092 L573.264535,1184.092 L573.264535,1182.664 C573.264535,1179.876 571.700535,1178.482 569.252535,1178.482 C567.178535,1178.482 565.716535,1179.468 564.424535,1181.134 L562.690535,1179.706 C564.254535,1177.19 566.770535,1176.068 569.422535,1176.068 Z M568.198535,1191.198 C570.918535,1191.198 573.264535,1189.226 573.264535,1186.642 L573.264535,1186.234 L568.334535,1186.234 C566.022535,1186.234 564.764535,1187.016 564.764535,1188.58 C564.764535,1190.348 566.362535,1191.198 568.198535,1191.198 Z M586.381215,1176.068 C588.761215,1176.068 590.631215,1177.088 591.923215,1178.686 L590.325215,1180.318 C589.237215,1179.196 587.809215,1178.482 586.245215,1178.482 C584.681215,1178.482 583.491215,1179.196 583.491215,1180.556 C583.491215,1181.678 584.341215,1182.222 586.177215,1182.97 L587.707215,1183.616 C590.699215,1184.874 592.093215,1186.166 592.093215,1188.512 C592.093215,1191.742 589.339215,1193.374 586.279215,1193.374 C583.355215,1193.374 581.145215,1191.912 579.819215,1190.144 L581.485215,1188.41 C582.845215,1189.838 584.239215,1190.96 586.245215,1190.96 C587.979215,1190.96 589.407215,1190.11 589.407215,1188.614 C589.407215,1187.186 588.183215,1186.642 586.517215,1185.962 L584.919215,1185.282 C582.403215,1184.228 580.805215,1183.072 580.805215,1180.692 C580.805215,1177.7 583.355215,1176.068 586.381215,1176.068 Z M613.736576,1176.068 C616.728576,1176.068 619.108576,1177.496 620.570576,1179.672 L618.700576,1181.168 C617.476576,1179.536 615.912576,1178.482 613.770576,1178.482 C610.302576,1178.482 607.752576,1181.236 607.752576,1184.704 C607.752576,1188.206 610.302576,1190.96 613.770576,1190.96 C615.878576,1190.96 617.442576,1189.94 618.666576,1188.308 L620.536576,1189.77 C619.074576,1191.946 616.694576,1193.374 613.736576,1193.374 C608.908576,1193.374 605.066576,1189.566 605.066576,1184.704 C605.066576,1179.876 608.908576,1176.068 613.736576,1176.068 Z M632.531257,1176.306 C633.075257,1176.306 633.415257,1176.374 633.755257,1176.442 L633.755257,1178.754 L632.769257,1178.754 C630.083257,1178.754 627.567257,1180.454 627.567257,1183.616 L627.567257,1193 L624.949257,1193 L624.949257,1176.442 L627.397257,1176.442 L627.397257,1178.822 C628.621257,1177.19 630.559257,1176.306 632.531257,1176.306 Z M651.699937,1183.548 C651.699937,1184.432 651.563937,1185.214 651.495937,1185.52 L638.439937,1185.52 C638.779937,1188.818 641.227937,1190.96 644.491937,1190.96 C646.565937,1190.96 648.197937,1190.076 649.557937,1188.716 L651.087937,1190.484 C649.421937,1192.252 647.177937,1193.374 644.457937,1193.374 C639.459937,1193.374 635.685937,1189.6 635.685937,1184.738 C635.685937,1179.91 639.391937,1176.068 644.151937,1176.068 C648.401937,1176.068 651.699937,1179.128 651.699937,1183.548 Z M644.083937,1178.448 C641.295937,1178.448 639.085937,1180.352 638.541937,1183.208 L649.013937,1183.208 C648.979937,1180.148 646.735937,1178.448 644.083937,1178.448 Z M662.198618,1176.068 C665.972618,1176.068 668.658618,1178.346 668.658618,1182.8 L668.658618,1193 L666.210618,1193 L666.210618,1190.858 C665.020618,1192.456 663.082618,1193.374 660.634618,1193.374 C657.302618,1193.374 654.854618,1191.606 654.854618,1188.716 C654.854618,1185.928 657.200618,1184.092 660.804618,1184.092 L666.040618,1184.092 L666.040618,1182.664 C666.040618,1179.876 664.476618,1178.482 662.028618,1178.482 C659.954618,1178.482 658.492618,1179.468 657.200618,1181.134 L655.466618,1179.706 C657.030618,1177.19 659.546618,1176.068 662.198618,1176.068 Z M660.974618,1191.198 C663.694618,1191.198 666.040618,1189.226 666.040618,1186.642 L666.040618,1186.234 L661.110618,1186.234 C658.798618,1186.234 657.540618,1187.016 657.540618,1188.58 C657.540618,1190.348 659.138618,1191.198 660.974618,1191.198 Z M680.993299,1190.994 C681.639299,1190.994 682.353299,1190.926 683.203299,1190.79 L683.203299,1193 C682.353299,1193.204 681.503299,1193.374 680.449299,1193.374 C677.185299,1193.374 674.873299,1191.776 674.873299,1188.002 L674.873299,1178.788 L672.085299,1178.788 L672.085299,1176.442 L674.873299,1176.442 L674.873299,1171.92 L677.491299,1171.92 L677.491299,1176.442 L682.659299,1176.442 L682.659299,1178.788 L677.491299,1178.788 L677.491299,1187.832 C677.491299,1190.314 678.919299,1190.994 680.993299,1190.994 Z M701.555979,1183.548 C701.555979,1184.432 701.419979,1185.214 701.351979,1185.52 L688.295979,1185.52 C688.635979,1188.818 691.083979,1190.96 694.347979,1190.96 C696.421979,1190.96 698.053979,1190.076 699.413979,1188.716 L700.943979,1190.484 C699.277979,1192.252 697.033979,1193.374 694.313979,1193.374 C689.315979,1193.374 685.541979,1189.6 685.541979,1184.738 C685.541979,1179.91 689.247979,1176.068 694.007979,1176.068 C698.257979,1176.068 701.555979,1179.128 701.555979,1183.548 Z M693.939979,1178.448 C691.151979,1178.448 688.941979,1180.352 688.397979,1183.208 L698.869979,1183.208 C698.835979,1180.148 696.591979,1178.448 693.939979,1178.448 Z M719.22866,1167.5 L721.84666,1167.5 L721.84666,1193 L719.36466,1193 L719.36466,1190.348 C718.07266,1192.252 715.72666,1193.374 713.10866,1193.374 C708.38266,1193.374 704.91466,1189.6 704.91466,1184.738 C704.91466,1179.842 708.38266,1176.068 713.10866,1176.068 C715.62466,1176.068 717.90266,1177.122 719.22866,1178.89 L719.22866,1167.5 Z M713.48266,1190.96 C716.33866,1190.96 719.26266,1189.09 719.26266,1184.738 C719.26266,1180.386 716.33866,1178.482 713.48266,1178.482 C710.11666,1178.482 707.60066,1181.1 707.60066,1184.704 C707.60066,1188.308 710.08266,1190.96 713.48266,1190.96 Z M750.528021,1176.442 L750.528021,1186.404 C750.528021,1190.654 747.502021,1193.374 743.694021,1193.374 C739.818021,1193.374 736.826021,1190.654 736.826021,1186.404 L736.826021,1176.442 L739.410021,1176.442 L739.410021,1186.574 C739.410021,1189.294 741.314021,1190.96 743.694021,1190.96 C746.006021,1190.96 747.910021,1189.294 747.910021,1186.574 L747.910021,1176.442 L750.528021,1176.442 Z M761.026701,1176.068 C763.406701,1176.068 765.276701,1177.088 766.568701,1178.686 L764.970701,1180.318 C763.882701,1179.196 762.454701,1178.482 760.890701,1178.482 C759.326701,1178.482 758.136701,1179.196 758.136701,1180.556 C758.136701,1181.678 758.986701,1182.222 760.822701,1182.97 L762.352701,1183.616 C765.344701,1184.874 766.738701,1186.166 766.738701,1188.512 C766.738701,1191.742 763.984701,1193.374 760.924701,1193.374 C758.000701,1193.374 755.790701,1191.912 754.464701,1190.144 L756.130701,1188.41 C757.490701,1189.838 758.884701,1190.96 760.890701,1190.96 C762.624701,1190.96 764.052701,1190.11 764.052701,1188.614 C764.052701,1187.186 762.828701,1186.642 761.162701,1185.962 L759.564701,1185.282 C757.048701,1184.228 755.450701,1183.072 755.450701,1180.692 C755.450701,1177.7 758.000701,1176.068 761.026701,1176.068 Z M772.749382,1168.214 C773.803382,1168.214 774.687382,1169.064 774.687382,1170.118 C774.687382,1171.206 773.803382,1172.022 772.749382,1172.022 C771.627382,1172.022 770.777382,1171.206 770.777382,1170.118 C770.777382,1169.064 771.627382,1168.214 772.749382,1168.214 Z M774.041382,1176.442 L774.041382,1193 L771.423382,1193 L771.423382,1176.442 L774.041382,1176.442 Z M787.294063,1176.068 C791.204063,1176.068 793.448063,1178.754 793.448063,1182.596 L793.448063,1193 L790.830063,1193 L790.830063,1182.902 C790.830063,1180.284 789.266063,1178.482 786.716063,1178.482 C784.166063,1178.482 782.364063,1180.318 782.364063,1182.902 L782.364063,1193 L779.746063,1193 L779.746063,1176.442 L782.194063,1176.442 L782.194063,1178.244 C783.350063,1176.884 785.152063,1176.068 787.294063,1176.068 Z M812.378743,1176.442 L814.860743,1176.442 L814.860743,1191.402 C814.860743,1196.502 811.630743,1199.494 806.802743,1199.494 C803.334743,1199.494 800.648743,1197.93 799.016743,1196.298 L800.546743,1194.462 C802.144743,1195.856 804.014743,1197.08 806.734743,1197.08 C810.100743,1197.08 812.242743,1195.21 812.242743,1191.538 L812.242743,1190.076 C810.882743,1191.81 808.570743,1192.83 806.088743,1192.83 C801.430743,1192.83 797.962743,1189.294 797.962743,1184.466 C797.962743,1179.672 801.430743,1176.068 806.088743,1176.068 C808.706743,1176.068 811.086743,1177.224 812.378743,1179.128 L812.378743,1176.442 Z M806.496743,1190.416 C809.386743,1190.416 812.276743,1188.614 812.276743,1184.466 C812.276743,1180.318 809.352743,1178.55 806.496743,1178.55 C803.130743,1178.55 800.614743,1180.998 800.614743,1184.5 C800.614743,1188.002 803.130743,1190.416 806.496743,1190.416 Z M848.132104,1170.56 L848.132104,1193 L845.480104,1193 L845.480104,1182.188 L832.900104,1182.188 L832.900104,1193 L830.248104,1193 L830.248104,1170.56 L832.900104,1170.56 L832.900104,1179.808 L845.480104,1179.808 L845.480104,1170.56 L848.132104,1170.56 Z M870.292785,1170.56 L870.292785,1172.94 L862.370785,1172.94 L862.370785,1193 L859.718785,1193 L859.718785,1172.94 L851.830785,1172.94 L851.830785,1170.56 L870.292785,1170.56 Z M893.711465,1170.186 L894.629465,1170.186 L894.629465,1193 L891.977465,1193 L891.977465,1176.884 L884.803465,1186.642 L883.851465,1186.642 L876.643465,1176.85 L876.643465,1193 L873.991465,1193 L873.991465,1170.186 L874.943465,1170.186 L884.293465,1183.174 L893.711465,1170.186 Z M903.428146,1170.56 L903.428146,1190.62 L914.070146,1190.62 L914.070146,1193 L900.776146,1193 L900.776146,1170.56 L903.428146,1170.56 Z M923.786826,1183.106 C927.730826,1183.106 931.436826,1185.316 931.436826,1190.042 C931.436826,1194.7 927.662826,1197.522 923.514826,1197.522 C919.672826,1197.522 917.122826,1195.346 915.762826,1192.898 L917.598826,1191.538 C918.788826,1193.408 920.556826,1195.108 923.480826,1195.108 C926.472826,1195.108 928.716826,1193.068 928.716826,1190.042 C928.716826,1187.118 926.642826,1185.418 923.004826,1185.418 L917.904826,1185.418 L917.904826,1174.878 L929.532826,1174.878 L929.532826,1177.292 L920.522826,1177.292 L920.522826,1183.378 C921.542826,1183.208 922.562826,1183.106 923.786826,1183.106 Z M939.657507,1189.94 L938.263507,1199.086 L936.121507,1199.086 L936.563507,1189.94 L939.657507,1189.94 Z M965.142868,1170.186 C969.222868,1170.186 972.588868,1172.158 974.458868,1175.014 L972.486868,1176.578 C970.820868,1174.13 968.304868,1172.634 965.176868,1172.634 C960.110868,1172.634 956.234868,1176.544 956.234868,1181.78 C956.234868,1187.016 960.110868,1190.926 965.176868,1190.926 C968.304868,1190.926 970.820868,1189.43 972.486868,1186.982 L974.458868,1188.546 C972.656868,1191.402 969.222868,1193.374 965.142868,1193.374 C958.648868,1193.374 953.480868,1188.342 953.480868,1181.78 C953.480868,1175.218 958.648868,1170.186 965.142868,1170.186 Z M985.705549,1170.186 C988.765549,1170.186 991.349549,1171.784 992.743549,1173.994 L990.805549,1175.456 C989.615549,1173.654 987.711549,1172.634 985.671549,1172.634 C983.597549,1172.634 981.693549,1173.688 981.693549,1175.898 C981.693549,1177.938 983.257549,1178.686 985.297549,1179.672 L987.779549,1180.862 C991.043549,1182.426 993.015549,1184.092 993.015549,1187.118 C993.015549,1190.892 989.921549,1193.374 985.773549,1193.374 C982.203549,1193.374 979.245549,1191.504 977.511549,1188.546 L979.483549,1187.084 C980.843549,1189.158 982.849549,1190.926 985.739549,1190.926 C988.391549,1190.926 990.261549,1189.464 990.261549,1187.186 C990.261549,1185.112 988.731549,1184.296 986.521549,1183.242 L984.005549,1182.052 C981.387549,1180.794 978.939549,1179.196 978.939549,1176.034 C978.939549,1172.464 982.067549,1170.186 985.705549,1170.186 Z M1004.46623,1170.186 C1007.52623,1170.186 1010.11023,1171.784 1011.50423,1173.994 L1009.56623,1175.456 C1008.37623,1173.654 1006.47223,1172.634 1004.43223,1172.634 C1002.35823,1172.634 1000.45423,1173.688 1000.45423,1175.898 C1000.45423,1177.938 1002.01823,1178.686 1004.05823,1179.672 L1006.54023,1180.862 C1009.80423,1182.426 1011.77623,1184.092 1011.77623,1187.118 C1011.77623,1190.892 1008.68223,1193.374 1004.53423,1193.374 C1000.96423,1193.374 998.006229,1191.504 996.272229,1188.546 L998.244229,1187.084 C999.604229,1189.158 1001.61023,1190.926 1004.50023,1190.926 C1007.15223,1190.926 1009.02223,1189.464 1009.02223,1187.186 C1009.02223,1185.112 1007.49223,1184.296 1005.28223,1183.242 L1002.76623,1182.052 C1000.14823,1180.794 997.700229,1179.196 997.700229,1176.034 C997.700229,1172.464 1000.82823,1170.186 1004.46623,1170.186 Z M1023.15891,1183.174 C1026.25291,1183.48 1029.61891,1185.724 1029.61891,1190.076 C1029.61891,1194.7 1025.81091,1197.522 1021.66291,1197.522 C1017.95691,1197.522 1015.40691,1195.346 1014.04691,1192.898 L1015.91691,1191.538 C1017.14091,1193.408 1018.84091,1195.108 1021.62891,1195.108 C1024.68891,1195.108 1026.89891,1193.068 1026.89891,1190.076 C1026.89891,1187.186 1024.82491,1185.418 1021.15291,1185.418 L1019.11291,1185.418 L1019.11291,1184.636 L1024.82491,1177.292 L1015.54291,1177.292 L1015.54291,1174.878 L1029.04091,1174.878 L1029.04091,1175.66 L1023.15891,1183.174 Z M1037.80559,1189.94 L1036.41159,1199.086 L1034.26959,1199.086 L1034.71159,1189.94 L1037.80559,1189.94 Z M543.761153,1211.56 L546.685153,1211.56 L536.961153,1234.374 L535.975153,1234.374 L526.251153,1211.56 L529.175153,1211.56 L536.485153,1229.104 L543.761153,1211.56 Z M554.361833,1217.068 C558.135833,1217.068 560.821833,1219.346 560.821833,1223.8 L560.821833,1234 L558.373833,1234 L558.373833,1231.858 C557.183833,1233.456 555.245833,1234.374 552.797833,1234.374 C549.465833,1234.374 547.017833,1232.606 547.017833,1229.716 C547.017833,1226.928 549.363833,1225.092 552.967833,1225.092 L558.203833,1225.092 L558.203833,1223.664 C558.203833,1220.876 556.639833,1219.482 554.191833,1219.482 C552.117833,1219.482 550.655833,1220.468 549.363833,1222.134 L547.629833,1220.706 C549.193833,1218.19 551.709833,1217.068 554.361833,1217.068 Z M553.137833,1232.198 C555.857833,1232.198 558.203833,1230.226 558.203833,1227.642 L558.203833,1227.234 L553.273833,1227.234 C550.961833,1227.234 549.703833,1228.016 549.703833,1229.58 C549.703833,1231.348 551.301833,1232.198 553.137833,1232.198 Z M573.870514,1217.068 C577.780514,1217.068 580.024514,1219.754 580.024514,1223.596 L580.024514,1234 L577.406514,1234 L577.406514,1223.902 C577.406514,1221.284 575.842514,1219.482 573.292514,1219.482 C570.742514,1219.482 568.940514,1221.318 568.940514,1223.902 L568.940514,1234 L566.322514,1234 L566.322514,1217.442 L568.770514,1217.442 L568.770514,1219.244 C569.926514,1217.884 571.728514,1217.068 573.870514,1217.068 Z M586.851194,1209.214 C587.905194,1209.214 588.789194,1210.064 588.789194,1211.118 C588.789194,1212.206 587.905194,1213.022 586.851194,1213.022 C585.729194,1213.022 584.879194,1212.206 584.879194,1211.118 C584.879194,1210.064 585.729194,1209.214 586.851194,1209.214 Z M588.143194,1217.442 L588.143194,1234 L585.525194,1234 L585.525194,1217.442 L588.143194,1217.442 Z M596.465875,1208.5 L596.465875,1234 L593.847875,1234 L593.847875,1208.5 L596.465875,1208.5 Z M604.788556,1208.5 L604.788556,1234 L602.170556,1234 L602.170556,1208.5 L604.788556,1208.5 Z M616.443236,1217.068 C620.217236,1217.068 622.903236,1219.346 622.903236,1223.8 L622.903236,1234 L620.455236,1234 L620.455236,1231.858 C619.265236,1233.456 617.327236,1234.374 614.879236,1234.374 C611.547236,1234.374 609.099236,1232.606 609.099236,1229.716 C609.099236,1226.928 611.445236,1225.092 615.049236,1225.092 L620.285236,1225.092 L620.285236,1223.664 C620.285236,1220.876 618.721236,1219.482 616.273236,1219.482 C614.199236,1219.482 612.737236,1220.468 611.445236,1222.134 L609.711236,1220.706 C611.275236,1218.19 613.791236,1217.068 616.443236,1217.068 Z M615.219236,1232.198 C617.939236,1232.198 620.285236,1230.226 620.285236,1227.642 L620.285236,1227.234 L615.355236,1227.234 C613.043236,1227.234 611.785236,1228.016 611.785236,1229.58 C611.785236,1231.348 613.383236,1232.198 615.219236,1232.198 Z M643.594597,1211.56 L643.594597,1228.798 C643.594597,1232.708 641.180597,1234.374 637.746597,1234.374 C636.658597,1234.374 635.672597,1234.204 634.788597,1234 L634.788597,1231.722 C635.706597,1231.858 636.488597,1231.926 637.236597,1231.926 C639.446597,1231.926 640.942597,1231.246 640.942597,1228.56 L640.942597,1211.56 L643.594597,1211.56 Z M656.201278,1211.186 C659.261278,1211.186 661.845278,1212.784 663.239278,1214.994 L661.301278,1216.456 C660.111278,1214.654 658.207278,1213.634 656.167278,1213.634 C654.093278,1213.634 652.189278,1214.688 652.189278,1216.898 C652.189278,1218.938 653.753278,1219.686 655.793278,1220.672 L658.275278,1221.862 C661.539278,1223.426 663.511278,1225.092 663.511278,1228.118 C663.511278,1231.892 660.417278,1234.374 656.269278,1234.374 C652.699278,1234.374 649.741278,1232.504 648.007278,1229.546 L649.979278,1228.084 C651.339278,1230.158 653.345278,1231.926 656.235278,1231.926 C658.887278,1231.926 660.757278,1230.464 660.757278,1228.186 C660.757278,1226.112 659.227278,1225.296 657.017278,1224.242 L654.501278,1223.052 C651.883278,1221.794 649.435278,1220.196 649.435278,1217.034 C649.435278,1213.464 652.563278,1211.186 656.201278,1211.186 Z M671.969958,1230.94 L670.575958,1240.086 L668.433958,1240.086 L668.875958,1230.94 L671.969958,1230.94 Z M693.001319,1217.068 C696.775319,1217.068 699.461319,1219.346 699.461319,1223.8 L699.461319,1234 L697.013319,1234 L697.013319,1231.858 C695.823319,1233.456 693.885319,1234.374 691.437319,1234.374 C688.105319,1234.374 685.657319,1232.606 685.657319,1229.716 C685.657319,1226.928 688.003319,1225.092 691.607319,1225.092 L696.843319,1225.092 L696.843319,1223.664 C696.843319,1220.876 695.279319,1219.482 692.831319,1219.482 C690.757319,1219.482 689.295319,1220.468 688.003319,1222.134 L686.269319,1220.706 C687.833319,1218.19 690.349319,1217.068 693.001319,1217.068 Z M691.777319,1232.198 C694.497319,1232.198 696.843319,1230.226 696.843319,1227.642 L696.843319,1227.234 L691.913319,1227.234 C689.601319,1227.234 688.343319,1228.016 688.343319,1229.58 C688.343319,1231.348 689.941319,1232.198 691.777319,1232.198 Z M712.51,1217.068 C716.42,1217.068 718.664,1219.754 718.664,1223.596 L718.664,1234 L716.046,1234 L716.046,1223.902 C716.046,1221.284 714.482,1219.482 711.932,1219.482 C709.382,1219.482 707.58,1221.318 707.58,1223.902 L707.58,1234 L704.962,1234 L704.962,1217.442 L707.41,1217.442 L707.41,1219.244 C708.566,1217.884 710.368,1217.068 712.51,1217.068 Z M737.288681,1208.5 L739.906681,1208.5 L739.906681,1234 L737.424681,1234 L737.424681,1231.348 C736.132681,1233.252 733.786681,1234.374 731.168681,1234.374 C726.442681,1234.374 722.974681,1230.6 722.974681,1225.738 C722.974681,1220.842 726.442681,1217.068 731.168681,1217.068 C733.684681,1217.068 735.962681,1218.122 737.288681,1219.89 L737.288681,1208.5 Z M731.542681,1231.96 C734.398681,1231.96 737.322681,1230.09 737.322681,1225.738 C737.322681,1221.386 734.398681,1219.482 731.542681,1219.482 C728.176681,1219.482 725.660681,1222.1 725.660681,1225.704 C725.660681,1229.308 728.142681,1231.96 731.542681,1231.96 Z M767.228042,1221.658 C770.050042,1222.474 771.648042,1224.684 771.648042,1227.54 C771.648042,1231.246 768.996042,1234 764.542042,1234 L755.294042,1234 L755.294042,1211.56 L763.012042,1211.56 C766.990042,1211.56 769.404042,1213.974 769.404042,1217.238 C769.404042,1219.108 768.622042,1220.638 767.228042,1221.658 Z M762.740042,1213.94 L757.946042,1213.94 L757.946042,1220.91 L762.740042,1220.91 C765.358042,1220.91 766.684042,1219.482 766.684042,1217.408 C766.684042,1215.334 765.358042,1213.94 762.740042,1213.94 Z M764.270042,1231.62 C767.296042,1231.62 768.928042,1229.92 768.928042,1227.472 C768.928042,1225.058 767.296042,1223.324 764.270042,1223.324 L757.946042,1223.324 L757.946042,1231.62 L764.270042,1231.62 Z M783.472722,1217.068 C788.266722,1217.068 792.142722,1220.842 792.142722,1225.704 C792.142722,1230.532 788.266722,1234.34 783.438722,1234.34 C778.644722,1234.306 774.802722,1230.566 774.802722,1225.704 C774.802722,1220.842 778.610722,1217.068 783.472722,1217.068 Z M783.472722,1219.482 C780.004722,1219.482 777.454722,1222.202 777.488722,1225.738 C777.488722,1229.24 780.004722,1231.926 783.438722,1231.926 C786.872722,1231.926 789.456722,1229.206 789.456722,1225.738 C789.456722,1222.168 786.872722,1219.482 783.472722,1219.482 Z M804.171403,1217.068 C808.965403,1217.068 812.841403,1220.842 812.841403,1225.704 C812.841403,1230.532 808.965403,1234.34 804.137403,1234.34 C799.343403,1234.306 795.501403,1230.566 795.501403,1225.704 C795.501403,1220.842 799.309403,1217.068 804.171403,1217.068 Z M804.171403,1219.482 C800.703403,1219.482 798.153403,1222.202 798.187403,1225.738 C798.187403,1229.24 800.703403,1231.926 804.137403,1231.926 C807.571403,1231.926 810.155403,1229.206 810.155403,1225.738 C810.155403,1222.168 807.571403,1219.482 804.171403,1219.482 Z M824.224083,1231.994 C824.870083,1231.994 825.584083,1231.926 826.434083,1231.79 L826.434083,1234 C825.584083,1234.204 824.734083,1234.374 823.680083,1234.374 C820.416083,1234.374 818.104083,1232.776 818.104083,1229.002 L818.104083,1219.788 L815.316083,1219.788 L815.316083,1217.442 L818.104083,1217.442 L818.104083,1212.92 L820.722083,1212.92 L820.722083,1217.442 L825.890083,1217.442 L825.890083,1219.788 L820.722083,1219.788 L820.722083,1228.832 C820.722083,1231.314 822.150083,1231.994 824.224083,1231.994 Z M835.300764,1217.068 C837.680764,1217.068 839.550764,1218.088 840.842764,1219.686 L839.244764,1221.318 C838.156764,1220.196 836.728764,1219.482 835.164764,1219.482 C833.600764,1219.482 832.410764,1220.196 832.410764,1221.556 C832.410764,1222.678 833.260764,1223.222 835.096764,1223.97 L836.626764,1224.616 C839.618764,1225.874 841.012764,1227.166 841.012764,1229.512 C841.012764,1232.742 838.258764,1234.374 835.198764,1234.374 C832.274764,1234.374 830.064764,1232.912 828.738764,1231.144 L830.404764,1229.41 C831.764764,1230.838 833.158764,1231.96 835.164764,1231.96 C836.898764,1231.96 838.326764,1231.11 838.326764,1229.614 C838.326764,1228.186 837.102764,1227.642 835.436764,1226.962 L833.838764,1226.282 C831.322764,1225.228 829.724764,1224.072 829.724764,1221.692 C829.724764,1218.7 832.274764,1217.068 835.300764,1217.068 Z M852.531444,1231.994 C853.177444,1231.994 853.891444,1231.926 854.741444,1231.79 L854.741444,1234 C853.891444,1234.204 853.041444,1234.374 851.987444,1234.374 C848.723444,1234.374 846.411444,1232.776 846.411444,1229.002 L846.411444,1219.788 L843.623444,1219.788 L843.623444,1217.442 L846.411444,1217.442 L846.411444,1212.92 L849.029444,1212.92 L849.029444,1217.442 L854.197444,1217.442 L854.197444,1219.788 L849.029444,1219.788 L849.029444,1228.832 C849.029444,1231.314 850.457444,1231.994 852.531444,1231.994 Z M866.192125,1217.306 C866.736125,1217.306 867.076125,1217.374 867.416125,1217.442 L867.416125,1219.754 L866.430125,1219.754 C863.744125,1219.754 861.228125,1221.454 861.228125,1224.616 L861.228125,1234 L858.610125,1234 L858.610125,1217.442 L861.058125,1217.442 L861.058125,1219.822 C862.282125,1218.19 864.220125,1217.306 866.192125,1217.306 Z M876.486806,1217.068 C880.260806,1217.068 882.946806,1219.346 882.946806,1223.8 L882.946806,1234 L880.498806,1234 L880.498806,1231.858 C879.308806,1233.456 877.370806,1234.374 874.922806,1234.374 C871.590806,1234.374 869.142806,1232.606 869.142806,1229.716 C869.142806,1226.928 871.488806,1225.092 875.092806,1225.092 L880.328806,1225.092 L880.328806,1223.664 C880.328806,1220.876 878.764806,1219.482 876.316806,1219.482 C874.242806,1219.482 872.780806,1220.468 871.488806,1222.134 L869.754806,1220.706 C871.318806,1218.19 873.834806,1217.068 876.486806,1217.068 Z M875.262806,1232.198 C877.982806,1232.198 880.328806,1230.226 880.328806,1227.642 L880.328806,1227.234 L875.398806,1227.234 C873.086806,1227.234 871.828806,1228.016 871.828806,1229.58 C871.828806,1231.348 873.426806,1232.198 875.262806,1232.198 Z M897.151486,1217.068 C901.911486,1217.068 905.345486,1220.842 905.345486,1225.704 C905.345486,1230.6 901.877486,1234.374 897.151486,1234.374 C894.703486,1234.374 892.391486,1233.354 891.065486,1231.586 L891.065486,1240.12 L888.447486,1240.12 L888.447486,1217.442 L890.895486,1217.442 L890.895486,1220.094 C892.187486,1218.19 894.533486,1217.068 897.151486,1217.068 Z M896.777486,1231.96 C900.143486,1231.96 902.659486,1229.342 902.659486,1225.738 C902.659486,1222.134 900.177486,1219.482 896.777486,1219.482 C893.921486,1219.482 891.031486,1221.352 891.031486,1225.704 C891.031486,1230.056 893.887486,1231.96 896.777486,1231.96 Z M911.254167,1230.09 C912.410167,1230.09 913.396167,1230.974 913.396167,1232.232 C913.396167,1233.49 912.410167,1234.374 911.254167,1234.374 C910.098167,1234.374 909.112167,1233.49 909.112167,1232.232 C909.112167,1230.974 910.098167,1230.09 911.254167,1230.09 Z" id="ThesitewascreatedusingHTML5,CSS3,VanillaJS,andBootstrap."></path>
        </g>
    </g>
</svg>