<?xml version="1.0" encoding="UTF-8"?>
<svg width="572px" height="189px" viewBox="0 0 572 189" version="1.1" xmlns="http://www.w3.org/2000/svg" xmlns:xlink="http://www.w3.org/1999/xlink">
    <!-- Generator: Sketch 54.1 (76490) - https://sketchapp.com -->
    <title>Group 2</title>
    <desc>Created with Sketch.</desc>
    <defs>
        <linearGradient x1="74.000038%" y1="48.6287132%" x2="-16.1444198%" y2="54.5343503%" id="linearGradient-1">
            <stop stop-color="#FA8561" offset="0%"></stop>
            <stop stop-color="#D31CF7" offset="100%"></stop>
        </linearGradient>
    </defs>
    <g id="Page-1" stroke="none" stroke-width="1" fill="none" fill-rule="evenodd">
        <g id="Desktop-HD-Copy-27" transform="translate(-2334.000000, -496.000000)">
            <g id="Group-2" transform="translate(2334.000000, 496.000000)">
                <rect id="Rectangle-Copy-8" fill="#000000" x="0" y="0" width="572" height="189" rx="16"></rect>
                <path d="M177.26,72.752 L177.26,122.912 L167,122.912 L167,72.752 L177.26,72.752 Z M205.206137,114.628 C206.422137,114.628 208.094137,114.476 210.070137,114.324 L210.070137,122.912 C207.942137,123.444 205.662137,123.824 203.002137,123.824 C193.730137,123.824 187.954137,119.34 187.954137,109.688 L187.954137,93.956 L182.026137,93.956 L182.026137,85.292 L187.954137,85.292 L187.954137,75.792 L198.214137,75.792 L198.214137,85.292 L208.854137,85.292 L208.854137,93.956 L198.214137,93.956 L198.214137,108.776 C198.214137,113.108 200.494137,114.628 205.206137,114.628 Z M229.048274,72.752 L224.792274,93.88 L216.964274,93.88 L217.344274,72.752 L229.048274,72.752 Z M248.862411,84.38 C254.334411,84.38 258.970411,86.28 262.390411,90.08 L257.222411,96.388 C254.790411,94.108 251.826411,92.816 248.786411,92.816 C246.354411,92.816 244.758411,93.652 244.758411,95.476 C244.758411,96.996 245.974411,97.756 248.710411,98.82 L252.358411,100.34 C259.122411,103.076 262.922411,105.964 262.922411,111.816 C262.922411,119.568 256.462411,123.824 248.254411,123.824 C241.566411,123.824 236.018411,120.936 232.674411,116.528 L237.842411,110.296 C240.882411,113.412 244.378411,115.388 248.406411,115.388 C250.990411,115.388 253.194411,114.4 253.194411,112.272 C253.194411,110.524 251.598411,109.84 249.318411,108.852 L245.290411,107.18 C238.906411,104.596 235.030411,101.632 235.030411,95.704 C235.030411,88.484 240.882411,84.38 248.862411,84.38 Z M299.358685,72.752 L299.358685,113.64 L321.322685,113.64 L321.322685,122.912 L289.098685,122.912 L289.098685,72.752 L299.358685,72.752 Z M331.560822,65.228 C335.208822,65.228 338.172822,67.964 338.172822,71.612 C338.172822,75.184 335.208822,77.92 331.560822,77.92 C327.912822,77.92 325.024822,75.184 325.024822,71.612 C325.024822,67.964 327.912822,65.228 331.560822,65.228 Z M336.728822,85.292 L336.728822,122.912 L326.468822,122.912 L326.468822,85.292 L336.728822,85.292 Z M363.990959,74.196 C359.430959,74.196 357.150959,75.716 357.150959,80.048 L357.150959,85.292 L365.434959,85.292 L365.434959,93.956 L357.150959,93.956 L357.150959,122.912 L346.890959,122.912 L346.890959,93.956 L341.570959,93.956 L341.570959,85.292 L346.890959,85.292 L346.890959,79.136 C346.890959,69.484 352.666959,65 361.406959,65 C363.762959,65 365.586959,65.38 367.030959,65.836 L367.030959,74.424 C365.890959,74.272 364.978959,74.196 363.990959,74.196 Z M404.629096,101.936 C404.629096,104.064 404.249096,106.268 403.945096,107.56 L377.497096,107.56 C378.789096,112.348 382.741096,115.008 388.137096,115.008 C392.241096,115.008 395.585096,113.564 398.625096,111.208 L402.881096,118.2 C398.625096,121.772 393.609096,123.824 387.833096,123.824 C375.901096,123.824 367.237096,115.236 367.237096,104.14 C367.237096,93.044 375.825096,84.456 386.921096,84.456 C397.485096,84.456 404.629096,92.208 404.629096,101.936 Z M386.541096,92.74 C382.209096,92.74 378.713096,95.628 377.497096,100.34 L394.673096,100.34 C394.597096,95.552 390.873096,92.74 386.541096,92.74 Z" id="It’sLife" fill="url(#linearGradient-1)" fill-rule="nonzero"></path>
            </g>
        </g>
    </g>
</svg>