<?xml version="1.0" encoding="UTF-8"?>
<svg width="1182px" height="33px" viewBox="0 0 1182 33" version="1.1" xmlns="http://www.w3.org/2000/svg" xmlns:xlink="http://www.w3.org/1999/xlink">
    <!-- Generator: Sketch 53.2 (72643) - https://sketchapp.com -->
    <title>Duetothecompany’ssecuritypolicy,thispageisn’tavailabletothepublic.</title>
    <desc>Created with Sketch.</desc>
    <g id="Page-1" stroke="none" stroke-width="1" fill="none" fill-rule="evenodd">
        <g id="Desktop-HD-Copy-34" transform="translate(-117.000000, -1203.000000)" fill="#404648" fill-rule="nonzero">
            <path d="M124.573458,1206.56 C132.189458,1206.56 136.779458,1211.218 136.779458,1217.746 C136.779458,1224.172 132.189458,1229 124.573458,1229 L117.909458,1229 L117.909458,1206.56 L124.573458,1206.56 Z M124.539458,1208.94 L120.561458,1208.94 L120.561458,1226.62 L124.539458,1226.62 C130.557458,1226.62 134.025458,1222.778 134.025458,1217.746 C134.025458,1212.612 130.557458,1208.94 124.539458,1208.94 Z M154.758139,1212.442 L154.758139,1222.404 C154.758139,1226.654 151.732139,1229.374 147.924139,1229.374 C144.048139,1229.374 141.056139,1226.654 141.056139,1222.404 L141.056139,1212.442 L143.640139,1212.442 L143.640139,1222.574 C143.640139,1225.294 145.544139,1226.96 147.924139,1226.96 C150.236139,1226.96 152.140139,1225.294 152.140139,1222.574 L152.140139,1212.442 L154.758139,1212.442 Z M175.082819,1219.548 C175.082819,1220.432 174.946819,1221.214 174.878819,1221.52 L161.822819,1221.52 C162.162819,1224.818 164.610819,1226.96 167.874819,1226.96 C169.948819,1226.96 171.580819,1226.076 172.940819,1224.716 L174.470819,1226.484 C172.804819,1228.252 170.560819,1229.374 167.840819,1229.374 C162.842819,1229.374 159.068819,1225.6 159.068819,1220.738 C159.068819,1215.91 162.774819,1212.068 167.534819,1212.068 C171.784819,1212.068 175.082819,1215.128 175.082819,1219.548 Z M167.466819,1214.448 C164.678819,1214.448 162.468819,1216.352 161.924819,1219.208 L172.396819,1219.208 C172.362819,1216.148 170.118819,1214.448 167.466819,1214.448 Z M195.94418,1226.994 C196.59018,1226.994 197.30418,1226.926 198.15418,1226.79 L198.15418,1229 C197.30418,1229.204 196.45418,1229.374 195.40018,1229.374 C192.13618,1229.374 189.82418,1227.776 189.82418,1224.002 L189.82418,1214.788 L187.03618,1214.788 L187.03618,1212.442 L189.82418,1212.442 L189.82418,1207.92 L192.44218,1207.92 L192.44218,1212.442 L197.61018,1212.442 L197.61018,1214.788 L192.44218,1214.788 L192.44218,1223.832 C192.44218,1226.314 193.87018,1226.994 195.94418,1226.994 Z M209.162861,1212.068 C213.956861,1212.068 217.832861,1215.842 217.832861,1220.704 C217.832861,1225.532 213.956861,1229.34 209.128861,1229.34 C204.334861,1229.306 200.492861,1225.566 200.492861,1220.704 C200.492861,1215.842 204.300861,1212.068 209.162861,1212.068 Z M209.162861,1214.482 C205.694861,1214.482 203.144861,1217.202 203.178861,1220.738 C203.178861,1224.24 205.694861,1226.926 209.128861,1226.926 C212.562861,1226.926 215.146861,1224.206 215.146861,1220.738 C215.146861,1217.168 212.562861,1214.482 209.162861,1214.482 Z M238.694222,1226.994 C239.340222,1226.994 240.054222,1226.926 240.904222,1226.79 L240.904222,1229 C240.054222,1229.204 239.204222,1229.374 238.150222,1229.374 C234.886222,1229.374 232.574222,1227.776 232.574222,1224.002 L232.574222,1214.788 L229.786222,1214.788 L229.786222,1212.442 L232.574222,1212.442 L232.574222,1207.92 L235.192222,1207.92 L235.192222,1212.442 L240.360222,1212.442 L240.360222,1214.788 L235.192222,1214.788 L235.192222,1223.832 C235.192222,1226.314 236.620222,1226.994 238.694222,1226.994 Z M252.354903,1212.068 C256.230903,1212.068 258.474903,1214.754 258.474903,1218.596 L258.474903,1229 L255.856903,1229 L255.856903,1218.936 C255.856903,1216.318 254.292903,1214.482 251.742903,1214.482 C249.192903,1214.482 247.390903,1216.352 247.390903,1218.936 L247.390903,1229 L244.772903,1229 L244.772903,1203.5 L247.390903,1203.5 L247.390903,1214.312 C248.478903,1212.918 250.212903,1212.068 252.354903,1212.068 Z M278.799583,1219.548 C278.799583,1220.432 278.663583,1221.214 278.595583,1221.52 L265.539583,1221.52 C265.879583,1224.818 268.327583,1226.96 271.591583,1226.96 C273.665583,1226.96 275.297583,1226.076 276.657583,1224.716 L278.187583,1226.484 C276.521583,1228.252 274.277583,1229.374 271.557583,1229.374 C266.559583,1229.374 262.785583,1225.6 262.785583,1220.738 C262.785583,1215.91 266.491583,1212.068 271.251583,1212.068 C275.501583,1212.068 278.799583,1215.128 278.799583,1219.548 Z M271.183583,1214.448 C268.395583,1214.448 266.185583,1216.352 265.641583,1219.208 L276.113583,1219.208 C276.079583,1216.148 273.835583,1214.448 271.183583,1214.448 Z M300.306944,1212.068 C303.298944,1212.068 305.678944,1213.496 307.140944,1215.672 L305.270944,1217.168 C304.046944,1215.536 302.482944,1214.482 300.340944,1214.482 C296.872944,1214.482 294.322944,1217.236 294.322944,1220.704 C294.322944,1224.206 296.872944,1226.96 300.340944,1226.96 C302.448944,1226.96 304.012944,1225.94 305.236944,1224.308 L307.106944,1225.77 C305.644944,1227.946 303.264944,1229.374 300.306944,1229.374 C295.478944,1229.374 291.636944,1225.566 291.636944,1220.704 C291.636944,1215.876 295.478944,1212.068 300.306944,1212.068 Z M318.659625,1212.068 C323.453625,1212.068 327.329625,1215.842 327.329625,1220.704 C327.329625,1225.532 323.453625,1229.34 318.625625,1229.34 C313.831625,1229.306 309.989625,1225.566 309.989625,1220.704 C309.989625,1215.842 313.797625,1212.068 318.659625,1212.068 Z M318.659625,1214.482 C315.191625,1214.482 312.641625,1217.202 312.675625,1220.738 C312.675625,1224.24 315.191625,1226.926 318.625625,1226.926 C322.059625,1226.926 324.643625,1224.206 324.643625,1220.738 C324.643625,1217.168 322.059625,1214.482 318.659625,1214.482 Z M350.034305,1212.068 C353.910305,1212.068 356.052305,1214.754 356.052305,1218.596 L356.052305,1229 L353.434305,1229 L353.434305,1218.936 C353.434305,1216.318 352.006305,1214.482 349.524305,1214.482 C347.008305,1214.482 345.274305,1216.386 345.274305,1218.698 L345.274305,1229 L342.656305,1229 L342.656305,1218.936 C342.656305,1216.318 341.160305,1214.482 338.712305,1214.482 C336.196305,1214.482 334.496305,1216.318 334.496305,1218.936 L334.496305,1229 L331.878305,1229 L331.878305,1212.442 L334.326305,1212.442 L334.326305,1214.176 C335.482305,1212.85 337.182305,1212.068 339.256305,1212.068 C341.738305,1212.068 343.438305,1213.19 344.356305,1214.924 C345.512305,1213.258 347.484305,1212.068 350.034305,1212.068 Z M370.256986,1212.068 C375.016986,1212.068 378.450986,1215.842 378.450986,1220.704 C378.450986,1225.6 374.982986,1229.374 370.256986,1229.374 C367.808986,1229.374 365.496986,1228.354 364.170986,1226.586 L364.170986,1235.12 L361.552986,1235.12 L361.552986,1212.442 L364.000986,1212.442 L364.000986,1215.094 C365.292986,1213.19 367.638986,1212.068 370.256986,1212.068 Z M369.882986,1226.96 C373.248986,1226.96 375.764986,1224.342 375.764986,1220.738 C375.764986,1217.134 373.282986,1214.482 369.882986,1214.482 C367.026986,1214.482 364.136986,1216.352 364.136986,1220.704 C364.136986,1225.056 366.992986,1226.96 369.882986,1226.96 Z M388.949667,1212.068 C392.723667,1212.068 395.409667,1214.346 395.409667,1218.8 L395.409667,1229 L392.961667,1229 L392.961667,1226.858 C391.771667,1228.456 389.833667,1229.374 387.385667,1229.374 C384.053667,1229.374 381.605667,1227.606 381.605667,1224.716 C381.605667,1221.928 383.951667,1220.092 387.555667,1220.092 L392.791667,1220.092 L392.791667,1218.664 C392.791667,1215.876 391.227667,1214.482 388.779667,1214.482 C386.705667,1214.482 385.243667,1215.468 383.951667,1217.134 L382.217667,1215.706 C383.781667,1213.19 386.297667,1212.068 388.949667,1212.068 Z M387.725667,1227.198 C390.445667,1227.198 392.791667,1225.226 392.791667,1222.642 L392.791667,1222.234 L387.861667,1222.234 C385.549667,1222.234 384.291667,1223.016 384.291667,1224.58 C384.291667,1226.348 385.889667,1227.198 387.725667,1227.198 Z M408.458347,1212.068 C412.368347,1212.068 414.612347,1214.754 414.612347,1218.596 L414.612347,1229 L411.994347,1229 L411.994347,1218.902 C411.994347,1216.284 410.430347,1214.482 407.880347,1214.482 C405.330347,1214.482 403.528347,1216.318 403.528347,1218.902 L403.528347,1229 L400.910347,1229 L400.910347,1212.442 L403.358347,1212.442 L403.358347,1214.244 C404.514347,1212.884 406.316347,1212.068 408.458347,1212.068 Z M431.877028,1212.442 L434.665028,1212.442 L426.505028,1231.312 C425.213028,1234.27 423.411028,1235.494 420.895028,1235.494 C420.079028,1235.494 419.127028,1235.358 418.345028,1235.154 L418.345028,1232.944 C419.127028,1233.046 419.773028,1233.114 420.351028,1233.114 C421.949028,1233.114 423.173028,1232.57 424.091028,1230.462 L424.975028,1228.456 L418.107028,1212.442 L420.929028,1212.442 L426.403028,1225.634 L431.877028,1212.442 Z M442.239708,1206.56 L440.777708,1215.298 L438.703708,1215.298 L439.179708,1206.56 L442.239708,1206.56 Z M452.534389,1212.068 C454.914389,1212.068 456.784389,1213.088 458.076389,1214.686 L456.478389,1216.318 C455.390389,1215.196 453.962389,1214.482 452.398389,1214.482 C450.834389,1214.482 449.644389,1215.196 449.644389,1216.556 C449.644389,1217.678 450.494389,1218.222 452.330389,1218.97 L453.860389,1219.616 C456.852389,1220.874 458.246389,1222.166 458.246389,1224.512 C458.246389,1227.742 455.492389,1229.374 452.432389,1229.374 C449.508389,1229.374 447.298389,1227.912 445.972389,1226.144 L447.638389,1224.41 C448.998389,1225.838 450.392389,1226.96 452.398389,1226.96 C454.132389,1226.96 455.560389,1226.11 455.560389,1224.614 C455.560389,1223.186 454.336389,1222.642 452.670389,1221.962 L451.072389,1221.282 C448.556389,1220.228 446.958389,1219.072 446.958389,1216.692 C446.958389,1213.7 449.508389,1212.068 452.534389,1212.068 Z M477.40775,1212.068 C479.78775,1212.068 481.65775,1213.088 482.94975,1214.686 L481.35175,1216.318 C480.26375,1215.196 478.83575,1214.482 477.27175,1214.482 C475.70775,1214.482 474.51775,1215.196 474.51775,1216.556 C474.51775,1217.678 475.36775,1218.222 477.20375,1218.97 L478.73375,1219.616 C481.72575,1220.874 483.11975,1222.166 483.11975,1224.512 C483.11975,1227.742 480.36575,1229.374 477.30575,1229.374 C474.38175,1229.374 472.17175,1227.912 470.84575,1226.144 L472.51175,1224.41 C473.87175,1225.838 475.26575,1226.96 477.27175,1226.96 C479.00575,1226.96 480.43375,1226.11 480.43375,1224.614 C480.43375,1223.186 479.20975,1222.642 477.54375,1221.962 L475.94575,1221.282 C473.42975,1220.228 471.83175,1219.072 471.83175,1216.692 C471.83175,1213.7 474.38175,1212.068 477.40775,1212.068 Z M502.62843,1219.548 C502.62843,1220.432 502.49243,1221.214 502.42443,1221.52 L489.36843,1221.52 C489.70843,1224.818 492.15643,1226.96 495.42043,1226.96 C497.49443,1226.96 499.12643,1226.076 500.48643,1224.716 L502.01643,1226.484 C500.35043,1228.252 498.10643,1229.374 495.38643,1229.374 C490.38843,1229.374 486.61443,1225.6 486.61443,1220.738 C486.61443,1215.91 490.32043,1212.068 495.08043,1212.068 C499.33043,1212.068 502.62843,1215.128 502.62843,1219.548 Z M495.01243,1214.448 C492.22443,1214.448 490.01443,1216.352 489.47043,1219.208 L499.94243,1219.208 C499.90843,1216.148 497.66443,1214.448 495.01243,1214.448 Z M514.657111,1212.068 C517.649111,1212.068 520.029111,1213.496 521.491111,1215.672 L519.621111,1217.168 C518.397111,1215.536 516.833111,1214.482 514.691111,1214.482 C511.223111,1214.482 508.673111,1217.236 508.673111,1220.704 C508.673111,1224.206 511.223111,1226.96 514.691111,1226.96 C516.799111,1226.96 518.363111,1225.94 519.587111,1224.308 L521.457111,1225.77 C519.995111,1227.946 517.615111,1229.374 514.657111,1229.374 C509.829111,1229.374 505.987111,1225.566 505.987111,1220.704 C505.987111,1215.876 509.829111,1212.068 514.657111,1212.068 Z M539.367792,1212.442 L539.367792,1222.404 C539.367792,1226.654 536.341792,1229.374 532.533792,1229.374 C528.657792,1229.374 525.665792,1226.654 525.665792,1222.404 L525.665792,1212.442 L528.249792,1212.442 L528.249792,1222.574 C528.249792,1225.294 530.153792,1226.96 532.533792,1226.96 C534.845792,1226.96 536.749792,1225.294 536.749792,1222.574 L536.749792,1212.442 L539.367792,1212.442 Z M552.450472,1212.306 C552.994472,1212.306 553.334472,1212.374 553.674472,1212.442 L553.674472,1214.754 L552.688472,1214.754 C550.002472,1214.754 547.486472,1216.454 547.486472,1219.616 L547.486472,1229 L544.868472,1229 L544.868472,1212.442 L547.316472,1212.442 L547.316472,1214.822 C548.540472,1213.19 550.478472,1212.306 552.450472,1212.306 Z M558.461153,1204.214 C559.515153,1204.214 560.399153,1205.064 560.399153,1206.118 C560.399153,1207.206 559.515153,1208.022 558.461153,1208.022 C557.339153,1208.022 556.489153,1207.206 556.489153,1206.118 C556.489153,1205.064 557.339153,1204.214 558.461153,1204.214 Z M559.753153,1212.442 L559.753153,1229 L557.135153,1229 L557.135153,1212.442 L559.753153,1212.442 Z M572.291833,1226.994 C572.937833,1226.994 573.651833,1226.926 574.501833,1226.79 L574.501833,1229 C573.651833,1229.204 572.801833,1229.374 571.747833,1229.374 C568.483833,1229.374 566.171833,1227.776 566.171833,1224.002 L566.171833,1214.788 L563.383833,1214.788 L563.383833,1212.442 L566.171833,1212.442 L566.171833,1207.92 L568.789833,1207.92 L568.789833,1212.442 L573.957833,1212.442 L573.957833,1214.788 L568.789833,1214.788 L568.789833,1223.832 C568.789833,1226.314 570.217833,1226.994 572.291833,1226.994 Z M590.134514,1212.442 L592.922514,1212.442 L584.762514,1231.312 C583.470514,1234.27 581.668514,1235.494 579.152514,1235.494 C578.336514,1235.494 577.384514,1235.358 576.602514,1235.154 L576.602514,1232.944 C577.384514,1233.046 578.030514,1233.114 578.608514,1233.114 C580.206514,1233.114 581.430514,1232.57 582.348514,1230.462 L583.232514,1228.456 L576.364514,1212.442 L579.186514,1212.442 L584.660514,1225.634 L590.134514,1212.442 Z M614.837875,1212.068 C619.597875,1212.068 623.031875,1215.842 623.031875,1220.704 C623.031875,1225.6 619.563875,1229.374 614.837875,1229.374 C612.389875,1229.374 610.077875,1228.354 608.751875,1226.586 L608.751875,1235.12 L606.133875,1235.12 L606.133875,1212.442 L608.581875,1212.442 L608.581875,1215.094 C609.873875,1213.19 612.219875,1212.068 614.837875,1212.068 Z M614.463875,1226.96 C617.829875,1226.96 620.345875,1224.342 620.345875,1220.738 C620.345875,1217.134 617.863875,1214.482 614.463875,1214.482 C611.607875,1214.482 608.717875,1216.352 608.717875,1220.704 C608.717875,1225.056 611.573875,1226.96 614.463875,1226.96 Z M635.060556,1212.068 C639.854556,1212.068 643.730556,1215.842 643.730556,1220.704 C643.730556,1225.532 639.854556,1229.34 635.026556,1229.34 C630.232556,1229.306 626.390556,1225.566 626.390556,1220.704 C626.390556,1215.842 630.198556,1212.068 635.060556,1212.068 Z M635.060556,1214.482 C631.592556,1214.482 629.042556,1217.202 629.076556,1220.738 C629.076556,1224.24 631.592556,1226.926 635.026556,1226.926 C638.460556,1226.926 641.044556,1224.206 641.044556,1220.738 C641.044556,1217.168 638.460556,1214.482 635.060556,1214.482 Z M650.897236,1203.5 L650.897236,1229 L648.279236,1229 L648.279236,1203.5 L650.897236,1203.5 Z M657.927917,1204.214 C658.981917,1204.214 659.865917,1205.064 659.865917,1206.118 C659.865917,1207.206 658.981917,1208.022 657.927917,1208.022 C656.805917,1208.022 655.955917,1207.206 655.955917,1206.118 C655.955917,1205.064 656.805917,1204.214 657.927917,1204.214 Z M659.219917,1212.442 L659.219917,1229 L656.601917,1229 L656.601917,1212.442 L659.219917,1212.442 Z M672.404597,1212.068 C675.396597,1212.068 677.776597,1213.496 679.238597,1215.672 L677.368597,1217.168 C676.144597,1215.536 674.580597,1214.482 672.438597,1214.482 C668.970597,1214.482 666.420597,1217.236 666.420597,1220.704 C666.420597,1224.206 668.970597,1226.96 672.438597,1226.96 C674.546597,1226.96 676.110597,1225.94 677.334597,1224.308 L679.204597,1225.77 C677.742597,1227.946 675.362597,1229.374 672.404597,1229.374 C667.576597,1229.374 663.734597,1225.566 663.734597,1220.704 C663.734597,1215.876 667.576597,1212.068 672.404597,1212.068 Z M695.381278,1212.442 L698.169278,1212.442 L690.009278,1231.312 C688.717278,1234.27 686.915278,1235.494 684.399278,1235.494 C683.583278,1235.494 682.631278,1235.358 681.849278,1235.154 L681.849278,1232.944 C682.631278,1233.046 683.277278,1233.114 683.855278,1233.114 C685.453278,1233.114 686.677278,1232.57 687.595278,1230.462 L688.479278,1228.456 L681.611278,1212.442 L684.433278,1212.442 L689.907278,1225.634 L695.381278,1212.442 Z M703.057958,1225.94 L701.663958,1235.086 L699.521958,1235.086 L699.963958,1225.94 L703.057958,1225.94 Z M724.973319,1226.994 C725.619319,1226.994 726.333319,1226.926 727.183319,1226.79 L727.183319,1229 C726.333319,1229.204 725.483319,1229.374 724.429319,1229.374 C721.165319,1229.374 718.853319,1227.776 718.853319,1224.002 L718.853319,1214.788 L716.065319,1214.788 L716.065319,1212.442 L718.853319,1212.442 L718.853319,1207.92 L721.471319,1207.92 L721.471319,1212.442 L726.639319,1212.442 L726.639319,1214.788 L721.471319,1214.788 L721.471319,1223.832 C721.471319,1226.314 722.899319,1226.994 724.973319,1226.994 Z M738.634,1212.068 C742.51,1212.068 744.754,1214.754 744.754,1218.596 L744.754,1229 L742.136,1229 L742.136,1218.936 C742.136,1216.318 740.572,1214.482 738.022,1214.482 C735.472,1214.482 733.67,1216.352 733.67,1218.936 L733.67,1229 L731.052,1229 L731.052,1203.5 L733.67,1203.5 L733.67,1214.312 C734.758,1212.918 736.492,1212.068 738.634,1212.068 Z M751.580681,1204.214 C752.634681,1204.214 753.518681,1205.064 753.518681,1206.118 C753.518681,1207.206 752.634681,1208.022 751.580681,1208.022 C750.458681,1208.022 749.608681,1207.206 749.608681,1206.118 C749.608681,1205.064 750.458681,1204.214 751.580681,1204.214 Z M752.872681,1212.442 L752.872681,1229 L750.254681,1229 L750.254681,1212.442 L752.872681,1212.442 Z M763.575361,1212.068 C765.955361,1212.068 767.825361,1213.088 769.117361,1214.686 L767.519361,1216.318 C766.431361,1215.196 765.003361,1214.482 763.439361,1214.482 C761.875361,1214.482 760.685361,1215.196 760.685361,1216.556 C760.685361,1217.678 761.535361,1218.222 763.371361,1218.97 L764.901361,1219.616 C767.893361,1220.874 769.287361,1222.166 769.287361,1224.512 C769.287361,1227.742 766.533361,1229.374 763.473361,1229.374 C760.549361,1229.374 758.339361,1227.912 757.013361,1226.144 L758.679361,1224.41 C760.039361,1225.838 761.433361,1226.96 763.439361,1226.96 C765.173361,1226.96 766.601361,1226.11 766.601361,1224.614 C766.601361,1223.186 765.377361,1222.642 763.711361,1221.962 L762.113361,1221.282 C759.597361,1220.228 757.999361,1219.072 757.999361,1216.692 C757.999361,1213.7 760.549361,1212.068 763.575361,1212.068 Z M792.154722,1212.068 C796.914722,1212.068 800.348722,1215.842 800.348722,1220.704 C800.348722,1225.6 796.880722,1229.374 792.154722,1229.374 C789.706722,1229.374 787.394722,1228.354 786.068722,1226.586 L786.068722,1235.12 L783.450722,1235.12 L783.450722,1212.442 L785.898722,1212.442 L785.898722,1215.094 C787.190722,1213.19 789.536722,1212.068 792.154722,1212.068 Z M791.780722,1226.96 C795.146722,1226.96 797.662722,1224.342 797.662722,1220.738 C797.662722,1217.134 795.180722,1214.482 791.780722,1214.482 C788.924722,1214.482 786.034722,1216.352 786.034722,1220.704 C786.034722,1225.056 788.890722,1226.96 791.780722,1226.96 Z M810.847403,1212.068 C814.621403,1212.068 817.307403,1214.346 817.307403,1218.8 L817.307403,1229 L814.859403,1229 L814.859403,1226.858 C813.669403,1228.456 811.731403,1229.374 809.283403,1229.374 C805.951403,1229.374 803.503403,1227.606 803.503403,1224.716 C803.503403,1221.928 805.849403,1220.092 809.453403,1220.092 L814.689403,1220.092 L814.689403,1218.664 C814.689403,1215.876 813.125403,1214.482 810.677403,1214.482 C808.603403,1214.482 807.141403,1215.468 805.849403,1217.134 L804.115403,1215.706 C805.679403,1213.19 808.195403,1212.068 810.847403,1212.068 Z M809.623403,1227.198 C812.343403,1227.198 814.689403,1225.226 814.689403,1222.642 L814.689403,1222.234 L809.759403,1222.234 C807.447403,1222.234 806.189403,1223.016 806.189403,1224.58 C806.189403,1226.348 807.787403,1227.198 809.623403,1227.198 Z M836.238083,1212.442 L838.720083,1212.442 L838.720083,1227.402 C838.720083,1232.502 835.490083,1235.494 830.662083,1235.494 C827.194083,1235.494 824.508083,1233.93 822.876083,1232.298 L824.406083,1230.462 C826.004083,1231.856 827.874083,1233.08 830.594083,1233.08 C833.960083,1233.08 836.102083,1231.21 836.102083,1227.538 L836.102083,1226.076 C834.742083,1227.81 832.430083,1228.83 829.948083,1228.83 C825.290083,1228.83 821.822083,1225.294 821.822083,1220.466 C821.822083,1215.672 825.290083,1212.068 829.948083,1212.068 C832.566083,1212.068 834.946083,1213.224 836.238083,1215.128 L836.238083,1212.442 Z M830.356083,1226.416 C833.246083,1226.416 836.136083,1224.614 836.136083,1220.466 C836.136083,1216.318 833.212083,1214.55 830.356083,1214.55 C826.990083,1214.55 824.474083,1216.998 824.474083,1220.5 C824.474083,1224.002 826.990083,1226.416 830.356083,1226.416 Z M859.248764,1219.548 C859.248764,1220.432 859.112764,1221.214 859.044764,1221.52 L845.988764,1221.52 C846.328764,1224.818 848.776764,1226.96 852.040764,1226.96 C854.114764,1226.96 855.746764,1226.076 857.106764,1224.716 L858.636764,1226.484 C856.970764,1228.252 854.726764,1229.374 852.006764,1229.374 C847.008764,1229.374 843.234764,1225.6 843.234764,1220.738 C843.234764,1215.91 846.940764,1212.068 851.700764,1212.068 C855.950764,1212.068 859.248764,1215.128 859.248764,1219.548 Z M851.632764,1214.448 C848.844764,1214.448 846.634764,1216.352 846.090764,1219.208 L856.562764,1219.208 C856.528764,1216.148 854.284764,1214.448 851.632764,1214.448 Z M874.602125,1204.214 C875.656125,1204.214 876.540125,1205.064 876.540125,1206.118 C876.540125,1207.206 875.656125,1208.022 874.602125,1208.022 C873.480125,1208.022 872.630125,1207.206 872.630125,1206.118 C872.630125,1205.064 873.480125,1204.214 874.602125,1204.214 Z M875.894125,1212.442 L875.894125,1229 L873.276125,1229 L873.276125,1212.442 L875.894125,1212.442 Z M886.596806,1212.068 C888.976806,1212.068 890.846806,1213.088 892.138806,1214.686 L890.540806,1216.318 C889.452806,1215.196 888.024806,1214.482 886.460806,1214.482 C884.896806,1214.482 883.706806,1215.196 883.706806,1216.556 C883.706806,1217.678 884.556806,1218.222 886.392806,1218.97 L887.922806,1219.616 C890.914806,1220.874 892.308806,1222.166 892.308806,1224.512 C892.308806,1227.742 889.554806,1229.374 886.494806,1229.374 C883.570806,1229.374 881.360806,1227.912 880.034806,1226.144 L881.700806,1224.41 C883.060806,1225.838 884.454806,1226.96 886.460806,1226.96 C888.194806,1226.96 889.622806,1226.11 889.622806,1224.614 C889.622806,1223.186 888.398806,1222.642 886.732806,1221.962 L885.134806,1221.282 C882.618806,1220.228 881.020806,1219.072 881.020806,1216.692 C881.020806,1213.7 883.570806,1212.068 886.596806,1212.068 Z M904.541486,1212.068 C908.451486,1212.068 910.695486,1214.754 910.695486,1218.596 L910.695486,1229 L908.077486,1229 L908.077486,1218.902 C908.077486,1216.284 906.513486,1214.482 903.963486,1214.482 C901.413486,1214.482 899.611486,1216.318 899.611486,1218.902 L899.611486,1229 L896.993486,1229 L896.993486,1212.442 L899.441486,1212.442 L899.441486,1214.244 C900.597486,1212.884 902.399486,1212.068 904.541486,1212.068 Z M919.698167,1206.56 L918.236167,1215.298 L916.162167,1215.298 L916.638167,1206.56 L919.698167,1206.56 Z M932.508847,1226.994 C933.154847,1226.994 933.868847,1226.926 934.718847,1226.79 L934.718847,1229 C933.868847,1229.204 933.018847,1229.374 931.964847,1229.374 C928.700847,1229.374 926.388847,1227.776 926.388847,1224.002 L926.388847,1214.788 L923.600847,1214.788 L923.600847,1212.442 L926.388847,1212.442 L926.388847,1207.92 L929.006847,1207.92 L929.006847,1212.442 L934.174847,1212.442 L934.174847,1214.788 L929.006847,1214.788 L929.006847,1223.832 C929.006847,1226.314 930.434847,1226.994 932.508847,1226.994 Z M954.016208,1212.068 C957.790208,1212.068 960.476208,1214.346 960.476208,1218.8 L960.476208,1229 L958.028208,1229 L958.028208,1226.858 C956.838208,1228.456 954.900208,1229.374 952.452208,1229.374 C949.120208,1229.374 946.672208,1227.606 946.672208,1224.716 C946.672208,1221.928 949.018208,1220.092 952.622208,1220.092 L957.858208,1220.092 L957.858208,1218.664 C957.858208,1215.876 956.294208,1214.482 953.846208,1214.482 C951.772208,1214.482 950.310208,1215.468 949.018208,1217.134 L947.284208,1215.706 C948.848208,1213.19 951.364208,1212.068 954.016208,1212.068 Z M952.792208,1227.198 C955.512208,1227.198 957.858208,1225.226 957.858208,1222.642 L957.858208,1222.234 L952.928208,1222.234 C950.616208,1222.234 949.358208,1223.016 949.358208,1224.58 C949.358208,1226.348 950.956208,1227.198 952.792208,1227.198 Z M977.060889,1212.442 L979.848889,1212.442 L972.062889,1229.374 L971.110889,1229.374 L963.290889,1212.442 L966.078889,1212.442 L971.586889,1224.92 L977.060889,1212.442 Z M988.85157,1212.068 C992.62557,1212.068 995.31157,1214.346 995.31157,1218.8 L995.31157,1229 L992.86357,1229 L992.86357,1226.858 C991.67357,1228.456 989.73557,1229.374 987.28757,1229.374 C983.95557,1229.374 981.50757,1227.606 981.50757,1224.716 C981.50757,1221.928 983.85357,1220.092 987.45757,1220.092 L992.69357,1220.092 L992.69357,1218.664 C992.69357,1215.876 991.12957,1214.482 988.68157,1214.482 C986.60757,1214.482 985.14557,1215.468 983.85357,1217.134 L982.11957,1215.706 C983.68357,1213.19 986.19957,1212.068 988.85157,1212.068 Z M987.62757,1227.198 C990.34757,1227.198 992.69357,1225.226 992.69357,1222.642 L992.69357,1222.234 L987.76357,1222.234 C985.45157,1222.234 984.19357,1223.016 984.19357,1224.58 C984.19357,1226.348 985.79157,1227.198 987.62757,1227.198 Z M1002.13825,1204.214 C1003.19225,1204.214 1004.07625,1205.064 1004.07625,1206.118 C1004.07625,1207.206 1003.19225,1208.022 1002.13825,1208.022 C1001.01625,1208.022 1000.16625,1207.206 1000.16625,1206.118 C1000.16625,1205.064 1001.01625,1204.214 1002.13825,1204.214 Z M1003.43025,1212.442 L1003.43025,1229 L1000.81225,1229 L1000.81225,1212.442 L1003.43025,1212.442 Z M1011.75293,1203.5 L1011.75293,1229 L1009.13493,1229 L1009.13493,1203.5 L1011.75293,1203.5 Z M1023.40761,1212.068 C1027.18161,1212.068 1029.86761,1214.346 1029.86761,1218.8 L1029.86761,1229 L1027.41961,1229 L1027.41961,1226.858 C1026.22961,1228.456 1024.29161,1229.374 1021.84361,1229.374 C1018.51161,1229.374 1016.06361,1227.606 1016.06361,1224.716 C1016.06361,1221.928 1018.40961,1220.092 1022.01361,1220.092 L1027.24961,1220.092 L1027.24961,1218.664 C1027.24961,1215.876 1025.68561,1214.482 1023.23761,1214.482 C1021.16361,1214.482 1019.70161,1215.468 1018.40961,1217.134 L1016.67561,1215.706 C1018.23961,1213.19 1020.75561,1212.068 1023.40761,1212.068 Z M1022.18361,1227.198 C1024.90361,1227.198 1027.24961,1225.226 1027.24961,1222.642 L1027.24961,1222.234 L1022.31961,1222.234 C1020.00761,1222.234 1018.74961,1223.016 1018.74961,1224.58 C1018.74961,1226.348 1020.34761,1227.198 1022.18361,1227.198 Z M1044.07229,1212.068 C1048.79829,1212.068 1052.26629,1215.842 1052.26629,1220.738 C1052.26629,1225.6 1048.83229,1229.374 1044.10629,1229.374 C1041.52229,1229.374 1039.10829,1228.252 1037.81629,1226.348 L1037.81629,1229 L1035.36829,1229 L1035.36829,1203.5 L1037.98629,1203.5 L1037.98629,1214.89 C1039.27829,1213.156 1041.55629,1212.068 1044.07229,1212.068 Z M1043.69829,1226.96 C1047.09829,1226.96 1049.58029,1224.308 1049.58029,1220.704 C1049.58029,1217.1 1047.06429,1214.482 1043.69829,1214.482 C1040.80829,1214.482 1037.95229,1216.386 1037.95229,1220.738 C1037.95229,1225.09 1040.84229,1226.96 1043.69829,1226.96 Z M1059.43297,1203.5 L1059.43297,1229 L1056.81497,1229 L1056.81497,1203.5 L1059.43297,1203.5 Z M1079.96165,1219.548 C1079.96165,1220.432 1079.82565,1221.214 1079.75765,1221.52 L1066.70165,1221.52 C1067.04165,1224.818 1069.48965,1226.96 1072.75365,1226.96 C1074.82765,1226.96 1076.45965,1226.076 1077.81965,1224.716 L1079.34965,1226.484 C1077.68365,1228.252 1075.43965,1229.374 1072.71965,1229.374 C1067.72165,1229.374 1063.94765,1225.6 1063.94765,1220.738 C1063.94765,1215.91 1067.65365,1212.068 1072.41365,1212.068 C1076.66365,1212.068 1079.96165,1215.128 1079.96165,1219.548 Z M1072.34565,1214.448 C1069.55765,1214.448 1067.34765,1216.352 1066.80365,1219.208 L1077.27565,1219.208 C1077.24165,1216.148 1074.99765,1214.448 1072.34565,1214.448 Z M1100.82301,1226.994 C1101.46901,1226.994 1102.18301,1226.926 1103.03301,1226.79 L1103.03301,1229 C1102.18301,1229.204 1101.33301,1229.374 1100.27901,1229.374 C1097.01501,1229.374 1094.70301,1227.776 1094.70301,1224.002 L1094.70301,1214.788 L1091.91501,1214.788 L1091.91501,1212.442 L1094.70301,1212.442 L1094.70301,1207.92 L1097.32101,1207.92 L1097.32101,1212.442 L1102.48901,1212.442 L1102.48901,1214.788 L1097.32101,1214.788 L1097.32101,1223.832 C1097.32101,1226.314 1098.74901,1226.994 1100.82301,1226.994 Z M1114.04169,1212.068 C1118.83569,1212.068 1122.71169,1215.842 1122.71169,1220.704 C1122.71169,1225.532 1118.83569,1229.34 1114.00769,1229.34 C1109.21369,1229.306 1105.37169,1225.566 1105.37169,1220.704 C1105.37169,1215.842 1109.17969,1212.068 1114.04169,1212.068 Z M1114.04169,1214.482 C1110.57369,1214.482 1108.02369,1217.202 1108.05769,1220.738 C1108.05769,1224.24 1110.57369,1226.926 1114.00769,1226.926 C1117.44169,1226.926 1120.02569,1224.206 1120.02569,1220.738 C1120.02569,1217.168 1117.44169,1214.482 1114.04169,1214.482 Z M1143.57306,1226.994 C1144.21906,1226.994 1144.93306,1226.926 1145.78306,1226.79 L1145.78306,1229 C1144.93306,1229.204 1144.08306,1229.374 1143.02906,1229.374 C1139.76506,1229.374 1137.45306,1227.776 1137.45306,1224.002 L1137.45306,1214.788 L1134.66506,1214.788 L1134.66506,1212.442 L1137.45306,1212.442 L1137.45306,1207.92 L1140.07106,1207.92 L1140.07106,1212.442 L1145.23906,1212.442 L1145.23906,1214.788 L1140.07106,1214.788 L1140.07106,1223.832 C1140.07106,1226.314 1141.49906,1226.994 1143.57306,1226.994 Z M1157.23374,1212.068 C1161.10974,1212.068 1163.35374,1214.754 1163.35374,1218.596 L1163.35374,1229 L1160.73574,1229 L1160.73574,1218.936 C1160.73574,1216.318 1159.17174,1214.482 1156.62174,1214.482 C1154.07174,1214.482 1152.26974,1216.352 1152.26974,1218.936 L1152.26974,1229 L1149.65174,1229 L1149.65174,1203.5 L1152.26974,1203.5 L1152.26974,1214.312 C1153.35774,1212.918 1155.09174,1212.068 1157.23374,1212.068 Z M1183.67842,1219.548 C1183.67842,1220.432 1183.54242,1221.214 1183.47442,1221.52 L1170.41842,1221.52 C1170.75842,1224.818 1173.20642,1226.96 1176.47042,1226.96 C1178.54442,1226.96 1180.17642,1226.076 1181.53642,1224.716 L1183.06642,1226.484 C1181.40042,1228.252 1179.15642,1229.374 1176.43642,1229.374 C1171.43842,1229.374 1167.66442,1225.6 1167.66442,1220.738 C1167.66442,1215.91 1171.37042,1212.068 1176.13042,1212.068 C1180.38042,1212.068 1183.67842,1215.128 1183.67842,1219.548 Z M1176.06242,1214.448 C1173.27442,1214.448 1171.06442,1216.352 1170.52042,1219.208 L1180.99242,1219.208 C1180.95842,1216.148 1178.71442,1214.448 1176.06242,1214.448 Z M1206.40978,1212.068 C1211.16978,1212.068 1214.60378,1215.842 1214.60378,1220.704 C1214.60378,1225.6 1211.13578,1229.374 1206.40978,1229.374 C1203.96178,1229.374 1201.64978,1228.354 1200.32378,1226.586 L1200.32378,1235.12 L1197.70578,1235.12 L1197.70578,1212.442 L1200.15378,1212.442 L1200.15378,1215.094 C1201.44578,1213.19 1203.79178,1212.068 1206.40978,1212.068 Z M1206.03578,1226.96 C1209.40178,1226.96 1211.91778,1224.342 1211.91778,1220.738 C1211.91778,1217.134 1209.43578,1214.482 1206.03578,1214.482 C1203.17978,1214.482 1200.28978,1216.352 1200.28978,1220.704 C1200.28978,1225.056 1203.14578,1226.96 1206.03578,1226.96 Z M1232.65046,1212.442 L1232.65046,1222.404 C1232.65046,1226.654 1229.62446,1229.374 1225.81646,1229.374 C1221.94046,1229.374 1218.94846,1226.654 1218.94846,1222.404 L1218.94846,1212.442 L1221.53246,1212.442 L1221.53246,1222.574 C1221.53246,1225.294 1223.43646,1226.96 1225.81646,1226.96 C1228.12846,1226.96 1230.03246,1225.294 1230.03246,1222.574 L1230.03246,1212.442 L1232.65046,1212.442 Z M1246.85514,1212.068 C1251.58114,1212.068 1255.04914,1215.842 1255.04914,1220.738 C1255.04914,1225.6 1251.61514,1229.374 1246.88914,1229.374 C1244.30514,1229.374 1241.89114,1228.252 1240.59914,1226.348 L1240.59914,1229 L1238.15114,1229 L1238.15114,1203.5 L1240.76914,1203.5 L1240.76914,1214.89 C1242.06114,1213.156 1244.33914,1212.068 1246.85514,1212.068 Z M1246.48114,1226.96 C1249.88114,1226.96 1252.36314,1224.308 1252.36314,1220.704 C1252.36314,1217.1 1249.84714,1214.482 1246.48114,1214.482 C1243.59114,1214.482 1240.73514,1216.386 1240.73514,1220.738 C1240.73514,1225.09 1243.62514,1226.96 1246.48114,1226.96 Z M1262.21582,1203.5 L1262.21582,1229 L1259.59782,1229 L1259.59782,1203.5 L1262.21582,1203.5 Z M1269.2465,1204.214 C1270.3005,1204.214 1271.1845,1205.064 1271.1845,1206.118 C1271.1845,1207.206 1270.3005,1208.022 1269.2465,1208.022 C1268.1245,1208.022 1267.2745,1207.206 1267.2745,1206.118 C1267.2745,1205.064 1268.1245,1204.214 1269.2465,1204.214 Z M1270.5385,1212.442 L1270.5385,1229 L1267.9205,1229 L1267.9205,1212.442 L1270.5385,1212.442 Z M1283.72318,1212.068 C1286.71518,1212.068 1289.09518,1213.496 1290.55718,1215.672 L1288.68718,1217.168 C1287.46318,1215.536 1285.89918,1214.482 1283.75718,1214.482 C1280.28918,1214.482 1277.73918,1217.236 1277.73918,1220.704 C1277.73918,1224.206 1280.28918,1226.96 1283.75718,1226.96 C1285.86518,1226.96 1287.42918,1225.94 1288.65318,1224.308 L1290.52318,1225.77 C1289.06118,1227.946 1286.68118,1229.374 1283.72318,1229.374 C1278.89518,1229.374 1275.05318,1225.566 1275.05318,1220.704 C1275.05318,1215.876 1278.89518,1212.068 1283.72318,1212.068 Z M1296.63586,1225.09 C1297.79186,1225.09 1298.77786,1225.974 1298.77786,1227.232 C1298.77786,1228.49 1297.79186,1229.374 1296.63586,1229.374 C1295.47986,1229.374 1294.49386,1228.49 1294.49386,1227.232 C1294.49386,1225.974 1295.47986,1225.09 1296.63586,1225.09 Z" id="Duetothecompany’ssecuritypolicy,thispageisn’tavailabletothepublic."></path>
        </g>
    </g>
</svg>