<?xml version="1.0" encoding="UTF-8"?>
<svg width="740px" height="388px" viewBox="0 0 740 388" version="1.1" xmlns="http://www.w3.org/2000/svg" xmlns:xlink="http://www.w3.org/1999/xlink">
    <!-- Generator: Sketch 53.2 (72643) - https://sketchapp.com -->
    <title>ThisprojectfocusedhelpingredesigntheUIandflowforSparetoShare,apropertymanagementsoftwarethatgivesbuildingsthatgivesresidentsandstaffaneasywaytocommunicateaboutevents,servicerequests,mail,andmore.</title>
    <desc>Created with Sketch.</desc>
    <g id="Page-1" stroke="none" stroke-width="1" fill="none" fill-rule="evenodd">
        <g id="Desktop-HD-Copy-29" transform="translate(-350.000000, -159.000000)" fill="#404648" fill-rule="nonzero">
            <path d="M448.916,164.32 L448.916,167.68 L437.732,167.68 L437.732,196 L433.988,196 L433.988,167.68 L422.852,167.68 L422.852,164.32 L448.916,164.32 Z M463.352,172.096 C468.824,172.096 471.992,175.888 471.992,181.312 L471.992,196 L468.296,196 L468.296,181.792 C468.296,178.096 466.088,175.504 462.488,175.504 C458.888,175.504 456.344,178.144 456.344,181.792 L456.344,196 L452.648,196 L452.648,160 L456.344,160 L456.344,175.264 C457.88,173.296 460.328,172.096 463.352,172.096 Z M480.428,161.008 C481.916,161.008 483.164,162.208 483.164,163.696 C483.164,165.232 481.916,166.384 480.428,166.384 C478.844,166.384 477.644,165.232 477.644,163.696 C477.644,162.208 478.844,161.008 480.428,161.008 Z M482.252,172.624 L482.252,196 L478.556,196 L478.556,172.624 L482.252,172.624 Z M496.16,172.096 C499.52,172.096 502.16,173.536 503.984,175.792 L501.728,178.096 C500.192,176.512 498.176,175.504 495.968,175.504 C493.76,175.504 492.08,176.512 492.08,178.432 C492.08,180.016 493.28,180.784 495.872,181.84 L498.032,182.752 C502.256,184.528 504.224,186.352 504.224,189.664 C504.224,194.224 500.336,196.528 496.016,196.528 C491.888,196.528 488.768,194.464 486.896,191.968 L489.248,189.52 C491.168,191.536 493.136,193.12 495.968,193.12 C498.416,193.12 500.432,191.92 500.432,189.808 C500.432,187.792 498.704,187.024 496.352,186.064 L494.096,185.104 C490.544,183.616 488.288,181.984 488.288,178.624 C488.288,174.4 491.888,172.096 496.16,172.096 Z M534.104,172.096 C540.824,172.096 545.672,177.424 545.672,184.288 C545.672,191.2 540.776,196.528 534.104,196.528 C530.648,196.528 527.384,195.088 525.512,192.592 L525.512,204.64 L521.816,204.64 L521.816,172.624 L525.272,172.624 L525.272,176.368 C527.096,173.68 530.408,172.096 534.104,172.096 Z M533.576,193.12 C538.328,193.12 541.88,189.424 541.88,184.336 C541.88,179.248 538.376,175.504 533.576,175.504 C529.544,175.504 525.464,178.144 525.464,184.288 C525.464,190.432 529.496,193.12 533.576,193.12 Z M561.596,172.432 C562.364,172.432 562.844,172.528 563.324,172.624 L563.324,175.888 L561.932,175.888 C558.14,175.888 554.588,178.288 554.588,182.752 L554.588,196 L550.892,196 L550.892,172.624 L554.348,172.624 L554.348,175.984 C556.076,173.68 558.812,172.432 561.596,172.432 Z M577.088,172.096 C583.856,172.096 589.328,177.424 589.328,184.288 C589.328,191.104 583.856,196.48 577.04,196.48 C570.272,196.432 564.848,191.152 564.848,184.288 C564.848,177.424 570.224,172.096 577.088,172.096 Z M577.088,175.504 C572.192,175.504 568.592,179.344 568.64,184.336 C568.64,189.28 572.192,193.072 577.04,193.072 C581.888,193.072 585.536,189.232 585.536,184.336 C585.536,179.296 581.888,175.504 577.088,175.504 Z M596.42,161.008 C597.908,161.008 599.156,162.208 599.156,163.696 C599.156,165.232 597.908,166.384 596.42,166.384 C594.836,166.384 593.636,165.232 593.636,163.696 C593.636,162.208 594.836,161.008 596.42,161.008 Z M598.244,172.624 L598.244,197.584 C598.244,202.912 595.028,205.168 590.564,205.168 C589.364,205.168 588.452,205.024 587.588,204.784 L587.588,201.664 C588.404,201.76 588.98,201.808 589.748,201.808 C592.58,201.808 594.548,200.8 594.548,197.344 L594.548,172.624 L598.244,172.624 Z M626.024,182.656 C626.024,183.904 625.832,185.008 625.736,185.44 L607.304,185.44 C607.784,190.096 611.24,193.12 615.848,193.12 C618.776,193.12 621.08,191.872 623,189.952 L625.16,192.448 C622.808,194.944 619.64,196.528 615.8,196.528 C608.744,196.528 603.416,191.2 603.416,184.336 C603.416,177.52 608.648,172.096 615.368,172.096 C621.368,172.096 626.024,176.416 626.024,182.656 Z M615.272,175.456 C611.336,175.456 608.216,178.144 607.448,182.176 L622.232,182.176 C622.184,177.856 619.016,175.456 615.272,175.456 Z M641.804,172.096 C646.028,172.096 649.388,174.112 651.452,177.184 L648.812,179.296 C647.084,176.992 644.876,175.504 641.852,175.504 C636.956,175.504 633.356,179.392 633.356,184.288 C633.356,189.232 636.956,193.12 641.852,193.12 C644.828,193.12 647.036,191.68 648.764,189.376 L651.404,191.44 C649.34,194.512 645.98,196.528 641.804,196.528 C634.988,196.528 629.564,191.152 629.564,184.288 C629.564,177.472 634.988,172.096 641.804,172.096 Z M666.08,193.168 C666.992,193.168 668,193.072 669.2,192.88 L669.2,196 C668,196.288 666.8,196.528 665.312,196.528 C660.704,196.528 657.44,194.272 657.44,188.944 L657.44,175.936 L653.504,175.936 L653.504,172.624 L657.44,172.624 L657.44,166.24 L661.136,166.24 L661.136,172.624 L668.432,172.624 L668.432,175.936 L661.136,175.936 L661.136,188.704 C661.136,192.208 663.152,193.168 666.08,193.168 Z M694.808,162.832 C691.928,162.832 689.912,163.792 689.912,167.296 L689.912,172.624 L695.768,172.624 L695.768,175.936 L689.912,175.936 L689.912,196 L686.216,196 L686.216,175.936 L682.856,175.936 L682.856,172.624 L686.216,172.624 L686.216,167.056 C686.216,161.728 689.432,159.472 693.944,159.472 C695.096,159.472 696.008,159.616 696.872,159.856 L696.872,162.976 C696.104,162.88 695.432,162.832 694.808,162.832 Z M709.484,172.096 C716.252,172.096 721.724,177.424 721.724,184.288 C721.724,191.104 716.252,196.48 709.436,196.48 C702.668,196.432 697.244,191.152 697.244,184.288 C697.244,177.424 702.62,172.096 709.484,172.096 Z M709.484,175.504 C704.588,175.504 700.988,179.344 701.036,184.336 C701.036,189.28 704.588,193.072 709.436,193.072 C714.284,193.072 717.932,189.232 717.932,184.336 C717.932,179.296 714.284,175.504 709.484,175.504 Z M737.504,172.096 C741.728,172.096 745.088,174.112 747.152,177.184 L744.512,179.296 C742.784,176.992 740.576,175.504 737.552,175.504 C732.656,175.504 729.056,179.392 729.056,184.288 C729.056,189.232 732.656,193.12 737.552,193.12 C740.528,193.12 742.736,191.68 744.464,189.376 L747.104,191.44 C745.04,194.512 741.68,196.528 737.504,196.528 C730.688,196.528 725.264,191.152 725.264,184.288 C725.264,177.472 730.688,172.096 737.504,172.096 Z M771.188,172.624 L771.188,186.688 C771.188,192.688 766.916,196.528 761.54,196.528 C756.068,196.528 751.844,192.688 751.844,186.688 L751.844,172.624 L755.492,172.624 L755.492,186.928 C755.492,190.768 758.18,193.12 761.54,193.12 C764.804,193.12 767.492,190.768 767.492,186.928 L767.492,172.624 L771.188,172.624 Z M784.808,172.096 C788.168,172.096 790.808,173.536 792.632,175.792 L790.376,178.096 C788.84,176.512 786.824,175.504 784.616,175.504 C782.408,175.504 780.728,176.512 780.728,178.432 C780.728,180.016 781.928,180.784 784.52,181.84 L786.68,182.752 C790.904,184.528 792.872,186.352 792.872,189.664 C792.872,194.224 788.984,196.528 784.664,196.528 C780.536,196.528 777.416,194.464 775.544,191.968 L777.896,189.52 C779.816,191.536 781.784,193.12 784.616,193.12 C787.064,193.12 789.08,191.92 789.08,189.808 C789.08,187.792 787.352,187.024 785,186.064 L782.744,185.104 C779.192,183.616 776.936,181.984 776.936,178.624 C776.936,174.4 780.536,172.096 784.808,172.096 Z M819.212,182.656 C819.212,183.904 819.02,185.008 818.924,185.44 L800.492,185.44 C800.972,190.096 804.428,193.12 809.036,193.12 C811.964,193.12 814.268,191.872 816.188,189.952 L818.348,192.448 C815.996,194.944 812.828,196.528 808.988,196.528 C801.932,196.528 796.604,191.2 796.604,184.336 C796.604,177.52 801.836,172.096 808.556,172.096 C814.556,172.096 819.212,176.416 819.212,182.656 Z M808.46,175.456 C804.524,175.456 801.404,178.144 800.636,182.176 L815.42,182.176 C815.372,177.856 812.204,175.456 808.46,175.456 Z M842.96,160 L846.656,160 L846.656,196 L843.152,196 L843.152,192.256 C841.328,194.944 838.016,196.528 834.32,196.528 C827.648,196.528 822.752,191.2 822.752,184.336 C822.752,177.424 827.648,172.096 834.32,172.096 C837.872,172.096 841.088,173.584 842.96,176.08 L842.96,160 Z M834.848,193.12 C838.88,193.12 843.008,190.48 843.008,184.336 C843.008,178.192 838.88,175.504 834.848,175.504 C830.096,175.504 826.544,179.2 826.544,184.288 C826.544,189.376 830.048,193.12 834.848,193.12 Z M876.392,172.096 C881.864,172.096 885.032,175.888 885.032,181.312 L885.032,196 L881.336,196 L881.336,181.792 C881.336,178.096 879.128,175.504 875.528,175.504 C871.928,175.504 869.384,178.144 869.384,181.792 L869.384,196 L865.688,196 L865.688,160 L869.384,160 L869.384,175.264 C870.92,173.296 873.368,172.096 876.392,172.096 Z M912.524,182.656 C912.524,183.904 912.332,185.008 912.236,185.44 L893.804,185.44 C894.284,190.096 897.74,193.12 902.348,193.12 C905.276,193.12 907.58,191.872 909.5,189.952 L911.66,192.448 C909.308,194.944 906.14,196.528 902.3,196.528 C895.244,196.528 889.916,191.2 889.916,184.336 C889.916,177.52 895.148,172.096 901.868,172.096 C907.868,172.096 912.524,176.416 912.524,182.656 Z M901.772,175.456 C897.836,175.456 894.716,178.144 893.948,182.176 L908.732,182.176 C908.684,177.856 905.516,175.456 901.772,175.456 Z M921.44,160 L921.44,196 L917.744,196 L917.744,160 L921.44,160 Z M940.58,172.096 C947.3,172.096 952.148,177.424 952.148,184.288 C952.148,191.2 947.252,196.528 940.58,196.528 C937.124,196.528 933.86,195.088 931.988,192.592 L931.988,204.64 L928.292,204.64 L928.292,172.624 L931.748,172.624 L931.748,176.368 C933.572,173.68 936.884,172.096 940.58,172.096 Z M940.052,193.12 C944.804,193.12 948.356,189.424 948.356,184.336 C948.356,179.248 944.852,175.504 940.052,175.504 C936.02,175.504 931.94,178.144 931.94,184.288 C931.94,190.432 935.972,193.12 940.052,193.12 Z M959.24,161.008 C960.728,161.008 961.976,162.208 961.976,163.696 C961.976,165.232 960.728,166.384 959.24,166.384 C957.656,166.384 956.456,165.232 956.456,163.696 C956.456,162.208 957.656,161.008 959.24,161.008 Z M961.064,172.624 L961.064,196 L957.368,196 L957.368,172.624 L961.064,172.624 Z M978.572,172.096 C984.092,172.096 987.26,175.888 987.26,181.312 L987.26,196 L983.564,196 L983.564,181.744 C983.564,178.048 981.356,175.504 977.756,175.504 C974.156,175.504 971.612,178.096 971.612,181.744 L971.612,196 L967.916,196 L967.916,172.624 L971.372,172.624 L971.372,175.168 C973.004,173.248 975.548,172.096 978.572,172.096 Z M1012.784,172.624 L1016.288,172.624 L1016.288,193.744 C1016.288,200.944 1011.728,205.168 1004.912,205.168 C1000.016,205.168 996.224,202.96 993.92,200.656 L996.08,198.064 C998.336,200.032 1000.976,201.76 1004.816,201.76 C1009.568,201.76 1012.592,199.12 1012.592,193.936 L1012.592,191.872 C1010.672,194.32 1007.408,195.76 1003.904,195.76 C997.328,195.76 992.432,190.768 992.432,183.952 C992.432,177.184 997.328,172.096 1003.904,172.096 C1007.6,172.096 1010.96,173.728 1012.784,176.416 L1012.784,172.624 Z M1004.48,192.352 C1008.56,192.352 1012.64,189.808 1012.64,183.952 C1012.64,178.096 1008.512,175.6 1004.48,175.6 C999.728,175.6 996.176,179.056 996.176,184 C996.176,188.944 999.728,192.352 1004.48,192.352 Z M376.976,229.432 C377.744,229.432 378.224,229.528 378.704,229.624 L378.704,232.888 L377.312,232.888 C373.52,232.888 369.968,235.288 369.968,239.752 L369.968,253 L366.272,253 L366.272,229.624 L369.728,229.624 L369.728,232.984 C371.456,230.68 374.192,229.432 376.976,229.432 Z M402.836,239.656 C402.836,240.904 402.644,242.008 402.548,242.44 L384.116,242.44 C384.596,247.096 388.052,250.12 392.66,250.12 C395.588,250.12 397.892,248.872 399.812,246.952 L401.972,249.448 C399.62,251.944 396.452,253.528 392.612,253.528 C385.556,253.528 380.228,248.2 380.228,241.336 C380.228,234.52 385.46,229.096 392.18,229.096 C398.18,229.096 402.836,233.416 402.836,239.656 Z M392.084,232.456 C388.148,232.456 385.028,235.144 384.26,239.176 L399.044,239.176 C398.996,234.856 395.828,232.456 392.084,232.456 Z M426.584,217 L430.28,217 L430.28,253 L426.776,253 L426.776,249.256 C424.952,251.944 421.64,253.528 417.944,253.528 C411.272,253.528 406.376,248.2 406.376,241.336 C406.376,234.424 411.272,229.096 417.944,229.096 C421.496,229.096 424.712,230.584 426.584,233.08 L426.584,217 Z M418.472,250.12 C422.504,250.12 426.632,247.48 426.632,241.336 C426.632,235.192 422.504,232.504 418.472,232.504 C413.72,232.504 410.168,236.2 410.168,241.288 C410.168,246.376 413.672,250.12 418.472,250.12 Z M458.06,239.656 C458.06,240.904 457.868,242.008 457.772,242.44 L439.34,242.44 C439.82,247.096 443.276,250.12 447.884,250.12 C450.812,250.12 453.116,248.872 455.036,246.952 L457.196,249.448 C454.844,251.944 451.676,253.528 447.836,253.528 C440.78,253.528 435.452,248.2 435.452,241.336 C435.452,234.52 440.684,229.096 447.404,229.096 C453.404,229.096 458.06,233.416 458.06,239.656 Z M447.308,232.456 C443.372,232.456 440.252,235.144 439.484,239.176 L454.268,239.176 C454.22,234.856 451.052,232.456 447.308,232.456 Z M470.336,229.096 C473.696,229.096 476.336,230.536 478.16,232.792 L475.904,235.096 C474.368,233.512 472.352,232.504 470.144,232.504 C467.936,232.504 466.256,233.512 466.256,235.432 C466.256,237.016 467.456,237.784 470.048,238.84 L472.208,239.752 C476.432,241.528 478.4,243.352 478.4,246.664 C478.4,251.224 474.512,253.528 470.192,253.528 C466.064,253.528 462.944,251.464 461.072,248.968 L463.424,246.52 C465.344,248.536 467.312,250.12 470.144,250.12 C472.592,250.12 474.608,248.92 474.608,246.808 C474.608,244.792 472.88,244.024 470.528,243.064 L468.272,242.104 C464.72,240.616 462.464,238.984 462.464,235.624 C462.464,231.4 466.064,229.096 470.336,229.096 Z M485.684,218.008 C487.172,218.008 488.42,219.208 488.42,220.696 C488.42,222.232 487.172,223.384 485.684,223.384 C484.1,223.384 482.9,222.232 482.9,220.696 C482.9,219.208 484.1,218.008 485.684,218.008 Z M487.508,229.624 L487.508,253 L483.812,253 L483.812,229.624 L487.508,229.624 Z M513.32,229.624 L516.824,229.624 L516.824,250.744 C516.824,257.944 512.264,262.168 505.448,262.168 C500.552,262.168 496.76,259.96 494.456,257.656 L496.616,255.064 C498.872,257.032 501.512,258.76 505.352,258.76 C510.104,258.76 513.128,256.12 513.128,250.936 L513.128,248.872 C511.208,251.32 507.944,252.76 504.44,252.76 C497.864,252.76 492.968,247.768 492.968,240.952 C492.968,234.184 497.864,229.096 504.44,229.096 C508.136,229.096 511.496,230.728 513.32,233.416 L513.32,229.624 Z M505.016,249.352 C509.096,249.352 513.176,246.808 513.176,240.952 C513.176,235.096 509.048,232.6 505.016,232.6 C500.264,232.6 496.712,236.056 496.712,241 C496.712,245.944 500.264,249.352 505.016,249.352 Z M534.332,229.096 C539.852,229.096 543.02,232.888 543.02,238.312 L543.02,253 L539.324,253 L539.324,238.744 C539.324,235.048 537.116,232.504 533.516,232.504 C529.916,232.504 527.372,235.096 527.372,238.744 L527.372,253 L523.676,253 L523.676,229.624 L527.132,229.624 L527.132,232.168 C528.764,230.248 531.308,229.096 534.332,229.096 Z M571.412,250.168 C572.324,250.168 573.332,250.072 574.532,249.88 L574.532,253 C573.332,253.288 572.132,253.528 570.644,253.528 C566.036,253.528 562.772,251.272 562.772,245.944 L562.772,232.936 L558.836,232.936 L558.836,229.624 L562.772,229.624 L562.772,223.24 L566.468,223.24 L566.468,229.624 L573.764,229.624 L573.764,232.936 L566.468,232.936 L566.468,245.704 C566.468,249.208 568.484,250.168 571.412,250.168 Z M589.496,229.096 C594.968,229.096 598.136,232.888 598.136,238.312 L598.136,253 L594.44,253 L594.44,238.792 C594.44,235.096 592.232,232.504 588.632,232.504 C585.032,232.504 582.488,235.144 582.488,238.792 L582.488,253 L578.792,253 L578.792,217 L582.488,217 L582.488,232.264 C584.024,230.296 586.472,229.096 589.496,229.096 Z M625.628,239.656 C625.628,240.904 625.436,242.008 625.34,242.44 L606.908,242.44 C607.388,247.096 610.844,250.12 615.452,250.12 C618.38,250.12 620.684,248.872 622.604,246.952 L624.764,249.448 C622.412,251.944 619.244,253.528 615.404,253.528 C608.348,253.528 603.02,248.2 603.02,241.336 C603.02,234.52 608.252,229.096 614.972,229.096 C620.972,229.096 625.628,233.416 625.628,239.656 Z M614.876,232.456 C610.94,232.456 607.82,235.144 607.052,239.176 L621.836,239.176 C621.788,234.856 618.62,232.456 614.876,232.456 Z M668.036,221.32 L668.036,240.424 C668.036,248.872 662.66,253.528 655.508,253.528 C648.212,253.528 642.884,248.872 642.884,240.424 L642.884,221.32 L646.628,221.32 L646.628,240.664 C646.628,247.048 650.564,250.072 655.508,250.072 C660.404,250.072 664.292,247.048 664.292,240.664 L664.292,221.32 L668.036,221.32 Z M678.872,221.32 L678.872,253 L675.128,253 L675.128,221.32 L678.872,221.32 Z M706.592,229.096 C711.92,229.096 715.712,232.312 715.712,238.6 L715.712,253 L712.256,253 L712.256,249.976 C710.576,252.232 707.84,253.528 704.384,253.528 C699.68,253.528 696.224,251.032 696.224,246.952 C696.224,243.016 699.536,240.424 704.624,240.424 L712.016,240.424 L712.016,238.408 C712.016,234.472 709.808,232.504 706.352,232.504 C703.424,232.504 701.36,233.896 699.536,236.248 L697.088,234.232 C699.296,230.68 702.848,229.096 706.592,229.096 Z M704.864,250.456 C708.704,250.456 712.016,247.672 712.016,244.024 L712.016,243.448 L705.056,243.448 C701.792,243.448 700.016,244.552 700.016,246.76 C700.016,249.256 702.272,250.456 704.864,250.456 Z M732.932,229.096 C738.452,229.096 741.62,232.888 741.62,238.312 L741.62,253 L737.924,253 L737.924,238.744 C737.924,235.048 735.716,232.504 732.116,232.504 C728.516,232.504 725.972,235.096 725.972,238.744 L725.972,253 L722.276,253 L722.276,229.624 L725.732,229.624 L725.732,232.168 C727.364,230.248 729.908,229.096 732.932,229.096 Z M766.712,217 L770.408,217 L770.408,253 L766.904,253 L766.904,249.256 C765.08,251.944 761.768,253.528 758.072,253.528 C751.4,253.528 746.504,248.2 746.504,241.336 C746.504,234.424 751.4,229.096 758.072,229.096 C761.624,229.096 764.84,230.584 766.712,233.08 L766.712,217 Z M758.6,250.12 C762.632,250.12 766.76,247.48 766.76,241.336 C766.76,235.192 762.632,232.504 758.6,232.504 C753.848,232.504 750.296,236.2 750.296,241.288 C750.296,246.376 753.8,250.12 758.6,250.12 Z M798.608,219.832 C795.728,219.832 793.712,220.792 793.712,224.296 L793.712,229.624 L799.568,229.624 L799.568,232.936 L793.712,232.936 L793.712,253 L790.016,253 L790.016,232.936 L786.656,232.936 L786.656,229.624 L790.016,229.624 L790.016,224.056 C790.016,218.728 793.232,216.472 797.744,216.472 C798.896,216.472 799.808,216.616 800.672,216.856 L800.672,219.976 C799.904,219.88 799.232,219.832 798.608,219.832 Z M807.14,217 L807.14,253 L803.444,253 L803.444,217 L807.14,217 Z M824.552,229.096 C831.32,229.096 836.792,234.424 836.792,241.288 C836.792,248.104 831.32,253.48 824.504,253.48 C817.736,253.432 812.312,248.152 812.312,241.288 C812.312,234.424 817.688,229.096 824.552,229.096 Z M824.552,232.504 C819.656,232.504 816.056,236.344 816.104,241.336 C816.104,246.28 819.656,250.072 824.504,250.072 C829.352,250.072 833,246.232 833,241.336 C833,236.296 829.352,232.504 824.552,232.504 Z M872.588,229.624 L876.524,229.624 L866.684,253.528 L865.34,253.528 L857.372,235.864 L849.452,253.528 L848.156,253.528 L838.22,229.624 L842.156,229.624 L848.876,246.904 L856.7,229.096 L858.092,229.096 L865.964,246.808 L872.588,229.624 Z M901.988,219.832 C899.108,219.832 897.092,220.792 897.092,224.296 L897.092,229.624 L902.948,229.624 L902.948,232.936 L897.092,232.936 L897.092,253 L893.396,253 L893.396,232.936 L890.036,232.936 L890.036,229.624 L893.396,229.624 L893.396,224.056 C893.396,218.728 896.612,216.472 901.124,216.472 C902.276,216.472 903.188,216.616 904.052,216.856 L904.052,219.976 C903.284,219.88 902.612,219.832 901.988,219.832 Z M916.664,229.096 C923.432,229.096 928.904,234.424 928.904,241.288 C928.904,248.104 923.432,253.48 916.616,253.48 C909.848,253.432 904.424,248.152 904.424,241.288 C904.424,234.424 909.8,229.096 916.664,229.096 Z M916.664,232.504 C911.768,232.504 908.168,236.344 908.216,241.336 C908.216,246.28 911.768,250.072 916.616,250.072 C921.464,250.072 925.112,246.232 925.112,241.336 C925.112,236.296 921.464,232.504 916.664,232.504 Z M944.828,229.432 C945.596,229.432 946.076,229.528 946.556,229.624 L946.556,232.888 L945.164,232.888 C941.372,232.888 937.82,235.288 937.82,239.752 L937.82,253 L934.124,253 L934.124,229.624 L937.58,229.624 L937.58,232.984 C939.308,230.68 942.044,229.432 944.828,229.432 Z M971.876,220.792 C976.196,220.792 979.844,223.048 981.812,226.168 L979.076,228.232 C977.396,225.688 974.708,224.248 971.828,224.248 C968.9,224.248 966.212,225.736 966.212,228.856 C966.212,231.736 968.42,232.792 971.3,234.184 L974.804,235.864 C979.412,238.072 982.196,240.424 982.196,244.696 C982.196,250.024 977.828,253.528 971.972,253.528 C966.932,253.528 962.756,250.888 960.308,246.712 L963.092,244.648 C965.012,247.576 967.844,250.072 971.924,250.072 C975.668,250.072 978.308,248.008 978.308,244.792 C978.308,241.864 976.148,240.712 973.028,239.224 L969.476,237.544 C965.78,235.768 962.324,233.512 962.324,229.048 C962.324,224.008 966.74,220.792 971.876,220.792 Z M1000.232,229.096 C1006.952,229.096 1011.8,234.424 1011.8,241.288 C1011.8,248.2 1006.904,253.528 1000.232,253.528 C996.776,253.528 993.512,252.088 991.64,249.592 L991.64,261.64 L987.944,261.64 L987.944,229.624 L991.4,229.624 L991.4,233.368 C993.224,230.68 996.536,229.096 1000.232,229.096 Z M999.704,250.12 C1004.456,250.12 1008.008,246.424 1008.008,241.336 C1008.008,236.248 1004.504,232.504 999.704,232.504 C995.672,232.504 991.592,235.144 991.592,241.288 C991.592,247.432 995.624,250.12 999.704,250.12 Z M1025.42,229.096 C1030.748,229.096 1034.54,232.312 1034.54,238.6 L1034.54,253 L1031.084,253 L1031.084,249.976 C1029.404,252.232 1026.668,253.528 1023.212,253.528 C1018.508,253.528 1015.052,251.032 1015.052,246.952 C1015.052,243.016 1018.364,240.424 1023.452,240.424 L1030.844,240.424 L1030.844,238.408 C1030.844,234.472 1028.636,232.504 1025.18,232.504 C1022.252,232.504 1020.188,233.896 1018.364,236.248 L1015.916,234.232 C1018.124,230.68 1021.676,229.096 1025.42,229.096 Z M1023.692,250.456 C1027.532,250.456 1030.844,247.672 1030.844,244.024 L1030.844,243.448 L1023.884,243.448 C1020.62,243.448 1018.844,244.552 1018.844,246.76 C1018.844,249.256 1021.1,250.456 1023.692,250.456 Z M1051.808,229.432 C1052.576,229.432 1053.056,229.528 1053.536,229.624 L1053.536,232.888 L1052.144,232.888 C1048.352,232.888 1044.8,235.288 1044.8,239.752 L1044.8,253 L1041.104,253 L1041.104,229.624 L1044.56,229.624 L1044.56,232.984 C1046.288,230.68 1049.024,229.432 1051.808,229.432 Z M1077.668,239.656 C1077.668,240.904 1077.476,242.008 1077.38,242.44 L1058.948,242.44 C1059.428,247.096 1062.884,250.12 1067.492,250.12 C1070.42,250.12 1072.724,248.872 1074.644,246.952 L1076.804,249.448 C1074.452,251.944 1071.284,253.528 1067.444,253.528 C1060.388,253.528 1055.06,248.2 1055.06,241.336 C1055.06,234.52 1060.292,229.096 1067.012,229.096 C1073.012,229.096 1077.668,233.416 1077.668,239.656 Z M1066.916,232.456 C1062.98,232.456 1059.86,235.144 1059.092,239.176 L1073.876,239.176 C1073.828,234.856 1070.66,232.456 1066.916,232.456 Z M378.182,307.168 C379.094,307.168 380.102,307.072 381.302,306.88 L381.302,310 C380.102,310.288 378.902,310.528 377.414,310.528 C372.806,310.528 369.542,308.272 369.542,302.944 L369.542,289.936 L365.606,289.936 L365.606,286.624 L369.542,286.624 L369.542,280.24 L373.238,280.24 L373.238,286.624 L380.534,286.624 L380.534,289.936 L373.238,289.936 L373.238,302.704 C373.238,306.208 375.254,307.168 378.182,307.168 Z M395.642,286.096 C402.41,286.096 407.882,291.424 407.882,298.288 C407.882,305.104 402.41,310.48 395.594,310.48 C388.826,310.432 383.402,305.152 383.402,298.288 C383.402,291.424 388.778,286.096 395.642,286.096 Z M395.642,289.504 C390.746,289.504 387.146,293.344 387.194,298.336 C387.194,303.28 390.746,307.072 395.594,307.072 C400.442,307.072 404.09,303.232 404.09,298.336 C404.09,293.296 400.442,289.504 395.642,289.504 Z M434.738,277.792 C439.058,277.792 442.706,280.048 444.674,283.168 L441.938,285.232 C440.258,282.688 437.57,281.248 434.69,281.248 C431.762,281.248 429.074,282.736 429.074,285.856 C429.074,288.736 431.282,289.792 434.162,291.184 L437.666,292.864 C442.274,295.072 445.058,297.424 445.058,301.696 C445.058,307.024 440.69,310.528 434.834,310.528 C429.794,310.528 425.618,307.888 423.17,303.712 L425.954,301.648 C427.874,304.576 430.706,307.072 434.786,307.072 C438.53,307.072 441.17,305.008 441.17,301.792 C441.17,298.864 439.01,297.712 435.89,296.224 L432.338,294.544 C428.642,292.768 425.186,290.512 425.186,286.048 C425.186,281.008 429.602,277.792 434.738,277.792 Z M461.51,286.096 C466.982,286.096 470.15,289.888 470.15,295.312 L470.15,310 L466.454,310 L466.454,295.792 C466.454,292.096 464.246,289.504 460.646,289.504 C457.046,289.504 454.502,292.144 454.502,295.792 L454.502,310 L450.806,310 L450.806,274 L454.502,274 L454.502,289.264 C456.038,287.296 458.486,286.096 461.51,286.096 Z M485.114,286.096 C490.442,286.096 494.234,289.312 494.234,295.6 L494.234,310 L490.778,310 L490.778,306.976 C489.098,309.232 486.362,310.528 482.906,310.528 C478.202,310.528 474.746,308.032 474.746,303.952 C474.746,300.016 478.058,297.424 483.146,297.424 L490.538,297.424 L490.538,295.408 C490.538,291.472 488.33,289.504 484.874,289.504 C481.946,289.504 479.882,290.896 478.058,293.248 L475.61,291.232 C477.818,287.68 481.37,286.096 485.114,286.096 Z M483.386,307.456 C487.226,307.456 490.538,304.672 490.538,301.024 L490.538,300.448 L483.578,300.448 C480.314,300.448 478.538,301.552 478.538,303.76 C478.538,306.256 480.794,307.456 483.386,307.456 Z M511.502,286.432 C512.27,286.432 512.75,286.528 513.23,286.624 L513.23,289.888 L511.838,289.888 C508.046,289.888 504.494,292.288 504.494,296.752 L504.494,310 L500.798,310 L500.798,286.624 L504.254,286.624 L504.254,289.984 C505.982,287.68 508.718,286.432 511.502,286.432 Z M537.362,296.656 C537.362,297.904 537.17,299.008 537.074,299.44 L518.642,299.44 C519.122,304.096 522.578,307.12 527.186,307.12 C530.114,307.12 532.418,305.872 534.338,303.952 L536.498,306.448 C534.146,308.944 530.978,310.528 527.138,310.528 C520.082,310.528 514.754,305.2 514.754,298.336 C514.754,291.52 519.986,286.096 526.706,286.096 C532.706,286.096 537.362,290.416 537.362,296.656 Z M526.61,289.456 C522.674,289.456 519.554,292.144 518.786,296.176 L533.57,296.176 C533.522,291.856 530.354,289.456 526.61,289.456 Z M547.574,305.68 L545.606,318.592 L542.582,318.592 L543.206,305.68 L547.574,305.68 Z M574.862,286.096 C580.19,286.096 583.982,289.312 583.982,295.6 L583.982,310 L580.526,310 L580.526,306.976 C578.846,309.232 576.11,310.528 572.654,310.528 C567.95,310.528 564.494,308.032 564.494,303.952 C564.494,300.016 567.806,297.424 572.894,297.424 L580.286,297.424 L580.286,295.408 C580.286,291.472 578.078,289.504 574.622,289.504 C571.694,289.504 569.63,290.896 567.806,293.248 L565.358,291.232 C567.566,287.68 571.118,286.096 574.862,286.096 Z M573.134,307.456 C576.974,307.456 580.286,304.672 580.286,301.024 L580.286,300.448 L573.326,300.448 C570.062,300.448 568.286,301.552 568.286,303.76 C568.286,306.256 570.542,307.456 573.134,307.456 Z M615.014,286.096 C621.734,286.096 626.582,291.424 626.582,298.288 C626.582,305.2 621.686,310.528 615.014,310.528 C611.558,310.528 608.294,309.088 606.422,306.592 L606.422,318.64 L602.726,318.64 L602.726,286.624 L606.182,286.624 L606.182,290.368 C608.006,287.68 611.318,286.096 615.014,286.096 Z M614.486,307.12 C619.238,307.12 622.79,303.424 622.79,298.336 C622.79,293.248 619.286,289.504 614.486,289.504 C610.454,289.504 606.374,292.144 606.374,298.288 C606.374,304.432 610.406,307.12 614.486,307.12 Z M642.506,286.432 C643.274,286.432 643.754,286.528 644.234,286.624 L644.234,289.888 L642.842,289.888 C639.05,289.888 635.498,292.288 635.498,296.752 L635.498,310 L631.802,310 L631.802,286.624 L635.258,286.624 L635.258,289.984 C636.986,287.68 639.722,286.432 642.506,286.432 Z M657.998,286.096 C664.766,286.096 670.238,291.424 670.238,298.288 C670.238,305.104 664.766,310.48 657.95,310.48 C651.182,310.432 645.758,305.152 645.758,298.288 C645.758,291.424 651.134,286.096 657.998,286.096 Z M657.998,289.504 C653.102,289.504 649.502,293.344 649.55,298.336 C649.55,303.28 653.102,307.072 657.95,307.072 C662.798,307.072 666.446,303.232 666.446,298.336 C666.446,293.296 662.798,289.504 657.998,289.504 Z M687.746,286.096 C694.466,286.096 699.314,291.424 699.314,298.288 C699.314,305.2 694.418,310.528 687.746,310.528 C684.29,310.528 681.026,309.088 679.154,306.592 L679.154,318.64 L675.458,318.64 L675.458,286.624 L678.914,286.624 L678.914,290.368 C680.738,287.68 684.05,286.096 687.746,286.096 Z M687.218,307.12 C691.97,307.12 695.522,303.424 695.522,298.336 C695.522,293.248 692.018,289.504 687.218,289.504 C683.186,289.504 679.106,292.144 679.106,298.288 C679.106,304.432 683.138,307.12 687.218,307.12 Z M725.462,296.656 C725.462,297.904 725.27,299.008 725.174,299.44 L706.742,299.44 C707.222,304.096 710.678,307.12 715.286,307.12 C718.214,307.12 720.518,305.872 722.438,303.952 L724.598,306.448 C722.246,308.944 719.078,310.528 715.238,310.528 C708.182,310.528 702.854,305.2 702.854,298.336 C702.854,291.52 708.086,286.096 714.806,286.096 C720.806,286.096 725.462,290.416 725.462,296.656 Z M714.71,289.456 C710.774,289.456 707.654,292.144 706.886,296.176 L721.67,296.176 C721.622,291.856 718.454,289.456 714.71,289.456 Z M741.386,286.432 C742.154,286.432 742.634,286.528 743.114,286.624 L743.114,289.888 L741.722,289.888 C737.93,289.888 734.378,292.288 734.378,296.752 L734.378,310 L730.682,310 L730.682,286.624 L734.138,286.624 L734.138,289.984 C735.866,287.68 738.602,286.432 741.386,286.432 Z M756.446,307.168 C757.358,307.168 758.366,307.072 759.566,306.88 L759.566,310 C758.366,310.288 757.166,310.528 755.678,310.528 C751.07,310.528 747.806,308.272 747.806,302.944 L747.806,289.936 L743.87,289.936 L743.87,286.624 L747.806,286.624 L747.806,280.24 L751.502,280.24 L751.502,286.624 L758.798,286.624 L758.798,289.936 L751.502,289.936 L751.502,302.704 C751.502,306.208 753.518,307.168 756.446,307.168 Z M780.434,286.624 L784.37,286.624 L772.85,313.264 C771.026,317.44 768.482,319.168 764.93,319.168 C763.778,319.168 762.434,318.976 761.33,318.688 L761.33,315.568 C762.434,315.712 763.346,315.808 764.162,315.808 C766.418,315.808 768.146,315.04 769.442,312.064 L770.69,309.232 L760.994,286.624 L764.978,286.624 L772.706,305.248 L780.434,286.624 Z M826.25,286.096 C831.722,286.096 834.746,289.888 834.746,295.312 L834.746,310 L831.05,310 L831.05,295.792 C831.05,292.096 829.034,289.504 825.53,289.504 C821.978,289.504 819.53,292.192 819.53,295.456 L819.53,310 L815.834,310 L815.834,295.792 C815.834,292.096 813.722,289.504 810.266,289.504 C806.714,289.504 804.314,292.096 804.314,295.792 L804.314,310 L800.618,310 L800.618,286.624 L804.074,286.624 L804.074,289.072 C805.706,287.2 808.106,286.096 811.034,286.096 C814.538,286.096 816.938,287.68 818.234,290.128 C819.866,287.776 822.65,286.096 826.25,286.096 Z M849.71,286.096 C855.038,286.096 858.83,289.312 858.83,295.6 L858.83,310 L855.374,310 L855.374,306.976 C853.694,309.232 850.958,310.528 847.502,310.528 C842.798,310.528 839.342,308.032 839.342,303.952 C839.342,300.016 842.654,297.424 847.742,297.424 L855.134,297.424 L855.134,295.408 C855.134,291.472 852.926,289.504 849.47,289.504 C846.542,289.504 844.478,290.896 842.654,293.248 L840.206,291.232 C842.414,287.68 845.966,286.096 849.71,286.096 Z M847.982,307.456 C851.822,307.456 855.134,304.672 855.134,301.024 L855.134,300.448 L848.174,300.448 C844.91,300.448 843.134,301.552 843.134,303.76 C843.134,306.256 845.39,307.456 847.982,307.456 Z M876.05,286.096 C881.57,286.096 884.738,289.888 884.738,295.312 L884.738,310 L881.042,310 L881.042,295.744 C881.042,292.048 878.834,289.504 875.234,289.504 C871.634,289.504 869.09,292.096 869.09,295.744 L869.09,310 L865.394,310 L865.394,286.624 L868.85,286.624 L868.85,289.168 C870.482,287.248 873.026,286.096 876.05,286.096 Z M899.702,286.096 C905.03,286.096 908.822,289.312 908.822,295.6 L908.822,310 L905.366,310 L905.366,306.976 C903.686,309.232 900.95,310.528 897.494,310.528 C892.79,310.528 889.334,308.032 889.334,303.952 C889.334,300.016 892.646,297.424 897.734,297.424 L905.126,297.424 L905.126,295.408 C905.126,291.472 902.918,289.504 899.462,289.504 C896.534,289.504 894.47,290.896 892.646,293.248 L890.198,291.232 C892.406,287.68 895.958,286.096 899.702,286.096 Z M897.974,307.456 C901.814,307.456 905.126,304.672 905.126,301.024 L905.126,300.448 L898.166,300.448 C894.902,300.448 893.126,301.552 893.126,303.76 C893.126,306.256 895.382,307.456 897.974,307.456 Z M934.346,286.624 L937.85,286.624 L937.85,307.744 C937.85,314.944 933.29,319.168 926.474,319.168 C921.578,319.168 917.786,316.96 915.482,314.656 L917.642,312.064 C919.898,314.032 922.538,315.76 926.378,315.76 C931.13,315.76 934.154,313.12 934.154,307.936 L934.154,305.872 C932.234,308.32 928.97,309.76 925.466,309.76 C918.89,309.76 913.994,304.768 913.994,297.952 C913.994,291.184 918.89,286.096 925.466,286.096 C929.162,286.096 932.522,287.728 934.346,290.416 L934.346,286.624 Z M926.042,306.352 C930.122,306.352 934.202,303.808 934.202,297.952 C934.202,292.096 930.074,289.6 926.042,289.6 C921.29,289.6 917.738,293.056 917.738,298 C917.738,302.944 921.29,306.352 926.042,306.352 Z M965.63,296.656 C965.63,297.904 965.438,299.008 965.342,299.44 L946.91,299.44 C947.39,304.096 950.846,307.12 955.454,307.12 C958.382,307.12 960.686,305.872 962.606,303.952 L964.766,306.448 C962.414,308.944 959.246,310.528 955.406,310.528 C948.35,310.528 943.022,305.2 943.022,298.336 C943.022,291.52 948.254,286.096 954.974,286.096 C960.974,286.096 965.63,290.416 965.63,296.656 Z M954.878,289.456 C950.942,289.456 947.822,292.144 947.054,296.176 L961.838,296.176 C961.79,291.856 958.622,289.456 954.878,289.456 Z M996.482,286.096 C1001.954,286.096 1004.978,289.888 1004.978,295.312 L1004.978,310 L1001.282,310 L1001.282,295.792 C1001.282,292.096 999.266,289.504 995.762,289.504 C992.21,289.504 989.762,292.192 989.762,295.456 L989.762,310 L986.066,310 L986.066,295.792 C986.066,292.096 983.954,289.504 980.498,289.504 C976.946,289.504 974.546,292.096 974.546,295.792 L974.546,310 L970.85,310 L970.85,286.624 L974.306,286.624 L974.306,289.072 C975.938,287.2 978.338,286.096 981.266,286.096 C984.77,286.096 987.17,287.68 988.466,290.128 C990.098,287.776 992.882,286.096 996.482,286.096 Z M1032.47,296.656 C1032.47,297.904 1032.278,299.008 1032.182,299.44 L1013.75,299.44 C1014.23,304.096 1017.686,307.12 1022.294,307.12 C1025.222,307.12 1027.526,305.872 1029.446,303.952 L1031.606,306.448 C1029.254,308.944 1026.086,310.528 1022.246,310.528 C1015.19,310.528 1009.862,305.2 1009.862,298.336 C1009.862,291.52 1015.094,286.096 1021.814,286.096 C1027.814,286.096 1032.47,290.416 1032.47,296.656 Z M1021.718,289.456 C1017.782,289.456 1014.662,292.144 1013.894,296.176 L1028.678,296.176 C1028.63,291.856 1025.462,289.456 1021.718,289.456 Z M1048.346,286.096 C1053.866,286.096 1057.034,289.888 1057.034,295.312 L1057.034,310 L1053.338,310 L1053.338,295.744 C1053.338,292.048 1051.13,289.504 1047.53,289.504 C1043.93,289.504 1041.386,292.096 1041.386,295.744 L1041.386,310 L1037.69,310 L1037.69,286.624 L1041.146,286.624 L1041.146,289.168 C1042.778,287.248 1045.322,286.096 1048.346,286.096 Z M1073.246,307.168 C1074.158,307.168 1075.166,307.072 1076.366,306.88 L1076.366,310 C1075.166,310.288 1073.966,310.528 1072.478,310.528 C1067.87,310.528 1064.606,308.272 1064.606,302.944 L1064.606,289.936 L1060.67,289.936 L1060.67,286.624 L1064.606,286.624 L1064.606,280.24 L1068.302,280.24 L1068.302,286.624 L1075.598,286.624 L1075.598,289.936 L1068.302,289.936 L1068.302,302.704 C1068.302,306.208 1070.318,307.168 1073.246,307.168 Z M381.464,343.096 C384.824,343.096 387.464,344.536 389.288,346.792 L387.032,349.096 C385.496,347.512 383.48,346.504 381.272,346.504 C379.064,346.504 377.384,347.512 377.384,349.432 C377.384,351.016 378.584,351.784 381.176,352.84 L383.336,353.752 C387.56,355.528 389.528,357.352 389.528,360.664 C389.528,365.224 385.64,367.528 381.32,367.528 C377.192,367.528 374.072,365.464 372.2,362.968 L374.552,360.52 C376.472,362.536 378.44,364.12 381.272,364.12 C383.72,364.12 385.736,362.92 385.736,360.808 C385.736,358.792 384.008,358.024 381.656,357.064 L379.4,356.104 C375.848,354.616 373.592,352.984 373.592,349.624 C373.592,345.4 377.192,343.096 381.464,343.096 Z M405.5,343.096 C412.268,343.096 417.74,348.424 417.74,355.288 C417.74,362.104 412.268,367.48 405.452,367.48 C398.684,367.432 393.26,362.152 393.26,355.288 C393.26,348.424 398.636,343.096 405.5,343.096 Z M405.5,346.504 C400.604,346.504 397.004,350.344 397.052,355.336 C397.052,360.28 400.604,364.072 405.452,364.072 C410.3,364.072 413.948,360.232 413.948,355.336 C413.948,350.296 410.3,346.504 405.5,346.504 Z M432.128,333.832 C429.248,333.832 427.232,334.792 427.232,338.296 L427.232,343.624 L433.088,343.624 L433.088,346.936 L427.232,346.936 L427.232,367 L423.536,367 L423.536,346.936 L420.176,346.936 L420.176,343.624 L423.536,343.624 L423.536,338.056 C423.536,332.728 426.752,330.472 431.264,330.472 C432.416,330.472 433.328,330.616 434.192,330.856 L434.192,333.976 C433.424,333.88 432.752,333.832 432.128,333.832 Z M444.692,364.168 C445.604,364.168 446.612,364.072 447.812,363.88 L447.812,367 C446.612,367.288 445.412,367.528 443.924,367.528 C439.316,367.528 436.052,365.272 436.052,359.944 L436.052,346.936 L432.116,346.936 L432.116,343.624 L436.052,343.624 L436.052,337.24 L439.748,337.24 L439.748,343.624 L447.044,343.624 L447.044,346.936 L439.748,346.936 L439.748,359.704 C439.748,363.208 441.764,364.168 444.692,364.168 Z M483.608,343.624 L487.544,343.624 L477.704,367.528 L476.36,367.528 L468.392,349.864 L460.472,367.528 L459.176,367.528 L449.24,343.624 L453.176,343.624 L459.896,360.904 L467.72,343.096 L469.112,343.096 L476.984,360.808 L483.608,343.624 Z M499.1,343.096 C504.428,343.096 508.22,346.312 508.22,352.6 L508.22,367 L504.764,367 L504.764,363.976 C503.084,366.232 500.348,367.528 496.892,367.528 C492.188,367.528 488.732,365.032 488.732,360.952 C488.732,357.016 492.044,354.424 497.132,354.424 L504.524,354.424 L504.524,352.408 C504.524,348.472 502.316,346.504 498.86,346.504 C495.932,346.504 493.868,347.896 492.044,350.248 L489.596,348.232 C491.804,344.68 495.356,343.096 499.1,343.096 Z M497.372,364.456 C501.212,364.456 504.524,361.672 504.524,358.024 L504.524,357.448 L497.564,357.448 C494.3,357.448 492.524,358.552 492.524,360.76 C492.524,363.256 494.78,364.456 497.372,364.456 Z M525.488,343.432 C526.256,343.432 526.736,343.528 527.216,343.624 L527.216,346.888 L525.824,346.888 C522.032,346.888 518.48,349.288 518.48,353.752 L518.48,367 L514.784,367 L514.784,343.624 L518.24,343.624 L518.24,346.984 C519.968,344.68 522.704,343.432 525.488,343.432 Z M551.348,353.656 C551.348,354.904 551.156,356.008 551.06,356.44 L532.628,356.44 C533.108,361.096 536.564,364.12 541.172,364.12 C544.1,364.12 546.404,362.872 548.324,360.952 L550.484,363.448 C548.132,365.944 544.964,367.528 541.124,367.528 C534.068,367.528 528.74,362.2 528.74,355.336 C528.74,348.52 533.972,343.096 540.692,343.096 C546.692,343.096 551.348,347.416 551.348,353.656 Z M540.596,346.456 C536.66,346.456 533.54,349.144 532.772,353.176 L547.556,353.176 C547.508,348.856 544.34,346.456 540.596,346.456 Z M578.396,364.168 C579.308,364.168 580.316,364.072 581.516,363.88 L581.516,367 C580.316,367.288 579.116,367.528 577.628,367.528 C573.02,367.528 569.756,365.272 569.756,359.944 L569.756,346.936 L565.82,346.936 L565.82,343.624 L569.756,343.624 L569.756,337.24 L573.452,337.24 L573.452,343.624 L580.748,343.624 L580.748,346.936 L573.452,346.936 L573.452,359.704 C573.452,363.208 575.468,364.168 578.396,364.168 Z M596.48,343.096 C601.952,343.096 605.12,346.888 605.12,352.312 L605.12,367 L601.424,367 L601.424,352.792 C601.424,349.096 599.216,346.504 595.616,346.504 C592.016,346.504 589.472,349.144 589.472,352.792 L589.472,367 L585.776,367 L585.776,331 L589.472,331 L589.472,346.264 C591.008,344.296 593.456,343.096 596.48,343.096 Z M620.084,343.096 C625.412,343.096 629.204,346.312 629.204,352.6 L629.204,367 L625.748,367 L625.748,363.976 C624.068,366.232 621.332,367.528 617.876,367.528 C613.172,367.528 609.716,365.032 609.716,360.952 C609.716,357.016 613.028,354.424 618.116,354.424 L625.508,354.424 L625.508,352.408 C625.508,348.472 623.3,346.504 619.844,346.504 C616.916,346.504 614.852,347.896 613.028,350.248 L610.58,348.232 C612.788,344.68 616.34,343.096 620.084,343.096 Z M618.356,364.456 C622.196,364.456 625.508,361.672 625.508,358.024 L625.508,357.448 L618.548,357.448 C615.284,357.448 613.508,358.552 613.508,360.76 C613.508,363.256 615.764,364.456 618.356,364.456 Z M645.416,364.168 C646.328,364.168 647.336,364.072 648.536,363.88 L648.536,367 C647.336,367.288 646.136,367.528 644.648,367.528 C640.04,367.528 636.776,365.272 636.776,359.944 L636.776,346.936 L632.84,346.936 L632.84,343.624 L636.776,343.624 L636.776,337.24 L640.472,337.24 L640.472,343.624 L647.768,343.624 L647.768,346.936 L640.472,346.936 L640.472,359.704 C640.472,363.208 642.488,364.168 645.416,364.168 Z M683.936,343.624 L687.44,343.624 L687.44,364.744 C687.44,371.944 682.88,376.168 676.064,376.168 C671.168,376.168 667.376,373.96 665.072,371.656 L667.232,369.064 C669.488,371.032 672.128,372.76 675.968,372.76 C680.72,372.76 683.744,370.12 683.744,364.936 L683.744,362.872 C681.824,365.32 678.56,366.76 675.056,366.76 C668.48,366.76 663.584,361.768 663.584,354.952 C663.584,348.184 668.48,343.096 675.056,343.096 C678.752,343.096 682.112,344.728 683.936,347.416 L683.936,343.624 Z M675.632,363.352 C679.712,363.352 683.792,360.808 683.792,354.952 C683.792,349.096 679.664,346.6 675.632,346.6 C670.88,346.6 667.328,350.056 667.328,355 C667.328,359.944 670.88,363.352 675.632,363.352 Z M696.164,332.008 C697.652,332.008 698.9,333.208 698.9,334.696 C698.9,336.232 697.652,337.384 696.164,337.384 C694.58,337.384 693.38,336.232 693.38,334.696 C693.38,333.208 694.58,332.008 696.164,332.008 Z M697.988,343.624 L697.988,367 L694.292,367 L694.292,343.624 L697.988,343.624 Z M721.448,343.624 L725.384,343.624 L714.392,367.528 L713.048,367.528 L702.008,343.624 L705.944,343.624 L713.72,361.24 L721.448,343.624 Z M749.42,353.656 C749.42,354.904 749.228,356.008 749.132,356.44 L730.7,356.44 C731.18,361.096 734.636,364.12 739.244,364.12 C742.172,364.12 744.476,362.872 746.396,360.952 L748.556,363.448 C746.204,365.944 743.036,367.528 739.196,367.528 C732.14,367.528 726.812,362.2 726.812,355.336 C726.812,348.52 732.044,343.096 738.764,343.096 C744.764,343.096 749.42,347.416 749.42,353.656 Z M738.668,346.456 C734.732,346.456 731.612,349.144 730.844,353.176 L745.628,353.176 C745.58,348.856 742.412,346.456 738.668,346.456 Z M761.696,343.096 C765.056,343.096 767.696,344.536 769.52,346.792 L767.264,349.096 C765.728,347.512 763.712,346.504 761.504,346.504 C759.296,346.504 757.616,347.512 757.616,349.432 C757.616,351.016 758.816,351.784 761.408,352.84 L763.568,353.752 C767.792,355.528 769.76,357.352 769.76,360.664 C769.76,365.224 765.872,367.528 761.552,367.528 C757.424,367.528 754.304,365.464 752.432,362.968 L754.784,360.52 C756.704,362.536 758.672,364.12 761.504,364.12 C763.952,364.12 765.968,362.92 765.968,360.808 C765.968,358.792 764.24,358.024 761.888,357.064 L759.632,356.104 C756.08,354.616 753.824,352.984 753.824,349.624 C753.824,345.4 757.424,343.096 761.696,343.096 Z M799.64,343.096 C806.312,343.096 811.208,348.424 811.208,355.336 C811.208,362.2 806.36,367.528 799.688,367.528 C796.04,367.528 792.632,365.944 790.808,363.256 L790.808,367 L787.352,367 L787.352,331 L791.048,331 L791.048,347.08 C792.872,344.632 796.088,343.096 799.64,343.096 Z M799.112,364.12 C803.912,364.12 807.416,360.376 807.416,355.288 C807.416,350.2 803.864,346.504 799.112,346.504 C795.032,346.504 791,349.192 791,355.336 C791,361.48 795.08,364.12 799.112,364.12 Z M835.484,343.624 L835.484,357.688 C835.484,363.688 831.212,367.528 825.836,367.528 C820.364,367.528 816.14,363.688 816.14,357.688 L816.14,343.624 L819.788,343.624 L819.788,357.928 C819.788,361.768 822.476,364.12 825.836,364.12 C829.1,364.12 831.788,361.768 831.788,357.928 L831.788,343.624 L835.484,343.624 Z M843.92,332.008 C845.408,332.008 846.656,333.208 846.656,334.696 C846.656,336.232 845.408,337.384 843.92,337.384 C842.336,337.384 841.136,336.232 841.136,334.696 C841.136,333.208 842.336,332.008 843.92,332.008 Z M845.744,343.624 L845.744,367 L842.048,367 L842.048,343.624 L845.744,343.624 Z M856.292,331 L856.292,367 L852.596,367 L852.596,331 L856.292,331 Z M881.672,331 L885.368,331 L885.368,367 L881.864,367 L881.864,363.256 C880.04,365.944 876.728,367.528 873.032,367.528 C866.36,367.528 861.464,362.2 861.464,355.336 C861.464,348.424 866.36,343.096 873.032,343.096 C876.584,343.096 879.8,344.584 881.672,347.08 L881.672,331 Z M873.56,364.12 C877.592,364.12 881.72,361.48 881.72,355.336 C881.72,349.192 877.592,346.504 873.56,346.504 C868.808,346.504 865.256,350.2 865.256,355.288 C865.256,360.376 868.76,364.12 873.56,364.12 Z M894.092,332.008 C895.58,332.008 896.828,333.208 896.828,334.696 C896.828,336.232 895.58,337.384 894.092,337.384 C892.508,337.384 891.308,336.232 891.308,334.696 C891.308,333.208 892.508,332.008 894.092,332.008 Z M895.916,343.624 L895.916,367 L892.22,367 L892.22,343.624 L895.916,343.624 Z M913.424,343.096 C918.944,343.096 922.112,346.888 922.112,352.312 L922.112,367 L918.416,367 L918.416,352.744 C918.416,349.048 916.208,346.504 912.608,346.504 C909.008,346.504 906.464,349.096 906.464,352.744 L906.464,367 L902.768,367 L902.768,343.624 L906.224,343.624 L906.224,346.168 C907.856,344.248 910.4,343.096 913.424,343.096 Z M947.636,343.624 L951.14,343.624 L951.14,364.744 C951.14,371.944 946.58,376.168 939.764,376.168 C934.868,376.168 931.076,373.96 928.772,371.656 L930.932,369.064 C933.188,371.032 935.828,372.76 939.668,372.76 C944.42,372.76 947.444,370.12 947.444,364.936 L947.444,362.872 C945.524,365.32 942.26,366.76 938.756,366.76 C932.18,366.76 927.284,361.768 927.284,354.952 C927.284,348.184 932.18,343.096 938.756,343.096 C942.452,343.096 945.812,344.728 947.636,347.416 L947.636,343.624 Z M939.332,363.352 C943.412,363.352 947.492,360.808 947.492,354.952 C947.492,349.096 943.364,346.6 939.332,346.6 C934.58,346.6 931.028,350.056 931.028,355 C931.028,359.944 934.58,363.352 939.332,363.352 Z M965.048,343.096 C968.408,343.096 971.048,344.536 972.872,346.792 L970.616,349.096 C969.08,347.512 967.064,346.504 964.856,346.504 C962.648,346.504 960.968,347.512 960.968,349.432 C960.968,351.016 962.168,351.784 964.76,352.84 L966.92,353.752 C971.144,355.528 973.112,357.352 973.112,360.664 C973.112,365.224 969.224,367.528 964.904,367.528 C960.776,367.528 957.656,365.464 955.784,362.968 L958.136,360.52 C960.056,362.536 962.024,364.12 964.856,364.12 C967.304,364.12 969.32,362.92 969.32,360.808 C969.32,358.792 967.592,358.024 965.24,357.064 L962.984,356.104 C959.432,354.616 957.176,352.984 957.176,349.624 C957.176,345.4 960.776,343.096 965.048,343.096 Z M1000.352,364.168 C1001.264,364.168 1002.272,364.072 1003.472,363.88 L1003.472,367 C1002.272,367.288 1001.072,367.528 999.584,367.528 C994.976,367.528 991.712,365.272 991.712,359.944 L991.712,346.936 L987.776,346.936 L987.776,343.624 L991.712,343.624 L991.712,337.24 L995.408,337.24 L995.408,343.624 L1002.704,343.624 L1002.704,346.936 L995.408,346.936 L995.408,359.704 C995.408,363.208 997.424,364.168 1000.352,364.168 Z M1018.436,343.096 C1023.908,343.096 1027.076,346.888 1027.076,352.312 L1027.076,367 L1023.38,367 L1023.38,352.792 C1023.38,349.096 1021.172,346.504 1017.572,346.504 C1013.972,346.504 1011.428,349.144 1011.428,352.792 L1011.428,367 L1007.732,367 L1007.732,331 L1011.428,331 L1011.428,346.264 C1012.964,344.296 1015.412,343.096 1018.436,343.096 Z M1042.04,343.096 C1047.368,343.096 1051.16,346.312 1051.16,352.6 L1051.16,367 L1047.704,367 L1047.704,363.976 C1046.024,366.232 1043.288,367.528 1039.832,367.528 C1035.128,367.528 1031.672,365.032 1031.672,360.952 C1031.672,357.016 1034.984,354.424 1040.072,354.424 L1047.464,354.424 L1047.464,352.408 C1047.464,348.472 1045.256,346.504 1041.8,346.504 C1038.872,346.504 1036.808,347.896 1034.984,350.248 L1032.536,348.232 C1034.744,344.68 1038.296,343.096 1042.04,343.096 Z M1040.312,364.456 C1044.152,364.456 1047.464,361.672 1047.464,358.024 L1047.464,357.448 L1040.504,357.448 C1037.24,357.448 1035.464,358.552 1035.464,360.76 C1035.464,363.256 1037.72,364.456 1040.312,364.456 Z M1067.372,364.168 C1068.284,364.168 1069.292,364.072 1070.492,363.88 L1070.492,367 C1069.292,367.288 1068.092,367.528 1066.604,367.528 C1061.996,367.528 1058.732,365.272 1058.732,359.944 L1058.732,346.936 L1054.796,346.936 L1054.796,343.624 L1058.732,343.624 L1058.732,337.24 L1062.428,337.24 L1062.428,343.624 L1069.724,343.624 L1069.724,346.936 L1062.428,346.936 L1062.428,359.704 C1062.428,363.208 1064.444,364.168 1067.372,364.168 Z M407.33,400.624 L410.834,400.624 L410.834,421.744 C410.834,428.944 406.274,433.168 399.458,433.168 C394.562,433.168 390.77,430.96 388.466,428.656 L390.626,426.064 C392.882,428.032 395.522,429.76 399.362,429.76 C404.114,429.76 407.138,427.12 407.138,421.936 L407.138,419.872 C405.218,422.32 401.954,423.76 398.45,423.76 C391.874,423.76 386.978,418.768 386.978,411.952 C386.978,405.184 391.874,400.096 398.45,400.096 C402.146,400.096 405.506,401.728 407.33,404.416 L407.33,400.624 Z M399.026,420.352 C403.106,420.352 407.186,417.808 407.186,411.952 C407.186,406.096 403.058,403.6 399.026,403.6 C394.274,403.6 390.722,407.056 390.722,412 C390.722,416.944 394.274,420.352 399.026,420.352 Z M419.558,389.008 C421.046,389.008 422.294,390.208 422.294,391.696 C422.294,393.232 421.046,394.384 419.558,394.384 C417.974,394.384 416.774,393.232 416.774,391.696 C416.774,390.208 417.974,389.008 419.558,389.008 Z M421.382,400.624 L421.382,424 L417.686,424 L417.686,400.624 L421.382,400.624 Z M444.842,400.624 L448.778,400.624 L437.786,424.528 L436.442,424.528 L425.402,400.624 L429.338,400.624 L437.114,418.24 L444.842,400.624 Z M472.814,410.656 C472.814,411.904 472.622,413.008 472.526,413.44 L454.094,413.44 C454.574,418.096 458.03,421.12 462.638,421.12 C465.566,421.12 467.87,419.872 469.79,417.952 L471.95,420.448 C469.598,422.944 466.43,424.528 462.59,424.528 C455.534,424.528 450.206,419.2 450.206,412.336 C450.206,405.52 455.438,400.096 462.158,400.096 C468.158,400.096 472.814,404.416 472.814,410.656 Z M462.062,403.456 C458.126,403.456 455.006,406.144 454.238,410.176 L469.022,410.176 C468.974,405.856 465.806,403.456 462.062,403.456 Z M485.09,400.096 C488.45,400.096 491.09,401.536 492.914,403.792 L490.658,406.096 C489.122,404.512 487.106,403.504 484.898,403.504 C482.69,403.504 481.01,404.512 481.01,406.432 C481.01,408.016 482.21,408.784 484.802,409.84 L486.962,410.752 C491.186,412.528 493.154,414.352 493.154,417.664 C493.154,422.224 489.266,424.528 484.946,424.528 C480.818,424.528 477.698,422.464 475.826,419.968 L478.178,417.52 C480.098,419.536 482.066,421.12 484.898,421.12 C487.346,421.12 489.362,419.92 489.362,417.808 C489.362,415.792 487.634,415.024 485.282,414.064 L483.026,413.104 C479.474,411.616 477.218,409.984 477.218,406.624 C477.218,402.4 480.818,400.096 485.09,400.096 Z M521.45,400.432 C522.218,400.432 522.698,400.528 523.178,400.624 L523.178,403.888 L521.786,403.888 C517.994,403.888 514.442,406.288 514.442,410.752 L514.442,424 L510.746,424 L510.746,400.624 L514.202,400.624 L514.202,403.984 C515.93,401.68 518.666,400.432 521.45,400.432 Z M547.31,410.656 C547.31,411.904 547.118,413.008 547.022,413.44 L528.59,413.44 C529.07,418.096 532.526,421.12 537.134,421.12 C540.062,421.12 542.366,419.872 544.286,417.952 L546.446,420.448 C544.094,422.944 540.926,424.528 537.086,424.528 C530.03,424.528 524.702,419.2 524.702,412.336 C524.702,405.52 529.934,400.096 536.654,400.096 C542.654,400.096 547.31,404.416 547.31,410.656 Z M536.558,403.456 C532.622,403.456 529.502,406.144 528.734,410.176 L543.518,410.176 C543.47,405.856 540.302,403.456 536.558,403.456 Z M559.586,400.096 C562.946,400.096 565.586,401.536 567.41,403.792 L565.154,406.096 C563.618,404.512 561.602,403.504 559.394,403.504 C557.186,403.504 555.506,404.512 555.506,406.432 C555.506,408.016 556.706,408.784 559.298,409.84 L561.458,410.752 C565.682,412.528 567.65,414.352 567.65,417.664 C567.65,422.224 563.762,424.528 559.442,424.528 C555.314,424.528 552.194,422.464 550.322,419.968 L552.674,417.52 C554.594,419.536 556.562,421.12 559.394,421.12 C561.842,421.12 563.858,419.92 563.858,417.808 C563.858,415.792 562.13,415.024 559.778,414.064 L557.522,413.104 C553.97,411.616 551.714,409.984 551.714,406.624 C551.714,402.4 555.314,400.096 559.586,400.096 Z M574.934,389.008 C576.422,389.008 577.67,390.208 577.67,391.696 C577.67,393.232 576.422,394.384 574.934,394.384 C573.35,394.384 572.15,393.232 572.15,391.696 C572.15,390.208 573.35,389.008 574.934,389.008 Z M576.758,400.624 L576.758,424 L573.062,424 L573.062,400.624 L576.758,400.624 Z M602.138,388 L605.834,388 L605.834,424 L602.33,424 L602.33,420.256 C600.506,422.944 597.194,424.528 593.498,424.528 C586.826,424.528 581.93,419.2 581.93,412.336 C581.93,405.424 586.826,400.096 593.498,400.096 C597.05,400.096 600.266,401.584 602.138,404.08 L602.138,388 Z M594.026,421.12 C598.058,421.12 602.186,418.48 602.186,412.336 C602.186,406.192 598.058,403.504 594.026,403.504 C589.274,403.504 585.722,407.2 585.722,412.288 C585.722,417.376 589.226,421.12 594.026,421.12 Z M633.614,410.656 C633.614,411.904 633.422,413.008 633.326,413.44 L614.894,413.44 C615.374,418.096 618.83,421.12 623.438,421.12 C626.366,421.12 628.67,419.872 630.59,417.952 L632.75,420.448 C630.398,422.944 627.23,424.528 623.39,424.528 C616.334,424.528 611.006,419.2 611.006,412.336 C611.006,405.52 616.238,400.096 622.958,400.096 C628.958,400.096 633.614,404.416 633.614,410.656 Z M622.862,403.456 C618.926,403.456 615.806,406.144 615.038,410.176 L629.822,410.176 C629.774,405.856 626.606,403.456 622.862,403.456 Z M649.49,400.096 C655.01,400.096 658.178,403.888 658.178,409.312 L658.178,424 L654.482,424 L654.482,409.744 C654.482,406.048 652.274,403.504 648.674,403.504 C645.074,403.504 642.53,406.096 642.53,409.744 L642.53,424 L638.834,424 L638.834,400.624 L642.29,400.624 L642.29,403.168 C643.922,401.248 646.466,400.096 649.49,400.096 Z M674.39,421.168 C675.302,421.168 676.31,421.072 677.51,420.88 L677.51,424 C676.31,424.288 675.11,424.528 673.622,424.528 C669.014,424.528 665.75,422.272 665.75,416.944 L665.75,403.936 L661.814,403.936 L661.814,400.624 L665.75,400.624 L665.75,394.24 L669.446,394.24 L669.446,400.624 L676.742,400.624 L676.742,403.936 L669.446,403.936 L669.446,416.704 C669.446,420.208 671.462,421.168 674.39,421.168 Z M688.826,400.096 C692.186,400.096 694.826,401.536 696.65,403.792 L694.394,406.096 C692.858,404.512 690.842,403.504 688.634,403.504 C686.426,403.504 684.746,404.512 684.746,406.432 C684.746,408.016 685.946,408.784 688.538,409.84 L690.698,410.752 C694.922,412.528 696.89,414.352 696.89,417.664 C696.89,422.224 693.002,424.528 688.682,424.528 C684.554,424.528 681.434,422.464 679.562,419.968 L681.914,417.52 C683.834,419.536 685.802,421.12 688.634,421.12 C691.082,421.12 693.098,419.92 693.098,417.808 C693.098,415.792 691.37,415.024 689.018,414.064 L686.762,413.104 C683.21,411.616 680.954,409.984 680.954,406.624 C680.954,402.4 684.554,400.096 688.826,400.096 Z M722.882,400.096 C728.21,400.096 732.002,403.312 732.002,409.6 L732.002,424 L728.546,424 L728.546,420.976 C726.866,423.232 724.13,424.528 720.674,424.528 C715.97,424.528 712.514,422.032 712.514,417.952 C712.514,414.016 715.826,411.424 720.914,411.424 L728.306,411.424 L728.306,409.408 C728.306,405.472 726.098,403.504 722.642,403.504 C719.714,403.504 717.65,404.896 715.826,407.248 L713.378,405.232 C715.586,401.68 719.138,400.096 722.882,400.096 Z M721.154,421.456 C724.994,421.456 728.306,418.672 728.306,415.024 L728.306,414.448 L721.346,414.448 C718.082,414.448 716.306,415.552 716.306,417.76 C716.306,420.256 718.562,421.456 721.154,421.456 Z M749.222,400.096 C754.742,400.096 757.91,403.888 757.91,409.312 L757.91,424 L754.214,424 L754.214,409.744 C754.214,406.048 752.006,403.504 748.406,403.504 C744.806,403.504 742.262,406.096 742.262,409.744 L742.262,424 L738.566,424 L738.566,400.624 L742.022,400.624 L742.022,403.168 C743.654,401.248 746.198,400.096 749.222,400.096 Z M783.002,388 L786.698,388 L786.698,424 L783.194,424 L783.194,420.256 C781.37,422.944 778.058,424.528 774.362,424.528 C767.69,424.528 762.794,419.2 762.794,412.336 C762.794,405.424 767.69,400.096 774.362,400.096 C777.914,400.096 781.13,401.584 783.002,404.08 L783.002,388 Z M774.89,421.12 C778.922,421.12 783.05,418.48 783.05,412.336 C783.05,406.192 778.922,403.504 774.89,403.504 C770.138,403.504 766.586,407.2 766.586,412.288 C766.586,417.376 770.09,421.12 774.89,421.12 Z M812.786,400.096 C816.146,400.096 818.786,401.536 820.61,403.792 L818.354,406.096 C816.818,404.512 814.802,403.504 812.594,403.504 C810.386,403.504 808.706,404.512 808.706,406.432 C808.706,408.016 809.906,408.784 812.498,409.84 L814.658,410.752 C818.882,412.528 820.85,414.352 820.85,417.664 C820.85,422.224 816.962,424.528 812.642,424.528 C808.514,424.528 805.394,422.464 803.522,419.968 L805.874,417.52 C807.794,419.536 809.762,421.12 812.594,421.12 C815.042,421.12 817.058,419.92 817.058,417.808 C817.058,415.792 815.33,415.024 812.978,414.064 L810.722,413.104 C807.17,411.616 804.914,409.984 804.914,406.624 C804.914,402.4 808.514,400.096 812.786,400.096 Z M835.91,421.168 C836.822,421.168 837.83,421.072 839.03,420.88 L839.03,424 C837.83,424.288 836.63,424.528 835.142,424.528 C830.534,424.528 827.27,422.272 827.27,416.944 L827.27,403.936 L823.334,403.936 L823.334,400.624 L827.27,400.624 L827.27,394.24 L830.966,394.24 L830.966,400.624 L838.262,400.624 L838.262,403.936 L830.966,403.936 L830.966,416.704 C830.966,420.208 832.982,421.168 835.91,421.168 Z M851.69,400.096 C857.018,400.096 860.81,403.312 860.81,409.6 L860.81,424 L857.354,424 L857.354,420.976 C855.674,423.232 852.938,424.528 849.482,424.528 C844.778,424.528 841.322,422.032 841.322,417.952 C841.322,414.016 844.634,411.424 849.722,411.424 L857.114,411.424 L857.114,409.408 C857.114,405.472 854.906,403.504 851.45,403.504 C848.522,403.504 846.458,404.896 844.634,407.248 L842.186,405.232 C844.394,401.68 847.946,400.096 851.69,400.096 Z M849.962,421.456 C853.802,421.456 857.114,418.672 857.114,415.024 L857.114,414.448 L850.154,414.448 C846.89,414.448 845.114,415.552 845.114,417.76 C845.114,420.256 847.37,421.456 849.962,421.456 Z M876.542,390.832 C873.662,390.832 871.646,391.792 871.646,395.296 L871.646,400.624 L877.502,400.624 L877.502,403.936 L871.646,403.936 L871.646,424 L867.95,424 L867.95,403.936 L864.59,403.936 L864.59,400.624 L867.95,400.624 L867.95,395.056 C867.95,389.728 871.166,387.472 875.678,387.472 C876.83,387.472 877.742,387.616 878.606,387.856 L878.606,390.976 C877.838,390.88 877.166,390.832 876.542,390.832 Z M888.386,390.832 C885.506,390.832 883.49,391.792 883.49,395.296 L883.49,400.624 L889.346,400.624 L889.346,403.936 L883.49,403.936 L883.49,424 L879.794,424 L879.794,403.936 L876.434,403.936 L876.434,400.624 L879.794,400.624 L879.794,395.056 C879.794,389.728 883.01,387.472 887.522,387.472 C888.674,387.472 889.586,387.616 890.45,387.856 L890.45,390.976 C889.682,390.88 889.01,390.832 888.386,390.832 Z M911.642,400.096 C916.97,400.096 920.762,403.312 920.762,409.6 L920.762,424 L917.306,424 L917.306,420.976 C915.626,423.232 912.89,424.528 909.434,424.528 C904.73,424.528 901.274,422.032 901.274,417.952 C901.274,414.016 904.586,411.424 909.674,411.424 L917.066,411.424 L917.066,409.408 C917.066,405.472 914.858,403.504 911.402,403.504 C908.474,403.504 906.41,404.896 904.586,407.248 L902.138,405.232 C904.346,401.68 907.898,400.096 911.642,400.096 Z M909.914,421.456 C913.754,421.456 917.066,418.672 917.066,415.024 L917.066,414.448 L910.106,414.448 C906.842,414.448 905.066,415.552 905.066,417.76 C905.066,420.256 907.322,421.456 909.914,421.456 Z M937.982,400.096 C943.502,400.096 946.67,403.888 946.67,409.312 L946.67,424 L942.974,424 L942.974,409.744 C942.974,406.048 940.766,403.504 937.166,403.504 C933.566,403.504 931.022,406.096 931.022,409.744 L931.022,424 L927.326,424 L927.326,400.624 L930.782,400.624 L930.782,403.168 C932.414,401.248 934.958,400.096 937.982,400.096 Z M986.342,410.656 C986.342,411.904 986.15,413.008 986.054,413.44 L967.622,413.44 C968.102,418.096 971.558,421.12 976.166,421.12 C979.094,421.12 981.398,419.872 983.318,417.952 L985.478,420.448 C983.126,422.944 979.958,424.528 976.118,424.528 C969.062,424.528 963.734,419.2 963.734,412.336 C963.734,405.52 968.966,400.096 975.686,400.096 C981.686,400.096 986.342,404.416 986.342,410.656 Z M975.59,403.456 C971.654,403.456 968.534,406.144 967.766,410.176 L982.55,410.176 C982.502,405.856 979.334,403.456 975.59,403.456 Z M999.962,400.096 C1005.29,400.096 1009.082,403.312 1009.082,409.6 L1009.082,424 L1005.626,424 L1005.626,420.976 C1003.946,423.232 1001.21,424.528 997.754,424.528 C993.05,424.528 989.594,422.032 989.594,417.952 C989.594,414.016 992.906,411.424 997.994,411.424 L1005.386,411.424 L1005.386,409.408 C1005.386,405.472 1003.178,403.504 999.722,403.504 C996.794,403.504 994.73,404.896 992.906,407.248 L990.458,405.232 C992.666,401.68 996.218,400.096 999.962,400.096 Z M998.234,421.456 C1002.074,421.456 1005.386,418.672 1005.386,415.024 L1005.386,414.448 L998.426,414.448 C995.162,414.448 993.386,415.552 993.386,417.76 C993.386,420.256 995.642,421.456 998.234,421.456 Z M1022.702,400.096 C1026.062,400.096 1028.702,401.536 1030.526,403.792 L1028.27,406.096 C1026.734,404.512 1024.718,403.504 1022.51,403.504 C1020.302,403.504 1018.622,404.512 1018.622,406.432 C1018.622,408.016 1019.822,408.784 1022.414,409.84 L1024.574,410.752 C1028.798,412.528 1030.766,414.352 1030.766,417.664 C1030.766,422.224 1026.878,424.528 1022.558,424.528 C1018.43,424.528 1015.31,422.464 1013.438,419.968 L1015.79,417.52 C1017.71,419.536 1019.678,421.12 1022.51,421.12 C1024.958,421.12 1026.974,419.92 1026.974,417.808 C1026.974,415.792 1025.246,415.024 1022.894,414.064 L1020.638,413.104 C1017.086,411.616 1014.83,409.984 1014.83,406.624 C1014.83,402.4 1018.43,400.096 1022.702,400.096 Z M1052.786,400.624 L1056.722,400.624 L1045.202,427.264 C1043.378,431.44 1040.834,433.168 1037.282,433.168 C1036.13,433.168 1034.786,432.976 1033.682,432.688 L1033.682,429.568 C1034.786,429.712 1035.698,429.808 1036.514,429.808 C1038.77,429.808 1040.498,429.04 1041.794,426.064 L1043.042,423.232 L1033.346,400.624 L1037.33,400.624 L1045.058,419.248 L1052.786,400.624 Z M384.74,457.624 L388.676,457.624 L378.836,481.528 L377.492,481.528 L369.524,463.864 L361.604,481.528 L360.308,481.528 L350.372,457.624 L354.308,457.624 L361.028,474.904 L368.852,457.096 L370.244,457.096 L378.116,474.808 L384.74,457.624 Z M400.232,457.096 C405.56,457.096 409.352,460.312 409.352,466.6 L409.352,481 L405.896,481 L405.896,477.976 C404.216,480.232 401.48,481.528 398.024,481.528 C393.32,481.528 389.864,479.032 389.864,474.952 C389.864,471.016 393.176,468.424 398.264,468.424 L405.656,468.424 L405.656,466.408 C405.656,462.472 403.448,460.504 399.992,460.504 C397.064,460.504 395,461.896 393.176,464.248 L390.728,462.232 C392.936,458.68 396.488,457.096 400.232,457.096 Z M398.504,478.456 C402.344,478.456 405.656,475.672 405.656,472.024 L405.656,471.448 L398.696,471.448 C395.432,471.448 393.656,472.552 393.656,474.76 C393.656,477.256 395.912,478.456 398.504,478.456 Z M432.524,457.624 L436.46,457.624 L424.94,484.264 C423.116,488.44 420.572,490.168 417.02,490.168 C415.868,490.168 414.524,489.976 413.42,489.688 L413.42,486.568 C414.524,486.712 415.436,486.808 416.252,486.808 C418.508,486.808 420.236,486.04 421.532,483.064 L422.78,480.232 L413.084,457.624 L417.068,457.624 L424.796,476.248 L432.524,457.624 Z M462.356,478.168 C463.268,478.168 464.276,478.072 465.476,477.88 L465.476,481 C464.276,481.288 463.076,481.528 461.588,481.528 C456.98,481.528 453.716,479.272 453.716,473.944 L453.716,460.936 L449.78,460.936 L449.78,457.624 L453.716,457.624 L453.716,451.24 L457.412,451.24 L457.412,457.624 L464.708,457.624 L464.708,460.936 L457.412,460.936 L457.412,473.704 C457.412,477.208 459.428,478.168 462.356,478.168 Z M479.816,457.096 C486.584,457.096 492.056,462.424 492.056,469.288 C492.056,476.104 486.584,481.48 479.768,481.48 C473,481.432 467.576,476.152 467.576,469.288 C467.576,462.424 472.952,457.096 479.816,457.096 Z M479.816,460.504 C474.92,460.504 471.32,464.344 471.368,469.336 C471.368,474.28 474.92,478.072 479.768,478.072 C484.616,478.072 488.264,474.232 488.264,469.336 C488.264,464.296 484.616,460.504 479.816,460.504 Z M520.016,457.096 C524.24,457.096 527.6,459.112 529.664,462.184 L527.024,464.296 C525.296,461.992 523.088,460.504 520.064,460.504 C515.168,460.504 511.568,464.392 511.568,469.288 C511.568,474.232 515.168,478.12 520.064,478.12 C523.04,478.12 525.248,476.68 526.976,474.376 L529.616,476.44 C527.552,479.512 524.192,481.528 520.016,481.528 C513.2,481.528 507.776,476.152 507.776,469.288 C507.776,462.472 513.2,457.096 520.016,457.096 Z M544.724,457.096 C551.492,457.096 556.964,462.424 556.964,469.288 C556.964,476.104 551.492,481.48 544.676,481.48 C537.908,481.432 532.484,476.152 532.484,469.288 C532.484,462.424 537.86,457.096 544.724,457.096 Z M544.724,460.504 C539.828,460.504 536.228,464.344 536.276,469.336 C536.276,474.28 539.828,478.072 544.676,478.072 C549.524,478.072 553.172,474.232 553.172,469.336 C553.172,464.296 549.524,460.504 544.724,460.504 Z M587.816,457.096 C593.288,457.096 596.312,460.888 596.312,466.312 L596.312,481 L592.616,481 L592.616,466.792 C592.616,463.096 590.6,460.504 587.096,460.504 C583.544,460.504 581.096,463.192 581.096,466.456 L581.096,481 L577.4,481 L577.4,466.792 C577.4,463.096 575.288,460.504 571.832,460.504 C568.28,460.504 565.88,463.096 565.88,466.792 L565.88,481 L562.184,481 L562.184,457.624 L565.64,457.624 L565.64,460.072 C567.272,458.2 569.672,457.096 572.6,457.096 C576.104,457.096 578.504,458.68 579.8,461.128 C581.432,458.776 584.216,457.096 587.816,457.096 Z M628.508,457.096 C633.98,457.096 637.004,460.888 637.004,466.312 L637.004,481 L633.308,481 L633.308,466.792 C633.308,463.096 631.292,460.504 627.788,460.504 C624.236,460.504 621.788,463.192 621.788,466.456 L621.788,481 L618.092,481 L618.092,466.792 C618.092,463.096 615.98,460.504 612.524,460.504 C608.972,460.504 606.572,463.096 606.572,466.792 L606.572,481 L602.876,481 L602.876,457.624 L606.332,457.624 L606.332,460.072 C607.964,458.2 610.364,457.096 613.292,457.096 C616.796,457.096 619.196,458.68 620.492,461.128 C622.124,458.776 624.908,457.096 628.508,457.096 Z M662.624,457.624 L662.624,471.688 C662.624,477.688 658.352,481.528 652.976,481.528 C647.504,481.528 643.28,477.688 643.28,471.688 L643.28,457.624 L646.928,457.624 L646.928,471.928 C646.928,475.768 649.616,478.12 652.976,478.12 C656.24,478.12 658.928,475.768 658.928,471.928 L658.928,457.624 L662.624,457.624 Z M679.844,457.096 C685.364,457.096 688.532,460.888 688.532,466.312 L688.532,481 L684.836,481 L684.836,466.744 C684.836,463.048 682.628,460.504 679.028,460.504 C675.428,460.504 672.884,463.096 672.884,466.744 L672.884,481 L669.188,481 L669.188,457.624 L672.644,457.624 L672.644,460.168 C674.276,458.248 676.82,457.096 679.844,457.096 Z M696.968,446.008 C698.456,446.008 699.704,447.208 699.704,448.696 C699.704,450.232 698.456,451.384 696.968,451.384 C695.384,451.384 694.184,450.232 694.184,448.696 C694.184,447.208 695.384,446.008 696.968,446.008 Z M698.792,457.624 L698.792,481 L695.096,481 L695.096,457.624 L698.792,457.624 Z M716.204,457.096 C720.428,457.096 723.788,459.112 725.852,462.184 L723.212,464.296 C721.484,461.992 719.276,460.504 716.252,460.504 C711.356,460.504 707.756,464.392 707.756,469.288 C707.756,474.232 711.356,478.12 716.252,478.12 C719.228,478.12 721.436,476.68 723.164,474.376 L725.804,476.44 C723.74,479.512 720.38,481.528 716.204,481.528 C709.388,481.528 703.964,476.152 703.964,469.288 C703.964,462.472 709.388,457.096 716.204,457.096 Z M739.232,457.096 C744.56,457.096 748.352,460.312 748.352,466.6 L748.352,481 L744.896,481 L744.896,477.976 C743.216,480.232 740.48,481.528 737.024,481.528 C732.32,481.528 728.864,479.032 728.864,474.952 C728.864,471.016 732.176,468.424 737.264,468.424 L744.656,468.424 L744.656,466.408 C744.656,462.472 742.448,460.504 738.992,460.504 C736.064,460.504 734,461.896 732.176,464.248 L729.728,462.232 C731.936,458.68 735.488,457.096 739.232,457.096 Z M737.504,478.456 C741.344,478.456 744.656,475.672 744.656,472.024 L744.656,471.448 L737.696,471.448 C734.432,471.448 732.656,472.552 732.656,474.76 C732.656,477.256 734.912,478.456 737.504,478.456 Z M764.564,478.168 C765.476,478.168 766.484,478.072 767.684,477.88 L767.684,481 C766.484,481.288 765.284,481.528 763.796,481.528 C759.188,481.528 755.924,479.272 755.924,473.944 L755.924,460.936 L751.988,460.936 L751.988,457.624 L755.924,457.624 L755.924,451.24 L759.62,451.24 L759.62,457.624 L766.916,457.624 L766.916,460.936 L759.62,460.936 L759.62,473.704 C759.62,477.208 761.636,478.168 764.564,478.168 Z M792.392,467.656 C792.392,468.904 792.2,470.008 792.104,470.44 L773.672,470.44 C774.152,475.096 777.608,478.12 782.216,478.12 C785.144,478.12 787.448,476.872 789.368,474.952 L791.528,477.448 C789.176,479.944 786.008,481.528 782.168,481.528 C775.112,481.528 769.784,476.2 769.784,469.336 C769.784,462.52 775.016,457.096 781.736,457.096 C787.736,457.096 792.392,461.416 792.392,467.656 Z M781.64,460.456 C777.704,460.456 774.584,463.144 773.816,467.176 L788.6,467.176 C788.552,462.856 785.384,460.456 781.64,460.456 Z M818.192,457.096 C823.52,457.096 827.312,460.312 827.312,466.6 L827.312,481 L823.856,481 L823.856,477.976 C822.176,480.232 819.44,481.528 815.984,481.528 C811.28,481.528 807.824,479.032 807.824,474.952 C807.824,471.016 811.136,468.424 816.224,468.424 L823.616,468.424 L823.616,466.408 C823.616,462.472 821.408,460.504 817.952,460.504 C815.024,460.504 812.96,461.896 811.136,464.248 L808.688,462.232 C810.896,458.68 814.448,457.096 818.192,457.096 Z M816.464,478.456 C820.304,478.456 823.616,475.672 823.616,472.024 L823.616,471.448 L816.656,471.448 C813.392,471.448 811.616,472.552 811.616,474.76 C811.616,477.256 813.872,478.456 816.464,478.456 Z M846.164,457.096 C852.836,457.096 857.732,462.424 857.732,469.336 C857.732,476.2 852.884,481.528 846.212,481.528 C842.564,481.528 839.156,479.944 837.332,477.256 L837.332,481 L833.876,481 L833.876,445 L837.572,445 L837.572,461.08 C839.396,458.632 842.612,457.096 846.164,457.096 Z M845.636,478.12 C850.436,478.12 853.94,474.376 853.94,469.288 C853.94,464.2 850.388,460.504 845.636,460.504 C841.556,460.504 837.524,463.192 837.524,469.336 C837.524,475.48 841.604,478.12 845.636,478.12 Z M873.512,457.096 C880.28,457.096 885.752,462.424 885.752,469.288 C885.752,476.104 880.28,481.48 873.464,481.48 C866.696,481.432 861.272,476.152 861.272,469.288 C861.272,462.424 866.648,457.096 873.512,457.096 Z M873.512,460.504 C868.616,460.504 865.016,464.344 865.064,469.336 C865.064,474.28 868.616,478.072 873.464,478.072 C878.312,478.072 881.96,474.232 881.96,469.336 C881.96,464.296 878.312,460.504 873.512,460.504 Z M910.028,457.624 L910.028,471.688 C910.028,477.688 905.756,481.528 900.38,481.528 C894.908,481.528 890.684,477.688 890.684,471.688 L890.684,457.624 L894.332,457.624 L894.332,471.928 C894.332,475.768 897.02,478.12 900.38,478.12 C903.644,478.12 906.332,475.768 906.332,471.928 L906.332,457.624 L910.028,457.624 Z M926.24,478.168 C927.152,478.168 928.16,478.072 929.36,477.88 L929.36,481 C928.16,481.288 926.96,481.528 925.472,481.528 C920.864,481.528 917.6,479.272 917.6,473.944 L917.6,460.936 L913.664,460.936 L913.664,457.624 L917.6,457.624 L917.6,451.24 L921.296,451.24 L921.296,457.624 L928.592,457.624 L928.592,460.936 L921.296,460.936 L921.296,473.704 C921.296,477.208 923.312,478.168 926.24,478.168 Z M966.728,467.656 C966.728,468.904 966.536,470.008 966.44,470.44 L948.008,470.44 C948.488,475.096 951.944,478.12 956.552,478.12 C959.48,478.12 961.784,476.872 963.704,474.952 L965.864,477.448 C963.512,479.944 960.344,481.528 956.504,481.528 C949.448,481.528 944.12,476.2 944.12,469.336 C944.12,462.52 949.352,457.096 956.072,457.096 C962.072,457.096 966.728,461.416 966.728,467.656 Z M955.976,460.456 C952.04,460.456 948.92,463.144 948.152,467.176 L962.936,467.176 C962.888,462.856 959.72,460.456 955.976,460.456 Z M987.596,457.624 L991.532,457.624 L980.54,481.528 L979.196,481.528 L968.156,457.624 L972.092,457.624 L979.868,475.24 L987.596,457.624 Z M1015.568,467.656 C1015.568,468.904 1015.376,470.008 1015.28,470.44 L996.848,470.44 C997.328,475.096 1000.784,478.12 1005.392,478.12 C1008.32,478.12 1010.624,476.872 1012.544,474.952 L1014.704,477.448 C1012.352,479.944 1009.184,481.528 1005.344,481.528 C998.288,481.528 992.96,476.2 992.96,469.336 C992.96,462.52 998.192,457.096 1004.912,457.096 C1010.912,457.096 1015.568,461.416 1015.568,467.656 Z M1004.816,460.456 C1000.88,460.456 997.76,463.144 996.992,467.176 L1011.776,467.176 C1011.728,462.856 1008.56,460.456 1004.816,460.456 Z M1031.444,457.096 C1036.964,457.096 1040.132,460.888 1040.132,466.312 L1040.132,481 L1036.436,481 L1036.436,466.744 C1036.436,463.048 1034.228,460.504 1030.628,460.504 C1027.028,460.504 1024.484,463.096 1024.484,466.744 L1024.484,481 L1020.788,481 L1020.788,457.624 L1024.244,457.624 L1024.244,460.168 C1025.876,458.248 1028.42,457.096 1031.444,457.096 Z M1056.344,478.168 C1057.256,478.168 1058.264,478.072 1059.464,477.88 L1059.464,481 C1058.264,481.288 1057.064,481.528 1055.576,481.528 C1050.968,481.528 1047.704,479.272 1047.704,473.944 L1047.704,460.936 L1043.768,460.936 L1043.768,457.624 L1047.704,457.624 L1047.704,451.24 L1051.4,451.24 L1051.4,457.624 L1058.696,457.624 L1058.696,460.936 L1051.4,460.936 L1051.4,473.704 C1051.4,477.208 1053.416,478.168 1056.344,478.168 Z M1070.78,457.096 C1074.14,457.096 1076.78,458.536 1078.604,460.792 L1076.348,463.096 C1074.812,461.512 1072.796,460.504 1070.588,460.504 C1068.38,460.504 1066.7,461.512 1066.7,463.432 C1066.7,465.016 1067.9,465.784 1070.492,466.84 L1072.652,467.752 C1076.876,469.528 1078.844,471.352 1078.844,474.664 C1078.844,479.224 1074.956,481.528 1070.636,481.528 C1066.508,481.528 1063.388,479.464 1061.516,476.968 L1063.868,474.52 C1065.788,476.536 1067.756,478.12 1070.588,478.12 C1073.036,478.12 1075.052,476.92 1075.052,474.808 C1075.052,472.792 1073.324,472.024 1070.972,471.064 L1068.716,470.104 C1065.164,468.616 1062.908,466.984 1062.908,463.624 C1062.908,459.4 1066.508,457.096 1070.78,457.096 Z M1089.248,476.68 L1087.28,489.592 L1084.256,489.592 L1084.88,476.68 L1089.248,476.68 Z M387.242,514.096 C390.602,514.096 393.242,515.536 395.066,517.792 L392.81,520.096 C391.274,518.512 389.258,517.504 387.05,517.504 C384.842,517.504 383.162,518.512 383.162,520.432 C383.162,522.016 384.362,522.784 386.954,523.84 L389.114,524.752 C393.338,526.528 395.306,528.352 395.306,531.664 C395.306,536.224 391.418,538.528 387.098,538.528 C382.97,538.528 379.85,536.464 377.978,533.968 L380.33,531.52 C382.25,533.536 384.218,535.12 387.05,535.12 C389.498,535.12 391.514,533.92 391.514,531.808 C391.514,529.792 389.786,529.024 387.434,528.064 L385.178,527.104 C381.626,525.616 379.37,523.984 379.37,520.624 C379.37,516.4 382.97,514.096 387.242,514.096 Z M421.646,524.656 C421.646,525.904 421.454,527.008 421.358,527.44 L402.926,527.44 C403.406,532.096 406.862,535.12 411.47,535.12 C414.398,535.12 416.702,533.872 418.622,531.952 L420.782,534.448 C418.43,536.944 415.262,538.528 411.422,538.528 C404.366,538.528 399.038,533.2 399.038,526.336 C399.038,519.52 404.27,514.096 410.99,514.096 C416.99,514.096 421.646,518.416 421.646,524.656 Z M410.894,517.456 C406.958,517.456 403.838,520.144 403.07,524.176 L417.854,524.176 C417.806,519.856 414.638,517.456 410.894,517.456 Z M437.57,514.432 C438.338,514.432 438.818,514.528 439.298,514.624 L439.298,517.888 L437.906,517.888 C434.114,517.888 430.562,520.288 430.562,524.752 L430.562,538 L426.866,538 L426.866,514.624 L430.322,514.624 L430.322,517.984 C432.05,515.68 434.786,514.432 437.57,514.432 Z M459.59,514.624 L463.526,514.624 L452.534,538.528 L451.19,538.528 L440.15,514.624 L444.086,514.624 L451.862,532.24 L459.59,514.624 Z M469.466,503.008 C470.954,503.008 472.202,504.208 472.202,505.696 C472.202,507.232 470.954,508.384 469.466,508.384 C467.882,508.384 466.682,507.232 466.682,505.696 C466.682,504.208 467.882,503.008 469.466,503.008 Z M471.29,514.624 L471.29,538 L467.594,538 L467.594,514.624 L471.29,514.624 Z M488.702,514.096 C492.926,514.096 496.286,516.112 498.35,519.184 L495.71,521.296 C493.982,518.992 491.774,517.504 488.75,517.504 C483.854,517.504 480.254,521.392 480.254,526.288 C480.254,531.232 483.854,535.12 488.75,535.12 C491.726,535.12 493.934,533.68 495.662,531.376 L498.302,533.44 C496.238,536.512 492.878,538.528 488.702,538.528 C481.886,538.528 476.462,533.152 476.462,526.288 C476.462,519.472 481.886,514.096 488.702,514.096 Z M523.778,524.656 C523.778,525.904 523.586,527.008 523.49,527.44 L505.058,527.44 C505.538,532.096 508.994,535.12 513.602,535.12 C516.53,535.12 518.834,533.872 520.754,531.952 L522.914,534.448 C520.562,536.944 517.394,538.528 513.554,538.528 C506.498,538.528 501.17,533.2 501.17,526.336 C501.17,519.52 506.402,514.096 513.122,514.096 C519.122,514.096 523.778,518.416 523.778,524.656 Z M513.026,517.456 C509.09,517.456 505.97,520.144 505.202,524.176 L519.986,524.176 C519.938,519.856 516.77,517.456 513.026,517.456 Z M551.882,514.432 C552.65,514.432 553.13,514.528 553.61,514.624 L553.61,517.888 L552.218,517.888 C548.426,517.888 544.874,520.288 544.874,524.752 L544.874,538 L541.178,538 L541.178,514.624 L544.634,514.624 L544.634,517.984 C546.362,515.68 549.098,514.432 551.882,514.432 Z M577.742,524.656 C577.742,525.904 577.55,527.008 577.454,527.44 L559.022,527.44 C559.502,532.096 562.958,535.12 567.566,535.12 C570.494,535.12 572.798,533.872 574.718,531.952 L576.878,534.448 C574.526,536.944 571.358,538.528 567.518,538.528 C560.462,538.528 555.134,533.2 555.134,526.336 C555.134,519.52 560.366,514.096 567.086,514.096 C573.086,514.096 577.742,518.416 577.742,524.656 Z M566.99,517.456 C563.054,517.456 559.934,520.144 559.166,524.176 L573.95,524.176 C573.902,519.856 570.734,517.456 566.99,517.456 Z M601.682,514.624 L605.186,514.624 L605.186,546.64 L601.49,546.64 L601.49,534.592 C599.57,537.088 596.306,538.528 592.85,538.528 C586.178,538.528 581.282,533.2 581.282,526.288 C581.282,519.424 586.178,514.096 592.85,514.096 C596.546,514.096 599.858,515.728 601.682,518.368 L601.682,514.624 Z M593.378,535.12 C597.41,535.12 601.538,532.432 601.538,526.288 C601.538,520.144 597.41,517.504 593.378,517.504 C588.578,517.504 585.074,521.296 585.074,526.336 C585.074,531.424 588.626,535.12 593.378,535.12 Z M631.094,514.624 L631.094,528.688 C631.094,534.688 626.822,538.528 621.446,538.528 C615.974,538.528 611.75,534.688 611.75,528.688 L611.75,514.624 L615.398,514.624 L615.398,528.928 C615.398,532.768 618.086,535.12 621.446,535.12 C624.71,535.12 627.398,532.768 627.398,528.928 L627.398,514.624 L631.094,514.624 Z M658.586,524.656 C658.586,525.904 658.394,527.008 658.298,527.44 L639.866,527.44 C640.346,532.096 643.802,535.12 648.41,535.12 C651.338,535.12 653.642,533.872 655.562,531.952 L657.722,534.448 C655.37,536.944 652.202,538.528 648.362,538.528 C641.306,538.528 635.978,533.2 635.978,526.336 C635.978,519.52 641.21,514.096 647.93,514.096 C653.93,514.096 658.586,518.416 658.586,524.656 Z M647.834,517.456 C643.898,517.456 640.778,520.144 640.01,524.176 L654.794,524.176 C654.746,519.856 651.578,517.456 647.834,517.456 Z M670.862,514.096 C674.222,514.096 676.862,515.536 678.686,517.792 L676.43,520.096 C674.894,518.512 672.878,517.504 670.67,517.504 C668.462,517.504 666.782,518.512 666.782,520.432 C666.782,522.016 667.982,522.784 670.574,523.84 L672.734,524.752 C676.958,526.528 678.926,528.352 678.926,531.664 C678.926,536.224 675.038,538.528 670.718,538.528 C666.59,538.528 663.47,536.464 661.598,533.968 L663.95,531.52 C665.87,533.536 667.838,535.12 670.67,535.12 C673.118,535.12 675.134,533.92 675.134,531.808 C675.134,529.792 673.406,529.024 671.054,528.064 L668.798,527.104 C665.246,525.616 662.99,523.984 662.99,520.624 C662.99,516.4 666.59,514.096 670.862,514.096 Z M693.986,535.168 C694.898,535.168 695.906,535.072 697.106,534.88 L697.106,538 C695.906,538.288 694.706,538.528 693.218,538.528 C688.61,538.528 685.346,536.272 685.346,530.944 L685.346,517.936 L681.41,517.936 L681.41,514.624 L685.346,514.624 L685.346,508.24 L689.042,508.24 L689.042,514.624 L696.338,514.624 L696.338,517.936 L689.042,517.936 L689.042,530.704 C689.042,534.208 691.058,535.168 693.986,535.168 Z M708.422,514.096 C711.782,514.096 714.422,515.536 716.246,517.792 L713.99,520.096 C712.454,518.512 710.438,517.504 708.23,517.504 C706.022,517.504 704.342,518.512 704.342,520.432 C704.342,522.016 705.542,522.784 708.134,523.84 L710.294,524.752 C714.518,526.528 716.486,528.352 716.486,531.664 C716.486,536.224 712.598,538.528 708.278,538.528 C704.15,538.528 701.03,536.464 699.158,533.968 L701.51,531.52 C703.43,533.536 705.398,535.12 708.23,535.12 C710.678,535.12 712.694,533.92 712.694,531.808 C712.694,529.792 710.966,529.024 708.614,528.064 L706.358,527.104 C702.806,525.616 700.55,523.984 700.55,520.624 C700.55,516.4 704.15,514.096 708.422,514.096 Z M726.89,533.68 L724.922,546.592 L721.898,546.592 L722.522,533.68 L726.89,533.68 Z M771.41,514.096 C776.882,514.096 779.906,517.888 779.906,523.312 L779.906,538 L776.21,538 L776.21,523.792 C776.21,520.096 774.194,517.504 770.69,517.504 C767.138,517.504 764.69,520.192 764.69,523.456 L764.69,538 L760.994,538 L760.994,523.792 C760.994,520.096 758.882,517.504 755.426,517.504 C751.874,517.504 749.474,520.096 749.474,523.792 L749.474,538 L745.778,538 L745.778,514.624 L749.234,514.624 L749.234,517.072 C750.866,515.2 753.266,514.096 756.194,514.096 C759.698,514.096 762.098,515.68 763.394,518.128 C765.026,515.776 767.81,514.096 771.41,514.096 Z M794.87,514.096 C800.198,514.096 803.99,517.312 803.99,523.6 L803.99,538 L800.534,538 L800.534,534.976 C798.854,537.232 796.118,538.528 792.662,538.528 C787.958,538.528 784.502,536.032 784.502,531.952 C784.502,528.016 787.814,525.424 792.902,525.424 L800.294,525.424 L800.294,523.408 C800.294,519.472 798.086,517.504 794.63,517.504 C791.702,517.504 789.638,518.896 787.814,521.248 L785.366,519.232 C787.574,515.68 791.126,514.096 794.87,514.096 Z M793.142,535.456 C796.982,535.456 800.294,532.672 800.294,529.024 L800.294,528.448 L793.334,528.448 C790.07,528.448 788.294,529.552 788.294,531.76 C788.294,534.256 790.55,535.456 793.142,535.456 Z M812.426,503.008 C813.914,503.008 815.162,504.208 815.162,505.696 C815.162,507.232 813.914,508.384 812.426,508.384 C810.842,508.384 809.642,507.232 809.642,505.696 C809.642,504.208 810.842,503.008 812.426,503.008 Z M814.25,514.624 L814.25,538 L810.554,538 L810.554,514.624 L814.25,514.624 Z M824.798,502 L824.798,538 L821.102,538 L821.102,502 L824.798,502 Z M836.642,533.68 L834.674,546.592 L831.65,546.592 L832.274,533.68 L836.642,533.68 Z M863.93,514.096 C869.258,514.096 873.05,517.312 873.05,523.6 L873.05,538 L869.594,538 L869.594,534.976 C867.914,537.232 865.178,538.528 861.722,538.528 C857.018,538.528 853.562,536.032 853.562,531.952 C853.562,528.016 856.874,525.424 861.962,525.424 L869.354,525.424 L869.354,523.408 C869.354,519.472 867.146,517.504 863.69,517.504 C860.762,517.504 858.698,518.896 856.874,521.248 L854.426,519.232 C856.634,515.68 860.186,514.096 863.93,514.096 Z M862.202,535.456 C866.042,535.456 869.354,532.672 869.354,529.024 L869.354,528.448 L862.394,528.448 C859.13,528.448 857.354,529.552 857.354,531.76 C857.354,534.256 859.61,535.456 862.202,535.456 Z M890.27,514.096 C895.79,514.096 898.958,517.888 898.958,523.312 L898.958,538 L895.262,538 L895.262,523.744 C895.262,520.048 893.054,517.504 889.454,517.504 C885.854,517.504 883.31,520.096 883.31,523.744 L883.31,538 L879.614,538 L879.614,514.624 L883.07,514.624 L883.07,517.168 C884.702,515.248 887.246,514.096 890.27,514.096 Z M924.05,502 L927.746,502 L927.746,538 L924.242,538 L924.242,534.256 C922.418,536.944 919.106,538.528 915.41,538.528 C908.738,538.528 903.842,533.2 903.842,526.336 C903.842,519.424 908.738,514.096 915.41,514.096 C918.962,514.096 922.178,515.584 924.05,518.08 L924.05,502 Z M915.938,535.12 C919.97,535.12 924.098,532.48 924.098,526.336 C924.098,520.192 919.97,517.504 915.938,517.504 C911.186,517.504 907.634,521.2 907.634,526.288 C907.634,531.376 911.138,535.12 915.938,535.12 Z M972.41,514.096 C977.882,514.096 980.906,517.888 980.906,523.312 L980.906,538 L977.21,538 L977.21,523.792 C977.21,520.096 975.194,517.504 971.69,517.504 C968.138,517.504 965.69,520.192 965.69,523.456 L965.69,538 L961.994,538 L961.994,523.792 C961.994,520.096 959.882,517.504 956.426,517.504 C952.874,517.504 950.474,520.096 950.474,523.792 L950.474,538 L946.778,538 L946.778,514.624 L950.234,514.624 L950.234,517.072 C951.866,515.2 954.266,514.096 957.194,514.096 C960.698,514.096 963.098,515.68 964.394,518.128 C966.026,515.776 968.81,514.096 972.41,514.096 Z M998.03,514.096 C1004.798,514.096 1010.27,519.424 1010.27,526.288 C1010.27,533.104 1004.798,538.48 997.982,538.48 C991.214,538.432 985.79,533.152 985.79,526.288 C985.79,519.424 991.166,514.096 998.03,514.096 Z M998.03,517.504 C993.134,517.504 989.534,521.344 989.582,526.336 C989.582,531.28 993.134,535.072 997.982,535.072 C1002.83,535.072 1006.478,531.232 1006.478,526.336 C1006.478,521.296 1002.83,517.504 998.03,517.504 Z M1026.194,514.432 C1026.962,514.432 1027.442,514.528 1027.922,514.624 L1027.922,517.888 L1026.53,517.888 C1022.738,517.888 1019.186,520.288 1019.186,524.752 L1019.186,538 L1015.49,538 L1015.49,514.624 L1018.946,514.624 L1018.946,517.984 C1020.674,515.68 1023.41,514.432 1026.194,514.432 Z M1052.054,524.656 C1052.054,525.904 1051.862,527.008 1051.766,527.44 L1033.334,527.44 C1033.814,532.096 1037.27,535.12 1041.878,535.12 C1044.806,535.12 1047.11,533.872 1049.03,531.952 L1051.19,534.448 C1048.838,536.944 1045.67,538.528 1041.83,538.528 C1034.774,538.528 1029.446,533.2 1029.446,526.336 C1029.446,519.52 1034.678,514.096 1041.398,514.096 C1047.398,514.096 1052.054,518.416 1052.054,524.656 Z M1041.302,517.456 C1037.366,517.456 1034.246,520.144 1033.478,524.176 L1048.262,524.176 C1048.214,519.856 1045.046,517.456 1041.302,517.456 Z M1059.674,532.48 C1061.306,532.48 1062.698,533.728 1062.698,535.504 C1062.698,537.28 1061.306,538.528 1059.674,538.528 C1058.042,538.528 1056.65,537.28 1056.65,535.504 C1056.65,533.728 1058.042,532.48 1059.674,532.48 Z" id="ThisprojectfocusedhelpingredesigntheUIandflowforSparetoShare,apropertymanagementsoftwarethatgivesbuildingsthatgivesresidentsandstaffaneasywaytocommunicateaboutevents,servicerequests,mail,andmore."></path>
        </g>
    </g>
</svg>