<?xml version="1.0" encoding="UTF-8"?>
<svg width="856px" height="331px" viewBox="0 0 856 331" version="1.1" xmlns="http://www.w3.org/2000/svg" xmlns:xlink="http://www.w3.org/1999/xlink">
    <!-- Generator: Sketch 56.3 (81716) - https://sketch.com -->
    <title>ThisprojectfocusedonhelpingredesigntheUIandflowforSparetoShare,apropertymanagementsoftwarethatgivesresidentsandstaffaneasywaytocommunicateaboutevents,servicerequests,mail,andmore</title>
    <desc>Created with Sketch.</desc>
    <g id="Page-1" stroke="none" stroke-width="1" fill="none" fill-rule="evenodd">
        <path d="M26.6159998,5.32 L26.6159998,8.68 L15.4319998,8.68 L15.4319998,37 L11.6879998,37 L11.6879998,8.68 L0.551999809,8.68 L0.551999809,5.32 L26.6159998,5.32 Z M41.0519998,13.096 C46.5239998,13.096 49.6919998,16.888 49.6919998,22.312 L49.6919998,37 L45.9959998,37 L45.9959998,22.792 C45.9959998,19.096 43.7879998,16.504 40.1879998,16.504 C36.5879998,16.504 34.0439998,19.144 34.0439998,22.792 L34.0439998,37 L30.3479998,37 L30.3479998,1 L34.0439998,1 L34.0439998,16.264 C35.5799998,14.296 38.0279998,13.096 41.0519998,13.096 Z M58.1279998,2.008 C59.6159998,2.008 60.8639998,3.208 60.8639998,4.696 C60.8639998,6.232 59.6159998,7.384 58.1279998,7.384 C56.5439998,7.384 55.3439998,6.232 55.3439998,4.696 C55.3439998,3.208 56.5439998,2.008 58.1279998,2.008 Z M59.9519998,13.624 L59.9519998,37 L56.2559998,37 L56.2559998,13.624 L59.9519998,13.624 Z M73.8599998,13.096 C77.2199998,13.096 79.8599998,14.536 81.6839998,16.792 L79.4279998,19.096 C77.8919998,17.512 75.8759998,16.504 73.6679998,16.504 C71.4599998,16.504 69.7799998,17.512 69.7799998,19.432 C69.7799998,21.016 70.9799998,21.784 73.5719998,22.84 L75.7319998,23.752 C79.9559998,25.528 81.9239998,27.352 81.9239998,30.664 C81.9239998,35.224 78.0359998,37.528 73.7159998,37.528 C69.5879998,37.528 66.4679998,35.464 64.5959998,32.968 L66.9479998,30.52 C68.8679998,32.536 70.8359998,34.12 73.6679998,34.12 C76.1159998,34.12 78.1319998,32.92 78.1319998,30.808 C78.1319998,28.792 76.4039998,28.024 74.0519998,27.064 L71.7959998,26.104 C68.2439998,24.616 65.9879998,22.984 65.9879998,19.624 C65.9879998,15.4 69.5879998,13.096 73.8599998,13.096 Z M111.804,13.096 C118.524,13.096 123.372,18.424 123.372,25.288 C123.372,32.2 118.476,37.528 111.804,37.528 C108.348,37.528 105.084,36.088 103.212,33.592 L103.212,45.64 L99.5159999,45.64 L99.5159999,13.624 L102.972,13.624 L102.972,17.368 C104.796,14.68 108.108,13.096 111.804,13.096 Z M111.276,34.12 C116.028,34.12 119.58,30.424 119.58,25.336 C119.58,20.248 116.076,16.504 111.276,16.504 C107.244,16.504 103.164,19.144 103.164,25.288 C103.164,31.432 107.196,34.12 111.276,34.12 Z M139.296,13.432 C140.064,13.432 140.544,13.528 141.024,13.624 L141.024,16.888 L139.632,16.888 C135.84,16.888 132.288,19.288 132.288,23.752 L132.288,37 L128.592,37 L128.592,13.624 L132.048,13.624 L132.048,16.984 C133.776,14.68 136.512,13.432 139.296,13.432 Z M154.788,13.096 C161.556,13.096 167.028,18.424 167.028,25.288 C167.028,32.104 161.556,37.48 154.74,37.48 C147.972,37.432 142.548,32.152 142.548,25.288 C142.548,18.424 147.924,13.096 154.788,13.096 Z M154.788,16.504 C149.892,16.504 146.292,20.344 146.34,25.336 C146.34,30.28 149.892,34.072 154.74,34.072 C159.588,34.072 163.236,30.232 163.236,25.336 C163.236,20.296 159.588,16.504 154.788,16.504 Z M174.12,2.008 C175.608,2.008 176.856,3.208 176.856,4.696 C176.856,6.232 175.608,7.384 174.12,7.384 C172.536,7.384 171.336,6.232 171.336,4.696 C171.336,3.208 172.536,2.008 174.12,2.008 Z M175.944,13.624 L175.944,38.584 C175.944,43.912 172.728,46.168 168.264,46.168 C167.064,46.168 166.152,46.024 165.288,45.784 L165.288,42.664 C166.104,42.76 166.68,42.808 167.448,42.808 C170.28,42.808 172.248,41.8 172.248,38.344 L172.248,13.624 L175.944,13.624 Z M203.724,23.656 C203.724,24.904 203.532,26.008 203.436,26.44 L185.004,26.44 C185.484,31.096 188.94,34.12 193.548,34.12 C196.476,34.12 198.78,32.872 200.7,30.952 L202.86,33.448 C200.508,35.944 197.34,37.528 193.5,37.528 C186.444,37.528 181.116,32.2 181.116,25.336 C181.116,18.52 186.348,13.096 193.068,13.096 C199.068,13.096 203.724,17.416 203.724,23.656 Z M192.972,16.456 C189.036,16.456 185.916,19.144 185.148,23.176 L199.932,23.176 C199.884,18.856 196.716,16.456 192.972,16.456 Z M219.504,13.096 C223.728,13.096 227.088,15.112 229.152,18.184 L226.512,20.296 C224.784,17.992 222.576,16.504 219.552,16.504 C214.656,16.504 211.056,20.392 211.056,25.288 C211.056,30.232 214.656,34.12 219.552,34.12 C222.528,34.12 224.736,32.68 226.464,30.376 L229.104,32.44 C227.04,35.512 223.68,37.528 219.504,37.528 C212.688,37.528 207.264,32.152 207.264,25.288 C207.264,18.472 212.688,13.096 219.504,13.096 Z M243.78,34.168 C244.692,34.168 245.7,34.072 246.9,33.88 L246.9,37 C245.7,37.288 244.5,37.528 243.012,37.528 C238.404,37.528 235.14,35.272 235.14,29.944 L235.14,16.936 L231.204,16.936 L231.204,13.624 L235.14,13.624 L235.14,7.24 L238.836,7.24 L238.836,13.624 L246.132,13.624 L246.132,16.936 L238.836,16.936 L238.836,29.704 C238.836,33.208 240.852,34.168 243.78,34.168 Z M272.508,3.832 C269.628,3.832 267.612,4.792 267.612,8.296 L267.612,13.624 L273.468,13.624 L273.468,16.936 L267.612,16.936 L267.612,37 L263.916,37 L263.916,16.936 L260.556,16.936 L260.556,13.624 L263.916,13.624 L263.916,8.056 C263.916,2.728 267.132,0.472 271.644,0.472 C272.796,0.472 273.708,0.616 274.572,0.856 L274.572,3.976 C273.804,3.88 273.132,3.832 272.508,3.832 Z M287.184,13.096 C293.952,13.096 299.424,18.424 299.424,25.288 C299.424,32.104 293.952,37.48 287.136,37.48 C280.368,37.432 274.944,32.152 274.944,25.288 C274.944,18.424 280.32,13.096 287.184,13.096 Z M287.184,16.504 C282.288,16.504 278.688,20.344 278.736,25.336 C278.736,30.28 282.288,34.072 287.136,34.072 C291.984,34.072 295.632,30.232 295.632,25.336 C295.632,20.296 291.984,16.504 287.184,16.504 Z M315.204,13.096 C319.428,13.096 322.788,15.112 324.852,18.184 L322.212,20.296 C320.484,17.992 318.276,16.504 315.252,16.504 C310.356,16.504 306.756,20.392 306.756,25.288 C306.756,30.232 310.356,34.12 315.252,34.12 C318.228,34.12 320.436,32.68 322.164,30.376 L324.804,32.44 C322.74,35.512 319.38,37.528 315.204,37.528 C308.388,37.528 302.964,32.152 302.964,25.288 C302.964,18.472 308.388,13.096 315.204,13.096 Z M348.888,13.624 L348.888,27.688 C348.888,33.688 344.616,37.528 339.24,37.528 C333.768,37.528 329.544,33.688 329.544,27.688 L329.544,13.624 L333.192,13.624 L333.192,27.928 C333.192,31.768 335.88,34.12 339.24,34.12 C342.504,34.12 345.192,31.768 345.192,27.928 L345.192,13.624 L348.888,13.624 Z M362.508,13.096 C365.868,13.096 368.508,14.536 370.332,16.792 L368.076,19.096 C366.54,17.512 364.524,16.504 362.316,16.504 C360.108,16.504 358.428,17.512 358.428,19.432 C358.428,21.016 359.628,21.784 362.22,22.84 L364.38,23.752 C368.604,25.528 370.572,27.352 370.572,30.664 C370.572,35.224 366.684,37.528 362.364,37.528 C358.236,37.528 355.116,35.464 353.244,32.968 L355.596,30.52 C357.516,32.536 359.484,34.12 362.316,34.12 C364.764,34.12 366.78,32.92 366.78,30.808 C366.78,28.792 365.052,28.024 362.7,27.064 L360.444,26.104 C356.892,24.616 354.636,22.984 354.636,19.624 C354.636,15.4 358.236,13.096 362.508,13.096 Z M396.912,23.656 C396.912,24.904 396.72,26.008 396.624,26.44 L378.192,26.44 C378.672,31.096 382.128,34.12 386.736,34.12 C389.664,34.12 391.968,32.872 393.888,30.952 L396.048,33.448 C393.696,35.944 390.528,37.528 386.688,37.528 C379.632,37.528 374.304,32.2 374.304,25.336 C374.304,18.52 379.536,13.096 386.256,13.096 C392.256,13.096 396.912,17.416 396.912,23.656 Z M386.16,16.456 C382.224,16.456 379.104,19.144 378.336,23.176 L393.12,23.176 C393.072,18.856 389.904,16.456 386.16,16.456 Z M420.66,1 L424.356,1 L424.356,37 L420.852,37 L420.852,33.256 C419.028,35.944 415.716,37.528 412.02,37.528 C405.348,37.528 400.452,32.2 400.452,25.336 C400.452,18.424 405.348,13.096 412.02,13.096 C415.572,13.096 418.788,14.584 420.66,17.08 L420.66,1 Z M412.548,34.12 C416.58,34.12 420.708,31.48 420.708,25.336 C420.708,19.192 416.58,16.504 412.548,16.504 C407.796,16.504 404.244,20.2 404.244,25.288 C404.244,30.376 407.748,34.12 412.548,34.12 Z M453.948,13.096 C460.716,13.096 466.188,18.424 466.188,25.288 C466.188,32.104 460.716,37.48 453.9,37.48 C447.132,37.432 441.708,32.152 441.708,25.288 C441.708,18.424 447.084,13.096 453.948,13.096 Z M453.948,16.504 C449.052,16.504 445.452,20.344 445.5,25.336 C445.5,30.28 449.052,34.072 453.9,34.072 C458.748,34.072 462.396,30.232 462.396,25.336 C462.396,20.296 458.748,16.504 453.948,16.504 Z M482.064,13.096 C487.584,13.096 490.752,16.888 490.752,22.312 L490.752,37 L487.056,37 L487.056,22.744 C487.056,19.048 484.848,16.504 481.248,16.504 C477.648,16.504 475.104,19.096 475.104,22.744 L475.104,37 L471.408,37 L471.408,13.624 L474.864,13.624 L474.864,16.168 C476.496,14.248 479.04,13.096 482.064,13.096 Z M520.2,13.096 C525.672,13.096 528.84,16.888 528.84,22.312 L528.84,37 L525.144,37 L525.144,22.792 C525.144,19.096 522.936,16.504 519.336,16.504 C515.736,16.504 513.192,19.144 513.192,22.792 L513.192,37 L509.496,37 L509.496,1 L513.192,1 L513.192,16.264 C514.728,14.296 517.176,13.096 520.2,13.096 Z M556.332,23.656 C556.332,24.904 556.14,26.008 556.044,26.44 L537.612,26.44 C538.092,31.096 541.548,34.12 546.156,34.12 C549.084,34.12 551.388,32.872 553.308,30.952 L555.468,33.448 C553.116,35.944 549.948,37.528 546.108,37.528 C539.052,37.528 533.724,32.2 533.724,25.336 C533.724,18.52 538.956,13.096 545.676,13.096 C551.676,13.096 556.332,17.416 556.332,23.656 Z M545.58,16.456 C541.644,16.456 538.524,19.144 537.756,23.176 L552.54,23.176 C552.492,18.856 549.324,16.456 545.58,16.456 Z M565.248,1 L565.248,37 L561.552,37 L561.552,1 L565.248,1 Z M584.388,13.096 C591.108,13.096 595.956,18.424 595.956,25.288 C595.956,32.2 591.06,37.528 584.388,37.528 C580.932,37.528 577.668,36.088 575.796,33.592 L575.796,45.64 L572.1,45.64 L572.1,13.624 L575.556,13.624 L575.556,17.368 C577.38,14.68 580.692,13.096 584.388,13.096 Z M583.86,34.12 C588.612,34.12 592.164,30.424 592.164,25.336 C592.164,20.248 588.66,16.504 583.86,16.504 C579.828,16.504 575.748,19.144 575.748,25.288 C575.748,31.432 579.78,34.12 583.86,34.12 Z M603.048,2.008 C604.536,2.008 605.784,3.208 605.784,4.696 C605.784,6.232 604.536,7.384 603.048,7.384 C601.464,7.384 600.264,6.232 600.264,4.696 C600.264,3.208 601.464,2.008 603.048,2.008 Z M604.872,13.624 L604.872,37 L601.176,37 L601.176,13.624 L604.872,13.624 Z M622.38,13.096 C627.9,13.096 631.068,16.888 631.068,22.312 L631.068,37 L627.372,37 L627.372,22.744 C627.372,19.048 625.164,16.504 621.564,16.504 C617.964,16.504 615.42,19.096 615.42,22.744 L615.42,37 L611.724,37 L611.724,13.624 L615.18,13.624 L615.18,16.168 C616.812,14.248 619.356,13.096 622.38,13.096 Z M656.592,13.624 L660.096,13.624 L660.096,34.744 C660.096,41.944 655.536,46.168 648.72,46.168 C643.824,46.168 640.032,43.96 637.728,41.656 L639.888,39.064 C642.144,41.032 644.784,42.76 648.624,42.76 C653.376,42.76 656.4,40.12 656.4,34.936 L656.4,32.872 C654.48,35.32 651.216,36.76 647.712,36.76 C641.136,36.76 636.24,31.768 636.24,24.952 C636.24,18.184 641.136,13.096 647.712,13.096 C651.408,13.096 654.768,14.728 656.592,17.416 L656.592,13.624 Z M648.288,33.352 C652.368,33.352 656.448,30.808 656.448,24.952 C656.448,19.096 652.32,16.6 648.288,16.6 C643.536,16.6 639.984,20.056 639.984,25 C639.984,29.944 643.536,33.352 648.288,33.352 Z M689.832,13.432 C690.6,13.432 691.08,13.528 691.56,13.624 L691.56,16.888 L690.168,16.888 C686.376,16.888 682.824,19.288 682.824,23.752 L682.824,37 L679.128,37 L679.128,13.624 L682.584,13.624 L682.584,16.984 C684.312,14.68 687.048,13.432 689.832,13.432 Z M715.692,23.656 C715.692,24.904 715.5,26.008 715.404,26.44 L696.972,26.44 C697.452,31.096 700.908,34.12 705.516,34.12 C708.444,34.12 710.748,32.872 712.668,30.952 L714.828,33.448 C712.476,35.944 709.308,37.528 705.468,37.528 C698.412,37.528 693.084,32.2 693.084,25.336 C693.084,18.52 698.316,13.096 705.036,13.096 C711.036,13.096 715.692,17.416 715.692,23.656 Z M704.94,16.456 C701.004,16.456 697.884,19.144 697.116,23.176 L711.9,23.176 C711.852,18.856 708.684,16.456 704.94,16.456 Z M739.44,1 L743.136,1 L743.136,37 L739.632,37 L739.632,33.256 C737.808,35.944 734.496,37.528 730.8,37.528 C724.128,37.528 719.232,32.2 719.232,25.336 C719.232,18.424 724.128,13.096 730.8,13.096 C734.352,13.096 737.568,14.584 739.44,17.08 L739.44,1 Z M731.328,34.12 C735.36,34.12 739.488,31.48 739.488,25.336 C739.488,19.192 735.36,16.504 731.328,16.504 C726.576,16.504 723.024,20.2 723.024,25.288 C723.024,30.376 726.528,34.12 731.328,34.12 Z M770.916,23.656 C770.916,24.904 770.724,26.008 770.628,26.44 L752.196,26.44 C752.676,31.096 756.132,34.12 760.74,34.12 C763.668,34.12 765.972,32.872 767.892,30.952 L770.052,33.448 C767.7,35.944 764.532,37.528 760.692,37.528 C753.636,37.528 748.308,32.2 748.308,25.336 C748.308,18.52 753.54,13.096 760.26,13.096 C766.26,13.096 770.916,17.416 770.916,23.656 Z M760.164,16.456 C756.228,16.456 753.108,19.144 752.34,23.176 L767.124,23.176 C767.076,18.856 763.908,16.456 760.164,16.456 Z M783.192,13.096 C786.552,13.096 789.192,14.536 791.016,16.792 L788.76,19.096 C787.224,17.512 785.208,16.504 783,16.504 C780.792,16.504 779.112,17.512 779.112,19.432 C779.112,21.016 780.312,21.784 782.904,22.84 L785.064,23.752 C789.288,25.528 791.256,27.352 791.256,30.664 C791.256,35.224 787.368,37.528 783.048,37.528 C778.92,37.528 775.8,35.464 773.928,32.968 L776.28,30.52 C778.2,32.536 780.168,34.12 783,34.12 C785.448,34.12 787.464,32.92 787.464,30.808 C787.464,28.792 785.736,28.024 783.384,27.064 L781.128,26.104 C777.576,24.616 775.32,22.984 775.32,19.624 C775.32,15.4 778.92,13.096 783.192,13.096 Z M798.54,2.008 C800.028,2.008 801.276,3.208 801.276,4.696 C801.276,6.232 800.028,7.384 798.54,7.384 C796.956,7.384 795.756,6.232 795.756,4.696 C795.756,3.208 796.956,2.008 798.54,2.008 Z M800.364,13.624 L800.364,37 L796.668,37 L796.668,13.624 L800.364,13.624 Z M826.176,13.624 L829.68,13.624 L829.68,34.744 C829.68,41.944 825.12,46.168 818.304,46.168 C813.408,46.168 809.616,43.96 807.312,41.656 L809.472,39.064 C811.728,41.032 814.368,42.76 818.208,42.76 C822.96,42.76 825.984,40.12 825.984,34.936 L825.984,32.872 C824.064,35.32 820.8,36.76 817.296,36.76 C810.72,36.76 805.824,31.768 805.824,24.952 C805.824,18.184 810.72,13.096 817.296,13.096 C820.992,13.096 824.352,14.728 826.176,17.416 L826.176,13.624 Z M817.872,33.352 C821.952,33.352 826.032,30.808 826.032,24.952 C826.032,19.096 821.904,16.6 817.872,16.6 C813.12,16.6 809.568,20.056 809.568,25 C809.568,29.944 813.12,33.352 817.872,33.352 Z M847.188,13.096 C852.708,13.096 855.876,16.888 855.876,22.312 L855.876,37 L852.18,37 L852.18,22.744 C852.18,19.048 849.972,16.504 846.372,16.504 C842.772,16.504 840.228,19.096 840.228,22.744 L840.228,37 L836.532,37 L836.532,13.624 L839.988,13.624 L839.988,16.168 C841.62,14.248 844.164,13.096 847.188,13.096 Z M65.0699998,91.168 C65.9819998,91.168 66.9899998,91.072 68.1899998,90.88 L68.1899998,94 C66.9899998,94.288 65.7899998,94.528 64.3019998,94.528 C59.6939998,94.528 56.4299998,92.272 56.4299998,86.944 L56.4299998,73.936 L52.4939998,73.936 L52.4939998,70.624 L56.4299998,70.624 L56.4299998,64.24 L60.1259998,64.24 L60.1259998,70.624 L67.4219998,70.624 L67.4219998,73.936 L60.1259998,73.936 L60.1259998,86.704 C60.1259998,90.208 62.1419998,91.168 65.0699998,91.168 Z M83.1539998,70.096 C88.6259998,70.096 91.7939998,73.888 91.7939998,79.312 L91.7939998,94 L88.0979998,94 L88.0979998,79.792 C88.0979998,76.096 85.8899998,73.504 82.2899998,73.504 C78.6899998,73.504 76.1459998,76.144 76.1459998,79.792 L76.1459998,94 L72.4499998,94 L72.4499998,58 L76.1459998,58 L76.1459998,73.264 C77.6819998,71.296 80.1299998,70.096 83.1539998,70.096 Z M119.286,80.656 C119.286,81.904 119.094,83.008 118.998,83.44 L100.566,83.44 C101.046,88.096 104.502,91.12 109.11,91.12 C112.038,91.12 114.342,89.872 116.262,87.952 L118.422,90.448 C116.07,92.944 112.902,94.528 109.062,94.528 C102.006,94.528 96.6779998,89.2 96.6779998,82.336 C96.6779998,75.52 101.91,70.096 108.63,70.096 C114.63,70.096 119.286,74.416 119.286,80.656 Z M108.534,73.456 C104.598,73.456 101.478,76.144 100.71,80.176 L115.494,80.176 C115.446,75.856 112.278,73.456 108.534,73.456 Z M161.694,62.32 L161.694,81.424 C161.694,89.872 156.318,94.528 149.166,94.528 C141.87,94.528 136.542,89.872 136.542,81.424 L136.542,62.32 L140.286,62.32 L140.286,81.664 C140.286,88.048 144.222,91.072 149.166,91.072 C154.062,91.072 157.95,88.048 157.95,81.664 L157.95,62.32 L161.694,62.32 Z M172.53,62.32 L172.53,94 L168.786,94 L168.786,62.32 L172.53,62.32 Z M200.25,70.096 C205.578,70.096 209.37,73.312 209.37,79.6 L209.37,94 L205.914,94 L205.914,90.976 C204.234,93.232 201.498,94.528 198.042,94.528 C193.338,94.528 189.882,92.032 189.882,87.952 C189.882,84.016 193.194,81.424 198.282,81.424 L205.674,81.424 L205.674,79.408 C205.674,75.472 203.466,73.504 200.01,73.504 C197.082,73.504 195.018,74.896 193.194,77.248 L190.746,75.232 C192.954,71.68 196.506,70.096 200.25,70.096 Z M198.522,91.456 C202.362,91.456 205.674,88.672 205.674,85.024 L205.674,84.448 L198.714,84.448 C195.45,84.448 193.674,85.552 193.674,87.76 C193.674,90.256 195.93,91.456 198.522,91.456 Z M226.59,70.096 C232.11,70.096 235.278,73.888 235.278,79.312 L235.278,94 L231.582,94 L231.582,79.744 C231.582,76.048 229.374,73.504 225.774,73.504 C222.174,73.504 219.63,76.096 219.63,79.744 L219.63,94 L215.934,94 L215.934,70.624 L219.39,70.624 L219.39,73.168 C221.022,71.248 223.566,70.096 226.59,70.096 Z M260.37,58 L264.066,58 L264.066,94 L260.562,94 L260.562,90.256 C258.738,92.944 255.426,94.528 251.73,94.528 C245.058,94.528 240.162,89.2 240.162,82.336 C240.162,75.424 245.058,70.096 251.73,70.096 C255.282,70.096 258.498,71.584 260.37,74.08 L260.37,58 Z M252.258,91.12 C256.29,91.12 260.418,88.48 260.418,82.336 C260.418,76.192 256.29,73.504 252.258,73.504 C247.506,73.504 243.954,77.2 243.954,82.288 C243.954,87.376 247.458,91.12 252.258,91.12 Z M292.266,60.832 C289.386,60.832 287.37,61.792 287.37,65.296 L287.37,70.624 L293.226,70.624 L293.226,73.936 L287.37,73.936 L287.37,94 L283.674,94 L283.674,73.936 L280.314,73.936 L280.314,70.624 L283.674,70.624 L283.674,65.056 C283.674,59.728 286.89,57.472 291.402,57.472 C292.554,57.472 293.466,57.616 294.33,57.856 L294.33,60.976 C293.562,60.88 292.89,60.832 292.266,60.832 Z M300.798,58 L300.798,94 L297.102,94 L297.102,58 L300.798,58 Z M318.21,70.096 C324.978,70.096 330.45,75.424 330.45,82.288 C330.45,89.104 324.978,94.48 318.162,94.48 C311.394,94.432 305.97,89.152 305.97,82.288 C305.97,75.424 311.346,70.096 318.21,70.096 Z M318.21,73.504 C313.314,73.504 309.714,77.344 309.762,82.336 C309.762,87.28 313.314,91.072 318.162,91.072 C323.01,91.072 326.658,87.232 326.658,82.336 C326.658,77.296 323.01,73.504 318.21,73.504 Z M366.246,70.624 L370.182,70.624 L360.342,94.528 L358.998,94.528 L351.03,76.864 L343.11,94.528 L341.814,94.528 L331.878,70.624 L335.814,70.624 L342.534,87.904 L350.358,70.096 L351.75,70.096 L359.622,87.808 L366.246,70.624 Z M395.646,60.832 C392.766,60.832 390.75,61.792 390.75,65.296 L390.75,70.624 L396.606,70.624 L396.606,73.936 L390.75,73.936 L390.75,94 L387.054,94 L387.054,73.936 L383.694,73.936 L383.694,70.624 L387.054,70.624 L387.054,65.056 C387.054,59.728 390.27,57.472 394.782,57.472 C395.934,57.472 396.846,57.616 397.71,57.856 L397.71,60.976 C396.942,60.88 396.27,60.832 395.646,60.832 Z M410.322,70.096 C417.09,70.096 422.562,75.424 422.562,82.288 C422.562,89.104 417.09,94.48 410.274,94.48 C403.506,94.432 398.082,89.152 398.082,82.288 C398.082,75.424 403.458,70.096 410.322,70.096 Z M410.322,73.504 C405.426,73.504 401.826,77.344 401.874,82.336 C401.874,87.28 405.426,91.072 410.274,91.072 C415.122,91.072 418.77,87.232 418.77,82.336 C418.77,77.296 415.122,73.504 410.322,73.504 Z M438.486,70.432 C439.254,70.432 439.734,70.528 440.214,70.624 L440.214,73.888 L438.822,73.888 C435.03,73.888 431.478,76.288 431.478,80.752 L431.478,94 L427.782,94 L427.782,70.624 L431.238,70.624 L431.238,73.984 C432.966,71.68 435.702,70.432 438.486,70.432 Z M465.534,61.792 C469.854,61.792 473.502,64.048 475.47,67.168 L472.734,69.232 C471.054,66.688 468.366,65.248 465.486,65.248 C462.558,65.248 459.87,66.736 459.87,69.856 C459.87,72.736 462.078,73.792 464.958,75.184 L468.462,76.864 C473.07,79.072 475.854,81.424 475.854,85.696 C475.854,91.024 471.486,94.528 465.63,94.528 C460.59,94.528 456.414,91.888 453.966,87.712 L456.75,85.648 C458.67,88.576 461.502,91.072 465.582,91.072 C469.326,91.072 471.966,89.008 471.966,85.792 C471.966,82.864 469.806,81.712 466.686,80.224 L463.134,78.544 C459.438,76.768 455.982,74.512 455.982,70.048 C455.982,65.008 460.398,61.792 465.534,61.792 Z M493.89,70.096 C500.61,70.096 505.458,75.424 505.458,82.288 C505.458,89.2 500.562,94.528 493.89,94.528 C490.434,94.528 487.17,93.088 485.298,90.592 L485.298,102.64 L481.602,102.64 L481.602,70.624 L485.058,70.624 L485.058,74.368 C486.882,71.68 490.194,70.096 493.89,70.096 Z M493.362,91.12 C498.114,91.12 501.666,87.424 501.666,82.336 C501.666,77.248 498.162,73.504 493.362,73.504 C489.33,73.504 485.25,76.144 485.25,82.288 C485.25,88.432 489.282,91.12 493.362,91.12 Z M519.078,70.096 C524.406,70.096 528.198,73.312 528.198,79.6 L528.198,94 L524.742,94 L524.742,90.976 C523.062,93.232 520.326,94.528 516.87,94.528 C512.166,94.528 508.71,92.032 508.71,87.952 C508.71,84.016 512.022,81.424 517.11,81.424 L524.502,81.424 L524.502,79.408 C524.502,75.472 522.294,73.504 518.838,73.504 C515.91,73.504 513.846,74.896 512.022,77.248 L509.574,75.232 C511.782,71.68 515.334,70.096 519.078,70.096 Z M517.35,91.456 C521.19,91.456 524.502,88.672 524.502,85.024 L524.502,84.448 L517.542,84.448 C514.278,84.448 512.502,85.552 512.502,87.76 C512.502,90.256 514.758,91.456 517.35,91.456 Z M545.466,70.432 C546.234,70.432 546.714,70.528 547.194,70.624 L547.194,73.888 L545.802,73.888 C542.01,73.888 538.458,76.288 538.458,80.752 L538.458,94 L534.762,94 L534.762,70.624 L538.218,70.624 L538.218,73.984 C539.946,71.68 542.682,70.432 545.466,70.432 Z M571.326,80.656 C571.326,81.904 571.134,83.008 571.038,83.44 L552.606,83.44 C553.086,88.096 556.542,91.12 561.15,91.12 C564.078,91.12 566.382,89.872 568.302,87.952 L570.462,90.448 C568.11,92.944 564.942,94.528 561.102,94.528 C554.046,94.528 548.718,89.2 548.718,82.336 C548.718,75.52 553.95,70.096 560.67,70.096 C566.67,70.096 571.326,74.416 571.326,80.656 Z M560.574,73.456 C556.638,73.456 553.518,76.144 552.75,80.176 L567.534,80.176 C567.486,75.856 564.318,73.456 560.574,73.456 Z M598.374,91.168 C599.286,91.168 600.294,91.072 601.494,90.88 L601.494,94 C600.294,94.288 599.094,94.528 597.606,94.528 C592.998,94.528 589.734,92.272 589.734,86.944 L589.734,73.936 L585.798,73.936 L585.798,70.624 L589.734,70.624 L589.734,64.24 L593.43,64.24 L593.43,70.624 L600.726,70.624 L600.726,73.936 L593.43,73.936 L593.43,86.704 C593.43,90.208 595.446,91.168 598.374,91.168 Z M615.834,70.096 C622.602,70.096 628.074,75.424 628.074,82.288 C628.074,89.104 622.602,94.48 615.786,94.48 C609.018,94.432 603.594,89.152 603.594,82.288 C603.594,75.424 608.97,70.096 615.834,70.096 Z M615.834,73.504 C610.938,73.504 607.338,77.344 607.386,82.336 C607.386,87.28 610.938,91.072 615.786,91.072 C620.634,91.072 624.282,87.232 624.282,82.336 C624.282,77.296 620.634,73.504 615.834,73.504 Z M654.93,61.792 C659.25,61.792 662.898,64.048 664.866,67.168 L662.13,69.232 C660.45,66.688 657.762,65.248 654.882,65.248 C651.954,65.248 649.266,66.736 649.266,69.856 C649.266,72.736 651.474,73.792 654.354,75.184 L657.858,76.864 C662.466,79.072 665.25,81.424 665.25,85.696 C665.25,91.024 660.882,94.528 655.026,94.528 C649.986,94.528 645.81,91.888 643.362,87.712 L646.146,85.648 C648.066,88.576 650.898,91.072 654.978,91.072 C658.722,91.072 661.362,89.008 661.362,85.792 C661.362,82.864 659.202,81.712 656.082,80.224 L652.53,78.544 C648.834,76.768 645.378,74.512 645.378,70.048 C645.378,65.008 649.794,61.792 654.93,61.792 Z M681.702,70.096 C687.174,70.096 690.342,73.888 690.342,79.312 L690.342,94 L686.646,94 L686.646,79.792 C686.646,76.096 684.438,73.504 680.838,73.504 C677.238,73.504 674.694,76.144 674.694,79.792 L674.694,94 L670.998,94 L670.998,58 L674.694,58 L674.694,73.264 C676.23,71.296 678.678,70.096 681.702,70.096 Z M705.306,70.096 C710.634,70.096 714.426,73.312 714.426,79.6 L714.426,94 L710.97,94 L710.97,90.976 C709.29,93.232 706.554,94.528 703.098,94.528 C698.394,94.528 694.938,92.032 694.938,87.952 C694.938,84.016 698.25,81.424 703.338,81.424 L710.73,81.424 L710.73,79.408 C710.73,75.472 708.522,73.504 705.066,73.504 C702.138,73.504 700.074,74.896 698.25,77.248 L695.802,75.232 C698.01,71.68 701.562,70.096 705.306,70.096 Z M703.578,91.456 C707.418,91.456 710.73,88.672 710.73,85.024 L710.73,84.448 L703.77,84.448 C700.506,84.448 698.73,85.552 698.73,87.76 C698.73,90.256 700.986,91.456 703.578,91.456 Z M731.694,70.432 C732.462,70.432 732.942,70.528 733.422,70.624 L733.422,73.888 L732.03,73.888 C728.238,73.888 724.686,76.288 724.686,80.752 L724.686,94 L720.99,94 L720.99,70.624 L724.446,70.624 L724.446,73.984 C726.174,71.68 728.91,70.432 731.694,70.432 Z M757.554,80.656 C757.554,81.904 757.362,83.008 757.266,83.44 L738.834,83.44 C739.314,88.096 742.77,91.12 747.378,91.12 C750.306,91.12 752.61,89.872 754.53,87.952 L756.69,90.448 C754.338,92.944 751.17,94.528 747.33,94.528 C740.274,94.528 734.946,89.2 734.946,82.336 C734.946,75.52 740.178,70.096 746.898,70.096 C752.898,70.096 757.554,74.416 757.554,80.656 Z M746.802,73.456 C742.866,73.456 739.746,76.144 738.978,80.176 L753.762,80.176 C753.714,75.856 750.546,73.456 746.802,73.456 Z M767.766,89.68 L765.798,102.592 L762.774,102.592 L763.398,89.68 L767.766,89.68 Z M795.054,70.096 C800.382,70.096 804.174,73.312 804.174,79.6 L804.174,94 L800.718,94 L800.718,90.976 C799.038,93.232 796.302,94.528 792.846,94.528 C788.142,94.528 784.686,92.032 784.686,87.952 C784.686,84.016 787.998,81.424 793.086,81.424 L800.478,81.424 L800.478,79.408 C800.478,75.472 798.27,73.504 794.814,73.504 C791.886,73.504 789.822,74.896 787.998,77.248 L785.55,75.232 C787.758,71.68 791.31,70.096 795.054,70.096 Z M793.326,91.456 C797.166,91.456 800.478,88.672 800.478,85.024 L800.478,84.448 L793.518,84.448 C790.254,84.448 788.478,85.552 788.478,87.76 C788.478,90.256 790.734,91.456 793.326,91.456 Z M61.1339998,127.096 C67.8539998,127.096 72.7019998,132.424 72.7019998,139.288 C72.7019998,146.2 67.8059998,151.528 61.1339998,151.528 C57.6779998,151.528 54.4139998,150.088 52.5419998,147.592 L52.5419998,159.64 L48.8459998,159.64 L48.8459998,127.624 L52.3019998,127.624 L52.3019998,131.368 C54.1259998,128.68 57.4379998,127.096 61.1339998,127.096 Z M60.6059998,148.12 C65.3579998,148.12 68.9099998,144.424 68.9099998,139.336 C68.9099998,134.248 65.4059998,130.504 60.6059998,130.504 C56.5739998,130.504 52.4939998,133.144 52.4939998,139.288 C52.4939998,145.432 56.5259998,148.12 60.6059998,148.12 Z M88.6259999,127.432 C89.3939999,127.432 89.8739999,127.528 90.3539999,127.624 L90.3539999,130.888 L88.9619999,130.888 C85.1699999,130.888 81.6179999,133.288 81.6179999,137.752 L81.6179999,151 L77.9219999,151 L77.9219999,127.624 L81.3779999,127.624 L81.3779999,130.984 C83.1059999,128.68 85.8419999,127.432 88.6259999,127.432 Z M104.118,127.096 C110.886,127.096 116.358,132.424 116.358,139.288 C116.358,146.104 110.886,151.48 104.07,151.48 C97.3019999,151.432 91.8779999,146.152 91.8779999,139.288 C91.8779999,132.424 97.2539999,127.096 104.118,127.096 Z M104.118,130.504 C99.2219999,130.504 95.6219999,134.344 95.6699999,139.336 C95.6699999,144.28 99.2219999,148.072 104.07,148.072 C108.918,148.072 112.566,144.232 112.566,139.336 C112.566,134.296 108.918,130.504 104.118,130.504 Z M133.866,127.096 C140.586,127.096 145.434,132.424 145.434,139.288 C145.434,146.2 140.538,151.528 133.866,151.528 C130.41,151.528 127.146,150.088 125.274,147.592 L125.274,159.64 L121.578,159.64 L121.578,127.624 L125.034,127.624 L125.034,131.368 C126.858,128.68 130.17,127.096 133.866,127.096 Z M133.338,148.12 C138.09,148.12 141.642,144.424 141.642,139.336 C141.642,134.248 138.138,130.504 133.338,130.504 C129.306,130.504 125.226,133.144 125.226,139.288 C125.226,145.432 129.258,148.12 133.338,148.12 Z M171.582,137.656 C171.582,138.904 171.39,140.008 171.294,140.44 L152.862,140.44 C153.342,145.096 156.798,148.12 161.406,148.12 C164.334,148.12 166.638,146.872 168.558,144.952 L170.718,147.448 C168.366,149.944 165.198,151.528 161.358,151.528 C154.302,151.528 148.974,146.2 148.974,139.336 C148.974,132.52 154.206,127.096 160.926,127.096 C166.926,127.096 171.582,131.416 171.582,137.656 Z M160.83,130.456 C156.894,130.456 153.774,133.144 153.006,137.176 L167.79,137.176 C167.742,132.856 164.574,130.456 160.83,130.456 Z M187.506,127.432 C188.274,127.432 188.754,127.528 189.234,127.624 L189.234,130.888 L187.842,130.888 C184.05,130.888 180.498,133.288 180.498,137.752 L180.498,151 L176.802,151 L176.802,127.624 L180.258,127.624 L180.258,130.984 C181.986,128.68 184.722,127.432 187.506,127.432 Z M202.566,148.168 C203.478,148.168 204.486,148.072 205.686,147.88 L205.686,151 C204.486,151.288 203.286,151.528 201.798,151.528 C197.19,151.528 193.926,149.272 193.926,143.944 L193.926,130.936 L189.99,130.936 L189.99,127.624 L193.926,127.624 L193.926,121.24 L197.622,121.24 L197.622,127.624 L204.918,127.624 L204.918,130.936 L197.622,130.936 L197.622,143.704 C197.622,147.208 199.638,148.168 202.566,148.168 Z M226.554,127.624 L230.49,127.624 L218.97,154.264 C217.146,158.44 214.602,160.168 211.05,160.168 C209.898,160.168 208.554,159.976 207.45,159.688 L207.45,156.568 C208.554,156.712 209.466,156.808 210.282,156.808 C212.538,156.808 214.266,156.04 215.562,153.064 L216.81,150.232 L207.114,127.624 L211.098,127.624 L218.826,146.248 L226.554,127.624 Z M272.37,127.096 C277.842,127.096 280.866,130.888 280.866,136.312 L280.866,151 L277.17,151 L277.17,136.792 C277.17,133.096 275.154,130.504 271.65,130.504 C268.098,130.504 265.65,133.192 265.65,136.456 L265.65,151 L261.954,151 L261.954,136.792 C261.954,133.096 259.842,130.504 256.386,130.504 C252.834,130.504 250.434,133.096 250.434,136.792 L250.434,151 L246.738,151 L246.738,127.624 L250.194,127.624 L250.194,130.072 C251.826,128.2 254.226,127.096 257.154,127.096 C260.658,127.096 263.058,128.68 264.354,131.128 C265.986,128.776 268.77,127.096 272.37,127.096 Z M295.83,127.096 C301.158,127.096 304.95,130.312 304.95,136.6 L304.95,151 L301.494,151 L301.494,147.976 C299.814,150.232 297.078,151.528 293.622,151.528 C288.918,151.528 285.462,149.032 285.462,144.952 C285.462,141.016 288.774,138.424 293.862,138.424 L301.254,138.424 L301.254,136.408 C301.254,132.472 299.046,130.504 295.59,130.504 C292.662,130.504 290.598,131.896 288.774,134.248 L286.326,132.232 C288.534,128.68 292.086,127.096 295.83,127.096 Z M294.102,148.456 C297.942,148.456 301.254,145.672 301.254,142.024 L301.254,141.448 L294.294,141.448 C291.03,141.448 289.254,142.552 289.254,144.76 C289.254,147.256 291.51,148.456 294.102,148.456 Z M322.17,127.096 C327.69,127.096 330.858,130.888 330.858,136.312 L330.858,151 L327.162,151 L327.162,136.744 C327.162,133.048 324.954,130.504 321.354,130.504 C317.754,130.504 315.21,133.096 315.21,136.744 L315.21,151 L311.514,151 L311.514,127.624 L314.97,127.624 L314.97,130.168 C316.602,128.248 319.146,127.096 322.17,127.096 Z M345.822,127.096 C351.15,127.096 354.942,130.312 354.942,136.6 L354.942,151 L351.486,151 L351.486,147.976 C349.806,150.232 347.07,151.528 343.614,151.528 C338.91,151.528 335.454,149.032 335.454,144.952 C335.454,141.016 338.766,138.424 343.854,138.424 L351.246,138.424 L351.246,136.408 C351.246,132.472 349.038,130.504 345.582,130.504 C342.654,130.504 340.59,131.896 338.766,134.248 L336.318,132.232 C338.526,128.68 342.078,127.096 345.822,127.096 Z M344.094,148.456 C347.934,148.456 351.246,145.672 351.246,142.024 L351.246,141.448 L344.286,141.448 C341.022,141.448 339.246,142.552 339.246,144.76 C339.246,147.256 341.502,148.456 344.094,148.456 Z M380.466,127.624 L383.97,127.624 L383.97,148.744 C383.97,155.944 379.41,160.168 372.594,160.168 C367.698,160.168 363.906,157.96 361.602,155.656 L363.762,153.064 C366.018,155.032 368.658,156.76 372.498,156.76 C377.25,156.76 380.274,154.12 380.274,148.936 L380.274,146.872 C378.354,149.32 375.09,150.76 371.586,150.76 C365.01,150.76 360.114,145.768 360.114,138.952 C360.114,132.184 365.01,127.096 371.586,127.096 C375.282,127.096 378.642,128.728 380.466,131.416 L380.466,127.624 Z M372.162,147.352 C376.242,147.352 380.322,144.808 380.322,138.952 C380.322,133.096 376.194,130.6 372.162,130.6 C367.41,130.6 363.858,134.056 363.858,139 C363.858,143.944 367.41,147.352 372.162,147.352 Z M411.75,137.656 C411.75,138.904 411.558,140.008 411.462,140.44 L393.03,140.44 C393.51,145.096 396.966,148.12 401.574,148.12 C404.502,148.12 406.806,146.872 408.726,144.952 L410.886,147.448 C408.534,149.944 405.366,151.528 401.526,151.528 C394.47,151.528 389.142,146.2 389.142,139.336 C389.142,132.52 394.374,127.096 401.094,127.096 C407.094,127.096 411.75,131.416 411.75,137.656 Z M400.998,130.456 C397.062,130.456 393.942,133.144 393.174,137.176 L407.958,137.176 C407.91,132.856 404.742,130.456 400.998,130.456 Z M442.602,127.096 C448.074,127.096 451.098,130.888 451.098,136.312 L451.098,151 L447.402,151 L447.402,136.792 C447.402,133.096 445.386,130.504 441.882,130.504 C438.33,130.504 435.882,133.192 435.882,136.456 L435.882,151 L432.186,151 L432.186,136.792 C432.186,133.096 430.074,130.504 426.618,130.504 C423.066,130.504 420.666,133.096 420.666,136.792 L420.666,151 L416.97,151 L416.97,127.624 L420.426,127.624 L420.426,130.072 C422.058,128.2 424.458,127.096 427.386,127.096 C430.89,127.096 433.29,128.68 434.586,131.128 C436.218,128.776 439.002,127.096 442.602,127.096 Z M478.59,137.656 C478.59,138.904 478.398,140.008 478.302,140.44 L459.87,140.44 C460.35,145.096 463.806,148.12 468.414,148.12 C471.342,148.12 473.646,146.872 475.566,144.952 L477.726,147.448 C475.374,149.944 472.206,151.528 468.366,151.528 C461.31,151.528 455.982,146.2 455.982,139.336 C455.982,132.52 461.214,127.096 467.934,127.096 C473.934,127.096 478.59,131.416 478.59,137.656 Z M467.838,130.456 C463.902,130.456 460.782,133.144 460.014,137.176 L474.798,137.176 C474.75,132.856 471.582,130.456 467.838,130.456 Z M494.466,127.096 C499.986,127.096 503.154,130.888 503.154,136.312 L503.154,151 L499.458,151 L499.458,136.744 C499.458,133.048 497.25,130.504 493.65,130.504 C490.05,130.504 487.506,133.096 487.506,136.744 L487.506,151 L483.81,151 L483.81,127.624 L487.266,127.624 L487.266,130.168 C488.898,128.248 491.442,127.096 494.466,127.096 Z M519.366,148.168 C520.278,148.168 521.286,148.072 522.486,147.88 L522.486,151 C521.286,151.288 520.086,151.528 518.598,151.528 C513.99,151.528 510.726,149.272 510.726,143.944 L510.726,130.936 L506.79,130.936 L506.79,127.624 L510.726,127.624 L510.726,121.24 L514.422,121.24 L514.422,127.624 L521.718,127.624 L521.718,130.936 L514.422,130.936 L514.422,143.704 C514.422,147.208 516.438,148.168 519.366,148.168 Z M545.982,127.096 C549.342,127.096 551.982,128.536 553.806,130.792 L551.55,133.096 C550.014,131.512 547.998,130.504 545.79,130.504 C543.582,130.504 541.902,131.512 541.902,133.432 C541.902,135.016 543.102,135.784 545.694,136.84 L547.854,137.752 C552.078,139.528 554.046,141.352 554.046,144.664 C554.046,149.224 550.158,151.528 545.838,151.528 C541.71,151.528 538.59,149.464 536.718,146.968 L539.07,144.52 C540.99,146.536 542.958,148.12 545.79,148.12 C548.238,148.12 550.254,146.92 550.254,144.808 C550.254,142.792 548.526,142.024 546.174,141.064 L543.918,140.104 C540.366,138.616 538.11,136.984 538.11,133.624 C538.11,129.4 541.71,127.096 545.982,127.096 Z M570.018,127.096 C576.786,127.096 582.258,132.424 582.258,139.288 C582.258,146.104 576.786,151.48 569.97,151.48 C563.202,151.432 557.778,146.152 557.778,139.288 C557.778,132.424 563.154,127.096 570.018,127.096 Z M570.018,130.504 C565.122,130.504 561.522,134.344 561.57,139.336 C561.57,144.28 565.122,148.072 569.97,148.072 C574.818,148.072 578.466,144.232 578.466,139.336 C578.466,134.296 574.818,130.504 570.018,130.504 Z M596.646,117.832 C593.766,117.832 591.75,118.792 591.75,122.296 L591.75,127.624 L597.606,127.624 L597.606,130.936 L591.75,130.936 L591.75,151 L588.054,151 L588.054,130.936 L584.694,130.936 L584.694,127.624 L588.054,127.624 L588.054,122.056 C588.054,116.728 591.27,114.472 595.782,114.472 C596.934,114.472 597.846,114.616 598.71,114.856 L598.71,117.976 C597.942,117.88 597.27,117.832 596.646,117.832 Z M609.21,148.168 C610.122,148.168 611.13,148.072 612.33,147.88 L612.33,151 C611.13,151.288 609.93,151.528 608.442,151.528 C603.834,151.528 600.57,149.272 600.57,143.944 L600.57,130.936 L596.634,130.936 L596.634,127.624 L600.57,127.624 L600.57,121.24 L604.266,121.24 L604.266,127.624 L611.562,127.624 L611.562,130.936 L604.266,130.936 L604.266,143.704 C604.266,147.208 606.282,148.168 609.21,148.168 Z M648.126,127.624 L652.062,127.624 L642.222,151.528 L640.878,151.528 L632.91,133.864 L624.99,151.528 L623.694,151.528 L613.758,127.624 L617.694,127.624 L624.414,144.904 L632.238,127.096 L633.63,127.096 L641.502,144.808 L648.126,127.624 Z M663.618,127.096 C668.946,127.096 672.738,130.312 672.738,136.6 L672.738,151 L669.282,151 L669.282,147.976 C667.602,150.232 664.866,151.528 661.41,151.528 C656.706,151.528 653.25,149.032 653.25,144.952 C653.25,141.016 656.562,138.424 661.65,138.424 L669.042,138.424 L669.042,136.408 C669.042,132.472 666.834,130.504 663.378,130.504 C660.45,130.504 658.386,131.896 656.562,134.248 L654.114,132.232 C656.322,128.68 659.874,127.096 663.618,127.096 Z M661.89,148.456 C665.73,148.456 669.042,145.672 669.042,142.024 L669.042,141.448 L662.082,141.448 C658.818,141.448 657.042,142.552 657.042,144.76 C657.042,147.256 659.298,148.456 661.89,148.456 Z M690.006,127.432 C690.774,127.432 691.254,127.528 691.734,127.624 L691.734,130.888 L690.342,130.888 C686.55,130.888 682.998,133.288 682.998,137.752 L682.998,151 L679.302,151 L679.302,127.624 L682.758,127.624 L682.758,130.984 C684.486,128.68 687.222,127.432 690.006,127.432 Z M715.866,137.656 C715.866,138.904 715.674,140.008 715.578,140.44 L697.146,140.44 C697.626,145.096 701.082,148.12 705.69,148.12 C708.618,148.12 710.922,146.872 712.842,144.952 L715.002,147.448 C712.65,149.944 709.482,151.528 705.642,151.528 C698.586,151.528 693.258,146.2 693.258,139.336 C693.258,132.52 698.49,127.096 705.21,127.096 C711.21,127.096 715.866,131.416 715.866,137.656 Z M705.114,130.456 C701.178,130.456 698.058,133.144 697.29,137.176 L712.074,137.176 C712.026,132.856 708.858,130.456 705.114,130.456 Z M742.914,148.168 C743.826,148.168 744.834,148.072 746.034,147.88 L746.034,151 C744.834,151.288 743.634,151.528 742.146,151.528 C737.538,151.528 734.274,149.272 734.274,143.944 L734.274,130.936 L730.338,130.936 L730.338,127.624 L734.274,127.624 L734.274,121.24 L737.97,121.24 L737.97,127.624 L745.266,127.624 L745.266,130.936 L737.97,130.936 L737.97,143.704 C737.97,147.208 739.986,148.168 742.914,148.168 Z M760.998,127.096 C766.47,127.096 769.638,130.888 769.638,136.312 L769.638,151 L765.942,151 L765.942,136.792 C765.942,133.096 763.734,130.504 760.134,130.504 C756.534,130.504 753.99,133.144 753.99,136.792 L753.99,151 L750.294,151 L750.294,115 L753.99,115 L753.99,130.264 C755.526,128.296 757.974,127.096 760.998,127.096 Z M784.602,127.096 C789.93,127.096 793.722,130.312 793.722,136.6 L793.722,151 L790.266,151 L790.266,147.976 C788.586,150.232 785.85,151.528 782.394,151.528 C777.69,151.528 774.234,149.032 774.234,144.952 C774.234,141.016 777.546,138.424 782.634,138.424 L790.026,138.424 L790.026,136.408 C790.026,132.472 787.818,130.504 784.362,130.504 C781.434,130.504 779.37,131.896 777.546,134.248 L775.098,132.232 C777.306,128.68 780.858,127.096 784.602,127.096 Z M782.874,148.456 C786.714,148.456 790.026,145.672 790.026,142.024 L790.026,141.448 L783.066,141.448 C779.802,141.448 778.026,142.552 778.026,144.76 C778.026,147.256 780.282,148.456 782.874,148.456 Z M809.934,148.168 C810.846,148.168 811.854,148.072 813.054,147.88 L813.054,151 C811.854,151.288 810.654,151.528 809.166,151.528 C804.558,151.528 801.294,149.272 801.294,143.944 L801.294,130.936 L797.358,130.936 L797.358,127.624 L801.294,127.624 L801.294,121.24 L804.99,121.24 L804.99,127.624 L812.286,127.624 L812.286,130.936 L804.99,130.936 L804.99,143.704 C804.99,147.208 807.006,148.168 809.934,148.168 Z M38.4239998,184.624 L41.9279998,184.624 L41.9279998,205.744 C41.9279998,212.944 37.3679998,217.168 30.5519998,217.168 C25.6559998,217.168 21.8639998,214.96 19.5599998,212.656 L21.7199998,210.064 C23.9759998,212.032 26.6159998,213.76 30.4559998,213.76 C35.2079998,213.76 38.2319998,211.12 38.2319998,205.936 L38.2319998,203.872 C36.3119998,206.32 33.0479998,207.76 29.5439998,207.76 C22.9679998,207.76 18.0719998,202.768 18.0719998,195.952 C18.0719998,189.184 22.9679998,184.096 29.5439998,184.096 C33.2399998,184.096 36.5999998,185.728 38.4239998,188.416 L38.4239998,184.624 Z M30.1199998,204.352 C34.1999998,204.352 38.2799998,201.808 38.2799998,195.952 C38.2799998,190.096 34.1519998,187.6 30.1199998,187.6 C25.3679998,187.6 21.8159998,191.056 21.8159998,196 C21.8159998,200.944 25.3679998,204.352 30.1199998,204.352 Z M50.6519998,173.008 C52.1399998,173.008 53.3879998,174.208 53.3879998,175.696 C53.3879998,177.232 52.1399998,178.384 50.6519998,178.384 C49.0679998,178.384 47.8679998,177.232 47.8679998,175.696 C47.8679998,174.208 49.0679998,173.008 50.6519998,173.008 Z M52.4759998,184.624 L52.4759998,208 L48.7799998,208 L48.7799998,184.624 L52.4759998,184.624 Z M75.9359998,184.624 L79.8719998,184.624 L68.8799998,208.528 L67.5359998,208.528 L56.4959998,184.624 L60.4319998,184.624 L68.2079998,202.24 L75.9359998,184.624 Z M103.908,194.656 C103.908,195.904 103.716,197.008 103.62,197.44 L85.1879998,197.44 C85.6679998,202.096 89.1239998,205.12 93.7319998,205.12 C96.6599998,205.12 98.9639998,203.872 100.884,201.952 L103.044,204.448 C100.692,206.944 97.5239998,208.528 93.6839998,208.528 C86.6279998,208.528 81.2999998,203.2 81.2999998,196.336 C81.2999998,189.52 86.5319998,184.096 93.2519998,184.096 C99.2519998,184.096 103.908,188.416 103.908,194.656 Z M93.1559998,187.456 C89.2199998,187.456 86.0999998,190.144 85.3319998,194.176 L100.116,194.176 C100.068,189.856 96.8999998,187.456 93.1559998,187.456 Z M116.184,184.096 C119.544,184.096 122.184,185.536 124.008,187.792 L121.752,190.096 C120.216,188.512 118.2,187.504 115.992,187.504 C113.784,187.504 112.104,188.512 112.104,190.432 C112.104,192.016 113.304,192.784 115.896,193.84 L118.056,194.752 C122.28,196.528 124.248,198.352 124.248,201.664 C124.248,206.224 120.36,208.528 116.04,208.528 C111.912,208.528 108.792,206.464 106.92,203.968 L109.272,201.52 C111.192,203.536 113.16,205.12 115.992,205.12 C118.44,205.12 120.456,203.92 120.456,201.808 C120.456,199.792 118.728,199.024 116.376,198.064 L114.12,197.104 C110.568,195.616 108.312,193.984 108.312,190.624 C108.312,186.4 111.912,184.096 116.184,184.096 Z M152.544,184.432 C153.312,184.432 153.792,184.528 154.272,184.624 L154.272,187.888 L152.88,187.888 C149.088,187.888 145.536,190.288 145.536,194.752 L145.536,208 L141.84,208 L141.84,184.624 L145.296,184.624 L145.296,187.984 C147.024,185.68 149.76,184.432 152.544,184.432 Z M178.404,194.656 C178.404,195.904 178.212,197.008 178.116,197.44 L159.684,197.44 C160.164,202.096 163.62,205.12 168.228,205.12 C171.156,205.12 173.46,203.872 175.38,201.952 L177.54,204.448 C175.188,206.944 172.02,208.528 168.18,208.528 C161.124,208.528 155.796,203.2 155.796,196.336 C155.796,189.52 161.028,184.096 167.748,184.096 C173.748,184.096 178.404,188.416 178.404,194.656 Z M167.652,187.456 C163.716,187.456 160.596,190.144 159.828,194.176 L174.612,194.176 C174.564,189.856 171.396,187.456 167.652,187.456 Z M190.68,184.096 C194.04,184.096 196.68,185.536 198.504,187.792 L196.248,190.096 C194.712,188.512 192.696,187.504 190.488,187.504 C188.28,187.504 186.6,188.512 186.6,190.432 C186.6,192.016 187.8,192.784 190.392,193.84 L192.552,194.752 C196.776,196.528 198.744,198.352 198.744,201.664 C198.744,206.224 194.856,208.528 190.536,208.528 C186.408,208.528 183.288,206.464 181.416,203.968 L183.768,201.52 C185.688,203.536 187.656,205.12 190.488,205.12 C192.936,205.12 194.952,203.92 194.952,201.808 C194.952,199.792 193.224,199.024 190.872,198.064 L188.616,197.104 C185.064,195.616 182.808,193.984 182.808,190.624 C182.808,186.4 186.408,184.096 190.68,184.096 Z M206.028,173.008 C207.516,173.008 208.764,174.208 208.764,175.696 C208.764,177.232 207.516,178.384 206.028,178.384 C204.444,178.384 203.244,177.232 203.244,175.696 C203.244,174.208 204.444,173.008 206.028,173.008 Z M207.852,184.624 L207.852,208 L204.156,208 L204.156,184.624 L207.852,184.624 Z M233.232,172 L236.928,172 L236.928,208 L233.424,208 L233.424,204.256 C231.6,206.944 228.288,208.528 224.592,208.528 C217.92,208.528 213.024,203.2 213.024,196.336 C213.024,189.424 217.92,184.096 224.592,184.096 C228.144,184.096 231.36,185.584 233.232,188.08 L233.232,172 Z M225.12,205.12 C229.152,205.12 233.28,202.48 233.28,196.336 C233.28,190.192 229.152,187.504 225.12,187.504 C220.368,187.504 216.816,191.2 216.816,196.288 C216.816,201.376 220.32,205.12 225.12,205.12 Z M264.708,194.656 C264.708,195.904 264.516,197.008 264.42,197.44 L245.988,197.44 C246.468,202.096 249.924,205.12 254.532,205.12 C257.46,205.12 259.764,203.872 261.684,201.952 L263.844,204.448 C261.492,206.944 258.324,208.528 254.484,208.528 C247.428,208.528 242.1,203.2 242.1,196.336 C242.1,189.52 247.332,184.096 254.052,184.096 C260.052,184.096 264.708,188.416 264.708,194.656 Z M253.956,187.456 C250.02,187.456 246.9,190.144 246.132,194.176 L260.916,194.176 C260.868,189.856 257.7,187.456 253.956,187.456 Z M280.584,184.096 C286.104,184.096 289.272,187.888 289.272,193.312 L289.272,208 L285.576,208 L285.576,193.744 C285.576,190.048 283.368,187.504 279.768,187.504 C276.168,187.504 273.624,190.096 273.624,193.744 L273.624,208 L269.928,208 L269.928,184.624 L273.384,184.624 L273.384,187.168 C275.016,185.248 277.56,184.096 280.584,184.096 Z M305.484,205.168 C306.396,205.168 307.404,205.072 308.604,204.88 L308.604,208 C307.404,208.288 306.204,208.528 304.716,208.528 C300.108,208.528 296.844,206.272 296.844,200.944 L296.844,187.936 L292.908,187.936 L292.908,184.624 L296.844,184.624 L296.844,178.24 L300.54,178.24 L300.54,184.624 L307.836,184.624 L307.836,187.936 L300.54,187.936 L300.54,200.704 C300.54,204.208 302.556,205.168 305.484,205.168 Z M319.92,184.096 C323.28,184.096 325.92,185.536 327.744,187.792 L325.488,190.096 C323.952,188.512 321.936,187.504 319.728,187.504 C317.52,187.504 315.84,188.512 315.84,190.432 C315.84,192.016 317.04,192.784 319.632,193.84 L321.792,194.752 C326.016,196.528 327.984,198.352 327.984,201.664 C327.984,206.224 324.096,208.528 319.776,208.528 C315.648,208.528 312.528,206.464 310.656,203.968 L313.008,201.52 C314.928,203.536 316.896,205.12 319.728,205.12 C322.176,205.12 324.192,203.92 324.192,201.808 C324.192,199.792 322.464,199.024 320.112,198.064 L317.856,197.104 C314.304,195.616 312.048,193.984 312.048,190.624 C312.048,186.4 315.648,184.096 319.92,184.096 Z M353.976,184.096 C359.304,184.096 363.096,187.312 363.096,193.6 L363.096,208 L359.64,208 L359.64,204.976 C357.96,207.232 355.224,208.528 351.768,208.528 C347.064,208.528 343.608,206.032 343.608,201.952 C343.608,198.016 346.92,195.424 352.008,195.424 L359.4,195.424 L359.4,193.408 C359.4,189.472 357.192,187.504 353.736,187.504 C350.808,187.504 348.744,188.896 346.92,191.248 L344.472,189.232 C346.68,185.68 350.232,184.096 353.976,184.096 Z M352.248,205.456 C356.088,205.456 359.4,202.672 359.4,199.024 L359.4,198.448 L352.44,198.448 C349.176,198.448 347.4,199.552 347.4,201.76 C347.4,204.256 349.656,205.456 352.248,205.456 Z M380.316,184.096 C385.836,184.096 389.004,187.888 389.004,193.312 L389.004,208 L385.308,208 L385.308,193.744 C385.308,190.048 383.1,187.504 379.5,187.504 C375.9,187.504 373.356,190.096 373.356,193.744 L373.356,208 L369.66,208 L369.66,184.624 L373.116,184.624 L373.116,187.168 C374.748,185.248 377.292,184.096 380.316,184.096 Z M414.096,172 L417.792,172 L417.792,208 L414.288,208 L414.288,204.256 C412.464,206.944 409.152,208.528 405.456,208.528 C398.784,208.528 393.888,203.2 393.888,196.336 C393.888,189.424 398.784,184.096 405.456,184.096 C409.008,184.096 412.224,185.584 414.096,188.08 L414.096,172 Z M405.984,205.12 C410.016,205.12 414.144,202.48 414.144,196.336 C414.144,190.192 410.016,187.504 405.984,187.504 C401.232,187.504 397.68,191.2 397.68,196.288 C397.68,201.376 401.184,205.12 405.984,205.12 Z M443.88,184.096 C447.24,184.096 449.88,185.536 451.704,187.792 L449.448,190.096 C447.912,188.512 445.896,187.504 443.688,187.504 C441.48,187.504 439.8,188.512 439.8,190.432 C439.8,192.016 441,192.784 443.592,193.84 L445.752,194.752 C449.976,196.528 451.944,198.352 451.944,201.664 C451.944,206.224 448.056,208.528 443.736,208.528 C439.608,208.528 436.488,206.464 434.616,203.968 L436.968,201.52 C438.888,203.536 440.856,205.12 443.688,205.12 C446.136,205.12 448.152,203.92 448.152,201.808 C448.152,199.792 446.424,199.024 444.072,198.064 L441.816,197.104 C438.264,195.616 436.008,193.984 436.008,190.624 C436.008,186.4 439.608,184.096 443.88,184.096 Z M467.004,205.168 C467.916,205.168 468.924,205.072 470.124,204.88 L470.124,208 C468.924,208.288 467.724,208.528 466.236,208.528 C461.628,208.528 458.364,206.272 458.364,200.944 L458.364,187.936 L454.428,187.936 L454.428,184.624 L458.364,184.624 L458.364,178.24 L462.06,178.24 L462.06,184.624 L469.356,184.624 L469.356,187.936 L462.06,187.936 L462.06,200.704 C462.06,204.208 464.076,205.168 467.004,205.168 Z M482.784,184.096 C488.112,184.096 491.904,187.312 491.904,193.6 L491.904,208 L488.448,208 L488.448,204.976 C486.768,207.232 484.032,208.528 480.576,208.528 C475.872,208.528 472.416,206.032 472.416,201.952 C472.416,198.016 475.728,195.424 480.816,195.424 L488.208,195.424 L488.208,193.408 C488.208,189.472 486,187.504 482.544,187.504 C479.616,187.504 477.552,188.896 475.728,191.248 L473.28,189.232 C475.488,185.68 479.04,184.096 482.784,184.096 Z M481.056,205.456 C484.896,205.456 488.208,202.672 488.208,199.024 L488.208,198.448 L481.248,198.448 C477.984,198.448 476.208,199.552 476.208,201.76 C476.208,204.256 478.464,205.456 481.056,205.456 Z M507.636,174.832 C504.756,174.832 502.74,175.792 502.74,179.296 L502.74,184.624 L508.596,184.624 L508.596,187.936 L502.74,187.936 L502.74,208 L499.044,208 L499.044,187.936 L495.684,187.936 L495.684,184.624 L499.044,184.624 L499.044,179.056 C499.044,173.728 502.26,171.472 506.772,171.472 C507.924,171.472 508.836,171.616 509.7,171.856 L509.7,174.976 C508.932,174.88 508.26,174.832 507.636,174.832 Z M519.48,174.832 C516.6,174.832 514.584,175.792 514.584,179.296 L514.584,184.624 L520.44,184.624 L520.44,187.936 L514.584,187.936 L514.584,208 L510.888,208 L510.888,187.936 L507.528,187.936 L507.528,184.624 L510.888,184.624 L510.888,179.056 C510.888,173.728 514.104,171.472 518.616,171.472 C519.768,171.472 520.68,171.616 521.544,171.856 L521.544,174.976 C520.776,174.88 520.104,174.832 519.48,174.832 Z M542.736,184.096 C548.064,184.096 551.856,187.312 551.856,193.6 L551.856,208 L548.4,208 L548.4,204.976 C546.72,207.232 543.984,208.528 540.528,208.528 C535.824,208.528 532.368,206.032 532.368,201.952 C532.368,198.016 535.68,195.424 540.768,195.424 L548.16,195.424 L548.16,193.408 C548.16,189.472 545.952,187.504 542.496,187.504 C539.568,187.504 537.504,188.896 535.68,191.248 L533.232,189.232 C535.44,185.68 538.992,184.096 542.736,184.096 Z M541.008,205.456 C544.848,205.456 548.16,202.672 548.16,199.024 L548.16,198.448 L541.2,198.448 C537.936,198.448 536.16,199.552 536.16,201.76 C536.16,204.256 538.416,205.456 541.008,205.456 Z M569.076,184.096 C574.596,184.096 577.764,187.888 577.764,193.312 L577.764,208 L574.068,208 L574.068,193.744 C574.068,190.048 571.86,187.504 568.26,187.504 C564.66,187.504 562.116,190.096 562.116,193.744 L562.116,208 L558.42,208 L558.42,184.624 L561.876,184.624 L561.876,187.168 C563.508,185.248 566.052,184.096 569.076,184.096 Z M617.436,194.656 C617.436,195.904 617.244,197.008 617.148,197.44 L598.716,197.44 C599.196,202.096 602.652,205.12 607.26,205.12 C610.188,205.12 612.492,203.872 614.412,201.952 L616.572,204.448 C614.22,206.944 611.052,208.528 607.212,208.528 C600.156,208.528 594.828,203.2 594.828,196.336 C594.828,189.52 600.06,184.096 606.78,184.096 C612.78,184.096 617.436,188.416 617.436,194.656 Z M606.684,187.456 C602.748,187.456 599.628,190.144 598.86,194.176 L613.644,194.176 C613.596,189.856 610.428,187.456 606.684,187.456 Z M631.056,184.096 C636.384,184.096 640.176,187.312 640.176,193.6 L640.176,208 L636.72,208 L636.72,204.976 C635.04,207.232 632.304,208.528 628.848,208.528 C624.144,208.528 620.688,206.032 620.688,201.952 C620.688,198.016 624,195.424 629.088,195.424 L636.48,195.424 L636.48,193.408 C636.48,189.472 634.272,187.504 630.816,187.504 C627.888,187.504 625.824,188.896 624,191.248 L621.552,189.232 C623.76,185.68 627.312,184.096 631.056,184.096 Z M629.328,205.456 C633.168,205.456 636.48,202.672 636.48,199.024 L636.48,198.448 L629.52,198.448 C626.256,198.448 624.48,199.552 624.48,201.76 C624.48,204.256 626.736,205.456 629.328,205.456 Z M653.796,184.096 C657.156,184.096 659.796,185.536 661.62,187.792 L659.364,190.096 C657.828,188.512 655.812,187.504 653.604,187.504 C651.396,187.504 649.716,188.512 649.716,190.432 C649.716,192.016 650.916,192.784 653.508,193.84 L655.668,194.752 C659.892,196.528 661.86,198.352 661.86,201.664 C661.86,206.224 657.972,208.528 653.652,208.528 C649.524,208.528 646.404,206.464 644.532,203.968 L646.884,201.52 C648.804,203.536 650.772,205.12 653.604,205.12 C656.052,205.12 658.068,203.92 658.068,201.808 C658.068,199.792 656.34,199.024 653.988,198.064 L651.732,197.104 C648.18,195.616 645.924,193.984 645.924,190.624 C645.924,186.4 649.524,184.096 653.796,184.096 Z M683.88,184.624 L687.816,184.624 L676.296,211.264 C674.472,215.44 671.928,217.168 668.376,217.168 C667.224,217.168 665.88,216.976 664.776,216.688 L664.776,213.568 C665.88,213.712 666.792,213.808 667.608,213.808 C669.864,213.808 671.592,213.04 672.888,210.064 L674.136,207.232 L664.44,184.624 L668.424,184.624 L676.152,203.248 L683.88,184.624 Z M734.16,184.624 L738.096,184.624 L728.256,208.528 L726.912,208.528 L718.944,190.864 L711.024,208.528 L709.728,208.528 L699.792,184.624 L703.728,184.624 L710.448,201.904 L718.272,184.096 L719.664,184.096 L727.536,201.808 L734.16,184.624 Z M749.652,184.096 C754.98,184.096 758.772,187.312 758.772,193.6 L758.772,208 L755.316,208 L755.316,204.976 C753.636,207.232 750.9,208.528 747.444,208.528 C742.74,208.528 739.284,206.032 739.284,201.952 C739.284,198.016 742.596,195.424 747.684,195.424 L755.076,195.424 L755.076,193.408 C755.076,189.472 752.868,187.504 749.412,187.504 C746.484,187.504 744.42,188.896 742.596,191.248 L740.148,189.232 C742.356,185.68 745.908,184.096 749.652,184.096 Z M747.924,205.456 C751.764,205.456 755.076,202.672 755.076,199.024 L755.076,198.448 L748.116,198.448 C744.852,198.448 743.076,199.552 743.076,201.76 C743.076,204.256 745.332,205.456 747.924,205.456 Z M781.944,184.624 L785.88,184.624 L774.36,211.264 C772.536,215.44 769.992,217.168 766.44,217.168 C765.288,217.168 763.944,216.976 762.84,216.688 L762.84,213.568 C763.944,213.712 764.856,213.808 765.672,213.808 C767.928,213.808 769.656,213.04 770.952,210.064 L772.2,207.232 L762.504,184.624 L766.488,184.624 L774.216,203.248 L781.944,184.624 Z M811.776,205.168 C812.688,205.168 813.696,205.072 814.896,204.88 L814.896,208 C813.696,208.288 812.496,208.528 811.008,208.528 C806.4,208.528 803.136,206.272 803.136,200.944 L803.136,187.936 L799.2,187.936 L799.2,184.624 L803.136,184.624 L803.136,178.24 L806.832,178.24 L806.832,184.624 L814.128,184.624 L814.128,187.936 L806.832,187.936 L806.832,200.704 C806.832,204.208 808.848,205.168 811.776,205.168 Z M829.236,184.096 C836.004,184.096 841.476,189.424 841.476,196.288 C841.476,203.104 836.004,208.48 829.188,208.48 C822.42,208.432 816.996,203.152 816.996,196.288 C816.996,189.424 822.372,184.096 829.236,184.096 Z M829.236,187.504 C824.34,187.504 820.74,191.344 820.788,196.336 C820.788,201.28 824.34,205.072 829.188,205.072 C834.036,205.072 837.684,201.232 837.684,196.336 C837.684,191.296 834.036,187.504 829.236,187.504 Z M69.8939998,241.096 C74.1179998,241.096 77.4779998,243.112 79.5419998,246.184 L76.9019998,248.296 C75.1739998,245.992 72.9659998,244.504 69.9419998,244.504 C65.0459998,244.504 61.4459998,248.392 61.4459998,253.288 C61.4459998,258.232 65.0459998,262.12 69.9419998,262.12 C72.9179998,262.12 75.1259998,260.68 76.8539998,258.376 L79.4939998,260.44 C77.4299998,263.512 74.0699998,265.528 69.8939998,265.528 C63.0779998,265.528 57.6539998,260.152 57.6539998,253.288 C57.6539998,246.472 63.0779998,241.096 69.8939998,241.096 Z M94.6019999,241.096 C101.37,241.096 106.842,246.424 106.842,253.288 C106.842,260.104 101.37,265.48 94.5539999,265.48 C87.7859999,265.432 82.3619999,260.152 82.3619999,253.288 C82.3619999,246.424 87.7379999,241.096 94.6019999,241.096 Z M94.6019999,244.504 C89.7059999,244.504 86.1059999,248.344 86.1539999,253.336 C86.1539999,258.28 89.7059999,262.072 94.5539999,262.072 C99.4019999,262.072 103.05,258.232 103.05,253.336 C103.05,248.296 99.4019999,244.504 94.6019999,244.504 Z M137.694,241.096 C143.166,241.096 146.19,244.888 146.19,250.312 L146.19,265 L142.494,265 L142.494,250.792 C142.494,247.096 140.478,244.504 136.974,244.504 C133.422,244.504 130.974,247.192 130.974,250.456 L130.974,265 L127.278,265 L127.278,250.792 C127.278,247.096 125.166,244.504 121.71,244.504 C118.158,244.504 115.758,247.096 115.758,250.792 L115.758,265 L112.062,265 L112.062,241.624 L115.518,241.624 L115.518,244.072 C117.15,242.2 119.55,241.096 122.478,241.096 C125.982,241.096 128.382,242.68 129.678,245.128 C131.31,242.776 134.094,241.096 137.694,241.096 Z M178.386,241.096 C183.858,241.096 186.882,244.888 186.882,250.312 L186.882,265 L183.186,265 L183.186,250.792 C183.186,247.096 181.17,244.504 177.666,244.504 C174.114,244.504 171.666,247.192 171.666,250.456 L171.666,265 L167.97,265 L167.97,250.792 C167.97,247.096 165.858,244.504 162.402,244.504 C158.85,244.504 156.45,247.096 156.45,250.792 L156.45,265 L152.754,265 L152.754,241.624 L156.21,241.624 L156.21,244.072 C157.842,242.2 160.242,241.096 163.17,241.096 C166.674,241.096 169.074,242.68 170.37,245.128 C172.002,242.776 174.786,241.096 178.386,241.096 Z M212.502,241.624 L212.502,255.688 C212.502,261.688 208.23,265.528 202.854,265.528 C197.382,265.528 193.158,261.688 193.158,255.688 L193.158,241.624 L196.806,241.624 L196.806,255.928 C196.806,259.768 199.494,262.12 202.854,262.12 C206.118,262.12 208.806,259.768 208.806,255.928 L208.806,241.624 L212.502,241.624 Z M229.722,241.096 C235.242,241.096 238.41,244.888 238.41,250.312 L238.41,265 L234.714,265 L234.714,250.744 C234.714,247.048 232.506,244.504 228.906,244.504 C225.306,244.504 222.762,247.096 222.762,250.744 L222.762,265 L219.066,265 L219.066,241.624 L222.522,241.624 L222.522,244.168 C224.154,242.248 226.698,241.096 229.722,241.096 Z M246.846,230.008 C248.334,230.008 249.582,231.208 249.582,232.696 C249.582,234.232 248.334,235.384 246.846,235.384 C245.262,235.384 244.062,234.232 244.062,232.696 C244.062,231.208 245.262,230.008 246.846,230.008 Z M248.67,241.624 L248.67,265 L244.974,265 L244.974,241.624 L248.67,241.624 Z M266.082,241.096 C270.306,241.096 273.666,243.112 275.73,246.184 L273.09,248.296 C271.362,245.992 269.154,244.504 266.13,244.504 C261.234,244.504 257.634,248.392 257.634,253.288 C257.634,258.232 261.234,262.12 266.13,262.12 C269.106,262.12 271.314,260.68 273.042,258.376 L275.682,260.44 C273.618,263.512 270.258,265.528 266.082,265.528 C259.266,265.528 253.842,260.152 253.842,253.288 C253.842,246.472 259.266,241.096 266.082,241.096 Z M289.11,241.096 C294.438,241.096 298.23,244.312 298.23,250.6 L298.23,265 L294.774,265 L294.774,261.976 C293.094,264.232 290.358,265.528 286.902,265.528 C282.198,265.528 278.742,263.032 278.742,258.952 C278.742,255.016 282.054,252.424 287.142,252.424 L294.534,252.424 L294.534,250.408 C294.534,246.472 292.326,244.504 288.87,244.504 C285.942,244.504 283.878,245.896 282.054,248.248 L279.606,246.232 C281.814,242.68 285.366,241.096 289.11,241.096 Z M287.382,262.456 C291.222,262.456 294.534,259.672 294.534,256.024 L294.534,255.448 L287.574,255.448 C284.31,255.448 282.534,256.552 282.534,258.76 C282.534,261.256 284.79,262.456 287.382,262.456 Z M314.442,262.168 C315.354,262.168 316.362,262.072 317.562,261.88 L317.562,265 C316.362,265.288 315.162,265.528 313.674,265.528 C309.066,265.528 305.802,263.272 305.802,257.944 L305.802,244.936 L301.866,244.936 L301.866,241.624 L305.802,241.624 L305.802,235.24 L309.498,235.24 L309.498,241.624 L316.794,241.624 L316.794,244.936 L309.498,244.936 L309.498,257.704 C309.498,261.208 311.514,262.168 314.442,262.168 Z M342.27,251.656 C342.27,252.904 342.078,254.008 341.982,254.44 L323.55,254.44 C324.03,259.096 327.486,262.12 332.094,262.12 C335.022,262.12 337.326,260.872 339.246,258.952 L341.406,261.448 C339.054,263.944 335.886,265.528 332.046,265.528 C324.99,265.528 319.662,260.2 319.662,253.336 C319.662,246.52 324.894,241.096 331.614,241.096 C337.614,241.096 342.27,245.416 342.27,251.656 Z M331.518,244.456 C327.582,244.456 324.462,247.144 323.694,251.176 L338.478,251.176 C338.43,246.856 335.262,244.456 331.518,244.456 Z M368.07,241.096 C373.398,241.096 377.19,244.312 377.19,250.6 L377.19,265 L373.734,265 L373.734,261.976 C372.054,264.232 369.318,265.528 365.862,265.528 C361.158,265.528 357.702,263.032 357.702,258.952 C357.702,255.016 361.014,252.424 366.102,252.424 L373.494,252.424 L373.494,250.408 C373.494,246.472 371.286,244.504 367.83,244.504 C364.902,244.504 362.838,245.896 361.014,248.248 L358.566,246.232 C360.774,242.68 364.326,241.096 368.07,241.096 Z M366.342,262.456 C370.182,262.456 373.494,259.672 373.494,256.024 L373.494,255.448 L366.534,255.448 C363.27,255.448 361.494,256.552 361.494,258.76 C361.494,261.256 363.75,262.456 366.342,262.456 Z M396.042,241.096 C402.714,241.096 407.61,246.424 407.61,253.336 C407.61,260.2 402.762,265.528 396.09,265.528 C392.442,265.528 389.034,263.944 387.21,261.256 L387.21,265 L383.754,265 L383.754,229 L387.45,229 L387.45,245.08 C389.274,242.632 392.49,241.096 396.042,241.096 Z M395.514,262.12 C400.314,262.12 403.818,258.376 403.818,253.288 C403.818,248.2 400.266,244.504 395.514,244.504 C391.434,244.504 387.402,247.192 387.402,253.336 C387.402,259.48 391.482,262.12 395.514,262.12 Z M423.39,241.096 C430.158,241.096 435.63,246.424 435.63,253.288 C435.63,260.104 430.158,265.48 423.342,265.48 C416.574,265.432 411.15,260.152 411.15,253.288 C411.15,246.424 416.526,241.096 423.39,241.096 Z M423.39,244.504 C418.494,244.504 414.894,248.344 414.942,253.336 C414.942,258.28 418.494,262.072 423.342,262.072 C428.19,262.072 431.838,258.232 431.838,253.336 C431.838,248.296 428.19,244.504 423.39,244.504 Z M459.906,241.624 L459.906,255.688 C459.906,261.688 455.634,265.528 450.258,265.528 C444.786,265.528 440.562,261.688 440.562,255.688 L440.562,241.624 L444.21,241.624 L444.21,255.928 C444.21,259.768 446.898,262.12 450.258,262.12 C453.522,262.12 456.21,259.768 456.21,255.928 L456.21,241.624 L459.906,241.624 Z M476.118,262.168 C477.03,262.168 478.038,262.072 479.238,261.88 L479.238,265 C478.038,265.288 476.838,265.528 475.35,265.528 C470.742,265.528 467.478,263.272 467.478,257.944 L467.478,244.936 L463.542,244.936 L463.542,241.624 L467.478,241.624 L467.478,235.24 L471.174,235.24 L471.174,241.624 L478.47,241.624 L478.47,244.936 L471.174,244.936 L471.174,257.704 C471.174,261.208 473.19,262.168 476.118,262.168 Z M516.606,251.656 C516.606,252.904 516.414,254.008 516.318,254.44 L497.886,254.44 C498.366,259.096 501.822,262.12 506.43,262.12 C509.358,262.12 511.662,260.872 513.582,258.952 L515.742,261.448 C513.39,263.944 510.222,265.528 506.382,265.528 C499.326,265.528 493.998,260.2 493.998,253.336 C493.998,246.52 499.23,241.096 505.95,241.096 C511.95,241.096 516.606,245.416 516.606,251.656 Z M505.854,244.456 C501.918,244.456 498.798,247.144 498.03,251.176 L512.814,251.176 C512.766,246.856 509.598,244.456 505.854,244.456 Z M537.474,241.624 L541.41,241.624 L530.418,265.528 L529.074,265.528 L518.034,241.624 L521.97,241.624 L529.746,259.24 L537.474,241.624 Z M565.446,251.656 C565.446,252.904 565.254,254.008 565.158,254.44 L546.726,254.44 C547.206,259.096 550.662,262.12 555.27,262.12 C558.198,262.12 560.502,260.872 562.422,258.952 L564.582,261.448 C562.23,263.944 559.062,265.528 555.222,265.528 C548.166,265.528 542.838,260.2 542.838,253.336 C542.838,246.52 548.07,241.096 554.79,241.096 C560.79,241.096 565.446,245.416 565.446,251.656 Z M554.694,244.456 C550.758,244.456 547.638,247.144 546.87,251.176 L561.654,251.176 C561.606,246.856 558.438,244.456 554.694,244.456 Z M581.322,241.096 C586.842,241.096 590.01,244.888 590.01,250.312 L590.01,265 L586.314,265 L586.314,250.744 C586.314,247.048 584.106,244.504 580.506,244.504 C576.906,244.504 574.362,247.096 574.362,250.744 L574.362,265 L570.666,265 L570.666,241.624 L574.122,241.624 L574.122,244.168 C575.754,242.248 578.298,241.096 581.322,241.096 Z M606.222,262.168 C607.134,262.168 608.142,262.072 609.342,261.88 L609.342,265 C608.142,265.288 606.942,265.528 605.454,265.528 C600.846,265.528 597.582,263.272 597.582,257.944 L597.582,244.936 L593.646,244.936 L593.646,241.624 L597.582,241.624 L597.582,235.24 L601.278,235.24 L601.278,241.624 L608.574,241.624 L608.574,244.936 L601.278,244.936 L601.278,257.704 C601.278,261.208 603.294,262.168 606.222,262.168 Z M620.658,241.096 C624.018,241.096 626.658,242.536 628.482,244.792 L626.226,247.096 C624.69,245.512 622.674,244.504 620.466,244.504 C618.258,244.504 616.578,245.512 616.578,247.432 C616.578,249.016 617.778,249.784 620.37,250.84 L622.53,251.752 C626.754,253.528 628.722,255.352 628.722,258.664 C628.722,263.224 624.834,265.528 620.514,265.528 C616.386,265.528 613.266,263.464 611.394,260.968 L613.746,258.52 C615.666,260.536 617.634,262.12 620.466,262.12 C622.914,262.12 624.93,260.92 624.93,258.808 C624.93,256.792 623.202,256.024 620.85,255.064 L618.594,254.104 C615.042,252.616 612.786,250.984 612.786,247.624 C612.786,243.4 616.386,241.096 620.658,241.096 Z M639.126,260.68 L637.158,273.592 L634.134,273.592 L634.758,260.68 L639.126,260.68 Z M665.07,241.096 C668.43,241.096 671.07,242.536 672.894,244.792 L670.638,247.096 C669.102,245.512 667.086,244.504 664.878,244.504 C662.67,244.504 660.99,245.512 660.99,247.432 C660.99,249.016 662.19,249.784 664.782,250.84 L666.942,251.752 C671.166,253.528 673.134,255.352 673.134,258.664 C673.134,263.224 669.246,265.528 664.926,265.528 C660.798,265.528 657.678,263.464 655.806,260.968 L658.158,258.52 C660.078,260.536 662.046,262.12 664.878,262.12 C667.326,262.12 669.342,260.92 669.342,258.808 C669.342,256.792 667.614,256.024 665.262,255.064 L663.006,254.104 C659.454,252.616 657.198,250.984 657.198,247.624 C657.198,243.4 660.798,241.096 665.07,241.096 Z M699.474,251.656 C699.474,252.904 699.282,254.008 699.186,254.44 L680.754,254.44 C681.234,259.096 684.69,262.12 689.298,262.12 C692.226,262.12 694.53,260.872 696.45,258.952 L698.61,261.448 C696.258,263.944 693.09,265.528 689.25,265.528 C682.194,265.528 676.866,260.2 676.866,253.336 C676.866,246.52 682.098,241.096 688.818,241.096 C694.818,241.096 699.474,245.416 699.474,251.656 Z M688.722,244.456 C684.786,244.456 681.666,247.144 680.898,251.176 L695.682,251.176 C695.634,246.856 692.466,244.456 688.722,244.456 Z M715.398,241.432 C716.166,241.432 716.646,241.528 717.126,241.624 L717.126,244.888 L715.734,244.888 C711.942,244.888 708.39,247.288 708.39,251.752 L708.39,265 L704.694,265 L704.694,241.624 L708.15,241.624 L708.15,244.984 C709.878,242.68 712.614,241.432 715.398,241.432 Z M737.418,241.624 L741.354,241.624 L730.362,265.528 L729.018,265.528 L717.978,241.624 L721.914,241.624 L729.69,259.24 L737.418,241.624 Z M747.294,230.008 C748.782,230.008 750.03,231.208 750.03,232.696 C750.03,234.232 748.782,235.384 747.294,235.384 C745.71,235.384 744.51,234.232 744.51,232.696 C744.51,231.208 745.71,230.008 747.294,230.008 Z M749.118,241.624 L749.118,265 L745.422,265 L745.422,241.624 L749.118,241.624 Z M766.53,241.096 C770.754,241.096 774.114,243.112 776.178,246.184 L773.538,248.296 C771.81,245.992 769.602,244.504 766.578,244.504 C761.682,244.504 758.082,248.392 758.082,253.288 C758.082,258.232 761.682,262.12 766.578,262.12 C769.554,262.12 771.762,260.68 773.49,258.376 L776.13,260.44 C774.066,263.512 770.706,265.528 766.53,265.528 C759.714,265.528 754.29,260.152 754.29,253.288 C754.29,246.472 759.714,241.096 766.53,241.096 Z M801.606,251.656 C801.606,252.904 801.414,254.008 801.318,254.44 L782.886,254.44 C783.366,259.096 786.822,262.12 791.43,262.12 C794.358,262.12 796.662,260.872 798.582,258.952 L800.742,261.448 C798.39,263.944 795.222,265.528 791.382,265.528 C784.326,265.528 778.998,260.2 778.998,253.336 C778.998,246.52 784.23,241.096 790.95,241.096 C796.95,241.096 801.606,245.416 801.606,251.656 Z M790.854,244.456 C786.918,244.456 783.798,247.144 783.03,251.176 L797.814,251.176 C797.766,246.856 794.598,244.456 790.854,244.456 Z M179.886,298.432 C180.654,298.432 181.134,298.528 181.614,298.624 L181.614,301.888 L180.222,301.888 C176.43,301.888 172.878,304.288 172.878,308.752 L172.878,322 L169.182,322 L169.182,298.624 L172.638,298.624 L172.638,301.984 C174.366,299.68 177.102,298.432 179.886,298.432 Z M205.746,308.656 C205.746,309.904 205.554,311.008 205.458,311.44 L187.026,311.44 C187.506,316.096 190.962,319.12 195.57,319.12 C198.498,319.12 200.802,317.872 202.722,315.952 L204.882,318.448 C202.53,320.944 199.362,322.528 195.522,322.528 C188.466,322.528 183.138,317.2 183.138,310.336 C183.138,303.52 188.37,298.096 195.09,298.096 C201.09,298.096 205.746,302.416 205.746,308.656 Z M194.994,301.456 C191.058,301.456 187.938,304.144 187.17,308.176 L201.954,308.176 C201.906,303.856 198.738,301.456 194.994,301.456 Z M229.686,298.624 L233.19,298.624 L233.19,330.64 L229.494,330.64 L229.494,318.592 C227.574,321.088 224.31,322.528 220.854,322.528 C214.182,322.528 209.286,317.2 209.286,310.288 C209.286,303.424 214.182,298.096 220.854,298.096 C224.55,298.096 227.862,299.728 229.686,302.368 L229.686,298.624 Z M221.382,319.12 C225.414,319.12 229.542,316.432 229.542,310.288 C229.542,304.144 225.414,301.504 221.382,301.504 C216.582,301.504 213.078,305.296 213.078,310.336 C213.078,315.424 216.63,319.12 221.382,319.12 Z M259.098,298.624 L259.098,312.688 C259.098,318.688 254.826,322.528 249.45,322.528 C243.978,322.528 239.754,318.688 239.754,312.688 L239.754,298.624 L243.402,298.624 L243.402,312.928 C243.402,316.768 246.09,319.12 249.45,319.12 C252.714,319.12 255.402,316.768 255.402,312.928 L255.402,298.624 L259.098,298.624 Z M286.59,308.656 C286.59,309.904 286.398,311.008 286.302,311.44 L267.87,311.44 C268.35,316.096 271.806,319.12 276.414,319.12 C279.342,319.12 281.646,317.872 283.566,315.952 L285.726,318.448 C283.374,320.944 280.206,322.528 276.366,322.528 C269.31,322.528 263.982,317.2 263.982,310.336 C263.982,303.52 269.214,298.096 275.934,298.096 C281.934,298.096 286.59,302.416 286.59,308.656 Z M275.838,301.456 C271.902,301.456 268.782,304.144 268.014,308.176 L282.798,308.176 C282.75,303.856 279.582,301.456 275.838,301.456 Z M298.866,298.096 C302.226,298.096 304.866,299.536 306.69,301.792 L304.434,304.096 C302.898,302.512 300.882,301.504 298.674,301.504 C296.466,301.504 294.786,302.512 294.786,304.432 C294.786,306.016 295.986,306.784 298.578,307.84 L300.738,308.752 C304.962,310.528 306.93,312.352 306.93,315.664 C306.93,320.224 303.042,322.528 298.722,322.528 C294.594,322.528 291.474,320.464 289.602,317.968 L291.954,315.52 C293.874,317.536 295.842,319.12 298.674,319.12 C301.122,319.12 303.138,317.92 303.138,315.808 C303.138,313.792 301.41,313.024 299.058,312.064 L296.802,311.104 C293.25,309.616 290.994,307.984 290.994,304.624 C290.994,300.4 294.594,298.096 298.866,298.096 Z M321.99,319.168 C322.902,319.168 323.91,319.072 325.11,318.88 L325.11,322 C323.91,322.288 322.71,322.528 321.222,322.528 C316.614,322.528 313.35,320.272 313.35,314.944 L313.35,301.936 L309.414,301.936 L309.414,298.624 L313.35,298.624 L313.35,292.24 L317.046,292.24 L317.046,298.624 L324.342,298.624 L324.342,301.936 L317.046,301.936 L317.046,314.704 C317.046,318.208 319.062,319.168 321.99,319.168 Z M336.426,298.096 C339.786,298.096 342.426,299.536 344.25,301.792 L341.994,304.096 C340.458,302.512 338.442,301.504 336.234,301.504 C334.026,301.504 332.346,302.512 332.346,304.432 C332.346,306.016 333.546,306.784 336.138,307.84 L338.298,308.752 C342.522,310.528 344.49,312.352 344.49,315.664 C344.49,320.224 340.602,322.528 336.282,322.528 C332.154,322.528 329.034,320.464 327.162,317.968 L329.514,315.52 C331.434,317.536 333.402,319.12 336.234,319.12 C338.682,319.12 340.698,317.92 340.698,315.808 C340.698,313.792 338.97,313.024 336.618,312.064 L334.362,311.104 C330.81,309.616 328.554,307.984 328.554,304.624 C328.554,300.4 332.154,298.096 336.426,298.096 Z M354.894,317.68 L352.926,330.592 L349.902,330.592 L350.526,317.68 L354.894,317.68 Z M399.414,298.096 C404.886,298.096 407.91,301.888 407.91,307.312 L407.91,322 L404.214,322 L404.214,307.792 C404.214,304.096 402.198,301.504 398.694,301.504 C395.142,301.504 392.694,304.192 392.694,307.456 L392.694,322 L388.998,322 L388.998,307.792 C388.998,304.096 386.886,301.504 383.43,301.504 C379.878,301.504 377.478,304.096 377.478,307.792 L377.478,322 L373.782,322 L373.782,298.624 L377.238,298.624 L377.238,301.072 C378.87,299.2 381.27,298.096 384.198,298.096 C387.702,298.096 390.102,299.68 391.398,302.128 C393.03,299.776 395.814,298.096 399.414,298.096 Z M422.874,298.096 C428.202,298.096 431.994,301.312 431.994,307.6 L431.994,322 L428.538,322 L428.538,318.976 C426.858,321.232 424.122,322.528 420.666,322.528 C415.962,322.528 412.506,320.032 412.506,315.952 C412.506,312.016 415.818,309.424 420.906,309.424 L428.298,309.424 L428.298,307.408 C428.298,303.472 426.09,301.504 422.634,301.504 C419.706,301.504 417.642,302.896 415.818,305.248 L413.37,303.232 C415.578,299.68 419.13,298.096 422.874,298.096 Z M421.146,319.456 C424.986,319.456 428.298,316.672 428.298,313.024 L428.298,312.448 L421.338,312.448 C418.074,312.448 416.298,313.552 416.298,315.76 C416.298,318.256 418.554,319.456 421.146,319.456 Z M440.43,287.008 C441.918,287.008 443.166,288.208 443.166,289.696 C443.166,291.232 441.918,292.384 440.43,292.384 C438.846,292.384 437.646,291.232 437.646,289.696 C437.646,288.208 438.846,287.008 440.43,287.008 Z M442.254,298.624 L442.254,322 L438.558,322 L438.558,298.624 L442.254,298.624 Z M452.802,286 L452.802,322 L449.106,322 L449.106,286 L452.802,286 Z M464.646,317.68 L462.678,330.592 L459.654,330.592 L460.278,317.68 L464.646,317.68 Z M491.934,298.096 C497.262,298.096 501.054,301.312 501.054,307.6 L501.054,322 L497.598,322 L497.598,318.976 C495.918,321.232 493.182,322.528 489.726,322.528 C485.022,322.528 481.566,320.032 481.566,315.952 C481.566,312.016 484.878,309.424 489.966,309.424 L497.358,309.424 L497.358,307.408 C497.358,303.472 495.15,301.504 491.694,301.504 C488.766,301.504 486.702,302.896 484.878,305.248 L482.43,303.232 C484.638,299.68 488.19,298.096 491.934,298.096 Z M490.206,319.456 C494.046,319.456 497.358,316.672 497.358,313.024 L497.358,312.448 L490.398,312.448 C487.134,312.448 485.358,313.552 485.358,315.76 C485.358,318.256 487.614,319.456 490.206,319.456 Z M518.274,298.096 C523.794,298.096 526.962,301.888 526.962,307.312 L526.962,322 L523.266,322 L523.266,307.744 C523.266,304.048 521.058,301.504 517.458,301.504 C513.858,301.504 511.314,304.096 511.314,307.744 L511.314,322 L507.618,322 L507.618,298.624 L511.074,298.624 L511.074,301.168 C512.706,299.248 515.25,298.096 518.274,298.096 Z M552.054,286 L555.75,286 L555.75,322 L552.246,322 L552.246,318.256 C550.422,320.944 547.11,322.528 543.414,322.528 C536.742,322.528 531.846,317.2 531.846,310.336 C531.846,303.424 536.742,298.096 543.414,298.096 C546.966,298.096 550.182,299.584 552.054,302.08 L552.054,286 Z M543.942,319.12 C547.974,319.12 552.102,316.48 552.102,310.336 C552.102,304.192 547.974,301.504 543.942,301.504 C539.19,301.504 535.638,305.2 535.638,310.288 C535.638,315.376 539.142,319.12 543.942,319.12 Z M600.414,298.096 C605.886,298.096 608.91,301.888 608.91,307.312 L608.91,322 L605.214,322 L605.214,307.792 C605.214,304.096 603.198,301.504 599.694,301.504 C596.142,301.504 593.694,304.192 593.694,307.456 L593.694,322 L589.998,322 L589.998,307.792 C589.998,304.096 587.886,301.504 584.43,301.504 C580.878,301.504 578.478,304.096 578.478,307.792 L578.478,322 L574.782,322 L574.782,298.624 L578.238,298.624 L578.238,301.072 C579.87,299.2 582.27,298.096 585.198,298.096 C588.702,298.096 591.102,299.68 592.398,302.128 C594.03,299.776 596.814,298.096 600.414,298.096 Z M626.034,298.096 C632.802,298.096 638.274,303.424 638.274,310.288 C638.274,317.104 632.802,322.48 625.986,322.48 C619.218,322.432 613.794,317.152 613.794,310.288 C613.794,303.424 619.17,298.096 626.034,298.096 Z M626.034,301.504 C621.138,301.504 617.538,305.344 617.586,310.336 C617.586,315.28 621.138,319.072 625.986,319.072 C630.834,319.072 634.482,315.232 634.482,310.336 C634.482,305.296 630.834,301.504 626.034,301.504 Z M654.198,298.432 C654.966,298.432 655.446,298.528 655.926,298.624 L655.926,301.888 L654.534,301.888 C650.742,301.888 647.19,304.288 647.19,308.752 L647.19,322 L643.494,322 L643.494,298.624 L646.95,298.624 L646.95,301.984 C648.678,299.68 651.414,298.432 654.198,298.432 Z M680.058,308.656 C680.058,309.904 679.866,311.008 679.77,311.44 L661.338,311.44 C661.818,316.096 665.274,319.12 669.882,319.12 C672.81,319.12 675.114,317.872 677.034,315.952 L679.194,318.448 C676.842,320.944 673.674,322.528 669.834,322.528 C662.778,322.528 657.45,317.2 657.45,310.336 C657.45,303.52 662.682,298.096 669.402,298.096 C675.402,298.096 680.058,302.416 680.058,308.656 Z M669.306,301.456 C665.37,301.456 662.25,304.144 661.482,308.176 L676.266,308.176 C676.218,303.856 673.05,301.456 669.306,301.456 Z M687.678,316.48 C689.31,316.48 690.702,317.728 690.702,319.504 C690.702,321.28 689.31,322.528 687.678,322.528 C686.046,322.528 684.654,321.28 684.654,319.504 C684.654,317.728 686.046,316.48 687.678,316.48 Z" id="ThisprojectfocusedonhelpingredesigntheUIandflowforSparetoShare,apropertymanagementsoftwarethatgivesresidentsandstaffaneasywaytocommunicateaboutevents,servicerequests,mail,andmore." fill="#404648" fill-rule="nonzero"></path>
    </g>
</svg>