<?xml version="1.0" encoding="UTF-8"?>
<svg width="1070px" height="71px" viewBox="0 0 1070 71" version="1.1" xmlns="http://www.w3.org/2000/svg" xmlns:xlink="http://www.w3.org/1999/xlink">
    <!-- Generator: Sketch 53.2 (72643) - https://sketchapp.com -->
    <title>spare8</title>
    <desc>Created with Sketch.</desc>
    <g id="Page-1" stroke="none" stroke-width="1" fill="none" fill-rule="evenodd">
        <g id="Artboard" transform="translate(-1423.000000, -6046.000000)" fill="#404648" fill-rule="nonzero">
            <path d="M1440.85086,6072 L1438.91286,6067.444 L1427.96486,6067.444 L1426.02686,6072 L1423.23886,6072 L1432.96286,6049.186 L1433.94886,6049.186 L1443.67286,6072 L1440.85086,6072 Z M1437.92686,6065.064 L1433.43886,6054.048 L1428.95086,6065.064 L1437.92686,6065.064 Z M1454.06954,6048.506 C1452.02954,6048.506 1450.60154,6049.186 1450.60154,6051.668 L1450.60154,6055.442 L1454.74954,6055.442 L1454.74954,6057.788 L1450.60154,6057.788 L1450.60154,6072 L1447.98354,6072 L1447.98354,6057.788 L1445.60354,6057.788 L1445.60354,6055.442 L1447.98354,6055.442 L1447.98354,6051.498 C1447.98354,6047.724 1450.26154,6046.126 1453.45754,6046.126 C1454.27354,6046.126 1454.91954,6046.228 1455.53154,6046.398 L1455.53154,6048.608 C1454.98754,6048.54 1454.51154,6048.506 1454.06954,6048.506 Z M1463.82022,6069.994 C1464.46622,6069.994 1465.18022,6069.926 1466.03022,6069.79 L1466.03022,6072 C1465.18022,6072.204 1464.33022,6072.374 1463.27622,6072.374 C1460.01222,6072.374 1457.70022,6070.776 1457.70022,6067.002 L1457.70022,6057.788 L1454.91222,6057.788 L1454.91222,6055.442 L1457.70022,6055.442 L1457.70022,6050.92 L1460.31822,6050.92 L1460.31822,6055.442 L1465.48622,6055.442 L1465.48622,6057.788 L1460.31822,6057.788 L1460.31822,6066.832 C1460.31822,6069.314 1461.74622,6069.994 1463.82022,6069.994 Z M1484.3829,6062.548 C1484.3829,6063.432 1484.2469,6064.214 1484.1789,6064.52 L1471.1229,6064.52 C1471.4629,6067.818 1473.9109,6069.96 1477.1749,6069.96 C1479.2489,6069.96 1480.8809,6069.076 1482.2409,6067.716 L1483.7709,6069.484 C1482.1049,6071.252 1479.8609,6072.374 1477.1409,6072.374 C1472.1429,6072.374 1468.3689,6068.6 1468.3689,6063.738 C1468.3689,6058.91 1472.0749,6055.068 1476.8349,6055.068 C1481.0849,6055.068 1484.3829,6058.128 1484.3829,6062.548 Z M1476.7669,6057.448 C1473.9789,6057.448 1471.7689,6059.352 1471.2249,6062.208 L1481.6969,6062.208 C1481.6629,6059.148 1479.4189,6057.448 1476.7669,6057.448 Z M1496.51358,6055.306 C1497.05758,6055.306 1497.39758,6055.374 1497.73758,6055.442 L1497.73758,6057.754 L1496.75158,6057.754 C1494.06558,6057.754 1491.54958,6059.454 1491.54958,6062.616 L1491.54958,6072 L1488.93158,6072 L1488.93158,6055.442 L1491.37958,6055.442 L1491.37958,6057.822 C1492.60358,6056.19 1494.54158,6055.306 1496.51358,6055.306 Z M1517.51094,6069.994 C1518.15694,6069.994 1518.87094,6069.926 1519.72094,6069.79 L1519.72094,6072 C1518.87094,6072.204 1518.02094,6072.374 1516.96694,6072.374 C1513.70294,6072.374 1511.39094,6070.776 1511.39094,6067.002 L1511.39094,6057.788 L1508.60294,6057.788 L1508.60294,6055.442 L1511.39094,6055.442 L1511.39094,6050.92 L1514.00894,6050.92 L1514.00894,6055.442 L1519.17694,6055.442 L1519.17694,6057.788 L1514.00894,6057.788 L1514.00894,6066.832 C1514.00894,6069.314 1515.43694,6069.994 1517.51094,6069.994 Z M1531.17162,6055.068 C1535.04762,6055.068 1537.29162,6057.754 1537.29162,6061.596 L1537.29162,6072 L1534.67362,6072 L1534.67362,6061.936 C1534.67362,6059.318 1533.10962,6057.482 1530.55962,6057.482 C1528.00962,6057.482 1526.20762,6059.352 1526.20762,6061.936 L1526.20762,6072 L1523.58962,6072 L1523.58962,6046.5 L1526.20762,6046.5 L1526.20762,6057.312 C1527.29562,6055.918 1529.02962,6055.068 1531.17162,6055.068 Z M1557.61631,6062.548 C1557.61631,6063.432 1557.48031,6064.214 1557.41231,6064.52 L1544.35631,6064.52 C1544.69631,6067.818 1547.14431,6069.96 1550.40831,6069.96 C1552.48231,6069.96 1554.11431,6069.076 1555.47431,6067.716 L1557.00431,6069.484 C1555.33831,6071.252 1553.09431,6072.374 1550.37431,6072.374 C1545.37631,6072.374 1541.60231,6068.6 1541.60231,6063.738 C1541.60231,6058.91 1545.30831,6055.068 1550.06831,6055.068 C1554.31831,6055.068 1557.61631,6058.128 1557.61631,6062.548 Z M1550.00031,6057.448 C1547.21231,6057.448 1545.00231,6059.352 1544.45831,6062.208 L1554.93031,6062.208 C1554.89631,6059.148 1552.65231,6057.448 1550.00031,6057.448 Z M1563.49099,6047.214 C1564.54499,6047.214 1565.42899,6048.064 1565.42899,6049.118 C1565.42899,6050.206 1564.54499,6051.022 1563.49099,6051.022 C1562.36899,6051.022 1561.51899,6050.206 1561.51899,6049.118 C1561.51899,6048.064 1562.36899,6047.214 1563.49099,6047.214 Z M1564.78299,6055.442 L1564.78299,6072 L1562.16499,6072 L1562.16499,6055.442 L1564.78299,6055.442 Z M1578.06967,6055.306 C1578.61367,6055.306 1578.95367,6055.374 1579.29367,6055.442 L1579.29367,6057.754 L1578.30767,6057.754 C1575.62167,6057.754 1573.10567,6059.454 1573.10567,6062.616 L1573.10567,6072 L1570.48767,6072 L1570.48767,6055.442 L1572.93567,6055.442 L1572.93567,6057.822 C1574.15967,6056.19 1576.09767,6055.306 1578.06967,6055.306 Z M1599.81503,6055.306 C1600.35903,6055.306 1600.69903,6055.374 1601.03903,6055.442 L1601.03903,6057.754 L1600.05303,6057.754 C1597.36703,6057.754 1594.85103,6059.454 1594.85103,6062.616 L1594.85103,6072 L1592.23303,6072 L1592.23303,6055.442 L1594.68103,6055.442 L1594.68103,6057.822 C1595.90503,6056.19 1597.84303,6055.306 1599.81503,6055.306 Z M1618.98371,6062.548 C1618.98371,6063.432 1618.84771,6064.214 1618.77971,6064.52 L1605.72371,6064.52 C1606.06371,6067.818 1608.51171,6069.96 1611.77571,6069.96 C1613.84971,6069.96 1615.48171,6069.076 1616.84171,6067.716 L1618.37171,6069.484 C1616.70571,6071.252 1614.46171,6072.374 1611.74171,6072.374 C1606.74371,6072.374 1602.96971,6068.6 1602.96971,6063.738 C1602.96971,6058.91 1606.67571,6055.068 1611.43571,6055.068 C1615.68571,6055.068 1618.98371,6058.128 1618.98371,6062.548 Z M1611.36771,6057.448 C1608.57971,6057.448 1606.36971,6059.352 1605.82571,6062.208 L1616.29771,6062.208 C1616.26371,6059.148 1614.01971,6057.448 1611.36771,6057.448 Z M1636.79239,6055.442 L1639.27439,6055.442 L1639.27439,6078.12 L1636.65639,6078.12 L1636.65639,6069.586 C1635.29639,6071.354 1632.98439,6072.374 1630.53639,6072.374 C1625.81039,6072.374 1622.34239,6068.6 1622.34239,6063.704 C1622.34239,6058.842 1625.81039,6055.068 1630.53639,6055.068 C1633.15439,6055.068 1635.50039,6056.224 1636.79239,6058.094 L1636.79239,6055.442 Z M1630.91039,6069.96 C1633.76639,6069.96 1636.69039,6068.056 1636.69039,6063.704 C1636.69039,6059.352 1633.76639,6057.482 1630.91039,6057.482 C1627.51039,6057.482 1625.02839,6060.168 1625.02839,6063.738 C1625.02839,6067.342 1627.54439,6069.96 1630.91039,6069.96 Z M1658.47707,6055.442 L1658.47707,6065.404 C1658.47707,6069.654 1655.45107,6072.374 1651.64307,6072.374 C1647.76707,6072.374 1644.77507,6069.654 1644.77507,6065.404 L1644.77507,6055.442 L1647.35907,6055.442 L1647.35907,6065.574 C1647.35907,6068.294 1649.26307,6069.96 1651.64307,6069.96 C1653.95507,6069.96 1655.85907,6068.294 1655.85907,6065.574 L1655.85907,6055.442 L1658.47707,6055.442 Z M1678.80175,6062.548 C1678.80175,6063.432 1678.66575,6064.214 1678.59775,6064.52 L1665.54175,6064.52 C1665.88175,6067.818 1668.32975,6069.96 1671.59375,6069.96 C1673.66775,6069.96 1675.29975,6069.076 1676.65975,6067.716 L1678.18975,6069.484 C1676.52375,6071.252 1674.27975,6072.374 1671.55975,6072.374 C1666.56175,6072.374 1662.78775,6068.6 1662.78775,6063.738 C1662.78775,6058.91 1666.49375,6055.068 1671.25375,6055.068 C1675.50375,6055.068 1678.80175,6058.128 1678.80175,6062.548 Z M1671.18575,6057.448 C1668.39775,6057.448 1666.18775,6059.352 1665.64375,6062.208 L1676.11575,6062.208 C1676.08175,6059.148 1673.83775,6057.448 1671.18575,6057.448 Z M1688.34843,6055.068 C1690.72843,6055.068 1692.59843,6056.088 1693.89043,6057.686 L1692.29243,6059.318 C1691.20443,6058.196 1689.77643,6057.482 1688.21243,6057.482 C1686.64843,6057.482 1685.45843,6058.196 1685.45843,6059.556 C1685.45843,6060.678 1686.30843,6061.222 1688.14443,6061.97 L1689.67443,6062.616 C1692.66643,6063.874 1694.06043,6065.166 1694.06043,6067.512 C1694.06043,6070.742 1691.30643,6072.374 1688.24643,6072.374 C1685.32243,6072.374 1683.11243,6070.912 1681.78643,6069.144 L1683.45243,6067.41 C1684.81243,6068.838 1686.20643,6069.96 1688.21243,6069.96 C1689.94643,6069.96 1691.37443,6069.11 1691.37443,6067.614 C1691.37443,6066.186 1690.15043,6065.642 1688.48443,6064.962 L1686.88643,6064.282 C1684.37043,6063.228 1682.77243,6062.072 1682.77243,6059.692 C1682.77243,6056.7 1685.32243,6055.068 1688.34843,6055.068 Z M1705.57911,6069.994 C1706.22511,6069.994 1706.93911,6069.926 1707.78911,6069.79 L1707.78911,6072 C1706.93911,6072.204 1706.08911,6072.374 1705.03511,6072.374 C1701.77111,6072.374 1699.45911,6070.776 1699.45911,6067.002 L1699.45911,6057.788 L1696.67111,6057.788 L1696.67111,6055.442 L1699.45911,6055.442 L1699.45911,6050.92 L1702.07711,6050.92 L1702.07711,6055.442 L1707.24511,6055.442 L1707.24511,6057.788 L1702.07711,6057.788 L1702.07711,6066.832 C1702.07711,6069.314 1703.50511,6069.994 1705.57911,6069.994 Z M1742.45447,6055.442 L1745.24247,6055.442 L1738.27247,6072.374 L1737.32047,6072.374 L1731.67647,6059.862 L1726.06647,6072.374 L1725.14847,6072.374 L1718.11047,6055.442 L1720.89847,6055.442 L1725.65847,6067.682 L1731.20047,6055.068 L1732.18647,6055.068 L1737.76247,6067.614 L1742.45447,6055.442 Z M1754.27915,6055.068 C1758.05315,6055.068 1760.73915,6057.346 1760.73915,6061.8 L1760.73915,6072 L1758.29115,6072 L1758.29115,6069.858 C1757.10115,6071.456 1755.16315,6072.374 1752.71515,6072.374 C1749.38315,6072.374 1746.93515,6070.606 1746.93515,6067.716 C1746.93515,6064.928 1749.28115,6063.092 1752.88515,6063.092 L1758.12115,6063.092 L1758.12115,6061.664 C1758.12115,6058.876 1756.55715,6057.482 1754.10915,6057.482 C1752.03515,6057.482 1750.57315,6058.468 1749.28115,6060.134 L1747.54715,6058.706 C1749.11115,6056.19 1751.62715,6055.068 1754.27915,6055.068 Z M1753.05515,6070.198 C1755.77515,6070.198 1758.12115,6068.226 1758.12115,6065.642 L1758.12115,6065.234 L1753.19115,6065.234 C1750.87915,6065.234 1749.62115,6066.016 1749.62115,6067.58 C1749.62115,6069.348 1751.21915,6070.198 1753.05515,6070.198 Z M1771.23783,6055.068 C1773.61783,6055.068 1775.48783,6056.088 1776.77983,6057.686 L1775.18183,6059.318 C1774.09383,6058.196 1772.66583,6057.482 1771.10183,6057.482 C1769.53783,6057.482 1768.34783,6058.196 1768.34783,6059.556 C1768.34783,6060.678 1769.19783,6061.222 1771.03383,6061.97 L1772.56383,6062.616 C1775.55583,6063.874 1776.94983,6065.166 1776.94983,6067.512 C1776.94983,6070.742 1774.19583,6072.374 1771.13583,6072.374 C1768.21183,6072.374 1766.00183,6070.912 1764.67583,6069.144 L1766.34183,6067.41 C1767.70183,6068.838 1769.09583,6069.96 1771.10183,6069.96 C1772.83583,6069.96 1774.26383,6069.11 1774.26383,6067.614 C1774.26383,6066.186 1773.03983,6065.642 1771.37383,6064.962 L1769.77583,6064.282 C1767.25983,6063.228 1765.66183,6062.072 1765.66183,6059.692 C1765.66183,6056.7 1768.21183,6055.068 1771.23783,6055.068 Z M1797.06319,6055.068 C1800.83719,6055.068 1803.52319,6057.346 1803.52319,6061.8 L1803.52319,6072 L1801.07519,6072 L1801.07519,6069.858 C1799.88519,6071.456 1797.94719,6072.374 1795.49919,6072.374 C1792.16719,6072.374 1789.71919,6070.606 1789.71919,6067.716 C1789.71919,6064.928 1792.06519,6063.092 1795.66919,6063.092 L1800.90519,6063.092 L1800.90519,6061.664 C1800.90519,6058.876 1799.34119,6057.482 1796.89319,6057.482 C1794.81919,6057.482 1793.35719,6058.468 1792.06519,6060.134 L1790.33119,6058.706 C1791.89519,6056.19 1794.41119,6055.068 1797.06319,6055.068 Z M1795.83919,6070.198 C1798.55919,6070.198 1800.90519,6068.226 1800.90519,6065.642 L1800.90519,6065.234 L1795.97519,6065.234 C1793.66319,6065.234 1792.40519,6066.016 1792.40519,6067.58 C1792.40519,6069.348 1794.00319,6070.198 1795.83919,6070.198 Z M1817.72787,6055.068 C1822.48787,6055.068 1825.92187,6058.842 1825.92187,6063.704 C1825.92187,6068.6 1822.45387,6072.374 1817.72787,6072.374 C1815.27987,6072.374 1812.96787,6071.354 1811.64187,6069.586 L1811.64187,6078.12 L1809.02387,6078.12 L1809.02387,6055.442 L1811.47187,6055.442 L1811.47187,6058.094 C1812.76387,6056.19 1815.10987,6055.068 1817.72787,6055.068 Z M1817.35387,6069.96 C1820.71987,6069.96 1823.23587,6067.342 1823.23587,6063.738 C1823.23587,6060.134 1820.75387,6057.482 1817.35387,6057.482 C1814.49787,6057.482 1811.60787,6059.352 1811.60787,6063.704 C1811.60787,6068.056 1814.46387,6069.96 1817.35387,6069.96 Z M1839.17456,6055.068 C1843.93456,6055.068 1847.36856,6058.842 1847.36856,6063.704 C1847.36856,6068.6 1843.90056,6072.374 1839.17456,6072.374 C1836.72656,6072.374 1834.41456,6071.354 1833.08856,6069.586 L1833.08856,6078.12 L1830.47056,6078.12 L1830.47056,6055.442 L1832.91856,6055.442 L1832.91856,6058.094 C1834.21056,6056.19 1836.55656,6055.068 1839.17456,6055.068 Z M1838.80056,6069.96 C1842.16656,6069.96 1844.68256,6067.342 1844.68256,6063.738 C1844.68256,6060.134 1842.20056,6057.482 1838.80056,6057.482 C1835.94456,6057.482 1833.05456,6059.352 1833.05456,6063.704 C1833.05456,6068.056 1835.91056,6069.96 1838.80056,6069.96 Z M1859.49924,6055.306 C1860.04324,6055.306 1860.38324,6055.374 1860.72324,6055.442 L1860.72324,6057.754 L1859.73724,6057.754 C1857.05124,6057.754 1854.53524,6059.454 1854.53524,6062.616 L1854.53524,6072 L1851.91724,6072 L1851.91724,6055.442 L1854.36524,6055.442 L1854.36524,6057.822 C1855.58924,6056.19 1857.52724,6055.306 1859.49924,6055.306 Z M1871.32392,6055.068 C1876.11792,6055.068 1879.99392,6058.842 1879.99392,6063.704 C1879.99392,6068.532 1876.11792,6072.34 1871.28992,6072.34 C1866.49592,6072.306 1862.65392,6068.566 1862.65392,6063.704 C1862.65392,6058.842 1866.46192,6055.068 1871.32392,6055.068 Z M1871.32392,6057.482 C1867.85592,6057.482 1865.30592,6060.202 1865.33992,6063.738 C1865.33992,6067.24 1867.85592,6069.926 1871.28992,6069.926 C1874.72392,6069.926 1877.30792,6067.206 1877.30792,6063.738 C1877.30792,6060.168 1874.72392,6057.482 1871.32392,6057.482 Z M1895.6266,6055.442 L1898.4146,6055.442 L1890.6286,6072.374 L1889.6766,6072.374 L1881.8566,6055.442 L1884.6446,6055.442 L1890.1526,6067.92 L1895.6266,6055.442 Z M1916.29128,6062.548 C1916.29128,6063.432 1916.15528,6064.214 1916.08728,6064.52 L1903.03128,6064.52 C1903.37128,6067.818 1905.81928,6069.96 1909.08328,6069.96 C1911.15728,6069.96 1912.78928,6069.076 1914.14928,6067.716 L1915.67928,6069.484 C1914.01328,6071.252 1911.76928,6072.374 1909.04928,6072.374 C1904.05128,6072.374 1900.27728,6068.6 1900.27728,6063.738 C1900.27728,6058.91 1903.98328,6055.068 1908.74328,6055.068 C1912.99328,6055.068 1916.29128,6058.128 1916.29128,6062.548 Z M1908.67528,6057.448 C1905.88728,6057.448 1903.67728,6059.352 1903.13328,6062.208 L1913.60528,6062.208 C1913.57128,6059.148 1911.32728,6057.448 1908.67528,6057.448 Z M1933.96396,6046.5 L1936.58196,6046.5 L1936.58196,6072 L1934.09996,6072 L1934.09996,6069.348 C1932.80796,6071.252 1930.46196,6072.374 1927.84396,6072.374 C1923.11796,6072.374 1919.64996,6068.6 1919.64996,6063.738 C1919.64996,6058.842 1923.11796,6055.068 1927.84396,6055.068 C1930.35996,6055.068 1932.63796,6056.122 1933.96396,6057.89 L1933.96396,6046.5 Z M1928.21796,6069.96 C1931.07396,6069.96 1933.99796,6068.09 1933.99796,6063.738 C1933.99796,6059.386 1931.07396,6057.482 1928.21796,6057.482 C1924.85196,6057.482 1922.33596,6060.1 1922.33596,6063.704 C1922.33596,6067.308 1924.81796,6069.96 1928.21796,6069.96 Z M1957.71532,6055.068 C1961.48932,6055.068 1964.17532,6057.346 1964.17532,6061.8 L1964.17532,6072 L1961.72732,6072 L1961.72732,6069.858 C1960.53732,6071.456 1958.59932,6072.374 1956.15132,6072.374 C1952.81932,6072.374 1950.37132,6070.606 1950.37132,6067.716 C1950.37132,6064.928 1952.71732,6063.092 1956.32132,6063.092 L1961.55732,6063.092 L1961.55732,6061.664 C1961.55732,6058.876 1959.99332,6057.482 1957.54532,6057.482 C1955.47132,6057.482 1954.00932,6058.468 1952.71732,6060.134 L1950.98332,6058.706 C1952.54732,6056.19 1955.06332,6055.068 1957.71532,6055.068 Z M1956.49132,6070.198 C1959.21132,6070.198 1961.55732,6068.226 1961.55732,6065.642 L1961.55732,6065.234 L1956.62732,6065.234 C1954.31532,6065.234 1953.05732,6066.016 1953.05732,6067.58 C1953.05732,6069.348 1954.65532,6070.198 1956.49132,6070.198 Z M1977.224,6055.068 C1981.134,6055.068 1983.378,6057.754 1983.378,6061.596 L1983.378,6072 L1980.76,6072 L1980.76,6061.902 C1980.76,6059.284 1979.196,6057.482 1976.646,6057.482 C1974.096,6057.482 1972.294,6059.318 1972.294,6061.902 L1972.294,6072 L1969.676,6072 L1969.676,6055.442 L1972.124,6055.442 L1972.124,6057.244 C1973.28,6055.884 1975.082,6055.068 1977.224,6055.068 Z M2002.00268,6046.5 L2004.62068,6046.5 L2004.62068,6072 L2002.13868,6072 L2002.13868,6069.348 C2000.84668,6071.252 1998.50068,6072.374 1995.88268,6072.374 C1991.15668,6072.374 1987.68868,6068.6 1987.68868,6063.738 C1987.68868,6058.842 1991.15668,6055.068 1995.88268,6055.068 C1998.39868,6055.068 2000.67668,6056.122 2002.00268,6057.89 L2002.00268,6046.5 Z M1996.25668,6069.96 C1999.11268,6069.96 2002.03668,6068.09 2002.03668,6063.738 C2002.03668,6059.386 1999.11268,6057.482 1996.25668,6057.482 C1992.89068,6057.482 1990.37468,6060.1 1990.37468,6063.704 C1990.37468,6067.308 1992.85668,6069.96 1996.25668,6069.96 Z M2026.63804,6069.994 C2027.28404,6069.994 2027.99804,6069.926 2028.84804,6069.79 L2028.84804,6072 C2027.99804,6072.204 2027.14804,6072.374 2026.09404,6072.374 C2022.83004,6072.374 2020.51804,6070.776 2020.51804,6067.002 L2020.51804,6057.788 L2017.73004,6057.788 L2017.73004,6055.442 L2020.51804,6055.442 L2020.51804,6050.92 L2023.13604,6050.92 L2023.13604,6055.442 L2028.30404,6055.442 L2028.30404,6057.788 L2023.13604,6057.788 L2023.13604,6066.832 C2023.13604,6069.314 2024.56404,6069.994 2026.63804,6069.994 Z M2040.29872,6055.068 C2044.17472,6055.068 2046.41872,6057.754 2046.41872,6061.596 L2046.41872,6072 L2043.80072,6072 L2043.80072,6061.936 C2043.80072,6059.318 2042.23672,6057.482 2039.68672,6057.482 C2037.13672,6057.482 2035.33472,6059.352 2035.33472,6061.936 L2035.33472,6072 L2032.71672,6072 L2032.71672,6046.5 L2035.33472,6046.5 L2035.33472,6057.312 C2036.42272,6055.918 2038.15672,6055.068 2040.29872,6055.068 Z M2066.7434,6062.548 C2066.7434,6063.432 2066.6074,6064.214 2066.5394,6064.52 L2053.4834,6064.52 C2053.8234,6067.818 2056.2714,6069.96 2059.5354,6069.96 C2061.6094,6069.96 2063.2414,6069.076 2064.6014,6067.716 L2066.1314,6069.484 C2064.4654,6071.252 2062.2214,6072.374 2059.5014,6072.374 C2054.5034,6072.374 2050.7294,6068.6 2050.7294,6063.738 C2050.7294,6058.91 2054.4354,6055.068 2059.1954,6055.068 C2063.4454,6055.068 2066.7434,6058.128 2066.7434,6062.548 Z M2059.1274,6057.448 C2056.3394,6057.448 2054.1294,6059.352 2053.5854,6062.208 L2064.0574,6062.208 C2064.0234,6059.148 2061.7794,6057.448 2059.1274,6057.448 Z M2086.72076,6055.068 C2090.49476,6055.068 2093.18076,6057.346 2093.18076,6061.8 L2093.18076,6072 L2090.73276,6072 L2090.73276,6069.858 C2089.54276,6071.456 2087.60476,6072.374 2085.15676,6072.374 C2081.82476,6072.374 2079.37676,6070.606 2079.37676,6067.716 C2079.37676,6064.928 2081.72276,6063.092 2085.32676,6063.092 L2090.56276,6063.092 L2090.56276,6061.664 C2090.56276,6058.876 2088.99876,6057.482 2086.55076,6057.482 C2084.47676,6057.482 2083.01476,6058.468 2081.72276,6060.134 L2079.98876,6058.706 C2081.55276,6056.19 2084.06876,6055.068 2086.72076,6055.068 Z M2085.49676,6070.198 C2088.21676,6070.198 2090.56276,6068.226 2090.56276,6065.642 L2090.56276,6065.234 L2085.63276,6065.234 C2083.32076,6065.234 2082.06276,6066.016 2082.06276,6067.58 C2082.06276,6069.348 2083.66076,6070.198 2085.49676,6070.198 Z M2111.80544,6046.5 L2114.42344,6046.5 L2114.42344,6072 L2111.94144,6072 L2111.94144,6069.348 C2110.64944,6071.252 2108.30344,6072.374 2105.68544,6072.374 C2100.95944,6072.374 2097.49144,6068.6 2097.49144,6063.738 C2097.49144,6058.842 2100.95944,6055.068 2105.68544,6055.068 C2108.20144,6055.068 2110.47944,6056.122 2111.80544,6057.89 L2111.80544,6046.5 Z M2106.05944,6069.96 C2108.91544,6069.96 2111.83944,6068.09 2111.83944,6063.738 C2111.83944,6059.386 2108.91544,6057.482 2106.05944,6057.482 C2102.69344,6057.482 2100.17744,6060.1 2100.17744,6063.704 C2100.17744,6067.308 2102.65944,6069.96 2106.05944,6069.96 Z M2150.92481,6055.442 L2153.71281,6055.442 L2146.74281,6072.374 L2145.79081,6072.374 L2140.14681,6059.862 L2134.53681,6072.374 L2133.61881,6072.374 L2126.58081,6055.442 L2129.36881,6055.442 L2134.12881,6067.682 L2139.67081,6055.068 L2140.65681,6055.068 L2146.23281,6067.614 L2150.92481,6055.442 Z M2162.74949,6055.068 C2166.52349,6055.068 2169.20949,6057.346 2169.20949,6061.8 L2169.20949,6072 L2166.76149,6072 L2166.76149,6069.858 C2165.57149,6071.456 2163.63349,6072.374 2161.18549,6072.374 C2157.85349,6072.374 2155.40549,6070.606 2155.40549,6067.716 C2155.40549,6064.928 2157.75149,6063.092 2161.35549,6063.092 L2166.59149,6063.092 L2166.59149,6061.664 C2166.59149,6058.876 2165.02749,6057.482 2162.57949,6057.482 C2160.50549,6057.482 2159.04349,6058.468 2157.75149,6060.134 L2156.01749,6058.706 C2157.58149,6056.19 2160.09749,6055.068 2162.74949,6055.068 Z M2161.52549,6070.198 C2164.24549,6070.198 2166.59149,6068.226 2166.59149,6065.642 L2166.59149,6065.234 L2161.66149,6065.234 C2159.34949,6065.234 2158.09149,6066.016 2158.09149,6067.58 C2158.09149,6069.348 2159.68949,6070.198 2161.52549,6070.198 Z M2179.70817,6055.068 C2182.08817,6055.068 2183.95817,6056.088 2185.25017,6057.686 L2183.65217,6059.318 C2182.56417,6058.196 2181.13617,6057.482 2179.57217,6057.482 C2178.00817,6057.482 2176.81817,6058.196 2176.81817,6059.556 C2176.81817,6060.678 2177.66817,6061.222 2179.50417,6061.97 L2181.03417,6062.616 C2184.02617,6063.874 2185.42017,6065.166 2185.42017,6067.512 C2185.42017,6070.742 2182.66617,6072.374 2179.60617,6072.374 C2176.68217,6072.374 2174.47217,6070.912 2173.14617,6069.144 L2174.81217,6067.41 C2176.17217,6068.838 2177.56617,6069.96 2179.57217,6069.96 C2181.30617,6069.96 2182.73417,6069.11 2182.73417,6067.614 C2182.73417,6066.186 2181.51017,6065.642 2179.84417,6064.962 L2178.24617,6064.282 C2175.73017,6063.228 2174.13217,6062.072 2174.13217,6059.692 C2174.13217,6056.7 2176.68217,6055.068 2179.70817,6055.068 Z M2202.20153,6046.5 L2202.20153,6072 L2199.58353,6072 L2199.58353,6046.5 L2202.20153,6046.5 Z M2209.23221,6047.214 C2210.28621,6047.214 2211.17021,6048.064 2211.17021,6049.118 C2211.17021,6050.206 2210.28621,6051.022 2209.23221,6051.022 C2208.11021,6051.022 2207.26021,6050.206 2207.26021,6049.118 C2207.26021,6048.064 2208.11021,6047.214 2209.23221,6047.214 Z M2210.52421,6055.442 L2210.52421,6072 L2207.90621,6072 L2207.90621,6055.442 L2210.52421,6055.442 Z M2227.99289,6055.442 L2230.78089,6055.442 L2222.99489,6072.374 L2222.04289,6072.374 L2214.22289,6055.442 L2217.01089,6055.442 L2222.51889,6067.92 L2227.99289,6055.442 Z M2248.65757,6062.548 C2248.65757,6063.432 2248.52157,6064.214 2248.45357,6064.52 L2235.39757,6064.52 C2235.73757,6067.818 2238.18557,6069.96 2241.44957,6069.96 C2243.52357,6069.96 2245.15557,6069.076 2246.51557,6067.716 L2248.04557,6069.484 C2246.37957,6071.252 2244.13557,6072.374 2241.41557,6072.374 C2236.41757,6072.374 2232.64357,6068.6 2232.64357,6063.738 C2232.64357,6058.91 2236.34957,6055.068 2241.10957,6055.068 C2245.35957,6055.068 2248.65757,6058.128 2248.65757,6062.548 Z M2241.04157,6057.448 C2238.25357,6057.448 2236.04357,6059.352 2235.49957,6062.208 L2245.97157,6062.208 C2245.93757,6059.148 2243.69357,6057.448 2241.04157,6057.448 Z M2256.74225,6068.94 L2255.34825,6078.086 L2253.20625,6078.086 L2253.64825,6068.94 L2256.74225,6068.94 Z M2278.65761,6069.994 C2279.30361,6069.994 2280.01761,6069.926 2280.86761,6069.79 L2280.86761,6072 C2280.01761,6072.204 2279.16761,6072.374 2278.11361,6072.374 C2274.84961,6072.374 2272.53761,6070.776 2272.53761,6067.002 L2272.53761,6057.788 L2269.74961,6057.788 L2269.74961,6055.442 L2272.53761,6055.442 L2272.53761,6050.92 L2275.15561,6050.92 L2275.15561,6055.442 L2280.32361,6055.442 L2280.32361,6057.788 L2275.15561,6057.788 L2275.15561,6066.832 C2275.15561,6069.314 2276.58361,6069.994 2278.65761,6069.994 Z M2292.31829,6055.068 C2296.19429,6055.068 2298.43829,6057.754 2298.43829,6061.596 L2298.43829,6072 L2295.82029,6072 L2295.82029,6061.936 C2295.82029,6059.318 2294.25629,6057.482 2291.70629,6057.482 C2289.15629,6057.482 2287.35429,6059.352 2287.35429,6061.936 L2287.35429,6072 L2284.73629,6072 L2284.73629,6046.5 L2287.35429,6046.5 L2287.35429,6057.312 C2288.44229,6055.918 2290.17629,6055.068 2292.31829,6055.068 Z M2318.76297,6062.548 C2318.76297,6063.432 2318.62697,6064.214 2318.55897,6064.52 L2305.50297,6064.52 C2305.84297,6067.818 2308.29097,6069.96 2311.55497,6069.96 C2313.62897,6069.96 2315.26097,6069.076 2316.62097,6067.716 L2318.15097,6069.484 C2316.48497,6071.252 2314.24097,6072.374 2311.52097,6072.374 C2306.52297,6072.374 2302.74897,6068.6 2302.74897,6063.738 C2302.74897,6058.91 2306.45497,6055.068 2311.21497,6055.068 C2315.46497,6055.068 2318.76297,6058.128 2318.76297,6062.548 Z M2311.14697,6057.448 C2308.35897,6057.448 2306.14897,6059.352 2305.60497,6062.208 L2316.07697,6062.208 C2316.04297,6059.148 2313.79897,6057.448 2311.14697,6057.448 Z M2334.76965,6055.442 L2337.55765,6055.442 L2329.39765,6074.312 C2328.10565,6077.27 2326.30365,6078.494 2323.78765,6078.494 C2322.97165,6078.494 2322.01965,6078.358 2321.23765,6078.154 L2321.23765,6075.944 C2322.01965,6076.046 2322.66565,6076.114 2323.24365,6076.114 C2324.84165,6076.114 2326.06565,6075.57 2326.98365,6073.462 L2327.86765,6071.456 L2320.99965,6055.442 L2323.82165,6055.442 L2329.29565,6068.634 L2334.76965,6055.442 Z M2358.24901,6055.068 C2361.24101,6055.068 2363.62101,6056.496 2365.08301,6058.672 L2363.21301,6060.168 C2361.98901,6058.536 2360.42501,6057.482 2358.28301,6057.482 C2354.81501,6057.482 2352.26501,6060.236 2352.26501,6063.704 C2352.26501,6067.206 2354.81501,6069.96 2358.28301,6069.96 C2360.39101,6069.96 2361.95501,6068.94 2363.17901,6067.308 L2365.04901,6068.77 C2363.58701,6070.946 2361.20701,6072.374 2358.24901,6072.374 C2353.42101,6072.374 2349.57901,6068.566 2349.57901,6063.704 C2349.57901,6058.876 2353.42101,6055.068 2358.24901,6055.068 Z M2376.60169,6055.068 C2381.39569,6055.068 2385.27169,6058.842 2385.27169,6063.704 C2385.27169,6068.532 2381.39569,6072.34 2376.56769,6072.34 C2371.77369,6072.306 2367.93169,6068.566 2367.93169,6063.704 C2367.93169,6058.842 2371.73969,6055.068 2376.60169,6055.068 Z M2376.60169,6057.482 C2373.13369,6057.482 2370.58369,6060.202 2370.61769,6063.738 C2370.61769,6067.24 2373.13369,6069.926 2376.56769,6069.926 C2380.00169,6069.926 2382.58569,6067.206 2382.58569,6063.738 C2382.58569,6060.168 2380.00169,6057.482 2376.60169,6057.482 Z M2403.31838,6055.442 L2403.31838,6065.404 C2403.31838,6069.654 2400.29238,6072.374 2396.48438,6072.374 C2392.60838,6072.374 2389.61638,6069.654 2389.61638,6065.404 L2389.61638,6055.442 L2392.20038,6055.442 L2392.20038,6065.574 C2392.20038,6068.294 2394.10438,6069.96 2396.48438,6069.96 C2398.79638,6069.96 2400.70038,6068.294 2400.70038,6065.574 L2400.70038,6055.442 L2403.31838,6055.442 Z M2411.43706,6046.5 L2411.43706,6072 L2408.81906,6072 L2408.81906,6046.5 L2411.43706,6046.5 Z M2430.26574,6046.5 L2432.88374,6046.5 L2432.88374,6072 L2430.40174,6072 L2430.40174,6069.348 C2429.10974,6071.252 2426.76374,6072.374 2424.14574,6072.374 C2419.41974,6072.374 2415.95174,6068.6 2415.95174,6063.738 C2415.95174,6058.842 2419.41974,6055.068 2424.14574,6055.068 C2426.66174,6055.068 2428.93974,6056.122 2430.26574,6057.89 L2430.26574,6046.5 Z M2424.51974,6069.96 C2427.37574,6069.96 2430.29974,6068.09 2430.29974,6063.738 C2430.29974,6059.386 2427.37574,6057.482 2424.51974,6057.482 C2421.15374,6057.482 2418.63774,6060.1 2418.63774,6063.704 C2418.63774,6067.308 2421.11974,6069.96 2424.51974,6069.96 Z M2450.6851,6046.5 L2450.6851,6072 L2448.0671,6072 L2448.0671,6046.5 L2450.6851,6046.5 Z M2463.86978,6055.068 C2468.66378,6055.068 2472.53978,6058.842 2472.53978,6063.704 C2472.53978,6068.532 2468.66378,6072.34 2463.83578,6072.34 C2459.04178,6072.306 2455.19978,6068.566 2455.19978,6063.704 C2455.19978,6058.842 2459.00778,6055.068 2463.86978,6055.068 Z M2463.86978,6057.482 C2460.40178,6057.482 2457.85178,6060.202 2457.88578,6063.738 C2457.88578,6067.24 2460.40178,6069.926 2463.83578,6069.926 C2467.26978,6069.926 2469.85378,6067.206 2469.85378,6063.738 C2469.85378,6060.168 2467.26978,6057.482 2463.86978,6057.482 Z M2490.51846,6055.442 L2493.00046,6055.442 L2493.00046,6070.402 C2493.00046,6075.502 2489.77046,6078.494 2484.94246,6078.494 C2481.47446,6078.494 2478.78846,6076.93 2477.15646,6075.298 L2478.68646,6073.462 C2480.28446,6074.856 2482.15446,6076.08 2484.87446,6076.08 C2488.24046,6076.08 2490.38246,6074.21 2490.38246,6070.538 L2490.38246,6069.076 C2489.02246,6070.81 2486.71046,6071.83 2484.22846,6071.83 C2479.57046,6071.83 2476.10246,6068.294 2476.10246,6063.466 C2476.10246,6058.672 2479.57046,6055.068 2484.22846,6055.068 C2486.84646,6055.068 2489.22646,6056.224 2490.51846,6058.128 L2490.51846,6055.442 Z M2484.63646,6069.416 C2487.52646,6069.416 2490.41646,6067.614 2490.41646,6063.466 C2490.41646,6059.318 2487.49246,6057.55 2484.63646,6057.55 C2481.27046,6057.55 2478.75446,6059.998 2478.75446,6063.5 C2478.75446,6067.002 2481.27046,6069.416 2484.63646,6069.416 Z M1479.04254,6093.068 C1483.76854,6093.068 1487.23654,6096.842 1487.23654,6101.738 C1487.23654,6106.6 1483.80254,6110.374 1479.07654,6110.374 C1476.49254,6110.374 1474.07854,6109.252 1472.78654,6107.348 L1472.78654,6110 L1470.33854,6110 L1470.33854,6084.5 L1472.95654,6084.5 L1472.95654,6095.89 C1474.24854,6094.156 1476.52654,6093.068 1479.04254,6093.068 Z M1478.66854,6107.96 C1482.06854,6107.96 1484.55054,6105.308 1484.55054,6101.704 C1484.55054,6098.1 1482.03454,6095.482 1478.66854,6095.482 C1475.77854,6095.482 1472.92254,6097.386 1472.92254,6101.738 C1472.92254,6106.09 1475.81254,6107.96 1478.66854,6107.96 Z M1497.73522,6093.068 C1501.50922,6093.068 1504.19522,6095.346 1504.19522,6099.8 L1504.19522,6110 L1501.74722,6110 L1501.74722,6107.858 C1500.55722,6109.456 1498.61922,6110.374 1496.17122,6110.374 C1492.83922,6110.374 1490.39122,6108.606 1490.39122,6105.716 C1490.39122,6102.928 1492.73722,6101.092 1496.34122,6101.092 L1501.57722,6101.092 L1501.57722,6099.664 C1501.57722,6096.876 1500.01322,6095.482 1497.56522,6095.482 C1495.49122,6095.482 1494.02922,6096.468 1492.73722,6098.134 L1491.00322,6096.706 C1492.56722,6094.19 1495.08322,6093.068 1497.73522,6093.068 Z M1496.51122,6108.198 C1499.23122,6108.198 1501.57722,6106.226 1501.57722,6103.642 L1501.57722,6103.234 L1496.64722,6103.234 C1494.33522,6103.234 1493.07722,6104.016 1493.07722,6105.58 C1493.07722,6107.348 1494.67522,6108.198 1496.51122,6108.198 Z M1517.1759,6093.068 C1520.1679,6093.068 1522.5479,6094.496 1524.0099,6096.672 L1522.1399,6098.168 C1520.9159,6096.536 1519.3519,6095.482 1517.2099,6095.482 C1513.7419,6095.482 1511.1919,6098.236 1511.1919,6101.704 C1511.1919,6105.206 1513.7419,6107.96 1517.2099,6107.96 C1519.3179,6107.96 1520.8819,6106.94 1522.1059,6105.308 L1523.9759,6106.77 C1522.5139,6108.946 1520.1339,6110.374 1517.1759,6110.374 C1512.3479,6110.374 1508.5059,6106.566 1508.5059,6101.704 C1508.5059,6096.876 1512.3479,6093.068 1517.1759,6093.068 Z M1528.38858,6110 L1528.38858,6084.5 L1531.00658,6084.5 L1531.00658,6110 L1528.38858,6110 Z M1534.44058,6100.718 L1542.26058,6110 L1538.89458,6110 L1531.27858,6100.684 L1538.18058,6093.442 L1541.61458,6093.442 L1534.44058,6100.718 Z M1556.35594,6085.214 C1557.40994,6085.214 1558.29394,6086.064 1558.29394,6087.118 C1558.29394,6088.206 1557.40994,6089.022 1556.35594,6089.022 C1555.23394,6089.022 1554.38394,6088.206 1554.38394,6087.118 C1554.38394,6086.064 1555.23394,6085.214 1556.35594,6085.214 Z M1557.64794,6093.442 L1557.64794,6110 L1555.02994,6110 L1555.02994,6093.442 L1557.64794,6093.442 Z M1570.90062,6093.068 C1574.81062,6093.068 1577.05462,6095.754 1577.05462,6099.596 L1577.05462,6110 L1574.43662,6110 L1574.43662,6099.902 C1574.43662,6097.284 1572.87262,6095.482 1570.32262,6095.482 C1567.77262,6095.482 1565.97062,6097.318 1565.97062,6099.902 L1565.97062,6110 L1563.35262,6110 L1563.35262,6093.442 L1565.80062,6093.442 L1565.80062,6095.244 C1566.95662,6093.884 1568.75862,6093.068 1570.90062,6093.068 Z M1589.38931,6107.994 C1590.03531,6107.994 1590.74931,6107.926 1591.59931,6107.79 L1591.59931,6110 C1590.74931,6110.204 1589.89931,6110.374 1588.84531,6110.374 C1585.58131,6110.374 1583.26931,6108.776 1583.26931,6105.002 L1583.26931,6095.788 L1580.48131,6095.788 L1580.48131,6093.442 L1583.26931,6093.442 L1583.26931,6088.92 L1585.88731,6088.92 L1585.88731,6093.442 L1591.05531,6093.442 L1591.05531,6095.788 L1585.88731,6095.788 L1585.88731,6104.832 C1585.88731,6107.314 1587.31531,6107.994 1589.38931,6107.994 Z M1602.60799,6093.068 C1607.40199,6093.068 1611.27799,6096.842 1611.27799,6101.704 C1611.27799,6106.532 1607.40199,6110.34 1602.57399,6110.34 C1597.77999,6110.306 1593.93799,6106.566 1593.93799,6101.704 C1593.93799,6096.842 1597.74599,6093.068 1602.60799,6093.068 Z M1602.60799,6095.482 C1599.13999,6095.482 1596.58999,6098.202 1596.62399,6101.738 C1596.62399,6105.24 1599.13999,6107.926 1602.57399,6107.926 C1606.00799,6107.926 1608.59199,6105.206 1608.59199,6101.738 C1608.59199,6098.168 1606.00799,6095.482 1602.60799,6095.482 Z M1632.13935,6107.994 C1632.78535,6107.994 1633.49935,6107.926 1634.34935,6107.79 L1634.34935,6110 C1633.49935,6110.204 1632.64935,6110.374 1631.59535,6110.374 C1628.33135,6110.374 1626.01935,6108.776 1626.01935,6105.002 L1626.01935,6095.788 L1623.23135,6095.788 L1623.23135,6093.442 L1626.01935,6093.442 L1626.01935,6088.92 L1628.63735,6088.92 L1628.63735,6093.442 L1633.80535,6093.442 L1633.80535,6095.788 L1628.63735,6095.788 L1628.63735,6104.832 C1628.63735,6107.314 1630.06535,6107.994 1632.13935,6107.994 Z M1645.80003,6093.068 C1649.67603,6093.068 1651.92003,6095.754 1651.92003,6099.596 L1651.92003,6110 L1649.30203,6110 L1649.30203,6099.936 C1649.30203,6097.318 1647.73803,6095.482 1645.18803,6095.482 C1642.63803,6095.482 1640.83603,6097.352 1640.83603,6099.936 L1640.83603,6110 L1638.21803,6110 L1638.21803,6084.5 L1640.83603,6084.5 L1640.83603,6095.312 C1641.92403,6093.918 1643.65803,6093.068 1645.80003,6093.068 Z M1672.24471,6100.548 C1672.24471,6101.432 1672.10871,6102.214 1672.04071,6102.52 L1658.98471,6102.52 C1659.32471,6105.818 1661.77271,6107.96 1665.03671,6107.96 C1667.11071,6107.96 1668.74271,6107.076 1670.10271,6105.716 L1671.63271,6107.484 C1669.96671,6109.252 1667.72271,6110.374 1665.00271,6110.374 C1660.00471,6110.374 1656.23071,6106.6 1656.23071,6101.738 C1656.23071,6096.91 1659.93671,6093.068 1664.69671,6093.068 C1668.94671,6093.068 1672.24471,6096.128 1672.24471,6100.548 Z M1664.62871,6095.448 C1661.84071,6095.448 1659.63071,6097.352 1659.08671,6100.208 L1669.55871,6100.208 C1669.52471,6097.148 1667.28071,6095.448 1664.62871,6095.448 Z M1691.27007,6093.068 C1693.65007,6093.068 1695.52007,6094.088 1696.81207,6095.686 L1695.21407,6097.318 C1694.12607,6096.196 1692.69807,6095.482 1691.13407,6095.482 C1689.57007,6095.482 1688.38007,6096.196 1688.38007,6097.556 C1688.38007,6098.678 1689.23007,6099.222 1691.06607,6099.97 L1692.59607,6100.616 C1695.58807,6101.874 1696.98207,6103.166 1696.98207,6105.512 C1696.98207,6108.742 1694.22807,6110.374 1691.16807,6110.374 C1688.24407,6110.374 1686.03407,6108.912 1684.70807,6107.144 L1686.37407,6105.41 C1687.73407,6106.838 1689.12807,6107.96 1691.13407,6107.96 C1692.86807,6107.96 1694.29607,6107.11 1694.29607,6105.614 C1694.29607,6104.186 1693.07207,6103.642 1691.40607,6102.962 L1689.80807,6102.282 C1687.29207,6101.228 1685.69407,6100.072 1685.69407,6097.692 C1685.69407,6094.7 1688.24407,6093.068 1691.27007,6093.068 Z M1715.16475,6093.442 L1715.16475,6103.404 C1715.16475,6107.654 1712.13875,6110.374 1708.33075,6110.374 C1704.45475,6110.374 1701.46275,6107.654 1701.46275,6103.404 L1701.46275,6093.442 L1704.04675,6093.442 L1704.04675,6103.574 C1704.04675,6106.294 1705.95075,6107.96 1708.33075,6107.96 C1710.64275,6107.96 1712.54675,6106.294 1712.54675,6103.574 L1712.54675,6093.442 L1715.16475,6093.442 Z M1729.36943,6093.068 C1734.09543,6093.068 1737.56343,6096.842 1737.56343,6101.738 C1737.56343,6106.6 1734.12943,6110.374 1729.40343,6110.374 C1726.81943,6110.374 1724.40543,6109.252 1723.11343,6107.348 L1723.11343,6110 L1720.66543,6110 L1720.66543,6084.5 L1723.28343,6084.5 L1723.28343,6095.89 C1724.57543,6094.156 1726.85343,6093.068 1729.36943,6093.068 Z M1728.99543,6107.96 C1732.39543,6107.96 1734.87743,6105.308 1734.87743,6101.704 C1734.87743,6098.1 1732.36143,6095.482 1728.99543,6095.482 C1726.10543,6095.482 1723.24943,6097.386 1723.24943,6101.738 C1723.24943,6106.09 1726.13943,6107.96 1728.99543,6107.96 Z M1749.15011,6098.202 L1749.15011,6100.412 L1741.02411,6100.412 L1741.02411,6098.202 L1749.15011,6098.202 Z M1758.83279,6093.068 C1761.21279,6093.068 1763.08279,6094.088 1764.37479,6095.686 L1762.77679,6097.318 C1761.68879,6096.196 1760.26079,6095.482 1758.69679,6095.482 C1757.13279,6095.482 1755.94279,6096.196 1755.94279,6097.556 C1755.94279,6098.678 1756.79279,6099.222 1758.62879,6099.97 L1760.15879,6100.616 C1763.15079,6101.874 1764.54479,6103.166 1764.54479,6105.512 C1764.54479,6108.742 1761.79079,6110.374 1758.73079,6110.374 C1755.80679,6110.374 1753.59679,6108.912 1752.27079,6107.144 L1753.93679,6105.41 C1755.29679,6106.838 1756.69079,6107.96 1758.69679,6107.96 C1760.43079,6107.96 1761.85879,6107.11 1761.85879,6105.614 C1761.85879,6104.186 1760.63479,6103.642 1758.96879,6102.962 L1757.37079,6102.282 C1754.85479,6101.228 1753.25679,6100.072 1753.25679,6097.692 C1753.25679,6094.7 1755.80679,6093.068 1758.83279,6093.068 Z M1770.55547,6085.214 C1771.60947,6085.214 1772.49347,6086.064 1772.49347,6087.118 C1772.49347,6088.206 1771.60947,6089.022 1770.55547,6089.022 C1769.43347,6089.022 1768.58347,6088.206 1768.58347,6087.118 C1768.58347,6086.064 1769.43347,6085.214 1770.55547,6085.214 Z M1771.84747,6093.442 L1771.84747,6110 L1769.22947,6110 L1769.22947,6093.442 L1771.84747,6093.442 Z M1784.38615,6107.994 C1785.03215,6107.994 1785.74615,6107.926 1786.59615,6107.79 L1786.59615,6110 C1785.74615,6110.204 1784.89615,6110.374 1783.84215,6110.374 C1780.57815,6110.374 1778.26615,6108.776 1778.26615,6105.002 L1778.26615,6095.788 L1775.47815,6095.788 L1775.47815,6093.442 L1778.26615,6093.442 L1778.26615,6088.92 L1780.88415,6088.92 L1780.88415,6093.442 L1786.05215,6093.442 L1786.05215,6095.788 L1780.88415,6095.788 L1780.88415,6104.832 C1780.88415,6107.314 1782.31215,6107.994 1784.38615,6107.994 Z M1804.94883,6100.548 C1804.94883,6101.432 1804.81283,6102.214 1804.74483,6102.52 L1791.68883,6102.52 C1792.02883,6105.818 1794.47683,6107.96 1797.74083,6107.96 C1799.81483,6107.96 1801.44683,6107.076 1802.80683,6105.716 L1804.33683,6107.484 C1802.67083,6109.252 1800.42683,6110.374 1797.70683,6110.374 C1792.70883,6110.374 1788.93483,6106.6 1788.93483,6101.738 C1788.93483,6096.91 1792.64083,6093.068 1797.40083,6093.068 C1801.65083,6093.068 1804.94883,6096.128 1804.94883,6100.548 Z M1797.33283,6095.448 C1794.54483,6095.448 1792.33483,6097.352 1791.79083,6100.208 L1802.26283,6100.208 C1802.22883,6097.148 1799.98483,6095.448 1797.33283,6095.448 Z M1820.30219,6085.214 C1821.35619,6085.214 1822.24019,6086.064 1822.24019,6087.118 C1822.24019,6088.206 1821.35619,6089.022 1820.30219,6089.022 C1819.18019,6089.022 1818.33019,6088.206 1818.33019,6087.118 C1818.33019,6086.064 1819.18019,6085.214 1820.30219,6085.214 Z M1821.59419,6093.442 L1821.59419,6110 L1818.97619,6110 L1818.97619,6093.442 L1821.59419,6093.442 Z M1834.84687,6093.068 C1838.75687,6093.068 1841.00087,6095.754 1841.00087,6099.596 L1841.00087,6110 L1838.38287,6110 L1838.38287,6099.902 C1838.38287,6097.284 1836.81887,6095.482 1834.26887,6095.482 C1831.71887,6095.482 1829.91687,6097.318 1829.91687,6099.902 L1829.91687,6110 L1827.29887,6110 L1827.29887,6093.442 L1829.74687,6093.442 L1829.74687,6095.244 C1830.90287,6093.884 1832.70487,6093.068 1834.84687,6093.068 Z M1863.46024,6093.068 C1868.25424,6093.068 1872.13024,6096.842 1872.13024,6101.704 C1872.13024,6106.532 1868.25424,6110.34 1863.42624,6110.34 C1858.63224,6110.306 1854.79024,6106.566 1854.79024,6101.704 C1854.79024,6096.842 1858.59824,6093.068 1863.46024,6093.068 Z M1863.46024,6095.482 C1859.99224,6095.482 1857.44224,6098.202 1857.47624,6101.738 C1857.47624,6105.24 1859.99224,6107.926 1863.42624,6107.926 C1866.86024,6107.926 1869.44424,6105.206 1869.44424,6101.738 C1869.44424,6098.168 1866.86024,6095.482 1863.46024,6095.482 Z M1884.26092,6093.306 C1884.80492,6093.306 1885.14492,6093.374 1885.48492,6093.442 L1885.48492,6095.754 L1884.49892,6095.754 C1881.81292,6095.754 1879.29692,6097.454 1879.29692,6100.616 L1879.29692,6110 L1876.67892,6110 L1876.67892,6093.442 L1879.12692,6093.442 L1879.12692,6095.822 C1880.35092,6094.19 1882.28892,6093.306 1884.26092,6093.306 Z M1901.7296,6084.5 L1904.3476,6084.5 L1904.3476,6110 L1901.8656,6110 L1901.8656,6107.348 C1900.5736,6109.252 1898.2276,6110.374 1895.6096,6110.374 C1890.8836,6110.374 1887.4156,6106.6 1887.4156,6101.738 C1887.4156,6096.842 1890.8836,6093.068 1895.6096,6093.068 C1898.1256,6093.068 1900.4036,6094.122 1901.7296,6095.89 L1901.7296,6084.5 Z M1895.9836,6107.96 C1898.8396,6107.96 1901.7636,6106.09 1901.7636,6101.738 C1901.7636,6097.386 1898.8396,6095.482 1895.9836,6095.482 C1892.6176,6095.482 1890.1016,6098.1 1890.1016,6101.704 C1890.1016,6105.308 1892.5836,6107.96 1895.9836,6107.96 Z M1924.87628,6100.548 C1924.87628,6101.432 1924.74028,6102.214 1924.67228,6102.52 L1911.61628,6102.52 C1911.95628,6105.818 1914.40428,6107.96 1917.66828,6107.96 C1919.74228,6107.96 1921.37428,6107.076 1922.73428,6105.716 L1924.26428,6107.484 C1922.59828,6109.252 1920.35428,6110.374 1917.63428,6110.374 C1912.63628,6110.374 1908.86228,6106.6 1908.86228,6101.738 C1908.86228,6096.91 1912.56828,6093.068 1917.32828,6093.068 C1921.57828,6093.068 1924.87628,6096.128 1924.87628,6100.548 Z M1917.26028,6095.448 C1914.47228,6095.448 1912.26228,6097.352 1911.71828,6100.208 L1922.19028,6100.208 C1922.15628,6097.148 1919.91228,6095.448 1917.26028,6095.448 Z M1937.00696,6093.306 C1937.55096,6093.306 1937.89096,6093.374 1938.23096,6093.442 L1938.23096,6095.754 L1937.24496,6095.754 C1934.55896,6095.754 1932.04296,6097.454 1932.04296,6100.616 L1932.04296,6110 L1929.42496,6110 L1929.42496,6093.442 L1931.87296,6093.442 L1931.87296,6095.822 C1933.09696,6094.19 1935.03496,6093.306 1937.00696,6093.306 Z M1958.00432,6107.994 C1958.65032,6107.994 1959.36432,6107.926 1960.21432,6107.79 L1960.21432,6110 C1959.36432,6110.204 1958.51432,6110.374 1957.46032,6110.374 C1954.19632,6110.374 1951.88432,6108.776 1951.88432,6105.002 L1951.88432,6095.788 L1949.09632,6095.788 L1949.09632,6093.442 L1951.88432,6093.442 L1951.88432,6088.92 L1954.50232,6088.92 L1954.50232,6093.442 L1959.67032,6093.442 L1959.67032,6095.788 L1954.50232,6095.788 L1954.50232,6104.832 C1954.50232,6107.314 1955.93032,6107.994 1958.00432,6107.994 Z M1971.223,6093.068 C1976.017,6093.068 1979.893,6096.842 1979.893,6101.704 C1979.893,6106.532 1976.017,6110.34 1971.189,6110.34 C1966.395,6110.306 1962.553,6106.566 1962.553,6101.704 C1962.553,6096.842 1966.361,6093.068 1971.223,6093.068 Z M1971.223,6095.482 C1967.755,6095.482 1965.205,6098.202 1965.239,6101.738 C1965.239,6105.24 1967.755,6107.926 1971.189,6107.926 C1974.623,6107.926 1977.207,6105.206 1977.207,6101.738 C1977.207,6098.168 1974.623,6095.482 1971.223,6095.482 Z M2004.66436,6093.442 L2007.45236,6093.442 L1999.66636,6110.374 L1998.71436,6110.374 L1990.89436,6093.442 L1993.68236,6093.442 L1999.19036,6105.92 L2004.66436,6093.442 Z M2012.51104,6085.214 C2013.56504,6085.214 2014.44904,6086.064 2014.44904,6087.118 C2014.44904,6088.206 2013.56504,6089.022 2012.51104,6089.022 C2011.38904,6089.022 2010.53904,6088.206 2010.53904,6087.118 C2010.53904,6086.064 2011.38904,6085.214 2012.51104,6085.214 Z M2013.80304,6093.442 L2013.80304,6110 L2011.18504,6110 L2011.18504,6093.442 L2013.80304,6093.442 Z M2034.33172,6100.548 C2034.33172,6101.432 2034.19572,6102.214 2034.12772,6102.52 L2021.07172,6102.52 C2021.41172,6105.818 2023.85972,6107.96 2027.12372,6107.96 C2029.19772,6107.96 2030.82972,6107.076 2032.18972,6105.716 L2033.71972,6107.484 C2032.05372,6109.252 2029.80972,6110.374 2027.08972,6110.374 C2022.09172,6110.374 2018.31772,6106.6 2018.31772,6101.738 C2018.31772,6096.91 2022.02372,6093.068 2026.78372,6093.068 C2031.03372,6093.068 2034.33172,6096.128 2034.33172,6100.548 Z M2026.71572,6095.448 C2023.92772,6095.448 2021.71772,6097.352 2021.17372,6100.208 L2031.64572,6100.208 C2031.61172,6097.148 2029.36772,6095.448 2026.71572,6095.448 Z M2060.5384,6093.442 L2063.3264,6093.442 L2056.3564,6110.374 L2055.4044,6110.374 L2049.7604,6097.862 L2044.1504,6110.374 L2043.2324,6110.374 L2036.1944,6093.442 L2038.9824,6093.442 L2043.7424,6105.682 L2049.2844,6093.068 L2050.2704,6093.068 L2055.8464,6105.614 L2060.5384,6093.442 Z M2083.40576,6107.994 C2084.05176,6107.994 2084.76576,6107.926 2085.61576,6107.79 L2085.61576,6110 C2084.76576,6110.204 2083.91576,6110.374 2082.86176,6110.374 C2079.59776,6110.374 2077.28576,6108.776 2077.28576,6105.002 L2077.28576,6095.788 L2074.49776,6095.788 L2074.49776,6093.442 L2077.28576,6093.442 L2077.28576,6088.92 L2079.90376,6088.92 L2079.90376,6093.442 L2085.07176,6093.442 L2085.07176,6095.788 L2079.90376,6095.788 L2079.90376,6104.832 C2079.90376,6107.314 2081.33176,6107.994 2083.40576,6107.994 Z M2097.06644,6093.068 C2100.94244,6093.068 2103.18644,6095.754 2103.18644,6099.596 L2103.18644,6110 L2100.56844,6110 L2100.56844,6099.936 C2100.56844,6097.318 2099.00444,6095.482 2096.45444,6095.482 C2093.90444,6095.482 2092.10244,6097.352 2092.10244,6099.936 L2092.10244,6110 L2089.48444,6110 L2089.48444,6084.5 L2092.10244,6084.5 L2092.10244,6095.312 C2093.19044,6093.918 2094.92444,6093.068 2097.06644,6093.068 Z M2123.51113,6100.548 C2123.51113,6101.432 2123.37513,6102.214 2123.30713,6102.52 L2110.25113,6102.52 C2110.59113,6105.818 2113.03913,6107.96 2116.30313,6107.96 C2118.37713,6107.96 2120.00913,6107.076 2121.36913,6105.716 L2122.89913,6107.484 C2121.23313,6109.252 2118.98913,6110.374 2116.26913,6110.374 C2111.27113,6110.374 2107.49713,6106.6 2107.49713,6101.738 C2107.49713,6096.91 2111.20313,6093.068 2115.96313,6093.068 C2120.21313,6093.068 2123.51113,6096.128 2123.51113,6100.548 Z M2115.89513,6095.448 C2113.10713,6095.448 2110.89713,6097.352 2110.35313,6100.208 L2120.82513,6100.208 C2120.79113,6097.148 2118.54713,6095.448 2115.89513,6095.448 Z M2143.48849,6093.068 C2147.26249,6093.068 2149.94849,6095.346 2149.94849,6099.8 L2149.94849,6110 L2147.50049,6110 L2147.50049,6107.858 C2146.31049,6109.456 2144.37249,6110.374 2141.92449,6110.374 C2138.59249,6110.374 2136.14449,6108.606 2136.14449,6105.716 C2136.14449,6102.928 2138.49049,6101.092 2142.09449,6101.092 L2147.33049,6101.092 L2147.33049,6099.664 C2147.33049,6096.876 2145.76649,6095.482 2143.31849,6095.482 C2141.24449,6095.482 2139.78249,6096.468 2138.49049,6098.134 L2136.75649,6096.706 C2138.32049,6094.19 2140.83649,6093.068 2143.48849,6093.068 Z M2142.26449,6108.198 C2144.98449,6108.198 2147.33049,6106.226 2147.33049,6103.642 L2147.33049,6103.234 L2142.40049,6103.234 C2140.08849,6103.234 2138.83049,6104.016 2138.83049,6105.58 C2138.83049,6107.348 2140.42849,6108.198 2142.26449,6108.198 Z M2162.99717,6093.068 C2166.90717,6093.068 2169.15117,6095.754 2169.15117,6099.596 L2169.15117,6110 L2166.53317,6110 L2166.53317,6099.902 C2166.53317,6097.284 2164.96917,6095.482 2162.41917,6095.482 C2159.86917,6095.482 2158.06717,6097.318 2158.06717,6099.902 L2158.06717,6110 L2155.44917,6110 L2155.44917,6093.442 L2157.89717,6093.442 L2157.89717,6095.244 C2159.05317,6093.884 2160.85517,6093.068 2162.99717,6093.068 Z M2180.60185,6093.068 C2184.37585,6093.068 2187.06185,6095.346 2187.06185,6099.8 L2187.06185,6110 L2184.61385,6110 L2184.61385,6107.858 C2183.42385,6109.456 2181.48585,6110.374 2179.03785,6110.374 C2175.70585,6110.374 2173.25785,6108.606 2173.25785,6105.716 C2173.25785,6102.928 2175.60385,6101.092 2179.20785,6101.092 L2184.44385,6101.092 L2184.44385,6099.664 C2184.44385,6096.876 2182.87985,6095.482 2180.43185,6095.482 C2178.35785,6095.482 2176.89585,6096.468 2175.60385,6098.134 L2173.86985,6096.706 C2175.43385,6094.19 2177.94985,6093.068 2180.60185,6093.068 Z M2179.37785,6108.198 C2182.09785,6108.198 2184.44385,6106.226 2184.44385,6103.642 L2184.44385,6103.234 L2179.51385,6103.234 C2177.20185,6103.234 2175.94385,6104.016 2175.94385,6105.58 C2175.94385,6107.348 2177.54185,6108.198 2179.37785,6108.198 Z M2195.18053,6084.5 L2195.18053,6110 L2192.56253,6110 L2192.56253,6084.5 L2195.18053,6084.5 Z M2212.64921,6093.442 L2215.43721,6093.442 L2207.27721,6112.312 C2205.98521,6115.27 2204.18321,6116.494 2201.66721,6116.494 C2200.85121,6116.494 2199.89921,6116.358 2199.11721,6116.154 L2199.11721,6113.944 C2199.89921,6114.046 2200.54521,6114.114 2201.12321,6114.114 C2202.72121,6114.114 2203.94521,6113.57 2204.86321,6111.462 L2205.74721,6109.456 L2198.87921,6093.442 L2201.70121,6093.442 L2207.17521,6106.634 L2212.64921,6093.442 Z M2226.00389,6107.994 C2226.64989,6107.994 2227.36389,6107.926 2228.21389,6107.79 L2228.21389,6110 C2227.36389,6110.204 2226.51389,6110.374 2225.45989,6110.374 C2222.19589,6110.374 2219.88389,6108.776 2219.88389,6105.002 L2219.88389,6095.788 L2217.09589,6095.788 L2217.09589,6093.442 L2219.88389,6093.442 L2219.88389,6088.92 L2222.50189,6088.92 L2222.50189,6093.442 L2227.66989,6093.442 L2227.66989,6095.788 L2222.50189,6095.788 L2222.50189,6104.832 C2222.50189,6107.314 2223.92989,6107.994 2226.00389,6107.994 Z M2233.40857,6085.214 C2234.46257,6085.214 2235.34657,6086.064 2235.34657,6087.118 C2235.34657,6088.206 2234.46257,6089.022 2233.40857,6089.022 C2232.28657,6089.022 2231.43657,6088.206 2231.43657,6087.118 C2231.43657,6086.064 2232.28657,6085.214 2233.40857,6085.214 Z M2234.70057,6093.442 L2234.70057,6110 L2232.08257,6110 L2232.08257,6093.442 L2234.70057,6093.442 Z M2247.88525,6093.068 C2250.87725,6093.068 2253.25725,6094.496 2254.71925,6096.672 L2252.84925,6098.168 C2251.62525,6096.536 2250.06125,6095.482 2247.91925,6095.482 C2244.45125,6095.482 2241.90125,6098.236 2241.90125,6101.704 C2241.90125,6105.206 2244.45125,6107.96 2247.91925,6107.96 C2250.02725,6107.96 2251.59125,6106.94 2252.81525,6105.308 L2254.68525,6106.77 C2253.22325,6108.946 2250.84325,6110.374 2247.88525,6110.374 C2243.05725,6110.374 2239.21525,6106.566 2239.21525,6101.704 C2239.21525,6096.876 2243.05725,6093.068 2247.88525,6093.068 Z M2264.09593,6093.068 C2266.47593,6093.068 2268.34593,6094.088 2269.63793,6095.686 L2268.03993,6097.318 C2266.95193,6096.196 2265.52393,6095.482 2263.95993,6095.482 C2262.39593,6095.482 2261.20593,6096.196 2261.20593,6097.556 C2261.20593,6098.678 2262.05593,6099.222 2263.89193,6099.97 L2265.42193,6100.616 C2268.41393,6101.874 2269.80793,6103.166 2269.80793,6105.512 C2269.80793,6108.742 2267.05393,6110.374 2263.99393,6110.374 C2261.06993,6110.374 2258.85993,6108.912 2257.53393,6107.144 L2259.19993,6105.41 C2260.55993,6106.838 2261.95393,6107.96 2263.95993,6107.96 C2265.69393,6107.96 2267.12193,6107.11 2267.12193,6105.614 C2267.12193,6104.186 2265.89793,6103.642 2264.23193,6102.962 L2262.63393,6102.282 C2260.11793,6101.228 2258.51993,6100.072 2258.51993,6097.692 C2258.51993,6094.7 2261.06993,6093.068 2264.09593,6093.068 Z M2291.45129,6093.068 C2296.24529,6093.068 2300.12129,6096.842 2300.12129,6101.704 C2300.12129,6106.532 2296.24529,6110.34 2291.41729,6110.34 C2286.62329,6110.306 2282.78129,6106.566 2282.78129,6101.704 C2282.78129,6096.842 2286.58929,6093.068 2291.45129,6093.068 Z M2291.45129,6095.482 C2287.98329,6095.482 2285.43329,6098.202 2285.46729,6101.738 C2285.46729,6105.24 2287.98329,6107.926 2291.41729,6107.926 C2294.85129,6107.926 2297.43529,6105.206 2297.43529,6101.738 C2297.43529,6098.168 2294.85129,6095.482 2291.45129,6095.482 Z M2311.16397,6086.506 C2309.12397,6086.506 2307.69597,6087.186 2307.69597,6089.668 L2307.69597,6093.442 L2311.84397,6093.442 L2311.84397,6095.788 L2307.69597,6095.788 L2307.69597,6110 L2305.07797,6110 L2305.07797,6095.788 L2302.69797,6095.788 L2302.69797,6093.442 L2305.07797,6093.442 L2305.07797,6089.498 C2305.07797,6085.724 2307.35597,6084.126 2310.55197,6084.126 C2311.36797,6084.126 2312.01397,6084.228 2312.62597,6084.398 L2312.62597,6086.608 C2312.08197,6086.54 2311.60597,6086.506 2311.16397,6086.506 Z M2330.22333,6107.994 C2330.86933,6107.994 2331.58333,6107.926 2332.43333,6107.79 L2332.43333,6110 C2331.58333,6110.204 2330.73333,6110.374 2329.67933,6110.374 C2326.41533,6110.374 2324.10333,6108.776 2324.10333,6105.002 L2324.10333,6095.788 L2321.31533,6095.788 L2321.31533,6093.442 L2324.10333,6093.442 L2324.10333,6088.92 L2326.72133,6088.92 L2326.72133,6093.442 L2331.88933,6093.442 L2331.88933,6095.788 L2326.72133,6095.788 L2326.72133,6104.832 C2326.72133,6107.314 2328.14933,6107.994 2330.22333,6107.994 Z M2343.88401,6093.068 C2347.76001,6093.068 2350.00401,6095.754 2350.00401,6099.596 L2350.00401,6110 L2347.38601,6110 L2347.38601,6099.936 C2347.38601,6097.318 2345.82201,6095.482 2343.27201,6095.482 C2340.72201,6095.482 2338.92001,6097.352 2338.92001,6099.936 L2338.92001,6110 L2336.30201,6110 L2336.30201,6084.5 L2338.92001,6084.5 L2338.92001,6095.312 C2340.00801,6093.918 2341.74201,6093.068 2343.88401,6093.068 Z M2370.32869,6100.548 C2370.32869,6101.432 2370.19269,6102.214 2370.12469,6102.52 L2357.06869,6102.52 C2357.40869,6105.818 2359.85669,6107.96 2363.12069,6107.96 C2365.19469,6107.96 2366.82669,6107.076 2368.18669,6105.716 L2369.71669,6107.484 C2368.05069,6109.252 2365.80669,6110.374 2363.08669,6110.374 C2358.08869,6110.374 2354.31469,6106.6 2354.31469,6101.738 C2354.31469,6096.91 2358.02069,6093.068 2362.78069,6093.068 C2367.03069,6093.068 2370.32869,6096.128 2370.32869,6100.548 Z M2362.71269,6095.448 C2359.92469,6095.448 2357.71469,6097.352 2357.17069,6100.208 L2367.64269,6100.208 C2367.60869,6097.148 2365.36469,6095.448 2362.71269,6095.448 Z M2376.20338,6085.214 C2377.25738,6085.214 2378.14138,6086.064 2378.14138,6087.118 C2378.14138,6088.206 2377.25738,6089.022 2376.20338,6089.022 C2375.08138,6089.022 2374.23138,6088.206 2374.23138,6087.118 C2374.23138,6086.064 2375.08138,6085.214 2376.20338,6085.214 Z M2377.49538,6093.442 L2377.49538,6110 L2374.87738,6110 L2374.87738,6093.442 L2377.49538,6093.442 Z M2390.78206,6093.306 C2391.32606,6093.306 2391.66606,6093.374 2392.00606,6093.442 L2392.00606,6095.754 L2391.02006,6095.754 C2388.33406,6095.754 2385.81806,6097.454 2385.81806,6100.616 L2385.81806,6110 L2383.20006,6110 L2383.20006,6093.442 L2385.64806,6093.442 L2385.64806,6095.822 C2386.87206,6094.19 2388.81006,6093.306 2390.78206,6093.306 Z M2410.89542,6093.068 C2414.66942,6093.068 2417.35542,6095.346 2417.35542,6099.8 L2417.35542,6110 L2414.90742,6110 L2414.90742,6107.858 C2413.71742,6109.456 2411.77942,6110.374 2409.33142,6110.374 C2405.99942,6110.374 2403.55142,6108.606 2403.55142,6105.716 C2403.55142,6102.928 2405.89742,6101.092 2409.50142,6101.092 L2414.73742,6101.092 L2414.73742,6099.664 C2414.73742,6096.876 2413.17342,6095.482 2410.72542,6095.482 C2408.65142,6095.482 2407.18942,6096.468 2405.89742,6098.134 L2404.16342,6096.706 C2405.72742,6094.19 2408.24342,6093.068 2410.89542,6093.068 Z M2409.67142,6108.198 C2412.39142,6108.198 2414.73742,6106.226 2414.73742,6103.642 L2414.73742,6103.234 L2409.80742,6103.234 C2407.49542,6103.234 2406.23742,6104.016 2406.23742,6105.58 C2406.23742,6107.348 2407.83542,6108.198 2409.67142,6108.198 Z M2435.9801,6084.5 L2438.5981,6084.5 L2438.5981,6110 L2436.1161,6110 L2436.1161,6107.348 C2434.8241,6109.252 2432.4781,6110.374 2429.8601,6110.374 C2425.1341,6110.374 2421.6661,6106.6 2421.6661,6101.738 C2421.6661,6096.842 2425.1341,6093.068 2429.8601,6093.068 C2432.3761,6093.068 2434.6541,6094.122 2435.9801,6095.89 L2435.9801,6084.5 Z M2430.2341,6107.96 C2433.0901,6107.96 2436.0141,6106.09 2436.0141,6101.738 C2436.0141,6097.386 2433.0901,6095.482 2430.2341,6095.482 C2426.8681,6095.482 2424.3521,6098.1 2424.3521,6101.704 C2424.3521,6105.308 2426.8341,6107.96 2430.2341,6107.96 Z M2446.00278,6106.09 C2447.15878,6106.09 2448.14478,6106.974 2448.14478,6108.232 C2448.14478,6109.49 2447.15878,6110.374 2446.00278,6110.374 C2444.84678,6110.374 2443.86078,6109.49 2443.86078,6108.232 C2443.86078,6106.974 2444.84678,6106.09 2446.00278,6106.09 Z" id="spare8"></path>
        </g>
    </g>
</svg>