<?xml version="1.0" encoding="UTF-8"?>
<svg width="780px" height="147px" viewBox="0 0 780 147" version="1.1" xmlns="http://www.w3.org/2000/svg" xmlns:xlink="http://www.w3.org/1999/xlink">
    <!-- Generator: Sketch 53.2 (72643) - https://sketchapp.com -->
    <title>spare3</title>
    <desc>Created with Sketch.</desc>
    <g id="Page-1" stroke="none" stroke-width="1" fill="none" fill-rule="evenodd">
        <g id="Artboard" transform="translate(-1572.000000, -4428.000000)" fill="#404648" fill-rule="nonzero">
            <path d="M1642.78837,4431.56 L1642.78837,4433.94 L1634.86637,4433.94 L1634.86637,4454 L1632.21437,4454 L1632.21437,4433.94 L1624.32637,4433.94 L1624.32637,4431.56 L1642.78837,4431.56 Z M1653.86505,4437.068 C1657.74105,4437.068 1659.98505,4439.754 1659.98505,4443.596 L1659.98505,4454 L1657.36705,4454 L1657.36705,4443.936 C1657.36705,4441.318 1655.80305,4439.482 1653.25305,4439.482 C1650.70305,4439.482 1648.90105,4441.352 1648.90105,4443.936 L1648.90105,4454 L1646.28305,4454 L1646.28305,4428.5 L1648.90105,4428.5 L1648.90105,4439.312 C1649.98905,4437.918 1651.72305,4437.068 1653.86505,4437.068 Z M1680.30973,4444.548 C1680.30973,4445.432 1680.17373,4446.214 1680.10573,4446.52 L1667.04973,4446.52 C1667.38973,4449.818 1669.83773,4451.96 1673.10173,4451.96 C1675.17573,4451.96 1676.80773,4451.076 1678.16773,4449.716 L1679.69773,4451.484 C1678.03173,4453.252 1675.78773,4454.374 1673.06773,4454.374 C1668.06973,4454.374 1664.29573,4450.6 1664.29573,4445.738 C1664.29573,4440.91 1668.00173,4437.068 1672.76173,4437.068 C1677.01173,4437.068 1680.30973,4440.128 1680.30973,4444.548 Z M1672.69373,4439.448 C1669.90573,4439.448 1667.69573,4441.352 1667.15173,4444.208 L1677.62373,4444.208 C1677.58973,4441.148 1675.34573,4439.448 1672.69373,4439.448 Z M1707.83509,4437.442 L1707.83509,4447.404 C1707.83509,4451.654 1704.80909,4454.374 1701.00109,4454.374 C1697.12509,4454.374 1694.13309,4451.654 1694.13309,4447.404 L1694.13309,4437.442 L1696.71709,4437.442 L1696.71709,4447.574 C1696.71709,4450.294 1698.62109,4451.96 1701.00109,4451.96 C1703.31309,4451.96 1705.21709,4450.294 1705.21709,4447.574 L1705.21709,4437.442 L1707.83509,4437.442 Z M1718.33377,4437.068 C1720.71377,4437.068 1722.58377,4438.088 1723.87577,4439.686 L1722.27777,4441.318 C1721.18977,4440.196 1719.76177,4439.482 1718.19777,4439.482 C1716.63377,4439.482 1715.44377,4440.196 1715.44377,4441.556 C1715.44377,4442.678 1716.29377,4443.222 1718.12977,4443.97 L1719.65977,4444.616 C1722.65177,4445.874 1724.04577,4447.166 1724.04577,4449.512 C1724.04577,4452.742 1721.29177,4454.374 1718.23177,4454.374 C1715.30777,4454.374 1713.09777,4452.912 1711.77177,4451.144 L1713.43777,4449.41 C1714.79777,4450.838 1716.19177,4451.96 1718.19777,4451.96 C1719.93177,4451.96 1721.35977,4451.11 1721.35977,4449.614 C1721.35977,4448.186 1720.13577,4447.642 1718.46977,4446.962 L1716.87177,4446.282 C1714.35577,4445.228 1712.75777,4444.072 1712.75777,4441.692 C1712.75777,4438.7 1715.30777,4437.068 1718.33377,4437.068 Z M1743.55445,4444.548 C1743.55445,4445.432 1743.41845,4446.214 1743.35045,4446.52 L1730.29445,4446.52 C1730.63445,4449.818 1733.08245,4451.96 1736.34645,4451.96 C1738.42045,4451.96 1740.05245,4451.076 1741.41245,4449.716 L1742.94245,4451.484 C1741.27645,4453.252 1739.03245,4454.374 1736.31245,4454.374 C1731.31445,4454.374 1727.54045,4450.6 1727.54045,4445.738 C1727.54045,4440.91 1731.24645,4437.068 1736.00645,4437.068 C1740.25645,4437.068 1743.55445,4440.128 1743.55445,4444.548 Z M1735.93845,4439.448 C1733.15045,4439.448 1730.94045,4441.352 1730.39645,4444.208 L1740.86845,4444.208 C1740.83445,4441.148 1738.59045,4439.448 1735.93845,4439.448 Z M1755.68513,4437.306 C1756.22913,4437.306 1756.56913,4437.374 1756.90913,4437.442 L1756.90913,4439.754 L1755.92313,4439.754 C1753.23713,4439.754 1750.72113,4441.454 1750.72113,4444.616 L1750.72113,4454 L1748.10313,4454 L1748.10313,4437.442 L1750.55113,4437.442 L1750.55113,4439.822 C1751.77513,4438.19 1753.71313,4437.306 1755.68513,4437.306 Z M1764.21181,4431.56 L1762.74981,4440.298 L1760.67581,4440.298 L1761.15181,4431.56 L1764.21181,4431.56 Z M1774.50649,4437.068 C1776.88649,4437.068 1778.75649,4438.088 1780.04849,4439.686 L1778.45049,4441.318 C1777.36249,4440.196 1775.93449,4439.482 1774.37049,4439.482 C1772.80649,4439.482 1771.61649,4440.196 1771.61649,4441.556 C1771.61649,4442.678 1772.46649,4443.222 1774.30249,4443.97 L1775.83249,4444.616 C1778.82449,4445.874 1780.21849,4447.166 1780.21849,4449.512 C1780.21849,4452.742 1777.46449,4454.374 1774.40449,4454.374 C1771.48049,4454.374 1769.27049,4452.912 1767.94449,4451.144 L1769.61049,4449.41 C1770.97049,4450.838 1772.36449,4451.96 1774.37049,4451.96 C1776.10449,4451.96 1777.53249,4451.11 1777.53249,4449.614 C1777.53249,4448.186 1776.30849,4447.642 1774.64249,4446.962 L1773.04449,4446.282 C1770.52849,4445.228 1768.93049,4444.072 1768.93049,4441.692 C1768.93049,4438.7 1771.48049,4437.068 1774.50649,4437.068 Z M1803.08585,4437.068 C1807.84585,4437.068 1811.27985,4440.842 1811.27985,4445.704 C1811.27985,4450.6 1807.81185,4454.374 1803.08585,4454.374 C1800.63785,4454.374 1798.32585,4453.354 1796.99985,4451.586 L1796.99985,4460.12 L1794.38185,4460.12 L1794.38185,4437.442 L1796.82985,4437.442 L1796.82985,4440.094 C1798.12185,4438.19 1800.46785,4437.068 1803.08585,4437.068 Z M1802.71185,4451.96 C1806.07785,4451.96 1808.59385,4449.342 1808.59385,4445.738 C1808.59385,4442.134 1806.11185,4439.482 1802.71185,4439.482 C1799.85585,4439.482 1796.96585,4441.352 1796.96585,4445.704 C1796.96585,4450.056 1799.82185,4451.96 1802.71185,4451.96 Z M1823.41053,4437.306 C1823.95453,4437.306 1824.29453,4437.374 1824.63453,4437.442 L1824.63453,4439.754 L1823.64853,4439.754 C1820.96253,4439.754 1818.44653,4441.454 1818.44653,4444.616 L1818.44653,4454 L1815.82853,4454 L1815.82853,4437.442 L1818.27653,4437.442 L1818.27653,4439.822 C1819.50053,4438.19 1821.43853,4437.306 1823.41053,4437.306 Z M1835.23522,4437.068 C1840.02922,4437.068 1843.90522,4440.842 1843.90522,4445.704 C1843.90522,4450.532 1840.02922,4454.34 1835.20122,4454.34 C1830.40722,4454.306 1826.56522,4450.566 1826.56522,4445.704 C1826.56522,4440.842 1830.37322,4437.068 1835.23522,4437.068 Z M1835.23522,4439.482 C1831.76722,4439.482 1829.21722,4442.202 1829.25122,4445.738 C1829.25122,4449.24 1831.76722,4451.926 1835.20122,4451.926 C1838.63522,4451.926 1841.21922,4449.206 1841.21922,4445.738 C1841.21922,4442.168 1838.63522,4439.482 1835.23522,4439.482 Z M1854.9479,4430.506 C1852.9079,4430.506 1851.4799,4431.186 1851.4799,4433.668 L1851.4799,4437.442 L1855.6279,4437.442 L1855.6279,4439.788 L1851.4799,4439.788 L1851.4799,4454 L1848.8619,4454 L1848.8619,4439.788 L1846.4819,4439.788 L1846.4819,4437.442 L1848.8619,4437.442 L1848.8619,4433.498 C1848.8619,4429.724 1851.1399,4428.126 1854.3359,4428.126 C1855.1519,4428.126 1855.7979,4428.228 1856.4099,4428.398 L1856.4099,4430.608 C1855.8659,4430.54 1855.3899,4430.506 1854.9479,4430.506 Z M1860.55058,4429.214 C1861.60458,4429.214 1862.48858,4430.064 1862.48858,4431.118 C1862.48858,4432.206 1861.60458,4433.022 1860.55058,4433.022 C1859.42858,4433.022 1858.57858,4432.206 1858.57858,4431.118 C1858.57858,4430.064 1859.42858,4429.214 1860.55058,4429.214 Z M1861.84258,4437.442 L1861.84258,4454 L1859.22458,4454 L1859.22458,4437.442 L1861.84258,4437.442 Z M1870.16526,4428.5 L1870.16526,4454 L1867.54726,4454 L1867.54726,4428.5 L1870.16526,4428.5 Z M1890.69394,4444.548 C1890.69394,4445.432 1890.55794,4446.214 1890.48994,4446.52 L1877.43394,4446.52 C1877.77394,4449.818 1880.22194,4451.96 1883.48594,4451.96 C1885.55994,4451.96 1887.19194,4451.076 1888.55194,4449.716 L1890.08194,4451.484 C1888.41594,4453.252 1886.17194,4454.374 1883.45194,4454.374 C1878.45394,4454.374 1874.67994,4450.6 1874.67994,4445.738 C1874.67994,4440.91 1878.38594,4437.068 1883.14594,4437.068 C1887.39594,4437.068 1890.69394,4440.128 1890.69394,4444.548 Z M1883.07794,4439.448 C1880.28994,4439.448 1878.07994,4441.352 1877.53594,4444.208 L1888.00794,4444.208 C1887.97394,4441.148 1885.72994,4439.448 1883.07794,4439.448 Z M1912.3033,4437.068 C1916.1793,4437.068 1918.4233,4439.754 1918.4233,4443.596 L1918.4233,4454 L1915.8053,4454 L1915.8053,4443.936 C1915.8053,4441.318 1914.2413,4439.482 1911.6913,4439.482 C1909.1413,4439.482 1907.3393,4441.352 1907.3393,4443.936 L1907.3393,4454 L1904.7213,4454 L1904.7213,4428.5 L1907.3393,4428.5 L1907.3393,4439.312 C1908.4273,4437.918 1910.1613,4437.068 1912.3033,4437.068 Z M1931.40398,4437.068 C1936.19798,4437.068 1940.07398,4440.842 1940.07398,4445.704 C1940.07398,4450.532 1936.19798,4454.34 1931.36998,4454.34 C1926.57598,4454.306 1922.73398,4450.566 1922.73398,4445.704 C1922.73398,4440.842 1926.54198,4437.068 1931.40398,4437.068 Z M1931.40398,4439.482 C1927.93598,4439.482 1925.38598,4442.202 1925.41998,4445.738 C1925.41998,4449.24 1927.93598,4451.926 1931.36998,4451.926 C1934.80398,4451.926 1937.38798,4449.206 1937.38798,4445.738 C1937.38798,4442.168 1934.80398,4439.482 1931.40398,4439.482 Z M1958.12066,4437.442 L1958.12066,4447.404 C1958.12066,4451.654 1955.09466,4454.374 1951.28666,4454.374 C1947.41066,4454.374 1944.41866,4451.654 1944.41866,4447.404 L1944.41866,4437.442 L1947.00266,4437.442 L1947.00266,4447.574 C1947.00266,4450.294 1948.90666,4451.96 1951.28666,4451.96 C1953.59866,4451.96 1955.50266,4450.294 1955.50266,4447.574 L1955.50266,4437.442 L1958.12066,4437.442 Z M1968.61934,4437.068 C1970.99934,4437.068 1972.86934,4438.088 1974.16134,4439.686 L1972.56334,4441.318 C1971.47534,4440.196 1970.04734,4439.482 1968.48334,4439.482 C1966.91934,4439.482 1965.72934,4440.196 1965.72934,4441.556 C1965.72934,4442.678 1966.57934,4443.222 1968.41534,4443.97 L1969.94534,4444.616 C1972.93734,4445.874 1974.33134,4447.166 1974.33134,4449.512 C1974.33134,4452.742 1971.57734,4454.374 1968.51734,4454.374 C1965.59334,4454.374 1963.38334,4452.912 1962.05734,4451.144 L1963.72334,4449.41 C1965.08334,4450.838 1966.47734,4451.96 1968.48334,4451.96 C1970.21734,4451.96 1971.64534,4451.11 1971.64534,4449.614 C1971.64534,4448.186 1970.42134,4447.642 1968.75534,4446.962 L1967.15734,4446.282 C1964.64134,4445.228 1963.04334,4444.072 1963.04334,4441.692 C1963.04334,4438.7 1965.59334,4437.068 1968.61934,4437.068 Z M1993.84002,4444.548 C1993.84002,4445.432 1993.70402,4446.214 1993.63602,4446.52 L1980.58002,4446.52 C1980.92002,4449.818 1983.36802,4451.96 1986.63202,4451.96 C1988.70602,4451.96 1990.33802,4451.076 1991.69802,4449.716 L1993.22802,4451.484 C1991.56202,4453.252 1989.31802,4454.374 1986.59802,4454.374 C1981.60002,4454.374 1977.82602,4450.6 1977.82602,4445.738 C1977.82602,4440.91 1981.53202,4437.068 1986.29202,4437.068 C1990.54202,4437.068 1993.84002,4440.128 1993.84002,4444.548 Z M1986.22402,4439.448 C1983.43602,4439.448 1981.22602,4441.352 1980.68202,4444.208 L1991.15402,4444.208 C1991.12002,4441.148 1988.87602,4439.448 1986.22402,4439.448 Z M2011.5127,4428.5 L2014.1307,4428.5 L2014.1307,4454 L2011.6487,4454 L2011.6487,4451.348 C2010.3567,4453.252 2008.0107,4454.374 2005.3927,4454.374 C2000.6667,4454.374 1997.1987,4450.6 1997.1987,4445.738 C1997.1987,4440.842 2000.6667,4437.068 2005.3927,4437.068 C2007.9087,4437.068 2010.1867,4438.122 2011.5127,4439.89 L2011.5127,4428.5 Z M2005.7667,4451.96 C2008.6227,4451.96 2011.5467,4450.09 2011.5467,4445.738 C2011.5467,4441.386 2008.6227,4439.482 2005.7667,4439.482 C2002.4007,4439.482 1999.8847,4442.1 1999.8847,4445.704 C1999.8847,4449.308 2002.3667,4451.96 2005.7667,4451.96 Z M2036.86206,4437.068 C2040.77206,4437.068 2043.01606,4439.754 2043.01606,4443.596 L2043.01606,4454 L2040.39806,4454 L2040.39806,4443.902 C2040.39806,4441.284 2038.83406,4439.482 2036.28406,4439.482 C2033.73406,4439.482 2031.93206,4441.318 2031.93206,4443.902 L2031.93206,4454 L2029.31406,4454 L2029.31406,4437.442 L2031.76206,4437.442 L2031.76206,4439.244 C2032.91806,4437.884 2034.72006,4437.068 2036.86206,4437.068 Z M2055.99674,4437.068 C2060.79074,4437.068 2064.66674,4440.842 2064.66674,4445.704 C2064.66674,4450.532 2060.79074,4454.34 2055.96274,4454.34 C2051.16874,4454.306 2047.32674,4450.566 2047.32674,4445.704 C2047.32674,4440.842 2051.13474,4437.068 2055.99674,4437.068 Z M2055.99674,4439.482 C2052.52874,4439.482 2049.97874,4442.202 2050.01274,4445.738 C2050.01274,4449.24 2052.52874,4451.926 2055.96274,4451.926 C2059.39674,4451.926 2061.98074,4449.206 2061.98074,4445.738 C2061.98074,4442.168 2059.39674,4439.482 2055.99674,4439.482 Z M2076.04942,4451.994 C2076.69542,4451.994 2077.40942,4451.926 2078.25942,4451.79 L2078.25942,4454 C2077.40942,4454.204 2076.55942,4454.374 2075.50542,4454.374 C2072.24142,4454.374 2069.92942,4452.776 2069.92942,4449.002 L2069.92942,4439.788 L2067.14142,4439.788 L2067.14142,4437.442 L2069.92942,4437.442 L2069.92942,4432.92 L2072.54742,4432.92 L2072.54742,4437.442 L2077.71542,4437.442 L2077.71542,4439.788 L2072.54742,4439.788 L2072.54742,4448.832 C2072.54742,4451.314 2073.97542,4451.994 2076.04942,4451.994 Z M2099.08678,4437.068 C2103.88078,4437.068 2107.75678,4440.842 2107.75678,4445.704 C2107.75678,4450.532 2103.88078,4454.34 2099.05278,4454.34 C2094.25878,4454.306 2090.41678,4450.566 2090.41678,4445.704 C2090.41678,4440.842 2094.22478,4437.068 2099.08678,4437.068 Z M2099.08678,4439.482 C2095.61878,4439.482 2093.06878,4442.202 2093.10278,4445.738 C2093.10278,4449.24 2095.61878,4451.926 2099.05278,4451.926 C2102.48678,4451.926 2105.07078,4449.206 2105.07078,4445.738 C2105.07078,4442.168 2102.48678,4439.482 2099.08678,4439.482 Z M2119.85347,4437.068 C2123.76347,4437.068 2126.00747,4439.754 2126.00747,4443.596 L2126.00747,4454 L2123.38947,4454 L2123.38947,4443.902 C2123.38947,4441.284 2121.82547,4439.482 2119.27547,4439.482 C2116.72547,4439.482 2114.92347,4441.318 2114.92347,4443.902 L2114.92347,4454 L2112.30547,4454 L2112.30547,4437.442 L2114.75347,4437.442 L2114.75347,4439.244 C2115.90947,4437.884 2117.71147,4437.068 2119.85347,4437.068 Z M2134.12615,4428.5 L2134.12615,4454 L2131.50815,4454 L2131.50815,4428.5 L2134.12615,4428.5 Z M2151.59483,4437.442 L2154.38283,4437.442 L2146.22283,4456.312 C2144.93083,4459.27 2143.12883,4460.494 2140.61283,4460.494 C2139.79683,4460.494 2138.84483,4460.358 2138.06283,4460.154 L2138.06283,4457.944 C2138.84483,4458.046 2139.49083,4458.114 2140.06883,4458.114 C2141.66683,4458.114 2142.89083,4457.57 2143.80883,4455.462 L2144.69283,4453.456 L2137.82483,4437.442 L2140.64683,4437.442 L2146.12083,4450.634 L2151.59483,4437.442 Z M2176.29819,4437.068 C2181.05819,4437.068 2184.49219,4440.842 2184.49219,4445.704 C2184.49219,4450.6 2181.02419,4454.374 2176.29819,4454.374 C2173.85019,4454.374 2171.53819,4453.354 2170.21219,4451.586 L2170.21219,4460.12 L2167.59419,4460.12 L2167.59419,4437.442 L2170.04219,4437.442 L2170.04219,4440.094 C2171.33419,4438.19 2173.68019,4437.068 2176.29819,4437.068 Z M2175.92419,4451.96 C2179.29019,4451.96 2181.80619,4449.342 2181.80619,4445.738 C2181.80619,4442.134 2179.32419,4439.482 2175.92419,4439.482 C2173.06819,4439.482 2170.17819,4441.352 2170.17819,4445.704 C2170.17819,4450.056 2173.03419,4451.96 2175.92419,4451.96 Z M2203.86487,4444.548 C2203.86487,4445.432 2203.72887,4446.214 2203.66087,4446.52 L2190.60487,4446.52 C2190.94487,4449.818 2193.39287,4451.96 2196.65687,4451.96 C2198.73087,4451.96 2200.36287,4451.076 2201.72287,4449.716 L2203.25287,4451.484 C2201.58687,4453.252 2199.34287,4454.374 2196.62287,4454.374 C2191.62487,4454.374 2187.85087,4450.6 2187.85087,4445.738 C2187.85087,4440.91 2191.55687,4437.068 2196.31687,4437.068 C2200.56687,4437.068 2203.86487,4440.128 2203.86487,4444.548 Z M2196.24887,4439.448 C2193.46087,4439.448 2191.25087,4441.352 2190.70687,4444.208 L2201.17887,4444.208 C2201.14487,4441.148 2198.90087,4439.448 2196.24887,4439.448 Z M2215.99555,4437.306 C2216.53955,4437.306 2216.87955,4437.374 2217.21955,4437.442 L2217.21955,4439.754 L2216.23355,4439.754 C2213.54755,4439.754 2211.03155,4441.454 2211.03155,4444.616 L2211.03155,4454 L2208.41355,4454 L2208.41355,4437.442 L2210.86155,4437.442 L2210.86155,4439.822 C2212.08555,4438.19 2214.02355,4437.306 2215.99555,4437.306 Z M2225.67823,4437.068 C2228.05823,4437.068 2229.92823,4438.088 2231.22023,4439.686 L2229.62223,4441.318 C2228.53423,4440.196 2227.10623,4439.482 2225.54223,4439.482 C2223.97823,4439.482 2222.78823,4440.196 2222.78823,4441.556 C2222.78823,4442.678 2223.63823,4443.222 2225.47423,4443.97 L2227.00423,4444.616 C2229.99623,4445.874 2231.39023,4447.166 2231.39023,4449.512 C2231.39023,4452.742 2228.63623,4454.374 2225.57623,4454.374 C2222.65223,4454.374 2220.44223,4452.912 2219.11623,4451.144 L2220.78223,4449.41 C2222.14223,4450.838 2223.53623,4451.96 2225.54223,4451.96 C2227.27623,4451.96 2228.70423,4451.11 2228.70423,4449.614 C2228.70423,4448.186 2227.48023,4447.642 2225.81423,4446.962 L2224.21623,4446.282 C2221.70023,4445.228 2220.10223,4444.072 2220.10223,4441.692 C2220.10223,4438.7 2222.65223,4437.068 2225.67823,4437.068 Z M2243.55491,4437.068 C2248.34891,4437.068 2252.22491,4440.842 2252.22491,4445.704 C2252.22491,4450.532 2248.34891,4454.34 2243.52091,4454.34 C2238.72691,4454.306 2234.88491,4450.566 2234.88491,4445.704 C2234.88491,4440.842 2238.69291,4437.068 2243.55491,4437.068 Z M2243.55491,4439.482 C2240.08691,4439.482 2237.53691,4442.202 2237.57091,4445.738 C2237.57091,4449.24 2240.08691,4451.926 2243.52091,4451.926 C2246.95491,4451.926 2249.53891,4449.206 2249.53891,4445.738 C2249.53891,4442.168 2246.95491,4439.482 2243.55491,4439.482 Z M2264.32159,4437.068 C2268.23159,4437.068 2270.47559,4439.754 2270.47559,4443.596 L2270.47559,4454 L2267.85759,4454 L2267.85759,4443.902 C2267.85759,4441.284 2266.29359,4439.482 2263.74359,4439.482 C2261.19359,4439.482 2259.39159,4441.318 2259.39159,4443.902 L2259.39159,4454 L2256.77359,4454 L2256.77359,4437.442 L2259.22159,4437.442 L2259.22159,4439.244 C2260.37759,4437.884 2262.17959,4437.068 2264.32159,4437.068 Z M2281.92627,4437.068 C2285.70027,4437.068 2288.38627,4439.346 2288.38627,4443.8 L2288.38627,4454 L2285.93827,4454 L2285.93827,4451.858 C2284.74827,4453.456 2282.81027,4454.374 2280.36227,4454.374 C2277.03027,4454.374 2274.58227,4452.606 2274.58227,4449.716 C2274.58227,4446.928 2276.92827,4445.092 2280.53227,4445.092 L2285.76827,4445.092 L2285.76827,4443.664 C2285.76827,4440.876 2284.20427,4439.482 2281.75627,4439.482 C2279.68227,4439.482 2278.22027,4440.468 2276.92827,4442.134 L2275.19427,4440.706 C2276.75827,4438.19 2279.27427,4437.068 2281.92627,4437.068 Z M2280.70227,4452.198 C2283.42227,4452.198 2285.76827,4450.226 2285.76827,4447.642 L2285.76827,4447.234 L2280.83827,4447.234 C2278.52627,4447.234 2277.26827,4448.016 2277.26827,4449.58 C2277.26827,4451.348 2278.86627,4452.198 2280.70227,4452.198 Z M2296.50495,4428.5 L2296.50495,4454 L2293.88695,4454 L2293.88695,4428.5 L2296.50495,4428.5 Z M1573.99799,4467.214 C1575.05199,4467.214 1575.93599,4468.064 1575.93599,4469.118 C1575.93599,4470.206 1575.05199,4471.022 1573.99799,4471.022 C1572.87599,4471.022 1572.02599,4470.206 1572.02599,4469.118 C1572.02599,4468.064 1572.87599,4467.214 1573.99799,4467.214 Z M1575.28999,4475.442 L1575.28999,4492 L1572.67199,4492 L1572.67199,4475.442 L1575.28999,4475.442 Z M1588.54267,4475.068 C1592.45267,4475.068 1594.69667,4477.754 1594.69667,4481.596 L1594.69667,4492 L1592.07867,4492 L1592.07867,4481.902 C1592.07867,4479.284 1590.51467,4477.482 1587.96467,4477.482 C1585.41467,4477.482 1583.61267,4479.318 1583.61267,4481.902 L1583.61267,4492 L1580.99467,4492 L1580.99467,4475.442 L1583.44267,4475.442 L1583.44267,4477.244 C1584.59867,4475.884 1586.40067,4475.068 1588.54267,4475.068 Z M1606.69135,4468.506 C1604.65135,4468.506 1603.22335,4469.186 1603.22335,4471.668 L1603.22335,4475.442 L1607.37135,4475.442 L1607.37135,4477.788 L1603.22335,4477.788 L1603.22335,4492 L1600.60535,4492 L1600.60535,4477.788 L1598.22535,4477.788 L1598.22535,4475.442 L1600.60535,4475.442 L1600.60535,4471.498 C1600.60535,4467.724 1602.88335,4466.126 1606.07935,4466.126 C1606.89535,4466.126 1607.54135,4466.228 1608.15335,4466.398 L1608.15335,4468.608 C1607.60935,4468.54 1607.13335,4468.506 1606.69135,4468.506 Z M1617.93803,4475.068 C1622.73203,4475.068 1626.60803,4478.842 1626.60803,4483.704 C1626.60803,4488.532 1622.73203,4492.34 1617.90403,4492.34 C1613.11003,4492.306 1609.26803,4488.566 1609.26803,4483.704 C1609.26803,4478.842 1613.07603,4475.068 1617.93803,4475.068 Z M1617.93803,4477.482 C1614.47003,4477.482 1611.92003,4480.202 1611.95403,4483.738 C1611.95403,4487.24 1614.47003,4489.926 1617.90403,4489.926 C1621.33803,4489.926 1623.92203,4487.206 1623.92203,4483.738 C1623.92203,4480.168 1621.33803,4477.482 1617.93803,4477.482 Z M1638.73871,4475.306 C1639.28271,4475.306 1639.62271,4475.374 1639.96271,4475.442 L1639.96271,4477.754 L1638.97671,4477.754 C1636.29071,4477.754 1633.77471,4479.454 1633.77471,4482.616 L1633.77471,4492 L1631.15671,4492 L1631.15671,4475.442 L1633.60471,4475.442 L1633.60471,4477.822 C1634.82871,4476.19 1636.76671,4475.306 1638.73871,4475.306 Z M1661.57939,4475.068 C1665.45539,4475.068 1667.59739,4477.754 1667.59739,4481.596 L1667.59739,4492 L1664.97939,4492 L1664.97939,4481.936 C1664.97939,4479.318 1663.55139,4477.482 1661.06939,4477.482 C1658.55339,4477.482 1656.81939,4479.386 1656.81939,4481.698 L1656.81939,4492 L1654.20139,4492 L1654.20139,4481.936 C1654.20139,4479.318 1652.70539,4477.482 1650.25739,4477.482 C1647.74139,4477.482 1646.04139,4479.318 1646.04139,4481.936 L1646.04139,4492 L1643.42339,4492 L1643.42339,4475.442 L1645.87139,4475.442 L1645.87139,4477.176 C1647.02739,4475.85 1648.72739,4475.068 1650.80139,4475.068 C1653.28339,4475.068 1654.98339,4476.19 1655.90139,4477.924 C1657.05739,4476.258 1659.02939,4475.068 1661.57939,4475.068 Z M1679.04807,4475.068 C1682.82207,4475.068 1685.50807,4477.346 1685.50807,4481.8 L1685.50807,4492 L1683.06007,4492 L1683.06007,4489.858 C1681.87007,4491.456 1679.93207,4492.374 1677.48407,4492.374 C1674.15207,4492.374 1671.70407,4490.606 1671.70407,4487.716 C1671.70407,4484.928 1674.05007,4483.092 1677.65407,4483.092 L1682.89007,4483.092 L1682.89007,4481.664 C1682.89007,4478.876 1681.32607,4477.482 1678.87807,4477.482 C1676.80407,4477.482 1675.34207,4478.468 1674.05007,4480.134 L1672.31607,4478.706 C1673.88007,4476.19 1676.39607,4475.068 1679.04807,4475.068 Z M1677.82407,4490.198 C1680.54407,4490.198 1682.89007,4488.226 1682.89007,4485.642 L1682.89007,4485.234 L1677.96007,4485.234 C1675.64807,4485.234 1674.39007,4486.016 1674.39007,4487.58 C1674.39007,4489.348 1675.98807,4490.198 1677.82407,4490.198 Z M1697.84275,4489.994 C1698.48875,4489.994 1699.20275,4489.926 1700.05275,4489.79 L1700.05275,4492 C1699.20275,4492.204 1698.35275,4492.374 1697.29875,4492.374 C1694.03475,4492.374 1691.72275,4490.776 1691.72275,4487.002 L1691.72275,4477.788 L1688.93475,4477.788 L1688.93475,4475.442 L1691.72275,4475.442 L1691.72275,4470.92 L1694.34075,4470.92 L1694.34075,4475.442 L1699.50875,4475.442 L1699.50875,4477.788 L1694.34075,4477.788 L1694.34075,4486.832 C1694.34075,4489.314 1695.76875,4489.994 1697.84275,4489.994 Z M1705.24743,4467.214 C1706.30143,4467.214 1707.18543,4468.064 1707.18543,4469.118 C1707.18543,4470.206 1706.30143,4471.022 1705.24743,4471.022 C1704.12543,4471.022 1703.27543,4470.206 1703.27543,4469.118 C1703.27543,4468.064 1704.12543,4467.214 1705.24743,4467.214 Z M1706.53943,4475.442 L1706.53943,4492 L1703.92143,4492 L1703.92143,4475.442 L1706.53943,4475.442 Z M1719.72411,4475.068 C1724.51811,4475.068 1728.39411,4478.842 1728.39411,4483.704 C1728.39411,4488.532 1724.51811,4492.34 1719.69011,4492.34 C1714.89611,4492.306 1711.05411,4488.566 1711.05411,4483.704 C1711.05411,4478.842 1714.86211,4475.068 1719.72411,4475.068 Z M1719.72411,4477.482 C1716.25611,4477.482 1713.70611,4480.202 1713.74011,4483.738 C1713.74011,4487.24 1716.25611,4489.926 1719.69011,4489.926 C1723.12411,4489.926 1725.70811,4487.206 1725.70811,4483.738 C1725.70811,4480.168 1723.12411,4477.482 1719.72411,4477.482 Z M1740.49079,4475.068 C1744.40079,4475.068 1746.64479,4477.754 1746.64479,4481.596 L1746.64479,4492 L1744.02679,4492 L1744.02679,4481.902 C1744.02679,4479.284 1742.46279,4477.482 1739.91279,4477.482 C1737.36279,4477.482 1735.56079,4479.318 1735.56079,4481.902 L1735.56079,4492 L1732.94279,4492 L1732.94279,4475.442 L1735.39079,4475.442 L1735.39079,4477.244 C1736.54679,4475.884 1738.34879,4475.068 1740.49079,4475.068 Z M1767.57415,4475.068 C1771.34815,4475.068 1774.03415,4477.346 1774.03415,4481.8 L1774.03415,4492 L1771.58615,4492 L1771.58615,4489.858 C1770.39615,4491.456 1768.45815,4492.374 1766.01015,4492.374 C1762.67815,4492.374 1760.23015,4490.606 1760.23015,4487.716 C1760.23015,4484.928 1762.57615,4483.092 1766.18015,4483.092 L1771.41615,4483.092 L1771.41615,4481.664 C1771.41615,4478.876 1769.85215,4477.482 1767.40415,4477.482 C1765.33015,4477.482 1763.86815,4478.468 1762.57615,4480.134 L1760.84215,4478.706 C1762.40615,4476.19 1764.92215,4475.068 1767.57415,4475.068 Z M1766.35015,4490.198 C1769.07015,4490.198 1771.41615,4488.226 1771.41615,4485.642 L1771.41615,4485.234 L1766.48615,4485.234 C1764.17415,4485.234 1762.91615,4486.016 1762.91615,4487.58 C1762.91615,4489.348 1764.51415,4490.198 1766.35015,4490.198 Z M1787.08283,4475.068 C1790.99283,4475.068 1793.23683,4477.754 1793.23683,4481.596 L1793.23683,4492 L1790.61883,4492 L1790.61883,4481.902 C1790.61883,4479.284 1789.05483,4477.482 1786.50483,4477.482 C1783.95483,4477.482 1782.15283,4479.318 1782.15283,4481.902 L1782.15283,4492 L1779.53483,4492 L1779.53483,4475.442 L1781.98283,4475.442 L1781.98283,4477.244 C1783.13883,4475.884 1784.94083,4475.068 1787.08283,4475.068 Z M1811.86151,4466.5 L1814.47951,4466.5 L1814.47951,4492 L1811.99751,4492 L1811.99751,4489.348 C1810.70551,4491.252 1808.35951,4492.374 1805.74151,4492.374 C1801.01551,4492.374 1797.54751,4488.6 1797.54751,4483.738 C1797.54751,4478.842 1801.01551,4475.068 1805.74151,4475.068 C1808.25751,4475.068 1810.53551,4476.122 1811.86151,4477.89 L1811.86151,4466.5 Z M1806.11551,4489.96 C1808.97151,4489.96 1811.89551,4488.09 1811.89551,4483.738 C1811.89551,4479.386 1808.97151,4477.482 1806.11551,4477.482 C1802.74951,4477.482 1800.23351,4480.1 1800.23351,4483.704 C1800.23351,4487.308 1802.71551,4489.96 1806.11551,4489.96 Z M1838.36687,4475.068 C1843.12687,4475.068 1846.56087,4478.842 1846.56087,4483.704 C1846.56087,4488.6 1843.09287,4492.374 1838.36687,4492.374 C1835.91887,4492.374 1833.60687,4491.354 1832.28087,4489.586 L1832.28087,4498.12 L1829.66287,4498.12 L1829.66287,4475.442 L1832.11087,4475.442 L1832.11087,4478.094 C1833.40287,4476.19 1835.74887,4475.068 1838.36687,4475.068 Z M1837.99287,4489.96 C1841.35887,4489.96 1843.87487,4487.342 1843.87487,4483.738 C1843.87487,4480.134 1841.39287,4477.482 1837.99287,4477.482 C1835.13687,4477.482 1832.24687,4479.352 1832.24687,4483.704 C1832.24687,4488.056 1835.10287,4489.96 1837.99287,4489.96 Z M1858.58956,4475.068 C1863.38356,4475.068 1867.25956,4478.842 1867.25956,4483.704 C1867.25956,4488.532 1863.38356,4492.34 1858.55556,4492.34 C1853.76156,4492.306 1849.91956,4488.566 1849.91956,4483.704 C1849.91956,4478.842 1853.72756,4475.068 1858.58956,4475.068 Z M1858.58956,4477.482 C1855.12156,4477.482 1852.57156,4480.202 1852.60556,4483.738 C1852.60556,4487.24 1855.12156,4489.926 1858.55556,4489.926 C1861.98956,4489.926 1864.57356,4487.206 1864.57356,4483.738 C1864.57356,4480.168 1861.98956,4477.482 1858.58956,4477.482 Z M1876.80624,4475.068 C1879.18624,4475.068 1881.05624,4476.088 1882.34824,4477.686 L1880.75024,4479.318 C1879.66224,4478.196 1878.23424,4477.482 1876.67024,4477.482 C1875.10624,4477.482 1873.91624,4478.196 1873.91624,4479.556 C1873.91624,4480.678 1874.76624,4481.222 1876.60224,4481.97 L1878.13224,4482.616 C1881.12424,4483.874 1882.51824,4485.166 1882.51824,4487.512 C1882.51824,4490.742 1879.76424,4492.374 1876.70424,4492.374 C1873.78024,4492.374 1871.57024,4490.912 1870.24424,4489.144 L1871.91024,4487.41 C1873.27024,4488.838 1874.66424,4489.96 1876.67024,4489.96 C1878.40424,4489.96 1879.83224,4489.11 1879.83224,4487.614 C1879.83224,4486.186 1878.60824,4485.642 1876.94224,4484.962 L1875.34424,4484.282 C1872.82824,4483.228 1871.23024,4482.072 1871.23024,4479.692 C1871.23024,4476.7 1873.78024,4475.068 1876.80624,4475.068 Z M1894.03692,4489.994 C1894.68292,4489.994 1895.39692,4489.926 1896.24692,4489.79 L1896.24692,4492 C1895.39692,4492.204 1894.54692,4492.374 1893.49292,4492.374 C1890.22892,4492.374 1887.91692,4490.776 1887.91692,4487.002 L1887.91692,4477.788 L1885.12892,4477.788 L1885.12892,4475.442 L1887.91692,4475.442 L1887.91692,4470.92 L1890.53492,4470.92 L1890.53492,4475.442 L1895.70292,4475.442 L1895.70292,4477.788 L1890.53492,4477.788 L1890.53492,4486.832 C1890.53492,4489.314 1891.96292,4489.994 1894.03692,4489.994 Z M1905.1136,4475.068 C1907.4936,4475.068 1909.3636,4476.088 1910.6556,4477.686 L1909.0576,4479.318 C1907.9696,4478.196 1906.5416,4477.482 1904.9776,4477.482 C1903.4136,4477.482 1902.2236,4478.196 1902.2236,4479.556 C1902.2236,4480.678 1903.0736,4481.222 1904.9096,4481.97 L1906.4396,4482.616 C1909.4316,4483.874 1910.8256,4485.166 1910.8256,4487.512 C1910.8256,4490.742 1908.0716,4492.374 1905.0116,4492.374 C1902.0876,4492.374 1899.8776,4490.912 1898.5516,4489.144 L1900.2176,4487.41 C1901.5776,4488.838 1902.9716,4489.96 1904.9776,4489.96 C1906.7116,4489.96 1908.1396,4489.11 1908.1396,4487.614 C1908.1396,4486.186 1906.9156,4485.642 1905.2496,4484.962 L1903.6516,4484.282 C1901.1356,4483.228 1899.5376,4482.072 1899.5376,4479.692 C1899.5376,4476.7 1902.0876,4475.068 1905.1136,4475.068 Z M1930.93896,4475.068 C1934.71296,4475.068 1937.39896,4477.346 1937.39896,4481.8 L1937.39896,4492 L1934.95096,4492 L1934.95096,4489.858 C1933.76096,4491.456 1931.82296,4492.374 1929.37496,4492.374 C1926.04296,4492.374 1923.59496,4490.606 1923.59496,4487.716 C1923.59496,4484.928 1925.94096,4483.092 1929.54496,4483.092 L1934.78096,4483.092 L1934.78096,4481.664 C1934.78096,4478.876 1933.21696,4477.482 1930.76896,4477.482 C1928.69496,4477.482 1927.23296,4478.468 1925.94096,4480.134 L1924.20696,4478.706 C1925.77096,4476.19 1928.28696,4475.068 1930.93896,4475.068 Z M1929.71496,4490.198 C1932.43496,4490.198 1934.78096,4488.226 1934.78096,4485.642 L1934.78096,4485.234 L1929.85096,4485.234 C1927.53896,4485.234 1926.28096,4486.016 1926.28096,4487.58 C1926.28096,4489.348 1927.87896,4490.198 1929.71496,4490.198 Z M1951.60364,4475.068 C1956.32964,4475.068 1959.79764,4478.842 1959.79764,4483.738 C1959.79764,4488.6 1956.36364,4492.374 1951.63764,4492.374 C1949.05364,4492.374 1946.63964,4491.252 1945.34764,4489.348 L1945.34764,4492 L1942.89964,4492 L1942.89964,4466.5 L1945.51764,4466.5 L1945.51764,4477.89 C1946.80964,4476.156 1949.08764,4475.068 1951.60364,4475.068 Z M1951.22964,4489.96 C1954.62964,4489.96 1957.11164,4487.308 1957.11164,4483.704 C1957.11164,4480.1 1954.59564,4477.482 1951.22964,4477.482 C1948.33964,4477.482 1945.48364,4479.386 1945.48364,4483.738 C1945.48364,4488.09 1948.37364,4489.96 1951.22964,4489.96 Z M1971.82632,4475.068 C1976.62032,4475.068 1980.49632,4478.842 1980.49632,4483.704 C1980.49632,4488.532 1976.62032,4492.34 1971.79232,4492.34 C1966.99832,4492.306 1963.15632,4488.566 1963.15632,4483.704 C1963.15632,4478.842 1966.96432,4475.068 1971.82632,4475.068 Z M1971.82632,4477.482 C1968.35832,4477.482 1965.80832,4480.202 1965.84232,4483.738 C1965.84232,4487.24 1968.35832,4489.926 1971.79232,4489.926 C1975.22632,4489.926 1977.81032,4487.206 1977.81032,4483.738 C1977.81032,4480.168 1975.22632,4477.482 1971.82632,4477.482 Z M1998.543,4475.442 L1998.543,4485.404 C1998.543,4489.654 1995.517,4492.374 1991.709,4492.374 C1987.833,4492.374 1984.841,4489.654 1984.841,4485.404 L1984.841,4475.442 L1987.425,4475.442 L1987.425,4485.574 C1987.425,4488.294 1989.329,4489.96 1991.709,4489.96 C1994.021,4489.96 1995.925,4488.294 1995.925,4485.574 L1995.925,4475.442 L1998.543,4475.442 Z M2010.87768,4489.994 C2011.52368,4489.994 2012.23768,4489.926 2013.08768,4489.79 L2013.08768,4492 C2012.23768,4492.204 2011.38768,4492.374 2010.33368,4492.374 C2007.06968,4492.374 2004.75768,4490.776 2004.75768,4487.002 L2004.75768,4477.788 L2001.96968,4477.788 L2001.96968,4475.442 L2004.75768,4475.442 L2004.75768,4470.92 L2007.37568,4470.92 L2007.37568,4475.442 L2012.54368,4475.442 L2012.54368,4477.788 L2007.37568,4477.788 L2007.37568,4486.832 C2007.37568,4489.314 2008.80368,4489.994 2010.87768,4489.994 Z M2033.26904,4489.994 C2033.91504,4489.994 2034.62904,4489.926 2035.47904,4489.79 L2035.47904,4492 C2034.62904,4492.204 2033.77904,4492.374 2032.72504,4492.374 C2029.46104,4492.374 2027.14904,4490.776 2027.14904,4487.002 L2027.14904,4477.788 L2024.36104,4477.788 L2024.36104,4475.442 L2027.14904,4475.442 L2027.14904,4470.92 L2029.76704,4470.92 L2029.76704,4475.442 L2034.93504,4475.442 L2034.93504,4477.788 L2029.76704,4477.788 L2029.76704,4486.832 C2029.76704,4489.314 2031.19504,4489.994 2033.26904,4489.994 Z M2046.92972,4475.068 C2050.80572,4475.068 2053.04972,4477.754 2053.04972,4481.596 L2053.04972,4492 L2050.43172,4492 L2050.43172,4481.936 C2050.43172,4479.318 2048.86772,4477.482 2046.31772,4477.482 C2043.76772,4477.482 2041.96572,4479.352 2041.96572,4481.936 L2041.96572,4492 L2039.34772,4492 L2039.34772,4466.5 L2041.96572,4466.5 L2041.96572,4477.312 C2043.05372,4475.918 2044.78772,4475.068 2046.92972,4475.068 Z M2073.3744,4482.548 C2073.3744,4483.432 2073.2384,4484.214 2073.1704,4484.52 L2060.1144,4484.52 C2060.4544,4487.818 2062.9024,4489.96 2066.1664,4489.96 C2068.2404,4489.96 2069.8724,4489.076 2071.2324,4487.716 L2072.7624,4489.484 C2071.0964,4491.252 2068.8524,4492.374 2066.1324,4492.374 C2061.1344,4492.374 2057.3604,4488.6 2057.3604,4483.738 C2057.3604,4478.91 2061.0664,4475.068 2065.8264,4475.068 C2070.0764,4475.068 2073.3744,4478.128 2073.3744,4482.548 Z M2065.7584,4477.448 C2062.9704,4477.448 2060.7604,4479.352 2060.2164,4482.208 L2070.6884,4482.208 C2070.6544,4479.148 2068.4104,4477.448 2065.7584,4477.448 Z M2100.89976,4475.442 L2100.89976,4485.404 C2100.89976,4489.654 2097.87376,4492.374 2094.06576,4492.374 C2090.18976,4492.374 2087.19776,4489.654 2087.19776,4485.404 L2087.19776,4475.442 L2089.78176,4475.442 L2089.78176,4485.574 C2089.78176,4488.294 2091.68576,4489.96 2094.06576,4489.96 C2096.37776,4489.96 2098.28176,4488.294 2098.28176,4485.574 L2098.28176,4475.442 L2100.89976,4475.442 Z M2111.39844,4475.068 C2113.77844,4475.068 2115.64844,4476.088 2116.94044,4477.686 L2115.34244,4479.318 C2114.25444,4478.196 2112.82644,4477.482 2111.26244,4477.482 C2109.69844,4477.482 2108.50844,4478.196 2108.50844,4479.556 C2108.50844,4480.678 2109.35844,4481.222 2111.19444,4481.97 L2112.72444,4482.616 C2115.71644,4483.874 2117.11044,4485.166 2117.11044,4487.512 C2117.11044,4490.742 2114.35644,4492.374 2111.29644,4492.374 C2108.37244,4492.374 2106.16244,4490.912 2104.83644,4489.144 L2106.50244,4487.41 C2107.86244,4488.838 2109.25644,4489.96 2111.26244,4489.96 C2112.99644,4489.96 2114.42444,4489.11 2114.42444,4487.614 C2114.42444,4486.186 2113.20044,4485.642 2111.53444,4484.962 L2109.93644,4484.282 C2107.42044,4483.228 2105.82244,4482.072 2105.82244,4479.692 C2105.82244,4476.7 2108.37244,4475.068 2111.39844,4475.068 Z M2136.61913,4482.548 C2136.61913,4483.432 2136.48313,4484.214 2136.41513,4484.52 L2123.35913,4484.52 C2123.69913,4487.818 2126.14713,4489.96 2129.41113,4489.96 C2131.48513,4489.96 2133.11713,4489.076 2134.47713,4487.716 L2136.00713,4489.484 C2134.34113,4491.252 2132.09713,4492.374 2129.37713,4492.374 C2124.37913,4492.374 2120.60513,4488.6 2120.60513,4483.738 C2120.60513,4478.91 2124.31113,4475.068 2129.07113,4475.068 C2133.32113,4475.068 2136.61913,4478.128 2136.61913,4482.548 Z M2129.00313,4477.448 C2126.21513,4477.448 2124.00513,4479.352 2123.46113,4482.208 L2133.93313,4482.208 C2133.89913,4479.148 2131.65513,4477.448 2129.00313,4477.448 Z M2148.74981,4475.306 C2149.29381,4475.306 2149.63381,4475.374 2149.97381,4475.442 L2149.97381,4477.754 L2148.98781,4477.754 C2146.30181,4477.754 2143.78581,4479.454 2143.78581,4482.616 L2143.78581,4492 L2141.16781,4492 L2141.16781,4475.442 L2143.61581,4475.442 L2143.61581,4477.822 C2144.83981,4476.19 2146.77781,4475.306 2148.74981,4475.306 Z M2154.89649,4488.94 L2153.50249,4498.086 L2151.36049,4498.086 L2151.80249,4488.94 L2154.89649,4488.94 Z M2178.68185,4475.068 C2183.40785,4475.068 2186.87585,4478.842 2186.87585,4483.738 C2186.87585,4488.6 2183.44185,4492.374 2178.71585,4492.374 C2176.13185,4492.374 2173.71785,4491.252 2172.42585,4489.348 L2172.42585,4492 L2169.97785,4492 L2169.97785,4466.5 L2172.59585,4466.5 L2172.59585,4477.89 C2173.88785,4476.156 2176.16585,4475.068 2178.68185,4475.068 Z M2178.30785,4489.96 C2181.70785,4489.96 2184.18985,4487.308 2184.18985,4483.704 C2184.18985,4480.1 2181.67385,4477.482 2178.30785,4477.482 C2175.41785,4477.482 2172.56185,4479.386 2172.56185,4483.738 C2172.56185,4488.09 2175.45185,4489.96 2178.30785,4489.96 Z M2204.92253,4475.442 L2204.92253,4485.404 C2204.92253,4489.654 2201.89653,4492.374 2198.08853,4492.374 C2194.21253,4492.374 2191.22053,4489.654 2191.22053,4485.404 L2191.22053,4475.442 L2193.80453,4475.442 L2193.80453,4485.574 C2193.80453,4488.294 2195.70853,4489.96 2198.08853,4489.96 C2200.40053,4489.96 2202.30453,4488.294 2202.30453,4485.574 L2202.30453,4475.442 L2204.92253,4475.442 Z M2217.25721,4489.994 C2217.90321,4489.994 2218.61721,4489.926 2219.46721,4489.79 L2219.46721,4492 C2218.61721,4492.204 2217.76721,4492.374 2216.71321,4492.374 C2213.44921,4492.374 2211.13721,4490.776 2211.13721,4487.002 L2211.13721,4477.788 L2208.34921,4477.788 L2208.34921,4475.442 L2211.13721,4475.442 L2211.13721,4470.92 L2213.75521,4470.92 L2213.75521,4475.442 L2218.92321,4475.442 L2218.92321,4477.788 L2213.75521,4477.788 L2213.75521,4486.832 C2213.75521,4489.314 2215.18321,4489.994 2217.25721,4489.994 Z M2238.76457,4475.068 C2242.53857,4475.068 2245.22457,4477.346 2245.22457,4481.8 L2245.22457,4492 L2242.77657,4492 L2242.77657,4489.858 C2241.58657,4491.456 2239.64857,4492.374 2237.20057,4492.374 C2233.86857,4492.374 2231.42057,4490.606 2231.42057,4487.716 C2231.42057,4484.928 2233.76657,4483.092 2237.37057,4483.092 L2242.60657,4483.092 L2242.60657,4481.664 C2242.60657,4478.876 2241.04257,4477.482 2238.59457,4477.482 C2236.52057,4477.482 2235.05857,4478.468 2233.76657,4480.134 L2232.03257,4478.706 C2233.59657,4476.19 2236.11257,4475.068 2238.76457,4475.068 Z M2237.54057,4490.198 C2240.26057,4490.198 2242.60657,4488.226 2242.60657,4485.642 L2242.60657,4485.234 L2237.67657,4485.234 C2235.36457,4485.234 2234.10657,4486.016 2234.10657,4487.58 C2234.10657,4489.348 2235.70457,4490.198 2237.54057,4490.198 Z M2253.34325,4466.5 L2253.34325,4492 L2250.72525,4492 L2250.72525,4466.5 L2253.34325,4466.5 Z M2264.04593,4475.068 C2266.42593,4475.068 2268.29593,4476.088 2269.58793,4477.686 L2267.98993,4479.318 C2266.90193,4478.196 2265.47393,4477.482 2263.90993,4477.482 C2262.34593,4477.482 2261.15593,4478.196 2261.15593,4479.556 C2261.15593,4480.678 2262.00593,4481.222 2263.84193,4481.97 L2265.37193,4482.616 C2268.36393,4483.874 2269.75793,4485.166 2269.75793,4487.512 C2269.75793,4490.742 2267.00393,4492.374 2263.94393,4492.374 C2261.01993,4492.374 2258.80993,4490.912 2257.48393,4489.144 L2259.14993,4487.41 C2260.50993,4488.838 2261.90393,4489.96 2263.90993,4489.96 C2265.64393,4489.96 2267.07193,4489.11 2267.07193,4487.614 C2267.07193,4486.186 2265.84793,4485.642 2264.18193,4484.962 L2262.58393,4484.282 C2260.06793,4483.228 2258.46993,4482.072 2258.46993,4479.692 C2258.46993,4476.7 2261.01993,4475.068 2264.04593,4475.068 Z M2281.92261,4475.068 C2286.71661,4475.068 2290.59261,4478.842 2290.59261,4483.704 C2290.59261,4488.532 2286.71661,4492.34 2281.88861,4492.34 C2277.09461,4492.306 2273.25261,4488.566 2273.25261,4483.704 C2273.25261,4478.842 2277.06061,4475.068 2281.92261,4475.068 Z M2281.92261,4477.482 C2278.45461,4477.482 2275.90461,4480.202 2275.93861,4483.738 C2275.93861,4487.24 2278.45461,4489.926 2281.88861,4489.926 C2285.32261,4489.926 2287.90661,4487.206 2287.90661,4483.738 C2287.90661,4480.168 2285.32261,4477.482 2281.92261,4477.482 Z M2311.45397,4489.994 C2312.09997,4489.994 2312.81397,4489.926 2313.66397,4489.79 L2313.66397,4492 C2312.81397,4492.204 2311.96397,4492.374 2310.90997,4492.374 C2307.64597,4492.374 2305.33397,4490.776 2305.33397,4487.002 L2305.33397,4477.788 L2302.54597,4477.788 L2302.54597,4475.442 L2305.33397,4475.442 L2305.33397,4470.92 L2307.95197,4470.92 L2307.95197,4475.442 L2313.11997,4475.442 L2313.11997,4477.788 L2307.95197,4477.788 L2307.95197,4486.832 C2307.95197,4489.314 2309.37997,4489.994 2311.45397,4489.994 Z M2325.11465,4475.068 C2328.99065,4475.068 2331.23465,4477.754 2331.23465,4481.596 L2331.23465,4492 L2328.61665,4492 L2328.61665,4481.936 C2328.61665,4479.318 2327.05265,4477.482 2324.50265,4477.482 C2321.95265,4477.482 2320.15065,4479.352 2320.15065,4481.936 L2320.15065,4492 L2317.53265,4492 L2317.53265,4466.5 L2320.15065,4466.5 L2320.15065,4477.312 C2321.23865,4475.918 2322.97265,4475.068 2325.11465,4475.068 Z M2351.55933,4482.548 C2351.55933,4483.432 2351.42333,4484.214 2351.35533,4484.52 L2338.29933,4484.52 C2338.63933,4487.818 2341.08733,4489.96 2344.35133,4489.96 C2346.42533,4489.96 2348.05733,4489.076 2349.41733,4487.716 L2350.94733,4489.484 C2349.28133,4491.252 2347.03733,4492.374 2344.31733,4492.374 C2339.31933,4492.374 2335.54533,4488.6 2335.54533,4483.738 C2335.54533,4478.91 2339.25133,4475.068 2344.01133,4475.068 C2348.26133,4475.068 2351.55933,4478.128 2351.55933,4482.548 Z M2343.94333,4477.448 C2341.15533,4477.448 2338.94533,4479.352 2338.40133,4482.208 L2348.87333,4482.208 C2348.83933,4479.148 2346.59533,4477.448 2343.94333,4477.448 Z M1609.34701,4513.442 L1609.34701,4523.404 C1609.34701,4527.654 1606.32101,4530.374 1602.51301,4530.374 C1598.63701,4530.374 1595.64501,4527.654 1595.64501,4523.404 L1595.64501,4513.442 L1598.22901,4513.442 L1598.22901,4523.574 C1598.22901,4526.294 1600.13301,4527.96 1602.51301,4527.96 C1604.82501,4527.96 1606.72901,4526.294 1606.72901,4523.574 L1606.72901,4513.442 L1609.34701,4513.442 Z M1619.84569,4513.068 C1622.22569,4513.068 1624.09569,4514.088 1625.38769,4515.686 L1623.78969,4517.318 C1622.70169,4516.196 1621.27369,4515.482 1619.70969,4515.482 C1618.14569,4515.482 1616.95569,4516.196 1616.95569,4517.556 C1616.95569,4518.678 1617.80569,4519.222 1619.64169,4519.97 L1621.17169,4520.616 C1624.16369,4521.874 1625.55769,4523.166 1625.55769,4525.512 C1625.55769,4528.742 1622.80369,4530.374 1619.74369,4530.374 C1616.81969,4530.374 1614.60969,4528.912 1613.28369,4527.144 L1614.94969,4525.41 C1616.30969,4526.838 1617.70369,4527.96 1619.70969,4527.96 C1621.44369,4527.96 1622.87169,4527.11 1622.87169,4525.614 C1622.87169,4524.186 1621.64769,4523.642 1619.98169,4522.962 L1618.38369,4522.282 C1615.86769,4521.228 1614.26969,4520.072 1614.26969,4517.692 C1614.26969,4514.7 1616.81969,4513.068 1619.84569,4513.068 Z M1645.06637,4520.548 C1645.06637,4521.432 1644.93037,4522.214 1644.86237,4522.52 L1631.80637,4522.52 C1632.14637,4525.818 1634.59437,4527.96 1637.85837,4527.96 C1639.93237,4527.96 1641.56437,4527.076 1642.92437,4525.716 L1644.45437,4527.484 C1642.78837,4529.252 1640.54437,4530.374 1637.82437,4530.374 C1632.82637,4530.374 1629.05237,4526.6 1629.05237,4521.738 C1629.05237,4516.91 1632.75837,4513.068 1637.51837,4513.068 C1641.76837,4513.068 1645.06637,4516.128 1645.06637,4520.548 Z M1637.45037,4515.448 C1634.66237,4515.448 1632.45237,4517.352 1631.90837,4520.208 L1642.38037,4520.208 C1642.34637,4517.148 1640.10237,4515.448 1637.45037,4515.448 Z M1657.19705,4513.306 C1657.74105,4513.306 1658.08105,4513.374 1658.42105,4513.442 L1658.42105,4515.754 L1657.43505,4515.754 C1654.74905,4515.754 1652.23305,4517.454 1652.23305,4520.616 L1652.23305,4530 L1649.61505,4530 L1649.61505,4513.442 L1652.06305,4513.442 L1652.06305,4515.822 C1653.28705,4514.19 1655.22505,4513.306 1657.19705,4513.306 Z M1665.72373,4507.56 L1664.26173,4516.298 L1662.18773,4516.298 L1662.66373,4507.56 L1665.72373,4507.56 Z M1676.01841,4513.068 C1678.39841,4513.068 1680.26841,4514.088 1681.56041,4515.686 L1679.96241,4517.318 C1678.87441,4516.196 1677.44641,4515.482 1675.88241,4515.482 C1674.31841,4515.482 1673.12841,4516.196 1673.12841,4517.556 C1673.12841,4518.678 1673.97841,4519.222 1675.81441,4519.97 L1677.34441,4520.616 C1680.33641,4521.874 1681.73041,4523.166 1681.73041,4525.512 C1681.73041,4528.742 1678.97641,4530.374 1675.91641,4530.374 C1672.99241,4530.374 1670.78241,4528.912 1669.45641,4527.144 L1671.12241,4525.41 C1672.48241,4526.838 1673.87641,4527.96 1675.88241,4527.96 C1677.61641,4527.96 1679.04441,4527.11 1679.04441,4525.614 C1679.04441,4524.186 1677.82041,4523.642 1676.15441,4522.962 L1674.55641,4522.282 C1672.04041,4521.228 1670.44241,4520.072 1670.44241,4517.692 C1670.44241,4514.7 1672.99241,4513.068 1676.01841,4513.068 Z M1697.21977,4505.214 C1698.27377,4505.214 1699.15777,4506.064 1699.15777,4507.118 C1699.15777,4508.206 1698.27377,4509.022 1697.21977,4509.022 C1696.09777,4509.022 1695.24777,4508.206 1695.24777,4507.118 C1695.24777,4506.064 1696.09777,4505.214 1697.21977,4505.214 Z M1698.51177,4513.442 L1698.51177,4530 L1695.89377,4530 L1695.89377,4513.442 L1698.51177,4513.442 Z M1711.05045,4527.994 C1711.69645,4527.994 1712.41045,4527.926 1713.26045,4527.79 L1713.26045,4530 C1712.41045,4530.204 1711.56045,4530.374 1710.50645,4530.374 C1707.24245,4530.374 1704.93045,4528.776 1704.93045,4525.002 L1704.93045,4515.788 L1702.14245,4515.788 L1702.14245,4513.442 L1704.93045,4513.442 L1704.93045,4508.92 L1707.54845,4508.92 L1707.54845,4513.442 L1712.71645,4513.442 L1712.71645,4515.788 L1707.54845,4515.788 L1707.54845,4524.832 C1707.54845,4527.314 1708.97645,4527.994 1711.05045,4527.994 Z M1731.61313,4520.548 C1731.61313,4521.432 1731.47713,4522.214 1731.40913,4522.52 L1718.35313,4522.52 C1718.69313,4525.818 1721.14113,4527.96 1724.40513,4527.96 C1726.47913,4527.96 1728.11113,4527.076 1729.47113,4525.716 L1731.00113,4527.484 C1729.33513,4529.252 1727.09113,4530.374 1724.37113,4530.374 C1719.37313,4530.374 1715.59913,4526.6 1715.59913,4521.738 C1715.59913,4516.91 1719.30513,4513.068 1724.06513,4513.068 C1728.31513,4513.068 1731.61313,4516.128 1731.61313,4520.548 Z M1723.99713,4515.448 C1721.20913,4515.448 1718.99913,4517.352 1718.45513,4520.208 L1728.92713,4520.208 C1728.89313,4517.148 1726.64913,4515.448 1723.99713,4515.448 Z M1754.31781,4513.068 C1758.19381,4513.068 1760.33581,4515.754 1760.33581,4519.596 L1760.33581,4530 L1757.71781,4530 L1757.71781,4519.936 C1757.71781,4517.318 1756.28981,4515.482 1753.80781,4515.482 C1751.29181,4515.482 1749.55781,4517.386 1749.55781,4519.698 L1749.55781,4530 L1746.93981,4530 L1746.93981,4519.936 C1746.93981,4517.318 1745.44381,4515.482 1742.99581,4515.482 C1740.47981,4515.482 1738.77981,4517.318 1738.77981,4519.936 L1738.77981,4530 L1736.16181,4530 L1736.16181,4513.442 L1738.60981,4513.442 L1738.60981,4515.176 C1739.76581,4513.85 1741.46581,4513.068 1743.53981,4513.068 C1746.02181,4513.068 1747.72181,4514.19 1748.63981,4515.924 C1749.79581,4514.258 1751.76781,4513.068 1754.31781,4513.068 Z M1770.83449,4513.068 C1773.21449,4513.068 1775.08449,4514.088 1776.37649,4515.686 L1774.77849,4517.318 C1773.69049,4516.196 1772.26249,4515.482 1770.69849,4515.482 C1769.13449,4515.482 1767.94449,4516.196 1767.94449,4517.556 C1767.94449,4518.678 1768.79449,4519.222 1770.63049,4519.97 L1772.16049,4520.616 C1775.15249,4521.874 1776.54649,4523.166 1776.54649,4525.512 C1776.54649,4528.742 1773.79249,4530.374 1770.73249,4530.374 C1767.80849,4530.374 1765.59849,4528.912 1764.27249,4527.144 L1765.93849,4525.41 C1767.29849,4526.838 1768.69249,4527.96 1770.69849,4527.96 C1772.43249,4527.96 1773.86049,4527.11 1773.86049,4525.614 C1773.86049,4524.186 1772.63649,4523.642 1770.97049,4522.962 L1769.37249,4522.282 C1766.85649,4521.228 1765.25849,4520.072 1765.25849,4517.692 C1765.25849,4514.7 1767.80849,4513.068 1770.83449,4513.068 Z M1792.03585,4505.214 C1793.08985,4505.214 1793.97385,4506.064 1793.97385,4507.118 C1793.97385,4508.206 1793.08985,4509.022 1792.03585,4509.022 C1790.91385,4509.022 1790.06385,4508.206 1790.06385,4507.118 C1790.06385,4506.064 1790.91385,4505.214 1792.03585,4505.214 Z M1793.32785,4513.442 L1793.32785,4530 L1790.70985,4530 L1790.70985,4513.442 L1793.32785,4513.442 Z M1806.58053,4513.068 C1810.49053,4513.068 1812.73453,4515.754 1812.73453,4519.596 L1812.73453,4530 L1810.11653,4530 L1810.11653,4519.902 C1810.11653,4517.284 1808.55253,4515.482 1806.00253,4515.482 C1803.45253,4515.482 1801.65053,4517.318 1801.65053,4519.902 L1801.65053,4530 L1799.03253,4530 L1799.03253,4513.442 L1801.48053,4513.442 L1801.48053,4515.244 C1802.63653,4513.884 1804.43853,4513.068 1806.58053,4513.068 Z M1834.5479,4527.994 C1835.1939,4527.994 1835.9079,4527.926 1836.7579,4527.79 L1836.7579,4530 C1835.9079,4530.204 1835.0579,4530.374 1834.0039,4530.374 C1830.7399,4530.374 1828.4279,4528.776 1828.4279,4525.002 L1828.4279,4515.788 L1825.6399,4515.788 L1825.6399,4513.442 L1828.4279,4513.442 L1828.4279,4508.92 L1831.0459,4508.92 L1831.0459,4513.442 L1836.2139,4513.442 L1836.2139,4515.788 L1831.0459,4515.788 L1831.0459,4524.832 C1831.0459,4527.314 1832.4739,4527.994 1834.5479,4527.994 Z M1848.20858,4513.068 C1852.08458,4513.068 1854.32858,4515.754 1854.32858,4519.596 L1854.32858,4530 L1851.71058,4530 L1851.71058,4519.936 C1851.71058,4517.318 1850.14658,4515.482 1847.59658,4515.482 C1845.04658,4515.482 1843.24458,4517.352 1843.24458,4519.936 L1843.24458,4530 L1840.62658,4530 L1840.62658,4504.5 L1843.24458,4504.5 L1843.24458,4515.312 C1844.33258,4513.918 1846.06658,4513.068 1848.20858,4513.068 Z M1874.65326,4520.548 C1874.65326,4521.432 1874.51726,4522.214 1874.44926,4522.52 L1861.39326,4522.52 C1861.73326,4525.818 1864.18126,4527.96 1867.44526,4527.96 C1869.51926,4527.96 1871.15126,4527.076 1872.51126,4525.716 L1874.04126,4527.484 C1872.37526,4529.252 1870.13126,4530.374 1867.41126,4530.374 C1862.41326,4530.374 1858.63926,4526.6 1858.63926,4521.738 C1858.63926,4516.91 1862.34526,4513.068 1867.10526,4513.068 C1871.35526,4513.068 1874.65326,4516.128 1874.65326,4520.548 Z M1867.03726,4515.448 C1864.24926,4515.448 1862.03926,4517.352 1861.49526,4520.208 L1871.96726,4520.208 C1871.93326,4517.148 1869.68926,4515.448 1867.03726,4515.448 Z M1897.38462,4513.068 C1902.14462,4513.068 1905.57862,4516.842 1905.57862,4521.704 C1905.57862,4526.6 1902.11062,4530.374 1897.38462,4530.374 C1894.93662,4530.374 1892.62462,4529.354 1891.29862,4527.586 L1891.29862,4536.12 L1888.68062,4536.12 L1888.68062,4513.442 L1891.12862,4513.442 L1891.12862,4516.094 C1892.42062,4514.19 1894.76662,4513.068 1897.38462,4513.068 Z M1897.01062,4527.96 C1900.37662,4527.96 1902.89262,4525.342 1902.89262,4521.738 C1902.89262,4518.134 1900.41062,4515.482 1897.01062,4515.482 C1894.15462,4515.482 1891.26462,4517.352 1891.26462,4521.704 C1891.26462,4526.056 1894.12062,4527.96 1897.01062,4527.96 Z M1917.7093,4513.306 C1918.2533,4513.306 1918.5933,4513.374 1918.9333,4513.442 L1918.9333,4515.754 L1917.9473,4515.754 C1915.2613,4515.754 1912.7453,4517.454 1912.7453,4520.616 L1912.7453,4530 L1910.1273,4530 L1910.1273,4513.442 L1912.5753,4513.442 L1912.5753,4515.822 C1913.7993,4514.19 1915.7373,4513.306 1917.7093,4513.306 Z M1923.71998,4505.214 C1924.77398,4505.214 1925.65798,4506.064 1925.65798,4507.118 C1925.65798,4508.206 1924.77398,4509.022 1923.71998,4509.022 C1922.59798,4509.022 1921.74798,4508.206 1921.74798,4507.118 C1921.74798,4506.064 1922.59798,4505.214 1923.71998,4505.214 Z M1925.01198,4513.442 L1925.01198,4530 L1922.39398,4530 L1922.39398,4513.442 L1925.01198,4513.442 Z M1942.48066,4513.442 L1945.26866,4513.442 L1937.48266,4530.374 L1936.53066,4530.374 L1928.71066,4513.442 L1931.49866,4513.442 L1937.00666,4525.92 L1942.48066,4513.442 Z M1954.27134,4513.068 C1958.04534,4513.068 1960.73134,4515.346 1960.73134,4519.8 L1960.73134,4530 L1958.28334,4530 L1958.28334,4527.858 C1957.09334,4529.456 1955.15534,4530.374 1952.70734,4530.374 C1949.37534,4530.374 1946.92734,4528.606 1946.92734,4525.716 C1946.92734,4522.928 1949.27334,4521.092 1952.87734,4521.092 L1958.11334,4521.092 L1958.11334,4519.664 C1958.11334,4516.876 1956.54934,4515.482 1954.10134,4515.482 C1952.02734,4515.482 1950.56534,4516.468 1949.27334,4518.134 L1947.53934,4516.706 C1949.10334,4514.19 1951.61934,4513.068 1954.27134,4513.068 Z M1953.04734,4528.198 C1955.76734,4528.198 1958.11334,4526.226 1958.11334,4523.642 L1958.11334,4523.234 L1953.18334,4523.234 C1950.87134,4523.234 1949.61334,4524.016 1949.61334,4525.58 C1949.61334,4527.348 1951.21134,4528.198 1953.04734,4528.198 Z M1973.06602,4527.994 C1973.71202,4527.994 1974.42602,4527.926 1975.27602,4527.79 L1975.27602,4530 C1974.42602,4530.204 1973.57602,4530.374 1972.52202,4530.374 C1969.25802,4530.374 1966.94602,4528.776 1966.94602,4525.002 L1966.94602,4515.788 L1964.15802,4515.788 L1964.15802,4513.442 L1966.94602,4513.442 L1966.94602,4508.92 L1969.56402,4508.92 L1969.56402,4513.442 L1974.73202,4513.442 L1974.73202,4515.788 L1969.56402,4515.788 L1969.56402,4524.832 C1969.56402,4527.314 1970.99202,4527.994 1973.06602,4527.994 Z M1993.6287,4520.548 C1993.6287,4521.432 1993.4927,4522.214 1993.4247,4522.52 L1980.3687,4522.52 C1980.7087,4525.818 1983.1567,4527.96 1986.4207,4527.96 C1988.4947,4527.96 1990.1267,4527.076 1991.4867,4525.716 L1993.0167,4527.484 C1991.3507,4529.252 1989.1067,4530.374 1986.3867,4530.374 C1981.3887,4530.374 1977.6147,4526.6 1977.6147,4521.738 C1977.6147,4516.91 1981.3207,4513.068 1986.0807,4513.068 C1990.3307,4513.068 1993.6287,4516.128 1993.6287,4520.548 Z M1986.0127,4515.448 C1983.2247,4515.448 1981.0147,4517.352 1980.4707,4520.208 L1990.9427,4520.208 C1990.9087,4517.148 1988.6647,4515.448 1986.0127,4515.448 Z M2025.81206,4513.068 C2029.68806,4513.068 2031.83006,4515.754 2031.83006,4519.596 L2031.83006,4530 L2029.21206,4530 L2029.21206,4519.936 C2029.21206,4517.318 2027.78406,4515.482 2025.30206,4515.482 C2022.78606,4515.482 2021.05206,4517.386 2021.05206,4519.698 L2021.05206,4530 L2018.43406,4530 L2018.43406,4519.936 C2018.43406,4517.318 2016.93806,4515.482 2014.49006,4515.482 C2011.97406,4515.482 2010.27406,4517.318 2010.27406,4519.936 L2010.27406,4530 L2007.65606,4530 L2007.65606,4513.442 L2010.10406,4513.442 L2010.10406,4515.176 C2011.26006,4513.85 2012.96006,4513.068 2015.03406,4513.068 C2017.51606,4513.068 2019.21606,4514.19 2020.13406,4515.924 C2021.29006,4514.258 2023.26206,4513.068 2025.81206,4513.068 Z M2043.28074,4513.068 C2047.05474,4513.068 2049.74074,4515.346 2049.74074,4519.8 L2049.74074,4530 L2047.29274,4530 L2047.29274,4527.858 C2046.10274,4529.456 2044.16474,4530.374 2041.71674,4530.374 C2038.38474,4530.374 2035.93674,4528.606 2035.93674,4525.716 C2035.93674,4522.928 2038.28274,4521.092 2041.88674,4521.092 L2047.12274,4521.092 L2047.12274,4519.664 C2047.12274,4516.876 2045.55874,4515.482 2043.11074,4515.482 C2041.03674,4515.482 2039.57474,4516.468 2038.28274,4518.134 L2036.54874,4516.706 C2038.11274,4514.19 2040.62874,4513.068 2043.28074,4513.068 Z M2042.05674,4528.198 C2044.77674,4528.198 2047.12274,4526.226 2047.12274,4523.642 L2047.12274,4523.234 L2042.19274,4523.234 C2039.88074,4523.234 2038.62274,4524.016 2038.62274,4525.58 C2038.62274,4527.348 2040.22074,4528.198 2042.05674,4528.198 Z M2062.82342,4513.306 C2063.36742,4513.306 2063.70742,4513.374 2064.04742,4513.442 L2064.04742,4515.754 L2063.06142,4515.754 C2060.37542,4515.754 2057.85942,4517.454 2057.85942,4520.616 L2057.85942,4530 L2055.24142,4530 L2055.24142,4513.442 L2057.68942,4513.442 L2057.68942,4515.822 C2058.91342,4514.19 2060.85142,4513.306 2062.82342,4513.306 Z M2067.5081,4530 L2067.5081,4504.5 L2070.1261,4504.5 L2070.1261,4530 L2067.5081,4530 Z M2073.5601,4520.718 L2081.3801,4530 L2078.0141,4530 L2070.3981,4520.684 L2077.3001,4513.442 L2080.7341,4513.442 L2073.5601,4520.718 Z M2098.81478,4520.548 C2098.81478,4521.432 2098.67878,4522.214 2098.61078,4522.52 L2085.55478,4522.52 C2085.89478,4525.818 2088.34278,4527.96 2091.60678,4527.96 C2093.68078,4527.96 2095.31278,4527.076 2096.67278,4525.716 L2098.20278,4527.484 C2096.53678,4529.252 2094.29278,4530.374 2091.57278,4530.374 C2086.57478,4530.374 2082.80078,4526.6 2082.80078,4521.738 C2082.80078,4516.91 2086.50678,4513.068 2091.26678,4513.068 C2095.51678,4513.068 2098.81478,4516.128 2098.81478,4520.548 Z M2091.19878,4515.448 C2088.41078,4515.448 2086.20078,4517.352 2085.65678,4520.208 L2096.12878,4520.208 C2096.09478,4517.148 2093.85078,4515.448 2091.19878,4515.448 Z M2110.19747,4527.994 C2110.84347,4527.994 2111.55747,4527.926 2112.40747,4527.79 L2112.40747,4530 C2111.55747,4530.204 2110.70747,4530.374 2109.65347,4530.374 C2106.38947,4530.374 2104.07747,4528.776 2104.07747,4525.002 L2104.07747,4515.788 L2101.28947,4515.788 L2101.28947,4513.442 L2104.07747,4513.442 L2104.07747,4508.92 L2106.69547,4508.92 L2106.69547,4513.442 L2111.86347,4513.442 L2111.86347,4515.788 L2106.69547,4515.788 L2106.69547,4524.832 C2106.69547,4527.314 2108.12347,4527.994 2110.19747,4527.994 Z M2124.98015,4513.068 C2129.74015,4513.068 2133.17415,4516.842 2133.17415,4521.704 C2133.17415,4526.6 2129.70615,4530.374 2124.98015,4530.374 C2122.53215,4530.374 2120.22015,4529.354 2118.89415,4527.586 L2118.89415,4536.12 L2116.27615,4536.12 L2116.27615,4513.442 L2118.72415,4513.442 L2118.72415,4516.094 C2120.01615,4514.19 2122.36215,4513.068 2124.98015,4513.068 Z M2124.60615,4527.96 C2127.97215,4527.96 2130.48815,4525.342 2130.48815,4521.738 C2130.48815,4518.134 2128.00615,4515.482 2124.60615,4515.482 C2121.75015,4515.482 2118.86015,4517.352 2118.86015,4521.704 C2118.86015,4526.056 2121.71615,4527.96 2124.60615,4527.96 Z M2140.34083,4504.5 L2140.34083,4530 L2137.72283,4530 L2137.72283,4504.5 L2140.34083,4504.5 Z M2151.99551,4513.068 C2155.76951,4513.068 2158.45551,4515.346 2158.45551,4519.8 L2158.45551,4530 L2156.00751,4530 L2156.00751,4527.858 C2154.81751,4529.456 2152.87951,4530.374 2150.43151,4530.374 C2147.09951,4530.374 2144.65151,4528.606 2144.65151,4525.716 C2144.65151,4522.928 2146.99751,4521.092 2150.60151,4521.092 L2155.83751,4521.092 L2155.83751,4519.664 C2155.83751,4516.876 2154.27351,4515.482 2151.82551,4515.482 C2149.75151,4515.482 2148.28951,4516.468 2146.99751,4518.134 L2145.26351,4516.706 C2146.82751,4514.19 2149.34351,4513.068 2151.99551,4513.068 Z M2150.77151,4528.198 C2153.49151,4528.198 2155.83751,4526.226 2155.83751,4523.642 L2155.83751,4523.234 L2150.90751,4523.234 C2148.59551,4523.234 2147.33751,4524.016 2147.33751,4525.58 C2147.33751,4527.348 2148.93551,4528.198 2150.77151,4528.198 Z M2171.43619,4513.068 C2174.42819,4513.068 2176.80819,4514.496 2178.27019,4516.672 L2176.40019,4518.168 C2175.17619,4516.536 2173.61219,4515.482 2171.47019,4515.482 C2168.00219,4515.482 2165.45219,4518.236 2165.45219,4521.704 C2165.45219,4525.206 2168.00219,4527.96 2171.47019,4527.96 C2173.57819,4527.96 2175.14219,4526.94 2176.36619,4525.308 L2178.23619,4526.77 C2176.77419,4528.946 2174.39419,4530.374 2171.43619,4530.374 C2166.60819,4530.374 2162.76619,4526.566 2162.76619,4521.704 C2162.76619,4516.876 2166.60819,4513.068 2171.43619,4513.068 Z M2197.13287,4520.548 C2197.13287,4521.432 2196.99687,4522.214 2196.92887,4522.52 L2183.87287,4522.52 C2184.21287,4525.818 2186.66087,4527.96 2189.92487,4527.96 C2191.99887,4527.96 2193.63087,4527.076 2194.99087,4525.716 L2196.52087,4527.484 C2194.85487,4529.252 2192.61087,4530.374 2189.89087,4530.374 C2184.89287,4530.374 2181.11887,4526.6 2181.11887,4521.738 C2181.11887,4516.91 2184.82487,4513.068 2189.58487,4513.068 C2193.83487,4513.068 2197.13287,4516.128 2197.13287,4520.548 Z M2189.51687,4515.448 C2186.72887,4515.448 2184.51887,4517.352 2183.97487,4520.208 L2194.44687,4520.208 C2194.41287,4517.148 2192.16887,4515.448 2189.51687,4515.448 Z M2217.99423,4527.994 C2218.64023,4527.994 2219.35423,4527.926 2220.20423,4527.79 L2220.20423,4530 C2219.35423,4530.204 2218.50423,4530.374 2217.45023,4530.374 C2214.18623,4530.374 2211.87423,4528.776 2211.87423,4525.002 L2211.87423,4515.788 L2209.08623,4515.788 L2209.08623,4513.442 L2211.87423,4513.442 L2211.87423,4508.92 L2214.49223,4508.92 L2214.49223,4513.442 L2219.66023,4513.442 L2219.66023,4515.788 L2214.49223,4515.788 L2214.49223,4524.832 C2214.49223,4527.314 2215.92023,4527.994 2217.99423,4527.994 Z M2231.65491,4513.068 C2235.53091,4513.068 2237.77491,4515.754 2237.77491,4519.596 L2237.77491,4530 L2235.15691,4530 L2235.15691,4519.936 C2235.15691,4517.318 2233.59291,4515.482 2231.04291,4515.482 C2228.49291,4515.482 2226.69091,4517.352 2226.69091,4519.936 L2226.69091,4530 L2224.07291,4530 L2224.07291,4504.5 L2226.69091,4504.5 L2226.69091,4515.312 C2227.77891,4513.918 2229.51291,4513.068 2231.65491,4513.068 Z M2258.09959,4520.548 C2258.09959,4521.432 2257.96359,4522.214 2257.89559,4522.52 L2244.83959,4522.52 C2245.17959,4525.818 2247.62759,4527.96 2250.89159,4527.96 C2252.96559,4527.96 2254.59759,4527.076 2255.95759,4525.716 L2257.48759,4527.484 C2255.82159,4529.252 2253.57759,4530.374 2250.85759,4530.374 C2245.85959,4530.374 2242.08559,4526.6 2242.08559,4521.738 C2242.08559,4516.91 2245.79159,4513.068 2250.55159,4513.068 C2254.80159,4513.068 2258.09959,4516.128 2258.09959,4520.548 Z M2250.48359,4515.448 C2247.69559,4515.448 2245.48559,4517.352 2244.94159,4520.208 L2255.41359,4520.208 C2255.37959,4517.148 2253.13559,4515.448 2250.48359,4515.448 Z M2278.07695,4513.068 C2281.85095,4513.068 2284.53695,4515.346 2284.53695,4519.8 L2284.53695,4530 L2282.08895,4530 L2282.08895,4527.858 C2280.89895,4529.456 2278.96095,4530.374 2276.51295,4530.374 C2273.18095,4530.374 2270.73295,4528.606 2270.73295,4525.716 C2270.73295,4522.928 2273.07895,4521.092 2276.68295,4521.092 L2281.91895,4521.092 L2281.91895,4519.664 C2281.91895,4516.876 2280.35495,4515.482 2277.90695,4515.482 C2275.83295,4515.482 2274.37095,4516.468 2273.07895,4518.134 L2271.34495,4516.706 C2272.90895,4514.19 2275.42495,4513.068 2278.07695,4513.068 Z M2276.85295,4528.198 C2279.57295,4528.198 2281.91895,4526.226 2281.91895,4523.642 L2281.91895,4523.234 L2276.98895,4523.234 C2274.67695,4523.234 2273.41895,4524.016 2273.41895,4525.58 C2273.41895,4527.348 2275.01695,4528.198 2276.85295,4528.198 Z M2298.74163,4513.068 C2303.50163,4513.068 2306.93563,4516.842 2306.93563,4521.704 C2306.93563,4526.6 2303.46763,4530.374 2298.74163,4530.374 C2296.29363,4530.374 2293.98163,4529.354 2292.65563,4527.586 L2292.65563,4536.12 L2290.03763,4536.12 L2290.03763,4513.442 L2292.48563,4513.442 L2292.48563,4516.094 C2293.77763,4514.19 2296.12363,4513.068 2298.74163,4513.068 Z M2298.36763,4527.96 C2301.73363,4527.96 2304.24963,4525.342 2304.24963,4521.738 C2304.24963,4518.134 2301.76763,4515.482 2298.36763,4515.482 C2295.51163,4515.482 2292.62163,4517.352 2292.62163,4521.704 C2292.62163,4526.056 2295.47763,4527.96 2298.36763,4527.96 Z M2320.18831,4513.068 C2324.94831,4513.068 2328.38231,4516.842 2328.38231,4521.704 C2328.38231,4526.6 2324.91431,4530.374 2320.18831,4530.374 C2317.74031,4530.374 2315.42831,4529.354 2314.10231,4527.586 L2314.10231,4536.12 L2311.48431,4536.12 L2311.48431,4513.442 L2313.93231,4513.442 L2313.93231,4516.094 C2315.22431,4514.19 2317.57031,4513.068 2320.18831,4513.068 Z M2319.81431,4527.96 C2323.18031,4527.96 2325.69631,4525.342 2325.69631,4521.738 C2325.69631,4518.134 2323.21431,4515.482 2319.81431,4515.482 C2316.95831,4515.482 2314.06831,4517.352 2314.06831,4521.704 C2314.06831,4526.056 2316.92431,4527.96 2319.81431,4527.96 Z M1633.62903,4551.068 C1638.38903,4551.068 1641.82303,4554.842 1641.82303,4559.704 C1641.82303,4564.6 1638.35503,4568.374 1633.62903,4568.374 C1631.18103,4568.374 1628.86903,4567.354 1627.54303,4565.586 L1627.54303,4574.12 L1624.92503,4574.12 L1624.92503,4551.442 L1627.37303,4551.442 L1627.37303,4554.094 C1628.66503,4552.19 1631.01103,4551.068 1633.62903,4551.068 Z M1633.25503,4565.96 C1636.62103,4565.96 1639.13703,4563.342 1639.13703,4559.738 C1639.13703,4556.134 1636.65503,4553.482 1633.25503,4553.482 C1630.39903,4553.482 1627.50903,4555.352 1627.50903,4559.704 C1627.50903,4564.056 1630.36503,4565.96 1633.25503,4565.96 Z M1653.95371,4551.306 C1654.49771,4551.306 1654.83771,4551.374 1655.17771,4551.442 L1655.17771,4553.754 L1654.19171,4553.754 C1651.50571,4553.754 1648.98971,4555.454 1648.98971,4558.616 L1648.98971,4568 L1646.37171,4568 L1646.37171,4551.442 L1648.81971,4551.442 L1648.81971,4553.822 C1650.04371,4552.19 1651.98171,4551.306 1653.95371,4551.306 Z M1665.77839,4551.068 C1670.57239,4551.068 1674.44839,4554.842 1674.44839,4559.704 C1674.44839,4564.532 1670.57239,4568.34 1665.74439,4568.34 C1660.95039,4568.306 1657.10839,4564.566 1657.10839,4559.704 C1657.10839,4554.842 1660.91639,4551.068 1665.77839,4551.068 Z M1665.77839,4553.482 C1662.31039,4553.482 1659.76039,4556.202 1659.79439,4559.738 C1659.79439,4563.24 1662.31039,4565.926 1665.74439,4565.926 C1669.17839,4565.926 1671.76239,4563.206 1671.76239,4559.738 C1671.76239,4556.168 1669.17839,4553.482 1665.77839,4553.482 Z M1690.08107,4551.442 L1692.86907,4551.442 L1685.08307,4568.374 L1684.13107,4568.374 L1676.31107,4551.442 L1679.09907,4551.442 L1684.60707,4563.92 L1690.08107,4551.442 Z M1697.92775,4543.214 C1698.98175,4543.214 1699.86575,4544.064 1699.86575,4545.118 C1699.86575,4546.206 1698.98175,4547.022 1697.92775,4547.022 C1696.80575,4547.022 1695.95575,4546.206 1695.95575,4545.118 C1695.95575,4544.064 1696.80575,4543.214 1697.92775,4543.214 Z M1699.21975,4551.442 L1699.21975,4568 L1696.60175,4568 L1696.60175,4551.442 L1699.21975,4551.442 Z M1718.04843,4542.5 L1720.66643,4542.5 L1720.66643,4568 L1718.18443,4568 L1718.18443,4565.348 C1716.89243,4567.252 1714.54643,4568.374 1711.92843,4568.374 C1707.20243,4568.374 1703.73443,4564.6 1703.73443,4559.738 C1703.73443,4554.842 1707.20243,4551.068 1711.92843,4551.068 C1714.44443,4551.068 1716.72243,4552.122 1718.04843,4553.89 L1718.04843,4542.5 Z M1712.30243,4565.96 C1715.15843,4565.96 1718.08243,4564.09 1718.08243,4559.738 C1718.08243,4555.386 1715.15843,4553.482 1712.30243,4553.482 C1708.93643,4553.482 1706.42043,4556.1 1706.42043,4559.704 C1706.42043,4563.308 1708.90243,4565.96 1712.30243,4565.96 Z M1741.19511,4558.548 C1741.19511,4559.432 1741.05911,4560.214 1740.99111,4560.52 L1727.93511,4560.52 C1728.27511,4563.818 1730.72311,4565.96 1733.98711,4565.96 C1736.06111,4565.96 1737.69311,4565.076 1739.05311,4563.716 L1740.58311,4565.484 C1738.91711,4567.252 1736.67311,4568.374 1733.95311,4568.374 C1728.95511,4568.374 1725.18111,4564.6 1725.18111,4559.738 C1725.18111,4554.91 1728.88711,4551.068 1733.64711,4551.068 C1737.89711,4551.068 1741.19511,4554.128 1741.19511,4558.548 Z M1733.57911,4553.448 C1730.79111,4553.448 1728.58111,4555.352 1728.03711,4558.208 L1738.50911,4558.208 C1738.47511,4555.148 1736.23111,4553.448 1733.57911,4553.448 Z M1758.86779,4542.5 L1761.48579,4542.5 L1761.48579,4568 L1759.00379,4568 L1759.00379,4565.348 C1757.71179,4567.252 1755.36579,4568.374 1752.74779,4568.374 C1748.02179,4568.374 1744.55379,4564.6 1744.55379,4559.738 C1744.55379,4554.842 1748.02179,4551.068 1752.74779,4551.068 C1755.26379,4551.068 1757.54179,4552.122 1758.86779,4553.89 L1758.86779,4542.5 Z M1753.12179,4565.96 C1755.97779,4565.96 1758.90179,4564.09 1758.90179,4559.738 C1758.90179,4555.386 1755.97779,4553.482 1753.12179,4553.482 C1749.75579,4553.482 1747.23979,4556.1 1747.23979,4559.704 C1747.23979,4563.308 1749.72179,4565.96 1753.12179,4565.96 Z M1777.99515,4543.214 C1779.04915,4543.214 1779.93315,4544.064 1779.93315,4545.118 C1779.93315,4546.206 1779.04915,4547.022 1777.99515,4547.022 C1776.87315,4547.022 1776.02315,4546.206 1776.02315,4545.118 C1776.02315,4544.064 1776.87315,4543.214 1777.99515,4543.214 Z M1779.28715,4551.442 L1779.28715,4568 L1776.66915,4568 L1776.66915,4551.442 L1779.28715,4551.442 Z M1792.53983,4551.068 C1796.44983,4551.068 1798.69383,4553.754 1798.69383,4557.596 L1798.69383,4568 L1796.07583,4568 L1796.07583,4557.902 C1796.07583,4555.284 1794.51183,4553.482 1791.96183,4553.482 C1789.41183,4553.482 1787.60983,4555.318 1787.60983,4557.902 L1787.60983,4568 L1784.99183,4568 L1784.99183,4551.442 L1787.43983,4551.442 L1787.43983,4553.244 C1788.59583,4551.884 1790.39783,4551.068 1792.53983,4551.068 Z M1820.50719,4565.994 C1821.15319,4565.994 1821.86719,4565.926 1822.71719,4565.79 L1822.71719,4568 C1821.86719,4568.204 1821.01719,4568.374 1819.96319,4568.374 C1816.69919,4568.374 1814.38719,4566.776 1814.38719,4563.002 L1814.38719,4553.788 L1811.59919,4553.788 L1811.59919,4551.442 L1814.38719,4551.442 L1814.38719,4546.92 L1817.00519,4546.92 L1817.00519,4551.442 L1822.17319,4551.442 L1822.17319,4553.788 L1817.00519,4553.788 L1817.00519,4562.832 C1817.00519,4565.314 1818.43319,4565.994 1820.50719,4565.994 Z M1834.16787,4551.068 C1838.04387,4551.068 1840.28787,4553.754 1840.28787,4557.596 L1840.28787,4568 L1837.66987,4568 L1837.66987,4557.936 C1837.66987,4555.318 1836.10587,4553.482 1833.55587,4553.482 C1831.00587,4553.482 1829.20387,4555.352 1829.20387,4557.936 L1829.20387,4568 L1826.58587,4568 L1826.58587,4542.5 L1829.20387,4542.5 L1829.20387,4553.312 C1830.29187,4551.918 1832.02587,4551.068 1834.16787,4551.068 Z M1860.61256,4558.548 C1860.61256,4559.432 1860.47656,4560.214 1860.40856,4560.52 L1847.35256,4560.52 C1847.69256,4563.818 1850.14056,4565.96 1853.40456,4565.96 C1855.47856,4565.96 1857.11056,4565.076 1858.47056,4563.716 L1860.00056,4565.484 C1858.33456,4567.252 1856.09056,4568.374 1853.37056,4568.374 C1848.37256,4568.374 1844.59856,4564.6 1844.59856,4559.738 C1844.59856,4554.91 1848.30456,4551.068 1853.06456,4551.068 C1857.31456,4551.068 1860.61256,4554.128 1860.61256,4558.548 Z M1852.99656,4553.448 C1850.20856,4553.448 1847.99856,4555.352 1847.45456,4558.208 L1857.92656,4558.208 C1857.89256,4555.148 1855.64856,4553.448 1852.99656,4553.448 Z M1883.34392,4551.068 C1888.06992,4551.068 1891.53792,4554.842 1891.53792,4559.738 C1891.53792,4564.6 1888.10392,4568.374 1883.37792,4568.374 C1880.79392,4568.374 1878.37992,4567.252 1877.08792,4565.348 L1877.08792,4568 L1874.63992,4568 L1874.63992,4542.5 L1877.25792,4542.5 L1877.25792,4553.89 C1878.54992,4552.156 1880.82792,4551.068 1883.34392,4551.068 Z M1882.96992,4565.96 C1886.36992,4565.96 1888.85192,4563.308 1888.85192,4559.704 C1888.85192,4556.1 1886.33592,4553.482 1882.96992,4553.482 C1880.07992,4553.482 1877.22392,4555.386 1877.22392,4559.738 C1877.22392,4564.09 1880.11392,4565.96 1882.96992,4565.96 Z M1909.5846,4551.442 L1909.5846,4561.404 C1909.5846,4565.654 1906.5586,4568.374 1902.7506,4568.374 C1898.8746,4568.374 1895.8826,4565.654 1895.8826,4561.404 L1895.8826,4551.442 L1898.4666,4551.442 L1898.4666,4561.574 C1898.4666,4564.294 1900.3706,4565.96 1902.7506,4565.96 C1905.0626,4565.96 1906.9666,4564.294 1906.9666,4561.574 L1906.9666,4551.442 L1909.5846,4551.442 Z M1916.41128,4543.214 C1917.46528,4543.214 1918.34928,4544.064 1918.34928,4545.118 C1918.34928,4546.206 1917.46528,4547.022 1916.41128,4547.022 C1915.28928,4547.022 1914.43928,4546.206 1914.43928,4545.118 C1914.43928,4544.064 1915.28928,4543.214 1916.41128,4543.214 Z M1917.70328,4551.442 L1917.70328,4568 L1915.08528,4568 L1915.08528,4551.442 L1917.70328,4551.442 Z M1926.02596,4542.5 L1926.02596,4568 L1923.40796,4568 L1923.40796,4542.5 L1926.02596,4542.5 Z M1944.85464,4542.5 L1947.47264,4542.5 L1947.47264,4568 L1944.99064,4568 L1944.99064,4565.348 C1943.69864,4567.252 1941.35264,4568.374 1938.73464,4568.374 C1934.00864,4568.374 1930.54064,4564.6 1930.54064,4559.738 C1930.54064,4554.842 1934.00864,4551.068 1938.73464,4551.068 C1941.25064,4551.068 1943.52864,4552.122 1944.85464,4553.89 L1944.85464,4542.5 Z M1939.10864,4565.96 C1941.96464,4565.96 1944.88864,4564.09 1944.88864,4559.738 C1944.88864,4555.386 1941.96464,4553.482 1939.10864,4553.482 C1935.74264,4553.482 1933.22664,4556.1 1933.22664,4559.704 C1933.22664,4563.308 1935.70864,4565.96 1939.10864,4565.96 Z M1954.50332,4543.214 C1955.55732,4543.214 1956.44132,4544.064 1956.44132,4545.118 C1956.44132,4546.206 1955.55732,4547.022 1954.50332,4547.022 C1953.38132,4547.022 1952.53132,4546.206 1952.53132,4545.118 C1952.53132,4544.064 1953.38132,4543.214 1954.50332,4543.214 Z M1955.79532,4551.442 L1955.79532,4568 L1953.17732,4568 L1953.17732,4551.442 L1955.79532,4551.442 Z M1969.048,4551.068 C1972.958,4551.068 1975.202,4553.754 1975.202,4557.596 L1975.202,4568 L1972.584,4568 L1972.584,4557.902 C1972.584,4555.284 1971.02,4553.482 1968.47,4553.482 C1965.92,4553.482 1964.118,4555.318 1964.118,4557.902 L1964.118,4568 L1961.5,4568 L1961.5,4551.442 L1963.948,4551.442 L1963.948,4553.244 C1965.104,4551.884 1966.906,4551.068 1969.048,4551.068 Z M1994.13268,4551.442 L1996.61468,4551.442 L1996.61468,4566.402 C1996.61468,4571.502 1993.38468,4574.494 1988.55668,4574.494 C1985.08868,4574.494 1982.40268,4572.93 1980.77068,4571.298 L1982.30068,4569.462 C1983.89868,4570.856 1985.76868,4572.08 1988.48868,4572.08 C1991.85468,4572.08 1993.99668,4570.21 1993.99668,4566.538 L1993.99668,4565.076 C1992.63668,4566.81 1990.32468,4567.83 1987.84268,4567.83 C1983.18468,4567.83 1979.71668,4564.294 1979.71668,4559.466 C1979.71668,4554.672 1983.18468,4551.068 1987.84268,4551.068 C1990.46068,4551.068 1992.84068,4552.224 1994.13268,4554.128 L1994.13268,4551.442 Z M1988.25068,4565.416 C1991.14068,4565.416 1994.03068,4563.614 1994.03068,4559.466 C1994.03068,4555.318 1991.10668,4553.55 1988.25068,4553.55 C1984.88468,4553.55 1982.36868,4555.998 1982.36868,4559.5 C1982.36868,4563.002 1984.88468,4565.416 1988.25068,4565.416 Z M2007.31736,4551.068 C2009.69736,4551.068 2011.56736,4552.088 2012.85936,4553.686 L2011.26136,4555.318 C2010.17336,4554.196 2008.74536,4553.482 2007.18136,4553.482 C2005.61736,4553.482 2004.42736,4554.196 2004.42736,4555.556 C2004.42736,4556.678 2005.27736,4557.222 2007.11336,4557.97 L2008.64336,4558.616 C2011.63536,4559.874 2013.02936,4561.166 2013.02936,4563.512 C2013.02936,4566.742 2010.27536,4568.374 2007.21536,4568.374 C2004.29136,4568.374 2002.08136,4566.912 2000.75536,4565.144 L2002.42136,4563.41 C2003.78136,4564.838 2005.17536,4565.96 2007.18136,4565.96 C2008.91536,4565.96 2010.34336,4565.11 2010.34336,4563.614 C2010.34336,4562.186 2009.11936,4561.642 2007.45336,4560.962 L2005.85536,4560.282 C2003.33936,4559.228 2001.74136,4558.072 2001.74136,4555.692 C2001.74136,4552.7 2004.29136,4551.068 2007.31736,4551.068 Z M2034.02672,4565.994 C2034.67272,4565.994 2035.38672,4565.926 2036.23672,4565.79 L2036.23672,4568 C2035.38672,4568.204 2034.53672,4568.374 2033.48272,4568.374 C2030.21872,4568.374 2027.90672,4566.776 2027.90672,4563.002 L2027.90672,4553.788 L2025.11872,4553.788 L2025.11872,4551.442 L2027.90672,4551.442 L2027.90672,4546.92 L2030.52472,4546.92 L2030.52472,4551.442 L2035.69272,4551.442 L2035.69272,4553.788 L2030.52472,4553.788 L2030.52472,4562.832 C2030.52472,4565.314 2031.95272,4565.994 2034.02672,4565.994 Z M2047.6874,4551.068 C2051.5634,4551.068 2053.8074,4553.754 2053.8074,4557.596 L2053.8074,4568 L2051.1894,4568 L2051.1894,4557.936 C2051.1894,4555.318 2049.6254,4553.482 2047.0754,4553.482 C2044.5254,4553.482 2042.7234,4555.352 2042.7234,4557.936 L2042.7234,4568 L2040.1054,4568 L2040.1054,4542.5 L2042.7234,4542.5 L2042.7234,4553.312 C2043.8114,4551.918 2045.5454,4551.068 2047.6874,4551.068 Z M2065.25808,4551.068 C2069.03208,4551.068 2071.71808,4553.346 2071.71808,4557.8 L2071.71808,4568 L2069.27008,4568 L2069.27008,4565.858 C2068.08008,4567.456 2066.14208,4568.374 2063.69408,4568.374 C2060.36208,4568.374 2057.91408,4566.606 2057.91408,4563.716 C2057.91408,4560.928 2060.26008,4559.092 2063.86408,4559.092 L2069.10008,4559.092 L2069.10008,4557.664 C2069.10008,4554.876 2067.53608,4553.482 2065.08808,4553.482 C2063.01408,4553.482 2061.55208,4554.468 2060.26008,4556.134 L2058.52608,4554.706 C2060.09008,4552.19 2062.60608,4551.068 2065.25808,4551.068 Z M2064.03408,4566.198 C2066.75408,4566.198 2069.10008,4564.226 2069.10008,4561.642 L2069.10008,4561.234 L2064.17008,4561.234 C2061.85808,4561.234 2060.60008,4562.016 2060.60008,4563.58 C2060.60008,4565.348 2062.19808,4566.198 2064.03408,4566.198 Z M2084.05276,4565.994 C2084.69876,4565.994 2085.41276,4565.926 2086.26276,4565.79 L2086.26276,4568 C2085.41276,4568.204 2084.56276,4568.374 2083.50876,4568.374 C2080.24476,4568.374 2077.93276,4566.776 2077.93276,4563.002 L2077.93276,4553.788 L2075.14476,4553.788 L2075.14476,4551.442 L2077.93276,4551.442 L2077.93276,4546.92 L2080.55076,4546.92 L2080.55076,4551.442 L2085.71876,4551.442 L2085.71876,4553.788 L2080.55076,4553.788 L2080.55076,4562.832 C2080.55076,4565.314 2081.97876,4565.994 2084.05276,4565.994 Z M2108.31413,4551.068 C2113.07413,4551.068 2116.50813,4554.842 2116.50813,4559.704 C2116.50813,4564.6 2113.04013,4568.374 2108.31413,4568.374 C2105.86613,4568.374 2103.55413,4567.354 2102.22813,4565.586 L2102.22813,4574.12 L2099.61013,4574.12 L2099.61013,4551.442 L2102.05813,4551.442 L2102.05813,4554.094 C2103.35013,4552.19 2105.69613,4551.068 2108.31413,4551.068 Z M2107.94013,4565.96 C2111.30613,4565.96 2113.82213,4563.342 2113.82213,4559.738 C2113.82213,4556.134 2111.34013,4553.482 2107.94013,4553.482 C2105.08413,4553.482 2102.19413,4555.352 2102.19413,4559.704 C2102.19413,4564.056 2105.05013,4565.96 2107.94013,4565.96 Z M2134.55481,4551.442 L2134.55481,4561.404 C2134.55481,4565.654 2131.52881,4568.374 2127.72081,4568.374 C2123.84481,4568.374 2120.85281,4565.654 2120.85281,4561.404 L2120.85281,4551.442 L2123.43681,4551.442 L2123.43681,4561.574 C2123.43681,4564.294 2125.34081,4565.96 2127.72081,4565.96 C2130.03281,4565.96 2131.93681,4564.294 2131.93681,4561.574 L2131.93681,4551.442 L2134.55481,4551.442 Z M2147.63749,4551.306 C2148.18149,4551.306 2148.52149,4551.374 2148.86149,4551.442 L2148.86149,4553.754 L2147.87549,4553.754 C2145.18949,4553.754 2142.67349,4555.454 2142.67349,4558.616 L2142.67349,4568 L2140.05549,4568 L2140.05549,4551.442 L2142.50349,4551.442 L2142.50349,4553.822 C2143.72749,4552.19 2145.66549,4551.306 2147.63749,4551.306 Z M2159.46217,4551.068 C2162.45417,4551.068 2164.83417,4552.496 2166.29617,4554.672 L2164.42617,4556.168 C2163.20217,4554.536 2161.63817,4553.482 2159.49617,4553.482 C2156.02817,4553.482 2153.47817,4556.236 2153.47817,4559.704 C2153.47817,4563.206 2156.02817,4565.96 2159.49617,4565.96 C2161.60417,4565.96 2163.16817,4564.94 2164.39217,4563.308 L2166.26217,4564.77 C2164.80017,4566.946 2162.42017,4568.374 2159.46217,4568.374 C2154.63417,4568.374 2150.79217,4564.566 2150.79217,4559.704 C2150.79217,4554.876 2154.63417,4551.068 2159.46217,4551.068 Z M2178.25685,4551.068 C2182.13285,4551.068 2184.37685,4553.754 2184.37685,4557.596 L2184.37685,4568 L2181.75885,4568 L2181.75885,4557.936 C2181.75885,4555.318 2180.19485,4553.482 2177.64485,4553.482 C2175.09485,4553.482 2173.29285,4555.352 2173.29285,4557.936 L2173.29285,4568 L2170.67485,4568 L2170.67485,4542.5 L2173.29285,4542.5 L2173.29285,4553.312 C2174.38085,4551.918 2176.11485,4551.068 2178.25685,4551.068 Z M2195.82753,4551.068 C2199.60153,4551.068 2202.28753,4553.346 2202.28753,4557.8 L2202.28753,4568 L2199.83953,4568 L2199.83953,4565.858 C2198.64953,4567.456 2196.71153,4568.374 2194.26353,4568.374 C2190.93153,4568.374 2188.48353,4566.606 2188.48353,4563.716 C2188.48353,4560.928 2190.82953,4559.092 2194.43353,4559.092 L2199.66953,4559.092 L2199.66953,4557.664 C2199.66953,4554.876 2198.10553,4553.482 2195.65753,4553.482 C2193.58353,4553.482 2192.12153,4554.468 2190.82953,4556.134 L2189.09553,4554.706 C2190.65953,4552.19 2193.17553,4551.068 2195.82753,4551.068 Z M2194.60353,4566.198 C2197.32353,4566.198 2199.66953,4564.226 2199.66953,4561.642 L2199.66953,4561.234 L2194.73953,4561.234 C2192.42753,4561.234 2191.16953,4562.016 2191.16953,4563.58 C2191.16953,4565.348 2192.76753,4566.198 2194.60353,4566.198 Z M2212.78621,4551.068 C2215.16621,4551.068 2217.03621,4552.088 2218.32821,4553.686 L2216.73021,4555.318 C2215.64221,4554.196 2214.21421,4553.482 2212.65021,4553.482 C2211.08621,4553.482 2209.89621,4554.196 2209.89621,4555.556 C2209.89621,4556.678 2210.74621,4557.222 2212.58221,4557.97 L2214.11221,4558.616 C2217.10421,4559.874 2218.49821,4561.166 2218.49821,4563.512 C2218.49821,4566.742 2215.74421,4568.374 2212.68421,4568.374 C2209.76021,4568.374 2207.55021,4566.912 2206.22421,4565.144 L2207.89021,4563.41 C2209.25021,4564.838 2210.64421,4565.96 2212.65021,4565.96 C2214.38421,4565.96 2215.81221,4565.11 2215.81221,4563.614 C2215.81221,4562.186 2214.58821,4561.642 2212.92221,4560.962 L2211.32421,4560.282 C2208.80821,4559.228 2207.21021,4558.072 2207.21021,4555.692 C2207.21021,4552.7 2209.76021,4551.068 2212.78621,4551.068 Z M2238.00689,4558.548 C2238.00689,4559.432 2237.87089,4560.214 2237.80289,4560.52 L2224.74689,4560.52 C2225.08689,4563.818 2227.53489,4565.96 2230.79889,4565.96 C2232.87289,4565.96 2234.50489,4565.076 2235.86489,4563.716 L2237.39489,4565.484 C2235.72889,4567.252 2233.48489,4568.374 2230.76489,4568.374 C2225.76689,4568.374 2221.99289,4564.6 2221.99289,4559.738 C2221.99289,4554.91 2225.69889,4551.068 2230.45889,4551.068 C2234.70889,4551.068 2238.00689,4554.128 2238.00689,4558.548 Z M2230.39089,4553.448 C2227.60289,4553.448 2225.39289,4555.352 2224.84889,4558.208 L2235.32089,4558.208 C2235.28689,4555.148 2233.04289,4553.448 2230.39089,4553.448 Z M2255.67957,4542.5 L2258.29757,4542.5 L2258.29757,4568 L2255.81557,4568 L2255.81557,4565.348 C2254.52357,4567.252 2252.17757,4568.374 2249.55957,4568.374 C2244.83357,4568.374 2241.36557,4564.6 2241.36557,4559.738 C2241.36557,4554.842 2244.83357,4551.068 2249.55957,4551.068 C2252.07557,4551.068 2254.35357,4552.122 2255.67957,4553.89 L2255.67957,4542.5 Z M2249.93357,4565.96 C2252.78957,4565.96 2255.71357,4564.09 2255.71357,4559.738 C2255.71357,4555.386 2252.78957,4553.482 2249.93357,4553.482 C2246.56757,4553.482 2244.05157,4556.1 2244.05157,4559.704 C2244.05157,4563.308 2246.53357,4565.96 2249.93357,4565.96 Z M2274.80693,4543.214 C2275.86093,4543.214 2276.74493,4544.064 2276.74493,4545.118 C2276.74493,4546.206 2275.86093,4547.022 2274.80693,4547.022 C2273.68493,4547.022 2272.83493,4546.206 2272.83493,4545.118 C2272.83493,4544.064 2273.68493,4543.214 2274.80693,4543.214 Z M2276.09893,4551.442 L2276.09893,4568 L2273.48093,4568 L2273.48093,4551.442 L2276.09893,4551.442 Z M2288.63761,4565.994 C2289.28361,4565.994 2289.99761,4565.926 2290.84761,4565.79 L2290.84761,4568 C2289.99761,4568.204 2289.14761,4568.374 2288.09361,4568.374 C2284.82961,4568.374 2282.51761,4566.776 2282.51761,4563.002 L2282.51761,4553.788 L2279.72961,4553.788 L2279.72961,4551.442 L2282.51761,4551.442 L2282.51761,4546.92 L2285.13561,4546.92 L2285.13561,4551.442 L2290.30361,4551.442 L2290.30361,4553.788 L2285.13561,4553.788 L2285.13561,4562.832 C2285.13561,4565.314 2286.56361,4565.994 2288.63761,4565.994 Z M2296.41629,4564.09 C2297.57229,4564.09 2298.55829,4564.974 2298.55829,4566.232 C2298.55829,4567.49 2297.57229,4568.374 2296.41629,4568.374 C2295.26029,4568.374 2294.27429,4567.49 2294.27429,4566.232 C2294.27429,4564.974 2295.26029,4564.09 2296.41629,4564.09 Z" id="spare3"></path>
        </g>
    </g>
</svg>