<?xml version="1.0" encoding="UTF-8"?>
<svg width="784px" height="147px" viewBox="0 0 784 147" version="1.1" xmlns="http://www.w3.org/2000/svg" xmlns:xlink="http://www.w3.org/1999/xlink">
    <!-- Generator: Sketch 53.2 (72643) - https://sketchapp.com -->
    <title>spare2</title>
    <desc>Created with Sketch.</desc>
    <g id="Page-1" stroke="none" stroke-width="1" fill="none" fill-rule="evenodd">
        <g id="Artboard" transform="translate(-1569.000000, -4192.000000)" fill="#404648" fill-rule="nonzero">
            <path d="M1602.65869,4205.658 C1605.48069,4206.474 1607.07869,4208.684 1607.07869,4211.54 C1607.07869,4215.246 1604.42669,4218 1599.97269,4218 L1590.72469,4218 L1590.72469,4195.56 L1598.44269,4195.56 C1602.42069,4195.56 1604.83469,4197.974 1604.83469,4201.238 C1604.83469,4203.108 1604.05269,4204.638 1602.65869,4205.658 Z M1598.17069,4197.94 L1593.37669,4197.94 L1593.37669,4204.91 L1598.17069,4204.91 C1600.78869,4204.91 1602.11469,4203.482 1602.11469,4201.408 C1602.11469,4199.334 1600.78869,4197.94 1598.17069,4197.94 Z M1599.70069,4215.62 C1602.72669,4215.62 1604.35869,4213.92 1604.35869,4211.472 C1604.35869,4209.058 1602.72669,4207.324 1599.70069,4207.324 L1593.37669,4207.324 L1593.37669,4215.62 L1599.70069,4215.62 Z M1626.24737,4208.548 C1626.24737,4209.432 1626.11137,4210.214 1626.04337,4210.52 L1612.98737,4210.52 C1613.32737,4213.818 1615.77537,4215.96 1619.03937,4215.96 C1621.11337,4215.96 1622.74537,4215.076 1624.10537,4213.716 L1625.63537,4215.484 C1623.96937,4217.252 1621.72537,4218.374 1619.00537,4218.374 C1614.00737,4218.374 1610.23337,4214.6 1610.23337,4209.738 C1610.23337,4204.91 1613.93937,4201.068 1618.69937,4201.068 C1622.94937,4201.068 1626.24737,4204.128 1626.24737,4208.548 Z M1618.63137,4203.448 C1615.84337,4203.448 1613.63337,4205.352 1613.08937,4208.208 L1623.56137,4208.208 C1623.52737,4205.148 1621.28337,4203.448 1618.63137,4203.448 Z M1638.27605,4201.068 C1641.26805,4201.068 1643.64805,4202.496 1645.11005,4204.672 L1643.24005,4206.168 C1642.01605,4204.536 1640.45205,4203.482 1638.31005,4203.482 C1634.84205,4203.482 1632.29205,4206.236 1632.29205,4209.704 C1632.29205,4213.206 1634.84205,4215.96 1638.31005,4215.96 C1640.41805,4215.96 1641.98205,4214.94 1643.20605,4213.308 L1645.07605,4214.77 C1643.61405,4216.946 1641.23405,4218.374 1638.27605,4218.374 C1633.44805,4218.374 1629.60605,4214.566 1629.60605,4209.704 C1629.60605,4204.876 1633.44805,4201.068 1638.27605,4201.068 Z M1655.43873,4201.068 C1659.21273,4201.068 1661.89873,4203.346 1661.89873,4207.8 L1661.89873,4218 L1659.45073,4218 L1659.45073,4215.858 C1658.26073,4217.456 1656.32273,4218.374 1653.87473,4218.374 C1650.54273,4218.374 1648.09473,4216.606 1648.09473,4213.716 C1648.09473,4210.928 1650.44073,4209.092 1654.04473,4209.092 L1659.28073,4209.092 L1659.28073,4207.664 C1659.28073,4204.876 1657.71673,4203.482 1655.26873,4203.482 C1653.19473,4203.482 1651.73273,4204.468 1650.44073,4206.134 L1648.70673,4204.706 C1650.27073,4202.19 1652.78673,4201.068 1655.43873,4201.068 Z M1654.21473,4216.198 C1656.93473,4216.198 1659.28073,4214.226 1659.28073,4211.642 L1659.28073,4211.234 L1654.35073,4211.234 C1652.03873,4211.234 1650.78073,4212.016 1650.78073,4213.58 C1650.78073,4215.348 1652.37873,4216.198 1654.21473,4216.198 Z M1680.89741,4201.442 L1680.89741,4211.404 C1680.89741,4215.654 1677.87141,4218.374 1674.06341,4218.374 C1670.18741,4218.374 1667.19541,4215.654 1667.19541,4211.404 L1667.19541,4201.442 L1669.77941,4201.442 L1669.77941,4211.574 C1669.77941,4214.294 1671.68341,4215.96 1674.06341,4215.96 C1676.37541,4215.96 1678.27941,4214.294 1678.27941,4211.574 L1678.27941,4201.442 L1680.89741,4201.442 Z M1691.39609,4201.068 C1693.77609,4201.068 1695.64609,4202.088 1696.93809,4203.686 L1695.34009,4205.318 C1694.25209,4204.196 1692.82409,4203.482 1691.26009,4203.482 C1689.69609,4203.482 1688.50609,4204.196 1688.50609,4205.556 C1688.50609,4206.678 1689.35609,4207.222 1691.19209,4207.97 L1692.72209,4208.616 C1695.71409,4209.874 1697.10809,4211.166 1697.10809,4213.512 C1697.10809,4216.742 1694.35409,4218.374 1691.29409,4218.374 C1688.37009,4218.374 1686.16009,4216.912 1684.83409,4215.144 L1686.50009,4213.41 C1687.86009,4214.838 1689.25409,4215.96 1691.26009,4215.96 C1692.99409,4215.96 1694.42209,4215.11 1694.42209,4213.614 C1694.42209,4212.186 1693.19809,4211.642 1691.53209,4210.962 L1689.93409,4210.282 C1687.41809,4209.228 1685.82009,4208.072 1685.82009,4205.692 C1685.82009,4202.7 1688.37009,4201.068 1691.39609,4201.068 Z M1716.61677,4208.548 C1716.61677,4209.432 1716.48077,4210.214 1716.41277,4210.52 L1703.35677,4210.52 C1703.69677,4213.818 1706.14477,4215.96 1709.40877,4215.96 C1711.48277,4215.96 1713.11477,4215.076 1714.47477,4213.716 L1716.00477,4215.484 C1714.33877,4217.252 1712.09477,4218.374 1709.37477,4218.374 C1704.37677,4218.374 1700.60277,4214.6 1700.60277,4209.738 C1700.60277,4204.91 1704.30877,4201.068 1709.06877,4201.068 C1713.31877,4201.068 1716.61677,4204.128 1716.61677,4208.548 Z M1709.00077,4203.448 C1706.21277,4203.448 1704.00277,4205.352 1703.45877,4208.208 L1713.93077,4208.208 C1713.89677,4205.148 1711.65277,4203.448 1709.00077,4203.448 Z M1737.34213,4195.186 C1740.40213,4195.186 1742.98613,4196.784 1744.38013,4198.994 L1742.44213,4200.456 C1741.25213,4198.654 1739.34813,4197.634 1737.30813,4197.634 C1735.23413,4197.634 1733.33013,4198.688 1733.33013,4200.898 C1733.33013,4202.938 1734.89413,4203.686 1736.93413,4204.672 L1739.41613,4205.862 C1742.68013,4207.426 1744.65213,4209.092 1744.65213,4212.118 C1744.65213,4215.892 1741.55813,4218.374 1737.41013,4218.374 C1733.84013,4218.374 1730.88213,4216.504 1729.14813,4213.546 L1731.12013,4212.084 C1732.48013,4214.158 1734.48613,4215.926 1737.37613,4215.926 C1740.02813,4215.926 1741.89813,4214.464 1741.89813,4212.186 C1741.89813,4210.112 1740.36813,4209.296 1738.15813,4208.242 L1735.64213,4207.052 C1733.02413,4205.794 1730.57613,4204.196 1730.57613,4201.034 C1730.57613,4197.464 1733.70413,4195.186 1737.34213,4195.186 Z M1758.27881,4201.068 C1763.03881,4201.068 1766.47281,4204.842 1766.47281,4209.704 C1766.47281,4214.6 1763.00481,4218.374 1758.27881,4218.374 C1755.83081,4218.374 1753.51881,4217.354 1752.19281,4215.586 L1752.19281,4224.12 L1749.57481,4224.12 L1749.57481,4201.442 L1752.02281,4201.442 L1752.02281,4204.094 C1753.31481,4202.19 1755.66081,4201.068 1758.27881,4201.068 Z M1757.90481,4215.96 C1761.27081,4215.96 1763.78681,4213.342 1763.78681,4209.738 C1763.78681,4206.134 1761.30481,4203.482 1757.90481,4203.482 C1755.04881,4203.482 1752.15881,4205.352 1752.15881,4209.704 C1752.15881,4214.056 1755.01481,4215.96 1757.90481,4215.96 Z M1776.97149,4201.068 C1780.74549,4201.068 1783.43149,4203.346 1783.43149,4207.8 L1783.43149,4218 L1780.98349,4218 L1780.98349,4215.858 C1779.79349,4217.456 1777.85549,4218.374 1775.40749,4218.374 C1772.07549,4218.374 1769.62749,4216.606 1769.62749,4213.716 C1769.62749,4210.928 1771.97349,4209.092 1775.57749,4209.092 L1780.81349,4209.092 L1780.81349,4207.664 C1780.81349,4204.876 1779.24949,4203.482 1776.80149,4203.482 C1774.72749,4203.482 1773.26549,4204.468 1771.97349,4206.134 L1770.23949,4204.706 C1771.80349,4202.19 1774.31949,4201.068 1776.97149,4201.068 Z M1775.74749,4216.198 C1778.46749,4216.198 1780.81349,4214.226 1780.81349,4211.642 L1780.81349,4211.234 L1775.88349,4211.234 C1773.57149,4211.234 1772.31349,4212.016 1772.31349,4213.58 C1772.31349,4215.348 1773.91149,4216.198 1775.74749,4216.198 Z M1796.51417,4201.306 C1797.05817,4201.306 1797.39817,4201.374 1797.73817,4201.442 L1797.73817,4203.754 L1796.75217,4203.754 C1794.06617,4203.754 1791.55017,4205.454 1791.55017,4208.616 L1791.55017,4218 L1788.93217,4218 L1788.93217,4201.442 L1791.38017,4201.442 L1791.38017,4203.822 C1792.60417,4202.19 1794.54217,4201.306 1796.51417,4201.306 Z M1815.68285,4208.548 C1815.68285,4209.432 1815.54685,4210.214 1815.47885,4210.52 L1802.42285,4210.52 C1802.76285,4213.818 1805.21085,4215.96 1808.47485,4215.96 C1810.54885,4215.96 1812.18085,4215.076 1813.54085,4213.716 L1815.07085,4215.484 C1813.40485,4217.252 1811.16085,4218.374 1808.44085,4218.374 C1803.44285,4218.374 1799.66885,4214.6 1799.66885,4209.738 C1799.66885,4204.91 1803.37485,4201.068 1808.13485,4201.068 C1812.38485,4201.068 1815.68285,4204.128 1815.68285,4208.548 Z M1808.06685,4203.448 C1805.27885,4203.448 1803.06885,4205.352 1802.52485,4208.208 L1812.99685,4208.208 C1812.96285,4205.148 1810.71885,4203.448 1808.06685,4203.448 Z M1836.54422,4215.994 C1837.19022,4215.994 1837.90422,4215.926 1838.75422,4215.79 L1838.75422,4218 C1837.90422,4218.204 1837.05422,4218.374 1836.00022,4218.374 C1832.73622,4218.374 1830.42422,4216.776 1830.42422,4213.002 L1830.42422,4203.788 L1827.63622,4203.788 L1827.63622,4201.442 L1830.42422,4201.442 L1830.42422,4196.92 L1833.04222,4196.92 L1833.04222,4201.442 L1838.21022,4201.442 L1838.21022,4203.788 L1833.04222,4203.788 L1833.04222,4212.832 C1833.04222,4215.314 1834.47022,4215.994 1836.54422,4215.994 Z M1849.7629,4201.068 C1854.5569,4201.068 1858.4329,4204.842 1858.4329,4209.704 C1858.4329,4214.532 1854.5569,4218.34 1849.7289,4218.34 C1844.9349,4218.306 1841.0929,4214.566 1841.0929,4209.704 C1841.0929,4204.842 1844.9009,4201.068 1849.7629,4201.068 Z M1849.7629,4203.482 C1846.2949,4203.482 1843.7449,4206.202 1843.7789,4209.738 C1843.7789,4213.24 1846.2949,4215.926 1849.7289,4215.926 C1853.1629,4215.926 1855.7469,4213.206 1855.7469,4209.738 C1855.7469,4206.168 1853.1629,4203.482 1849.7629,4203.482 Z M1879.15826,4195.186 C1882.21826,4195.186 1884.80226,4196.784 1886.19626,4198.994 L1884.25826,4200.456 C1883.06826,4198.654 1881.16426,4197.634 1879.12426,4197.634 C1877.05026,4197.634 1875.14626,4198.688 1875.14626,4200.898 C1875.14626,4202.938 1876.71026,4203.686 1878.75026,4204.672 L1881.23226,4205.862 C1884.49626,4207.426 1886.46826,4209.092 1886.46826,4212.118 C1886.46826,4215.892 1883.37426,4218.374 1879.22626,4218.374 C1875.65626,4218.374 1872.69826,4216.504 1870.96426,4213.546 L1872.93626,4212.084 C1874.29626,4214.158 1876.30226,4215.926 1879.19226,4215.926 C1881.84426,4215.926 1883.71426,4214.464 1883.71426,4212.186 C1883.71426,4210.112 1882.18426,4209.296 1879.97426,4208.242 L1877.45826,4207.052 C1874.84026,4205.794 1872.39226,4204.196 1872.39226,4201.034 C1872.39226,4197.464 1875.52026,4195.186 1879.15826,4195.186 Z M1898.97294,4201.068 C1902.84894,4201.068 1905.09294,4203.754 1905.09294,4207.596 L1905.09294,4218 L1902.47494,4218 L1902.47494,4207.936 C1902.47494,4205.318 1900.91094,4203.482 1898.36094,4203.482 C1895.81094,4203.482 1894.00894,4205.352 1894.00894,4207.936 L1894.00894,4218 L1891.39094,4218 L1891.39094,4192.5 L1894.00894,4192.5 L1894.00894,4203.312 C1895.09694,4201.918 1896.83094,4201.068 1898.97294,4201.068 Z M1916.54362,4201.068 C1920.31762,4201.068 1923.00362,4203.346 1923.00362,4207.8 L1923.00362,4218 L1920.55562,4218 L1920.55562,4215.858 C1919.36562,4217.456 1917.42762,4218.374 1914.97962,4218.374 C1911.64762,4218.374 1909.19962,4216.606 1909.19962,4213.716 C1909.19962,4210.928 1911.54562,4209.092 1915.14962,4209.092 L1920.38562,4209.092 L1920.38562,4207.664 C1920.38562,4204.876 1918.82162,4203.482 1916.37362,4203.482 C1914.29962,4203.482 1912.83762,4204.468 1911.54562,4206.134 L1909.81162,4204.706 C1911.37562,4202.19 1913.89162,4201.068 1916.54362,4201.068 Z M1915.31962,4216.198 C1918.03962,4216.198 1920.38562,4214.226 1920.38562,4211.642 L1920.38562,4211.234 L1915.45562,4211.234 C1913.14362,4211.234 1911.88562,4212.016 1911.88562,4213.58 C1911.88562,4215.348 1913.48362,4216.198 1915.31962,4216.198 Z M1936.0863,4201.306 C1936.6303,4201.306 1936.9703,4201.374 1937.3103,4201.442 L1937.3103,4203.754 L1936.3243,4203.754 C1933.6383,4203.754 1931.1223,4205.454 1931.1223,4208.616 L1931.1223,4218 L1928.5043,4218 L1928.5043,4201.442 L1930.9523,4201.442 L1930.9523,4203.822 C1932.1763,4202.19 1934.1143,4201.306 1936.0863,4201.306 Z M1955.25498,4208.548 C1955.25498,4209.432 1955.11898,4210.214 1955.05098,4210.52 L1941.99498,4210.52 C1942.33498,4213.818 1944.78298,4215.96 1948.04698,4215.96 C1950.12098,4215.96 1951.75298,4215.076 1953.11298,4213.716 L1954.64298,4215.484 C1952.97698,4217.252 1950.73298,4218.374 1948.01298,4218.374 C1943.01498,4218.374 1939.24098,4214.6 1939.24098,4209.738 C1939.24098,4204.91 1942.94698,4201.068 1947.70698,4201.068 C1951.95698,4201.068 1955.25498,4204.128 1955.25498,4208.548 Z M1947.63898,4203.448 C1944.85098,4203.448 1942.64098,4205.352 1942.09698,4208.208 L1952.56898,4208.208 C1952.53498,4205.148 1950.29098,4203.448 1947.63898,4203.448 Z M1976.86434,4201.068 C1980.74034,4201.068 1982.98434,4203.754 1982.98434,4207.596 L1982.98434,4218 L1980.36634,4218 L1980.36634,4207.936 C1980.36634,4205.318 1978.80234,4203.482 1976.25234,4203.482 C1973.70234,4203.482 1971.90034,4205.352 1971.90034,4207.936 L1971.90034,4218 L1969.28234,4218 L1969.28234,4192.5 L1971.90034,4192.5 L1971.90034,4203.312 C1972.98834,4201.918 1974.72234,4201.068 1976.86434,4201.068 Z M1994.43502,4201.068 C1998.20902,4201.068 2000.89502,4203.346 2000.89502,4207.8 L2000.89502,4218 L1998.44702,4218 L1998.44702,4215.858 C1997.25702,4217.456 1995.31902,4218.374 1992.87102,4218.374 C1989.53902,4218.374 1987.09102,4216.606 1987.09102,4213.716 C1987.09102,4210.928 1989.43702,4209.092 1993.04102,4209.092 L1998.27702,4209.092 L1998.27702,4207.664 C1998.27702,4204.876 1996.71302,4203.482 1994.26502,4203.482 C1992.19102,4203.482 1990.72902,4204.468 1989.43702,4206.134 L1987.70302,4204.706 C1989.26702,4202.19 1991.78302,4201.068 1994.43502,4201.068 Z M1993.21102,4216.198 C1995.93102,4216.198 1998.27702,4214.226 1998.27702,4211.642 L1998.27702,4211.234 L1993.34702,4211.234 C1991.03502,4211.234 1989.77702,4212.016 1989.77702,4213.58 C1989.77702,4215.348 1991.37502,4216.198 1993.21102,4216.198 Z M2019.5197,4192.5 L2022.1377,4192.5 L2022.1377,4218 L2019.6557,4218 L2019.6557,4215.348 C2018.3637,4217.252 2016.0177,4218.374 2013.3997,4218.374 C2008.6737,4218.374 2005.2057,4214.6 2005.2057,4209.738 C2005.2057,4204.842 2008.6737,4201.068 2013.3997,4201.068 C2015.9157,4201.068 2018.1937,4202.122 2019.5197,4203.89 L2019.5197,4192.5 Z M2013.7737,4215.96 C2016.6297,4215.96 2019.5537,4214.09 2019.5537,4209.738 C2019.5537,4205.386 2016.6297,4203.482 2013.7737,4203.482 C2010.4077,4203.482 2007.8917,4206.1 2007.8917,4209.704 C2007.8917,4213.308 2010.3737,4215.96 2013.7737,4215.96 Z M2043.27106,4201.068 C2047.04506,4201.068 2049.73106,4203.346 2049.73106,4207.8 L2049.73106,4218 L2047.28306,4218 L2047.28306,4215.858 C2046.09306,4217.456 2044.15506,4218.374 2041.70706,4218.374 C2038.37506,4218.374 2035.92706,4216.606 2035.92706,4213.716 C2035.92706,4210.928 2038.27306,4209.092 2041.87706,4209.092 L2047.11306,4209.092 L2047.11306,4207.664 C2047.11306,4204.876 2045.54906,4203.482 2043.10106,4203.482 C2041.02706,4203.482 2039.56506,4204.468 2038.27306,4206.134 L2036.53906,4204.706 C2038.10306,4202.19 2040.61906,4201.068 2043.27106,4201.068 Z M2042.04706,4216.198 C2044.76706,4216.198 2047.11306,4214.226 2047.11306,4211.642 L2047.11306,4211.234 L2042.18306,4211.234 C2039.87106,4211.234 2038.61306,4212.016 2038.61306,4213.58 C2038.61306,4215.348 2040.21106,4216.198 2042.04706,4216.198 Z M2062.77974,4201.068 C2066.68974,4201.068 2068.93374,4203.754 2068.93374,4207.596 L2068.93374,4218 L2066.31574,4218 L2066.31574,4207.902 C2066.31574,4205.284 2064.75174,4203.482 2062.20174,4203.482 C2059.65174,4203.482 2057.84974,4205.318 2057.84974,4207.902 L2057.84974,4218 L2055.23174,4218 L2055.23174,4201.442 L2057.67974,4201.442 L2057.67974,4203.244 C2058.83574,4201.884 2060.63774,4201.068 2062.77974,4201.068 Z M2098.7371,4208.548 C2098.7371,4209.432 2098.6011,4210.214 2098.5331,4210.52 L2085.4771,4210.52 C2085.8171,4213.818 2088.2651,4215.96 2091.5291,4215.96 C2093.6031,4215.96 2095.2351,4215.076 2096.5951,4213.716 L2098.1251,4215.484 C2096.4591,4217.252 2094.2151,4218.374 2091.4951,4218.374 C2086.4971,4218.374 2082.7231,4214.6 2082.7231,4209.738 C2082.7231,4204.91 2086.4291,4201.068 2091.1891,4201.068 C2095.4391,4201.068 2098.7371,4204.128 2098.7371,4208.548 Z M2091.1211,4203.448 C2088.3331,4203.448 2086.1231,4205.352 2085.5791,4208.208 L2096.0511,4208.208 C2096.0171,4205.148 2093.7731,4203.448 2091.1211,4203.448 Z M2116.54578,4201.442 L2119.02778,4201.442 L2119.02778,4224.12 L2116.40978,4224.12 L2116.40978,4215.586 C2115.04978,4217.354 2112.73778,4218.374 2110.28978,4218.374 C2105.56378,4218.374 2102.09578,4214.6 2102.09578,4209.704 C2102.09578,4204.842 2105.56378,4201.068 2110.28978,4201.068 C2112.90778,4201.068 2115.25378,4202.224 2116.54578,4204.094 L2116.54578,4201.442 Z M2110.66378,4215.96 C2113.51978,4215.96 2116.44378,4214.056 2116.44378,4209.704 C2116.44378,4205.352 2113.51978,4203.482 2110.66378,4203.482 C2107.26378,4203.482 2104.78178,4206.168 2104.78178,4209.738 C2104.78178,4213.342 2107.29778,4215.96 2110.66378,4215.96 Z M2138.23047,4201.442 L2138.23047,4211.404 C2138.23047,4215.654 2135.20447,4218.374 2131.39647,4218.374 C2127.52047,4218.374 2124.52847,4215.654 2124.52847,4211.404 L2124.52847,4201.442 L2127.11247,4201.442 L2127.11247,4211.574 C2127.11247,4214.294 2129.01647,4215.96 2131.39647,4215.96 C2133.70847,4215.96 2135.61247,4214.294 2135.61247,4211.574 L2135.61247,4201.442 L2138.23047,4201.442 Z M2149.68115,4201.068 C2153.45515,4201.068 2156.14115,4203.346 2156.14115,4207.8 L2156.14115,4218 L2153.69315,4218 L2153.69315,4215.858 C2152.50315,4217.456 2150.56515,4218.374 2148.11715,4218.374 C2144.78515,4218.374 2142.33715,4216.606 2142.33715,4213.716 C2142.33715,4210.928 2144.68315,4209.092 2148.28715,4209.092 L2153.52315,4209.092 L2153.52315,4207.664 C2153.52315,4204.876 2151.95915,4203.482 2149.51115,4203.482 C2147.43715,4203.482 2145.97515,4204.468 2144.68315,4206.134 L2142.94915,4204.706 C2144.51315,4202.19 2147.02915,4201.068 2149.68115,4201.068 Z M2148.45715,4216.198 C2151.17715,4216.198 2153.52315,4214.226 2153.52315,4211.642 L2153.52315,4211.234 L2148.59315,4211.234 C2146.28115,4211.234 2145.02315,4212.016 2145.02315,4213.58 C2145.02315,4215.348 2146.62115,4216.198 2148.45715,4216.198 Z M2164.25983,4192.5 L2164.25983,4218 L2161.64183,4218 L2161.64183,4192.5 L2164.25983,4192.5 Z M2185.39319,4201.068 C2189.16719,4201.068 2191.85319,4203.346 2191.85319,4207.8 L2191.85319,4218 L2189.40519,4218 L2189.40519,4215.858 C2188.21519,4217.456 2186.27719,4218.374 2183.82919,4218.374 C2180.49719,4218.374 2178.04919,4216.606 2178.04919,4213.716 C2178.04919,4210.928 2180.39519,4209.092 2183.99919,4209.092 L2189.23519,4209.092 L2189.23519,4207.664 C2189.23519,4204.876 2187.67119,4203.482 2185.22319,4203.482 C2183.14919,4203.482 2181.68719,4204.468 2180.39519,4206.134 L2178.66119,4204.706 C2180.22519,4202.19 2182.74119,4201.068 2185.39319,4201.068 Z M2184.16919,4216.198 C2186.88919,4216.198 2189.23519,4214.226 2189.23519,4211.642 L2189.23519,4211.234 L2184.30519,4211.234 C2181.99319,4211.234 2180.73519,4212.016 2180.73519,4213.58 C2180.73519,4215.348 2182.33319,4216.198 2184.16919,4216.198 Z M2215.50987,4201.068 C2219.38587,4201.068 2221.52787,4203.754 2221.52787,4207.596 L2221.52787,4218 L2218.90987,4218 L2218.90987,4207.936 C2218.90987,4205.318 2217.48187,4203.482 2214.99987,4203.482 C2212.48387,4203.482 2210.74987,4205.386 2210.74987,4207.698 L2210.74987,4218 L2208.13187,4218 L2208.13187,4207.936 C2208.13187,4205.318 2206.63587,4203.482 2204.18787,4203.482 C2201.67187,4203.482 2199.97187,4205.318 2199.97187,4207.936 L2199.97187,4218 L2197.35387,4218 L2197.35387,4201.442 L2199.80187,4201.442 L2199.80187,4203.176 C2200.95787,4201.85 2202.65787,4201.068 2204.73187,4201.068 C2207.21387,4201.068 2208.91387,4202.19 2209.83187,4203.924 C2210.98787,4202.258 2212.95987,4201.068 2215.50987,4201.068 Z M2234.50855,4201.068 C2239.30255,4201.068 2243.17855,4204.842 2243.17855,4209.704 C2243.17855,4214.532 2239.30255,4218.34 2234.47455,4218.34 C2229.68055,4218.306 2225.83855,4214.566 2225.83855,4209.704 C2225.83855,4204.842 2229.64655,4201.068 2234.50855,4201.068 Z M2234.50855,4203.482 C2231.04055,4203.482 2228.49055,4206.202 2228.52455,4209.738 C2228.52455,4213.24 2231.04055,4215.926 2234.47455,4215.926 C2237.90855,4215.926 2240.49255,4213.206 2240.49255,4209.738 C2240.49255,4206.168 2237.90855,4203.482 2234.50855,4203.482 Z M2261.22523,4201.442 L2261.22523,4211.404 C2261.22523,4215.654 2258.19923,4218.374 2254.39123,4218.374 C2250.51523,4218.374 2247.52323,4215.654 2247.52323,4211.404 L2247.52323,4201.442 L2250.10723,4201.442 L2250.10723,4211.574 C2250.10723,4214.294 2252.01123,4215.96 2254.39123,4215.96 C2256.70323,4215.96 2258.60723,4214.294 2258.60723,4211.574 L2258.60723,4201.442 L2261.22523,4201.442 Z M2274.27391,4201.068 C2278.18391,4201.068 2280.42791,4203.754 2280.42791,4207.596 L2280.42791,4218 L2277.80991,4218 L2277.80991,4207.902 C2277.80991,4205.284 2276.24591,4203.482 2273.69591,4203.482 C2271.14591,4203.482 2269.34391,4205.318 2269.34391,4207.902 L2269.34391,4218 L2266.72591,4218 L2266.72591,4201.442 L2269.17391,4201.442 L2269.17391,4203.244 C2270.32991,4201.884 2272.13191,4201.068 2274.27391,4201.068 Z M2292.76259,4215.994 C2293.40859,4215.994 2294.12259,4215.926 2294.97259,4215.79 L2294.97259,4218 C2294.12259,4218.204 2293.27259,4218.374 2292.21859,4218.374 C2288.95459,4218.374 2286.64259,4216.776 2286.64259,4213.002 L2286.64259,4203.788 L2283.85459,4203.788 L2283.85459,4201.442 L2286.64259,4201.442 L2286.64259,4196.92 L2289.26059,4196.92 L2289.26059,4201.442 L2294.42859,4201.442 L2294.42859,4203.788 L2289.26059,4203.788 L2289.26059,4212.832 C2289.26059,4215.314 2290.68859,4215.994 2292.76259,4215.994 Z M2315.79995,4201.068 C2320.59395,4201.068 2324.46995,4204.842 2324.46995,4209.704 C2324.46995,4214.532 2320.59395,4218.34 2315.76595,4218.34 C2310.97195,4218.306 2307.12995,4214.566 2307.12995,4209.704 C2307.12995,4204.842 2310.93795,4201.068 2315.79995,4201.068 Z M2315.79995,4203.482 C2312.33195,4203.482 2309.78195,4206.202 2309.81595,4209.738 C2309.81595,4213.24 2312.33195,4215.926 2315.76595,4215.926 C2319.19995,4215.926 2321.78395,4213.206 2321.78395,4209.738 C2321.78395,4206.168 2319.19995,4203.482 2315.79995,4203.482 Z M2335.51263,4194.506 C2333.47263,4194.506 2332.04463,4195.186 2332.04463,4197.668 L2332.04463,4201.442 L2336.19263,4201.442 L2336.19263,4203.788 L2332.04463,4203.788 L2332.04463,4218 L2329.42663,4218 L2329.42663,4203.788 L2327.04663,4203.788 L2327.04663,4201.442 L2329.42663,4201.442 L2329.42663,4197.498 C2329.42663,4193.724 2331.70463,4192.126 2334.90063,4192.126 C2335.71663,4192.126 2336.36263,4192.228 2336.97463,4192.398 L2336.97463,4194.608 C2336.43063,4194.54 2335.95463,4194.506 2335.51263,4194.506 Z M1578.19699,4253.994 C1578.84299,4253.994 1579.55699,4253.926 1580.40699,4253.79 L1580.40699,4256 C1579.55699,4256.204 1578.70699,4256.374 1577.65299,4256.374 C1574.38899,4256.374 1572.07699,4254.776 1572.07699,4251.002 L1572.07699,4241.788 L1569.28899,4241.788 L1569.28899,4239.442 L1572.07699,4239.442 L1572.07699,4234.92 L1574.69499,4234.92 L1574.69499,4239.442 L1579.86299,4239.442 L1579.86299,4241.788 L1574.69499,4241.788 L1574.69499,4250.832 C1574.69499,4253.314 1576.12299,4253.994 1578.19699,4253.994 Z M1591.85767,4239.306 C1592.40167,4239.306 1592.74167,4239.374 1593.08167,4239.442 L1593.08167,4241.754 L1592.09567,4241.754 C1589.40967,4241.754 1586.89367,4243.454 1586.89367,4246.616 L1586.89367,4256 L1584.27567,4256 L1584.27567,4239.442 L1586.72367,4239.442 L1586.72367,4241.822 C1587.94767,4240.19 1589.88567,4239.306 1591.85767,4239.306 Z M1602.15235,4239.068 C1605.92635,4239.068 1608.61235,4241.346 1608.61235,4245.8 L1608.61235,4256 L1606.16435,4256 L1606.16435,4253.858 C1604.97435,4255.456 1603.03635,4256.374 1600.58835,4256.374 C1597.25635,4256.374 1594.80835,4254.606 1594.80835,4251.716 C1594.80835,4248.928 1597.15435,4247.092 1600.75835,4247.092 L1605.99435,4247.092 L1605.99435,4245.664 C1605.99435,4242.876 1604.43035,4241.482 1601.98235,4241.482 C1599.90835,4241.482 1598.44635,4242.468 1597.15435,4244.134 L1595.42035,4242.706 C1596.98435,4240.19 1599.50035,4239.068 1602.15235,4239.068 Z M1600.92835,4254.198 C1603.64835,4254.198 1605.99435,4252.226 1605.99435,4249.642 L1605.99435,4249.234 L1601.06435,4249.234 C1598.75235,4249.234 1597.49435,4250.016 1597.49435,4251.58 C1597.49435,4253.348 1599.09235,4254.198 1600.92835,4254.198 Z M1620.60703,4232.506 C1618.56703,4232.506 1617.13903,4233.186 1617.13903,4235.668 L1617.13903,4239.442 L1621.28703,4239.442 L1621.28703,4241.788 L1617.13903,4241.788 L1617.13903,4256 L1614.52103,4256 L1614.52103,4241.788 L1612.14103,4241.788 L1612.14103,4239.442 L1614.52103,4239.442 L1614.52103,4235.498 C1614.52103,4231.724 1616.79903,4230.126 1619.99503,4230.126 C1620.81103,4230.126 1621.45703,4230.228 1622.06903,4230.398 L1622.06903,4232.608 C1621.52503,4232.54 1621.04903,4232.506 1620.60703,4232.506 Z M1629.84771,4232.506 C1627.80771,4232.506 1626.37971,4233.186 1626.37971,4235.668 L1626.37971,4239.442 L1630.52771,4239.442 L1630.52771,4241.788 L1626.37971,4241.788 L1626.37971,4256 L1623.76171,4256 L1623.76171,4241.788 L1621.38171,4241.788 L1621.38171,4239.442 L1623.76171,4239.442 L1623.76171,4235.498 C1623.76171,4231.724 1626.03971,4230.126 1629.23571,4230.126 C1630.05171,4230.126 1630.69771,4230.228 1631.30971,4230.398 L1631.30971,4232.608 C1630.76571,4232.54 1630.28971,4232.506 1629.84771,4232.506 Z M1635.45039,4231.214 C1636.50439,4231.214 1637.38839,4232.064 1637.38839,4233.118 C1637.38839,4234.206 1636.50439,4235.022 1635.45039,4235.022 C1634.32839,4235.022 1633.47839,4234.206 1633.47839,4233.118 C1633.47839,4232.064 1634.32839,4231.214 1635.45039,4231.214 Z M1636.74239,4239.442 L1636.74239,4256 L1634.12439,4256 L1634.12439,4239.442 L1636.74239,4239.442 Z M1649.92707,4239.068 C1652.91907,4239.068 1655.29907,4240.496 1656.76107,4242.672 L1654.89107,4244.168 C1653.66707,4242.536 1652.10307,4241.482 1649.96107,4241.482 C1646.49307,4241.482 1643.94307,4244.236 1643.94307,4247.704 C1643.94307,4251.206 1646.49307,4253.96 1649.96107,4253.96 C1652.06907,4253.96 1653.63307,4252.94 1654.85707,4251.308 L1656.72707,4252.77 C1655.26507,4254.946 1652.88507,4256.374 1649.92707,4256.374 C1645.09907,4256.374 1641.25707,4252.566 1641.25707,4247.704 C1641.25707,4242.876 1645.09907,4239.068 1649.92707,4239.068 Z M1678.09843,4239.068 C1682.89243,4239.068 1686.76843,4242.842 1686.76843,4247.704 C1686.76843,4252.532 1682.89243,4256.34 1678.06443,4256.34 C1673.27043,4256.306 1669.42843,4252.566 1669.42843,4247.704 C1669.42843,4242.842 1673.23643,4239.068 1678.09843,4239.068 Z M1678.09843,4241.482 C1674.63043,4241.482 1672.08043,4244.202 1672.11443,4247.738 C1672.11443,4251.24 1674.63043,4253.926 1678.06443,4253.926 C1681.49843,4253.926 1684.08243,4251.206 1684.08243,4247.738 C1684.08243,4244.168 1681.49843,4241.482 1678.09843,4241.482 Z M1698.86511,4239.068 C1702.77511,4239.068 1705.01911,4241.754 1705.01911,4245.596 L1705.01911,4256 L1702.40111,4256 L1702.40111,4245.902 C1702.40111,4243.284 1700.83711,4241.482 1698.28711,4241.482 C1695.73711,4241.482 1693.93511,4243.318 1693.93511,4245.902 L1693.93511,4256 L1691.31711,4256 L1691.31711,4239.442 L1693.76511,4239.442 L1693.76511,4241.244 C1694.92111,4239.884 1696.72311,4239.068 1698.86511,4239.068 Z M1726.83247,4253.994 C1727.47847,4253.994 1728.19247,4253.926 1729.04247,4253.79 L1729.04247,4256 C1728.19247,4256.204 1727.34247,4256.374 1726.28847,4256.374 C1723.02447,4256.374 1720.71247,4254.776 1720.71247,4251.002 L1720.71247,4241.788 L1717.92447,4241.788 L1717.92447,4239.442 L1720.71247,4239.442 L1720.71247,4234.92 L1723.33047,4234.92 L1723.33047,4239.442 L1728.49847,4239.442 L1728.49847,4241.788 L1723.33047,4241.788 L1723.33047,4250.832 C1723.33047,4253.314 1724.75847,4253.994 1726.83247,4253.994 Z M1740.49315,4239.068 C1744.36915,4239.068 1746.61315,4241.754 1746.61315,4245.596 L1746.61315,4256 L1743.99515,4256 L1743.99515,4245.936 C1743.99515,4243.318 1742.43115,4241.482 1739.88115,4241.482 C1737.33115,4241.482 1735.52915,4243.352 1735.52915,4245.936 L1735.52915,4256 L1732.91115,4256 L1732.91115,4230.5 L1735.52915,4230.5 L1735.52915,4241.312 C1736.61715,4239.918 1738.35115,4239.068 1740.49315,4239.068 Z M1766.93783,4246.548 C1766.93783,4247.432 1766.80183,4248.214 1766.73383,4248.52 L1753.67783,4248.52 C1754.01783,4251.818 1756.46583,4253.96 1759.72983,4253.96 C1761.80383,4253.96 1763.43583,4253.076 1764.79583,4251.716 L1766.32583,4253.484 C1764.65983,4255.252 1762.41583,4256.374 1759.69583,4256.374 C1754.69783,4256.374 1750.92383,4252.6 1750.92383,4247.738 C1750.92383,4242.91 1754.62983,4239.068 1759.38983,4239.068 C1763.63983,4239.068 1766.93783,4242.128 1766.93783,4246.548 Z M1759.32183,4241.448 C1756.53383,4241.448 1754.32383,4243.352 1753.77983,4246.208 L1764.25183,4246.208 C1764.21783,4243.148 1761.97383,4241.448 1759.32183,4241.448 Z M1802.28319,4239.442 L1805.07119,4239.442 L1798.10119,4256.374 L1797.14919,4256.374 L1791.50519,4243.862 L1785.89519,4256.374 L1784.97719,4256.374 L1777.93919,4239.442 L1780.72719,4239.442 L1785.48719,4251.682 L1791.02919,4239.068 L1792.01519,4239.068 L1797.59119,4251.614 L1802.28319,4239.442 Z M1822.98187,4246.548 C1822.98187,4247.432 1822.84587,4248.214 1822.77787,4248.52 L1809.72187,4248.52 C1810.06187,4251.818 1812.50987,4253.96 1815.77387,4253.96 C1817.84787,4253.96 1819.47987,4253.076 1820.83987,4251.716 L1822.36987,4253.484 C1820.70387,4255.252 1818.45987,4256.374 1815.73987,4256.374 C1810.74187,4256.374 1806.96787,4252.6 1806.96787,4247.738 C1806.96787,4242.91 1810.67387,4239.068 1815.43387,4239.068 C1819.68387,4239.068 1822.98187,4242.128 1822.98187,4246.548 Z M1815.36587,4241.448 C1812.57787,4241.448 1810.36787,4243.352 1809.82387,4246.208 L1820.29587,4246.208 C1820.26187,4243.148 1818.01787,4241.448 1815.36587,4241.448 Z M1836.23456,4239.068 C1840.96056,4239.068 1844.42856,4242.842 1844.42856,4247.738 C1844.42856,4252.6 1840.99456,4256.374 1836.26856,4256.374 C1833.68456,4256.374 1831.27056,4255.252 1829.97856,4253.348 L1829.97856,4256 L1827.53056,4256 L1827.53056,4230.5 L1830.14856,4230.5 L1830.14856,4241.89 C1831.44056,4240.156 1833.71856,4239.068 1836.23456,4239.068 Z M1835.86056,4253.96 C1839.26056,4253.96 1841.74256,4251.308 1841.74256,4247.704 C1841.74256,4244.1 1839.22656,4241.482 1835.86056,4241.482 C1832.97056,4241.482 1830.11456,4243.386 1830.11456,4247.738 C1830.11456,4252.09 1833.00456,4253.96 1835.86056,4253.96 Z M1864.40592,4239.068 C1868.17992,4239.068 1870.86592,4241.346 1870.86592,4245.8 L1870.86592,4256 L1868.41792,4256 L1868.41792,4253.858 C1867.22792,4255.456 1865.28992,4256.374 1862.84192,4256.374 C1859.50992,4256.374 1857.06192,4254.606 1857.06192,4251.716 C1857.06192,4248.928 1859.40792,4247.092 1863.01192,4247.092 L1868.24792,4247.092 L1868.24792,4245.664 C1868.24792,4242.876 1866.68392,4241.482 1864.23592,4241.482 C1862.16192,4241.482 1860.69992,4242.468 1859.40792,4244.134 L1857.67392,4242.706 C1859.23792,4240.19 1861.75392,4239.068 1864.40592,4239.068 Z M1863.18192,4254.198 C1865.90192,4254.198 1868.24792,4252.226 1868.24792,4249.642 L1868.24792,4249.234 L1863.31792,4249.234 C1861.00592,4249.234 1859.74792,4250.016 1859.74792,4251.58 C1859.74792,4253.348 1861.34592,4254.198 1863.18192,4254.198 Z M1883.9146,4239.068 C1887.8246,4239.068 1890.0686,4241.754 1890.0686,4245.596 L1890.0686,4256 L1887.4506,4256 L1887.4506,4245.902 C1887.4506,4243.284 1885.8866,4241.482 1883.3366,4241.482 C1880.7866,4241.482 1878.9846,4243.318 1878.9846,4245.902 L1878.9846,4256 L1876.3666,4256 L1876.3666,4239.442 L1878.8146,4239.442 L1878.8146,4241.244 C1879.9706,4239.884 1881.7726,4239.068 1883.9146,4239.068 Z M1908.69328,4230.5 L1911.31128,4230.5 L1911.31128,4256 L1908.82928,4256 L1908.82928,4253.348 C1907.53728,4255.252 1905.19128,4256.374 1902.57328,4256.374 C1897.84728,4256.374 1894.37928,4252.6 1894.37928,4247.738 C1894.37928,4242.842 1897.84728,4239.068 1902.57328,4239.068 C1905.08928,4239.068 1907.36728,4240.122 1908.69328,4241.89 L1908.69328,4230.5 Z M1902.94728,4253.96 C1905.80328,4253.96 1908.72728,4252.09 1908.72728,4247.738 C1908.72728,4243.386 1905.80328,4241.482 1902.94728,4241.482 C1899.58128,4241.482 1897.06528,4244.1 1897.06528,4247.704 C1897.06528,4251.308 1899.54728,4253.96 1902.94728,4253.96 Z M1944.65064,4239.068 C1948.52664,4239.068 1950.66864,4241.754 1950.66864,4245.596 L1950.66864,4256 L1948.05064,4256 L1948.05064,4245.936 C1948.05064,4243.318 1946.62264,4241.482 1944.14064,4241.482 C1941.62464,4241.482 1939.89064,4243.386 1939.89064,4245.698 L1939.89064,4256 L1937.27264,4256 L1937.27264,4245.936 C1937.27264,4243.318 1935.77664,4241.482 1933.32864,4241.482 C1930.81264,4241.482 1929.11264,4243.318 1929.11264,4245.936 L1929.11264,4256 L1926.49464,4256 L1926.49464,4239.442 L1928.94264,4239.442 L1928.94264,4241.176 C1930.09864,4239.85 1931.79864,4239.068 1933.87264,4239.068 C1936.35464,4239.068 1938.05464,4240.19 1938.97264,4241.924 C1940.12864,4240.258 1942.10064,4239.068 1944.65064,4239.068 Z M1963.64932,4239.068 C1968.44332,4239.068 1972.31932,4242.842 1972.31932,4247.704 C1972.31932,4252.532 1968.44332,4256.34 1963.61532,4256.34 C1958.82132,4256.306 1954.97932,4252.566 1954.97932,4247.704 C1954.97932,4242.842 1958.78732,4239.068 1963.64932,4239.068 Z M1963.64932,4241.482 C1960.18132,4241.482 1957.63132,4244.202 1957.66532,4247.738 C1957.66532,4251.24 1960.18132,4253.926 1963.61532,4253.926 C1967.04932,4253.926 1969.63332,4251.206 1969.63332,4247.738 C1969.63332,4244.168 1967.04932,4241.482 1963.64932,4241.482 Z M1985.572,4239.068 C1990.298,4239.068 1993.766,4242.842 1993.766,4247.738 C1993.766,4252.6 1990.332,4256.374 1985.606,4256.374 C1983.022,4256.374 1980.608,4255.252 1979.316,4253.348 L1979.316,4256 L1976.868,4256 L1976.868,4230.5 L1979.486,4230.5 L1979.486,4241.89 C1980.778,4240.156 1983.056,4239.068 1985.572,4239.068 Z M1985.198,4253.96 C1988.598,4253.96 1991.08,4251.308 1991.08,4247.704 C1991.08,4244.1 1988.564,4241.482 1985.198,4241.482 C1982.308,4241.482 1979.452,4243.386 1979.452,4247.738 C1979.452,4252.09 1982.342,4253.96 1985.198,4253.96 Z M1999.64068,4231.214 C2000.69468,4231.214 2001.57868,4232.064 2001.57868,4233.118 C2001.57868,4234.206 2000.69468,4235.022 1999.64068,4235.022 C1998.51868,4235.022 1997.66868,4234.206 1997.66868,4233.118 C1997.66868,4232.064 1998.51868,4231.214 1999.64068,4231.214 Z M2000.93268,4239.442 L2000.93268,4256 L1998.31468,4256 L1998.31468,4239.442 L2000.93268,4239.442 Z M2009.25536,4230.5 L2009.25536,4256 L2006.63736,4256 L2006.63736,4230.5 L2009.25536,4230.5 Z M2029.78404,4246.548 C2029.78404,4247.432 2029.64804,4248.214 2029.58004,4248.52 L2016.52404,4248.52 C2016.86404,4251.818 2019.31204,4253.96 2022.57604,4253.96 C2024.65004,4253.96 2026.28204,4253.076 2027.64204,4251.716 L2029.17204,4253.484 C2027.50604,4255.252 2025.26204,4256.374 2022.54204,4256.374 C2017.54404,4256.374 2013.77004,4252.6 2013.77004,4247.738 C2013.77004,4242.91 2017.47604,4239.068 2022.23604,4239.068 C2026.48604,4239.068 2029.78404,4242.128 2029.78404,4246.548 Z M2022.16804,4241.448 C2019.38004,4241.448 2017.17004,4243.352 2016.62604,4246.208 L2027.09804,4246.208 C2027.06404,4243.148 2024.82004,4241.448 2022.16804,4241.448 Z M2049.7614,4239.068 C2053.5354,4239.068 2056.2214,4241.346 2056.2214,4245.8 L2056.2214,4256 L2053.7734,4256 L2053.7734,4253.858 C2052.5834,4255.456 2050.6454,4256.374 2048.1974,4256.374 C2044.8654,4256.374 2042.4174,4254.606 2042.4174,4251.716 C2042.4174,4248.928 2044.7634,4247.092 2048.3674,4247.092 L2053.6034,4247.092 L2053.6034,4245.664 C2053.6034,4242.876 2052.0394,4241.482 2049.5914,4241.482 C2047.5174,4241.482 2046.0554,4242.468 2044.7634,4244.134 L2043.0294,4242.706 C2044.5934,4240.19 2047.1094,4239.068 2049.7614,4239.068 Z M2048.5374,4254.198 C2051.2574,4254.198 2053.6034,4252.226 2053.6034,4249.642 L2053.6034,4249.234 L2048.6734,4249.234 C2046.3614,4249.234 2045.1034,4250.016 2045.1034,4251.58 C2045.1034,4253.348 2046.7014,4254.198 2048.5374,4254.198 Z M2070.42608,4239.068 C2075.18608,4239.068 2078.62008,4242.842 2078.62008,4247.704 C2078.62008,4252.6 2075.15208,4256.374 2070.42608,4256.374 C2067.97808,4256.374 2065.66608,4255.354 2064.34008,4253.586 L2064.34008,4262.12 L2061.72208,4262.12 L2061.72208,4239.442 L2064.17008,4239.442 L2064.17008,4242.094 C2065.46208,4240.19 2067.80808,4239.068 2070.42608,4239.068 Z M2070.05208,4253.96 C2073.41808,4253.96 2075.93408,4251.342 2075.93408,4247.738 C2075.93408,4244.134 2073.45208,4241.482 2070.05208,4241.482 C2067.19608,4241.482 2064.30608,4243.352 2064.30608,4247.704 C2064.30608,4252.056 2067.16208,4253.96 2070.05208,4253.96 Z M2091.87276,4239.068 C2096.63276,4239.068 2100.06676,4242.842 2100.06676,4247.704 C2100.06676,4252.6 2096.59876,4256.374 2091.87276,4256.374 C2089.42476,4256.374 2087.11276,4255.354 2085.78676,4253.586 L2085.78676,4262.12 L2083.16876,4262.12 L2083.16876,4239.442 L2085.61676,4239.442 L2085.61676,4242.094 C2086.90876,4240.19 2089.25476,4239.068 2091.87276,4239.068 Z M2091.49876,4253.96 C2094.86476,4253.96 2097.38076,4251.342 2097.38076,4247.738 C2097.38076,4244.134 2094.89876,4241.482 2091.49876,4241.482 C2088.64276,4241.482 2085.75276,4243.352 2085.75276,4247.704 C2085.75276,4252.056 2088.60876,4253.96 2091.49876,4253.96 Z M2122.79813,4239.068 C2127.55813,4239.068 2130.99213,4242.842 2130.99213,4247.704 C2130.99213,4252.6 2127.52413,4256.374 2122.79813,4256.374 C2120.35013,4256.374 2118.03813,4255.354 2116.71213,4253.586 L2116.71213,4262.12 L2114.09413,4262.12 L2114.09413,4239.442 L2116.54213,4239.442 L2116.54213,4242.094 C2117.83413,4240.19 2120.18013,4239.068 2122.79813,4239.068 Z M2122.42413,4253.96 C2125.79013,4253.96 2128.30613,4251.342 2128.30613,4247.738 C2128.30613,4244.134 2125.82413,4241.482 2122.42413,4241.482 C2119.56813,4241.482 2116.67813,4243.352 2116.67813,4247.704 C2116.67813,4252.056 2119.53413,4253.96 2122.42413,4253.96 Z M2138.15881,4230.5 L2138.15881,4256 L2135.54081,4256 L2135.54081,4230.5 L2138.15881,4230.5 Z M2149.81349,4239.068 C2153.58749,4239.068 2156.27349,4241.346 2156.27349,4245.8 L2156.27349,4256 L2153.82549,4256 L2153.82549,4253.858 C2152.63549,4255.456 2150.69749,4256.374 2148.24949,4256.374 C2144.91749,4256.374 2142.46949,4254.606 2142.46949,4251.716 C2142.46949,4248.928 2144.81549,4247.092 2148.41949,4247.092 L2153.65549,4247.092 L2153.65549,4245.664 C2153.65549,4242.876 2152.09149,4241.482 2149.64349,4241.482 C2147.56949,4241.482 2146.10749,4242.468 2144.81549,4244.134 L2143.08149,4242.706 C2144.64549,4240.19 2147.16149,4239.068 2149.81349,4239.068 Z M2148.58949,4254.198 C2151.30949,4254.198 2153.65549,4252.226 2153.65549,4249.642 L2153.65549,4249.234 L2148.72549,4249.234 C2146.41349,4249.234 2145.15549,4250.016 2145.15549,4251.58 C2145.15549,4253.348 2146.75349,4254.198 2148.58949,4254.198 Z M2168.60817,4253.994 C2169.25417,4253.994 2169.96817,4253.926 2170.81817,4253.79 L2170.81817,4256 C2169.96817,4256.204 2169.11817,4256.374 2168.06417,4256.374 C2164.80017,4256.374 2162.48817,4254.776 2162.48817,4251.002 L2162.48817,4241.788 L2159.70017,4241.788 L2159.70017,4239.442 L2162.48817,4239.442 L2162.48817,4234.92 L2165.10617,4234.92 L2165.10617,4239.442 L2170.27417,4239.442 L2170.27417,4241.788 L2165.10617,4241.788 L2165.10617,4250.832 C2165.10617,4253.314 2166.53417,4253.994 2168.60817,4253.994 Z M2181.18085,4232.506 C2179.14085,4232.506 2177.71285,4233.186 2177.71285,4235.668 L2177.71285,4239.442 L2181.86085,4239.442 L2181.86085,4241.788 L2177.71285,4241.788 L2177.71285,4256 L2175.09485,4256 L2175.09485,4241.788 L2172.71485,4241.788 L2172.71485,4239.442 L2175.09485,4239.442 L2175.09485,4235.498 C2175.09485,4231.724 2177.37285,4230.126 2180.56885,4230.126 C2181.38485,4230.126 2182.03085,4230.228 2182.64285,4230.398 L2182.64285,4232.608 C2182.09885,4232.54 2181.62285,4232.506 2181.18085,4232.506 Z M2192.42753,4239.068 C2197.22153,4239.068 2201.09753,4242.842 2201.09753,4247.704 C2201.09753,4252.532 2197.22153,4256.34 2192.39353,4256.34 C2187.59953,4256.306 2183.75753,4252.566 2183.75753,4247.704 C2183.75753,4242.842 2187.56553,4239.068 2192.42753,4239.068 Z M2192.42753,4241.482 C2188.95953,4241.482 2186.40953,4244.202 2186.44353,4247.738 C2186.44353,4251.24 2188.95953,4253.926 2192.39353,4253.926 C2195.82753,4253.926 2198.41153,4251.206 2198.41153,4247.738 C2198.41153,4244.168 2195.82753,4241.482 2192.42753,4241.482 Z M2213.22821,4239.306 C2213.77221,4239.306 2214.11221,4239.374 2214.45221,4239.442 L2214.45221,4241.754 L2213.46621,4241.754 C2210.78021,4241.754 2208.26421,4243.454 2208.26421,4246.616 L2208.26421,4256 L2205.64621,4256 L2205.64621,4239.442 L2208.09421,4239.442 L2208.09421,4241.822 C2209.31821,4240.19 2211.25621,4239.306 2213.22821,4239.306 Z M2236.06889,4239.068 C2239.94489,4239.068 2242.08689,4241.754 2242.08689,4245.596 L2242.08689,4256 L2239.46889,4256 L2239.46889,4245.936 C2239.46889,4243.318 2238.04089,4241.482 2235.55889,4241.482 C2233.04289,4241.482 2231.30889,4243.386 2231.30889,4245.698 L2231.30889,4256 L2228.69089,4256 L2228.69089,4245.936 C2228.69089,4243.318 2227.19489,4241.482 2224.74689,4241.482 C2222.23089,4241.482 2220.53089,4243.318 2220.53089,4245.936 L2220.53089,4256 L2217.91289,4256 L2217.91289,4239.442 L2220.36089,4239.442 L2220.36089,4241.176 C2221.51689,4239.85 2223.21689,4239.068 2225.29089,4239.068 C2227.77289,4239.068 2229.47289,4240.19 2230.39089,4241.924 C2231.54689,4240.258 2233.51889,4239.068 2236.06889,4239.068 Z M2251.12357,4252.94 L2249.72957,4262.086 L2247.58757,4262.086 L2248.02957,4252.94 L2251.12357,4252.94 Z M2267.53093,4231.214 C2268.58493,4231.214 2269.46893,4232.064 2269.46893,4233.118 C2269.46893,4234.206 2268.58493,4235.022 2267.53093,4235.022 C2266.40893,4235.022 2265.55893,4234.206 2265.55893,4233.118 C2265.55893,4232.064 2266.40893,4231.214 2267.53093,4231.214 Z M2268.82293,4239.442 L2268.82293,4256 L2266.20493,4256 L2266.20493,4239.442 L2268.82293,4239.442 Z M2281.36161,4253.994 C2282.00761,4253.994 2282.72161,4253.926 2283.57161,4253.79 L2283.57161,4256 C2282.72161,4256.204 2281.87161,4256.374 2280.81761,4256.374 C2277.55361,4256.374 2275.24161,4254.776 2275.24161,4251.002 L2275.24161,4241.788 L2272.45361,4241.788 L2272.45361,4239.442 L2275.24161,4239.442 L2275.24161,4234.92 L2277.85961,4234.92 L2277.85961,4239.442 L2283.02761,4239.442 L2283.02761,4241.788 L2277.85961,4241.788 L2277.85961,4250.832 C2277.85961,4253.314 2279.28761,4253.994 2281.36161,4253.994 Z M2318.23697,4239.442 L2321.02497,4239.442 L2314.05497,4256.374 L2313.10297,4256.374 L2307.45897,4243.862 L2301.84897,4256.374 L2300.93097,4256.374 L2293.89297,4239.442 L2296.68097,4239.442 L2301.44097,4251.682 L2306.98297,4239.068 L2307.96897,4239.068 L2313.54497,4251.614 L2318.23697,4239.442 Z M2330.06165,4239.068 C2333.83565,4239.068 2336.52165,4241.346 2336.52165,4245.8 L2336.52165,4256 L2334.07365,4256 L2334.07365,4253.858 C2332.88365,4255.456 2330.94565,4256.374 2328.49765,4256.374 C2325.16565,4256.374 2322.71765,4254.606 2322.71765,4251.716 C2322.71765,4248.928 2325.06365,4247.092 2328.66765,4247.092 L2333.90365,4247.092 L2333.90365,4245.664 C2333.90365,4242.876 2332.33965,4241.482 2329.89165,4241.482 C2327.81765,4241.482 2326.35565,4242.468 2325.06365,4244.134 L2323.32965,4242.706 C2324.89365,4240.19 2327.40965,4239.068 2330.06165,4239.068 Z M2328.83765,4254.198 C2331.55765,4254.198 2333.90365,4252.226 2333.90365,4249.642 L2333.90365,4249.234 L2328.97365,4249.234 C2326.66165,4249.234 2325.40365,4250.016 2325.40365,4251.58 C2325.40365,4253.348 2327.00165,4254.198 2328.83765,4254.198 Z M2347.02033,4239.068 C2349.40033,4239.068 2351.27033,4240.088 2352.56233,4241.686 L2350.96433,4243.318 C2349.87633,4242.196 2348.44833,4241.482 2346.88433,4241.482 C2345.32033,4241.482 2344.13033,4242.196 2344.13033,4243.556 C2344.13033,4244.678 2344.98033,4245.222 2346.81633,4245.97 L2348.34633,4246.616 C2351.33833,4247.874 2352.73233,4249.166 2352.73233,4251.512 C2352.73233,4254.742 2349.97833,4256.374 2346.91833,4256.374 C2343.99433,4256.374 2341.78433,4254.912 2340.45833,4253.144 L2342.12433,4251.41 C2343.48433,4252.838 2344.87833,4253.96 2346.88433,4253.96 C2348.61833,4253.96 2350.04633,4253.11 2350.04633,4251.614 C2350.04633,4250.186 2348.82233,4249.642 2347.15633,4248.962 L2345.55833,4248.282 C2343.04233,4247.228 2341.44433,4246.072 2341.44433,4243.692 C2341.44433,4240.7 2343.99433,4239.068 2347.02033,4239.068 Z M1596.73301,4269.214 C1597.78701,4269.214 1598.67101,4270.064 1598.67101,4271.118 C1598.67101,4272.206 1597.78701,4273.022 1596.73301,4273.022 C1595.61101,4273.022 1594.76101,4272.206 1594.76101,4271.118 C1594.76101,4270.064 1595.61101,4269.214 1596.73301,4269.214 Z M1598.02501,4277.442 L1598.02501,4294 L1595.40701,4294 L1595.40701,4277.442 L1598.02501,4277.442 Z M1621.88569,4277.068 C1625.76169,4277.068 1627.90369,4279.754 1627.90369,4283.596 L1627.90369,4294 L1625.28569,4294 L1625.28569,4283.936 C1625.28569,4281.318 1623.85769,4279.482 1621.37569,4279.482 C1618.85969,4279.482 1617.12569,4281.386 1617.12569,4283.698 L1617.12569,4294 L1614.50769,4294 L1614.50769,4283.936 C1614.50769,4281.318 1613.01169,4279.482 1610.56369,4279.482 C1608.04769,4279.482 1606.34769,4281.318 1606.34769,4283.936 L1606.34769,4294 L1603.72969,4294 L1603.72969,4277.442 L1606.17769,4277.442 L1606.17769,4279.176 C1607.33369,4277.85 1609.03369,4277.068 1611.10769,4277.068 C1613.58969,4277.068 1615.28969,4278.19 1616.20769,4279.924 C1617.36369,4278.258 1619.33569,4277.068 1621.88569,4277.068 Z M1642.10837,4277.068 C1646.86837,4277.068 1650.30237,4280.842 1650.30237,4285.704 C1650.30237,4290.6 1646.83437,4294.374 1642.10837,4294.374 C1639.66037,4294.374 1637.34837,4293.354 1636.02237,4291.586 L1636.02237,4300.12 L1633.40437,4300.12 L1633.40437,4277.442 L1635.85237,4277.442 L1635.85237,4280.094 C1637.14437,4278.19 1639.49037,4277.068 1642.10837,4277.068 Z M1641.73437,4291.96 C1645.10037,4291.96 1647.61637,4289.342 1647.61637,4285.738 C1647.61637,4282.134 1645.13437,4279.482 1641.73437,4279.482 C1638.87837,4279.482 1635.98837,4281.352 1635.98837,4285.704 C1635.98837,4290.056 1638.84437,4291.96 1641.73437,4291.96 Z M1662.33105,4277.068 C1667.12505,4277.068 1671.00105,4280.842 1671.00105,4285.704 C1671.00105,4290.532 1667.12505,4294.34 1662.29705,4294.34 C1657.50305,4294.306 1653.66105,4290.566 1653.66105,4285.704 C1653.66105,4280.842 1657.46905,4277.068 1662.33105,4277.068 Z M1662.33105,4279.482 C1658.86305,4279.482 1656.31305,4282.202 1656.34705,4285.738 C1656.34705,4289.24 1658.86305,4291.926 1662.29705,4291.926 C1665.73105,4291.926 1668.31505,4289.206 1668.31505,4285.738 C1668.31505,4282.168 1665.73105,4279.482 1662.33105,4279.482 Z M1683.13173,4277.306 C1683.67573,4277.306 1684.01573,4277.374 1684.35573,4277.442 L1684.35573,4279.754 L1683.36973,4279.754 C1680.68373,4279.754 1678.16773,4281.454 1678.16773,4284.616 L1678.16773,4294 L1675.54973,4294 L1675.54973,4277.442 L1677.99773,4277.442 L1677.99773,4279.822 C1679.22173,4278.19 1681.15973,4277.306 1683.13173,4277.306 Z M1694.65041,4291.994 C1695.29641,4291.994 1696.01041,4291.926 1696.86041,4291.79 L1696.86041,4294 C1696.01041,4294.204 1695.16041,4294.374 1694.10641,4294.374 C1690.84241,4294.374 1688.53041,4292.776 1688.53041,4289.002 L1688.53041,4279.788 L1685.74241,4279.788 L1685.74241,4277.442 L1688.53041,4277.442 L1688.53041,4272.92 L1691.14841,4272.92 L1691.14841,4277.442 L1696.31641,4277.442 L1696.31641,4279.788 L1691.14841,4279.788 L1691.14841,4288.832 C1691.14841,4291.314 1692.57641,4291.994 1694.65041,4291.994 Z M1706.67909,4277.068 C1710.45309,4277.068 1713.13909,4279.346 1713.13909,4283.8 L1713.13909,4294 L1710.69109,4294 L1710.69109,4291.858 C1709.50109,4293.456 1707.56309,4294.374 1705.11509,4294.374 C1701.78309,4294.374 1699.33509,4292.606 1699.33509,4289.716 C1699.33509,4286.928 1701.68109,4285.092 1705.28509,4285.092 L1710.52109,4285.092 L1710.52109,4283.664 C1710.52109,4280.876 1708.95709,4279.482 1706.50909,4279.482 C1704.43509,4279.482 1702.97309,4280.468 1701.68109,4282.134 L1699.94709,4280.706 C1701.51109,4278.19 1704.02709,4277.068 1706.67909,4277.068 Z M1705.45509,4292.198 C1708.17509,4292.198 1710.52109,4290.226 1710.52109,4287.642 L1710.52109,4287.234 L1705.59109,4287.234 C1703.27909,4287.234 1702.02109,4288.016 1702.02109,4289.58 C1702.02109,4291.348 1703.61909,4292.198 1705.45509,4292.198 Z M1726.18777,4277.068 C1730.09777,4277.068 1732.34177,4279.754 1732.34177,4283.596 L1732.34177,4294 L1729.72377,4294 L1729.72377,4283.902 C1729.72377,4281.284 1728.15977,4279.482 1725.60977,4279.482 C1723.05977,4279.482 1721.25777,4281.318 1721.25777,4283.902 L1721.25777,4294 L1718.63977,4294 L1718.63977,4277.442 L1721.08777,4277.442 L1721.08777,4279.244 C1722.24377,4277.884 1724.04577,4277.068 1726.18777,4277.068 Z M1744.67645,4291.994 C1745.32245,4291.994 1746.03645,4291.926 1746.88645,4291.79 L1746.88645,4294 C1746.03645,4294.204 1745.18645,4294.374 1744.13245,4294.374 C1740.86845,4294.374 1738.55645,4292.776 1738.55645,4289.002 L1738.55645,4279.788 L1735.76845,4279.788 L1735.76845,4277.442 L1738.55645,4277.442 L1738.55645,4272.92 L1741.17445,4272.92 L1741.17445,4277.442 L1746.34245,4277.442 L1746.34245,4279.788 L1741.17445,4279.788 L1741.17445,4288.832 C1741.17445,4291.314 1742.60245,4291.994 1744.67645,4291.994 Z M1767.06781,4291.994 C1767.71381,4291.994 1768.42781,4291.926 1769.27781,4291.79 L1769.27781,4294 C1768.42781,4294.204 1767.57781,4294.374 1766.52381,4294.374 C1763.25981,4294.374 1760.94781,4292.776 1760.94781,4289.002 L1760.94781,4279.788 L1758.15981,4279.788 L1758.15981,4277.442 L1760.94781,4277.442 L1760.94781,4272.92 L1763.56581,4272.92 L1763.56581,4277.442 L1768.73381,4277.442 L1768.73381,4279.788 L1763.56581,4279.788 L1763.56581,4288.832 C1763.56581,4291.314 1764.99381,4291.994 1767.06781,4291.994 Z M1780.28649,4277.068 C1785.08049,4277.068 1788.95649,4280.842 1788.95649,4285.704 C1788.95649,4290.532 1785.08049,4294.34 1780.25249,4294.34 C1775.45849,4294.306 1771.61649,4290.566 1771.61649,4285.704 C1771.61649,4280.842 1775.42449,4277.068 1780.28649,4277.068 Z M1780.28649,4279.482 C1776.81849,4279.482 1774.26849,4282.202 1774.30249,4285.738 C1774.30249,4289.24 1776.81849,4291.926 1780.25249,4291.926 C1783.68649,4291.926 1786.27049,4289.206 1786.27049,4285.738 C1786.27049,4282.168 1783.68649,4279.482 1780.28649,4279.482 Z M1809.81785,4291.994 C1810.46385,4291.994 1811.17785,4291.926 1812.02785,4291.79 L1812.02785,4294 C1811.17785,4294.204 1810.32785,4294.374 1809.27385,4294.374 C1806.00985,4294.374 1803.69785,4292.776 1803.69785,4289.002 L1803.69785,4279.788 L1800.90985,4279.788 L1800.90985,4277.442 L1803.69785,4277.442 L1803.69785,4272.92 L1806.31585,4272.92 L1806.31585,4277.442 L1811.48385,4277.442 L1811.48385,4279.788 L1806.31585,4279.788 L1806.31585,4288.832 C1806.31585,4291.314 1807.74385,4291.994 1809.81785,4291.994 Z M1823.47853,4277.306 C1824.02253,4277.306 1824.36253,4277.374 1824.70253,4277.442 L1824.70253,4279.754 L1823.71653,4279.754 C1821.03053,4279.754 1818.51453,4281.454 1818.51453,4284.616 L1818.51453,4294 L1815.89653,4294 L1815.89653,4277.442 L1818.34453,4277.442 L1818.34453,4279.822 C1819.56853,4278.19 1821.50653,4277.306 1823.47853,4277.306 Z M1839.92722,4277.442 L1842.71522,4277.442 L1834.55522,4296.312 C1833.26322,4299.27 1831.46122,4300.494 1828.94522,4300.494 C1828.12922,4300.494 1827.17722,4300.358 1826.39522,4300.154 L1826.39522,4297.944 C1827.17722,4298.046 1827.82322,4298.114 1828.40122,4298.114 C1829.99922,4298.114 1831.22322,4297.57 1832.14122,4295.462 L1833.02522,4293.456 L1826.15722,4277.442 L1828.97922,4277.442 L1834.45322,4290.634 L1839.92722,4277.442 Z M1861.87658,4277.068 C1865.65058,4277.068 1868.33658,4279.346 1868.33658,4283.8 L1868.33658,4294 L1865.88858,4294 L1865.88858,4291.858 C1864.69858,4293.456 1862.76058,4294.374 1860.31258,4294.374 C1856.98058,4294.374 1854.53258,4292.606 1854.53258,4289.716 C1854.53258,4286.928 1856.87858,4285.092 1860.48258,4285.092 L1865.71858,4285.092 L1865.71858,4283.664 C1865.71858,4280.876 1864.15458,4279.482 1861.70658,4279.482 C1859.63258,4279.482 1858.17058,4280.468 1856.87858,4282.134 L1855.14458,4280.706 C1856.70858,4278.19 1859.22458,4277.068 1861.87658,4277.068 Z M1860.65258,4292.198 C1863.37258,4292.198 1865.71858,4290.226 1865.71858,4287.642 L1865.71858,4287.234 L1860.78858,4287.234 C1858.47658,4287.234 1857.21858,4288.016 1857.21858,4289.58 C1857.21858,4291.348 1858.81658,4292.198 1860.65258,4292.198 Z M1881.38526,4277.068 C1885.29526,4277.068 1887.53926,4279.754 1887.53926,4283.596 L1887.53926,4294 L1884.92126,4294 L1884.92126,4283.902 C1884.92126,4281.284 1883.35726,4279.482 1880.80726,4279.482 C1878.25726,4279.482 1876.45526,4281.318 1876.45526,4283.902 L1876.45526,4294 L1873.83726,4294 L1873.83726,4277.442 L1876.28526,4277.442 L1876.28526,4279.244 C1877.44126,4277.884 1879.24326,4277.068 1881.38526,4277.068 Z M1906.16394,4268.5 L1908.78194,4268.5 L1908.78194,4294 L1906.29994,4294 L1906.29994,4291.348 C1905.00794,4293.252 1902.66194,4294.374 1900.04394,4294.374 C1895.31794,4294.374 1891.84994,4290.6 1891.84994,4285.738 C1891.84994,4280.842 1895.31794,4277.068 1900.04394,4277.068 C1902.55994,4277.068 1904.83794,4278.122 1906.16394,4279.89 L1906.16394,4268.5 Z M1900.41794,4291.96 C1903.27394,4291.96 1906.19794,4290.09 1906.19794,4285.738 C1906.19794,4281.386 1903.27394,4279.482 1900.41794,4279.482 C1897.05194,4279.482 1894.53594,4282.1 1894.53594,4285.704 C1894.53594,4289.308 1897.01794,4291.96 1900.41794,4291.96 Z M1931.4453,4277.068 C1934.4373,4277.068 1936.8173,4278.496 1938.2793,4280.672 L1936.4093,4282.168 C1935.1853,4280.536 1933.6213,4279.482 1931.4793,4279.482 C1928.0113,4279.482 1925.4613,4282.236 1925.4613,4285.704 C1925.4613,4289.206 1928.0113,4291.96 1931.4793,4291.96 C1933.5873,4291.96 1935.1513,4290.94 1936.3753,4289.308 L1938.2453,4290.77 C1936.7833,4292.946 1934.4033,4294.374 1931.4453,4294.374 C1926.6173,4294.374 1922.7753,4290.566 1922.7753,4285.704 C1922.7753,4280.876 1926.6173,4277.068 1931.4453,4277.068 Z M1950.23998,4277.306 C1950.78398,4277.306 1951.12398,4277.374 1951.46398,4277.442 L1951.46398,4279.754 L1950.47798,4279.754 C1947.79198,4279.754 1945.27598,4281.454 1945.27598,4284.616 L1945.27598,4294 L1942.65798,4294 L1942.65798,4277.442 L1945.10598,4277.442 L1945.10598,4279.822 C1946.32998,4278.19 1948.26798,4277.306 1950.23998,4277.306 Z M1969.40866,4284.548 C1969.40866,4285.432 1969.27266,4286.214 1969.20466,4286.52 L1956.14866,4286.52 C1956.48866,4289.818 1958.93666,4291.96 1962.20066,4291.96 C1964.27466,4291.96 1965.90666,4291.076 1967.26666,4289.716 L1968.79666,4291.484 C1967.13066,4293.252 1964.88666,4294.374 1962.16666,4294.374 C1957.16866,4294.374 1953.39466,4290.6 1953.39466,4285.738 C1953.39466,4280.91 1957.10066,4277.068 1961.86066,4277.068 C1966.11066,4277.068 1969.40866,4280.128 1969.40866,4284.548 Z M1961.79266,4279.448 C1959.00466,4279.448 1956.79466,4281.352 1956.25066,4284.208 L1966.72266,4284.208 C1966.68866,4281.148 1964.44466,4279.448 1961.79266,4279.448 Z M1979.90734,4277.068 C1983.68134,4277.068 1986.36734,4279.346 1986.36734,4283.8 L1986.36734,4294 L1983.91934,4294 L1983.91934,4291.858 C1982.72934,4293.456 1980.79134,4294.374 1978.34334,4294.374 C1975.01134,4294.374 1972.56334,4292.606 1972.56334,4289.716 C1972.56334,4286.928 1974.90934,4285.092 1978.51334,4285.092 L1983.74934,4285.092 L1983.74934,4283.664 C1983.74934,4280.876 1982.18534,4279.482 1979.73734,4279.482 C1977.66334,4279.482 1976.20134,4280.468 1974.90934,4282.134 L1973.17534,4280.706 C1974.73934,4278.19 1977.25534,4277.068 1979.90734,4277.068 Z M1978.68334,4292.198 C1981.40334,4292.198 1983.74934,4290.226 1983.74934,4287.642 L1983.74934,4287.234 L1978.81934,4287.234 C1976.50734,4287.234 1975.24934,4288.016 1975.24934,4289.58 C1975.24934,4291.348 1976.84734,4292.198 1978.68334,4292.198 Z M1998.70202,4291.994 C1999.34802,4291.994 2000.06202,4291.926 2000.91202,4291.79 L2000.91202,4294 C2000.06202,4294.204 1999.21202,4294.374 1998.15802,4294.374 C1994.89402,4294.374 1992.58202,4292.776 1992.58202,4289.002 L1992.58202,4279.788 L1989.79402,4279.788 L1989.79402,4277.442 L1992.58202,4277.442 L1992.58202,4272.92 L1995.20002,4272.92 L1995.20002,4277.442 L2000.36802,4277.442 L2000.36802,4279.788 L1995.20002,4279.788 L1995.20002,4288.832 C1995.20002,4291.314 1996.62802,4291.994 1998.70202,4291.994 Z M2019.2647,4284.548 C2019.2647,4285.432 2019.1287,4286.214 2019.0607,4286.52 L2006.0047,4286.52 C2006.3447,4289.818 2008.7927,4291.96 2012.0567,4291.96 C2014.1307,4291.96 2015.7627,4291.076 2017.1227,4289.716 L2018.6527,4291.484 C2016.9867,4293.252 2014.7427,4294.374 2012.0227,4294.374 C2007.0247,4294.374 2003.2507,4290.6 2003.2507,4285.738 C2003.2507,4280.91 2006.9567,4277.068 2011.7167,4277.068 C2015.9667,4277.068 2019.2647,4280.128 2019.2647,4284.548 Z M2011.6487,4279.448 C2008.8607,4279.448 2006.6507,4281.352 2006.1067,4284.208 L2016.5787,4284.208 C2016.5447,4281.148 2014.3007,4279.448 2011.6487,4279.448 Z M2039.24206,4277.068 C2043.01606,4277.068 2045.70206,4279.346 2045.70206,4283.8 L2045.70206,4294 L2043.25406,4294 L2043.25406,4291.858 C2042.06406,4293.456 2040.12606,4294.374 2037.67806,4294.374 C2034.34606,4294.374 2031.89806,4292.606 2031.89806,4289.716 C2031.89806,4286.928 2034.24406,4285.092 2037.84806,4285.092 L2043.08406,4285.092 L2043.08406,4283.664 C2043.08406,4280.876 2041.52006,4279.482 2039.07206,4279.482 C2036.99806,4279.482 2035.53606,4280.468 2034.24406,4282.134 L2032.51006,4280.706 C2034.07406,4278.19 2036.59006,4277.068 2039.24206,4277.068 Z M2038.01806,4292.198 C2040.73806,4292.198 2043.08406,4290.226 2043.08406,4287.642 L2043.08406,4287.234 L2038.15406,4287.234 C2035.84206,4287.234 2034.58406,4288.016 2034.58406,4289.58 C2034.58406,4291.348 2036.18206,4292.198 2038.01806,4292.198 Z M2068.26342,4275.878 L2068.26342,4291.688 L2073.05742,4291.688 L2073.05742,4294 L2060.44342,4294 L2060.44342,4291.688 L2065.61142,4291.688 L2065.61142,4278.292 L2060.78342,4278.292 L2060.78342,4275.878 L2068.26342,4275.878 Z M2079.0681,4277.272 C2080.2241,4277.272 2081.2101,4278.156 2081.2101,4279.414 C2081.2101,4280.706 2080.2241,4281.556 2079.0681,4281.556 C2077.9121,4281.556 2076.9261,4280.706 2076.9261,4279.414 C2076.9261,4278.156 2077.9121,4277.272 2079.0681,4277.272 Z M2079.0681,4290.09 C2080.2241,4290.09 2081.2101,4290.974 2081.2101,4292.232 C2081.2101,4293.49 2080.2241,4294.374 2079.0681,4294.374 C2077.9121,4294.374 2076.9261,4293.49 2076.9261,4292.232 C2076.9261,4290.974 2077.9121,4290.09 2079.0681,4290.09 Z M2095.10878,4275.878 L2095.10878,4291.688 L2099.90278,4291.688 L2099.90278,4294 L2087.28878,4294 L2087.28878,4291.688 L2092.45678,4291.688 L2092.45678,4278.292 L2087.62878,4278.292 L2087.62878,4275.878 L2095.10878,4275.878 Z M2118.69015,4277.068 C2121.07015,4277.068 2122.94015,4278.088 2124.23215,4279.686 L2122.63415,4281.318 C2121.54615,4280.196 2120.11815,4279.482 2118.55415,4279.482 C2116.99015,4279.482 2115.80015,4280.196 2115.80015,4281.556 C2115.80015,4282.678 2116.65015,4283.222 2118.48615,4283.97 L2120.01615,4284.616 C2123.00815,4285.874 2124.40215,4287.166 2124.40215,4289.512 C2124.40215,4292.742 2121.64815,4294.374 2118.58815,4294.374 C2115.66415,4294.374 2113.45415,4292.912 2112.12815,4291.144 L2113.79415,4289.41 C2115.15415,4290.838 2116.54815,4291.96 2118.55415,4291.96 C2120.28815,4291.96 2121.71615,4291.11 2121.71615,4289.614 C2121.71615,4288.186 2120.49215,4287.642 2118.82615,4286.962 L2117.22815,4286.282 C2114.71215,4285.228 2113.11415,4284.072 2113.11415,4281.692 C2113.11415,4278.7 2115.66415,4277.068 2118.69015,4277.068 Z M2136.56683,4277.068 C2141.36083,4277.068 2145.23683,4280.842 2145.23683,4285.704 C2145.23683,4290.532 2141.36083,4294.34 2136.53283,4294.34 C2131.73883,4294.306 2127.89683,4290.566 2127.89683,4285.704 C2127.89683,4280.842 2131.70483,4277.068 2136.56683,4277.068 Z M2136.56683,4279.482 C2133.09883,4279.482 2130.54883,4282.202 2130.58283,4285.738 C2130.58283,4289.24 2133.09883,4291.926 2136.53283,4291.926 C2139.96683,4291.926 2142.55083,4289.206 2142.55083,4285.738 C2142.55083,4282.168 2139.96683,4279.482 2136.56683,4279.482 Z M2152.40351,4268.5 L2152.40351,4294 L2149.78551,4294 L2149.78551,4268.5 L2152.40351,4268.5 Z M2171.60619,4277.442 L2171.60619,4287.404 C2171.60619,4291.654 2168.58019,4294.374 2164.77219,4294.374 C2160.89619,4294.374 2157.90419,4291.654 2157.90419,4287.404 L2157.90419,4277.442 L2160.48819,4277.442 L2160.48819,4287.574 C2160.48819,4290.294 2162.39219,4291.96 2164.77219,4291.96 C2167.08419,4291.96 2168.98819,4290.294 2168.98819,4287.574 L2168.98819,4277.442 L2171.60619,4277.442 Z M2183.94087,4291.994 C2184.58687,4291.994 2185.30087,4291.926 2186.15087,4291.79 L2186.15087,4294 C2185.30087,4294.204 2184.45087,4294.374 2183.39687,4294.374 C2180.13287,4294.374 2177.82087,4292.776 2177.82087,4289.002 L2177.82087,4279.788 L2175.03287,4279.788 L2175.03287,4277.442 L2177.82087,4277.442 L2177.82087,4272.92 L2180.43887,4272.92 L2180.43887,4277.442 L2185.60687,4277.442 L2185.60687,4279.788 L2180.43887,4279.788 L2180.43887,4288.832 C2180.43887,4291.314 2181.86687,4291.994 2183.94087,4291.994 Z M2191.34555,4269.214 C2192.39955,4269.214 2193.28355,4270.064 2193.28355,4271.118 C2193.28355,4272.206 2192.39955,4273.022 2191.34555,4273.022 C2190.22355,4273.022 2189.37355,4272.206 2189.37355,4271.118 C2189.37355,4270.064 2190.22355,4269.214 2191.34555,4269.214 Z M2192.63755,4277.442 L2192.63755,4294 L2190.01955,4294 L2190.01955,4277.442 L2192.63755,4277.442 Z M2205.82223,4277.068 C2210.61623,4277.068 2214.49223,4280.842 2214.49223,4285.704 C2214.49223,4290.532 2210.61623,4294.34 2205.78823,4294.34 C2200.99423,4294.306 2197.15223,4290.566 2197.15223,4285.704 C2197.15223,4280.842 2200.96023,4277.068 2205.82223,4277.068 Z M2205.82223,4279.482 C2202.35423,4279.482 2199.80423,4282.202 2199.83823,4285.738 C2199.83823,4289.24 2202.35423,4291.926 2205.78823,4291.926 C2209.22223,4291.926 2211.80623,4289.206 2211.80623,4285.738 C2211.80623,4282.168 2209.22223,4279.482 2205.82223,4279.482 Z M2226.58891,4277.068 C2230.49891,4277.068 2232.74291,4279.754 2232.74291,4283.596 L2232.74291,4294 L2230.12491,4294 L2230.12491,4283.902 C2230.12491,4281.284 2228.56091,4279.482 2226.01091,4279.482 C2223.46091,4279.482 2221.65891,4281.318 2221.65891,4283.902 L2221.65891,4294 L2219.04091,4294 L2219.04091,4277.442 L2221.48891,4277.442 L2221.48891,4279.244 C2222.64491,4277.884 2224.44691,4277.068 2226.58891,4277.068 Z M2269.04027,4277.442 L2271.82827,4277.442 L2264.85827,4294.374 L2263.90627,4294.374 L2258.26227,4281.862 L2252.65227,4294.374 L2251.73427,4294.374 L2244.69627,4277.442 L2247.48427,4277.442 L2252.24427,4289.682 L2257.78627,4277.068 L2258.77227,4277.068 L2264.34827,4289.614 L2269.04027,4277.442 Z M2283.17695,4277.068 C2287.05295,4277.068 2289.29695,4279.754 2289.29695,4283.596 L2289.29695,4294 L2286.67895,4294 L2286.67895,4283.936 C2286.67895,4281.318 2285.11495,4279.482 2282.56495,4279.482 C2280.01495,4279.482 2278.21295,4281.352 2278.21295,4283.936 L2278.21295,4294 L2275.59495,4294 L2275.59495,4268.5 L2278.21295,4268.5 L2278.21295,4279.312 C2279.30095,4277.918 2281.03495,4277.068 2283.17695,4277.068 Z M2309.62163,4284.548 C2309.62163,4285.432 2309.48563,4286.214 2309.41763,4286.52 L2296.36163,4286.52 C2296.70163,4289.818 2299.14963,4291.96 2302.41363,4291.96 C2304.48763,4291.96 2306.11963,4291.076 2307.47963,4289.716 L2309.00963,4291.484 C2307.34363,4293.252 2305.09963,4294.374 2302.37963,4294.374 C2297.38163,4294.374 2293.60763,4290.6 2293.60763,4285.738 C2293.60763,4280.91 2297.31363,4277.068 2302.07363,4277.068 C2306.32363,4277.068 2309.62163,4280.128 2309.62163,4284.548 Z M2302.00563,4279.448 C2299.21763,4279.448 2297.00763,4281.352 2296.46363,4284.208 L2306.93563,4284.208 C2306.90163,4281.148 2304.65763,4279.448 2302.00563,4279.448 Z M2321.71831,4277.068 C2325.62831,4277.068 2327.87231,4279.754 2327.87231,4283.596 L2327.87231,4294 L2325.25431,4294 L2325.25431,4283.902 C2325.25431,4281.284 2323.69031,4279.482 2321.14031,4279.482 C2318.59031,4279.482 2316.78831,4281.318 2316.78831,4283.902 L2316.78831,4294 L2314.17031,4294 L2314.17031,4277.442 L2316.61831,4277.442 L2316.61831,4279.244 C2317.77431,4277.884 2319.57631,4277.068 2321.71831,4277.068 Z M1759.79181,4306.5 L1762.40981,4306.5 L1762.40981,4332 L1759.92781,4332 L1759.92781,4329.348 C1758.63581,4331.252 1756.28981,4332.374 1753.67181,4332.374 C1748.94581,4332.374 1745.47781,4328.6 1745.47781,4323.738 C1745.47781,4318.842 1748.94581,4315.068 1753.67181,4315.068 C1756.18781,4315.068 1758.46581,4316.122 1759.79181,4317.89 L1759.79181,4306.5 Z M1754.04581,4329.96 C1756.90181,4329.96 1759.82581,4328.09 1759.82581,4323.738 C1759.82581,4319.386 1756.90181,4317.482 1754.04581,4317.482 C1750.67981,4317.482 1748.16381,4320.1 1748.16381,4323.704 C1748.16381,4327.308 1750.64581,4329.96 1754.04581,4329.96 Z M1782.93849,4322.548 C1782.93849,4323.432 1782.80249,4324.214 1782.73449,4324.52 L1769.67849,4324.52 C1770.01849,4327.818 1772.46649,4329.96 1775.73049,4329.96 C1777.80449,4329.96 1779.43649,4329.076 1780.79649,4327.716 L1782.32649,4329.484 C1780.66049,4331.252 1778.41649,4332.374 1775.69649,4332.374 C1770.69849,4332.374 1766.92449,4328.6 1766.92449,4323.738 C1766.92449,4318.91 1770.63049,4315.068 1775.39049,4315.068 C1779.64049,4315.068 1782.93849,4318.128 1782.93849,4322.548 Z M1775.32249,4317.448 C1772.53449,4317.448 1770.32449,4319.352 1769.78049,4322.208 L1780.25249,4322.208 C1780.21849,4319.148 1777.97449,4317.448 1775.32249,4317.448 Z M1792.48517,4315.068 C1794.86517,4315.068 1796.73517,4316.088 1798.02717,4317.686 L1796.42917,4319.318 C1795.34117,4318.196 1793.91317,4317.482 1792.34917,4317.482 C1790.78517,4317.482 1789.59517,4318.196 1789.59517,4319.556 C1789.59517,4320.678 1790.44517,4321.222 1792.28117,4321.97 L1793.81117,4322.616 C1796.80317,4323.874 1798.19717,4325.166 1798.19717,4327.512 C1798.19717,4330.742 1795.44317,4332.374 1792.38317,4332.374 C1789.45917,4332.374 1787.24917,4330.912 1785.92317,4329.144 L1787.58917,4327.41 C1788.94917,4328.838 1790.34317,4329.96 1792.34917,4329.96 C1794.08317,4329.96 1795.51117,4329.11 1795.51117,4327.614 C1795.51117,4326.186 1794.28717,4325.642 1792.62117,4324.962 L1791.02317,4324.282 C1788.50717,4323.228 1786.90917,4322.072 1786.90917,4319.692 C1786.90917,4316.7 1789.45917,4315.068 1792.48517,4315.068 Z M1804.20785,4307.214 C1805.26185,4307.214 1806.14585,4308.064 1806.14585,4309.118 C1806.14585,4310.206 1805.26185,4311.022 1804.20785,4311.022 C1803.08585,4311.022 1802.23585,4310.206 1802.23585,4309.118 C1802.23585,4308.064 1803.08585,4307.214 1804.20785,4307.214 Z M1805.49985,4315.442 L1805.49985,4332 L1802.88185,4332 L1802.88185,4315.442 L1805.49985,4315.442 Z M1824.63453,4315.442 L1827.11653,4315.442 L1827.11653,4330.402 C1827.11653,4335.502 1823.88653,4338.494 1819.05853,4338.494 C1815.59053,4338.494 1812.90453,4336.93 1811.27253,4335.298 L1812.80253,4333.462 C1814.40053,4334.856 1816.27053,4336.08 1818.99053,4336.08 C1822.35653,4336.08 1824.49853,4334.21 1824.49853,4330.538 L1824.49853,4329.076 C1823.13853,4330.81 1820.82653,4331.83 1818.34453,4331.83 C1813.68653,4331.83 1810.21853,4328.294 1810.21853,4323.466 C1810.21853,4318.672 1813.68653,4315.068 1818.34453,4315.068 C1820.96253,4315.068 1823.34253,4316.224 1824.63453,4318.128 L1824.63453,4315.442 Z M1818.75253,4329.416 C1821.64253,4329.416 1824.53253,4327.614 1824.53253,4323.466 C1824.53253,4319.318 1821.60853,4317.55 1818.75253,4317.55 C1815.38653,4317.55 1812.87053,4319.998 1812.87053,4323.5 C1812.87053,4327.002 1815.38653,4329.416 1818.75253,4329.416 Z M1840.36922,4315.068 C1844.27922,4315.068 1846.52322,4317.754 1846.52322,4321.596 L1846.52322,4332 L1843.90522,4332 L1843.90522,4321.902 C1843.90522,4319.284 1842.34122,4317.482 1839.79122,4317.482 C1837.24122,4317.482 1835.43922,4319.318 1835.43922,4321.902 L1835.43922,4332 L1832.82122,4332 L1832.82122,4315.442 L1835.26922,4315.442 L1835.26922,4317.244 C1836.42522,4315.884 1838.22722,4315.068 1840.36922,4315.068 Z M1853.3499,4307.214 C1854.4039,4307.214 1855.2879,4308.064 1855.2879,4309.118 C1855.2879,4310.206 1854.4039,4311.022 1853.3499,4311.022 C1852.2279,4311.022 1851.3779,4310.206 1851.3779,4309.118 C1851.3779,4308.064 1852.2279,4307.214 1853.3499,4307.214 Z M1854.6419,4315.442 L1854.6419,4332 L1852.0239,4332 L1852.0239,4315.442 L1854.6419,4315.442 Z M1867.89458,4315.068 C1871.80458,4315.068 1874.04858,4317.754 1874.04858,4321.596 L1874.04858,4332 L1871.43058,4332 L1871.43058,4321.902 C1871.43058,4319.284 1869.86658,4317.482 1867.31658,4317.482 C1864.76658,4317.482 1862.96458,4319.318 1862.96458,4321.902 L1862.96458,4332 L1860.34658,4332 L1860.34658,4315.442 L1862.79458,4315.442 L1862.79458,4317.244 C1863.95058,4315.884 1865.75258,4315.068 1867.89458,4315.068 Z M1892.97926,4315.442 L1895.46126,4315.442 L1895.46126,4330.402 C1895.46126,4335.502 1892.23126,4338.494 1887.40326,4338.494 C1883.93526,4338.494 1881.24926,4336.93 1879.61726,4335.298 L1881.14726,4333.462 C1882.74526,4334.856 1884.61526,4336.08 1887.33526,4336.08 C1890.70126,4336.08 1892.84326,4334.21 1892.84326,4330.538 L1892.84326,4329.076 C1891.48326,4330.81 1889.17126,4331.83 1886.68926,4331.83 C1882.03126,4331.83 1878.56326,4328.294 1878.56326,4323.466 C1878.56326,4318.672 1882.03126,4315.068 1886.68926,4315.068 C1889.30726,4315.068 1891.68726,4316.224 1892.97926,4318.128 L1892.97926,4315.442 Z M1887.09726,4329.416 C1889.98726,4329.416 1892.87726,4327.614 1892.87726,4323.466 C1892.87726,4319.318 1889.95326,4317.55 1887.09726,4317.55 C1883.73126,4317.55 1881.21526,4319.998 1881.21526,4323.5 C1881.21526,4327.002 1883.73126,4329.416 1887.09726,4329.416 Z M1925.46862,4322.548 C1925.46862,4323.432 1925.33262,4324.214 1925.26462,4324.52 L1912.20862,4324.52 C1912.54862,4327.818 1914.99662,4329.96 1918.26062,4329.96 C1920.33462,4329.96 1921.96662,4329.076 1923.32662,4327.716 L1924.85662,4329.484 C1923.19062,4331.252 1920.94662,4332.374 1918.22662,4332.374 C1913.22862,4332.374 1909.45462,4328.6 1909.45462,4323.738 C1909.45462,4318.91 1913.16062,4315.068 1917.92062,4315.068 C1922.17062,4315.068 1925.46862,4318.128 1925.46862,4322.548 Z M1917.85262,4317.448 C1915.06462,4317.448 1912.85462,4319.352 1912.31062,4322.208 L1922.78262,4322.208 C1922.74862,4319.148 1920.50462,4317.448 1917.85262,4317.448 Z M1935.9673,4315.068 C1939.7413,4315.068 1942.4273,4317.346 1942.4273,4321.8 L1942.4273,4332 L1939.9793,4332 L1939.9793,4329.858 C1938.7893,4331.456 1936.8513,4332.374 1934.4033,4332.374 C1931.0713,4332.374 1928.6233,4330.606 1928.6233,4327.716 C1928.6233,4324.928 1930.9693,4323.092 1934.5733,4323.092 L1939.8093,4323.092 L1939.8093,4321.664 C1939.8093,4318.876 1938.2453,4317.482 1935.7973,4317.482 C1933.7233,4317.482 1932.2613,4318.468 1930.9693,4320.134 L1929.2353,4318.706 C1930.7993,4316.19 1933.3153,4315.068 1935.9673,4315.068 Z M1934.7433,4330.198 C1937.4633,4330.198 1939.8093,4328.226 1939.8093,4325.642 L1939.8093,4325.234 L1934.8793,4325.234 C1932.5673,4325.234 1931.3093,4326.016 1931.3093,4327.58 C1931.3093,4329.348 1932.9073,4330.198 1934.7433,4330.198 Z M1955.40798,4315.068 C1958.39998,4315.068 1960.77998,4316.496 1962.24198,4318.672 L1960.37198,4320.168 C1959.14798,4318.536 1957.58398,4317.482 1955.44198,4317.482 C1951.97398,4317.482 1949.42398,4320.236 1949.42398,4323.704 C1949.42398,4327.206 1951.97398,4329.96 1955.44198,4329.96 C1957.54998,4329.96 1959.11398,4328.94 1960.33798,4327.308 L1962.20798,4328.77 C1960.74598,4330.946 1958.36598,4332.374 1955.40798,4332.374 C1950.57998,4332.374 1946.73798,4328.566 1946.73798,4323.704 C1946.73798,4318.876 1950.57998,4315.068 1955.40798,4315.068 Z M1974.20266,4315.068 C1978.07866,4315.068 1980.32266,4317.754 1980.32266,4321.596 L1980.32266,4332 L1977.70466,4332 L1977.70466,4321.936 C1977.70466,4319.318 1976.14066,4317.482 1973.59066,4317.482 C1971.04066,4317.482 1969.23866,4319.352 1969.23866,4321.936 L1969.23866,4332 L1966.62066,4332 L1966.62066,4306.5 L1969.23866,4306.5 L1969.23866,4317.312 C1970.32666,4315.918 1972.06066,4315.068 1974.20266,4315.068 Z M2001.79602,4308.506 C1999.75602,4308.506 1998.32802,4309.186 1998.32802,4311.668 L1998.32802,4315.442 L2002.47602,4315.442 L2002.47602,4317.788 L1998.32802,4317.788 L1998.32802,4332 L1995.71002,4332 L1995.71002,4317.788 L1993.33002,4317.788 L1993.33002,4315.442 L1995.71002,4315.442 L1995.71002,4311.498 C1995.71002,4307.724 1997.98802,4306.126 2001.18402,4306.126 C2002.00002,4306.126 2002.64602,4306.228 2003.25802,4306.398 L2003.25802,4308.608 C2002.71402,4308.54 2002.23802,4308.506 2001.79602,4308.506 Z M2008.6907,4306.5 L2008.6907,4332 L2006.0727,4332 L2006.0727,4306.5 L2008.6907,4306.5 Z M2021.87538,4315.068 C2026.66938,4315.068 2030.54538,4318.842 2030.54538,4323.704 C2030.54538,4328.532 2026.66938,4332.34 2021.84138,4332.34 C2017.04738,4332.306 2013.20538,4328.566 2013.20538,4323.704 C2013.20538,4318.842 2017.01338,4315.068 2021.87538,4315.068 Z M2021.87538,4317.482 C2018.40738,4317.482 2015.85738,4320.202 2015.89138,4323.738 C2015.89138,4327.24 2018.40738,4329.926 2021.84138,4329.926 C2025.27538,4329.926 2027.85938,4327.206 2027.85938,4323.738 C2027.85938,4320.168 2025.27538,4317.482 2021.87538,4317.482 Z M2056.75206,4315.442 L2059.54006,4315.442 L2052.57006,4332.374 L2051.61806,4332.374 L2045.97406,4319.862 L2040.36406,4332.374 L2039.44606,4332.374 L2032.40806,4315.442 L2035.19606,4315.442 L2039.95606,4327.682 L2045.49806,4315.068 L2046.48406,4315.068 L2052.06006,4327.614 L2056.75206,4315.442 Z M2078.73542,4315.068 C2082.50942,4315.068 2085.19542,4317.346 2085.19542,4321.8 L2085.19542,4332 L2082.74742,4332 L2082.74742,4329.858 C2081.55742,4331.456 2079.61942,4332.374 2077.17142,4332.374 C2073.83942,4332.374 2071.39142,4330.606 2071.39142,4327.716 C2071.39142,4324.928 2073.73742,4323.092 2077.34142,4323.092 L2082.57742,4323.092 L2082.57742,4321.664 C2082.57742,4318.876 2081.01342,4317.482 2078.56542,4317.482 C2076.49142,4317.482 2075.02942,4318.468 2073.73742,4320.134 L2072.00342,4318.706 C2073.56742,4316.19 2076.08342,4315.068 2078.73542,4315.068 Z M2077.51142,4330.198 C2080.23142,4330.198 2082.57742,4328.226 2082.57742,4325.642 L2082.57742,4325.234 L2077.64742,4325.234 C2075.33542,4325.234 2074.07742,4326.016 2074.07742,4327.58 C2074.07742,4329.348 2075.67542,4330.198 2077.51142,4330.198 Z M2098.2441,4315.068 C2102.1541,4315.068 2104.3981,4317.754 2104.3981,4321.596 L2104.3981,4332 L2101.7801,4332 L2101.7801,4321.902 C2101.7801,4319.284 2100.2161,4317.482 2097.6661,4317.482 C2095.1161,4317.482 2093.3141,4319.318 2093.3141,4321.902 L2093.3141,4332 L2090.6961,4332 L2090.6961,4315.442 L2093.1441,4315.442 L2093.1441,4317.244 C2094.3001,4315.884 2096.1021,4315.068 2098.2441,4315.068 Z M2123.02278,4306.5 L2125.64078,4306.5 L2125.64078,4332 L2123.15878,4332 L2123.15878,4329.348 C2121.86678,4331.252 2119.52078,4332.374 2116.90278,4332.374 C2112.17678,4332.374 2108.70878,4328.6 2108.70878,4323.738 C2108.70878,4318.842 2112.17678,4315.068 2116.90278,4315.068 C2119.41878,4315.068 2121.69678,4316.122 2123.02278,4317.89 L2123.02278,4306.5 Z M2117.27678,4329.96 C2120.13278,4329.96 2123.05678,4328.09 2123.05678,4323.738 C2123.05678,4319.386 2120.13278,4317.482 2117.27678,4317.482 C2113.91078,4317.482 2111.39478,4320.1 2111.39478,4323.704 C2111.39478,4327.308 2113.87678,4329.96 2117.27678,4329.96 Z M2158.53815,4309.56 L2158.53815,4323.092 C2158.53815,4329.076 2154.73015,4332.374 2149.66415,4332.374 C2144.49615,4332.374 2140.72215,4329.076 2140.72215,4323.092 L2140.72215,4309.56 L2143.37415,4309.56 L2143.37415,4323.262 C2143.37415,4327.784 2146.16215,4329.926 2149.66415,4329.926 C2153.13215,4329.926 2155.88615,4327.784 2155.88615,4323.262 L2155.88615,4309.56 L2158.53815,4309.56 Z M2167.06483,4309.56 L2167.06483,4332 L2164.41283,4332 L2164.41283,4309.56 L2167.06483,4309.56 Z M2174.67351,4328.09 C2175.82951,4328.09 2176.81551,4328.974 2176.81551,4330.232 C2176.81551,4331.49 2175.82951,4332.374 2174.67351,4332.374 C2173.51751,4332.374 2172.53151,4331.49 2172.53151,4330.232 C2172.53151,4328.974 2173.51751,4328.09 2174.67351,4328.09 Z" id="spare2"></path>
        </g>
    </g>
</svg>