<?xml version="1.0" encoding="UTF-8"?>
<svg width="572px" height="189px" viewBox="0 0 572 189" version="1.1" xmlns="http://www.w3.org/2000/svg" xmlns:xlink="http://www.w3.org/1999/xlink">
    <!-- Generator: Sketch 53.2 (72643) - https://sketchapp.com -->
    <title>SparetoShare</title>
    <desc>Created with Sketch.</desc>
    <defs>
        <linearGradient x1="74.000038%" y1="49.5446056%" x2="-16.1444198%" y2="51.5058248%" id="linearGradient-1">
            <stop stop-color="#FA8561" offset="0%"></stop>
            <stop stop-color="#D31CF7" offset="100%"></stop>
        </linearGradient>
    </defs>
    <g id="Page-1" stroke="none" stroke-width="1" fill="none" fill-rule="evenodd">
        <g id="Desktop-HD-Copy-27" transform="translate(-1728.000000, -290.000000)">
            <g id="SparetoShare" transform="translate(1728.000000, 290.000000)">
                <rect id="Rectangle-Copy-4" fill="#000000" x="0" y="0" width="572" height="189" rx="16"></rect>
                <path d="M57.228,64.928 C65.208,64.928 70.832,68.956 73.796,74.428 L66.804,79.824 C64.372,76.176 61.332,74.048 57.228,74.048 C53.884,74.048 50.996,75.568 50.996,78.912 C50.996,81.8 53.2,83.016 56.848,84.688 L62.548,87.196 C70.452,90.692 74.936,94.72 74.936,101.864 C74.936,111.212 67.336,116.912 57.38,116.912 C48.716,116.912 41.724,112.504 38,105.816 L45.068,100.496 C47.804,104.296 51.376,107.792 57.38,107.792 C61.788,107.792 64.524,105.74 64.524,102.244 C64.524,98.976 62.092,97.836 58.14,96.012 L52.744,93.58 C45.6,90.312 40.584,86.208 40.584,79.14 C40.584,70.476 47.804,64.928 57.228,64.928 Z M103.034137,77.544 C113.674137,77.544 121.274137,85.828 121.274137,97.152 C121.274137,108.476 113.674137,116.912 103.034137,116.912 C98.398137,116.912 94.446137,115.24 91.786137,112.352 L91.786137,129.68 L81.526137,129.68 L81.526137,78.38 L90.950137,78.38 L90.950137,83.092 C93.534137,79.52 97.790137,77.544 103.034137,77.544 Z M101.134137,107.564 C106.454137,107.564 110.862137,103.612 110.862137,97.228 C110.862137,90.844 106.530137,86.816 101.134137,86.816 C96.422137,86.816 91.634137,89.932 91.634137,97.152 C91.634137,104.296 96.346137,107.564 101.134137,107.564 Z M142.988274,77.544 C152.564274,77.544 159.100274,82.94 159.100274,93.656 L159.100274,116 L149.676274,116 L149.676274,112.352 C147.016274,115.164 143.064274,116.912 138.200274,116.912 C129.992274,116.912 125.204274,112.048 125.204274,105.664 C125.204274,98.824 130.752274,94.72 139.416274,94.72 L148.840274,94.72 L148.840274,93.048 C148.840274,88.944 146.484274,86.436 141.848274,86.436 C137.820274,86.436 135.008274,88.336 131.892274,91.604 L126.572274,85.296 C130.980274,80.052 136.376274,77.544 142.988274,77.544 Z M140.936274,109.388 C145.268274,109.388 148.840274,106.348 148.840274,101.94 L148.840274,101.484 L140.784274,101.484 C137.440274,101.484 135.540274,102.776 135.540274,105.284 C135.540274,107.868 137.744274,109.388 140.936274,109.388 Z M186.970411,77.924 C188.338411,77.924 189.326411,78.076 190.314411,78.38 L190.314411,87.424 L187.578411,87.424 C181.650411,87.424 177.470411,90.464 177.470411,97.228 L177.470411,116 L167.210411,116 L167.210411,78.38 L176.634411,78.38 L176.634411,82.94 C179.142411,79.672 182.866411,77.924 186.970411,77.924 Z M229.432548,95.024 C229.432548,97.152 229.052548,99.356 228.748548,100.648 L202.300548,100.648 C203.592548,105.436 207.544548,108.096 212.940548,108.096 C217.044548,108.096 220.388548,106.652 223.428548,104.296 L227.684548,111.288 C223.428548,114.86 218.412548,116.912 212.636548,116.912 C200.704548,116.912 192.040548,108.324 192.040548,97.228 C192.040548,86.132 200.628548,77.544 211.724548,77.544 C222.288548,77.544 229.432548,85.296 229.432548,95.024 Z M211.344548,85.828 C207.012548,85.828 203.516548,88.716 202.300548,93.428 L219.476548,93.428 C219.400548,88.64 215.676548,85.828 211.344548,85.828 Z M274.456822,107.716 C275.672822,107.716 277.344822,107.564 279.320822,107.412 L279.320822,116 C277.192822,116.532 274.912822,116.912 272.252822,116.912 C262.980822,116.912 257.204822,112.428 257.204822,102.776 L257.204822,87.044 L251.276822,87.044 L251.276822,78.38 L257.204822,78.38 L257.204822,68.88 L267.464822,68.88 L267.464822,78.38 L278.104822,78.38 L278.104822,87.044 L267.464822,87.044 L267.464822,101.864 C267.464822,106.196 269.744822,107.716 274.456822,107.716 Z M302.250959,77.544 C313.346959,77.544 322.466959,86.056 322.466959,97.152 C322.466959,108.324 313.346959,116.836 302.174959,116.836 C291.002959,116.836 282.110959,108.324 282.110959,97.152 C282.110959,86.056 291.002959,77.544 302.250959,77.544 Z M302.250959,86.892 C296.550959,86.892 292.522959,91.3 292.522959,97.228 C292.522959,103.156 296.550959,107.412 302.250959,107.412 C307.798959,107.412 311.978959,103.08 311.978959,97.228 C311.978959,91.3 307.798959,86.892 302.250959,86.892 Z M364.603233,64.928 C372.583233,64.928 378.207233,68.956 381.171233,74.428 L374.179233,79.824 C371.747233,76.176 368.707233,74.048 364.603233,74.048 C361.259233,74.048 358.371233,75.568 358.371233,78.912 C358.371233,81.8 360.575233,83.016 364.223233,84.688 L369.923233,87.196 C377.827233,90.692 382.311233,94.72 382.311233,101.864 C382.311233,111.212 374.711233,116.912 364.755233,116.912 C356.091233,116.912 349.099233,112.504 345.375233,105.816 L352.443233,100.496 C355.179233,104.296 358.751233,107.792 364.755233,107.792 C369.163233,107.792 371.899233,105.74 371.899233,102.244 C371.899233,98.976 369.467233,97.836 365.515233,96.012 L360.119233,93.58 C352.975233,90.312 347.959233,86.208 347.959233,79.14 C347.959233,70.476 355.179233,64.928 364.603233,64.928 Z M409.49737,77.544 C418.08537,77.544 423.48137,83.624 423.48137,92.668 L423.48137,116 L413.29737,116 L413.29737,94.112 C413.29737,89.704 410.48537,86.816 406.30537,86.816 C402.12537,86.816 399.16137,89.78 399.16137,94.112 L399.16137,116 L388.90137,116 L388.90137,59 L399.16137,59 L399.16137,81.572 C401.66937,79.064 405.24137,77.544 409.49737,77.544 Z M447.019507,77.544 C456.595507,77.544 463.131507,82.94 463.131507,93.656 L463.131507,116 L453.707507,116 L453.707507,112.352 C451.047507,115.164 447.095507,116.912 442.231507,116.912 C434.023507,116.912 429.235507,112.048 429.235507,105.664 C429.235507,98.824 434.783507,94.72 443.447507,94.72 L452.871507,94.72 L452.871507,93.048 C452.871507,88.944 450.515507,86.436 445.879507,86.436 C441.851507,86.436 439.039507,88.336 435.923507,91.604 L430.603507,85.296 C435.011507,80.052 440.407507,77.544 447.019507,77.544 Z M444.967507,109.388 C449.299507,109.388 452.871507,106.348 452.871507,101.94 L452.871507,101.484 L444.815507,101.484 C441.471507,101.484 439.571507,102.776 439.571507,105.284 C439.571507,107.868 441.775507,109.388 444.967507,109.388 Z M491.001644,77.924 C492.369644,77.924 493.357644,78.076 494.345644,78.38 L494.345644,87.424 L491.609644,87.424 C485.681644,87.424 481.501644,90.464 481.501644,97.228 L481.501644,116 L471.241644,116 L471.241644,78.38 L480.665644,78.38 L480.665644,82.94 C483.173644,79.672 486.897644,77.924 491.001644,77.924 Z M533.463781,95.024 C533.463781,97.152 533.083781,99.356 532.779781,100.648 L506.331781,100.648 C507.623781,105.436 511.575781,108.096 516.971781,108.096 C521.075781,108.096 524.419781,106.652 527.459781,104.296 L531.715781,111.288 C527.459781,114.86 522.443781,116.912 516.667781,116.912 C504.735781,116.912 496.071781,108.324 496.071781,97.228 C496.071781,86.132 504.659781,77.544 515.755781,77.544 C526.319781,77.544 533.463781,85.296 533.463781,95.024 Z M515.375781,85.828 C511.043781,85.828 507.547781,88.716 506.331781,93.428 L523.507781,93.428 C523.431781,88.64 519.707781,85.828 515.375781,85.828 Z" fill="url(#linearGradient-1)" fill-rule="nonzero"></path>
            </g>
        </g>
    </g>
</svg>