<?xml version="1.0" encoding="UTF-8"?>
<svg width="1027px" height="71px" viewBox="0 0 1027 71" version="1.1" xmlns="http://www.w3.org/2000/svg" xmlns:xlink="http://www.w3.org/1999/xlink">
    <!-- Generator: Sketch 53.2 (72643) - https://sketchapp.com -->
    <title>spare9</title>
    <desc>Created with Sketch.</desc>
    <g id="Page-1" stroke="none" stroke-width="1" fill="none" fill-rule="evenodd">
        <g id="Artboard" transform="translate(-1446.000000, -6387.000000)" fill="#404648" fill-rule="nonzero">
            <path d="M1449.59488,6390.56 L1449.59488,6413 L1446.94288,6413 L1446.94288,6390.56 L1449.59488,6390.56 Z M1462.88156,6396.068 C1466.79156,6396.068 1469.03556,6398.754 1469.03556,6402.596 L1469.03556,6413 L1466.41756,6413 L1466.41756,6402.902 C1466.41756,6400.284 1464.85356,6398.482 1462.30356,6398.482 C1459.75356,6398.482 1457.95156,6400.318 1457.95156,6402.902 L1457.95156,6413 L1455.33356,6413 L1455.33356,6396.442 L1457.78156,6396.442 L1457.78156,6398.244 C1458.93756,6396.884 1460.73956,6396.068 1462.88156,6396.068 Z M1491.49492,6396.068 C1496.28892,6396.068 1500.16492,6399.842 1500.16492,6404.704 C1500.16492,6409.532 1496.28892,6413.34 1491.46092,6413.34 C1486.66692,6413.306 1482.82492,6409.566 1482.82492,6404.704 C1482.82492,6399.842 1486.63292,6396.068 1491.49492,6396.068 Z M1491.49492,6398.482 C1488.02692,6398.482 1485.47692,6401.202 1485.51092,6404.738 C1485.51092,6408.24 1488.02692,6410.926 1491.46092,6410.926 C1494.89492,6410.926 1497.47892,6408.206 1497.47892,6404.738 C1497.47892,6401.168 1494.89492,6398.482 1491.49492,6398.482 Z M1512.2956,6396.306 C1512.8396,6396.306 1513.1796,6396.374 1513.5196,6396.442 L1513.5196,6398.754 L1512.5336,6398.754 C1509.8476,6398.754 1507.3316,6400.454 1507.3316,6403.616 L1507.3316,6413 L1504.7136,6413 L1504.7136,6396.442 L1507.1616,6396.442 L1507.1616,6398.822 C1508.3856,6397.19 1510.3236,6396.306 1512.2956,6396.306 Z M1529.76428,6387.5 L1532.38228,6387.5 L1532.38228,6413 L1529.90028,6413 L1529.90028,6410.348 C1528.60828,6412.252 1526.26228,6413.374 1523.64428,6413.374 C1518.91828,6413.374 1515.45028,6409.6 1515.45028,6404.738 C1515.45028,6399.842 1518.91828,6396.068 1523.64428,6396.068 C1526.16028,6396.068 1528.43828,6397.122 1529.76428,6398.89 L1529.76428,6387.5 Z M1524.01828,6410.96 C1526.87428,6410.96 1529.79828,6409.09 1529.79828,6404.738 C1529.79828,6400.386 1526.87428,6398.482 1524.01828,6398.482 C1520.65228,6398.482 1518.13628,6401.1 1518.13628,6404.704 C1518.13628,6408.308 1520.61828,6410.96 1524.01828,6410.96 Z M1552.91097,6403.548 C1552.91097,6404.432 1552.77497,6405.214 1552.70697,6405.52 L1539.65097,6405.52 C1539.99097,6408.818 1542.43897,6410.96 1545.70297,6410.96 C1547.77697,6410.96 1549.40897,6410.076 1550.76897,6408.716 L1552.29897,6410.484 C1550.63297,6412.252 1548.38897,6413.374 1545.66897,6413.374 C1540.67097,6413.374 1536.89697,6409.6 1536.89697,6404.738 C1536.89697,6399.91 1540.60297,6396.068 1545.36297,6396.068 C1549.61297,6396.068 1552.91097,6399.128 1552.91097,6403.548 Z M1545.29497,6398.448 C1542.50697,6398.448 1540.29697,6400.352 1539.75297,6403.208 L1550.22497,6403.208 C1550.19097,6400.148 1547.94697,6398.448 1545.29497,6398.448 Z M1565.04165,6396.306 C1565.58565,6396.306 1565.92565,6396.374 1566.26565,6396.442 L1566.26565,6398.754 L1565.27965,6398.754 C1562.59365,6398.754 1560.07765,6400.454 1560.07765,6403.616 L1560.07765,6413 L1557.45965,6413 L1557.45965,6396.442 L1559.90765,6396.442 L1559.90765,6398.822 C1561.13165,6397.19 1563.06965,6396.306 1565.04165,6396.306 Z M1586.03901,6410.994 C1586.68501,6410.994 1587.39901,6410.926 1588.24901,6410.79 L1588.24901,6413 C1587.39901,6413.204 1586.54901,6413.374 1585.49501,6413.374 C1582.23101,6413.374 1579.91901,6411.776 1579.91901,6408.002 L1579.91901,6398.788 L1577.13101,6398.788 L1577.13101,6396.442 L1579.91901,6396.442 L1579.91901,6391.92 L1582.53701,6391.92 L1582.53701,6396.442 L1587.70501,6396.442 L1587.70501,6398.788 L1582.53701,6398.788 L1582.53701,6407.832 C1582.53701,6410.314 1583.96501,6410.994 1586.03901,6410.994 Z M1599.25769,6396.068 C1604.05169,6396.068 1607.92769,6399.842 1607.92769,6404.704 C1607.92769,6409.532 1604.05169,6413.34 1599.22369,6413.34 C1594.42969,6413.306 1590.58769,6409.566 1590.58769,6404.704 C1590.58769,6399.842 1594.39569,6396.068 1599.25769,6396.068 Z M1599.25769,6398.482 C1595.78969,6398.482 1593.23969,6401.202 1593.27369,6404.738 C1593.27369,6408.24 1595.78969,6410.926 1599.22369,6410.926 C1602.65769,6410.926 1605.24169,6408.206 1605.24169,6404.738 C1605.24169,6401.168 1602.65769,6398.482 1599.25769,6398.482 Z M1635.38505,6396.442 L1637.86705,6396.442 L1637.86705,6411.402 C1637.86705,6416.502 1634.63705,6419.494 1629.80905,6419.494 C1626.34105,6419.494 1623.65505,6417.93 1622.02305,6416.298 L1623.55305,6414.462 C1625.15105,6415.856 1627.02105,6417.08 1629.74105,6417.08 C1633.10705,6417.08 1635.24905,6415.21 1635.24905,6411.538 L1635.24905,6410.076 C1633.88905,6411.81 1631.57705,6412.83 1629.09505,6412.83 C1624.43705,6412.83 1620.96905,6409.294 1620.96905,6404.466 C1620.96905,6399.672 1624.43705,6396.068 1629.09505,6396.068 C1631.71305,6396.068 1634.09305,6397.224 1635.38505,6399.128 L1635.38505,6396.442 Z M1629.50305,6410.416 C1632.39305,6410.416 1635.28305,6408.614 1635.28305,6404.466 C1635.28305,6400.318 1632.35905,6398.55 1629.50305,6398.55 C1626.13705,6398.55 1623.62105,6400.998 1623.62105,6404.5 C1623.62105,6408.002 1626.13705,6410.416 1629.50305,6410.416 Z M1658.39573,6403.548 C1658.39573,6404.432 1658.25973,6405.214 1658.19173,6405.52 L1645.13573,6405.52 C1645.47573,6408.818 1647.92373,6410.96 1651.18773,6410.96 C1653.26173,6410.96 1654.89373,6410.076 1656.25373,6408.716 L1657.78373,6410.484 C1656.11773,6412.252 1653.87373,6413.374 1651.15373,6413.374 C1646.15573,6413.374 1642.38173,6409.6 1642.38173,6404.738 C1642.38173,6399.91 1646.08773,6396.068 1650.84773,6396.068 C1655.09773,6396.068 1658.39573,6399.128 1658.39573,6403.548 Z M1650.77973,6398.448 C1647.99173,6398.448 1645.78173,6400.352 1645.23773,6403.208 L1655.70973,6403.208 C1655.67573,6400.148 1653.43173,6398.448 1650.77973,6398.448 Z M1669.77841,6410.994 C1670.42441,6410.994 1671.13841,6410.926 1671.98841,6410.79 L1671.98841,6413 C1671.13841,6413.204 1670.28841,6413.374 1669.23441,6413.374 C1665.97041,6413.374 1663.65841,6411.776 1663.65841,6408.002 L1663.65841,6398.788 L1660.87041,6398.788 L1660.87041,6396.442 L1663.65841,6396.442 L1663.65841,6391.92 L1666.27641,6391.92 L1666.27641,6396.442 L1671.44441,6396.442 L1671.44441,6398.788 L1666.27641,6398.788 L1666.27641,6407.832 C1666.27641,6410.314 1667.70441,6410.994 1669.77841,6410.994 Z M1692.81577,6396.068 C1695.80777,6396.068 1698.18777,6397.496 1699.64977,6399.672 L1697.77977,6401.168 C1696.55577,6399.536 1694.99177,6398.482 1692.84977,6398.482 C1689.38177,6398.482 1686.83177,6401.236 1686.83177,6404.704 C1686.83177,6408.206 1689.38177,6410.96 1692.84977,6410.96 C1694.95777,6410.96 1696.52177,6409.94 1697.74577,6408.308 L1699.61577,6409.77 C1698.15377,6411.946 1695.77377,6413.374 1692.81577,6413.374 C1687.98777,6413.374 1684.14577,6409.566 1684.14577,6404.704 C1684.14577,6399.876 1687.98777,6396.068 1692.81577,6396.068 Z M1717.52645,6396.442 L1717.52645,6406.404 C1717.52645,6410.654 1714.50045,6413.374 1710.69245,6413.374 C1706.81645,6413.374 1703.82445,6410.654 1703.82445,6406.404 L1703.82445,6396.442 L1706.40845,6396.442 L1706.40845,6406.574 C1706.40845,6409.294 1708.31245,6410.96 1710.69245,6410.96 C1713.00445,6410.96 1714.90845,6409.294 1714.90845,6406.574 L1714.90845,6396.442 L1717.52645,6396.442 Z M1730.60913,6396.306 C1731.15313,6396.306 1731.49313,6396.374 1731.83313,6396.442 L1731.83313,6398.754 L1730.84713,6398.754 C1728.16113,6398.754 1725.64513,6400.454 1725.64513,6403.616 L1725.64513,6413 L1723.02713,6413 L1723.02713,6396.442 L1725.47513,6396.442 L1725.47513,6398.822 C1726.69913,6397.19 1728.63713,6396.306 1730.60913,6396.306 Z M1742.87581,6396.306 C1743.41981,6396.306 1743.75981,6396.374 1744.09981,6396.442 L1744.09981,6398.754 L1743.11381,6398.754 C1740.42781,6398.754 1737.91181,6400.454 1737.91181,6403.616 L1737.91181,6413 L1735.29381,6413 L1735.29381,6396.442 L1737.74181,6396.442 L1737.74181,6398.822 C1738.96581,6397.19 1740.90381,6396.306 1742.87581,6396.306 Z M1762.04449,6403.548 C1762.04449,6404.432 1761.90849,6405.214 1761.84049,6405.52 L1748.78449,6405.52 C1749.12449,6408.818 1751.57249,6410.96 1754.83649,6410.96 C1756.91049,6410.96 1758.54249,6410.076 1759.90249,6408.716 L1761.43249,6410.484 C1759.76649,6412.252 1757.52249,6413.374 1754.80249,6413.374 C1749.80449,6413.374 1746.03049,6409.6 1746.03049,6404.738 C1746.03049,6399.91 1749.73649,6396.068 1754.49649,6396.068 C1758.74649,6396.068 1762.04449,6399.128 1762.04449,6403.548 Z M1754.42849,6398.448 C1751.64049,6398.448 1749.43049,6400.352 1748.88649,6403.208 L1759.35849,6403.208 C1759.32449,6400.148 1757.08049,6398.448 1754.42849,6398.448 Z M1774.14117,6396.068 C1778.05117,6396.068 1780.29517,6398.754 1780.29517,6402.596 L1780.29517,6413 L1777.67717,6413 L1777.67717,6402.902 C1777.67717,6400.284 1776.11317,6398.482 1773.56317,6398.482 C1771.01317,6398.482 1769.21117,6400.318 1769.21117,6402.902 L1769.21117,6413 L1766.59317,6413 L1766.59317,6396.442 L1769.04117,6396.442 L1769.04117,6398.244 C1770.19717,6396.884 1771.99917,6396.068 1774.14117,6396.068 Z M1792.62985,6410.994 C1793.27585,6410.994 1793.98985,6410.926 1794.83985,6410.79 L1794.83985,6413 C1793.98985,6413.204 1793.13985,6413.374 1792.08585,6413.374 C1788.82185,6413.374 1786.50985,6411.776 1786.50985,6408.002 L1786.50985,6398.788 L1783.72185,6398.788 L1783.72185,6396.442 L1786.50985,6396.442 L1786.50985,6391.92 L1789.12785,6391.92 L1789.12785,6396.442 L1794.29585,6396.442 L1794.29585,6398.788 L1789.12785,6398.788 L1789.12785,6407.832 C1789.12785,6410.314 1790.55585,6410.994 1792.62985,6410.994 Z M1814.13722,6396.068 C1817.91122,6396.068 1820.59722,6398.346 1820.59722,6402.8 L1820.59722,6413 L1818.14922,6413 L1818.14922,6410.858 C1816.95922,6412.456 1815.02122,6413.374 1812.57322,6413.374 C1809.24122,6413.374 1806.79322,6411.606 1806.79322,6408.716 C1806.79322,6405.928 1809.13922,6404.092 1812.74322,6404.092 L1817.97922,6404.092 L1817.97922,6402.664 C1817.97922,6399.876 1816.41522,6398.482 1813.96722,6398.482 C1811.89322,6398.482 1810.43122,6399.468 1809.13922,6401.134 L1807.40522,6399.706 C1808.96922,6397.19 1811.48522,6396.068 1814.13722,6396.068 Z M1812.91322,6411.198 C1815.63322,6411.198 1817.97922,6409.226 1817.97922,6406.642 L1817.97922,6406.234 L1813.04922,6406.234 C1810.73722,6406.234 1809.47922,6407.016 1809.47922,6408.58 C1809.47922,6410.348 1811.07722,6411.198 1812.91322,6411.198 Z M1833.6459,6396.068 C1837.5559,6396.068 1839.7999,6398.754 1839.7999,6402.596 L1839.7999,6413 L1837.1819,6413 L1837.1819,6402.902 C1837.1819,6400.284 1835.6179,6398.482 1833.0679,6398.482 C1830.5179,6398.482 1828.7159,6400.318 1828.7159,6402.902 L1828.7159,6413 L1826.0979,6413 L1826.0979,6396.442 L1828.5459,6396.442 L1828.5459,6398.244 C1829.7019,6396.884 1831.5039,6396.068 1833.6459,6396.068 Z M1858.42458,6387.5 L1861.04258,6387.5 L1861.04258,6413 L1858.56058,6413 L1858.56058,6410.348 C1857.26858,6412.252 1854.92258,6413.374 1852.30458,6413.374 C1847.57858,6413.374 1844.11058,6409.6 1844.11058,6404.738 C1844.11058,6399.842 1847.57858,6396.068 1852.30458,6396.068 C1854.82058,6396.068 1857.09858,6397.122 1858.42458,6398.89 L1858.42458,6387.5 Z M1852.67858,6410.96 C1855.53458,6410.96 1858.45858,6409.09 1858.45858,6404.738 C1858.45858,6400.386 1855.53458,6398.482 1852.67858,6398.482 C1849.31258,6398.482 1846.79658,6401.1 1846.79658,6404.704 C1846.79658,6408.308 1849.27858,6410.96 1852.67858,6410.96 Z M1884.92994,6396.068 C1889.68994,6396.068 1893.12394,6399.842 1893.12394,6404.704 C1893.12394,6409.6 1889.65594,6413.374 1884.92994,6413.374 C1882.48194,6413.374 1880.16994,6412.354 1878.84394,6410.586 L1878.84394,6419.12 L1876.22594,6419.12 L1876.22594,6396.442 L1878.67394,6396.442 L1878.67394,6399.094 C1879.96594,6397.19 1882.31194,6396.068 1884.92994,6396.068 Z M1884.55594,6410.96 C1887.92194,6410.96 1890.43794,6408.342 1890.43794,6404.738 C1890.43794,6401.134 1887.95594,6398.482 1884.55594,6398.482 C1881.69994,6398.482 1878.80994,6400.352 1878.80994,6404.704 C1878.80994,6409.056 1881.66594,6410.96 1884.55594,6410.96 Z M1905.15262,6396.068 C1909.94662,6396.068 1913.82262,6399.842 1913.82262,6404.704 C1913.82262,6409.532 1909.94662,6413.34 1905.11862,6413.34 C1900.32462,6413.306 1896.48262,6409.566 1896.48262,6404.704 C1896.48262,6399.842 1900.29062,6396.068 1905.15262,6396.068 Z M1905.15262,6398.482 C1901.68462,6398.482 1899.13462,6401.202 1899.16862,6404.738 C1899.16862,6408.24 1901.68462,6410.926 1905.11862,6410.926 C1908.55262,6410.926 1911.13662,6408.206 1911.13662,6404.738 C1911.13662,6401.168 1908.55262,6398.482 1905.15262,6398.482 Z M1925.2053,6410.994 C1925.8513,6410.994 1926.5653,6410.926 1927.4153,6410.79 L1927.4153,6413 C1926.5653,6413.204 1925.7153,6413.374 1924.6613,6413.374 C1921.3973,6413.374 1919.0853,6411.776 1919.0853,6408.002 L1919.0853,6398.788 L1916.2973,6398.788 L1916.2973,6396.442 L1919.0853,6396.442 L1919.0853,6391.92 L1921.7033,6391.92 L1921.7033,6396.442 L1926.8713,6396.442 L1926.8713,6398.788 L1921.7033,6398.788 L1921.7033,6407.832 C1921.7033,6410.314 1923.1313,6410.994 1925.2053,6410.994 Z M1945.76798,6403.548 C1945.76798,6404.432 1945.63198,6405.214 1945.56398,6405.52 L1932.50798,6405.52 C1932.84798,6408.818 1935.29598,6410.96 1938.55998,6410.96 C1940.63398,6410.96 1942.26598,6410.076 1943.62598,6408.716 L1945.15598,6410.484 C1943.48998,6412.252 1941.24598,6413.374 1938.52598,6413.374 C1933.52798,6413.374 1929.75398,6409.6 1929.75398,6404.738 C1929.75398,6399.91 1933.45998,6396.068 1938.21998,6396.068 C1942.46998,6396.068 1945.76798,6399.128 1945.76798,6403.548 Z M1938.15198,6398.448 C1935.36398,6398.448 1933.15398,6400.352 1932.60998,6403.208 L1943.08198,6403.208 C1943.04798,6400.148 1940.80398,6398.448 1938.15198,6398.448 Z M1957.86466,6396.068 C1961.77466,6396.068 1964.01866,6398.754 1964.01866,6402.596 L1964.01866,6413 L1961.40066,6413 L1961.40066,6402.902 C1961.40066,6400.284 1959.83666,6398.482 1957.28666,6398.482 C1954.73666,6398.482 1952.93466,6400.318 1952.93466,6402.902 L1952.93466,6413 L1950.31666,6413 L1950.31666,6396.442 L1952.76466,6396.442 L1952.76466,6398.244 C1953.92066,6396.884 1955.72266,6396.068 1957.86466,6396.068 Z M1976.35334,6410.994 C1976.99934,6410.994 1977.71334,6410.926 1978.56334,6410.79 L1978.56334,6413 C1977.71334,6413.204 1976.86334,6413.374 1975.80934,6413.374 C1972.54534,6413.374 1970.23334,6411.776 1970.23334,6408.002 L1970.23334,6398.788 L1967.44534,6398.788 L1967.44534,6396.442 L1970.23334,6396.442 L1970.23334,6391.92 L1972.85134,6391.92 L1972.85134,6396.442 L1978.01934,6396.442 L1978.01934,6398.788 L1972.85134,6398.788 L1972.85134,6407.832 C1972.85134,6410.314 1974.27934,6410.994 1976.35334,6410.994 Z M1983.75802,6388.214 C1984.81202,6388.214 1985.69602,6389.064 1985.69602,6390.118 C1985.69602,6391.206 1984.81202,6392.022 1983.75802,6392.022 C1982.63602,6392.022 1981.78602,6391.206 1981.78602,6390.118 C1981.78602,6389.064 1982.63602,6388.214 1983.75802,6388.214 Z M1985.05002,6396.442 L1985.05002,6413 L1982.43202,6413 L1982.43202,6396.442 L1985.05002,6396.442 Z M1996.7047,6396.068 C2000.4787,6396.068 2003.1647,6398.346 2003.1647,6402.8 L2003.1647,6413 L2000.7167,6413 L2000.7167,6410.858 C1999.5267,6412.456 1997.5887,6413.374 1995.1407,6413.374 C1991.8087,6413.374 1989.3607,6411.606 1989.3607,6408.716 C1989.3607,6405.928 1991.7067,6404.092 1995.3107,6404.092 L2000.5467,6404.092 L2000.5467,6402.664 C2000.5467,6399.876 1998.9827,6398.482 1996.5347,6398.482 C1994.4607,6398.482 1992.9987,6399.468 1991.7067,6401.134 L1989.9727,6399.706 C1991.5367,6397.19 1994.0527,6396.068 1996.7047,6396.068 Z M1995.4807,6411.198 C1998.2007,6411.198 2000.5467,6409.226 2000.5467,6406.642 L2000.5467,6406.234 L1995.6167,6406.234 C1993.3047,6406.234 1992.0467,6407.016 1992.0467,6408.58 C1992.0467,6410.348 1993.6447,6411.198 1995.4807,6411.198 Z M2011.28338,6387.5 L2011.28338,6413 L2008.66538,6413 L2008.66538,6387.5 L2011.28338,6387.5 Z M2033.94674,6396.068 C2036.93874,6396.068 2039.31874,6397.496 2040.78074,6399.672 L2038.91074,6401.168 C2037.68674,6399.536 2036.12274,6398.482 2033.98074,6398.482 C2030.51274,6398.482 2027.96274,6401.236 2027.96274,6404.704 C2027.96274,6408.206 2030.51274,6410.96 2033.98074,6410.96 C2036.08874,6410.96 2037.65274,6409.94 2038.87674,6408.308 L2040.74674,6409.77 C2039.28474,6411.946 2036.90474,6413.374 2033.94674,6413.374 C2029.11874,6413.374 2025.27674,6409.566 2025.27674,6404.704 C2025.27674,6399.876 2029.11874,6396.068 2033.94674,6396.068 Z M2058.65742,6396.442 L2058.65742,6406.404 C2058.65742,6410.654 2055.63142,6413.374 2051.82342,6413.374 C2047.94742,6413.374 2044.95542,6410.654 2044.95542,6406.404 L2044.95542,6396.442 L2047.53942,6396.442 L2047.53942,6406.574 C2047.53942,6409.294 2049.44342,6410.96 2051.82342,6410.96 C2054.13542,6410.96 2056.03942,6409.294 2056.03942,6406.574 L2056.03942,6396.442 L2058.65742,6396.442 Z M2069.1561,6396.068 C2071.5361,6396.068 2073.4061,6397.088 2074.6981,6398.686 L2073.1001,6400.318 C2072.0121,6399.196 2070.5841,6398.482 2069.0201,6398.482 C2067.4561,6398.482 2066.2661,6399.196 2066.2661,6400.556 C2066.2661,6401.678 2067.1161,6402.222 2068.9521,6402.97 L2070.4821,6403.616 C2073.4741,6404.874 2074.8681,6406.166 2074.8681,6408.512 C2074.8681,6411.742 2072.1141,6413.374 2069.0541,6413.374 C2066.1301,6413.374 2063.9201,6411.912 2062.5941,6410.144 L2064.2601,6408.41 C2065.6201,6409.838 2067.0141,6410.96 2069.0201,6410.96 C2070.7541,6410.96 2072.1821,6410.11 2072.1821,6408.614 C2072.1821,6407.186 2070.9581,6406.642 2069.2921,6405.962 L2067.6941,6405.282 C2065.1781,6404.228 2063.5801,6403.072 2063.5801,6400.692 C2063.5801,6397.7 2066.1301,6396.068 2069.1561,6396.068 Z M2086.38678,6410.994 C2087.03278,6410.994 2087.74678,6410.926 2088.59678,6410.79 L2088.59678,6413 C2087.74678,6413.204 2086.89678,6413.374 2085.84278,6413.374 C2082.57878,6413.374 2080.26678,6411.776 2080.26678,6408.002 L2080.26678,6398.788 L2077.47878,6398.788 L2077.47878,6396.442 L2080.26678,6396.442 L2080.26678,6391.92 L2082.88478,6391.92 L2082.88478,6396.442 L2088.05278,6396.442 L2088.05278,6398.788 L2082.88478,6398.788 L2082.88478,6407.832 C2082.88478,6410.314 2084.31278,6410.994 2086.38678,6410.994 Z M2099.60547,6396.068 C2104.39947,6396.068 2108.27547,6399.842 2108.27547,6404.704 C2108.27547,6409.532 2104.39947,6413.34 2099.57147,6413.34 C2094.77747,6413.306 2090.93547,6409.566 2090.93547,6404.704 C2090.93547,6399.842 2094.74347,6396.068 2099.60547,6396.068 Z M2099.60547,6398.482 C2096.13747,6398.482 2093.58747,6401.202 2093.62147,6404.738 C2093.62147,6408.24 2096.13747,6410.926 2099.57147,6410.926 C2103.00547,6410.926 2105.58947,6408.206 2105.58947,6404.738 C2105.58947,6401.168 2103.00547,6398.482 2099.60547,6398.482 Z M2130.98015,6396.068 C2134.85615,6396.068 2136.99815,6398.754 2136.99815,6402.596 L2136.99815,6413 L2134.38015,6413 L2134.38015,6402.936 C2134.38015,6400.318 2132.95215,6398.482 2130.47015,6398.482 C2127.95415,6398.482 2126.22015,6400.386 2126.22015,6402.698 L2126.22015,6413 L2123.60215,6413 L2123.60215,6402.936 C2123.60215,6400.318 2122.10615,6398.482 2119.65815,6398.482 C2117.14215,6398.482 2115.44215,6400.318 2115.44215,6402.936 L2115.44215,6413 L2112.82415,6413 L2112.82415,6396.442 L2115.27215,6396.442 L2115.27215,6398.176 C2116.42815,6396.85 2118.12815,6396.068 2120.20215,6396.068 C2122.68415,6396.068 2124.38415,6397.19 2125.30215,6398.924 C2126.45815,6397.258 2128.43015,6396.068 2130.98015,6396.068 Z M2157.32283,6403.548 C2157.32283,6404.432 2157.18683,6405.214 2157.11883,6405.52 L2144.06283,6405.52 C2144.40283,6408.818 2146.85083,6410.96 2150.11483,6410.96 C2152.18883,6410.96 2153.82083,6410.076 2155.18083,6408.716 L2156.71083,6410.484 C2155.04483,6412.252 2152.80083,6413.374 2150.08083,6413.374 C2145.08283,6413.374 2141.30883,6409.6 2141.30883,6404.738 C2141.30883,6399.91 2145.01483,6396.068 2149.77483,6396.068 C2154.02483,6396.068 2157.32283,6399.128 2157.32283,6403.548 Z M2149.70683,6398.448 C2146.91883,6398.448 2144.70883,6400.352 2144.16483,6403.208 L2154.63683,6403.208 C2154.60283,6400.148 2152.35883,6398.448 2149.70683,6398.448 Z M2169.45351,6396.306 C2169.99751,6396.306 2170.33751,6396.374 2170.67751,6396.442 L2170.67751,6398.754 L2169.69151,6398.754 C2167.00551,6398.754 2164.48951,6400.454 2164.48951,6403.616 L2164.48951,6413 L2161.87151,6413 L2161.87151,6396.442 L2164.31951,6396.442 L2164.31951,6398.822 C2165.54351,6397.19 2167.48151,6396.306 2169.45351,6396.306 Z M2179.13619,6396.068 C2181.51619,6396.068 2183.38619,6397.088 2184.67819,6398.686 L2183.08019,6400.318 C2181.99219,6399.196 2180.56419,6398.482 2179.00019,6398.482 C2177.43619,6398.482 2176.24619,6399.196 2176.24619,6400.556 C2176.24619,6401.678 2177.09619,6402.222 2178.93219,6402.97 L2180.46219,6403.616 C2183.45419,6404.874 2184.84819,6406.166 2184.84819,6408.512 C2184.84819,6411.742 2182.09419,6413.374 2179.03419,6413.374 C2176.11019,6413.374 2173.90019,6411.912 2172.57419,6410.144 L2174.24019,6408.41 C2175.60019,6409.838 2176.99419,6410.96 2179.00019,6410.96 C2180.73419,6410.96 2182.16219,6410.11 2182.16219,6408.614 C2182.16219,6407.186 2180.93819,6406.642 2179.27219,6405.962 L2177.67419,6405.282 C2175.15819,6404.228 2173.56019,6403.072 2173.56019,6400.692 C2173.56019,6397.7 2176.11019,6396.068 2179.13619,6396.068 Z M2213.83555,6403.548 C2213.83555,6404.432 2213.69955,6405.214 2213.63155,6405.52 L2200.57555,6405.52 C2200.91555,6408.818 2203.36355,6410.96 2206.62755,6410.96 C2208.70155,6410.96 2210.33355,6410.076 2211.69355,6408.716 L2213.22355,6410.484 C2211.55755,6412.252 2209.31355,6413.374 2206.59355,6413.374 C2201.59555,6413.374 2197.82155,6409.6 2197.82155,6404.738 C2197.82155,6399.91 2201.52755,6396.068 2206.28755,6396.068 C2210.53755,6396.068 2213.83555,6399.128 2213.83555,6403.548 Z M2206.21955,6398.448 C2203.43155,6398.448 2201.22155,6400.352 2200.67755,6403.208 L2211.14955,6403.208 C2211.11555,6400.148 2208.87155,6398.448 2206.21955,6398.448 Z M2231.33823,6413 L2228.31223,6413 L2223.58623,6406.302 L2218.89423,6413 L2215.83423,6413 L2222.09023,6404.364 L2216.34423,6396.442 L2219.37023,6396.442 L2223.58623,6402.46 L2227.83623,6396.442 L2230.86223,6396.442 L2225.04823,6404.364 L2231.33823,6413 Z M2241.70091,6396.068 C2244.69291,6396.068 2247.07291,6397.496 2248.53491,6399.672 L2246.66491,6401.168 C2245.44091,6399.536 2243.87691,6398.482 2241.73491,6398.482 C2238.26691,6398.482 2235.71691,6401.236 2235.71691,6404.704 C2235.71691,6408.206 2238.26691,6410.96 2241.73491,6410.96 C2243.84291,6410.96 2245.40691,6409.94 2246.63091,6408.308 L2248.50091,6409.77 C2247.03891,6411.946 2244.65891,6413.374 2241.70091,6413.374 C2236.87291,6413.374 2233.03091,6409.566 2233.03091,6404.704 C2233.03091,6399.876 2236.87291,6396.068 2241.70091,6396.068 Z M2254.23959,6388.214 C2255.29359,6388.214 2256.17759,6389.064 2256.17759,6390.118 C2256.17759,6391.206 2255.29359,6392.022 2254.23959,6392.022 C2253.11759,6392.022 2252.26759,6391.206 2252.26759,6390.118 C2252.26759,6389.064 2253.11759,6388.214 2254.23959,6388.214 Z M2255.53159,6396.442 L2255.53159,6413 L2252.91359,6413 L2252.91359,6396.442 L2255.53159,6396.442 Z M2268.07027,6410.994 C2268.71627,6410.994 2269.43027,6410.926 2270.28027,6410.79 L2270.28027,6413 C2269.43027,6413.204 2268.58027,6413.374 2267.52627,6413.374 C2264.26227,6413.374 2261.95027,6411.776 2261.95027,6408.002 L2261.95027,6398.788 L2259.16227,6398.788 L2259.16227,6396.442 L2261.95027,6396.442 L2261.95027,6391.92 L2264.56827,6391.92 L2264.56827,6396.442 L2269.73627,6396.442 L2269.73627,6398.788 L2264.56827,6398.788 L2264.56827,6407.832 C2264.56827,6410.314 2265.99627,6410.994 2268.07027,6410.994 Z M2288.63295,6403.548 C2288.63295,6404.432 2288.49695,6405.214 2288.42895,6405.52 L2275.37295,6405.52 C2275.71295,6408.818 2278.16095,6410.96 2281.42495,6410.96 C2283.49895,6410.96 2285.13095,6410.076 2286.49095,6408.716 L2288.02095,6410.484 C2286.35495,6412.252 2284.11095,6413.374 2281.39095,6413.374 C2276.39295,6413.374 2272.61895,6409.6 2272.61895,6404.738 C2272.61895,6399.91 2276.32495,6396.068 2281.08495,6396.068 C2285.33495,6396.068 2288.63295,6399.128 2288.63295,6403.548 Z M2281.01695,6398.448 C2278.22895,6398.448 2276.01895,6400.352 2275.47495,6403.208 L2285.94695,6403.208 C2285.91295,6400.148 2283.66895,6398.448 2281.01695,6398.448 Z M2306.30563,6387.5 L2308.92363,6387.5 L2308.92363,6413 L2306.44163,6413 L2306.44163,6410.348 C2305.14963,6412.252 2302.80363,6413.374 2300.18563,6413.374 C2295.45963,6413.374 2291.99163,6409.6 2291.99163,6404.738 C2291.99163,6399.842 2295.45963,6396.068 2300.18563,6396.068 C2302.70163,6396.068 2304.97963,6397.122 2306.30563,6398.89 L2306.30563,6387.5 Z M2300.55963,6410.96 C2303.41563,6410.96 2306.33963,6409.09 2306.33963,6404.738 C2306.33963,6400.386 2303.41563,6398.482 2300.55963,6398.482 C2297.19363,6398.482 2294.67763,6401.1 2294.67763,6404.704 C2294.67763,6408.308 2297.15963,6410.96 2300.55963,6410.96 Z M2330.05699,6396.068 C2333.83099,6396.068 2336.51699,6398.346 2336.51699,6402.8 L2336.51699,6413 L2334.06899,6413 L2334.06899,6410.858 C2332.87899,6412.456 2330.94099,6413.374 2328.49299,6413.374 C2325.16099,6413.374 2322.71299,6411.606 2322.71299,6408.716 C2322.71299,6405.928 2325.05899,6404.092 2328.66299,6404.092 L2333.89899,6404.092 L2333.89899,6402.664 C2333.89899,6399.876 2332.33499,6398.482 2329.88699,6398.482 C2327.81299,6398.482 2326.35099,6399.468 2325.05899,6401.134 L2323.32499,6399.706 C2324.88899,6397.19 2327.40499,6396.068 2330.05699,6396.068 Z M2328.83299,6411.198 C2331.55299,6411.198 2333.89899,6409.226 2333.89899,6406.642 L2333.89899,6406.234 L2328.96899,6406.234 C2326.65699,6406.234 2325.39899,6407.016 2325.39899,6408.58 C2325.39899,6410.348 2326.99699,6411.198 2328.83299,6411.198 Z M2350.72167,6396.068 C2355.44767,6396.068 2358.91567,6399.842 2358.91567,6404.738 C2358.91567,6409.6 2355.48167,6413.374 2350.75567,6413.374 C2348.17167,6413.374 2345.75767,6412.252 2344.46567,6410.348 L2344.46567,6413 L2342.01767,6413 L2342.01767,6387.5 L2344.63567,6387.5 L2344.63567,6398.89 C2345.92767,6397.156 2348.20567,6396.068 2350.72167,6396.068 Z M2350.34767,6410.96 C2353.74767,6410.96 2356.22967,6408.308 2356.22967,6404.704 C2356.22967,6401.1 2353.71367,6398.482 2350.34767,6398.482 C2347.45767,6398.482 2344.60167,6400.386 2344.60167,6404.738 C2344.60167,6409.09 2347.49167,6410.96 2350.34767,6410.96 Z M2370.94435,6396.068 C2375.73835,6396.068 2379.61435,6399.842 2379.61435,6404.704 C2379.61435,6409.532 2375.73835,6413.34 2370.91035,6413.34 C2366.11635,6413.306 2362.27435,6409.566 2362.27435,6404.704 C2362.27435,6399.842 2366.08235,6396.068 2370.94435,6396.068 Z M2370.94435,6398.482 C2367.47635,6398.482 2364.92635,6401.202 2364.96035,6404.738 C2364.96035,6408.24 2367.47635,6410.926 2370.91035,6410.926 C2374.34435,6410.926 2376.92835,6408.206 2376.92835,6404.738 C2376.92835,6401.168 2374.34435,6398.482 2370.94435,6398.482 Z M2397.66103,6396.442 L2397.66103,6406.404 C2397.66103,6410.654 2394.63503,6413.374 2390.82703,6413.374 C2386.95103,6413.374 2383.95903,6410.654 2383.95903,6406.404 L2383.95903,6396.442 L2386.54303,6396.442 L2386.54303,6406.574 C2386.54303,6409.294 2388.44703,6410.96 2390.82703,6410.96 C2393.13903,6410.96 2395.04303,6409.294 2395.04303,6406.574 L2395.04303,6396.442 L2397.66103,6396.442 Z M2409.99572,6410.994 C2410.64172,6410.994 2411.35572,6410.926 2412.20572,6410.79 L2412.20572,6413 C2411.35572,6413.204 2410.50572,6413.374 2409.45172,6413.374 C2406.18772,6413.374 2403.87572,6411.776 2403.87572,6408.002 L2403.87572,6398.788 L2401.08772,6398.788 L2401.08772,6396.442 L2403.87572,6396.442 L2403.87572,6391.92 L2406.49372,6391.92 L2406.49372,6396.442 L2411.66172,6396.442 L2411.66172,6398.788 L2406.49372,6398.788 L2406.49372,6407.832 C2406.49372,6410.314 2407.92172,6410.994 2409.99572,6410.994 Z M2432.38708,6410.994 C2433.03308,6410.994 2433.74708,6410.926 2434.59708,6410.79 L2434.59708,6413 C2433.74708,6413.204 2432.89708,6413.374 2431.84308,6413.374 C2428.57908,6413.374 2426.26708,6411.776 2426.26708,6408.002 L2426.26708,6398.788 L2423.47908,6398.788 L2423.47908,6396.442 L2426.26708,6396.442 L2426.26708,6391.92 L2428.88508,6391.92 L2428.88508,6396.442 L2434.05308,6396.442 L2434.05308,6398.788 L2428.88508,6398.788 L2428.88508,6407.832 C2428.88508,6410.314 2430.31308,6410.994 2432.38708,6410.994 Z M2446.04776,6396.068 C2449.92376,6396.068 2452.16776,6398.754 2452.16776,6402.596 L2452.16776,6413 L2449.54976,6413 L2449.54976,6402.936 C2449.54976,6400.318 2447.98576,6398.482 2445.43576,6398.482 C2442.88576,6398.482 2441.08376,6400.352 2441.08376,6402.936 L2441.08376,6413 L2438.46576,6413 L2438.46576,6387.5 L2441.08376,6387.5 L2441.08376,6398.312 C2442.17176,6396.918 2443.90576,6396.068 2446.04776,6396.068 Z M2472.49244,6403.548 C2472.49244,6404.432 2472.35644,6405.214 2472.28844,6405.52 L2459.23244,6405.52 C2459.57244,6408.818 2462.02044,6410.96 2465.28444,6410.96 C2467.35844,6410.96 2468.99044,6410.076 2470.35044,6408.716 L2471.88044,6410.484 C2470.21444,6412.252 2467.97044,6413.374 2465.25044,6413.374 C2460.25244,6413.374 2456.47844,6409.6 2456.47844,6404.738 C2456.47844,6399.91 2460.18444,6396.068 2464.94444,6396.068 C2469.19444,6396.068 2472.49244,6399.128 2472.49244,6403.548 Z M2464.87644,6398.448 C2462.08844,6398.448 2459.87844,6400.352 2459.33444,6403.208 L2469.80644,6403.208 C2469.77244,6400.148 2467.52844,6398.448 2464.87644,6398.448 Z M1485.52556,6434.306 C1486.06956,6434.306 1486.40956,6434.374 1486.74956,6434.442 L1486.74956,6436.754 L1485.76356,6436.754 C1483.07756,6436.754 1480.56156,6438.454 1480.56156,6441.616 L1480.56156,6451 L1477.94356,6451 L1477.94356,6434.442 L1480.39156,6434.442 L1480.39156,6436.822 C1481.61556,6435.19 1483.55356,6434.306 1485.52556,6434.306 Z M1504.69424,6441.548 C1504.69424,6442.432 1504.55824,6443.214 1504.49024,6443.52 L1491.43424,6443.52 C1491.77424,6446.818 1494.22224,6448.96 1497.48624,6448.96 C1499.56024,6448.96 1501.19224,6448.076 1502.55224,6446.716 L1504.08224,6448.484 C1502.41624,6450.252 1500.17224,6451.374 1497.45224,6451.374 C1492.45424,6451.374 1488.68024,6447.6 1488.68024,6442.738 C1488.68024,6437.91 1492.38624,6434.068 1497.14624,6434.068 C1501.39624,6434.068 1504.69424,6437.128 1504.69424,6441.548 Z M1497.07824,6436.448 C1494.29024,6436.448 1492.08024,6438.352 1491.53624,6441.208 L1502.00824,6441.208 C1501.97424,6438.148 1499.73024,6436.448 1497.07824,6436.448 Z M1522.36692,6425.5 L1524.98492,6425.5 L1524.98492,6451 L1522.50292,6451 L1522.50292,6448.348 C1521.21092,6450.252 1518.86492,6451.374 1516.24692,6451.374 C1511.52092,6451.374 1508.05292,6447.6 1508.05292,6442.738 C1508.05292,6437.842 1511.52092,6434.068 1516.24692,6434.068 C1518.76292,6434.068 1521.04092,6435.122 1522.36692,6436.89 L1522.36692,6425.5 Z M1516.62092,6448.96 C1519.47692,6448.96 1522.40092,6447.09 1522.40092,6442.738 C1522.40092,6438.386 1519.47692,6436.482 1516.62092,6436.482 C1513.25492,6436.482 1510.73892,6439.1 1510.73892,6442.704 C1510.73892,6446.308 1513.22092,6448.96 1516.62092,6448.96 Z M1545.5136,6441.548 C1545.5136,6442.432 1545.3776,6443.214 1545.3096,6443.52 L1532.2536,6443.52 C1532.5936,6446.818 1535.0416,6448.96 1538.3056,6448.96 C1540.3796,6448.96 1542.0116,6448.076 1543.3716,6446.716 L1544.9016,6448.484 C1543.2356,6450.252 1540.9916,6451.374 1538.2716,6451.374 C1533.2736,6451.374 1529.4996,6447.6 1529.4996,6442.738 C1529.4996,6437.91 1533.2056,6434.068 1537.9656,6434.068 C1542.2156,6434.068 1545.5136,6437.128 1545.5136,6441.548 Z M1537.8976,6436.448 C1535.1096,6436.448 1532.8996,6438.352 1532.3556,6441.208 L1542.8276,6441.208 C1542.7936,6438.148 1540.5496,6436.448 1537.8976,6436.448 Z M1555.06028,6434.068 C1557.44028,6434.068 1559.31028,6435.088 1560.60228,6436.686 L1559.00428,6438.318 C1557.91628,6437.196 1556.48828,6436.482 1554.92428,6436.482 C1553.36028,6436.482 1552.17028,6437.196 1552.17028,6438.556 C1552.17028,6439.678 1553.02028,6440.222 1554.85628,6440.97 L1556.38628,6441.616 C1559.37828,6442.874 1560.77228,6444.166 1560.77228,6446.512 C1560.77228,6449.742 1558.01828,6451.374 1554.95828,6451.374 C1552.03428,6451.374 1549.82428,6449.912 1548.49828,6448.144 L1550.16428,6446.41 C1551.52428,6447.838 1552.91828,6448.96 1554.92428,6448.96 C1556.65828,6448.96 1558.08628,6448.11 1558.08628,6446.614 C1558.08628,6445.186 1556.86228,6444.642 1555.19628,6443.962 L1553.59828,6443.282 C1551.08228,6442.228 1549.48428,6441.072 1549.48428,6438.692 C1549.48428,6435.7 1552.03428,6434.068 1555.06028,6434.068 Z M1566.78297,6426.214 C1567.83697,6426.214 1568.72097,6427.064 1568.72097,6428.118 C1568.72097,6429.206 1567.83697,6430.022 1566.78297,6430.022 C1565.66097,6430.022 1564.81097,6429.206 1564.81097,6428.118 C1564.81097,6427.064 1565.66097,6426.214 1566.78297,6426.214 Z M1568.07497,6434.442 L1568.07497,6451 L1565.45697,6451 L1565.45697,6434.442 L1568.07497,6434.442 Z M1587.20965,6434.442 L1589.69165,6434.442 L1589.69165,6449.402 C1589.69165,6454.502 1586.46165,6457.494 1581.63365,6457.494 C1578.16565,6457.494 1575.47965,6455.93 1573.84765,6454.298 L1575.37765,6452.462 C1576.97565,6453.856 1578.84565,6455.08 1581.56565,6455.08 C1584.93165,6455.08 1587.07365,6453.21 1587.07365,6449.538 L1587.07365,6448.076 C1585.71365,6449.81 1583.40165,6450.83 1580.91965,6450.83 C1576.26165,6450.83 1572.79365,6447.294 1572.79365,6442.466 C1572.79365,6437.672 1576.26165,6434.068 1580.91965,6434.068 C1583.53765,6434.068 1585.91765,6435.224 1587.20965,6437.128 L1587.20965,6434.442 Z M1581.32765,6448.416 C1584.21765,6448.416 1587.10765,6446.614 1587.10765,6442.466 C1587.10765,6438.318 1584.18365,6436.55 1581.32765,6436.55 C1577.96165,6436.55 1575.44565,6438.998 1575.44565,6442.5 C1575.44565,6446.002 1577.96165,6448.416 1581.32765,6448.416 Z M1602.94433,6434.068 C1606.85433,6434.068 1609.09833,6436.754 1609.09833,6440.596 L1609.09833,6451 L1606.48033,6451 L1606.48033,6440.902 C1606.48033,6438.284 1604.91633,6436.482 1602.36633,6436.482 C1599.81633,6436.482 1598.01433,6438.318 1598.01433,6440.902 L1598.01433,6451 L1595.39633,6451 L1595.39633,6434.442 L1597.84433,6434.442 L1597.84433,6436.244 C1599.00033,6434.884 1600.80233,6434.068 1602.94433,6434.068 Z M1631.55769,6434.068 C1636.35169,6434.068 1640.22769,6437.842 1640.22769,6442.704 C1640.22769,6447.532 1636.35169,6451.34 1631.52369,6451.34 C1626.72969,6451.306 1622.88769,6447.566 1622.88769,6442.704 C1622.88769,6437.842 1626.69569,6434.068 1631.55769,6434.068 Z M1631.55769,6436.482 C1628.08969,6436.482 1625.53969,6439.202 1625.57369,6442.738 C1625.57369,6446.24 1628.08969,6448.926 1631.52369,6448.926 C1634.95769,6448.926 1637.54169,6446.206 1637.54169,6442.738 C1637.54169,6439.168 1634.95769,6436.482 1631.55769,6436.482 Z M1651.27037,6427.506 C1649.23037,6427.506 1647.80237,6428.186 1647.80237,6430.668 L1647.80237,6434.442 L1651.95037,6434.442 L1651.95037,6436.788 L1647.80237,6436.788 L1647.80237,6451 L1645.18437,6451 L1645.18437,6436.788 L1642.80437,6436.788 L1642.80437,6434.442 L1645.18437,6434.442 L1645.18437,6430.498 C1645.18437,6426.724 1647.46237,6425.126 1650.65837,6425.126 C1651.47437,6425.126 1652.12037,6425.228 1652.73237,6425.398 L1652.73237,6427.608 C1652.18837,6427.54 1651.71237,6427.506 1651.27037,6427.506 Z M1670.32973,6448.994 C1670.97573,6448.994 1671.68973,6448.926 1672.53973,6448.79 L1672.53973,6451 C1671.68973,6451.204 1670.83973,6451.374 1669.78573,6451.374 C1666.52173,6451.374 1664.20973,6449.776 1664.20973,6446.002 L1664.20973,6436.788 L1661.42173,6436.788 L1661.42173,6434.442 L1664.20973,6434.442 L1664.20973,6429.92 L1666.82773,6429.92 L1666.82773,6434.442 L1671.99573,6434.442 L1671.99573,6436.788 L1666.82773,6436.788 L1666.82773,6445.832 C1666.82773,6448.314 1668.25573,6448.994 1670.32973,6448.994 Z M1683.99041,6434.068 C1687.86641,6434.068 1690.11041,6436.754 1690.11041,6440.596 L1690.11041,6451 L1687.49241,6451 L1687.49241,6440.936 C1687.49241,6438.318 1685.92841,6436.482 1683.37841,6436.482 C1680.82841,6436.482 1679.02641,6438.352 1679.02641,6440.936 L1679.02641,6451 L1676.40841,6451 L1676.40841,6425.5 L1679.02641,6425.5 L1679.02641,6436.312 C1680.11441,6434.918 1681.84841,6434.068 1683.99041,6434.068 Z M1710.43509,6441.548 C1710.43509,6442.432 1710.29909,6443.214 1710.23109,6443.52 L1697.17509,6443.52 C1697.51509,6446.818 1699.96309,6448.96 1703.22709,6448.96 C1705.30109,6448.96 1706.93309,6448.076 1708.29309,6446.716 L1709.82309,6448.484 C1708.15709,6450.252 1705.91309,6451.374 1703.19309,6451.374 C1698.19509,6451.374 1694.42109,6447.6 1694.42109,6442.738 C1694.42109,6437.91 1698.12709,6434.068 1702.88709,6434.068 C1707.13709,6434.068 1710.43509,6437.128 1710.43509,6441.548 Z M1702.81909,6436.448 C1700.03109,6436.448 1697.82109,6438.352 1697.27709,6441.208 L1707.74909,6441.208 C1707.71509,6438.148 1705.47109,6436.448 1702.81909,6436.448 Z M1730.41245,6434.068 C1734.18645,6434.068 1736.87245,6436.346 1736.87245,6440.8 L1736.87245,6451 L1734.42445,6451 L1734.42445,6448.858 C1733.23445,6450.456 1731.29645,6451.374 1728.84845,6451.374 C1725.51645,6451.374 1723.06845,6449.606 1723.06845,6446.716 C1723.06845,6443.928 1725.41445,6442.092 1729.01845,6442.092 L1734.25445,6442.092 L1734.25445,6440.664 C1734.25445,6437.876 1732.69045,6436.482 1730.24245,6436.482 C1728.16845,6436.482 1726.70645,6437.468 1725.41445,6439.134 L1723.68045,6437.706 C1725.24445,6435.19 1727.76045,6434.068 1730.41245,6434.068 Z M1729.18845,6449.198 C1731.90845,6449.198 1734.25445,6447.226 1734.25445,6444.642 L1734.25445,6444.234 L1729.32445,6444.234 C1727.01245,6444.234 1725.75445,6445.016 1725.75445,6446.58 C1725.75445,6448.348 1727.35245,6449.198 1729.18845,6449.198 Z M1751.07713,6434.068 C1755.83713,6434.068 1759.27113,6437.842 1759.27113,6442.704 C1759.27113,6447.6 1755.80313,6451.374 1751.07713,6451.374 C1748.62913,6451.374 1746.31713,6450.354 1744.99113,6448.586 L1744.99113,6457.12 L1742.37313,6457.12 L1742.37313,6434.442 L1744.82113,6434.442 L1744.82113,6437.094 C1746.11313,6435.19 1748.45913,6434.068 1751.07713,6434.068 Z M1750.70313,6448.96 C1754.06913,6448.96 1756.58513,6446.342 1756.58513,6442.738 C1756.58513,6439.134 1754.10313,6436.482 1750.70313,6436.482 C1747.84713,6436.482 1744.95713,6438.352 1744.95713,6442.704 C1744.95713,6447.056 1747.81313,6448.96 1750.70313,6448.96 Z M1772.52381,6434.068 C1777.28381,6434.068 1780.71781,6437.842 1780.71781,6442.704 C1780.71781,6447.6 1777.24981,6451.374 1772.52381,6451.374 C1770.07581,6451.374 1767.76381,6450.354 1766.43781,6448.586 L1766.43781,6457.12 L1763.81981,6457.12 L1763.81981,6434.442 L1766.26781,6434.442 L1766.26781,6437.094 C1767.55981,6435.19 1769.90581,6434.068 1772.52381,6434.068 Z M1772.14981,6448.96 C1775.51581,6448.96 1778.03181,6446.342 1778.03181,6442.738 C1778.03181,6439.134 1775.54981,6436.482 1772.14981,6436.482 C1769.29381,6436.482 1766.40381,6438.352 1766.40381,6442.704 C1766.40381,6447.056 1769.25981,6448.96 1772.14981,6448.96 Z M1788.46249,6447.94 L1787.06849,6457.086 L1784.92649,6457.086 L1785.36849,6447.94 L1788.46249,6447.94 Z M1806.39985,6428.56 L1806.39985,6451 L1803.74785,6451 L1803.74785,6428.56 L1806.39985,6428.56 Z M1827.73722,6434.068 C1831.51122,6434.068 1834.19722,6436.346 1834.19722,6440.8 L1834.19722,6451 L1831.74922,6451 L1831.74922,6448.858 C1830.55922,6450.456 1828.62122,6451.374 1826.17322,6451.374 C1822.84122,6451.374 1820.39322,6449.606 1820.39322,6446.716 C1820.39322,6443.928 1822.73922,6442.092 1826.34322,6442.092 L1831.57922,6442.092 L1831.57922,6440.664 C1831.57922,6437.876 1830.01522,6436.482 1827.56722,6436.482 C1825.49322,6436.482 1824.03122,6437.468 1822.73922,6439.134 L1821.00522,6437.706 C1822.56922,6435.19 1825.08522,6434.068 1827.73722,6434.068 Z M1826.51322,6449.198 C1829.23322,6449.198 1831.57922,6447.226 1831.57922,6444.642 L1831.57922,6444.234 L1826.64922,6444.234 C1824.33722,6444.234 1823.07922,6445.016 1823.07922,6446.58 C1823.07922,6448.348 1824.67722,6449.198 1826.51322,6449.198 Z M1842.3159,6425.5 L1842.3159,6451 L1839.6979,6451 L1839.6979,6425.5 L1842.3159,6425.5 Z M1853.01858,6434.068 C1855.39858,6434.068 1857.26858,6435.088 1858.56058,6436.686 L1856.96258,6438.318 C1855.87458,6437.196 1854.44658,6436.482 1852.88258,6436.482 C1851.31858,6436.482 1850.12858,6437.196 1850.12858,6438.556 C1850.12858,6439.678 1850.97858,6440.222 1852.81458,6440.97 L1854.34458,6441.616 C1857.33658,6442.874 1858.73058,6444.166 1858.73058,6446.512 C1858.73058,6449.742 1855.97658,6451.374 1852.91658,6451.374 C1849.99258,6451.374 1847.78258,6449.912 1846.45658,6448.144 L1848.12258,6446.41 C1849.48258,6447.838 1850.87658,6448.96 1852.88258,6448.96 C1854.61658,6448.96 1856.04458,6448.11 1856.04458,6446.614 C1856.04458,6445.186 1854.82058,6444.642 1853.15458,6443.962 L1851.55658,6443.282 C1849.04058,6442.228 1847.44258,6441.072 1847.44258,6438.692 C1847.44258,6435.7 1849.99258,6434.068 1853.01858,6434.068 Z M1870.89526,6434.068 C1875.68926,6434.068 1879.56526,6437.842 1879.56526,6442.704 C1879.56526,6447.532 1875.68926,6451.34 1870.86126,6451.34 C1866.06726,6451.306 1862.22526,6447.566 1862.22526,6442.704 C1862.22526,6437.842 1866.03326,6434.068 1870.89526,6434.068 Z M1870.89526,6436.482 C1867.42726,6436.482 1864.87726,6439.202 1864.91126,6442.738 C1864.91126,6446.24 1867.42726,6448.926 1870.86126,6448.926 C1874.29526,6448.926 1876.87926,6446.206 1876.87926,6442.738 C1876.87926,6439.168 1874.29526,6436.482 1870.89526,6436.482 Z M1901.17462,6434.306 C1901.71862,6434.306 1902.05862,6434.374 1902.39862,6434.442 L1902.39862,6436.754 L1901.41262,6436.754 C1898.72662,6436.754 1896.21062,6438.454 1896.21062,6441.616 L1896.21062,6451 L1893.59262,6451 L1893.59262,6434.442 L1896.04062,6434.442 L1896.04062,6436.822 C1897.26462,6435.19 1899.20262,6434.306 1901.17462,6434.306 Z M1920.3433,6441.548 C1920.3433,6442.432 1920.2073,6443.214 1920.1393,6443.52 L1907.0833,6443.52 C1907.4233,6446.818 1909.8713,6448.96 1913.1353,6448.96 C1915.2093,6448.96 1916.8413,6448.076 1918.2013,6446.716 L1919.7313,6448.484 C1918.0653,6450.252 1915.8213,6451.374 1913.1013,6451.374 C1908.1033,6451.374 1904.3293,6447.6 1904.3293,6442.738 C1904.3293,6437.91 1908.0353,6434.068 1912.7953,6434.068 C1917.0453,6434.068 1920.3433,6437.128 1920.3433,6441.548 Z M1912.7273,6436.448 C1909.9393,6436.448 1907.7293,6438.352 1907.1853,6441.208 L1917.6573,6441.208 C1917.6233,6438.148 1915.3793,6436.448 1912.7273,6436.448 Z M1938.01598,6425.5 L1940.63398,6425.5 L1940.63398,6451 L1938.15198,6451 L1938.15198,6448.348 C1936.85998,6450.252 1934.51398,6451.374 1931.89598,6451.374 C1927.16998,6451.374 1923.70198,6447.6 1923.70198,6442.738 C1923.70198,6437.842 1927.16998,6434.068 1931.89598,6434.068 C1934.41198,6434.068 1936.68998,6435.122 1938.01598,6436.89 L1938.01598,6425.5 Z M1932.26998,6448.96 C1935.12598,6448.96 1938.04998,6447.09 1938.04998,6442.738 C1938.04998,6438.386 1935.12598,6436.482 1932.26998,6436.482 C1928.90398,6436.482 1926.38798,6439.1 1926.38798,6442.704 C1926.38798,6446.308 1928.86998,6448.96 1932.26998,6448.96 Z M1961.16266,6441.548 C1961.16266,6442.432 1961.02666,6443.214 1960.95866,6443.52 L1947.90266,6443.52 C1948.24266,6446.818 1950.69066,6448.96 1953.95466,6448.96 C1956.02866,6448.96 1957.66066,6448.076 1959.02066,6446.716 L1960.55066,6448.484 C1958.88466,6450.252 1956.64066,6451.374 1953.92066,6451.374 C1948.92266,6451.374 1945.14866,6447.6 1945.14866,6442.738 C1945.14866,6437.91 1948.85466,6434.068 1953.61466,6434.068 C1957.86466,6434.068 1961.16266,6437.128 1961.16266,6441.548 Z M1953.54666,6436.448 C1950.75866,6436.448 1948.54866,6438.352 1948.00466,6441.208 L1958.47666,6441.208 C1958.44266,6438.148 1956.19866,6436.448 1953.54666,6436.448 Z M1970.70934,6434.068 C1973.08934,6434.068 1974.95934,6435.088 1976.25134,6436.686 L1974.65334,6438.318 C1973.56534,6437.196 1972.13734,6436.482 1970.57334,6436.482 C1969.00934,6436.482 1967.81934,6437.196 1967.81934,6438.556 C1967.81934,6439.678 1968.66934,6440.222 1970.50534,6440.97 L1972.03534,6441.616 C1975.02734,6442.874 1976.42134,6444.166 1976.42134,6446.512 C1976.42134,6449.742 1973.66734,6451.374 1970.60734,6451.374 C1967.68334,6451.374 1965.47334,6449.912 1964.14734,6448.144 L1965.81334,6446.41 C1967.17334,6447.838 1968.56734,6448.96 1970.57334,6448.96 C1972.30734,6448.96 1973.73534,6448.11 1973.73534,6446.614 C1973.73534,6445.186 1972.51134,6444.642 1970.84534,6443.962 L1969.24734,6443.282 C1966.73134,6442.228 1965.13334,6441.072 1965.13334,6438.692 C1965.13334,6435.7 1967.68334,6434.068 1970.70934,6434.068 Z M1982.43202,6426.214 C1983.48602,6426.214 1984.37002,6427.064 1984.37002,6428.118 C1984.37002,6429.206 1983.48602,6430.022 1982.43202,6430.022 C1981.31002,6430.022 1980.46002,6429.206 1980.46002,6428.118 C1980.46002,6427.064 1981.31002,6426.214 1982.43202,6426.214 Z M1983.72402,6434.442 L1983.72402,6451 L1981.10602,6451 L1981.10602,6434.442 L1983.72402,6434.442 Z M2002.8587,6434.442 L2005.3407,6434.442 L2005.3407,6449.402 C2005.3407,6454.502 2002.1107,6457.494 1997.2827,6457.494 C1993.8147,6457.494 1991.1287,6455.93 1989.4967,6454.298 L1991.0267,6452.462 C1992.6247,6453.856 1994.4947,6455.08 1997.2147,6455.08 C2000.5807,6455.08 2002.7227,6453.21 2002.7227,6449.538 L2002.7227,6448.076 C2001.3627,6449.81 1999.0507,6450.83 1996.5687,6450.83 C1991.9107,6450.83 1988.4427,6447.294 1988.4427,6442.466 C1988.4427,6437.672 1991.9107,6434.068 1996.5687,6434.068 C1999.1867,6434.068 2001.5667,6435.224 2002.8587,6437.128 L2002.8587,6434.442 Z M1996.9767,6448.416 C1999.8667,6448.416 2002.7567,6446.614 2002.7567,6442.466 C2002.7567,6438.318 1999.8327,6436.55 1996.9767,6436.55 C1993.6107,6436.55 1991.0947,6438.998 1991.0947,6442.5 C1991.0947,6446.002 1993.6107,6448.416 1996.9767,6448.416 Z M2018.59338,6434.068 C2022.50338,6434.068 2024.74738,6436.754 2024.74738,6440.596 L2024.74738,6451 L2022.12938,6451 L2022.12938,6440.902 C2022.12938,6438.284 2020.56538,6436.482 2018.01538,6436.482 C2015.46538,6436.482 2013.66338,6438.318 2013.66338,6440.902 L2013.66338,6451 L2011.04538,6451 L2011.04538,6434.442 L2013.49338,6434.442 L2013.49338,6436.244 C2014.64938,6434.884 2016.45138,6434.068 2018.59338,6434.068 Z M2045.07206,6441.548 C2045.07206,6442.432 2044.93606,6443.214 2044.86806,6443.52 L2031.81206,6443.52 C2032.15206,6446.818 2034.60006,6448.96 2037.86406,6448.96 C2039.93806,6448.96 2041.57006,6448.076 2042.93006,6446.716 L2044.46006,6448.484 C2042.79406,6450.252 2040.55006,6451.374 2037.83006,6451.374 C2032.83206,6451.374 2029.05806,6447.6 2029.05806,6442.738 C2029.05806,6437.91 2032.76406,6434.068 2037.52406,6434.068 C2041.77406,6434.068 2045.07206,6437.128 2045.07206,6441.548 Z M2037.45606,6436.448 C2034.66806,6436.448 2032.45806,6438.352 2031.91406,6441.208 L2042.38606,6441.208 C2042.35206,6438.148 2040.10806,6436.448 2037.45606,6436.448 Z M2062.74474,6425.5 L2065.36274,6425.5 L2065.36274,6451 L2062.88074,6451 L2062.88074,6448.348 C2061.58874,6450.252 2059.24274,6451.374 2056.62474,6451.374 C2051.89874,6451.374 2048.43074,6447.6 2048.43074,6442.738 C2048.43074,6437.842 2051.89874,6434.068 2056.62474,6434.068 C2059.14074,6434.068 2061.41874,6435.122 2062.74474,6436.89 L2062.74474,6425.5 Z M2056.99874,6448.96 C2059.85474,6448.96 2062.77874,6447.09 2062.77874,6442.738 C2062.77874,6438.386 2059.85474,6436.482 2056.99874,6436.482 C2053.63274,6436.482 2051.11674,6439.1 2051.11674,6442.704 C2051.11674,6446.308 2053.59874,6448.96 2056.99874,6448.96 Z M2087.3801,6448.994 C2088.0261,6448.994 2088.7401,6448.926 2089.5901,6448.79 L2089.5901,6451 C2088.7401,6451.204 2087.8901,6451.374 2086.8361,6451.374 C2083.5721,6451.374 2081.2601,6449.776 2081.2601,6446.002 L2081.2601,6436.788 L2078.4721,6436.788 L2078.4721,6434.442 L2081.2601,6434.442 L2081.2601,6429.92 L2083.8781,6429.92 L2083.8781,6434.442 L2089.0461,6434.442 L2089.0461,6436.788 L2083.8781,6436.788 L2083.8781,6445.832 C2083.8781,6448.314 2085.3061,6448.994 2087.3801,6448.994 Z M2101.04078,6434.068 C2104.91678,6434.068 2107.16078,6436.754 2107.16078,6440.596 L2107.16078,6451 L2104.54278,6451 L2104.54278,6440.936 C2104.54278,6438.318 2102.97878,6436.482 2100.42878,6436.482 C2097.87878,6436.482 2096.07678,6438.352 2096.07678,6440.936 L2096.07678,6451 L2093.45878,6451 L2093.45878,6425.5 L2096.07678,6425.5 L2096.07678,6436.312 C2097.16478,6434.918 2098.89878,6434.068 2101.04078,6434.068 Z M2127.48547,6441.548 C2127.48547,6442.432 2127.34947,6443.214 2127.28147,6443.52 L2114.22547,6443.52 C2114.56547,6446.818 2117.01347,6448.96 2120.27747,6448.96 C2122.35147,6448.96 2123.98347,6448.076 2125.34347,6446.716 L2126.87347,6448.484 C2125.20747,6450.252 2122.96347,6451.374 2120.24347,6451.374 C2115.24547,6451.374 2111.47147,6447.6 2111.47147,6442.738 C2111.47147,6437.91 2115.17747,6434.068 2119.93747,6434.068 C2124.18747,6434.068 2127.48547,6437.128 2127.48547,6441.548 Z M2119.86947,6436.448 C2117.08147,6436.448 2114.87147,6438.352 2114.32747,6441.208 L2124.79947,6441.208 C2124.76547,6438.148 2122.52147,6436.448 2119.86947,6436.448 Z M2146.51083,6434.068 C2148.89083,6434.068 2150.76083,6435.088 2152.05283,6436.686 L2150.45483,6438.318 C2149.36683,6437.196 2147.93883,6436.482 2146.37483,6436.482 C2144.81083,6436.482 2143.62083,6437.196 2143.62083,6438.556 C2143.62083,6439.678 2144.47083,6440.222 2146.30683,6440.97 L2147.83683,6441.616 C2150.82883,6442.874 2152.22283,6444.166 2152.22283,6446.512 C2152.22283,6449.742 2149.46883,6451.374 2146.40883,6451.374 C2143.48483,6451.374 2141.27483,6449.912 2139.94883,6448.144 L2141.61483,6446.41 C2142.97483,6447.838 2144.36883,6448.96 2146.37483,6448.96 C2148.10883,6448.96 2149.53683,6448.11 2149.53683,6446.614 C2149.53683,6445.186 2148.31283,6444.642 2146.64683,6443.962 L2145.04883,6443.282 C2142.53283,6442.228 2140.93483,6441.072 2140.93483,6438.692 C2140.93483,6435.7 2143.48483,6434.068 2146.51083,6434.068 Z M2158.23351,6426.214 C2159.28751,6426.214 2160.17151,6427.064 2160.17151,6428.118 C2160.17151,6429.206 2159.28751,6430.022 2158.23351,6430.022 C2157.11151,6430.022 2156.26151,6429.206 2156.26151,6428.118 C2156.26151,6427.064 2157.11151,6426.214 2158.23351,6426.214 Z M2159.52551,6434.442 L2159.52551,6451 L2156.90751,6451 L2156.90751,6434.442 L2159.52551,6434.442 Z M2172.06419,6448.994 C2172.71019,6448.994 2173.42419,6448.926 2174.27419,6448.79 L2174.27419,6451 C2173.42419,6451.204 2172.57419,6451.374 2171.52019,6451.374 C2168.25619,6451.374 2165.94419,6449.776 2165.94419,6446.002 L2165.94419,6436.788 L2163.15619,6436.788 L2163.15619,6434.442 L2165.94419,6434.442 L2165.94419,6429.92 L2168.56219,6429.92 L2168.56219,6434.442 L2173.73019,6434.442 L2173.73019,6436.788 L2168.56219,6436.788 L2168.56219,6445.832 C2168.56219,6448.314 2169.99019,6448.994 2172.06419,6448.994 Z M2192.62687,6441.548 C2192.62687,6442.432 2192.49087,6443.214 2192.42287,6443.52 L2179.36687,6443.52 C2179.70687,6446.818 2182.15487,6448.96 2185.41887,6448.96 C2187.49287,6448.96 2189.12487,6448.076 2190.48487,6446.716 L2192.01487,6448.484 C2190.34887,6450.252 2188.10487,6451.374 2185.38487,6451.374 C2180.38687,6451.374 2176.61287,6447.6 2176.61287,6442.738 C2176.61287,6437.91 2180.31887,6434.068 2185.07887,6434.068 C2189.32887,6434.068 2192.62687,6437.128 2192.62687,6441.548 Z M2185.01087,6436.448 C2182.22287,6436.448 2180.01287,6438.352 2179.46887,6441.208 L2189.94087,6441.208 C2189.90687,6438.148 2187.66287,6436.448 2185.01087,6436.448 Z M2200.67755,6428.56 L2199.21555,6437.298 L2197.14155,6437.298 L2197.61755,6428.56 L2200.67755,6428.56 Z M2210.97223,6434.068 C2213.35223,6434.068 2215.22223,6435.088 2216.51423,6436.686 L2214.91623,6438.318 C2213.82823,6437.196 2212.40023,6436.482 2210.83623,6436.482 C2209.27223,6436.482 2208.08223,6437.196 2208.08223,6438.556 C2208.08223,6439.678 2208.93223,6440.222 2210.76823,6440.97 L2212.29823,6441.616 C2215.29023,6442.874 2216.68423,6444.166 2216.68423,6446.512 C2216.68423,6449.742 2213.93023,6451.374 2210.87023,6451.374 C2207.94623,6451.374 2205.73623,6449.912 2204.41023,6448.144 L2206.07623,6446.41 C2207.43623,6447.838 2208.83023,6448.96 2210.83623,6448.96 C2212.57023,6448.96 2213.99823,6448.11 2213.99823,6446.614 C2213.99823,6445.186 2212.77423,6444.642 2211.10823,6443.962 L2209.51023,6443.282 C2206.99423,6442.228 2205.39623,6441.072 2205.39623,6438.692 C2205.39623,6435.7 2207.94623,6434.068 2210.97223,6434.068 Z M2233.46559,6425.5 L2233.46559,6451 L2230.84759,6451 L2230.84759,6425.5 L2233.46559,6425.5 Z M2245.12027,6434.068 C2248.89427,6434.068 2251.58027,6436.346 2251.58027,6440.8 L2251.58027,6451 L2249.13227,6451 L2249.13227,6448.858 C2247.94227,6450.456 2246.00427,6451.374 2243.55627,6451.374 C2240.22427,6451.374 2237.77627,6449.606 2237.77627,6446.716 C2237.77627,6443.928 2240.12227,6442.092 2243.72627,6442.092 L2248.96227,6442.092 L2248.96227,6440.664 C2248.96227,6437.876 2247.39827,6436.482 2244.95027,6436.482 C2242.87627,6436.482 2241.41427,6437.468 2240.12227,6439.134 L2238.38827,6437.706 C2239.95227,6435.19 2242.46827,6434.068 2245.12027,6434.068 Z M2243.89627,6449.198 C2246.61627,6449.198 2248.96227,6447.226 2248.96227,6444.642 L2248.96227,6444.234 L2244.03227,6444.234 C2241.72027,6444.234 2240.46227,6445.016 2240.46227,6446.58 C2240.46227,6448.348 2242.06027,6449.198 2243.89627,6449.198 Z M2264.62895,6434.068 C2268.53895,6434.068 2270.78295,6436.754 2270.78295,6440.596 L2270.78295,6451 L2268.16495,6451 L2268.16495,6440.902 C2268.16495,6438.284 2266.60095,6436.482 2264.05095,6436.482 C2261.50095,6436.482 2259.69895,6438.318 2259.69895,6440.902 L2259.69895,6451 L2257.08095,6451 L2257.08095,6434.442 L2259.52895,6434.442 L2259.52895,6436.244 C2260.68495,6434.884 2262.48695,6434.068 2264.62895,6434.068 Z M2289.40763,6425.5 L2292.02563,6425.5 L2292.02563,6451 L2289.54363,6451 L2289.54363,6448.348 C2288.25163,6450.252 2285.90563,6451.374 2283.28763,6451.374 C2278.56163,6451.374 2275.09363,6447.6 2275.09363,6442.738 C2275.09363,6437.842 2278.56163,6434.068 2283.28763,6434.068 C2285.80363,6434.068 2288.08163,6435.122 2289.40763,6436.89 L2289.40763,6425.5 Z M2283.66163,6448.96 C2286.51763,6448.96 2289.44163,6447.09 2289.44163,6442.738 C2289.44163,6438.386 2286.51763,6436.482 2283.66163,6436.482 C2280.29563,6436.482 2277.77963,6439.1 2277.77963,6442.704 C2277.77963,6446.308 2280.26163,6448.96 2283.66163,6448.96 Z M2299.05631,6426.214 C2300.11031,6426.214 2300.99431,6427.064 2300.99431,6428.118 C2300.99431,6429.206 2300.11031,6430.022 2299.05631,6430.022 C2297.93431,6430.022 2297.08431,6429.206 2297.08431,6428.118 C2297.08431,6427.064 2297.93431,6426.214 2299.05631,6426.214 Z M2300.34831,6434.442 L2300.34831,6451 L2297.73031,6451 L2297.73031,6434.442 L2300.34831,6434.442 Z M2313.60099,6434.068 C2317.51099,6434.068 2319.75499,6436.754 2319.75499,6440.596 L2319.75499,6451 L2317.13699,6451 L2317.13699,6440.902 C2317.13699,6438.284 2315.57299,6436.482 2313.02299,6436.482 C2310.47299,6436.482 2308.67099,6438.318 2308.67099,6440.902 L2308.67099,6451 L2306.05299,6451 L2306.05299,6434.442 L2308.50099,6434.442 L2308.50099,6436.244 C2309.65699,6434.884 2311.45899,6434.068 2313.60099,6434.068 Z M2338.68567,6434.442 L2341.16767,6434.442 L2341.16767,6449.402 C2341.16767,6454.502 2337.93767,6457.494 2333.10967,6457.494 C2329.64167,6457.494 2326.95567,6455.93 2325.32367,6454.298 L2326.85367,6452.462 C2328.45167,6453.856 2330.32167,6455.08 2333.04167,6455.08 C2336.40767,6455.08 2338.54967,6453.21 2338.54967,6449.538 L2338.54967,6448.076 C2337.18967,6449.81 2334.87767,6450.83 2332.39567,6450.83 C2327.73767,6450.83 2324.26967,6447.294 2324.26967,6442.466 C2324.26967,6437.672 2327.73767,6434.068 2332.39567,6434.068 C2335.01367,6434.068 2337.39367,6435.224 2338.68567,6437.128 L2338.68567,6434.442 Z M2332.80367,6448.416 C2335.69367,6448.416 2338.58367,6446.614 2338.58367,6442.466 C2338.58367,6438.318 2335.65967,6436.55 2332.80367,6436.55 C2329.43767,6436.55 2326.92167,6438.998 2326.92167,6442.5 C2326.92167,6446.002 2329.43767,6448.416 2332.80367,6448.416 Z M2365.05503,6434.068 C2369.81503,6434.068 2373.24903,6437.842 2373.24903,6442.704 C2373.24903,6447.6 2369.78103,6451.374 2365.05503,6451.374 C2362.60703,6451.374 2360.29503,6450.354 2358.96903,6448.586 L2358.96903,6457.12 L2356.35103,6457.12 L2356.35103,6434.442 L2358.79903,6434.442 L2358.79903,6437.094 C2360.09103,6435.19 2362.43703,6434.068 2365.05503,6434.068 Z M2364.68103,6448.96 C2368.04703,6448.96 2370.56303,6446.342 2370.56303,6442.738 C2370.56303,6439.134 2368.08103,6436.482 2364.68103,6436.482 C2361.82503,6436.482 2358.93503,6438.352 2358.93503,6442.704 C2358.93503,6447.056 2361.79103,6448.96 2364.68103,6448.96 Z M2383.74772,6434.068 C2387.52172,6434.068 2390.20772,6436.346 2390.20772,6440.8 L2390.20772,6451 L2387.75972,6451 L2387.75972,6448.858 C2386.56972,6450.456 2384.63172,6451.374 2382.18372,6451.374 C2378.85172,6451.374 2376.40372,6449.606 2376.40372,6446.716 C2376.40372,6443.928 2378.74972,6442.092 2382.35372,6442.092 L2387.58972,6442.092 L2387.58972,6440.664 C2387.58972,6437.876 2386.02572,6436.482 2383.57772,6436.482 C2381.50372,6436.482 2380.04172,6437.468 2378.74972,6439.134 L2377.01572,6437.706 C2378.57972,6435.19 2381.09572,6434.068 2383.74772,6434.068 Z M2382.52372,6449.198 C2385.24372,6449.198 2387.58972,6447.226 2387.58972,6444.642 L2387.58972,6444.234 L2382.65972,6444.234 C2380.34772,6444.234 2379.08972,6445.016 2379.08972,6446.58 C2379.08972,6448.348 2380.68772,6449.198 2382.52372,6449.198 Z M2409.1384,6434.442 L2411.6204,6434.442 L2411.6204,6449.402 C2411.6204,6454.502 2408.3904,6457.494 2403.5624,6457.494 C2400.0944,6457.494 2397.4084,6455.93 2395.7764,6454.298 L2397.3064,6452.462 C2398.9044,6453.856 2400.7744,6455.08 2403.4944,6455.08 C2406.8604,6455.08 2409.0024,6453.21 2409.0024,6449.538 L2409.0024,6448.076 C2407.6424,6449.81 2405.3304,6450.83 2402.8484,6450.83 C2398.1904,6450.83 2394.7224,6447.294 2394.7224,6442.466 C2394.7224,6437.672 2398.1904,6434.068 2402.8484,6434.068 C2405.4664,6434.068 2407.8464,6435.224 2409.1384,6437.128 L2409.1384,6434.442 Z M2403.2564,6448.416 C2406.1464,6448.416 2409.0364,6446.614 2409.0364,6442.466 C2409.0364,6438.318 2406.1124,6436.55 2403.2564,6436.55 C2399.8904,6436.55 2397.3744,6438.998 2397.3744,6442.5 C2397.3744,6446.002 2399.8904,6448.416 2403.2564,6448.416 Z M2432.14908,6441.548 C2432.14908,6442.432 2432.01308,6443.214 2431.94508,6443.52 L2418.88908,6443.52 C2419.22908,6446.818 2421.67708,6448.96 2424.94108,6448.96 C2427.01508,6448.96 2428.64708,6448.076 2430.00708,6446.716 L2431.53708,6448.484 C2429.87108,6450.252 2427.62708,6451.374 2424.90708,6451.374 C2419.90908,6451.374 2416.13508,6447.6 2416.13508,6442.738 C2416.13508,6437.91 2419.84108,6434.068 2424.60108,6434.068 C2428.85108,6434.068 2432.14908,6437.128 2432.14908,6441.548 Z M2424.53308,6436.448 C2421.74508,6436.448 2419.53508,6438.352 2418.99108,6441.208 L2429.46308,6441.208 C2429.42908,6438.148 2427.18508,6436.448 2424.53308,6436.448 Z M2438.39776,6447.09 C2439.55376,6447.09 2440.53976,6447.974 2440.53976,6449.232 C2440.53976,6450.49 2439.55376,6451.374 2438.39776,6451.374 C2437.24176,6451.374 2436.25576,6450.49 2436.25576,6449.232 C2436.25576,6447.974 2437.24176,6447.09 2438.39776,6447.09 Z" id="spare9"></path>
        </g>
    </g>
</svg>