<?xml version="1.0" encoding="UTF-8"?>
<svg width="770px" height="103px" viewBox="0 0 770 103" version="1.1" xmlns="http://www.w3.org/2000/svg" xmlns:xlink="http://www.w3.org/1999/xlink">
    <!-- Generator: Sketch 53.2 (72643) - https://sketchapp.com -->
    <title>spare5</title>
    <desc>Created with Sketch.</desc>
    <g id="Page-1" stroke="none" stroke-width="1" fill="none" fill-rule="evenodd">
        <g id="Artboard" transform="translate(-1573.000000, -5054.000000)" fill="#404648" fill-rule="nonzero">
            <path d="M1591.32267,5080 L1589.38467,5075.444 L1578.43667,5075.444 L1576.49867,5080 L1573.71067,5080 L1583.43467,5057.186 L1584.42067,5057.186 L1594.14467,5080 L1591.32267,5080 Z M1588.39867,5073.064 L1583.91067,5062.048 L1579.42267,5073.064 L1588.39867,5073.064 Z M1604.54135,5056.506 C1602.50135,5056.506 1601.07335,5057.186 1601.07335,5059.668 L1601.07335,5063.442 L1605.22135,5063.442 L1605.22135,5065.788 L1601.07335,5065.788 L1601.07335,5080 L1598.45535,5080 L1598.45535,5065.788 L1596.07535,5065.788 L1596.07535,5063.442 L1598.45535,5063.442 L1598.45535,5059.498 C1598.45535,5055.724 1600.73335,5054.126 1603.92935,5054.126 C1604.74535,5054.126 1605.39135,5054.228 1606.00335,5054.398 L1606.00335,5056.608 C1605.45935,5056.54 1604.98335,5056.506 1604.54135,5056.506 Z M1614.29203,5077.994 C1614.93803,5077.994 1615.65203,5077.926 1616.50203,5077.79 L1616.50203,5080 C1615.65203,5080.204 1614.80203,5080.374 1613.74803,5080.374 C1610.48403,5080.374 1608.17203,5078.776 1608.17203,5075.002 L1608.17203,5065.788 L1605.38403,5065.788 L1605.38403,5063.442 L1608.17203,5063.442 L1608.17203,5058.92 L1610.79003,5058.92 L1610.79003,5063.442 L1615.95803,5063.442 L1615.95803,5065.788 L1610.79003,5065.788 L1610.79003,5074.832 C1610.79003,5077.314 1612.21803,5077.994 1614.29203,5077.994 Z M1634.85471,5070.548 C1634.85471,5071.432 1634.71871,5072.214 1634.65071,5072.52 L1621.59471,5072.52 C1621.93471,5075.818 1624.38271,5077.96 1627.64671,5077.96 C1629.72071,5077.96 1631.35271,5077.076 1632.71271,5075.716 L1634.24271,5077.484 C1632.57671,5079.252 1630.33271,5080.374 1627.61271,5080.374 C1622.61471,5080.374 1618.84071,5076.6 1618.84071,5071.738 C1618.84071,5066.91 1622.54671,5063.068 1627.30671,5063.068 C1631.55671,5063.068 1634.85471,5066.128 1634.85471,5070.548 Z M1627.23871,5065.448 C1624.45071,5065.448 1622.24071,5067.352 1621.69671,5070.208 L1632.16871,5070.208 C1632.13471,5067.148 1629.89071,5065.448 1627.23871,5065.448 Z M1646.98539,5063.306 C1647.52939,5063.306 1647.86939,5063.374 1648.20939,5063.442 L1648.20939,5065.754 L1647.22339,5065.754 C1644.53739,5065.754 1642.02139,5067.454 1642.02139,5070.616 L1642.02139,5080 L1639.40339,5080 L1639.40339,5063.442 L1641.85139,5063.442 L1641.85139,5065.822 C1643.07539,5064.19 1645.01339,5063.306 1646.98539,5063.306 Z M1675.97275,5070.548 C1675.97275,5071.432 1675.83675,5072.214 1675.76875,5072.52 L1662.71275,5072.52 C1663.05275,5075.818 1665.50075,5077.96 1668.76475,5077.96 C1670.83875,5077.96 1672.47075,5077.076 1673.83075,5075.716 L1675.36075,5077.484 C1673.69475,5079.252 1671.45075,5080.374 1668.73075,5080.374 C1663.73275,5080.374 1659.95875,5076.6 1659.95875,5071.738 C1659.95875,5066.91 1663.66475,5063.068 1668.42475,5063.068 C1672.67475,5063.068 1675.97275,5066.128 1675.97275,5070.548 Z M1668.35675,5065.448 C1665.56875,5065.448 1663.35875,5067.352 1662.81475,5070.208 L1673.28675,5070.208 C1673.25275,5067.148 1671.00875,5065.448 1668.35675,5065.448 Z M1686.47143,5063.068 C1690.24543,5063.068 1692.93143,5065.346 1692.93143,5069.8 L1692.93143,5080 L1690.48343,5080 L1690.48343,5077.858 C1689.29343,5079.456 1687.35543,5080.374 1684.90743,5080.374 C1681.57543,5080.374 1679.12743,5078.606 1679.12743,5075.716 C1679.12743,5072.928 1681.47343,5071.092 1685.07743,5071.092 L1690.31343,5071.092 L1690.31343,5069.664 C1690.31343,5066.876 1688.74943,5065.482 1686.30143,5065.482 C1684.22743,5065.482 1682.76543,5066.468 1681.47343,5068.134 L1679.73943,5066.706 C1681.30343,5064.19 1683.81943,5063.068 1686.47143,5063.068 Z M1685.24743,5078.198 C1687.96743,5078.198 1690.31343,5076.226 1690.31343,5073.642 L1690.31343,5073.234 L1685.38343,5073.234 C1683.07143,5073.234 1681.81343,5074.016 1681.81343,5075.58 C1681.81343,5077.348 1683.41143,5078.198 1685.24743,5078.198 Z M1705.91211,5063.068 C1708.90411,5063.068 1711.28411,5064.496 1712.74611,5066.672 L1710.87611,5068.168 C1709.65211,5066.536 1708.08811,5065.482 1705.94611,5065.482 C1702.47811,5065.482 1699.92811,5068.236 1699.92811,5071.704 C1699.92811,5075.206 1702.47811,5077.96 1705.94611,5077.96 C1708.05411,5077.96 1709.61811,5076.94 1710.84211,5075.308 L1712.71211,5076.77 C1711.25011,5078.946 1708.87011,5080.374 1705.91211,5080.374 C1701.08411,5080.374 1697.24211,5076.566 1697.24211,5071.704 C1697.24211,5066.876 1701.08411,5063.068 1705.91211,5063.068 Z M1724.70679,5063.068 C1728.58279,5063.068 1730.82679,5065.754 1730.82679,5069.596 L1730.82679,5080 L1728.20879,5080 L1728.20879,5069.936 C1728.20879,5067.318 1726.64479,5065.482 1724.09479,5065.482 C1721.54479,5065.482 1719.74279,5067.352 1719.74279,5069.936 L1719.74279,5080 L1717.12479,5080 L1717.12479,5054.5 L1719.74279,5054.5 L1719.74279,5065.312 C1720.83079,5063.918 1722.56479,5063.068 1724.70679,5063.068 Z M1752.30015,5056.506 C1750.26015,5056.506 1748.83215,5057.186 1748.83215,5059.668 L1748.83215,5063.442 L1752.98015,5063.442 L1752.98015,5065.788 L1748.83215,5065.788 L1748.83215,5080 L1746.21415,5080 L1746.21415,5065.788 L1743.83415,5065.788 L1743.83415,5063.442 L1746.21415,5063.442 L1746.21415,5059.498 C1746.21415,5055.724 1748.49215,5054.126 1751.68815,5054.126 C1752.50415,5054.126 1753.15015,5054.228 1753.76215,5054.398 L1753.76215,5056.608 C1753.21815,5056.54 1752.74215,5056.506 1752.30015,5056.506 Z M1770.89083,5070.548 C1770.89083,5071.432 1770.75483,5072.214 1770.68683,5072.52 L1757.63083,5072.52 C1757.97083,5075.818 1760.41883,5077.96 1763.68283,5077.96 C1765.75683,5077.96 1767.38883,5077.076 1768.74883,5075.716 L1770.27883,5077.484 C1768.61283,5079.252 1766.36883,5080.374 1763.64883,5080.374 C1758.65083,5080.374 1754.87683,5076.6 1754.87683,5071.738 C1754.87683,5066.91 1758.58283,5063.068 1763.34283,5063.068 C1767.59283,5063.068 1770.89083,5066.128 1770.89083,5070.548 Z M1763.27483,5065.448 C1760.48683,5065.448 1758.27683,5067.352 1757.73283,5070.208 L1768.20483,5070.208 C1768.17083,5067.148 1765.92683,5065.448 1763.27483,5065.448 Z M1781.38951,5063.068 C1785.16351,5063.068 1787.84951,5065.346 1787.84951,5069.8 L1787.84951,5080 L1785.40151,5080 L1785.40151,5077.858 C1784.21151,5079.456 1782.27351,5080.374 1779.82551,5080.374 C1776.49351,5080.374 1774.04551,5078.606 1774.04551,5075.716 C1774.04551,5072.928 1776.39151,5071.092 1779.99551,5071.092 L1785.23151,5071.092 L1785.23151,5069.664 C1785.23151,5066.876 1783.66751,5065.482 1781.21951,5065.482 C1779.14551,5065.482 1777.68351,5066.468 1776.39151,5068.134 L1774.65751,5066.706 C1776.22151,5064.19 1778.73751,5063.068 1781.38951,5063.068 Z M1780.16551,5078.198 C1782.88551,5078.198 1785.23151,5076.226 1785.23151,5073.642 L1785.23151,5073.234 L1780.30151,5073.234 C1777.98951,5073.234 1776.73151,5074.016 1776.73151,5075.58 C1776.73151,5077.348 1778.32951,5078.198 1780.16551,5078.198 Z M1800.18419,5077.994 C1800.83019,5077.994 1801.54419,5077.926 1802.39419,5077.79 L1802.39419,5080 C1801.54419,5080.204 1800.69419,5080.374 1799.64019,5080.374 C1796.37619,5080.374 1794.06419,5078.776 1794.06419,5075.002 L1794.06419,5065.788 L1791.27619,5065.788 L1791.27619,5063.442 L1794.06419,5063.442 L1794.06419,5058.92 L1796.68219,5058.92 L1796.68219,5063.442 L1801.85019,5063.442 L1801.85019,5065.788 L1796.68219,5065.788 L1796.68219,5074.832 C1796.68219,5077.314 1798.11019,5077.994 1800.18419,5077.994 Z M1819.76087,5063.442 L1819.76087,5073.404 C1819.76087,5077.654 1816.73487,5080.374 1812.92687,5080.374 C1809.05087,5080.374 1806.05887,5077.654 1806.05887,5073.404 L1806.05887,5063.442 L1808.64287,5063.442 L1808.64287,5073.574 C1808.64287,5076.294 1810.54687,5077.96 1812.92687,5077.96 C1815.23887,5077.96 1817.14287,5076.294 1817.14287,5073.574 L1817.14287,5063.442 L1819.76087,5063.442 Z M1832.84356,5063.306 C1833.38756,5063.306 1833.72756,5063.374 1834.06756,5063.442 L1834.06756,5065.754 L1833.08156,5065.754 C1830.39556,5065.754 1827.87956,5067.454 1827.87956,5070.616 L1827.87956,5080 L1825.26156,5080 L1825.26156,5063.442 L1827.70956,5063.442 L1827.70956,5065.822 C1828.93356,5064.19 1830.87156,5063.306 1832.84356,5063.306 Z M1852.01224,5070.548 C1852.01224,5071.432 1851.87624,5072.214 1851.80824,5072.52 L1838.75224,5072.52 C1839.09224,5075.818 1841.54024,5077.96 1844.80424,5077.96 C1846.87824,5077.96 1848.51024,5077.076 1849.87024,5075.716 L1851.40024,5077.484 C1849.73424,5079.252 1847.49024,5080.374 1844.77024,5080.374 C1839.77224,5080.374 1835.99824,5076.6 1835.99824,5071.738 C1835.99824,5066.91 1839.70424,5063.068 1844.46424,5063.068 C1848.71424,5063.068 1852.01224,5066.128 1852.01224,5070.548 Z M1844.39624,5065.448 C1841.60824,5065.448 1839.39824,5067.352 1838.85424,5070.208 L1849.32624,5070.208 C1849.29224,5067.148 1847.04824,5065.448 1844.39624,5065.448 Z M1887.3576,5063.442 L1890.1456,5063.442 L1883.1756,5080.374 L1882.2236,5080.374 L1876.5796,5067.862 L1870.9696,5080.374 L1870.0516,5080.374 L1863.0136,5063.442 L1865.8016,5063.442 L1870.5616,5075.682 L1876.1036,5063.068 L1877.0896,5063.068 L1882.6656,5075.614 L1887.3576,5063.442 Z M1899.18228,5063.068 C1902.95628,5063.068 1905.64228,5065.346 1905.64228,5069.8 L1905.64228,5080 L1903.19428,5080 L1903.19428,5077.858 C1902.00428,5079.456 1900.06628,5080.374 1897.61828,5080.374 C1894.28628,5080.374 1891.83828,5078.606 1891.83828,5075.716 C1891.83828,5072.928 1894.18428,5071.092 1897.78828,5071.092 L1903.02428,5071.092 L1903.02428,5069.664 C1903.02428,5066.876 1901.46028,5065.482 1899.01228,5065.482 C1896.93828,5065.482 1895.47628,5066.468 1894.18428,5068.134 L1892.45028,5066.706 C1894.01428,5064.19 1896.53028,5063.068 1899.18228,5063.068 Z M1897.95828,5078.198 C1900.67828,5078.198 1903.02428,5076.226 1903.02428,5073.642 L1903.02428,5073.234 L1898.09428,5073.234 C1895.78228,5073.234 1894.52428,5074.016 1894.52428,5075.58 C1894.52428,5077.348 1896.12228,5078.198 1897.95828,5078.198 Z M1916.14096,5063.068 C1918.52096,5063.068 1920.39096,5064.088 1921.68296,5065.686 L1920.08496,5067.318 C1918.99696,5066.196 1917.56896,5065.482 1916.00496,5065.482 C1914.44096,5065.482 1913.25096,5066.196 1913.25096,5067.556 C1913.25096,5068.678 1914.10096,5069.222 1915.93696,5069.97 L1917.46696,5070.616 C1920.45896,5071.874 1921.85296,5073.166 1921.85296,5075.512 C1921.85296,5078.742 1919.09896,5080.374 1916.03896,5080.374 C1913.11496,5080.374 1910.90496,5078.912 1909.57896,5077.144 L1911.24496,5075.41 C1912.60496,5076.838 1913.99896,5077.96 1916.00496,5077.96 C1917.73896,5077.96 1919.16696,5077.11 1919.16696,5075.614 C1919.16696,5074.186 1917.94296,5073.642 1916.27696,5072.962 L1914.67896,5072.282 C1912.16296,5071.228 1910.56496,5070.072 1910.56496,5067.692 C1910.56496,5064.7 1913.11496,5063.068 1916.14096,5063.068 Z M1943.49632,5063.068 C1946.48832,5063.068 1948.86832,5064.496 1950.33032,5066.672 L1948.46032,5068.168 C1947.23632,5066.536 1945.67232,5065.482 1943.53032,5065.482 C1940.06232,5065.482 1937.51232,5068.236 1937.51232,5071.704 C1937.51232,5075.206 1940.06232,5077.96 1943.53032,5077.96 C1945.63832,5077.96 1947.20232,5076.94 1948.42632,5075.308 L1950.29632,5076.77 C1948.83432,5078.946 1946.45432,5080.374 1943.49632,5080.374 C1938.66832,5080.374 1934.82632,5076.566 1934.82632,5071.704 C1934.82632,5066.876 1938.66832,5063.068 1943.49632,5063.068 Z M1961.849,5063.068 C1966.643,5063.068 1970.519,5066.842 1970.519,5071.704 C1970.519,5076.532 1966.643,5080.34 1961.815,5080.34 C1957.021,5080.306 1953.179,5076.566 1953.179,5071.704 C1953.179,5066.842 1956.987,5063.068 1961.849,5063.068 Z M1961.849,5065.482 C1958.381,5065.482 1955.831,5068.202 1955.865,5071.738 C1955.865,5075.24 1958.381,5077.926 1961.815,5077.926 C1965.249,5077.926 1967.833,5075.206 1967.833,5071.738 C1967.833,5068.168 1965.249,5065.482 1961.849,5065.482 Z M1993.22368,5063.068 C1997.09968,5063.068 1999.24168,5065.754 1999.24168,5069.596 L1999.24168,5080 L1996.62368,5080 L1996.62368,5069.936 C1996.62368,5067.318 1995.19568,5065.482 1992.71368,5065.482 C1990.19768,5065.482 1988.46368,5067.386 1988.46368,5069.698 L1988.46368,5080 L1985.84568,5080 L1985.84568,5069.936 C1985.84568,5067.318 1984.34968,5065.482 1981.90168,5065.482 C1979.38568,5065.482 1977.68568,5067.318 1977.68568,5069.936 L1977.68568,5080 L1975.06768,5080 L1975.06768,5063.442 L1977.51568,5063.442 L1977.51568,5065.176 C1978.67168,5063.85 1980.37168,5063.068 1982.44568,5063.068 C1984.92768,5063.068 1986.62768,5064.19 1987.54568,5065.924 C1988.70168,5064.258 1990.67368,5063.068 1993.22368,5063.068 Z M2013.44636,5063.068 C2018.20636,5063.068 2021.64036,5066.842 2021.64036,5071.704 C2021.64036,5076.6 2018.17236,5080.374 2013.44636,5080.374 C2010.99836,5080.374 2008.68636,5079.354 2007.36036,5077.586 L2007.36036,5086.12 L2004.74236,5086.12 L2004.74236,5063.442 L2007.19036,5063.442 L2007.19036,5066.094 C2008.48236,5064.19 2010.82836,5063.068 2013.44636,5063.068 Z M2013.07236,5077.96 C2016.43836,5077.96 2018.95436,5075.342 2018.95436,5071.738 C2018.95436,5068.134 2016.47236,5065.482 2013.07236,5065.482 C2010.21636,5065.482 2007.32636,5067.352 2007.32636,5071.704 C2007.32636,5076.056 2010.18236,5077.96 2013.07236,5077.96 Z M2028.80704,5054.5 L2028.80704,5080 L2026.18904,5080 L2026.18904,5054.5 L2028.80704,5054.5 Z M2049.33572,5070.548 C2049.33572,5071.432 2049.19972,5072.214 2049.13172,5072.52 L2036.07572,5072.52 C2036.41572,5075.818 2038.86372,5077.96 2042.12772,5077.96 C2044.20172,5077.96 2045.83372,5077.076 2047.19372,5075.716 L2048.72372,5077.484 C2047.05772,5079.252 2044.81372,5080.374 2042.09372,5080.374 C2037.09572,5080.374 2033.32172,5076.6 2033.32172,5071.738 C2033.32172,5066.91 2037.02772,5063.068 2041.78772,5063.068 C2046.03772,5063.068 2049.33572,5066.128 2049.33572,5070.548 Z M2041.71972,5065.448 C2038.93172,5065.448 2036.72172,5067.352 2036.17772,5070.208 L2046.64972,5070.208 C2046.61572,5067.148 2044.37172,5065.448 2041.71972,5065.448 Z M2060.7184,5077.994 C2061.3644,5077.994 2062.0784,5077.926 2062.9284,5077.79 L2062.9284,5080 C2062.0784,5080.204 2061.2284,5080.374 2060.1744,5080.374 C2056.9104,5080.374 2054.5984,5078.776 2054.5984,5075.002 L2054.5984,5065.788 L2051.8104,5065.788 L2051.8104,5063.442 L2054.5984,5063.442 L2054.5984,5058.92 L2057.2164,5058.92 L2057.2164,5063.442 L2062.3844,5063.442 L2062.3844,5065.788 L2057.2164,5065.788 L2057.2164,5074.832 C2057.2164,5077.314 2058.6444,5077.994 2060.7184,5077.994 Z M2081.28108,5070.548 C2081.28108,5071.432 2081.14508,5072.214 2081.07708,5072.52 L2068.02108,5072.52 C2068.36108,5075.818 2070.80908,5077.96 2074.07308,5077.96 C2076.14708,5077.96 2077.77908,5077.076 2079.13908,5075.716 L2080.66908,5077.484 C2079.00308,5079.252 2076.75908,5080.374 2074.03908,5080.374 C2069.04108,5080.374 2065.26708,5076.6 2065.26708,5071.738 C2065.26708,5066.91 2068.97308,5063.068 2073.73308,5063.068 C2077.98308,5063.068 2081.28108,5066.128 2081.28108,5070.548 Z M2073.66508,5065.448 C2070.87708,5065.448 2068.66708,5067.352 2068.12308,5070.208 L2078.59508,5070.208 C2078.56108,5067.148 2076.31708,5065.448 2073.66508,5065.448 Z M2098.95376,5054.5 L2101.57176,5054.5 L2101.57176,5080 L2099.08976,5080 L2099.08976,5077.348 C2097.79776,5079.252 2095.45176,5080.374 2092.83376,5080.374 C2088.10776,5080.374 2084.63976,5076.6 2084.63976,5071.738 C2084.63976,5066.842 2088.10776,5063.068 2092.83376,5063.068 C2095.34976,5063.068 2097.62776,5064.122 2098.95376,5065.89 L2098.95376,5054.5 Z M2093.20776,5077.96 C2096.06376,5077.96 2098.98776,5076.09 2098.98776,5071.738 C2098.98776,5067.386 2096.06376,5065.482 2093.20776,5065.482 C2089.84176,5065.482 2087.32576,5068.1 2087.32576,5071.704 C2087.32576,5075.308 2089.80776,5077.96 2093.20776,5077.96 Z M2110.81244,5076.94 L2109.41844,5086.086 L2107.27644,5086.086 L2107.71844,5076.94 L2110.81244,5076.94 Z M2134.59781,5063.068 C2139.35781,5063.068 2142.79181,5066.842 2142.79181,5071.704 C2142.79181,5076.6 2139.32381,5080.374 2134.59781,5080.374 C2132.14981,5080.374 2129.83781,5079.354 2128.51181,5077.586 L2128.51181,5086.12 L2125.89381,5086.12 L2125.89381,5063.442 L2128.34181,5063.442 L2128.34181,5066.094 C2129.63381,5064.19 2131.97981,5063.068 2134.59781,5063.068 Z M2134.22381,5077.96 C2137.58981,5077.96 2140.10581,5075.342 2140.10581,5071.738 C2140.10581,5068.134 2137.62381,5065.482 2134.22381,5065.482 C2131.36781,5065.482 2128.47781,5067.352 2128.47781,5071.704 C2128.47781,5076.056 2131.33381,5077.96 2134.22381,5077.96 Z M2153.29049,5063.068 C2157.06449,5063.068 2159.75049,5065.346 2159.75049,5069.8 L2159.75049,5080 L2157.30249,5080 L2157.30249,5077.858 C2156.11249,5079.456 2154.17449,5080.374 2151.72649,5080.374 C2148.39449,5080.374 2145.94649,5078.606 2145.94649,5075.716 C2145.94649,5072.928 2148.29249,5071.092 2151.89649,5071.092 L2157.13249,5071.092 L2157.13249,5069.664 C2157.13249,5066.876 2155.56849,5065.482 2153.12049,5065.482 C2151.04649,5065.482 2149.58449,5066.468 2148.29249,5068.134 L2146.55849,5066.706 C2148.12249,5064.19 2150.63849,5063.068 2153.29049,5063.068 Z M2152.06649,5078.198 C2154.78649,5078.198 2157.13249,5076.226 2157.13249,5073.642 L2157.13249,5073.234 L2152.20249,5073.234 C2149.89049,5073.234 2148.63249,5074.016 2148.63249,5075.58 C2148.63249,5077.348 2150.23049,5078.198 2152.06649,5078.198 Z M2172.83317,5063.306 C2173.37717,5063.306 2173.71717,5063.374 2174.05717,5063.442 L2174.05717,5065.754 L2173.07117,5065.754 C2170.38517,5065.754 2167.86917,5067.454 2167.86917,5070.616 L2167.86917,5080 L2165.25117,5080 L2165.25117,5063.442 L2167.69917,5063.442 L2167.69917,5065.822 C2168.92317,5064.19 2170.86117,5063.306 2172.83317,5063.306 Z M2184.35185,5077.994 C2184.99785,5077.994 2185.71185,5077.926 2186.56185,5077.79 L2186.56185,5080 C2185.71185,5080.204 2184.86185,5080.374 2183.80785,5080.374 C2180.54385,5080.374 2178.23185,5078.776 2178.23185,5075.002 L2178.23185,5065.788 L2175.44385,5065.788 L2175.44385,5063.442 L2178.23185,5063.442 L2178.23185,5058.92 L2180.84985,5058.92 L2180.84985,5063.442 L2186.01785,5063.442 L2186.01785,5065.788 L2180.84985,5065.788 L2180.84985,5074.832 C2180.84985,5077.314 2182.27785,5077.994 2184.35185,5077.994 Z M2207.38921,5063.068 C2212.18321,5063.068 2216.05921,5066.842 2216.05921,5071.704 C2216.05921,5076.532 2212.18321,5080.34 2207.35521,5080.34 C2202.56121,5080.306 2198.71921,5076.566 2198.71921,5071.704 C2198.71921,5066.842 2202.52721,5063.068 2207.38921,5063.068 Z M2207.38921,5065.482 C2203.92121,5065.482 2201.37121,5068.202 2201.40521,5071.738 C2201.40521,5075.24 2203.92121,5077.926 2207.35521,5077.926 C2210.78921,5077.926 2213.37321,5075.206 2213.37321,5071.738 C2213.37321,5068.168 2210.78921,5065.482 2207.38921,5065.482 Z M2227.10189,5056.506 C2225.06189,5056.506 2223.63389,5057.186 2223.63389,5059.668 L2223.63389,5063.442 L2227.78189,5063.442 L2227.78189,5065.788 L2223.63389,5065.788 L2223.63389,5080 L2221.01589,5080 L2221.01589,5065.788 L2218.63589,5065.788 L2218.63589,5063.442 L2221.01589,5063.442 L2221.01589,5059.498 C2221.01589,5055.724 2223.29389,5054.126 2226.48989,5054.126 C2227.30589,5054.126 2227.95189,5054.228 2228.56389,5054.398 L2228.56389,5056.608 C2228.01989,5056.54 2227.54389,5056.506 2227.10189,5056.506 Z M2257.48325,5063.068 C2261.35925,5063.068 2263.50125,5065.754 2263.50125,5069.596 L2263.50125,5080 L2260.88325,5080 L2260.88325,5069.936 C2260.88325,5067.318 2259.45525,5065.482 2256.97325,5065.482 C2254.45725,5065.482 2252.72325,5067.386 2252.72325,5069.698 L2252.72325,5080 L2250.10525,5080 L2250.10525,5069.936 C2250.10525,5067.318 2248.60925,5065.482 2246.16125,5065.482 C2243.64525,5065.482 2241.94525,5067.318 2241.94525,5069.936 L2241.94525,5080 L2239.32725,5080 L2239.32725,5063.442 L2241.77525,5063.442 L2241.77525,5065.176 C2242.93125,5063.85 2244.63125,5063.068 2246.70525,5063.068 C2249.18725,5063.068 2250.88725,5064.19 2251.80525,5065.924 C2252.96125,5064.258 2254.93325,5063.068 2257.48325,5063.068 Z M2280.76593,5063.442 L2283.55393,5063.442 L2275.39393,5082.312 C2274.10193,5085.27 2272.29993,5086.494 2269.78393,5086.494 C2268.96793,5086.494 2268.01593,5086.358 2267.23393,5086.154 L2267.23393,5083.944 C2268.01593,5084.046 2268.66193,5084.114 2269.23993,5084.114 C2270.83793,5084.114 2272.06193,5083.57 2272.97993,5081.462 L2273.86393,5079.456 L2266.99593,5063.442 L2269.81793,5063.442 L2275.29193,5076.634 L2280.76593,5063.442 Z M2298.09129,5055.214 C2299.14529,5055.214 2300.02929,5056.064 2300.02929,5057.118 C2300.02929,5058.206 2299.14529,5059.022 2298.09129,5059.022 C2296.96929,5059.022 2296.11929,5058.206 2296.11929,5057.118 C2296.11929,5056.064 2296.96929,5055.214 2298.09129,5055.214 Z M2299.38329,5063.442 L2299.38329,5081.122 C2299.38329,5084.896 2297.10529,5086.494 2293.94329,5086.494 C2293.09329,5086.494 2292.44729,5086.392 2291.83529,5086.222 L2291.83529,5084.012 C2292.41329,5084.08 2292.82129,5084.114 2293.36529,5084.114 C2295.37129,5084.114 2296.76529,5083.4 2296.76529,5080.952 L2296.76529,5063.442 L2299.38329,5063.442 Z M2312.56797,5063.068 C2317.36197,5063.068 2321.23797,5066.842 2321.23797,5071.704 C2321.23797,5076.532 2317.36197,5080.34 2312.53397,5080.34 C2307.73997,5080.306 2303.89797,5076.566 2303.89797,5071.704 C2303.89797,5066.842 2307.70597,5063.068 2312.56797,5063.068 Z M2312.56797,5065.482 C2309.09997,5065.482 2306.54997,5068.202 2306.58397,5071.738 C2306.58397,5075.24 2309.09997,5077.926 2312.53397,5077.926 C2315.96797,5077.926 2318.55197,5075.206 2318.55197,5071.738 C2318.55197,5068.168 2315.96797,5065.482 2312.56797,5065.482 Z M2334.49065,5063.068 C2339.21665,5063.068 2342.68465,5066.842 2342.68465,5071.738 C2342.68465,5076.6 2339.25065,5080.374 2334.52465,5080.374 C2331.94065,5080.374 2329.52665,5079.252 2328.23465,5077.348 L2328.23465,5080 L2325.78665,5080 L2325.78665,5054.5 L2328.40465,5054.5 L2328.40465,5065.89 C2329.69665,5064.156 2331.97465,5063.068 2334.49065,5063.068 Z M2334.11665,5077.96 C2337.51665,5077.96 2339.99865,5075.308 2339.99865,5071.704 C2339.99865,5068.1 2337.48265,5065.482 2334.11665,5065.482 C2331.22665,5065.482 2328.37065,5067.386 2328.37065,5071.738 C2328.37065,5076.09 2331.26065,5077.96 2334.11665,5077.96 Z M1611.20535,5101.442 L1613.99335,5101.442 L1607.02335,5118.374 L1606.07135,5118.374 L1600.42735,5105.862 L1594.81735,5118.374 L1593.89935,5118.374 L1586.86135,5101.442 L1589.64935,5101.442 L1594.40935,5113.682 L1599.95135,5101.068 L1600.93735,5101.068 L1606.51335,5113.614 L1611.20535,5101.442 Z M1623.03003,5101.068 C1626.80403,5101.068 1629.49003,5103.346 1629.49003,5107.8 L1629.49003,5118 L1627.04203,5118 L1627.04203,5115.858 C1625.85203,5117.456 1623.91403,5118.374 1621.46603,5118.374 C1618.13403,5118.374 1615.68603,5116.606 1615.68603,5113.716 C1615.68603,5110.928 1618.03203,5109.092 1621.63603,5109.092 L1626.87203,5109.092 L1626.87203,5107.664 C1626.87203,5104.876 1625.30803,5103.482 1622.86003,5103.482 C1620.78603,5103.482 1619.32403,5104.468 1618.03203,5106.134 L1616.29803,5104.706 C1617.86203,5102.19 1620.37803,5101.068 1623.03003,5101.068 Z M1621.80603,5116.198 C1624.52603,5116.198 1626.87203,5114.226 1626.87203,5111.642 L1626.87203,5111.234 L1621.94203,5111.234 C1619.63003,5111.234 1618.37203,5112.016 1618.37203,5113.58 C1618.37203,5115.348 1619.97003,5116.198 1621.80603,5116.198 Z M1639.98871,5101.068 C1642.36871,5101.068 1644.23871,5102.088 1645.53071,5103.686 L1643.93271,5105.318 C1642.84471,5104.196 1641.41671,5103.482 1639.85271,5103.482 C1638.28871,5103.482 1637.09871,5104.196 1637.09871,5105.556 C1637.09871,5106.678 1637.94871,5107.222 1639.78471,5107.97 L1641.31471,5108.616 C1644.30671,5109.874 1645.70071,5111.166 1645.70071,5113.512 C1645.70071,5116.742 1642.94671,5118.374 1639.88671,5118.374 C1636.96271,5118.374 1634.75271,5116.912 1633.42671,5115.144 L1635.09271,5113.41 C1636.45271,5114.838 1637.84671,5115.96 1639.85271,5115.96 C1641.58671,5115.96 1643.01471,5115.11 1643.01471,5113.614 C1643.01471,5112.186 1641.79071,5111.642 1640.12471,5110.962 L1638.52671,5110.282 C1636.01071,5109.228 1634.41271,5108.072 1634.41271,5105.692 C1634.41271,5102.7 1636.96271,5101.068 1639.98871,5101.068 Z M1666.69807,5115.994 C1667.34407,5115.994 1668.05807,5115.926 1668.90807,5115.79 L1668.90807,5118 C1668.05807,5118.204 1667.20807,5118.374 1666.15407,5118.374 C1662.89007,5118.374 1660.57807,5116.776 1660.57807,5113.002 L1660.57807,5103.788 L1657.79007,5103.788 L1657.79007,5101.442 L1660.57807,5101.442 L1660.57807,5096.92 L1663.19607,5096.92 L1663.19607,5101.442 L1668.36407,5101.442 L1668.36407,5103.788 L1663.19607,5103.788 L1663.19607,5112.832 C1663.19607,5115.314 1664.62407,5115.994 1666.69807,5115.994 Z M1679.91675,5101.068 C1684.71075,5101.068 1688.58675,5104.842 1688.58675,5109.704 C1688.58675,5114.532 1684.71075,5118.34 1679.88275,5118.34 C1675.08875,5118.306 1671.24675,5114.566 1671.24675,5109.704 C1671.24675,5104.842 1675.05475,5101.068 1679.91675,5101.068 Z M1679.91675,5103.482 C1676.44875,5103.482 1673.89875,5106.202 1673.93275,5109.738 C1673.93275,5113.24 1676.44875,5115.926 1679.88275,5115.926 C1683.31675,5115.926 1685.90075,5113.206 1685.90075,5109.738 C1685.90075,5106.168 1683.31675,5103.482 1679.91675,5103.482 Z M1710.09411,5101.068 C1713.08611,5101.068 1715.46611,5102.496 1716.92811,5104.672 L1715.05811,5106.168 C1713.83411,5104.536 1712.27011,5103.482 1710.12811,5103.482 C1706.66011,5103.482 1704.11011,5106.236 1704.11011,5109.704 C1704.11011,5113.206 1706.66011,5115.96 1710.12811,5115.96 C1712.23611,5115.96 1713.80011,5114.94 1715.02411,5113.308 L1716.89411,5114.77 C1715.43211,5116.946 1713.05211,5118.374 1710.09411,5118.374 C1705.26611,5118.374 1701.42411,5114.566 1701.42411,5109.704 C1701.42411,5104.876 1705.26611,5101.068 1710.09411,5101.068 Z M1728.88879,5101.306 C1729.43279,5101.306 1729.77279,5101.374 1730.11279,5101.442 L1730.11279,5103.754 L1729.12679,5103.754 C1726.44079,5103.754 1723.92479,5105.454 1723.92479,5108.616 L1723.92479,5118 L1721.30679,5118 L1721.30679,5101.442 L1723.75479,5101.442 L1723.75479,5103.822 C1724.97879,5102.19 1726.91679,5101.306 1728.88879,5101.306 Z M1748.05747,5108.548 C1748.05747,5109.432 1747.92147,5110.214 1747.85347,5110.52 L1734.79747,5110.52 C1735.13747,5113.818 1737.58547,5115.96 1740.84947,5115.96 C1742.92347,5115.96 1744.55547,5115.076 1745.91547,5113.716 L1747.44547,5115.484 C1745.77947,5117.252 1743.53547,5118.374 1740.81547,5118.374 C1735.81747,5118.374 1732.04347,5114.6 1732.04347,5109.738 C1732.04347,5104.91 1735.74947,5101.068 1740.50947,5101.068 C1744.75947,5101.068 1748.05747,5104.128 1748.05747,5108.548 Z M1740.44147,5103.448 C1737.65347,5103.448 1735.44347,5105.352 1734.89947,5108.208 L1745.37147,5108.208 C1745.33747,5105.148 1743.09347,5103.448 1740.44147,5103.448 Z M1758.55615,5101.068 C1762.33015,5101.068 1765.01615,5103.346 1765.01615,5107.8 L1765.01615,5118 L1762.56815,5118 L1762.56815,5115.858 C1761.37815,5117.456 1759.44015,5118.374 1756.99215,5118.374 C1753.66015,5118.374 1751.21215,5116.606 1751.21215,5113.716 C1751.21215,5110.928 1753.55815,5109.092 1757.16215,5109.092 L1762.39815,5109.092 L1762.39815,5107.664 C1762.39815,5104.876 1760.83415,5103.482 1758.38615,5103.482 C1756.31215,5103.482 1754.85015,5104.468 1753.55815,5106.134 L1751.82415,5104.706 C1753.38815,5102.19 1755.90415,5101.068 1758.55615,5101.068 Z M1757.33215,5116.198 C1760.05215,5116.198 1762.39815,5114.226 1762.39815,5111.642 L1762.39815,5111.234 L1757.46815,5111.234 C1755.15615,5111.234 1753.89815,5112.016 1753.89815,5113.58 C1753.89815,5115.348 1755.49615,5116.198 1757.33215,5116.198 Z M1777.35083,5115.994 C1777.99683,5115.994 1778.71083,5115.926 1779.56083,5115.79 L1779.56083,5118 C1778.71083,5118.204 1777.86083,5118.374 1776.80683,5118.374 C1773.54283,5118.374 1771.23083,5116.776 1771.23083,5113.002 L1771.23083,5103.788 L1768.44283,5103.788 L1768.44283,5101.442 L1771.23083,5101.442 L1771.23083,5096.92 L1773.84883,5096.92 L1773.84883,5101.442 L1779.01683,5101.442 L1779.01683,5103.788 L1773.84883,5103.788 L1773.84883,5112.832 C1773.84883,5115.314 1775.27683,5115.994 1777.35083,5115.994 Z M1797.91351,5108.548 C1797.91351,5109.432 1797.77751,5110.214 1797.70951,5110.52 L1784.65351,5110.52 C1784.99351,5113.818 1787.44151,5115.96 1790.70551,5115.96 C1792.77951,5115.96 1794.41151,5115.076 1795.77151,5113.716 L1797.30151,5115.484 C1795.63551,5117.252 1793.39151,5118.374 1790.67151,5118.374 C1785.67351,5118.374 1781.89951,5114.6 1781.89951,5109.738 C1781.89951,5104.91 1785.60551,5101.068 1790.36551,5101.068 C1794.61551,5101.068 1797.91351,5104.128 1797.91351,5108.548 Z M1790.29751,5103.448 C1787.50951,5103.448 1785.29951,5105.352 1784.75551,5108.208 L1795.22751,5108.208 C1795.19351,5105.148 1792.94951,5103.448 1790.29751,5103.448 Z M1820.64487,5101.068 C1825.40487,5101.068 1828.83887,5104.842 1828.83887,5109.704 C1828.83887,5114.6 1825.37087,5118.374 1820.64487,5118.374 C1818.19687,5118.374 1815.88487,5117.354 1814.55887,5115.586 L1814.55887,5124.12 L1811.94087,5124.12 L1811.94087,5101.442 L1814.38887,5101.442 L1814.38887,5104.094 C1815.68087,5102.19 1818.02687,5101.068 1820.64487,5101.068 Z M1820.27087,5115.96 C1823.63687,5115.96 1826.15287,5113.342 1826.15287,5109.738 C1826.15287,5106.134 1823.67087,5103.482 1820.27087,5103.482 C1817.41487,5103.482 1814.52487,5105.352 1814.52487,5109.704 C1814.52487,5114.056 1817.38087,5115.96 1820.27087,5115.96 Z M1840.96956,5101.306 C1841.51356,5101.306 1841.85356,5101.374 1842.19356,5101.442 L1842.19356,5103.754 L1841.20756,5103.754 C1838.52156,5103.754 1836.00556,5105.454 1836.00556,5108.616 L1836.00556,5118 L1833.38756,5118 L1833.38756,5101.442 L1835.83556,5101.442 L1835.83556,5103.822 C1837.05956,5102.19 1838.99756,5101.306 1840.96956,5101.306 Z M1852.79424,5101.068 C1857.58824,5101.068 1861.46424,5104.842 1861.46424,5109.704 C1861.46424,5114.532 1857.58824,5118.34 1852.76024,5118.34 C1847.96624,5118.306 1844.12424,5114.566 1844.12424,5109.704 C1844.12424,5104.842 1847.93224,5101.068 1852.79424,5101.068 Z M1852.79424,5103.482 C1849.32624,5103.482 1846.77624,5106.202 1846.81024,5109.738 C1846.81024,5113.24 1849.32624,5115.926 1852.76024,5115.926 C1856.19424,5115.926 1858.77824,5113.206 1858.77824,5109.738 C1858.77824,5106.168 1856.19424,5103.482 1852.79424,5103.482 Z M1872.84692,5115.994 C1873.49292,5115.994 1874.20692,5115.926 1875.05692,5115.79 L1875.05692,5118 C1874.20692,5118.204 1873.35692,5118.374 1872.30292,5118.374 C1869.03892,5118.374 1866.72692,5116.776 1866.72692,5113.002 L1866.72692,5103.788 L1863.93892,5103.788 L1863.93892,5101.442 L1866.72692,5101.442 L1866.72692,5096.92 L1869.34492,5096.92 L1869.34492,5101.442 L1874.51292,5101.442 L1874.51292,5103.788 L1869.34492,5103.788 L1869.34492,5112.832 C1869.34492,5115.314 1870.77292,5115.994 1872.84692,5115.994 Z M1886.0656,5101.068 C1890.8596,5101.068 1894.7356,5104.842 1894.7356,5109.704 C1894.7356,5114.532 1890.8596,5118.34 1886.0316,5118.34 C1881.2376,5118.306 1877.3956,5114.566 1877.3956,5109.704 C1877.3956,5104.842 1881.2036,5101.068 1886.0656,5101.068 Z M1886.0656,5103.482 C1882.5976,5103.482 1880.0476,5106.202 1880.0816,5109.738 C1880.0816,5113.24 1882.5976,5115.926 1886.0316,5115.926 C1889.4656,5115.926 1892.0496,5113.206 1892.0496,5109.738 C1892.0496,5106.168 1889.4656,5103.482 1886.0656,5103.482 Z M1906.11828,5115.994 C1906.76428,5115.994 1907.47828,5115.926 1908.32828,5115.79 L1908.32828,5118 C1907.47828,5118.204 1906.62828,5118.374 1905.57428,5118.374 C1902.31028,5118.374 1899.99828,5116.776 1899.99828,5113.002 L1899.99828,5103.788 L1897.21028,5103.788 L1897.21028,5101.442 L1899.99828,5101.442 L1899.99828,5096.92 L1902.61628,5096.92 L1902.61628,5101.442 L1907.78428,5101.442 L1907.78428,5103.788 L1902.61628,5103.788 L1902.61628,5112.832 C1902.61628,5115.314 1904.04428,5115.994 1906.11828,5115.994 Z M1923.96096,5101.442 L1926.74896,5101.442 L1918.58896,5120.312 C1917.29696,5123.27 1915.49496,5124.494 1912.97896,5124.494 C1912.16296,5124.494 1911.21096,5124.358 1910.42896,5124.154 L1910.42896,5121.944 C1911.21096,5122.046 1911.85696,5122.114 1912.43496,5122.114 C1914.03296,5122.114 1915.25696,5121.57 1916.17496,5119.462 L1917.05896,5117.456 L1910.19096,5101.442 L1913.01296,5101.442 L1918.48696,5114.634 L1923.96096,5101.442 Z M1939.18564,5101.068 C1943.94564,5101.068 1947.37964,5104.842 1947.37964,5109.704 C1947.37964,5114.6 1943.91164,5118.374 1939.18564,5118.374 C1936.73764,5118.374 1934.42564,5117.354 1933.09964,5115.586 L1933.09964,5124.12 L1930.48164,5124.12 L1930.48164,5101.442 L1932.92964,5101.442 L1932.92964,5104.094 C1934.22164,5102.19 1936.56764,5101.068 1939.18564,5101.068 Z M1938.81164,5115.96 C1942.17764,5115.96 1944.69364,5113.342 1944.69364,5109.738 C1944.69364,5106.134 1942.21164,5103.482 1938.81164,5103.482 C1935.95564,5103.482 1933.06564,5105.352 1933.06564,5109.704 C1933.06564,5114.056 1935.92164,5115.96 1938.81164,5115.96 Z M1966.75232,5108.548 C1966.75232,5109.432 1966.61632,5110.214 1966.54832,5110.52 L1953.49232,5110.52 C1953.83232,5113.818 1956.28032,5115.96 1959.54432,5115.96 C1961.61832,5115.96 1963.25032,5115.076 1964.61032,5113.716 L1966.14032,5115.484 C1964.47432,5117.252 1962.23032,5118.374 1959.51032,5118.374 C1954.51232,5118.374 1950.73832,5114.6 1950.73832,5109.738 C1950.73832,5104.91 1954.44432,5101.068 1959.20432,5101.068 C1963.45432,5101.068 1966.75232,5104.128 1966.75232,5108.548 Z M1959.13632,5103.448 C1956.34832,5103.448 1954.13832,5105.352 1953.59432,5108.208 L1964.06632,5108.208 C1964.03232,5105.148 1961.78832,5103.448 1959.13632,5103.448 Z M1976.299,5101.068 C1978.679,5101.068 1980.549,5102.088 1981.841,5103.686 L1980.243,5105.318 C1979.155,5104.196 1977.727,5103.482 1976.163,5103.482 C1974.599,5103.482 1973.409,5104.196 1973.409,5105.556 C1973.409,5106.678 1974.259,5107.222 1976.095,5107.97 L1977.625,5108.616 C1980.617,5109.874 1982.011,5111.166 1982.011,5113.512 C1982.011,5116.742 1979.257,5118.374 1976.197,5118.374 C1973.273,5118.374 1971.063,5116.912 1969.737,5115.144 L1971.403,5113.41 C1972.763,5114.838 1974.157,5115.96 1976.163,5115.96 C1977.897,5115.96 1979.325,5115.11 1979.325,5113.614 C1979.325,5112.186 1978.101,5111.642 1976.435,5110.962 L1974.837,5110.282 C1972.321,5109.228 1970.723,5108.072 1970.723,5105.692 C1970.723,5102.7 1973.273,5101.068 1976.299,5101.068 Z M2002.12436,5101.068 C2005.89836,5101.068 2008.58436,5103.346 2008.58436,5107.8 L2008.58436,5118 L2006.13636,5118 L2006.13636,5115.858 C2004.94636,5117.456 2003.00836,5118.374 2000.56036,5118.374 C1997.22836,5118.374 1994.78036,5116.606 1994.78036,5113.716 C1994.78036,5110.928 1997.12636,5109.092 2000.73036,5109.092 L2005.96636,5109.092 L2005.96636,5107.664 C2005.96636,5104.876 2004.40236,5103.482 2001.95436,5103.482 C1999.88036,5103.482 1998.41836,5104.468 1997.12636,5106.134 L1995.39236,5104.706 C1996.95636,5102.19 1999.47236,5101.068 2002.12436,5101.068 Z M2000.90036,5116.198 C2003.62036,5116.198 2005.96636,5114.226 2005.96636,5111.642 L2005.96636,5111.234 L2001.03636,5111.234 C1998.72436,5111.234 1997.46636,5112.016 1997.46636,5113.58 C1997.46636,5115.348 1999.06436,5116.198 2000.90036,5116.198 Z M2021.63304,5101.068 C2025.54304,5101.068 2027.78704,5103.754 2027.78704,5107.596 L2027.78704,5118 L2025.16904,5118 L2025.16904,5107.902 C2025.16904,5105.284 2023.60504,5103.482 2021.05504,5103.482 C2018.50504,5103.482 2016.70304,5105.318 2016.70304,5107.902 L2016.70304,5118 L2014.08504,5118 L2014.08504,5101.442 L2016.53304,5101.442 L2016.53304,5103.244 C2017.68904,5101.884 2019.49104,5101.068 2021.63304,5101.068 Z M2046.41172,5092.5 L2049.02972,5092.5 L2049.02972,5118 L2046.54772,5118 L2046.54772,5115.348 C2045.25572,5117.252 2042.90972,5118.374 2040.29172,5118.374 C2035.56572,5118.374 2032.09772,5114.6 2032.09772,5109.738 C2032.09772,5104.842 2035.56572,5101.068 2040.29172,5101.068 C2042.80772,5101.068 2045.08572,5102.122 2046.41172,5103.89 L2046.41172,5092.5 Z M2040.66572,5115.96 C2043.52172,5115.96 2046.44572,5114.09 2046.44572,5109.738 C2046.44572,5105.386 2043.52172,5103.482 2040.66572,5103.482 C2037.29972,5103.482 2034.78372,5106.1 2034.78372,5109.704 C2034.78372,5113.308 2037.26572,5115.96 2040.66572,5115.96 Z M2071.69308,5101.068 C2074.68508,5101.068 2077.06508,5102.496 2078.52708,5104.672 L2076.65708,5106.168 C2075.43308,5104.536 2073.86908,5103.482 2071.72708,5103.482 C2068.25908,5103.482 2065.70908,5106.236 2065.70908,5109.704 C2065.70908,5113.206 2068.25908,5115.96 2071.72708,5115.96 C2073.83508,5115.96 2075.39908,5114.94 2076.62308,5113.308 L2078.49308,5114.77 C2077.03108,5116.946 2074.65108,5118.374 2071.69308,5118.374 C2066.86508,5118.374 2063.02308,5114.566 2063.02308,5109.704 C2063.02308,5104.876 2066.86508,5101.068 2071.69308,5101.068 Z M2090.04576,5101.068 C2094.83976,5101.068 2098.71576,5104.842 2098.71576,5109.704 C2098.71576,5114.532 2094.83976,5118.34 2090.01176,5118.34 C2085.21776,5118.306 2081.37576,5114.566 2081.37576,5109.704 C2081.37576,5104.842 2085.18376,5101.068 2090.04576,5101.068 Z M2090.04576,5103.482 C2086.57776,5103.482 2084.02776,5106.202 2084.06176,5109.738 C2084.06176,5113.24 2086.57776,5115.926 2090.01176,5115.926 C2093.44576,5115.926 2096.02976,5113.206 2096.02976,5109.738 C2096.02976,5106.168 2093.44576,5103.482 2090.04576,5103.482 Z M2110.81244,5101.068 C2114.72244,5101.068 2116.96644,5103.754 2116.96644,5107.596 L2116.96644,5118 L2114.34844,5118 L2114.34844,5107.902 C2114.34844,5105.284 2112.78444,5103.482 2110.23444,5103.482 C2107.68444,5103.482 2105.88244,5105.318 2105.88244,5107.902 L2105.88244,5118 L2103.26444,5118 L2103.26444,5101.442 L2105.71244,5101.442 L2105.71244,5103.244 C2106.86844,5101.884 2108.67044,5101.068 2110.81244,5101.068 Z M2135.59113,5092.5 L2138.20913,5092.5 L2138.20913,5118 L2135.72713,5118 L2135.72713,5115.348 C2134.43513,5117.252 2132.08913,5118.374 2129.47113,5118.374 C2124.74513,5118.374 2121.27713,5114.6 2121.27713,5109.738 C2121.27713,5104.842 2124.74513,5101.068 2129.47113,5101.068 C2131.98713,5101.068 2134.26513,5102.122 2135.59113,5103.89 L2135.59113,5092.5 Z M2129.84513,5115.96 C2132.70113,5115.96 2135.62513,5114.09 2135.62513,5109.738 C2135.62513,5105.386 2132.70113,5103.482 2129.84513,5103.482 C2126.47913,5103.482 2123.96313,5106.1 2123.96313,5109.704 C2123.96313,5113.308 2126.44513,5115.96 2129.84513,5115.96 Z M2157.41181,5101.442 L2157.41181,5111.404 C2157.41181,5115.654 2154.38581,5118.374 2150.57781,5118.374 C2146.70181,5118.374 2143.70981,5115.654 2143.70981,5111.404 L2143.70981,5101.442 L2146.29381,5101.442 L2146.29381,5111.574 C2146.29381,5114.294 2148.19781,5115.96 2150.57781,5115.96 C2152.88981,5115.96 2154.79381,5114.294 2154.79381,5111.574 L2154.79381,5101.442 L2157.41181,5101.442 Z M2170.39249,5101.068 C2173.38449,5101.068 2175.76449,5102.496 2177.22649,5104.672 L2175.35649,5106.168 C2174.13249,5104.536 2172.56849,5103.482 2170.42649,5103.482 C2166.95849,5103.482 2164.40849,5106.236 2164.40849,5109.704 C2164.40849,5113.206 2166.95849,5115.96 2170.42649,5115.96 C2172.53449,5115.96 2174.09849,5114.94 2175.32249,5113.308 L2177.19249,5114.77 C2175.73049,5116.946 2173.35049,5118.374 2170.39249,5118.374 C2165.56449,5118.374 2161.72249,5114.566 2161.72249,5109.704 C2161.72249,5104.876 2165.56449,5101.068 2170.39249,5101.068 Z M2188.43917,5115.994 C2189.08517,5115.994 2189.79917,5115.926 2190.64917,5115.79 L2190.64917,5118 C2189.79917,5118.204 2188.94917,5118.374 2187.89517,5118.374 C2184.63117,5118.374 2182.31917,5116.776 2182.31917,5113.002 L2182.31917,5103.788 L2179.53117,5103.788 L2179.53117,5101.442 L2182.31917,5101.442 L2182.31917,5096.92 L2184.93717,5096.92 L2184.93717,5101.442 L2190.10517,5101.442 L2190.10517,5103.788 L2184.93717,5103.788 L2184.93717,5112.832 C2184.93717,5115.314 2186.36517,5115.994 2188.43917,5115.994 Z M2217.49453,5101.442 L2217.49453,5111.404 C2217.49453,5115.654 2214.46853,5118.374 2210.66053,5118.374 C2206.78453,5118.374 2203.79253,5115.654 2203.79253,5111.404 L2203.79253,5101.442 L2206.37653,5101.442 L2206.37653,5111.574 C2206.37653,5114.294 2208.28053,5115.96 2210.66053,5115.96 C2212.97253,5115.96 2214.87653,5114.294 2214.87653,5111.574 L2214.87653,5101.442 L2217.49453,5101.442 Z M2227.99321,5101.068 C2230.37321,5101.068 2232.24321,5102.088 2233.53521,5103.686 L2231.93721,5105.318 C2230.84921,5104.196 2229.42121,5103.482 2227.85721,5103.482 C2226.29321,5103.482 2225.10321,5104.196 2225.10321,5105.556 C2225.10321,5106.678 2225.95321,5107.222 2227.78921,5107.97 L2229.31921,5108.616 C2232.31121,5109.874 2233.70521,5111.166 2233.70521,5113.512 C2233.70521,5116.742 2230.95121,5118.374 2227.89121,5118.374 C2224.96721,5118.374 2222.75721,5116.912 2221.43121,5115.144 L2223.09721,5113.41 C2224.45721,5114.838 2225.85121,5115.96 2227.85721,5115.96 C2229.59121,5115.96 2231.01921,5115.11 2231.01921,5113.614 C2231.01921,5112.186 2229.79521,5111.642 2228.12921,5110.962 L2226.53121,5110.282 C2224.01521,5109.228 2222.41721,5108.072 2222.41721,5105.692 C2222.41721,5102.7 2224.96721,5101.068 2227.99321,5101.068 Z M2244.33989,5101.068 C2248.11389,5101.068 2250.79989,5103.346 2250.79989,5107.8 L2250.79989,5118 L2248.35189,5118 L2248.35189,5115.858 C2247.16189,5117.456 2245.22389,5118.374 2242.77589,5118.374 C2239.44389,5118.374 2236.99589,5116.606 2236.99589,5113.716 C2236.99589,5110.928 2239.34189,5109.092 2242.94589,5109.092 L2248.18189,5109.092 L2248.18189,5107.664 C2248.18189,5104.876 2246.61789,5103.482 2244.16989,5103.482 C2242.09589,5103.482 2240.63389,5104.468 2239.34189,5106.134 L2237.60789,5104.706 C2239.17189,5102.19 2241.68789,5101.068 2244.33989,5101.068 Z M2243.11589,5116.198 C2245.83589,5116.198 2248.18189,5114.226 2248.18189,5111.642 L2248.18189,5111.234 L2243.25189,5111.234 C2240.93989,5111.234 2239.68189,5112.016 2239.68189,5113.58 C2239.68189,5115.348 2241.27989,5116.198 2243.11589,5116.198 Z M2265.00457,5101.068 C2269.73057,5101.068 2273.19857,5104.842 2273.19857,5109.738 C2273.19857,5114.6 2269.76457,5118.374 2265.03857,5118.374 C2262.45457,5118.374 2260.04057,5117.252 2258.74857,5115.348 L2258.74857,5118 L2256.30057,5118 L2256.30057,5092.5 L2258.91857,5092.5 L2258.91857,5103.89 C2260.21057,5102.156 2262.48857,5101.068 2265.00457,5101.068 Z M2264.63057,5115.96 C2268.03057,5115.96 2270.51257,5113.308 2270.51257,5109.704 C2270.51257,5106.1 2267.99657,5103.482 2264.63057,5103.482 C2261.74057,5103.482 2258.88457,5105.386 2258.88457,5109.738 C2258.88457,5114.09 2261.77457,5115.96 2264.63057,5115.96 Z M2279.07325,5093.214 C2280.12725,5093.214 2281.01125,5094.064 2281.01125,5095.118 C2281.01125,5096.206 2280.12725,5097.022 2279.07325,5097.022 C2277.95125,5097.022 2277.10125,5096.206 2277.10125,5095.118 C2277.10125,5094.064 2277.95125,5093.214 2279.07325,5093.214 Z M2280.36525,5101.442 L2280.36525,5118 L2277.74725,5118 L2277.74725,5101.442 L2280.36525,5101.442 Z M2288.68793,5092.5 L2288.68793,5118 L2286.06993,5118 L2286.06993,5092.5 L2288.68793,5092.5 Z M2295.71861,5093.214 C2296.77261,5093.214 2297.65661,5094.064 2297.65661,5095.118 C2297.65661,5096.206 2296.77261,5097.022 2295.71861,5097.022 C2294.59661,5097.022 2293.74661,5096.206 2293.74661,5095.118 C2293.74661,5094.064 2294.59661,5093.214 2295.71861,5093.214 Z M2297.01061,5101.442 L2297.01061,5118 L2294.39261,5118 L2294.39261,5101.442 L2297.01061,5101.442 Z M2309.54929,5115.994 C2310.19529,5115.994 2310.90929,5115.926 2311.75929,5115.79 L2311.75929,5118 C2310.90929,5118.204 2310.05929,5118.374 2309.00529,5118.374 C2305.74129,5118.374 2303.42929,5116.776 2303.42929,5113.002 L2303.42929,5103.788 L2300.64129,5103.788 L2300.64129,5101.442 L2303.42929,5101.442 L2303.42929,5096.92 L2306.04729,5096.92 L2306.04729,5101.442 L2311.21529,5101.442 L2311.21529,5103.788 L2306.04729,5103.788 L2306.04729,5112.832 C2306.04729,5115.314 2307.47529,5115.994 2309.54929,5115.994 Z M2327.39197,5101.442 L2330.17997,5101.442 L2322.01997,5120.312 C2320.72797,5123.27 2318.92597,5124.494 2316.40997,5124.494 C2315.59397,5124.494 2314.64197,5124.358 2313.85997,5124.154 L2313.85997,5121.944 C2314.64197,5122.046 2315.28797,5122.114 2315.86597,5122.114 C2317.46397,5122.114 2318.68797,5121.57 2319.60597,5119.462 L2320.48997,5117.456 L2313.62197,5101.442 L2316.44397,5101.442 L2321.91797,5114.634 L2327.39197,5101.442 Z M1821.68187,5139.068 C1824.06187,5139.068 1825.93187,5140.088 1827.22387,5141.686 L1825.62587,5143.318 C1824.53787,5142.196 1823.10987,5141.482 1821.54587,5141.482 C1819.98187,5141.482 1818.79187,5142.196 1818.79187,5143.556 C1818.79187,5144.678 1819.64187,5145.222 1821.47787,5145.97 L1823.00787,5146.616 C1825.99987,5147.874 1827.39387,5149.166 1827.39387,5151.512 C1827.39387,5154.742 1824.63987,5156.374 1821.57987,5156.374 C1818.65587,5156.374 1816.44587,5154.912 1815.11987,5153.144 L1816.78587,5151.41 C1818.14587,5152.838 1819.53987,5153.96 1821.54587,5153.96 C1823.27987,5153.96 1824.70787,5153.11 1824.70787,5151.614 C1824.70787,5150.186 1823.48387,5149.642 1821.81787,5148.962 L1820.21987,5148.282 C1817.70387,5147.228 1816.10587,5146.072 1816.10587,5143.692 C1816.10587,5140.7 1818.65587,5139.068 1821.68187,5139.068 Z M1838.91256,5153.994 C1839.55856,5153.994 1840.27256,5153.926 1841.12256,5153.79 L1841.12256,5156 C1840.27256,5156.204 1839.42256,5156.374 1838.36856,5156.374 C1835.10456,5156.374 1832.79256,5154.776 1832.79256,5151.002 L1832.79256,5141.788 L1830.00456,5141.788 L1830.00456,5139.442 L1832.79256,5139.442 L1832.79256,5134.92 L1835.41056,5134.92 L1835.41056,5139.442 L1840.57856,5139.442 L1840.57856,5141.788 L1835.41056,5141.788 L1835.41056,5150.832 C1835.41056,5153.314 1836.83856,5153.994 1838.91256,5153.994 Z M1858.48924,5139.442 L1858.48924,5149.404 C1858.48924,5153.654 1855.46324,5156.374 1851.65524,5156.374 C1847.77924,5156.374 1844.78724,5153.654 1844.78724,5149.404 L1844.78724,5139.442 L1847.37124,5139.442 L1847.37124,5149.574 C1847.37124,5152.294 1849.27524,5153.96 1851.65524,5153.96 C1853.96724,5153.96 1855.87124,5152.294 1855.87124,5149.574 L1855.87124,5139.442 L1858.48924,5139.442 Z M1877.11392,5130.5 L1879.73192,5130.5 L1879.73192,5156 L1877.24992,5156 L1877.24992,5153.348 C1875.95792,5155.252 1873.61192,5156.374 1870.99392,5156.374 C1866.26792,5156.374 1862.79992,5152.6 1862.79992,5147.738 C1862.79992,5142.842 1866.26792,5139.068 1870.99392,5139.068 C1873.50992,5139.068 1875.78792,5140.122 1877.11392,5141.89 L1877.11392,5130.5 Z M1871.36792,5153.96 C1874.22392,5153.96 1877.14792,5152.09 1877.14792,5147.738 C1877.14792,5143.386 1874.22392,5141.482 1871.36792,5141.482 C1868.00192,5141.482 1865.48592,5144.1 1865.48592,5147.704 C1865.48592,5151.308 1867.96792,5153.96 1871.36792,5153.96 Z M1886.7626,5131.214 C1887.8166,5131.214 1888.7006,5132.064 1888.7006,5133.118 C1888.7006,5134.206 1887.8166,5135.022 1886.7626,5135.022 C1885.6406,5135.022 1884.7906,5134.206 1884.7906,5133.118 C1884.7906,5132.064 1885.6406,5131.214 1886.7626,5131.214 Z M1888.0546,5139.442 L1888.0546,5156 L1885.4366,5156 L1885.4366,5139.442 L1888.0546,5139.442 Z M1908.58328,5146.548 C1908.58328,5147.432 1908.44728,5148.214 1908.37928,5148.52 L1895.32328,5148.52 C1895.66328,5151.818 1898.11128,5153.96 1901.37528,5153.96 C1903.44928,5153.96 1905.08128,5153.076 1906.44128,5151.716 L1907.97128,5153.484 C1906.30528,5155.252 1904.06128,5156.374 1901.34128,5156.374 C1896.34328,5156.374 1892.56928,5152.6 1892.56928,5147.738 C1892.56928,5142.91 1896.27528,5139.068 1901.03528,5139.068 C1905.28528,5139.068 1908.58328,5142.128 1908.58328,5146.548 Z M1900.96728,5141.448 C1898.17928,5141.448 1895.96928,5143.352 1895.42528,5146.208 L1905.89728,5146.208 C1905.86328,5143.148 1903.61928,5141.448 1900.96728,5141.448 Z M1918.12996,5139.068 C1920.50996,5139.068 1922.37996,5140.088 1923.67196,5141.686 L1922.07396,5143.318 C1920.98596,5142.196 1919.55796,5141.482 1917.99396,5141.482 C1916.42996,5141.482 1915.23996,5142.196 1915.23996,5143.556 C1915.23996,5144.678 1916.08996,5145.222 1917.92596,5145.97 L1919.45596,5146.616 C1922.44796,5147.874 1923.84196,5149.166 1923.84196,5151.512 C1923.84196,5154.742 1921.08796,5156.374 1918.02796,5156.374 C1915.10396,5156.374 1912.89396,5154.912 1911.56796,5153.144 L1913.23396,5151.41 C1914.59396,5152.838 1915.98796,5153.96 1917.99396,5153.96 C1919.72796,5153.96 1921.15596,5153.11 1921.15596,5151.614 C1921.15596,5150.186 1919.93196,5149.642 1918.26596,5148.962 L1916.66796,5148.282 C1914.15196,5147.228 1912.55396,5146.072 1912.55396,5143.692 C1912.55396,5140.7 1915.10396,5139.068 1918.12996,5139.068 Z M1959.32332,5139.442 L1962.11132,5139.442 L1955.14132,5156.374 L1954.18932,5156.374 L1948.54532,5143.862 L1942.93532,5156.374 L1942.01732,5156.374 L1934.97932,5139.442 L1937.76732,5139.442 L1942.52732,5151.682 L1948.06932,5139.068 L1949.05532,5139.068 L1954.63132,5151.614 L1959.32332,5139.442 Z M1967.204,5131.214 C1968.258,5131.214 1969.142,5132.064 1969.142,5133.118 C1969.142,5134.206 1968.258,5135.022 1967.204,5135.022 C1966.082,5135.022 1965.232,5134.206 1965.232,5133.118 C1965.232,5132.064 1966.082,5131.214 1967.204,5131.214 Z M1968.496,5139.442 L1968.496,5156 L1965.878,5156 L1965.878,5139.442 L1968.496,5139.442 Z M1981.03468,5153.994 C1981.68068,5153.994 1982.39468,5153.926 1983.24468,5153.79 L1983.24468,5156 C1982.39468,5156.204 1981.54468,5156.374 1980.49068,5156.374 C1977.22668,5156.374 1974.91468,5154.776 1974.91468,5151.002 L1974.91468,5141.788 L1972.12668,5141.788 L1972.12668,5139.442 L1974.91468,5139.442 L1974.91468,5134.92 L1977.53268,5134.92 L1977.53268,5139.442 L1982.70068,5139.442 L1982.70068,5141.788 L1977.53268,5141.788 L1977.53268,5150.832 C1977.53268,5153.314 1978.96068,5153.994 1981.03468,5153.994 Z M1994.69536,5139.068 C1998.57136,5139.068 2000.81536,5141.754 2000.81536,5145.596 L2000.81536,5156 L1998.19736,5156 L1998.19736,5145.936 C1998.19736,5143.318 1996.63336,5141.482 1994.08336,5141.482 C1991.53336,5141.482 1989.73136,5143.352 1989.73136,5145.936 L1989.73136,5156 L1987.11336,5156 L1987.11336,5130.5 L1989.73136,5130.5 L1989.73136,5141.312 C1990.81936,5139.918 1992.55336,5139.068 1994.69536,5139.068 Z M2022.62872,5153.994 C2023.27472,5153.994 2023.98872,5153.926 2024.83872,5153.79 L2024.83872,5156 C2023.98872,5156.204 2023.13872,5156.374 2022.08472,5156.374 C2018.82072,5156.374 2016.50872,5154.776 2016.50872,5151.002 L2016.50872,5141.788 L2013.72072,5141.788 L2013.72072,5139.442 L2016.50872,5139.442 L2016.50872,5134.92 L2019.12672,5134.92 L2019.12672,5139.442 L2024.29472,5139.442 L2024.29472,5141.788 L2019.12672,5141.788 L2019.12672,5150.832 C2019.12672,5153.314 2020.55472,5153.994 2022.62872,5153.994 Z M2036.2894,5139.068 C2040.1654,5139.068 2042.4094,5141.754 2042.4094,5145.596 L2042.4094,5156 L2039.7914,5156 L2039.7914,5145.936 C2039.7914,5143.318 2038.2274,5141.482 2035.6774,5141.482 C2033.1274,5141.482 2031.3254,5143.352 2031.3254,5145.936 L2031.3254,5156 L2028.7074,5156 L2028.7074,5130.5 L2031.3254,5130.5 L2031.3254,5141.312 C2032.4134,5139.918 2034.1474,5139.068 2036.2894,5139.068 Z M2062.73408,5146.548 C2062.73408,5147.432 2062.59808,5148.214 2062.53008,5148.52 L2049.47408,5148.52 C2049.81408,5151.818 2052.26208,5153.96 2055.52608,5153.96 C2057.60008,5153.96 2059.23208,5153.076 2060.59208,5151.716 L2062.12208,5153.484 C2060.45608,5155.252 2058.21208,5156.374 2055.49208,5156.374 C2050.49408,5156.374 2046.72008,5152.6 2046.72008,5147.738 C2046.72008,5142.91 2050.42608,5139.068 2055.18608,5139.068 C2059.43608,5139.068 2062.73408,5142.128 2062.73408,5146.548 Z M2055.11808,5141.448 C2052.33008,5141.448 2050.12008,5143.352 2049.57608,5146.208 L2060.04808,5146.208 C2060.01408,5143.148 2057.77008,5141.448 2055.11808,5141.448 Z M2085.43876,5139.068 C2089.31476,5139.068 2091.45676,5141.754 2091.45676,5145.596 L2091.45676,5156 L2088.83876,5156 L2088.83876,5145.936 C2088.83876,5143.318 2087.41076,5141.482 2084.92876,5141.482 C2082.41276,5141.482 2080.67876,5143.386 2080.67876,5145.698 L2080.67876,5156 L2078.06076,5156 L2078.06076,5145.936 C2078.06076,5143.318 2076.56476,5141.482 2074.11676,5141.482 C2071.60076,5141.482 2069.90076,5143.318 2069.90076,5145.936 L2069.90076,5156 L2067.28276,5156 L2067.28276,5139.442 L2069.73076,5139.442 L2069.73076,5141.176 C2070.88676,5139.85 2072.58676,5139.068 2074.66076,5139.068 C2077.14276,5139.068 2078.84276,5140.19 2079.76076,5141.924 C2080.91676,5140.258 2082.88876,5139.068 2085.43876,5139.068 Z M2098.65744,5152.09 C2099.81344,5152.09 2100.79944,5152.974 2100.79944,5154.232 C2100.79944,5155.49 2099.81344,5156.374 2098.65744,5156.374 C2097.50144,5156.374 2096.51544,5155.49 2096.51544,5154.232 C2096.51544,5152.974 2097.50144,5152.09 2098.65744,5152.09 Z" id="spare5"></path>
        </g>
    </g>
</svg>