<?xml version="1.0" encoding="UTF-8"?>
<svg width="47px" height="11px" viewBox="0 0 47 11" version="1.1" xmlns="http://www.w3.org/2000/svg" xmlns:xlink="http://www.w3.org/1999/xlink">
    <!-- Generator: Sketch 51.2 (57519) - http://www.bohemiancoding.com/sketch -->
    <title>WorkActive</title>
    <desc>Created with Sketch.</desc>
    <defs>
        <linearGradient x1="74.000038%" y1="27.6221471%" x2="-16.1444198%" y2="123.99548%" id="linearGradient-1">
            <stop stop-color="#FA8561" offset="0%"></stop>
            <stop stop-color="#D31CF7" offset="100%"></stop>
        </linearGradient>
    </defs>
    <g id="Page-1" stroke="none" stroke-width="1" fill="none" fill-rule="evenodd">
        <g id="Desktop-HD-Copy-13" transform="translate(-523.000000, -108.000000)" fill="url(#linearGradient-1)">
            <path d="M536.36,108.193197 L538.76,108.193197 L534.536,118.945197 L533.832,118.945197 L530.888,112.321197 L527.928,118.945197 L527.224,118.945197 L523,108.193197 L525.4,108.193197 L527.752,114.433197 L530.52,108.001197 L531.24,108.001197 L534.008,114.401197 L536.36,108.193197 Z M538.598,113.473197 C538.55,110.449197 541.158,107.937197 544.198,108.001197 C547.238,107.937197 549.878,110.449197 549.83,113.473197 C549.878,116.497197 547.238,119.009197 544.198,118.945197 C541.158,119.009197 538.55,116.497197 538.598,113.473197 Z M547.606,113.473197 C547.606,111.473197 546.15,110.001197 544.214,110.001197 C542.262,110.001197 540.822,111.441197 540.822,113.473197 C540.822,115.505197 542.262,116.945197 544.214,116.945197 C546.15,116.945197 547.606,115.505197 547.606,113.473197 Z M559.716,118.753197 L557.284,118.753197 L554.548,115.025197 L552.964,115.025197 L552.964,118.753197 L550.804,118.753197 L550.804,108.193197 L554.772,108.193197 C556.98,108.193197 558.58,109.569197 558.58,111.601197 C558.58,112.945197 557.876,114.033197 556.724,114.609197 L559.716,118.753197 Z M552.964,110.097197 L552.964,113.121197 L554.772,113.121197 C555.78,113.121197 556.372,112.513197 556.372,111.601197 C556.372,110.705197 555.748,110.097197 554.772,110.097197 L552.964,110.097197 Z M569.49,118.753197 L566.882,118.753197 L562.354,113.249197 L562.354,118.753197 L560.194,118.753197 L560.194,108.193197 L562.354,108.193197 L562.354,113.089197 L566.386,108.193197 L568.962,108.193197 L564.914,113.169197 L569.49,118.753197 Z" id="WorkActive"></path>
        </g>
    </g>
</svg>