<?xml version="1.0" encoding="UTF-8"?>
<svg width="173px" height="53px" viewBox="0 0 173 53" version="1.1" xmlns="http://www.w3.org/2000/svg" xmlns:xlink="http://www.w3.org/1999/xlink">
    <!-- Generator: Sketch 53.2 (72643) - https://sketchapp.com -->
    <title>Work</title>
    <desc>Created with Sketch.</desc>
    <defs>
        <linearGradient x1="74.000038%" y1="47.9160309%" x2="-16.1444198%" y2="56.8909334%" id="linearGradient-1">
            <stop stop-color="#FA8561" offset="0%"></stop>
            <stop stop-color="#D31CF7" offset="100%"></stop>
        </linearGradient>
    </defs>
    <g id="Page-1" stroke="none" stroke-width="1" fill="none" fill-rule="evenodd">
        <g id="Desktop-HD-Copy-37" transform="translate(-634.000000, -469.000000)" fill="url(#linearGradient-1)" fill-rule="nonzero">
            <path d="M692.1585,475.46 L702.5085,475.46 L684.2925,521.828 L681.2565,521.828 L668.5605,493.331 L655.7955,521.828 L652.7595,521.828 L634.5435,475.46 L644.8935,475.46 L655.0365,502.301 L666.9735,474.632 L670.0785,474.632 L682.0155,502.301 L692.1585,475.46 Z M720.7935,486.086 C730.8675,486.086 739.1475,493.814 739.1475,503.888 C739.1475,514.031 730.8675,521.759 720.7245,521.759 C710.5815,521.759 702.5085,514.031 702.5085,503.888 C702.5085,493.814 710.5815,486.086 720.7935,486.086 Z M720.7935,494.573 C715.6185,494.573 711.9615,498.575 711.9615,503.957 C711.9615,509.339 715.6185,513.203 720.7935,513.203 C725.8305,513.203 729.6255,509.27 729.6255,503.957 C729.6255,498.575 725.8305,494.573 720.7935,494.573 Z M764.3325,486.431 C765.5745,486.431 766.4715,486.569 767.3685,486.845 L767.3685,495.056 L764.8845,495.056 C759.5025,495.056 755.7075,497.816 755.7075,503.957 L755.7075,521 L746.3925,521 L746.3925,486.845 L754.9485,486.845 L754.9485,490.985 C757.2255,488.018 760.6065,486.431 764.3325,486.431 Z M806.8365,521 L796.2105,521 L782.4795,502.163 L782.4795,521 L773.1645,521 L773.1645,469.25 L782.4795,469.25 L782.4795,501.473 L794.7615,486.845 L805.8015,486.845 L792.9675,501.956 L806.8365,521 Z" id="Work"></path>
        </g>
    </g>
</svg>