<?xml version="1.0" encoding="UTF-8"?>
<svg width="305px" height="1022px" viewBox="0 0 305 1022" version="1.1" xmlns="http://www.w3.org/2000/svg" xmlns:xlink="http://www.w3.org/1999/xlink">
    <!-- Generator: Sketch 53.2 (72643) - https://sketchapp.com -->
    <title>Work</title>
    <desc>Created with Sketch.</desc>
    <g id="Page-1" stroke="none" stroke-width="1" fill="none" fill-rule="evenodd">
        <g id="Desktop-HD-Copy-15" fill="#111111" fill-rule="nonzero">
            <path d="M-20.8274112,390.447368 L41,390.447368 L-67.8162437,667.5 L-85.9522843,667.5 L-161.793909,497.22807 L-238.047716,667.5 L-256.183756,667.5 L-365,390.447368 L-303.172589,390.447368 L-242.581726,550.824561 L-171.274112,385.5 L-152.725888,385.5 L-81.4182741,550.824561 L-20.8274112,390.447368 Z M148.293785,455.5 C208.508475,455.5 258,501.643133 258,561.794004 C258,622.356867 208.508475,668.5 147.881356,668.5 C87.2542373,668.5 39,622.356867 39,561.794004 C39,501.643133 87.2542373,455.5 148.293785,455.5 Z M149.5,505.5 C118.738281,505.5 97,529.344444 97,561.411111 C97,593.477778 118.738281,616.5 149.5,616.5 C179.441406,616.5 202,593.066667 202,561.411111 C202,529.344444 179.441406,505.5 149.5,505.5 Z M408.407895,457 C415.809211,457 421.154605,457.822355 426.5,459.467066 L426.5,508.397206 L411.697368,508.397206 C379.625,508.397206 357.009868,524.844311 357.009868,561.439122 L357.009868,663 L301.5,663 L301.5,459.467066 L352.486842,459.467066 L352.486842,484.137725 C366.055921,466.457086 386.203947,457 408.407895,457 Z M660.5,664 L597.385246,664 L515.827869,551.524 L515.827869,664 L460.5,664 L460.5,355 L515.827869,355 L515.827869,547.404 L588.778689,460.06 L654.352459,460.06 L578.122951,550.288 L660.5,664 Z" id="Work" transform="translate(147.750000, 511.750000) rotate(-270.000000) translate(-147.750000, -511.750000) "></path>
        </g>
    </g>
</svg>